<?xml version="1.0" encoding="UTF-8" standalone="no"?>
<svg
   id="svg8"
   version="1.1"
   viewBox="0 0 18.462166 18.520445"
   height="18.520445mm"
   width="18.462166mm"
   xmlns:xlink="http://www.w3.org/1999/xlink"
   xmlns="http://www.w3.org/2000/svg"
   xmlns:svg="http://www.w3.org/2000/svg"
   xmlns:rdf="http://www.w3.org/1999/02/22-rdf-syntax-ns#"
   xmlns:cc="http://creativecommons.org/ns#"
   xmlns:dc="http://purl.org/dc/elements/1.1/">
  <defs
     id="defs2">
    <clipPath
       clipPathUnits="userSpaceOnUse"
       id="clipPath32">
      <path
         d="M 0,841.89 H 595.276 V 0 H 0 Z"
         id="path30" />
    </clipPath>
    <clipPath
       clipPathUnits="userSpaceOnUse"
       id="clipPath50">
      <path
         d="M 0,0 H 595.276 V 841.89 H 0 Z"
         id="path48" />
    </clipPath>
    <clipPath
       clipPathUnits="userSpaceOnUse"
       id="clipPath64">
      <path
         d="M 0,841.89 H 595.276 V 0 H 0 Z"
         id="path62" />
    </clipPath>
    <clipPath
       clipPathUnits="userSpaceOnUse"
       id="clipPath306">
      <path
         d="M 0,0 H 595.276 V 841.89 H 0 Z"
         id="path304" />
    </clipPath>
    <clipPath
       clipPathUnits="userSpaceOnUse"
       id="clipPath324">
      <path
         d="M 0,0 H 595.276 V 841.89 H 0 Z"
         id="path322" />
    </clipPath>
    <clipPath
       clipPathUnits="userSpaceOnUse"
       id="clipPath676">
      <path
         d="M 0,0 H 595.276 V 841.89 H 0 Z"
         id="path674" />
    </clipPath>
    <clipPath
       clipPathUnits="userSpaceOnUse"
       id="clipPath694">
      <path
         d="M 0,0 H 595.276 V 841.89 H 0 Z"
         id="path692" />
    </clipPath>
    <clipPath
       clipPathUnits="userSpaceOnUse"
       id="clipPath712">
      <path
         d="M 0,0 H 595.276 V 841.89 H 0 Z"
         id="path710" />
    </clipPath>
    <clipPath
       clipPathUnits="userSpaceOnUse"
       id="clipPath840">
      <path
         d="M 0,0 H 595.276 V 841.89 H 0 Z"
         id="path838" />
    </clipPath>
    <clipPath
       clipPathUnits="userSpaceOnUse"
       id="clipPath964">
      <path
         d="M 392.073,654.925 H 551.675 V 809.453 H 392.073 Z"
         id="path962" />
    </clipPath>
    <clipPath
       clipPathUnits="userSpaceOnUse"
       id="clipPath976">
      <path
         d="m 34.016,42.608 h 162.52 V 205.496 H 34.016 Z"
         id="path974" />
    </clipPath>
    <clipPath
       clipPathUnits="userSpaceOnUse"
       id="clipPath988">
      <path
         d="m 426.638,476.523 h 72.709 v 80.185 h -72.709 z"
         id="path986" />
    </clipPath>
    <clipPath
       clipPathUnits="userSpaceOnUse"
       id="clipPath1100">
      <path
         d="M 0,0 V 841.89 Z"
         id="path1098" />
    </clipPath>
    <mask
       maskUnits="userSpaceOnUse"
       x="0"
       y="0"
       width="1"
       height="1"
       id="mask1104">
      <image
         xlink:href="../original/Right-School-Right-Place-FullGuide_img2.png"
         id="image1106"
         preserveAspectRatio="none"
         style="image-rendering:optimizeSpeed"
         height="1"
         width="1" />
    </mask>
    <clipPath
       clipPathUnits="userSpaceOnUse"
       id="clipPath1118">
      <path
         d="M 0,841.89 H 595.276 V 0 H 0 Z"
         id="path1116" />
    </clipPath>
    <clipPath
       clipPathUnits="userSpaceOnUse"
       id="clipPath1126">
      <path
         d="m 347.094,854.526 h 249.68 v -228.8 h -249.68 z"
         id="path1124" />
    </clipPath>
    <clipPath
       clipPathUnits="userSpaceOnUse"
       id="clipPath1130">
      <path
         d="m 348.094,853.526 h 247.68 v -226.8 h -247.68 z"
         id="path1128" />
    </clipPath>
    <mask
       maskUnits="userSpaceOnUse"
       x="0"
       y="0"
       width="1"
       height="1"
       id="mask1132">
      <g
         id="g1142">
        <g
           clip-path="url(#clipPath1130)"
           id="g1140">
          <g
             id="g1138">
            <g
               transform="matrix(247.67999,0,0,226.79999,348.09448,626.72601)"
               id="g1136">
              <image
                 xlink:href="../original/Right-School-Right-Place-FullGuide_img4.png"
                 id="image1134"
                 transform="matrix(1,0,0,-1,0,1)"
                 preserveAspectRatio="none"
                 style="image-rendering:optimizeSpeed"
                 height="1"
                 width="1" />
            </g>
          </g>
        </g>
      </g>
    </mask>
    <mask
       maskUnits="userSpaceOnUse"
       x="0"
       y="0"
       width="1"
       height="1"
       id="mask1144">
      <image
         xlink:href="../original/Right-School-Right-Place-FullGuide_img5.png"
         id="image1146"
         preserveAspectRatio="none"
         style="image-rendering:optimizeSpeed"
         height="1"
         width="1" />
    </mask>
    <clipPath
       clipPathUnits="userSpaceOnUse"
       id="clipPath1168">
      <path
         d="m 348.378,626.442 h 247.68 v 222.265 h -247.68 z"
         id="path1166" />
    </clipPath>
    <mask
       maskUnits="userSpaceOnUse"
       x="0"
       y="0"
       width="1"
       height="1"
       id="mask1174">
      <image
         xlink:href="../original/Right-School-Right-Place-FullGuide_img7.png"
         id="image1176"
         preserveAspectRatio="none"
         style="image-rendering:optimizeSpeed"
         height="1"
         width="1" />
    </mask>
  </defs>
  <metadata
     id="metadata5">
    <rdf:RDF>
      <cc:Work
         rdf:about="">
        <dc:format>image/svg+xml</dc:format>
        <dc:type
           rdf:resource="http://purl.org/dc/dcmitype/StillImage" />
        <dc:title />
      </cc:Work>
    </rdf:RDF>
  </metadata>
  <g
     transform="translate(-89.923371,-181.13965)"
     id="layer1">
    <g
       transform="matrix(0.35277777,0,0,-0.35277777,205.69636,429.90851)"
       id="g56">
      <g
         id="g58">
        <g
           clip-path="url(#clipPath64)"
           id="g60" />
      </g>
    </g>
    <g
       transform="matrix(0.35277777,0,0,-0.35277777,205.69636,429.90851)"
       id="g982">
      <g
         transform="translate(-763.45951,148.46359)"
         clip-path="url(#clipPath988)"
         id="g984">
        <g
           transform="translate(460.8418,556.7087)"
           id="g990">
          <path
             id="path992"
             style="fill:#ee3124;fill-opacity:1;fill-rule:nonzero;stroke:none"
             d="m 0,0 c -5.991,0 -11.524,-1.967 -15.985,-5.293 -0.03,-0.022 1.454,-2.101 3.792,-5.334 3.391,2.564 7.614,4.087 12.193,4.087 11.177,0 20.238,-9.06 20.238,-20.236 0,-6.727 -3.511,-12.826 -8.564,-16.507 2.377,-3.218 3.909,-5.269 3.937,-5.25 6.762,4.86 11.165,12.794 11.165,21.757 C 26.776,-11.988 14.788,0 0,0" />
        </g>
        <g
           transform="translate(474.8541,540.3751)"
           id="g994">
          <path
             id="path996"
             style="fill:#002d62;fill-opacity:1;fill-rule:nonzero;stroke:none"
             d="m 0,0 c 5.901,-7.9 4.279,-19.086 -3.62,-24.986 -7.899,-5.899 -19.087,-4.279 -24.987,3.62 -5.899,7.9 -4.278,19.087 3.621,24.986 C -17.086,9.52 -5.899,7.9 0,0" />
        </g>
        <g
           transform="translate(469.5947,517.5897)"
           id="g998">
          <path
             id="path1000"
             style="fill:#ee3124;fill-opacity:1;fill-rule:nonzero;stroke:none"
             d="m 0,0 c -6.534,-4.88 -15.853,-3.451 -20.813,3.191 -4.961,6.642 -3.686,15.982 2.848,20.862 C -16.457,22.035 -3.131,4.192 0,0" />
        </g>
        <g
           transform="translate(467.5601,533.909)"
           id="g1002">
          <path
             id="path1004"
             style="fill:#ffffff;fill-opacity:1;fill-rule:nonzero;stroke:none"
             d="m 0,0 c 1.077,-1.52 2.109,-3.796 2.792,-6.273 1.411,0.331 2.742,0.547 3.887,0.57 0.288,3.034 -0.493,6.16 -2.372,8.91 z M 3.512,4.273 C 1.42,6.862 -1.352,8.505 -4.341,9.102 -4.691,8.012 -5.282,6.798 -6.004,5.542 -3.862,4.15 -2.005,2.545 -0.795,1.067 Z m 0.339,-16.949 c 1.383,1.638 2.24,3.603 2.637,5.67 -1.046,-0.006 -2.21,-0.153 -3.427,-0.45 0.511,-1.722 0.788,-3.507 0.79,-5.22 M -5.644,9.292 C -7.74,9.505 -9.87,9.246 -11.861,8.428 -10.281,7.944 -8.589,7.157 -7.05,6.2 c 0.635,1.082 1.108,2.154 1.406,3.092 m 7.313,-24.311 c 0.355,0.265 0.685,0.565 1.023,0.928 0.016,2.059 -0.296,4.261 -0.845,6.339 -1.529,-0.475 -2.96,-1.153 -4.152,-1.928 z m -7.788,10.463 2.992,-4.022 c 1.265,0.83 2.918,1.506 4.693,1.944 -0.631,2.186 -1.511,4.185 -2.632,5.839 z m -0.796,1.068 5.053,3.762 c -1.316,1.619 -2.954,3 -4.84,4.196 -0.926,-1.577 -2.05,-2.966 -3.206,-3.938 z m -3.815,5.124 c 1.12,0.945 2.191,2.184 3.046,3.486 -1.893,1.133 -3.897,1.964 -5.838,2.566 -0.444,-0.219 -0.826,-0.449 -1.18,-0.714 z m -5.882,5.587 c 0.207,0.176 0.304,0.272 0.552,0.456 6.763,5.034 16.072,3.669 21.109,-3.092 5.033,-6.761 3.67,-16.073 -3.091,-21.106 -0.22,-0.164 -0.366,-0.264 -0.559,-0.39 -0.457,0.613 -17.705,23.783 -18.011,24.132" />
        </g>
        <g
           transform="translate(471.9241,511.4391)"
           id="g1006">
          <path
             id="path1008"
             style="fill:#5f604b;fill-opacity:1;fill-rule:nonzero;stroke:none"
             d="m 0,0 c -3.232,-1.95 -7.278,-3.311 -11.292,-3.311 -11.855,0 -21.465,9.695 -21.465,21.654 0,6.364 2.949,12.406 7.291,16.384 -1.173,1.609 -1.972,2.717 -2.239,3.106 -5.467,-4.691 -8.935,-11.682 -8.935,-19.489 0,-14.124 11.349,-25.574 25.348,-25.574 5.012,0 9.685,1.468 13.617,4.001 C 1.992,-2.746 1.168,-1.604 0,0" />
        </g>
      </g>
    </g>
  </g>
</svg>
