<?xml version="1.0" encoding="UTF-8" standalone="no"?>
<svg
   width="18.841532mm"
   height="18.789207mm"
   viewBox="0 0 18.841531 18.789206"
   version="1.1"
   id="svg67976"
   xmlns="http://www.w3.org/2000/svg"
   xmlns:svg="http://www.w3.org/2000/svg"
   xmlns:rdf="http://www.w3.org/1999/02/22-rdf-syntax-ns#"
   xmlns:cc="http://creativecommons.org/ns#"
   xmlns:dc="http://purl.org/dc/elements/1.1/">
  <defs
     id="defs67970">
    <clipPath
       id="clipPath183429"
       clipPathUnits="userSpaceOnUse">
      <path
         id="path183427"
         d="m 29.291,121.273 h 112.068 v 80.491 H 29.291 Z" />
    </clipPath>
  </defs>
  <metadata
     id="metadata67973">
    <rdf:RDF>
      <cc:Work
         rdf:about="">
        <dc:format>image/svg+xml</dc:format>
        <dc:type
           rdf:resource="http://purl.org/dc/dcmitype/StillImage" />
        <dc:title />
      </cc:Work>
    </rdf:RDF>
  </metadata>
  <g
     id="layer1"
     transform="translate(1176.7155,358.52533)">
    <g
       id="g184667"
       transform="translate(-97.553378,-9.0871639)">
      <g
         transform="matrix(0.13336305,0,0,0.13270681,-1068.7002,-337.41122)"
         id="g183417">
        <g
           transform="translate(-19.8873,-7.9704)"
           id="g183419">
          <path
             id="path183421"
             style="fill:#414042;fill-opacity:1;fill-rule:nonzero;stroke:none"
             d="M 0,0 H -0.354 -13.631 V -3.764 H -0.354 0 13.27 V 0 Z" />
        </g>
      </g>
      <g
         transform="matrix(0.35277777,0,0,-0.35277777,-1098.8011,-280.43112)"
         id="g183423">
        <g
           clip-path="url(#clipPath183429)"
           id="g183425">
          <g
             transform="matrix(0.378037,0,0,-0.3761768,85.325523,161.5184)"
             id="g183431">
            <g
               transform="translate(-14.2796,-83.6539)"
               id="g183433">
              <path
                 id="path183435"
                 style="fill:#414042;fill-opacity:1;fill-rule:nonzero;stroke:none"
                 d="m 0,0 c -0.022,-0.019 -0.061,-0.006 -0.083,-0.006 -0.124,0 -0.521,0.21 -0.769,0.527 H -3.751 C -3.958,-0.2 -4.53,-0.76 -5.258,-0.947 v -2.915 c 0.318,-0.254 0.534,-0.645 0.534,-0.769 0,-0.026 0.007,-0.064 -0.006,-0.089 -0.445,-0.779 -0.744,-2.263 -1.074,-2.254 h -0.007 c -0.327,-0.009 -0.632,1.475 -1.071,2.254 -0.016,0.025 -0.003,0.063 -0.003,0.089 0,0.124 0.203,0.515 0.521,0.769 v 2.927 c -0.709,0.201 -1.268,0.76 -1.465,1.476 h -2.915 C -11.001,0.223 -11.389,0.01 -11.51,0.01 c -0.026,0 -0.067,-0.01 -0.089,0.006 -0.782,0.439 -2.263,0.744 -2.254,1.071 v 0.007 c -0.009,0.327 1.472,0.635 2.254,1.071 0.022,0.016 0.063,0.006 0.089,0.006 0.121,0 0.509,-0.21 0.766,-0.527 h 2.905 c 0.178,0.677 0.674,1.217 1.326,1.455 v 6.243 c -0.617,0.274 -1.043,0.887 -1.043,1.599 0,0.719 0.426,1.329 1.043,1.602 v 13.758 h 1.507 V 12.505 c 0.571,-0.289 0.965,-0.877 0.965,-1.564 0,-0.68 -0.394,-1.268 -0.965,-1.557 V 3.083 c 0.632,-0.248 1.112,-0.788 1.277,-1.458 h 2.877 c 0.248,0.317 0.645,0.53 0.769,0.53 0.022,0 0.061,0.01 0.083,-0.009 C 0.782,1.71 2.266,1.405 2.257,1.078 V 1.068 C 2.266,0.741 0.782,0.436 0,0" />
            </g>
          </g>
          <g
             transform="matrix(0.378037,0,0,-0.3761768,85.325523,161.5184)"
             id="g183437">
            <g
               transform="translate(1.2141,2.4926)"
               id="g183439">
              <path
                 id="path183441"
                 style="fill:#414042;fill-opacity:1;fill-rule:nonzero;stroke:none"
                 d="M 0,0 -0.013,0.639 -1.354,1.732 H -2.486 V 12.27 l -12.4,7.956 -7.171,16.813 h -9.581 l -8.436,-4.896 V 1.732 h -1.132 L -42.55,0.639 -42.56,0 h 21.107 0.352 z m -15,12.422 h 5.133 V 1.732 h -9.174 l -0.654,4.581 -0.038,0.146 c 3.664,0.687 4.666,3.583 4.733,5.963 m 0.021,1.958 v 5.115 l 5.112,-2.407 V 14.38 Z m -3.216,-1.093 c 0,-1.561 -1.338,-2.823 -2.982,-2.823 -0.031,0 -0.07,0.01 -0.105,0.01 -0.031,0 -0.06,-0.01 -0.095,-0.01 -1.65,0 -2.988,1.262 -2.988,2.823 0,0.318 0.07,0.62 0.172,0.906 v 6.284 h 2.74 0.352 2.734 v -6.284 c 0.102,-0.286 0.172,-0.588 0.172,-0.906 m -3.258,8.996 h -2.74 v 10.086 h 2.74 0.352 2.734 V 22.283 h -2.734 z M -22.817,6.459 -22.865,6.313 -23.51,1.732 h -9.183 v 10.69 h 5.137 c 0.06,-2.38 1.061,-5.276 4.739,-5.963 m -9.876,7.921 v 17.763 h 0.973 v 4.593 h 4.144 V 14.38 Z" />
            </g>
          </g>
          <g
             transform="matrix(0.378037,0,0,-0.3761768,85.325523,161.5184)"
             id="g183443">
            <path
               id="path183445"
               style="fill:#414042;fill-opacity:1;fill-rule:nonzero;stroke:none"
               d="m -32.365,-21.897 h 10.089 v 8.204 H -32.365 Z M 3.52,-2.199 c 0,0 -1.304,0.2 -1.803,1.204 C 1.215,0.007 0.21,0.712 0.21,0.712 h -20.28 v -3.614 h 14.343 v -2.247 c 0,-0.598 0.384,-1.1 0.921,-1.284 v -22.089 h -2.965 v 4.968 h -10.086 v -4.968 h -2.104 -0.2 -2.115 v 4.968 h -10.089 v -4.968 h -2.956 v 22.089 c 0.531,0.184 0.909,0.686 0.909,1.284 v 2.247 h 14.342 v 3.614 h -20.273 c 0,0 -1.005,-0.705 -1.504,-1.707 -0.502,-1.004 -1.812,-1.204 -1.812,-1.204 l 0.105,-0.703 h 3.51 v -2.247 c 0,-0.553 0.337,-1.027 0.81,-1.243 v -38.564 h -0.842 l -3.071,-4.819 h 3.309 v -7.504 c 0,0 0,-0.376 0.223,-0.601 0.143,-0.14 0.302,-0.191 0.413,-0.21 l -1.087,-1.297 h 1.227 c -0.022,-0.121 -0.038,-0.245 -0.038,-0.375 0,-0.747 0.425,-1.386 1.052,-1.701 v -1.646 c -1.078,-0.363 -1.85,-1.367 -1.85,-2.562 0,-1.392 1.049,-2.524 2.4,-2.683 -0.614,-0.143 -1.068,-0.69 -1.068,-1.345 0,-0.762 0.616,-1.385 1.383,-1.385 0.759,0 1.379,0.623 1.379,1.385 0,0.655 -0.455,1.202 -1.068,1.345 1.351,0.159 2.4,1.291 2.4,2.683 0,1.195 -0.772,2.199 -1.847,2.562 v 1.646 c 0.616,0.315 1.049,0.954 1.049,1.701 0,0.13 -0.013,0.254 -0.038,0.375 h 15.147 0.2 15.14 c -0.026,-0.121 -0.042,-0.245 -0.042,-0.375 0,-0.747 0.432,-1.386 1.053,-1.701 v -1.646 c -1.079,-0.363 -1.854,-1.367 -1.854,-2.562 0,-1.392 1.053,-2.524 2.403,-2.683 -0.613,-0.143 -1.068,-0.69 -1.068,-1.345 0,-0.762 0.62,-1.385 1.386,-1.385 0.76,0 1.383,0.623 1.383,1.385 0,0.655 -0.461,1.202 -1.071,1.345 1.347,0.159 2.397,1.291 2.397,2.683 0,1.195 -0.78,2.199 -1.847,2.562 v 1.646 c 0.626,0.315 1.052,0.954 1.052,1.701 0,0.13 -0.01,0.254 -0.038,0.375 h 1.223 l -1.087,1.297 c 0.112,0.019 0.271,0.07 0.414,0.21 0.225,0.225 0.225,0.601 0.225,0.601 v 7.504 h 3.31 l -3.072,4.819 h -0.841 v 38.564 c 0.469,0.216 0.8,0.69 0.8,1.243 v 2.247 h 3.519 z m -32.27,-31.813 -0.563,-4.072 h -6.008 v 7.83 h 2.998 c 0.175,-1.787 1.62,-3.265 3.573,-3.758 m 14.501,0 -0.557,-4.072 h -5.013 -0.495 -5.01 l -0.559,4.072 c 1.948,0.493 3.394,1.971 3.569,3.758 h 2.153 0.2 2.145 c 0.172,-1.787 1.618,-3.265 3.567,-3.758 m 9.443,-4.072 h -6.014 l -0.566,4.072 c 1.958,0.493 3.405,1.971 3.571,3.758 h 3.009 z m 0,-5.12 h -15.155 -0.2 -15.16 v 3.541 h 15.007 0.495 15.013 z m -13.051,29.511 h 10.089 v -8.204 h -10.089 z m -1.908,-34.575 h -0.604 -19.675 l 1.344,1.904 h 18.331 0.604 18.332 l 1.338,-1.904 z m -0.196,-3.967 h -0.2 -14.111 v 2.26 h 14.111 0.2 14.1 v -2.26 z m -14.311,-1.958 h 2.161 v -2.759 h -2.161 z m 3.757,0 h 2.155 v -2.759 h -2.155 z m 3.761,0 h 2.155 v -2.759 h -2.155 z m 3.754,0 h 2.155 v -2.759 H -23 Z m 3.754,0 h 2.162 v -2.759 h -2.162 z m 3.757,0 h 2.155 v -2.759 h -2.155 z m 3.754,0 h 2.155 v -2.759 h -2.155 z m 3.761,0 h 2.158 v -2.759 h -2.158 z" />
          </g>
          <g
             transform="matrix(0.378037,0,0,-0.3761768,85.325523,161.5184)"
             id="g183447">
            <g
               transform="translate(-78.0632,50.1034)"
               id="g183449">
              <path
                 id="path183451"
                 style="fill:#414042;fill-opacity:1;fill-rule:nonzero;stroke:none"
                 d="m 0,0 c 1.583,0 3.096,0.309 4.454,0.853 4.154,-4.975 10.368,-8.164 17.333,-8.252 -0.029,-0.293 -0.045,-0.588 -0.045,-0.891 0,-5.429 4.397,-9.828 9.829,-9.828 5.429,0 9.835,4.399 9.835,9.828 0,0.483 -0.048,0.951 -0.114,1.412 2.892,-2.12 6.461,-3.376 10.324,-3.376 1.745,0 3.423,0.261 5.016,0.731 0.384,-0.039 0.765,-0.073 1.16,-0.105 0.874,-0.785 1.809,-1.538 2.794,-2.257 0.715,-12.031 10.693,-21.567 22.899,-21.567 2.002,0 3.945,0.258 5.795,0.737 0.674,-4.767 4.762,-8.442 9.72,-8.442 5.43,0 9.832,4.402 9.832,9.835 0,0.479 -0.044,0.947 -0.111,1.405 2.892,-2.117 6.462,-3.373 10.324,-3.373 9.65,0 17.479,7.826 17.479,17.479 0,3.891 -1.274,7.487 -3.422,10.392 1.198,0.887 2.209,2.012 2.961,3.303 3.024,-3.745 4.833,-8.507 4.833,-13.695 0,-12.066 -9.785,-21.85 -21.851,-21.85 -2.391,0 -4.691,0.389 -6.844,1.1 -2.085,-5.251 -7.206,-8.964 -13.201,-8.964 -5.56,0 -10.368,3.195 -12.701,7.845 -0.923,-0.095 -1.863,-0.143 -2.814,-0.143 -13.869,0 -25.321,10.341 -27.073,23.732 -1.544,-0.343 -3.15,-0.534 -4.796,-0.534 -2.391,0 -4.686,0.392 -6.844,1.1 -2.088,-5.254 -7.206,-8.964 -13.201,-8.964 -6.764,0 -12.419,4.73 -13.85,11.065 C 10.226,-10.223 3.757,-5.969 -0.384,0.017 -0.261,0.013 -0.133,0 0,0" />
            </g>
          </g>
        </g>
      </g>
    </g>
  </g>
</svg>
