<?xml version="1.0" encoding="UTF-8" standalone="no"?>
<svg
   id="svg8"
   version="1.1"
   viewBox="0 0 7.5811943 8.3467225"
   height="8.3467226mm"
   width="7.5811944mm"
   xmlns="http://www.w3.org/2000/svg"
   xmlns:svg="http://www.w3.org/2000/svg"
   xmlns:rdf="http://www.w3.org/1999/02/22-rdf-syntax-ns#"
   xmlns:cc="http://creativecommons.org/ns#"
   xmlns:dc="http://purl.org/dc/elements/1.1/">
  <defs
     id="defs2">
    <clipPath
       clipPathUnits="userSpaceOnUse"
       id="clipPath46">
      <path
         d="m 36,157.89 h 112.74 v 71.717 H 36 Z"
         id="path44" />
    </clipPath>
    <clipPath
       clipPathUnits="userSpaceOnUse"
       id="clipPath632">
      <path
         d="m 39.044,166.112 h 96.653 v 55.272 H 39.044 Z"
         id="path630" />
    </clipPath>
    <clipPath
       clipPathUnits="userSpaceOnUse"
       id="clipPath648">
      <path
         d="m 36,157.89 h 112.74 v 71.717 H 36 Z"
         id="path646" />
    </clipPath>
    <clipPath
       clipPathUnits="userSpaceOnUse"
       id="clipPath950">
      <path
         d="M 0,0 H 1190.551 V 841.89 H 0 Z"
         id="path948" />
    </clipPath>
    <clipPath
       clipPathUnits="userSpaceOnUse"
       id="clipPath958">
      <path
         d="M 636.795,787.823 H 1206.46 V 727.768 H 636.795 Z"
         id="path956" />
    </clipPath>
  </defs>
  <metadata
     id="metadata5">
    <rdf:RDF>
      <cc:Work
         rdf:about="">
        <dc:format>image/svg+xml</dc:format>
        <dc:type
           rdf:resource="http://purl.org/dc/dcmitype/StillImage" />
        <dc:title />
      </cc:Work>
    </rdf:RDF>
  </metadata>
  <g
     transform="translate(214.65332,-220.96246)"
     id="layer1">
    <g
       id="g5943">
      <g
         id="g20"
         transform="matrix(0.35277777,0,0,-0.35277777,-213.85075,220.96246)">
        <path
           d="m 0,0 -0.006,-11.507 h -2.266 l 0.645,-0.991 -0.648,-0.976 1.501,0.002 -1.357,-1.159 v -2.096 l 5.688,-4.124 -1.35,-0.952 v -1.857 h 12.176 l -0.005,1.863 -1.45,0.946 6.007,4.394 v 1.826 l -1.396,1.164 1.486,-0.003 -0.636,0.98 0.826,0.992 h -2.492 v 11.487 z"
           style="fill:#a3734d;fill-opacity:1;fill-rule:nonzero;stroke:none"
           id="path22" />
      </g>
      <g
         id="g24"
         transform="matrix(0.35277777,0,0,-0.35277777,-210.97483,224.30048)">
        <path
           d="M 0,0 -7.762,-5.523 V 9.095 H 0 Z"
           style="fill:#002c80;fill-opacity:1;fill-rule:nonzero;stroke:none"
           id="path26" />
      </g>
      <g
         id="g28"
         transform="matrix(0.35277777,0,0,-0.35277777,-210.84046,224.30048)">
        <path
           d="M 0,0 7.766,-5.523 V 9.095 H 0 Z"
           style="fill:#d32011;fill-opacity:1;fill-rule:nonzero;stroke:none"
           id="path30" />
      </g>
      <g
         id="g32"
         transform="matrix(0.35277777,0,0,-0.35277777,-209.78145,227.97656)">
        <path
           d="m 0,0 1.166,-0.805 6.02,4.401 v 1.487 z"
           style="fill:#ffffff;fill-opacity:1;fill-rule:nonzero;stroke:none"
           id="path34" />
      </g>
      <g
         id="g36"
         transform="matrix(0.35277777,0,0,-0.35277777,-214.50465,226.22562)">
        <path
           d="m 0,0 0.01,-1.708 5.631,-4.053 1.168,0.854 z"
           style="fill:#ffffff;fill-opacity:1;fill-rule:nonzero;stroke:none"
           id="path38" />
      </g>
      <g
         id="g40"
         transform="matrix(0.35277777,0,0,-0.35277777,-251.12842,299.06174)">
        <g
           id="g42"
           clip-path="url(#clipPath46)">
          <g
             id="g48"
             transform="translate(118.4716,219.7283)">
            <path
               d="M 0,0 C 0.324,0.19 0.344,-0.173 0.59,-0.266 0.838,-0.248 1.049,-0.571 1.314,-0.646 1.371,-1.122 1.865,-1.561 1.828,-2.169 2.055,-2.359 1.791,-2.53 1.922,-2.74 1.98,-3.234 1.848,-3.768 1.656,-4.147 1.619,-4.396 1.561,-4.509 1.58,-4.774 l -0.096,0.15 v -0.552 c -0.056,0 -0.113,0.115 -0.17,0.019 0,-0.322 0.075,-0.664 0.379,-0.855 l 0.229,0.285 C 2.037,-5.992 1.77,-6.241 1.619,-6.393 1.543,-6.354 1.504,-6.449 1.447,-6.487 1.732,-6.603 1.998,-6.791 2.133,-7.097 2.133,-7.344 2.15,-7.496 2.096,-7.725 2.418,-8.048 2.76,-8.484 2.607,-9.056 2.398,-9.341 2.15,-9.627 1.75,-9.608 c 0.154,0 0.287,0.115 0.346,0.229 0.017,0.076 -0.02,0.152 0.037,0.19 C 1.998,-9.21 1.791,-9.455 1.58,-9.379 l -0.133,0.19 C 1.199,-9.418 0.973,-9.76 1.105,-10.122 l 0.17,-0.17 c -0.152,-0.134 -0.263,0.057 -0.418,0.095 -0.209,0.246 -0.437,0.608 -0.437,1.008 0.152,-0.114 0.303,-0.229 0.514,-0.19 l 0.171,0.19 C 0.953,-9.095 0.723,-9.265 0.553,-9.095 L 0.459,-8.923 C 0.42,-9.17 0.248,-9.17 0.078,-9.056 c -0.211,0.8 -1.162,0.077 -1.408,0.781 l -0.248,-0.514 c 0.076,0.456 -0.494,0.645 -0.686,0.893 -0.113,-0.152 0.076,-0.19 0.114,-0.342 -0.266,0.171 -0.534,0.228 -0.549,0.591 -0.248,-0.229 -0.477,-0.02 -0.725,0.055 0.647,-0.095 0.572,1.105 1.332,0.762 0.02,-0.191 -0.058,-0.304 0.076,-0.438 -0.019,0.342 0.114,0.628 0.401,0.743 0.113,-0.115 0.076,0.094 0.17,0.076 -0.399,0.38 0.304,1.103 -0.532,1.026 -0.457,0.096 0.018,0.742 -0.418,0.819 -0.056,0.457 0.399,0.855 0.057,1.236 0.074,0.475 0.094,0.932 0.533,1.18 -0.134,0.189 -0.324,0.456 -0.554,0.608 -0.325,0.019 -0.817,0.019 -0.932,-0.342 -0.113,0.096 -0.076,0.361 -0.037,0.514 0.189,0.153 0.018,0.513 0.305,0.552 -0.153,0.342 0.361,0.227 0.285,0.55 0.287,0.096 0.836,0.191 1.101,0.439 C -1.33,0.114 -0.988,0.114 -0.646,0.171 -0.398,0.19 -0.152,0.151 0,0"
               style="fill:#231f20;fill-opacity:1;fill-rule:nonzero;stroke:none"
               id="path50" />
          </g>
          <g
             id="g52"
             transform="translate(117.7294,219.5955)">
            <path
               d="m 0,0 v 0.075 l 0.191,-0.19 C 0.248,-0.077 0.229,0 0.229,0.075 l 0.21,-0.208 C 0.514,-0.077 0.42,0.075 0.572,0.075 0.609,0 0.609,-0.059 0.686,-0.115 l 0.095,0.152 0.172,-0.285 c 0.037,0.189 0.19,0.075 0.248,0 C 1.162,-0.306 1.162,-0.533 1.029,-0.477 0.953,-0.248 0.609,-0.381 0.572,-0.115 0.439,-0.133 0.535,-0.306 0.514,-0.419 L 0.305,-0.21 0.229,-0.344 c -0.133,0.134 -0.342,0.038 -0.512,0.058 l 0.037,-0.02 -0.246,0.02 v -0.095 l -0.268,0.248 c 0.172,-0.305 0.039,-0.667 0.381,-0.931 0.037,0.092 0.037,0.34 0,0.472 0.057,-0.112 0.19,-0.112 0.266,-0.037 0.037,-0.057 0.074,-0.133 0.113,-0.19 h 0.096 v -0.153 c 0.095,-0.057 0.113,0.116 0.172,0.172 l 0.209,-0.264 0.38,0.302 c 0.018,-0.227 -0.019,-0.494 -0.248,-0.57 -0.322,0.095 -0.798,0.152 -1.16,0.133 -0.095,0.114 -0.152,0.227 -0.17,0.38 0.075,-0.076 0.018,-0.191 0.133,-0.245 0.133,0.245 -0.115,0.416 -0.172,0.587 -0.056,0.019 -0.113,0.096 -0.172,0.096 l 0.059,-0.305 c 0.096,-0.076 -0.248,0.248 -0.438,0.228 -0.115,0.058 -0.058,0.172 -0.076,0.248 0.057,0.02 0.076,-0.038 0.114,-0.076 l 0.093,0.153 c 0.118,-0.019 0.098,-0.134 0.209,-0.115 0.039,0.058 -0.091,0.323 0.098,0.323 0.17,0.038 0.189,-0.17 0.285,-0.248 l 0.096,0.268 C -0.359,0.018 -0.152,-0.229 0,0"
               style="fill:#ffffff;fill-opacity:1;fill-rule:nonzero;stroke:none"
               id="path54" />
          </g>
          <g
             id="g56"
             transform="translate(119.2704,219.2147)">
            <path
               d="m 0,0 0.096,-0.211 c 0.058,0.021 0.117,0.038 0.132,0.078 l 0.04,-0.305 C 0.496,-0.476 0.496,-0.875 0.725,-0.99 0.992,-1.275 0.648,-1.58 0.914,-1.846 L 0.895,-2.055 c 0.134,0.267 -0.342,0.381 -0.151,0.57 l -0.191,0.038 c 0.076,0.039 0.058,0.172 0.095,0.248 C 0.629,-1.143 0.553,-1.18 0.516,-1.16 0.477,-1.218 0.59,-1.047 0.553,-0.951 H 0.4 c 0.037,0.21 -0.113,0.343 -0.172,0.532 L 0.174,-0.552 C 0.25,-0.514 0.039,-0.4 0,-0.268 L -0.076,-0.343 C -0.17,-0.211 -0.418,-0.077 -0.17,0.075 L -0.113,-0.077 0,0"
               style="fill:#ffffff;fill-opacity:1;fill-rule:nonzero;stroke:none"
               id="path58" />
          </g>
          <g
             id="g60"
             transform="translate(117.0087,218.3963)">
            <path
               d="M 0,0 H -0.25 V -0.133 L -0.381,0 h 0.131 c -0.035,0.189 -0.189,0.324 -0.34,0.476 l -0.285,0.075 c 0.15,-0.285 -0.248,-0.038 -0.307,-0.208 0.059,-0.248 0.418,-0.077 0.553,-0.285 -0.189,0.019 -0.494,0.285 -0.646,0 l 0.265,-0.096 c -0.226,0.115 -0.435,-0.077 -0.646,-0.095 l 0.246,0.228 c -0.092,0.133 0.078,0.323 0.174,0.591 l 0.361,0.055 -0.057,0.114 C -0.553,0.645 -0.229,0.399 0,0"
               style="fill:#ffffff;fill-opacity:1;fill-rule:nonzero;stroke:none"
               id="path62" />
          </g>
          <g
             id="g64"
             transform="translate(113.3564,218.6624)">
            <path
               d="m 0,0 0.037,-6.068 c -0.951,-0.21 -1.998,0 -2.738,0.609 -0.42,0 -0.838,-0.286 -1.238,-0.039 C -4.871,-5.65 -5.65,-6.601 -6.832,-6.24 V 0 c 0.172,-0.077 0.305,0.058 0.477,0.077 0.037,0.208 0.21,0.475 0.457,0.264 0.798,-0.17 1.826,0.267 2.472,-0.38 0.59,0.799 1.883,0.191 2.682,0.514 C -0.383,0.457 -0.496,-0.342 0,0"
               style="fill:#231f20;fill-opacity:1;fill-rule:nonzero;stroke:none"
               id="path66" />
          </g>
          <g
             id="g68"
             transform="translate(112.538,213.9632)">
            <path
               d="M 0,0 C -0.781,-0.304 -1.617,0.304 -2.436,0 V 4.528 C -1.791,5.099 -0.799,4.699 0,4.833 V 0"
               style="fill:#ffffff;fill-opacity:1;fill-rule:nonzero;stroke:none"
               id="path70" />
          </g>
          <g
             id="g72"
             transform="translate(109.8544,218.3202)">
            <path
               d="m 0,0 -0.037,-4.394 c -0.838,0.417 -1.561,-0.344 -2.359,-0.134 l -0.04,4.947 c 0.268,0.095 0.553,-0.058 0.801,0 C -1.047,0.476 -0.344,0.494 0,0"
               style="fill:#ffffff;fill-opacity:1;fill-rule:nonzero;stroke:none"
               id="path74" />
          </g>
          <g
             id="g76"
             transform="translate(112.8407,213.7166)">
            <path
               d="m 0,0 c -0.742,-0.647 -1.635,0.075 -2.473,0.075 0.875,0.153 1.502,-0.57 2.34,-0.171 l 0.076,0.133 V 5.06 H 0 V 0"
               style="fill:#ffffff;fill-opacity:1;fill-rule:nonzero;stroke:none"
               id="path78" />
          </g>
          <g
             id="g80"
             transform="translate(118.8915,218.491)">
            <path
               d="M 0,0 0.17,0.115 C 0.285,-0.056 0.021,-0.19 0.094,-0.342 l 0.324,0.286 C 0.398,-0.171 0.285,-0.267 0.437,-0.342 0.553,-0.209 0.494,-0.437 0.607,-0.4 L 0.475,-0.723 H 0.592 L 0.553,-0.762 C 0.57,-0.818 0.646,-0.781 0.686,-0.781 0.703,-0.875 0.666,-1.007 0.553,-0.989 H 0.342 l 0.076,0.171 -0.152,0.037 0.152,0.135 c -0.115,0.094 -0.342,-0.077 -0.494,0.038 -0.153,0.113 -0.361,0.266 -0.211,0.475 h 0.039 l 0.039,0.418 C -0.248,0.152 -0.02,0.133 0,0"
               style="fill:#ffffff;fill-opacity:1;fill-rule:nonzero;stroke:none"
               id="path82" />
          </g>
          <g
             id="g84"
             transform="translate(107.2118,213.4876)">
            <path
               d="M 0,0 C 0.625,-0.076 1.215,0.114 1.787,0.229 1.215,0.095 0.645,-0.19 -0.059,-0.076 L -0.021,5.136 0,0"
               style="fill:#ffffff;fill-opacity:1;fill-rule:nonzero;stroke:none"
               id="path86" />
          </g>
          <g
             id="g88"
             transform="translate(106.9443,213.241)">
            <path
               d="M 0,0 C 0.836,-0.266 1.654,0.323 2.512,0.418 1.598,0.341 0.836,-0.496 -0.115,-0.135 v 5.29 H 0 V 0"
               style="fill:#ffffff;fill-opacity:1;fill-rule:nonzero;stroke:none"
               id="path90" />
          </g>
          <g
             id="g92"
             transform="translate(113.1279,213.241)">
            <path
               d="m 0,0 c -0.934,-0.343 -1.922,0.02 -2.76,0.341 0.818,0.135 1.674,-0.837 2.606,-0.246 l 0.039,5.06 H 0 V 0"
               style="fill:#ffffff;fill-opacity:1;fill-rule:nonzero;stroke:none"
               id="path94" />
          </g>
          <g
             id="g96"
             transform="translate(116.5126,218.1102)">
            <path
               d="m 0,0 c -0.113,-0.039 -0.152,0.153 -0.268,0.171 l 0.25,-0.057 V 0.286 C 0.076,0.19 -0.018,0.135 0,0"
               style="fill:#ffffff;fill-opacity:1;fill-rule:nonzero;stroke:none"
               id="path98" />
          </g>
          <g
             id="g100"
             transform="translate(108.2372,217.5018)">
            <path
               d="M 0,0 H -0.439 L -0.475,0.4 C -0.324,0.208 0.113,0.438 0,0"
               style="fill:#231f20;fill-opacity:1;fill-rule:nonzero;stroke:none"
               id="path102" />
          </g>
          <g
             id="g104"
             transform="translate(111.2626,217.8826)">
            <path
               d="M 0,0 V -0.115 C 0.227,-0.038 0.361,0.02 0.627,0 0.666,0 0.836,0.02 0.836,-0.115 L 0.971,0 c 0.076,-0.096 0.113,-0.209 0.095,-0.342 -0.267,-0.02 -0.439,0 -0.648,0.094 L 0.342,-0.342 c -0.266,0.133 -0.531,0.133 -0.817,0.133 V 0 C -0.342,-0.057 -0.152,0.095 0,0"
               style="fill:#231f20;fill-opacity:1;fill-rule:nonzero;stroke:none"
               id="path106" />
          </g>
          <g
             id="g108"
             transform="translate(108.9032,217.7293)">
            <path
               d="m 0,0 c 0.096,-0.322 -0.324,-0.075 -0.381,-0.189 -0.135,-0.076 -0.15,0.076 -0.135,0.17 0,0.04 -0.037,0.115 0.022,0.134 l 0.152,-0.248 0.037,0.286 C -0.189,0.135 0.018,0.192 0,0"
               style="fill:#231f20;fill-opacity:1;fill-rule:nonzero;stroke:none"
               id="path110" />
          </g>
          <g
             id="g112"
             transform="translate(109.1122,217.6346)">
            <path
               d="m 0,0 h -0.074 l 0.037,0.248 C 0.02,0.191 -0.02,0.076 0,0"
               style="fill:#231f20;fill-opacity:1;fill-rule:nonzero;stroke:none"
               id="path114" />
          </g>
          <g
             id="g116"
             transform="translate(110.579,217.5594)">
            <path
               d="m 0,0 -0.059,0.075 c -0.019,-0.17 -0.248,-0.018 -0.322,-0.17 -0.211,0.303 0.246,0.246 0.342,0.418 C -0.059,0.228 0.187,0.114 0,0"
               style="fill:#231f20;fill-opacity:1;fill-rule:nonzero;stroke:none"
               id="path118" />
          </g>
          <g
             id="g120"
             transform="translate(109.6454,217.5018)">
            <path
               d="M 0,0 H -0.361 V 0.305 C -0.324,0.19 0.172,0.381 0,0"
               style="fill:#231f20;fill-opacity:1;fill-rule:nonzero;stroke:none"
               id="path122" />
          </g>
          <g
             id="g124"
             transform="translate(119.6513,217.1981)">
            <path
               d="m 0,0 0.172,-0.115 -0.418,-0.037 c 0.078,0.019 0.115,0.094 0.172,0.152 l -0.039,0.094 h -0.094 c 0.055,0.057 0.189,0.096 0.264,0.039 L 0,0"
               style="fill:#ffffff;fill-opacity:1;fill-rule:nonzero;stroke:none"
               id="path126" />
          </g>
          <g
             id="g128"
             transform="translate(111.4716,216.8167)">
            <path
               d="m 0,0 c -0.229,0.039 -0.344,0.152 -0.588,0.058 -0.096,0.285 0.15,0.191 0.285,0.323 C -0.152,0.286 0.096,0.324 0,0"
               style="fill:#231f20;fill-opacity:1;fill-rule:nonzero;stroke:none"
               id="path130" />
          </g>
          <g
             id="g132"
             transform="translate(112.2704,216.8748)">
            <path
               d="M 0,0 C -0.189,-0.096 -0.285,-0.076 -0.496,-0.133 -0.57,0 -0.684,0.076 -0.59,0.246 -0.42,0.113 0.113,0.475 0,0"
               style="fill:#231f20;fill-opacity:1;fill-rule:nonzero;stroke:none"
               id="path134" />
          </g>
          <g
             id="g136"
             transform="translate(110.6552,216.8167)">
            <path
               d="m 0,0 c -0.23,0.114 -0.307,-0.304 -0.457,0 -0.022,0.134 0.17,0.152 0.246,0.229 C 0.037,0.381 0.17,0.077 0,0"
               style="fill:#231f20;fill-opacity:1;fill-rule:nonzero;stroke:none"
               id="path138" />
          </g>
          <g
             id="g140"
             transform="translate(108.4091,216.951)">
            <path
               d="M 0,0 V -0.134 H -0.098 V 0.095 C -0.037,0.095 0,0.055 0,0"
               style="fill:#231f20;fill-opacity:1;fill-rule:nonzero;stroke:none"
               id="path142" />
          </g>
          <g
             id="g144"
             transform="translate(109.038,216.8748)">
            <path
               d="M 0,0 C 0.037,-0.115 -0.078,-0.133 -0.135,-0.172 -0.268,0.038 -0.666,-0.305 -0.516,0.113 -0.42,0.171 -0.021,0.304 0,0"
               style="fill:#231f20;fill-opacity:1;fill-rule:nonzero;stroke:none"
               id="path146" />
          </g>
          <g
             id="g148"
             transform="translate(109.6259,216.8553)">
            <path
               d="m 0,0 c -0.02,-0.076 0.02,-0.171 -0.037,-0.21 -0.078,0.154 -0.287,0.114 -0.418,0.171 L -0.42,0.19 C -0.342,0.133 -0.037,0.21 0,0"
               style="fill:#231f20;fill-opacity:1;fill-rule:nonzero;stroke:none"
               id="path150" />
          </g>
          <g
             id="g152"
             transform="translate(108.2197,216.9881)">
            <path
               d="m 0,0 c 0.152,-0.381 -0.248,-0.266 -0.383,-0.381 -0.113,0.096 -0.113,0.323 0,0.42 L 0,0"
               style="fill:#231f20;fill-opacity:1;fill-rule:nonzero;stroke:none"
               id="path154" />
          </g>
          <g
             id="g156"
             transform="translate(120.0907,216.6844)">
            <path
               d="M 0,0 0.074,0.304 0.094,0.058 Z"
               style="fill:#ffffff;fill-opacity:1;fill-rule:nonzero;stroke:none"
               id="path158" />
          </g>
          <g
             id="g160"
             transform="translate(119.8232,216.6458)">
            <path
               d="M 0,0 0.02,-0.247 H -0.152 L -0.076,-0.076 -0.379,0 C -0.34,0.096 -0.094,0.096 0,0"
               style="fill:#ffffff;fill-opacity:1;fill-rule:nonzero;stroke:none"
               id="path162" />
          </g>
          <g
             id="g164"
             transform="translate(120.2216,216.494)">
            <path
               d="M 0,0 C 0.02,-0.076 -0.018,-0.21 -0.094,-0.189 -0.113,-0.116 -0.076,0.019 0,0"
               style="fill:#ffffff;fill-opacity:1;fill-rule:nonzero;stroke:none"
               id="path166" />
          </g>
          <g
             id="g168"
             transform="translate(111.1689,216.3221)">
            <path
               d="m 0,0 c 0.074,0 0.113,-0.113 0.094,-0.19 h -0.379 l 0.072,0.267 C -0.096,0.096 -0.115,-0.094 0,0"
               style="fill:#231f20;fill-opacity:1;fill-rule:nonzero;stroke:none"
               id="path170" />
          </g>
          <g
             id="g172"
             transform="translate(108.6943,216.3221)">
            <path
               d="m 0,0 c 0.113,-0.209 -0.172,-0.286 -0.344,-0.304 -0.113,0.018 -0.076,0.21 -0.039,0.286 C -0.248,0.115 -0.172,-0.056 0,0"
               style="fill:#231f20;fill-opacity:1;fill-rule:nonzero;stroke:none"
               id="path174" />
          </g>
          <g
             id="g176"
             transform="translate(110.788,216.1321)">
            <path
               d="M 0,0 C -0.096,-0.189 -0.494,0.096 -0.439,-0.247 -0.572,-0.209 -0.572,0 -0.516,0.096 -0.42,0.019 -0.172,0.209 -0.041,0.19 0.018,0.19 0,0.057 0,0"
               style="fill:#231f20;fill-opacity:1;fill-rule:nonzero;stroke:none"
               id="path178" />
          </g>
          <g
             id="g180"
             transform="translate(112.2333,216.1321)">
            <path
               d="m 0,0 c -0.135,-0.266 -0.285,0 -0.459,-0.038 v 0.21 C -0.305,0.229 -0.152,0.039 -0.039,0.19 0.018,0.19 -0.022,0.057 0,0"
               style="fill:#231f20;fill-opacity:1;fill-rule:nonzero;stroke:none"
               id="path182" />
          </g>
          <g
             id="g184"
             transform="translate(108.1435,216.2283)">
            <path
               d="M 0,0 0.076,-0.134 C -0.02,-0.306 -0.211,-0.249 -0.346,-0.306 -0.381,-0.21 -0.42,-0.02 -0.307,0.076 -0.268,-0.02 -0.096,-0.058 0,0"
               style="fill:#231f20;fill-opacity:1;fill-rule:nonzero;stroke:none"
               id="path186" />
          </g>
          <g
             id="g188"
             transform="translate(109.6454,216.1321)">
            <path
               d="m 0,0 v -0.209 c -0.229,0.057 -0.496,0.171 -0.742,0.132 l 0.037,0.249 C -0.496,0.152 -0.172,0.209 0,0"
               style="fill:#231f20;fill-opacity:1;fill-rule:nonzero;stroke:none"
               id="path190" />
          </g>
          <g
             id="g192"
             transform="translate(111.5673,216.1893)">
            <path
               d="m 0,0 -0.019,-0.095 h -0.116 v 0.21 C -0.078,0.115 -0.039,0.039 0,0"
               style="fill:#231f20;fill-opacity:1;fill-rule:nonzero;stroke:none"
               id="path194" />
          </g>
          <g
             id="g196"
             transform="translate(119.6708,216.1893)">
            <path
               d="M 0,0 C 0.059,0 -0.209,-0.019 -0.227,0.115 L 0,0"
               style="fill:#ffffff;fill-opacity:1;fill-rule:nonzero;stroke:none"
               id="path198" />
          </g>
          <g
             id="g200"
             transform="translate(120.0517,216.1512)">
            <path
               d="M 0,0 C 0.018,-0.057 0,-0.115 -0.057,-0.171 -0.17,-0.115 -0.02,-0.019 0,0"
               style="fill:#ffffff;fill-opacity:1;fill-rule:nonzero;stroke:none"
               id="path202" />
          </g>
          <g
             id="g204"
             transform="translate(109.5888,215.3719)">
            <path
               d="m 0,0 c -0.191,0.096 -0.477,0.075 -0.551,0.266 -0.117,-0.02 -0.193,-0.095 -0.248,-0.191 -0.154,0.058 0,0.152 0,0.229 0.248,0.133 0.477,-0.019 0.721,-0.038 C 0.057,0.227 -0.039,0.096 0,0"
               style="fill:#231f20;fill-opacity:1;fill-rule:nonzero;stroke:none"
               id="path206" />
          </g>
          <g
             id="g208"
             transform="translate(111.3759,215.4085)">
            <path
               d="m 0,0 c -0.094,0.077 -0.437,-0.018 -0.551,0.059 -0.17,0.056 -0.267,-0.02 -0.457,-0.135 -0.037,0.02 -0.096,0.039 -0.17,0.039 -0.039,0.096 0.074,0.171 0.151,0.209 C -0.646,0.021 0.039,0.627 0,0"
               style="fill:#231f20;fill-opacity:1;fill-rule:nonzero;stroke:none"
               id="path210" />
          </g>
          <g
             id="g212"
             transform="translate(108.6552,215.5428)">
            <path
               d="M 0,0 C -0.229,-0.19 -0.568,-0.134 -0.893,-0.248 V 0.075 C -0.59,-0.058 -0.189,0.343 0,0"
               style="fill:#231f20;fill-opacity:1;fill-rule:nonzero;stroke:none"
               id="path214" />
          </g>
          <g
             id="g216"
             transform="translate(112.2704,215.618)">
            <path
               d="m 0,0 c -0.037,-0.113 0.059,-0.246 -0.076,-0.323 -0.19,0.19 -0.723,-0.248 -0.723,0.248 0.172,-0.075 0.324,0.19 0.477,0 C -0.248,0.058 -0.113,-0.037 0,0"
               style="fill:#231f20;fill-opacity:1;fill-rule:nonzero;stroke:none"
               id="path218" />
          </g>
          <g
             id="g220"
             transform="translate(109.1318,215.0662)">
            <path
               d="M 0,0 C 0.152,0.115 0.285,0.076 0.457,0.038 L 0.588,-0.247 H 0.152 L 0.115,-0.17 -0.057,-0.322 c -0.017,0.114 -0.134,0.094 -0.172,0.114 -0.076,-0.076 -0.113,-0.059 -0.209,0 -0.058,0.057 -0.017,0.151 -0.039,0.246 0.116,0.077 0.172,-0.018 0.305,0.02 -0.019,-0.077 0.039,-0.152 0.115,-0.17 L 0,-0.036 C 0.018,0.076 -0.191,0 -0.057,0.134 L 0,0"
               style="fill:#231f20;fill-opacity:1;fill-rule:nonzero;stroke:none"
               id="path222" />
          </g>
          <g
             id="g224"
             transform="translate(110.8642,215.1043)">
            <path
               d="m 0,0 c 0.074,-0.095 0.057,-0.208 0.057,-0.322 -0.209,0.017 -0.381,-0.019 -0.649,-0.058 -0.056,0.058 -0.019,0.172 -0.037,0.267 0.172,-0.076 0.344,0.284 0.512,0.075 L 0,0"
               style="fill:#231f20;fill-opacity:1;fill-rule:nonzero;stroke:none"
               id="path226" />
          </g>
          <g
             id="g228"
             transform="translate(111.9286,214.6483)">
            <path
               d="M 0,0 C -0.096,0.151 -0.268,0.096 -0.381,0.076 V -0.038 C -0.533,0.057 -0.76,0.134 -0.76,0.343 h 0.645 C 0.037,0.171 0.152,0.382 0.342,0.418 0.455,0.134 0.152,0.096 0,0"
               style="fill:#231f20;fill-opacity:1;fill-rule:nonzero;stroke:none"
               id="path230" />
          </g>
          <g
             id="g232"
             transform="translate(108.5224,214.991)">
            <path
               d="m 0,0 c 0.039,-0.514 -0.514,-0.037 -0.686,-0.381 v 0.344 C -0.457,-0.019 -0.229,0.095 0,0"
               style="fill:#231f20;fill-opacity:1;fill-rule:nonzero;stroke:none"
               id="path234" />
          </g>
          <g
             id="g236"
             transform="translate(110.1396,213.3738)">
            <path
               d="M 0,0 C -0.096,-0.058 -0.305,-0.171 -0.42,-0.038 -0.285,0.038 -0.189,0 0,0"
               style="fill:#ffffff;fill-opacity:1;fill-rule:nonzero;stroke:none"
               id="path238" />
          </g>
          <path
             d="m 118.72,212.86 h 0.039 v -0.21 h -0.039 z"
             style="fill:#ffffff;fill-opacity:1;fill-rule:nonzero;stroke:none"
             id="path240" />
          <g
             id="g242"
             transform="translate(118.8525,212.3846)">
            <path
               d="M 0,0 0.096,0.247 0.078,0 Z"
               style="fill:#ffffff;fill-opacity:1;fill-rule:nonzero;stroke:none"
               id="path244" />
          </g>
          <g
             id="g246"
             transform="translate(119.12,216.6458)">
            <path
               d="m 0,0 -0.135,-0.076 c 0,0.057 0.135,0.495 -0.054,0.647 -0.039,0.037 -0.059,0.095 -0.116,0.075 V 0.057 C -0.344,0.077 -0.4,0.114 -0.476,0.096 l -0.04,-0.039 c 0.229,-0.076 0.309,-0.361 0.211,-0.571 -0.324,-0.246 0.133,-1.102 -0.55,-0.76 -0.077,0.133 -0.209,0.227 -0.059,0.38 0.018,-0.134 0.076,-0.267 0.209,-0.305 0.096,0 0.209,0.096 0.189,0.191 C -0.818,-0.666 0,0 -0.781,-0.039 c 0,0.192 0.265,0.249 0.076,0.439 -0.113,0.114 -0.246,0.228 -0.113,0.343 0.302,0 -0.059,-0.458 0.302,-0.533 0.268,0.227 -0.207,0.571 0.155,0.704 C -0.4,1.141 -0.592,1.237 -0.742,1.37 -0.248,1.064 0.057,0.608 0,0"
               style="fill:#ffffff;fill-opacity:1;fill-rule:nonzero;stroke:none"
               id="path248" />
          </g>
          <g
             id="g250"
             transform="translate(117.3114,217.6732)">
            <path
               d="M 0,0 C 0.172,0.056 0.076,0.037 0.229,0.133 L 0.266,0.056 C 0.418,0.037 0.4,0.191 0.437,0.266 L 0.553,0.037 C 0.666,0.209 0.838,0.152 1.027,0.171 L 1.104,0.095 C 0.99,0.152 0.762,0.019 0.609,-0.039 0.609,-0.096 0.686,-0.133 0.723,-0.171 0.666,-0.153 0.646,-0.208 0.609,-0.247 L 0.437,0.095 C 0.342,-0.133 -0.074,-0.019 -0.17,-0.247 0.152,-0.381 0.533,-0.381 0.818,-0.627 L 0.781,-1.407 C 0.686,-1.295 0.857,-0.97 0.59,-0.931 v 0.113 l 0.096,0.02 c -0.19,0.303 -0.59,0.285 -0.856,0.379 -0.228,-0.094 -0.475,0.057 -0.629,-0.133 0.037,-0.133 0.02,-0.418 0.211,-0.342 -0.057,-0.057 -0.039,-0.189 -0.135,-0.247 l -0.076,0.114 c -0.094,0.076 -0.056,-0.114 -0.094,-0.172 0.038,0.191 -0.115,0.553 0.131,0.724 0.209,0.094 0.516,0.171 0.477,0.475 l -0.057,0.056 -0.076,-0.133 c -0.02,0.114 0.02,0.21 0.115,0.286 h 0.057 l 0.037,-0.323 c 0.135,0.057 0.172,0.266 0.094,0.38 L 0,0"
               style="fill:#ffffff;fill-opacity:1;fill-rule:nonzero;stroke:none"
               id="path252" />
          </g>
          <g
             id="g254"
             transform="translate(117.0654,217.0457)">
            <path
               d="m 0,0 c -0.152,-0.171 0.209,-0.533 -0.133,-0.646 l -0.135,0.075 c 0.172,0 0.037,0.324 0.172,0.438 -0.076,0.056 -0.135,0.153 -0.211,0.17 L -0.381,-0.019 V 0.037 C -0.246,0.02 -0.133,0 0,0"
               style="fill:#ffffff;fill-opacity:1;fill-rule:nonzero;stroke:none"
               id="path256" />
          </g>
          <g
             id="g258"
             transform="translate(117.3505,216.9881)">
            <path
               d="m 0,0 c -0.096,-0.037 -0.096,-0.152 -0.039,-0.209 -0.037,0.057 -0.094,0.02 -0.133,0.038 V 0.058 L 0,0"
               style="fill:#ffffff;fill-opacity:1;fill-rule:nonzero;stroke:none"
               id="path260" />
          </g>
          <g
             id="g262"
             transform="translate(117.7294,216.8553)">
            <path
               d="M 0,0 V -0.113 L -0.076,0.02 Z"
               style="fill:#ffffff;fill-opacity:1;fill-rule:nonzero;stroke:none"
               id="path264" />
          </g>
          <g
             id="g266"
             transform="translate(117.2743,216.4373)">
            <path
               d="M 0,0 V -0.038 H -0.078 L 0,0.17 C 0.113,0.112 0.018,0.057 0,0"
               style="fill:#ffffff;fill-opacity:1;fill-rule:nonzero;stroke:none"
               id="path268" />
          </g>
          <g
             id="g270"
             transform="translate(117.5771,216.4373)">
            <path
               d="M 0,0 C 0.059,-0.077 0.172,-0.02 0.172,0.057 L 0,-0.115 V 0"
               style="fill:#ffffff;fill-opacity:1;fill-rule:nonzero;stroke:none"
               id="path272" />
          </g>
          <g
             id="g274"
             transform="translate(119.1943,216.1893)">
            <path
               d="M 0,0 C -0.246,-0.115 0.115,0.039 0.039,0.171 L 0,0"
               style="fill:#ffffff;fill-opacity:1;fill-rule:nonzero;stroke:none"
               id="path276" />
          </g>
          <g
             id="g278"
             transform="translate(117.2743,216.0555)">
            <path
               d="m 0,0 c 0.037,-0.513 -0.152,-1.273 0.455,-1.539 l 0.268,0.055 C 0.838,-1.692 0.492,-1.825 0.627,-2.092 0.723,-2.281 1.064,-2.302 0.969,-2.568 L 0.76,-2.682 C 0.838,-2.739 0.895,-2.834 0.818,-2.91 L 0.799,-2.986 C 0.703,-3.024 0.703,-2.91 0.647,-2.891 0.551,-2.739 0.838,-2.7 0.684,-2.568 0.59,-2.644 0.475,-2.834 0.303,-2.814 L 0.266,-2.776 C 0.438,-3.157 0.172,-3.272 0,-3.595 c -0.037,0.19 -0.248,0.323 -0.172,0.571 0.229,0.075 0.115,-0.133 0.248,-0.209 0.114,0.17 0.037,0.342 -0.039,0.494 -0.455,0.266 0.115,1.466 -0.816,1.122 -0.135,0.057 -0.059,0.248 0,0.344 0.094,-0.039 0.094,0.075 0.133,0.114 l -0.209,0.057 c 0.056,0.094 0.17,0.247 0.076,0.322 -0.059,-0.056 -0.153,-0.171 -0.211,-0.075 -0.131,0.229 0.096,0.533 0.172,0.779 0.191,-0.019 0.076,-0.227 0.211,-0.304 l 0.302,0.114 -0.134,0.171 c 0.097,-0.018 0.173,-0.133 0.267,-0.038 C -0.228,0 -0.418,0.096 -0.59,0.096 -0.381,0.077 -0.133,0.19 0,0"
               style="fill:#ffffff;fill-opacity:1;fill-rule:nonzero;stroke:none"
               id="path280" />
          </g>
          <g
             id="g282"
             transform="translate(117.9579,216.1321)">
            <path
               d="M 0,0 C -0.074,-0.114 -0.268,-0.077 -0.381,-0.038 -0.246,-0.038 -0.094,-0.077 0,0"
               style="fill:#ffffff;fill-opacity:1;fill-rule:nonzero;stroke:none"
               id="path284" />
          </g>
          <g
             id="g286"
             transform="translate(119.7861,215.4085)">
            <path
               d="m 0,0 v -0.247 c -0.135,0.152 -0.229,0.514 -0.477,0.514 L -0.42,0.059 c -0.037,0.094 -0.15,0.15 -0.096,0.285 L -0.248,0.267 C -0.172,0.419 -0.381,0.458 -0.381,0.61 -0.152,0.534 -0.115,0.209 0,0"
               style="fill:#ffffff;fill-opacity:1;fill-rule:nonzero;stroke:none"
               id="path288" />
          </g>
          <g
             id="g290"
             transform="translate(117.5224,215.2381)">
            <path
               d="M 0,0 -0.076,0.343 0,0.229 0.094,0.514 C 0.168,0.38 -0.02,0.152 0,0"
               style="fill:#ffffff;fill-opacity:1;fill-rule:nonzero;stroke:none"
               id="path292" />
          </g>
          <g
             id="g294"
             transform="translate(119.329,213.6971)">
            <path
               d="M 0,0 C -0.553,0.456 0.057,1.218 -0.135,1.846 0.17,1.237 -0.285,0.589 0,0"
               style="fill:#ffffff;fill-opacity:1;fill-rule:nonzero;stroke:none"
               id="path296" />
          </g>
          <g
             id="g298"
             transform="translate(117.8251,215.0301)">
            <path
               d="m 0,0 h -0.096 l 0.059,0.303 C 0,0.228 0.039,0.132 0,0"
               style="fill:#ffffff;fill-opacity:1;fill-rule:nonzero;stroke:none"
               id="path300" />
          </g>
          <g
             id="g302"
             transform="translate(118.9482,214.2674)">
            <path
               d="M 0,0 C -0.035,0.249 0.02,0.552 0.037,0.763 -0.076,0.742 -0.096,0.609 -0.133,0.515 -0.172,0.705 -0.057,0.895 0,1.065 0.172,0.763 0,0.361 0,0"
               style="fill:#ffffff;fill-opacity:1;fill-rule:nonzero;stroke:none"
               id="path304" />
          </g>
          <g
             id="g306"
             transform="translate(119.995,213.5452)">
            <path
               d="m 0,0 c -0.229,-0.133 -0.4,0.094 -0.512,0.208 -0.174,0.457 0.016,0.914 0,1.371 C -0.4,1.045 -0.418,0.381 0,0"
               style="fill:#ffffff;fill-opacity:1;fill-rule:nonzero;stroke:none"
               id="path308" />
          </g>
          <g
             id="g310"
             transform="translate(118.3779,214.782)">
            <path
               d="M 0,0 H -0.039 V 0.133 C -0.039,0.095 0.019,0.057 0,0"
               style="fill:#ffffff;fill-opacity:1;fill-rule:nonzero;stroke:none"
               id="path312" />
          </g>
          <g
             id="g314"
             transform="translate(118.415,214.0579)">
            <path
               d="M 0,0 C 0.096,0.077 0.248,0.134 0.229,0.286 V 0 C 0.096,-0.056 -0.113,-0.018 -0.172,0.115 -0.037,0.363 -0.303,0.533 -0.209,0.8 -0.15,0.533 -0.076,0.229 0,0"
               style="fill:#ffffff;fill-opacity:1;fill-rule:nonzero;stroke:none"
               id="path316" />
          </g>
          <g
             id="g318"
             transform="translate(118.7197,213.451)">
            <path
               d="M 0,0 C -0.096,-0.058 -0.191,-0.039 -0.248,0.037 V 0.131 C -0.115,0.15 -0.057,0.113 0,0"
               style="fill:#ffffff;fill-opacity:1;fill-rule:nonzero;stroke:none"
               id="path320" />
          </g>
          <g
             id="g322"
             transform="translate(119.329,212.9754)">
            <path
               d="M 0,0 -0.059,0.17 0,0.131 Z"
               style="fill:#ffffff;fill-opacity:1;fill-rule:nonzero;stroke:none"
               id="path324" />
          </g>
          <g
             id="g326"
             transform="translate(118.0341,212.8221)">
            <path
               d="M 0,0 0.344,0.209 0.172,-0.133 C -0.018,-0.039 -0.305,0.096 -0.305,0.284 -0.189,0.267 -0.15,0.058 0,0"
               style="fill:#ffffff;fill-opacity:1;fill-rule:nonzero;stroke:none"
               id="path328" />
          </g>
          <g
             id="g330"
             transform="translate(120.3368,212.556)">
            <path
               d="M 0,0 V -0.077 C -0.229,0.133 -0.514,0.208 -0.686,0.513 -0.4,0.495 -0.096,0.285 0,0"
               style="fill:#ffffff;fill-opacity:1;fill-rule:nonzero;stroke:none"
               id="path332" />
          </g>
          <g
             id="g334"
             transform="translate(116.9325,212.8026)">
            <path
               d="M 0,0 -0.039,0.173 0,0.058 Z"
               style="fill:#ffffff;fill-opacity:1;fill-rule:nonzero;stroke:none"
               id="path336" />
          </g>
          <g
             id="g338"
             transform="translate(117.0654,212.0037)">
            <path
               d="M 0,0 C -0.192,0.286 -0.516,0.381 -0.398,0.799 -0.342,0.457 0.209,0.286 0,0"
               style="fill:#ffffff;fill-opacity:1;fill-rule:nonzero;stroke:none"
               id="path340" />
          </g>
          <g
             id="g342"
             transform="translate(116.8564,211.5848)">
            <path
               d="m 0,0 c -0.287,0.173 -0.629,0.419 -0.686,0.875 -0.15,-0.094 -0.115,-0.342 -0.171,-0.513 0,0.134 0.039,0.305 -0.038,0.438 L -1.332,0.533 C -1.105,0.667 -1.068,1.104 -0.744,1.18 -0.818,0.609 0,0.533 0,0"
               style="fill:#ffffff;fill-opacity:1;fill-rule:nonzero;stroke:none"
               id="path344" />
          </g>
          <g
             id="g346"
             transform="translate(117.7294,212.4227)">
            <path
               d="M 0,0 0.172,0.038 0.02,-0.552 C -0.094,-0.476 -0.227,-0.4 -0.207,-0.209 -0.246,-0.057 -0.018,0.361 0,0"
               style="fill:#ffffff;fill-opacity:1;fill-rule:nonzero;stroke:none"
               id="path348" />
          </g>
          <g
             id="g350"
             transform="translate(119.0243,212.1365)">
            <path
               d="M 0,0 C 0.17,0.039 0.152,0.286 0.342,0.248 0.59,-0.133 1.121,-0.285 1.312,-0.722 1.428,-0.932 1.369,-1.218 1.238,-1.408 1.197,-1.027 1.066,-0.646 0.857,-0.304 0.895,-0.646 0.932,-1.065 0.818,-1.368 0.912,-1.218 0.836,-0.76 0.627,-0.552 0.59,-0.799 0.723,-1.141 0.475,-1.331 0.705,-0.932 0.266,-0.684 0.076,-0.398 0,-0.684 0.381,-0.97 0.17,-1.255 c 0.096,0.343 -0.209,0.666 -0.436,0.857 0.018,0.302 -0.115,0.608 -0.38,0.741 C -0.322,0.476 -0.361,-0.133 0,0"
               style="fill:#ffffff;fill-opacity:1;fill-rule:nonzero;stroke:none"
               id="path352" />
          </g>
          <g
             id="g354"
             transform="translate(120.2626,212.2899)">
            <path
               d="M 0,0 -0.307,0.189 -0.078,0.057 Z"
               style="fill:#ffffff;fill-opacity:1;fill-rule:nonzero;stroke:none"
               id="path356" />
          </g>
          <g
             id="g358"
             transform="translate(118.5868,211.5657)">
            <path
               d="M 0,0 -0.076,-0.151 C -0.267,0.115 -0.762,0.192 -0.514,0.609 -0.57,0.724 -0.457,0.8 -0.381,0.819 0,0.686 -0.133,0.267 0,0"
               style="fill:#ffffff;fill-opacity:1;fill-rule:nonzero;stroke:none"
               id="path360" />
          </g>
          <g
             id="g362"
             transform="translate(120.9462,210.9012)">
            <path
               d="M 0,0 -0.057,-0.229 C -0.019,0.15 -0.266,0.456 -0.379,0.799 -0.135,0.608 0.02,0.343 0,0"
               style="fill:#ffffff;fill-opacity:1;fill-rule:nonzero;stroke:none"
               id="path364" />
          </g>
          <g
             id="g366"
             transform="translate(117.788,211.244)">
            <path
               d="M 0,0 C -0.059,-0.02 -0.4,0.094 -0.418,0.341 -0.172,0.417 -0.152,0.075 0,0"
               style="fill:#ffffff;fill-opacity:1;fill-rule:nonzero;stroke:none"
               id="path368" />
          </g>
          <g
             id="g370"
             transform="translate(118.3388,211.2245)">
            <path
               d="M 0,0 C -0.17,0.095 -0.514,0.057 -0.475,0.341 -0.266,0.323 -0.096,0.133 0,0"
               style="fill:#ffffff;fill-opacity:1;fill-rule:nonzero;stroke:none"
               id="path372" />
          </g>
          <g
             id="g374"
             transform="translate(118.8154,210.8817)">
            <path
               d="m 0,0 h -0.211 l 0.154,0.399 C 0.115,0.362 0.037,0.114 0,0"
               style="fill:#ffffff;fill-opacity:1;fill-rule:nonzero;stroke:none"
               id="path376" />
          </g>
          <g
             id="g378"
             transform="translate(119.4443,210.0818)">
            <path
               d="M 0,0 C -0.059,-0.095 -0.039,-0.228 -0.039,-0.343 L -0.25,0 C -0.174,-0.077 -0.078,-0.077 0,0"
               style="fill:#ffffff;fill-opacity:1;fill-rule:nonzero;stroke:none"
               id="path380" />
          </g>
          <g
             id="g382"
             transform="translate(119.7861,198.0204)">
            <path
               d="M 0,0 H -11.682 V 1.427 H 0 V 0.018"
               style="fill:#ffffff;fill-opacity:1;fill-rule:nonzero;stroke:none"
               id="path384" />
          </g>
          <g
             id="g386"
             transform="translate(110.2802,199.0551)">
            <path
               d="m 0,0 c -0.068,-0.085 -0.104,-0.192 -0.104,-0.322 0,-0.173 0.047,-0.299 0.139,-0.382 0.07,-0.062 0.156,-0.093 0.26,-0.093 0.119,0 0.215,0.038 0.283,0.113 0.059,0.063 0.096,0.142 0.106,0.235 H 0.564 C 0.553,-0.507 0.535,-0.555 0.512,-0.59 0.465,-0.658 0.398,-0.693 0.309,-0.693 c -0.096,0 -0.168,0.033 -0.219,0.099 -0.047,0.064 -0.07,0.148 -0.07,0.252 0,0.126 0.025,0.22 0.08,0.282 0.052,0.061 0.123,0.092 0.211,0.092 0.072,0 0.129,-0.017 0.168,-0.05 0.039,-0.033 0.066,-0.079 0.078,-0.137 H 0.674 C 0.668,-0.08 0.635,-0.012 0.572,0.048 0.51,0.106 0.422,0.136 0.311,0.136 0.18,0.136 0.076,0.091 0,0"
               style="fill:#d32011;fill-opacity:1;fill-rule:nonzero;stroke:none"
               id="path388" />
          </g>
          <g
             id="g390"
             transform="translate(111.1083,198.2801)">
            <path
               d="M 0,0 V 0.886 H 0.121 V 0.105 H 0.57 V 0 Z"
               style="fill:#d32011;fill-opacity:1;fill-rule:nonzero;stroke:none"
               id="path392" />
          </g>
          <g
             id="g394"
             transform="translate(111.8447,198.2801)">
            <path
               d="M 0,0 0.094,0.266 H 0.445 L 0.537,0 H 0.668 L 0.346,0.886 H 0.209 L -0.123,0 Z M 0.273,0.756 0.406,0.363 H 0.129 Z"
               style="fill:#d32011;fill-opacity:1;fill-rule:nonzero;stroke:none"
               id="path396" />
          </g>
          <g
             id="g398"
             transform="translate(112.7568,198.2801)">
            <path
               d="M 0,0 V 0.38 H 0.271 L 0.381,0.364 C 0.422,0.344 0.443,0.306 0.445,0.247 L 0.453,0.099 0.459,0.03 0.467,0 h 0.15 V 0.02 L 0.576,0.074 0.57,0.148 0.562,0.269 0.535,0.38 0.457,0.437 0.549,0.518 0.58,0.648 C 0.58,0.75 0.541,0.819 0.457,0.858 0.414,0.877 0.357,0.886 0.291,0.886 H -0.121 V 0 H 0 m 0,0.783 h 0.291 l 0.1,-0.017 C 0.437,0.743 0.461,0.699 0.461,0.637 0.461,0.578 0.445,0.536 0.412,0.514 0.377,0.493 0.332,0.479 0.275,0.479 H 0 Z"
               style="fill:#d32011;fill-opacity:1;fill-rule:nonzero;stroke:none"
               id="path400" />
          </g>
          <g
             id="g402"
             transform="translate(114.1806,198.2801)">
            <path
               d="m 0,0 v 0.105 h -0.537 v 0.302 h 0.488 v 0.102 h -0.488 v 0.27 h 0.529 V 0.886 H -0.654 V 0 Z"
               style="fill:#d32011;fill-opacity:1;fill-rule:nonzero;stroke:none"
               id="path404" />
          </g>
          <g
             id="g406"
             transform="translate(114.4521,198.2801)">
            <path
               d="M 0,0 V 0.719 L 0.455,0 H 0.59 V 0.886 H 0.477 V 0.168 l -0.45,0.718 h -0.14 V 0 Z"
               style="fill:#d32011;fill-opacity:1;fill-rule:nonzero;stroke:none"
               id="path408" />
          </g>
          <g
             id="g410"
             transform="translate(115.5947,198.2801)">
            <path
               d="m 0,0 c 0.152,0 0.26,0.067 0.322,0.202 0.035,0.077 0.053,0.161 0.053,0.255 0,0.122 -0.029,0.222 -0.09,0.3 C 0.219,0.844 0.123,0.886 0.002,0.886 h -0.36 V 0 H 0 m -0.238,0.783 h 0.215 c 0.097,0 0.167,-0.03 0.21,-0.09 C 0.232,0.632 0.252,0.548 0.252,0.437 L 0.244,0.344 C 0.234,0.288 0.219,0.242 0.191,0.206 L 0.078,0.115 -0.022,0.103 h -0.216 z"
               style="fill:#d32011;fill-opacity:1;fill-rule:nonzero;stroke:none"
               id="path412" />
          </g>
          <g
             id="g414"
             transform="translate(116.1689,199.0272)">
            <path
               d="m 0,0 c -0.061,-0.085 -0.09,-0.189 -0.09,-0.307 0,-0.134 0.033,-0.244 0.104,-0.331 0.078,-0.09 0.185,-0.135 0.32,-0.135 0.146,0 0.26,0.052 0.34,0.155 0.066,0.088 0.099,0.197 0.099,0.33 0,0.123 -0.027,0.223 -0.086,0.302 -0.076,0.1 -0.191,0.15 -0.349,0.15 C 0.189,0.164 0.074,0.109 0,0 m 0.109,-0.564 c -0.05,0.067 -0.076,0.15 -0.076,0.248 0,0.124 0.029,0.216 0.088,0.279 0.059,0.063 0.133,0.094 0.225,0.094 0.095,0 0.168,-0.031 0.224,-0.096 0.055,-0.063 0.08,-0.146 0.08,-0.251 0,-0.099 -0.023,-0.186 -0.07,-0.261 -0.049,-0.077 -0.125,-0.115 -0.23,-0.115 -0.11,0 -0.192,0.034 -0.241,0.102"
               style="fill:#d32011;fill-opacity:1;fill-rule:nonzero;stroke:none"
               id="path416" />
          </g>
          <g
             id="g418"
             transform="translate(117.2001,198.2801)">
            <path
               d="M 0,0 V 0.719 L 0.455,0 H 0.59 V 0.886 H 0.477 V 0.168 L 0.029,0.886 H -0.115 V 0 Z"
               style="fill:#d32011;fill-opacity:1;fill-rule:nonzero;stroke:none"
               id="path420" />
          </g>
          <g
             id="g422"
             transform="translate(104.6279,204.4159)">
            <path
               d="M 0,0 C 0.094,-0.067 0.158,-0.072 0.191,-0.01 0.215,0.03 0.221,0.089 0.213,0.165 0.205,0.256 0.18,0.339 0.143,0.414 l -0.09,0.14 0.049,0.027 C 0.121,0.61 0.129,0.662 0.121,0.736 0.117,0.8 0.1,0.864 0.072,0.93 0.029,1.038 -0.035,1.123 -0.119,1.184 L -0.426,1.409 -0.303,0.221 0,0 M -0.266,0.707 -0.072,0.567 0.027,0.471 C 0.076,0.405 0.105,0.329 0.117,0.243 L 0.105,0.13 C 0.086,0.091 0.045,0.094 -0.014,0.137 l -0.209,0.152 z m -0.052,0.499 0.173,-0.127 0.1,-0.092 C -0.004,0.932 0.02,0.865 0.027,0.788 0.035,0.711 0.023,0.67 -0.01,0.668 l -0.094,0.041 -0.175,0.128 z"
               style="fill:#d32011;fill-opacity:1;fill-rule:nonzero;stroke:none"
               id="path424" />
          </g>
          <g
             id="g426"
             transform="translate(105.0322,204.1223)">
            <path
               d="M 0,0 0.041,0.299 0.324,0.092 0.432,-0.317 0.539,-0.394 0.156,0.983 0.047,1.064 -0.1,0.073 Z M 0.115,0.85 0.279,0.246 0.055,0.41 Z"
               style="fill:#d32011;fill-opacity:1;fill-rule:nonzero;stroke:none"
               id="path428" />
          </g>
          <g
             id="g430"
             transform="translate(105.6611,203.6635)">
            <path
               d="m 0,0 -0.125,1.189 0.1,-0.07 0.107,-1.047 0.363,-0.265 0.014,-0.141 z"
               style="fill:#d32011;fill-opacity:1;fill-rule:nonzero;stroke:none"
               id="path432" />
          </g>
          <g
             id="g434"
             transform="translate(106.2157,203.2596)">
            <path
               d="M 0,0 -0.123,1.186 -0.027,1.116 0.082,0.072 0.447,-0.194 0.461,-0.336 Z"
               style="fill:#d32011;fill-opacity:1;fill-rule:nonzero;stroke:none"
               id="path436" />
          </g>
          <g
             id="g438"
             transform="translate(106.8095,202.828)">
            <path
               d="M 0,0 0.041,0.299 0.324,0.092 0.436,-0.317 0.541,-0.394 0.158,0.982 0.047,1.061 -0.1,0.072 Z M 0.117,0.85 0.279,0.245 0.055,0.409 Z"
               style="fill:#d32011;fill-opacity:1;fill-rule:nonzero;stroke:none"
               id="path440" />
          </g>
          <g
             id="g442"
             transform="translate(107.5478,202.2898)">
            <path
               d="M 0,0 -0.053,0.51 0.166,0.349 0.258,0.263 C 0.293,0.212 0.316,0.149 0.324,0.069 L 0.354,-0.134 0.365,-0.23 0.379,-0.276 0.5,-0.363 0.496,-0.337 0.457,-0.241 0.439,-0.134 0.42,0.026 C 0.41,0.097 0.396,0.153 0.381,0.194 L 0.309,0.315 0.373,0.369 C 0.385,0.402 0.389,0.453 0.381,0.525 0.365,0.66 0.322,0.779 0.25,0.879 0.211,0.93 0.166,0.978 0.109,1.017 L -0.221,1.259 -0.098,0.071 0,0 M -0.109,1.05 0.127,0.877 0.209,0.795 C 0.25,0.737 0.275,0.665 0.283,0.582 0.289,0.502 0.283,0.457 0.262,0.447 L 0.158,0.48 -0.066,0.645 Z"
               style="fill:#d32011;fill-opacity:1;fill-rule:nonzero;stroke:none"
               id="path444" />
          </g>
          <g
             id="g446"
             transform="translate(108.1982,201.8173)">
            <path
               d="M 0,0 0.041,0.297 0.324,0.092 0.434,-0.317 0.541,-0.394 0.156,0.982 0.049,1.063 -0.102,0.071 Z M 0.113,0.85 0.279,0.245 0.055,0.408 Z"
               style="fill:#d32011;fill-opacity:1;fill-rule:nonzero;stroke:none"
               id="path448" />
          </g>
          <g
             id="g450"
             transform="translate(108.6454,202.5887)">
            <path
               d="m 0,0 0.58,-0.424 0.016,-0.14 -0.242,0.175 0.107,-1.046 -0.098,0.073 -0.109,1.045 -0.24,0.175 z"
               style="fill:#d32011;fill-opacity:1;fill-rule:nonzero;stroke:none"
               id="path452" />
          </g>
          <g
             id="g454"
             transform="translate(118.954,202.2567)">
            <path
               d="m 0,0 c -0.068,-0.153 -0.109,-0.317 -0.129,-0.492 -0.021,-0.231 -0.004,-0.375 0.061,-0.43 0.048,-0.042 0.115,-0.033 0.197,0.029 0.096,0.069 0.178,0.176 0.246,0.32 0.055,0.119 0.096,0.244 0.115,0.377 L 0.393,-0.266 C 0.379,-0.351 0.355,-0.426 0.332,-0.488 0.285,-0.606 0.227,-0.691 0.154,-0.744 c -0.076,-0.058 -0.131,-0.058 -0.16,0.001 -0.031,0.057 -0.041,0.156 -0.025,0.294 0.017,0.172 0.051,0.313 0.103,0.427 C 0.121,0.092 0.184,0.175 0.256,0.226 0.312,0.268 0.353,0.28 0.381,0.258 0.408,0.237 0.424,0.191 0.428,0.123 L 0.523,0.192 C 0.527,0.29 0.508,0.359 0.467,0.401 0.424,0.444 0.357,0.432 0.268,0.365 0.16,0.287 0.072,0.166 0,0"
               style="fill:#d32011;fill-opacity:1;fill-rule:nonzero;stroke:none"
               id="path456" />
          </g>
          <g
             id="g458"
             transform="translate(119.6513,202.7357)">
            <path
               d="m 0,0 c -0.059,-0.15 -0.094,-0.304 -0.111,-0.465 -0.018,-0.179 -0.006,-0.305 0.039,-0.38 0.051,-0.073 0.131,-0.072 0.242,0.01 0.117,0.086 0.215,0.221 0.293,0.406 0.064,0.158 0.107,0.324 0.123,0.502 C 0.604,0.237 0.594,0.355 0.557,0.424 0.51,0.514 0.424,0.514 0.297,0.42 0.176,0.332 0.078,0.192 0,0 m 0.014,-0.69 c -0.032,0.06 -0.039,0.156 -0.026,0.288 0.014,0.164 0.053,0.306 0.106,0.425 C 0.15,0.141 0.213,0.228 0.287,0.283 0.365,0.337 0.418,0.338 0.455,0.286 0.49,0.234 0.502,0.138 0.488,-0.001 0.475,-0.134 0.443,-0.265 0.397,-0.395 0.348,-0.525 0.281,-0.622 0.195,-0.684 0.105,-0.749 0.045,-0.751 0.014,-0.69"
               style="fill:#d32011;fill-opacity:1;fill-rule:nonzero;stroke:none"
               id="path460" />
          </g>
          <g
             id="g462"
             transform="translate(120.2919,202.2791)">
            <path
               d="M 0,0 0.119,1.188 0.217,1.258 0.111,0.214 0.475,0.479 0.461,0.337 Z"
               style="fill:#d32011;fill-opacity:1;fill-rule:nonzero;stroke:none"
               id="path464" />
          </g>
          <g
             id="g466"
             transform="translate(120.8466,202.6859)">
            <path
               d="M 0,0 0.119,1.187 0.217,1.259 0.111,0.213 0.473,0.478 0.457,0.337 Z"
               style="fill:#d32011;fill-opacity:1;fill-rule:nonzero;stroke:none"
               id="path468" />
          </g>
          <g
             id="g470"
             transform="translate(121.9384,203.4881)">
            <path
               d="M 0,0 0.014,0.141 -0.42,-0.178 -0.381,0.225 0.016,0.515 0.029,0.653 -0.365,0.363 -0.33,0.724 0.098,1.038 0.111,1.183 -0.41,0.799 -0.527,-0.388 Z"
               style="fill:#d32011;fill-opacity:1;fill-rule:nonzero;stroke:none"
               id="path472" />
          </g>
          <g
             id="g474"
             transform="translate(122.2411,204.6825)">
            <path
               d="m 0,0 c -0.078,-0.165 -0.127,-0.347 -0.145,-0.545 -0.021,-0.2 -0.003,-0.332 0.053,-0.398 0.049,-0.046 0.119,-0.039 0.203,0.024 0.067,0.048 0.123,0.107 0.168,0.179 0.028,0.042 0.061,0.104 0.1,0.187 L 0.387,-0.688 0.449,-0.641 0.514,-0.006 0.199,-0.237 0.186,-0.369 0.41,-0.205 C 0.395,-0.346 0.363,-0.462 0.315,-0.555 0.268,-0.648 0.209,-0.72 0.145,-0.766 0.061,-0.829 0.004,-0.829 -0.023,-0.767 c -0.03,0.061 -0.037,0.162 -0.022,0.303 0.016,0.163 0.049,0.303 0.104,0.419 C 0.111,0.07 0.172,0.153 0.238,0.2 0.295,0.243 0.338,0.256 0.371,0.244 0.402,0.231 0.422,0.185 0.426,0.107 L 0.52,0.177 C 0.518,0.322 0.486,0.398 0.422,0.407 0.379,0.415 0.32,0.393 0.256,0.345 0.156,0.271 0.072,0.158 0,0"
               style="fill:#d32011;fill-opacity:1;fill-rule:nonzero;stroke:none"
               id="path476" />
          </g>
          <g
             id="g478"
             transform="translate(123.3779,204.5457)">
            <path
               d="M 0,0 0.016,0.142 -0.42,-0.177 -0.379,0.226 0.016,0.516 0.029,0.654 -0.365,0.362 -0.328,0.723 0.098,1.037 0.111,1.183 -0.412,0.8 -0.527,-0.388 Z"
               style="fill:#d32011;fill-opacity:1;fill-rule:nonzero;stroke:none"
               id="path480" />
          </g>
          <g
             id="g482"
             transform="translate(103.9501,209.5974)">
            <path
               d="M 0,0 0.547,-0.728 0.006,-1.436 H 1.662 V 0 Z"
               style="fill:#ffffff;fill-opacity:1;fill-rule:nonzero;stroke:none"
               id="path484" />
          </g>
          <g
             id="g486"
             transform="translate(124.1396,209.5974)">
            <path
               d="m 0,0 -0.549,-0.728 0.541,-0.708 H -1.662 V 0 Z"
               style="fill:#ffffff;fill-opacity:1;fill-rule:nonzero;stroke:none"
               id="path488" />
          </g>
          <g
             id="g490"
             transform="translate(106.1181,205.9558)">
            <path
               d="M 0,0 7.889,5.676 15.711,0 7.889,-5.608 Z"
               style="fill:#231f20;fill-opacity:1;fill-rule:nonzero;stroke:none"
               id="path492" />
          </g>
          <g
             id="g494"
             transform="translate(111.1689,208.3318)">
            <path
               d="M 0,0 C -0.115,0.21 -0.078,0.533 -0.041,0.762 0.018,0.552 0.15,0.228 0,0"
               style="fill:#a3734d;fill-opacity:1;fill-rule:nonzero;stroke:none"
               id="path496" />
          </g>
          <g
             id="g498"
             transform="translate(111.4716,208.1609)">
            <path
               d="M 0,0 C 0.076,0.267 0.189,0.533 0.457,0.723 0.398,0.476 0.268,0.19 0,0"
               style="fill:#a3734d;fill-opacity:1;fill-rule:nonzero;stroke:none"
               id="path500" />
          </g>
          <g
             id="g502"
             transform="translate(110.747,208.4276)">
            <path
               d="M 0,0 0.117,-0.305 C -0.076,-0.286 -0.189,0 -0.266,0.209 -0.076,0.305 -0.076,0.076 0,0"
               style="fill:#a3734d;fill-opacity:1;fill-rule:nonzero;stroke:none"
               id="path504" />
          </g>
          <g
             id="g506"
             transform="translate(112.4618,208.2937)">
            <path
               d="m 0,0 c -0.133,-0.209 -0.439,-0.285 -0.687,-0.398 0.173,0.227 0.419,0.302 0.628,0.475 L 0,0"
               style="fill:#a3734d;fill-opacity:1;fill-rule:nonzero;stroke:none"
               id="path508" />
          </g>
          <g
             id="g510"
             transform="translate(110.6161,207.7802)">
            <path
               d="M 0,0 C -0.172,0.076 -0.553,0.115 -0.725,0.418 -0.439,0.381 -0.191,0.248 0,0"
               style="fill:#a3734d;fill-opacity:1;fill-rule:nonzero;stroke:none"
               id="path512" />
          </g>
          <g
             id="g514"
             transform="translate(111.1689,206.5056)">
            <path
               d="M 0,0 C -0.191,-0.058 -0.213,0.17 -0.248,0.285 -0.324,0.704 0.018,0.951 0,1.351 0.074,0.934 0.34,0.343 0,0"
               style="fill:#a3734d;fill-opacity:1;fill-rule:nonzero;stroke:none"
               id="path516" />
          </g>
          <g
             id="g518"
             transform="translate(112.9736,207.6854)">
            <path
               d="M 0,0 C -0.133,-0.134 -0.322,-0.229 -0.531,-0.285 H -1.084 C -0.779,-0.038 -0.381,-0.058 0,0"
               style="fill:#a3734d;fill-opacity:1;fill-rule:nonzero;stroke:none"
               id="path520" />
          </g>
          <g
             id="g522"
             transform="translate(110.4072,207.4393)">
            <path
               d="M 0,0 C -0.287,-0.058 -0.705,-0.039 -0.951,0.112 -0.781,0.169 -0.268,0.132 0,0"
               style="fill:#a3734d;fill-opacity:1;fill-rule:nonzero;stroke:none"
               id="path524" />
          </g>
          <g
             id="g526"
             transform="translate(110.3681,206.8865)">
            <path
               d="M 0,0 C -0.115,-0.286 -0.551,-0.152 -0.818,-0.228 -0.703,-0.077 -0.285,-0.019 0,0"
               style="fill:#a3734d;fill-opacity:1;fill-rule:nonzero;stroke:none"
               id="path528" />
          </g>
          <g
             id="g530"
             transform="translate(112.956,206.7157)">
            <path
               d="M 0,0 C -0.344,-0.058 -0.705,-0.04 -1.008,0.113 -0.762,0.285 -0.211,0.094 0,0"
               style="fill:#a3734d;fill-opacity:1;fill-rule:nonzero;stroke:none"
               id="path532" />
          </g>
          <g
             id="g534"
             transform="translate(114.8017,202.455)">
            <path
               d="m 0,0 c -0.152,-0.268 -0.361,-0.439 -0.725,-0.363 0.059,0.153 0.268,0.343 0.459,0.401 C -0.209,-0.02 -0.098,0.017 0,0"
               style="fill:#a3734d;fill-opacity:1;fill-rule:nonzero;stroke:none"
               id="path536" />
          </g>
          <g
             id="g538"
             transform="translate(112.6318,202.455)">
            <path
               d="m 0,0 c -0.02,-0.153 -0.17,-0.306 -0.303,-0.363 h -0.23 C -0.57,-0.135 -0.248,0.074 0,0"
               style="fill:#a3734d;fill-opacity:1;fill-rule:nonzero;stroke:none"
               id="path540" />
          </g>
          <g
             id="g542"
             transform="translate(113.3564,202.455)">
            <path
               d="M 0,0 C -0.021,-0.135 -0.172,-0.344 -0.383,-0.363 H -0.725 C -0.668,-0.096 -0.324,0.094 0,0"
               style="fill:#a3734d;fill-opacity:1;fill-rule:nonzero;stroke:none"
               id="path544" />
          </g>
          <g
             id="g546"
             transform="translate(114.1552,202.455)">
            <path
               d="M 0,0 C -0.154,-0.096 -0.229,-0.42 -0.514,-0.363 H -0.799 C -0.762,0.017 -0.324,0.038 0,0"
               style="fill:#a3734d;fill-opacity:1;fill-rule:nonzero;stroke:none"
               id="path548" />
          </g>
          <g
             id="g550"
             transform="translate(115.4286,202.455)">
            <path
               d="M 0,0 C -0.059,-0.172 -0.189,-0.287 -0.324,-0.363 H -0.725 C -0.609,-0.096 -0.361,0.094 0,0"
               style="fill:#a3734d;fill-opacity:1;fill-rule:nonzero;stroke:none"
               id="path552" />
          </g>
          <g
             id="g554"
             transform="translate(115.7724,202.1873)">
            <path
               d="M 0,0 V -0.077 C -0.135,-0.134 -0.287,-0.096 -0.42,-0.096 -0.344,0 -0.305,0.285 -0.117,0.133 -0.078,0.096 -0.078,0.038 0,0"
               style="fill:#a3734d;fill-opacity:1;fill-rule:nonzero;stroke:none"
               id="path556" />
          </g>
          <g
             id="g558"
             transform="translate(116.0439,206.5276)">
            <path
               d="m 0,0 0.029,0.139 c 0.366,-0.231 0.776,-0.324 1.153,-0.227 l 0.011,0.003 c 0,0 0.098,0.053 0.17,0.092 0.03,-0.057 0.047,-0.126 0.047,-0.211 0,-0.091 -0.012,-0.191 -0.023,-0.287 L 1.371,-0.643 C 1.264,-0.997 0.855,-1.172 0.439,-1.277 c 0.133,0.223 0.198,0.487 0.198,0.725 0,0.088 -0.008,0.173 -0.024,0.248 l -0.029,0.141 c 0,0 -0.346,-0.186 -0.455,-0.248 C 0.055,-0.299 0,-0.154 0,0 M -0.25,0.934 C -0.473,0.736 -0.588,0.463 -0.588,0.118 c 0,-0.219 0.055,-0.471 0.143,-0.747 -0.899,-0.262 -1.774,-0.038 -2.621,0.185 -1.016,0.27 -2.067,0.549 -3.17,-0.013 l -0.383,-0.195 0.428,-0.01 c 0.767,-0.018 1.298,-0.436 1.857,-0.877 0.564,-0.443 1.148,-0.899 1.984,-0.911 l 0.006,-0.018 c 0,-0.047 -0.031,-0.087 -0.092,-0.155 -0.066,-0.076 -0.158,-0.177 -0.158,-0.329 l 0.008,-0.077 c 0.025,-0.162 0.162,-0.222 0.252,-0.261 0.078,-0.037 0.109,-0.051 0.109,-0.092 L -2.234,-3.428 C -2.293,-3.492 -2.398,-3.582 -2.555,-3.55 l -0.029,0.007 -0.053,-0.024 -0.129,-0.049 C -2.891,-3.65 -3.121,-3.715 -3.061,-3.984 l 0.018,-0.08 0.086,-0.004 c 0.492,-0.015 0.986,0.004 1.467,0.023 l 0.597,0.019 -0.037,0.134 c -0.076,0.256 -0.295,0.299 -0.472,0.332 -0.11,0.021 -0.213,0.041 -0.285,0.102 l -0.03,0.065 c 0.014,0.067 0.121,0.156 0.209,0.188 l 0.071,0.027 -0.002,0.087 v 0.123 c 0.003,0.136 0.007,0.341 -0.211,0.405 l 0.039,-0.019 -0.039,0.085 v 0.005 l 0.019,0.039 c 0.543,-0.016 1.029,0.207 1.481,0.473 v -0.08 l 0.068,-0.041 0.162,-0.104 c 0.106,-0.081 0.266,-0.203 0.455,-0.05 l 0.113,0.088 -0.119,0.085 -0.097,0.159 0.062,0.052 c 0.438,0.088 0.91,0.188 1.244,0.665 0.34,0.542 0.274,1.425 0.071,2.018 L 1.764,0.941 1.115,0.539 C 0.619,0.426 0.094,0.779 -0.111,0.938 l -0.071,0.055 z"
               style="fill:#a3734d;fill-opacity:1;fill-rule:nonzero;stroke:none"
               id="path560" />
          </g>
          <g
             id="g562"
             transform="translate(117.5224,205.8593)">
            <path
               d="m 0,0 c -0.152,-0.511 -0.811,-0.683 -1.305,-0.778 l 0.012,0.018 c 0.287,0.271 0.396,0.748 0.32,1.103 L -1.389,0.114 c -0.172,0.19 -0.265,0.57 -0.134,0.856 0.322,-0.248 0.759,-0.399 1.197,-0.286 l 0.25,0.132 C 0.113,0.646 0.018,0.266 0,0 M 0.226,1.446 -0.326,1.103 c -0.473,-0.114 -0.989,0.152 -1.328,0.419 -0.459,-0.398 -0.305,-1.085 -0.135,-1.56 -2.055,-0.686 -3.863,1.18 -5.879,0.152 1.635,-0.038 2.264,-1.827 3.92,-1.788 0.152,-0.305 -0.268,-0.362 -0.211,-0.666 0.039,-0.247 0.457,-0.133 0.344,-0.476 -0.096,-0.114 -0.248,-0.209 -0.438,-0.17 -0.135,-0.095 -0.437,-0.058 -0.381,-0.306 0.649,-0.019 1.293,0.018 1.922,0.038 -0.095,0.324 -0.494,0.191 -0.722,0.381 -0.192,0.171 0.056,0.381 0.209,0.438 -0.02,0.17 0.056,0.38 -0.135,0.437 -0.094,0.077 -0.114,0.247 0,0.324 0.631,-0.039 1.18,0.267 1.637,0.552 V -1.33 c 0.208,-0.077 0.322,-0.325 0.513,-0.173 -0.056,0.038 -0.285,0.285 -0.017,0.4 0.457,0.095 0.892,0.191 1.195,0.627 0.326,0.514 0.248,1.369 0.058,1.922"
               style="fill:#ffffff;fill-opacity:1;fill-rule:nonzero;stroke:none"
               id="path564" />
          </g>
          <g
             id="g566"
             transform="translate(122.3525,206.7089)">
            <path
               d="m 0,0 v -0.812 l -8.348,-5.958 -8.347,5.958 v 0.799 l -0.799,-0.667 6.182,-4.394 v -1.832 h 2.96 0.008 2.961 v 1.832 l 6.184,4.394 z"
               style="fill:#ffffff;fill-opacity:1;fill-rule:nonzero;stroke:none"
               id="path568" />
          </g>
        </g>
      </g>
    </g>
  </g>
</svg>
