<?xml version="1.0" encoding="UTF-8" standalone="no"?>
<svg
   id="svg65369"
   version="1.1"
   viewBox="0 0 23.993715 25.26877"
   height="25.26877mm"
   width="23.993715mm"
   xmlns="http://www.w3.org/2000/svg"
   xmlns:svg="http://www.w3.org/2000/svg"
   xmlns:rdf="http://www.w3.org/1999/02/22-rdf-syntax-ns#"
   xmlns:cc="http://creativecommons.org/ns#"
   xmlns:dc="http://purl.org/dc/elements/1.1/">
  <defs
     id="defs65363">
    <clipPath
       clipPathUnits="userSpaceOnUse"
       id="clipPath65541">
      <path
         d="m 65.814,711.788 h 68.177 v 96.377 H 65.814 Z"
         id="path65539" />
    </clipPath>
  </defs>
  <metadata
     id="metadata65366">
    <rdf:RDF>
      <cc:Work
         rdf:about="">
        <dc:format>image/svg+xml</dc:format>
        <dc:type
           rdf:resource="http://purl.org/dc/dcmitype/StillImage" />
        <dc:title />
      </cc:Work>
    </rdf:RDF>
  </metadata>
  <g
     id="g65535"
     transform="matrix(0.35277777,0,0,-0.35277777,-23.246655,285.10265)">
    <g
       clip-path="url(#clipPath65541)"
       id="g65537">
      <g
         transform="matrix(1.1414319,0,0,-1.1138612,95.678833,764.90302)"
         id="g65543">
        <g
           transform="translate(-25.4181,19.0854)"
           id="g65545">
          <path
             id="path65547"
             style="fill:#ffffff;fill-opacity:1;fill-rule:nonzero;stroke:none"
             d="m 0,0 c -0.116,-0.528 -0.175,-1.048 -0.175,-1.558 0,-0.468 0.074,-0.921 0.172,-1.367 0.247,0.116 3.805,1.801 3.811,1.804 0,0.005 0.342,0.255 0.347,0.258 0,0.003 0.135,0.139 0.192,0.195 C 4.776,1.178 5.773,2.457 6.645,3.27 5.31,2.754 3.801,2.172 3.801,2.172 3.728,2.144 3.647,2.152 3.579,2.193 3.513,2.234 3.47,2.304 3.462,2.381 3.462,2.381 3.3,4.058 3.245,4.615 2.507,4.172 0.615,2.799 0,0 m 1.208,-5.463 c 0.169,0.002 1.322,0.016 1.859,0.022 -0.322,0.5 -1.166,1.409 -2.9,1.889 0.37,-1.094 0.899,-1.755 1.041,-1.911 m -0.285,-0.43 c -0.039,0.038 -0.954,0.954 -1.382,2.616 -0.277,1.074 -0.287,2.213 -0.029,3.385 0.82,3.729 3.719,5.085 3.842,5.141 0.073,0.033 0.159,0.029 0.228,-0.011 0.069,-0.041 0.116,-0.113 0.124,-0.193 0,0 0.174,-1.786 0.222,-2.288 C 4.462,2.963 8.181,4.399 8.181,4.399 8.305,4.447 8.446,4.389 8.499,4.267 8.513,4.234 8.521,4.2 8.521,4.166 8.521,4.075 8.47,3.987 8.384,3.943 8.356,3.928 5.541,2.46 4.811,-0.855 4.8,-0.902 4.776,-0.944 4.743,-0.978 L 4.482,-1.24 C 4.452,-1.265 4.066,-1.547 4.066,-1.547 4.034,-1.566 1.675,-2.684 0.606,-3.19 c 2.359,-0.778 3.086,-2.331 3.116,-2.404 0.011,-0.03 0.016,-0.06 0.016,-0.091 0,-0.049 -0.014,-0.098 -0.042,-0.14 C 3.65,-5.892 3.573,-5.934 3.491,-5.935 L 1.101,-5.964 C 1.034,-5.966 0.97,-5.94 0.923,-5.893" />
        </g>
      </g>
      <g
         transform="matrix(1.1414319,0,0,-1.1138612,95.678833,764.90302)"
         id="g65549">
        <g
           transform="translate(-20.8141,17.8484)"
           id="g65551">
          <path
             id="path65553"
             style="fill:#ffffff;fill-opacity:1;fill-rule:nonzero;stroke:none"
             d="m 0,0 -0.113,-0.043 c 0.039,-0.011 0.084,-0.024 0.13,-0.039 z" />
        </g>
      </g>
      <g
         transform="matrix(1.1414319,0,0,-1.1138612,95.678833,764.90302)"
         id="g65555">
        <g
           transform="translate(-25.3811,16.0044)"
           id="g65557">
          <path
             id="path65559"
             style="fill:#ffffff;fill-opacity:1;fill-rule:nonzero;stroke:none"
             d="m 0,0 1.68,0.751 -2.051,-0.776 1.526,-2.659 2.296,0.08 C 3.425,-2.508 3.401,-2.414 3.365,-2.317 2.506,0.047 0,0 0,0" />
        </g>
      </g>
      <g
         transform="matrix(1.1414319,0,0,-1.1138612,95.678833,764.90302)"
         id="g65561">
        <g
           transform="translate(-23.5731,16.2504)"
           id="g65563">
          <path
             id="path65565"
             style="fill:#ffffff;fill-opacity:1;fill-rule:nonzero;stroke:none"
             d="m 0,0 2.341,1.102 c 0,0 1.262,-0.192 1.803,-0.981 C 3.452,0.548 2.661,0.728 2.661,0.728 l 1.142,-1.25 -1.829,0.921 1.001,-1.205 -1.667,0.732 0.911,-1.043 -1.524,0.892 0.729,-0.912 z" />
        </g>
      </g>
      <g
         transform="matrix(1.1414319,0,0,-1.1138612,95.678833,764.90302)"
         id="g65567">
        <g
           transform="translate(-24.8631,16.7544)"
           id="g65569">
          <path
             id="path65571"
             style="fill:#ffffff;fill-opacity:1;fill-rule:nonzero;stroke:none"
             d="M 0,0 2.923,1.299 3.413,2.718 2.495,1.594 2.436,2.517 1.987,1.364 1.778,2.826 1.124,1.05 1.092,2.379 0.534,0.638 0.283,2.187 Z" />
        </g>
      </g>
      <g
         transform="matrix(1.1414319,0,0,-1.1138612,95.678833,764.90302)"
         id="g65573">
        <g
           transform="translate(-22.2521,9.0564)"
           id="g65575">
          <path
             id="path65577"
             style="fill:#ffffff;fill-opacity:1;fill-rule:nonzero;stroke:none"
             d="M 0,0 2.524,0.713 3.555,-0.168 2.309,0.098 2.873,-0.746 1.798,-0.127 2.409,-1.547 1.2,-0.527 1.427,-2.08 Z" />
        </g>
      </g>
      <g
         transform="matrix(1.1414319,0,0,-1.1138612,95.678833,764.90302)"
         id="g65579">
        <g
           transform="translate(-16.2131,4.2384)"
           id="g65581">
          <path
             id="path65583"
             style="fill:#ffffff;fill-opacity:1;fill-rule:nonzero;stroke:none"
             d="M 0,0 2.6,-0.011 0.543,1.881 -0.246,2.066 1.084,1.091 -0.454,1.379 1.397,0.512 -0.495,0.707 0.828,0.283 Z" />
        </g>
      </g>
      <g
         transform="matrix(1.1414319,0,0,-1.1138612,95.678833,764.90302)"
         id="g65585">
        <g
           transform="translate(-19.2351,4.7194)"
           id="g65587">
          <path
             id="path65589"
             style="fill:#ffffff;fill-opacity:1;fill-rule:nonzero;stroke:none"
             d="M 0,0 C 3.148,-1.733 5.588,-1.137 6.05,-0.999 6.116,-0.843 7.009,1.284 7.542,2.548 6.933,2.087 6.049,1.624 4.949,1.677 3.27,1.757 1.65,3.036 0.127,5.445 -0.172,5.365 -3.44,4.495 -3.614,4.449 -3.506,3.802 -2.938,1.615 0,0 m -0.242,-0.438 c -3.719,2.046 -3.894,4.943 -3.899,5.066 -0.006,0.121 0.076,0.229 0.194,0.255 l 0.121,0.026 C -3.835,4.907 0.165,5.972 0.165,5.972 0.271,6 0.384,5.956 0.442,5.862 1.903,3.492 3.425,2.252 4.968,2.177 6.783,2.087 8.025,3.69 8.037,3.706 8.113,3.806 8.252,3.834 8.361,3.771 8.47,3.708 8.515,3.573 8.467,3.458 l -2,-4.758 C 6.439,-1.363 6.388,-1.413 6.324,-1.437 6.209,-1.48 3.454,-2.472 -0.242,-0.438" />
        </g>
      </g>
      <g
         transform="matrix(1.1414319,0,0,-1.1138612,95.678833,764.90302)"
         id="g65591">
        <g
           transform="translate(-21.7801,13.7734)"
           id="g65593">
          <path
             id="path65595"
             style="fill:#ffffff;fill-opacity:1;fill-rule:nonzero;stroke:none"
             d="m 0,0 0.08,-0.266 c 0.101,-0.364 0.15,-0.72 0.15,-1.078 0,-0.364 -0.051,-0.73 -0.152,-1.109 -0.023,-0.065 -0.356,-0.92 -0.848,-1.631 0.814,0.205 2.326,0.648 3.447,0.992 0.037,0.021 0.198,0.11 0.198,0.11 0.033,0.034 1.326,1.165 1.326,2.836 0,0.363 -0.061,0.751 -0.209,1.161 C 3.334,2.825 1.617,3.534 0.909,3.755 0.907,3.755 0.787,3.791 0.787,3.791 0.785,3.792 0.677,3.819 0.603,3.837 0.457,3.771 -2.266,2.555 -2.708,2.356 -1.84,2.147 -0.574,1.578 0,0 m -3.606,2.481 h 0.005 z m 2.035,-7.046 c -0.058,0.098 -0.034,0.245 0.047,0.327 0.635,0.635 1.121,1.924 1.126,1.936 0.17,0.641 0.175,1.257 0.007,1.863 -0.012,0.041 -0.08,0.269 -0.08,0.269 -0.785,2.161 -3.03,2.152 -3.125,2.151 -0.119,-0.002 -0.223,0.08 -0.248,0.197 -0.026,0.115 0.033,0.233 0.141,0.282 l 4.181,1.869 c 0.051,0.023 0.094,0.03 0.149,0.017 L 0.922,4.272 C 0.92,4.273 1.059,4.231 1.059,4.231 1.836,3.989 3.727,3.206 4.463,1.186 5.413,-1.434 3.18,-3.372 3.158,-3.391 3.117,-3.42 2.895,-3.543 2.895,-3.543 2.881,-3.551 2.864,-3.558 2.847,-3.563 c -4.238,-1.3 -4.294,-1.208 -4.418,-1.002" />
        </g>
      </g>
      <g
         transform="matrix(1.1414319,0,0,-1.1138612,95.678833,764.90302)"
         id="g65597">
        <g
           transform="translate(32.8219,16.1604)"
           id="g65599">
          <path
             id="path65601"
             style="fill:#ffffff;fill-opacity:1;fill-rule:nonzero;stroke:none"
             d="m 0,0 c 0.099,0.446 0.172,0.899 0.172,1.367 0,0.51 -0.058,1.03 -0.175,1.558 C -0.618,5.723 -2.51,7.097 -3.248,7.54 -3.302,6.983 -3.465,5.306 -3.465,5.306 -3.472,5.229 -3.515,5.159 -3.583,5.118 -3.649,5.077 -3.731,5.069 -3.803,5.097 c 0,0 -1.509,0.582 -2.844,1.098 0.872,-0.813 1.868,-2.092 2.297,-3.937 L -4.132,2.041 C -4.13,2.042 -3.774,1.782 -3.773,1.782 -3.77,1.785 -0.626,0.296 0,0 m -1.211,-2.538 c 0.144,0.156 0.671,0.817 1.041,1.911 -1.734,-0.48 -2.578,-1.389 -2.899,-1.889 0.536,-0.006 1.689,-0.02 1.858,-0.022 m 0.108,-0.501 -2.391,0.029 c -0.082,10e-4 -0.158,0.043 -0.204,0.11 -0.028,0.042 -0.043,0.091 -0.043,0.14 0,0.031 0.006,0.061 0.018,0.091 0.028,0.073 0.756,1.626 3.114,2.403 -0.792,0.376 -3.419,1.62 -3.419,1.62 C -4.068,1.378 -4.455,1.66 -4.455,1.66 -4.484,1.685 -4.746,1.947 -4.746,1.947 -4.78,1.981 -4.803,2.023 -4.813,2.07 -5.544,5.385 -8.358,6.853 -8.386,6.868 -8.472,6.912 -8.523,7 -8.523,7.091 c 0,0.034 0.007,0.068 0.021,0.101 0.055,0.122 0.195,0.18 0.319,0.132 0,0 3.718,-1.436 4.253,-1.642 0.048,0.502 0.221,2.288 0.221,2.288 0.008,0.08 0.054,0.152 0.124,0.193 0.07,0.04 0.156,0.044 0.229,0.011 C -3.233,8.118 -0.335,6.762 0.486,3.033 0.743,1.862 0.734,0.723 0.456,-0.352 0.028,-2.014 -0.886,-2.93 -0.924,-2.968 -0.972,-3.015 -1.037,-3.041 -1.103,-3.039" />
        </g>
      </g>
      <g
         transform="matrix(1.1414319,0,0,-1.1138612,95.678833,764.90302)"
         id="g65603">
        <g
           transform="translate(28.2159,17.8484)"
           id="g65605">
          <path
             id="path65607"
             style="fill:#ffffff;fill-opacity:1;fill-rule:nonzero;stroke:none"
             d="M 0,0 0.112,-0.043 C 0.073,-0.054 0.028,-0.067 -0.018,-0.082 Z" />
        </g>
      </g>
      <g
         transform="matrix(1.1414319,0,0,-1.1138612,95.678833,764.90302)"
         id="g65609">
        <g
           transform="translate(32.7819,16.0044)"
           id="g65611">
          <path
             id="path65613"
             style="fill:#ffffff;fill-opacity:1;fill-rule:nonzero;stroke:none"
             d="m 0,0 -1.679,0.751 2.05,-0.776 -1.526,-2.659 -2.296,0.08 c 0.026,0.096 0.051,0.19 0.086,0.287 C -2.506,0.047 0,0 0,0" />
        </g>
      </g>
      <g
         transform="matrix(1.1414319,0,0,-1.1138612,95.678833,764.90302)"
         id="g65615">
        <g
           transform="translate(30.9749,16.2504)"
           id="g65617">
          <path
             id="path65619"
             style="fill:#ffffff;fill-opacity:1;fill-rule:nonzero;stroke:none"
             d="m 0,0 -2.341,1.102 c 0,0 -1.263,-0.192 -1.804,-0.981 0.693,0.427 1.484,0.607 1.484,0.607 l -1.142,-1.25 1.828,0.921 -1.001,-1.205 1.667,0.732 -0.91,-1.043 1.523,0.892 -0.728,-0.912 z" />
        </g>
      </g>
      <g
         transform="matrix(1.1414319,0,0,-1.1138612,95.678833,764.90302)"
         id="g65621">
        <g
           transform="translate(32.2649,16.7544)"
           id="g65623">
          <path
             id="path65625"
             style="fill:#ffffff;fill-opacity:1;fill-rule:nonzero;stroke:none"
             d="m 0,0 -2.923,1.299 -0.49,1.419 0.918,-1.124 0.058,0.923 0.449,-1.153 0.209,1.462 0.655,-1.776 0.032,1.329 0.558,-1.741 0.251,1.549 z" />
        </g>
      </g>
      <g
         transform="matrix(1.1414319,0,0,-1.1138612,95.678833,764.90302)"
         id="g65627">
        <g
           transform="translate(29.6529,9.0564)"
           id="g65629">
          <path
             id="path65631"
             style="fill:#ffffff;fill-opacity:1;fill-rule:nonzero;stroke:none"
             d="m 0,0 -2.523,0.713 -1.031,-0.881 1.246,0.266 -0.565,-0.844 1.076,0.619 -0.612,-1.42 1.209,1.02 -0.226,-1.553 z" />
        </g>
      </g>
      <g
         transform="matrix(1.1414319,0,0,-1.1138612,95.678833,764.90302)"
         id="g65633">
        <g
           transform="translate(23.6139,4.2384)"
           id="g65635">
          <path
             id="path65637"
             style="fill:#ffffff;fill-opacity:1;fill-rule:nonzero;stroke:none"
             d="M 0,0 -2.599,-0.011 -0.543,1.881 0.246,2.066 -1.084,1.091 0.454,1.379 -1.396,0.512 0.495,0.707 -0.828,0.283 Z" />
        </g>
      </g>
      <g
         transform="matrix(1.1414319,0,0,-1.1138612,95.678833,764.90302)"
         id="g65639">
        <g
           transform="translate(26.6379,4.7194)"
           id="g65641">
          <path
             id="path65643"
             style="fill:#ffffff;fill-opacity:1;fill-rule:nonzero;stroke:none"
             d="M 0,0 C 2.936,1.615 3.505,3.802 3.611,4.449 3.161,4.57 0.558,5.261 -0.128,5.445 -1.652,3.036 -3.272,1.757 -4.951,1.677 -6.05,1.625 -6.935,2.087 -7.543,2.548 -7.012,1.283 -6.117,-0.843 -6.052,-0.999 -5.589,-1.137 -3.15,-1.733 0,0 m -6.325,-1.437 c -0.065,0.024 -0.117,0.074 -0.143,0.137 l -2,4.758 c -0.049,0.115 -0.004,0.25 0.105,0.313 0.109,0.063 0.249,0.036 0.325,-0.065 0.012,-0.016 1.254,-1.619 3.067,-1.529 1.543,0.075 3.066,1.314 4.527,3.685 0.058,0.093 0.171,0.138 0.278,0.11 L 3.835,4.907 C 3.953,4.881 4.145,4.749 4.14,4.628 4.135,4.505 3.96,1.608 0.24,-0.438 -3.455,-2.472 -6.21,-1.48 -6.325,-1.437" />
        </g>
      </g>
      <g
         transform="matrix(1.1414319,0,0,-1.1138612,95.678833,764.90302)"
         id="g65645">
        <g
           transform="translate(32.7869,16.2544)"
           id="g65647">
          <path
             id="path65649"
             style="fill:#ffffff;fill-opacity:1;fill-rule:nonzero;stroke:none"
             d="m 0,0 h -0.005 z m -2.837,-6.565 c -0.491,0.71 -0.823,1.562 -0.84,1.607 -0.107,0.4 -0.16,0.78 -0.16,1.15 0,0.346 0.047,0.684 0.14,1.02 0.012,0.041 0.092,0.307 0.092,0.307 0.574,1.578 1.84,2.147 2.708,2.356 C -1.341,0.074 -4.062,1.29 -4.209,1.356 -4.282,1.338 -4.39,1.311 -4.39,1.311 -4.392,1.31 -4.513,1.274 -4.513,1.274 c -0.709,-0.221 -2.426,-0.93 -3.084,-2.74 -0.149,-0.409 -0.209,-0.796 -0.209,-1.159 0,-1.667 1.287,-2.797 1.363,-2.863 0.008,-10e-4 0.125,-0.065 0.161,-0.085 1.12,-0.344 2.633,-0.787 3.445,-0.992 m -3.616,0.521 c -0.017,0.005 -0.033,0.012 -0.048,0.02 l -0.221,0.123 c -0.064,0.048 -2.296,1.986 -1.346,4.605 0.735,2.021 2.626,2.804 3.405,3.046 -0.002,0 0.138,0.042 0.138,0.042 -0.002,-0.001 0.293,0.073 0.293,0.073 0.054,0.013 0.097,0.006 0.148,-0.017 L 0.097,-0.021 C 0.205,-0.07 0.265,-0.188 0.239,-0.303 0.213,-0.42 0.11,-0.502 -0.009,-0.5 c -0.095,0.001 -2.339,0.01 -3.126,-2.152 l -0.069,-0.227 c -0.088,-0.32 -0.132,-0.632 -0.132,-0.947 0,-0.321 0.046,-0.644 0.135,-0.979 10e-4,10e-4 0.485,-1.281 1.119,-1.914 0.081,-0.081 0.106,-0.229 0.047,-0.327 -0.123,-0.206 -0.18,-0.298 -4.418,1.002" />
        </g>
      </g>
      <g
         transform="matrix(1.1414319,0,0,-1.1138612,95.678833,764.90302)"
         id="g65761">
        <g
           transform="translate(3.7939,-36.1826)"
           id="g65763">
          <path
             id="path65765"
             style="fill:#ffffff;fill-opacity:1;fill-rule:nonzero;stroke:none"
             d="m 0,0 c 0.396,1.343 1.186,4.021 1.186,4.021 0,0 2.212,-1.703 3.321,-2.556 C 4.074,2.681 3.503,4.288 3.381,4.632 2.881,4.6 1.552,4.417 0.011,4.417 -1.53,4.417 -2.88,4.6 -3.381,4.632 -3.503,4.288 -4.075,2.681 -4.508,1.464 c 1.109,0.854 3.324,2.557 3.324,2.557 0,0 0.789,-2.678 1.184,-4.021 M -1.595,2.758 C -2.281,2.23 -6.07,-0.685 -6.07,-0.685 l 2.172,6.102 c 0,0 1.555,-0.249 3.909,-0.249 2.353,0 3.875,0.248 3.875,0.248 L 3.993,5.15 6.069,-0.686 c 0,0 -3.787,2.915 -4.473,3.444 C 1.352,1.927 0,-2.658 0,-2.658 c 0,0 -1.351,4.585 -1.595,5.416" />
        </g>
      </g>
      <g
         transform="matrix(1.1414319,0,0,-1.1138612,95.678833,764.90302)"
         id="g65767">
        <g
           transform="translate(4.2449,13.4554)"
           id="g65769">
          <path
             id="path65771"
             style="fill:#ffffff;fill-opacity:1;fill-rule:nonzero;stroke:none"
             d="m 0,0 c 6.534,-0.059 12.572,-1.377 18.446,-3.975 v 5.937 c -1.126,0.58 -7.113,3.363 -18.54,3.44 -0.002,0 -0.448,0.008 -0.448,0.008 -0.02,0 -0.467,-0.008 -0.467,-0.008 -11.424,-0.077 -17.413,-2.86 -18.541,-3.44 v -5.937 c 5.874,2.598 11.912,3.916 18.448,3.975 0.001,0 0.549,0.009 0.549,0.009 C -0.551,0.009 0,0 0,0 M 18.666,-4.868 C 12.724,-2.156 6.616,-0.809 -0.008,-0.75 H -0.01 -0.007 L -0.553,-0.741 -1.096,-0.75 C -7.719,-0.809 -13.828,-2.156 -19.769,-4.868 L -20.3,-5.11 v 7.527 l 0.197,0.106 c 1.091,0.592 7.145,3.549 19.088,3.629 -0.002,0 0.174,0.004 0.174,0.004 l 0.279,0.004 c 0.02,0 0.476,-0.008 0.476,-0.008 C 11.858,6.072 17.908,3.115 19,2.523 L 19.196,2.417 V -5.11 Z" />
        </g>
      </g>
      <g
         transform="matrix(1.1414319,0,0,-1.1138612,95.678833,764.90302)"
         id="g65773">
        <g
           transform="translate(-10.6381,9.7424)"
           id="g65775">
          <path
             id="path65777"
             style="fill:#ffffff;fill-opacity:1;fill-rule:nonzero;stroke:none"
             d="m 0,0 0.004,-0.155 -2.332,-5.621 -3.821,3.444 0.751,0.149 0.467,0.268 c 0,0 1.775,0.953 4.931,1.915" />
        </g>
      </g>
      <g
         transform="matrix(1.1414319,0,0,-1.1138612,95.678833,764.90302)"
         id="g65779">
        <g
           transform="translate(18.0399,9.7424)"
           id="g65781">
          <path
             id="path65783"
             style="fill:#ffffff;fill-opacity:1;fill-rule:nonzero;stroke:none"
             d="m 0,0 -0.005,-0.155 2.332,-5.621 3.822,3.444 -0.752,0.149 -0.466,0.268 c 0,0 -1.775,0.953 -4.931,1.915" />
        </g>
      </g>
      <g
         transform="matrix(1.1414319,0,0,-1.1138612,95.678833,764.90302)"
         id="g65785">
        <g
           transform="translate(26.8219,-17.1336)"
           id="g65787">
          <path
             id="path65789"
             style="fill:#ffffff;fill-opacity:1;fill-rule:nonzero;stroke:none"
             d="m 0,0 -0.462,-0.112 c -2.17,-0.526 -3.271,-1.951 -3.271,-4.234 0,-0.887 0.186,-1.761 0.54,-2.528 l 0.19,-0.414 -0.393,-0.228 c -2.054,-1.189 -4.146,-2.167 -6.219,-2.907 -9.724,-3.474 -17.3,-3.473 -27.02,0 -2.071,0.739 -4.163,1.717 -6.219,2.907 l -0.394,0.228 0.191,0.413 c 0.353,0.77 0.54,1.644 0.54,2.529 0,2.283 -1.101,3.708 -3.271,4.234 l -0.462,0.113 0.089,0.467 c 0.672,3.534 3.347,15.699 8.061,25.992 0.237,0.078 0.382,0.338 0.64,0.416 0.172,0.052 0.51,0.187 0.696,0.24 -4.772,-10.065 -7.564,-22.461 -8.334,-26.436 2.316,-0.739 3.581,-2.441 3.581,-5.026 0,-0.864 -0.187,-1.705 -0.482,-2.49 1.891,-1.069 3.805,-1.968 5.7,-2.645 9.479,-3.387 16.867,-3.387 26.348,0 1.898,0.678 3.812,1.577 5.698,2.645 -0.294,0.784 -0.48,1.625 -0.48,2.49 0,2.586 1.266,4.287 3.583,5.026 -0.776,4.001 -3.38,16.068 -8.225,26.186 l -0.061,0.205 c 0.423,-0.1 0.794,-0.258 1.182,-0.359 4.896,-10.429 7.481,-22.648 8.165,-26.244 z" />
        </g>
      </g>
      <g
         transform="matrix(1.1414319,0,0,-1.1138612,95.678833,764.90302)"
         id="g65791">
        <g
           transform="translate(-19.9191,0.7934)"
           id="g65793">
          <path
             id="path65795"
             style="fill:#ffffff;fill-opacity:1;fill-rule:nonzero;stroke:none"
             d="m 0,0 c 0.523,-1.299 1.568,-3.884 1.568,-3.884 0,0 -2.793,-0.04 -4.191,-0.061 1.186,-0.742 3.554,-2.222 3.554,-2.222 0,0 -2.235,-1.673 -3.355,-2.511 1.292,0.091 3.015,0.211 3.365,0.235 0.117,0.455 0.83,3.226 0.83,3.226 0,0 0.922,2.733 1.079,3.2 C 2.551,-1.806 1.078,-0.763 0,0 m 1.263,-9.173 -6.179,-0.433 c 0,0 3.827,2.865 4.519,3.383 -0.733,0.46 -4.787,2.994 -4.787,2.994 0,0 4.779,0.068 5.646,0.081 C 0.136,-2.346 -1.655,2.09 -1.655,2.09 L 3.704,-1.7 C 2.841,-4.342 2.11,-6.879 1.508,-9.152 Z" />
        </g>
      </g>
      <g
         transform="matrix(1.1414319,0,0,-1.1138612,95.678833,764.90302)"
         id="g65797">
        <g
           transform="translate(27.3409,0.8104)"
           id="g65799">
          <path
             id="path65801"
             style="fill:#ffffff;fill-opacity:1;fill-rule:nonzero;stroke:none"
             d="m 0,0 c -1.069,-0.745 -2.537,-1.764 -2.83,-1.968 0.137,-0.454 0.986,-3.27 0.986,-3.27 0,-10e-4 0.772,-2.786 0.893,-3.225 0.344,-0.025 2.078,-0.145 3.373,-0.235 -1.121,0.838 -3.358,2.512 -3.358,2.512 0,0 2.368,1.481 3.553,2.223 -1.398,0.019 -4.191,0.059 -4.191,0.059 0,0 1.052,2.611 1.574,3.904 m 5.177,-3.248 c 0,0 -4.05,-2.535 -4.785,-2.994 0.693,-0.518 4.52,-3.381 4.52,-3.381 l -6.414,0.444 c -0.598,2.288 -1.328,4.845 -2.2,7.514 l 0.219,0.158 5.122,3.559 c 0,0 -1.783,-4.418 -2.106,-5.22 0.865,-0.012 5.644,-0.08 5.644,-0.08" />
        </g>
      </g>
      <g
         transform="matrix(1.1414319,0,0,-1.1138612,95.678833,764.90302)"
         id="g65803">
        <g
           transform="translate(17.4399,9.9064)"
           id="g65805">
          <path
             id="path65807"
             style="fill:#ffffff;fill-opacity:1;fill-rule:nonzero;stroke:none"
             d="M 0,0 1.225,-0.305 C 0.836,-0.201 0.424,-0.101 0.001,-0.002 Z" />
        </g>
      </g>
      <g
         transform="matrix(1.1414319,0,0,-1.1138612,95.678833,764.90302)"
         id="g65809">
        <g
           transform="translate(11.1979,19.7064)"
           id="g65811">
          <path
             id="path65813"
             style="fill:#ffffff;fill-opacity:1;fill-rule:nonzero;stroke:none"
             d="M 0,0 -0.097,0.097 C -2.439,2.618 -4.889,4.21 -7.412,4.737 -9.934,4.21 -12.385,2.618 -14.726,0.097 L -14.824,0 l -1.582,-0.232 0.017,0.02 c 2.776,3.327 5.756,5.33 8.854,5.953 L -7.436,5.76 -7.412,5.757 -7.387,5.76 -7.29,5.741 c 3.1,-0.623 6.078,-2.626 8.856,-5.953 l 0.015,-0.02 z" />
        </g>
      </g>
      <g
         transform="matrix(1.1414319,0,0,-1.1138612,95.678833,764.90302)"
         id="g65815">
        <g
           transform="translate(-4.7511,5.9814)"
           id="g65817">
          <path
             id="path65819"
             style="fill:#ffffff;fill-opacity:1;fill-rule:nonzero;stroke:none"
             d="m 0,0 c -0.216,-0.168 -0.479,-0.134 -0.73,-0.171 -0.177,-0.026 -0.397,-0.101 -0.409,0.158 -0.018,0.389 0.04,0.845 0.123,1.22 C -0.896,1.181 -0.806,1.048 -0.72,0.97 -0.439,0.711 -0.032,0.653 0.323,0.759 0.374,0.475 0.222,0.174 0,0" />
        </g>
      </g>
      <g
         transform="matrix(1.1414319,0,0,-1.1138612,95.678833,764.90302)"
         id="g65821">
        <g
           transform="translate(0.3889,6.4964)"
           id="g65823">
          <path
             id="path65825"
             style="fill:#ffffff;fill-opacity:1;fill-rule:nonzero;stroke:none"
             d="m 0,0 c -0.239,-0.127 -0.704,-0.315 -1.123,-0.137 -0.172,0.072 -0.119,0.096 -0.027,0.249 0.099,0.168 0.145,0.377 0.134,0.571 -0.015,0.245 -0.171,0.336 -0.248,0.532 0.688,0.192 1.487,-0.418 1.534,-1.108 0,0 0.01,-0.145 0.034,-0.173 C 0.283,-0.058 0.126,0.002 0.126,0.002 0.126,0.002 0.01,0.005 0,0" />
        </g>
      </g>
      <g
         transform="matrix(1.1414319,0,0,-1.1138612,95.678833,764.90302)"
         id="g65827">
        <g
           transform="translate(-6.6471,3.1534)"
           id="g65829">
          <path
             id="path65831"
             style="fill:#ffffff;fill-opacity:1;fill-rule:nonzero;stroke:none"
             d="M 0,0 C 0,0 -0.132,-0.096 -0.179,-0.065 -0.603,0.095 -0.992,0.399 -1.255,0.768 -1.401,0.975 -1.482,1.213 -1.507,1.464 -1.516,1.552 -1.578,1.973 -1.47,2.01 -1.431,2.024 -1.152,1.794 -1.1,1.767 -0.889,1.659 -0.658,1.571 -0.42,1.552 L 0.228,1.603 C 0.273,1.616 0.314,1.631 0.35,1.659 0.376,1.518 0.401,1.371 0.43,1.227 0.531,0.707 0.432,0.317 0,0" />
        </g>
      </g>
      <g
         transform="matrix(1.1414319,0,0,-1.1138612,95.678833,764.90302)"
         id="g65833">
        <g
           transform="translate(4.4879,-14.5206)"
           id="g65835">
          <path
             id="path65837"
             style="fill:#ffffff;fill-opacity:1;fill-rule:nonzero;stroke:none"
             d="m 0,0 c 0.166,0.157 0.426,0.417 0.631,0.211 l 0.037,-0.47 c 0.049,-0.612 -0.185,-1.124 -0.699,-1.429 -0.156,-0.092 -0.363,-0.323 -0.383,0.012 -0.004,0.087 -0.052,0.225 0.008,0.302 0.059,0.078 0.133,0.036 0.205,0.069 0.074,0.033 0.131,0.096 0.18,0.161 0.111,0.145 0.195,0.339 0.183,0.525 0.004,-0.049 -0.361,-0.2 -0.376,-0.285 L -0.353,-1.102 -0.375,-1.148 C -0.388,-1.18 -0.42,-1.203 -0.562,-1.17 c -0.053,0.013 -0.328,0.334 -0.336,0.396 -0.016,0.131 0.225,0.209 0.318,0.284 0.188,0.151 0.373,0.3 0.549,0.462 C -0.021,-0.02 -0.011,-0.01 0,0" />
        </g>
      </g>
      <g
         transform="matrix(1.1414319,0,0,-1.1138612,95.678833,764.90302)"
         id="g65839">
        <g
           transform="translate(1.7199,-17.3016)"
           id="g65841">
          <path
             id="path65843"
             style="fill:#ffffff;fill-opacity:1;fill-rule:nonzero;stroke:none"
             d="m 0,0 0.4,-0.455 c 0.014,-0.037 0.034,-0.072 0.048,-0.108 -0.009,0.024 -0.326,-0.161 -0.34,-0.23 0.312,0.01 0.6,-0.032 0.897,-0.121 0.11,-0.033 0.306,-0.124 0.418,-0.061 0.242,0.134 -0.42,0.243 -0.496,0.276 C 0.785,-0.638 0.775,-0.472 0.706,-0.35 0.603,-0.166 0.441,-0.019 0.28,0.115 0.192,0.311 0.092,0.496 -0.053,0.656 -0.089,0.695 -0.55,0.988 -0.55,0.896 -0.549,0.813 -0.434,0.784 -0.38,0.724 -0.199,0.522 -0.162,0.213 0,0 M -0.509,1.992 C -0.538,2.13 -0.719,2.3 -0.788,2.384 -0.878,2.492 -0.95,2.582 -0.991,2.719 -1.021,2.821 -1.009,2.912 -1.113,2.975 -1.207,2.845 -1.118,2.587 -1.118,2.433 V 2.391 c -0.042,0.052 -0.213,0.258 -0.213,0.258 -0.08,0.146 -0.164,0.29 -0.241,0.438 -0.048,0.09 -0.076,0.203 -0.136,0.284 -0.016,0.022 -0.252,0.195 -0.263,0.119 -0.043,-0.307 0.105,-0.68 0.26,-0.937 0.078,-0.13 0.186,-0.279 0.329,-0.345 0.194,-0.089 0.664,-0.356 0.874,-0.272 0.003,0.018 0.002,0.036 -0.001,0.056 m 5.094,-5.886 c 0.16,-0.22 0.365,-0.447 0.394,-0.481 0.127,-0.158 0.297,-0.602 0.561,-0.536 0.025,0.257 -0.104,0.458 -0.252,0.655 -0.078,0.102 -0.151,0.203 -0.219,0.311 -0.031,0.049 -0.183,0.204 -0.183,0.258 0,0.061 -0.397,0.279 -0.469,0.223 -0.072,-0.056 0.031,-0.241 0.168,-0.43 m 0.97,-3.195 0.002,-0.002 c 0,0 0.164,-0.198 0.192,-0.292 0.156,-0.027 0.207,-0.001 0.263,0.137 0.018,0.082 -0.066,0.271 -0.24,0.381 C 5.718,-6.831 5.679,-6.838 5.643,-6.856 5.6,-6.858 5.567,-6.871 5.557,-6.881 5.546,-6.894 5.542,-6.915 5.536,-6.934 5.522,-6.943 5.507,-6.948 5.499,-6.966 Z m 0.776,2.977 c 0.014,0 0.029,0.002 0.045,0.006 0.074,0.015 0.226,0.144 0.269,0.199 0.274,0.339 0.317,0.582 0.317,1.034 0,0.162 -0.016,0.439 -0.121,0.571 C 6.682,-2.354 6.718,-2.814 6.7,-2.945 6.661,-3.242 6.522,-3.429 6.403,-3.69 6.36,-3.784 6.12,-4.12 6.331,-4.112 m 0.086,-1.259 c 0.099,-0.247 0.428,-0.691 0.732,-0.665 0.01,0 -0.521,1.361 -0.738,0.965 -0.047,-0.087 -0.037,-0.193 0.006,-0.3 M 5.852,2.449 C 5.862,2.436 5.884,2.424 5.917,2.414 6.091,2.365 6.325,2.511 6.43,2.639 6.518,2.745 6.598,3.059 6.448,3.151 6.507,3.115 6.067,2.696 6.05,2.681 5.991,2.63 5.798,2.518 5.852,2.449 M 1.778,5.062 v 10e-4 c 0,0 0.029,-0.283 0.029,-0.286 0,0 0.057,-0.465 0.059,-0.467 L 1.891,4.047 1.864,3.624 c 0,0 -0.006,-0.042 -0.006,-0.092 0,-0.035 0.004,-0.07 0.012,-0.1 L 1.868,3.423 C 1.866,3.413 1.866,3.402 1.866,3.391 1.87,3.399 1.874,3.406 1.876,3.413 1.88,3.402 1.884,3.387 1.889,3.381 c 0,0 0.114,0.242 0.123,0.262 0,0 0.022,0.076 0.047,0.169 0.028,0.062 0.039,0.133 0.057,0.211 0.027,0.109 0.051,0.21 0.049,0.241 0,0 -0.026,0.352 -0.026,0.357 0,0 -0.113,0.476 -0.113,0.477 0,0 -0.123,0.252 -0.199,0.353 C 1.819,5.468 1.811,5.483 1.804,5.499 V 5.474 C 1.796,5.482 1.784,5.5 1.778,5.499 L 1.776,5.2 Z m -4.929,-6.896 c 0.764,0.447 1.543,0.214 2.334,0.007 0.126,-0.032 0.289,-0.102 0.418,-0.097 0.338,0.015 0.076,0.528 0.03,0.684 -0.064,0.219 -0.037,0.447 -0.058,0.672 -0.022,0.23 -0.117,0.429 -0.18,0.649 C -0.714,0.45 -1.233,0.473 -1.54,0.509 -1.895,0.551 -2.247,0.475 -2.42,0.13 l -0.228,-0.558 c 0,0 -0.024,-0.083 -0.015,-0.144 -0.012,0.006 -0.139,0.081 -0.139,0.081 -0.19,0.187 -0.398,0.377 -0.435,0.655 -0.038,0.287 0.1,0.574 0.256,0.805 0.185,0.273 0.444,0.475 0.754,0.589 0.124,0.045 0.888,0.135 0.892,0.198 10e-4,0.016 -0.372,0.068 -0.404,0.072 -0.15,0.023 -0.313,0.004 -0.451,0.083 -0.131,0.076 -0.247,0.258 -0.319,0.39 -0.161,0.297 -0.221,0.648 -0.253,0.981 -0.011,0.109 -0.081,1.067 -0.132,1.065 0.156,0.007 0.314,-0.03 0.471,-0.03 0.304,0 0.702,-0.11 0.992,-0.223 C -1.189,4 -0.994,3.803 -0.81,3.62 -0.641,3.452 -0.48,3.192 -0.248,3.094 -0.357,3.267 -0.362,3.516 -0.457,3.705 -0.554,3.901 -0.586,4.242 -0.604,4.468 -0.618,4.631 -0.552,5.092 -0.426,5.214 -0.456,5.185 0.227,4.647 0.282,4.602 0.605,4.338 1.09,4.066 1.105,3.602 1.108,3.521 1.047,3.332 1.129,3.267 1.233,3.185 1.374,3.532 1.392,3.609 1.432,3.775 1.371,3.957 1.339,4.119 1.242,4.618 1.097,5.186 1.097,5.701 c 0,0.414 0.099,0.768 0.301,1.083 0.15,0.183 0.271,0.373 0.406,0.563 C 1.85,7.13 1.845,6.885 1.936,6.683 2.007,6.53 2.182,6.4 2.284,6.259 2.507,5.951 2.868,5.678 2.919,5.271 L 3.098,3.831 C 3.087,3.627 3.03,3.317 2.874,3.171 2.77,3.076 1.682,2.22 1.595,2.291 L 0.957,2.586 c 0,0 -0.06,0.023 -0.073,0.087 0,0 -0.333,0.759 -0.334,0.76 C 0.522,3.47 0.103,4.094 0.077,3.84 0.049,3.572 0.302,3.191 0.405,2.947 c 0,0 0.065,-0.147 0.102,-0.176 -0.026,0.003 -0.211,0.026 -0.212,0.026 0,0 -0.262,0.052 -0.392,0.043 0,0 0.066,-0.601 0.065,-0.668 C -0.041,1.582 0.272,0.51 1.056,0.604 1.106,0.61 0.886,0.815 0.871,0.829 0.78,0.913 0.705,1.011 0.624,1.105 0.485,1.265 0.355,1.537 0.313,1.745 0.262,1.998 0.283,2.257 0.194,2.508 0.221,2.499 0.385,2.446 0.385,2.446 c 0,0 0.248,-0.088 0.325,-0.112 C 1.022,2.238 1.6,2.059 1.979,1.48 2.122,1.253 2.198,0.917 2.266,0.621 2.274,0.574 2.282,0.525 2.304,0.464 l 0.507,0.301 c 0.295,0.138 0.598,0.281 0.836,0.6 l 0.34,0.464 0.836,0.957 c 0,0 0.127,0.1 0.16,0.155 C 4.985,2.909 4.995,2.66 4.995,2.66 L 5.005,2.379 C 5.005,1.731 4.895,1.057 4.567,0.49 4.427,0.249 4.251,0.05 4.046,-0.135 3.942,-0.228 3.884,-0.344 3.735,-0.316 3.634,-0.297 3.501,-0.193 3.456,-0.101 3.454,-0.099 3.341,0.129 3.245,0.228 3.171,-0.005 2.977,-0.203 2.667,-0.361 2.63,-0.39 2.487,-0.48 2.495,-0.531 c 0.029,-0.165 0.68,0.252 0.74,0.326 0.18,-0.185 0.434,-0.544 0.434,-0.811 0,-0.323 -0.076,-0.587 -0.291,-0.84 C 3.2,-2.011 3.43,-2.115 3.473,-2.318 3.518,-2.534 3.464,-2.789 3.399,-2.997 3.368,-3.1 3.223,-3.372 3.397,-3.43 c 0.26,-0.087 0.358,0.579 0.387,0.727 0.023,0.112 0.051,0.215 0.037,0.326 -0.01,0.097 -0.152,0.364 -0.098,0.452 0.176,0.289 0.274,0.606 0.274,0.893 -0.016,0.101 -0.129,0.378 -0.09,0.461 0.023,0.051 0.229,0.132 0.281,0.178 C 4.712,0.061 5.059,0.65 5.212,1.328 5.284,1.652 5.298,1.975 5.315,2.304 5.319,2.395 5.313,3.442 5.259,3.428 4.921,3.352 4.591,3.012 4.345,2.786 4.19,2.645 4.065,2.469 3.936,2.307 c 0,0 -0.152,-0.229 -0.201,-0.339 L 3.718,1.941 c 0.003,0.075 0.027,0.496 0.031,0.573 0,0 -0.139,1.101 -0.141,1.117 0,0 -0.127,0.7 -0.127,0.701 0,0 -0.111,0.486 -0.111,0.488 -0.053,0.295 -0.133,0.619 -0.004,0.905 0.09,0.203 0.256,0.382 0.385,0.56 l 0.453,0.663 c 0,0 0.1,0.168 0.105,0.225 0.012,-0.033 0.102,-0.291 0.123,-0.354 0,0 0.094,-0.202 0.094,-0.205 C 4.723,6.182 4.911,5.774 4.923,5.298 4.934,4.871 4.846,4.452 5.026,4.044 5.143,4.099 5.169,4.365 5.177,4.474 5.186,4.669 5.204,4.854 5.233,5.051 5.298,5.48 5.358,5.823 5.604,6.195 5.796,6.481 6.11,6.867 6.485,6.896 6.663,6.909 6.856,6.829 6.993,6.725 7.089,6.653 7.354,6.479 7.337,6.339 6.989,6.319 6.54,6.043 6.485,5.675 6.44,5.37 6.536,5.058 6.567,4.762 L 6.632,4.116 c 0,-0.33 0.449,-0.68 0.882,-1.018 C 7.645,2.997 7.79,2.905 7.909,2.796 7.858,2.723 7.788,2.638 7.716,2.58 7.63,2.511 7.296,2.207 7.18,2.222 6.782,2.275 6.376,2.178 6.095,1.961 5.573,1.557 5.653,0.96 5.571,0.386 5.55,0.196 5.477,-0.036 5.546,-0.224 c 0.109,0.01 0.162,0.381 0.191,0.47 0.084,0.245 0.158,0.499 0.205,0.755 0.094,0.527 0.373,0.89 0.928,0.914 0,0 0.137,0.007 0.144,0.031 C 7.011,1.933 6.977,1.786 6.977,1.786 6.977,1.786 6.936,1.23 6.936,1.194 6.973,1.029 7.055,0.818 7.036,0.648 7.014,0.466 6.866,0.348 6.786,0.195 6.702,0.033 6.679,-0.156 6.632,-0.33 6.622,-0.366 6.548,-0.794 6.528,-0.797 6.387,-0.822 6.243,-0.895 6.161,-1.019 6.089,-1.124 6.024,-1.353 6.034,-1.483 c -0.02,0.016 -0.289,0.24 -0.289,0.24 -0.152,0.133 -0.664,0.33 -0.881,0.358 0,0 -0.119,-0.287 -0.121,-0.292 -0.068,-0.164 -0.135,-1.038 0.141,-1.016 0.072,0.007 0.207,1.01 0.171,1.029 C 5.069,-1.171 5.204,-1.24 5.206,-1.241 5.321,-1.27 5.479,-1.428 5.579,-1.498 5.708,-1.589 5.878,-1.712 5.913,-1.88 5.929,-1.959 5.889,-2.035 5.866,-2.117 5.794,-2.354 5.723,-2.591 5.649,-2.827 5.624,-2.91 5.571,-3.129 5.661,-3.197 c 0.164,-0.127 0.363,0.348 0.404,0.453 0.121,0.317 0.08,0.662 0.18,0.983 0.027,0.083 0.041,0.324 0.119,0.363 0.076,0.04 0.221,-0.093 0.311,-0.054 0.238,0.105 0.154,0.877 0.203,1.096 0.082,0.381 0.273,0.73 0.633,0.909 0,0 0.201,0.1 0.293,0.169 C 7.778,0.667 7.653,0.411 7.653,0.411 7.432,0.045 7.505,-0.451 7.446,-0.851 7.366,-1.397 7.509,-1.904 7.559,-2.453 7.585,-2.752 7.612,-3.051 7.639,-3.35 7.653,-3.503 7.61,-3.697 7.55,-3.834 7.497,-3.952 7.239,-4.28 7.436,-4.38 7.44,-4.384 7.903,-4.737 7.94,-5.353 L 7.96,-5.8 8.054,-6.665 c 0,0 0.031,-0.115 0.054,-0.122 C 8.093,-6.788 7.958,-6.796 7.958,-6.796 7.636,-6.819 7.19,-6.813 6.909,-6.65 l -0.576,0.423 c 0,0 -0.246,0.237 -0.264,0.219 0,0 -0.135,-0.139 -0.182,-0.224 l 0.204,-0.196 c 0.289,-0.321 0.443,-0.614 0.443,-0.845 0,0 -0.025,-0.156 -0.025,-0.158 L 6.188,-8.153 c 0,0 -0.086,-0.142 -0.088,-0.19 -0.013,0.029 -0.097,0.199 -0.097,0.199 -0.293,0.595 -0.741,0.856 -1.399,0.893 l -1.156,0.219 c -0.447,0.184 -0.789,0.147 -1.021,0.123 0,0 -0.309,-0.008 -0.291,0.032 0,0 -0.137,0.172 -0.135,0.169 0,0 -0.309,0.383 -0.319,0.379 0,10e-4 0.03,0.101 0.043,0.14 0,0 0.049,0.191 0.049,0.192 0.076,0.282 0.547,0.212 0.799,0.24 0.186,0.021 0.391,0.086 0.555,-0.033 0.162,-0.117 0.201,-0.375 0.447,-0.356 l 0.213,0.053 c 0.082,0.015 0.191,0.041 0.322,0.079 l 0.354,0.088 c 0,0 0.283,0.045 0.285,0.045 0,0 0.119,0.016 0.221,0.053 0.021,0.005 0.027,0.014 0.029,0.027 0.008,0.006 0.021,0.011 0.025,0.018 -0.236,0.096 -0.588,0.183 -1.021,0.028 0,0 -0.34,-0.088 -0.416,-0.065 0,0 -0.157,0.183 -0.184,0.184 0.006,0.003 0.104,0.082 0.158,0.155 0,0 0.022,0.125 0.026,0.172 l 0.008,0.205 c 0,0.235 -0.026,0.663 -0.198,0.896 L 3.157,-4.019 3.106,-4.023 C 3.095,-4.017 3.079,-4.009 3.071,-4.025 L 3.032,-4.028 c 0,0 0.092,-0.289 0.094,-0.291 C 3.177,-4.507 3.249,-4.684 3.309,-4.857 3.362,-5.011 3.341,-5.251 3.2,-5.36 2.94,-5.56 2.417,-5.492 2.11,-5.493 c -0.195,0 -0.195,0.059 -0.346,0.146 -0.156,0.09 -0.509,0.048 -0.494,-0.183 0.01,-0.151 0.156,-0.293 0.161,-0.433 0,-0.001 0.005,-0.143 0.028,-0.172 -0.02,0.009 -0.174,0.073 -0.174,0.073 l -0.318,0.087 c -0.618,0.082 -1.402,0.456 -1.438,0.869 0,0 0.059,0.562 0.063,0.59 0.034,0.243 -0.011,0.502 0.047,0.748 0.076,0.329 0.281,0.376 0.593,0.372 0.294,-0.005 0.464,-0.056 0.699,-0.215 0.236,-0.159 0.566,-0.162 0.841,-0.139 l 0.619,0.022 C 2.438,-3.726 2.399,-2.212 2.343,-2.116 2.196,-1.862 1.741,-1.834 1.491,-1.874 1.208,-1.918 0.938,-1.985 0.654,-2.017 0.505,-2.033 0.123,-2.035 0.073,-2.226 c -0.101,-0.378 1.07,-0.023 1.2,0.029 l 0.355,0.128 C 2.169,-1.891 2.194,-2.671 1.917,-2.939 1.825,-3.029 1.71,-3.064 1.569,-3.048 1.192,-3 0.807,-2.99 0.431,-3.055 0.237,-3.088 0.035,-3.137 -0.147,-3.211 -0.256,-3.255 -0.423,-3.388 -0.51,-3.237 c -0.23,0.396 -0.714,0.848 -1.195,0.944 -0.406,0.081 -0.891,0.01 -1.156,-0.34 -0.29,-0.383 -0.294,-0.918 -0.06,-1.332 -0.038,0.022 -0.235,0.133 -0.235,0.133 -0.221,0.126 -0.364,0.301 -0.415,0.505 l -0.114,0.703 c 0,0.418 0.285,0.642 0.534,0.79" />
        </g>
      </g>
      <g
         transform="matrix(1.1414319,0,0,-1.1138612,95.678833,764.90302)"
         id="g65845">
        <g
           transform="translate(-9.9791,-5.8736)"
           id="g65847">
          <path
             id="path65849"
             style="fill:#ffffff;fill-opacity:1;fill-rule:nonzero;stroke:none"
             d="m 0,0 0.025,-0.03 c -0.01,0.009 -0.021,0.019 -0.028,0.023 z" />
        </g>
      </g>
      <g
         transform="matrix(1.1414319,0,0,-1.1138612,95.678833,764.90302)"
         id="g65851">
        <g
           transform="translate(-6.9601,-24.1336)"
           id="g65853">
          <path
             id="path65855"
             style="fill:#ffffff;fill-opacity:1;fill-rule:nonzero;stroke:none"
             d="M 0,0 C 0.007,0.03 0.014,0.061 0.02,0.093 0.035,0.176 0.012,0.338 0.048,0.408 0.1,0.507 0.11,0.468 0.227,0.44 0.579,0.354 0.957,0.26 1.161,-0.066 1.369,-0.398 0.85,-0.754 0.6,-0.861 0.41,-0.942 0.256,-0.87 0.058,-0.852 c -0.104,0.008 -0.342,0.014 -0.413,0.098 -0.063,0.075 0.021,0.14 0.075,0.219 C -0.164,-0.368 -0.052,-0.199 0,0" />
        </g>
      </g>
      <g
         transform="matrix(1.1414319,0,0,-1.1138612,95.678833,764.90302)"
         id="g65857">
        <g
           transform="translate(-10.0431,-9.4816)"
           id="g65859">
          <path
             id="path65861"
             style="fill:#ffffff;fill-opacity:1;fill-rule:nonzero;stroke:none"
             d="M 0,0 C 0.182,-0.272 -0.026,-0.651 -0.197,-0.852 -0.3,-0.975 -0.298,-1.006 -0.45,-0.927 c -0.244,0.128 -0.488,0.289 -0.667,0.502 -0.074,0.088 -0.19,0.234 -0.191,0.357 -0.002,0.207 0.29,0.065 0.417,0.051 0.174,-0.019 0.353,-0.03 0.524,0.015 0.151,0.039 0.237,0.161 0.339,0.039 C -0.018,0.024 -0.009,0.012 0,0" />
        </g>
      </g>
      <g
         transform="matrix(1.1414319,0,0,-1.1138612,95.678833,764.90302)"
         id="g65863">
        <g
           transform="translate(-9.6171,-7.7566)"
           id="g65865">
          <path
             id="path65867"
             style="fill:#ffffff;fill-opacity:1;fill-rule:nonzero;stroke:none"
             d="m 0,0 c 0,0 -0.121,-0.032 -0.122,-0.04 -0.002,0.001 -0.079,0.059 -0.128,0.123 -0.145,0.189 -0.341,0.445 -0.341,0.772 0,0.021 0.001,0.042 0.002,0.063 l 0.168,0.75 c 0,0 0.052,0.13 0.052,0.18 0,0.005 -0.002,0.006 -0.004,0.008 V 1.857 C -0.353,1.834 0.009,1.391 0.011,1.39 0.121,1.28 0.342,1.183 0.608,1.14 0.643,1.134 0.671,1.116 0.707,1.113 L 0.735,1.112 C 0.737,1.112 0.738,1.111 0.74,1.111 0.759,1.099 0.762,1.094 0.775,1.079 0.782,1.058 0.806,0.986 0.823,0.932 0.867,0.883 0.906,0.814 0.906,0.724 0.906,0.654 0.881,0.571 0.818,0.475 0.785,0.426 0.485,-0.004 0,0" />
        </g>
      </g>
      <g
         transform="matrix(1.1414319,0,0,-1.1138612,95.678833,764.90302)"
         id="g65869">
        <g
           transform="translate(-9.4211,-22.8286)"
           id="g65871">
          <path
             id="path65873"
             style="fill:#ffffff;fill-opacity:1;fill-rule:nonzero;stroke:none"
             d="M 0,0 -0.001,0.001 H 0.001 C 0.001,0.001 0,0.001 0,0" />
        </g>
      </g>
      <g
         transform="matrix(1.1414319,0,0,-1.1138612,95.678833,764.90302)"
         id="g65875">
        <g
           transform="translate(-8.7451,-22.5606)"
           id="g65877">
          <path
             id="path65879"
             style="fill:#ffffff;fill-opacity:1;fill-rule:nonzero;stroke:none"
             d="m 0,0 c 0.07,0.045 0.131,0.101 0.179,0.172 0.03,0.044 0.025,0.118 0.094,0.127 0.116,0.015 0.387,-0.252 0.456,-0.327 0.122,-0.131 0.202,-0.289 0.202,-0.47 0,-0.072 -0.011,-0.141 -0.024,-0.205 0,0 0.042,-0.121 0.067,-0.128 -0.017,-0.001 -0.199,-0.015 -0.199,-0.015 -0.343,-0.026 -0.788,0.011 -1.085,0.2 -0.078,0.05 -0.261,0.191 -0.291,0.281 -0.037,0.108 0.016,0.102 0.131,0.139 C -0.318,-0.15 -0.143,-0.095 0,0" />
        </g>
      </g>
      <g
         transform="matrix(1.1414319,0,0,-1.1138612,95.678833,764.90302)"
         id="g65881">
        <g
           transform="translate(-10.1101,-19.7926)"
           id="g65883">
          <path
             id="path65885"
             style="fill:#ffffff;fill-opacity:1;fill-rule:nonzero;stroke:none"
             d="M 0,0 V 0.001 H 0.006 C 0.005,0.001 0.001,0.001 0,0" />
        </g>
      </g>
      <g
         transform="matrix(1.1414319,0,0,-1.1138612,95.678833,764.90302)"
         id="g65887">
        <g
           transform="translate(-9.1851,-19.6286)"
           id="g65889">
          <path
             id="path65891"
             style="fill:#ffffff;fill-opacity:1;fill-rule:nonzero;stroke:none"
             d="M 0,0 C 0.115,0.046 0.229,0.094 0.35,0.105 0.654,0.129 0.563,-0.347 0.563,-0.493 0.562,-0.712 0.335,-1.09 0.146,-1.198 -0.06,-1.316 -0.429,-1.045 -0.588,-0.888 -0.747,-0.729 -0.896,-0.444 -0.89,-0.217 -0.891,-0.256 -0.074,-0.03 0,0" />
        </g>
      </g>
      <g
         transform="matrix(1.1414319,0,0,-1.1138612,95.678833,764.90302)"
         id="g65893">
        <g
           transform="translate(-6.9131,-16.7356)"
           id="g65895">
          <path
             id="path65897"
             style="fill:#ffffff;fill-opacity:1;fill-rule:nonzero;stroke:none"
             d="m 0,0 c 0.05,-0.188 -0.107,-0.503 -0.215,-0.603 -0.192,-0.176 -0.269,-0.251 -0.448,-0.053 -0.094,0.106 -0.192,0.214 -0.333,0.265 -0.165,0.059 -0.376,0.011 -0.523,0.079 0.091,0.09 0.186,0.214 0.304,0.273 0.234,0.118 0.865,0.284 1.119,0.16 C -0.044,0.095 -0.014,0.053 0,0" />
        </g>
      </g>
      <g
         transform="matrix(1.1414319,0,0,-1.1138612,95.678833,764.90302)"
         id="g65899">
        <g
           transform="translate(16.8849,-14.8586)"
           id="g65901">
          <path
             id="path65903"
             style="fill:#ffffff;fill-opacity:1;fill-rule:nonzero;stroke:none"
             d="m 0,0 c -0.006,0.078 -0.262,-0.231 -0.276,-0.254 -0.037,-0.067 -0.076,-0.134 -0.111,-0.202 -0.076,-0.143 -0.135,-0.294 -0.187,-0.447 -0.196,-0.583 -0.235,-1.205 -0.315,-1.813 -0.113,-0.871 0.012,-2.033 -0.254,-2.881 -0.115,-0.37 -0.174,-0.463 -0.375,-0.796 -0.097,-0.162 -0.279,-0.39 -0.424,-0.513 -0.021,-0.017 -0.363,-0.322 -0.273,-0.323 0.207,-0.004 0.605,0.39 0.75,0.539 0.404,0.42 0.596,1.049 0.67,1.614 0.057,0.434 0.033,0.811 0.049,1.248 0.033,0.912 0.177,1.851 0.392,2.738 0.035,0.146 0.076,0.29 0.123,0.433 C -0.166,-0.453 0.012,-0.23 0,0 m -1.311,-2.794 c -0.027,0.64 -0.207,1.259 -0.322,1.886 -0.113,0.615 -0.16,1.241 -0.209,1.864 -0.025,0.332 0.121,0.861 -0.109,1.142 C -2.016,2.012 -2.061,1.794 -2.076,1.691 -2.123,1.362 -2.123,1.237 -2.121,0.864 c 0.002,-0.394 0.015,-0.739 0.072,-1.129 0.064,-0.453 0.178,-0.897 0.262,-1.347 0.078,-0.416 0.154,-0.838 0.185,-1.261 l 0.092,-1.642 c -0.002,-0.132 0.004,-0.266 -0.006,-0.397 -0.006,-0.112 -0.086,-0.367 0.002,-0.457 0.125,-0.129 0.221,0.376 0.231,0.435 0.05,0.309 0.039,0.656 0.06,0.969 0.012,0.197 -0.027,0.41 -0.025,0.608 z m -1.023,18.591 c 0.08,-0.022 0.162,-0.024 0.242,0.002 0.227,0.074 0.008,0.191 -0.092,0.257 -0.027,0.019 -0.699,0.47 -0.703,0.366 -0.004,-0.252 0.324,-0.561 0.553,-0.625 m -5.592,-1.77 c 0.01,0.208 -0.01,0.459 -0.15,0.476 -0.256,0.03 -0.194,-0.578 -0.205,-0.724 -0.039,-0.43 -0.348,-0.793 -0.69,-1.039 0,0 -0.113,-0.083 -0.121,-0.116 l 0.147,-0.247 c 0.15,-0.255 0.244,-0.557 0.291,-0.848 0.044,-0.284 -0.004,-0.541 0,-0.822 10e-4,-0.16 0.109,-0.354 0.263,-0.198 0.182,0.186 0.106,0.593 0.074,0.817 -0.027,0.186 -0.043,0.372 -0.091,0.555 -0.034,0.131 -0.098,0.252 -0.155,0.375 -0.031,0.07 -0.125,0.203 -0.123,0.278 0.002,0.113 0.117,0.141 0.188,0.203 0.095,0.085 0.176,0.201 0.248,0.307 0.148,0.218 0.267,0.469 0.303,0.734 0.005,0.046 0.017,0.142 0.021,0.249 m -0.707,1.736 c -0.053,-0.005 -0.121,-0.083 -0.178,-0.193 -0.127,-0.251 -0.15,-0.542 -0.197,-0.815 -0.01,-0.064 -0.01,-0.264 0.076,-0.29 0.104,-0.031 0.151,0.163 0.197,0.227 0.135,0.185 0.217,0.679 0.196,0.902 -0.012,0.126 -0.047,0.174 -0.094,0.169 M -23.129,6.147 -23.619,6.039 -23.75,5.93 C -23.806,5.89 -23.863,5.842 -23.918,5.792 L -24.07,5.666 c 0,0 -0.11,-0.207 -0.143,-0.315 -0.006,-0.016 -0.013,-0.026 -0.02,-0.042 0.008,0.005 0.01,0.008 0.017,0.012 0,-0.011 -0.007,-0.03 -0.003,-0.033 0,0 0.171,0.125 0.175,0.128 l 0.403,0.255 c 0,0 0.236,0.145 0.259,0.162 0,0 0.049,0.05 0.103,0.108 0.039,0.033 0.074,0.078 0.109,0.128 0.004,0.005 0.009,0.011 0.012,0.015 0.01,0.015 0.022,0.022 0.03,0.038 -0.004,0 -0.009,-10e-4 -0.012,-10e-4 0.003,0.008 0.013,0.022 0.011,0.026 m 3.398,-5.792 c -0.036,0.096 -0.086,0.519 -0.252,0.288 -0.099,-0.138 -0.15,-1.039 0.153,-0.965 0.19,0.046 0.15,0.54 0.099,0.677 m -0.583,-0.728 -0.15,0.254 -0.052,0.105 c -0.064,0.086 -0.229,0.279 -0.31,0.08 -0.068,-0.168 0.211,-0.623 0.373,-0.673 0.214,-0.065 0.157,0.096 0.139,0.234 m -0.562,-0.495 c -0.11,0.175 -0.221,0.406 -0.381,0.539 -0.275,0.228 -0.149,-0.257 -0.081,-0.385 0.075,-0.139 0.196,-0.414 0.372,-0.441 0.2,-0.03 0.206,0.17 0.09,0.287 M 1.898,0.16 C 1.867,0.107 1.785,0.084 1.623,0.115 1.195,0.198 0.877,0.068 0.629,-0.296 0.326,-0.738 0.209,-1.236 0.209,-2.072 l 0.064,-1.411 0.035,-0.955 c 0,-1.657 -0.349,-2.77 -1.013,-3.222 -0.91,-0.618 -2.399,-0.832 -3.514,0.163 -1.258,1.12 -1.826,2.56 -1.932,4.227 -0.119,1.914 0.096,3.939 0.743,5.751 0.226,0.637 0.535,1.265 0.797,1.892 0.074,0.174 0.175,0.339 0.224,0.522 0.055,0.203 0.024,0.217 -0.168,0.201 -0.066,-0.005 -0.662,-0.042 -1.015,0.28 -0.17,0.156 -0.252,0.371 -0.252,0.654 0,0.161 -0.104,0.668 0.132,0.716 0.248,0.05 0.51,-0.425 0.75,-0.427 0.483,-0.166 0.918,-0.022 1.223,0.406 0.119,0.165 -0.023,0.173 -0.148,0.24 -0.145,0.079 -0.276,0.214 -0.389,0.333 -0.147,0.152 -0.264,0.363 -0.285,0.575 -0.018,0.157 0.015,0.322 0.054,0.474 0.03,0.117 0.055,0.313 0.104,0.416 0.146,0.308 0.344,-0.099 0.467,-0.198 0.189,-0.156 0.431,-0.211 0.674,-0.211 0.468,0 0.853,0.266 1.056,0.729 0.242,0.545 0.196,1.256 -0.105,1.586 -0.485,0.535 -1.416,0.657 -1.967,0.154 -0.633,-0.581 -1.383,-1.059 -1.932,-1.728 0,0 -0.478,-0.487 -0.498,-0.506 C -7.059,8.238 -7.483,7.84 -7.692,7.358 -7.985,6.691 -8.873,5.68 -9.303,5.524 -9.492,5.453 -9.553,5.331 -9.569,5.24 -9.59,5.11 -9.531,4.985 -9.465,4.878 -9.449,4.852 -9.266,4.676 -9.266,4.672 -9.219,4.464 -9.43,4.291 -9.559,4.168 -9.662,4.072 -9.85,3.742 -9.983,3.721 c -0.25,-0.038 -0.431,0.631 -0.486,0.787 -0.066,0.191 -0.125,0.384 -0.18,0.578 -0.017,0.059 -0.183,0.476 -0.183,0.479 l -0.164,-0.408 c -0.178,-0.484 -0.471,-0.944 -0.871,-1.369 -0.09,-0.143 -0.192,-0.452 -0.401,-0.311 -0.101,0.067 -0.152,0.237 -0.217,0.335 -0.175,0.268 -0.48,0.495 -0.568,0.823 -0.094,0.346 0.096,0.69 0.068,1.038 0.008,-0.107 -0.273,-0.287 -0.345,-0.343 -0.135,-0.106 -0.196,-0.24 -0.313,-0.371 -0.161,-0.183 -0.296,-0.332 -0.421,-0.544 -0.193,-0.325 -0.313,-0.687 -0.312,-1.067 0,-0.145 0.028,-0.295 0.04,-0.44 0.014,-0.143 0.13,-0.58 0.053,-0.686 -0.166,-0.23 -0.849,0.505 -0.948,0.648 -0.101,0.146 -0.117,0.232 -0.165,0.392 0,0 -0.014,0.213 -0.053,0.322 -0.004,0.008 -0.008,0.024 -0.013,0.026 l -0.216,-0.362 c -0.015,-0.029 -0.045,-0.052 -0.172,-0.022 -0.386,0.426 -0.934,0.698 -1.416,0.92 -0.575,0.261 -1.15,0.32 -1.444,0.332 0,0 -0.237,-0.03 -0.343,-0.067 -0.018,-0.003 -0.036,-0.004 -0.052,-0.007 0.011,-0.002 0.021,-0.003 0.031,-0.004 -0.013,-0.007 -0.034,-0.014 -0.034,-0.021 l 0.605,-0.101 1.124,-0.387 c 0.321,-0.203 0.641,-0.406 0.961,-0.61 0.21,-0.133 0.432,-0.256 0.462,-0.528 0.021,-0.19 -0.07,-0.483 -0.139,-0.658 -0.071,-0.175 -0.173,-0.16 -0.329,-0.084 -0.183,0.091 -0.402,0.114 -0.604,0.114 0,0 -0.495,0.05 -0.496,0.05 -0.317,0 -0.617,0.144 -0.934,0.07 -0.003,-0.132 0.109,-0.252 0.117,-0.382 0,0 0.026,-0.129 0.039,-0.192 l 0.098,-0.755 c 0.041,-0.55 0.083,-1.119 0.45,-1.509 0.035,-0.036 0.072,-0.068 0.114,-0.093 -0.138,-0.054 -0.267,-0.195 -0.39,-0.28 -0.151,-0.104 -0.303,-0.21 -0.406,-0.366 -0.168,-0.253 -0.287,-0.584 -0.287,-0.889 0,0 0.033,-0.222 0.033,-0.344 0,-0.019 -10e-4,-0.036 -0.003,-0.049 l -1.119,-1.264 c 0,0 -1.195,-1.024 -1.195,-1.042 -0.015,0.007 -0.02,0.003 -0.122,-0.117 l 0.075,-0.1 0.1,-0.316 -0.184,-0.448 c -0.35,-0.419 -0.392,-0.832 -0.425,-1.16 0,0 -0.04,-0.286 -0.04,-0.284 -0.036,-0.085 -0.071,-0.169 -0.108,-0.254 -0.04,-0.095 -0.14,-0.208 -0.166,-0.3 -0.049,-0.179 0.179,-0.294 0.12,-0.463 -10e-4,-0.006 -0.084,-0.244 -0.084,-0.246 0,0 -0.379,-0.426 -0.381,-0.428 0,0 -0.161,-0.172 -0.163,-0.207 -0.008,0.012 -0.087,0.125 -0.087,0.125 -0.243,0.341 -0.611,0.551 -1.066,0.597 -0.06,-0.007 -0.122,-0.016 -0.181,-0.015 -0.101,0.002 0.043,0.359 0.066,0.389 0.107,0.144 0.258,0.267 0.375,0.404 0.267,0.312 0.507,0.65 0.673,1.027 0.034,0.076 0.077,0.15 0.102,0.227 0.071,0.227 0.44,-0.049 0.546,0.05 0,0 0.06,0.056 0.11,0.141 -0.244,0.046 -0.567,0.16 -0.868,0.399 -0.055,0.051 -0.114,0.098 -0.166,0.144 -0.007,0.008 -0.015,0.012 -0.023,0.02 0,0 -0.009,-0.146 -0.009,-0.228 0,0 0.085,-0.274 0.085,-0.308 -0.176,-0.763 -0.899,-1.505 -1.377,-1.996 0,0 -0.146,-0.153 -0.197,-0.239 0.002,0.051 0.018,0.345 0.018,0.356 0,0.245 -0.134,0.47 -0.306,0.636 -0.149,0.144 -0.374,0.337 -0.594,0.294 -0.053,-0.01 0.034,0.434 0.091,0.484 0.119,0.105 0.344,0.162 0.488,0.234 0,0 0.247,0.138 0.251,0.14 0.128,0.053 0.256,0.109 0.385,0.16 0.146,0.058 0.376,0.089 0.474,0.224 0.106,0.148 0.078,0.386 0.136,0.552 0.028,0.077 0.051,0.166 0.038,0.248 -0.129,-0.054 -0.235,-0.227 -0.295,-0.352 -0.129,-0.262 -0.304,-0.31 -0.563,-0.425 -0.097,-0.043 -1.132,-0.601 -1.144,-0.579 -0.001,0.004 -0.199,0.267 -0.199,0.364 0,0.013 0.004,0.024 0.014,0.03 0.34,0.187 0.548,1.024 0.388,1.35 -0.076,0.153 -0.169,0.147 -0.016,0.248 0.159,0.104 0.354,0.141 0.524,0.22 0.153,0.071 0.305,0.14 0.457,0.211 l 0.217,0.112 -0.006,0.108 -0.186,0.606 c 0,0 -0.091,0.291 -0.114,0.293 0.004,10e-4 0.128,0.039 0.162,0.053 0.353,0.119 0.712,0.472 0.712,0.915 0,0 -0.026,0.201 -0.035,0.232 -0.009,0.034 -0.025,0.056 -0.019,0.091 0.015,0.081 0.289,-0.007 0.325,-0.028 0.114,-0.065 0.192,-0.187 0.277,-0.283 0.17,-0.189 0.397,-0.367 0.643,-0.191 0.264,0.188 0.63,0.647 0.63,1.021 l -0.068,0.238 c 0,0 -0.334,0.307 -0.338,0.31 -0.202,0.172 -0.409,0.364 -0.504,0.628 -0.096,0.264 -0.018,0.515 0.012,0.783 0,0 0.042,0.188 0.04,0.296 0.004,-0.227 0.475,-0.606 0.649,-0.711 0.182,-0.109 0.414,-0.161 0.624,-0.122 0.071,0.014 0.233,0.046 0.262,0.125 0.03,0.082 -0.072,0.172 -0.072,0.251 -0.197,0.546 -0.419,1.125 -0.106,1.666 -0.026,-0.044 0.53,-0.435 0.582,-0.468 0.249,-0.158 0.536,-0.267 0.835,-0.247 0.36,0.024 0.839,0.201 0.938,0.593 0.128,0.505 -0.189,0.766 -0.568,1.036 l -1.301,0.911 c -0.14,0.105 -0.298,0.028 -0.504,-0.093 -0.213,-0.125 -0.505,-0.296 -0.869,-0.228 0,0 -0.765,0.319 -0.775,0.324 -0.241,0.138 -0.449,0.256 -0.685,0.198 -0.344,-0.085 -0.611,-0.413 -0.799,-0.695 -0.216,-0.325 -0.212,-0.633 -0.26,-1.007 -10e-4,-0.004 -0.022,-0.169 -0.057,-0.209 -0.055,-0.061 -0.335,-0.015 -0.416,-0.032 -0.145,-0.031 -0.296,-0.1 -0.361,-0.242 -0.07,-0.151 -0.482,-0.424 -0.797,-0.385 -0.087,0.022 -0.402,0.042 -0.431,0.144 -0.03,0.107 0.177,0.215 0.244,0.265 0.129,0.095 0.31,0.244 0.323,0.42 0,0 0.017,0.233 0.017,0.235 10e-4,0.178 -0.124,0.357 -0.095,0.548 0.034,0.22 0.248,0.336 0.378,0.498 0.103,0.127 0.199,0.267 0.305,0.389 0.094,0.106 0.32,0.256 0.305,0.42 -0.105,-0.059 -0.291,-0.091 -0.374,-0.174 0,0 -0.092,-0.092 -0.214,-0.212 -0.09,-0.081 -0.173,-0.163 -0.25,-0.245 -0.175,-0.17 -0.318,-0.41 -0.569,-0.27 -0.136,0.077 -0.357,0.202 -0.401,0.373 -0.048,0.181 0.206,0.456 0.299,0.608 0.232,0.379 0.038,0.576 -0.078,0.937 -0.044,0.137 0.047,0.444 0.129,0.556 0.116,0.158 0.361,-0.008 0.477,-0.08 0.267,-0.165 0.723,-0.459 1.013,-0.166 -0.163,0.063 -0.33,0 -0.503,0.07 -0.168,0.07 -0.32,0.177 -0.462,0.29 -0.115,0.093 -0.441,0.319 -0.277,0.468 0.042,0.037 0.17,0.038 0.222,0.055 0.102,0.031 0.199,0.077 0.288,0.133 0.185,0.115 0.338,0.278 0.447,0.467 0.057,0.101 0.096,0.24 0.096,0.378 0,0.166 -0.123,0.255 -0.08,0.395 0.04,0.13 0.285,0.293 0.422,0.28 0.193,-0.019 0.392,-0.291 0.671,-0.757 0.162,-0.27 0.319,-0.569 0.566,-0.772 0.153,-0.126 0.49,-0.216 0.661,-0.077 0.175,0.143 0.132,0.585 0.132,0.79 0,0 0.022,0.465 0.101,0.54 0.035,0.011 0.083,-0.003 0.124,-0.042 0.269,-0.155 0.456,-0.196 0.691,-0.145 0,0 0.048,0.031 0.101,0.1 -0.227,0.034 -0.67,0.166 -0.681,0.47 -0.005,0.162 0.187,0.347 0.192,0.53 0.005,0.198 -0.176,0.296 -0.213,0.46 -0.046,0.203 0.228,0.17 0.349,0.154 0.27,-0.035 0.482,-0.14 0.622,-0.383 0.076,-0.132 0.183,-0.226 0.264,-0.355 0.026,-0.04 0.234,-0.433 0.216,-0.471 -0.028,-0.061 -0.153,-0.271 -0.119,-0.331 0.056,-0.099 0.247,0.102 0.341,0.119 0.301,0.057 0.58,-0.542 0.662,-0.755 0.026,-0.069 0.037,-0.347 0.096,-0.377 0.105,-0.054 0.186,0.15 0.231,0.22 0.067,0.101 0.133,0.203 0.2,0.304 0.154,0.17 0.473,0.738 0.776,0.55 0.18,-0.112 0.27,-0.497 0.345,-0.681 0.073,-0.178 0.118,-0.322 0.147,-0.506 0.015,-0.088 0.071,-0.36 0.216,-0.29 0.079,0.039 0.166,0.222 0.221,0.296 0.17,0.278 0.365,0.539 0.538,0.813 0.089,0.139 0.268,0.502 0.476,0.463 0.233,-0.043 0.283,-0.478 0.31,-0.659 0.051,-0.339 0.038,-0.672 0.085,-1.014 0.011,-0.09 0.16,-0.34 0.148,-0.397 0.072,0.341 0.549,0.532 0.571,0.542 0.219,0.114 0.431,0.199 0.621,-0.015 0.269,-0.303 0.507,-0.644 0.802,-0.923 0.021,-0.02 0.148,-0.113 0.15,-0.118 -0.06,0.156 -0.128,0.31 -0.194,0.47 -0.092,0.223 -0.134,0.484 -0.157,0.726 -0.019,0.193 -0.042,0.583 0.251,0.579 0.277,-0.004 0.51,-0.35 0.587,-0.577 0.043,-0.129 0.071,-0.261 0.119,-0.388 0.075,-0.197 0.213,-0.509 0.479,-0.444 0,0.042 -0.014,0.081 -0.025,0.122 -0.028,0.201 -0.112,0.448 -0.059,0.649 0.064,0.239 0.34,0.363 0.559,0.424 0.33,0.092 0.658,0.204 0.988,0.291 0.551,0.144 1.236,0.324 1.504,0.782 0.148,0.255 0.271,0.552 0.265,0.848 -0.007,0.334 -0.125,0.646 -0.281,0.929 -0.183,0.333 -0.25,0.715 -0.207,1.092 0.029,0.256 0.115,0.498 0.197,0.741 0.114,0.337 0.114,0.695 0.114,1.043 -0.043,0.319 -0.196,0.785 -0.119,1.097 0.066,0.269 0.326,0.562 0.505,0.768 0.26,0.3 0.506,0.584 0.506,0.971 0,0.252 -0.021,0.512 -0.113,0.749 -0.066,0.168 -0.295,0.325 -0.273,0.522 0.031,0.284 0.677,0.293 0.796,0.088 0,0 0.29,-0.496 0.295,-0.464 -0.017,-0.013 -0.017,-0.013 0.282,-0.514 0.146,-0.203 0.324,-0.319 0.515,-0.335 0.537,-0.045 0.76,0.479 0.971,0.855 0.072,0.129 0.141,0.375 0.324,0.358 0.098,-0.01 0.143,-0.089 0.26,-0.083 0.139,0.008 0.268,0.078 0.363,0.175 0,0 0.133,0.176 0.131,0.18 0,0 -0.18,0.072 -0.182,0.073 -0.146,0.059 -0.349,0.025 -0.484,0.13 -0.187,0.146 -0.019,0.302 0.047,0.47 0.084,0.208 0.225,0.34 0.268,0.564 -0.1,-0.034 -0.202,-0.061 -0.303,-0.09 -0.274,-0.078 -0.449,-0.067 -0.762,0.209 -0.471,0.41 -0.951,0.651 -1.582,0.652 -0.678,0.003 -1.377,-0.211 -2.018,0.109 -0.101,0.05 -0.212,0.179 -0.191,0.3 0.022,0.123 0.195,0.201 0.272,0.3 0.169,0.226 0.244,0.494 0.291,0.767 0.046,0.281 0.216,0.07 0.341,-0.005 0.36,-0.218 0.77,-0.355 1.176,-0.448 0.352,-0.081 0.791,-0.309 1.147,-0.306 -0.121,0.229 -0.536,0.43 -0.76,0.532 -0.344,0.156 -0.705,0.239 -1.061,0.359 -0.213,0.072 -0.388,0.28 -0.191,0.457 0.154,0.14 0.322,0.263 0.474,0.405 0.1,0.094 0.276,0.385 0.444,0.287 0.076,-0.043 0.209,-0.325 0.246,-0.411 0,0 0.135,-0.259 0.137,-0.262 0.254,-0.392 0.576,-0.495 1.041,-0.538 0,0 0.306,0.005 0.304,0.013 0.008,0.003 0.032,10e-4 0.034,0.005 0,0 -0.219,0.095 -0.225,0.096 -0.295,0.029 -0.615,0.178 -0.811,0.408 -0.154,0.182 -0.334,0.489 -0.402,0.715 -0.24,0.777 0.066,1.449 0.586,2.026 0.023,0.025 0.057,0.038 0.17,-0.023 0.131,-0.244 0.314,-0.443 0.527,-0.616 0.139,-0.111 0.446,-0.15 0.412,-0.378 -0.017,-0.131 -0.199,-0.305 -0.283,-0.401 -0.17,-0.198 -0.402,-0.408 -0.654,-0.493 -0.106,-0.036 -0.231,-0.096 -0.238,-0.1 0.037,0.016 0.185,-0.029 0.236,-0.028 0.088,0.003 0.176,0.021 0.26,0.047 0.207,0.065 0.392,0.189 0.549,0.338 0.093,0.091 0.177,0.193 0.25,0.302 0.048,0.072 0.123,0.297 0.212,0.31 0.196,0.025 0.164,-0.375 0.176,-0.487 0.026,-0.235 0.09,-0.461 0.176,-0.681 0.115,-0.291 0.25,-0.582 0.441,-0.831 0.071,-0.092 0.164,-0.238 0.274,-0.285 0.303,-0.128 0.56,0.59 0.687,0.772 0.055,0.074 0.155,0.278 0.266,0.268 0.107,-0.009 0.207,-0.29 0.285,-0.367 0.254,-0.254 0.557,-0.29 0.891,-0.345 0.285,-0.047 0.072,-0.327 0.015,-0.487 -0.089,-0.25 -0.297,-0.61 -0.115,-0.859 0.088,-0.122 0.324,-0.205 0.451,-0.287 0.282,-0.18 0.469,-0.22 0.592,-0.533 0.104,-0.26 0.363,-0.484 0.65,-0.5 0.264,-0.014 0.446,0.157 0.639,0.31 0,0 0.168,0.134 0.182,0.138 0.213,0.061 0.379,-0.327 0.457,-0.564 0.047,-0.207 0.334,-0.931 0.14,-1.039 -0.119,-0.066 -0.218,0.015 -0.32,0.063 -0.258,0.119 -0.525,0.181 -0.744,-0.045 -0.25,-0.259 -0.502,-0.144 -0.965,0.099 0,0 -0.316,0.165 -0.349,0.154 -0.536,-0.986 0.841,-1.232 1.482,-1.507 0.23,-0.099 0.484,-0.188 0.674,-0.36 0.254,-0.23 0.213,-0.499 0.156,-0.811 -0.035,-0.194 -0.129,-0.442 -0.219,-0.618 -0.027,-0.055 -0.078,-0.184 -0.148,-0.192 -0.168,-0.019 -0.164,0.232 -0.203,0.326 -0.057,0.142 -0.186,0.259 -0.307,0.346 -0.267,0.187 -0.596,0.262 -0.892,0.388 -0.29,0.124 -0.586,0.234 -0.854,0.401 -0.117,0.075 -0.275,0.155 -0.363,0.278 -0.086,0.119 -0.078,0.351 -0.205,0.435 -0.118,0.077 -0.266,-0.117 -0.334,-0.196 -0.188,-0.217 -0.266,-0.474 -0.327,-0.749 -0.054,-0.241 -0.095,-0.432 -0.289,-0.547 -0.084,-0.05 -0.459,-0.174 -0.771,0.124 0,0 -0.141,0.132 -0.258,0.187 -0.004,-0.219 -0.014,-0.409 0.055,-0.624 0.068,-0.21 0.205,-0.393 0.287,-0.583 0.094,-0.213 0.283,-0.423 0.262,-0.658 -0.026,-0.261 -0.19,-0.474 -0.248,-0.721 -0.047,-0.197 0.031,-0.407 0.06,-0.6 0.029,-0.208 0.012,-0.426 0.018,-0.638 0,-0.017 0.027,-0.315 0.045,-0.293 0.101,0.121 0.17,0.277 0.269,0.404 0.014,0.016 1.27,1.711 2.842,0.704 0.83,-0.532 1.174,-1.227 1.021,-2.065 C -0.971,9.782 -1.613,8.502 -2.293,7.148 -3.354,5.032 -4.674,2.399 -4.91,1.133 c -0.35,-1.846 -0.678,-6.016 0.527,-7.118 0.772,-0.707 1.324,-0.544 1.584,-0.384 0.658,0.402 0.861,1.533 0.639,2.336 -0.098,0.354 -0.274,0.729 -0.625,0.892 -0.252,0.116 -0.543,0.105 -0.799,0.014 -0.115,-0.041 -0.358,-0.264 -0.481,-0.159 -0.101,0.087 -0.06,0.497 -0.07,0.627 0,0.489 0.104,0.798 0.307,0.92 0.476,0.285 1.015,0.011 1.17,-0.08 0,0 0.175,-0.103 0.308,-0.134 l -0.148,0.584 c -0.143,0.541 -0.405,1.546 -0.405,2.168 0,1.748 1.204,3.238 1.444,3.519 0,0 0.123,0.175 0.262,0.37 0.064,0.085 0.123,0.169 0.173,0.247 0.084,0.119 0.225,0.477 0.393,0.235 C -0.567,5.076 -0.572,4.885 -0.555,4.775 -0.537,4.656 -0.604,4.435 -0.635,4.32 -0.692,4.111 -0.744,3.892 -0.805,3.682 -0.869,3.461 -0.942,3.243 -1.002,3.02 -1.108,2.636 -1.209,2.235 -1.209,1.835 c 0,-0.272 0.058,-0.462 0.176,-0.579 0.312,-0.311 0.664,-0.192 1.005,-0.077 l 0.54,0.118 C 1.002,1.282 1.34,1.02 1.656,0.674 1.781,0.537 1.965,0.276 1.898,0.16" />
        </g>
      </g>
      <g
         transform="matrix(1.1414319,0,0,-1.1138612,95.678833,764.90302)"
         id="g65905">
        <g
           transform="translate(12.7089,7.2874)"
           id="g65907">
          <path
             id="path65909"
             style="fill:#ffffff;fill-opacity:1;fill-rule:nonzero;stroke:none"
             d="M 0,0 C -0.039,0.053 -0.057,0.102 -0.039,0.135 0.041,0.279 0.315,0.277 0.455,0.295 0.523,0.303 1.078,0.459 1.078,0.457 1.1,0.266 1.117,0.056 1.162,-0.131 1.188,-0.231 1.311,-0.414 1.258,-0.519 1.137,-0.757 0.525,-0.435 0.395,-0.354 0.334,-0.318 0.1,-0.14 0,0" />
        </g>
      </g>
      <g
         transform="matrix(1.1414319,0,0,-1.1138612,95.678833,764.90302)"
         id="g65911">
        <g
           transform="translate(6.9379,6.8904)"
           id="g65913">
          <path
             id="path65915"
             style="fill:#ffffff;fill-opacity:1;fill-rule:nonzero;stroke:none"
             d="m 0,0 c -0.206,-0.142 -0.434,-0.195 -0.637,-0.018 -0.272,0.235 -0.291,0.657 -0.32,0.99 -0.008,0.088 0,0.177 0.011,0.263 0.02,0.137 0.254,0.915 0.514,0.746 0.029,-0.02 0.021,-0.161 0.031,-0.195 0.026,-0.094 0.078,-0.19 0.125,-0.274 C -0.184,1.35 -0.055,1.179 0.136,1.132 0.435,1.025 0.759,1.002 0.554,0.64 0.449,0.451 0.238,0.165 0,0" />
        </g>
      </g>
      <g
         transform="matrix(1.1414319,0,0,-1.1138612,95.678833,764.90302)"
         id="g65917">
        <g
           transform="translate(6.5609,-5.4916)"
           id="g65919">
          <path
             id="path65921"
             style="fill:#ffffff;fill-opacity:1;fill-rule:nonzero;stroke:none"
             d="M 0,0 C 0,-0.239 -0.08,-0.507 -0.237,-0.772 -0.385,-1.027 -0.844,-1.195 -1.1,-1.296 -1.237,-1.35 -1.434,-1.442 -1.586,-1.417 c -0.188,0.03 -0.198,0.277 -0.16,0.42 0.048,0.182 0.195,0.272 0.337,0.378 0.247,0.181 0.549,0.323 0.76,0.548 0.102,0.107 0.576,0.452 0.502,0.643 0.014,-0.036 0.09,-0.249 0.09,-0.249 z" />
        </g>
      </g>
      <g
         transform="matrix(1.1414319,0,0,-1.1138612,95.678833,764.90302)"
         id="g65923">
        <g
           transform="translate(2.1359,1.2724)"
           id="g65925">
          <path
             id="path65927"
             style="fill:#ffffff;fill-opacity:1;fill-rule:nonzero;stroke:none"
             d="M 0,0 C -0.017,0.15 -0.12,0.593 -0.26,0.268 -0.331,0.106 -0.292,-0.089 -0.307,-0.26 -0.333,-0.526 -0.342,-0.709 -0.55,-0.896 c -0.145,-0.131 -0.333,-0.227 -0.455,-0.375 -0.101,-0.123 -0.134,-0.338 -0.146,-0.492 -0.007,-0.089 0.03,-0.26 0.149,-0.237 0.075,0.18 0.09,0.398 0.2,0.562 0.12,0.181 0.351,0.264 0.519,0.391 0.219,0.166 0.296,0.468 0.299,0.73 C 0.017,-0.226 0.014,-0.113 0,0 m -2.455,-2.57 c -0.008,0.097 -0.035,0.177 -0.095,0.215 -0.239,0.153 -0.278,-0.547 -0.308,-0.665 -0.049,-0.189 -0.13,-0.39 -0.241,-0.593 -0.085,-0.155 -0.156,-0.304 -0.282,-0.475 0,0 -0.022,-0.06 -0.022,-0.123 0,-0.019 0.002,-0.037 0.007,-0.053 0,0 0.14,-0.249 0.14,-0.25 0.081,-0.213 0.147,-0.421 0.186,-0.64 0.022,-0.133 0.209,-0.621 0.321,-0.271 0.092,0.288 -0.064,0.604 -0.161,0.866 -0.038,0.103 -0.066,0.183 -0.066,0.182 0,0 -0.1,0.18 -0.056,0.221 0.21,0.312 0.394,0.649 0.495,1.012 0.031,0.11 0.097,0.376 0.082,0.574 m -0.237,2.774 -0.335,0.487 c -0.062,0.042 -0.532,0.482 -0.499,0.153 0.015,-0.147 0.208,-0.306 0.295,-0.416 0.099,-0.127 0.427,-0.602 0.626,-0.495 0.032,0.017 -0.086,0.23 -0.087,0.271 M -5.71,-3.253 c -0.103,0.22 -0.497,0.38 -0.669,0.431 -0.3,0.089 -0.63,0.073 -0.872,-0.148 -0.275,-0.252 0.281,-0.053 0.367,-0.04 0.254,0.038 0.489,-0.033 0.712,-0.149 0.132,-0.069 0.328,-0.28 0.484,-0.248 0.011,0.053 0.002,0.105 -0.022,0.154 m 8.209,4.18 C 2.78,0.753 3.436,0.276 3.436,-0.399 c 0,0 -0.009,-0.136 -0.007,-0.135 -0.088,-0.686 -0.416,-1.27 -0.731,-1.302 0,0 -0.488,-0.022 -0.627,-0.053 -0.008,0 -0.019,-10e-4 -0.027,-10e-4 0.027,0.037 0.148,0.202 0.148,0.202 0.235,0.335 0.36,0.631 0.36,0.856 L 2.497,-0.609 C 2.399,-0.432 2.128,-0.013 1.733,0.051 1.595,0.076 1.386,0.064 1.167,-0.132 c 0,0 -0.037,-0.054 -0.09,-0.129 C 0.938,-0.407 0.851,-0.543 0.785,-0.672 0.734,-0.747 0.696,-0.801 0.694,-0.805 L 0.457,-1.192 c 0,0 -0.356,-0.21 -0.359,-0.211 0,0 -0.027,-0.021 -0.064,-0.049 -0.113,-0.04 -0.229,-0.103 -0.321,-0.247 -0.033,-0.025 -0.06,-0.046 -0.06,-0.046 l -0.101,-0.177 c -0.257,-0.436 -0.451,-0.865 -0.004,-1.312 0.302,-0.302 1.133,-1.005 2.334,-1.005 1.043,0 1.617,0 1.918,0.2 0,0 0.254,0.186 0.339,0.279 l 0.034,0.023 C 4.141,-3.84 3.954,-4.439 3.954,-4.441 l -0.051,-0.456 0.08,-0.636 c 0,0 0.031,-0.124 0.057,-0.132 -0.016,0.001 -0.162,0.002 -0.162,0.002 l -1.35,0.264 -0.207,0.056 c 0,0 -0.164,0.054 -0.266,0.087 l -0.162,0.02 -0.148,-0.001 c 0,0 0.094,-0.205 0.096,-0.208 0,0 0.107,-0.101 0.111,-0.103 l 0.266,-0.094 c 0.287,-0.017 1.535,-0.325 1.611,-0.435 0,0 0.09,-0.128 0.133,-0.15 L 3.968,-6.235 C 3.915,-6.237 3.073,-6.265 3.065,-6.265 l -1.24,-0.006 -0.113,0.008 c 0,0 -0.383,0.145 -0.389,0.148 l -0.332,0.059 -0.179,0.005 c 0,0 0.298,-0.306 0.3,-0.307 0.432,-0.303 0.969,-0.259 1.492,-0.217 0,0 0.602,0.028 0.602,0.046 0,-0.002 0.055,-0.214 0.07,-0.215 C 3.268,-6.75 2.427,-7.311 2.317,-7.325 2.065,-7.211 1.626,-7.154 1.01,-7.154 c 0,0 -1.232,0.282 -1.272,0.293 l -1.157,0.273 c 0,0 -0.714,-0.076 -0.732,-0.079 -0.63,-0.104 -1.494,-0.246 -1.81,0.229 0,0 -0.213,0.322 -0.222,0.337 -0.474,0.717 -0.963,1.459 -1.501,1.958 -0.629,0.582 -0.957,0.628 -1.624,0.472 -0.331,-0.078 -0.647,-0.318 -0.867,-0.66 0,0 -0.094,-0.147 -0.098,-0.196 -0.012,0.029 -0.088,0.214 -0.088,0.214 -0.187,0.448 -0.283,0.792 -0.283,1.104 v 0.021 c 0.068,0.562 0.542,1.235 1.137,1.344 0.481,0.088 1.175,0.087 1.549,-0.203 l 0.648,-0.45 c 0,0 0.088,-0.053 0.045,-0.121 l -0.08,-0.512 0.014,-0.185 c 0,0 0.037,-0.083 0.087,-0.187 0.056,-0.154 0.131,-0.307 0.227,-0.445 -0.003,0.01 -0.004,0.022 -0.006,0.032 0.014,-0.018 0.024,-0.029 0.03,-0.026 l -0.086,0.648 c 0,0.35 0.087,0.643 0.258,0.871 0.112,0.149 0.685,0.898 1.006,1.027 0,0 0.749,0.207 0.75,0.207 0,0 0.176,0.025 0.243,0.058 0.006,10e-4 0.01,0.002 0.015,0.002 l -0.004,0.004 c 0.007,0.005 0.019,0.009 0.021,0.014 0,0 -0.188,0.187 -0.192,0.192 l -0.98,1.151 C -4.225,0.614 -4.904,1.493 -5.501,1.434 -5.963,1.386 -6.166,0.749 -6.294,0.337 l -0.077,-0.22 c -0.105,-0.281 -0.557,-0.489 -0.782,-0.526 0,0 -0.241,-0.055 -0.243,-0.055 0,0 -0.211,-0.051 -0.215,-0.073 -0.001,0.008 -0.024,0.129 -0.024,0.129 0,0 -0.04,0.074 -0.086,0.15 -0.002,0.005 -0.005,0.009 -0.008,0.014 -0.015,0.025 -0.029,0.044 -0.044,0.067 -0.024,0.036 -0.044,0.072 -0.071,0.108 0.001,-0.009 0.001,-0.016 0.002,-0.025 -0.009,0.008 -0.022,0.024 -0.027,0.022 0,0 0.004,-0.034 0.012,-0.13 L -7.892,-0.49 c 0,0 -0.025,-0.094 -0.097,-0.078 l -0.275,0.03 -0.646,0.351 c 0,0 -0.151,0.099 -0.2,0.103 0.029,0.011 0.219,0.085 0.219,0.085 0.313,0.122 0.485,0.281 0.509,0.473 l 0.015,0.112 c 0,0 0.035,0.279 0.068,0.324 0.302,0.398 0.714,0.639 1.262,0.737 0,0 0.694,0.103 0.709,0.112 0,0 0.056,0.093 0.118,0.2 0.034,0.047 0.051,0.086 0.077,0.135 0.058,0.103 0.111,0.2 0.118,0.23 0,0 0.09,0.062 0.123,0.084 0.019,0.013 0.032,0.026 0.05,0.039 l 0.008,0.004 -0.007,-0.002 c 0.313,0.228 0.472,0.446 0.515,0.725 0,0 -0.045,0.176 -0.05,0.181 0,0 -0.086,0.09 -0.136,0.113 -0.001,0.002 -0.002,0.003 -0.003,0.004 0,0 0,-10e-4 -0.001,-10e-4 -0.006,0.003 -0.016,0.014 -0.021,0.014 L -5.635,3.231 c -0.033,-0.259 -0.249,-0.423 -0.5,-0.612 0,0 -0.038,-0.066 -0.081,-0.143 C -6.271,2.399 -6.314,2.331 -6.338,2.256 -6.374,2.192 -6.402,2.14 -6.402,2.14 -6.402,2.14 -6.448,1.975 -6.516,2 -7.274,1.965 -7.868,1.757 -8.28,1.383 c 0,0 -0.076,-0.069 -0.078,-0.093 -0.012,0.015 -0.086,0.122 -0.086,0.122 0,0 -0.145,0.201 -0.166,0.202 0.005,0.005 0.089,0.083 0.089,0.083 0.239,0.176 0.427,0.329 0.49,0.578 l 0.021,0.29 c 0.002,0.023 0.003,0.045 0.004,0.068 l 0.021,0.278 c 0,0 -0.018,0.145 -0.044,0.171 L -8.03,3.088 c 0.023,-0.008 0.187,-0.069 0.187,-0.069 0,0 0.093,-0.008 0.214,-0.019 0.065,-0.011 0.131,-0.018 0.203,-0.02 0.161,-0.016 0.314,-0.034 0.35,-0.045 0.054,-0.05 0.218,-0.2 0.547,-0.15 0,0 0.163,0.136 0.164,0.169 -0.06,0.07 -0.146,0.152 -0.228,0.147 -0.111,-0.007 -0.225,0.002 -0.329,0.107 0,0 -0.045,0.037 -0.129,0.09 0,0 -0.055,-0.018 -0.155,-0.028 -0.313,-0.038 -0.712,0.045 -0.881,0.505 0,0 0.103,0.309 0.103,0.379 0,0.002 0,0.004 -0.001,0.006 0,0 -0.017,0.131 -0.041,0.145 v 0.003 c 0.016,-0.003 0.184,-0.041 0.234,-0.047 0.426,-0.079 0.88,0.035 1.186,0.298 0.222,0.188 0.346,0.438 0.358,0.721 v 0.042 c 0,0.043 -0.004,0.1 -0.018,0.107 v 0.002 c 0.013,-0.005 0.199,-0.068 0.199,-0.068 0,0 0.823,-0.505 0.827,-0.508 l 0.684,-0.444 c 0,0 1.022,-0.446 1.025,-0.446 0,0 0.151,-0.049 0.215,-0.046 0.002,-10e-4 0.003,-10e-4 0.005,-0.002 v 0.002 c 0.008,10e-4 0.02,-10e-4 0.024,0.003 0,0 -0.04,0.217 -0.04,0.216 l -0.03,0.34 0.06,0.363 c 0,0 0.039,0.077 0.039,0.105 0,0.004 -10e-4,0.004 -0.002,0.006 0.011,-0.007 0.113,-0.069 0.113,-0.069 0.39,-0.237 0.894,-0.242 1.383,-0.014 0,0 0.16,0.078 0.2,0.122 l 0.013,0.006 C -1.562,4.959 -1.618,4.747 -1.618,4.747 L -1.647,4.51 c 0,0 0.018,-0.282 0.019,-0.318 0,0 -0.145,-0.38 -0.149,-0.388 L -1.838,3.632 C -1.85,3.605 -1.858,3.577 -1.868,3.548 l -0.067,-0.19 0.047,-0.109 c 0.011,-0.05 0.034,-0.101 0.065,-0.153 l 0.058,-0.134 0.289,-0.216 c 0.057,-0.044 0.11,-0.087 0.171,-0.127 l 0.29,-0.217 0.578,-0.452 c 0,0 0.29,-0.476 0.291,-0.478 0,0 0.099,-0.098 0.136,-0.097 L 0.081,1.481 0.693,1.97 0.781,2.018 0.772,2.126 0.74,2.398 C 0.74,2.623 0.811,2.926 1.149,3.09 1.436,3.228 1.778,3.233 2.171,3.104 2.169,3.104 2.28,3.069 2.292,3.085 2.286,3.073 2.186,2.859 2.184,2.857 L 1.95,2.275 c 0,0 -0.453,-0.859 -0.455,-0.862 0,0 -0.149,-0.254 -0.182,-0.355 C 1.309,1.052 1.305,1.045 1.302,1.039 H 1.307 C 1.305,1.035 1.302,1.025 1.302,1.021 c 0,-0.003 0,-0.005 0.002,-0.007 0,0 0.464,0.018 0.468,0.018 0.188,0.021 0.471,0.051 0.727,-0.105" />
        </g>
      </g>
      <g
         transform="matrix(1.1414319,0,0,-1.1138612,95.678833,764.90302)"
         id="g65929">
        <g
           transform="translate(6.1389,6.3884)"
           id="g65931">
          <path
             id="path65933"
             style="fill:#ffffff;fill-opacity:1;fill-rule:nonzero;stroke:none"
             d="m 0,0 c -0.002,-0.306 -0.178,-0.702 -0.326,-0.963 -0.166,-0.293 -0.407,-0.26 -0.571,0.034 -0.176,0.318 -0.416,0.931 -0.283,1.299 0.09,0.25 0.301,0.007 0.449,-0.082 0.155,-0.092 0.344,-0.191 0.53,-0.185 0,0 0.199,0.007 0.203,0.029 C 0.002,0.124 0,0 0,0" />
        </g>
      </g>
      <g
         transform="matrix(1.1414319,0,0,-1.1138612,95.678833,764.90302)"
         id="g65935">
        <g
           transform="translate(-14.2601,14.2714)"
           id="g65937">
          <path
             id="path65939"
             style="fill:#ffffff;fill-opacity:1;fill-rule:nonzero;stroke:none"
             d="m 0,0 c -0.229,-0.454 -0.156,-0.902 -0.022,-1.247 0.095,-0.244 0.344,-0.637 0.793,-0.835 0.303,-0.133 0.7,-0.176 1.26,0.042 0.145,0.056 0.345,0.146 0.51,0.248 0.128,0.079 0.236,0.146 0.35,0.198 0.038,0.02 0.04,0.036 0.031,0.059 -0.011,0.029 -0.039,0.068 -0.097,0.196 -0.054,0.117 -0.131,0.318 -0.156,0.37 -0.025,0.054 -0.041,0.073 -0.062,0.064 -0.026,-0.01 -0.02,-0.036 0,-0.087 C 2.662,-1.135 2.662,-1.306 2.598,-1.423 2.513,-1.581 2.272,-1.788 1.951,-1.912 1.468,-2.1 1.188,-2.046 1.013,-1.972 0.648,-1.82 0.461,-1.52 0.317,-1.149 0.047,-0.455 0.335,0.389 1.113,0.69 1.386,0.797 1.613,0.847 1.816,0.755 1.924,0.704 2.033,0.563 2.069,0.501 2.092,0.464 2.105,0.452 2.127,0.461 2.145,0.468 2.142,0.496 2.131,0.525 2.121,0.551 1.954,0.851 1.87,0.96 1.822,1.021 1.811,1.024 1.735,1.028 1.567,1.03 1.281,0.948 1.048,0.858 0.503,0.646 0.188,0.369 0,0" />
        </g>
      </g>
      <g
         transform="matrix(1.1414319,0,0,-1.1138612,95.678833,764.90302)"
         id="g65941">
        <g
           transform="translate(-10.3131,15.0644)"
           id="g65943">
          <path
             id="path65945"
             style="fill:#ffffff;fill-opacity:1;fill-rule:nonzero;stroke:none"
             d="m 0,0 c 0.119,-0.408 0.068,-0.85 -0.37,-0.977 -0.329,-0.096 -0.621,0.071 -0.756,0.535 -0.153,0.524 -0.046,0.937 0.317,1.043 C -0.498,0.691 -0.174,0.596 0,0 m -0.292,-1.076 c 0.487,0.141 0.75,0.552 0.583,1.124 -0.158,0.539 -0.676,0.799 -1.133,0.665 -0.655,-0.191 -0.694,-0.795 -0.595,-1.136 0.155,-0.531 0.628,-0.804 1.145,-0.653" />
        </g>
      </g>
      <g
         transform="matrix(1.1414319,0,0,-1.1138612,95.678833,764.90302)"
         id="g65947">
        <g
           transform="translate(-9.4521,14.8294)"
           id="g65949">
          <path
             id="path65951"
             style="fill:#ffffff;fill-opacity:1;fill-rule:nonzero;stroke:none"
             d="M 0,0 C 0.026,-0.111 0.043,-0.187 0.027,-0.218 0.013,-0.245 -0.007,-0.262 -0.06,-0.279 l -0.157,-0.044 -0.009,-0.014 0.014,-0.065 0.015,-0.009 c 0.109,0.014 0.373,-0.001 0.535,-0.028 l 0.017,0.028 -0.072,0.312 c 0.098,-0.042 0.313,-0.156 0.38,-0.205 0.079,-0.014 0.157,-0.024 0.309,0.012 0.475,0.109 0.504,0.488 0.44,0.765 L 1.215,1.329 C 1.176,1.496 1.196,1.529 1.36,1.583 L 1.442,1.609 1.451,1.624 1.436,1.688 1.422,1.697 C 1.343,1.674 1.249,1.645 1.159,1.624 1.067,1.603 0.955,1.585 0.901,1.577 L 0.884,1.548 C 0.961,1.298 1.025,1.021 1.108,0.664 1.194,0.291 1.24,-0.014 0.784,-0.12 0.538,-0.176 0.307,-0.01 0.284,0.021 0.261,0.051 0.225,0.156 0.163,0.422 L 0.109,0.657 C 0.025,1.018 0.006,1.137 0.013,1.195 0.017,1.245 0.052,1.268 0.19,1.312 L 0.279,1.34 0.288,1.355 0.273,1.42 0.259,1.428 C 0.127,1.394 -0.012,1.353 -0.156,1.32 -0.301,1.287 -0.447,1.261 -0.577,1.235 l -0.009,-0.014 0.015,-0.064 0.014,-0.009 0.089,0.013 c 0.097,0.013 0.146,0.009 0.175,-0.012 0.034,-0.024 0.049,-0.093 0.082,-0.233 z" />
        </g>
      </g>
      <g
         transform="matrix(1.1414319,0,0,-1.1138612,95.678833,764.90302)"
         id="g65953">
        <g
           transform="translate(-7.5971,16.2924)"
           id="g65955">
          <path
             id="path65957"
             style="fill:#ffffff;fill-opacity:1;fill-rule:nonzero;stroke:none"
             d="m 0,0 c 0.045,0.1 0.175,0.259 0.412,0.303 0.173,0.032 0.451,-0.011 0.505,-0.306 0.044,-0.235 -0.095,-0.296 -0.334,-0.38 -0.272,-0.094 -0.62,-0.25 -0.556,-0.595 0.07,-0.372 0.472,-0.487 0.771,-0.433 0.165,0.032 0.373,0.106 0.494,0.2 l 0.01,0.013 c -0.045,0.091 -0.054,0.137 -0.11,0.376 L 1.179,-0.812 1.11,-0.825 1.1,-0.838 1.113,-1.035 C 1.115,-1.066 1.014,-1.251 0.746,-1.301 0.558,-1.335 0.338,-1.261 0.295,-1.032 0.262,-0.851 0.359,-0.754 0.58,-0.666 l 0.248,0.098 c 0.233,0.091 0.42,0.173 0.36,0.495 C 1.132,0.23 0.832,0.5 0.268,0.395 0.084,0.361 -0.05,0.296 -0.169,0.227 L -0.178,0.213 c 0.024,-0.087 0.069,-0.245 0.107,-0.424 l 0.013,-0.009 0.077,0.013 0.009,0.014 z" />
        </g>
      </g>
      <g
         transform="matrix(1.1414319,0,0,-1.1138612,95.678833,764.90302)"
         id="g65959">
        <g
           transform="translate(-5.7501,15.1954)"
           id="g65961">
          <path
             id="path65963"
             style="fill:#ffffff;fill-opacity:1;fill-rule:nonzero;stroke:none"
             d="M 0,0 C 0.059,-0.382 0.066,-0.424 0.073,-0.573 0.19,-0.586 0.219,-0.594 0.346,-0.629 L 0.385,-0.6 C 0.333,-0.387 0.288,-0.177 0.251,0.039 l 0.131,0.02 c 0.15,0.024 0.35,0.035 0.396,0.038 L 0.802,0.121 C 0.772,0.19 0.759,0.221 0.746,0.277 L 0.733,0.287 C 0.695,0.277 0.649,0.266 0.603,0.26 L 0.226,0.201 0.048,1.342 c -0.023,0.15 0.029,0.245 0.206,0.272 0.101,0.016 0.178,0 0.243,-0.033 L 0.524,1.633 C 0.483,1.669 0.437,1.714 0.39,1.758 0.32,1.778 0.245,1.802 0.107,1.78 -0.16,1.739 -0.256,1.57 -0.224,1.366 -0.155,0.923 -0.084,0.543 -0.025,0.162 L -0.129,0.145 C -0.191,0.136 -0.253,0.134 -0.316,0.133 l -0.01,-0.014 0.008,-0.05 0.013,-0.01 z" />
        </g>
      </g>
      <g
         transform="matrix(1.1414319,0,0,-1.1138612,95.678833,764.90302)"
         id="g65965">
        <g
           transform="translate(-3.7871,16.1634)"
           id="g65967">
          <path
             id="path65969"
             style="fill:#ffffff;fill-opacity:1;fill-rule:nonzero;stroke:none"
             d="m 0,0 c -0.136,0.026 -0.361,0.029 -0.531,0.071 -0.174,0.041 -0.337,0.115 -0.364,0.332 -0.021,0.166 0.031,0.353 0.29,0.386 C -0.354,0.82 -0.154,0.64 -0.069,0.56 Z M 0.164,0.735 C 0.143,0.905 0.166,0.936 0.335,0.972 L 0.419,0.991 0.429,1.004 0.421,1.07 0.408,1.08 C 0.327,1.066 0.231,1.046 0.139,1.035 0.046,1.023 -0.067,1.016 -0.114,1.014 L -0.135,0.989 c 0.02,-0.096 0.036,-0.196 0.049,-0.293 -0.083,0.064 -0.178,0.131 -0.359,0.23 -0.093,0.051 -0.169,0.062 -0.278,0.048 -0.363,-0.045 -0.494,-0.258 -0.456,-0.559 0.034,-0.276 0.216,-0.382 0.467,-0.434 0.233,-0.049 0.516,-0.042 0.724,-0.074 l 0.009,-0.078 c 0.042,-0.332 -0.077,-0.481 -0.379,-0.519 -0.123,-0.015 -0.221,0.008 -0.267,0.033 -0.043,0.023 -0.06,0.04 -0.086,0.088 l -0.096,0.173 -0.013,0.01 -0.075,-0.032 -0.01,-0.014 0.023,-0.248 0.014,-0.015 c 0.134,-0.065 0.346,-0.192 0.663,-0.153 0.151,0.019 0.388,0.107 0.463,0.325 0.046,0.136 0.027,0.286 -0.004,0.534 z" />
        </g>
      </g>
      <g
         transform="matrix(1.1414319,0,0,-1.1138612,95.678833,764.90302)"
         id="g65971">
        <g
           transform="translate(-2.8151,15.9584)"
           id="g65973">
          <path
             id="path65975"
             style="fill:#ffffff;fill-opacity:1;fill-rule:nonzero;stroke:none"
             d="m 0,0 c 0.01,-0.114 0.017,-0.191 -0.004,-0.22 -0.018,-0.026 -0.04,-0.039 -0.094,-0.047 l -0.163,-0.023 -0.01,-0.012 0.005,-0.067 0.013,-0.009 c 0.11,-0.003 0.369,-0.055 0.526,-0.104 l 0.021,0.025 -0.028,0.319 c 0.091,-0.055 0.288,-0.198 0.347,-0.255 0.077,-0.025 0.153,-0.046 0.309,-0.032 0.485,0.042 0.566,0.413 0.542,0.697 L 1.388,1.146 c -0.015,0.171 0.01,0.2 0.18,0.23 L 1.652,1.392 1.663,1.405 1.657,1.47 1.644,1.481 C 1.563,1.47 1.466,1.455 1.373,1.446 1.28,1.438 1.167,1.436 1.112,1.435 L 1.091,1.41 C 1.133,1.151 1.157,0.868 1.189,0.502 1.222,0.122 1.226,-0.188 0.759,-0.228 0.507,-0.25 0.302,-0.052 0.283,-0.019 0.265,0.014 0.244,0.123 0.22,0.394 L 0.199,0.635 C 0.167,1.004 0.164,1.126 0.179,1.181 0.191,1.23 0.228,1.249 0.371,1.273 L 0.463,1.289 0.474,1.301 0.468,1.368 0.455,1.377 C 0.32,1.362 0.177,1.342 0.029,1.329 -0.119,1.316 -0.267,1.311 -0.399,1.303 L -0.41,1.291 -0.404,1.225 -0.391,1.214 h 0.089 c 0.099,0 0.146,-0.01 0.172,-0.036 C -0.1,1.15 -0.094,1.08 -0.081,0.936 Z" />
        </g>
      </g>
      <g
         transform="matrix(1.1414319,0,0,-1.1138612,95.678833,764.90302)"
         id="g65977">
        <g
           transform="translate(-0.6181,15.7564)"
           id="g65979">
          <path
             id="path65981"
             style="fill:#ffffff;fill-opacity:1;fill-rule:nonzero;stroke:none"
             d="M 0,0 C 0.022,-0.384 0.025,-0.427 0.017,-0.577 0.132,-0.601 0.16,-0.611 0.284,-0.659 l 0.042,0.027 C 0.293,-0.416 0.269,-0.203 0.253,0.015 l 0.132,0.008 c 0.152,0.009 0.352,0.001 0.399,0 L 0.81,0.043 C 0.786,0.117 0.777,0.147 0.769,0.205 L 0.757,0.216 C 0.718,0.21 0.672,0.203 0.625,0.201 L 0.244,0.179 0.177,1.331 C 0.168,1.483 0.229,1.573 0.409,1.583 0.51,1.589 0.585,1.566 0.646,1.527 L 0.679,1.576 C 0.641,1.616 0.599,1.664 0.557,1.712 0.489,1.74 0.417,1.771 0.277,1.763 0.008,1.747 -0.104,1.588 -0.092,1.382 -0.066,0.934 -0.032,0.549 -0.009,0.164 L -0.115,0.159 c -0.062,-0.004 -0.125,0 -0.187,0.003 L -0.314,0.151 -0.311,0.1 -0.298,0.089 Z" />
        </g>
      </g>
      <g
         transform="matrix(1.1414319,0,0,-1.1138612,95.678833,764.90302)"
         id="g65983">
        <g
           transform="translate(0.6129,16.4584)"
           id="g65985">
          <path
             id="path65987"
             style="fill:#ffffff;fill-opacity:1;fill-rule:nonzero;stroke:none"
             d="M 0,0 C 0.203,0.01 0.382,0.02 0.569,0.026 0.632,0.028 0.917,0.022 0.968,0.019 0.973,-0.027 0.978,-0.074 0.98,-0.121 0.992,-0.483 0.723,-0.613 0.552,-0.619 0.119,-0.632 0.032,-0.253 0,0 M 1.112,0.964 C 0.997,1.031 0.775,1.133 0.483,1.124 0.202,1.114 -0.31,0.906 -0.286,0.181 -0.281,0.017 -0.232,-0.286 -0.111,-0.41 -0.03,-0.501 0.287,-0.756 0.634,-0.745 0.883,-0.737 1.288,-0.602 1.269,-0.009 1.267,0.041 1.262,0.076 1.257,0.115 1.151,0.13 0.738,0.137 0.515,0.129 L -0.003,0.113 c -0.016,0.468 0.199,0.825 0.628,0.84 0.222,0.006 0.44,-0.103 0.54,-0.162 l 0.03,0.032 z" />
        </g>
      </g>
      <g
         transform="matrix(1.1414319,0,0,-1.1138612,95.678833,764.90302)"
         id="g65989">
        <g
           transform="translate(2.4009,16.2434)"
           id="g65991">
          <path
             id="path65993"
             style="fill:#ffffff;fill-opacity:1;fill-rule:nonzero;stroke:none"
             d="m 0,0 c 0,-0.114 0.001,-0.191 -0.022,-0.219 -0.019,-0.023 -0.043,-0.035 -0.097,-0.039 l -0.164,-0.01 -0.011,-0.012 v -0.066 l 0.012,-0.012 c 0.109,-0.01 0.363,-0.082 0.516,-0.143 L 0.257,-0.478 0.254,-0.1 c 0.232,-0.251 0.362,-0.398 0.53,-0.397 0.074,0.001 0.14,0.021 0.191,0.041 l 0.011,0.019 C 0.954,-0.324 0.95,-0.254 0.949,-0.157 H 0.925 C 0.879,-0.203 0.778,-0.243 0.707,-0.244 0.532,-0.245 0.406,-0.121 0.328,-0.036 0.292,0.003 0.253,0.056 0.252,0.103 L 0.246,0.942 C 0.245,1.086 0.248,1.152 0.271,1.184 0.294,1.216 0.345,1.219 0.555,1.241 L 0.645,1.25 0.657,1.261 0.656,1.327 0.644,1.339 C 0.551,1.335 0.344,1.325 0.133,1.323 -0.015,1.322 -0.163,1.329 -0.295,1.332 L -0.307,1.32 V 1.254 l 0.012,-0.012 0.09,-0.007 c 0.098,-0.008 0.144,-0.022 0.168,-0.05 0.028,-0.031 0.028,-0.101 0.029,-0.245 z" />
        </g>
      </g>
      <g
         transform="matrix(1.1414319,0,0,-1.1138612,95.678833,764.90302)"
         id="g65995">
        <g
           transform="translate(5.6039,16.5204)"
           id="g65997">
          <path
             id="path65999"
             style="fill:#ffffff;fill-opacity:1;fill-rule:nonzero;stroke:none"
             d="M 0,0 C -0.131,0.047 -0.352,0.084 -0.514,0.152 -0.68,0.22 -0.829,0.317 -0.823,0.536 -0.817,0.703 -0.738,0.881 -0.477,0.872 -0.223,0.865 -0.053,0.656 0.017,0.564 Z M 0.275,0.701 C 0.281,0.873 0.308,0.899 0.48,0.909 L 0.566,0.915 0.579,0.926 0.581,0.992 0.57,1.004 C 0.488,1.003 0.39,0.998 0.296,1.001 0.203,1.004 0.089,1.016 0.043,1.021 L 0.019,0.998 C 0.024,0.9 0.025,0.799 0.021,0.701 -0.05,0.777 -0.133,0.858 -0.297,0.984 -0.381,1.049 -0.455,1.071 -0.564,1.074 -0.93,1.085 -1.092,0.896 -1.102,0.591 -1.11,0.314 -0.946,0.181 -0.707,0.092 c 0.224,-0.085 0.503,-0.121 0.705,-0.186 l -0.002,-0.078 c -0.011,-0.335 -0.152,-0.464 -0.455,-0.454 -0.125,0.004 -0.218,0.041 -0.26,0.074 -0.038,0.029 -0.053,0.048 -0.07,0.1 l -0.069,0.185 -0.012,0.012 -0.079,-0.02 -0.011,-0.012 -0.016,-0.249 0.011,-0.017 c 0.123,-0.085 0.312,-0.243 0.633,-0.253 0.152,-0.005 0.399,0.046 0.506,0.25 0.067,0.126 0.072,0.279 0.079,0.529 z" />
        </g>
      </g>
      <g
         transform="matrix(1.1414319,0,0,-1.1138612,95.678833,764.90302)"
         id="g66001">
        <g
           transform="translate(7.7229,17.3264)"
           id="g66003">
          <path
             id="path66005"
             style="fill:#ffffff;fill-opacity:1;fill-rule:nonzero;stroke:none"
             d="m 0,0 c -0.094,0.072 -0.245,0.159 -0.533,0.175 -0.374,0.022 -0.797,-0.199 -0.835,-0.853 -0.013,-0.226 0.011,-0.407 0.096,-0.549 0.111,-0.19 0.45,-0.456 0.789,-0.475 0.196,-0.012 0.311,0.024 0.43,0.076 l 0.014,0.018 c -0.034,0.174 -0.032,0.342 -0.032,0.471 l -0.011,0.013 -0.07,0.004 -0.012,-0.011 c -0.002,-0.035 -0.024,-0.206 -0.058,-0.259 -0.026,-0.037 -0.185,-0.153 -0.392,-0.141 -0.217,0.013 -0.529,0.167 -0.496,0.732 0.022,0.378 0.244,0.818 0.71,0.791 0.218,-0.013 0.343,-0.09 0.437,-0.143 l 0.025,0.031 z" />
        </g>
      </g>
      <g
         transform="matrix(1.1414319,0,0,-1.1138612,95.678833,764.90302)"
         id="g66007">
        <g
           transform="translate(9.3729,15.4724)"
           id="g66009">
          <path
             id="path66011"
             style="fill:#ffffff;fill-opacity:1;fill-rule:nonzero;stroke:none"
             d="m 0,0 c -0.064,-0.605 -0.076,-0.714 -0.098,-0.837 -0.021,-0.131 -0.059,-0.189 -0.19,-0.203 -0.032,-0.005 -0.099,-10e-4 -0.133,0.002 -0.015,0.002 -0.032,-0.004 -0.034,-0.019 -0.002,-0.024 0.017,-0.034 0.059,-0.039 0.089,-0.008 0.194,-0.02 0.28,-0.025 l 0.159,-0.01 C 0.121,-1.135 0.908,-1.223 0.997,-1.236 1.07,-1.248 1.133,-1.255 1.166,-1.27 1.189,-1.28 1.202,-1.298 1.218,-1.3 c 0.016,-10e-4 0.024,0.014 0.027,0.034 0.003,0.026 -0.011,0.075 -0.011,0.185 0,0.039 0.01,0.21 0.007,0.258 C 1.24,-0.804 1.234,-0.779 1.215,-0.777 1.195,-0.775 1.186,-0.794 1.183,-0.821 1.18,-0.852 1.16,-0.917 1.133,-0.965 1.104,-1.013 1.007,-1.073 0.856,-1.06 l -0.599,0.052 c -0.023,0.002 -0.034,0.015 -0.03,0.046 L 0.341,0.109 C 0.344,0.132 0.349,0.143 0.372,0.141 L 0.867,0.083 C 0.934,0.076 0.988,0.07 1.042,0.061 1.135,0.043 1.184,0.027 1.213,-0.028 1.227,-0.049 1.236,-0.069 1.252,-0.071 1.268,-0.073 1.272,-0.061 1.274,-0.043 1.276,-0.019 1.264,0.049 1.266,0.178 1.267,0.257 1.276,0.412 1.279,0.44 1.282,0.475 1.287,0.513 1.26,0.516 1.24,0.519 1.231,0.503 1.229,0.485 1.221,0.445 1.211,0.392 1.191,0.347 1.165,0.295 1.096,0.232 0.974,0.229 0.875,0.228 0.453,0.273 0.387,0.28 0.367,0.282 0.36,0.291 0.363,0.318 l 0.036,0.33 C 0.439,1.02 0.471,1.326 0.508,1.487 0.531,1.598 0.565,1.681 0.682,1.684 0.737,1.686 0.824,1.685 0.859,1.681 0.882,1.679 0.891,1.69 0.893,1.7 0.895,1.72 0.876,1.734 0.834,1.738 0.62,1.761 0.375,1.776 0.356,1.778 0.336,1.78 0.093,1.818 -0.023,1.83 -0.066,1.835 -0.086,1.829 -0.089,1.806 -0.09,1.794 -0.084,1.781 -0.06,1.779 -0.025,1.776 0.02,1.763 0.055,1.751 0.13,1.728 0.141,1.64 0.144,1.526 0.146,1.362 0.113,1.055 0.073,0.683 Z" />
        </g>
      </g>
      <g
         transform="matrix(1.1414319,0,0,-1.1138612,95.678833,764.90302)"
         id="g66013">
        <g
           transform="translate(11.3179,14.3974)"
           id="g66015">
          <path
             id="path66017"
             style="fill:#ffffff;fill-opacity:1;fill-rule:nonzero;stroke:none"
             d="M 0,0 C 0.104,-0.014 0.201,0.06 0.215,0.164 0.229,0.269 0.156,0.365 0.051,0.379 -0.052,0.394 -0.15,0.32 -0.164,0.216 -0.177,0.111 -0.105,0.015 0,0 M 0.055,1.327 C 0.039,1.215 0.03,1.138 0.002,1.114 -0.02,1.094 -0.044,1.085 -0.099,1.089 L -0.278,1.105 -0.291,1.096 -0.3,1.029 -0.291,1.017 C -0.168,0.988 0.073,0.88 0.215,0.798 L 0.252,0.816 C 0.255,0.891 0.276,1.065 0.307,1.293 L 0.434,2.225 C 0.454,2.367 0.463,2.437 0.495,2.464 0.522,2.487 0.57,2.497 0.667,2.491 L 0.773,2.484 0.786,2.495 0.795,2.561 0.786,2.573 C 0.637,2.59 0.49,2.603 0.362,2.62 0.231,2.638 0.084,2.666 -0.061,2.689 L -0.075,2.68 -0.084,2.614 -0.074,2.601 0.03,2.578 C 0.125,2.558 0.169,2.536 0.189,2.506 0.211,2.471 0.203,2.401 0.182,2.259 Z" />
        </g>
      </g>
      <g
         transform="matrix(1.1414319,0,0,-1.1138612,95.678833,764.90302)"
         id="g66019">
        <g
           transform="translate(13.1719,16.6364)"
           id="g66021">
          <path
             id="path66023"
             style="fill:#ffffff;fill-opacity:1;fill-rule:nonzero;stroke:none"
             d="M 0,0 C 0.277,-0.046 0.398,-0.311 0.414,-0.385 0.429,-0.463 0.427,-0.569 0.367,-0.923 0.337,-1.107 0.31,-1.245 0.292,-1.329 0.217,-1.403 -0.009,-1.544 -0.316,-1.493 -0.59,-1.447 -0.821,-1.179 -0.74,-0.69 -0.677,-0.309 -0.442,0.074 0,0 M 0.149,-2.234 C 0.131,-2.346 0.117,-2.423 0.09,-2.446 0.066,-2.466 0.042,-2.473 -0.012,-2.469 l -0.164,0.02 -0.013,-0.01 -0.01,-0.065 0.009,-0.014 c 0.106,-0.029 0.344,-0.144 0.483,-0.23 l 0.047,0.019 c 0.008,0.094 0.037,0.338 0.126,0.873 l 0.267,1.604 c 0.029,0.17 0.06,0.192 0.232,0.179 l 0.086,-0.006 0.013,0.009 0.011,0.066 -0.01,0.014 C 0.984,-0.002 0.887,0.007 0.795,0.023 0.701,0.037 0.592,0.064 0.546,0.075 L 0.519,0.056 C 0.511,-0.041 0.498,-0.141 0.482,-0.238 0.4,-0.161 0.236,0.044 0.203,0.077 0.124,0.154 0.048,0.195 -0.098,0.219 -0.486,0.283 -0.89,0.027 -0.981,-0.52 c -0.038,-0.227 -0.005,-0.37 0.026,-0.487 0.06,-0.227 0.388,-0.594 0.703,-0.647 0.223,-0.037 0.355,0 0.506,0.051 z" />
        </g>
      </g>
      <g
         transform="matrix(1.1414319,0,0,-1.1138612,95.678833,764.90302)"
         id="g66025">
        <g
           transform="translate(14.5309,15.4704)"
           id="g66027">
          <path
             id="path66029"
             style="fill:#ffffff;fill-opacity:1;fill-rule:nonzero;stroke:none"
             d="M 0,0 C 0.2,-0.037 0.375,-0.07 0.559,-0.108 0.62,-0.121 0.896,-0.194 0.945,-0.208 0.939,-0.255 0.934,-0.302 0.924,-0.347 0.85,-0.702 0.558,-0.764 0.39,-0.73 -0.034,-0.641 -0.029,-0.253 0,0 M 1.308,0.676 C 1.211,0.768 1.02,0.919 0.734,0.979 0.458,1.036 -0.088,0.955 -0.236,0.244 -0.269,0.084 -0.293,-0.221 -0.205,-0.371 -0.147,-0.478 0.1,-0.802 0.44,-0.872 c 0.244,-0.051 0.67,-0.015 0.791,0.565 0.01,0.049 0.013,0.085 0.017,0.124 -0.099,0.04 -0.5,0.143 -0.716,0.188 L 0.024,0.112 C 0.118,0.57 0.411,0.867 0.831,0.78 1.049,0.735 1.235,0.576 1.319,0.495 L 1.355,0.52 Z" />
        </g>
      </g>
      <g
         transform="matrix(1.1414319,0,0,-1.1138612,95.678833,764.90302)"
         id="g66031">
        <g
           transform="translate(15.9839,13.8524)"
           id="g66033">
          <path
             id="path66035"
             style="fill:#ffffff;fill-opacity:1;fill-rule:nonzero;stroke:none"
             d="m 0,0 c -0.027,-0.109 -0.044,-0.185 -0.074,-0.206 -0.024,-0.019 -0.05,-0.024 -0.103,-0.016 l -0.177,0.035 -0.014,-0.009 -0.015,-0.065 0.008,-0.013 c 0.119,-0.041 0.348,-0.172 0.481,-0.269 l 0.049,0.017 c 0.013,0.092 0.06,0.335 0.186,0.862 L 0.703,1.837 C 0.737,1.978 0.752,2.046 0.787,2.069 0.816,2.091 0.865,2.095 0.961,2.08 L 1.066,2.063 1.081,2.071 1.095,2.136 1.086,2.149 C 0.942,2.181 0.795,2.208 0.663,2.239 0.541,2.269 0.399,2.312 0.256,2.35 L 0.243,2.341 0.227,2.276 0.235,2.263 0.336,2.231 C 0.428,2.2 0.471,2.174 0.487,2.142 0.506,2.105 0.49,2.037 0.456,1.897 Z" />
        </g>
      </g>
      <g
         transform="matrix(1.1414319,0,0,-1.1138612,95.678833,764.90302)"
         id="g66037">
        <g
           transform="translate(16.9379,13.2914)"
           id="g66039">
          <path
             id="path66041"
             style="fill:#ffffff;fill-opacity:1;fill-rule:nonzero;stroke:none"
             d="M 0,0 C 0.101,-0.028 0.207,0.034 0.233,0.135 0.259,0.237 0.199,0.341 0.097,0.369 -0.004,0.396 -0.11,0.335 -0.137,0.233 -0.164,0.131 -0.102,0.026 0,0 M 0.216,1.309 C 0.188,1.2 0.168,1.125 0.138,1.104 0.113,1.086 0.087,1.082 0.035,1.091 L -0.141,1.129 -0.156,1.122 -0.172,1.057 -0.164,1.043 C -0.047,1 0.179,0.863 0.31,0.764 l 0.041,0.014 c 0.011,0.073 0.052,0.244 0.111,0.467 l 0.241,0.908 c 0.036,0.14 0.054,0.208 0.089,0.23 0.029,0.021 0.079,0.024 0.174,0.007 L 1.07,2.371 1.085,2.378 1.101,2.443 1.093,2.458 C 0.949,2.491 0.804,2.522 0.679,2.554 0.55,2.588 0.41,2.633 0.267,2.675 L 0.253,2.668 0.236,2.603 0.245,2.588 0.344,2.554 C 0.437,2.522 0.478,2.495 0.494,2.462 0.511,2.425 0.494,2.357 0.457,2.218 Z" />
        </g>
      </g>
      <g
         transform="matrix(1.1414319,0,0,-1.1138612,95.678833,764.90302)"
         id="g66043">
        <g
           transform="translate(17.9859,13.9864)"
           id="g66045">
          <path
             id="path66047"
             style="fill:#ffffff;fill-opacity:1;fill-rule:nonzero;stroke:none"
             d="m 0,0 c -0.109,-0.37 -0.121,-0.411 -0.178,-0.549 0.1,-0.061 0.122,-0.081 0.223,-0.167 l 0.047,0.01 c 0.043,0.215 0.093,0.424 0.151,0.635 L 0.37,-0.109 c 0.146,-0.043 0.332,-0.118 0.375,-0.134 l 0.032,0.01 c 0.003,0.077 0.004,0.109 0.016,0.166 l -0.007,0.015 c -0.04,0.007 -0.085,0.017 -0.129,0.03 L 0.289,0.086 0.616,1.193 C 0.659,1.339 0.746,1.403 0.918,1.352 1.016,1.323 1.079,1.276 1.123,1.219 L 1.17,1.254 C 1.149,1.305 1.125,1.364 1.102,1.424 1.047,1.473 0.99,1.526 0.855,1.566 0.597,1.641 0.438,1.53 0.379,1.332 0.252,0.901 0.155,0.528 0.046,0.157 l -0.1,0.03 C -0.115,0.205 -0.172,0.23 -0.23,0.255 L -0.245,0.247 -0.259,0.198 -0.252,0.184 Z" />
        </g>
      </g>
      <g
         transform="matrix(1.1414319,0,0,-1.1138612,95.678833,764.90302)"
         id="g66049">
        <g
           transform="translate(19.3479,14.2394)"
           id="g66051">
          <path
             id="path66053"
             style="fill:#ffffff;fill-opacity:1;fill-rule:nonzero;stroke:none"
             d="M 0,0 C 0.193,-0.063 0.363,-0.116 0.541,-0.177 0.599,-0.197 0.865,-0.304 0.911,-0.324 0.9,-0.369 0.888,-0.415 0.873,-0.459 0.756,-0.803 0.459,-0.829 0.297,-0.774 -0.114,-0.634 -0.061,-0.248 0,0 M 1.381,0.509 C 1.297,0.611 1.125,0.785 0.848,0.88 0.583,0.97 0.03,0.958 -0.204,0.271 -0.258,0.116 -0.319,-0.185 -0.25,-0.344 -0.206,-0.457 0,-0.808 0.328,-0.92 c 0.236,-0.081 0.663,-0.099 0.854,0.462 0.017,0.048 0.025,0.082 0.034,0.12 -0.093,0.053 -0.479,0.205 -0.689,0.277 L 0.036,0.106 C 0.187,0.55 0.515,0.808 0.921,0.67 1.131,0.597 1.297,0.418 1.369,0.327 l 0.039,0.019 z" />
        </g>
      </g>
      <g
         transform="matrix(1.1414319,0,0,-1.1138612,95.678833,764.90302)"
         id="g66055">
        <g
           transform="translate(20.9119,13.4024)"
           id="g66057">
          <path
             id="path66059"
             style="fill:#ffffff;fill-opacity:1;fill-rule:nonzero;stroke:none"
             d="m 0,0 c -0.043,-0.106 -0.072,-0.177 -0.104,-0.193 -0.027,-0.015 -0.053,-0.017 -0.105,0 l -0.154,0.055 -0.016,-0.006 -0.025,-0.061 0.006,-0.016 c 0.097,-0.052 0.303,-0.217 0.42,-0.333 l 0.031,0.014 0.143,0.349 C 0.313,-0.513 0.375,-0.698 0.531,-0.762 0.6,-0.79 0.668,-0.798 0.723,-0.799 l 0.017,0.014 c 0.015,0.116 0.038,0.182 0.075,0.273 l -0.022,0.009 c -0.06,-0.025 -0.17,-0.023 -0.234,0.004 -0.162,0.066 -0.231,0.229 -0.27,0.338 -0.017,0.05 -0.033,0.115 -0.015,0.158 L 0.592,0.772 C 0.647,0.906 0.676,0.966 0.709,0.986 0.742,1.006 0.791,0.99 0.993,0.929 L 1.079,0.901 1.094,0.908 1.119,0.97 1.113,0.984 C 1.026,1.016 0.83,1.088 0.636,1.168 0.499,1.224 0.365,1.287 0.244,1.342 L 0.229,1.335 0.203,1.273 0.209,1.259 0.289,1.217 C 0.377,1.173 0.414,1.14 0.426,1.106 0.44,1.067 0.412,1.003 0.358,0.869 Z" />
        </g>
      </g>
    </g>
  </g>
</svg>
