<?xml version="1.0" encoding="UTF-8" standalone="no"?>
<svg
   width="33.830261mm"
   height="33.828884mm"
   viewBox="0 0 33.830261 33.828884"
   version="1.1"
   id="svg210513"
   xmlns="http://www.w3.org/2000/svg"
   xmlns:svg="http://www.w3.org/2000/svg"
   xmlns:rdf="http://www.w3.org/1999/02/22-rdf-syntax-ns#"
   xmlns:cc="http://creativecommons.org/ns#"
   xmlns:dc="http://purl.org/dc/elements/1.1/">
  <defs
     id="defs210507">
    <linearGradient
       id="linearGradient210997"
       spreadMethod="pad"
       gradientTransform="matrix(95.637136,0,0,-95.637136,666.71969,176.121)"
       gradientUnits="userSpaceOnUse"
       y2="0"
       x2="1"
       y1="0"
       x1="0">
      <stop
         id="stop210993"
         offset="0"
         style="stop-opacity:1;stop-color:#ffffff" />
      <stop
         id="stop210995"
         offset="1"
         style="stop-opacity:1;stop-color:#fdb827" />
    </linearGradient>
    <linearGradient
       id="linearGradient211017"
       spreadMethod="pad"
       gradientTransform="matrix(-93.262079,-8.2e-6,-8.2e-6,93.262079,761.17118,176.11875)"
       gradientUnits="userSpaceOnUse"
       y2="0"
       x2="1"
       y1="0"
       x1="0">
      <stop
         id="stop211013"
         offset="0"
         style="stop-opacity:1;stop-color:#ffffff" />
      <stop
         id="stop211015"
         offset="1"
         style="stop-opacity:1;stop-color:#fdb827" />
    </linearGradient>
    <clipPath
       id="clipPath211027"
       clipPathUnits="userSpaceOnUse">
      <path
         id="path211025"
         d="M 644.881,56.693 H 786.339 V 223.937 H 644.881 Z" />
    </clipPath>
    <linearGradient
       id="linearGradient211049"
       spreadMethod="pad"
       gradientTransform="matrix(90.975674,0,0,-90.975674,669.01073,176.30173)"
       gradientUnits="userSpaceOnUse"
       y2="0"
       x2="1"
       y1="0"
       x1="0">
      <stop
         id="stop211045"
         offset="0"
         style="stop-opacity:1;stop-color:#ffffff" />
      <stop
         id="stop211047"
         offset="1"
         style="stop-opacity:1;stop-color:#ffdfa8" />
    </linearGradient>
    <linearGradient
       id="linearGradient211069"
       spreadMethod="pad"
       gradientTransform="matrix(-72.779348,0,0,72.779348,750.88868,176.30173)"
       gradientUnits="userSpaceOnUse"
       y2="0"
       x2="1"
       y1="0"
       x1="0">
      <stop
         id="stop211065"
         offset="0"
         style="stop-opacity:1;stop-color:#fdb827" />
      <stop
         id="stop211067"
         offset="1"
         style="stop-opacity:1;stop-color:#fdb827" />
    </linearGradient>
    <linearGradient
       id="linearGradient211089"
       spreadMethod="pad"
       gradientTransform="matrix(32.35468,-32.35468,-32.35468,-32.35468,698.36217,192.29778)"
       gradientUnits="userSpaceOnUse"
       y2="0"
       x2="1"
       y1="0"
       x1="0">
      <stop
         id="stop211085"
         offset="0"
         style="stop-opacity:1;stop-color:#ffffff" />
      <stop
         id="stop211087"
         offset="1"
         style="stop-opacity:1;stop-color:#fdb827" />
    </linearGradient>
    <linearGradient
       id="linearGradient211109"
       spreadMethod="pad"
       gradientTransform="matrix(14.654299,-14.654299,-14.654299,-14.654299,707.39932,201.01771)"
       gradientUnits="userSpaceOnUse"
       y2="0"
       x2="1"
       y1="0"
       x1="0">
      <stop
         id="stop211105"
         offset="0"
         style="stop-opacity:1;stop-color:#ffffff" />
      <stop
         id="stop211107"
         offset="1"
         style="stop-opacity:1;stop-color:#fdb827" />
    </linearGradient>
    <clipPath
       id="clipPath211119"
       clipPathUnits="userSpaceOnUse">
      <path
         id="path211117"
         d="M 644.881,56.693 H 786.339 V 223.937 H 644.881 Z" />
    </clipPath>
    <linearGradient
       id="linearGradient211149"
       spreadMethod="pad"
       gradientTransform="matrix(6.426273,-52.337813,-52.337813,-6.426273,714.06289,183.23849)"
       gradientUnits="userSpaceOnUse"
       y2="0"
       x2="1"
       y1="0"
       x1="0">
      <stop
         id="stop211141"
         offset="0"
         style="stop-opacity:1;stop-color:#e6e8f1" />
      <stop
         id="stop211143"
         offset="0.011236"
         style="stop-opacity:1;stop-color:#e6e8f1" />
      <stop
         id="stop211145"
         offset="0.837079"
         style="stop-opacity:1;stop-color:#003263" />
      <stop
         id="stop211147"
         offset="1"
         style="stop-opacity:1;stop-color:#003263" />
    </linearGradient>
  </defs>
  <metadata
     id="metadata210510">
    <rdf:RDF>
      <cc:Work
         rdf:about="">
        <dc:format>image/svg+xml</dc:format>
        <dc:type
           rdf:resource="http://purl.org/dc/dcmitype/StillImage" />
        <dc:title />
      </cc:Work>
    </rdf:RDF>
  </metadata>
  <g
     id="layer1"
     transform="translate(-318.02539,-268.5715)">
    <g
       id="g213086">
      <g
         id="g212865">
        <g
           id="g210973"
           transform="matrix(0.35277777,0,0,-0.35277777,334.89374,269.29812)">
          <path
             d="m 0,0 c -25.271,0 -45.757,-20.486 -45.757,-45.757 0,-4.754 0.727,-9.34 2.073,-13.652 7.422,1.721 10.865,6.917 17.799,13.841 7.53,7.52 13.512,6.828 15.992,6.037 h -0.002 c 0.844,-0.168 1.463,-0.403 1.842,-0.572 -0.003,0 -0.004,0.002 -0.007,0.002 1.02,-0.037 3.315,0.059 6.475,1.287 0.035,0.017 0.072,0.034 0.107,0.052 -0.07,-0.035 -0.142,-0.075 -0.213,-0.111 6.619,3.318 11.746,2.721 14.493,1.91 1.187,-0.259 2.064,-0.597 2.609,-0.843 0.749,0.12 2.517,0.416 4.425,0.818 9.379,5 16.698,4.246 20.681,3.103 -0.005,0 -0.009,0.002 -0.014,0.004 2.084,-0.483 3.476,-1.141 4.052,-1.444 C 39.833,-15.083 21.688,0 0,0"
             style="fill:#004990;fill-opacity:1;fill-rule:nonzero;stroke:none"
             id="path210975" />
        </g>
        <g
           id="g210977"
           transform="matrix(0.35277777,0,0,-0.35277777,346.87196,273.56363)">
          <path
             d="m 0,0 c 8.571,-8.641 13.867,-20.533 13.867,-33.665 0,-26.409 -21.406,-47.816 -47.821,-47.816 -13.144,0 -25.047,5.308 -33.69,13.889 8.664,-8.735 20.673,-14.15 33.949,-14.15 26.415,0 47.822,21.409 47.822,47.816 C 14.127,-20.662 8.725,-8.662 0,0"
             style="fill:#4d4d4f;fill-opacity:1;fill-rule:nonzero;stroke:none"
             id="path210979" />
        </g>
        <g
           id="g210981"
           transform="matrix(0.35277777,0,0,-0.35277777,82.821394,347.5715)">
          <g
             id="g210983">
            <g
               id="g210989">
              <g
                 id="g210991">
                <path
                   d="m 666.72,176.121 c 0,-26.409 21.407,-47.815 47.816,-47.815 v 0 c 26.415,0 47.822,21.406 47.822,47.815 v 0 c 0,26.406 -21.407,47.816 -47.822,47.816 v 0 c -26.409,0 -47.816,-21.41 -47.816,-47.816 m 1.189,-0.001 c 0,25.752 20.876,46.626 46.635,46.626 v 0 c 25.751,0 46.627,-20.874 46.627,-46.626 v 0 c 0,-25.753 -20.876,-46.628 -46.627,-46.628 v 0 c -25.759,0 -46.635,20.875 -46.635,46.628"
                   style="fill:url(#linearGradient210997);stroke:none"
                   id="path210999" />
              </g>
            </g>
          </g>
        </g>
        <g
           id="g211001"
           transform="matrix(0.35277777,0,0,-0.35277777,82.821394,347.5715)">
          <g
             id="g211003">
            <g
               id="g211009">
              <g
                 id="g211011">
                <path
                   d="m 667.909,176.12 c 0,-25.753 20.876,-46.628 46.635,-46.628 v 0 c 25.751,0 46.627,20.875 46.627,46.628 v 0 c 0,25.752 -20.876,46.626 -46.627,46.626 v 0 c -25.759,0 -46.635,-20.874 -46.635,-46.626 m 0.87,0.001 c 0,25.27 20.486,45.756 45.757,45.756 v 0 c 25.277,0 45.762,-20.486 45.762,-45.756 v 0 c 0,-25.271 -20.485,-45.757 -45.762,-45.757 v 0 c -25.271,0 -45.757,20.486 -45.757,45.757"
                   style="fill:url(#linearGradient211017);stroke:none"
                   id="path211019" />
              </g>
            </g>
          </g>
        </g>
        <g
           id="g211021"
           transform="matrix(0.35277777,0,0,-0.35277777,82.821394,347.5715)">
          <g
             id="g211023"
             clip-path="url(#clipPath211027)">
            <g
               id="g211029"
               transform="translate(714.9963,221.5292)">
              <path
                 d="M 0,0 1.339,-31.908 8.876,-0.874 3.963,-32.428 17.407,-3.463 6.434,-33.455 25.274,-7.666 8.658,-34.94 32.164,-13.323 10.549,-36.83 37.823,-20.217 12.037,-39.057 42.024,-28.082 13.059,-41.528 44.614,-36.614 13.58,-44.15 45.489,-45.487 13.58,-46.827 44.614,-54.363 13.059,-49.448 42.024,-62.894 12.037,-51.922 37.823,-70.761 10.549,-54.146 32.164,-77.655 8.658,-56.037 25.274,-83.31 6.434,-57.524 17.407,-87.515 3.963,-58.547 8.876,-90.103 1.339,-59.07 0,-90.977 l -1.336,31.907 -7.537,-31.033 4.913,31.556 -13.446,-28.968 10.974,29.991 -18.839,-25.786 16.616,27.273 -23.508,-21.618 21.615,23.509 -27.272,-16.615 25.786,18.839 -29.989,-10.972 28.967,13.446 -31.556,-4.915 31.032,7.536 -31.906,1.34 31.906,1.337 -31.032,7.536 31.556,-4.914 -28.967,13.446 29.989,-10.975 -25.786,18.84 27.272,-16.613 -21.615,23.507 23.508,-21.617 -16.616,27.274 18.839,-25.789 -10.974,29.992 13.446,-28.965 -4.913,31.554 7.537,-31.034 z"
                 style="fill:#003263;fill-opacity:1;fill-rule:nonzero;stroke:none"
                 id="path211031" />
            </g>
          </g>
        </g>
        <g
           id="g211033"
           transform="matrix(0.35277777,0,0,-0.35277777,82.821394,347.5715)">
          <g
             id="g211035">
            <g
               id="g211041">
              <g
                 id="g211043">
                <path
                   d="m 713.161,189.882 -7.536,31.034 4.912,-31.554 -13.445,28.965 10.973,-29.991 -18.839,25.788 16.617,-27.273 -23.509,21.616 21.616,-23.508 -27.273,16.614 25.786,-18.84 -29.989,10.976 28.967,-13.446 -31.557,4.913 31.034,-7.536 -31.908,-1.337 31.908,-1.339 -31.034,-7.537 31.557,4.916 -28.967,-13.447 29.989,10.972 -25.786,-18.838 27.273,16.613 -21.616,-23.507 23.509,21.616 -16.617,-27.272 18.839,25.787 -10.973,-29.992 13.445,28.967 -4.912,-31.554 7.536,31.033 1.336,-31.907 1.34,31.907 7.536,-31.033 -4.913,31.554 13.445,-28.967 -10.973,29.992 18.839,-25.787 -16.616,27.272 23.506,-21.616 -21.614,23.507 27.273,-16.613 -25.786,18.838 29.988,-10.972 -28.966,13.447 31.555,-4.916 -31.033,7.537 31.909,1.339 -31.909,1.337 31.033,7.536 -31.555,-4.913 28.966,13.446 -29.988,-10.976 25.786,18.84 -27.273,-16.614 21.614,23.508 -23.506,-21.616 16.616,27.273 -18.839,-25.788 10.973,29.991 -13.445,-28.965 4.913,31.554 -7.536,-31.034 -1.34,31.908 z"
                   style="fill:url(#linearGradient211049);stroke:none"
                   id="path211051" />
              </g>
            </g>
          </g>
        </g>
        <g
           id="g211053"
           transform="matrix(0.35277777,0,0,-0.35277777,82.821394,347.5715)">
          <g
             id="g211055">
            <g
               id="g211061">
              <g
                 id="g211063">
                <path
                   d="m 713.429,187.167 -6.031,24.826 3.93,-25.244 -10.754,23.174 8.779,-23.993 -15.072,20.63 13.293,-21.818 -18.806,17.292 17.292,-18.805 -21.818,13.291 20.629,-15.071 -23.992,8.779 23.173,-10.758 -25.244,3.933 24.828,-6.03 -25.527,-1.071 25.527,-1.071 -24.828,-6.027 25.244,3.93 -23.173,-10.758 23.992,8.78 -20.629,-15.071 21.818,13.291 -17.292,-18.806 18.806,17.293 -13.293,-21.818 15.072,20.63 -8.779,-23.993 10.754,23.171 -3.93,-25.242 6.031,24.827 1.071,-25.526 1.068,25.526 6.031,-24.827 -3.931,25.242 10.758,-23.171 -8.781,23.993 15.071,-20.63 -13.292,21.818 18.806,-17.293 -17.293,18.806 21.819,-13.291 -20.63,15.071 23.991,-8.78 -23.172,10.758 25.245,-3.93 -24.827,6.027 25.526,1.071 -25.526,1.071 24.827,6.03 -25.245,-3.933 23.172,10.758 -23.991,-8.779 20.63,15.071 -21.819,-13.291 17.293,18.805 -18.806,-17.292 13.292,21.818 -15.071,-20.63 8.781,23.993 -10.758,-23.174 3.931,25.244 -6.031,-24.826 -1.068,25.526 z"
                   style="fill:url(#linearGradient211069);stroke:none"
                   id="path211071" />
              </g>
            </g>
          </g>
        </g>
        <g
           id="g211073"
           transform="matrix(0.35277777,0,0,-0.35277777,82.821394,347.5715)">
          <g
             id="g211075">
            <g
               id="g211081">
              <g
                 id="g211083">
                <path
                   d="m 713.418,187.505 -3.342,11.055 1.144,-11.493 -5.436,10.19 3.362,-11.048 -7.318,8.934 5.454,-10.179 -8.921,7.333 7.336,-8.919 -10.181,5.454 8.936,-7.321 -11.049,3.364 10.191,-5.436 -11.494,1.145 11.055,-3.342 -11.494,-1.121 11.494,-1.122 -11.055,-3.343 11.494,1.144 -10.191,-5.434 11.049,3.362 -8.935,-7.319 10.18,5.454 -7.336,-8.92 8.921,7.335 -5.454,-10.179 7.318,8.932 -3.362,-11.047 5.434,10.19 -1.142,-11.495 3.342,11.055 1.121,-11.492 1.121,11.492 3.342,-11.055 -1.143,11.495 5.436,-10.19 -3.364,11.047 7.319,-8.932 -5.455,10.179 8.921,-7.335 -7.334,8.92 10.18,-5.454 -8.934,7.319 11.048,-3.362 -10.19,5.434 11.492,-1.144 -11.056,3.343 11.495,1.122 -11.495,1.121 11.056,3.342 -11.492,-1.145 10.19,5.436 -11.049,-3.364 8.935,7.321 -10.18,-5.454 7.334,8.92 -8.921,-7.334 5.455,10.179 -7.319,-8.934 3.364,11.048 -5.436,-10.19 1.143,11.493 -3.343,-11.055 -1.12,11.495 z"
                   style="fill:url(#linearGradient211089);stroke:none"
                   id="path211091" />
              </g>
            </g>
          </g>
        </g>
        <g
           id="g211093"
           transform="matrix(0.35277777,0,0,-0.35277777,82.821394,347.5715)">
          <g
             id="g211095">
            <g
               id="g211101">
              <g
                 id="g211103">
                <path
                   d="m 711.921,205.537 v -5.125 h -5.128 v -4.934 h 5.128 v -12.956 c 1.746,0.953 3.394,1.639 4.933,2.108 v 0 10.848 h 5.126 v 4.934 h -5.126 v 5.125 z"
                   style="fill:url(#linearGradient211109);stroke:none"
                   id="path211111" />
              </g>
            </g>
          </g>
        </g>
        <g
           id="g211113"
           transform="matrix(0.35277777,0,0,-0.35277777,82.821394,347.5715)">
          <g
             id="g211115"
             clip-path="url(#clipPath211119)">
            <path
               d="m 711.921,195.478 h -4.869 v -0.259 h 4.869 z"
               style="fill:#003263;fill-opacity:1;fill-rule:nonzero;stroke:none"
               id="path211121" />
            <path
               d="m 717.113,205.276 h -0.259 v -4.865 h 0.259 z"
               style="fill:#003263;fill-opacity:1;fill-rule:nonzero;stroke:none"
               id="path211123" />
            <g
               id="g211125"
               transform="translate(717.1127,195.2192)">
              <path
                 d="M 0,0 H 5.126 V 4.933 H 4.867 V 0.259 h -5.126 v -10.848 c 0.087,0.027 0.172,0.052 0.259,0.078 z"
                 style="fill:#003263;fill-opacity:1;fill-rule:nonzero;stroke:none"
                 id="path211127" />
            </g>
          </g>
        </g>
        <g
           id="g211129"
           transform="matrix(0.35277777,0,0,-0.35277777,82.821394,347.5715)">
          <g
             id="g211131">
            <g
               id="g211137">
              <g
                 id="g211139">
                <path
                   d="M 720.27,155.981 C 704.6,140.159 692.005,140.99 686.283,142.628 v 0 c -2.795,0.647 -4.348,1.609 -4.348,1.609 v 0 c 16.515,3.583 23.932,15.07 39.122,30.408 v 0 c 4.761,4.806 9.236,8.069 13.321,10.246 v 0 c -1.912,-0.403 -3.682,-0.7 -4.431,-0.819 v 0 c 0.412,-0.187 0.641,-0.323 0.641,-0.323 v 0 C 718.7,181.172 713.344,172.988 702.387,162.047 v 0 c -11.458,-11.447 -20.615,-10.702 -24.65,-9.512 v 0 c 0.021,-0.005 0.044,-0.01 0.066,-0.015 v 0 c -0.023,0.006 -0.047,0.012 -0.069,0.015 v 0 c 10e-4,0 10e-4,0 0.002,0 v 0 c -1.518,0.332 -2.541,0.795 -2.993,1.024 v 0 c 2.026,-3.565 4.498,-6.84 7.369,-9.723 v 0 c 0.015,-0.015 0.029,-0.029 0.043,-0.044 v 0 c -0.044,-0.009 -0.087,-0.021 -0.133,-0.03 v 0 c 0,0 0.127,-0.078 0.369,-0.203 v 0 c 8.264,-8.156 19.615,-13.195 32.145,-13.195 v 0 c 25.277,0 45.762,20.486 45.762,45.757 v 0 c 0,3.496 -0.392,6.899 -1.136,10.172 v 0 l 0.229,0.091 c -16.515,-3.583 -23.929,-15.066 -39.121,-30.403 m 37.91,24.165 -0.014,0.027 0.021,0.011 c 0.042,0.023 0.082,0.071 0.031,0.166 v 0 l 0.064,0.033 0.413,-0.764 -0.064,-0.033 c -0.05,0.093 -0.115,0.087 -0.156,0.063 v 0 l -0.748,-0.403 0.87,-1.612 c 0.039,-0.074 0.109,-0.056 0.17,-0.03 v 0 l 0.034,-0.064 -0.943,-0.507 -0.034,0.061 c 0.054,0.039 0.109,0.086 0.07,0.162 v 0 l -0.251,0.466 0.643,0.347 -0.035,0.062 c -0.06,-0.027 -0.13,-0.044 -0.169,0.029 v 0 l -0.822,1.522 0.833,0.452 c 0.008,-0.009 0.015,-0.008 0.024,-0.022 v 0 z m -2.191,-1.15 0.569,0.306 0.288,-0.531 -0.57,-0.306 c -0.043,-0.024 -0.083,-0.074 -0.032,-0.166 v 0 l -0.064,-0.036 -0.398,0.741 0.072,0.037 c 0.032,-0.039 0.065,-0.053 0.095,-0.053 v 0 c 0.014,0 0.028,0.003 0.04,0.008 m -5.58,-3.734 0.087,0.069 0.921,-0.452 -0.215,-0.172 -0.306,0.15 0.078,-0.331 -0.329,-0.258 z m 2.361,-0.533 c 0.237,-0.118 0.447,-0.225 0.591,-0.305 v 0 c 0.04,-0.02 0.094,-0.001 0.132,0.027 v 0 l 0.042,-0.054 -0.774,-0.612 -0.045,0.054 c 0.021,0.015 0.06,0.048 0.027,0.091 v 0 c -0.039,0.052 -0.286,0.152 -0.384,0.211 v 0 l -1.084,-0.859 c 0.038,-0.104 0.076,-0.371 0.115,-0.423 v 0 c 0.034,-0.041 0.075,-0.009 0.094,0.008 v 0 l 0.046,-0.058 -0.701,-0.553 -0.046,0.056 c 0.039,0.028 0.071,0.077 0.059,0.12 v 0 c -0.059,0.212 -0.114,0.427 -0.168,0.639 v 0 l 0.341,0.266 -0.045,0.058 c -0.02,-0.015 -0.061,-0.049 -0.095,-0.006 v 0 c -0.039,0.051 -0.076,0.317 -0.115,0.423 v 0 l 0.323,0.254 0.077,-0.327 0.773,0.611 -0.304,0.149 0.215,0.171 c 0.098,-0.059 0.344,-0.159 0.385,-0.211 v 0 c 0.032,-0.043 -0.008,-0.076 -0.027,-0.089 v 0 l 0.044,-0.056 z m -7.152,-3.443 0.516,-0.527 -0.051,-0.051 c -0.082,0.085 -0.142,0.062 -0.177,0.028 v 0 l -0.313,-0.308 -0.275,0.283 -0.05,-0.05 c 0.08,-0.08 0.051,-0.14 0.02,-0.173 v 0 l -0.801,-0.783 -0.186,0.192 1.241,1.212 c 0.03,0.03 0.043,0.08 -0.005,0.145 v 0 c 0.01,-0.007 0.019,-0.003 0.031,-0.016 v 0 z m 0.239,-1.13 0.317,-0.324 -0.927,-0.906 -0.245,0.251 0.801,0.782 c 0.03,0.029 0.047,0.084 -0.014,0.155 v 0 c 0.008,-0.004 0.012,-0.001 0.019,-0.008 v 0 z m 1.213,-0.355 0.516,-0.528 -0.043,-0.042 c -0.106,0.047 -0.139,0.04 -0.207,-0.027 v 0 l -1.896,-1.855 -0.051,0.052 c 0.057,0.064 0.103,0.133 0.046,0.195 v 0 l -0.393,0.4 0.57,0.555 0.15,-0.153 1.209,1.181 c 0.047,0.045 0.055,0.111 0.013,0.193 v 0 c 0.016,-0.005 0.025,-0.003 0.045,-0.013 v 0 z m -3.46,-0.578 0.12,0.116 1.189,-1.215 c 10e-4,0 0,-0.002 10e-4,-0.003 v 0 l -1.065,1.09 c -0.06,0.059 -0.13,0.014 -0.195,-0.039 v 0 z m -3.297,-3.829 -0.052,0.142 c 0.07,0.041 0.122,0.075 0.146,0.1 v 0 c 0.028,0.031 0.028,0.073 0.023,0.102 v 0 l 0.066,0.036 0.253,-0.694 -0.036,0.006 -0.015,-0.076 c 0.031,-0.021 0.052,-0.041 0.08,-0.07 v 0 c 0.011,-0.012 0.015,-0.05 0.016,-0.089 v 0 l -0.054,-0.018 c -0.016,0.024 -0.026,0.057 -0.054,0.087 v 0 c -0.071,0.066 -0.49,-0.126 -0.763,-0.41 v 0 c -0.211,-0.224 -0.371,-0.535 -0.333,-0.823 v 0 c -0.116,0.018 -0.228,0.064 -0.328,0.161 v 0 c -0.179,0.171 -0.22,0.379 -0.182,0.585 v 0 c 0.104,0.183 0.238,0.356 0.388,0.513 v 0 c 0.181,0.19 0.396,0.336 0.571,0.45 v 0 c 0.032,0.022 0.056,0.034 0.085,0.054 v 0 c 0.004,-10e-4 0.012,0 0.018,0.001 v 0 c 0.013,0 0.024,0.001 0.028,-0.002 v 0 c 0.029,-0.029 0.04,-0.062 0.056,-0.088 v 0 z m 0.005,-2.236 c 0.235,0.04 0.467,0.187 0.639,0.367 v 0 c 0.197,0.205 0.291,0.45 0.33,0.636 v 0 c 0.073,0.133 0.125,0.256 0.164,0.361 v 0 l 0.756,-0.118 -0.018,-0.081 c -0.047,0.003 -0.09,0.002 -0.115,-0.024 v 0 c -0.041,-0.043 -0.139,-0.662 -0.662,-1.21 v 0 c -0.6,-0.629 -1.465,-1.002 -2.171,-0.329 v 0 c -0.11,0.107 -0.187,0.217 -0.249,0.329 v 0 c 0.185,-0.107 0.377,-0.155 0.569,-0.155 v 0 c 0.257,0 0.513,0.086 0.757,0.224 m -5.23,-2.881 0.097,0.104 0.052,-0.05 c -0.041,-0.052 -0.061,-0.098 -0.055,-0.142 v 0 z m -0.639,-0.673 0.09,0.094 0.643,-0.609 c 0.038,-0.035 0.055,-0.075 0.077,-0.114 v 0 l -0.612,0.58 c -0.058,0.056 -0.117,0.022 -0.146,0 v 0 z m 1.146,-1.767 c 0.158,0.165 0.237,0.336 0.216,0.495 v 0 c 0.292,0.475 0.241,0.882 0.007,1.211 v 0 l 0.329,-0.311 c 0.458,-0.434 0.607,-1.053 -0.113,-1.811 v 0 c -0.72,-0.761 -1.345,-0.643 -1.802,-0.209 v 0 l -0.951,0.901 c -0.06,0.058 -0.127,0.012 -0.196,-0.051 v 0 l -0.052,0.048 0.139,0.145 0.544,-0.514 c 0.364,-0.345 0.835,-0.482 1.374,-0.147 v 0 c 0.017,-0.002 0.035,-0.003 0.053,-0.003 v 0 c 0.149,0 0.304,0.09 0.452,0.246 m -1.875,0.998 0.05,0.053 0.051,-0.051 c -0.011,-0.018 -0.019,-0.048 -0.018,-0.08 v 0 z m -5.71,-5.183 0.106,0.107 0.052,-0.051 c -0.07,-0.081 -0.071,-0.122 -0.057,-0.155 v 0 z m 3.138,-0.242 c 0.008,0.008 0.003,0.015 0.008,0.022 v 0 c 0.043,0.041 0.082,0.038 0.18,-0.033 v 0 l 0.039,0.038 0.525,-0.518 -0.05,-0.05 c -0.101,0.074 -0.139,0.079 -0.185,0.033 v 0 l -2.181,-2.213 -0.051,0.05 c 0.097,0.115 0.08,0.157 0.042,0.197 v 0 l -0.399,0.391 0.626,0.636 0.009,-0.01 z m -3.89,-0.523 0.127,0.128 1.574,-1.55 c 0.011,-0.011 0.011,-0.028 0.017,-0.041 v 0 l -1.476,1.455 c -0.037,0.038 -0.078,0.056 -0.193,-0.043 v 0 z m -7.844,-8.476 -0.012,0.589 0.524,0.418 0.045,-0.055 c -0.008,-0.008 -0.066,-0.059 -0.069,-0.125 v 0 l 0.019,-0.939 z m -1.779,-0.824 0.436,0.349 0.637,-0.148 0.01,-0.412 -0.888,0.208 c -0.063,0.011 -0.127,-0.032 -0.15,-0.052 v 0 z m 3.15,0.107 0.797,-0.175 c 0.028,-0.007 0.051,0.004 0.093,0.038 v 0 l 0.042,-0.057 -0.964,-0.772 -0.045,0.054 c 0.009,0.011 0.073,0.061 0.048,0.093 v 0 c -0.088,0.112 -0.688,0.175 -0.797,0.216 v 0 c 0.014,-0.102 0.01,-0.775 0.045,-0.817 v 0 c 0.025,-0.034 0.09,0.019 0.114,0.039 v 0 l 0.045,-0.057 -0.907,-0.725 -0.044,0.056 c 0.032,0.027 0.052,0.05 0.046,0.074 v 0 l -0.017,0.799 0.407,0.324 -0.045,0.058 c -0.022,-0.019 -0.089,-0.072 -0.114,-0.04 v 0 c -0.033,0.044 -0.031,0.716 -0.045,0.819 v 0 c 0.109,-0.043 0.708,-0.105 0.797,-0.217 v 0 c 0.026,-0.031 -0.038,-0.084 -0.048,-0.093 v 0 l 0.045,-0.055 z m -7.157,-5.322 c 0.222,0.135 0.362,0.302 0.35,0.486 v 0 c 0.322,0.419 0.269,0.858 0.032,1.246 v 0 l -0.401,0.655 0.286,0.176 0.038,-0.061 c -0.078,-0.056 -0.135,-0.111 -0.092,-0.182 v 0 l 0.684,-1.116 c 0.33,-0.538 0.314,-1.175 -0.579,-1.721 v 0 c -0.894,-0.546 -1.467,-0.27 -1.797,0.267 v 0 l -0.038,0.065 c 0.272,-0.136 0.622,-0.143 1.055,0.058 v 0 c 0.022,-0.003 0.044,-0.004 0.067,-0.004 v 0 c 0.121,0 0.255,0.045 0.395,0.131 m -1.243,0.58 -0.471,0.771 0.225,0.137 0.038,-0.06 c -0.028,-0.026 -0.075,-0.074 -0.03,-0.145 v 0 l 0.544,-0.891 c -0.121,0.004 -0.228,0.059 -0.306,0.188 m -1.16,0.349 0.01,0.005 0.039,-0.063 c -0.005,-0.001 -0.008,-0.001 -0.011,-0.003 v 0 z m -6.498,-2.55 0.405,0.168 0.027,-0.065 c -0.132,-0.067 -0.132,-0.112 -0.112,-0.162 v 0 l 0.59,-1.422 -0.252,-0.103 z m 3.051,-1.545 -0.075,0.18 0.088,0.035 c 0.059,0.024 0.07,0.062 0.033,0.196 v 0 l 0.067,0.026 0.402,-0.966 -0.067,-0.029 c -0.064,0.11 -0.098,0.127 -0.159,0.103 v 0 l -2.867,-1.191 -0.028,0.065 c 0.134,0.069 0.134,0.116 0.114,0.164 v 0 l -0.194,0.469 2.461,1.021 c 0.06,0.026 0.094,0.008 0.158,-0.103 v 0 z m 5.239,47.889 c 0.013,0.006 0.027,0.013 0.04,0.02 v 0 c -0.013,-0.006 -0.027,-0.014 -0.04,-0.02 m -0.067,-0.032 c -3.16,-1.228 -5.455,-1.324 -6.474,-1.287 v 0 c 0.277,-0.123 0.43,-0.214 0.43,-0.214 v 0 c -7.624,-1.652 -11.057,-6.897 -18.081,-13.911 v 0 c -7.531,-7.52 -13.513,-6.827 -15.992,-6.037 v 0 c -0.885,0.175 -1.528,0.426 -1.9,0.598 v 0 c 10e-4,-10e-4 10e-4,-10e-4 0.002,-0.002 v 0 l 0.02,-0.065 c 0.944,-2.946 2.194,-5.749 3.684,-8.402 v 0 c 11.778,2.617 17.141,10.779 28.048,21.667 v 0 c 3.719,3.713 7.193,6.138 10.33,7.685 v 0 c -0.023,-0.011 -0.044,-0.021 -0.067,-0.032 m -42.022,-20.85 c 0.002,-0.001 0.004,-0.001 0.005,-0.001 v 0 c -0.002,0 -0.003,0 -0.005,0.001 z m 6.806,-9.678 c 0,0.001 0,0.001 -0.001,0.001 v 0 c 0.001,0 0.001,-0.001 0.001,-0.001"
                   style="fill:url(#linearGradient211149);stroke:none"
                   id="path211151" />
              </g>
            </g>
          </g>
        </g>
        <g
           id="g211161"
           transform="matrix(0.35277777,0,0,-0.35277777,330.24766,290.31299)">
          <path
             d="m 0,0 c 10.958,10.941 16.313,19.125 28.201,21.703 0,0 -11.321,6.935 -26.88,-8.601 C -9.636,2.161 -14.994,-6.029 -26.887,-8.605 c 0,0 11.329,-6.941 26.887,8.605 m -13.561,5.604 c 7.023,7.014 10.457,12.26 18.08,13.911 0,0 -7.261,4.447 -17.235,-5.513 C -19.74,6.989 -23.173,1.74 -30.797,0.089 c 0,0 7.261,-4.444 17.236,5.515 m -5.87,-23.675 C -2.916,-14.488 4.501,-3 19.692,12.338 41.26,34.118 57.016,24.34 57.016,24.34 40.501,20.757 33.086,9.273 17.895,-6.062 -3.674,-27.843 -19.431,-18.071 -19.431,-18.071"
             style="fill:#ffffff;fill-opacity:1;fill-rule:nonzero;stroke:none"
             id="path211163" />
        </g>
        <g
           id="g211165"
           transform="matrix(0.35277777,0,0,-0.35277777,349.1824,281.25062)">
          <path
             d="m 0,0 c 2.155,-0.618 3.343,-1.349 3.343,-1.349 -16.515,-3.582 -23.93,-15.066 -39.122,-30.402 -14.802,-14.948 -26.866,-15.033 -32.979,-13.618 5.721,-1.638 18.317,-2.47 33.989,13.354 15.192,15.337 22.606,26.819 39.121,30.403 0,0 -1.554,0.963 -4.352,1.612"
             style="fill:#003263;fill-opacity:1;fill-rule:nonzero;stroke:none"
             id="path211167" />
        </g>
        <g
           id="g211169"
           transform="matrix(0.35277777,0,0,-0.35277777,331.40315,283.24371)">
          <path
             d="m 0,0 c 0.806,-0.255 1.244,-0.523 1.244,-0.523 -7.623,-1.652 -11.057,-6.898 -18.081,-13.912 -6.645,-6.636 -12.082,-6.876 -14.974,-6.298 2.479,-0.79 8.462,-1.484 15.995,6.038 7.023,7.013 10.457,12.259 18.081,13.911 0,0 -0.814,0.494 -2.265,0.784"
             style="fill:#003263;fill-opacity:1;fill-rule:nonzero;stroke:none"
             id="path211171" />
        </g>
        <g
           id="g211173"
           transform="matrix(0.35277777,0,0,-0.35277777,339.40919,282.33732)">
          <path
             d="m 0,0 c 1.439,-0.425 2.231,-0.905 2.231,-0.905 -11.888,-2.578 -17.242,-10.762 -28.201,-21.703 -10.577,-10.568 -19.196,-10.742 -23.632,-9.773 4.033,-1.189 13.192,-1.939 24.654,9.512 10.957,10.941 16.313,19.125 28.2,21.702 0,0 -1.164,0.71 -3.252,1.167"
             style="fill:#003263;fill-opacity:1;fill-rule:nonzero;stroke:none"
             id="path211175" />
        </g>
        <g
           id="g211177"
           transform="matrix(0.35277777,0,0,-0.35277777,339.42679,293.59107)">
          <path
             d="m 0,0 -0.128,-0.128 0.05,-0.051 c 0.114,0.099 0.155,0.081 0.192,0.043 l 1.477,-1.455 c -0.006,0.012 -0.006,0.03 -0.017,0.04 z M 8.433,6.527 C 8.667,6.199 8.717,5.791 8.426,5.316 8.447,5.158 8.367,4.987 8.21,4.822 8.044,4.648 7.869,4.554 7.705,4.579 7.166,4.243 6.695,4.381 6.331,4.725 L 5.787,5.24 5.647,5.095 5.7,5.046 C 5.769,5.11 5.836,5.155 5.896,5.098 L 6.847,4.196 C 7.303,3.763 7.929,3.645 8.649,4.405 9.369,5.163 9.219,5.782 8.761,6.216 Z M 3.951,0.383 C 3.853,0.454 3.814,0.457 3.77,0.417 3.766,0.41 3.77,0.402 3.763,0.395 L 2.325,-1.062 2.317,-1.052 1.691,-1.689 2.09,-2.079 C 2.128,-2.12 2.145,-2.161 2.047,-2.276 l 0.052,-0.051 2.18,2.214 c 0.046,0.045 0.084,0.041 0.186,-0.034 l 0.05,0.05 -0.526,0.519 z M -9.314,-9.079 -9.75,-9.428 -9.705,-9.484 c 0.023,0.02 0.087,0.064 0.15,0.053 l 0.888,-0.208 -0.01,0.411 z m 3.51,-0.417 -0.797,0.175 -0.547,-0.438 -0.044,0.055 c 0.009,0.01 0.074,0.061 0.047,0.093 -0.088,0.112 -0.688,0.174 -0.797,0.217 0.015,-0.104 0.012,-0.775 0.046,-0.82 0.024,-0.032 0.091,0.021 0.114,0.041 l 0.044,-0.058 -0.406,-0.325 0.017,-0.798 c 0.006,-0.025 -0.015,-0.047 -0.046,-0.074 l 0.044,-0.056 0.906,0.724 -0.045,0.058 c -0.023,-0.021 -0.089,-0.073 -0.113,-0.04 -0.036,0.043 -0.031,0.716 -0.046,0.817 0.11,-0.041 0.709,-0.104 0.797,-0.216 0.026,-0.031 -0.039,-0.082 -0.047,-0.092 l 0.045,-0.054 0.964,0.771 -0.042,0.058 c -0.043,-0.035 -0.065,-0.045 -0.094,-0.038 m 25.447,26.24 c -0.02,0.009 -0.029,0.008 -0.044,0.013 0.041,-0.082 0.033,-0.149 -0.013,-0.193 l -1.21,-1.182 -0.15,0.154 -0.569,-0.556 0.392,-0.399 c 0.057,-0.062 0.011,-0.131 -0.045,-0.195 l 0.051,-0.053 1.895,1.855 c 0.069,0.068 0.102,0.075 0.207,0.027 l 0.044,0.043 -0.517,0.528 z m 11.738,7.845 C 31.32,24.562 31.25,24.545 31.212,24.618 l -0.87,1.612 0.748,0.404 c 0.04,0.024 0.105,0.03 0.155,-0.064 l 0.064,0.034 -0.412,0.764 -0.064,-0.033 c 0.05,-0.096 0.011,-0.143 -0.031,-0.166 l -0.021,-0.011 0.014,-0.027 -0.064,-0.035 c -0.009,0.015 -0.015,0.014 -0.023,0.022 l -0.833,-0.451 0.821,-1.522 c 0.04,-0.073 0.11,-0.057 0.169,-0.03 L 30.9,25.053 30.257,24.707 30.508,24.24 c 0.04,-0.075 -0.015,-0.122 -0.07,-0.161 l 0.035,-0.061 0.942,0.507 z m -2.777,1.392 c -0.038,-0.017 -0.089,-0.013 -0.135,0.045 l -0.073,-0.038 0.399,-0.74 0.063,0.035 c -0.05,0.093 -0.01,0.143 0.033,0.166 l 0.57,0.307 -0.288,0.531 z m -12.259,-9.656 -0.121,-0.118 0.05,-0.051 c 0.065,0.054 0.136,0.099 0.196,0.04 l 1.065,-1.091 c -0.001,0 0,0.003 -0.001,0.004 z m -2.444,-5.18 C 13.863,10.959 13.768,10.714 13.572,10.51 13.4,10.33 13.168,10.183 12.932,10.143 12.509,9.9 12.041,9.822 11.606,10.074 c 0.062,-0.112 0.14,-0.223 0.25,-0.329 0.705,-0.673 1.571,-0.301 2.171,0.329 0.522,0.547 0.62,1.166 0.662,1.209 0.025,0.027 0.067,0.028 0.114,0.024 l 0.018,0.081 -0.755,0.118 c -0.039,-0.104 -0.092,-0.228 -0.165,-0.361 m 12.075,10.264 c -0.144,0.079 -0.355,0.187 -0.592,0.304 l -0.523,-0.414 -0.044,0.055 c 0.018,0.014 0.059,0.047 0.027,0.089 -0.041,0.053 -0.287,0.153 -0.386,0.212 l -0.215,-0.172 0.305,-0.149 -0.774,-0.611 -0.076,0.328 -0.323,-0.254 c 0.038,-0.106 0.075,-0.373 0.115,-0.424 0.033,-0.042 0.074,-0.009 0.094,0.006 l 0.045,-0.057 -0.341,-0.267 c 0.054,-0.211 0.109,-0.426 0.168,-0.638 0.012,-0.043 -0.019,-0.092 -0.059,-0.12 l 0.047,-0.056 0.7,0.552 -0.045,0.058 c -0.019,-0.016 -0.06,-0.048 -0.094,-0.007 -0.04,0.051 -0.078,0.318 -0.115,0.423 l 1.084,0.859 c 0.097,-0.059 0.345,-0.16 0.384,-0.211 0.033,-0.043 -0.007,-0.076 -0.027,-0.091 l 0.044,-0.053 0.774,0.61 -0.042,0.055 c -0.038,-0.029 -0.092,-0.048 -0.131,-0.027 m -39.52,-33.733 c -0.043,0.071 0.013,0.127 0.092,0.183 l -0.038,0.06 -0.287,-0.176 0.402,-0.654 c 0.237,-0.388 0.29,-0.827 -0.032,-1.246 0.012,-0.185 -0.128,-0.351 -0.351,-0.486 -0.166,-0.103 -0.324,-0.148 -0.461,-0.127 -0.433,-0.201 -0.783,-0.195 -1.056,-0.058 l 0.039,-0.065 c 0.329,-0.538 0.903,-0.814 1.796,-0.268 0.893,0.547 0.909,1.184 0.58,1.721 z m -8.205,-5.422 -0.59,1.423 c -0.02,0.049 -0.02,0.095 0.113,0.162 l -0.027,0.065 -0.405,-0.168 0.657,-1.584 z M 7.262,6.539 7.873,5.96 C 7.852,5.999 7.834,6.039 7.796,6.074 L 7.154,6.682 7.063,6.589 7.115,6.539 c 0.029,0.023 0.088,0.057 0.147,0 m 4.943,4.132 c -0.038,0.288 0.121,0.6 0.333,0.823 0.272,0.285 0.692,0.477 0.763,0.41 0.028,-0.029 0.037,-0.063 0.054,-0.087 l 0.053,0.019 c -10e-4,0.039 -0.005,0.077 -0.015,0.089 -0.028,0.028 -0.05,0.049 -0.081,0.07 l 0.015,0.076 0.036,-0.006 -0.253,0.693 -0.065,-0.035 c 0.004,-0.03 0.004,-0.072 -0.023,-0.102 -0.024,-0.026 -0.076,-0.059 -0.146,-0.1 l 0.052,-0.143 -0.088,-0.032 c -0.015,0.025 -0.027,0.059 -0.056,0.087 -0.005,0.006 -0.031,0 -0.045,10e-4 -0.029,-0.019 -0.054,-0.032 -0.085,-0.053 -0.175,-0.114 -0.391,-0.261 -0.572,-0.451 -0.15,-0.156 -0.283,-0.329 -0.388,-0.513 -0.037,-0.206 0.003,-0.414 0.182,-0.585 0.101,-0.096 0.213,-0.143 0.329,-0.161 m 4.71,6.211 0.186,-0.192 0.801,0.783 c 0.032,0.033 0.06,0.093 -0.019,0.172 l 0.049,0.051 0.276,-0.284 0.313,0.309 c 0.035,0.033 0.094,0.056 0.176,-0.028 l 0.052,0.05 -0.517,0.528 -0.05,-0.049 c -0.011,0.014 -0.02,0.01 -0.031,0.016 0.049,-0.065 0.035,-0.114 0.005,-0.144 z M 7.852,7.316 7.799,7.366 7.702,7.262 7.796,7.174 C 7.79,7.218 7.81,7.264 7.852,7.316 m 10.936,9.5 -0.317,0.324 -0.048,-0.049 c -0.007,0.007 -0.012,0.003 -0.019,0.008 0.06,-0.071 0.043,-0.126 0.013,-0.156 l -0.8,-0.781 0.244,-0.251 z m 4.723,5.026 0.306,-0.15 0.215,0.171 -0.922,0.453 -0.086,-0.069 0.236,-0.995 0.328,0.259 z m -43.073,-39.241 c 0.037,-0.133 0.026,-0.171 -0.033,-0.195 l -0.087,-0.035 0.075,-0.181 -0.067,-0.029 c -0.064,0.11 -0.098,0.128 -0.159,0.103 l -2.46,-1.021 0.193,-0.469 c 0.021,-0.048 0.021,-0.095 -0.113,-0.165 l 0.028,-0.064 2.867,1.19 c 0.061,0.025 0.095,0.007 0.159,-0.102 l 0.066,0.028 -0.402,0.967 z m 3.402,3.685 0.038,-0.062 c 0.003,0.003 0.006,0.003 0.01,0.004 l -0.039,0.062 z M 0.783,0.693 0.731,0.744 0.624,0.637 0.726,0.537 C 0.711,0.57 0.713,0.612 0.783,0.693 M 6.436,5.821 6.385,5.872 6.335,5.82 6.418,5.742 C 6.416,5.774 6.424,5.804 6.436,5.821 m -13.9,-14.537 -0.02,0.938 c 0.003,0.067 0.062,0.118 0.07,0.125 l -0.045,0.056 -0.524,-0.418 0.012,-0.589 z m -7.231,-5.536 -0.544,0.891 c -0.044,0.072 0.003,0.12 0.031,0.145 l -0.038,0.061 -0.226,-0.137 0.472,-0.772 c 0.078,-0.128 0.184,-0.183 0.305,-0.188"
             style="fill:#003263;fill-opacity:1;fill-rule:nonzero;stroke:none"
             id="path211179" />
        </g>
        <g
           id="g211181"
           transform="matrix(0.35277777,0,0,-0.35277777,331.66752,299.88734)">
          <path
             d="M 0,0 1.891,0.781 C 1.95,0.808 1.961,0.843 1.925,0.977 L 1.991,1.005 2.394,0.038 2.327,0.009 C 2.263,0.119 2.229,0.137 2.168,0.112 l -2.866,-1.191 -0.029,0.067 c 0.133,0.067 0.133,0.114 0.114,0.162 L -1.676,1.712 C -1.697,1.76 -1.73,1.792 -1.871,1.745 l -0.027,0.066 1.131,0.47 0.028,-0.066 C -0.872,2.148 -0.872,2.102 -0.853,2.053 Z"
             style="fill:#fdb927;fill-opacity:1;fill-rule:nonzero;stroke:none"
             id="path211183" />
        </g>
        <g
           id="g211185"
           transform="matrix(0.35277777,0,0,-0.35277777,333.63147,298.2647)">
          <path
             d="M 0,0 C -0.044,0.072 -0.119,0.046 -0.204,0.001 L -0.241,0.063 0.672,0.621 0.71,0.562 C 0.683,0.536 0.637,0.488 0.68,0.417 l 0.754,-1.233 c 0.159,-0.26 0.434,-0.229 0.728,-0.051 0.295,0.182 0.446,0.414 0.287,0.671 L 1.695,1.037 C 1.652,1.108 1.586,1.09 1.554,1.077 L 1.516,1.137 2.43,1.697 2.468,1.636 C 2.388,1.581 2.331,1.525 2.373,1.453 L 3.059,0.337 C 3.387,-0.2 3.371,-0.838 2.479,-1.383 1.586,-1.93 1.011,-1.653 0.683,-1.115 Z"
             style="fill:#fdb927;fill-opacity:1;fill-rule:nonzero;stroke:none"
             id="path211187" />
        </g>
        <g
           id="g211189"
           transform="matrix(0.35277777,0,0,-0.35277777,336.37978,297.45522)">
          <path
             d="M 0,0 -0.045,0.054 C -0.013,0.08 0.007,0.103 0.002,0.13 L -0.032,1.725 -1.426,2.051 C -1.489,2.061 -1.553,2.019 -1.577,1.998 l -0.044,0.056 0.99,0.792 0.045,-0.055 C -0.604,2.774 -0.694,2.704 -0.656,2.658 -0.597,2.584 -0.258,2.559 -0.05,2.518 -0.067,2.719 -0.04,3.069 -0.081,3.119 -0.118,3.167 -0.168,3.125 -0.212,3.09 L -0.255,3.145 0.669,3.886 0.714,3.83 C 0.706,3.823 0.649,3.771 0.645,3.705 L 0.672,2.35 2.326,1.987 C 2.355,1.979 2.376,1.99 2.419,2.024 L 2.461,1.967 1.496,1.194 1.451,1.249 C 1.459,1.259 1.524,1.31 1.5,1.342 1.41,1.454 0.812,1.516 0.703,1.559 0.716,1.456 0.713,0.785 0.746,0.74 0.773,0.708 0.838,0.761 0.862,0.78 L 0.906,0.723 Z"
             style="fill:#fdb927;fill-opacity:1;fill-rule:nonzero;stroke:none"
             id="path211191" />
        </g>
        <g
           id="g211193"
           transform="matrix(0.35277777,0,0,-0.35277777,340.06783,293.77868)">
          <path
             d="M 0,0 1.436,1.456 C 1.483,1.502 1.477,1.54 1.394,1.649 L 1.444,1.7 2.19,0.964 2.14,0.915 C 2.038,0.989 2,0.993 1.953,0.947 l -2.18,-2.211 -0.05,0.05 c 0.096,0.114 0.078,0.155 0.041,0.195 L -2.211,0.925 C -2.249,0.963 -2.29,0.981 -2.405,0.882 l -0.049,0.05 0.86,0.872 0.05,-0.05 C -1.64,1.64 -1.622,1.599 -1.584,1.561 Z"
             style="fill:#fdb927;fill-opacity:1;fill-rule:nonzero;stroke:none"
             id="path211195" />
        </g>
        <g
           id="g211197"
           transform="matrix(0.35277777,0,0,-0.35277777,341.32777,291.60606)">
          <path
             d="m 0,0 c -0.061,0.057 -0.127,0.013 -0.197,-0.051 l -0.052,0.048 0.736,0.777 0.052,-0.05 C 0.52,0.695 0.487,0.634 0.548,0.578 l 1.048,-0.995 c 0.221,-0.209 0.479,-0.108 0.716,0.143 0.238,0.249 0.325,0.511 0.102,0.721 L 1.366,1.441 c -0.06,0.058 -0.12,0.023 -0.149,0 l -0.05,0.05 0.736,0.777 0.052,-0.05 C 1.895,2.146 1.852,2.077 1.915,2.02 l 0.95,-0.9 C 3.323,0.685 3.473,0.067 2.752,-0.693 2.032,-1.453 1.407,-1.336 0.948,-0.901 Z"
             style="fill:#fdb927;fill-opacity:1;fill-rule:nonzero;stroke:none"
             id="path211199" />
        </g>
        <g
           id="g211201"
           transform="matrix(0.35277777,0,0,-0.35277777,343.87211,288.90346)">
          <path
             d="M 0,0 0.333,-0.909 0.246,-0.941 c -0.016,0.024 -0.028,0.058 -0.055,0.086 -0.07,0.066 -0.49,-0.125 -0.761,-0.409 -0.308,-0.323 -0.515,-0.84 -0.149,-1.191 0.364,-0.347 0.872,-0.117 1.182,0.206 0.327,0.344 0.396,0.83 0.336,0.886 -0.029,0.029 -0.051,0.049 -0.082,0.07 L 0.732,-1.217 1.711,-1.371 1.693,-1.452 C 1.647,-1.448 1.604,-1.45 1.579,-1.475 1.538,-1.518 1.441,-2.138 0.919,-2.685 c -0.602,-0.63 -1.467,-1.003 -2.172,-0.329 -0.707,0.674 -0.373,1.558 0.226,2.186 0.181,0.189 0.397,0.336 0.57,0.451 0.173,0.111 0.324,0.192 0.368,0.24 0.029,0.03 0.029,0.071 0.023,0.101 z"
             style="fill:#fdb927;fill-opacity:1;fill-rule:nonzero;stroke:none"
             id="path211203" />
        </g>
        <g
           id="g211205"
           transform="matrix(0.35277777,0,0,-0.35277777,346.15709,287.56111)">
          <path
             d="M 0,0 C 0.05,0.05 0.064,0.122 0.005,0.214 L 0.057,0.264 0.615,-0.304 0.571,-0.349 C 0.467,-0.3 0.432,-0.307 0.365,-0.376 l -1.897,-1.852 -0.05,0.05 c 0.056,0.064 0.102,0.133 0.044,0.194 l -1.579,1.616 c -0.06,0.059 -0.131,0.014 -0.195,-0.039 l -0.051,0.051 1.933,1.886 c 0.034,0.035 0.061,0.092 -0.017,0.169 l 0.052,0.05 0.557,-0.57 -0.05,-0.05 C -0.971,1.214 -1.03,1.192 -1.065,1.157 l -1.243,-1.215 0.337,-0.345 0.801,0.783 c 0.033,0.033 0.059,0.093 -0.018,0.172 L -1.14,0.603 -0.6,0.047 -0.65,-0.002 c -0.078,0.08 -0.139,0.057 -0.171,0.023 l -0.8,-0.78 0.41,-0.423 z"
             style="fill:#fdb927;fill-opacity:1;fill-rule:nonzero;stroke:none"
             id="path211207" />
        </g>
        <g
           id="g211209"
           transform="matrix(0.35277777,0,0,-0.35277777,347.90743,285.87818)">
          <path
             d="m 0,0 -1.037,0.507 0.264,-1.118 z m 0.828,-0.565 -0.045,0.056 c 0.019,0.014 0.06,0.046 0.027,0.089 -0.04,0.053 -0.287,0.152 -0.385,0.212 l -1.083,-0.859 c 0.038,-0.105 0.075,-0.372 0.114,-0.423 0.034,-0.042 0.075,-0.009 0.096,0.006 l 0.044,-0.057 -0.701,-0.552 -0.044,0.056 c 0.037,0.028 0.07,0.076 0.056,0.12 -0.316,1.166 -0.601,2.421 -0.653,2.486 C -1.772,0.601 -1.793,0.6 -1.843,0.566 l -0.046,0.058 0.975,0.772 0.045,-0.055 C -0.912,1.297 -0.919,1.278 -0.893,1.244 -0.848,1.188 0.842,0.394 1.427,0.076 1.466,0.054 1.521,0.073 1.559,0.102 L 1.6,0.047 Z"
             style="fill:#fdb927;fill-opacity:1;fill-rule:nonzero;stroke:none"
             id="path211211" />
        </g>
        <g
           id="g211213"
           transform="matrix(0.35277777,0,0,-0.35277777,350.11356,283.82068)">
          <path
             d="M 0,0 C 0.042,0.023 0.083,0.072 0.031,0.167 L 0.095,0.2 0.507,-0.565 0.444,-0.599 C 0.393,-0.504 0.329,-0.512 0.288,-0.534 L -0.461,-0.938 0.41,-2.55 c 0.04,-0.074 0.109,-0.057 0.17,-0.03 l 0.033,-0.063 -0.941,-0.508 -0.034,0.061 c 0.053,0.039 0.108,0.087 0.07,0.161 L -1.164,-1.316 -1.91,-1.72 c -0.043,-0.023 -0.084,-0.074 -0.032,-0.165 l -0.065,-0.035 -0.412,0.764 0.063,0.036 c 0.05,-0.096 0.114,-0.088 0.158,-0.067 z"
             style="fill:#fdb927;fill-opacity:1;fill-rule:nonzero;stroke:none"
             id="path211215" />
        </g>
      </g>
    </g>
  </g>
</svg>
