<?xml version="1.0" encoding="UTF-8" standalone="no"?>
<svg
   id="svg24048"
   version="1.1"
   viewBox="0 0 42.665294 45.725292"
   height="45.725292mm"
   width="42.665295mm"
   xmlns="http://www.w3.org/2000/svg"
   xmlns:svg="http://www.w3.org/2000/svg"
   xmlns:rdf="http://www.w3.org/1999/02/22-rdf-syntax-ns#"
   xmlns:cc="http://creativecommons.org/ns#"
   xmlns:dc="http://purl.org/dc/elements/1.1/">
  <defs
     id="defs24042">
    <clipPath
       clipPathUnits="userSpaceOnUse"
       id="clipPath24080">
      <path
         d="m 507.062,749.519 h 54.198 v 57.989 h -54.198 z"
         id="path24078" />
    </clipPath>
    <clipPath
       clipPathUnits="userSpaceOnUse"
       id="clipPath25530">
      <path
         d="M 623.984,841.89 V 159.133 l 566.568,35.081 V 841.89 Z"
         id="path25528" />
    </clipPath>
    <clipPath
       clipPathUnits="userSpaceOnUse"
       id="clipPath25548">
      <path
         d="M 0,0 H 1190.551 V 841.89 H 0 Z"
         id="path25546" />
    </clipPath>
    <clipPath
       clipPathUnits="userSpaceOnUse"
       id="clipPath25560">
      <path
         d="M 779.756,858.745 H 1206.25 V 769.787 H 779.756 Z"
         id="path25558" />
    </clipPath>
    <clipPath
       clipPathUnits="userSpaceOnUse"
       id="clipPath25564">
      <path
         d="m 780.756,857.745 v -86.958 l 424.489,24.891 v 62.067 z"
         id="path25562" />
    </clipPath>
    <clipPath
       clipPathUnits="userSpaceOnUse"
       id="clipPath25568">
      <path
         d="m 857.806,857.745 v -82.44 l 347.44,20.373 v 62.067 z"
         id="path25566" />
    </clipPath>
    <clipPath
       clipPathUnits="userSpaceOnUse"
       id="clipPath25572">
      <path
         d="m 780.756,857.745 v -86.958 l 424.489,24.891 v 62.067 z"
         id="path25570" />
    </clipPath>
    <clipPath
       clipPathUnits="userSpaceOnUse"
       id="clipPath25640">
      <path
         d="M 0,0 H 1190.551 V 841.89 H 0 Z"
         id="path25638" />
    </clipPath>
    <clipPath
       clipPathUnits="userSpaceOnUse"
       id="clipPath25660">
      <path
         d="m 1036.364,33.924 h 120.941 v 129.615 h -120.941 z"
         id="path25658" />
    </clipPath>
    <clipPath
       clipPathUnits="userSpaceOnUse"
       id="clipPath25892">
      <path
         d="M 0,0 H 1190.551 V 841.89 H 0 Z"
         id="path25890" />
    </clipPath>
    <clipPath
       clipPathUnits="userSpaceOnUse"
       id="clipPath26050">
      <path
         d="m 60.992,53.577 h 84.265 v 90.309 H 60.992 Z"
         id="path26048" />
    </clipPath>
    <clipPath
       clipPathUnits="userSpaceOnUse"
       id="clipPath26294">
      <path
         d="M 0,0 H 1190.551 V 841.89 H 0 Z"
         id="path26292" />
    </clipPath>
    <clipPath
       clipPathUnits="userSpaceOnUse"
       id="clipPath26302">
      <path
         d="M 163.062,644.976 H 596.276 V 168.018 H 163.062 Z"
         id="path26300" />
    </clipPath>
    <clipPath
       clipPathUnits="userSpaceOnUse"
       id="clipPath26306">
      <path
         d="M 164.062,643.976 V 169.018 l 431.214,24.891 v 450.067 z"
         id="path26304" />
    </clipPath>
    <clipPath
       clipPathUnits="userSpaceOnUse"
       id="clipPath26310">
      <path
         d="M 164.062,643.976 V 169.018 l 431.213,24.892 v 450.066 z"
         id="path26308" />
    </clipPath>
    <clipPath
       clipPathUnits="userSpaceOnUse"
       id="clipPath26314">
      <path
         d="M 164.062,643.976 V 169.018 l 431.214,24.891 v 450.067 z"
         id="path26312" />
    </clipPath>
  </defs>
  <metadata
     id="metadata24045">
    <rdf:RDF>
      <cc:Work
         rdf:about="">
        <dc:format>image/svg+xml</dc:format>
        <dc:type
           rdf:resource="http://purl.org/dc/dcmitype/StillImage" />
        <dc:title />
      </cc:Work>
    </rdf:RDF>
  </metadata>
  <g
     transform="translate(-256.59656,-246.6532)"
     id="layer1">
    <g
       transform="matrix(0.35277777,0,0,-0.35277777,-109.00962,304.34612)"
       id="g25654">
      <g
         clip-path="url(#clipPath25660)"
         id="g25656">
        <g
           transform="translate(1047.5426,90.5238)"
           id="g25662">
          <path
             id="path25664"
             style="fill:#005695;fill-opacity:1;fill-rule:nonzero;stroke:none"
             d="M 0,0 -0.217,0.922 C -0.339,1.439 -0.594,2.133 -1.333,1.958 -1.922,1.821 -2.039,1.392 -1.849,0.58 l 0.227,-0.96 z M -2.48,-0.584 -2.696,0.33 C -2.853,0.999 -3.218,1.266 -3.639,1.165 -4.124,1.051 -4.284,0.662 -4.104,-0.092 l 0.193,-0.827 z M -4.534,-2.123 -5.052,0.07 c -0.198,0.852 -0.014,1.817 1.011,2.059 0.635,0.149 1.152,-0.148 1.462,-0.688 l 0.016,0.004 C -2.649,2.171 -2.214,2.81 -1.489,2.979 -0.266,3.266 0.366,2.293 0.617,1.227 L 1.094,-0.8 Z" />
        </g>
        <g
           transform="translate(1041.6641,94.7818)"
           id="g25666">
          <path
             id="path25668"
             style="fill:#005695;fill-opacity:1;fill-rule:nonzero;stroke:none"
             d="M 0,0 -0.448,3.803 0.476,3.912 0.802,1.131 2.215,1.296 1.904,3.931 2.83,4.04 3.139,1.405 4.697,1.586 4.353,4.516 5.276,4.624 5.741,0.676 Z" />
        </g>
        <g
           transform="translate(1041.0459,101.0426)"
           id="g25670">
          <path
             id="path25672"
             style="fill:#005695;fill-opacity:1;fill-rule:nonzero;stroke:none"
             d="M 0,0 0.014,1.364 4.336,4.121 4.353,4.136 V 4.12 L 4.336,4.136 0.041,4.18 0.051,5.21 5.832,5.15 5.819,3.846 1.357,1.032 V 1.015 L 5.79,0.971 5.779,-0.057 Z" />
        </g>
        <g
           transform="translate(1046.3856,109.9689)"
           id="g25674">
          <path
             id="path25676"
             style="fill:#005695;fill-opacity:1;fill-rule:nonzero;stroke:none"
             d="M 0,0 C 0.192,1.275 -0.2,2.4 -1.59,2.609 -2.978,2.816 -3.664,1.997 -3.85,0.753 l -0.14,-0.93 3.876,-0.582 z m -5.064,-1.054 0.339,2.252 C -4.498,2.7 -3.367,3.967 -1.428,3.674 0.526,3.38 1.18,1.59 0.972,0.216 L 0.653,-1.915 Z" />
        </g>
        <g
           transform="translate(1042.6139,116.0954)"
           id="g25678">
          <path
             id="path25680"
             style="fill:#005695;fill-opacity:1;fill-rule:nonzero;stroke:none"
             d="M 0,0 0.25,0.996 5.857,-0.41 5.607,-1.407 Z" />
        </g>
        <g
           transform="translate(1050.2445,122.4605)"
           id="g25682">
          <path
             id="path25684"
             style="fill:#005695;fill-opacity:1;fill-rule:nonzero;stroke:none"
             d="m 0,0 c 0.117,-0.789 0.033,-1.608 -0.268,-2.446 -0.599,-1.675 -2.166,-2.467 -3.866,-1.86 -1.745,0.625 -2.454,2.232 -1.853,3.907 0.296,0.831 0.739,1.514 1.451,1.901 l 0.468,-0.974 c -0.463,-0.225 -0.844,-0.687 -1.041,-1.233 -0.401,-1.121 0.193,-2.176 1.277,-2.562 1.161,-0.418 2.288,0.02 2.692,1.143 0.176,0.492 0.242,0.971 0.171,1.378 l -1.284,0.46 -0.399,-1.116 -0.877,0.314 0.747,2.084 z" />
        </g>
        <g
           transform="translate(1051.9484,126.7607)"
           id="g25686">
          <path
             id="path25688"
             style="fill:#005695;fill-opacity:1;fill-rule:nonzero;stroke:none"
             d="M 0,0 C 0.561,1.061 0.123,2.189 -0.968,2.765 -1.986,3.301 -3.165,3.027 -3.726,1.966 -4.282,0.914 -3.843,-0.214 -2.825,-0.752 -1.735,-1.329 -0.557,-1.055 0,0 m -4.552,2.395 c 0.813,1.61 2.477,2.171 4.116,1.307 1.595,-0.843 2.069,-2.534 1.255,-4.146 -0.83,-1.573 -2.494,-2.134 -4.09,-1.293 -1.639,0.866 -2.114,2.558 -1.281,4.132" />
        </g>
        <g
           transform="translate(1055.3704,138.4818)"
           id="g25690">
          <path
             id="path25692"
             style="fill:#005695;fill-opacity:1;fill-rule:nonzero;stroke:none"
             d="M 0,0 C -0.377,0.023 -0.741,-0.185 -0.994,-0.496 -1.295,-0.862 -1.428,-1.364 -1.017,-1.698 -0.121,-2.432 1.105,0.11 2.697,-1.191 3.657,-1.977 3.506,-3.119 2.788,-3.997 2.332,-4.555 1.717,-4.959 0.981,-4.968 L 0.89,-3.892 c 0.459,-0.048 0.903,0.148 1.192,0.502 0.301,0.368 0.439,0.949 0.028,1.286 -0.98,0.801 -2.153,-1.784 -3.753,-0.477 -0.924,0.756 -0.682,1.929 -0.005,2.758 0.383,0.467 0.899,0.826 1.511,0.905 z" />
        </g>
        <g
           transform="translate(1056.4358,141.5463)"
           id="g25694">
          <path
             id="path25696"
             style="fill:#005695;fill-opacity:1;fill-rule:nonzero;stroke:none"
             d="M 0,0 2.731,2.684 3.383,2.022 1.386,0.056 2.383,-0.956 4.274,0.906 4.927,0.242 3.036,-1.619 l 1.1,-1.117 2.1,2.066 0.654,-0.662 -2.835,-2.789 z" />
        </g>
        <g
           transform="translate(1061.0078,145.8814)"
           id="g25698">
          <path
             id="path25700"
             style="fill:#005695;fill-opacity:1;fill-rule:nonzero;stroke:none"
             d="M 0,0 1.086,0.825 5.915,-0.897 5.937,-0.9 5.925,-0.909 5.928,-0.888 3.327,2.532 4.146,3.154 7.647,-1.446 6.607,-2.238 1.649,-0.44 1.634,-0.448 4.32,-3.977 3.501,-4.601 Z" />
        </g>
        <g
           transform="translate(1067.1989,150.3087)"
           id="g25702">
          <path
             id="path25704"
             style="fill:#005695;fill-opacity:1;fill-rule:nonzero;stroke:none"
             d="M 0,0 0.876,0.537 3.901,-4.39 3.024,-4.928 Z" />
        </g>
        <g
           transform="translate(1074.7996,148.7995)"
           id="g25706">
          <path
             id="path25708"
             style="fill:#005695;fill-opacity:1;fill-rule:nonzero;stroke:none"
             d="m 0,0 c 1.083,0.52 1.401,1.687 0.867,2.798 -0.498,1.039 -1.609,1.519 -2.69,1 C -2.898,3.281 -3.216,2.114 -2.717,1.077 -2.183,-0.035 -1.074,-0.516 0,0 M -2.234,4.633 C -0.621,5.444 1.05,4.904 1.853,3.236 2.634,1.609 2.009,-0.031 0.396,-0.841 -1.208,-1.613 -2.88,-1.076 -3.661,0.551 -4.463,2.222 -3.838,3.862 -2.234,4.633" />
        </g>
        <g
           transform="translate(1080.0892,153.6714)"
           id="g25710">
          <path
             id="path25712"
             style="fill:#005695;fill-opacity:1;fill-rule:nonzero;stroke:none"
             d="M 0,0 C 0.551,0.182 1.178,0.439 0.944,1.153 0.73,1.805 0.099,1.683 -0.404,1.518 L -1.25,1.24 -0.76,-0.249 Z m -2.504,1.758 1.908,0.627 C 0.46,2.73 1.566,2.715 1.97,1.481 2.23,0.689 1.963,-0.041 1.188,-0.425 L 3.444,-2.376 2.265,-2.762 0.227,-0.852 -0.486,-1.087 0.278,-3.414 -0.7,-3.736 Z" />
        </g>
        <g
           transform="translate(1090.6594,157.2487)"
           id="g25714">
          <path
             id="path25716"
             style="fill:#005695;fill-opacity:1;fill-rule:nonzero;stroke:none"
             d="m 0,0 c -0.261,0.279 -0.667,0.371 -1.065,0.315 -0.468,-0.061 -0.91,-0.338 -0.839,-0.864 0.157,-1.147 2.787,-0.122 3.065,-2.162 0.167,-1.228 -0.721,-1.96 -1.846,-2.113 -0.713,-0.097 -1.438,0.027 -1.983,0.52 l 0.666,0.85 c 0.303,-0.346 0.762,-0.507 1.215,-0.445 0.47,0.064 0.968,0.396 0.896,0.922 -0.171,1.255 -2.791,0.164 -3.07,2.21 -0.161,1.182 0.816,1.875 1.876,2.019 0.599,0.082 1.219,-0.006 1.722,-0.366 z" />
        </g>
        <g
           transform="translate(1093.5343,158.7658)"
           id="g25718">
          <path
             id="path25720"
             style="fill:#005695;fill-opacity:1;fill-rule:nonzero;stroke:none"
             d="M 0,0 3.828,0.102 3.852,-0.829 1.053,-0.904 1.09,-2.324 3.744,-2.253 3.77,-3.183 1.115,-3.254 1.157,-4.822 4.105,-4.744 4.13,-5.674 0.153,-5.78 Z" />
        </g>
        <g
           transform="translate(1103.6118,157.0849)"
           id="g25722">
          <path
             id="path25724"
             style="fill:#005695;fill-opacity:1;fill-rule:nonzero;stroke:none"
             d="m 0,0 c -0.381,0.486 -0.76,0.645 -1.159,0.681 -1.187,0.109 -2.058,-0.728 -2.164,-1.875 -0.113,-1.227 0.593,-2.212 1.78,-2.321 0.463,-0.042 0.929,0.128 1.356,0.581 l 0.79,-0.678 c -0.585,-0.669 -1.394,-0.907 -2.24,-0.829 -1.773,0.164 -2.932,1.483 -2.767,3.281 0.172,1.845 1.55,2.932 3.323,2.769 0.78,-0.072 1.424,-0.385 1.932,-1.098 z" />
        </g>
        <g
           transform="translate(1108.2483,152.5343)"
           id="g25726">
          <path
             id="path25728"
             style="fill:#005695;fill-opacity:1;fill-rule:nonzero;stroke:none"
             d="M 0,0 C 1.169,-0.271 2.146,0.441 2.425,1.642 2.685,2.763 2.121,3.833 0.951,4.104 -0.21,4.372 -1.19,3.661 -1.45,2.54 -1.727,1.339 -1.161,0.268 0,0 M 1.153,5.013 C 2.918,4.637 3.887,3.173 3.468,1.367 3.061,-0.39 1.547,-1.282 -0.218,-0.906 c -1.734,0.402 -2.703,1.867 -2.295,3.625 0.419,1.806 1.932,2.695 3.666,2.294" />
        </g>
        <g
           transform="translate(1114.6443,155.9677)"
           id="g25730">
          <path
             id="path25732"
             style="fill:#005695;fill-opacity:1;fill-rule:nonzero;stroke:none"
             d="m 0,0 1.271,-0.493 1.046,-5.021 0.01,-0.021 -0.015,0.007 0.023,0.007 1.56,4.002 0.959,-0.373 -2.103,-5.387 -1.216,0.475 -1.051,5.17 -0.015,0.006 -1.612,-4.13 -0.958,0.374 z" />
        </g>
        <g
           transform="translate(1121.1002,147.8199)"
           id="g25734">
          <path
             id="path25736"
             style="fill:#005695;fill-opacity:1;fill-rule:nonzero;stroke:none"
             d="M 0,0 C 1.126,-0.63 2.316,-0.658 3.001,0.569 3.687,1.794 3.159,2.724 2.063,3.339 L 1.242,3.796 -0.67,0.376 Z M 0.798,5.112 2.787,4 C 4.113,3.259 4.898,1.753 3.943,0.043 2.978,-1.683 1.072,-1.664 -0.141,-0.986 l -1.882,1.051 z" />
        </g>
        <g
           transform="translate(1128.7856,144.3324)"
           id="g25738">
          <path
             id="path25740"
             style="fill:#005695;fill-opacity:1;fill-rule:nonzero;stroke:none"
             d="M 0,0 0.694,2.416 -1.438,1.075 Z m 1.094,3.647 0.712,-0.533 -1.464,-6.122 -0.94,0.703 0.359,1.383 -2.008,1.501 -1.213,-0.748 -0.92,0.688 z" />
        </g>
        <g
           transform="translate(1133.6482,141.6306)"
           id="g25742">
          <path
             id="path25744"
             style="fill:#005695;fill-opacity:1;fill-rule:nonzero;stroke:none"
             d="M 0,0 C 0.419,-0.402 0.943,-0.834 1.461,-0.293 1.935,0.204 1.533,0.704 1.148,1.069 L 0.506,1.685 -0.579,0.553 Z M 0.371,3.034 1.822,1.646 C 2.626,0.879 3.131,-0.104 2.234,-1.043 1.659,-1.645 0.888,-1.754 0.183,-1.251 l -0.655,-2.906 -0.901,0.858 0.727,2.695 -0.542,0.52 -1.693,-1.771 -0.745,0.712 z" />
        </g>
        <g
           transform="translate(1136.6796,137.1953)"
           id="g25746">
          <path
             id="path25748"
             style="fill:#005695;fill-opacity:1;fill-rule:nonzero;stroke:none"
             d="M 0,0 1.133,3.79 1.964,2.803 1.116,0.235 3.803,0.616 4.59,-0.321 0.661,-0.786 -1.233,-2.379 -1.895,-1.59 Z" />
        </g>
        <g
           transform="translate(1145.3112,127.8389)"
           id="g25750">
          <path
             id="path25752"
             style="fill:#005695;fill-opacity:1;fill-rule:nonzero;stroke:none"
             d="m 0,0 c 0.189,0.588 0.104,0.991 -0.088,1.341 -0.576,1.043 -1.76,1.293 -2.768,0.736 -1.078,-0.596 -1.497,-1.731 -0.92,-2.775 0.225,-0.406 0.628,-0.697 1.243,-0.798 l -0.118,-1.033 c -0.882,0.108 -1.532,0.645 -1.944,1.389 -0.861,1.557 -0.42,3.257 1.159,4.13 1.624,0.896 3.298,0.366 4.159,-1.193 0.379,-0.685 0.482,-1.393 0.179,-2.213 z" />
        </g>
        <g
           transform="translate(1144.1525,121.4396)"
           id="g25754">
          <path
             id="path25756"
             style="fill:#005695;fill-opacity:1;fill-rule:nonzero;stroke:none"
             d="M 0,0 C 0.434,-1.12 1.572,-1.527 2.723,-1.083 3.795,-0.668 4.363,0.4 3.93,1.52 3.499,2.633 2.361,3.041 1.287,2.626 0.138,2.18 -0.43,1.112 0,0 M 4.795,1.865 C 5.478,0.192 4.809,-1.431 3.08,-2.101 1.397,-2.75 -0.19,-1.999 -0.87,-0.328 -1.513,1.332 -0.845,2.956 0.839,3.608 2.566,4.277 4.152,3.524 4.795,1.865" />
        </g>
        <g
           transform="translate(1150.5123,118.2122)"
           id="g25758">
          <path
             id="path25760"
             style="fill:#005695;fill-opacity:1;fill-rule:nonzero;stroke:none"
             d="m 0,0 0.253,-0.996 -4.699,-1.196 0.605,-2.382 -0.902,-0.231 -0.86,3.379 z" />
        </g>
        <g
           transform="translate(1151.7231,112.9905)"
           id="g25762">
          <path
             id="path25764"
             style="fill:#005695;fill-opacity:1;fill-rule:nonzero;stroke:none"
             d="m 0,0 0.157,-1.016 -4.793,-0.742 0.377,-2.43 -0.921,-0.142 -0.533,3.446 z" />
        </g>
        <g
           transform="translate(1152.4437,107.6193)"
           id="g25766">
          <path
             id="path25768"
             style="fill:#005695;fill-opacity:1;fill-rule:nonzero;stroke:none"
             d="m 0,0 0.188,-3.825 -0.928,-0.047 -0.139,2.8 -1.42,-0.071 0.132,-2.651 -0.93,-0.047 -0.131,2.652 -1.565,-0.077 0.145,-2.944 -0.929,-0.046 -0.198,3.971 z" />
        </g>
        <g
           transform="translate(1146.8997,96.6161)"
           id="g25770">
          <path
             id="path25772"
             style="fill:#005695;fill-opacity:1;fill-rule:nonzero;stroke:none"
             d="M 0,0 C -0.322,0.731 -0.455,1.542 -0.388,2.429 -0.25,4.205 1.052,5.382 2.851,5.244 4.699,5.102 5.806,3.739 5.67,1.965 5.603,1.085 5.355,0.309 4.771,-0.25 L 4.065,0.565 C 4.45,0.903 4.697,1.45 4.743,2.027 4.833,3.216 3.982,4.075 2.833,4.164 1.604,4.26 0.631,3.538 0.54,2.35 0.501,1.829 0.563,1.349 0.738,0.976 L 2.098,0.871 2.188,2.052 3.117,1.981 2.948,-0.225 Z" />
        </g>
        <g
           transform="translate(1151.8445,93.7243)"
           id="g25774">
          <path
             id="path25776"
             style="fill:#005695;fill-opacity:1;fill-rule:nonzero;stroke:none"
             d="m 0,0 -0.77,-3.751 -0.911,0.187 0.562,2.745 -1.391,0.284 -0.534,-2.601 -0.912,0.188 0.533,2.6 -1.535,0.315 -0.593,-2.888 -0.912,0.187 0.8,3.896 z" />
        </g>
        <g
           transform="translate(1043.8301,78.9071)"
           id="g25778">
          <path
             id="path25780"
             style="fill:#bdcae2;fill-opacity:1;fill-rule:nonzero;stroke:none"
             d="m 0,0 c -3.371,7.366 -5.266,15.543 -5.266,24.159 0,32.132 26.141,58.272 58.271,58.272 32.133,0 58.273,-26.14 58.273,-58.272 0,-8.299 -1.739,-16.326 -5.016,-23.687 0.166,-0.074 0.332,-0.148 0.497,-0.223 3.308,7.43 5.064,15.533 5.064,23.91 0,15.71 -6.119,30.48 -17.228,41.589 -11.107,11.11 -25.878,17.227 -41.59,17.227 -32.43,0 -58.814,-26.385 -58.814,-58.816 0,-8.563 1.83,-16.842 5.283,-24.407 C -0.35,-0.166 -0.177,-0.081 0,0" />
        </g>
        <g
           transform="translate(1042.2998,78.1833)"
           id="g25782">
          <path
             id="path25784"
             style="fill:#5c84b7;fill-opacity:1;fill-rule:nonzero;stroke:none"
             d="m 0,0 c -3.523,7.711 -5.391,16.152 -5.391,24.883 0,16.007 6.234,31.056 17.552,42.375 11.319,11.319 26.368,17.552 42.375,17.552 16.007,0 31.057,-6.233 42.375,-17.552 11.319,-11.319 17.553,-26.368 17.553,-42.375 0,-8.541 -1.791,-16.801 -5.165,-24.375 0.164,-0.077 0.328,-0.154 0.491,-0.231 3.408,7.645 5.216,15.984 5.216,24.606 0,16.153 -6.289,31.339 -17.711,42.761 C 85.874,79.066 70.689,85.356 54.536,85.356 38.384,85.356 23.197,79.066 11.776,67.644 0.354,56.222 -5.936,41.036 -5.936,24.883 c 0,-8.816 1.887,-17.34 5.447,-25.126 C -0.326,-0.161 -0.165,-0.08 0,0" />
        </g>
        <g
           transform="translate(1148.9995,69.3449)"
           id="g25786">
          <path
             id="path25788"
             style="fill:#005695;fill-opacity:1;fill-rule:nonzero;stroke:none"
             d="M 0,0 -0.637,1.063 C -0.702,1.169 -2.223,3.69 -4.502,6.01 -6.794,8.344 -9.552,9.868 -9.668,9.931 l -0.253,0.138 -0.283,-0.056 c -0.702,-0.141 -1.4,-0.319 -2.092,-0.534 -1.015,1.731 -1.782,3.81 -2.254,6.115 1.355,0.044 1.603,0.005 4.431,0.964 3.099,1.052 4.442,4.518 1.928,6.247 -2.517,1.732 -8.751,3.152 -8.751,3.152 -1.695,0.332 -3.401,-0.043 -4.693,-1.072 -2.632,-2.089 -4.729,-7.433 -2.261,-15.732 0,0 1.414,-3.47 2.298,-5.018 l 0.186,0.105 c -1.814,-1.551 -3.607,-3.401 -5.39,-5.557 -0.648,-0.788 -1.375,-1.704 -2.208,-2.762 -5.355,-6.798 -14.3,-18.15 -22.919,-18.262 -0.039,0 -0.079,0.004 -0.12,0.004 v 0.013 c -0.038,-0.003 -0.075,-0.004 -0.115,-0.008 -0.038,0.004 -0.077,0.005 -0.116,0.008 v -0.013 c -0.039,0 -0.079,-0.004 -0.118,-0.004 -8.619,0.112 -17.563,11.464 -22.921,18.262 -0.833,1.058 -1.557,1.974 -2.205,2.762 -1.783,2.156 -3.577,4.006 -5.392,5.558 l 0.186,-0.106 c 0.885,1.548 2.298,5.018 2.298,5.018 2.467,8.299 0.372,13.643 -2.26,15.732 -1.293,1.029 -3,1.404 -4.693,1.072 0,0 -6.237,-1.42 -8.75,-3.152 -2.515,-1.729 -1.174,-5.195 1.926,-6.247 2.827,-0.959 3.078,-0.92 4.43,-0.964 -0.472,-2.305 -1.236,-4.384 -2.252,-6.115 -0.691,0.215 -1.391,0.393 -2.094,0.534 l -0.281,0.056 -0.254,-0.138 c -0.115,-0.063 -2.874,-1.587 -5.167,-3.921 -2.278,-2.32 -3.8,-4.841 -3.864,-4.947 L -104.329,0 c -1.081,-2.079 -0.409,-3.907 0.876,-5.643 1.458,-1.96 4.073,-2.842 6.826,-2.291 1.436,0.288 2.979,0.92 4.503,1.84 3.505,-2.935 6.956,-6.811 10.187,-11.502 3.3,-4.797 7.882,-9.198 12.901,-12.398 5.534,-3.528 11.269,-5.398 16.585,-5.425 v -0.002 c 0.016,0 0.035,0.002 0.053,0.002 0.015,0 0.034,-0.002 0.052,-0.002 v 0.002 c 0.061,0.002 0.122,0.002 0.182,0.006 0.059,-0.004 0.121,-0.004 0.181,-0.006 v -0.002 c 0.018,0 0.037,0.002 0.054,0.002 0.017,0 0.036,-0.002 0.053,-0.002 v 0.002 c 5.317,0.027 11.05,1.897 16.585,5.425 5.02,3.2 9.601,7.601 12.901,12.398 3.231,4.691 6.681,8.567 10.187,11.502 1.524,-0.92 3.067,-1.552 4.502,-1.84 2.754,-0.551 5.368,0.331 6.827,2.291 C 0.41,-3.907 1.083,-2.079 0,0" />
        </g>
        <g
           transform="translate(1125.3081,52.4221)"
           id="g25790">
          <path
             id="path25792"
             style="fill:#ffffff;fill-opacity:1;fill-rule:nonzero;stroke:none"
             d="m 0,0 c -5.672,-8.243 -16.925,-17.113 -28.237,-17.139 -0.04,0 -0.08,0 -0.121,0.004 v 0.003 c -0.038,0 -0.075,0 -0.115,-0.003 -0.038,0.003 -0.077,0.003 -0.115,0.003 v -0.003 c -0.04,-0.004 -0.08,-0.004 -0.119,-0.004 -11.312,0.026 -22.566,8.896 -28.237,17.139 -6.619,9.61 -13.897,15.749 -21.122,17.84 0.227,0.333 0.519,0.745 0.865,1.203 9.092,-2.224 17.094,-12.118 22.582,-19.732 4.154,-5.765 14.801,-15.375 25.859,-15.433 h 0.105 c 0.064,0 0.122,0 0.182,0.004 0.06,-0.004 0.121,-0.004 0.182,-0.004 h 0.106 c 11.058,0.058 21.634,9.118 25.787,14.884 5.489,7.613 13.561,18.057 22.656,20.281 0.345,-0.458 0.637,-0.87 0.861,-1.203 C 13.896,15.749 6.617,9.61 0,0 m -70.458,25.102 c 5.363,-1.161 10.404,-4.671 15.405,-10.726 0.637,-0.774 1.354,-1.682 2.183,-2.736 5.511,-6.993 14.697,-18.649 24.033,-18.861 v -0.002 c 0.044,0 0.086,0.002 0.13,0.002 0.042,0 0.086,-0.002 0.129,-0.002 v 0.002 c 0.037,0.001 0.07,0.004 0.105,0.006 0.035,-0.002 0.071,-0.005 0.106,-0.006 v -0.002 c 0.044,0 0.087,0.002 0.13,0.002 0.043,0 0.084,-0.002 0.129,-0.002 v 0.002 c 9.336,0.212 18.522,11.868 24.035,18.861 0.828,1.054 1.543,1.962 2.183,2.736 4.999,6.055 10.041,9.565 15.402,10.726 0.246,-0.145 0.656,-0.399 1.16,-0.736 C 3.865,21.184 -2.432,11.464 -7.143,5.761 c -4.944,-5.99 -12.681,-13.919 -21.094,-13.999 -0.04,10e-4 -0.08,0.002 -0.121,0.005 v 0.009 c -0.038,-10e-4 -0.075,-10e-4 -0.115,-0.005 -0.038,0.004 -0.077,0.004 -0.115,0.005 v -0.009 c -0.04,-0.003 -0.08,-0.004 -0.119,-0.005 -8.415,0.08 -16.152,8.009 -21.096,13.999 -4.71,5.703 -11.007,15.423 -21.813,18.605 0.502,0.337 0.914,0.591 1.158,0.736 m 2.33,8.869 c -0.804,0.17 -2.185,0.397 -3.044,1.741 -1.126,1.767 -0.223,2.74 0.44,3.174 v 0 c -0.045,-0.159 -0.083,-0.327 -0.108,-0.504 0,-0.006 -10e-4,-0.016 -0.005,-0.022 -0.01,-0.082 -0.018,-0.171 -0.026,-0.257 V 38.07 c -0.005,-0.089 -0.007,-0.18 -0.005,-0.271 v -0.015 c 0.005,-0.089 0.01,-0.183 0.018,-0.277 0.003,-0.007 0.003,-0.016 0.003,-0.026 0.01,-0.092 0.027,-0.184 0.046,-0.279 0.005,-0.018 0.007,-0.035 0.012,-0.051 0.02,-0.093 0.045,-0.186 0.073,-0.283 0.005,-0.016 0.011,-0.03 0.017,-0.046 0.034,-0.099 0.068,-0.199 0.112,-0.303 0.353,-0.83 0.997,-1.32 1.56,-1.544 0.561,-0.22 1.918,-0.492 2.875,-0.062 0,0 -1.292,1.091 -1.711,2.854 -0.03,0.114 -0.051,0.229 -0.075,0.339 -0.003,0.039 -0.006,0.072 -0.012,0.111 -0.011,0.07 -0.021,0.145 -0.031,0.214 -0.005,0.044 -0.006,0.081 -0.008,0.122 -0.007,0.065 -0.01,0.127 -0.012,0.188 -0.003,0.041 -0.003,0.079 -0.003,0.119 -0.002,0.057 -0.005,0.115 -0.002,0.172 0.002,0.036 0.002,0.074 0.002,0.108 0.003,0.059 0.007,0.114 0.012,0.169 0.003,0.032 0.005,0.06 0.006,0.092 0.005,0.057 0.012,0.115 0.021,0.168 0.003,0.024 0.004,0.044 0.01,0.071 0.01,0.06 0.016,0.12 0.029,0.177 0,0.012 0.004,0.025 0.005,0.038 0.017,0.07 0.031,0.134 0.046,0.197 l 1.667,0.638 c 0,0 -1.073,-1.416 -0.229,-3.559 0.844,-2.144 2.489,-2.821 2.489,-2.821 -1.958,-0.677 -2.666,-0.656 -4.172,-0.339 m 77.4,6.719 1.665,-0.638 c 0.018,-0.063 0.031,-0.127 0.046,-0.197 0.003,-0.013 0.003,-0.026 0.005,-0.038 0.015,-0.057 0.022,-0.117 0.03,-0.177 0.005,-0.027 0.008,-0.047 0.011,-0.071 0.007,-0.053 0.015,-0.111 0.018,-0.168 0.004,-0.032 0.006,-0.06 0.009,-0.092 0.002,-0.055 0.008,-0.11 0.011,-0.169 0,-0.034 0,-0.072 0.002,-0.108 10e-4,-0.057 0,-0.115 -0.002,-0.173 0,-0.039 0,-0.077 -0.002,-0.118 -0.004,-0.061 -0.007,-0.123 -0.012,-0.188 -0.002,-0.041 -0.006,-0.078 -0.009,-0.122 -0.01,-0.069 -0.021,-0.144 -0.03,-0.214 C 11.007,38.178 11.003,38.145 11,38.106 10.978,37.996 10.956,37.881 10.927,37.767 10.508,36.004 9.216,34.913 9.216,34.913 c 0.957,-0.43 2.313,-0.158 2.875,0.062 0.561,0.224 1.206,0.714 1.559,1.544 0.044,0.104 0.079,0.204 0.113,0.303 0.006,0.016 0.01,0.03 0.018,0.046 0.027,0.097 0.052,0.19 0.071,0.283 0.004,0.016 0.006,0.033 0.013,0.051 0.02,0.095 0.033,0.187 0.045,0.279 0,0.01 0,0.019 0.003,0.026 0.008,0.094 0.014,0.188 0.017,0.277 v 0.015 c 0.005,0.091 0,0.182 -0.003,0.271 v 0.033 c -0.01,0.086 -0.017,0.175 -0.029,0.257 -0.002,0.006 -0.002,0.016 -0.002,0.022 -0.027,0.177 -0.063,0.345 -0.11,0.504 v 0 c 0.663,-0.434 1.565,-1.407 0.439,-3.174 -0.856,-1.344 -2.239,-1.571 -3.043,-1.741 -1.504,-0.317 -2.213,-0.338 -4.172,0.339 0,0 1.646,0.677 2.491,2.821 0.845,2.143 -0.229,3.559 -0.229,3.559" />
        </g>
        <g
           transform="translate(1146.8557,64.4205)"
           id="g25794">
          <path
             id="path25796"
             style="fill:#a3b6d6;fill-opacity:1;fill-rule:nonzero;stroke:none"
             d="m 0,0 c -1.092,-1.465 -3.098,-2.112 -5.246,-1.682 -1.104,0.222 -2.293,0.684 -3.49,1.348 2.982,2.287 5.995,3.882 8.936,4.71 C 0.989,2.832 0.92,1.244 0,0 m -94.796,-1.682 c -2.145,-0.43 -4.151,0.217 -5.243,1.682 -0.921,1.244 -0.99,2.832 -0.201,4.376 2.941,-0.828 5.953,-2.423 8.936,-4.71 -1.198,-0.664 -2.385,-1.126 -3.492,-1.348 m 8.799,22.115 c 1.825,0.436 4.155,1.653 4.155,1.653 0,0 -3.434,0.45 -4.524,3.312 -1.038,2.731 1.507,3.678 1.738,3.758 1.14,0.147 2.245,-0.132 3.097,-0.807 2.333,-1.852 4.112,-6.881 1.443,-14.959 l 0.017,-0.006 c -0.548,-1.242 -1.142,-2.434 -1.777,-3.56 -2.133,1.678 -4.303,2.947 -6.522,3.823 1.091,1.939 1.899,4.249 2.373,6.786 m 66.028,-7.049 0.017,0.006 c -2.669,8.078 -0.891,13.107 1.442,14.959 0.852,0.675 1.959,0.954 3.099,0.807 0.23,-0.08 2.773,-1.027 1.738,-3.758 -1.09,-2.862 -4.526,-3.312 -4.526,-3.312 0,0 2.329,-1.217 4.158,-1.653 0.472,-2.537 1.28,-4.847 2.372,-6.786 -2.221,-0.876 -4.39,-2.145 -6.524,-3.823 -0.635,1.126 -1.229,2.318 -1.776,3.56" />
        </g>
        <g
           transform="translate(1062.236,67.9941)"
           id="g25798">
          <path
             id="path25800"
             style="fill:#ffffff;fill-opacity:1;fill-rule:nonzero;stroke:none"
             d="M 0,0 C 0.095,0.104 0.168,0.213 0.218,0.327 0.267,0.44 0.29,0.558 0.288,0.677 0.283,0.797 0.254,0.917 0.198,1.036 0.143,1.153 0.055,1.267 -0.061,1.376 -0.285,1.583 -0.521,1.679 -0.768,1.668 -1.017,1.655 -1.238,1.545 -1.435,1.332 -1.631,1.122 -1.726,0.892 -1.72,0.64 c 0.007,-0.246 0.121,-0.478 0.342,-0.684 0.153,-0.141 0.31,-0.231 0.474,-0.269 0.164,-0.04 0.324,-0.034 0.479,0.023 C -0.27,-0.236 -0.128,-0.141 0,0 m -0.504,-2.482 -1.078,0.012 c -0.181,0.264 -0.345,0.544 -0.49,0.838 -0.145,0.295 -0.272,0.61 -0.383,0.946 -0.087,0.261 -0.133,0.475 -0.142,0.645 -0.103,0.198 -0.17,0.42 -0.201,0.663 -0.032,0.244 -0.009,0.496 0.07,0.756 0.077,0.264 0.226,0.511 0.445,0.746 0.231,0.247 0.503,0.427 0.819,0.537 0.315,0.111 0.651,0.12 1.012,0.031 C -0.092,2.605 0.258,2.401 0.599,2.085 0.862,1.841 1.057,1.588 1.186,1.322 1.313,1.059 1.378,0.804 1.384,0.552 1.389,0.299 1.343,0.058 1.25,-0.169 1.154,-0.398 1.02,-0.607 0.85,-0.788 0.642,-1.013 0.417,-1.176 0.176,-1.273 c -0.24,-0.101 -0.481,-0.148 -0.717,-0.145 -0.237,0.005 -0.467,0.049 -0.692,0.131 0.088,-0.204 0.185,-0.399 0.294,-0.583 0.108,-0.184 0.26,-0.367 0.452,-0.544 z" />
        </g>
        <g
           transform="translate(1067.5535,61.8337)"
           id="g25802">
          <path
             id="path25804"
             style="fill:#ffffff;fill-opacity:1;fill-rule:nonzero;stroke:none"
             d="m 0,0 c -0.247,-0.21 -0.497,-0.34 -0.748,-0.395 -0.251,-0.056 -0.492,-0.05 -0.722,0.016 -0.229,0.066 -0.44,0.168 -0.634,0.307 -0.191,0.137 -0.36,0.291 -0.508,0.466 -0.207,0.244 -0.366,0.516 -0.479,0.818 -0.111,0.3 -0.133,0.612 -0.065,0.936 0.068,0.323 0.263,0.621 0.581,0.89 L -0.986,4.383 -0.253,3.515 -1.616,2.36 C -1.808,2.2 -1.942,2.041 -2.019,1.882 -2.095,1.72 -2.122,1.569 -2.098,1.422 c 0.027,-0.146 0.095,-0.285 0.206,-0.418 0.109,-0.128 0.233,-0.217 0.374,-0.269 0.139,-0.047 0.293,-0.047 0.462,0 0.17,0.051 0.349,0.156 0.538,0.318 L 0.853,2.21 1.586,1.343 Z" />
        </g>
        <g
           transform="translate(1068.7947,57.4434)"
           id="g25806">
          <path
             id="path25808"
             style="fill:#ffffff;fill-opacity:1;fill-rule:nonzero;stroke:none"
             d="M 0,0 -0.699,0.899 2.282,3.213 2.98,2.315 Z" />
        </g>
        <g
           transform="translate(1076.4944,52.3863)"
           id="g25810">
          <path
             id="path25812"
             style="fill:#ffffff;fill-opacity:1;fill-rule:nonzero;stroke:none"
             d="M 0,0 C 0.132,0.121 0.184,0.242 0.16,0.365 0.136,0.489 0.032,0.649 -0.155,0.851 L -0.317,1.027 -0.98,0.414 -0.811,0.233 c 0.127,-0.137 0.234,-0.239 0.321,-0.297 0.085,-0.057 0.168,-0.082 0.244,-0.072 C -0.168,-0.126 -0.086,-0.08 0,0 M 0.792,-0.845 C 0.689,-0.94 0.574,-1.016 0.443,-1.072 0.314,-1.125 0.169,-1.155 0.012,-1.155 c -0.157,0 -0.325,0.044 -0.501,0.128 -0.176,0.083 -0.348,0.219 -0.516,0.401 l -0.507,0.546 -1.037,-0.962 -0.772,0.831 2.766,2.565 1.277,-1.381 C 0.891,0.792 1.01,0.611 1.08,0.428 1.151,0.243 1.181,0.073 1.167,-0.084 1.155,-0.242 1.116,-0.382 1.048,-0.511 0.982,-0.638 0.896,-0.75 0.792,-0.845" />
        </g>
        <g
           transform="translate(1079.7382,47.6149)"
           id="g25814">
          <path
             id="path25816"
             style="fill:#ffffff;fill-opacity:1;fill-rule:nonzero;stroke:none"
             d="m 0,0 0.51,1.394 -1.336,-0.65 z m 0.337,-2.215 -0.867,0.78 0.284,0.774 -1.217,1.094 -0.744,-0.357 -0.865,0.779 3.765,1.687 0.933,-0.839 z" />
        </g>
        <g
           transform="translate(1086.3024,44.4696)"
           id="g25818">
          <path
             id="path25820"
             style="fill:#ffffff;fill-opacity:1;fill-rule:nonzero;stroke:none"
             d="m 0,0 -1.144,0.775 -1.6,-2.361 -0.941,0.638 1.601,2.361 -1.143,0.776 0.514,0.758 3.227,-2.191 z" />
        </g>
        <g
           transform="translate(1088.2346,40.3716)"
           id="g25822">
          <path
             id="path25824"
             style="fill:#ffffff;fill-opacity:1;fill-rule:nonzero;stroke:none"
             d="M 0,0 -1.038,0.458 0.495,3.908 1.534,3.444 Z" />
        </g>
        <g
           transform="translate(1095.2175,41.4285)"
           id="g25826">
          <path
             id="path25828"
             style="fill:#ffffff;fill-opacity:1;fill-rule:nonzero;stroke:none"
             d="m 0,0 -1.358,0.264 -0.539,-2.801 -1.115,0.216 0.54,2.8 -1.357,0.261 0.175,0.902 3.827,-0.739 z" />
        </g>
        <g
           transform="translate(1101.1676,40.659)"
           id="g25830">
          <path
             id="path25832"
             style="fill:#ffffff;fill-opacity:1;fill-rule:nonzero;stroke:none"
             d="m 0,0 c 0.041,-0.322 0.014,-0.601 -0.076,-0.843 -0.091,-0.242 -0.227,-0.439 -0.407,-0.596 -0.181,-0.155 -0.381,-0.279 -0.6,-0.364 -0.222,-0.088 -0.444,-0.146 -0.671,-0.172 -0.317,-0.042 -0.632,-0.025 -0.945,0.042 -0.315,0.071 -0.588,0.222 -0.823,0.457 -0.234,0.233 -0.377,0.557 -0.431,0.972 l -0.261,2.066 1.126,0.141 0.224,-1.771 c 0.031,-0.246 0.091,-0.447 0.184,-0.598 0.09,-0.152 0.205,-0.258 0.342,-0.315 0.136,-0.06 0.291,-0.079 0.463,-0.054 0.167,0.019 0.308,0.076 0.427,0.166 0.118,0.088 0.203,0.218 0.254,0.388 0.051,0.169 0.061,0.376 0.03,0.622 l -0.227,1.779 1.129,0.142 z" />
        </g>
        <g
           transform="translate(1105.2601,43.0398)"
           id="g25834">
          <path
             id="path25836"
             style="fill:#ffffff;fill-opacity:1;fill-rule:nonzero;stroke:none"
             d="M 0,0 C -0.067,0.159 -0.165,0.252 -0.297,0.271 -0.43,0.292 -0.615,0.254 -0.856,0.157 l -0.222,-0.09 0.34,-0.843 0.229,0.091 c 0.258,0.106 0.423,0.206 0.496,0.302 C 0.06,-0.289 0.065,-0.161 0,0 M 2.4,-1.812 1.269,-2.268 0.743,-1.763 c -0.194,0.185 -0.353,0.315 -0.476,0.388 -0.124,0.071 -0.23,0.104 -0.318,0.103 -0.089,-10e-4 -0.193,-0.025 -0.315,-0.076 l -0.119,-0.049 0.552,-1.361 -1.051,-0.424 -1.418,3.495 1.793,0.726 C -0.32,1.157 -0.06,1.194 0.173,1.15 0.406,1.107 0.598,1.019 0.747,0.884 0.897,0.749 1.003,0.604 1.064,0.454 1.135,0.278 1.162,0.115 1.143,-0.036 1.124,-0.186 1.089,-0.303 1.036,-0.389 0.984,-0.477 0.919,-0.563 0.846,-0.652 c 0.139,-0.02 0.266,-0.06 0.374,-0.121 0.109,-0.059 0.283,-0.2 0.52,-0.424 z" />
        </g>
        <g
           transform="translate(1113.776,49.7702)"
           id="g25838">
          <path
             id="path25840"
             style="fill:#ffffff;fill-opacity:1;fill-rule:nonzero;stroke:none"
             d="m 0,0 0.987,-4.059 -0.593,-0.457 -3.652,2.003 0.935,0.723 2.013,-1.198 -0.629,2.265 z" />
        </g>
        <g
           transform="translate(1118.8302,49.3916)"
           id="g25842">
          <path
             id="path25844"
             style="fill:#ffffff;fill-opacity:1;fill-rule:nonzero;stroke:none"
             d="m 0,0 -0.812,-0.795 -2.636,2.697 0.81,0.794 z" />
        </g>
        <g
           transform="translate(1123.5453,54.789)"
           id="g25846">
          <path
             id="path25848"
             style="fill:#ffffff;fill-opacity:1;fill-rule:nonzero;stroke:none"
             d="m 0,0 -0.639,-0.783 -2.866,-0.197 1.63,-1.325 -0.71,-0.872 -2.924,2.378 0.636,0.784 2.854,0.195 -1.622,1.32 0.716,0.88 z" />
        </g>
        <g
           transform="translate(1127.0042,60.2346)"
           id="g25850">
          <path
             id="path25852"
             style="fill:#ffffff;fill-opacity:1;fill-rule:nonzero;stroke:none"
             d="m 0,0 c -0.025,-0.175 -0.066,-0.342 -0.121,-0.504 -0.056,-0.16 -0.122,-0.314 -0.202,-0.462 -0.08,-0.147 -0.174,-0.291 -0.276,-0.438 -0.192,-0.265 -0.4,-0.478 -0.624,-0.636 -0.226,-0.157 -0.466,-0.263 -0.721,-0.315 -0.255,-0.053 -0.508,-0.047 -0.754,0.013 -0.247,0.061 -0.486,0.172 -0.717,0.338 -0.262,0.19 -0.461,0.402 -0.593,0.634 -0.132,0.233 -0.205,0.478 -0.218,0.737 -0.012,0.26 0.025,0.515 0.113,0.77 0.087,0.255 0.215,0.498 0.382,0.731 0.249,0.347 0.611,0.686 1.082,1.014 L -1.834,1.3 C -2.037,1.213 -2.225,1.12 -2.393,1.018 -2.561,0.915 -2.718,0.763 -2.864,0.563 -2.991,0.384 -3.075,0.191 -3.115,-0.013 c -0.041,-0.206 -0.03,-0.401 0.034,-0.59 0.064,-0.188 0.181,-0.345 0.357,-0.471 0.154,-0.112 0.325,-0.171 0.513,-0.182 0.186,-0.009 0.371,0.034 0.552,0.125 0.18,0.092 0.338,0.23 0.471,0.414 0.105,0.149 0.187,0.303 0.248,0.461 0.061,0.159 0.099,0.298 0.119,0.42 0.021,0.123 0.037,0.254 0.045,0.393 z" />
        </g>
        <g
           transform="translate(1129.8654,63.1251)"
           id="g25854">
          <path
             id="path25856"
             style="fill:#ffffff;fill-opacity:1;fill-rule:nonzero;stroke:none"
             d="M 0,0 -0.761,-0.841 -3.56,1.685 -2.8,2.53 Z" />
        </g>
        <g
           transform="translate(1130.5298,67.8907)"
           id="g25858">
          <path
             id="path25860"
             style="fill:#ffffff;fill-opacity:1;fill-rule:nonzero;stroke:none"
             d="M 0,0 -0.713,-0.638 -1.274,-0.01 0.919,1.95 1.479,1.321 0.752,0.671 2.693,-1.501 1.943,-2.172 Z" />
        </g>
        <g
           transform="translate(1121.4219,90.655)"
           id="g25862">
          <path
             id="path25864"
             style="fill:#005695;fill-opacity:1;fill-rule:nonzero;stroke:none"
             d="m 0,0 c -3.244,-1.743 -6.048,-0.065 -8.19,2.185 -2.141,2.254 -4.701,6.071 -6.688,9.295 -1.987,3.223 -2.935,6.092 -2.561,5.563 0.377,-0.53 1.238,-1.038 1.481,-0.993 0.176,0.03 0.339,1.974 0.442,4.073 1.105,-2.082 3.319,-4.246 5.717,-5.928 3.045,-2.141 6.225,-5.187 7.835,-6.733 C -0.353,5.916 3.245,1.746 0,0 M 2.339,5.496 C 0,8.698 -3.64,11.258 -7.393,14.261 c -3.753,3.001 -5.409,4.061 -6.954,7.415 -1.545,3.357 0.396,6.536 1.854,6.779 1.455,0.242 2.648,0.043 2.737,-4.769 0.089,-4.813 3.509,-5.849 5.077,-6.51 1.567,-0.663 1.743,-0.399 1.743,-0.399 0,0 -2.538,1.92 -2.339,5.319 0.198,3.4 -0.067,4.857 -0.685,5.741 -0.619,0.883 -2.737,3.619 -7.085,2.25 -0.455,-0.142 -0.854,-0.319 -1.205,-0.525 -0.004,0.02 -0.011,0.038 -0.018,0.057 0.065,0.498 0.186,1.62 0.12,2.633 -0.09,1.345 -0.465,2.03 -0.465,2.03 0,0 0.111,-0.089 0.286,-0.242 0.179,-0.157 1.525,-0.751 1.258,-0.464 -0.263,0.286 -0.043,1.391 -0.197,2.317 -0.154,0.928 -0.663,1.81 -0.397,1.678 0.265,-0.133 1.192,-0.243 0.817,0.132 -0.377,0.375 -0.486,2.561 -1.613,4.504 -1.124,1.942 -1.631,2.318 -1.631,2.318 0,0 0.329,0.948 0.418,2.273 0.089,1.324 -0.576,3.068 -0.994,3.532 -0.418,0.464 -3.201,-0.642 -4.236,-0.729 -1.04,-0.087 -0.818,1.037 -0.818,1.037 l -0.574,0.157 c 0,0 0.309,0.573 0.309,0.903 0,0.331 -0.508,0.64 -0.508,0.64 0,0 0.175,0.045 0.972,0.862 0.794,0.816 0.507,1.942 -1.015,3.069 -1.525,1.124 -2.495,1.103 -2.451,1.214 0.044,0.11 -0.044,1.08 -1.016,1.876 -0.971,0.793 -1.92,0 -2.362,-0.64 -0.442,-0.64 -0.265,-1.126 -0.265,-1.126 0,0 -0.353,0.024 -0.905,-0.155 -0.551,-0.178 -0.859,-0.553 -2.031,-1.656 -1.17,-1.104 -1.146,-1.457 -0.86,-2.384 0.285,-0.926 1.368,-1.302 1.368,-1.302 0,0 -0.242,-0.375 -0.242,-0.751 0,-0.374 0.374,-0.64 0.374,-0.64 l -0.418,-0.243 c 0,0 0.13,-0.045 -0.309,-0.948 -0.442,-0.905 -1.524,-1.038 -2.936,-1.061 -1.413,-0.019 -2.053,0.332 -3.467,0 -1.411,-0.331 -1.016,-1.169 -0.661,-2.274 0.352,-1.102 0.708,-1.72 0.708,-1.72 0,0 -1.725,-1.834 -2.299,-3.222 -0.573,-1.392 -0.817,-2.981 -0.904,-4.35 -0.088,-1.368 0.53,-0.376 0.53,-0.376 0,0 -0.111,-0.86 -0.133,-1.832 -0.022,-0.97 0.022,-1.964 0.178,-3.53 0.153,-1.569 1.081,0 1.081,0 0,0 -0.2,-1.28 -0.111,-2.363 0.089,-1.081 0.42,-2.606 0.574,-3.245 0.154,-0.641 -1.302,0.53 -2.649,2.031 -1.346,1.5 -2.759,3.114 -3.597,4.37 -0.84,1.258 -0.972,2.737 -1.899,3.796 -0.927,1.061 -2.076,1.657 -3.133,1.767 -1.062,0.109 -1.525,-0.463 -1.437,-0.595 0.09,-0.133 0.95,-0.047 1.501,-0.509 0,0 0.068,-0.085 0.183,-0.301 0.116,-0.215 0.282,-0.545 0.05,-0.562 -0.233,-0.017 -2.017,0.925 -3.471,-0.049 -1.455,-0.975 -0.71,-1.305 -0.612,-1.141 0.1,0.166 1.487,0 2.132,-0.53 0.646,-0.528 -0.099,-0.759 -0.826,-1.224 -0.728,-0.462 -1.091,-1.304 -1.339,-2.247 -0.247,-0.94 0.28,-0.677 1.091,-0.132 0.808,0.545 1.355,0.496 1.603,0.545 0.248,0.05 -0.215,-0.562 -0.547,-1.388 -0.329,-0.827 -0.329,-2.05 -0.064,-2.116 0.263,-0.066 1.255,1.258 2.429,1.687 1.174,0.429 1.702,-0.81 2.068,-2.2 0.363,-1.388 0.678,-2.661 1.107,-3.321 0.429,-0.662 0.595,0.38 0.743,0.494 0.149,0.118 0.216,-0.627 0.398,-1.189 0.181,-0.562 0.297,-0.86 0.793,-1.438 0.495,-0.579 0.479,0.131 0.528,0.264 0.051,0.133 0.149,-0.643 0.432,-1.653 0.28,-1.008 0.609,-1.522 0.99,-1.803 0.38,-0.28 0.496,0.563 0.645,1.025 0.147,0.465 0.264,-0.032 0.71,-0.777 0.447,-0.743 0.53,-1.703 0.661,-1.834 0.133,-0.133 0.265,0.2 1.026,0.297 0.76,0.101 0.959,-0.612 0.959,-0.612 0,0 -0.777,-0.859 -1.819,-1.57 -1.041,-0.71 -4.199,-2.363 -7.389,-1.902 -3.19,0.464 -4.199,0.663 -6.017,-0.294 -1.82,-0.961 -1.868,-3.144 -1.719,-3.243 0.147,-0.099 0.843,0.96 1.405,1.091 0.563,0.134 0.182,-0.049 -0.529,-1.172 -0.712,-1.124 -0.43,-1.67 -0.314,-1.836 0.116,-0.164 0.249,0.2 0.661,0.514 0.414,0.314 1.125,0.545 1.621,0.66 0.496,0.118 -0.1,-0.578 -0.513,-1.801 -0.413,-1.225 0.182,-2.018 0.263,-1.985 0.084,0.033 0.132,0.512 0.529,1.174 0.396,0.662 1.356,0.943 1.554,1.008 0.199,0.067 0.05,-0.413 0.25,-1.471 0.199,-1.059 0.627,-1.685 0.842,-1.702 0.214,-0.017 0.115,1.175 1.157,2.396 1.041,1.224 1.951,1.373 3.589,0.761 1.635,-0.611 2.825,-0.662 3.354,-0.545 0.527,0.115 -0.612,1.307 -0.612,1.307 0,0 0.736,-0.397 1.844,-0.752 1.1,-0.353 1.693,-0.407 2.174,-0.324 0.478,0.082 -0.53,0.96 -0.53,0.96 0,0 0.199,-0.133 1.918,-0.809 1.718,-0.681 2.364,-0.581 2.578,-0.548 0.216,0.034 -0.147,0.993 -0.147,0.993 0,0 0.412,-0.282 1.718,-0.794 1.304,-0.514 1.735,-0.297 1.735,-0.297 0,0 0.2,-0.101 2.679,-2.911 2.478,-2.81 -2.634,-0.919 -5.106,-2.838 -2.473,-1.919 -1.787,-4.106 -0.795,-8.476 0.993,-4.372 -0.089,-6.734 -2.273,-7.88 -2.186,-1.151 -3.73,-0.442 -5.518,-0.507 -1.79,-0.068 -3.135,-0.533 -4.349,-1.989 -1.215,-1.456 -1.104,-2.845 -0.685,-3.178 0.421,-0.33 0.243,0.509 0.774,0.641 0.528,0.133 1.235,0.463 1.235,0.463 0,0 -0.133,-0.087 -0.441,-0.486 -0.309,-0.397 -0.619,-0.926 -0.551,-2.118 0.066,-1.194 0.596,-0.088 0.596,-0.088 0,0 0.131,0.132 0.552,0.352 0.418,0.221 1.124,0.639 1.124,0.639 0,0 -0.132,-0.087 -0.484,-0.683 -0.355,-0.596 -0.508,-1.48 -0.332,-2.363 0.177,-0.882 0.574,-0.376 0.75,0.045 0.177,0.421 0.442,0.486 0.442,0.486 0,0 0.264,-0.133 1.611,0.64 1.347,0.773 1.7,1.28 1.7,1.28 0,0 -0.022,-1.038 0.396,-1.214 0.421,-0.176 1.348,1.546 3.401,3.377 2.052,1.832 2.959,1.391 4.723,1.17 1.767,-0.221 2.539,-0.131 3.356,0.949 0.815,1.083 0.575,3.487 -0.045,4.879 -0.617,1.391 -0.883,2.23 -0.837,3.243 0.043,1.018 0.285,1.923 3.265,2.362 2.981,0.444 4.526,-0.33 4.526,-0.33 0,0 1.149,-2.363 2.693,-4.017 1.545,-1.654 3.84,-3.775 6.842,-6.159 3.003,-2.383 3.841,-3.376 3.864,-5.385 0.022,-2.01 -0.265,-2.958 -2.384,-3.002 -2.119,-0.045 -3.466,-0.95 -4.15,-2.472 -0.686,-1.525 0.288,-1.369 0.396,-1.172 0.111,0.201 0.2,0.09 0.73,0.133 0.529,0.044 0.795,-0.066 0.795,-0.066 0,0 -0.089,0 -0.64,-0.928 -0.553,-0.927 -0.376,-1.5 -0.332,-1.852 0.043,-0.355 0.552,-0.597 0.618,-0.199 0.067,0.396 0.398,0.618 0.861,0.684 0.402,0.056 0.907,0.395 1.034,0.484 -0.054,-0.049 -0.17,-0.218 -0.283,-0.77 -0.155,-0.753 -0.088,-1.371 0.314,-2.01 0.404,-0.64 0.546,-0.09 0.591,0.242 0.043,0.333 0.882,0.684 2.142,1.569 1.256,0.881 1.853,1.852 2.053,2.051 0.197,0.201 0.263,-0.815 0.594,-0.771 0.332,0.043 2.341,1.391 2.142,4.944 -0.2,3.553 0.508,4.26 1.08,6.114 0.574,1.855 -0.063,2.607 -1.369,3.861 -1.301,1.259 -2.714,2.386 -3.485,3.423 -0.774,1.039 -0.51,1.944 -0.134,4.084 0.375,2.141 0.796,4.549 0.905,6.049 0.111,1.5 1.016,0.287 5.078,0.972 4.061,0.684 6.024,5.01 3.685,8.209" />
        </g>
        <g
           transform="translate(1096.4332,138.7004)"
           id="g25866">
          <path
             id="path25868"
             style="fill:#fdbc5f;fill-opacity:1;fill-rule:nonzero;stroke:none"
             d="m 0,0 c -0.179,-0.045 -0.867,-0.875 -0.609,-1.321 0.18,-0.311 0.592,-0.329 0.749,-0.321 0.218,-0.03 0.618,0.231 0.977,0.519 0.457,0.361 0.89,1.099 0.65,1.173 C 1.525,0.124 0.599,-0.747 0.223,-0.649 -0.155,-0.553 0.334,0.084 0,0 M 2.406,3.337 C 2.388,3.725 1.932,3.974 1.334,3.945 0.739,3.917 0.279,3.694 0.297,3.306 0.317,2.921 0.802,2.61 1.399,2.638 1.997,2.668 2.427,2.951 2.406,3.337 M -1.517,2.503 c 0.597,0 1.041,0.262 1.041,0.649 0,0.386 -0.444,0.659 -1.041,0.659 -0.597,0 -1.067,-0.199 -1.067,-0.587 0,-0.387 0.47,-0.721 1.067,-0.721 M 9.069,-6.725 c 1.014,-1.003 0.454,-1.016 0.025,-1.276 -0.429,-0.26 1.455,-1.416 2.015,-1.597 0.561,-0.183 -0.4,1.367 -1.089,2.943 -0.668,1.53 -1.25,2.013 -1.419,1.974 -0.17,-0.04 -0.211,-0.378 -0.354,-0.6 -0.142,-0.22 -0.195,-0.442 0.822,-1.444 M 2.316,2.133 C 2.106,2.31 0.239,1.818 -1.803,1.747 c -2.041,-0.072 -3.306,0.281 -3.553,0 0,0 -0.037,-0.317 0.069,-0.528 0.106,-0.212 0.916,-0.492 1.691,-0.528 0.772,-0.035 3.752,0.147 4.801,0.214 1.411,0.09 1.321,1.052 1.111,1.228 M 1.357,7.556 C 1.885,7.136 2.677,6.026 2.915,5.889 3.263,5.686 3.55,6.062 3.55,6.062 3.708,6.407 3.221,7.031 2.482,7.566 1.745,8.098 0.249,9.027 0.219,8.693 0.189,8.361 0.829,7.976 1.357,7.556 m -3.074,1.606 c 0.501,0 0.909,0.382 0.841,0.908 -0.068,0.521 -0.454,0.92 -0.841,0.881 -0.499,-0.053 -0.841,-0.296 -0.841,-0.828 0,-0.53 0.341,-0.961 0.841,-0.961 m -6.512,-58.909 c -0.529,-1.851 -0.573,-1.539 0.617,-7.008 1.19,-5.467 -1.322,-7.714 -3.967,-8.506 -2.644,-0.794 -6.216,-0.045 -7.538,-0.883 -1.323,-0.838 -1.27,-2.011 -1.27,-2.011 0,0 1.27,0.733 2.063,0.821 0.794,0.087 1.102,0 1.102,0 0,0 -0.924,-0.021 -1.628,-0.771 -0.706,-0.747 -0.791,-1.251 -0.791,-1.251 0,0 0.994,-0.272 2.155,0.434 0.595,0.364 1.058,0.309 1.058,0.309 0,0 -0.633,-0.272 -1.263,-0.927 -0.574,-0.597 -0.293,-2.136 -0.293,-2.136 0,0 0.741,-0.16 2.153,0.808 1.411,0.969 2.003,1.816 2.003,1.816 0,0 -0.165,-0.349 -0.21,-0.791 -0.043,-0.441 0.075,-0.88 0.075,-0.88 0,0 1.104,1.89 2.252,2.726 1.145,0.839 2.07,1.853 4.407,1.499 2.336,-0.35 4.056,0.266 3.571,2.029 -0.485,1.762 -1.498,3.352 -1.367,5.556 0.132,2.203 0.882,2.158 0.441,4.938 -0.441,2.776 -1.543,3.481 -1.234,3.876 0.309,0.397 0.75,0.266 1.807,1.103 1.059,0.838 1.059,1.191 1.059,1.191 -0.441,0.219 -4.673,-0.089 -5.202,-1.942 m 1.886,43.478 c 0.605,0.253 1.166,0.527 1.847,0.803 0.665,0.268 1.206,0.299 1.206,0.299 0.049,-0.394 -0.409,-0.822 -0.442,-1.941 -0.031,-1.123 0.27,-1.631 0.079,-1.74 -0.189,-0.11 -0.157,0.253 -1.042,0.537 -0.885,0.283 -1.603,0.601 -1.255,0.884 0.348,0.286 0.336,0.268 0.6,0.554 0.192,0.206 0.475,0.316 0.271,0.396 -0.208,0.079 -0.575,-0.034 -0.791,-0.24 -0.217,-0.205 -0.202,-0.274 -0.364,-0.199 -0.159,0.075 -0.712,0.397 -0.109,0.647 m 5.637,1.102 c 0,0 0.489,0.032 1.138,-0.315 0.648,-0.347 1.374,-0.6 1.898,-0.995 0.521,-0.396 -0.096,-0.571 -0.27,-0.6 -0.174,-0.031 -0.142,0.029 -0.3,0.283 -0.159,0.253 -0.41,0.332 -0.617,0.253 -0.205,-0.08 -0.046,-0.173 0.159,-0.507 0.204,-0.329 0.394,-0.505 0.742,-0.789 0.348,-0.285 -0.458,-0.189 -1.343,-0.474 -0.886,-0.284 -0.855,-0.647 -1.044,-0.537 -0.19,0.109 0.112,0.617 0.078,1.74 -0.031,1.119 -0.489,1.547 -0.441,1.941 m 3.957,3.625 c 0.294,0.322 0.579,0.728 1.651,1.186 1.073,0.455 2.18,0.629 2.218,-0.113 0.036,-0.739 0.061,-1.725 -0.394,-2.624 -0.456,-0.9 -0.53,-1.321 -1.701,-0.186 -1.17,1.135 -2.07,1.418 -1.774,1.737 m -15.929,-7.235 c 1.584,1.021 2.43,2.077 2.639,2.957 0.212,0.88 -0.456,1.372 -1.055,2.076 -0.598,0.703 -1.021,2.004 -0.598,2.57 0.423,0.563 2.675,-0.211 3.484,-0.599 0.81,-0.387 0.563,-0.88 -0.106,-1.549 -0.668,-0.666 -0.632,-1.653 -0.387,-1.9 0.248,-0.247 1.795,0.923 0.824,-0.398 -0.766,-1.044 -0.646,-1.538 -0.295,-1.713 0.352,-0.177 0.421,-0.916 -0.494,-2.394 -0.914,-1.479 -0.209,-1.232 0.143,-1.197 0.351,0.035 0.843,-0.703 0.632,-1.302 -0.211,-0.599 -0.281,-1.197 0.105,-0.95 0.388,0.247 0.881,0.175 1.268,-0.739 0.388,-0.914 0.246,-1.513 0.668,-2.006 0.423,-0.493 2.147,1.196 2.605,1.971 0.457,0.774 0.177,0.844 -0.351,1.582 -0.529,0.741 -1.339,1.162 -1.127,1.444 0.211,0.283 0.457,0.212 0.951,-0.282 0.492,-0.491 0.668,-0.879 1.969,-0.879 1.303,0 1.269,1.336 1.866,1.405 0.598,0.073 0.142,-0.843 -0.385,-1.582 -0.531,-0.739 -1.022,-0.844 -0.882,-1.476 0.14,-0.635 1.303,-1.373 2.289,-2.183 0.985,-0.81 1.16,0.14 1.196,0.598 0.035,0.457 0.281,1.126 0.493,1.971 0.211,0.845 0.492,0.916 1.126,0.423 0.633,-0.494 0.739,0.316 0.774,1.196 0.036,0.881 0.492,1.76 1.162,1.513 0.668,-0.245 -0.598,1.583 -0.986,2.603 -0.388,1.022 -0.105,0.81 0.316,1.304 0.212,0.248 -0.2,0.667 -0.606,1.045 -0.129,0.016 -0.688,0.688 -0.516,0.838 0.17,0.149 1.941,-0.043 3.069,-1.058 0.38,0.196 0.437,0.997 1.01,2.623 C 8.791,-0.964 8.264,0.691 8.052,0.936 7.841,1.182 6.926,0.902 5.273,0.585 3.655,0.274 2.848,-0.738 2.515,-0.881 1.897,-1.296 1.265,-1.946 0.521,-2.087 c -0.811,-0.156 -1.39,0.569 -1.93,-0.349 -0.033,-0.056 -0.078,-0.092 -0.124,-0.12 -0.138,0.513 -0.304,1.053 -0.443,1.257 -0.262,0.383 -0.877,0.711 -1.068,0.711 -0.193,0.002 -0.518,0.099 -0.328,-0.343 0.095,-0.222 0.127,-0.476 -0.188,-0.508 -0.329,-0.032 -0.552,0.212 -0.824,0.564 -0.213,0.274 -0.494,0.702 -0.723,0.813 -0.323,0.159 -0.62,0.072 -0.777,-0.155 -0.164,-0.236 -0.168,-0.508 0.223,-1.093 0.607,-0.909 -0.114,-0.796 -0.33,-0.794 -0.504,0.193 -0.941,0.592 -1.378,0.907 -0.035,0.025 -0.062,0.055 -0.083,0.085 -0.375,0.09 -0.908,0.347 -1.846,0.607 -1.409,0.387 -2.817,0.352 -3.52,-0.106 0,0 0.106,-2.322 1.021,-3.377 0.914,-1.058 0.914,-1.552 0.105,-2.36 -0.808,-0.81 -1.196,-1.513 -1.196,-0.881 0,0.634 0.669,1.316 0.915,1.718 0.406,0.667 -0.387,1.097 -0.387,1.097 0,0 -1.267,-1.3 -1.971,-2.426 -0.704,-1.127 -0.951,-2.852 -0.775,-3.133 0.176,-0.28 0.845,0.175 2.428,1.196 M -1.577,4.33 c 0.385,-0.037 0.622,0.073 1.062,0.697 0.442,0.623 0.534,1.668 0.498,2.09 C -0.055,7.537 -0.66,7.374 -0.972,6.86 -1.285,6.348 -1.724,6.274 -2.055,6.878 -2.384,7.484 -2.806,7.834 -3.027,7.41 -3.245,6.988 -2.843,5.998 -2.548,5.283 -2.257,4.567 -1.962,4.366 -1.577,4.33 m -3.85,-0.943 c 0,-0.389 0.471,-0.722 1.068,-0.722 0.596,0 1.041,0.26 1.041,0.647 0,0.387 -0.445,0.661 -1.041,0.661 -0.597,0 -1.068,-0.201 -1.068,-0.586 M -6.49,5.796 c 0.274,0 1.393,0.955 1.887,1.412 0.495,0.458 0.936,1.3 0.88,1.632 -0.054,0.33 -1.52,-0.788 -2.218,-1.374 -0.698,-0.588 -1.138,-1.249 -0.954,-1.577 0,0 0.129,-0.093 0.405,-0.093 m 25.998,-70.835 c -2.874,2.24 -3.63,2.936 -3.235,5.777 0.392,2.843 1.904,8.316 -0.425,11.946 -2.328,3.628 -7.773,9.8 -9.556,11.431 -1.785,1.634 -2.118,1.937 -2.118,1.937 0,0 -0.967,0.514 -1.512,0.998 -0.544,0.482 -0.998,1.087 -0.998,1.087 0,0 -0.635,-0.605 -0.816,-1.692 -0.182,-1.09 -0.273,-1.422 -0.061,-1.907 0.212,-0.484 -1.27,-0.273 -2.298,1.755 -1.029,2.028 -0.818,3.146 -0.818,3.146 0,0 -0.664,-2.149 -2.389,-3.115 -1.723,-0.969 -3.75,-2.027 -4.052,-1.877 -0.303,0.153 0.454,0.274 -0.18,2.451 -0.636,2.178 -0.666,3.751 -0.363,3.993 0.301,0.24 -1.059,-0.695 -1.059,-0.695 0,0 -1.059,-1.968 -4.113,-4.175 -3.055,-2.209 -6.018,-2.541 -7.32,-2.541 -1.299,0 -3.114,0.967 -4.445,0.817 -1.329,-0.151 -1.844,-0.696 -1.54,-0.968 0.302,-0.273 1.389,-0.182 1.267,-0.331 -0.12,-0.153 -0.935,-0.305 -1.299,-0.879 -0.362,-0.574 -0.423,-1.329 0.032,-1.179 0.452,0.152 1.933,0.545 1.933,0.271 0,-0.271 -0.212,-0.209 -0.484,-0.542 -0.271,-0.334 -0.877,-0.726 -0.454,-1.029 0.424,-0.302 1.301,-0.151 1.876,0.333 0.574,0.483 0.938,0.362 0.695,0.12 -0.242,-0.241 -0.847,-0.726 -0.543,-1.33 0.301,-0.606 1.268,0.181 1.754,0.634 0.482,0.455 1.119,0.878 1.542,0.817 0.424,-0.06 1.247,-0.329 1.901,-0.502 0.668,-0.174 1.607,-0.254 1.607,-0.254 0,0 -0.394,1.301 -0.061,1.18 0.333,-0.121 0.512,-0.18 1.511,-0.423 0.996,-0.242 1.752,-0.393 1.661,-0.242 -0.091,0.152 -0.903,1.481 -0.419,1.362 0.484,-0.124 1.107,-0.278 2.196,-0.671 1.089,-0.394 2.268,-0.969 1.995,-0.636 -0.272,0.333 -1.075,1.789 -0.714,1.548 0.363,-0.241 0.529,-0.428 2.102,-1.245 1.571,-0.816 2.056,-0.906 2.207,-0.605 0.151,0.302 -0.105,0.579 0.227,1.577 0.332,1 0.999,2.298 1.634,2.57 0.636,0.273 1.029,0.212 0.666,-0.061 -0.364,-0.27 -1.21,-0.998 -1.12,-2.539 0.091,-1.542 0.333,-2.208 1.391,-3.478 1.057,-1.271 2.029,-1.967 3.75,-3.719 1.724,-1.756 2.208,-4.144 3.176,-4.477 0.968,-0.334 2.025,-0.12 2.812,0.998 0.787,1.12 0.848,2.48 -0.787,4.476 -1.63,1.996 -2.598,3.357 -0.936,1.936 1.663,-1.423 3.568,-3.176 3.296,-5.081 -0.272,-1.905 -3.206,-3.719 -2.721,-5.534 0.485,-1.815 1.843,-4.507 4.566,-7.23 2.723,-2.72 5.565,-4.111 7.804,-6.531 2.237,-2.418 2.207,-3.207 2.086,-4.475 -0.121,-1.271 -0.424,-3.812 -2.39,-4.054 -1.966,-0.242 -3.237,-0.515 -3.237,-1.422 0,-0.906 0.152,-0.906 0.484,-0.756 0.333,0.153 1.482,1.36 1.784,1.029 0.303,-0.333 -0.21,0 -0.798,-0.906 -0.593,-0.907 -0.801,-1.573 0,-1.243 0.798,0.336 1.918,1 1.888,0.759 -0.031,-0.242 -0.937,-0.696 -1.029,-1.604 -0.09,-0.906 -0.03,-1.119 0.817,-0.968 0.847,0.151 1.875,1.755 2.51,2.933 0.636,1.182 0.966,1.302 1.09,1.061 0.12,-0.243 -0.06,-1.816 0.149,-1.695 0.213,0.122 0.938,0.757 0.847,2.993 -0.088,2.239 0.212,4.539 0.757,5.987 0.545,1.453 1.149,2.451 -1.723,4.689 M -5.609,-18.83 c -0.304,0.508 -0.407,0.813 -0.764,0.559 -0.356,-0.255 -0.458,-1.681 -0.049,-3.16 0.406,-1.476 0.813,-2.393 1.12,-0.71 0.305,1.679 0.814,1.883 1.07,0.71 0.254,-1.17 -0.102,-3.873 0.202,-4.025 0.307,-0.152 3.263,1.835 3.669,3.261 0.409,1.427 -0.152,3.008 -0.559,3.311 -0.409,0.307 -0.102,-0.711 -0.561,-2.088 -0.459,-1.375 -0.765,-2.649 -1.274,-2.802 -0.509,-0.153 0.663,1.173 0.103,2.904 -0.562,1.733 -1.378,2.701 -1.937,2.141 -0.56,-0.56 -0.713,-0.612 -1.02,-0.101 m -7.873,1.68 c -0.36,-2.535 0.133,-4.531 0.552,-4.672 0.401,-0.135 1.391,1.886 1.422,3.396 0.016,0.923 -0.639,0.725 -0.747,-0.022 -0.07,-0.489 -0.096,-0.966 -0.385,-0.705 -0.119,0.106 0.343,2.83 0.917,4.033 0.573,1.203 2.238,5.002 1.524,5.701 -0.713,0.699 -2.179,0.437 -3.143,-0.876 -0.966,-1.315 -1.624,-3.832 -1.456,-4.391 0.167,-0.559 0.684,0 1.341,1.16 0.657,1.161 1.423,2.647 1.745,2.704 0.321,0.054 0.52,-0.439 -0.109,-1.655 -0.63,-1.217 -1.313,-2.206 -1.661,-4.673 m 1.701,-7.968 c 0.348,0.098 2.187,1.441 2.509,3.13 0.323,1.69 0.298,2.311 0.049,2.162 -0.248,-0.15 -0.545,-2.187 -1.167,-2.684 -0.62,-0.497 0.722,1.666 0.845,4.424 0.123,2.757 -0.373,4.426 -0.647,4.249 -0.272,-0.179 -0.048,-2.237 -0.594,-4.722 -0.549,-2.485 -1.294,-4.199 -1.294,-5.293 0,-1.094 -0.05,-1.366 0.299,-1.266 m 11.348,-7.863 c 0.372,0.073 1.411,2.328 1.956,4.009 0.544,1.683 1.213,2.723 0.841,3.021 -0.371,0.297 -0.99,0.767 -1.559,1.41 -0.568,0.644 -0.719,0.792 -1.187,0.247 -0.472,-0.544 -1.015,-1.188 -1.683,-1.682 -0.669,-0.496 -1.065,-0.57 -1.461,-1.535 -0.396,-0.966 -0.693,-2.103 -1.632,-3.044 -0.942,-0.94 0.791,1.831 0.518,3.217 -0.272,1.387 -0.322,1.51 -0.742,1.56 -0.42,0.05 -0.965,0.124 -1.213,0.371 -0.246,0.248 -0.57,0.619 -0.989,0.024 -0.422,-0.593 -1.536,-2.079 -1.733,-2.029 -0.198,0.049 0.766,1.163 1.063,2.278 0.297,1.113 0.248,1.161 0.076,1.41 -0.174,0.248 -0.471,0.248 -0.471,0.248 -0.422,-0.199 -1.04,-1.04 -1.363,-2.822 -0.319,-1.783 -0.567,-2.771 -0.221,-2.624 0.346,0.149 1.188,0.916 2.005,1.336 0.816,0.423 2.303,1.459 2.128,0.966 -0.174,-0.495 -1.582,-0.99 -1.906,-2.946 -0.321,-1.955 0.1,-2.349 0.174,-3.118 0.074,-0.767 -0.05,-1.211 0.198,-1.138 0.248,0.075 1.782,0.198 2.994,1.536 1.214,1.335 2.426,3.908 3.417,5.27 0.989,1.362 1.309,1.732 1.434,1.435 0.124,-0.295 -0.668,-0.717 -1.162,-3.092 -0.496,-2.376 0.147,-4.382 0.518,-4.308 m 11.058,21.562 c -0.335,0.696 -0.774,0.915 -1.316,0.798 -0.543,-0.113 -1.16,0.516 -1.42,0.531 -0.258,0.012 0.852,-1.238 1.394,-1.843 0,0 1.742,-1.498 1.985,-1.524 0.246,-0.025 -0.309,1.342 -0.643,2.038 M 3.187,-27.528 c 0,0 -0.395,-0.749 -0.926,-1.499 -0.528,-0.75 -0.352,-1.719 0.311,-2.733 0.66,-1.015 0.793,-0.22 0.615,0.354 -0.173,0.571 0.222,1.762 0.309,2.467 0.088,0.705 0.046,1.233 -0.309,1.411 m -30.239,10.867 c 0.553,-0.07 1.511,0.145 2.025,-0.279 0.09,-0.074 -0.272,-0.459 -0.529,-0.668 -0.9,-0.729 -0.702,-1.742 0.002,-1.237 0.681,0.49 2.025,0.776 2.945,0.087 0.921,-0.692 0.807,-1.844 1.128,-2.832 0.322,-0.991 0.415,-1.384 0.599,-1.176 0.185,0.207 0.323,1.105 0.53,1.196 0.208,0.094 -0.046,-0.16 0.391,-1.587 0.439,-1.429 0.805,-1.89 0.945,-1.797 0.137,0.092 0.184,1.381 0.345,1.151 0.161,-0.231 0.091,-1.265 0.345,-2.094 0.253,-0.831 0.3,-0.807 0.575,-0.645 0.277,0.16 0.531,0.438 1.292,0.115 0.758,-0.324 1.588,-0.324 1.795,0.091 0.208,0.415 0.922,1.359 -0.438,2.603 -1.357,1.243 -2.924,3.246 -2.924,3.246 -2.257,2.557 -3.692,5.352 -4.214,6.564 -0.911,2.109 -1.377,2.013 -1.792,2.196 -0.415,0.186 -0.166,-0.123 0.018,-0.769 0.185,-0.645 0.485,-1.795 0.208,-1.567 -0.277,0.232 -0.817,0.61 -1.439,0.818 -0.621,0.208 -1.625,-0.192 -1.123,-0.419 0.328,-0.149 1.733,-1.572 1.41,-1.665 -0.321,-0.092 -1.141,-0.058 -1.807,-0.496 -0.668,-0.437 -0.841,-0.769 -0.287,-0.836 M 8.647,-30.588 c 0.156,0.156 0.187,3.824 0.078,5.68 -0.11,1.859 -0.922,3.34 -1.06,3.325 -0.142,-0.016 -0.578,-0.937 -0.124,-2.325 0.451,-1.388 0.481,-3.651 0.389,-3.886 -0.095,-0.234 -0.343,1.139 -0.501,2.106 -0.154,0.97 -0.764,2.029 -1.077,1.983 -0.31,-0.047 0.058,-1.037 -0.342,-1.452 -0.373,-0.39 0.016,-1.482 0.717,-3.074 0.702,-1.593 1.763,-2.511 1.92,-2.357 m -9.382,12.794 c 1.888,0.192 1.327,1.017 0.929,1.46 -0.399,0.442 -1.342,1.224 -2.227,1.15 -0.885,-0.072 -1.299,-0.191 -2.095,-0.898 -1.057,-0.941 -0.708,-1.343 0.074,-1.565 0.781,-0.221 1.432,-0.34 3.319,-0.147 m 10.765,0.365 c 0.142,0.091 0.351,2.684 -0.271,3.792 -0.618,1.108 -1.727,2.399 -1.727,2.399 -0.258,0.218 -0.735,0.465 -0.619,-0.297 0.116,-0.76 0.284,-1.702 0.916,-3.107 0.631,-1.406 1.56,-2.877 1.701,-2.787 m 7.065,-9.68 c 0.716,-2.036 2.601,-2.469 2.601,-2.469 0,0 -0.427,0.741 -0.772,2.116 -0.352,1.411 0.033,3.082 -0.045,4.498 -0.081,1.416 -1.088,2.113 -1.088,2.113 0,0 0.254,-0.867 0.363,-1.558 0.223,-1.415 -0.107,-2.3 -0.107,-2.3 0,0 -0.365,1.939 -0.986,3.181 -0.465,0.932 -0.842,1.113 -0.842,1.113 0,0 -0.004,-0.749 0.283,-2.244 0.286,-1.496 -0.123,-2.414 0.593,-4.45 M 3.907,-15.885 c -0.056,0.417 -0.489,-0.512 -0.791,-0.703 -0.302,-0.189 -0.079,-1.757 0.071,-3.138 0.152,-1.379 -0.014,-3.471 -0.11,-3.605 -0.094,-0.129 -0.273,1.011 -0.461,2.107 -0.188,1.095 -0.805,2.012 -1.162,1.992 0,0 -0.095,-0.224 -0.208,-0.472 -0.113,-0.246 -0.246,-1.831 0.075,-3.418 0.321,-1.585 1.569,-2.079 1.7,-2.002 0.133,0.076 1.02,1.567 1.266,4.194 0.245,2.623 -0.322,4.631 -0.38,5.045 m 1.997,-2.327 c -0.145,0.461 -0.498,0.931 -0.614,0.777 -0.115,-0.154 -0.414,-1.065 -0.269,-1.507 0.144,-0.44 1.17,-1.667 1.391,-1.966 0.221,-0.295 0.355,0.489 0.43,1.689 0.078,1.2 -0.085,2.35 -0.239,2.878 -0.154,0.526 0.192,0.105 0.365,-0.412 0.173,-0.519 0.412,-0.415 0.766,-0.615 0.355,-0.201 0.116,0.039 -0.459,1.343 -0.577,1.305 -0.759,1.429 -0.882,1.172 -0.125,-0.26 -0.337,-0.549 -0.433,-0.654 -0.096,-0.106 0.04,-0.412 0.193,-1.266 0.153,-0.854 0.133,-1.84 0.087,-2.169 -0.049,-0.325 -0.193,0.269 -0.336,0.73 m 0.502,-14.696 c 0.618,-0.923 0.926,-1.277 0.75,-0.085 -0.177,1.188 -0.883,2.864 -1.146,4.496 -0.265,1.629 -0.75,2.16 -0.75,2.16 -0.265,-0.31 -1.366,-2.469 -1.014,-3.528 0.354,-1.059 1.544,-2.115 2.16,-3.043" />
        </g>
        <g
           transform="translate(1097.0431,151.0983)"
           id="g25870">
          <path
             id="path25872"
             style="fill:#bdcae2;fill-opacity:1;fill-rule:nonzero;stroke:none"
             d="m 0,0 c 0.174,-0.179 0.331,-0.364 0.468,-0.556 25.877,-0.364 46.817,-21.515 46.817,-47.476 0,-3.629 -0.418,-7.159 -1.195,-10.555 0.151,-0.206 0.286,-0.421 0.399,-0.644 0.866,3.595 1.341,7.341 1.341,11.199 C 47.83,-21.613 26.393,-0.113 0,0 m -48.245,-48.032 c 0,-3.86 0.473,-7.608 1.339,-11.206 0.112,0.224 0.245,0.437 0.396,0.643 -0.777,3.397 -1.19,6.932 -1.19,10.563 0,24.332 18.397,44.44 42.01,47.168 0.043,0.073 0.084,0.145 0.135,0.218 0.07,0.102 0.173,0.238 0.298,0.384 -24.122,-2.531 -42.988,-22.986 -42.988,-47.77 m 3.513,-18.008 c 0.325,-0.799 0.67,-1.589 1.036,-2.367 0.172,0.059 0.347,0.115 0.519,0.173 -0.263,0.558 -0.504,1.129 -0.747,1.699 -0.283,0.149 -0.552,0.314 -0.808,0.495 m 87.664,-1.82 c 0.175,-0.056 0.346,-0.115 0.519,-0.172 0.299,0.65 0.577,1.312 0.848,1.977 -0.253,-0.178 -0.52,-0.34 -0.8,-0.487 -0.188,-0.44 -0.367,-0.884 -0.567,-1.318" />
        </g>
        <g
           transform="translate(1098.6653,149.2917)"
           id="g25874">
          <path
             id="path25876"
             style="fill:#5c84b7;fill-opacity:1;fill-rule:nonzero;stroke:none"
             d="m 0,0 c 0.304,-0.153 0.638,-0.349 1.001,-0.594 23.9,-1.469 42.897,-21.37 42.897,-45.631 0,-3.145 -0.336,-6.21 -0.945,-9.176 0.089,-0.057 0.185,-0.112 0.269,-0.17 0.078,-0.054 0.145,-0.115 0.219,-0.171 0.648,3.073 1.002,6.253 1.002,9.517 C 44.443,-21.325 24.67,-0.966 0,0 m -48.101,-46.225 c 0,-3.264 0.355,-6.444 1.002,-9.519 0.074,0.056 0.141,0.118 0.218,0.171 0.084,0.058 0.18,0.114 0.269,0.17 -0.608,2.967 -0.944,6.033 -0.944,9.178 0,22.477 16.305,41.204 37.705,45.008 l 0.29,0.276 c 0.155,0.149 0.294,0.279 0.431,0.406 -22.057,-3.512 -38.971,-22.66 -38.971,-45.69 m 4.174,-19.155 c 0.1,-0.22 0.19,-0.445 0.293,-0.662 0.174,0.057 0.35,0.11 0.524,0.165 -0.043,0.089 -0.079,0.181 -0.12,0.271 -0.214,0.067 -0.445,0.142 -0.697,0.226 m 84.064,-0.304 c 0.046,0.099 0.086,0.203 0.131,0.302 -0.19,-0.063 -0.37,-0.121 -0.537,-0.174 0.136,-0.043 0.27,-0.086 0.406,-0.128" />
        </g>
        <g
           transform="translate(1053.099,103.0663)"
           id="g25878">
          <path
             id="path25880"
             style="fill:#d4dceb;fill-opacity:1;fill-rule:nonzero;stroke:none"
             d="m 0,0 c 0,-2.812 0.281,-5.556 0.791,-8.222 0.168,0.075 0.337,0.149 0.51,0.22 C 0.812,-5.407 0.544,-2.735 0.544,0 c 0,20.416 14.243,37.557 33.31,42.039 0.015,0.199 0.046,0.393 0.1,0.582 C 14.534,38.164 0,20.754 0,0 m 48.694,43.449 c 0.103,-0.192 0.188,-0.385 0.255,-0.582 C 70.316,40.284 86.931,22.052 86.931,0 c 0,-2.735 -0.269,-5.406 -0.759,-8.001 0.174,-0.071 0.342,-0.145 0.51,-0.219 0.51,2.664 0.793,5.408 0.793,8.22 0,22.44 -16.989,40.977 -38.781,43.449" />
        </g>
      </g>
    </g>
  </g>
</svg>
