<?xml version="1.0" encoding="UTF-8" standalone="no"?>
<svg
   width="20.266024mm"
   height="27.095182mm"
   viewBox="0 0 20.266025 27.095182"
   version="1.1"
   id="svg67976"
   xmlns="http://www.w3.org/2000/svg"
   xmlns:svg="http://www.w3.org/2000/svg"
   xmlns:rdf="http://www.w3.org/1999/02/22-rdf-syntax-ns#"
   xmlns:cc="http://creativecommons.org/ns#"
   xmlns:dc="http://purl.org/dc/elements/1.1/">
  <defs
     id="defs67970">
    <clipPath
       id="clipPath197225"
       clipPathUnits="userSpaceOnUse">
      <path
         id="path197223"
         d="M 0,0 H 595.276 V 841.89 H 0 Z" />
    </clipPath>
  </defs>
  <metadata
     id="metadata67973">
    <rdf:RDF>
      <cc:Work
         rdf:about="">
        <dc:format>image/svg+xml</dc:format>
        <dc:type
           rdf:resource="http://purl.org/dc/dcmitype/StillImage" />
        <dc:title />
      </cc:Work>
    </rdf:RDF>
  </metadata>
  <g
     id="layer1"
     transform="translate(1340.3776,414.09874)">
    <g
       id="g197219"
       transform="matrix(0.35277777,0,0,-0.35277777,-1344.3776,-122.26179)">
      <g
         id="g197221"
         clip-path="url(#clipPath197225)">
        <g
           id="g197303"
           transform="translate(16.2407,793.7894)">
          <path
             d="m 0,0 c -0.408,0.202 -0.704,0.569 -0.644,0.973 0.063,0.42 0.439,0.665 0.909,0.729 L 5.594,2.468 C 5.755,2.492 5.887,2.486 5.954,2.483 6.317,2.426 6.529,2.127 6.484,1.832 6.434,1.499 6.2,1.368 5.906,1.33 L 4.99,1.229 4.646,-0.982 5.48,-1.355 C 5.755,-1.481 5.935,-1.68 5.884,-2.007 5.837,-2.326 5.512,-2.552 5.139,-2.492 4.987,-2.467 4.883,-2.41 4.839,-2.391 Z M 3.408,-0.442 3.643,1.071 0.813,0.755 0.812,0.739 Z"
             style="fill:#e6ab11;fill-opacity:1;fill-rule:nonzero;stroke:none"
             id="path197305" />
        </g>
        <g
           id="g197307"
           transform="translate(16.8724,797.4785)">
          <path
             d="m 0,0 c -0.43,0.066 -0.679,0.37 -0.625,0.723 l 0.208,1.322 C -0.139,3.828 1.364,4.637 3.44,4.311 5.404,4.007 6.51,2.727 6.257,1.087 L 6.039,-0.297 C 5.998,-0.559 5.771,-0.897 5.24,-0.815 Z M 4.836,0.471 4.959,1.273 C 5.12,2.299 4.305,2.909 3.181,3.083 1.987,3.263 1.039,2.926 0.869,1.835 L 0.755,1.107 Z"
             style="fill:#e6ab11;fill-opacity:1;fill-rule:nonzero;stroke:none"
             id="path197309" />
        </g>
        <g
           id="g197311"
           transform="translate(17.7157,805.0684)">
          <path
             d="m 0,0 c -0.471,0.07 -0.689,0.366 -0.64,0.708 0.053,0.342 0.359,0.555 0.823,0.481 L 4.877,0.461 5.101,1.876 C 5.164,2.284 5.546,2.401 5.865,2.344 6.172,2.277 6.446,2.025 6.39,1.674 L 6.08,-0.314 C 6.023,-0.704 5.685,-0.891 5.218,-0.815 Z"
             style="fill:#e6ab11;fill-opacity:1;fill-rule:nonzero;stroke:none"
             id="path197313" />
        </g>
        <g
           id="g197315"
           transform="translate(18.2368,808.4069)">
          <path
             d="m 0,0 c -0.467,0.068 -0.692,0.37 -0.638,0.708 0.054,0.341 0.351,0.555 0.821,0.483 L 3.449,0.685 C 4.308,0.55 5.063,0.91 5.183,1.669 5.294,2.391 4.649,2.997 3.831,3.121 L 0.562,3.632 C 0.095,3.706 -0.126,4.005 -0.073,4.346 -0.019,4.681 0.281,4.899 0.749,4.823 L 4.087,4.303 C 5.66,4.062 6.677,2.779 6.475,1.466 6.267,0.136 4.927,-0.768 3.332,-0.524 Z"
             style="fill:#e6ab11;fill-opacity:1;fill-rule:nonzero;stroke:none"
             id="path197317" />
        </g>
        <g
           id="g197319"
           transform="translate(21.7428,818.8331)">
          <path
             d="M 0,0 C 0.464,0.365 1.503,0.891 2.015,0.232 2.227,-0.033 2.252,-0.388 2.012,-0.573 1.756,-0.775 1.371,-0.657 0.84,-1.071 0.057,-1.687 0.259,-2.789 0.978,-3.699 c 0.693,-0.881 1.7,-1.32 2.477,-0.707 0.531,0.414 0.503,0.897 0.762,1.099 C 4.501,-3.081 4.899,-3.32 5.031,-3.484 5.594,-4.201 4.763,-5.117 4.296,-5.485 3.01,-6.488 1.175,-5.992 -0.032,-4.444 -1.244,-2.896 -1.292,-1.011 0,0"
             style="fill:#e6ab11;fill-opacity:1;fill-rule:nonzero;stroke:none"
             id="path197321" />
        </g>
        <g
           id="g197323"
           transform="translate(26.3132,820.0113)">
          <path
             d="M 0,0 C -0.111,0.458 0,0.846 0.414,0.951 L 2.353,1.432 C 2.729,1.522 2.982,1.255 3.061,0.935 3.14,0.619 3.032,0.253 2.666,0.164 l -1.374,-0.339 0.331,-1.346 1.28,0.322 c 0.385,0.092 0.65,-0.175 0.729,-0.494 0.076,-0.311 -0.041,-0.682 -0.414,-0.776 l -1.279,-0.32 0.345,-1.393 1.443,0.354 C 4.103,-3.735 4.359,-4.002 4.441,-4.321 4.52,-4.634 4.409,-5 4.043,-5.09 L 2.028,-5.594 c -0.344,-0.087 -0.673,0.127 -0.771,0.54 z"
             style="fill:#e6ab11;fill-opacity:1;fill-rule:nonzero;stroke:none"
             id="path197325" />
        </g>
        <g
           id="g197327"
           transform="translate(30.6372,821.1973)">
          <path
             d="M 0,0 C -0.033,0.341 0.177,0.796 0.588,0.895 0.979,0.997 1.368,0.738 1.535,0.428 l 1.823,-3.411 0.015,0.006 0.019,3.869 C 3.395,1.243 3.623,1.647 4.011,1.744 4.425,1.846 4.82,1.548 4.954,1.23 L 6.949,-3.721 C 6.971,-3.771 6.984,-3.827 6.996,-3.874 7.094,-4.278 6.908,-4.599 6.595,-4.673 6.197,-4.776 5.989,-4.604 5.829,-4.179 l -1.388,3.625 -0.016,-0.01 0.016,-4.082 c 0,-0.232 -0.073,-0.58 -0.493,-0.689 C 3.525,-5.437 3.301,-5.163 3.19,-4.954 L 1.298,-1.336 1.285,-1.341 1.753,-5.196 C 1.803,-5.636 1.699,-5.889 1.301,-5.99 0.992,-6.064 0.676,-5.868 0.573,-5.466 0.562,-5.418 0.55,-5.365 0.546,-5.308 Z"
             style="fill:#e6ab11;fill-opacity:1;fill-rule:nonzero;stroke:none"
             id="path197329" />
        </g>
        <g
           id="g197331"
           transform="translate(22.3997,757.4619)">
          <path
             d="m 0,0 c -3.054,0.703 -3.294,3.637 -3.288,3.661 l -3.702,26.871 1.989,0.017 3.656,-26.675 c 0.006,0 0,-0.057 0.041,-0.228 0.041,-0.164 0.116,-0.398 0.24,-0.628 C -0.802,2.541 -0.436,2.104 0.401,1.919 4.491,1.047 14.258,-1.14 17.53,-1.147 l 0.031,0.007 c 3.358,-0.027 17.063,2.714 18.25,3.046 1.37,0.542 0.847,-0.155 1.441,1.556 0.399,2.064 3.13,27.035 3.136,27.055 l -0.063,0.062 1.996,-0.013 C 42.315,30.532 39.624,5.452 39.163,3.053 38.91,1.142 37.643,0.197 36.323,0.013 34.826,-0.365 21.51,-3.078 17.561,-3.095 c 0,0 -0.031,-0.01 -0.034,-0.01 C 13.721,-3.068 4.131,-0.862 0,0 m -6.99,30.533 v -0.001 z"
             style="fill:#013a81;fill-opacity:1;fill-rule:nonzero;stroke:none"
             id="path197333" />
        </g>
        <g
           id="g197335"
           transform="translate(19.6031,823.2518)">
          <path
             d="m 0,0 c 4.755,1.138 15.6,3.998 20.381,3.779 4.525,-0.203 17.408,-2.897 22.011,-3.905 0.834,-0.18 2.392,-0.873 2.895,-3.742 0.87,-4.954 3.684,-26.665 3.684,-31.359 0,-4.315 -2.765,-23.734 -3.762,-30.483 -0.256,-1.749 -1.271,-2.543 -2.781,-2.892 -5.259,-1.205 -17.525,-3.903 -21.923,-3.987 -4.642,-0.092 -16.779,2.798 -21.781,4.049 -1.369,0.338 -2.361,1.553 -2.616,3.21 -1.128,7.262 -4.161,27.147 -4.161,30.103 0,3.184 3.07,25.667 3.901,31.478 0.114,0.8 0.507,2.874 4.152,3.749 z"
             style="fill:none;stroke:#ecb615;stroke-width:0.423;stroke-linecap:butt;stroke-linejoin:round;stroke-miterlimit:22;stroke-dasharray:none;stroke-opacity:1"
             id="path197337" />
        </g>
        <g
           id="g197339"
           transform="translate(44.4683,823.0576)">
          <path
             d="M 0,0 C 0.562,-0.153 1.589,-0.674 1.374,-1.467 1.286,-1.792 1.017,-2.017 0.73,-1.941 c -0.313,0.089 -0.442,0.461 -1.087,0.638 -0.954,0.265 -1.702,-0.549 -2.006,-1.658 -0.293,-1.071 -0.05,-2.126 0.898,-2.391 0.641,-0.174 1.007,0.136 1.326,0.05 0.341,-0.093 0.392,-0.549 0.335,-0.758 -0.237,-0.865 -1.453,-0.743 -2.018,-0.59 -1.561,0.426 -2.246,2.179 -1.731,4.052 C -3.039,-0.722 -1.567,0.428 0,0"
             style="fill:#e6ab11;fill-opacity:1;fill-rule:nonzero;stroke:none"
             id="path197341" />
        </g>
        <g
           id="g197343"
           transform="translate(46.5087,821.6221)">
          <path
             d="M 0,0 C 0.12,0.434 0.404,0.646 0.79,0.54 L 2.135,0.172 C 3.32,-0.15 3.876,-0.976 3.49,-2.396 3.215,-3.389 2.423,-3.781 1.602,-3.711 l 0.852,-2 c 0.07,-0.17 0.079,-0.317 0.045,-0.442 -0.098,-0.352 -0.427,-0.628 -0.768,-0.54 -0.136,0.041 -0.306,0.152 -0.382,0.36 L 0.313,-3.436 0.297,-3.433 -0.24,-5.392 c -0.123,-0.451 -0.439,-0.636 -0.771,-0.546 -0.328,0.092 -0.505,0.411 -0.379,0.864 z m 0.569,-2.459 0.789,-0.215 c 0.424,-0.115 0.796,0.1 0.935,0.613 0.139,0.513 -0.076,0.869 -0.496,0.984 l -0.793,0.221 z"
             style="fill:#e6ab11;fill-opacity:1;fill-rule:nonzero;stroke:none"
             id="path197345" />
        </g>
        <g
           id="g197347"
           transform="translate(50.9243,820.3698)">
          <path
             d="M 0,0 C 0.126,0.453 0.408,0.733 0.815,0.619 L 2.723,0.096 C 3.089,-0.003 3.184,-0.358 3.095,-0.674 3.01,-0.981 2.739,-1.243 2.375,-1.145 L 1.027,-0.775 0.663,-2.094 1.924,-2.442 C 2.303,-2.544 2.397,-2.901 2.315,-3.22 2.227,-3.526 1.949,-3.789 1.582,-3.689 l -1.26,0.343 -0.379,-1.37 1.422,-0.391 C 1.731,-5.207 1.826,-5.561 1.74,-5.878 1.655,-6.184 1.384,-6.445 1.023,-6.353 l -1.98,0.546 c -0.338,0.096 -0.515,0.431 -0.407,0.84 z"
             style="fill:#e6ab11;fill-opacity:1;fill-rule:nonzero;stroke:none"
             id="path197349" />
        </g>
        <g
           id="g197351"
           transform="translate(58.8176,816.8654)">
          <path
             d="m 0,0 c -0.202,-0.306 -0.553,-0.467 -0.828,-0.291 -0.271,0.182 -0.331,0.559 -0.732,0.818 -0.285,0.187 -0.664,0.169 -0.882,-0.153 -0.524,-0.81 2.044,-1.745 0.721,-3.769 -0.73,-1.122 -1.971,-1.308 -2.895,-0.708 -0.51,0.332 -1.524,1.197 -1.047,1.936 0.202,0.308 0.54,0.444 0.808,0.264 0.316,-0.202 0.49,-0.753 0.923,-1.033 0.442,-0.292 0.871,-0.153 1.124,0.229 0.6,0.927 -1.99,1.823 -0.802,3.636 0.714,1.105 1.927,1.288 2.814,0.713 C -0.423,1.393 0.404,0.619 0,0"
             style="fill:#e6ab11;fill-opacity:1;fill-rule:nonzero;stroke:none"
             id="path197353" />
        </g>
        <g
           id="g197355"
           transform="translate(62.5446,811.0032)">
          <path
             d="m 0,0 c 0.076,-0.576 -0.01,-1.726 -0.828,-1.826 -0.334,-0.047 -0.644,0.12 -0.685,0.411 -0.038,0.325 0.259,0.586 0.177,1.251 -0.123,0.979 -1.163,1.364 -2.296,1.221 -1.103,-0.139 -1.987,-0.77 -1.867,-1.739 0.079,-0.664 0.502,-0.883 0.545,-1.213 0.046,-0.354 -0.355,-0.57 -0.567,-0.597 -0.891,-0.107 -1.245,1.061 -1.314,1.642 -0.202,1.605 1.156,2.906 3.083,3.143 C -1.826,2.536 -0.199,1.614 0,0"
             style="fill:#e6ab11;fill-opacity:1;fill-rule:nonzero;stroke:none"
             id="path197357" />
        </g>
        <g
           id="g197359"
           transform="translate(62.0519,808.7322)">
          <path
             d="M 0,0 C 0.464,0.057 0.755,-0.161 0.796,-0.502 0.837,-0.843 0.609,-1.124 0.142,-1.188 l -5.275,-0.657 c -0.467,-0.055 -0.758,0.168 -0.799,0.504 -0.044,0.34 0.187,0.627 0.651,0.686 z"
             style="fill:#e6ab11;fill-opacity:1;fill-rule:nonzero;stroke:none"
             id="path197361" />
        </g>
        <g
           id="g197363"
           transform="translate(62.3614,806.4171)">
          <path
             d="M 0,0 C 0.341,-0.009 0.761,-0.264 0.809,-0.685 0.859,-1.08 0.562,-1.431 0.24,-1.56 L -3.326,-2.952 -3.323,-2.967 0.474,-3.44 C 0.821,-3.484 1.191,-3.752 1.241,-4.147 1.295,-4.567 0.951,-4.919 0.622,-5.009 L -4.472,-6.39 c -0.054,-0.015 -0.111,-0.02 -0.158,-0.025 -0.408,-0.052 -0.698,0.171 -0.739,0.482 -0.051,0.407 0.142,0.589 0.574,0.699 l 3.721,0.934 v 0.02 l -4.011,0.461 c -0.231,0.027 -0.566,0.139 -0.616,0.563 -0.057,0.426 0.24,0.62 0.458,0.706 l 3.774,1.429 v 0.016 l -3.84,-0.004 c -0.443,0.004 -0.676,0.133 -0.727,0.534 -0.038,0.314 0.193,0.603 0.6,0.654 0.048,0.005 0.098,0.013 0.158,0.013 z"
             style="fill:#e6ab11;fill-opacity:1;fill-rule:nonzero;stroke:none"
             id="path197365" />
        </g>
        <g
           id="g197367"
           transform="translate(63.1289,800.4965)">
          <path
             d="M 0,0 C 0.464,0.054 0.755,-0.163 0.799,-0.501 0.837,-0.842 0.613,-1.126 0.148,-1.183 L -3.098,-1.59 c -0.853,-0.101 -1.476,-0.651 -1.381,-1.403 0.089,-0.721 0.866,-1.119 1.687,-1.02 l 3.24,0.408 C 0.911,-3.549 1.2,-3.774 1.246,-4.112 1.289,-4.452 1.058,-4.742 0.594,-4.796 l -3.317,-0.412 c -1.563,-0.193 -2.877,0.75 -3.038,2.053 -0.164,1.32 0.862,2.547 2.441,2.741 z"
             style="fill:#e6ab11;fill-opacity:1;fill-rule:nonzero;stroke:none"
             id="path197369" />
        </g>
        <g
           id="g197371"
           transform="translate(64.0701,791.8627)">
          <path
             d="m 0,0 c -0.363,-0.049 -0.711,0.115 -0.755,0.439 -0.038,0.325 0.212,0.611 0.149,1.088 -0.038,0.338 -0.294,0.618 -0.683,0.57 -0.96,-0.117 -0.019,-2.678 -2.416,-2.978 -1.326,-0.166 -2.271,0.666 -2.407,1.756 -0.075,0.61 -0.072,1.939 0.799,2.048 0.37,0.046 0.689,-0.121 0.727,-0.448 0.05,-0.371 -0.259,-0.858 -0.193,-1.369 0.067,-0.525 0.446,-0.768 0.897,-0.708 1.099,0.133 0.108,2.694 2.265,2.96 C -0.316,3.523 0.606,2.71 0.736,1.657 0.793,1.219 0.733,0.089 0,0"
             style="fill:#e6ab11;fill-opacity:1;fill-rule:nonzero;stroke:none"
             id="path197373" />
        </g>
        <g
           id="g197375"
           transform="translate(30.8867,790.2234)">
          <path
             d="M 0,0 C 0.24,-1.987 0.995,-3.809 2.479,-5.29 4.267,-6.974 5.328,-7.56 7.066,-7.754 L 7.044,7.833 11.153,7.819 V -7.809 c 1.57,0.047 3.319,0.955 4.813,2.525 1.463,1.554 2.218,3.231 2.502,5.208 l 4.416,-0.025 C 22.088,-10.524 11.153,-12.336 11.153,-12.336 v -11.545 c 3.803,0.05 11.351,4.766 11.181,12.84 l 4.349,-0.191 c -0.072,-12.523 -12.331,-16.88 -15.53,-16.88 v -2.825 H 7.044 v 2.776 c -3.08,0.049 -15.338,4.163 -15.338,16.917 l 4.409,0.173 c 0,-8.586 7.726,-12.694 10.929,-12.741 0,7.726 0.082,11.462 0.041,11.462 -1.851,0 -11.03,2.107 -11.497,12.315 z"
             style="fill:#006a51;fill-opacity:1;fill-rule:nonzero;stroke:none"
             id="path197377" />
        </g>
        <g
           id="g197379"
           transform="translate(30.8096,790.3115)">
          <path
             d="M 0,0 C 0.242,-2.002 1.003,-3.838 2.5,-5.331 4.303,-7.027 5.373,-7.617 7.125,-7.813 L 7.103,7.893 11.247,7.878 V -7.869 c 1.583,0.048 3.347,0.963 4.854,2.545 1.475,1.565 2.236,3.255 2.523,5.248 l 4.453,-0.026 c -0.803,-10.502 -11.83,-12.327 -11.83,-12.327 v -11.634 c 3.835,0.051 11.447,4.802 11.275,12.938 l 4.386,-0.192 C 26.835,-23.936 14.473,-28.326 11.247,-28.326 v -2.847 H 7.103 v 2.798 c -3.106,0.049 -15.467,4.194 -15.467,17.045 l 4.446,0.175 c 0,-8.651 7.791,-12.79 11.021,-12.838 0,7.784 0.083,11.549 0.041,11.549 -1.866,0 -11.122,2.123 -11.594,12.409 z"
             style="fill:none;stroke:#e6ab11;stroke-width:0.081;stroke-linecap:butt;stroke-linejoin:miter;stroke-miterlimit:3.864;stroke-dasharray:none;stroke-opacity:1"
             id="path197381" />
        </g>
      </g>
    </g>
  </g>
</svg>
