<?xml version="1.0" encoding="UTF-8" standalone="no"?>
<!-- Generator: Adobe Illustrator 17.1.0, SVG Export Plug-In . SVG Version: 6.00 Build 0)  -->

<svg
   version="1.1"
   id="svg2"
   x="0px"
   y="0px"
   viewBox="0 0 723.6 721.8"
   width="317"
   height="316"
   enable-background="new 0 0 723.6 721.8"
   xml:space="preserve"
   xmlns="http://www.w3.org/2000/svg"
   xmlns:svg="http://www.w3.org/2000/svg">
<defs
   id="defs1">
	
	
		
</defs>

<g
   id="layer3"
   transform="translate(-14.163097,-178.44265)">
</g>
<g
   id="layer4"
   transform="translate(-14.163097,-178.44265)">
</g>
<g
   id="layer5"
   transform="translate(-14.163097,-178.44265)">
</g>
<g
   id="layer6"
   transform="translate(-14.163097,-178.44265)"
   opacity="0.99">
</g>
<g
   id="layer7"
   transform="translate(-14.163097,-178.44265)">
</g>
<g
   id="layer8"
   transform="translate(-14.163097,-178.44265)">
</g>
<g
   id="layer9"
   transform="translate(-14.163097,-178.44265)">
</g>
<g
   id="layer10"
   transform="translate(-14.163097,-178.44265)">
</g>
<g
   id="layer12"
   transform="translate(-14.163097,-178.44265)">
</g>
<g
   id="layer13"
   transform="translate(-14.163097,-178.44265)">
</g>
<g
   id="layer15"
   transform="translate(-14.163097,-178.44265)">
</g>
<g
   id="layer2"
   transform="translate(-14.163097,-178.44265)">
	
		<path
   id="outerGoldCircle"
   fill="#FCAB0F"
   d="   M737.7,536.3c0,197.6-161.9,357.9-361.7,357.9c-199.8,0-361.8-160.2-361.9-357.8c0,0,0-0.1,0-0.1c0-197.6,161.9-357.9,361.7-357.9   c199.8,0,361.8,160.2,361.9,357.8C737.7,536.2,737.7,536.3,737.7,536.3z" />
	
		<path
   id="blueCircle"
   fill="#000080"
   d="   M729.2,536.3c0,192.9-157.8,349.4-352.5,349.4C181.9,885.7,24,729.4,24,536.4c0,0,0-0.1,0-0.1c0-192.9,157.8-349.4,352.5-349.4   s352.6,156.3,352.7,349.3C729.2,536.2,729.2,536.3,729.2,536.3z" />
	<path
   id="innerGoldCircle"
   fill="#FCAB0F"
   d="M633.7,535.1c0,140.2-114.9,254.1-256.5,254.1   S120.7,675.3,120.7,535.1S235.6,281,377.2,281S633.7,394.9,633.7,535.1z" />
	
		<path
   id="shield"
   opacity="0.99"
   fill="#000080"
   enable-background="new    "
   d="   M391.9,320.1c0,0-39.8,31.1-86.9,22c-39.1-7.6-55.7-28.7-55.7-28.7s-53.4,46-73.5,132.5c-15.5,66.9,7.3,163.5,60,232.7   C275,730.1,336,788.3,336,788.3s110-39.6,147.7-77.3c39.4-39.3,93.4-130.4,102.2-206.4c10.4-89.2-54.5-174.1-54.5-174.1   s-26.9,21.8-66.1,21.4C409,351.3,394.3,320.1,391.9,320.1z" />
	
		<path
   id="bannerOutline"
   fill="#FCAB0F"
   d="   M284.1,733.6c3.4-11.6,5.2-20.8-1.8-29c-11-12.8-20.2-14.7-37.3-15.3c-17.1-0.6-61.5,18.2-82,28.1c-20.8,10-65.4,31.5-88.2,37.6   c-28.5,7.6-34,2.1-34,2.1s10.8,14.5,19.9,19.5c17.4,9.5,27.5,10.1,27.5,10.1s-0.3,7.6-9.8,16.2s-22.3,11.6-22.3,11.6   s14.4,6.4,33.1,3.7s35.5-9.8,35.5-9.8s-4.3,28.4-4.3,39.7c0,27.5,12.5,36.2,36.4,45.5c27.2,10.6,86,7.1,117.2,0   c97.3-22,150-47,243.6-91.9c44.7-18,56-20.2,56-20.2s-5.2,19.5-7.3,36.6c-2.4,19.1,1.5,32.7,13.2,40c21.7,13.7,59.7,4,68.3,0   s21.7-6.7,21.7-6.7s-12.8-12.5-22-21.4c-10.3-9.9-16.2-13.1-16.2-13.1s10.5-6.1,23.6-14c12.8-7.8,26.3-13.7,26.3-13.7l-30-22.6   c0,0,1.9-17.6,7-38.5c3.2-13,9.6-25.1-0.3-40.9c-6.8-10.8-26.8-18.1-58.8-13.4c-54.4,7.9-125.8,39.7-207.8,80   c-40.6,20-90,36.9-125.8,43.4C268.5,783.2,275.2,756.5,284.1,733.6L284.1,733.6z" />
	<path
   id="bannerWhite1"
   fill="#FFFFFF"
   d="M59.8,766.6   c0,0,18.3-3.1,40.4-11.6c30.2-11.7,86.9-42.3,112.9-51.6c30.7-11,46.8-8.2,55.7-1.8c13.4,9.7,14.2,23,1.2,36.6   c-5.5,5.9-23.9,11-42.5,10.7c-36.1-0.6-78.8,6.7-88.8,11.3c-7.6,3.5-10.4,9.6-11.3,15.6c-0.7,4.6-1.8,23.5-1.8,23.5   s-6.8,4.5-21.4,8.2c-12.9,3.3-23.3,4-23.3,4s7.9-7.2,11.9-14c4.5-7.5,6.4-17.4,6.4-17.4s-11.6-1.2-20.5-4   C66.2,772.1,59.8,766.6,59.8,766.6L59.8,766.6z" />
	<path
   id="bannerWhite2"
   fill="#FFFFFF"
   d="M134.4,783.5   c1.4-0.1,0.4,14.4,48.1,23.1c56.7,10.3,128.6-8,187.3-34.2c60.3-30.5,148.4-67.2,167.1-73.6c18.7-6.4,64.1-20.2,81.7-18.9   c18,1.3,40.7,7.1,35.3,32.4c-2.9,13.6-5.6,23.1-7.3,34.9c-2.5,17.4-5.7,39.3-5.7,39.3s-8.1-12-29.1-15.4   c-22.6-3.6-57.1,6.2-87.2,19.1c-50.6,21.6-118.2,59.6-215.5,87.9c-52.6,15.3-93.8,18.1-140.5,10.4c-44.6-7.5-40.9-34.9-40.3-42.2   c0.6-7.3,3.5-30.8,4.1-39S134.7,783.5,134.4,783.5L134.4,783.5z" />
	<path
   id="bannerWhite3"
   fill="#FFFFFF"
   d="M613,815.7   c0,0,14.7,6.3,24.5,14.5c7.6,6.4,17.3,17.7,17.3,17.7s-23.8,10.9-45.5,10.1c-24.5-0.9-34.3-9.9-35.1-25   c-0.6-12.5,10.9-19.5,20.6-22.2c12.2-3.5,33.3-2.9,45.7-9.5c8.7-4.6,9.1-26.1,9.1-26.1s7.1,5.2,8.7,6.3s8.4,5.8,8.4,5.8   s-17.1,10.8-23.6,14.7C636.6,805.8,613.4,815.7,613,815.7L613,815.7z" />
	<path
   id="path13033"
   fill="#FFFFFF"
   d="M241.3,843.5l4.6,10.4l-8.9,1.2L241.3,843.5L241.3,843.5z   " />
	<path
   id="path14984"
   fill="#FFFFFF"
   d="M125.8,669.7l-39.2,15.1   L71,648.6c0,0-7.2-12.5,3.7-18.1c9.1-4.7,13.2,3.5,13.2,3.5s-1.2-7.5,6.9-10.6c9.5-3.6,13.4,6.3,13.4,6.3L125.8,669.7L125.8,669.7z   " />
	<path
   id="path14989"
   fill="#FFFFFF"
   d="M57,600.7l-4.1-29.8c0,0-1.3-4.5,0.4-8.2s7.6-4.3,7.6-4.3   l19.3-2.6c0,0,5.6-1.7,8.4,0.6s5.2,9.5,5.2,9.5l4.1,27.6c0,0,1.5,5.4-0.6,9.3c-2.2,3.9-7.4,5-7.4,5L68,610.6c0,0-2.6,1.1-6.7-1.5   S57.4,600.7,57,600.7L57,600.7z" />
	<path
   id="path14991"
   fill="#FFFFFF"
   d="M50.5,538.3l0.9-19.4   l13.6-9.3l-11.5-12.1l1.3-19.2L73,500.5l22.5-19.2l-1.7,19.2L79.9,511L92,522.3l-1.1,18.6l-19.5-19.2L50.5,538.3z" />
	<path
   id="path14993"
   fill="#FFFFFF"
   d="M70.6,420.4l6.1-13l12.8,5.8l10.8-22.2l-12.8-6.3   l6.3-12.5l37,17.9l-5.8,12.5l-14.1-6.9l-11.9,22.5l14.7,7.6l-5.6,12.7L70.6,420.4L70.6,420.4z" />
	<path
   id="path14995"
   fill="#FFFFFF"
   d="M105,353.6l8.9-11.7l33.1,23.3l-7.8,11.9L105,353.6z" />
	<path
   id="path14997"
   fill="#FFFFFF"
   d="M126.2,325.6l9.5-10.4   l22.5,20.7l23.2-22.8l7.1,7.3L157,353.6L126.2,325.6z" />
	<path
   id="path14999"
   fill="#FFFFFF"
   d="M175.1,278.5l11.3-8.6l17.5,24.8l26-17.3l5.8,8.6   L198.3,312L175.1,278.5L175.1,278.5z" />
	<path
   id="path15001"
   fill="#FFFFFF"
   d="M271.2,227.5   l14.3-3.7l3,13l25.5-5.6l-3.5-13.4l13-3.5l9.3,39.1l-13,3.5l-3.7-15.1l-24.2,6.3l3.5,14.5l-13.9,3.9L271.2,227.5L271.2,227.5z" />
	<path
   id="path15003"
   fill="#FFFFFF"
   d="M345,211.8l14.1-1.3l3,40.6l-13.2,0.9L345,211.8   L345,211.8z" />
	<path
   id="path15005"
   fill="#FFFFFF"
   d="   M418.4,227.1l13.8,1.1l0.3-2.6c0,0,1.1-3.7-2.8-8.2c-2.6-3-8.7-3.5-8.7-3.5l-27.1-3c0,0-8.4-0.7-11.9,2.4c-2.7,2.4-3.2,8.2-3.2,8.2   l-2.4,16.4c0,0,0,7.4,2.6,9.7c4,3.6,12.8,5,12.8,5l24,1.7c0,0,6.3,1.3,10.4-1.5c4.1-2.8,4.3-8.4,4.3-8.4l0.9-13l-27.7-2.8   l-1.1,10.6l14.1,1.1c0,0,0,1.5-1.5,2.8s-3.9,0.6-3.9,0.6l-16.4-1.7c0,0-1.7,0-2.8-1.3c-1.1-1.3-1.1-3.7-1.1-3.7l1.1-11   c0,0-0.4-1.1,1.1-3c1.5-1.9,3.7-1.1,3.7-1.1l18.2,1.5c0,0,1.9,0,2.8,1.1C418.6,225.6,418.6,226.9,418.4,227.1L418.4,227.1z" />
	<path
   id="path15007"
   fill="#FFFFFF"
   d="M456.3,219.1   l13.6,4.5l-4.1,12.4l24.7,8.4l4.1-12.3l13.2,5.2l-13.6,37.6l-13.6-4.5l6.1-15.3l-24.5-8.2l-5.4,16l-13.6-4.5L456.3,219.1   L456.3,219.1z" />
	<path
   id="path15009"
   fill="#FFFFFF"
   d="   M584.2,302.3l10.2,8.9l3.2-3.9c0,0,2.6-3.5,1.3-7.1c-1.3-3.7-6.1-7.3-6.1-7.3l-24-20.1c0,0-2.8-2.4-6.9-1.7c-4.1,0.6-5,2.6-5,2.6   l-6.1,6.9c0,0-1.1,3.5-0.6,5.2s2.8,5.4,2.8,5.4l20.6,18.8c0,0,2.8,1.5,0.6,3.9c-2.2,2.4-5.6-0.9-5.6-0.9L556.3,302   c0,0-2.2-0.9-2.2-2.4c0-1.5,1.9-2.8,1.9-2.8l-11.3-9.5l-4.8,6c0,0-1.3,3.2-0.6,5.6c0.6,2.4,4.5,6.9,4.5,6.9l25.3,20.3   c0,0,3.9,2.2,8,1.7c4.1-0.4,5.4-2.8,5.4-2.8l5.2-6.9c0,0,3-3,0-7.3c-2.6-3.7-5.2-6.3-5.2-6.3L566,289.1c0,0-2.4-2.6-0.9-4.1   c1.5-1.5,4.5,0.9,4.5,0.9l13.9,11c0,0,1.5,0.9,1.5,2.4S584.4,302.7,584.2,302.3L584.2,302.3z" />
	<path
   id="path15013"
   fill="#FFFFFF"
   d="   M632.2,360.1l7.1,11l5-2.6c0,0,3.7-2.2,4.3-5.4c0.6-3.2-3.5-10.4-3.5-10.4L627.9,329c0,0-3.5-5-8.4-5s-8.2,2.6-8.2,2.6l-14.5,10.6   c0,0-4.5,4.5-4.3,7.3c0.2,2.8,1.5,6.9,1.5,6.9l19.3,25c0,0,4.1,5.4,8.2,5.6c4.1,0.2,10.8-5.2,10.8-5.2l-8.2-11.4   c0,0-1.7,2.2-3.2,1.9s-3.7-3-3.7-3l-9.3-11.9c0,0-1.1-1.1-1.3-3s2.8-3.5,2.8-3.5l7.1-6.3c0,0,1.9-1.3,3.5-1.1s3.7,2.2,3.7,2.2   l8.9,11.4c0,0,2.6,2.6,2.4,4.5S632.5,359.7,632.2,360.1L632.2,360.1z" />
	<path
   id="path15017"
   fill="#FFFFFF"
   d="M664.1,382.4l6.3,13.6l-12.8,5.6l10.6,22.7l12.1-4.5   l5.6,12.3l-38.1,14.5l-5-12.3l15.2-6L647.6,405l-14.9,6l-5.4-12.3L664.1,382.4L664.1,382.4z" />
	<path
   id="path15019"
   fill="#FFFFFF"
   d="M653.9,469.6l5.4,33.3c0,0-0.9,3.9,4.8,6.5   s9.3,1.1,9.3,1.1l17.1-2.8c0,0,4.3,0.4,6.5-3c2.2-3.5,1.9-9.3,1.9-9.3l-5.2-32c0,0-1.7-5.6-4.5-7.1c-2.8-1.5-8.4-1.1-8.4-1.1   l-19.9,3.9c0,0-4.1,0.6-6.3,3.9S654.1,469.4,653.9,469.6L653.9,469.6z" />
	<path
   id="path15021"
   fill="#FFFFFF"
   d="M689.6,529.4l-16.2-0.6c0,0-4.5-1.5-7.8,1.3   s-4.1,8.6-4.1,8.6l-2.6,32.2c0,0-0.4,3.9,1.7,6.3s7.4,3.7,7.4,3.7l18.6,1.9c0,0,3.9,1.1,7.8-1.5c3.9-2.6,4.3-7.8,4.3-7.8l3-29.4   c0,0,1.7-5.4-2.2-10.1C695.7,529.2,690,529.6,689.6,529.4L689.6,529.4z" />
	<path
   id="path15023"
   fill="#FFFFFF"
   d="M694.1,606.1l-3.5,13l-27.9-7.8l-9.5,31.3l-10.8-3.2   l13.4-44.3L694.1,606.1L694.1,606.1z" />
	
		<path
   id="path15994"
   fill="#000080"
   stroke="#000000"
   stroke-width="0.428"
   d="   M684.4,542.8l-5.6-0.2c0,0-4.1,0-5.8,1.1c-1.7,1.1-1.1,5.6-1.1,5.6l-0.6,9.1c0,0-0.9,5.2,0.6,7.6c1.7,2.6,6.9,1.9,6.9,1.9h3.9   c0,0,3,1.1,5-0.6s1.7-6,1.7-6l1.3-12.1c0,0,0.6-3-1.7-4.8C686.6,542.6,684.8,542.8,684.4,542.8L684.4,542.8z" />
	
		<path
   id="path15996"
   fill="#000080"
   stroke="#000000"
   stroke-width="0.428"
   d="   M677.3,495.1l5.2-0.9c0,0,3.2,0,4.3-2.4c1.1-2.4-0.4-6-0.4-6l-1.5-11c0,0-0.2-3.5-2.6-4.5c-2.4-1.1-5.8,0.4-5.8,0.4l-5.2,0.9   c0,0-2.6-0.4-4.1,1.7c-1.5,2.2,0,6.7,0,6.7l1.1,10.8c0,0,0,4,3.5,5C674,496.4,677,495.3,677.3,495.1L677.3,495.1z" />
	
		<path
   id="path15998"
   fill="#000080"
   stroke="#000000"
   stroke-width="0.428"
   d="   M79.7,594.8c0,0,3.5,0.2,5.6-2.2c2.2-2.4,0.2-7.3,0.2-7.3l-1.9-11c0,0-0.2-3.3-1.5-4.1c-1.3-0.8-5.6,0-5.6,0l-7.1,0.9   c0,0-3.2,0.9-4.1,2.4c-0.9,1.5,0.4,5.4,0.4,5.4l1.3,11.2c0,0-0.6,3.7,2.2,5.4s6.5,0,6.5,0S79.7,594.8,79.7,594.8z" />
	<path
   id="path16000"
   fill="#000080"
   stroke="#000000"
   stroke-width="0.428"
   d="M95.3,665.9   l-4.3,1.5l-8.4-19c0,0-1.1-3.7,0.4-4.5s4.1,2.8,4.1,2.8L95.3,665.9L95.3,665.9z" />
	<path
   id="path16002"
   fill="#000080"
   stroke="#000000"
   stroke-width="0.428"
   d="M104.4,662.2   l5-2.2l-7.8-18.8c0,0-2.4-5-4.3-3.9c-1.9,1.1-1.3,5-1.3,5S104.4,662.2,104.4,662.2z" />
	
		<path
   id="path16975"
   fill="#FCAB0F"
   d="   M390.9,334c0,0-3.1,3.1-4.7,4.7c-1.6,1.6-9.3,9.3-9.3,9.3l-5.4-12c0,0-7.8,7-8.5,9.3s-3.1,6.6-5.1,8.1   c-1.9,1.6-24.5,13.2-25.3,15.5s-3.9,4.7-7,6.6c-3.1,1.9-22.6,8.7-25.6,9.7s-6.3,6.3-5.5,10.4c0.8,4.1,3.8,9.9,5.2,12.9   c1.4,3,6.3,7.4,12.1,5.8s17.3-7.9,23.9-3.3c6.6,4.7,9.3,7.9,9.3,7.9s-16.2,18.6-19.2,21.7c-3,3-18.9,13.1-23.8,18.3   c-4.9,5.2-9.5,15.6-9.5,15.6s-27.7,3.4-34.3,4.3s-15.1,2.1-18.7,8.4c-3.6,6.3-1,19.8-1.5,24.5c-0.5,4.7-3.1,27.1-4,33.6   c-1.2,8.7,0.2,11.9,12.1,11.1c7.4-0.5,12.2-2.7,12.1-11.9c0-6.3-3.9-11.5-4.7-16.4c-0.8-4.9,1.4-12.9,3-16.4s4.1-8,4.1-8   s4.7-0.3,15.6,3.1c4.7,1.5,17.4,6,17.4,6s1.1,4.1,1.9,5.8c0.8,1.6,3,6.3,3,6.3s-15,18.2-23.9,28.1c-4.3,4.8-6,14.7-6,19.3   c0,4.7,1.1,26.6,1.9,31c0.8,4.4,3.2,9.4,6.6,11.4c9.8,5.7,13.9,8,22,14c5.1,3.8,12.3,2.7,12.8-5.5c0.4-7.4,1-16.6-5.3-18.6   c-4.6-1.4-8.8,1-10.8,1.2c-2.2,0.2-4.6-4.1-5.4-10.3c-1.1-8.8-0.8-12.3,0.9-24.5c0.5-3.5,0.8-6,3.8-7.1s26.4-8.5,26.4-8.5   s8,8.2,11,10.7c3,2.5,15.9,9.2,15.9,9.2s-11.3,25.2-13,29.4c-1.7,4.2-1.8,10.7-1.2,14.9c0.5,4.1,8.5,30.1,8.5,30.1   s-38.3,31.4-42.5,35.5c-4.1,4.1-7.1,13-8.5,16.3c-1.4,3.3-0.1,5.9,8.1,7.3c9.2,1.5,18.4-0.2,18.4-7s-3-9-3-9s21.4-13.7,44.2-24.3   c4.1-1.9,10.3-7.5,11.4-11.6s4.8-17,5.9-21.4s3.6-10.6,8.5-13s17.6-6.7,17.6-6.7s5.5,12.6,12.1,17.5s25.8,13.4,29.9,14.8   s9.1,5.5,6.9,11c-2.2,5.5-12.2,29.5-13.3,32c-1.1,2.5-6,7.2-8.8,9.3c-2.7,2.2-9.5,7.2-10.6,10.8c-1.1,3.6-2.1,7.3,9.2,8.7   c11.3,1.4,17.1-0.4,20.3-9.1c3-8.4,5.5-10.1,8.6-16.6c3.6-7.5,19.6-33,22.6-38.2c3-5.2,3.8-12.4-0.6-19.1c-4.5-7-15.4-12-10.6-32.9   c4.2-18.4,4.1-26.6,4.1-26.6s6,4.1,13.5,3.3c11.1-1.2,26.2-13.7,22.3-33.2s-23-40-20.1-45.5c3.4-6.4,20.3-1.1,27.4-6.6   c7.1-5.5,9.1-13.2,9.4-16.5c0.3-3.3,1.2-13.4,1.2-13.4s-9.2,9.7-17.7,9.1c-8.5-0.5-18.8-16.8-23.8-24.2   c-4.9-7.4-25.8-14.3-40.9-0.3c-15.1,14-10.4,43,2.7,57s28.8,25.8,25.3,37.6s-9.1,5.5-9.1,5.5s-8.2-6.4-10.7-8.3   c0,0-29.4-18.5-34.6-21.8s-15.4-12.3-15.4-12.3s3.9-4.5,5.2-8.5c1.1-3.4,1.3-5.9,1.1-9.3c2-4.1,8.7-14.5,10.7-25.5   c2.2-11.8-0.2-17.1-0.4-22.3c3-5,4.9-7.2,6.7-14.2c1.8-7.4,0-15.6-1.4-17.8c-1.4-2.2-6.3-3.3-7.9-4.9c-1.6-1.6-6.1-21.7-9.7-29.3   c-3.6-7.7-9.5-15.3-10.7-19.5C395.1,352.3,391.2,334.5,390.9,334L390.9,334z" />
	
		<path
   id="horseBodyWhite"
   fill="#FFFFFF"
   d="   M386.8,347.1c0,0-8,9-10.2,12.3c-2.2,3.3-7.2,1-6.3-1.9c1.2-3.6-2.2-8.5-2.2-8.5s-4.1,8.8-5.8,9.9c-1.6,1.1-18.1,10.4-22.5,12.3   s-4.1,4.9-7.4,7.4c-3.3,2.5-12.4,7.7-19,8.8s-9.1,1.6-11.3,3.6c-2.2,1.9,2.7,11.2,2.7,11.2l5.2,1.1l-4.7,1.6c0,0,0.8,4.1,6.3,2.5   c5.5-1.6,15.9-6.9,23.6-4.9c7.7,1.9,14.3,13.4,21.2,13.7c6.9,0.3,10.7-1.6,10.7-1.6s-4.7,5.5-8,6.9s-8.8,0-8.8,0   s-8.2,12.6-14.8,18.4s-30.2,19.5-35.2,34.5s-3,26.9-1.4,30.7c1.6,3.8,4.1,11,4.1,11s3.8-4.4,6-8.2c2.2-3.8,7.7-3,4.7,3.6   c-3,6.6-14.3,20.6-18.4,26.3s-12.4,13.2-16.2,17.5c-3.8,4.4-5.5,16.2-5.5,21.7c0,5.5,0.5,17.3,1.1,21.9c0.5,4.7,3.3,9.9,7.4,12.3   s14.8,10.1,17.6,12.3s8,2.7,8-1.6c0-13.2-0.3-13.7-11.5-11.2c-4.4,1-9.6-7.4-10.7-14.3s-0.8-15.9-0.8-19.7c0-3.8,1.1-15.9,9.3-19.2   c8.2-3.3,23.9-6.9,29.1-9.9s6.9-5.2,9.9-8.2c3-3,7.7-3.6,4.7,1.4c-3,4.9-9.1,10.4-9.1,10.4s10.3,12.4,18.4,15.6   c25.6,10.1,34.2,6.4,42.1,13.4c17.4,15.3,18.7,33.3,27.4,45.5c6.9,9.6,26.1,14.5,32.1,16.7s11.8,7.7,10.2,15.1   c-1.6,7.4-13.2,28.5-15.7,34s-5.5,9.6-9.1,12.1s-14.8,9.9-9.6,11.2c5.2,1.4,7.1,2.7,12.4,1.6c5.2-1.1,5.5-3.8,7.1-7.1   s-0.3-6.9,3.8-10.7s22.5-37.8,25.3-43c2.7-5.2,5.8-9,0-15.9s-12.4-15.4-12.6-21.9c-0.3-6.6,8.5-38.9,5.8-48c-2.7-9-9.6-20.8-44-40   c-29.8-16.6-41.2-32.1-41.5-47.1c-0.3-15.1,25.8-77,25.3-86.9s-9.3-19.5-10.7-23c-1.4-3.6-1.9-7.1-1.9-7.1s-1.1,2.2-3.3,4.7   c-2.2,2.5-4.1,1.6-3.6-1.1c0.5-2.7,1.1-7.4,1.4-12.6c0.3-5.2-0.3-8.5-0.3-8.5L386.8,347.1L386.8,347.1z" />
	<path
   id="horseLegWhite2"
   fill="#FFFFFF"
   d="M355,577.1   c0,0,16.2,2.5,21.2,3.8s16.8,8.5,20.1,16.7s4.1,12.3,4.1,12.3s-20.6,6.6-23.6,11.5s-8.5,30.7-11.5,35.6s-34.1,20-40.4,24.1   s-14,11-14,11s6.6,11-0.5,12.3c-7.1,1.4-14.8,0-13.2-5.2c1.6-5.2,6-11.8,9.1-14.3c3-2.5,31.9-25.2,35.4-27.7s9.6-4.1,6.6-12.1   c-3-7.9-6-16.2-7.4-21.4c-1.4-5.2-1-15.5,1.9-22.8C345.7,593.5,355,577.4,355,577.1z" />
	<path
   id="horseLegWhite1"
   fill="#FFFFFF"
   d="M290.9,480.4   c0,0-1.6,7.1-1.1,12.1s1.4,12.1,1.4,12.1s-4.7,0-9.9-2.2c-5.2-2.2-10.2-5.2-15.1-5.2s-8.5-1.1-12.4,5.5c-3.8,6.6-6.6,18.7-6.9,25.5   c-0.3,7.5,7.5,12,6.9,18.3c-0.8,6.9-11.8,7.5-14.6,4.6c-3.9-4.1,1.4-16.3,1.7-20.4c0.3-4.1,2.7-21.7,2.5-26   c-0.3-4.4-2.7-16.7,7.4-18.6C261,483.9,291.5,480.9,290.9,480.4L290.9,480.4z" />
	
		<path
   id="path22798"
   fill="#FFFFFF"
   fill-opacity="0.9412"
   d="   M410.2,409.4c0,0,1.9,2.4,4.4,3.8c1.9,1.1,3.6,1.6,3.6,1.6s1,8.5,0.3,12.1c-1.2,6-5.2,14.8-5.2,14.8s1.8,12.7,0,20   c-3.9,15.7-12.1,27.1-12.1,27.1s0,3.8-0.8,7.1c-0.8,3.3-2.2,5.5-2.2,5.5s-8-5.5-9.6-17.5c-1.6-12.1,6.9-27.7,10.7-40   C403,431.6,410.5,409.4,410.2,409.4L410.2,409.4z" />
	
		<path
   id="tailWhite"
   fill="#FFFFFF"
   fill-opacity="0.9412"
   d="   M523.1,472.9c0,0-11.7,9.3-21.8,4.5c-7.4-3.5-14.5-18.9-22.1-25.2c-7.8-6.5-23-6.2-31,2.1c-8.1,8.5-10.1,25-1.7,40.2   c6.3,11.5,24.6,26.6,29.3,35.2c3.1,5.8,6.2,13.8,0.7,21.1c-4.1,5.5-8,4.9-8,4.9s2.2,3.8,3.3,7.7c1.1,3.8,1.1,6.6,1.1,6.6   s6,4.9,13.5,4.1s16.1-8.4,17.2-15.6c1.8-12.2-1.2-17.7-7-27.9c-3-5.3-6.5-10.4-12.6-23.5c-3.5-7.5-0.1-12.6,9-12.8   c7.5-0.2,16.1-0.3,20.8-3.1C519.6,487.8,522.2,480.9,523.1,472.9L523.1,472.9z" />
	<path
   id="path24745"
   fill="#FCAB0F"
   d="M304.6,392.8   c1.6-2.1,3.3-2.4,5.1-1.3s1,3.7,0,5.2c-0.9,1.4-2.9,2.3-4.7,1.4S303.4,395.1,304.6,392.8L304.6,392.8z" />
	<path
   id="horseEye"
   fill="#FCAB0F"
   d="M349.3,380c0.2-3.3,2.3-3.7,5.4-2.3s9.5,3.9,4.3,5.6   c-5.2,1.7-7,1.9-8.9,0.2S349.3,380.1,349.3,380z" />
</g>
<g
   id="layer1"
   transform="translate(-14.163097,-178.44265)">
	<g
   id="motto"
   transform="translate(4,-4)">
		<path
   id="path3066"
   fill="#FCAB0F"
   d="M189.4,867.5l-5.8-0.9l-1.4-6.3l-10.5-1.6l-3.1,5.6    l-5.6-0.8l14.1-24.7l5.6,0.8L189.4,867.5z M181.2,855.7l-2.1-10.3l-5,9.2L181.2,855.7z" />
		<path
   id="path3068"
   fill="#FCAB0F"
   d="M193.8,841.2l9.8,0.6c2.2,0.1,3.9,0.4,5,0.8    c1.5,0.5,2.8,1.4,3.8,2.7c1,1.2,1.8,2.7,2.3,4.4c0.5,1.7,0.6,3.8,0.5,6.3c-0.1,2.2-0.5,4-1.1,5.6c-0.8,1.9-1.8,3.4-3.1,4.5    c-1,0.8-2.3,1.5-3.9,1.9c-1.2,0.3-2.8,0.4-4.8,0.3l-10-0.6L193.8,841.2z M198.9,846l-1,17.5l4,0.2c1.5,0.1,2.6,0.1,3.2-0.1    c0.9-0.2,1.6-0.5,2.2-1c0.6-0.5,1.1-1.3,1.5-2.5c0.4-1.2,0.7-2.8,0.8-4.8c0.1-2,0-3.6-0.3-4.7c-0.3-1.1-0.7-2-1.4-2.7    c-0.6-0.7-1.4-1.1-2.4-1.4c-0.7-0.2-2.2-0.4-4.4-0.5L198.9,846z" />
		<path
   id="path3070"
   fill="#FCAB0F"
   d="M253.1,867.4l-5.8,0.4l-2.7-5.9l-10.6,0.7l-1.8,6.1    l-5.7,0.4l8.6-27.1l5.6-0.4L253.1,867.4z M242.6,857.6l-4.3-9.6l-2.9,10L242.6,857.6z" />
		<path
   id="path3072"
   fill="#FCAB0F"
   d="M256,866.7l-3.6-26l5.3-0.7l3,21.6l13.2-1.8l0.6,4.4    L256,866.7z" />
		<path
   id="path3074"
   fill="#FCAB0F"
   d="M284.2,862.7l-4.1-21.6l-7.7,1.5l-0.8-4.4l20.7-3.9    l0.8,4.4l-7.7,1.5l4.1,21.6L284.2,862.7z" />
		<path
   id="path3076"
   fill="#FCAB0F"
   d="M300.3,859l-7.2-25.5l5.1-1.5l7.2,25.5L300.3,859z" />
		<path
   id="path3078"
   fill="#FCAB0F"
   d="M305,844.2c-0.9-2.6-1.2-4.8-1-6.8    c0.1-1.5,0.5-2.9,1.2-4.2c0.6-1.4,1.5-2.5,2.5-3.4c1.3-1.2,3-2.1,5.1-2.8c3.7-1.3,7-1.1,10,0.4c3,1.5,5.2,4.3,6.6,8.4    c1.4,4,1.4,7.6-0.1,10.6c-1.4,3-4,5.2-7.7,6.4c-3.7,1.3-7.1,1.1-10.1-0.4S306.4,848.2,305,844.2L305,844.2z M310.2,842.2    c1,2.8,2.4,4.8,4.2,5.8c1.8,1,3.7,1.2,5.7,0.5s3.4-2,4.2-3.9c0.8-1.9,0.7-4.3-0.3-7.2c-1-2.9-2.3-4.8-4.1-5.8    c-1.7-1-3.7-1.1-5.7-0.4c-2.1,0.7-3.5,2-4.3,3.9C309.1,837,309.2,839.4,310.2,842.2L310.2,842.2z" />
		<path
   id="path3080"
   fill="#FCAB0F"
   d="M337.5,846.7L328,822l10.5-4c2.6-1,4.7-1.5,6-1.5    c1.4,0,2.6,0.4,3.8,1.3c1.2,0.9,2,2,2.6,3.5c0.7,1.9,0.7,3.6,0.1,5.2c-0.6,1.6-2,3-4,4.2c1.3,0.2,2.5,0.6,3.5,1.1    c1,0.5,2.4,1.5,4.4,2.9l4.9,3.7l-6,2.3l-5.7-4c-2-1.4-3.4-2.3-4-2.6c-0.7-0.3-1.3-0.5-1.9-0.5s-1.5,0.2-2.6,0.7l-1,0.4l3.9,10.3    L337.5,846.7z M337,830.5l3.7-1.4c2.4-0.9,3.9-1.6,4.4-2c0.5-0.4,0.9-1,1-1.6c0.1-0.6,0.1-1.3-0.2-2c-0.3-0.8-0.8-1.4-1.4-1.8    c-0.6-0.3-1.4-0.4-2.3-0.3c-0.4,0.1-1.7,0.5-3.7,1.3l-3.9,1.5L337,830.5z" />
		<path
   id="path3082"
   fill="#FCAB0F"
   d="M384.6,828.3l-5.4,2.2l-4.4-4.7l-9.8,3.9l0.2,6.4    l-5.3,2.1l-0.3-28.4l5.2-2.1L384.6,828.3z M371.5,822.2l-7-7.8l0.3,10.5L371.5,822.2z" />
		<path
   id="path3084"
   fill="#FCAB0F"
   d="M408.6,807.8l5.4-0.5c0.4,3,0,5.5-1.2,7.5    c-1.2,2-3.1,3.6-5.7,4.6c-3.2,1.3-6.4,1.3-9.4,0s-5.3-3.9-6.9-7.8c-1.7-4.1-2-7.7-0.8-10.8c1.2-3.1,3.5-5.4,6.9-6.8    c3-1.2,5.8-1.4,8.4-0.4c1.5,0.6,3,1.7,4.4,3.5l-4.4,3.2c-0.8-1.1-1.8-1.9-3.1-2.3c-1.2-0.4-2.5-0.3-3.8,0.3c-1.8,0.8-3,2-3.6,3.8    c-0.6,1.8-0.3,4.1,0.9,7c1.3,3.1,2.8,5.1,4.4,5.9s3.4,0.9,5.2,0.2c1.3-0.5,2.3-1.4,2.9-2.7C408.8,811.3,408.9,809.7,408.6,807.8    L408.6,807.8z" />
		<path
   id="path3086"
   fill="#FCAB0F"
   d="M421.4,813l-10.3-24.4l18.1-7.7l1.7,4.1l-13.2,5.6    l2.3,5.4l12.2-5.2l1.7,4.1l-12.2,5.2l2.8,6.6l13.6-5.8l1.7,4.1L421.4,813z" />
		<path
   id="path3088"
   fill="#FCAB0F"
   d="M444.2,803.3L433.6,779l10.3-4.5c2.6-1.1,4.6-1.7,5.9-1.8    c1.4-0.1,2.6,0.3,3.8,1.1c1.2,0.8,2.1,1.9,2.7,3.4c0.8,1.8,0.9,3.6,0.4,5.2c-0.6,1.7-1.8,3.1-3.8,4.3c1.3,0.2,2.5,0.5,3.5,0.9    c1,0.4,2.5,1.4,4.5,2.7l5,3.5l-5.9,2.5l-5.8-3.7c-2.1-1.3-3.5-2.2-4.1-2.5c-0.7-0.3-1.3-0.4-1.9-0.4c-0.6,0-1.5,0.3-2.6,0.8    l-1,0.4l4.4,10.1L444.2,803.3z M443,787.2l3.6-1.6c2.4-1,3.8-1.8,4.3-2.2c0.5-0.5,0.8-1,0.9-1.6c0.1-0.6,0-1.3-0.3-2    c-0.4-0.8-0.9-1.4-1.5-1.7c-0.7-0.3-1.4-0.4-2.3-0.2c-0.4,0.1-1.6,0.6-3.6,1.5l-3.8,1.7L443,787.2z" />
		<path
   id="path3090"
   fill="#FCAB0F"
   d="M474.2,790.2l-8.9-20.1l-7.2,3.2l-1.8-4.1l19.3-8.5    l1.8,4.1l-7.2,3.2l8.9,20.1L474.2,790.2z" />
		<path
   id="path3092"
   fill="#FCAB0F"
   d="M511.2,773.9l-5.3,2.3l-4.5-4.6l-9.7,4.3l0.4,6.4    l-5.2,2.3l-1.2-28.4l5.2-2.3L511.2,773.9z M498,768.3l-7.3-7.5l0.7,10.4L498,768.3z" />
		<path
   id="path3094"
   fill="#FCAB0F"
   d="M513.7,772.7l-10.3-24.4l7.4-3.1l11.5,14.8l-2.7-18.5    l7.4-3.1l10.3,24.4l-4.6,1.9l-8.1-19.2l3.3,21.3l-4.7,2l-12.9-17.2l8.1,19.2L513.7,772.7z" />
		<path
   id="path3096"
   fill="#FCAB0F"
   d="M533.1,735.9l5-1.8l5,13.5c0.8,2.1,1.4,3.5,1.7,4.1    c0.6,0.9,1.4,1.6,2.4,1.9s2.3,0.2,3.7-0.3c1.4-0.5,2.4-1.2,2.9-2.1c0.5-0.8,0.7-1.7,0.5-2.6c-0.2-0.9-0.6-2.3-1.3-4.3l-5.1-13.7    l5-1.8l4.8,13.1c1.1,3,1.7,5.1,1.9,6.5c0.2,1.3,0.1,2.6-0.4,3.7c-0.4,1.1-1.1,2.2-2.2,3.1s-2.5,1.8-4.5,2.5    c-2.4,0.9-4.3,1.3-5.7,1.2s-2.7-0.5-3.7-1.1s-1.8-1.4-2.4-2.2c-0.9-1.3-1.8-3.3-2.8-6.1L533.1,735.9z" />
		<path
   id="path3098"
   fill="#FCAB0F"
   d="M563.9,743.5l4.9-1.8c0.7,1.6,1.7,2.7,2.8,3.3    c1.1,0.6,2.5,0.6,4.1,0.2c1.7-0.4,2.8-1.1,3.5-2c0.7-0.9,0.9-1.9,0.6-2.8c-0.2-0.6-0.5-1.1-0.9-1.4c-0.5-0.3-1.2-0.5-2.1-0.6    c-0.7-0.1-2.1-0.1-4.4-0.1c-3,0-5.1-0.3-6.5-1c-1.9-1-3.2-2.5-3.7-4.6c-0.3-1.3-0.3-2.6,0.2-4c0.4-1.3,1.3-2.5,2.5-3.4    c1.2-1,2.8-1.7,4.8-2.2c3.2-0.8,5.8-0.7,7.8,0.2s3.3,2.7,4,5l-5.1,1.6c-0.6-1.3-1.3-2.1-2.2-2.5c-0.9-0.4-2-0.4-3.5,0    c-1.5,0.4-2.6,1-3.3,1.8c-0.4,0.5-0.6,1.1-0.4,1.8c0.2,0.6,0.5,1.1,1.2,1.4c0.8,0.4,2.5,0.5,5.2,0.5c2.7-0.1,4.7,0.1,6.1,0.4    s2.5,1,3.5,1.9c1,0.9,1.7,2.2,2.1,3.8c0.4,1.5,0.3,3-0.2,4.4c-0.5,1.5-1.4,2.7-2.7,3.8s-3.1,1.8-5.3,2.4c-3.2,0.8-5.9,0.7-8-0.3    C566.6,748.2,565,746.3,563.9,743.5L563.9,743.5z" />
	</g>
	
		<path
   id="path3290"
   fill="none"
   stroke="#000000"
   stroke-opacity="0"
   d="   M163.2,863.2c0,0,47.5,10.8,100.6,2.4c29-4.6,32.4,0.1,162.6-54.7c109.8-46.3,154.7-74.4,200.1-63.9" />
</g>
</svg>
