<?xml version="1.0" encoding="UTF-8" standalone="no"?>
<svg
   width="30.094061mm"
   height="27.967728mm"
   viewBox="0 0 30.094063 27.967728"
   version="1.1"
   id="svg67976"
   xmlns="http://www.w3.org/2000/svg"
   xmlns:svg="http://www.w3.org/2000/svg"
   xmlns:rdf="http://www.w3.org/1999/02/22-rdf-syntax-ns#"
   xmlns:cc="http://creativecommons.org/ns#"
   xmlns:dc="http://purl.org/dc/elements/1.1/">
  <defs
     id="defs67970">
    <clipPath
       id="clipPath201632"
       clipPathUnits="userSpaceOnUse">
      <path
         id="path201630"
         d="M 28.346,750.709 H 315.59 v 87.874 H 28.346 Z" />
    </clipPath>
  </defs>
  <metadata
     id="metadata67973">
    <rdf:RDF>
      <cc:Work
         rdf:about="">
        <dc:format>image/svg+xml</dc:format>
        <dc:type
           rdf:resource="http://purl.org/dc/dcmitype/StillImage" />
        <dc:title />
      </cc:Work>
    </rdf:RDF>
  </metadata>
  <g
     id="layer1"
     transform="translate(1550.719,775.16051)">
    <g
       id="g201626"
       transform="matrix(0.35277777,0,0,-0.35277777,-1560.7191,-480.84327)">
      <g
         id="g201628"
         clip-path="url(#clipPath201632)">
        <g
           id="g201634"
           transform="translate(98.8276,832.2661)">
          <path
             d="M 0,0 C -3.785,-1.545 -19.414,-5.861 -26.61,1.281 L -27.349,2.019 -28.09,1.281 C -35.24,-5.813 -50.904,-1.534 -54.708,0 l -1.512,0.612 0.077,-1.614 c 0.051,-0.994 0.096,-35.091 0.096,-35.43 v -0.081 l 0.013,-0.08 c 1.181,-7.191 9.835,-12.804 13.09,-14.916 l 0.906,-0.6 0.754,-0.53 c 9.649,-6.723 12.39,-9.651 12.986,-10.927 l 0.949,-2.007 0.944,2.007 c 0.512,1.096 2.938,4 13.379,11.172 l 0.405,0.278 0.917,0.607 c 3.259,2.112 11.909,7.725 13.085,14.916 l 0.011,0.08 0.056,37.104 z m -0.686,-36.317 c -1.062,-6.298 -9.129,-11.536 -12.172,-13.508 l -0.98,-0.648 -0.383,-0.268 c -6.81,-4.676 -11.178,-8.215 -13.121,-10.591 -2.452,3.001 -8.269,7.228 -12.734,10.341 l -0.733,0.511 -0.985,0.655 c -3.038,1.972 -11.105,7.21 -12.166,13.51 -0.005,0.233 -0.034,17.654 -0.034,17.654 l -0.034,12.176 c -0.004,1.94 -0.015,3.202 -0.027,4.092 5.934,-2.002 19.325,-4.673 26.712,1.616 7.478,-6.362 21.237,-3.417 26.706,-1.605 -0.002,-2.302 -0.049,-33.7 -0.049,-33.935"
             style="fill:#0c2f59;fill-opacity:1;fill-rule:nonzero;stroke:none"
             id="path201636" />
        </g>
        <g
           id="g201638"
           transform="translate(73.5736,825.6037)">
          <path
             d="M 0,0 H -0.346 -4.542 V -9.526 H -16.223 V -14.67 H -4.542 V -47.206 H 0 v 32.536 h 11.681 v 5.144 L 0,-9.526 Z"
             style="fill:#0c2f59;fill-opacity:1;fill-rule:nonzero;stroke:none"
             id="path201640" />
        </g>
        <g
           id="g201642"
           transform="translate(113.2667,782.9625)">
          <path
             d="M 0,0 C -0.561,-0.06 -5.528,-0.586 -6.375,-1.058 -6.571,-1.164 -6.688,-1.34 -6.716,-1.543 v -0.068 c 0,-0.564 0.715,-1.231 1.72,-2.104 l 0.555,-0.504 c -0.42,-0.531 -3.447,-2.073 -6.678,-2.925 -1.577,-0.416 -4.091,-0.489 -6.317,-0.559 -3.198,-0.088 -5.186,-0.178 -5.757,-0.847 -0.138,-0.161 -0.209,-0.358 -0.209,-0.566 l 0.006,-0.131 c 0.131,-0.969 1.68,-2.108 3.255,-3.192 l 0.408,-0.285 c -0.657,-0.282 -3.132,-0.659 -7.448,-0.763 -4.585,-0.115 -11.225,-1.767 -12.636,-2.699 l -0.187,-0.106 v -4.181 c -0.275,-0.026 -0.574,-0.046 -0.878,-0.064 l -0.45,-0.021 c -0.214,-0.009 -0.432,-0.015 -0.649,-0.015 l -0.291,-0.003 -0.28,0.003 c -0.217,0 -0.431,0.006 -0.649,0.015 l -0.455,0.021 c -0.3,0.018 -0.596,0.038 -0.877,0.064 v 4.181 l -0.182,0.106 c -1.411,0.932 -8.051,2.584 -12.638,2.699 -4.316,0.104 -6.794,0.481 -7.448,0.763 l 0.402,0.285 c 1.577,1.084 3.128,2.223 3.259,3.192 l 0.005,0.131 c 0,0.208 -0.068,0.405 -0.203,0.566 -0.574,0.669 -2.562,0.759 -5.763,0.847 -2.222,0.07 -4.733,0.143 -6.313,0.559 -3.227,0.852 -6.261,2.394 -6.679,2.925 l 0.555,0.504 c 1.007,0.873 1.722,1.54 1.722,2.104 l -0.005,0.068 c -0.026,0.203 -0.143,0.379 -0.345,0.485 -0.846,0.472 -5.808,0.998 -6.371,1.058 l -0.383,0.042 v -0.379 -7.811 h 4.1 v -4.243 l 0.101,-0.101 c 0.055,-0.049 1.368,-1.302 4.185,-2.215 l 0.144,-0.048 c 2.747,-0.891 4.911,-1.593 10.766,-1.488 v -5.025 l 0.169,-0.101 c 0.13,-0.072 1.369,-0.719 5.842,-0.719 3.481,0 5.881,-0.669 7.475,-1.109 l 1.204,-0.317 2.793,-0.662 -0.022,-3.142 0.101,-0.097 c 0.258,-0.251 4.461,-0.541 5.437,-0.541 h 0.323 0.03 0.037 0.326 c 0.974,0 5.179,0.29 5.435,0.541 l 0.104,0.097 -0.027,3.142 2.796,0.662 1.205,0.317 c 1.592,0.44 3.995,1.109 7.476,1.109 4.472,0 5.708,0.647 5.842,0.719 l 0.165,0.101 v 5.025 c 5.855,-0.105 8.024,0.597 10.766,1.488 l 0.144,0.048 c 2.823,0.913 4.134,2.166 4.181,2.215 l 0.106,0.101 v 4.243 h 4.102 v 7.811 0.379 z m -39.306,-17.431 c 1.155,-0.862 2.216,-1.879 2.216,-2.353 l -10e-4,-0.048 -0.309,-0.213 c -0.442,-0.112 -1.112,-0.244 -1.906,-0.347 z m -8.101,-9.361 c -0.009,1.501 -0.019,3.37 -0.019,4.709 0,0.57 0.002,1.027 0.002,1.33 0.775,-0.191 2.056,-0.351 3.416,-0.436 0.516,-0.039 1.046,-0.064 1.586,-0.064 l 0.15,0.004 0.159,-0.004 c 0.544,0 1.072,0.025 1.586,0.064 1.359,0.085 2.643,0.245 3.412,0.436 0.003,-0.303 0.006,-0.76 0.006,-1.33 0,-1.339 -0.01,-3.208 -0.024,-4.709 -0.85,-0.117 -3.511,-0.472 -5.139,-0.487 -1.622,0.015 -4.28,0.37 -5.135,0.487 m 2.181,6.4 c -0.796,0.103 -1.468,0.235 -1.911,0.347 l -0.306,0.213 -0.004,0.048 c 0,0.474 1.06,1.491 2.221,2.353 z m -35.499,16.518 -0.123,-0.321 0.028,-0.167 v -0.003 -3.109 h -3.407 v 6.759 c 2.08,-0.226 5.172,-0.636 5.711,-0.921 -0.026,-0.31 -1.042,-1.192 -1.485,-1.575 z m 15.101,-8.862 0.026,-0.16 0.021,-0.028 h -0.047 v -2.644 c -5.746,-0.105 -7.868,0.58 -10.545,1.451 l -0.147,0.046 c -2.371,0.77 -3.56,1.756 -3.81,1.972 v 7.029 c 1.315,-0.919 4.198,-2.109 6.528,-2.723 1.658,-0.439 4.105,-0.508 6.477,-0.578 2.157,-0.062 4.843,-0.142 5.253,-0.612 l 0.049,-0.133 -0.004,-0.045 c -0.102,-0.754 -2.117,-2.136 -2.978,-2.728 l -0.573,-0.41 c -0.2,-0.153 -0.25,-0.315 -0.25,-0.437 m 14.839,-10.12 -1.166,0.305 c -1.626,0.454 -4.083,1.135 -7.662,1.135 -3.453,0 -4.88,0.404 -5.316,0.562 v 7.485 c 1.403,-0.525 4.717,-0.723 7.559,-0.794 4.211,-0.104 10.408,-1.582 12.067,-2.473 -0.942,-0.658 -2.782,-2.17 -2.807,-3.229 0,-0.015 -0.006,-0.119 0,-0.378 v -0.184 l -0.007,-0.585 c 0,-0.248 -0.007,-0.557 -0.007,-0.962 l -0.013,-1.51 z m 31.181,2.002 c -0.442,-0.158 -1.867,-0.562 -5.316,-0.562 -3.581,0 -6.041,-0.681 -7.663,-1.135 l -1.167,-0.305 -2.648,-0.628 -0.012,1.51 c 0,0.405 0,0.714 -0.007,0.962 l -0.006,0.585 -0.002,0.184 c 0.008,0.259 0,0.363 0,0.378 -0.025,1.059 -1.866,2.571 -2.801,3.229 1.654,0.891 7.846,2.369 12.059,2.473 2.843,0.071 6.157,0.269 7.563,0.794 z m 15.195,8.755 c -0.249,-0.216 -1.438,-1.202 -3.808,-1.972 l -0.149,-0.046 c -2.675,-0.871 -4.804,-1.556 -10.547,-1.451 v 2.644 h -0.042 l 0.018,0.028 0.024,0.16 c 0,0.122 -0.042,0.284 -0.245,0.437 l -0.579,0.41 c -0.858,0.592 -2.868,1.974 -2.972,2.728 l -0.004,0.045 0.05,0.133 c 0.402,0.47 3.09,0.55 5.247,0.612 2.376,0.07 4.825,0.139 6.48,0.578 2.331,0.614 5.208,1.804 6.527,2.723 z m 4.098,4.625 h -3.405 v 3.109 0.003 l 0.028,0.167 -0.121,0.321 -0.73,0.663 c -0.436,0.383 -1.449,1.265 -1.481,1.575 0.542,0.285 3.628,0.695 5.709,0.921 z"
             style="fill:#0c2f59;fill-opacity:1;fill-rule:nonzero;stroke:none"
             id="path201644" />
        </g>
        <g
           id="g201646"
           transform="translate(35.0805,774.8754)">
          <path
             d="m 0,0 v -2.262 c 0,-0.578 0.182,-0.77 0.561,-0.77 0.379,0 0.57,0.192 0.57,0.77 V 0 h 0.653 v -2.262 c 0,-0.917 -0.544,-1.279 -1.223,-1.279 -0.672,0 -1.217,0.362 -1.217,1.279 V 0 Z"
             style="fill:#0c2f59;fill-opacity:1;fill-rule:nonzero;stroke:none"
             id="path201648" />
        </g>
        <g
           id="g201650"
           transform="translate(37.262,773.9257)">
          <path
             d="M 0,0 H 0.78 L 1.973,-2.734 H 1.981 V 0 H 2.583 V -3.488 H 1.794 l -1.182,2.72 H 0.598 v -2.72 H 0 Z"
             style="fill:#0c2f59;fill-opacity:1;fill-rule:nonzero;stroke:none"
             id="path201652" />
        </g>
        <g
           id="g201654"
           transform="translate(40.8599,773.1668)">
          <path
             d="m 0,0 v -2.256 c 0,-0.583 0.184,-0.77 0.575,-0.77 0.369,0 0.56,0.187 0.56,0.77 V 0 H 1.79 v -2.256 c 0,-0.918 -0.541,-1.282 -1.215,-1.282 -0.684,0 -1.226,0.364 -1.226,1.282 V 0 Z"
             style="fill:#0c2f59;fill-opacity:1;fill-rule:nonzero;stroke:none"
             id="path201656" />
        </g>
        <g
           id="g201658"
           transform="translate(45.8588,772.0513)">
          <path
             d="M 0,0 H -0.012 L -0.911,-2.906 H -1.375 L -2.236,0 H -2.242 V -2.906 H -2.84 v 3.484 h 0.981 l 0.738,-2.6 h 0.01 l 0.758,2.6 H 0.6 V -2.906 H 0 Z"
             style="fill:#0c2f59;fill-opacity:1;fill-rule:nonzero;stroke:none"
             id="path201660" />
        </g>
        <g
           id="g201662"
           transform="translate(51.3489,763.7248)">
          <path
             d="m 0,0 c -0.137,-0.072 -0.453,-0.126 -0.776,-0.127 -1.091,0 -1.656,0.771 -1.656,1.792 -0.003,1.017 0.559,1.795 1.624,1.795 0.361,0 0.664,-0.092 0.801,-0.143 L -0.046,2.742 c -0.132,0.064 -0.346,0.19 -0.677,0.186 -0.544,0 -1.013,-0.357 -1.01,-1.263 0,-0.901 0.468,-1.267 1.015,-1.264 0.319,0.003 0.528,0.078 0.672,0.187 z"
             style="fill:#0c2f59;fill-opacity:1;fill-rule:nonzero;stroke:none"
             id="path201664" />
        </g>
        <g
           id="g201666"
           transform="translate(52.9307,766.9244)">
          <path
             d="m 0,0 c 0.742,0 1.426,-0.538 1.426,-1.793 0,-1.256 -0.677,-1.796 -1.422,-1.799 -0.75,0 -1.43,0.537 -1.437,1.796 0,1.252 0.686,1.794 1.433,1.796 m 0.004,-3.1 c 0.412,0.003 0.745,0.345 0.745,1.307 0,0.956 -0.336,1.304 -0.749,1.3 -0.418,0 -0.754,-0.344 -0.749,-1.303 0,-0.962 0.333,-1.304 0.753,-1.304"
             style="fill:#0c2f59;fill-opacity:1;fill-rule:nonzero;stroke:none"
             id="path201668" />
        </g>
        <g
           id="g201670"
           transform="translate(54.6159,766.693)">
          <path
             d="M 0,0 H 1.124 C 1.758,0 2.19,-0.281 2.19,-0.92 2.19,-1.374 1.901,-1.682 1.5,-1.741 V -1.756 C 1.632,-1.772 1.783,-1.832 1.894,-2.159 L 2.368,-3.488 1.667,-3.489 1.309,-2.351 C 1.223,-2.08 1.051,-1.988 0.812,-1.988 H 0.665 V -3.489 H 0.009 Z m 0.929,-1.52 c 0.348,0 0.585,0.175 0.585,0.531 0,0.396 -0.216,0.499 -0.587,0.499 H 0.657 L 0.66,-1.52 Z"
             style="fill:#0c2f59;fill-opacity:1;fill-rule:nonzero;stroke:none"
             id="path201672" />
        </g>
        <g
           id="g201674"
           transform="translate(57.367,766.3475)">
          <path
             d="M 0,0 H 1.025 C 1.766,0 2.149,-0.398 2.149,-1.057 2.153,-1.717 1.766,-2.125 1.031,-2.125 H 0.663 L 0.665,-3.488 H 0 Z m 0.906,-1.635 c 0.41,0 0.591,0.199 0.591,0.578 0,0.378 -0.181,0.567 -0.595,0.567 H 0.655 l 0.008,-1.145 z"
             style="fill:#0c2f59;fill-opacity:1;fill-rule:nonzero;stroke:none"
             id="path201676" />
        </g>
        <g
           id="g201678"
           transform="translate(60.403,765.8824)">
          <path
             d="m 0,0 0.002,-2.259 c 0,-0.58 0.178,-0.768 0.566,-0.768 0.373,0.004 0.558,0.192 0.558,0.771 L 1.123,0.003 h 0.654 l 0.007,-2.259 c 0,-0.92 -0.543,-1.277 -1.216,-1.282 -0.68,0 -1.222,0.359 -1.222,1.279 L -0.662,0 Z"
             style="fill:#0c2f59;fill-opacity:1;fill-rule:nonzero;stroke:none"
             id="path201680" />
        </g>
        <g
           id="g201682"
           transform="translate(62.5066,762.5081)">
          <path
             d="m 0,0 c 0.131,-0.08 0.413,-0.215 0.762,-0.215 0.283,0 0.545,0.159 0.545,0.505 0,0.251 -0.15,0.36 -0.47,0.531 l -0.332,0.18 c -0.353,0.187 -0.586,0.466 -0.586,0.913 0,0.624 0.527,0.952 1.126,0.952 0.384,0 0.651,-0.096 0.752,-0.122 L 1.766,2.208 C 1.603,2.267 1.394,2.357 1.093,2.357 0.762,2.357 0.598,2.185 0.598,1.947 0.598,1.686 0.779,1.586 0.981,1.475 L 1.359,1.269 C 1.783,1.038 1.985,0.817 1.985,0.326 c 0,-0.709 -0.517,-1.052 -1.2,-1.052 -0.36,0 -0.637,0.052 -0.818,0.157 z"
             style="fill:#0c2f59;fill-opacity:1;fill-rule:nonzero;stroke:none"
             id="path201684" />
        </g>
        <g
           id="g201686"
           transform="translate(81.8516,764.9956)">
          <path
             d="M 0,0 H -0.008 L -0.905,-2.908 H -1.374 L -2.232,0 h -0.01 v -2.908 h -0.599 v 3.489 h 0.984 l 0.74,-2.602 h 0.01 l 0.756,2.602 H 0.595 V -2.908 H 0 Z"
             style="fill:#0c2f59;fill-opacity:1;fill-rule:nonzero;stroke:none"
             id="path201688" />
        </g>
        <g
           id="g201690"
           transform="translate(83.6553,766.1694)">
          <path
             d="m 0,0 v -2.263 c 0,-0.578 0.177,-0.771 0.564,-0.771 0.378,0 0.561,0.193 0.561,0.771 V 0 h 0.657 v -2.263 c 0,-0.92 -0.544,-1.279 -1.218,-1.279 -0.675,0 -1.218,0.359 -1.218,1.279 V 0 Z"
             style="fill:#0c2f59;fill-opacity:1;fill-rule:nonzero;stroke:none"
             id="path201692" />
        </g>
        <g
           id="g201694"
           transform="translate(86.1744,766.5255)">
          <path
             d="M 0,0 H 0.658 V -2.976 H 1.836 V -3.487 H 0 Z"
             style="fill:#0c2f59;fill-opacity:1;fill-rule:nonzero;stroke:none"
             id="path201696" />
        </g>
        <g
           id="g201698"
           transform="translate(88.5551,766.4388)">
          <path
             d="M 0,0 H -0.801 V 0.511 H 1.45 V 0 H 0.658 V -2.978 H 0 Z"
             style="fill:#0c2f59;fill-opacity:1;fill-rule:nonzero;stroke:none"
             id="path201700" />
        </g>
        <path
           d="m 90.59,767.29 h 0.649 v -3.489 H 90.59 Z"
           style="fill:#0c2f59;fill-opacity:1;fill-rule:nonzero;stroke:none"
           id="path201702" />
        <g
           id="g201704"
           transform="translate(94.902,770.0228)">
          <path
             d="m 0,0 c 0.124,-0.078 0.411,-0.218 0.761,-0.218 0.284,0 0.54,0.157 0.54,0.508 0,0.249 -0.148,0.359 -0.467,0.531 L 0.502,1.002 c -0.35,0.187 -0.589,0.463 -0.589,0.91 0,0.628 0.533,0.952 1.132,0.952 0.384,0 0.651,-0.094 0.753,-0.126 L 1.766,2.203 C 1.606,2.264 1.4,2.355 1.09,2.355 0.765,2.355 0.595,2.184 0.595,1.943 0.595,1.686 0.772,1.584 0.972,1.473 L 1.36,1.267 C 1.783,1.035 1.98,0.813 1.98,0.325 c 0,-0.708 -0.518,-1.049 -1.195,-1.049 -0.37,0 -0.638,0.049 -0.82,0.152 z"
             style="fill:#0c2f59;fill-opacity:1;fill-rule:nonzero;stroke:none"
             id="path201706" />
        </g>
        <g
           id="g201708"
           transform="translate(97.804,773.085)">
          <path
             d="m 0,0 v -2.26 c 0,-0.577 0.187,-0.767 0.567,-0.767 0.38,0 0.564,0.19 0.564,0.767 V 0 h 0.656 v -2.26 c 0,-0.919 -0.547,-1.278 -1.22,-1.278 -0.674,0 -1.22,0.359 -1.22,1.278 V 0 Z"
             style="fill:#0c2f59;fill-opacity:1;fill-rule:nonzero;stroke:none"
             id="path201710" />
        </g>
        <g
           id="g201712"
           transform="translate(102.716,773.0472)">
          <path
             d="M 0,0 H -0.008 L -0.907,-2.906 H -1.373 L -2.233,0 h -0.012 v -2.906 h -0.591 v 3.487 h 0.977 l 0.74,-2.603 h 0.011 l 0.757,2.603 H 0.595 V -2.906 H 0 Z"
             style="fill:#0c2f59;fill-opacity:1;fill-rule:nonzero;stroke:none"
             id="path201714" />
        </g>
        <g
           id="g201716"
           transform="translate(104.2427,773.929)">
          <path
             d="m 0,0 v -2.259 c 0,-0.58 0.182,-0.767 0.567,-0.767 0.377,0 0.556,0.187 0.556,0.767 V 0 h 0.664 v -2.259 c 0,-0.918 -0.546,-1.278 -1.22,-1.278 -0.678,0 -1.224,0.36 -1.224,1.278 V 0 Z"
             style="fill:#0c2f59;fill-opacity:1;fill-rule:nonzero;stroke:none"
             id="path201718" />
        </g>
        <g
           id="g201720"
           transform="translate(106.3268,772.2082)">
          <path
             d="m 0,0 c 0.124,-0.078 0.409,-0.209 0.758,-0.209 0.285,0 0.543,0.151 0.543,0.503 0,0.25 -0.147,0.357 -0.468,0.529 l -0.332,0.18 c -0.353,0.19 -0.589,0.465 -0.589,0.915 0,0.624 0.53,0.954 1.131,0.954 0.378,0 0.652,-0.098 0.755,-0.13 L 1.763,2.208 C 1.605,2.266 1.394,2.36 1.089,2.36 0.761,2.36 0.592,2.188 0.592,1.948 0.592,1.689 0.776,1.588 0.973,1.477 L 1.36,1.267 C 1.782,1.039 1.984,0.82 1.984,0.329 c 0,-0.71 -0.522,-1.049 -1.206,-1.049 -0.356,0 -0.636,0.048 -0.817,0.158 z"
             style="fill:#0c2f59;fill-opacity:1;fill-rule:nonzero;stroke:none"
             id="path201722" />
        </g>
        <g
           id="g201728"
           transform="translate(129.7415,812.2429)" />
      </g>
    </g>
  </g>
</svg>
