<?xml version="1.0" encoding="UTF-8" standalone="no"?>
<svg
   width="31.465977mm"
   height="52.48074mm"
   viewBox="0 0 31.465977 52.480738"
   version="1.1"
   id="svg67976"
   xmlns="http://www.w3.org/2000/svg"
   xmlns:svg="http://www.w3.org/2000/svg"
   xmlns:rdf="http://www.w3.org/1999/02/22-rdf-syntax-ns#"
   xmlns:cc="http://creativecommons.org/ns#"
   xmlns:dc="http://purl.org/dc/elements/1.1/">
  <defs
     id="defs67970">
    <clipPath
       id="clipPath194633"
       clipPathUnits="userSpaceOnUse">
      <path
         id="path194631"
         d="m 176.731,177.874 h 231.891 v 211.18 H 176.731 Z" />
    </clipPath>
  </defs>
  <metadata
     id="metadata67973">
    <rdf:RDF>
      <cc:Work
         rdf:about="">
        <dc:format>image/svg+xml</dc:format>
        <dc:type
           rdf:resource="http://purl.org/dc/dcmitype/StillImage" />
        <dc:title />
      </cc:Work>
    </rdf:RDF>
  </metadata>
  <g
     id="layer1"
     transform="translate(1205.1818,294.43985)">
    <g
       id="g194627"
       transform="matrix(0.35277777,0,0,-0.35277777,-1295.3952,-157.19025)">
      <g
         id="g194629"
         clip-path="url(#clipPath194633)">
        <g
           id="g194635"
           transform="translate(291.6024,286.3139)">
          <path
             d="m 0,0 h 11.635 c 5.335,0 8.649,2.343 8.649,6.383 0,3.8 -3.314,6.142 -8.649,6.142 H 0 Z m 0,22.871 h 11.635 c 4.203,0 6.87,2.262 6.87,5.901 0,3.636 -2.667,5.737 -6.87,5.737 H 0 Z m 12.446,22.63 c 12.686,0 20.77,-5.495 20.77,-14.143 0,-5.982 -3.721,-10.75 -9.702,-12.447 7.115,-1.372 11.64,-6.949 11.64,-14.306 0,-9.617 -8.405,-15.681 -21.74,-15.681 h -27.721 v 56.577 z"
             style="fill:#ffffff;fill-opacity:1;fill-rule:nonzero;stroke:none"
             id="path194637" />
        </g>
        <g
           id="g194639"
           transform="translate(300.3199,374.3042)">
          <path
             d="m 0,0 c -2.222,0 -4.024,1.802 -4.024,4.025 0,2.221 1.802,4.024 4.024,4.024 2.221,0 4.024,-1.803 4.024,-4.024 C 4.024,1.802 2.221,0 0,0 m 33.791,-16.453 c 0,-5.662 -0.638,-7.502 -3.681,-6.724 -3.042,0.778 -19.246,3.931 -19.246,3.931 v 6.759 c 0,3.575 -3.29,3.292 -3.29,3.292 H 5.412 c -0.008,0 -0.008,4.019 -0.008,4.019 3.165,1.856 5.291,5.295 5.291,9.229 0,5.908 -4.787,10.698 -10.695,10.698 -5.905,0 -10.694,-4.79 -10.694,-10.698 0,-3.934 2.124,-7.371 5.289,-9.228 l 0.002,-4.02 h -2.17 c 0,0 -3.291,0.283 -3.291,-3.292 v -6.759 c 0,0 -16.204,-3.153 -19.247,-3.931 -3.045,-0.778 -3.682,1.062 -3.682,6.724 0,0 -0.251,4.638 -10.797,-1.802 v -50.574 c 1.761,-0.211 3.567,-0.319 5.406,-0.319 1.84,0 3.646,0.108 5.406,0.319 -0.008,0 -0.008,32.172 -0.008,32.172 6.393,4.261 20.585,5.799 28.387,6.335 l -0.004,-6.714 c 1.76,-0.208 3.567,-0.317 5.407,-0.317 1.841,0 3.642,0.11 5.4,0.317 l -0.006,6.714 c 7.806,-0.536 21.994,-2.074 28.387,-6.335 v -32.172 c 1.76,-0.211 3.566,-0.319 5.406,-0.319 1.84,0 3.641,0.108 5.401,0.319 v 50.574 c -10.546,6.44 -10.801,1.802 -10.801,1.802"
             style="fill:#ffffff;fill-opacity:1;fill-rule:nonzero;stroke:none"
             id="path194641" />
        </g>
        <g
           id="g194643"
           transform="translate(266.5344,294.5837)">
          <path
             d="m 0,0 v -10.446 c 0,0 3.476,-16.042 28.379,-29.396 l 0.003,-0.003 v 15.15 c 1.76,0.208 3.565,0.317 5.405,0.317 1.84,0 3.647,-0.109 5.407,-0.319 L 39.189,-39.845 C 64.096,-26.49 67.57,-10.446 67.57,-10.446 V 0 c 1.759,0.207 3.564,0.316 5.405,0.316 1.839,0 3.641,-0.106 5.402,-0.316 v -9.691 c 0,0 1.462,-20.574 -39.684,-43.411 0,0 -2.395,-1.192 -4.907,-1.192 -2.513,0 -4.908,1.192 -4.908,1.192 -41.147,22.837 -39.683,43.411 -39.683,43.411 V 0 c 1.759,0.209 3.564,0.317 5.404,0.317 C -3.561,0.317 -1.754,0.209 0,0"
             style="fill:#ffffff;fill-opacity:1;fill-rule:nonzero;stroke:none"
             id="path194645" />
        </g>
      </g>
    </g>
  </g>
</svg>
