<?xml version="1.0" encoding="UTF-8" standalone="no"?>
<svg
   width="28.797602mm"
   height="29.251274mm"
   viewBox="0 0 28.797602 29.251274"
   version="1.1"
   id="svg260764"
   style="enable-background:new"
   xmlns="http://www.w3.org/2000/svg"
   xmlns:svg="http://www.w3.org/2000/svg"
   xmlns:rdf="http://www.w3.org/1999/02/22-rdf-syntax-ns#"
   xmlns:cc="http://creativecommons.org/ns#"
   xmlns:dc="http://purl.org/dc/elements/1.1/">
  <defs
     id="defs260758">
    <clipPath
       id="clipPath266099"
       clipPathUnits="userSpaceOnUse">
      <path
         id="path266097"
         d="M 0,0 H 841.89 V 595.276 H 0 Z" />
    </clipPath>
    <clipPath
       id="clipPath266107"
       clipPathUnits="userSpaceOnUse">
      <path
         id="path266105"
         d="M -17.5039,610.779 H 323.871 V 256.925 H -17.5039 Z" />
    </clipPath>
    <clipPath
       id="clipPath266131"
       clipPathUnits="userSpaceOnUse">
      <path
         id="path266129"
         d="M 173.984,595.275 248.74,361.89 416.693,529.133 v 66.142 z" />
    </clipPath>
    <clipPath
       id="clipPath266147"
       clipPathUnits="userSpaceOnUse">
      <path
         id="path266145"
         d="M 638.25,595.275 416.693,374.173 V 138.898 h 79.37 L 841.89,487.722 v 83.898 l -4.331,23.655 z" />
    </clipPath>
    <clipPath
       id="clipPath266163"
       clipPathUnits="userSpaceOnUse">
      <path
         id="path266161"
         d="M 571.681,139.397 V 0 h 19.14 l 61.491,60.945 v 78.452 z" />
    </clipPath>
    <linearGradient
       id="linearGradient266217"
       spreadMethod="pad"
       gradientTransform="matrix(85.461635,0,0,-85.461635,44.146903,508.08224)"
       gradientUnits="userSpaceOnUse"
       y2="0"
       x2="1"
       y1="0"
       x1="0">
      <stop
         id="stop266209"
         offset="0"
         style="stop-opacity:1;stop-color:#58595b" />
      <stop
         id="stop266211"
         offset="0.106742"
         style="stop-opacity:1;stop-color:#000000" />
      <stop
         id="stop266213"
         offset="0.898876"
         style="stop-opacity:1;stop-color:#000000" />
      <stop
         id="stop266215"
         offset="1"
         style="stop-opacity:1;stop-color:#58595b" />
    </linearGradient>
    <clipPath
       id="clipPath266227"
       clipPathUnits="userSpaceOnUse">
      <path
         id="path266225"
         d="m 46.062,435.654 h 81.631 V 555.832 H 46.062 Z" />
    </clipPath>
    <radialGradient
       id="radialGradient266251"
       spreadMethod="pad"
       gradientTransform="matrix(84.102281,0,0,-84.102281,55.344625,552.83347)"
       gradientUnits="userSpaceOnUse"
       r="1"
       cy="0"
       cx="0"
       fy="0"
       fx="0">
      <stop
         id="stop266245"
         offset="0"
         style="stop-opacity:1;stop-color:#fee7dc" />
      <stop
         id="stop266247"
         offset="0.5"
         style="stop-opacity:1;stop-color:#ed1c24" />
      <stop
         id="stop266249"
         offset="1"
         style="stop-opacity:1;stop-color:#ed1c24" />
    </radialGradient>
    <radialGradient
       id="radialGradient266273"
       spreadMethod="pad"
       gradientTransform="matrix(84.100328,0,0,-84.100328,55.345805,552.8335)"
       gradientUnits="userSpaceOnUse"
       r="1"
       cy="0"
       cx="0"
       fy="0"
       fx="0">
      <stop
         id="stop266267"
         offset="0"
         style="stop-opacity:1;stop-color:#fee7dc" />
      <stop
         id="stop266269"
         offset="0.5"
         style="stop-opacity:1;stop-color:#ed1c24" />
      <stop
         id="stop266271"
         offset="1"
         style="stop-opacity:1;stop-color:#ed1c24" />
    </radialGradient>
    <radialGradient
       id="radialGradient266295"
       spreadMethod="pad"
       gradientTransform="matrix(84.101353,0,0,-84.101353,55.345766,552.83396)"
       gradientUnits="userSpaceOnUse"
       r="1"
       cy="0"
       cx="0"
       fy="0"
       fx="0">
      <stop
         id="stop266289"
         offset="0"
         style="stop-opacity:1;stop-color:#fee7dc" />
      <stop
         id="stop266291"
         offset="0.5"
         style="stop-opacity:1;stop-color:#ed1c24" />
      <stop
         id="stop266293"
         offset="1"
         style="stop-opacity:1;stop-color:#ed1c24" />
    </radialGradient>
    <clipPath
       id="clipPath266305"
       clipPathUnits="userSpaceOnUse">
      <path
         id="path266303"
         d="m 46.062,435.654 h 81.631 V 555.832 H 46.062 Z" />
    </clipPath>
    <clipPath
       id="clipPath266321"
       clipPathUnits="userSpaceOnUse">
      <path
         id="path266319"
         d="M 55.4609,553.334 H 118.917 V 475.66 H 55.4609 Z" />
    </clipPath>
    <radialGradient
       id="radialGradient266333"
       spreadMethod="pad"
       gradientTransform="matrix(27.011617,0,0,27.011617,170.83115,-104.64105)"
       gradientUnits="userSpaceOnUse"
       r="1"
       cy="0"
       cx="0"
       fy="0"
       fx="0">
      <stop
         id="stop266327"
         offset="0"
         style="stop-opacity:1;stop-color:#ffffff" />
      <stop
         id="stop266329"
         offset="0.666667"
         style="stop-opacity:1;stop-color:#ffffff" />
      <stop
         id="stop266331"
         offset="1"
         style="stop-opacity:1;stop-color:#6d6e71" />
    </radialGradient>
    <clipPath
       id="clipPath266355"
       clipPathUnits="userSpaceOnUse">
      <path
         id="path266353"
         d="M 52.9293,555.795 H 121.45 V 472.878 H 52.9293 Z" />
    </clipPath>
    <clipPath
       id="clipPath266359"
       clipPathUnits="userSpaceOnUse">
      <path
         id="path266357"
         d="m 52.929,472.878 h 68.521 v 82.917 H 52.929 Z" />
    </clipPath>
    <clipPath
       id="clipPath266379"
       clipPathUnits="userSpaceOnUse">
      <path
         id="path266377"
         d="m 54.817,552.52 -1.924,-0.494 0.224,-40.413 c 0,-0.026 -10e-4,-0.081 -10e-4,-0.164 v 0 c 0,-1.552 0.247,-12.804 7.203,-21.966 v 0 c 2.96,-3.901 9.215,-7.869 14.834,-10.907 v 0 c 5.618,-3.038 10.598,-5.145 11.005,-5.316 v 0 l 0.996,-0.42 0.995,0.428 c 0.397,0.171 5.27,2.278 10.783,5.314 v 0 c 5.514,3.038 11.666,7.003 14.625,10.901 v 0 c 6.965,9.177 7.199,20.557 7.2,22.039 v 0 c 0,0.071 -0.001,0.119 -0.001,0.143 v 0 l 0.729,39.864 -1.819,0.57 c -0.491,0.152 -12.188,3.733 -31.972,3.733 v 0 c -19.722,0 -32.347,-3.177 -32.877,-3.312 m 31.761,-78.259 c -0.8,0.337 -19.657,8.317 -25.394,15.878 v 0 c -6.738,8.877 -6.982,19.784 -6.982,21.305 v 0 c 0,0.084 0,0.137 0.002,0.164 v 0 c 0,0 -0.217,38.771 -0.221,39.576 v 0 c 0.429,0.11 1.103,0.282 1.103,0.282 v 0 c 0.524,0.134 13.021,3.28 32.608,3.28 v 0 c 19.621,0 31.167,-3.534 31.649,-3.686 v 0 c 0,0 0.636,-0.198 1.043,-0.325 v 0 c -0.013,-0.772 -0.717,-39.069 -0.717,-39.069 v 0 c 0.001,-0.022 0.001,-0.069 0.001,-0.138 v 0 c 0,-1.439 -0.226,-12.488 -6.979,-21.387 v 0 C 106.955,482.58 88.503,474.602 87.719,474.267 v 0 c 0,0 -0.347,-0.149 -0.568,-0.245 v 0 c -0.224,0.093 -0.573,0.239 -0.573,0.239 m 34.9,77.263 -0.728,-39.859 z m -0.734,-39.858 0.729,39.855 -0.729,-39.856 z m 0.723,39.85 -0.729,-39.851 z m -0.007,-0.003 -0.728,-39.848 z m -0.005,-0.006 -0.728,-39.842 z m -68.32,-39.893 v -10e-4 c -10e-4,-0.009 -10e-4,-0.022 -10e-4,-0.039 v 0 c 0,0.017 0,0.031 10e-4,0.04 m -0.006,0 v -10e-4 c 0,-0.012 -10e-4,-0.031 -10e-4,-0.056 v 0 c 0,0.025 10e-4,0.045 10e-4,0.057 m -0.007,0 v -10e-4 c 0,-0.012 0,-0.031 0,-0.057 v 0 c 0,0.026 0,0.045 0,0.058 m 0.029,-0.083 c 0,-0.016 -0.001,-0.034 -0.001,-0.055 v 0 c 0,0.021 0.001,0.039 0.001,0.055" />
    </clipPath>
    <linearGradient
       id="linearGradient266403"
       spreadMethod="pad"
       gradientTransform="matrix(71.670294,0,0,-71.670294,51.033492,495.34521)"
       gradientUnits="userSpaceOnUse"
       y2="0"
       x2="1"
       y1="0"
       x1="0">
      <stop
         id="stop266397"
         offset="0"
         style="stop-opacity:1;stop-color:#58595b" />
      <stop
         id="stop266399"
         offset="0.522472"
         style="stop-opacity:1;stop-color:#a7a9ac" />
      <stop
         id="stop266401"
         offset="1"
         style="stop-opacity:1;stop-color:#58595b" />
    </linearGradient>
    <clipPath
       id="clipPath266413"
       clipPathUnits="userSpaceOnUse">
      <path
         id="path266411"
         d="m 46.062,435.654 h 81.631 V 555.832 H 46.062 Z" />
    </clipPath>
    <clipPath
       id="clipPath266697"
       clipPathUnits="userSpaceOnUse">
      <path
         id="path266695"
         d="M 589.172,0 H 841.89 v 251.611 z" />
    </clipPath>
    <filter
       style="color-interpolation-filters:sRGB"
       id="filter267923"
       x="0"
       y="0"
       width="1"
       height="1">
      <feBlend
         mode="multiply"
         in2="BackgroundImage"
         id="feBlend267925" />
    </filter>
  </defs>
  <metadata
     id="metadata260761">
    <rdf:RDF>
      <cc:Work
         rdf:about="">
        <dc:format>image/svg+xml</dc:format>
        <dc:type
           rdf:resource="http://purl.org/dc/dcmitype/StillImage" />
        <dc:title />
      </cc:Work>
    </rdf:RDF>
  </metadata>
  <g
     id="layer1"
     style="filter:url(#filter267923)"
     transform="translate(-172.30322,111.8555)">
    <g
       id="g266317"
       transform="matrix(0.35277777,0,0,-0.35277777,156.05357,84.216584)" />
    <g
       id="g268378">
      <g
         transform="matrix(0.35277777,0,0,-0.35277777,156.05357,84.216584)"
         id="g266197">
        <g
           id="g266199">
          <g
             id="g266205">
            <g
               id="g266207">
              <path
                 id="path266219"
                 style="fill:url(#linearGradient266217);stroke:none"
                 d="m 46.062,511.195 v -2.684 l 1.761,-1.948 -1.761,-3.895 v -1.606 c 9.104,2.497 24.082,4.128 41.017,4.128 v 0 -0.108 c 16.688,0 31.474,-1.6 40.614,-4.061 v 0 1.259 l -1.875,4.19 1.875,2.095 v 2.694 c -9.14,2.463 -23.926,4.062 -40.614,4.062 v 0 c -16.935,0 -31.912,-1.629 -41.017,-4.126" />
            </g>
          </g>
        </g>
      </g>
      <g
         transform="matrix(0.35277777,0,0,-0.35277777,156.05357,84.216584)"
         id="g266221">
        <g
           clip-path="url(#clipPath266227)"
           id="g266223">
          <g
             transform="translate(122.6351,505.4814)"
             id="g266229">
            <path
               id="path266231"
               style="fill:#000000;fill-opacity:1;fill-rule:nonzero;stroke:none"
               d="m 0,0 c 0,5.189 -15.987,9.397 -35.707,9.397 -19.72,0 -35.706,-4.208 -35.706,-9.397 0,-5.191 15.986,-9.4 35.706,-9.4 C -15.987,-9.4 0,-5.191 0,0" />
          </g>
        </g>
      </g>
      <g
         transform="matrix(0.35277777,0,0,-0.35277777,156.05357,84.216584)"
         id="g266233">
        <g
           id="g266235">
          <g
             id="g266241">
            <g
               id="g266243">
              <path
                 id="path266253"
                 style="fill:url(#radialGradient266251);stroke:none"
                 d="m 88.827,553.333 1.333,-18.747 c 0,0 0.676,-7.868 11.803,-8.656 v 0 c 6.094,-0.429 12.215,-0.48 16.509,-0.438 v 0 l 0.445,24.23 c 0,0 -11.137,3.476 -30.09,3.611 z" />
            </g>
          </g>
        </g>
      </g>
      <g
         transform="matrix(0.35277777,0,0,-0.35277777,156.05357,84.216584)"
         id="g266255">
        <g
           id="g266257">
          <g
             id="g266263">
            <g
               id="g266265">
              <path
                 id="path266275"
                 style="fill:url(#radialGradient266273);stroke:none"
                 d="m 55.461,550.107 0.137,-24.609 c 4.175,-0.052 10.417,-0.017 16.791,0.432 v 0 c 11.127,0.788 11.802,8.656 11.802,8.656 v 0 l 1.326,18.74 C 67.138,553.1 55.461,550.107 55.461,550.107" />
            </g>
          </g>
        </g>
      </g>
      <g
         transform="matrix(0.35277777,0,0,-0.35277777,156.05357,84.216584)"
         id="g266277">
        <g
           id="g266279">
          <g
             id="g266285">
            <g
               id="g266287">
              <path
                 id="path266297"
                 style="fill:url(#radialGradient266295);stroke:none"
                 d="m 55.625,520.724 0.051,-9.043 c 0,0 -0.186,-11.554 6.682,-20.603 v 0 c 4.599,-6.059 18.503,-12.617 23.216,-14.722 v 0 l -1.23,35.29 c 0,0 -0.677,7.867 -11.804,8.653 v 0 c -5.003,0.355 -9.769,0.452 -13.497,0.452 v 0 c -1.27,0 -2.419,-0.011 -3.418,-0.027" />
            </g>
          </g>
        </g>
      </g>
      <g
         transform="matrix(0.35277777,0,0,-0.35277777,191.97009,-99.333478)"
         id="g266307">
        <path
           id="path266309"
           style="fill:#820024;fill-opacity:1;fill-rule:nonzero;stroke:none"
           d="m 0,0 c -11.128,-0.786 -11.804,-8.654 -11.804,-8.654 l -1.223,-35.253 c 4.688,2.142 18.181,8.662 22.754,14.686 6.868,9.049 6.682,20.604 6.682,20.604 l 0.166,9.05 C 12.521,0.486 6.396,0.453 0,0" />
      </g>
      <g
         transform="matrix(0.35277777,0,0,-0.35277777,189.33092,-97.436768)"
         id="g266311">
        <path
           id="path266313"
           style="fill:#ffffff;fill-opacity:1;fill-rule:nonzero;stroke:none"
           d="m 0,0 c 0,0 5.058,-5.869 17.583,-15.501 0,0 -9.83,12.274 -17.583,15.501 m -13.996,15.113 c 0,0 -5.058,5.869 -17.584,15.5 0,0 9.831,-12.273 17.584,-15.5 M -31.58,-15.501 C -19.054,-5.869 -13.996,0 -13.996,0 -21.749,-3.227 -31.58,-15.501 -31.58,-15.501 M 17.583,30.613 C 5.058,20.982 0,15.113 0,15.113 c 7.753,3.227 17.583,15.5 17.583,15.5 m 6.56,-20.044 c -4.294,-0.042 -10.416,0.009 -16.51,0.439 -11.127,0.786 -11.802,8.655 -11.802,8.655 l -1.333,18.75 c 18.957,-0.134 30.09,-3.614 30.09,-3.614 z M 17.208,-23.845 C 12.637,-29.868 -0.855,-36.387 -5.545,-38.53 l 1.222,35.253 c 0,0 0.677,7.867 11.804,8.653 6.395,0.453 12.52,0.487 16.575,0.434 L 23.89,-3.241 c 0,0 0.186,-11.555 -6.682,-20.604 M -7.16,2.517 c 0,0 -3.143,3.437 -4.301,5.026 -0.756,1.033 -1.393,2.618 0.279,4.044 1.995,1.701 3.991,-1.141 3.991,-1.141 0,0 2.223,2.875 4.118,1.141 1.623,-1.482 0.801,-3.103 0.12,-4.159 C -4.076,5.683 -7.16,2.517 -7.16,2.517 m -24.811,-26.362 c -6.869,9.049 -6.683,20.604 -6.683,20.604 l -0.05,9.042 c 3.93,0.063 10.208,0.049 16.915,-0.425 11.126,-0.786 11.803,-8.653 11.803,-8.653 l 1.23,-35.291 c -4.712,2.106 -18.617,8.665 -23.215,14.723 m -6.898,59.029 c 0,0 11.677,2.994 30.056,3.219 l -1.325,-18.74 c 0,0 -0.675,-7.869 -11.803,-8.655 -6.372,-0.45 -12.615,-0.485 -16.79,-0.433 z m 64.195,1.957 c -0.487,0.152 -12.18,3.731 -31.961,3.731 -19.718,0 -32.34,-3.176 -32.868,-3.311 l -1.897,-0.487 0.146,-26.453 0.027,-4.878 0.05,-9.053 c -0.008,-0.493 -0.128,-12.464 7.195,-22.11 5.45,-7.183 22.147,-14.627 25.325,-15.999 0.265,-0.114 0.437,-0.186 0.499,-0.213 l 0.984,-0.413 0.98,0.422 c 0.066,0.028 0.255,0.109 0.55,0.24 3.256,1.439 19.431,8.83 24.843,15.963 7.297,9.613 7.201,21.653 7.193,22.162 l 0.165,9.02 0.089,4.845 0.474,25.973 z" />
      </g>
      <g
         transform="matrix(0.35277777,0,0,-0.35277777,156.05357,84.216584)"
         id="g266349">
        <g
           id="g266351" />
        <g
           id="g266371">
          <g
             style="opacity:0.5"
             id="g266369"
             clip-path="url(#clipPath266355)">
            <g
               id="g266367">
              <g
                 id="g266365"
                 clip-path="url(#clipPath266359)">
                <g
                   id="g266363"
                   transform="translate(94.3295,514.9229)">
                  <path
                     id="path266361"
                     style="fill:#ffffff;fill-opacity:1;fill-rule:nonzero;stroke:none"
                     d="m 0,0 c 0,0 5.058,-5.869 17.583,-15.501 0,0 -9.83,12.274 -17.583,15.501 m -13.996,15.113 c 0,0 -5.058,5.869 -17.584,15.5 0,0 9.831,-12.273 17.584,-15.5 M -31.58,-15.501 C -19.054,-5.869 -13.996,0 -13.996,0 -21.749,-3.227 -31.58,-15.501 -31.58,-15.501 M 17.583,30.613 C 5.058,20.982 0,15.113 0,15.113 c 7.753,3.227 17.583,15.5 17.583,15.5 m 6.56,-20.044 c -4.294,-0.042 -10.416,0.009 -16.51,0.439 -11.127,0.786 -11.802,8.655 -11.802,8.655 l -1.333,18.75 c 18.957,-0.134 30.09,-3.614 30.09,-3.614 z M 17.208,-23.845 C 12.637,-29.868 -0.855,-36.387 -5.545,-38.53 l 1.222,35.253 c 0,0 0.677,7.867 11.804,8.653 6.395,0.453 12.52,0.487 16.575,0.434 L 23.89,-3.241 c 0,0 0.186,-11.555 -6.682,-20.604 M -7.16,2.517 c 0,0 -3.143,3.437 -4.301,5.026 -0.756,1.033 -1.393,2.618 0.279,4.044 1.995,1.701 3.991,-1.141 3.991,-1.141 0,0 2.223,2.875 4.118,1.141 1.623,-1.482 0.801,-3.103 0.12,-4.159 C -4.076,5.683 -7.16,2.517 -7.16,2.517 m -24.811,-26.362 c -6.869,9.049 -6.683,20.604 -6.683,20.604 l -0.05,9.042 c 3.93,0.063 10.208,0.049 16.915,-0.425 11.126,-0.786 11.803,-8.653 11.803,-8.653 l 1.23,-35.291 c -4.712,2.106 -18.617,8.665 -23.215,14.723 m -6.898,59.029 c 0,0 11.677,2.994 30.056,3.219 l -1.325,-18.74 c 0,0 -0.675,-7.869 -11.803,-8.655 -6.372,-0.45 -12.615,-0.485 -16.79,-0.433 z m 64.195,1.957 c -0.487,0.152 -12.18,3.731 -31.961,3.731 -19.718,0 -32.34,-3.176 -32.868,-3.311 l -1.897,-0.487 0.146,-26.453 0.027,-4.878 0.05,-9.053 c -0.008,-0.493 -0.128,-12.464 7.195,-22.11 5.45,-7.183 22.147,-14.627 25.325,-15.999 0.265,-0.114 0.437,-0.186 0.499,-0.213 l 0.984,-0.413 0.98,0.422 c 0.066,0.028 0.255,0.109 0.55,0.24 3.256,1.439 19.431,8.83 24.843,15.963 7.297,9.613 7.201,21.653 7.193,22.162 l 0.165,9.02 0.089,4.845 0.474,25.973 z" />
                </g>
              </g>
            </g>
          </g>
        </g>
      </g>
      <g
         transform="matrix(0.35277777,0,0,-0.35277777,156.05357,84.216584)"
         id="g266387">
        <g
           id="g266393">
          <g
             id="g266395">
            <path
               d="m 51.034,504.995 c 0,0 0.901,-9.865 0.906,-9.899 v 0 c 0.206,-1.532 3.909,-3.835 8.086,-5.294 v 0 c 6.107,-2.136 15.769,-4.107 26.928,-4.107 v 0 c 11.172,0 20.831,2.081 26.893,4.245 v 0 c 4.095,1.463 7.7,3.511 7.947,5.156 v 0 l 0.909,9.58 c -0.029,-0.074 -0.088,-0.144 -0.124,-0.218 v 0 c -0.532,-1.405 -2.145,-2.714 -4.648,-3.861 v 0 c -6.161,-2.825 -17.617,-4.685 -31.007,-4.685 v 0 c -13.34,0 -24.762,1.843 -30.956,4.642 v 0 c -2.826,1.28 -4.552,2.757 -4.885,4.351 v 0 c -0.013,0.031 -0.038,0.059 -0.049,0.09 z"
               style="fill:url(#linearGradient266403);stroke:none"
               id="path266405" />
          </g>
        </g>
      </g>
      <g
         transform="matrix(0.35277777,0,0,-0.35277777,175.79808,-92.367563)"
         id="g266415">
        <path
           id="path266417"
           style="fill:#ffffff;fill-opacity:1;fill-rule:nonzero;stroke:none"
           d="m 0,0 c 6.193,-2.798 17.615,-4.641 30.955,-4.641 13.39,0 24.847,1.86 31.007,4.685 2.504,1.146 4.116,2.456 4.649,3.861 0.125,0.331 0.209,0.667 0.209,1.008 0,0.921 -0.544,2.295 -2.07,3.135 -0.005,10e-4 -0.049,0.024 -0.136,0.077 l -0.06,-0.532 c 1.32,-0.737 1.776,-1.898 1.776,-2.68 0,-1.462 -1.472,-2.918 -4.175,-4.22 -1.605,-0.773 -3.646,-1.494 -6.074,-2.129 -6.708,-1.755 -15.631,-2.72 -25.126,-2.72 -13.26,0 -25.097,1.983 -31.156,4.826 -2.711,1.273 -4.266,2.723 -4.266,4.243 0,1.083 0.741,2.107 1.854,2.799 L -2.668,8.216 C -4.358,7.261 -4.955,5.84 -4.955,4.913 -4.955,4.724 -4.924,4.537 -4.886,4.351 -4.553,2.758 -2.826,1.28 0,0" />
      </g>
      <g
         transform="matrix(0.35277777,0,0,-0.35277777,188.24676,-101.52444)"
         id="g266419">
        <path
           id="path266421"
           style="fill:#ab0635;fill-opacity:1;fill-rule:nonzero;stroke:none"
           d="m 0,0 c -1.895,1.734 -4.118,-1.141 -4.118,-1.141 0,0 -1.995,2.842 -3.99,1.141 -1.672,-1.426 -1.036,-3.011 -0.28,-4.044 1.159,-1.589 4.301,-5.026 4.301,-5.026 0,0 3.084,3.165 4.207,4.911 C 0.801,-3.103 1.623,-1.482 0,0" />
      </g>
      <g
         transform="matrix(0.35277777,0,0,-0.35277777,175.7839,-91.384125)"
         id="g266423">
        <path
           id="path266425"
           style="fill:#ffffff;fill-opacity:1;fill-rule:nonzero;stroke:none"
           d="M 0,0 C 0.264,-0.138 0.527,-0.276 0.79,-0.415 0.718,-0.416 0.676,-0.463 0.684,-0.581 c 0.07,-1.005 0.14,-2.009 0.21,-3.014 0.008,-0.113 0.059,-0.209 0.136,-0.294 -0.276,0.147 -0.553,0.293 -0.83,0.44 0.071,0.006 0.112,0.053 0.104,0.165 -0.06,0.857 -0.121,1.714 -0.181,2.57 -0.005,0.062 0.001,0.113 0.001,0.113 -0.012,-0.032 -0.023,-0.064 -0.034,-0.095 -0.306,-0.761 -0.61,-1.522 -0.912,-2.283 -0.444,1.128 -0.89,2.255 -1.339,3.382 -0.015,0.052 -0.029,0.104 -0.043,0.156 -10e-4,-0.001 0.006,-0.093 0.01,-0.138 0.063,-0.83 0.126,-1.659 0.189,-2.488 0.008,-0.113 0.065,-0.211 0.148,-0.299 -0.173,0.091 -0.345,0.182 -0.518,0.272 0.066,0.009 0.112,0.054 0.104,0.166 -0.077,1.005 -0.154,2.01 -0.231,3.014 -0.007,0.097 -0.09,0.228 -0.168,0.308 0.276,-0.143 0.552,-0.287 0.828,-0.431 0.371,-0.944 0.741,-1.889 1.109,-2.835 C -0.49,-1.248 -0.245,-0.624 0,0" />
      </g>
      <g
         transform="matrix(0.35277777,0,0,-0.35277777,175.7839,-91.384125)"
         id="g266427">
        <path
           id="path266429"
           style="fill:none;stroke:#ffffff;stroke-width:0.052;stroke-linecap:butt;stroke-linejoin:miter;stroke-miterlimit:4;stroke-dasharray:none;stroke-opacity:1"
           d="M 0,0 C 0.264,-0.138 0.527,-0.276 0.79,-0.415 0.718,-0.416 0.676,-0.463 0.684,-0.581 c 0.07,-1.005 0.14,-2.009 0.21,-3.014 0.008,-0.113 0.059,-0.209 0.136,-0.294 -0.276,0.147 -0.553,0.293 -0.83,0.44 0.071,0.006 0.112,0.053 0.104,0.165 -0.06,0.857 -0.121,1.714 -0.181,2.57 -0.005,0.062 0.001,0.113 0.001,0.113 -0.012,-0.032 -0.023,-0.064 -0.034,-0.095 -0.306,-0.761 -0.61,-1.522 -0.912,-2.283 -0.444,1.128 -0.89,2.255 -1.339,3.382 -0.015,0.052 -0.029,0.104 -0.043,0.156 -10e-4,-0.001 0.006,-0.093 0.01,-0.138 0.063,-0.83 0.126,-1.659 0.189,-2.488 0.008,-0.113 0.065,-0.211 0.148,-0.299 -0.173,0.091 -0.345,0.182 -0.518,0.272 0.066,0.009 0.112,0.054 0.104,0.166 -0.077,1.005 -0.154,2.01 -0.231,3.014 -0.007,0.097 -0.09,0.228 -0.168,0.308 0.276,-0.143 0.552,-0.287 0.828,-0.431 0.371,-0.944 0.741,-1.889 1.109,-2.835 C -0.49,-1.248 -0.245,-0.624 0,0 Z" />
      </g>
      <g
         transform="matrix(0.35277777,0,0,-0.35277777,177.00451,-90.103859)"
         id="g266431">
        <path
           id="path266433"
           style="fill:#ffffff;fill-opacity:1;fill-rule:nonzero;stroke:none"
           d="m 0,0 c -0.265,0.655 -0.578,1.443 -0.578,1.443 0,0 -0.276,-0.741 -0.406,-1.064 C -0.656,0.253 -0.328,0.126 0,0 m 1.13,-1.389 c 0.055,-0.126 0.092,-0.195 0.257,-0.345 -0.345,0.135 -0.691,0.269 -1.037,0.403 0.121,0.022 0.141,0.084 0.1,0.205 -0.017,0.057 -0.163,0.417 -0.321,0.817 -0.397,0.153 -0.795,0.306 -1.193,0.459 -0.124,-0.291 -0.22,-0.547 -0.227,-0.6 -0.035,-0.106 -0.006,-0.186 0.129,-0.298 -0.223,0.086 -0.447,0.172 -0.672,0.258 0.13,0.045 0.17,0.084 0.212,0.162 0.078,0.159 1.157,2.804 1.159,2.804 0.003,0 1.497,-3.637 1.593,-3.865" />
      </g>
      <g
         transform="matrix(0.35277777,0,0,-0.35277777,177.00451,-90.103859)"
         id="g266435">
        <path
           id="path266437"
           style="fill:none;stroke:#ffffff;stroke-width:0.052;stroke-linecap:butt;stroke-linejoin:miter;stroke-miterlimit:4;stroke-dasharray:none;stroke-opacity:1"
           d="m 0,0 c -0.265,0.655 -0.578,1.443 -0.578,1.443 0,0 -0.276,-0.741 -0.406,-1.064 C -0.656,0.253 -0.328,0.126 0,0 Z m 1.13,-1.389 c 0.055,-0.126 0.092,-0.195 0.257,-0.345 -0.345,0.135 -0.691,0.269 -1.037,0.403 0.121,0.022 0.141,0.084 0.1,0.205 -0.017,0.057 -0.163,0.417 -0.321,0.817 -0.397,0.153 -0.795,0.306 -1.193,0.459 -0.124,-0.291 -0.22,-0.547 -0.227,-0.6 -0.035,-0.106 -0.006,-0.186 0.129,-0.298 -0.223,0.086 -0.447,0.172 -0.672,0.258 0.13,0.045 0.17,0.084 0.212,0.162 0.078,0.159 1.157,2.804 1.159,2.804 0.003,0 1.497,-3.637 1.593,-3.865 z" />
      </g>
      <g
         transform="matrix(0.35277777,0,0,-0.35277777,178.50996,-90.318842)"
         id="g266439">
        <path
           id="path266441"
           style="fill:#ffffff;fill-opacity:1;fill-rule:nonzero;stroke:none"
           d="M 0,0 C -0.006,0.118 -0.06,0.203 -0.142,0.267 0.043,0.214 0.228,0.161 0.412,0.109 0.34,0.089 0.288,0.033 0.295,-0.084 c 0.059,-1.13 0.119,-2.259 0.179,-3.389 0.005,10e-4 -2.545,3.578 -2.553,3.618 0.05,-0.853 0.1,-1.707 0.149,-2.56 0.007,-0.112 0.066,-0.2 0.153,-0.27 -0.184,0.053 -0.368,0.105 -0.552,0.158 0.072,0.025 0.122,0.081 0.116,0.193 -0.054,0.91 -0.107,1.819 -0.161,2.729 -0.012,0.199 -0.007,0.203 -0.109,0.348 -0.054,0.075 -0.128,0.167 -0.237,0.258 0.287,-0.082 0.575,-0.163 0.862,-0.245 0.659,-0.925 1.315,-1.85 1.966,-2.775 C 0.072,-1.346 0.036,-0.673 0,0" />
      </g>
      <g
         transform="matrix(0.35277777,0,0,-0.35277777,178.50996,-90.318842)"
         id="g266443">
        <path
           id="path266445"
           style="fill:none;stroke:#ffffff;stroke-width:0.052;stroke-linecap:butt;stroke-linejoin:miter;stroke-miterlimit:4;stroke-dasharray:none;stroke-opacity:1"
           d="M 0,0 C -0.006,0.118 -0.06,0.203 -0.142,0.267 0.043,0.214 0.228,0.161 0.412,0.109 0.34,0.089 0.288,0.033 0.295,-0.084 c 0.059,-1.13 0.119,-2.259 0.179,-3.389 0.005,10e-4 -2.545,3.578 -2.553,3.618 0.05,-0.853 0.1,-1.707 0.149,-2.56 0.007,-0.112 0.066,-0.2 0.153,-0.27 -0.184,0.053 -0.368,0.105 -0.552,0.158 0.072,0.025 0.122,0.081 0.116,0.193 -0.054,0.91 -0.107,1.819 -0.161,2.729 -0.012,0.199 -0.007,0.203 -0.109,0.348 -0.054,0.075 -0.128,0.167 -0.237,0.258 0.287,-0.082 0.575,-0.163 0.862,-0.245 0.659,-0.925 1.315,-1.85 1.966,-2.775 C 0.072,-1.346 0.036,-0.673 0,0 Z" />
      </g>
      <g
         transform="matrix(0.35277777,0,0,-0.35277777,179.89309,-90.084104)"
         id="g266447">
        <path
           id="path266449"
           style="fill:#ffffff;fill-opacity:1;fill-rule:nonzero;stroke:none"
           d="m 0,0 c -0.154,-0.017 -0.264,-0.135 -0.319,-0.239 -0.246,-0.46 -0.491,-0.92 -0.734,-1.379 0.021,-0.46 0.043,-0.92 0.065,-1.38 0.005,-0.113 0.103,-0.205 0.186,-0.268 -0.334,0.073 -0.669,0.145 -1.003,0.218 0.073,0.03 0.165,0.071 0.159,0.193 -0.022,0.453 -0.044,0.907 -0.066,1.36 -0.356,0.618 -0.713,1.237 -1.071,1.855 C -2.86,0.498 -2.918,0.561 -3.059,0.662 -2.677,0.58 -2.296,0.497 -1.915,0.415 -2.039,0.391 -2.124,0.384 -1.98,0.116 c 0.258,-0.471 0.515,-0.941 0.772,-1.412 0.2,0.391 0.402,0.783 0.604,1.174 0.065,0.097 0.025,0.212 -0.118,0.279 C -0.481,0.105 -0.241,0.052 0,0" />
      </g>
      <g
         transform="matrix(0.35277777,0,0,-0.35277777,179.89309,-90.084104)"
         id="g266451">
        <path
           id="path266453"
           style="fill:none;stroke:#ffffff;stroke-width:0.052;stroke-linecap:butt;stroke-linejoin:miter;stroke-miterlimit:4;stroke-dasharray:none;stroke-opacity:1"
           d="m 0,0 c -0.154,-0.017 -0.264,-0.135 -0.319,-0.239 -0.246,-0.46 -0.491,-0.92 -0.734,-1.379 0.021,-0.46 0.043,-0.92 0.065,-1.38 0.005,-0.113 0.103,-0.205 0.186,-0.268 -0.334,0.073 -0.669,0.145 -1.003,0.218 0.073,0.03 0.165,0.071 0.159,0.193 -0.022,0.453 -0.044,0.907 -0.066,1.36 -0.356,0.618 -0.713,1.237 -1.071,1.855 C -2.86,0.498 -2.918,0.561 -3.059,0.662 -2.677,0.58 -2.296,0.497 -1.915,0.415 -2.039,0.391 -2.124,0.384 -1.98,0.116 c 0.258,-0.471 0.515,-0.941 0.772,-1.412 0.2,0.391 0.402,0.783 0.604,1.174 0.065,0.097 0.025,0.212 -0.118,0.279 C -0.481,0.105 -0.241,0.052 0,0 Z" />
      </g>
      <g
         transform="matrix(0.35277777,0,0,-0.35277777,181.85002,-89.775105)"
         id="g266455">
        <path
           id="path266457"
           style="fill:#ffffff;fill-opacity:1;fill-rule:nonzero;stroke:none"
           d="M 0,0 C 0.286,-0.04 0.573,-0.08 0.859,-0.12 0.779,-0.149 0.73,-0.214 0.734,-0.331 L 0.825,-3.348 C 0.828,-3.461 0.881,-3.539 0.963,-3.597 0.662,-3.554 0.361,-3.512 0.06,-3.47 0.139,-3.435 0.188,-3.371 0.184,-3.258 0.157,-2.401 0.13,-1.544 0.103,-0.686 0.101,-0.625 0.109,-0.57 0.109,-0.57 0.095,-0.607 0.081,-0.644 0.067,-0.681 c -0.376,-0.901 -0.749,-1.802 -1.12,-2.704 -0.439,0.988 -0.881,1.975 -1.326,2.962 -0.014,0.048 -0.027,0.095 -0.041,0.143 0,0 0.003,-0.092 0.005,-0.138 0.031,-0.83 0.062,-1.66 0.093,-2.49 0.005,-0.112 0.063,-0.192 0.151,-0.249 l -0.561,0.078 c 0.074,0.035 0.126,0.099 0.122,0.211 -0.038,1.006 -0.076,2.011 -0.115,3.016 C -2.728,0.246 -2.813,0.349 -2.897,0.401 -2.598,0.36 -2.299,0.319 -2,0.277 -1.632,-0.552 -1.266,-1.381 -0.902,-2.21 -0.603,-1.474 -0.302,-0.737 0,0" />
      </g>
      <g
         transform="matrix(0.35277777,0,0,-0.35277777,181.85002,-89.775105)"
         id="g266459">
        <path
           id="path266461"
           style="fill:none;stroke:#ffffff;stroke-width:0.052;stroke-linecap:butt;stroke-linejoin:miter;stroke-miterlimit:4;stroke-dasharray:none;stroke-opacity:1"
           d="M 0,0 C 0.286,-0.04 0.573,-0.08 0.859,-0.12 0.779,-0.149 0.73,-0.214 0.734,-0.331 L 0.825,-3.348 C 0.828,-3.461 0.881,-3.539 0.963,-3.597 0.662,-3.554 0.361,-3.512 0.06,-3.47 0.139,-3.435 0.188,-3.371 0.184,-3.258 0.157,-2.401 0.13,-1.544 0.103,-0.686 0.101,-0.625 0.109,-0.57 0.109,-0.57 0.095,-0.607 0.081,-0.644 0.067,-0.681 c -0.376,-0.901 -0.749,-1.802 -1.12,-2.704 -0.439,0.988 -0.881,1.975 -1.326,2.962 -0.014,0.048 -0.027,0.095 -0.041,0.143 0,0 0.003,-0.092 0.005,-0.138 0.031,-0.83 0.062,-1.66 0.093,-2.49 0.005,-0.112 0.063,-0.192 0.151,-0.249 l -0.561,0.078 c 0.074,0.035 0.126,0.099 0.122,0.211 -0.038,1.006 -0.076,2.011 -0.115,3.016 C -2.728,0.246 -2.813,0.349 -2.897,0.401 -2.598,0.36 -2.299,0.319 -2,0.277 -1.632,-0.552 -1.266,-1.381 -0.902,-2.21 -0.603,-1.474 -0.302,-0.737 0,0 Z" />
      </g>
      <g
         transform="matrix(0.35277777,0,0,-0.35277777,182.86009,-89.660065)"
         id="g266463">
        <path
           id="path266465"
           style="fill:#ffffff;fill-opacity:1;fill-rule:nonzero;stroke:none"
           d="m 0,0 c -0.086,-0.032 -0.13,-0.098 -0.127,-0.216 0.026,-1.006 0.052,-2.011 0.078,-3.017 0.003,-0.112 0.05,-0.189 0.137,-0.244 -0.305,0.033 -0.61,0.065 -0.915,0.098 0.079,0.037 0.128,0.103 0.125,0.216 -0.027,1.006 -0.054,2.011 -0.082,3.017 C -0.787,-0.029 -0.84,0.048 -0.922,0.098 -0.615,0.065 -0.307,0.033 0,0" />
      </g>
      <g
         transform="matrix(0.35277777,0,0,-0.35277777,182.86009,-89.660065)"
         id="g266467">
        <path
           id="path266469"
           style="fill:none;stroke:#ffffff;stroke-width:0.052;stroke-linecap:butt;stroke-linejoin:miter;stroke-miterlimit:4;stroke-dasharray:none;stroke-opacity:1"
           d="m 0,0 c -0.086,-0.032 -0.13,-0.098 -0.127,-0.216 0.026,-1.006 0.052,-2.011 0.078,-3.017 0.003,-0.112 0.05,-0.189 0.137,-0.244 -0.305,0.033 -0.61,0.065 -0.915,0.098 0.079,0.037 0.128,0.103 0.125,0.216 -0.027,1.006 -0.054,2.011 -0.082,3.017 C -0.787,-0.029 -0.84,0.048 -0.922,0.098 -0.615,0.065 -0.307,0.033 0,0 Z" />
      </g>
      <g
         transform="matrix(0.35277777,0,0,-0.35277777,184.14354,-89.466601)"
         id="g266471">
        <path
           id="path266473"
           style="fill:#ffffff;fill-opacity:1;fill-rule:nonzero;stroke:none"
           d="M 0,0 C -0.002,0.118 -0.054,0.193 -0.136,0.241 0.052,0.226 0.241,0.211 0.429,0.195 0.354,0.161 0.299,0.094 0.301,-0.024 c 0.018,-1.13 0.036,-2.26 0.055,-3.39 0.005,0 -2.486,3.09 -2.492,3.13 0.019,-0.854 0.037,-1.708 0.056,-2.562 0.003,-0.112 0.06,-0.188 0.147,-0.241 -0.187,0.015 -0.375,0.03 -0.562,0.045 0.075,0.04 0.129,0.107 0.127,0.219 -0.021,0.91 -0.041,1.821 -0.062,2.731 -0.004,0.199 0,0.204 -0.099,0.329 -0.052,0.066 -0.125,0.143 -0.234,0.213 0.293,-0.023 0.585,-0.047 0.878,-0.07 0.643,-0.8 1.283,-1.599 1.919,-2.4 C 0.023,-1.347 0.011,-0.673 0,0" />
      </g>
      <g
         transform="matrix(0.35277777,0,0,-0.35277777,184.14354,-89.466601)"
         id="g266475">
        <path
           id="path266477"
           style="fill:none;stroke:#ffffff;stroke-width:0.052;stroke-linecap:butt;stroke-linejoin:miter;stroke-miterlimit:4;stroke-dasharray:none;stroke-opacity:1"
           d="M 0,0 C -0.002,0.118 -0.054,0.193 -0.136,0.241 0.052,0.226 0.241,0.211 0.429,0.195 0.354,0.161 0.299,0.094 0.301,-0.024 c 0.018,-1.13 0.036,-2.26 0.055,-3.39 0.005,0 -2.486,3.09 -2.492,3.13 0.019,-0.854 0.037,-1.708 0.056,-2.562 0.003,-0.112 0.06,-0.188 0.147,-0.241 -0.187,0.015 -0.375,0.03 -0.562,0.045 0.075,0.04 0.129,0.107 0.127,0.219 -0.021,0.91 -0.041,1.821 -0.062,2.731 -0.004,0.199 0,0.204 -0.099,0.329 -0.052,0.066 -0.125,0.143 -0.234,0.213 0.293,-0.023 0.585,-0.047 0.878,-0.07 0.643,-0.8 1.283,-1.599 1.919,-2.4 C 0.023,-1.347 0.011,-0.673 0,0 Z" />
      </g>
      <g
         transform="matrix(0.35277777,0,0,-0.35277777,184.94229,-89.404865)"
         id="g266479">
        <path
           id="path266481"
           style="fill:#ffffff;fill-opacity:1;fill-rule:nonzero;stroke:none"
           d="M 0,0 C 0.012,-0.982 0.023,-1.964 0.034,-2.945 0.156,-2.951 0.343,-2.959 0.44,-2.964 1.584,-3.015 1.897,-2.253 1.892,-1.506 1.888,-0.893 1.525,-0.058 0.469,-0.011 0.347,-0.005 0.076,0.007 0,0 m 2.598,-1.538 c 0.005,-0.89 -0.668,-1.759 -2.034,-1.697 -0.434,0.02 -0.867,0.039 -1.301,0.058 0.075,0.043 0.13,0.112 0.128,0.225 -0.013,1.005 -0.026,2.011 -0.039,3.017 C -0.65,0.182 -0.707,0.256 -0.784,0.3 -0.331,0.28 0.121,0.26 0.574,0.24 2.253,0.165 2.596,-1.042 2.598,-1.538" />
      </g>
      <g
         transform="matrix(0.35277777,0,0,-0.35277777,184.94229,-89.404865)"
         id="g266483">
        <path
           id="path266485"
           style="fill:none;stroke:#ffffff;stroke-width:0.052;stroke-linecap:butt;stroke-linejoin:miter;stroke-miterlimit:4;stroke-dasharray:none;stroke-opacity:1"
           d="M 0,0 C 0.012,-0.982 0.023,-1.964 0.034,-2.945 0.156,-2.951 0.343,-2.959 0.44,-2.964 1.584,-3.015 1.897,-2.253 1.892,-1.506 1.888,-0.893 1.525,-0.058 0.469,-0.011 0.347,-0.005 0.076,0.007 0,0 Z m 2.598,-1.538 c 0.005,-0.89 -0.668,-1.759 -2.034,-1.697 -0.434,0.02 -0.867,0.039 -1.301,0.058 0.075,0.043 0.13,0.112 0.128,0.225 -0.013,1.005 -0.026,2.011 -0.039,3.017 C -0.65,0.182 -0.707,0.256 -0.784,0.3 -0.331,0.28 0.121,0.26 0.574,0.24 2.253,0.165 2.596,-1.042 2.598,-1.538 Z" />
      </g>
      <g
         transform="matrix(0.35277777,0,0,-0.35277777,186.92526,-88.578448)"
         id="g266487">
        <path
           id="path266489"
           style="fill:#ffffff;fill-opacity:1;fill-rule:nonzero;stroke:none"
           d="m 0,0 c -0.001,-0.639 -0.558,-1.068 -1.181,-1.062 -0.461,0.004 -0.795,0.166 -0.973,0.255 -0.01,0.288 -0.019,0.576 -0.029,0.864 0.098,-0.364 0.404,-0.847 0.931,-0.853 0.501,-0.004 0.653,0.357 0.653,0.608 0,0.491 -0.442,0.562 -0.905,0.816 -0.468,0.266 -0.673,0.544 -0.674,0.932 -0.003,0.696 0.644,0.966 1.109,0.962 C -0.895,2.52 -0.558,2.481 -0.298,2.325 -0.29,2.072 -0.281,1.82 -0.273,1.568 -0.344,1.839 -0.635,2.251 -1.125,2.256 -1.512,2.26 -1.665,1.99 -1.664,1.77 -1.663,1.458 -1.444,1.339 -0.965,1.114 -0.492,0.884 0.001,0.711 0,0" />
      </g>
      <g
         transform="matrix(0.35277777,0,0,-0.35277777,186.92526,-88.578448)"
         id="g266491">
        <path
           id="path266493"
           style="fill:none;stroke:#ffffff;stroke-width:0.052;stroke-linecap:butt;stroke-linejoin:miter;stroke-miterlimit:4;stroke-dasharray:none;stroke-opacity:1"
           d="m 0,0 c -0.001,-0.639 -0.558,-1.068 -1.181,-1.062 -0.461,0.004 -0.795,0.166 -0.973,0.255 -0.01,0.288 -0.019,0.576 -0.029,0.864 0.098,-0.364 0.404,-0.847 0.931,-0.853 0.501,-0.004 0.653,0.357 0.653,0.608 0,0.491 -0.442,0.562 -0.905,0.816 -0.468,0.266 -0.673,0.544 -0.674,0.932 -0.003,0.696 0.644,0.966 1.109,0.962 C -0.895,2.52 -0.558,2.481 -0.298,2.325 -0.29,2.072 -0.281,1.82 -0.273,1.568 -0.344,1.839 -0.635,2.251 -1.125,2.256 -1.512,2.26 -1.665,1.99 -1.664,1.77 -1.663,1.458 -1.444,1.339 -0.965,1.114 -0.492,0.884 0.001,0.711 0,0 Z" />
      </g>
      <g
         transform="matrix(0.35277777,0,0,-0.35277777,188.2153,-88.902122)"
         id="g266495">
        <path
           id="path266497"
           style="fill:#ffffff;fill-opacity:1;fill-rule:nonzero;stroke:none"
           d="M 0,0 C -0.01,-1.089 0.592,-1.544 1.173,-1.504 1.836,-1.46 2.335,-0.895 2.35,0.031 2.375,1.018 1.879,1.568 1.201,1.522 0.528,1.477 0.019,0.906 0,0 M 1.125,-1.799 C 0.109,-1.852 -0.734,-1.154 -0.706,-0.104 -0.684,0.781 0.026,1.724 1.25,1.791 2.123,1.84 3.102,1.271 3.067,0.109 3.025,-1.089 2.039,-1.747 1.125,-1.799" />
      </g>
      <g
         transform="matrix(0.35277777,0,0,-0.35277777,188.2153,-88.902122)"
         id="g266499">
        <path
           id="path266501"
           style="fill:none;stroke:#ffffff;stroke-width:0.052;stroke-linecap:butt;stroke-linejoin:miter;stroke-miterlimit:4;stroke-dasharray:none;stroke-opacity:1"
           d="M 0,0 C -0.01,-1.089 0.592,-1.544 1.173,-1.504 1.836,-1.46 2.335,-0.895 2.35,0.031 2.375,1.018 1.879,1.568 1.201,1.522 0.528,1.477 0.019,0.906 0,0 Z M 1.125,-1.799 C 0.109,-1.852 -0.734,-1.154 -0.706,-0.104 -0.684,0.781 0.026,1.724 1.25,1.791 2.123,1.84 3.102,1.271 3.067,0.109 3.025,-1.089 2.039,-1.747 1.125,-1.799 Z" />
      </g>
      <g
         transform="matrix(0.35277777,0,0,-0.35277777,190.54377,-89.604396)"
         id="g266503">
        <path
           id="path266505"
           style="fill:#ffffff;fill-opacity:1;fill-rule:nonzero;stroke:none"
           d="M 0,0 C 0.003,0.118 -0.046,0.184 -0.127,0.216 0.062,0.236 0.25,0.256 0.439,0.276 0.361,0.227 0.303,0.149 0.3,0.032 c -0.029,-1.13 -0.057,-2.26 -0.086,-3.39 0.004,0 -2.362,2.635 -2.366,2.675 -0.017,-0.854 -0.034,-1.708 -0.051,-2.562 -0.002,-0.112 0.052,-0.178 0.137,-0.215 -0.187,-0.02 -0.374,-0.04 -0.561,-0.06 0.077,0.054 0.134,0.132 0.136,0.244 0.017,0.91 0.035,1.821 0.052,2.731 0.004,0.199 0.01,0.205 -0.085,0.312 -0.049,0.056 -0.119,0.12 -0.225,0.17 0.292,0.031 0.583,0.062 0.875,0.094 0.611,-0.684 1.219,-1.367 1.824,-2.051 0.016,0.673 0.033,1.347 0.05,2.02" />
      </g>
      <g
         transform="matrix(0.35277777,0,0,-0.35277777,190.54377,-89.604396)"
         id="g266507">
        <path
           id="path266509"
           style="fill:none;stroke:#ffffff;stroke-width:0.052;stroke-linecap:butt;stroke-linejoin:miter;stroke-miterlimit:4;stroke-dasharray:none;stroke-opacity:1"
           d="M 0,0 C 0.003,0.118 -0.046,0.184 -0.127,0.216 0.062,0.236 0.25,0.256 0.439,0.276 0.361,0.227 0.303,0.149 0.3,0.032 c -0.029,-1.13 -0.057,-2.26 -0.086,-3.39 0.004,0 -2.362,2.635 -2.366,2.675 -0.017,-0.854 -0.034,-1.708 -0.051,-2.562 -0.002,-0.112 0.052,-0.178 0.137,-0.215 -0.187,-0.02 -0.374,-0.04 -0.561,-0.06 0.077,0.054 0.134,0.132 0.136,0.244 0.017,0.91 0.035,1.821 0.052,2.731 0.004,0.199 0.01,0.205 -0.085,0.312 -0.049,0.056 -0.119,0.12 -0.225,0.17 0.292,0.031 0.583,0.062 0.875,0.094 0.611,-0.684 1.219,-1.367 1.824,-2.051 0.016,0.673 0.033,1.347 0.05,2.02 z" />
      </g>
      <g
         transform="matrix(0.35277777,0,0,-0.35277777,191.78326,-89.689134)"
         id="g266511">
        <path
           id="path266513"
           style="fill:#ffffff;fill-opacity:1;fill-rule:nonzero;stroke:none"
           d="M 0,0 C -0.092,0.12 -0.198,0.146 -0.391,0.13 -0.543,0.119 -1.255,0.021 -1.255,0.021 -1.266,-0.371 -1.278,-0.763 -1.29,-1.155 c 0.255,0.035 0.51,0.071 0.766,0.106 0.071,0.009 0.159,0.103 0.187,0.168 -0.006,-0.181 -0.012,-0.361 -0.018,-0.542 -0.023,0.068 -0.106,0.133 -0.177,0.123 -0.255,-0.035 -0.51,-0.07 -0.765,-0.105 -0.016,-0.501 -0.031,-1.003 -0.046,-1.504 0.101,-0.001 0.408,0.021 0.656,0.066 0.44,0.071 0.641,0.088 0.839,0.436 -0.042,-0.201 -0.084,-0.401 -0.126,-0.602 -0.723,-0.1 -1.447,-0.201 -2.17,-0.301 0.088,0.063 0.155,0.128 0.158,0.251 0.029,1.006 0.058,2.011 0.087,3.017 0.003,0.117 -0.066,0.179 -0.146,0.209 0.681,0.094 1.362,0.187 2.045,0.281 z" />
      </g>
      <g
         transform="matrix(0.35277777,0,0,-0.35277777,191.78326,-89.689134)"
         id="g266515">
        <path
           id="path266517"
           style="fill:none;stroke:#ffffff;stroke-width:0.052;stroke-linecap:butt;stroke-linejoin:miter;stroke-miterlimit:4;stroke-dasharray:none;stroke-opacity:1"
           d="M 0,0 C -0.092,0.12 -0.198,0.146 -0.391,0.13 -0.543,0.119 -1.255,0.021 -1.255,0.021 -1.266,-0.371 -1.278,-0.763 -1.29,-1.155 c 0.255,0.035 0.51,0.071 0.766,0.106 0.071,0.009 0.159,0.103 0.187,0.168 -0.006,-0.181 -0.012,-0.361 -0.018,-0.542 -0.023,0.068 -0.106,0.133 -0.177,0.123 -0.255,-0.035 -0.51,-0.07 -0.765,-0.105 -0.016,-0.501 -0.031,-1.003 -0.046,-1.504 0.101,-0.001 0.408,0.021 0.656,0.066 0.44,0.071 0.641,0.088 0.839,0.436 -0.042,-0.201 -0.084,-0.401 -0.126,-0.602 -0.723,-0.1 -1.447,-0.201 -2.17,-0.301 0.088,0.063 0.155,0.128 0.158,0.251 0.029,1.006 0.058,2.011 0.087,3.017 0.003,0.117 -0.066,0.179 -0.146,0.209 0.681,0.094 1.362,0.187 2.045,0.281 z" />
      </g>
      <g
         transform="matrix(0.35277777,0,0,-0.35277777,193.68286,-90.179177)"
         id="g266519">
        <path
           id="path266521"
           style="fill:#ffffff;fill-opacity:1;fill-rule:nonzero;stroke:none"
           d="M 0,0 C 0.306,0.06 0.612,0.121 0.918,0.181 0.83,0.123 0.771,0.04 0.765,-0.077 0.718,-1.082 0.671,-2.088 0.623,-3.093 0.618,-3.205 0.67,-3.266 0.753,-3.295 0.45,-3.355 0.146,-3.416 -0.157,-3.476 c 0.082,0.062 0.136,0.144 0.141,0.256 0.024,0.521 0.047,1.043 0.071,1.564 -0.523,-0.104 -1.047,-0.207 -1.569,-0.312 -0.022,-0.521 -0.044,-1.042 -0.066,-1.564 -0.004,-0.112 0.038,-0.175 0.121,-0.204 -0.303,-0.06 -0.606,-0.121 -0.908,-0.182 0.082,0.062 0.135,0.144 0.139,0.257 0.041,1.005 0.082,2.01 0.122,3.016 0.005,0.117 -0.043,0.179 -0.122,0.204 0.305,0.06 0.611,0.121 0.916,0.182 -0.088,-0.058 -0.136,-0.139 -0.141,-0.257 -0.017,-0.4 -0.034,-0.801 -0.051,-1.201 0.523,0.104 1.047,0.208 1.571,0.312 0.018,0.4 0.036,0.8 0.054,1.201 C 0.127,-0.087 0.079,-0.025 0,0" />
      </g>
      <g
         transform="matrix(0.35277777,0,0,-0.35277777,193.68286,-90.179177)"
         id="g266523">
        <path
           id="path266525"
           style="fill:none;stroke:#ffffff;stroke-width:0.052;stroke-linecap:butt;stroke-linejoin:miter;stroke-miterlimit:4;stroke-dasharray:none;stroke-opacity:1"
           d="M 0,0 C 0.306,0.06 0.612,0.121 0.918,0.181 0.83,0.123 0.771,0.04 0.765,-0.077 0.718,-1.082 0.671,-2.088 0.623,-3.093 0.618,-3.205 0.67,-3.266 0.753,-3.295 0.45,-3.355 0.146,-3.416 -0.157,-3.476 c 0.082,0.062 0.136,0.144 0.141,0.256 0.024,0.521 0.047,1.043 0.071,1.564 -0.523,-0.104 -1.047,-0.207 -1.569,-0.312 -0.022,-0.521 -0.044,-1.042 -0.066,-1.564 -0.004,-0.112 0.038,-0.175 0.121,-0.204 -0.303,-0.06 -0.606,-0.121 -0.908,-0.182 0.082,0.062 0.135,0.144 0.139,0.257 0.041,1.005 0.082,2.01 0.122,3.016 0.005,0.117 -0.043,0.179 -0.122,0.204 0.305,0.06 0.611,0.121 0.916,0.182 -0.088,-0.058 -0.136,-0.139 -0.141,-0.257 -0.017,-0.4 -0.034,-0.801 -0.051,-1.201 0.523,0.104 1.047,0.208 1.571,0.312 0.018,0.4 0.036,0.8 0.054,1.201 C 0.127,-0.087 0.079,-0.025 0,0 Z" />
      </g>
      <g
         transform="matrix(0.35277777,0,0,-0.35277777,195.08554,-90.350874)"
         id="g266527">
        <path
           id="path266529"
           style="fill:#ffffff;fill-opacity:1;fill-rule:nonzero;stroke:none"
           d="m 0,0 c -0.088,0.109 -0.192,0.123 -0.383,0.085 -0.15,-0.028 -0.855,-0.205 -0.854,-0.205 -0.021,-0.392 -0.041,-0.784 -0.061,-1.176 0.252,0.064 0.505,0.128 0.758,0.192 0.07,0.018 0.16,0.121 0.188,0.189 -0.01,-0.181 -0.02,-0.362 -0.029,-0.542 -0.021,0.065 -0.103,0.12 -0.173,0.102 -0.252,-0.063 -0.505,-0.127 -0.757,-0.191 -0.026,-0.501 -0.052,-1.002 -0.077,-1.503 0.099,0.01 0.402,0.067 0.648,0.139 0.435,0.121 0.635,0.161 0.838,0.53 -0.046,-0.204 -0.092,-0.409 -0.138,-0.614 -0.716,-0.181 -1.432,-0.363 -2.147,-0.546 0.088,0.073 0.155,0.146 0.162,0.269 0.05,1.005 0.1,2.01 0.15,3.015 0.006,0.118 -0.06,0.172 -0.139,0.192 0.674,0.17 1.348,0.34 2.023,0.51 C 0.006,0.297 0.003,0.149 0,0" />
      </g>
      <g
         transform="matrix(0.35277777,0,0,-0.35277777,195.08554,-90.350874)"
         id="g266531">
        <path
           id="path266533"
           style="fill:none;stroke:#ffffff;stroke-width:0.052;stroke-linecap:butt;stroke-linejoin:miter;stroke-miterlimit:4;stroke-dasharray:none;stroke-opacity:1"
           d="m 0,0 c -0.088,0.109 -0.192,0.123 -0.383,0.085 -0.15,-0.028 -0.855,-0.205 -0.854,-0.205 -0.021,-0.392 -0.041,-0.784 -0.061,-1.176 0.252,0.064 0.505,0.128 0.758,0.192 0.07,0.018 0.16,0.121 0.188,0.189 -0.01,-0.181 -0.02,-0.362 -0.029,-0.542 -0.021,0.065 -0.103,0.12 -0.173,0.102 -0.252,-0.063 -0.505,-0.127 -0.757,-0.191 -0.026,-0.501 -0.052,-1.002 -0.077,-1.503 0.099,0.01 0.402,0.067 0.648,0.139 0.435,0.121 0.635,0.161 0.838,0.53 -0.046,-0.204 -0.092,-0.409 -0.138,-0.614 -0.716,-0.181 -1.432,-0.363 -2.147,-0.546 0.088,0.073 0.155,0.146 0.162,0.269 0.05,1.005 0.1,2.01 0.15,3.015 0.006,0.118 -0.06,0.172 -0.139,0.192 0.674,0.17 1.348,0.34 2.023,0.51 C 0.006,0.297 0.003,0.149 0,0 Z" />
      </g>
      <g
         transform="matrix(0.35277777,0,0,-0.35277777,195.93753,-89.986596)"
         id="g266535">
        <path
           id="path266537"
           style="fill:#ffffff;fill-opacity:1;fill-rule:nonzero;stroke:none"
           d="m 0,0 c -0.198,0.491 -0.43,1.087 -0.43,1.087 0,0 -0.388,-0.979 -0.568,-1.414 C -0.665,-0.218 -0.333,-0.109 0,0 M 1.027,-0.621 C 1.07,-0.712 1.101,-0.757 1.258,-0.79 0.906,-0.905 0.554,-1.021 0.202,-1.136 c 0.133,0.114 0.162,0.193 0.134,0.289 -0.012,0.046 -0.121,0.316 -0.238,0.618 -0.404,-0.132 -0.807,-0.264 -1.209,-0.396 -0.169,-0.396 -0.303,-0.736 -0.316,-0.796 -0.052,-0.137 -0.031,-0.201 0.098,-0.218 -0.226,-0.075 -0.452,-0.149 -0.678,-0.224 0.143,0.143 0.19,0.214 0.245,0.327 0.101,0.225 1.583,3.789 1.586,3.789 0.002,0 1.129,-2.708 1.203,-2.874" />
      </g>
      <g
         transform="matrix(0.35277777,0,0,-0.35277777,195.93753,-89.986596)"
         id="g266539">
        <path
           id="path266541"
           style="fill:none;stroke:#ffffff;stroke-width:0.052;stroke-linecap:butt;stroke-linejoin:miter;stroke-miterlimit:4;stroke-dasharray:none;stroke-opacity:1"
           d="m 0,0 c -0.198,0.491 -0.43,1.087 -0.43,1.087 0,0 -0.388,-0.979 -0.568,-1.414 C -0.665,-0.218 -0.333,-0.109 0,0 Z M 1.027,-0.621 C 1.07,-0.712 1.101,-0.757 1.258,-0.79 0.906,-0.905 0.554,-1.021 0.202,-1.136 c 0.133,0.114 0.162,0.193 0.134,0.289 -0.012,0.046 -0.121,0.316 -0.238,0.618 -0.404,-0.132 -0.807,-0.264 -1.209,-0.396 -0.169,-0.396 -0.303,-0.736 -0.316,-0.796 -0.052,-0.137 -0.031,-0.201 0.098,-0.218 -0.226,-0.075 -0.452,-0.149 -0.678,-0.224 0.143,0.143 0.19,0.214 0.245,0.327 0.101,0.225 1.583,3.789 1.586,3.789 0.002,0 1.129,-2.708 1.203,-2.874 z" />
      </g>
      <g
         transform="matrix(0.35277777,0,0,-0.35277777,196.91473,-91.033499)"
         id="g266543">
        <path
           id="path266545"
           style="fill:#ffffff;fill-opacity:1;fill-rule:nonzero;stroke:none"
           d="m 0,0 c -0.029,-0.445 -0.059,-0.889 -0.088,-1.334 0,0 0.135,0.046 0.217,0.079 0.33,0.135 0.693,0.472 0.728,0.988 C 0.873,-0.032 0.765,0.321 0.283,0.125 0.137,0.066 0,0 0,0 m 0.621,-1.163 c 0.328,0.099 0.458,-0.077 0.523,-0.159 0,0 0.515,-0.733 0.67,-0.869 C 1.897,-2.276 2.11,-2.268 2.11,-2.268 1.899,-2.357 1.689,-2.446 1.479,-2.536 1.295,-2.611 1.143,-2.559 1.065,-2.472 0.869,-2.239 0.681,-1.953 0.526,-1.739 0.414,-1.586 0.317,-1.412 0.108,-1.497 0.05,-1.521 -0.106,-1.594 -0.106,-1.594 c -0.03,-0.465 -0.061,-0.93 -0.092,-1.395 -0.007,-0.113 0.041,-0.162 0.12,-0.175 -0.291,-0.119 -0.582,-0.239 -0.873,-0.359 0.08,0.078 0.133,0.169 0.14,0.282 0.065,1.005 0.13,2.01 0.195,3.015 0.008,0.117 -0.036,0.169 -0.111,0.178 0.35,0.143 0.7,0.286 1.05,0.428 C 1.332,0.79 1.526,0.367 1.502,0.025 1.463,-0.527 0.968,-0.997 0.621,-1.163" />
      </g>
      <g
         transform="matrix(0.35277777,0,0,-0.35277777,196.91473,-91.033499)"
         id="g266547">
        <path
           id="path266549"
           style="fill:none;stroke:#ffffff;stroke-width:0.052;stroke-linecap:butt;stroke-linejoin:miter;stroke-miterlimit:4;stroke-dasharray:none;stroke-opacity:1"
           d="m 0,0 c -0.029,-0.445 -0.059,-0.889 -0.088,-1.334 0,0 0.135,0.046 0.217,0.079 0.33,0.135 0.693,0.472 0.728,0.988 C 0.873,-0.032 0.765,0.321 0.283,0.125 0.137,0.066 0,0 0,0 Z m 0.621,-1.163 c 0.328,0.099 0.458,-0.077 0.523,-0.159 0,0 0.515,-0.733 0.67,-0.869 C 1.897,-2.276 2.11,-2.268 2.11,-2.268 1.899,-2.357 1.689,-2.446 1.479,-2.536 1.295,-2.611 1.143,-2.559 1.065,-2.472 0.869,-2.239 0.681,-1.953 0.526,-1.739 0.414,-1.586 0.317,-1.412 0.108,-1.497 0.05,-1.521 -0.106,-1.594 -0.106,-1.594 c -0.03,-0.465 -0.061,-0.93 -0.092,-1.395 -0.007,-0.113 0.041,-0.162 0.12,-0.175 -0.291,-0.119 -0.582,-0.239 -0.873,-0.359 0.08,0.078 0.133,0.169 0.14,0.282 0.065,1.005 0.13,2.01 0.195,3.015 0.008,0.117 -0.036,0.169 -0.111,0.178 0.35,0.143 0.7,0.286 1.05,0.428 C 1.332,0.79 1.526,0.367 1.502,0.025 1.463,-0.527 0.968,-0.997 0.621,-1.163 Z" />
      </g>
      <g
         transform="matrix(0.35277777,0,0,-0.35277777,198.27652,-91.657457)"
         id="g266551">
        <path
           id="path266553"
           style="fill:#ffffff;fill-opacity:1;fill-rule:nonzero;stroke:none"
           d="m 0,0 c -0.074,-0.996 -0.149,-1.992 -0.223,-2.988 -0.009,-0.113 0.037,-0.157 0.103,-0.165 -0.276,-0.15 -0.552,-0.3 -0.828,-0.45 0.077,0.086 0.129,0.183 0.137,0.295 0.073,0.996 0.146,1.992 0.219,2.989 -0.345,-0.186 -0.747,-0.439 -0.747,-0.439 -0.111,-0.06 -0.199,-0.22 -0.247,-0.33 0.012,0.165 0.024,0.331 0.036,0.496 0.848,0.46 1.701,0.919 2.555,1.377 C 0.992,0.62 0.98,0.455 0.967,0.29 0.931,0.354 0.874,0.426 0.763,0.376 0.763,0.376 0.34,0.184 0,0" />
      </g>
      <g
         transform="matrix(0.35277777,0,0,-0.35277777,198.27652,-91.657457)"
         id="g266555">
        <path
           id="path266557"
           style="fill:none;stroke:#ffffff;stroke-width:0.052;stroke-linecap:butt;stroke-linejoin:miter;stroke-miterlimit:4;stroke-dasharray:none;stroke-opacity:1"
           d="m 0,0 c -0.074,-0.996 -0.149,-1.992 -0.223,-2.988 -0.009,-0.113 0.037,-0.157 0.103,-0.165 -0.276,-0.15 -0.552,-0.3 -0.828,-0.45 0.077,0.086 0.129,0.183 0.137,0.295 0.073,0.996 0.146,1.992 0.219,2.989 -0.345,-0.186 -0.747,-0.439 -0.747,-0.439 -0.111,-0.06 -0.199,-0.22 -0.247,-0.33 0.012,0.165 0.024,0.331 0.036,0.496 0.848,0.46 1.701,0.919 2.555,1.377 C 0.992,0.62 0.98,0.455 0.967,0.29 0.931,0.354 0.874,0.426 0.763,0.376 0.763,0.376 0.34,0.184 0,0 Z" />
      </g>
    </g>
    <g
       id="g268444" />
  </g>
  <g
     id="layer2"
     transform="translate(-172.30322,111.8555)" />
</svg>
