<?xml version="1.0" encoding="UTF-8" standalone="no"?>
<!-- Generator: Adobe Illustrator 21.0.2, SVG Export Plug-In . SVG Version: 6.00 Build 0)  -->

<svg
   version="1.1"
   id="Layer_1"
   x="0px"
   y="0px"
   viewBox="0 0 327 301"
   style="enable-background:new 0 0 327 301;"
   xml:space="preserve"
   xmlns="http://www.w3.org/2000/svg"
   xmlns:svg="http://www.w3.org/2000/svg"
   xmlns:rdf="http://www.w3.org/1999/02/22-rdf-syntax-ns#"
   xmlns:cc="http://creativecommons.org/ns#"
   xmlns:dc="http://purl.org/dc/elements/1.1/"><metadata
   id="metadata143"><rdf:RDF><cc:Work
       rdf:about=""><dc:format>image/svg+xml</dc:format><dc:type
         rdf:resource="http://purl.org/dc/dcmitype/StillImage" /><dc:title /></cc:Work></rdf:RDF></metadata><defs
   id="defs141" />
<style
   type="text/css"
   id="style2">
	.st0{fill:#A41F35;}
	.st1{fill:#222944;}
	.st2{fill:#6DABE4;}
	.st3{fill:#F8D44C;}
	.st4{fill:#FFD64F;}
	.st5{fill:#648C1A;}
</style>
<g
   id="g136">
	<path
   class="st0"
   d="M298.7,230.9c-6.3,0-12.8,0.8-19.4,2.2c-0.7-4,0.1-11.2,2-15c6.2,5.5,13.4,8.7,19.8,8.7c6.1,0,7.4-3.4,7.4-6.3   c0-10-15.1-20.4-22.7-25c8.8-18,13.7-38.2,13.7-59.5c0-34.3-12.8-65.6-33.8-89.5c0-1.8,0-3.5,0-5.1l0-1.7h-6.3   C234.8,15.2,200.9,0,163.5,0S92.2,15.2,67.6,39.7h-6.3v1.7c0,1.6,0,3.3,0,5.1c-21,23.9-33.8,55.3-33.8,89.5   c0,21.3,5,41.5,13.7,59.5c-7.6,4.6-22.7,15-22.7,25c0,2.9,1.3,6.3,7.4,6.3c6.4,0,13.6-3.2,19.8-8.7c1.8,3.8,2.7,11.1,1.9,15   c-6.6-1.4-13.1-2.2-19.4-2.2C12.2,230.9,0,251.6,0,262c0,11.7,0.9,23.2,11.8,23.2c3.8,0,11.5-0.5,19.8-4.2   c8.6-3.8,15.6-9.9,20.8-18.2c11.5,3.5,22.9,9.1,34.9,15.1c23,11.4,46.7,23.2,76.1,23.2s53.1-11.8,76.1-23.2   c12-6,23.4-11.6,34.9-15.1c5.2,8.3,12.2,14.4,20.8,18.2c8.3,3.7,16,4.2,19.8,4.2c10.9,0,11.8-11.4,11.8-23.2   C327,251.6,314.8,230.9,298.7,230.9"
   id="path4" />
	<path
   class="st1"
   d="M263.3,102.8c0-0.1-0.1-0.2-0.1-0.4c0,0.2,0,0.3,0,0.5c0,0.2,0,0.3,0,0.5c-3.5,35.9-11.9,78-32.3,112.7   c-0.1,0.2-0.2,0.4-0.4,0.6c-0.1,0.2-0.2,0.3-0.3,0.5c0.1-0.1,0.3-0.2,0.4-0.4c2.5-2.1,4.9-4.3,7.3-6.6   c19.9-19.9,30.8-46.2,30.8-74.3C268.6,124.5,266.7,113.4,263.3,102.8"
   id="path6" />
	<path
   class="st1"
   d="M121.9,39.8H206c-0.1-0.1-0.3-0.1-0.4-0.2c-13.1-5.7-27.4-8.8-42.2-8.8c-14.8,0-29,3-42.2,8.8   c-0.1,0.1-0.3,0.1-0.4,0.2h0.5"
   id="path8" />
	<path
   class="st1"
   d="M96.2,216.2c-20.3-34.7-28.8-76.9-32.3-112.7c0-0.2,0-0.3,0-0.5c0-0.2,0-0.3,0-0.5c0,0.1-0.1,0.2-0.1,0.4   c-3.5,10.6-5.3,21.7-5.3,33.1c0,28.1,10.9,54.5,30.8,74.3c2.3,2.3,4.8,4.5,7.3,6.6c0.1,0.1,0.3,0.2,0.4,0.4   c-0.1-0.2-0.2-0.3-0.3-0.5C96.4,216.6,96.3,216.4,96.2,216.2"
   id="path10" />
	<path
   class="st1"
   d="M180.4,105.4h79l0-0.2c0.3-3.1,0.6-6.1,0.9-9.1c0-0.2,0-0.3,0-0.5c0-0.2,0-0.3,0-0.5c0.2-2.4,0.4-4.8,0.5-7.2   c0-0.1,0-0.2,0-0.3c0-0.1,0-0.2,0-0.3c1-15.4,1.2-28.9,1.2-38.4c0-0.1,0-0.2,0-0.4v-0.3c0-1.8,0-3.5,0-5v-0.2h0   c-16.8,0-33.5,0-50.3,0h-31.4"
   id="path12" />
	<path
   class="st1"
   d="M64.7,48.6v0.4c0,9.6,0.2,23,1.2,38.4c0,0.1,0,0.2,0,0.3c0,0.1,0,0.2,0,0.3c0.2,2.4,0.3,4.8,0.5,7.2   c0,0.2,0,0.3,0,0.5c0,0.2,0,0.3,0,0.5c0.2,3,0.5,6,0.8,9.1l0,0.2h79V43.1h-31.4c-16.8,0-33.5,0-50.3,0h0v0.2c0,1.5,0,3.2,0,5"
   id="path14" />
	<path
   class="st1"
   d="M254.6,139.2h-74.1l0,100.1c0,7.6,0,15.2,0,22.9v0.3l0.2-0.1c12.3-5.4,24.7-16.3,35.9-31.2   c0.1-0.1,0.2-0.2,0.3-0.4c0.1-0.1,0.2-0.2,0.3-0.4c1.7-2.3,3.3-4.7,5-7.1c0.1-0.1,0.2-0.3,0.3-0.4c0.1-0.2,0.2-0.3,0.3-0.5   c0.5-0.7,1-1.5,1.4-2.3c13.9-22.3,24.5-50.2,30.4-80.7"
   id="path16" />
	<path
   class="st1"
   d="M72.6,139.4c6,30.5,16.5,58.4,30.4,80.7c0.5,0.8,1.1,1.7,1.6,2.5c0.1,0.2,0.2,0.3,0.3,0.5   c0.1,0.1,0.2,0.3,0.3,0.4c1.6,2.5,3.3,4.8,4.9,7.1c0.1,0.1,0.2,0.2,0.3,0.4c0.1,0.1,0.2,0.2,0.3,0.4c11.1,14.8,23.5,25.7,35.7,31   l0.2,0.1l0-18.8c0-34.8,0-69.5,0-104.3v-0.2H72.6"
   id="path18" />
	<path
   class="st2"
   d="M212.5,73c0-0.7-0.6-1.3-1.3-1.3c-0.7,0-1.3,0.6-1.3,1.3c0,0.7,0.6,1.3,1.3,1.3   C211.9,74.3,212.5,73.7,212.5,73"
   id="path20" />
	<path
   class="st2"
   d="M216.2,71.9c-0.7,0-1.3,0.6-1.3,1.3c0,0.7,0.6,1.3,1.3,1.3c0.7,0,1.3-0.6,1.3-1.3   C217.4,72.4,216.9,71.9,216.2,71.9"
   id="path22" />
	<path
   class="st2"
   d="M215.9,75.8c-0.3,0-1.8,0.7-1.8,1.9c0,1.2-0.1,15.8-6.8,16.8c1.8-3.5,4.9-9.3,4.9-16.1c0-1.3-0.4-2.5-1.6-2.5   c-1.5,0-1.9,1.7-1.9,3.6c0,1.9,1,15.8-6.2,15.8c-1.6,0-5.8-2.4-5.8-5.3c0-1.5,1-3.3,2.6-3.3c0.4,0,0.6,0.5,0.6,0.8   c0,0.3-1.7,3.5,1.7,3.5c3.4,0,2.2-5.2-0.3-5.2c-2.6,0-5.3,0.7-5.3,4.2c0,3.5,4.5,5.7,5.4,5.7c-1.7,0-6.7-0.6-6.7-7.3   c0-2.7,3.6-4.4,5.7-5.3c2.1-0.9,5.8-1.7,5.8-5.4c0-1-0.7-1.5-1.9-1.5c-1.2,0-2,1.2-2,1.7s0.6,1.2,1.2,1.2c0.7,0,0.8-0.1,0.8-0.5   c0-0.3-0.4-0.8-0.4-1.1c0-0.3,1.3-0.9,1.3,0.7c0,1.6-2.1,3.7-8.2,5.2c0-2.6,5.8-5.3,5.8-10.9c0-2-0.6-4.3-2.9-4.3s-2.7,2-2.7,2.4   c0,0.3,0.4,1.6,1.9,1.6c1.5,0,1.2-0.8,1.2-1.3c0-0.6-1-0.7-1-1.7c0.8,0,2.5-0.8,2.5,3.3c0,4-2.9,6.6-6.6,10.9   c0-3.4,1.9-4.7,1.9-6.7c0-2-1.3-2.4-1.9-2.4c-0.6,0-1.9,0.9-1.9,1.9s0.6,1.3,1,1.3c0.4,0,1.6-0.4,0.9-2c0.7-0.1,1.2,0.4,1.2,1.1   s-2.8,5.6-2.8,10.7c0,0.8-0.7,1.2-1.2,1.2c-0.6,0-1.3,0-1.8,0.4c0.4,0.8,0.6,0.9,0.6,0.9s0.3-0.4,1.2-0.4c2.5,0,1.9,7.5,10.1,7.5   c1.2,1.1,3.1,0.9,4.2-0.8c2-0.3,10.4-5.2,10.4-18.6C217.1,76.3,216.3,75.8,215.9,75.8"
   id="path24" />
	<path
   class="st2"
   d="M232.8,71.7c-0.7,0-1.3,0.6-1.3,1.3s0.6,1.3,1.3,1.3c0.7,0,1.3-0.6,1.3-1.3S233.5,71.7,232.8,71.7"
   id="path26" />
	<path
   class="st2"
   d="M227.8,74.4c0.7,0,1.3-0.6,1.3-1.3c0-0.7-0.6-1.3-1.3-1.3c-0.7,0-1.3,0.6-1.3,1.3   C226.6,73.8,227.1,74.4,227.8,74.4"
   id="path28" />
	<path
   class="st2"
   d="M251.6,88.7c-0.6,0-1.2-0.4-1.2-1.2c0-5.1-2.8-10-2.8-10.7c0-0.7,0.6-1.2,1.2-1.1c-0.7,1.6,0.5,2,0.9,2   c0.2,0,0.4-0.1,0.6-0.3c0.1,0,0.1-0.1,0.1-0.2c0-0.1,0.1-0.1,0.1-0.2c0.1-0.2,0.2-0.4,0.2-0.7c0-1-1.3-1.9-1.9-1.9c0,0-0.1,0-0.1,0   c-0.1,0-0.1,0-0.2,0c-0.1,0-0.2,0-0.2,0.1c-0.6,0.2-1.3,0.8-1.3,2.3c0,2,1.9,3.4,1.9,6.7c-3.7-4.3-6.6-6.9-6.6-10.9   c0-3.5,1.2-3.4,2.1-3.3c0.1,0,0.2,0,0.3,0c0,0,0.1,0,0.1,0c0,0,0,0,0,0.1c0,0.1,0,0.2-0.1,0.3c-0.2,0.7-0.9,0.9-0.9,1.3   c0,0.6-0.2,1.3,1.2,1.3c0.6,0,1.1-0.2,1.4-0.5c0.1-0.1,0.1-0.1,0.2-0.2c0-0.1,0.1-0.1,0.1-0.2c0.2-0.3,0.3-0.6,0.3-0.7   c0-0.3-0.3-2.4-2.7-2.4c0,0,0,0,0,0c-0.1,0-0.1,0-0.2,0c-0.1,0-0.2,0-0.3,0c-1.9,0.3-2.4,2.3-2.4,4.2c0,5.6,5.8,8.3,5.8,10.9   c-6.1-1.5-8.2-3.6-8.2-5.2c0-1.6,1.3-1,1.3-0.7s-0.4,0.8-0.4,1.1c0,0.3,0.1,0.5,0.8,0.5c0.7,0,1.2-0.8,1.2-1.2c0-0.4-0.8-1.7-2-1.7   c-1.2,0-1.9,0.5-1.9,1.5c0,3.7,3.7,4.5,5.8,5.4c2.1,0.9,5.7,2.6,5.7,5.3c0,6.7-5.1,7.3-6.7,7.3c0.9,0,5.4-2.2,5.4-5.7   c0-3.5-2.7-4.2-5.3-4.2c-2.6,0-3.7,5.2-0.3,5.2c3.4,0,1.7-3.1,1.7-3.5c0-0.3,0.1-0.8,0.6-0.8c1.6,0,2.6,1.8,2.6,3.3   c0,2.9-4.3,5.3-5.8,5.3c-7.2,0-6.2-13.9-6.2-15.8c0-1.9-0.4-3.6-1.9-3.6c-1.1,0-1.6,1.1-1.6,2.5c0,6.8,3.1,12.6,4.9,16.1   c-6.7-1-6.8-15.6-6.8-16.8c0-1.2-1.5-1.9-1.8-1.9c-0.3,0-1.1,0.4-1.1,1.9c0,13.5,8.4,18.3,10.4,18.6c1,1.7,2.9,1.9,4.2,0.8   c8.2,0,7.6-7.5,10.1-7.5c0.9,0,1.2,0.4,1.2,0.4s0.1-0.1,0.6-0.9C253,88.7,252.2,88.7,251.6,88.7"
   id="path30" />
	<path
   class="st2"
   d="M227.4,70.3c0.9,0,1.7-1.1,1.7-2.7c0-2-0.2-3.9-0.6-5.6c1.5-2.1,2.9-4,3.7-5c0-0.1,0.1-0.1,0.1-0.2   c0-0.1,0.1-0.1,0.1-0.1c0.2-0.2,0.3-0.4,0.4-0.5c1.2-1.3,1.7-0.7,2.4-1.1c0.1-0.1,0.3-0.1,0.4-0.2c0.1,0,0.1,0,0.2,0   c0.1,0,0.2,0,0.3,0c0.3,0,0.5,0.1,0.4,0.3c0,0-0.1,0.1-0.1,0.1c0,0,0,0,0,0c0,0-0.1,0.1-0.1,0.1c-1,0.7-1.8,1.6-2.4,2.5   c0,0.1-0.1,0.1-0.1,0.2c0,0.1-0.1,0.1-0.1,0.2c-2.5,4.1-2.2,9.4-2.2,10.6c0,1.5,0.7,1.7,1.2,1.7c0.6,0,1.1-0.5,1.1-1.5v-5.4   c0-0.9,0.9-1.7,0.9-2.1v-1.9c0-0.1,0-0.2,0.1-0.4c0-0.1,0-0.2,0.1-0.2c0-0.1,0-0.1,0.1-0.2c0.3-1,1.1-2.2,2.1-2.8   c0.1,0,0.1-0.1,0.2-0.1c0.1,0,0.1-0.1,0.2-0.1c0.2-0.1,0.5-0.2,0.7-0.2c1.2,0,0.9,1.5,2.5,1.5c2.7,0-0.8-2,3.7-2   c1.6,0,0.3-2.8-0.3-1.6c-0.7,1.2-1,1-1.7,1c-3.5,0-3.4-1.2-5.3-1.2c-0.7,0-1.3,0.2-2,0.4c-0.1,0-0.1,0-0.2,0.1   c-0.1,0-0.1,0-0.2,0.1c-1,0.4-2,1.2-3,2.1c0,0-0.1,0.1-0.1,0.1c-0.1,0.1-0.1,0.1-0.2,0.2c-1.2,1.1-2.3,2.5-3.3,4   c-1.6-5.5-4.3-8.8-6-8.8c-1.8,0-4.4,3.4-6,8.8c-2.5-3.7-5.6-6.9-8.9-6.9c-1.9,0-1.8,1.2-5.3,1.2c-0.7,0-1,0.2-1.7-1   c-0.7-1.2-1.9,1.6-0.3,1.6c4.5,0,1,2,3.7,2c1.6,0,1.2-1.5,2.5-1.5c1.9,0,3.4,2.9,3.4,3.9v1.9c0,0.4,0.9,1.2,0.9,2.1v5.4   c0,1,0.6,1.5,1.1,1.5c0.6,0,1.2-0.2,1.2-1.7c0-1.5,0.5-9.7-4.9-13.6c-0.6-0.4,0.4-0.7,1.1-0.2c0.7,0.4,1.1-0.2,2.4,1.1   c0.5,0.5,2.4,2.9,4.4,5.9c-0.4,1.7-0.6,3.6-0.6,5.6c0,1.6,0.8,2.7,1.7,2.7c0.9,0,1.7-2,1.6-3.7c0-0.2,0-0.4-0.1-0.7   c1.6,2.6,3.1,5.2,3.6,7.1c-1.7,5-6.8,21.2,0.2,21.2c7,0,1.9-16.2,0.2-21.2c0.6-1.9,2-4.5,3.6-7.1c0,0.2,0,0.4-0.1,0.7   C225.6,68.3,226.5,70.3,227.4,70.3 M222,93.2c0,0-6.3,0.9,0-17.9C228.3,94.1,222,93.2,222,93.2 M222,72.3c0,0-1.5-4.2-4-8.7   c-0.1-5.7,1-10.7,4-10.7c3.1,0,4.2,5.1,4,10.7C223.5,68.1,222,72.3,222,72.3"
   id="path32" />
	<path
   class="st3"
   d="M287.5,201.8l-3.7-2.6l-0.1-0.1c0,0.1-0.1,0.1-0.1,0.2c0,0.1-0.1,0.1-0.1,0.2c-5.2,9.9-11.7,19.1-19.1,27.3   c-0.1,0.1-0.1,0.1-0.2,0.2c-0.1,0.1-0.1,0.1-0.2,0.2c-1.9,2.1-3.8,4-5.8,6c0,0-0.1,0.1-0.1,0.1c0,0-0.1,0.1-0.1,0.1l0.1,0.1   l3.2,4.6l0.1,0.2c0.1,0,0.1,0,0.2-0.1c0.1,0,0.1,0,0.2-0.1c0.8-0.2,1.5-0.5,2.3-0.7c0.1,0,0.1,0,0.2-0.1c0.1,0,0.1,0,0.2-0.1   c3.4-1.1,6.9-2.1,10.3-2.9c0.1,0,0.1,0,0.2,0c0.1,0,0.1,0,0.2,0c0-0.1,0-0.1,0-0.2c-2.5-10.7,1.6-21.4,12.1-31.9"
   id="path34" />
	<path
   class="st4"
   d="M46.7,197.7c0.2,0.4,0.5,0.9,0.7,1.3c0.1,0.2,0.2,0.4,0.3,0.6c0.2,0.3,0.3,0.6,0.5,0.9   c0.4,0.7,0.8,1.5,1.3,2.2c1.5,2.5,3.1,5,4.7,7.4c0.9,1.3,1.7,2.5,2.6,3.7c0.7,1,1.5,2,2.2,2.9c0,0.1,0.1,0.1,0.1,0.2   c0,0.1,0.1,0.1,0.1,0.2c3.3,4.2,6.9,8.3,10.7,12.2c0.2,0.2,0.5,0.5,0.7,0.7c0,0,0.1,0.1,0.1,0.1c0,0,0.1,0.1,0.1,0.1   c0.7,0.7,1.5,1.4,2.2,2.1c0,0,0.1,0.1,0.1,0.1c0,0,0.1,0.1,0.1,0.1c5,4.6,10.2,8.8,15.8,12.6c0.1,0,0.1,0.1,0.2,0.1   c0.1,0,0.1,0.1,0.2,0.1c3.1,2.1,6.4,4.1,9.7,5.9c0.5,0.3,1,0.6,1.5,0.8c1.1,0.5,2.1,0.9,3.2,1.4c0.6,0.3,1.3,0.6,1.9,0.8   c1.7,0.7,3.3,1.5,5,2.2c0.6,0.3,1.2,0.5,1.8,0.8c1.9,0.8,3.8,1.6,5.6,2.4c0.9,0.4,1.8,0.7,2.6,1.1c0.7,0.2,1.4,0.5,2.2,0.7   c7.1,2.3,14.3,3.9,21.8,5c0.1,0,0.3,0,0.4,0c-0.1-0.1-0.3-0.2-0.4-0.2c-0.1-0.1-0.2-0.2-0.4-0.2c-17.3-10.3-31-24.1-41.9-39.9   c-0.1-0.1-0.2-0.3-0.3-0.4c-0.1-0.1-0.3-0.2-0.4-0.3c-28.6-19.6-47.3-52.5-47.3-89.7c0-14.8,3-28.8,8.3-41.7c0-0.1,0.1-0.2,0.1-0.3   c0-0.1,0-0.3,0-0.4C61.9,78,61.6,64,61.5,52.8c0-0.1,0-0.3,0-0.4c0-0.1,0-0.2,0-0.3c-0.1,0.1-0.1,0.1-0.2,0.2   C41.9,75.8,31.4,105.1,31.4,136c0,21.7,5.2,42.6,15,61.3C46.5,197.4,46.6,197.6,46.7,197.7 M45.3,169.1c2.2-0.8,3.8,0.4,5.1,3.7   l1.6,4.3l4.4-1.7l0.7,1.9l-10.8,4.1l-2.4-6.2C42.7,171.9,43.1,169.9,45.3,169.1 M39.3,151.3l1.8,9.3l3.3-0.7l-1.7-8.7l1.5-0.3   l1.7,8.7l3.5-0.7l-1.8-9.4l1.5-0.3l2.2,11.4L40,162.8l-2.2-11.3L39.3,151.3z M43.4,111.6c-1.9,0.1-3.3,1.8-3.7,4.5   c-0.6,3.6,0.8,6,3.6,6.4c2.8,0.4,4.8-1.4,5.4-5c0.4-2.8-0.5-5-2.4-5.6l0.3-2.1c2.8,0.8,4.2,3.9,3.6,8c-0.8,4.9-3.6,7.4-7.2,6.9   c-3.6-0.6-5.6-3.9-4.8-8.8c0.6-4,2.9-6.5,5.6-6.4L43.4,111.6z M45.1,133.5l0.1,7.4l3.3,1.9l0,2.2l-11.6-6.7l0-2.1l11.5-6.6l0,2.1   L45.1,133.5z M52.6,104.8l-11-3.7l3.6-10.9l1.4,0.5l-3,9l3.2,1.1l2.8-8.4l1.4,0.5l-2.8,8.4l3.4,1.1l3-9.1l1.5,0.5L52.6,104.8z"
   id="path36" />
	<path
   class="st3"
   d="M272.3,136c0,37.2-18.8,70.1-47.3,89.7c-0.1,0.1-0.3,0.2-0.4,0.3c-0.1,0.1-0.2,0.3-0.3,0.4   c-10.9,15.8-24.6,29.6-41.9,39.9c-0.1,0.1-0.2,0.2-0.4,0.2c-0.1,0.1-0.3,0.2-0.4,0.2c0.1,0,0.3,0,0.4-0.1c7.4-1,14.7-2.7,21.8-5   c0.7-0.2,1.5-0.5,2.2-0.7c0.9-0.4,1.8-0.7,2.6-1.1c1.9-0.8,3.7-1.6,5.6-2.4c0.6-0.3,1.2-0.5,1.8-0.8c1.7-0.7,3.3-1.5,5-2.2   c0.6-0.3,1.3-0.6,1.9-0.8c1.1-0.5,2.1-0.9,3.2-1.4c0.5-0.3,1-0.6,1.5-0.8c1.6-0.9,3.3-1.9,4.9-2.8c0.1,0,0.1-0.1,0.2-0.1   c0.1,0,0.1-0.1,0.2-0.1c7.3-4.5,14.2-9.8,20.6-15.7c0,0,0.1-0.1,0.1-0.1c0,0,0.1-0.1,0.1-0.1c0.7-0.7,1.5-1.4,2.2-2.1   c0,0,0.1-0.1,0.1-0.1c0,0,0.1-0.1,0.1-0.1c0.2-0.2,0.5-0.5,0.7-0.7c2.5-2.5,4.9-5.1,7.2-7.8c0.1-0.1,0.1-0.1,0.2-0.2   c0.1-0.1,0.1-0.1,0.2-0.2c2-2.4,3.9-4.8,5.7-7.2c0.9-1.2,1.8-2.5,2.6-3.7c1.7-2.4,3.2-4.9,4.7-7.4c0.4-0.7,0.8-1.5,1.3-2.2   c0.2-0.3,0.4-0.6,0.5-0.9c0.1-0.2,0.2-0.4,0.3-0.6c0.2-0.4,0.5-0.9,0.7-1.3c0.1-0.2,0.2-0.3,0.2-0.5c9.8-18.7,15-39.6,15-61.3   c0-30.9-10.5-60.2-29.9-83.7c-0.1-0.1-0.1-0.1-0.2-0.2c0,0.1,0,0.2,0,0.3c0,0.1,0,0.3,0,0.4c-0.1,11.3-0.4,25.3-1.6,40.8   c0,0.1,0,0.3,0,0.4c0,0.1,0.1,0.2,0.1,0.3C269.3,107.2,272.3,121.2,272.3,136 M288.4,126.5l1.5,0l0.3,13l-1.5,0l-0.1-5.5l-10.1,0.2   l0-2l10.1-0.2L288.4,126.5z M289.7,146.1l-0.2,2l-11.5-0.9l0.1-2L289.7,146.1z M287.8,163.6c-0.9,4.8-3.8,7.3-7.5,6.6   c-3.6-0.7-5.4-4.1-4.5-8.9c0.9-4.8,3.8-7.3,7.5-6.6C286.9,155.3,288.7,158.7,287.8,163.6 M278.2,124.5l-0.4-2.1l3-2.4l-1.2-7.3   l-3.6-1.4l-0.4-2.1l12.5,4.9l0.4,2.1L278.2,124.5z M283.8,178.9l-1,2.6l-12.4,5.1l9.3,3.4l-0.7,1.9l-10.8-4l1-2.6l12.4-5.1   l-9.3-3.4l0.7-1.9L283.8,178.9z M262,199c2.2-3.8,4.5-4.9,6.9-3.6l-1.1,1.9c-1.6-0.8-3.1,0-4.6,2.6c-1.3,2.3-1.4,3.8-0.3,4.4   c0.8,0.5,1.6,0,2.7-1.3l2.2-2.9c1.8-2.2,3.2-3,4.7-2.1c1.9,1.1,2,3.6,0,7c-1.8,3.2-4,4.3-6.1,3.2l1-1.8c1.4,0.6,2.6-0.1,3.8-2.3   c1.2-2.2,1.3-3.6,0.3-4.2c-0.8-0.5-1.5,0.1-2.6,1.4l-2,2.5c-1.9,2.4-3.3,3.3-5,2.3C260,205.1,259.9,202.5,262,199 M280.6,87.5   l0.9,2.6l-6.3,11.9l9.3-3.3l0.7,1.9l-10.9,3.8l-0.9-2.6l6.3-11.8l-9.3,3.3l-0.7-1.9L280.6,87.5z"
   id="path38" />
	<path
   class="st3"
   d="M73.6,39.8h39c0.1-0.1,0.2-0.1,0.3-0.2c15.1-8,32.3-12.5,50.6-12.5c18.3,0,35.5,4.5,50.6,12.5   c0.1,0.1,0.2,0.1,0.3,0.2H254c-0.1-0.1-0.1-0.1-0.2-0.2c-24.6-23.1-56.5-35.8-90.3-35.8c-33.9,0-65.8,12.7-90.3,35.8   c-0.1,0.1-0.1,0.1-0.2,0.2h0.3 M156.4,15.1c0-3.7,3-6.1,8-6c4.9,0,7.9,2.5,7.9,6.1c0,3.7-3,6.1-8,6   C159.3,21.2,156.3,18.8,156.4,15.1 M150.5,21.4l-2,0.4l-1.8-10.2l-3.8,11.3l-2,0.4l-7.6-9.1l2.1,10.2l-2,0.4l-2.2-11.4l3-0.6   l7.4,8.9l3.7-11l3-0.6L150.5,21.4z M128.4,26.1l-2,0.8l-2.9-2.4l-6.9,2.7l-0.6,3.8l-2,0.8l2.1-13.3l2-0.8L128.4,26.1z M178.1,21.7   l2.1-11.4l2.7,0.5l7.1,11.4l1.8-9.7l1.9,0.4l-2.1,11.4l-2.7-0.5l-7.1-11.4l-1.8,9.7L178.1,21.7z M208.2,18.8   c-3.1-1.2-5.7-0.3-6.7,2.3c-1,2.6,0.3,5,3.4,6.2c2.8,1.1,5.2,0.5,6.2-1.3l-4.3-1.6l0.5-1.4l6.1,2.3l-2.2,5.8l-1.3-0.5l0.5-1.9   c-1.6,1-3.7,1-6,0.1c-4.2-1.6-6.1-4.9-4.8-8.3c1.3-3.5,4.9-4.6,9.3-2.9c3.5,1.3,5.5,3.9,5,6.1l-1.9-0.7   C212,21.2,210.6,19.8,208.2,18.8"
   id="path40" />
	<polyline
   class="st3"
   points="111.1,68.4 105,49.4 98.8,68.4 83.6,68.4 78.9,68.4 81.5,70.3 81.6,70.4 81.8,70.5 95,80.1    88.8,99.1 105,87.3 121.1,99.1 114.9,80.1 131.1,68.4  "
   id="polyline42" />
	<polyline
   class="st3"
   points="116.9,25.5 122.2,23.4 117.8,19.9  "
   id="polyline44" />
	<path
   class="st3"
   d="M170.1,15.2c0-2.8-2.1-4.6-5.8-4.6c-3.7,0-5.8,1.7-5.8,4.5c0,2.8,2.1,4.6,5.8,4.6   C168,19.8,170.1,18,170.1,15.2"
   id="path46" />
	<path
   class="st3"
   d="M47,179.1l3.8-1.4l-1.4-3.6c-1-2.6-1.8-3.7-3.3-3.1c-1.5,0.6-1.4,1.9-0.5,4.4"
   id="path48" />
	<polyline
   class="st3"
   points="38.7,137.2 43.7,140.1 43.6,134.4  "
   id="polyline50" />
	<polyline
   class="st3"
   points="282.1,118.9 286.5,115.4 281.2,113.3  "
   id="polyline52" />
	<path
   class="st3"
   d="M282.9,156.7c-2.8-0.5-4.9,1.2-5.6,4.9c-0.7,3.6,0.6,6,3.4,6.5c2.8,0.5,4.9-1.2,5.6-4.9   C287,159.7,285.7,157.3,282.9,156.7"
   id="path54" />
	<path
   class="st3"
   d="M27.5,222.2c4.3,0,12.6-6.4,15.4-8.8l0.1-0.1l-0.1-0.1c-1.2-2.3-4.6-6.9-6.9-8.8l-0.1-0.1l-0.1,0.1   c-9.7,5-12.3,14.3-12.3,15.4C23.5,221,25.5,222.2,27.5,222.2"
   id="path56" />
	<path
   class="st3"
   d="M291.1,204.2L291.1,204.2c-2.4,2-5.8,6.6-7,8.9l-0.1,0.1l0.1,0.1c2.8,2.5,11,8.8,15.4,8.8c2,0,4-1.2,4-2.5   c0-1.1-2.6-10.4-12.3-15.4"
   id="path58" />
	<path
   class="st3"
   d="M52,234.3c0.1,0,0.1,0,0.2,0c0.1,0,0.1,0,0.2,0c1.8,0.4,3.6,0.9,5.5,1.5c0.1,0,0.1,0,0.2,0.1   c0.1,0,0.1,0,0.2,0.1c2.3,0.7,4.7,1.4,7.1,2.2c0.1,0,0.1,0,0.2,0.1c0.1,0,0.1,0,0.2,0.1l0.1-0.2l3.2-4.6l0.1-0.1   c0,0-0.1-0.1-0.1-0.1c0,0-0.1-0.1-0.1-0.1c-3.8-3.7-7.3-7.5-10.6-11.6c-0.1-0.1-0.1-0.2-0.2-0.2c-0.1-0.1-0.1-0.2-0.2-0.2   c-5.4-6.7-10.2-14-14.3-21.7c0-0.1-0.1-0.1-0.1-0.2c0-0.1-0.1-0.1-0.1-0.2l-0.1,0.1l-3.7,2.6l0.5,0.5   c10.5,10.5,14.6,21.2,12.1,31.9C52,234.2,52,234.2,52,234.3"
   id="path60" />
	<path
   class="st3"
   d="M294.8,259.5c-5.4,0-10.7,0.8-15.6,2.4L279,262l0.1,0.2c8.3,11.6,25.6,18.8,34.5,18.8c7.8,0,9-8.2,9-13.2v-0.1   l0-0.1C319.5,264.3,308.1,259.5,294.8,259.5"
   id="path62" />
	<path
   class="st3"
   d="M298.7,234.8c-10.8,0-22.4,2.5-34.3,6.4c-0.1,0-0.1,0-0.2,0.1c-0.1,0-0.1,0-0.2,0.1   c-10.3,3.3-20.8,7.6-31.2,12.2c-0.1,0-0.1,0.1-0.2,0.1c-0.1,0-0.1,0.1-0.2,0.1c-1.2,0.5-2.5,1.1-3.7,1.6c-0.7,0.3-1.5,0.6-2.2,1   c-0.9,0.4-1.8,0.8-2.7,1.2c-0.4,0.2-0.9,0.4-1.4,0.6c-4.1,1.8-8.1,3.6-12.1,5.2c-0.8,0.4-1.6,0.7-2.5,1c-0.8,0.3-1.5,0.6-2.3,1   c-15.9,6.6-30.5,11.8-42.3,11.8c-11.7,0-26.3-5.1-42.2-11.7c-0.8-0.3-1.5-0.6-2.3-1c-0.8-0.3-1.6-0.7-2.5-1c-4-1.7-8-3.5-12.1-5.3   c-0.5-0.2-0.9-0.4-1.4-0.6c-0.9-0.4-1.8-0.8-2.7-1.2c-0.7-0.3-1.5-0.6-2.2-1c-3.8-1.6-7.6-3.3-11.3-4.9c-0.1-0.1-0.3-0.1-0.4-0.2   c-0.1-0.1-0.3-0.1-0.4-0.2c-9.4-3.9-18.8-7.5-27.9-10.2c-0.1,0-0.1,0-0.2-0.1c-0.1,0-0.1,0-0.2-0.1c-10.2-3-20.1-4.9-29.5-4.9   c-13.8,0-23.8,18.9-23.8,26.9v0.3l0.3-0.2c7.1-4.5,21.1-6.5,26.6-6.5c19.7,0,38.2,9.2,57.8,19c22.6,11.2,45.9,22.8,74.4,22.8   c28.5,0,51.8-11.6,74.4-22.8c19.6-9.7,38.1-19,57.8-19c5.5,0,19.5,2,26.6,6.5l0.3,0.2v-0.3C322.5,253.7,312.5,234.8,298.7,234.8    M292,240.9l0,3.4l8.9,0l0,1.5l-8.9,0l0,3.6l9.6,0l0,1.6l-11.6,0l0-11.6l11.5,0l0,1.5L292,240.9z M164.1,293.1   c-4.9,0-7.9-2.4-7.9-6c0-3.7,3-6.1,7.9-6.1c4.9,0,7.9,2.4,7.9,6C172,290.6,169,293,164.1,293.1 M226.8,263.2l10.3-5.1l0.7,1.3   l-8.5,4.2l1.5,3.1l8-3.9l0.7,1.4l-8,3.9l1.6,3.2l8.6-4.3l0.7,1.4l-10.4,5.2L226.8,263.2z M173.9,280.8l2-0.3l1.5,9.9l8.8-1.3   l0.2,1.5l-10.8,1.6L173.9,280.8z M186.1,278.7l2-0.5l2.6,9.7l8.6-2.3l0.4,1.5l-10.5,2.8L186.1,278.7z M200.6,276l1.2,3.2l8.3-3.1   l0.5,1.4l-8.3,3.1l1.2,3.4l9-3.3l0.5,1.5l-10.9,4l-4-10.9l10.8-4l0.5,1.4L200.6,276z M223.4,268.9c-1.1-1.2-3.1-1.2-5.5-0.2   c-3.1,1.4-4.2,3.8-3.1,6.4c1.2,2.6,3.8,3.3,6.8,1.9c2.7-1.2,4-3.3,3.4-5.3l-4.2,1.9l-0.6-1.4l5.9-2.7l2.6,5.6l-1.3,0.6l-1-1.7   c-0.4,1.8-1.9,3.3-4.2,4.4c-4.1,1.9-7.8,0.9-9.3-2.5c-1.5-3.4,0.1-6.7,4.5-8.7c3.4-1.6,6.7-1.2,7.9,0.8L223.4,268.9z M249.4,253.8   c-0.7,0.6-0.9,1.3-0.6,1.9c0.4,0.9,1.3,0.8,3,0.4l3.1-0.9c3-0.9,4.6-0.8,5.4,1c0.9,2-0.5,4.2-4.2,5.9c-3.9,1.8-6.5,1.4-7.7-1.1   l2-0.9c0.8,1.6,2.5,1.8,5.3,0.5c2.4-1.1,3.3-2.3,2.8-3.5c-0.4-0.9-1.3-0.9-2.9-0.4l-3.5,1c-2.7,0.8-4.4,0.6-5.1-1   c-0.5-1-0.3-2,0.3-3c0-0.1,0.1-0.1,0.1-0.2c0-0.1,0.1-0.1,0.2-0.2c0.7-0.9,1.9-1.7,3.5-2.4c3.4-1.6,5.8-1.2,6.8,0.9l-1.9,0.9   c-0.8-1.3-2.2-1.4-4.4-0.3c-0.7,0.3-1.2,0.7-1.7,1c-0.1,0.1-0.2,0.1-0.2,0.2C249.5,253.7,249.4,253.8,249.4,253.8 M263.2,253.7   l0-0.2l0.9-4.5l0.2-0.9l0.2-0.9l0.3-1.5l2-0.7l10,8.7l-2,0.7l-2.9-2.5l-6.9,2.5l-0.7,3.8l-2,0.7l1-5L263.2,253.7z M288.6,251.1   l-10.7,2.2l-2.3-11.3l2-0.4l2,9.8l8.7-1.8L288.6,251.1z M147.7,281.2c-3.6-0.6-6,0.8-6.4,3.6c-0.5,2.8,1.4,4.8,5,5.4   c2.8,0.5,5-0.5,5.6-2.4l2.1,0.3c-0.8,2.8-3.9,4.2-8,3.5c-4.9-0.8-7.4-3.6-6.8-7.3c0.6-3.6,3.9-5.5,8.8-4.8c4,0.6,6.5,2.9,6.3,5.6   l-2.1-0.3C152.1,283,150.4,281.6,147.7,281.2 M40.4,251.3l9.5-9.5l2.1,0.5l3.4,12.8l-2.1-0.5l-1-3.7l-7.2-1.8l-2.7,2.7L40.4,251.3z    M38.3,243.8c-0.4-1.9-2.2-3-5-3.1c-3.7-0.1-5.8,1.6-5.9,4.4c-0.1,2.8,2,4.6,5.7,4.7c2.8,0.1,4.9-1.2,5.3-3.1l2.1,0.1   c-0.4,2.9-3.3,4.7-7.4,4.6c-4.9-0.1-7.8-2.6-7.8-6.3c0.1-3.7,3.1-6,8.1-5.9c4,0.1,6.8,2,7,4.7L38.3,243.8z M108.2,278.1l-0.7,1.4   l-9.9-4.6l4.9-10.5l1.9,0.9l-4.2,9.1L108.2,278.1z M71.9,250l0.2-0.5l1,0.5l0.4,0.2l0.4,0.2l0.1,0.1l-2,4.2l8,3.7l2-4.2l1.8,0.9   l-4.9,10.5l-1.9-0.9l2.3-4.9l-8-3.7l-2.3,4.9l-1.8-0.9l4.5-9.7l0.1-0.2L71.9,250z M69.6,250L69.6,250l-5.1-2l-0.7,1.9l-0.1,0.2   l-0.1,0.2l-2.7,7.1l-1.9-0.7l2.4-6.4l0.1-0.2l0.1-0.2l1-2.7l-4.4-1.7l-0.2-0.1l-0.2-0.1l-0.3-0.1l0.3-0.9l0.2-0.5l0-0.1l0.1,0.1   l12,4.6L69.6,250L69.6,250z M83.6,261.5c1.6-3.3,5.4-4.1,9.8-1.9c4.4,2.2,6,5.7,4.4,9c-1.6,3.3-5.4,4.1-9.8,1.9   C83.6,268.2,82,264.8,83.6,261.5 M116.1,270.5l-4.5,10.6l-1.9-0.8l4.5-10.6L116.1,270.5z M125.4,275.4c-3.5-1.2-6-0.3-7,2.3   c-1,2.7,0.5,5,3.9,6.2c2.7,1,5,0.4,6-1.3l2,0.7c-1.3,2.6-4.6,3.4-8.5,2c-4.6-1.7-6.6-4.9-5.4-8.4c1.2-3.5,4.9-4.7,9.5-3.1   c3.8,1.4,5.8,4,5.2,6.6l-2-0.7C129.4,278,128,276.3,125.4,275.4"
   id="path64" />
	<polyline
   class="st3"
   points="50.4,243.8 46.3,247.9 51.9,249.3  "
   id="polyline66" />
	<path
   class="st3"
   d="M95.9,267.6c1.3-2.5,0.1-5-3.2-6.7c-3.3-1.6-5.9-1-7.2,1.5c-1.3,2.5-0.1,5,3.2,6.7   C92,270.7,94.7,270.1,95.9,267.6"
   id="path68" />
	<path
   class="st3"
   d="M164,282.4c-3.7,0-5.8,1.7-5.8,4.6c0,2.8,2.1,4.5,5.8,4.5c3.7,0,5.8-1.8,5.8-4.6   C169.8,284.1,167.7,282.4,164,282.4"
   id="path70" />
	<polyline
   class="st3"
   points="266.3,247 265.2,252.6 270.5,250.7  "
   id="polyline72" />
	<path
   class="st3"
   d="M32.1,259.5c-13.3,0-24.6,4.7-27.7,8.1l0,0.1v0.1c0,4.9,1.2,13.2,9,13.2c8.8,0,26.2-7.1,34.5-18.8L48,262   l-0.2-0.1C42.8,260.3,37.6,259.5,32.1,259.5"
   id="path74" />
	<path
   class="st3"
   d="M104.5,159.4c0,1.6,1.3,2.9,2.9,2.9c1.6,0,2.9-1.3,2.9-2.9c0-1.6-1.3-2.9-2.9-2.9   C105.8,156.6,104.5,157.9,104.5,159.4"
   id="path76" />
	<path
   class="st5"
   d="M217.4,201.3c0,0-0.1-0.1-0.1-0.1c-0.2-0.2-0.3-0.5-0.4-0.8c0-0.1,0-0.1-0.1-0.2c0-0.1,0-0.1-0.1-0.2   c0,0.1-0.1,0.1-0.1,0.2c-4.4,5.4-9.6,7-15.4,4.8c1.6-1.8,3.2-3.3,4.7-4.7l0.1-0.1c3.7-3.3,6.9-6.2,6.9-11.8c0-0.2,0-0.3,0-0.5   c0.1,0,0.1-0.1,0.2-0.1c0.8-0.8,1.8-1.2,2.8-1.4c0.1,0,0.1,0,0.2,0c0-0.1,0-0.1,0.1-0.2c0-0.1,0-0.1,0.1-0.2   c0.1-0.3,0.3-0.6,0.6-0.9c0.1-0.1,0.1-0.1,0.2-0.2c0.1-0.1,0.2-0.1,0.3-0.2c-0.1,0-0.2,0-0.3,0c-1.2,0.1-2.8,0.5-4.1,1.4   c-0.1-1.5-0.4-3-0.7-4.7c-0.7-4.4-1.5-8.8,0.3-12c0.1-0.1,0.1-0.2,0.2-0.3c-0.1,0.1-0.2,0.1-0.3,0.2c-0.1,0-0.2,0.1-0.2,0.1   c-0.3,0.1-0.6,0.2-0.9,0.2c0,0-0.1,0-0.1,0c-0.1,0-0.1,0-0.2,0c-0.1,0-0.1,0-0.2,0c0,0.1,0,0.1-0.1,0.2c-1.4,3.5-0.7,7.8,0,12l0,0   c0.4,2.4,0.8,4.6,0.8,6.7c0,2.2-0.6,4-1.8,5.8c-0.8-4.8-3.1-8.3-6.9-10.5c-0.1-0.1-0.2-0.1-0.3-0.2c-0.2,0-0.4-0.1-0.6-0.1   c-0.2-0.1-0.4-0.1-0.6-0.3c-0.1,0-0.1-0.1-0.2-0.1c0,0.1,0,0.1,0,0.2c0,0,0,0,0,0c0,0.3-0.1,0.5-0.3,0.7c0,0.1-0.1,0.1-0.1,0.2   c0,0.1-0.1,0.1-0.1,0.2c0.1,0,0.1,0.1,0.2,0.1c4.5,2.2,7,5.9,7.6,11.4c0,0,0,0,0,0.1c-1,1.1-2.2,2.2-3.4,3.3   c-6,5.4-13.4,12.1-13.4,32.4c0,0.1,0,0.3,0.1,0.4c-1.7,2.2-3,4.3-3.7,5.9c0,0.1-0.1,0.2-0.1,0.2c0,0,0,0.1,0,0.1c0,0,0,0.1,0,0.1   c0,0.1,0,0.3,0,0.4c0.1,0.2,0.2,0.3,0.4,0.4c0.1,0,0.2,0.1,0.3,0.1c0.3,0,0.6-0.2,0.7-0.5c0.1-0.3,0.2-0.6,0.4-0.9   c0-0.1,0.1-0.2,0.1-0.2c0-0.1,0.1-0.2,0.1-0.2c1.2-2.2,3.4-5.3,6.3-8.4l4.2,2.1c0.4,0.2,0.8,0,1-0.3c0.1-0.2,0.1-0.4,0-0.6   c-0.1-0.2-0.2-0.3-0.4-0.4l-3.8-1.9c0.7-0.7,1.4-1.3,2-1.9l4.2,2.1c0.4,0.2,0.8,0,1-0.3c0.1-0.2,0.1-0.4,0-0.6   c-0.1-0.2-0.2-0.3-0.4-0.4l-3.6-1.8c0.8-0.6,1.5-1.2,2.3-1.7l3.6,1.8c0.4,0.2,0.8,0,1-0.3c0.1-0.2,0.1-0.4,0-0.6   c-0.1-0.2-0.2-0.3-0.4-0.4l-2.8-1.4c0.8-0.5,1.6-0.9,2.4-1.3l4.3,2.1c0.4,0.2,0.8,0,1-0.3c0.1-0.2,0.1-0.4,0-0.6   c-0.1-0.2-0.2-0.3-0.4-0.4l-3.1-1.6c0.5-0.2,1-0.3,1.5-0.5c0.2-0.1,0.4-0.2,0.5-0.4c0.1-0.2,0.1-0.4,0.1-0.6   c-0.1-0.4-0.5-0.6-0.9-0.5c-0.8,0.2-1.6,0.5-2.5,0.9l-2-3.9c-0.2-0.4-0.7-0.5-1-0.3c-0.2,0.1-0.3,0.2-0.4,0.4s-0.1,0.4,0,0.6   l1.9,3.9c-1,0.5-2,1.1-3,1.7l-2.2-4.3c-0.2-0.4-0.6-0.5-1-0.3c-0.2,0.1-0.3,0.2-0.4,0.4c-0.1,0.2-0.1,0.4,0,0.6l2.3,4.5   c-0.7,0.5-1.4,1-2.1,1.6l-1.9-3.7c-0.2-0.4-0.6-0.5-1-0.3c-0.4,0.2-0.5,0.6-0.3,1l2,4c-0.5,0.5-1.1,1-1.6,1.5l-0.5-3   c-0.1-0.4-0.4-0.7-0.9-0.6c-0.4,0.1-0.7,0.5-0.6,0.9l0.7,4c-0.8,0.8-1.5,1.6-2.2,2.5c0.2-10.5,2.4-18.1,7.1-24   c6.5,2.7,12.3,1.1,17.2-4.6c0,0,0.1-0.1,0.1-0.1C217.4,201.4,217.4,201.3,217.4,201.3"
   id="path78" />
	<path
   class="st5"
   d="M139.4,238.1c0-0.1-0.1-0.1-0.1-0.2c-0.7-1.6-2.1-3.8-3.7-6c0.1-0.1,0.1-0.2,0.1-0.4   c0-20.4-7.4-27.1-13.4-32.4c-1.2-1.1-2.4-2.2-3.4-3.3c0,0,0,0,0-0.1c0.6-5.6,3-9.2,7.6-11.4c0.1,0,0.1-0.1,0.2-0.1   c0,0-0.1-0.1-0.1-0.2c0-0.1-0.1-0.1-0.1-0.2c-0.1-0.2-0.2-0.5-0.3-0.7c0,0,0,0,0,0c0-0.1,0-0.1,0-0.2c-0.1,0-0.1,0.1-0.2,0.1   c-0.2,0.1-0.4,0.2-0.6,0.2c-0.2,0.1-0.4,0.1-0.6,0.1c-0.1,0.1-0.2,0.1-0.3,0.2c-3.8,2.3-6.1,5.7-6.9,10.5c-1.2-1.8-1.8-3.6-1.8-5.8   c0-2.1,0.4-4.3,0.8-6.7c0.7-4.2,1.5-8.6,0-12c0-0.1,0-0.1-0.1-0.2c-0.1,0-0.1,0-0.2,0c-0.1,0-0.1,0-0.2,0c0,0-0.1,0-0.1,0   c-0.3,0-0.6-0.1-0.9-0.2c-0.1,0-0.2-0.1-0.2-0.1c-0.1,0-0.2-0.1-0.3-0.2c0.1,0.1,0.1,0.2,0.2,0.3c1.8,3.2,1,7.6,0.3,12   c-0.3,1.7-0.5,3.2-0.7,4.7c-1.3-1-2.9-1.3-4.1-1.4c-0.1,0-0.2,0-0.3,0c0.1,0.1,0.2,0.1,0.3,0.2c0.1,0.1,0.2,0.1,0.2,0.2   c0.2,0.3,0.4,0.6,0.6,0.9c0,0.1,0,0.1,0.1,0.2c0,0.1,0,0.1,0.1,0.2c0.1,0,0.1,0,0.2,0c0.9,0.2,2,0.7,2.8,1.4c0,0,0.1,0.1,0.2,0.1   c0,0.2,0,0.3,0,0.5c0,5.5,3.2,8.4,6.9,11.8c1.6,1.4,3.2,2.9,4.8,4.7c-5.8,2.2-11,0.6-15.4-4.8c0-0.1-0.1-0.1-0.1-0.2   c0,0.1,0,0.1,0,0.2c0,0.1,0,0.1-0.1,0.2c-0.1,0.3-0.2,0.5-0.4,0.8c0,0-0.1,0.1-0.1,0.1c0,0-0.1,0.1-0.1,0.1c0,0,0.1,0.1,0.1,0.1   c3.3,3.9,7.1,5.9,11.2,5.9c1.9,0,3.9-0.4,6-1.3c4.6,5.9,6.9,13.5,7.1,24c-0.7-0.9-1.5-1.7-2.2-2.5l0.7-4c0.1-0.4-0.2-0.8-0.6-0.9   c-0.4-0.1-0.8,0.2-0.9,0.6l-0.5,3c-0.6-0.6-1.1-1.1-1.6-1.5l2-4c0.2-0.4,0-0.8-0.3-1c-0.4-0.2-0.8,0-1,0.3l-1.9,3.7   c-0.7-0.6-1.4-1.1-2.1-1.6l2.3-4.5c0.1-0.2,0.1-0.4,0-0.6c-0.1-0.2-0.2-0.3-0.4-0.4c-0.4-0.2-0.8,0-1,0.3l-2.2,4.3   c-1-0.6-2-1.2-3-1.7l1.9-3.9c0.1-0.2,0.1-0.4,0-0.6c-0.1-0.2-0.2-0.3-0.4-0.4c-0.4-0.2-0.8,0-1,0.3l-2,3.9   c-0.9-0.4-1.7-0.7-2.5-0.9c-0.4-0.1-0.8,0.1-0.9,0.5c-0.1,0.2,0,0.4,0.1,0.6c0.1,0.2,0.3,0.3,0.4,0.4c0.5,0.1,1,0.3,1.5,0.5   l-3.1,1.6c-0.2,0.1-0.3,0.2-0.4,0.4c-0.1,0.2-0.1,0.4,0,0.6c0.2,0.4,0.6,0.5,1,0.3l4.3-2.1c0.8,0.4,1.6,0.8,2.4,1.3l-2.8,1.4   c-0.2,0.1-0.3,0.2-0.4,0.4c-0.1,0.2,0,0.4,0,0.6c0.2,0.4,0.6,0.5,1,0.3l3.6-1.8c0.8,0.5,1.6,1.1,2.3,1.7l-3.6,1.8   c-0.2,0.1-0.3,0.2-0.4,0.4c-0.1,0.2-0.1,0.4,0,0.6c0.2,0.4,0.6,0.5,1,0.3l4.2-2.1c0.7,0.6,1.4,1.2,2,1.9l-3.8,1.9   c-0.2,0.1-0.3,0.2-0.4,0.4c-0.1,0.2,0,0.4,0,0.6c0.2,0.4,0.6,0.5,1,0.3l4.2-2.1c2.9,3.1,5.1,6.3,6.3,8.5c0,0.1,0.1,0.2,0.1,0.2   c0,0.1,0.1,0.2,0.1,0.2c0.1,0.3,0.3,0.6,0.4,0.8c0.1,0.3,0.4,0.5,0.7,0.5c0.1,0,0.2,0,0.3-0.1c0.2-0.1,0.3-0.2,0.4-0.4   c0.1-0.1,0.1-0.3,0-0.4C139.4,238.2,139.4,238.2,139.4,238.1C139.4,238.1,139.4,238.1,139.4,238.1"
   id="path80" />
	<path
   class="st3"
   d="M196.9,155c-1.6,0-2.9,1.3-2.9,2.9c0,1.6,1.3,2.9,2.9,2.9c1.6,0,2.9-1.3,2.9-2.9   C199.7,156.3,198.4,155,196.9,155"
   id="path82" />
	<path
   class="st3"
   d="M191.5,160.8c-1.6,0-2.9,1.3-2.9,2.9c0,1.6,1.3,2.9,2.9,2.9c1.6,0,2.9-1.3,2.9-2.9   C194.4,162,193.1,160.8,191.5,160.8"
   id="path84" />
	<path
   class="st3"
   d="M201.1,161.1c-1.6,0-2.9,1.3-2.9,2.9c0,1.6,1.3,2.9,2.9,2.9c1.6,0,2.9-1.3,2.9-2.9   C203.9,162.4,202.6,161.1,201.1,161.1"
   id="path86" />
	<path
   class="st3"
   d="M203.2,171.8c0.2-0.4,0.4-0.9,0.4-1.3c0-1.6-1.3-2.9-2.9-2.9c-1.6,0-2.9,1.3-2.9,2.9c0,1.5,1.2,2.7,2.6,2.9   c-0.2,0.4-0.3,0.9-0.3,1.3c0,1.6,1.3,2.9,2.9,2.9c1.6,0,2.9-1.3,2.9-2.9C205.8,173.2,204.7,172,203.2,171.8"
   id="path88" />
	<path
   class="st3"
   d="M195.3,183.3c0.1,0,0.2,0,0.2,0c0.3,1.3,1.4,2.3,2.8,2.3c1,0,1.9-0.5,2.4-1.3c0,0,0.1-0.1,0.1-0.2   c0-0.1,0.1-0.1,0.1-0.2c0.1-0.2,0.2-0.5,0.3-0.7c0.2,0.1,0.3,0.2,0.5,0.2c0.2,0.1,0.4,0.1,0.7,0.1c0.1,0,0.1,0,0.2,0   c0,0,0.1,0,0.1,0c1.5-0.1,2.7-1.3,2.7-2.9c0-1.6-1.3-2.9-2.9-2.9c-1.4,0-2.5,1-2.8,2.3c-0.4-0.2-0.9-0.4-1.4-0.4   c-0.1,0-0.2,0-0.2,0c-0.2-1.1-1.1-2-2.2-2.3c0.2-0.4,0.4-0.9,0.4-1.4c0-1.6-1.3-2.9-2.9-2.9c-1.6,0-2.9,1.3-2.9,2.9   c0,1.4,1,2.5,2.3,2.8c-0.2,0.4-0.4,0.9-0.4,1.4C192.5,182,193.8,183.3,195.3,183.3"
   id="path90" />
	<path
   class="st3"
   d="M190.8,173c1.6,0,2.9-1.3,2.9-2.9s-1.3-2.9-2.9-2.9c-1.6,0-2.9,1.3-2.9,2.9S189.2,173,190.8,173"
   id="path92" />
	<path
   class="st3"
   d="M206.2,159.8c0,1.6,1.3,2.9,2.9,2.9s2.9-1.3,2.9-2.9c0-0.1,0-0.2,0-0.4c0.3,0.1,0.6,0.2,1,0.2   c1.6,0,2.9-1.3,2.9-2.9c0-1.6-1.3-2.9-2.9-2.9c-1.6,0-2.9,1.3-2.9,2.9c0,0.1,0,0.2,0,0.4c-0.3-0.1-0.6-0.2-1-0.2   C207.5,156.9,206.2,158.2,206.2,159.8"
   id="path94" />
	<path
   class="st3"
   d="M218.6,149.3c-1.6,0-2.9,1.3-2.9,2.9c0,1.6,1.3,2.9,2.9,2.9c1.6,0,2.9-1.3,2.9-2.9   C221.5,150.6,220.2,149.3,218.6,149.3"
   id="path96" />
	<path
   class="st3"
   d="M221.1,148.8c0,1.6,1.3,2.9,2.9,2.9c0.9,0,1.7-0.4,2.2-1c-0.2,0.3-0.4,0.8-0.4,1.2c-0.3-0.1-0.6-0.2-1-0.2   c-1.6,0-2.9,1.3-2.9,2.9c0,1.6,1.3,2.9,2.9,2.9c0.4,0,0.7-0.1,1.1-0.2c-0.1,0.2-0.1,0.5-0.1,0.8c0,1.6,1.3,2.9,2.9,2.9   c1.6,0,2.9-1.3,2.9-2.9c0-1.5-1.2-2.8-2.7-2.9c1.5-0.1,2.7-1.3,2.7-2.9c0-1.6-1.3-2.9-2.9-2.9c-0.9,0-1.7,0.4-2.2,1   c0.3-0.5,0.5-1,0.5-1.6c0,0,0-0.1,0-0.1c0.4,0.2,0.9,0.3,1.3,0.3c1.6,0,2.9-1.3,2.9-2.9c0-1.6-1.3-2.9-2.9-2.9   c-1.6,0-2.9,1.3-2.9,2.9c0,0,0,0.1,0,0.1c-0.4-0.2-0.9-0.3-1.3-0.3C222.4,145.9,221.1,147.2,221.1,148.8 M227.5,155.2   c0-0.1,0.1-0.2,0.1-0.4c0.3,0.1,0.6,0.2,0.9,0.2C228.1,155.1,227.8,155.1,227.5,155.2"
   id="path98" />
	<path
   class="st3"
   d="M225.9,166.9c1.6,0,2.9-1.3,2.9-2.9c0-1.6-1.3-2.9-2.9-2.9c-1.6,0-2.9,1.3-2.9,2.9   C223,165.6,224.3,166.9,225.9,166.9"
   id="path100" />
	<path
   class="st3"
   d="M215.9,172.6c1.5,0,2.7-1.2,2.8-2.6c0.5,0.9,1.4,1.5,2.5,1.5c1.6,0,2.9-1.3,2.9-2.9c0-1.6-1.3-2.9-2.9-2.9   c-1.5,0-2.7,1.1-2.8,2.6c-0.5-0.9-1.4-1.5-2.5-1.5c-0.9,0-1.6,0.4-2.2,1c0.1-0.3,0.2-0.7,0.2-1c0-0.3-0.1-0.7-0.2-1   c0.5,0.4,1.1,0.6,1.8,0.6c1.6,0,2.9-1.3,2.9-2.9c0-1.6-1.3-2.9-2.9-2.9c-1.6,0-2.9,1.3-2.9,2.9c0,0.3,0.1,0.7,0.2,1   c-0.5-0.4-1.1-0.6-1.8-0.6c-1.6,0-2.9,1.3-2.9,2.9c0,1.4,1,2.6,2.3,2.8c0.1,0,0.1,0,0.2,0c0.1,0,0.1,0,0.2,0c0.1,0,0.1,0,0.2,0   c0.3,0,0.5,0,0.8-0.1c0.1,0,0.2,0,0.2-0.1c0.1,0,0.2-0.1,0.2-0.1c0.4-0.2,0.7-0.4,0.9-0.7c-0.1,0.3-0.2,0.7-0.2,1   C213.1,171.3,214.4,172.6,215.9,172.6"
   id="path102" />
	<path
   class="st3"
   d="M219.8,162.3c1.6,0,2.9-1.3,2.9-2.9s-1.3-2.9-2.9-2.9c-1.6,0-2.9,1.3-2.9,2.9S218.2,162.3,219.8,162.3"
   id="path104" />
	<path
   class="st3"
   d="M229.5,183.5c0-1.6-1.3-2.9-2.9-2.9c0.4-0.5,0.6-1.1,0.6-1.7c0-1.6-1.3-2.9-2.9-2.9c-1.6,0-2.9,1.3-2.9,2.9   c0,0.3,0.1,0.6,0.2,0.9c-0.5-0.7-1.3-1.1-2.2-1.1c-1.6,0-2.9,1.3-2.9,2.9c0,1.1,0.6,2,1.5,2.5c-0.5,0.1-0.9,0.3-1.2,0.6   c-0.1,0.1-0.2,0.1-0.3,0.2c-0.1,0.1-0.1,0.1-0.2,0.2c-0.2,0.3-0.4,0.6-0.5,0.9c0,0.1,0,0.1-0.1,0.2c0,0.1,0,0.1-0.1,0.2   c0,0.2-0.1,0.4-0.1,0.5c0,1.6,1.3,2.9,2.9,2.9c1.1,0,2-0.6,2.5-1.5c0.1,1.5,1.3,2.7,2.9,2.7c1.6,0,2.9-1.3,2.9-2.9   c0-0.7-0.3-1.4-0.7-1.9c0.2,0,0.3,0.1,0.5,0.1C228.2,186.3,229.5,185.1,229.5,183.5 M224.3,181.8c-0.4,0.5-0.6,1.1-0.6,1.7   c0,0.7,0.3,1.4,0.7,1.9c-0.2,0-0.3-0.1-0.5-0.1c-1.1,0-2,0.6-2.5,1.5c-0.1-1-0.7-1.9-1.5-2.4c1.3-0.3,2.3-1.4,2.3-2.8   c0-0.3-0.1-0.6-0.2-0.9C222.6,181.3,223.4,181.8,224.3,181.8"
   id="path106" />
	<path
   class="st3"
   d="M223.6,200.1c1.6,0,2.9-1.3,2.9-2.9s-1.3-2.9-2.9-2.9c-1.5,0-2.7,1.2-2.8,2.6c-0.4-0.2-0.9-0.3-1.3-0.3   c-1.6,0-2.9,1.3-2.9,2.9c0,0.2,0,0.4,0.1,0.6c0,0.1,0,0.1,0.1,0.2c0,0.1,0,0.1,0.1,0.2c0.1,0.3,0.3,0.5,0.4,0.7   c0,0,0.1,0.1,0.1,0.1c0,0,0.1,0.1,0.1,0.1c0.4,0.4,1,0.7,1.6,0.8c-0.4,0.5-0.6,1.1-0.6,1.7c0,1.6,1.3,2.9,2.9,2.9   c1.6,0,2.9-1.3,2.9-2.9c0-1.5-1.1-2.7-2.5-2.8c0.3-0.4,0.5-0.9,0.6-1.5C222.6,199.9,223.1,200.1,223.6,200.1"
   id="path108" />
	<path
   class="st3"
   d="M130.3,155c-1.6,0-2.9,1.3-2.9,2.9c0,1.6,1.3,2.9,2.9,2.9c1.6,0,2.9-1.3,2.9-2.9   C133.2,156.3,131.9,155,130.3,155"
   id="path110" />
	<path
   class="st3"
   d="M135.6,166.5c1.6,0,2.9-1.3,2.9-2.9c0-1.6-1.3-2.9-2.9-2.9c-1.6,0-2.9,1.3-2.9,2.9   C132.8,165.2,134.1,166.5,135.6,166.5"
   id="path112" />
	<path
   class="st3"
   d="M126.1,161.1c-1.6,0-2.9,1.3-2.9,2.9c0,1.6,1.3,2.9,2.9,2.9c1.6,0,2.9-1.3,2.9-2.9   C129,162.4,127.7,161.1,126.1,161.1"
   id="path114" />
	<path
   class="st3"
   d="M124.2,177.6c1.6,0,2.9-1.3,2.9-2.9c0-0.5-0.1-0.9-0.4-1.3c1.5-0.1,2.6-1.3,2.6-2.9c0-1.6-1.3-2.9-2.9-2.9   c-1.6,0-2.9,1.3-2.9,2.9c0,0.5,0.1,0.9,0.3,1.3c-1.5,0.1-2.6,1.3-2.6,2.8C121.3,176.3,122.6,177.6,124.2,177.6"
   id="path116" />
	<path
   class="st3"
   d="M136.6,176.2c0-1.6-1.3-2.9-2.9-2.9s-2.9,1.3-2.9,2.9c0,0.5,0.1,1,0.4,1.4c-1.1,0.2-2,1.1-2.2,2.2   c-0.1,0-0.2,0-0.2,0c-0.5,0-1,0.1-1.4,0.4c-0.3-1.3-1.4-2.3-2.8-2.3c-1.6,0-2.9,1.3-2.9,2.9c0,1.5,1.2,2.8,2.7,2.9c0,0,0.1,0,0.1,0   c0.1,0,0.1,0,0.2,0c0.2,0,0.5-0.1,0.7-0.1c0.2-0.1,0.4-0.1,0.5-0.2c0.1,0.3,0.1,0.5,0.3,0.7c0,0.1,0.1,0.1,0.1,0.2   c0,0.1,0.1,0.1,0.1,0.2c0.5,0.8,1.4,1.3,2.4,1.3c1.4,0,2.6-1,2.8-2.3c0.1,0,0.2,0,0.2,0c1.6,0,2.9-1.3,2.9-2.9c0-0.5-0.1-1-0.4-1.4   C135.6,178.8,136.6,177.6,136.6,176.2"
   id="path118" />
	<path
   class="st3"
   d="M139.3,170.1c0-1.6-1.3-2.9-2.9-2.9c-1.6,0-2.9,1.3-2.9,2.9c0,1.6,1.3,2.9,2.9,2.9   C138,173,139.3,171.7,139.3,170.1"
   id="path120" />
	<path
   class="st3"
   d="M121,159.8c0-1.6-1.3-2.9-2.9-2.9c-0.3,0-0.7,0.1-1,0.2c0-0.1,0-0.2,0-0.4c0-1.6-1.3-2.9-2.9-2.9   c-1.6,0-2.9,1.3-2.9,2.9c0,1.6,1.3,2.9,2.9,2.9c0.3,0,0.7-0.1,1-0.2c0,0.1,0,0.2,0,0.4c0,1.6,1.3,2.9,2.9,2.9   C119.7,162.7,121,161.4,121,159.8"
   id="path122" />
	<path
   class="st3"
   d="M111.4,152.2c0-1.6-1.3-2.9-2.9-2.9c-1.6,0-2.9,1.3-2.9,2.9c0,1.6,1.3,2.9,2.9,2.9   C110.1,155.1,111.4,153.8,111.4,152.2"
   id="path124" />
	<path
   class="st3"
   d="M95.8,157.9c0,1.6,1.3,2.9,2.9,2.9c1.6,0,2.9-1.3,2.9-2.9c0-0.3,0-0.5-0.1-0.8c0.3,0.1,0.7,0.2,1.1,0.2   c1.6,0,2.9-1.3,2.9-2.9c0-1.6-1.3-2.9-2.9-2.9c-0.3,0-0.7,0.1-1,0.2c-0.1-0.4-0.2-0.8-0.4-1.2c0.5,0.6,1.3,1,2.2,1   c1.6,0,2.9-1.3,2.9-2.9c0-1.6-1.3-2.9-2.9-2.9c-0.5,0-0.9,0.1-1.3,0.3c0,0,0-0.1,0-0.1c0-1.6-1.3-2.9-2.9-2.9   c-1.6,0-2.9,1.3-2.9,2.9c0,1.6,1.3,2.9,2.9,2.9c0.5,0,0.9-0.1,1.3-0.3c0,0,0,0.1,0,0.1c0,0.6,0.2,1.1,0.5,1.6c-0.5-0.6-1.3-1-2.2-1   c-1.6,0-2.9,1.3-2.9,2.9c0,1.5,1.2,2.8,2.7,2.9C97,155.1,95.8,156.4,95.8,157.9 M99.6,154.9c0,0.1,0,0.2,0.1,0.4   c-0.3-0.1-0.6-0.2-0.9-0.2C99.1,155,99.3,155,99.6,154.9"
   id="path126" />
	<path
   class="st3"
   d="M98.4,164c0,1.6,1.3,2.9,2.9,2.9c1.6,0,2.9-1.3,2.9-2.9c0-1.6-1.3-2.9-2.9-2.9C99.7,161.1,98.4,162.4,98.4,164   "
   id="path128" />
	<path
   class="st3"
   d="M115.1,169.5c0.1,0,0.2,0.1,0.2,0.1c0.2,0.1,0.5,0.1,0.8,0.1c0.1,0,0.1,0,0.2,0c0.1,0,0.1,0,0.2,0   c0.1,0,0.1,0,0.2,0c1.3-0.3,2.3-1.4,2.3-2.8c0-1.6-1.3-2.9-2.9-2.9c-0.7,0-1.3,0.2-1.8,0.6c0.1-0.3,0.2-0.6,0.2-1   c0-1.6-1.3-2.9-2.9-2.9c-1.6,0-2.9,1.3-2.9,2.9c0,1.6,1.3,2.9,2.9,2.9c0.7,0,1.3-0.2,1.8-0.6c-0.1,0.3-0.2,0.6-0.2,1   c0,0.4,0.1,0.7,0.2,1c-0.5-0.6-1.3-1-2.2-1c-1.1,0-2,0.6-2.5,1.5c-0.1-1.5-1.4-2.6-2.8-2.6c-1.6,0-2.9,1.3-2.9,2.9   c0,1.6,1.3,2.9,2.9,2.9c1.1,0,2-0.6,2.5-1.5c0.1,1.5,1.4,2.6,2.8,2.6c1.6,0,2.9-1.3,2.9-2.9c0-0.4-0.1-0.7-0.2-1   c0.3,0.3,0.6,0.5,0.9,0.7C114.9,169.5,115,169.5,115.1,169.5"
   id="path130" />
	<path
   class="st3"
   d="M111.4,186.4c0-0.1,0-0.1,0-0.2c0-0.1,0-0.1-0.1-0.2c-0.1-0.3-0.3-0.6-0.5-0.9c-0.1-0.1-0.1-0.1-0.2-0.2   c-0.1-0.1-0.2-0.1-0.3-0.2c-0.3-0.3-0.8-0.5-1.2-0.6c0.9-0.5,1.5-1.4,1.5-2.5c0-1.6-1.3-2.9-2.9-2.9c-0.9,0-1.7,0.4-2.2,1.1   c0.1-0.3,0.2-0.6,0.2-0.9c0-1.6-1.3-2.9-2.9-2.9c-1.6,0-2.9,1.3-2.9,2.9c0,0.6,0.2,1.2,0.6,1.7c-1.6,0-2.9,1.3-2.9,2.9   c0,1.6,1.3,2.9,2.9,2.9c0.2,0,0.3,0,0.5-0.1c-0.4,0.5-0.7,1.2-0.7,1.9c0,1.6,1.3,2.9,2.9,2.9c1.5,0,2.8-1.2,2.9-2.7   c0.5,0.9,1.4,1.4,2.5,1.4c1.6,0,2.9-1.3,2.9-2.9C111.4,186.7,111.4,186.5,111.4,186.4 M107.2,184.4c-0.9,0.5-1.5,1.3-1.5,2.4   c-0.5-0.9-1.4-1.4-2.5-1.4c-0.2,0-0.3,0-0.5,0.1c0.4-0.5,0.7-1.2,0.7-1.9c0-0.6-0.2-1.2-0.6-1.7c0.9,0,1.7-0.4,2.2-1.1   c-0.1,0.3-0.2,0.6-0.2,0.9C104.9,183,105.9,184.1,107.2,184.4"
   id="path132" />
	<path
   class="st3"
   d="M109.9,201.4c0,0,0.1-0.1,0.1-0.1c0.2-0.2,0.3-0.5,0.4-0.7c0-0.1,0-0.1,0.1-0.2c0-0.1,0-0.1,0.1-0.2   c0-0.2,0.1-0.4,0.1-0.6c0-1.6-1.3-2.9-2.9-2.9c-0.5,0-0.9,0.1-1.3,0.3c-0.1-1.5-1.3-2.6-2.8-2.6c-1.6,0-2.9,1.3-2.9,2.9   s1.3,2.9,2.9,2.9c0.5,0,0.9-0.1,1.3-0.4c0,0.6,0.3,1.1,0.6,1.5c-1.4,0.2-2.5,1.4-2.5,2.8c0,1.6,1.3,2.9,2.9,2.9s2.9-1.3,2.9-2.9   c0-0.7-0.2-1.3-0.6-1.7c0.6-0.1,1.2-0.4,1.6-0.8C109.8,201.5,109.9,201.5,109.9,201.4"
   id="path134" />
</g>
</svg>
