<?xml version="1.0" encoding="UTF-8" standalone="no"?>
<svg
   viewBox="0 0 199.62698 368.30295"
   width="199.62698"
   height="368.30295"
   preserveAspectRatio="xMidYMid"
   version="1.1"
   id="svg21"
   xmlns="http://www.w3.org/2000/svg"
   xmlns:svg="http://www.w3.org/2000/svg">
  <defs
     id="defs21" />
  <g
     style="display:block"
     mask="url(#__lottie_element_66)"
     id="g11"
     transform="translate(-66.104007,-391.12)">
    <g
       transform="translate(70.422997,672.19196)"
       opacity="1"
       id="g10">
      <g
         opacity="1"
         transform="translate(97.778999,43.741001)"
         id="g9">
        <path
           fill="#000000"
           fill-opacity="1"
           d="m -90.318001,-28.666 c -5.509002,3.449001 -7.210998,10.706001 -3.762001,16.26 0.358002,0.582 0.806,1.164 1.299004,1.702 25.261001,27.545 98.8049982,48.774 190.309997,54.194002 0,0 0,-54.823002 0,-54.823002 -65.078998,-3.896 -121.021,-15.719999 -157.031997,-32.157002 -10.704003,3.896 -21.051003,8.867001 -30.770005,14.824002 z"
           id="path8" />
      </g>
    </g>
  </g>
  <g
     style="display:block"
     mask="url(#__lottie_element_59)"
     id="g14"
     transform="translate(-66.104007,-391.12)">
    <g
       transform="translate(65.854004,569.58002)"
       opacity="1"
       id="g13">
      <g
         opacity="1"
         transform="translate(100.019,55.341)"
         id="g12">
        <path
           fill="#000000"
           fill-opacity="1"
           d="m -99.768997,20.200001 c 0,0 0,34.890999 0,34.890999 C -70.925003,27.725 5.934,7.211 99.767998,3.0899999 c 0,0 0,-58.1809999 0,-58.1809999 C -13.863,-48.283001 -99.768997,-17.153999 -99.768997,20.200001 Z"
           id="path11" />
      </g>
    </g>
  </g>
  <g
     style="display:block"
     mask="url(#__lottie_element_52)"
     id="g17"
     transform="translate(-66.104007,-391.12)">
    <g
       transform="translate(65.854004,480.17902)"
       opacity="1"
       id="g16">
      <g
         opacity="1"
         transform="translate(100.019,55.363998)"
         id="g15">
        <path
           fill="#000000"
           fill-opacity="1"
           d="m -99.768997,20.222 c 0,0 0,34.891998 0,34.891998 C -70.925003,27.747999 5.934,7.2329998 99.767998,3.112 c 0,0 0,-58.225998 0,-58.225998 C -13.863,-48.261002 -99.768997,-17.132 -99.768997,20.222 Z"
           id="path14" />
      </g>
    </g>
  </g>
  <g
     style="display:block"
     mask="url(#__lottie_element_45)"
     id="g20"
     transform="translate(-66.104007,-391.12)">
    <g
       transform="translate(65.854004,390.87)"
       opacity="1"
       id="g19">
      <g
         opacity="1"
         transform="translate(100.019,55.341)"
         id="g18">
        <path
           fill="#000000"
           fill-opacity="1"
           d="m -99.768997,20.200001 c 0,0 0,34.890999 0,34.890999 C -70.925003,27.725 5.934,7.211 99.767998,3.0899999 c 0,0 0,-58.1809999 0,-58.1809999 C -13.863,-48.283001 -99.768997,-17.153999 -99.768997,20.200001 Z"
           id="path17" />
      </g>
    </g>
  </g>
</svg>
