<?xml version="1.0" encoding="UTF-8" standalone="no"?>
<svg
   xmlns:dc="http://purl.org/dc/elements/1.1/"
   xmlns:cc="http://creativecommons.org/ns#"
   xmlns:rdf="http://www.w3.org/1999/02/22-rdf-syntax-ns#"
   xmlns:svg="http://www.w3.org/2000/svg"
   xmlns="http://www.w3.org/2000/svg"
   xmlns:sodipodi="http://sodipodi.sourceforge.net/DTD/sodipodi-0.dtd"
   xmlns:inkscape="http://www.inkscape.org/namespaces/inkscape"
   width="19.303652mm"
   height="22.454588mm"
   viewBox="0 0 19.303652 22.454585"
   version="1.1"
   id="svg237171"
   inkscape:version="1.0.1 (3bc2e813f5, 2020-09-07)"
   sodipodi:docname="de-la-salle-college.svg">
  <defs
     id="defs237165">
    <clipPath
       id="clipPath259343"
       clipPathUnits="userSpaceOnUse">
      <path
         inkscape:connector-curvature="0"
         id="path259341"
         d="m 620.102,42.047 h 179.55 v 108.478 h -179.55 z" />
    </clipPath>
    <clipPath
       id="clipPath259395"
       clipPathUnits="userSpaceOnUse">
      <path
         inkscape:connector-curvature="0"
         id="path259393"
         d="M 620.102,42.092 H 799.493 V 149.789 H 620.102 Z" />
    </clipPath>
    <clipPath
       id="clipPath259435"
       clipPathUnits="userSpaceOnUse">
      <path
         inkscape:connector-curvature="0"
         id="path259433"
         d="m 620.102,42.047 h 179.55 v 108.478 h -179.55 z" />
    </clipPath>
    <linearGradient
       id="linearGradient259481"
       spreadMethod="pad"
       gradientTransform="matrix(5.7173959,0.816728,0.816728,-5.7173959,634.54864,138.2535)"
       gradientUnits="userSpaceOnUse"
       y2="0"
       x2="1"
       y1="0"
       x1="0">
      <stop
         id="stop259477"
         offset="0"
         style="stop-opacity:1;stop-color:#f6db00" />
      <stop
         id="stop259479"
         offset="1"
         style="stop-opacity:1;stop-color:#f5ce11" />
    </linearGradient>
    <clipPath
       id="clipPath259491"
       clipPathUnits="userSpaceOnUse">
      <path
         inkscape:connector-curvature="0"
         id="path259489"
         d="m 620.102,42.047 h 179.55 v 108.478 h -179.55 z" />
    </clipPath>
    <linearGradient
       id="linearGradient259529"
       spreadMethod="pad"
       gradientTransform="matrix(-5.9505111,1.7501637,1.7501637,5.9505111,658.12071,137.94923)"
       gradientUnits="userSpaceOnUse"
       y2="0"
       x2="1"
       y1="0"
       x1="0">
      <stop
         id="stop259525"
         offset="0"
         style="stop-opacity:1;stop-color:#f6db00" />
      <stop
         id="stop259527"
         offset="1"
         style="stop-opacity:1;stop-color:#f5ce11" />
    </linearGradient>
    <clipPath
       id="clipPath259539"
       clipPathUnits="userSpaceOnUse">
      <path
         inkscape:connector-curvature="0"
         id="path259537"
         d="m 620.102,42.047 h 179.55 v 108.478 h -179.55 z" />
    </clipPath>
    <clipPath
       id="clipPath259575"
       clipPathUnits="userSpaceOnUse">
      <path
         inkscape:connector-curvature="0"
         id="path259573"
         d="M 620.102,42.092 H 799.493 V 149.789 H 620.102 Z" />
    </clipPath>
    <clipPath
       id="clipPath259591"
       clipPathUnits="userSpaceOnUse">
      <path
         inkscape:connector-curvature="0"
         id="path259589"
         d="m 620.102,42.047 h 179.55 v 108.478 h -179.55 z" />
    </clipPath>
    <linearGradient
       id="linearGradient259701"
       spreadMethod="pad"
       gradientTransform="matrix(-6.6497843,3.3248921,3.3248921,6.6497843,660.03943,92.013376)"
       gradientUnits="userSpaceOnUse"
       y2="0"
       x2="1"
       y1="0"
       x1="0">
      <stop
         id="stop259697"
         offset="0"
         style="stop-opacity:1;stop-color:#f6db00" />
      <stop
         id="stop259699"
         offset="1"
         style="stop-opacity:1;stop-color:#f5ce11" />
    </linearGradient>
    <clipPath
       id="clipPath259711"
       clipPathUnits="userSpaceOnUse">
      <path
         inkscape:connector-curvature="0"
         id="path259709"
         d="m 620.102,42.047 h 179.55 v 108.478 h -179.55 z" />
    </clipPath>
    <linearGradient
       id="linearGradient259937"
       spreadMethod="pad"
       gradientTransform="matrix(-13.651636,0.3500477,0.3500477,13.651636,667.34375,100.2388)"
       gradientUnits="userSpaceOnUse"
       y2="0"
       x2="1"
       y1="0"
       x1="0">
      <stop
         id="stop259933"
         offset="0"
         style="stop-opacity:1;stop-color:#f6db00" />
      <stop
         id="stop259935"
         offset="1"
         style="stop-opacity:1;stop-color:#f5ce11" />
    </linearGradient>
    <clipPath
       id="clipPath259947"
       clipPathUnits="userSpaceOnUse">
      <path
         inkscape:connector-curvature="0"
         id="path259945"
         d="m 620.102,42.047 h 179.55 v 108.478 h -179.55 z" />
    </clipPath>
    <linearGradient
       id="linearGradient259981"
       spreadMethod="pad"
       gradientTransform="matrix(-7.9625939,-0.61249,-0.61249,7.9625939,673.78107,102.76955)"
       gradientUnits="userSpaceOnUse"
       y2="0"
       x2="1"
       y1="0"
       x1="0">
      <stop
         id="stop259977"
         offset="0"
         style="stop-opacity:1;stop-color:#f6db00" />
      <stop
         id="stop259979"
         offset="1"
         style="stop-opacity:1;stop-color:#f5ce11" />
    </linearGradient>
    <clipPath
       id="clipPath259991"
       clipPathUnits="userSpaceOnUse">
      <path
         inkscape:connector-curvature="0"
         id="path259989"
         d="m 620.102,42.047 h 179.55 v 108.478 h -179.55 z" />
    </clipPath>
    <linearGradient
       id="linearGradient260013"
       spreadMethod="pad"
       gradientTransform="matrix(-11.901098,0,0,11.901098,653.58469,100.1249)"
       gradientUnits="userSpaceOnUse"
       y2="0"
       x2="1"
       y1="0"
       x1="0">
      <stop
         id="stop260009"
         offset="0"
         style="stop-opacity:1;stop-color:#f6db00" />
      <stop
         id="stop260011"
         offset="1"
         style="stop-opacity:1;stop-color:#f5ce11" />
    </linearGradient>
    <linearGradient
       id="linearGradient260033"
       spreadMethod="pad"
       gradientTransform="matrix(11.376213,1.6627079,1.6627079,-11.376213,631.73981,100.82314)"
       gradientUnits="userSpaceOnUse"
       y2="0"
       x2="1"
       y1="0"
       x1="0">
      <stop
         id="stop260029"
         offset="0"
         style="stop-opacity:1;stop-color:#f6db00" />
      <stop
         id="stop260031"
         offset="1"
         style="stop-opacity:1;stop-color:#f5ce11" />
    </linearGradient>
    <clipPath
       id="clipPath260043"
       clipPathUnits="userSpaceOnUse">
      <path
         inkscape:connector-curvature="0"
         id="path260041"
         d="m 620.102,42.047 h 179.55 v 108.478 h -179.55 z" />
    </clipPath>
    <linearGradient
       id="linearGradient260073"
       spreadMethod="pad"
       gradientTransform="matrix(7.350702,-0.1749864,-0.1749864,-7.350702,622.76553,104.67488)"
       gradientUnits="userSpaceOnUse"
       y2="0"
       x2="1"
       y1="0"
       x1="0">
      <stop
         id="stop260069"
         offset="0"
         style="stop-opacity:1;stop-color:#f6db00" />
      <stop
         id="stop260071"
         offset="1"
         style="stop-opacity:1;stop-color:#f5ce11" />
    </linearGradient>
    <linearGradient
       id="linearGradient260093"
       spreadMethod="pad"
       gradientTransform="matrix(6.1254234,4.3753344,4.3753344,-6.1254234,635.08775,91.902737)"
       gradientUnits="userSpaceOnUse"
       y2="0"
       x2="1"
       y1="0"
       x1="0">
      <stop
         id="stop260089"
         offset="0"
         style="stop-opacity:1;stop-color:#f6db00" />
      <stop
         id="stop260091"
         offset="1"
         style="stop-opacity:1;stop-color:#f5ce11" />
    </linearGradient>
    <clipPath
       id="clipPath260103"
       clipPathUnits="userSpaceOnUse">
      <path
         inkscape:connector-curvature="0"
         id="path260101"
         d="m 620.102,42.047 h 179.55 v 108.478 h -179.55 z" />
    </clipPath>
    <linearGradient
       id="linearGradient260125"
       spreadMethod="pad"
       gradientTransform="matrix(-0.1749864,5.5999402,5.5999402,0.1749864,647.18889,89.186286)"
       gradientUnits="userSpaceOnUse"
       y2="0"
       x2="1"
       y1="0"
       x1="0">
      <stop
         id="stop260121"
         offset="0"
         style="stop-opacity:1;stop-color:#f6db00" />
      <stop
         id="stop260123"
         offset="1"
         style="stop-opacity:1;stop-color:#f5ce11" />
    </linearGradient>
    <clipPath
       id="clipPath260135"
       clipPathUnits="userSpaceOnUse">
      <path
         inkscape:connector-curvature="0"
         id="path260133"
         d="m 620.102,42.047 h 179.55 v 108.478 h -179.55 z" />
    </clipPath>
    <clipPath
       id="clipPath260183"
       clipPathUnits="userSpaceOnUse">
      <path
         inkscape:connector-curvature="0"
         id="path260181"
         d="m 714.779,107.492 h 83.542 v 7.352 h -83.542 z" />
    </clipPath>
  </defs>
  <sodipodi:namedview
     id="base"
     pagecolor="#ffffff"
     bordercolor="#666666"
     borderopacity="1.0"
     inkscape:pageopacity="0.0"
     inkscape:pageshadow="2"
     inkscape:zoom="2.8"
     inkscape:cx="89.801301"
     inkscape:cy="83.841265"
     inkscape:document-units="mm"
     inkscape:current-layer="g259339"
     showgrid="false"
     inkscape:pagecheckerboard="true"
     fit-margin-top="0"
     fit-margin-left="0"
     fit-margin-right="0"
     fit-margin-bottom="0"
     inkscape:window-width="1920"
     inkscape:window-height="1000"
     inkscape:window-x="1920"
     inkscape:window-y="0"
     inkscape:window-maximized="1"
     inkscape:document-rotation="0" />
  <metadata
     id="metadata237168">
    <rdf:RDF>
      <cc:Work
         rdf:about="">
        <dc:format>image/svg+xml</dc:format>
        <dc:type
           rdf:resource="http://purl.org/dc/dcmitype/StillImage" />
        <dc:title />
      </cc:Work>
    </rdf:RDF>
  </metadata>
  <g
     inkscape:label="Layer 1"
     inkscape:groupmode="layer"
     id="layer1"
     transform="translate(44.796459,-209.49562)">
    <g
       id="g259337"
       transform="matrix(0.35277777,0,0,-0.35277777,-263.55466,262.33767)">
      <g
         id="g259339"
         clip-path="url(#clipPath259343)">
        <g
           id="g259345"
           transform="translate(666.4271,114.3857)">
          <path
             d="m 0,0 -0.047,1.531 c 0.016,0.208 -0.078,1.428 -0.078,1.428 0,0 0.606,-1.085 0.702,-1.611 C 0.593,1.159 0.144,-0.536 -0.221,-0.822 -0.412,-0.805 0.08,-0.128 0,0 M 0.723,6.536 C 1.278,5.502 1.643,4.374 1.532,3.068 1.438,2.672 1.278,2.226 0.96,2.004 0.723,2.352 0.816,2.846 0.706,3.26 0.726,3.752 0.654,5.238 0.654,5.238 c 0,0 -0.298,1.344 -0.281,1.806 0,0.032 0.3,-0.318 0.35,-0.508 M 2.072,8.251 C 2.312,7.695 2.931,7.187 2.582,6.518 2.438,5.995 2.28,5.455 2.041,4.976 1.914,4.882 1.93,5.072 1.867,5.119 1.708,6.296 1.468,7.457 1.184,8.586 1.166,9.221 0.834,9.762 0.834,10.398 1.374,9.747 1.629,8.952 2.072,8.251 m 1.22,4.123 C 3.404,11.691 3.366,10.987 3.318,10.334 3.192,9.969 3.234,9.445 2.985,8.909 2.731,9.005 2.868,9.445 2.663,9.636 2.63,11.178 1.575,14.231 1.575,14.231 c 0,0 1.432,-1.092 1.717,-1.857 M 3.171,4.213 C 3.551,4.516 4.207,5.128 4.653,5.335 4.685,5.128 4.032,4.527 4.002,4.32 3.827,3.955 3.504,4.005 3.218,3.752 2.964,3.658 2.82,3.45 2.582,3.307 2.455,3.26 2.359,3.149 2.248,3.068 2.184,3.212 2.345,3.26 2.391,3.404 2.598,3.736 2.853,3.944 3.171,4.213 M 1.66,0.748 C 1.357,0.159 1.009,-0.54 0.452,-0.953 c 0.281,0.566 0.464,0.635 0.514,1 0.19,0.382 0.827,1.098 0.827,1.098 0,0 -0.085,-0.318 -0.133,-0.397 M 0.611,-4.796 c 0,0 -0.652,-0.323 -0.844,-0.403 -0.763,-0.191 -1.446,-0.603 -2.208,-0.828 -0.161,-0.093 -0.368,-0.126 -0.51,-0.269 l -0.87,-0.763 c -0.178,-0.019 -0.281,-0.241 -0.466,-0.239 -0.111,0.302 0.239,0.477 0.398,0.699 0.684,0.557 1.224,1.432 1.877,2.053 0.62,0.508 2.623,-0.25 2.623,-0.25 m -6.058,-4.045 c -0.382,-0.175 -0.731,-0.475 -1.146,-0.46 0.208,0.35 0.541,0.636 0.844,0.891 0.348,0.285 0.842,0.493 1.319,0.397 l 1.054,0.314 c -0.628,-0.306 -1.8,-0.923 -2.071,-1.142 m -1.601,0.151 c -0.016,-0.527 -0.525,-0.781 -0.923,-0.988 -0.079,-0.015 -0.301,-0.064 -0.254,0.112 0.097,0.286 0.891,1.956 1.082,2.161 l 0.111,-0.061 c 0.031,-0.398 0.048,-0.845 -0.016,-1.224 m 1.139,2.695 0.11,1.026 c 0.125,-0.44 0.416,-1.775 0.448,-2.173 -0.009,-0.207 -0.398,-0.6 -0.684,-0.775 -0.128,-0.018 -0.207,-0.16 -0.335,-0.096 0.031,0.7 0.239,1.384 0.461,2.018 m 3.642,4.359 c 0.191,-0.557 0.429,-1.146 0.334,-1.767 -0.064,-0.38 -0.334,-0.635 -0.62,-0.857 -0.064,0.015 -0.142,0.228 -0.258,0.432 0.19,0.568 0.341,1.929 -0.088,3.213 0,0.126 0,0.214 -0.036,0.376 0.382,-0.38 0.444,-0.921 0.668,-1.397 M 6.604,1.622 5.619,1.239 C 4.427,0.923 3.489,-0.015 2.518,-0.747 2.327,-0.827 2.184,-1.017 1.994,-1.081 1.643,-1.463 1.135,-1.668 0.706,-1.908 0.436,-1.955 0.213,-2.162 -0.058,-2.147 c 0.112,0.336 0.51,0.59 0.764,0.827 0.97,0.652 2.036,1.449 2.878,2.323 0.589,0.555 1.001,1.223 1.559,1.827 0.38,0.334 0.809,0.7 1.271,0.922 0.269,0.271 0.636,0.303 0.938,0.54 0.016,0.082 0.079,0.192 0,0.272 C 6.922,4.707 6.486,4.497 5.88,4.394 5.937,4.828 6.17,5.356 6.206,5.798 6.429,6.417 5.984,7.187 6.572,7.649 6.653,7.839 7.208,8.92 7.352,9.302 7.416,9.842 8.02,10.176 7.765,10.763 7.605,10.843 6.446,9.65 5.906,9.285 4.936,8.522 3.887,7.463 3.107,6.461 c 0,0 0.111,0.773 0.286,0.884 1.113,0.955 1.86,2.147 2.559,3.339 0.212,0.278 0.604,0.607 1.066,2.179 0.19,1.096 0.519,3.295 0.519,3.295 -0.305,0.068 -0.9,-1.149 -1.202,-1.769 0,-0.096 -0.785,-1.203 -1.437,-1.998 C 4.612,12.263 4.209,10.838 3.907,10.712 l 0.021,0.541 c -0.063,0.54 0.021,1.006 -0.011,1.547 0.127,0.524 0.668,0.938 0.908,1.414 0.19,0.318 0.428,0.621 0.651,0.906 0.27,0.636 0.73,1.176 1.017,1.764 0.365,0.765 0.701,1.543 0.923,2.369 0,0.541 0.222,0.988 0.206,1.543 C 7.591,21.161 7.526,22.243 7.305,22.26 7.194,22.228 6.589,20.51 6.224,19.794 5.508,18.793 5.03,17.68 4.474,16.6 4.363,16.344 3.976,15.462 3.976,15.462 c 0,0 -0.217,1.371 -0.265,1.737 0.079,0.508 0.413,0.672 0.652,1.117 0.287,0.414 0.382,0.876 0.573,1.32 -0.048,0.112 0.293,1.57 0.293,1.57 0.143,0.525 0.164,0.751 0.178,1.307 0.08,0.748 0.052,1.197 0.069,1.945 -0.048,0.743 -0.461,2.484 -0.891,2.38 C 4.216,26.667 4.394,24.836 4.203,23.882 4.235,23.039 3.917,22.338 3.822,21.544 3.694,20.398 3.472,17.967 3.457,17.982 3.408,18.651 3.314,19.303 3.203,19.938 2.931,21.64 2.613,23.324 2.057,24.898 1.867,25.774 1.643,26.647 1.295,27.458 1.088,27.84 1.023,28.365 0.515,28.477 -0.073,28.285 0.198,24.325 0.373,23.96 0.483,23.15 0.547,22.338 0.816,21.591 0.977,21.289 0.913,20.892 1.103,20.606 1.374,19.382 2.11,19.032 2.938,18.111 3.272,17.124 3.519,15.47 3.457,14.374 3.282,14.453 3.361,14.628 3.25,14.74 3.075,15.517 2.756,16.218 2.47,16.948 1.947,17.775 1.692,18.73 1.184,19.557 0.848,20.192 0.436,20.814 -0.041,21.4 c -0.381,0.383 -0.589,0.985 -1.161,1.067 -0.228,-0.376 0.467,-1.469 0.737,-2.137 0.117,-0.279 0.187,-0.731 0.392,-1.117 l 0.551,-2.164 c 0.101,-0.408 0.499,-1.568 0.499,-1.568 0,0 -0.733,0.991 -0.859,1.119 -0.143,0.302 -0.414,0.54 -0.619,0.81 -0.144,0.096 -0.287,0.318 -0.479,0.239 -0.062,-0.223 0.128,-0.397 0.192,-0.604 0.287,-0.795 0.587,-1.543 0.795,-2.385 0.094,-0.859 0.333,-1.654 0.445,-2.512 -0.016,-0.383 0.221,-0.716 0.095,-1.098 -0.143,0.207 -0.254,0.414 -0.303,0.651 -0.254,0.447 -0.397,0.97 -0.698,1.399 l -0.462,1.049 c -0.207,0.272 -0.207,0.701 -0.525,0.845 -0.223,0 -0.079,-0.272 -0.206,-0.382 -0.175,-0.986 0.699,-2.99 0.716,-3.911 0,0 -0.622,0.885 -0.859,0.857 C -2.029,11.532 -1.965,9.116 -1.647,8.04 -1.611,7.961 -2.076,8.762 -2.236,8.283 -2.315,6.726 -2.441,5.184 -2.124,3.69 c 0.042,-1.532 0.816,-3.154 1.197,-4.474 0.017,-0.684 0.297,-1.044 -0.243,-1.65 -0.064,-0.061 -0.239,-0.061 -0.271,0.065 -0.031,0.669 -0.143,1.303 -0.366,1.893 -0.079,0.73 -0.412,1.35 -0.714,1.954 -0.335,0.447 -0.7,1.146 -1.305,1.273 C -3.984,2.703 -3.969,2.496 -3.937,2.384 -3.688,1.855 -3.313,1.033 -3.162,0.462 -3.219,0.575 -3.424,0.89 -3.499,0.787 -3.642,0.661 -3.777,0.287 -3.762,0.097 l -0.032,-1.464 c -0.127,-0.826 0.143,-1.789 0.592,-2.632 0.129,-0.348 -0.047,0.009 0,-0.372 0.049,-0.733 -0.75,-1.656 -1.228,-2.083 -0.095,0 -0.223,-0.129 -0.302,0 -0.111,0.459 0.458,0.782 0.299,1.226 0,0 0.21,4.246 -0.378,4.211 -0.513,-0.06 -0.743,-2.546 -0.938,-2.95 -0.096,0 -0.017,1.031 -0.271,0.978 -0.573,-0.286 -0.709,-1.574 -1.012,-2.083 -0.095,-0.332 -0.032,0.658 -0.255,0.498 -0.062,-0.143 -0.314,-0.391 -0.541,-0.765 0,0 -1.084,-2.061 -1.084,-2.896 0,-0.836 0.021,-1.426 -0.648,-1.998 l 0.865,-0.331 c 0.222,0.047 0.72,0.324 0.974,0.357 0.716,0.222 1.607,0.142 2.32,0.303 0.561,0.128 2.395,0.405 2.395,0.437 l 0.686,0.248 c 3.75,1.387 2.564,1.445 3.026,1.906 0.207,0.381 -1.626,0.381 -1.626,0.381 0,0 1.976,0.557 2.358,0.794 0.509,0.111 1.382,0.648 1.382,0.648 0,0 1.622,-0.154 2.259,-0.505 C 5.19,-6.01 5.365,-6.056 5.428,-5.93 5.444,-5.311 4.771,-4.739 4.453,-4.245 4.474,-4.149 6.73,-2.241 2.707,-3.362 1.454,-3.142 0,-3.593 -1.16,-3.64 c -0.143,0.032 0.18,0.175 0.244,0.254 0.43,0.286 0.923,0.444 1.415,0.587 1.209,0.129 2.306,0.573 3.37,1.05 1.289,0.525 2.052,1.813 3.149,2.672 0.127,0.365 0.778,0.43 0.508,0.874 -0.318,0.096 -0.668,0 -0.922,-0.175"
             style="fill:#006021;fill-opacity:1;fill-rule:nonzero;stroke:none"
             id="path259347"
             inkscape:connector-curvature="0" />
        </g>
        <g
           id="g259349"
           transform="translate(634.8151,106.5237)">
          <path
             d="m 0,0 c -0.287,0.079 -1.121,0.65 -1.232,0.936 -0.486,0.829 0.722,1.694 0.883,2.187 0,0 -0.09,-2.097 0.264,-2.813 C -0.085,0.214 0.095,0.032 0,0 M -1.48,2.733 C -1.647,2.216 -1.448,2.049 -1.814,1.524 -2.069,1.54 -3.142,2.844 -3.013,3.13 c 0.089,0.096 0.51,0.299 0.617,0.415 0.514,0.549 0.835,1.32 0.835,1.32 0,0 0.08,-0.701 0.084,-1.107 z m -1.737,-1.5 C -3.869,1.455 -4.441,1.867 -5.013,2.282 -5.045,2.346 -5.652,2.658 -5.652,2.658 L -4.893,2.641 C -4.274,2.562 -3.567,2.695 -3.217,2.075 -3.01,1.806 -2.772,1.599 -2.644,1.295 -2.74,0.993 -3.026,1.248 -3.217,1.233 m 0.294,4.059 c 0,0 -0.182,-0.752 -0.119,-0.816 -0.142,-0.303 0.048,-0.794 -0.271,-0.985 -0.506,0.611 0.39,1.801 0.39,1.801 m -3.363,2.427 c -0.492,0.383 -0.397,1.146 -0.238,1.668 0.26,1.019 0.128,0.541 0.255,0.765 0.064,0.079 0.329,1.001 0.407,1.001 C -5.883,10.501 -6.111,9.272 -6.063,8.732 L -5.755,7.157 C -5.845,6.858 -5.826,7.144 -6.286,7.719 M -8.963,8.228 -8.479,8.164 C -7.987,8.102 -7.62,7.719 -7.144,7.64 -6.919,7.507 -6.91,7.409 -6.676,6.98 c 0.033,-0.144 0.351,-0.528 0.271,-0.479 -1.373,0.327 -1.87,1.37 -2.558,1.727 m 1.098,4.002 c 0.08,0.142 0.35,0.163 0.598,0.487 0.367,0.54 0.933,1.759 0.933,1.759 0,0 -0.164,-0.89 -0.178,-1.034 -0.282,-0.869 -0.134,-1.567 -0.309,-2.33 -0.111,-0.462 -0.229,-1.94 -0.229,-1.94 0,0 -0.857,2.974 -0.815,3.058 M 2.586,-1.355 C 2.782,-0.019 2.904,0.866 2.507,1.995 2.332,2.218 2.315,2.615 1.967,2.663 1.84,2.648 1.855,2.489 1.759,2.407 1.378,1.263 1.766,0.03 2.072,-1.147 2.009,-1.211 2.22,-1.816 2.109,-1.799 1.918,-1.766 0.469,-0.625 0.358,-0.465 0.798,0.368 1.012,1.344 0.949,2.407 0.821,3.235 1.091,4.254 0.551,4.888 0.234,4.984 -0.287,3.797 -0.287,3.797 c 0,0 0.043,1.298 0.027,1.6 -0.032,0.557 0.033,1.162 -0.285,1.623 -0.398,0.143 -0.728,-0.942 -0.728,-0.942 0,0 0.205,1.497 -0.147,1.913 -0.223,0.03 -0.397,-0.193 -0.494,-0.368 -0.127,-0.127 -0.699,-1.192 -0.699,-1.192 0,0 0.268,1.002 0.366,1.352 0.407,1.661 0.278,2.773 -0.08,2.953 C -2.684,10.915 -3.44,10.071 -3.662,9.531 -3.757,9.372 -4.187,6.956 -4.251,6.717 -4.378,6.162 -4.335,5.16 -4.277,4.491 -4.356,4.38 -4.616,4.938 -4.68,4.97 c -0.301,0.348 -0.573,0.794 -0.398,1.303 0.176,0.587 0.271,1.239 0.558,1.797 0.11,0.079 0.556,4.101 0.429,4.434 -0.063,0.813 0.381,2.173 0.063,2.402 -0.259,0.186 -0.371,-0.446 -0.419,-0.254 0.356,1.092 0.425,2.45 0.361,3.293 -0.191,0.35 -1.018,-0.535 -1.018,-0.535 0,0 0.716,2.777 0.79,3.155 0.017,0.335 0.142,0.621 0.127,0.97 -0.08,0.383 0.159,0.844 -0.127,1.113 -0.111,0.032 -0.159,-0.064 -0.255,-0.079 -0.286,-0.573 -0.667,-1.066 -0.938,-1.639 -0.222,-0.428 -0.444,-0.841 -0.684,-1.286 -0.73,-1.208 -0.832,-1.613 -1.467,-2.884 -0.525,-1.854 -0.387,-3.084 -0.535,-3.518 -0.206,0.207 -0.621,2.628 -0.605,2.946 0.017,0.827 0.334,1.388 0.732,2.008 0.286,0.573 1.016,0.694 1.24,1.316 0.159,0.619 0.763,1.35 0.827,2.002 l 0.81,3.376 c 0.176,0.349 0.191,0.764 0.287,1.13 0.016,0.412 0.27,0.874 0.032,1.271 -0.16,0.063 -0.175,-0.111 -0.302,-0.144 -0.43,-0.762 -0.954,-1.446 -1.368,-2.257 -0.398,-0.714 -0.715,-1.462 -1.018,-2.225 -0.301,-0.812 -0.683,-1.591 -0.794,-2.48 -0.287,-0.748 -0.201,-1.305 -0.568,-2.035 -0.178,0.033 -0.167,2.851 -0.09,4.28 0.896,0.849 1.662,1.972 2.549,3.446 0.287,0.572 0.541,1.208 0.811,1.812 0.24,1.145 0.891,2.131 0.812,3.403 -0.54,0.334 -1.575,-1.399 -2.194,-2.353 -0.223,-0.366 -0.51,-0.715 -0.716,-1.082 -0.508,-0.652 -1.224,-2.167 -1.224,-2.167 -0.128,0.684 0.413,1.182 0.636,1.691 0.063,0.35 0.317,0.62 0.46,0.923 0.573,1.335 1.066,2.717 1.447,4.134 0.063,0.651 0.446,1.159 0.446,1.828 -0.016,0.778 0.668,1.462 0.206,2.209 -0.143,0.128 -1.367,-1.431 -1.716,-1.843 -1.251,-0.801 -2.132,-5.232 -2.004,-6.933 -0.063,-0.494 0.239,-1.034 -0.128,-1.414 -0.253,0.364 -0.211,0.837 -0.324,1.267 -0.078,0.254 -0.168,1.955 -0.222,3.1 0,0 -1.032,4.063 -1.489,4.044 -0.407,-0.092 -0.843,-4.083 -0.159,-5.561 0.207,-0.89 0.319,-1.769 0.908,-2.486 0.316,-0.731 1.256,-1.144 1.334,-2.018 -0.032,-0.955 -0.127,-1.925 -0.078,-2.895 0,-0.19 0.078,-1.442 -0.018,-1.6 -0.079,-0.096 -0.254,1.092 -0.317,1.124 -0.349,0.604 -0.51,1.239 -0.794,1.875 -0.113,0.526 -0.271,1.018 -0.463,1.496 -0.015,0.316 -0.253,0.524 -0.222,0.858 -0.334,0.842 -1.256,3.355 -1.526,3.323 -0.429,-0.271 -0.235,-2.205 0.343,-4.409 0.187,-0.836 1.952,-4.1 2.152,-4.32 0.319,-0.445 1.05,-0.588 0.988,-1.257 -0.08,-0.523 0.095,-1.059 -0.048,-1.478 -0.318,0.097 -0.493,0.477 -0.668,0.733 -0.143,0.255 -0.573,1.382 -0.764,1.669 -0.175,0.365 -0.993,2.257 -0.993,2.257 -0.51,0.708 -0.601,1.46 -1.237,2.031 -0.079,0.016 -0.313,0.053 -0.313,0.053 0,0 -0.097,-0.272 -0.064,-0.415 0.207,-0.412 -0.048,-0.953 0.142,-1.367 0.112,-0.366 0.684,-3.333 3.021,-5.215 0.366,-0.35 0.707,-0.158 0.994,-0.62 0.239,-0.844 0.501,-2.681 0.83,-3.608 -0.064,-0.175 -0.44,0.795 -0.535,0.795 -0.159,0.174 -2.112,3.781 -3.006,4.736 -0.175,0.414 -1.367,1.528 -1.669,1.385 -0.429,-0.43 1.467,-3.725 2.369,-5.058 0.556,-0.698 1.097,-1.461 1.861,-1.972 0.397,-0.365 1.065,-0.411 1.303,-0.984 0.127,-0.462 0.573,-1.669 0.382,-1.765 l -0.302,0.254 c -0.494,0.684 -0.644,0.802 -1.137,1.453 l -1.173,1.324 c -0.335,0.366 -1.522,1.749 -2.286,1.597 -0.344,-0.673 1.472,-2.858 2.012,-3.175 0,0 2.303,-1.427 2.791,-2.079 0,-0.111 0.485,-0.54 0.373,-0.651 -0.192,0.046 -0.829,0.128 -0.941,0.333 -0.318,0.111 -0.405,0.51 -0.695,0.669 l -0.63,0.132 c -0.62,0.032 -1.512,-0.32 -1.958,-0.686 0.024,-0.019 -0.673,0.069 -0.988,0.034 l -1.283,-0.16 c -0.191,-0.015 -0.381,-0.03 -0.509,-0.237 -0.08,-0.161 1.497,-1.09 2.118,-1.233 0.095,-0.064 0.108,-0.914 0.379,-1.391 0.111,-0.095 0.159,-0.397 0.397,-0.317 0.286,0.285 0.127,0.655 0.477,0.924 0.351,0.287 0.147,0.295 0.322,0.24 1.423,-0.163 3.573,-0.242 4.671,-0.926 0.619,-0.35 1.016,-0.954 1.351,-1.575 0.08,-0.27 0.366,-0.475 0.286,-0.747 -0.366,0 -0.653,0.272 -0.921,0.445 -0.589,0.461 -1.178,0.97 -1.814,1.319 -0.969,0.527 -1.907,1.146 -3.084,1.067 -0.207,-0.017 -0.35,-0.19 -0.255,-0.397 0.367,-0.508 0.89,-0.876 1.351,-1.257 0.43,-0.335 1.691,-1.08 2.152,-1.384 0.064,-0.032 -1.531,0.398 -1.897,0.224 0.048,-0.335 0.414,-0.557 0.621,-0.747 0.27,-0.144 1.256,-1.428 2.4,-1.897 0,0 0.302,-0.057 0.715,-0.18 0.141,0.02 1.088,0.157 1.445,0.12 0.384,-0.038 1.847,-0.317 1.847,-0.317 0.205,0 0.302,-0.239 0.445,-0.335 0.111,-0.206 -0.079,-0.269 -0.255,-0.269 -0.731,0 -1.568,-0.238 -1.59,-0.148 -0.025,0.012 -0.046,0.025 -0.07,0.037 0.169,-0.15 0.313,-0.317 0.407,-0.505 0.044,-0.087 0.973,0.22 1.667,0.342 0.525,0.032 1.241,-0.564 1.573,-1.01 0.176,-0.254 -3.582,0.494 -3.306,-0.011 0,-0.415 -0.19,-0.643 -0.1,-0.76 0.17,-0.218 0.783,-0.035 1.648,0.085 0.4,0.252 1.179,0.284 2.125,0.416 0.302,-0.064 0.787,-0.303 1.318,-0.987 l 0.796,0.171 c -0.171,0.283 0.08,0.96 0,1.038"
             style="fill:#006021;fill-opacity:1;fill-rule:nonzero;stroke:none"
             id="path259351"
             inkscape:connector-curvature="0" />
        </g>
        <g
           id="g259353"
           transform="translate(629.4225,107.2972)">
          <path
             d="M 0,0 C 0.656,-0.194 1.181,-0.563 1.851,-0.907 1.346,-0.456 0.587,-0.163 0.028,0.005 0.017,0.003 0,0 0,0"
             style="fill:#006021;fill-opacity:1;fill-rule:nonzero;stroke:none"
             id="path259355"
             inkscape:connector-curvature="0" />
        </g>
      </g>
    </g>
    <g
       id="g259429"
       transform="matrix(0.35277777,0,0,-0.35277777,-263.55466,262.33767)">
      <g
         id="g259431"
         clip-path="url(#clipPath259435)">
        <g
           id="g259437"
           transform="translate(640.616,105.2586)">
          <path
             d="m 0,0 c 0.133,-0.172 0.114,-0.721 0.114,-0.721 -0.004,-0.49 0.167,-1.458 -0.051,-1.502 -0.386,0.335 -0.354,0.734 -0.341,1.348 0,0 0.146,1.047 0.278,0.875"
             style="fill:#007f2d;fill-opacity:1;fill-rule:nonzero;stroke:none"
             id="path259439"
             inkscape:connector-curvature="0" />
        </g>
        <g
           id="g259441"
           transform="translate(644.5931,103.6651)">
          <path
             d="M 0,0 -0.875,-1.139 0,-1.749 Z"
             style="fill:#f5ce11;fill-opacity:1;fill-rule:nonzero;stroke:none"
             id="path259443"
             inkscape:connector-curvature="0" />
        </g>
        <g
           id="g259445"
           transform="translate(650.2167,101.8493)">
          <path
             d="M 0,0 V 1.75 L 0.874,0.613"
             style="fill:#f5ce11;fill-opacity:1;fill-rule:nonzero;stroke:none"
             id="path259447"
             inkscape:connector-curvature="0" />
        </g>
        <g
           id="g259449"
           transform="translate(636.4863,104.283)">
          <path
             d="m 0,0 c 0.005,-0.03 -2.114,-0.025 -2.478,-0.282 -0.319,-0.224 -1.188,-0.315 -1.272,-0.795 -0.086,-0.479 1.428,-0.036 1.428,-0.036 0.399,0.079 0.489,0.137 0.701,0.215 0.363,0.047 1.073,0.342 1.073,0.342 L 0,0"
             style="fill:#006021;fill-opacity:1;fill-rule:nonzero;stroke:none"
             id="path259451"
             inkscape:connector-curvature="0" />
        </g>
        <g
           id="g259453"
           transform="translate(656.4635,104.1356)">
          <path
             d="M 0,0 C -0.032,0.008 0.555,1.285 0.448,1.717 0.354,2.096 0.586,2.937 0.171,3.191 -0.245,3.444 -0.56,1.857 -0.56,1.857 -0.631,1.454 -0.631,1.401 -0.635,1.177 -0.722,0.821 -0.506,0.019 -0.506,0.019"
             style="fill:#006021;fill-opacity:1;fill-rule:nonzero;stroke:none"
             id="path259455"
             inkscape:connector-curvature="0" />
        </g>
        <g
           id="g259457"
           transform="translate(658.4169,103.4451)">
          <path
             d="M 0,0 C 0.007,0.031 1.151,-0.607 1.582,-0.495 1.961,-0.4 2.843,-0.803 3.093,-0.385 3.343,0.032 1.753,0.334 1.753,0.334 1.351,0.402 1.298,0.402 1.071,0.404 0.715,0.489 -0.563,0.107 -0.563,0.107"
             style="fill:#006021;fill-opacity:1;fill-rule:nonzero;stroke:none"
             id="path259459"
             inkscape:connector-curvature="0" />
        </g>
        <g
           id="g259461"
           transform="translate(645.9158,135.9825)">
          <path
             d="m 0,0 c -3.937,3.602 -7.281,-0.313 -7.281,-0.313 l -1.492,-1.019 c 0.035,0.055 -0.422,0.538 -0.478,0.499 -1.224,-0.526 -3.045,-1.117 -4.491,-0.784 -0.43,0.113 -0.99,0.24 -1.372,0.493 0.016,-0.032 3.784,1.381 4.217,2.069 -0.376,0.822 -0.643,3.253 -0.5,3.174 1.323,-1.358 4.344,-1.51 7.107,-0.711 -1.237,0.947 -3.792,0.812 -3.808,0.923 0.016,0.254 2.365,1.026 2.365,1.026 0,0 0.362,1.967 0.453,2.065 0.067,0.03 0.579,-0.6 1.002,-1.72 0.599,-0.666 4.227,-3.293 4.306,-3.304 L 0,0"
             style="fill:#dab400;fill-opacity:1;fill-rule:nonzero;stroke:none"
             id="path259463"
             inkscape:connector-curvature="0" />
        </g>
      </g>
    </g>
    <g
       id="g259465"
       transform="matrix(0.35277777,0,0,-0.35277777,-263.55466,262.33767)">
      <g
         id="g259467">
        <g
           id="g259473">
          <g
             id="g259475">
            <path
               d="m 640.634,141.068 c 0,0 -2.018,-0.498 -1.899,-0.518 v 0 c 0.62,-0.038 2.277,-0.177 3.545,-1.202 v 0 c 0.047,-0.176 -5.211,-1.707 -7.296,-0.056 v 0 c -0.14,-0.529 0.419,-2.143 0.498,-2.493 v 0 c -0.024,-0.652 -3.571,-1.916 -3.571,-1.916 v 0 c 0,0 2.807,-0.712 4.698,0.803 v 0 c 0.207,0.133 0.784,-0.583 0.784,-0.583 v 0 c 0,0 3.512,4.137 7.023,2.332 v 0 c 0.301,-0.207 1.099,-0.839 1.099,-0.839 v 0 c 0,0 0.576,0.923 0.332,1.312 v 0 c -2.694,2.305 -3.631,2.667 -4.659,3.592 v 0 c -0.126,0.143 -0.307,1.046 -0.458,1.193 v 0 c -0.112,-0.111 -0.096,-1.625 -0.096,-1.625"
               style="fill:url(#linearGradient259481);stroke:none"
               id="path259483"
               inkscape:connector-curvature="0" />
          </g>
        </g>
      </g>
    </g>
    <g
       id="g259485"
       transform="matrix(0.35277777,0,0,-0.35277777,-263.55466,262.33767)">
      <g
         id="g259487"
         clip-path="url(#clipPath259491)">
        <g
           id="g259493"
           transform="translate(649.0953,136.1195)">
          <path
             d="m 0,0 c 3.938,3.602 7.28,-0.313 7.28,-0.313 l 1.494,-1.02 c -0.034,0.055 0.421,0.538 0.477,0.5 1.225,-0.523 3.046,-1.117 4.492,-0.782 0.429,0.111 0.989,0.238 1.372,0.491 -0.017,-0.03 -3.784,1.381 -4.218,2.068 0.378,0.823 0.644,3.256 0.5,3.176 C 10.075,2.761 7.054,2.609 4.291,3.408 5.526,4.354 8.083,4.219 8.098,4.331 8.083,4.585 5.734,5.357 5.734,5.357 c 0,0 -0.361,1.967 -0.453,2.067 C 5.213,7.453 4.702,6.822 4.279,5.702 3.679,5.036 0.052,2.41 -0.028,2.397 L 0,0"
             style="fill:#dab400;fill-opacity:1;fill-rule:nonzero;stroke:none"
             id="path259495"
             inkscape:connector-curvature="0" />
        </g>
        <g
           id="g259497"
           transform="translate(628.2884,103.3448)">
          <path
             d="m 0,0 c 0.7,1.282 3.15,1.75 3.15,1.75 l 0.233,-3.034 c 0,0 -3.617,0 -3.851,0.583 C -0.7,-0.117 0,0 0,0"
             style="fill:#f5ce11;fill-opacity:1;fill-rule:nonzero;stroke:none"
             id="path259499"
             inkscape:connector-curvature="0" />
        </g>
        <g
           id="g259501"
           transform="translate(629.5078,103.9067)">
          <path
             d="M 0,0 C -0.288,-0.066 -0.524,-0.132 -0.717,-0.199"
             style="fill:#000000;fill-opacity:1;fill-rule:nonzero;stroke:none"
             id="path259503"
             inkscape:connector-curvature="0" />
        </g>
        <g
           id="g259505"
           transform="translate(641.0671,104.4812)">
          <path
             d="M 0,0 C -0.15,0.361 -0.053,1.229 -0.503,1.412 -0.954,1.598 -1.018,-0.019 -1.018,-0.019"
             style="fill:#006021;fill-opacity:1;fill-rule:nonzero;stroke:none"
             id="path259507"
             inkscape:connector-curvature="0" />
        </g>
        <g
           id="g259509"
           transform="translate(638.9043,104.4536)">
          <path
             d="m 0,0 c 0,0 -0.47,0.934 -0.438,1.299 -0.032,0.223 -0.039,0.275 -0.032,0.683 0,0 0.064,1.618 0.514,1.432 C 0.496,3.228 0.397,2.361 0.549,2.002 0.72,1.589 0.34,0.019 0.37,0.017 L 0,0"
             style="fill:#006021;fill-opacity:1;fill-rule:nonzero;stroke:none"
             id="path259511"
             inkscape:connector-curvature="0" />
        </g>
      </g>
    </g>
    <g
       id="g259513"
       transform="matrix(0.35277777,0,0,-0.35277777,-263.55466,262.33767)">
      <g
         id="g259515">
        <g
           id="g259521">
          <g
             id="g259523">
            <path
               d="m 653.823,141.637 c -1.027,-0.927 -1.966,-1.286 -4.658,-3.592 v 0 c -0.244,-0.386 0.332,-1.313 0.332,-1.313 v 0 c 0,0 0.796,0.633 1.099,0.84 v 0 c 3.509,1.806 7.023,-2.333 7.023,-2.333 v 0 c 0,0 0.576,0.716 0.783,0.584 v 0 c 1.892,-1.512 4.699,-0.803 4.699,-0.803 v 0 c 0,0 -3.548,1.264 -3.572,1.916 v 0 c 0.08,0.35 0.638,1.964 0.499,2.493 v 0 c -2.087,-1.65 -7.344,-0.117 -7.298,0.057 v 0 c 1.27,1.026 2.926,1.162 3.546,1.203 v 0 c 0.118,0.019 -1.9,0.517 -1.9,0.517 v 0 c 0,0 0.017,1.513 -0.094,1.626 v 0 c -0.152,-0.148 -0.331,-1.051 -0.459,-1.195"
               style="fill:url(#linearGradient259529);stroke:none"
               id="path259531"
               inkscape:connector-curvature="0" />
          </g>
        </g>
      </g>
    </g>
    <g
       id="g259533"
       transform="matrix(0.35277777,0,0,-0.35277777,-263.55466,262.33767)">
      <g
         id="g259535"
         clip-path="url(#clipPath259539)">
        <g
           id="g259541"
           transform="translate(640.4125,136.6985)">
          <path
             d="m 0,0 c 1.837,0.876 5.095,-0.013 5.095,-0.013 0.436,0.35 0.297,5.34 0.297,5.34 0,0 -0.538,0.275 -1.53,-0.431 0.016,0.015 -2.124,2.116 -2.124,2.116 0,0 2.127,2.218 2.098,2.228 0.775,-0.801 1.612,-0.558 1.612,-0.558 0,0 0.046,1.199 -0.575,1.754 0.008,0.007 2.15,2.617 2.15,2.617 l 0.009,0.037 c 0,0 2.144,-2.61 2.152,-2.615 C 8.56,9.917 8.61,8.719 8.61,8.719 c 0,0 0.834,-0.242 1.609,0.558 -0.026,-0.011 2.099,-2.229 2.099,-2.229 0,0 -2.141,-2.098 -2.125,-2.115 -0.99,0.706 -1.53,0.43 -1.53,0.43 L 8.654,1.818 c 0,0 0.029,-0.994 0.159,-1.517 0.132,-0.525 1.356,-0.004 1.356,-0.004 4.04,1.096 7.333,-2.209 7.333,-2.209 2.403,-2.632 5.385,-1.459 5.385,-1.459 l -0.229,-4.092 c 0,0 -1.678,-0.525 -1.738,-1.965 -0.169,-1.605 1.438,-2.397 1.438,-2.449 C 21.932,-29.312 9.855,-29.445 7.035,-33.548 l -0.014,-0.037 c -2.82,4.102 -14.897,4.235 -15.321,21.67 -10e-4,0.054 1.605,0.847 1.437,2.449 -0.059,1.442 -1.739,1.966 -1.739,1.966 l -0.228,4.092 c 0,0 3.111,-1.129 5.517,1.503 0,0 1.473,1.029 3.313,1.905"
             style="fill:#dab400;fill-opacity:1;fill-rule:nonzero;stroke:none"
             id="path259543"
             inkscape:connector-curvature="0" />
        </g>
        <g
           id="g259545"
           transform="translate(647.4337,103.9493)">
          <path
             d="m 0,0 c -3.313,3.747 -14.235,5.089 -14.76,20.523 0.049,-0.011 1.482,0.876 1.431,2.745 -0.308,1.87 -1.752,2.369 -1.752,2.369 l -0.146,3.098 c 0,0 2.047,-0.237 2.921,0.209 1.4,0.667 2.592,1.955 3.927,2.735 3.201,1.981 6.503,0.587 6.503,0.587 0,0 0.529,0.423 0.557,1.829 0.026,1.404 0.026,4.446 0.026,4.446 0,0 -1.024,0.144 -1.86,-0.361 0.005,-0.005 -1.58,1.585 -1.58,1.585 0,0 1.589,1.673 1.597,1.663 0.484,-0.582 1.855,-0.453 1.855,-0.453 0,0 0.1,1.538 -0.425,2.229 -0.013,0.016 1.739,2.034 1.739,2.034 0,0 1.699,-1.981 1.688,-1.996 -0.528,-0.691 -0.425,-2.231 -0.425,-2.231 0,0 1.371,-0.128 1.854,0.455 0.009,0.011 1.596,-1.663 1.596,-1.663 0,0 -1.584,-1.591 -1.578,-1.585 -0.838,0.503 -1.862,0.361 -1.862,0.361 0,0 0,-3.042 0.028,-4.447 0.026,-1.404 0.556,-1.829 0.556,-1.829 0,0 3.303,1.395 6.503,-0.588 1.336,-0.779 2.527,-2.066 3.927,-2.735 0.875,-0.444 2.922,-0.207 2.922,-0.207 l -0.147,-3.097 c 0,0 -1.445,-0.5 -1.751,-2.372 -0.053,-1.867 1.381,-2.756 1.43,-2.745 C 14.249,5.125 3.325,3.786 0.014,0.038 L 0,0"
             style="fill:#f6db00;fill-opacity:1;fill-rule:nonzero;stroke:none"
             id="path259547"
             inkscape:connector-curvature="0" />
        </g>
        <g
           id="g259549"
           transform="translate(646.2621,135.8973)">
          <path
             d="M 0,0 C 0.457,0.662 0.515,2.294 0.515,2.294 L 0.5,7.123 c 0,0 -1.876,0.115 -2.482,-0.297 0.025,-0.043 -0.874,0.938 -0.874,0.938 0,0 0.951,0.966 0.903,0.984 0.338,-0.424 2.439,-0.285 2.439,-0.285 0,0 0.052,2.397 -0.258,2.662 0.022,0.01 0.9,1.435 0.9,1.435 0,0 0.98,-1.388 1.002,-1.398 C 1.817,10.896 1.869,8.499 1.869,8.499 c 0,0 2.103,-0.139 2.439,0.286 -0.046,-0.019 0.905,-0.983 0.905,-0.983 0,0 -0.9,-0.983 -0.872,-0.939 C 3.733,7.277 1.856,7.162 1.856,7.162 L 1.843,2.333 c 0,0 0.058,-1.632 0.513,-2.296 -0.011,-0.02 -1.17,-1.398 -1.17,-1.398 0,0 -1.176,1.339 -1.186,1.361"
             style="fill:#1f3674;fill-opacity:1;fill-rule:nonzero;stroke:none"
             id="path259551"
             inkscape:connector-curvature="0" />
        </g>
        <g
           id="g259553"
           transform="translate(647.4337,104.5261)">
          <path
             d="m 0,0 c -1.161,2.696 -13.975,4.856 -14.134,19.61 0,0.04 1.585,0.735 1.531,3.102 -0.046,2.06 -1.935,2.825 -1.918,2.867 0.029,0.014 -0.122,2.056 -0.122,2.056 0,0 2.17,-0.206 3.012,0.318 1.249,0.581 6.046,5.437 9.151,2.671 0.398,-0.381 0.721,-0.101 1.245,-0.227 0.349,-0.286 1.23,-1.258 1.23,-1.258 0,0 0.903,1.008 1.254,1.294 0.524,0.129 0.848,-0.153 1.245,0.229 3.106,2.767 7.903,-2.092 9.151,-2.672 0.841,-0.524 3.012,-0.317 3.012,-0.317 0,0 -0.151,-2.044 -0.122,-2.055 0.016,-0.045 -1.871,-0.807 -1.919,-2.87 -0.053,-2.366 1.532,-3.061 1.532,-3.102 C 13.99,4.895 1.174,2.734 0.014,0.037 L 0,0"
             style="fill:#dab400;fill-opacity:1;fill-rule:nonzero;stroke:none"
             id="path259555"
             inkscape:connector-curvature="0" />
        </g>
        <g
           id="g259557"
           transform="translate(647.4434,105.2548)">
          <path
             d="m 0,0 c -0.934,1.993 -13.435,4.841 -13.521,18.559 0,0.063 1.644,0.976 1.499,3.45 -0.024,2.235 -2.002,3.201 -2.002,3.201 l -0.003,1.23 c 0,0 1.695,-0.38 3.162,0.63 2.114,1.579 5.54,4.431 7.947,2.588 0.491,-0.526 1.032,-0.218 1.621,-0.504 0.38,-0.333 1.286,-1.316 1.286,-1.316 0,0 0.921,1.019 1.304,1.352 0.587,0.287 1.127,-0.021 1.621,0.504 2.405,1.843 5.83,-1.009 7.946,-2.587 1.467,-1.011 3.161,-0.63 3.161,-0.63 l -0.002,-1.231 c 0,0 -1.978,-0.966 -2.003,-3.2 -0.143,-2.474 1.499,-3.386 1.499,-3.449 C 13.43,4.879 0.929,2.03 -0.006,0.036"
             style="fill:#1f3674;fill-opacity:1;fill-rule:nonzero;stroke:none"
             id="path259559"
             inkscape:connector-curvature="0" />
        </g>
        <g
           id="g259561"
           transform="translate(623.05,127.92)">
          <path
             d="M 0,0 C 0,0 0.167,-0.205 0.385,-0.472"
             style="fill:#ffffff;fill-opacity:1;fill-rule:nonzero;stroke:none"
             id="path259563"
             inkscape:connector-curvature="0" />
        </g>
        <g
           id="g259565"
           transform="translate(624.8568,121.0156)">
          <path
             d="M 0,0 -0.016,-0.032 C -0.048,-0.016 -0.079,0.064 -0.032,0.096 0,0.081 0.016,0.031 0,0"
             style="fill:#000000;fill-opacity:1;fill-rule:nonzero;stroke:none"
             id="path259567"
             inkscape:connector-curvature="0" />
        </g>
      </g>
    </g>
    <g
       id="g259569"
       transform="matrix(0.35277777,0,0,-0.35277777,-263.55466,262.33767)">
      <g
         id="g259571"
         clip-path="url(#clipPath259575)">
        <g
           id="g259577"
           transform="translate(629.9448,116.1827)">
          <path
             d="M 0,0 C -0.175,-0.096 -0.382,-0.158 -0.588,-0.128"
             style="fill:#ffffff;fill-opacity:1;fill-rule:nonzero;stroke:none"
             id="path259579"
             inkscape:connector-curvature="0" />
        </g>
        <g
           id="g259581"
           transform="translate(647.1314,88.0247)">
          <path
             d="M 0,0 C -2.377,0.211 0.034,5.953 -0.267,7.169 -0.092,7.217 0.082,7.058 0.227,6.976 0.536,6.982 0.729,7.203 0.814,7.136 L 0.853,5.799 C 0.724,4.479 2.102,0.031 0,0 m 27.618,16.694 c -1.607,2.92 -7.66,0.666 -9.01,0.448 -0.543,-0.094 -1.224,-0.16 -1.224,-0.16 0.004,-0.002 -2.162,-0.273 -2.222,-0.618 0.028,-0.674 -0.021,-1.545 -0.06,-1.971 0.028,-0.019 -1.458,0.335 -2.446,0.728 -0.524,0.24 -2.921,1.007 -2.921,1.007 C 9.727,16.119 2.737,18.151 2.871,15.779 2.867,15.335 3.41,15.01 3.698,14.639 3.833,14.481 2.771,13.65 0.316,13.647 c -2.508,0.015 -3.39,0.724 -3.472,0.996 0,0 0.808,0.732 0.761,1.017 -0.038,1.652 -3.484,1.288 -5.462,1.005 l -0.502,-0.063 c 0,0 -1.16,-0.229 -1.414,-0.278 l -0.796,-0.17 c -0.695,-0.287 -5.282,-1.622 -6.888,-1.399 -2.611,0.2 -0.579,0.953 -0.823,0.864 l 0.162,0.122 c 0.732,0.333 1.777,0.505 2.446,0.98 0.302,0.255 0.396,0.834 0.22,1.139 -0.491,0.861 -2.944,1.597 -2.944,1.597 0,-0.05 -4.461,1.313 -7.345,0.225 -0.493,-0.142 -1.113,-0.365 -1.288,-0.888 -0.032,-0.716 0.986,-3.149 0.287,-4.102 -0.159,-0.493 0.207,-0.876 0.525,-1.145 0.523,-0.254 1.112,-0.701 1.765,-0.382 0.126,0.063 0.254,0.206 0.206,0.382 -0.016,0.03 0.028,1.251 0.034,1.445 0.855,0.074 1.757,0.021 2.541,-0.159 0.684,-0.237 1.781,-0.455 1.768,-0.444 0.08,-0.699 0.554,-1.844 0.618,-2.545 0.143,-0.459 -0.112,-0.873 -0.032,-1.318 0.127,-0.636 0.81,-0.907 1.319,-1.161 2.295,-0.541 7.584,1.065 9,1.43 3.842,0.959 5.039,0.583 5.039,0.583 0,0 -1.103,-0.153 -1.24,-0.88 -0.111,-0.254 -0.223,-0.639 -0.223,-0.639 0,0 -3.036,-0.129 -4.117,-0.336 -1.716,-0.269 -6.021,-2.227 -4.85,-4.467 0.413,-0.572 0.573,-1.209 1.194,-1.668 0.508,-0.336 1.016,-0.812 1.366,-1.306 0.302,-0.699 1.855,-1.329 3.355,-0.366 1.807,1.098 1.86,2.084 2.814,3.085 0.041,0.022 1.029,1.099 1.723,1.823 0.369,0.384 1.213,1.027 1.228,1 C -2.271,7.517 -2.848,6.693 -2.835,6.656 -3.991,2.915 -4.308,1.288 -4.229,0.954 c 0.112,-0.73 0.302,-1.166 0.827,-1.739 0.747,-0.573 2.014,-1.049 3.752,-1.102 1.24,0.095 3.133,-0.249 3.911,2.369 C 4.42,1.625 3.037,6.148 2.824,6.788 2.749,6.976 2.485,7.433 3.115,7.457 3.061,7.451 3.568,7.339 3.599,7.333 5.565,5.927 7.372,2.308 8.196,1.979 8.849,1.343 10.365,1.2 11.21,1.47 c 0.524,0.208 0.604,0.994 1.287,1.535 0.334,0.207 2.576,3.044 2.257,3.316 C 14.246,8.602 10.638,9.5 8.109,9.675 6.845,9.89 6.135,9.593 5.65,9.965 c 0.09,0.753 -1.084,1.413 -1.106,1.46 2.882,1.945 13.799,-5.6 16.019,-3.03 0.619,0.835 0.724,3.069 0.854,4.238 0.027,0.004 1.19,0.393 1.77,0.532 0.747,0.079 1.997,0.583 2.29,0.079 0.291,-0.503 -0.409,-2.143 -0.409,-2.143 l 0.18,-0.195 c 0.716,0.079 1.16,0.733 1.313,2.244 0.033,0.874 0.176,1.377 0.559,2.172 0.332,0.555 0.736,0.673 0.498,1.372"
             style="fill:#c9a600;fill-opacity:1;fill-rule:nonzero;stroke:none"
             id="path259583"
             inkscape:connector-curvature="0" />
        </g>
      </g>
    </g>
    <g
       id="g259585"
       transform="matrix(0.35277777,0,0,-0.35277777,-263.55466,262.33767)">
      <g
         id="g259587"
         clip-path="url(#clipPath259591)">
        <g
           id="g259593"
           transform="translate(647.394,116.2724)">
          <path
             d="M 0,0 6.21,-3.516 4.628,3.563 10.016,8.262 2.791,8.661 0,15.57 -2.777,8.661 -10.025,8.262 -4.602,3.563 -6.184,-3.516 Z"
             style="fill:#dab400;fill-opacity:1;fill-rule:nonzero;stroke:none"
             id="path259595"
             inkscape:connector-curvature="0" />
        </g>
        <g
           id="g259597"
           transform="translate(647.4614,121.2333)">
          <path
             d="M 0,0 8.773,2.907 2.445,3.23 Z"
             style="fill:#f6db00;fill-opacity:1;fill-rule:nonzero;stroke:none"
             id="path259599"
             inkscape:connector-curvature="0" />
        </g>
        <g
           id="g259601"
           transform="translate(647.3409,121.2011)">
          <path
             d="m 0,0 -5.275,-7.353 1.635,6.12 z"
             style="fill:#f6db00;fill-opacity:1;fill-rule:nonzero;stroke:none"
             id="path259603"
             inkscape:connector-curvature="0" />
        </g>
        <g
           id="g259605"
           transform="translate(647.4389,121.2437)">
          <path
             d="m 0,0 5.363,-7.398 -1.635,6.12 z"
             style="fill:#f6db00;fill-opacity:1;fill-rule:nonzero;stroke:none"
             id="path259607"
             inkscape:connector-curvature="0" />
        </g>
        <g
           id="g259609"
           transform="translate(647.4284,130.5227)">
          <path
             d="M 0,0 -2.398,-6.107 -8.726,-6.431 0.002,-9.296 Z"
             style="fill:#f6db00;fill-opacity:1;fill-rule:nonzero;stroke:none"
             id="path259611"
             inkscape:connector-curvature="0" />
        </g>
        <g
           id="g259613"
           transform="translate(636.7153,118.1143)">
          <path
             d="M 0,0 0.15,-0.502 2.808,0.664 Z"
             style="fill:#f6db00;fill-opacity:1;fill-rule:nonzero;stroke:none"
             id="path259615"
             inkscape:connector-curvature="0" />
        </g>
        <g
           id="g259617"
           transform="translate(637.5719,117.2143)">
          <path
             d="M 0,0 0.272,-0.447 2.554,1.346 Z"
             style="fill:#f6db00;fill-opacity:1;fill-rule:nonzero;stroke:none"
             id="path259619"
             inkscape:connector-curvature="0" />
        </g>
        <g
           id="g259621"
           transform="translate(636.9674,119.4086)">
          <path
             d="M 0,0 0.021,-0.524 2.886,-0.06 Z"
             style="fill:#f6db00;fill-opacity:1;fill-rule:nonzero;stroke:none"
             id="path259623"
             inkscape:connector-curvature="0" />
        </g>
        <g
           id="g259625"
           transform="translate(657.6299,118.2011)">
          <path
             d="M 0,0 -0.152,-0.502 -2.809,0.665 Z"
             style="fill:#f6db00;fill-opacity:1;fill-rule:nonzero;stroke:none"
             id="path259627"
             inkscape:connector-curvature="0" />
        </g>
        <g
           id="g259629"
           transform="translate(656.7733,117.3019)">
          <path
             d="M 0,0 -0.272,-0.447 -2.556,1.347 Z"
             style="fill:#f6db00;fill-opacity:1;fill-rule:nonzero;stroke:none"
             id="path259631"
             inkscape:connector-curvature="0" />
        </g>
        <g
           id="g259633"
           transform="translate(657.3777,119.4961)">
          <path
             d="m 0,0 -0.022,-0.523 -2.864,0.461 z"
             style="fill:#f6db00;fill-opacity:1;fill-rule:nonzero;stroke:none"
             id="path259635"
             inkscape:connector-curvature="0" />
        </g>
        <g
           id="g259637"
           transform="translate(639.8843,132.1821)">
          <path
             d="M 0,0 -0.615,-0.425 2.141,-3.529 Z"
             style="fill:#f6db00;fill-opacity:1;fill-rule:nonzero;stroke:none"
             id="path259639"
             inkscape:connector-curvature="0" />
        </g>
        <g
           id="g259641"
           transform="translate(639.5148,130.1442)">
          <path
             d="M 0,0 -0.33,-0.487 2.477,-2.408 Z"
             style="fill:#f6db00;fill-opacity:1;fill-rule:nonzero;stroke:none"
             id="path259643"
             inkscape:connector-curvature="0" />
        </g>
        <g
           id="g259645"
           transform="translate(641.3866,131.4497)">
          <path
             d="M 0,0 0.564,0.165 1.531,-3.096 Z"
             style="fill:#f6db00;fill-opacity:1;fill-rule:nonzero;stroke:none"
             id="path259647"
             inkscape:connector-curvature="0" />
        </g>
        <g
           id="g259649"
           transform="translate(654.5476,131.7122)">
          <path
             d="M 0,0 0.614,-0.425 -2.141,-3.528 Z"
             style="fill:#f6db00;fill-opacity:1;fill-rule:nonzero;stroke:none"
             id="path259651"
             inkscape:connector-curvature="0" />
        </g>
        <g
           id="g259653"
           transform="translate(654.9164,129.6736)">
          <path
             d="m 0,0 0.329,-0.485 -2.807,-1.92 z"
             style="fill:#f6db00;fill-opacity:1;fill-rule:nonzero;stroke:none"
             id="path259655"
             inkscape:connector-curvature="0" />
        </g>
        <g
           id="g259657"
           transform="translate(653.0446,130.9791)">
          <path
             d="m 0,0 -0.563,0.167 -0.968,-3.26 z"
             style="fill:#f6db00;fill-opacity:1;fill-rule:nonzero;stroke:none"
             id="path259659"
             inkscape:connector-curvature="0" />
        </g>
        <g
           id="g259661"
           transform="translate(647.7299,108.1882)">
          <path
             d="m 0,0 -0.748,-0.007 0.47,4.126 z"
             style="fill:#f6db00;fill-opacity:1;fill-rule:nonzero;stroke:none"
             id="path259663"
             inkscape:connector-curvature="0" />
        </g>
        <g
           id="g259665"
           transform="translate(646.2561,109.6426)">
          <path
             d="M 0,0 -0.55,0.208 0.642,3.393 Z"
             style="fill:#f6db00;fill-opacity:1;fill-rule:nonzero;stroke:none"
             id="path259667"
             inkscape:connector-curvature="0" />
        </g>
        <g
           id="g259669"
           transform="translate(648.5372,109.6515)">
          <path
             d="M 0,0 0.558,0.191 -0.527,3.412 Z"
             style="fill:#f6db00;fill-opacity:1;fill-rule:nonzero;stroke:none"
             id="path259671"
             inkscape:connector-curvature="0" />
        </g>
        <g
           id="g259673"
           transform="translate(644.9948,124.427)">
          <path
             d="M 0,0 2.396,-3.151"
             style="fill:none;stroke:#dab400;stroke-width:0.383;stroke-linecap:butt;stroke-linejoin:miter;stroke-miterlimit:4;stroke-dasharray:none;stroke-opacity:1"
             id="path259675"
             inkscape:connector-curvature="0" />
        </g>
        <g
           id="g259677"
           transform="translate(644.5295,103.6733)">
          <path
             d="M 0,0 0.205,0.073 V -1.756 L 0,-1.788 Z"
             style="fill:#dab400;fill-opacity:1;fill-rule:nonzero;stroke:none"
             id="path259679"
             inkscape:connector-curvature="0" />
        </g>
        <g
           id="g259681"
           transform="translate(650.0349,104.0369)">
          <path
             d="M 0,0 0.198,-0.237 V -2.066 H 0 Z"
             style="fill:#dab400;fill-opacity:1;fill-rule:nonzero;stroke:none"
             id="path259683"
             inkscape:connector-curvature="0" />
        </g>
      </g>
    </g>
    <g
       id="g259685"
       transform="matrix(0.35277777,0,0,-0.35277777,-263.55466,262.33767)">
      <g
         id="g259687">
        <g
           id="g259693">
          <g
             id="g259695">
            <path
               d="m 651.975,96.527 c -0.191,-0.27 -1.135,-0.462 -0.91,-0.891 v 0 c 0.794,-0.795 1.779,-1.526 2.288,-2.51 v 0 c 0.621,-0.844 1.13,-1.798 1.971,-2.531 v 0 c 0.949,-0.783 1.432,-0.651 2.242,-0.762 v 0 c 1.051,0 1.114,1.178 1.781,1.685 v 0 c 0.398,0.462 0.891,0.924 1.321,1.368 v 0 c 0.397,0.476 0.92,1.128 0.523,1.782 v 0 c -0.301,0.651 -1.017,0.985 -1.541,1.397 v 0 c -0.97,0.605 -2.051,0.954 -3.228,1.081 v 0 c -1.048,0.207 -2.146,0.272 -3.228,0.414 v 0 c -0.06,0.014 -0.115,0.019 -0.166,0.019 v 0 c -0.567,0 -0.601,-0.761 -1.053,-1.052"
               style="fill:url(#linearGradient259701);stroke:none"
               id="path259703"
               inkscape:connector-curvature="0" />
          </g>
        </g>
      </g>
    </g>
    <g
       id="g259705"
       transform="matrix(0.35277777,0,0,-0.35277777,-263.55466,262.33767)">
      <g
         id="g259707"
         clip-path="url(#clipPath259711)">
        <g
           id="g259713"
           transform="translate(651.2319,96.0027)">
          <path
             d="M 0,0 C 0.016,-0.173 2.25,-0.874 2.345,-0.985 3.411,-1.604 4.492,-2.208 5.462,-2.988 8.058,-4.769 6.299,-6.43 3.667,-4.721 7.674,-7.193 7.515,-4.821 6.973,-4.038 6.527,-3.147 4.548,-1.692 2.188,-0.587 2.029,-0.625 0.126,0.316 0,0"
             style="fill:#dab400;fill-opacity:1;fill-rule:nonzero;stroke:none"
             id="path259715"
             inkscape:connector-curvature="0" />
        </g>
        <g
           id="g259717"
           transform="translate(672.356,99.4052)">
          <path
             d="M 0,0 -0.168,-0.382 -0.182,2.216 0.07,2.083 V 0.161 Z"
             style="fill:#cab30a;fill-opacity:1;fill-rule:nonzero;stroke:none"
             id="path259719"
             inkscape:connector-curvature="0" />
        </g>
        <g
           id="g259721"
           transform="translate(631.6841,105.1845)">
          <path
             d="m 0,0 v -2.34 l -0.307,-0.019 0.053,2.385 z"
             style="fill:#dab400;fill-opacity:1;fill-rule:nonzero;stroke:none"
             id="path259723"
             inkscape:connector-curvature="0" />
        </g>
        <g
           id="g259725"
           transform="translate(656.587,106.6912)">
          <path
             d="m 0,0 c 0.105,-0.191 0.09,-1.056 0.09,-1.056 -0.081,-0.483 -0.15,-1.141 -0.372,-1.152 -0.328,0.394 -0.237,0.78 -0.128,1.387 0,0 0.306,1.01 0.41,0.821"
             style="fill:#007f2d;fill-opacity:1;fill-rule:nonzero;stroke:none"
             id="path259727"
             inkscape:connector-curvature="0" />
        </g>
        <g
           id="g259729"
           transform="translate(660.873,103.1017)">
          <path
             d="m 0,0 c -0.153,-0.084 -1.421,0.341 -1.95,0.463 0.349,0.153 0.52,0.045 1.126,-0.06 0,0 1.014,-0.299 0.824,-0.403"
             style="fill:#007f2d;fill-opacity:1;fill-rule:nonzero;stroke:none"
             id="path259731"
             inkscape:connector-curvature="0" />
        </g>
        <g
           id="g259733"
           transform="translate(662.9513,114.45)">
          <path
             d="M 0,0 C 0.278,0.06 0.267,-0.791 0.329,-1.062 0.361,-1.81 0.696,-2.493 0.536,-3.256 0.441,-3.303 0.473,-3.478 0.329,-3.446 0.043,-3.191 0.107,-2.748 -0.051,-2.429 -0.115,-2.16 -0.096,-0.017 0,0"
             style="fill:#007f2d;fill-opacity:1;fill-rule:nonzero;stroke:none"
             id="path259735"
             inkscape:connector-curvature="0" />
        </g>
        <g
           id="g259737"
           transform="translate(658.0585,105.4411)">
          <path
             d="M 0,0 C -0.126,-0.049 -0.143,0.079 -0.189,0.143 -0.236,0.301 0.716,3.881 1.099,3.585 1.216,3.367 0.864,1.603 0.652,1.081 0.652,1.081 0.129,0.11 0,0"
             style="fill:#007f2d;fill-opacity:1;fill-rule:nonzero;stroke:none"
             id="path259739"
             inkscape:connector-curvature="0" />
        </g>
        <g
           id="g259741"
           transform="translate(661.779,110.9271)">
          <path
             d="m 0,0 c -0.043,0.502 0.187,1.089 -0.084,1.487 -0.079,0.064 -0.127,0 -0.206,-0.015 -0.445,-1.098 -0.463,-2.48 -0.287,-3.705 0.111,-0.11 0.239,-0.017 0.271,0.094 0.095,0.161 0.126,0.351 0.222,0.511 L 0,0"
             style="fill:#007f2d;fill-opacity:1;fill-rule:nonzero;stroke:none"
             id="path259743"
             inkscape:connector-curvature="0" />
        </g>
        <g
           id="g259745"
           transform="translate(673.11,115.7996)">
          <path
             d="M 0,0 C 0.064,-0.269 -0.111,-0.508 -0.237,-0.698 -0.334,-0.842 -0.44,-0.807 -0.861,-1.26 -1.276,-1.801 -1.6,-2.001 -2.076,-2.272 c -0.763,-0.429 -1.389,-0.716 -2.216,-0.97 -0.111,-0.033 -0.269,-0.048 -0.365,0.017 0,0.062 0.046,0.111 0.079,0.175 0.843,0.683 1.654,1.493 2.559,2.162 C -1.733,-0.619 -0.235,0.096 0,0"
             style="fill:#007f2d;fill-opacity:1;fill-rule:nonzero;stroke:none"
             id="path259747"
             inkscape:connector-curvature="0" />
        </g>
        <g
           id="g259749"
           transform="translate(666.6089,125.2776)">
          <path
             d="m 0,0 c 0.191,-0.732 0.541,-1.4 0.731,-2.13 0.047,-0.494 0.286,-0.94 0.19,-1.449 -0.19,0.111 -0.348,0.351 -0.397,0.572 -0.462,0.845 -0.731,1.783 -1.128,2.657 C -0.683,-0.049 -0.827,0.238 -0.89,0.555 -1.209,1.177 -1.527,2.574 -1.32,2.687 -1.034,2.874 -0.239,0.715 0,0"
             style="fill:#007f2d;fill-opacity:1;fill-rule:nonzero;stroke:none"
             id="path259751"
             inkscape:connector-curvature="0" />
        </g>
        <g
           id="g259753"
           transform="translate(670.5186,133.2908)">
          <path
             d="M 0,0 C -0.079,-0.082 -0.111,0.062 -0.174,0.111 -0.365,0.746 0.248,3.879 0.423,4.769 0.517,5.198 0.482,6.104 0.752,6.454 1.173,6.478 0.938,4.801 1.051,4.228 1.145,3.673 0.35,0.237 0,0"
             style="fill:#007f2d;fill-opacity:1;fill-rule:nonzero;stroke:none"
             id="path259755"
             inkscape:connector-curvature="0" />
        </g>
        <g
           id="g259757"
           transform="translate(670.6786,110.5381)">
          <path
             d="m 0,0 c -0.493,-0.747 -1.335,-1.224 -2.115,-1.621 -1.049,-0.669 -2.337,-0.763 -3.465,-1.225 -0.811,-0.17 -1.079,-0.322 -1.91,-0.417 0,0 0.987,0.879 1.32,0.99 1.098,0.333 2.18,0.748 3.213,1.177 0.509,0.349 1.05,0.699 1.494,1.096 C -1.002,0.272 0.741,0.699 0,0"
             style="fill:#007f2d;fill-opacity:1;fill-rule:nonzero;stroke:none"
             id="path259759"
             inkscape:connector-curvature="0" />
        </g>
        <g
           id="g259761"
           transform="translate(667.8163,140.3179)">
          <path
             d="m 0,0 c 0.365,-0.78 0.361,-0.959 0.715,-2.422 0.43,-1.415 0.731,-2.968 0.684,-4.526 -0.046,-0.064 -0.111,-0.017 -0.175,0 -0.97,1.351 -1.558,2.892 -1.828,4.564 -0.143,0.54 -0.015,1.191 -0.143,1.747 0,0.51 0,0.938 0.08,1.417 0.033,0.062 0.158,0.078 0.205,0.032 C -0.223,0.604 -0.159,0.271 0,0"
             style="fill:#007f2d;fill-opacity:1;fill-rule:nonzero;stroke:none"
             id="path259763"
             inkscape:connector-curvature="0" />
        </g>
        <g
           id="g259765"
           transform="translate(673.3345,133.7823)">
          <path
             d="m 0,0 c -0.144,-0.634 -0.287,-1.271 -0.525,-1.858 -0.62,-1.178 -1.178,-2.481 -2.099,-3.483 -0.063,0 -0.175,-0.017 -0.16,0.079 0.286,1.686 2.513,5.931 2.72,6.074 C 0.174,0.669 0.015,0.272 0,0"
             style="fill:#007f2d;fill-opacity:1;fill-rule:nonzero;stroke:none"
             id="path259767"
             inkscape:connector-curvature="0" />
        </g>
        <g
           id="g259769"
           transform="translate(667.0854,129.236)">
          <path
             d="M 0,0 C 0.762,-1.496 0.984,-2.527 1.414,-4.134 1.478,-4.749 1.86,-5.788 1.876,-6.313 1.797,-6.392 1.578,-6.11 1.499,-6.031 1.071,-5.395 0.762,-4.234 0.525,-3.486 0.556,-3.36 -0.128,-1.414 -0.414,-0.175 -0.366,0.096 -0.493,0.319 -0.445,0.556 -0.19,0.477 -0.206,0.144 0,0"
             style="fill:#007f2d;fill-opacity:1;fill-rule:nonzero;stroke:none"
             id="path259771"
             inkscape:connector-curvature="0" />
        </g>
        <g
           id="g259773"
           transform="translate(673.3495,128.6315)">
          <path
             d="m 0,0 c 0.016,-0.523 -0.222,-0.938 -0.319,-1.414 -0.125,-0.334 -0.254,-0.605 -0.397,-0.923 -0.207,-0.287 -0.237,-0.636 -0.461,-0.906 -0.094,-0.254 -0.269,-0.461 -0.398,-0.7 -0.397,-0.635 -0.953,-1.161 -1.43,-1.749 -0.112,0 -0.159,-0.143 -0.27,-0.095 -0.08,0.811 0.461,1.446 0.698,2.147 0.049,0.095 0.081,0.207 0.143,0.301 0.304,0.795 0.924,1.447 1.289,2.226 0.365,0.414 0.541,0.969 0.97,1.273 C -0.032,0.222 -0.047,0.047 0,0"
             style="fill:#007f2d;fill-opacity:1;fill-rule:nonzero;stroke:none"
             id="path259775"
             inkscape:connector-curvature="0" />
        </g>
        <g
           id="g259777"
           transform="translate(666.7832,117.7403)">
          <path
             d="m 0,0 c -0.174,0.08 -0.174,0.335 -0.317,0.478 -0.032,0.302 -0.255,0.509 -0.304,0.795 -0.476,0.921 -0.683,1.97 -0.97,2.971 -0.19,0.845 -0.365,1.704 -0.491,2.562 -0.064,0.238 0.159,0.906 0.397,0.381 C -1.161,6.185 -0.796,5.089 -0.542,3.958 -0.238,3.418 0.217,0.433 0,0"
             style="fill:#007f2d;fill-opacity:1;fill-rule:nonzero;stroke:none"
             id="path259779"
             inkscape:connector-curvature="0" />
        </g>
        <g
           id="g259781"
           transform="translate(673.4453,123.8457)">
          <path
             d="m 0,0 c -0.128,-0.684 -0.652,-1.224 -0.922,-1.811 -0.366,-0.367 -0.62,-0.827 -1.002,-1.146 -0.748,-0.7 -1.447,-1.431 -2.306,-1.957 -0.046,0.351 0.239,0.622 0.319,0.956 0.54,0.937 1.096,1.796 1.955,2.495 0.636,0.493 1.098,1.177 1.781,1.56 C -0.096,0.129 -0.032,0.047 0,0"
             style="fill:#007f2d;fill-opacity:1;fill-rule:nonzero;stroke:none"
             id="path259783"
             inkscape:connector-curvature="0" />
        </g>
        <g
           id="g259785"
           transform="translate(665.9834,114.6184)">
          <path
             d="m 0,0 c -0.064,-0.126 -0.09,-0.455 -0.218,-0.471 -0.27,0.428 -0.413,0.922 -0.523,1.43 -0.336,0.795 -0.368,1.701 -0.606,2.544 -0.16,1.147 -0.333,2.291 -0.221,3.515 0.031,0.174 0.061,0.365 0.204,0.477 0.24,-0.303 0.367,-0.731 0.448,-1.13 0.412,-0.889 0.73,-1.812 0.762,-2.862 C -0.139,2.534 0.053,1.644 0.068,0.691 L 0,0"
             style="fill:#007f2d;fill-opacity:1;fill-rule:nonzero;stroke:none"
             id="path259787"
             inkscape:connector-curvature="0" />
        </g>
        <g
           id="g259789"
           transform="translate(672.1255,120.0453)">
          <path
             d="M 0,0 C 0.254,-0.476 -0.052,-0.799 -0.239,-1.24 -0.398,-1.78 -0.731,-2.256 -1.017,-2.718 -1.59,-3.562 -2.306,-4.276 -3.1,-4.879 l -0.192,-0.065 c 0,0.27 0.207,0.508 0.318,0.763 0.573,1.161 1.367,2.179 2.132,3.229 0.048,0.157 0.555,0.937 0.826,0.952 H 0"
             style="fill:#007f2d;fill-opacity:1;fill-rule:nonzero;stroke:none"
             id="path259791"
             inkscape:connector-curvature="0" />
        </g>
        <g
           id="g259793"
           transform="translate(672.7682,118.5198)">
          <path
             d="m 0,0 c 0.017,-0.064 -0.645,-0.45 -0.731,-0.534 0,0 0.109,0.357 0.206,0.421 C -0.51,-0.145 -0.014,0 0,0"
             style="fill:#007f2d;fill-opacity:1;fill-rule:nonzero;stroke:none"
             id="path259795"
             inkscape:connector-curvature="0" />
        </g>
        <g
           id="g259797"
           transform="translate(669.8909,117.753)">
          <path
             d="M 0,0 C 0.015,-0.016 -0.875,-1.216 -1.049,-1.297 -1.096,-1.312 -1.395,-1.698 -1.445,-1.681 -1.567,-1.252 -0.239,-0.016 0,0"
             style="fill:#007f2d;fill-opacity:1;fill-rule:nonzero;stroke:none"
             id="path259799"
             inkscape:connector-curvature="0" />
        </g>
        <g
           id="g259801"
           transform="translate(667.4774,109.7473)">
          <path
             d="m 0,0 c 0,0 -0.551,0.441 -0.964,0.504 -0.065,0.048 -0.112,0.097 -0.08,0.191 l 0.095,0.096 c 0.589,0.128 1.696,0.461 2.3,0.191 L 0,0"
             style="fill:#007f2d;fill-opacity:1;fill-rule:nonzero;stroke:none"
             id="path259803"
             inkscape:connector-curvature="0" />
        </g>
        <g
           id="g259805"
           transform="translate(660.249,109.9508)">
          <path
             d="m 0,0 c -0.064,-0.955 0,-1.972 -0.509,-2.735 -0.285,0.81 -0.017,1.747 0.175,2.56 0,0.126 0.111,0.19 0.095,0.333 C -0.129,0.397 0.032,0.158 0,0"
             style="fill:#007f2d;fill-opacity:1;fill-rule:nonzero;stroke:none"
             id="path259807"
             inkscape:connector-curvature="0" />
        </g>
        <g
           id="g259809"
           transform="translate(671.1081,109.4339)">
          <path
             d="m 0,0 c 0.346,-0.481 0.441,-0.722 0.419,-0.744 -0.198,0.148 -1.665,0.481 -1.665,0.481 l 0.843,0.769 c 0,0 0.307,-0.427 0.403,-0.506"
             style="fill:#007f2d;fill-opacity:1;fill-rule:nonzero;stroke:none"
             id="path259811"
             inkscape:connector-curvature="0" />
        </g>
        <g
           id="g259813"
           transform="translate(666.2655,106.9089)">
          <path
             d="m 0,0 c 0.068,-0.169 -0.154,-0.278 -0.409,-0.548 -0.662,-0.435 -2.581,-1.604 -4.877,-1.467 -0.143,0.286 0.272,0.444 0.43,0.587 0.206,0.032 0.333,0.24 0.525,0.286 C -3.092,-0.49 -0.071,0.168 0,0"
             style="fill:#007f2d;fill-opacity:1;fill-rule:nonzero;stroke:none"
             id="path259815"
             inkscape:connector-curvature="0" />
        </g>
        <g
           id="g259817"
           transform="translate(667.1969,131.7527)">
          <path
             d="M 0,0 C 0,0 0.525,-1.818 0.985,-2.485 1.256,-2.899 2.066,-3.533 2.098,-3.487 2.226,-3.36 2.115,-3.168 2.129,-3.025 1.893,-1.912 1.542,-0.831 1.066,0.171 0.747,0.726 0.54,1.284 0.19,1.825 0.126,2.079 -0.079,2.316 -0.208,2.556 -0.382,2.794 -0.526,3.049 -0.763,3.175 -0.923,2.985 -0.795,2.698 -0.748,2.491 L -0.551,1.872 0,0"
             style="fill:#007f2d;fill-opacity:1;fill-rule:nonzero;stroke:none"
             id="path259819"
             inkscape:connector-curvature="0" />
        </g>
        <g
           id="g259821"
           transform="translate(663.0455,116.4879)">
          <path
             d="M 0,0 C 0.235,0.16 0.551,-0.628 0.713,-0.852 1.032,-1.53 1.505,-2.669 1.651,-3.433 1.581,-3.514 1.718,-3.563 1.574,-3.591 1.211,-3.465 1.158,-2.493 0.889,-2.262 0.726,-2.036 -0.081,-0.053 0,0"
             style="fill:#007f2d;fill-opacity:1;fill-rule:nonzero;stroke:none"
             id="path259823"
             inkscape:connector-curvature="0" />
        </g>
        <g
           id="g259825"
           transform="translate(633.3465,103.3935)">
          <path
             d="M 0,0 C 0.14,0.168 0.951,0.466 0.951,0.466 1.43,0.566 2.068,0.74 2.158,0.539 1.344,0.218 1.692,0.428 0.913,0.178 0.913,0.178 -0.141,-0.166 0,0"
             style="fill:#007f2d;fill-opacity:1;fill-rule:nonzero;stroke:none"
             id="path259827"
             inkscape:connector-curvature="0" />
        </g>
        <g
           id="g259829"
           transform="translate(639.0023,107.2314)">
          <path
             d="M 0,0 C 0.132,-0.174 0.251,-1.028 0.251,-1.028 0.245,-1.519 0.28,-2.177 0.063,-2.224 c -0.386,0.337 -0.355,0.734 -0.342,1.35 0,0 0.147,1.047 0.279,0.874"
             style="fill:#007f2d;fill-opacity:1;fill-rule:nonzero;stroke:none"
             id="path259831"
             inkscape:connector-curvature="0" />
        </g>
        <g
           id="g259833"
           transform="translate(625.0311,115.9111)">
          <path
             d="m 0,0 c -0.365,-0.061 -1.356,-0.1 -1.579,-0.418 -0.009,0.027 1.33,-0.326 1.426,-0.372 0.13,0.001 0.318,-0.269 0.763,0.034 0.179,0.273 0.024,0.519 -0.375,0.713 L 0,0"
             style="fill:#007f2d;fill-opacity:1;fill-rule:nonzero;stroke:none"
             id="path259835"
             inkscape:connector-curvature="0" />
        </g>
        <g
           id="g259837"
           transform="translate(624.2844,136.1045)">
          <path
             d="M 0,0 C -0.08,0.763 -0.334,1.464 -0.462,2.226 -0.524,2.463 -0.653,2.719 -0.811,2.893 -0.859,2.942 -0.875,2.862 -0.922,2.862 -1.176,2.209 -1.032,1.479 -1.129,0.763 c 0.016,-1.24 0.218,-2.534 0.981,-3.504 0.046,-0.126 0.068,-0.248 0.179,-0.344 0.112,-0.079 0.223,0.032 0.271,0.128 0.144,0.62 -0.175,1.239 -0.128,1.891 L 0,0"
             style="fill:#007f2d;fill-opacity:1;fill-rule:nonzero;stroke:none"
             id="path259839"
             inkscape:connector-curvature="0" />
        </g>
        <g
           id="g259841"
           transform="translate(629.2617,107.8186)">
          <path
             d="M 0,0 C 0.269,-0.047 0.683,-0.19 0.89,0.032 0.827,0.367 0.397,0.479 0.158,0.7 -0.049,0.765 -0.176,0.923 -0.397,0.955 -0.97,1.288 -2.051,1.888 -2.751,1.938 -2.831,1.92 -0.812,0 0,0"
             style="fill:#007f2d;fill-opacity:1;fill-rule:nonzero;stroke:none"
             id="path259843"
             inkscape:connector-curvature="0" />
        </g>
        <g
           id="g259845"
           transform="translate(621.072,115.0328)">
          <path
             d="m 0,0 c -0.007,-0.545 1.996,-1.187 2.743,-1.377 l 2.251,-0.24 C 5.169,-1.57 5.359,-1.57 5.502,-1.459 5.487,-1.14 5.153,-0.997 4.929,-0.79 3.487,0.334 -0.021,0.227 0,0"
             style="fill:#007f2d;fill-opacity:1;fill-rule:nonzero;stroke:none"
             id="path259847"
             inkscape:connector-curvature="0" />
        </g>
        <g
           id="g259849"
           transform="translate(628.3235,141.0182)">
          <path
             d="m 0,0 c 0.063,-0.669 -0.096,-1.288 -0.272,-1.861 -0.254,-1.113 -0.651,-2.162 -1.048,-3.228 -0.255,-0.587 -0.557,-1.113 -0.938,-1.668 -0.143,-0.082 -0.191,0.094 -0.223,0.19 -0.159,1.209 0.047,2.48 0.398,3.576 0.398,0.622 0.551,1.951 1.654,2.785 C -0.382,-0.049 -0.16,0.126 0,0"
             style="fill:#007f2d;fill-opacity:1;fill-rule:nonzero;stroke:none"
             id="path259851"
             inkscape:connector-curvature="0" />
        </g>
        <g
           id="g259853"
           transform="translate(629.4046,136.4382)">
          <path
             d="m 0,0 c -0.111,-1.446 -0.97,-2.592 -1.558,-3.816 -0.398,-0.476 -0.716,-1.081 -1.114,-1.606 -0.174,-0.206 -0.365,-0.62 -0.683,-0.684 -0.128,0.255 0.032,0.541 0.095,0.797 0.271,0.587 0.477,1.206 0.843,1.764 0.492,1.129 1.144,2.114 1.765,3.18 0.206,0.206 0.269,0.556 0.588,0.587 L 0,0"
             style="fill:#007f2d;fill-opacity:1;fill-rule:nonzero;stroke:none"
             id="path259855"
             inkscape:connector-curvature="0" />
        </g>
        <g
           id="g259857"
           transform="translate(623.2198,131.0113)">
          <path
             d="M 0,0 C 0.111,-0.762 0.486,-1.478 0.726,-2.194 0.852,-2.671 1.124,-3.1 1.138,-3.64 0.9,-3.751 0.773,-3.418 0.613,-3.292 0.583,-3.18 0.518,-3.068 0.423,-2.974 -0.181,-1.829 -0.562,-0.587 -0.881,0.684 -0.976,1.399 -1.495,2.688 -1.199,2.863 -0.738,3.032 -0.334,0.827 0,0"
             style="fill:#007f2d;fill-opacity:1;fill-rule:nonzero;stroke:none"
             id="path259859"
             inkscape:connector-curvature="0" />
        </g>
        <g
           id="g259861"
           transform="translate(622.2017,128.5993)">
          <path
             d="m 0,0 c 0.334,-0.716 0.667,-1.399 1.065,-2.115 0.302,-0.684 0.716,-1.368 0.953,-2.098 0,-0.079 0,-0.19 -0.094,-0.19 -0.78,0.365 -1.081,1.192 -1.575,1.876 -0.429,0.731 -0.508,1.589 -0.809,2.369 -0.017,0.207 -0.08,0.494 0.063,0.652 C -0.192,0.429 -0.095,0.161 0,0"
             style="fill:#007f2d;fill-opacity:1;fill-rule:nonzero;stroke:none"
             id="path259863"
             inkscape:connector-curvature="0" />
        </g>
        <g
           id="g259865"
           transform="translate(629.8917,127.4031)">
          <path
             d="m 0,0 c 0.046,-1.384 -0.604,-2.529 -0.97,-3.768 -0.064,-0.161 -0.143,-0.319 -0.175,-0.509 -0.412,-1.113 -0.906,-2.132 -1.494,-3.164 -0.064,-0.017 -0.128,-0.081 -0.192,-0.033 -0.079,0.398 0.064,0.748 0.112,1.114 0.382,1.462 0.763,2.877 1.479,4.228 0.111,0.336 0.254,0.652 0.445,0.955 0.207,0.412 0.333,0.873 0.7,1.177 L 0,0"
             style="fill:#007f2d;fill-opacity:1;fill-rule:nonzero;stroke:none"
             id="path259867"
             inkscape:connector-curvature="0" />
        </g>
        <g
           id="g259869"
           transform="translate(630.342,123.0984)">
          <path
             d="m 0,0 c -0.016,-1.239 -0.588,-2.241 -0.937,-3.34 -0.112,-0.365 -0.351,-0.683 -0.526,-1.016 -0.047,-0.158 -0.063,-0.38 -0.269,-0.413 -0.064,0.939 0.142,1.828 0.46,2.638 0.095,0.606 0.446,1.098 0.62,1.669 0.08,0.271 0.239,0.542 0.445,0.749 C 0,0.35 -0.031,0.111 0,0"
             style="fill:#007f2d;fill-opacity:1;fill-rule:nonzero;stroke:none"
             id="path259871"
             inkscape:connector-curvature="0" />
        </g>
        <g
           id="g259873"
           transform="translate(631.4949,115.8086)">
          <path
             d="m 0,0 c 0.195,0.509 0.411,1.06 0.819,1.023 0,0 0.252,-0.849 0.103,-1.764 -0.318,-1.54 -0.811,-2.37 -1.128,-3.594 -0.081,-0.096 -0.081,-0.271 -0.223,-0.271 -0.143,0.064 -0.143,0.239 -0.191,0.368 -0.127,0.762 0.031,1.554 0.079,2.332 0,0 0.222,0.767 0.541,1.906"
             style="fill:#007f2d;fill-opacity:1;fill-rule:nonzero;stroke:none"
             id="path259875"
             inkscape:connector-curvature="0" />
        </g>
        <g
           id="g259877"
           transform="translate(630.1407,116.7079)">
          <path
             d="M 0,0 C 0.032,0.985 0.27,1.923 0.207,2.925 L 0.126,3.021 C -0.159,2.846 -0.239,2.399 -0.366,2.066 -0.62,1.622 -0.986,-1.24 -0.986,-1.24 v -0.212 c 0.08,-0.447 0.048,-0.838 0.254,-1.22 0.033,0.016 0.118,-0.047 0.15,-0.047 0,0.286 0.248,0.451 0.248,0.751 0.017,0.191 0.3,0.971 0.334,1.968"
             style="fill:#007f2d;fill-opacity:1;fill-rule:nonzero;stroke:none"
             id="path259879"
             inkscape:connector-curvature="0" />
        </g>
        <g
           id="g259881"
           transform="translate(633.342,113.8605)">
          <path
             d="m 0,0 c -0.016,-0.381 -0.207,-0.985 -0.222,-1.383 -0.175,-0.811 -0.446,-1.589 -0.907,-2.257 -0.127,-0.048 -0.127,0.095 -0.206,0.128 -0.175,0.905 0.318,1.524 0.476,2.288 0.222,0.35 0.35,1.019 0.652,1.305 C -0.111,0.111 -0.064,0.032 0,0"
             style="fill:#007f2d;fill-opacity:1;fill-rule:nonzero;stroke:none"
             id="path259883"
             inkscape:connector-curvature="0" />
        </g>
        <g
           id="g259885"
           transform="translate(623.4144,113.4565)">
          <path
             d="m 0,0 c -0.009,0.026 -0.436,-0.833 -0.436,-0.833 0,0 -0.183,0.442 -0.231,0.553 -0.027,0.071 -0.119,0.541 -0.109,0.545 C -0.606,0.186 -0.162,0.103 0,0"
             style="fill:#007f2d;fill-opacity:1;fill-rule:nonzero;stroke:none"
             id="path259887"
             inkscape:connector-curvature="0" />
        </g>
        <g
           id="g259889"
           transform="translate(626.5416,112.0807)">
          <path
             d="M 0,0 C 0.637,-0.304 1.193,-0.795 1.782,-1.193 2.115,-1.558 2.787,-1.671 2.978,-2.147 2.906,-2.354 2.235,-2.354 1.468,-2.036 0.78,-1.76 0.759,-1.653 0.367,-1.399 -0.365,-1.002 -1.065,-0.494 -1.621,0.191 -1.653,0.269 -1.653,0.444 -1.543,0.462 -0.952,0.462 -0.508,0.143 0,0"
             style="fill:#007f2d;fill-opacity:1;fill-rule:nonzero;stroke:none"
             id="path259891"
             inkscape:connector-curvature="0" />
        </g>
        <g
           id="g259893"
           transform="translate(633.6315,110.7775)">
          <path
             d="M 0,0 C 0.078,0.524 0.215,1.848 0.432,1.888 0.699,1.795 0.471,1.07 0.501,0.848 0.439,0.329 0.408,-0.189 0.363,-0.707 0.407,-0.927 0.334,-1.111 0.212,-1.288 0.089,-1.192 -0.037,-0.214 0,0"
             style="fill:#007f2d;fill-opacity:1;fill-rule:nonzero;stroke:none"
             id="path259895"
             inkscape:connector-curvature="0" />
        </g>
        <g
           id="g259897"
           transform="translate(635.4614,110.3159)">
          <path
             d="m 0,0 c 0.143,-0.906 -0.031,-1.75 0,-2.67 -0.144,-0.192 0.032,-0.622 -0.269,-0.637 -0.447,0.826 -0.478,1.954 -0.303,2.925 0.175,0.207 0.048,0.669 0.446,0.62 L 0,0"
             style="fill:#007f2d;fill-opacity:1;fill-rule:nonzero;stroke:none"
             id="path259899"
             inkscape:connector-curvature="0" />
        </g>
        <g
           id="g259901"
           transform="translate(637.1627,105.8638)">
          <path
             d="M 0,0 C -0.143,0 -0.174,0.143 -0.222,0.239 -0.381,0.874 -0.501,2.593 -0.331,2.758 0.064,2.918 0.414,0.684 0,0"
             style="fill:#007f2d;fill-opacity:1;fill-rule:nonzero;stroke:none"
             id="path259903"
             inkscape:connector-curvature="0" />
        </g>
        <g
           id="g259905"
           transform="translate(621.6488,125.1983)">
          <path
             d="M 0,0 C -0.29,-0.287 1.522,-3.085 1.761,-3.643 2.143,-4.102 2.413,-4.581 2.858,-4.977 3.049,-5.183 3.304,-5.407 3.574,-5.486 3.765,-5.296 0.314,0.259 0,0"
             style="fill:#007f2d;fill-opacity:1;fill-rule:nonzero;stroke:none"
             id="path259907"
             inkscape:connector-curvature="0" />
        </g>
        <g
           id="g259909"
           transform="translate(629.3126,131.3509)">
          <path
             d="M 0,0 0.218,1.064 C 0.139,1.16 0.075,1.096 -0.005,1.049 -0.37,0.509 -0.735,-0.017 -0.989,-0.622 -1.44,-1.371 -1.561,-2.033 -1.864,-2.623 c -0.191,-0.748 -0.461,-1.446 -0.668,-2.179 0.064,-0.35 -0.239,-0.684 0.015,-0.986 0.764,0.413 1.388,2.607 1.595,2.861 L 0,0"
             style="fill:#007f2d;fill-opacity:1;fill-rule:nonzero;stroke:none"
             id="path259911"
             inkscape:connector-curvature="0" />
        </g>
        <g
           id="g259913"
           transform="translate(622.5256,120.3483)">
          <path
             d="M 0,0 C 0.498,0.133 3.459,-2.681 3.236,-3.301 2.839,-3.689 -0.098,-0.34 0,0"
             style="fill:#007f2d;fill-opacity:1;fill-rule:nonzero;stroke:none"
             id="path259915"
             inkscape:connector-curvature="0" />
        </g>
        <g
           id="g259917"
           transform="translate(631.6535,105.0072)">
          <path
             d="M 0,0 C 0,0.197 0.485,0.173 0.485,0.173 0.967,0.085 1.609,0.085 1.616,-0.137 1.244,-0.368 0.64,-0.541 0.037,-0.421 0.037,-0.421 0.004,-0.318 0,0"
             style="fill:#007f2d;fill-opacity:1;fill-rule:nonzero;stroke:none"
             id="path259919"
             inkscape:connector-curvature="0" />
        </g>
      </g>
    </g>
    <g
       id="g259921"
       transform="matrix(0.35277777,0,0,-0.35277777,-263.55466,262.33767)">
      <g
         id="g259923">
        <g
           id="g259929">
          <g
             id="g259931">
            <path
               d="m 651.483,102.646 c 0.065,-0.635 0.199,-2.771 0.199,-2.771 v 0 c 0,0 1.731,0.357 2.641,0.111 v 0 c 1.732,-0.222 7.204,-2.853 9.419,-3.269 v 0 c 1.271,-0.383 2.717,-0.86 3.799,0.093 v 0 c 0.461,0.655 0.801,4.102 0.767,4.119 v 0 c -1.513,-1.15 -11.409,3.099 -13.903,3.449 v 0 c -1.112,0.196 -1.933,0.277 -2.53,0.277 v 0 c -2.968,0 -0.392,-2.009 -0.392,-2.009"
               style="fill:url(#linearGradient259937);stroke:none"
               id="path259939"
               inkscape:connector-curvature="0" />
          </g>
        </g>
      </g>
    </g>
    <g
       id="g259941"
       transform="matrix(0.35277777,0,0,-0.35277777,-263.55466,262.33767)">
      <g
         id="g259943"
         clip-path="url(#clipPath259947)">
        <g
           id="g259949"
           transform="translate(654.8484,101.0137)">
          <path
             d="m 0,0 0.104,-0.034 c 0.271,-0.08 0.451,-0.118 0.697,-0.068 0.311,0.064 0.545,0.331 0.633,0.62 C 1.515,0.78 1.478,1.062 1.35,1.27 1.201,1.522 0.949,1.639 0.634,1.735 L 0.541,1.766 Z M 0.183,2.385 0.797,2.197 C 1.461,1.994 1.694,1.727 1.809,1.543 1.997,1.246 2.063,0.786 1.933,0.364 1.786,-0.121 1.391,-0.51 0.931,-0.604 0.64,-0.668 0.281,-0.598 -0.02,-0.506 l -0.623,0.192 0.826,2.699"
             style="fill:#c9a600;fill-opacity:1;fill-rule:nonzero;stroke:none"
             id="path259951"
             inkscape:connector-curvature="0" />
        </g>
        <g
           id="g259953"
           transform="translate(658.0585,102.4711)">
          <path
             d="m 0,0 -0.527,-1.714 c -0.042,-0.134 -0.178,-0.572 0.291,-0.715 0.465,-0.143 0.6,0.295 0.642,0.429 L 0.931,-0.286 1.43,-0.44 0.905,-2.154 C 0.838,-2.372 0.736,-2.603 0.553,-2.743 0.33,-2.915 -0.007,-3.01 -0.376,-2.897 c -0.412,0.126 -0.614,0.44 -0.684,0.633 -0.052,0.142 -0.07,0.371 0.033,0.705 L -0.502,0.154 0,0"
             style="fill:#c9a600;fill-opacity:1;fill-rule:nonzero;stroke:none"
             id="path259955"
             inkscape:connector-curvature="0" />
        </g>
        <g
           id="g259957"
           transform="translate(661.8732,99.1703)">
          <path
             d="m 0,0 c -0.364,-0.432 -0.977,-0.581 -1.495,-0.423 -0.781,0.24 -1.208,1.085 -0.973,1.846 0.226,0.745 1.042,1.205 1.822,0.966 0.449,-0.137 0.942,-0.546 1.022,-1.214 l -0.57,0.173 c -0.125,0.283 -0.313,0.487 -0.612,0.578 -0.439,0.136 -1,-0.123 -1.167,-0.663 -0.153,-0.506 0.133,-1.068 0.61,-1.216 0.36,-0.111 0.623,0.041 0.782,0.133 L 0,0"
             style="fill:#c9a600;fill-opacity:1;fill-rule:nonzero;stroke:none"
             id="path259959"
             inkscape:connector-curvature="0" />
        </g>
        <g
           id="g259961"
           transform="translate(662.7568,101.0309)">
          <path
             d="M 0,0 1.454,-0.446 1.31,-0.913 0.357,-0.621 0.155,-1.282 1.067,-1.559 0.924,-2.027 0.012,-1.748 -0.183,-2.387 0.768,-2.678 0.624,-3.145 l -1.45,0.444 z"
             style="fill:#c9a600;fill-opacity:1;fill-rule:nonzero;stroke:none"
             id="path259963"
             inkscape:connector-curvature="0" />
        </g>
      </g>
    </g>
    <g
       id="g259965"
       transform="matrix(0.35277777,0,0,-0.35277777,-263.55466,262.33767)">
      <g
         id="g259967">
        <g
           id="g259973">
          <g
             id="g259975">
            <path
               d="m 667.25,105.124 c -1.611,-0.405 -5.116,-0.507 -4.631,-1.072 v 0 c -0.033,-0.88 -0.044,-1.032 0.005,-1.844 v 0 c -0.023,-0.012 7.112,-2.198 5.265,-0.401 v 0 l 0.365,-0.327 -0.612,0.564 c 1.066,-0.107 1.012,-1.024 0.986,-1.048 v 0 c 1.427,0.477 1.854,0.533 2.331,0.659 v 0 c 0.598,0.047 3.168,0.861 1.408,-2.353 v 0 l 0.076,0.044 c 1.219,0.157 0.599,3.063 1.945,4.768 v 0 c 0.064,0.429 -0.116,0.637 -0.37,1.034 v 0 c -0.372,0.424 -1.274,0.769 -2.642,0.769 v 0 c -1.09,0 -2.476,-0.219 -4.126,-0.793 m 1.377,-4.128 h 0.001 z"
               style="fill:url(#linearGradient259981);stroke:none"
               id="path259983"
               inkscape:connector-curvature="0" />
          </g>
        </g>
      </g>
    </g>
    <g
       id="g259985"
       transform="matrix(0.35277777,0,0,-0.35277777,-263.55466,262.33767)">
      <g
         id="g259987"
         clip-path="url(#clipPath259991)">
        <g
           id="g259993"
           transform="translate(668.254,101.4798)">
          <path
             d="M 0,0 C -0.397,0.427 -0.891,0.361 -0.891,0.361 -4.977,0.737 -5.927,2.48 -5.974,2.878 -5.99,3.147 -5.599,3.399 -3.209,3.446 -2.907,3.414 -6.825,3.318 -5.179,2.205 -4.001,1.068 -2.207,0.818 -0.688,0.613 L -0.526,0.519 0,0"
             style="fill:#dab400;fill-opacity:1;fill-rule:nonzero;stroke:none"
             id="path259995"
             inkscape:connector-curvature="0" />
        </g>
      </g>
    </g>
    <g
       id="g259997"
       transform="matrix(0.35277777,0,0,-0.35277777,-263.55466,262.33767)">
      <g
         id="g259999">
        <g
           id="g260005">
          <g
             id="g260007">
            <path
               d="m 647.463,101.187 c -3.577,0 -3.762,1.148 -3.762,1.148 v 0 l -0.028,-0.411 c 0.07,-0.613 -0.022,-1.505 -0.044,-2.076 v 0 c 0.047,-0.476 0.943,-1.96 3.857,-1.993 v 0 c 2.626,0.043 3.509,0.871 3.865,1.935 v 0 c 0.062,0.566 -0.14,1.895 -0.097,2.239 v 0 l -0.06,0.365 c -0.318,-0.271 -0.22,-1.207 -3.731,-1.207"
               style="fill:url(#linearGradient260013);stroke:none"
               id="path260015"
               inkscape:connector-curvature="0" />
          </g>
        </g>
      </g>
    </g>
    <g
       id="g260017"
       transform="matrix(0.35277777,0,0,-0.35277777,-263.55466,262.33767)">
      <g
         id="g260019">
        <g
           id="g260025">
          <g
             id="g260027">
            <path
               d="m 636.138,103.629 c -2.048,-0.559 -5.652,-1.677 -7.434,-1.041 v 0 c -0.553,-0.057 -0.784,0.364 -0.849,0.516 v 0 c -0.019,-0.014 -0.045,-0.031 -0.075,-0.05 v 0 c -0.269,-0.523 0.349,-1.772 0.432,-2.755 v 0 c 0.094,-0.588 0.063,-1.225 0.19,-1.813 v 0 c 0.398,-0.463 0.979,-0.641 1.583,-0.688 v 0 h 0.798 c 0.023,0.001 0.045,0.003 0.067,0.004 v 0 c 1.289,0.113 4.032,0.717 4.19,0.781 v 0 c 0.939,0.223 6.174,1.794 8.243,1.341 v 0 c 0.129,0.049 0.176,1.297 0.064,1.79 v 0 c -0.015,0.095 -0.014,0.828 0.034,0.891 v 0 l 0.014,0.036 c 1.861,1.383 0.694,1.832 -1.269,1.832 v 0 c -1.933,0 -4.636,-0.435 -5.988,-0.844 m -8.254,-0.466 c -0.021,-0.007 -0.04,-0.012 -0.047,-0.011 v 0 c 0.003,-0.007 0.008,-0.025 0.018,-0.048 v 0 c 0.08,0.054 0.089,0.069 0.074,0.069 v 0 c -0.009,0 -0.027,-0.005 -0.045,-0.01 m -0.047,-0.011 c -10e-4,0.003 -10e-4,0.005 -10e-4,0.005 v 0 c -0.002,-0.003 -10e-4,-0.004 10e-4,-0.005"
               style="fill:url(#linearGradient260033);stroke:none"
               id="path260035"
               inkscape:connector-curvature="0" />
          </g>
        </g>
      </g>
    </g>
    <g
       id="g260037"
       transform="matrix(0.35277777,0,0,-0.35277777,-263.55466,262.33767)">
      <g
         id="g260039"
         clip-path="url(#clipPath260043)">
        <g
           id="g260045"
           transform="translate(632.9575,99.5017)">
          <path
             d="M 0,0 0.107,0.025 C 0.382,0.088 0.557,0.147 0.746,0.314 0.983,0.525 1.051,0.874 0.983,1.166 0.921,1.436 0.748,1.662 0.533,1.775 0.275,1.92 0,1.894 -0.32,1.822 L -0.417,1.798 Z M -1.036,2.158 -0.411,2.3 C 0.265,2.459 0.601,2.344 0.792,2.243 1.104,2.081 1.393,1.715 1.492,1.284 1.606,0.79 1.46,0.254 1.109,-0.058 0.889,-0.257 0.545,-0.376 0.236,-0.447 l -0.635,-0.147 -0.637,2.752"
             style="fill:#c9a600;fill-opacity:1;fill-rule:nonzero;stroke:none"
             id="path260047"
             inkscape:connector-curvature="0" />
        </g>
        <g
           id="g260049"
           transform="translate(634.6639,102.2937)">
          <path
             d="M 0,0 1.481,0.342 1.59,-0.132 0.62,-0.357 0.777,-1.029 1.705,-0.816 1.816,-1.292 0.886,-1.506 1.037,-2.158 2.006,-1.934 2.116,-2.407 0.637,-2.752 Z"
             style="fill:#c9a600;fill-opacity:1;fill-rule:nonzero;stroke:none"
             id="path260051"
             inkscape:connector-curvature="0" />
        </g>
        <g
           id="g260053"
           transform="translate(638.62,100.7533)">
          <path
             d="M 0,0 C 0.523,0.122 0.827,0.658 0.709,1.166 0.587,1.694 0.075,2.032 -0.442,1.912 -0.96,1.793 -1.273,1.264 -1.151,0.737 -1.033,0.229 -0.524,-0.12 0,0 M -0.552,2.387 C 0.229,2.568 1.031,2.096 1.219,1.282 1.401,0.494 0.901,-0.293 0.109,-0.477 c -0.792,-0.181 -1.586,0.304 -1.768,1.092 -0.188,0.815 0.326,1.592 1.107,1.772"
             style="fill:#c9a600;fill-opacity:1;fill-rule:nonzero;stroke:none"
             id="path260055"
             inkscape:connector-curvature="0" />
        </g>
      </g>
    </g>
    <g
       id="g260057"
       transform="matrix(0.35277777,0,0,-0.35277777,-263.55466,262.33767)">
      <g
         id="g260059">
        <g
           id="g260065">
          <g
             id="g260067">
            <path
               d="m 623.473,107.66 c -0.89,-0.015 -1.653,-0.333 -2.448,-0.587 v 0 c -0.207,-0.128 -0.429,-0.303 -0.429,-0.572 v 0 c -0.08,-0.573 0.462,-1.686 0.429,-1.83 v 0 c 0.143,-0.557 0.047,-1.159 -0.08,-1.685 v 0 c 0.017,-0.365 0.059,-0.906 0.346,-1.129 v 0 c 0.381,-0.206 0.83,-0.192 1.308,-0.192 v 0 c 0.016,-0.011 0.003,0.341 -0.009,0.694 v 0 c -0.012,0.342 -0.023,0.683 -0.005,0.695 v 0 l -0.7,-0.197 c -0.476,-0.013 -0.502,-0.779 -0.502,-0.731 v 0 c -0.764,1.121 1.057,1.226 1.391,1.337 v 0 c 1.305,0.11 2.592,-0.047 3.737,-0.43 v 0 c 0.302,-0.094 0.787,-0.167 0.774,-0.162 v 0 c 0.254,0.899 1.468,1.148 2.215,1.418 v 0 c 0.54,0.224 1.161,0.271 1.59,0.716 v 0 c 0.985,0.951 -1.678,1.825 -2.139,1.936 v 0 c -1.261,0.444 -3.406,0.724 -5.094,0.724 v 0 c -0.13,0 -0.259,-0.002 -0.384,-0.005 m -0.888,-4.606 c 0,0 0,0 10e-4,0 v 0 z"
               style="fill:url(#linearGradient260073);stroke:none"
               id="path260075"
               inkscape:connector-curvature="0" />
          </g>
        </g>
      </g>
    </g>
    <g
       id="g260077"
       transform="matrix(0.35277777,0,0,-0.35277777,-263.55466,262.33767)">
      <g
         id="g260079">
        <g
           id="g260085">
          <g
             id="g260087">
            <path
               d="m 638.022,96.992 c -1.177,-0.128 -2.258,-0.476 -3.229,-1.082 v 0 c -0.523,-0.414 -1.239,-0.747 -1.54,-1.398 v 0 c -0.399,-0.652 0.125,-1.304 0.523,-1.782 v 0 c 0.43,-0.444 0.922,-0.906 1.321,-1.367 v 0 c 0.667,-0.509 0.731,-1.684 1.78,-1.684 v 0 c 2.559,0.243 3.593,2.449 4.213,3.29 v 0 c 0.509,0.986 1.495,1.718 2.289,2.513 v 0 c 0.223,0.428 -0.138,0.912 -0.329,1.182 v 0 c -0.492,0.317 -0.606,-0.152 -1.271,0.854 v 0 c -1.082,-0.143 -2.708,-0.319 -3.757,-0.526"
               style="fill:url(#linearGradient260093);stroke:none"
               id="path260095"
               inkscape:connector-curvature="0" />
          </g>
        </g>
      </g>
    </g>
    <g
       id="g260097"
       transform="matrix(0.35277777,0,0,-0.35277777,-263.55466,262.33767)">
      <g
         id="g260099"
         clip-path="url(#clipPath260103)">
        <g
           id="g260105"
           transform="translate(643.5464,95.7686)">
          <path
             d="m 0,0 c -0.016,-0.176 -2.25,-0.876 -2.346,-0.988 -1.063,-0.619 -2.146,-1.223 -3.116,-2.002 -2.597,-1.782 -0.837,-3.442 1.795,-1.732 -4.005,-2.473 -3.847,-0.1 -3.305,0.684 0.445,0.888 2.424,2.343 4.787,3.448 C -2.028,-0.628 -0.126,0.313 0,0"
             style="fill:#dab400;fill-opacity:1;fill-rule:nonzero;stroke:none"
             id="path260107"
             inkscape:connector-curvature="0" />
        </g>
      </g>
    </g>
    <g
       id="g260109"
       transform="matrix(0.35277777,0,0,-0.35277777,-263.55466,262.33767)">
      <g
         id="g260111">
        <g
           id="g260117">
          <g
             id="g260119">
            <path
               d="m 646.348,95.374 c -0.077,-0.004 -0.168,-0.048 -0.261,-0.092 v 0 c -0.12,-0.056 -0.247,-0.111 -0.359,-0.084 v 0 c -0.15,0.036 -0.278,0.134 -0.395,0.176 v 0 h -0.181 c -0.025,-0.012 -0.051,-0.031 -0.076,-0.058 v 0 c -0.175,0.08 -1.617,-5.368 -1.697,-6.004 v 0 c -0.096,-0.841 0.228,-2.586 3.932,-2.628 v 0 c 3.879,-0.058 3.636,1.453 3.7,2.666 v 0 c -0.186,1.171 -1.006,4.939 -1.617,5.74 v 0 c -0.069,0.043 -0.16,0.034 -0.26,0.025 v 0 c -0.1,-0.008 -0.207,-0.017 -0.308,0.025 v 0 c -0.186,0.077 -0.346,0.22 -0.507,0.167 v 0 c -0.175,-0.128 0.045,-3.173 0.156,-3.267 v 0 c 0.208,-0.937 0.286,-1.957 0.223,-2.989 v 0 c 0,-0.748 -0.55,-1.365 -1.313,-1.36 v 0 c -0.666,0.005 -0.97,0.049 -1.334,0.364 v 0 c -0.684,0.67 -0.383,1.861 -0.255,2.688 v 0 c 0.27,0.891 0.301,1.884 0.556,2.79 v 0 c 0,0.43 0.318,1.391 0.128,1.788 v 0 c -0.031,0.035 -0.068,0.051 -0.109,0.053 v 0 z"
               style="fill:url(#linearGradient260125);stroke:none"
               id="path260127"
               inkscape:connector-curvature="0" />
          </g>
        </g>
      </g>
    </g>
    <g
       id="g260129"
       transform="matrix(0.35277777,0,0,-0.35277777,-263.55466,262.33767)">
      <g
         id="g260131"
         clip-path="url(#clipPath260135)">
        <g
           id="g260137"
           transform="translate(643.8509,98.7768)">
          <path
             d="m 0,0 c 0.192,-0.572 -0.285,-1.032 -0.619,-1.477 -0.128,-0.111 -0.318,-0.111 -0.493,-0.079 -0.24,0.094 -0.398,0.316 -0.493,0.541 0.005,0.725 0.721,1.287 1.129,1.254 C -0.27,0.287 -0.079,0.176 0,0"
             style="fill:#f5ce11;fill-opacity:1;fill-rule:nonzero;stroke:none"
             id="path260139"
             inkscape:connector-curvature="0" />
        </g>
        <g
           id="g260141"
           transform="translate(651.2184,98.8067)">
          <path
             d="M 0,0 C 0.515,0.536 1.594,-0.751 1.074,-1.332 0.607,-1.959 -0.709,-0.737 0,0"
             style="fill:#f5ce11;fill-opacity:1;fill-rule:nonzero;stroke:none"
             id="path260143"
             inkscape:connector-curvature="0" />
        </g>
        <g
           id="g260145"
           transform="translate(650.9498,96.3364)">
          <path
             d="m 0,0 c -0.612,-0.31 -0.945,0.495 -1.105,0.782 -0.032,0.253 -0.19,0.54 -0.015,0.779 0.222,0.16 0.508,0.239 0.747,0.08 C -0.246,1.498 0.795,0.389 0,0"
             style="fill:#f5ce11;fill-opacity:1;fill-rule:nonzero;stroke:none"
             id="path260147"
             inkscape:connector-curvature="0" />
        </g>
        <g
           id="g260149"
           transform="translate(644.905,97.9988)">
          <path
             d="M 0,0 C 0.366,-0.301 0.097,-0.958 -0.015,-1.081 -0.111,-1.32 -0.632,-1.95 -0.97,-1.688 -1.629,-1.269 -0.952,-0.35 -0.666,0.016 -0.476,0.206 -0.189,0.144 0,0"
             style="fill:#f5ce11;fill-opacity:1;fill-rule:nonzero;stroke:none"
             id="path260151"
             inkscape:connector-curvature="0" />
        </g>
        <g
           id="g260153"
           transform="translate(646.283,97.5439)">
          <path
             d="M 0,0 C 0.303,-0.541 0.049,-1.943 -0.765,-1.799 -1.457,-1.564 -1.05,-0.272 -0.604,0.094 -0.397,0.189 -0.158,0.111 0,0"
             style="fill:#f5ce11;fill-opacity:1;fill-rule:nonzero;stroke:none"
             id="path260155"
             inkscape:connector-curvature="0" />
        </g>
        <g
           id="g260157"
           transform="translate(649.2786,97.4474)">
          <path
             d="m 0,0 c 0.286,-0.429 0.812,-1.724 -0.145,-1.887 -0.65,-0.125 -0.904,1.299 -0.682,1.823 C -0.637,0.16 -0.223,0.176 0,0"
             style="fill:#f5ce11;fill-opacity:1;fill-rule:nonzero;stroke:none"
             id="path260159"
             inkscape:connector-curvature="0" />
        </g>
        <g
           id="g260161"
           transform="translate(647.8624,97.2102)">
          <path
             d="m 0,0 c 0.175,-0.382 0.227,-1.73 -0.447,-1.715 -0.788,-0.022 -0.635,1.111 -0.585,1.523 0.079,0.207 0.175,0.429 0.429,0.461 C -0.366,0.269 -0.126,0.205 0,0"
             style="fill:#f5ce11;fill-opacity:1;fill-rule:nonzero;stroke:none"
             id="path260163"
             inkscape:connector-curvature="0" />
        </g>
      </g>
    </g>
    <g
       id="g260169"
       transform="matrix(0.35277777,0,0,-0.35277777,-9.2422456,221.82308)" />
  </g>
</svg>
