<?xml version="1.0" encoding="UTF-8" standalone="no"?>
<svg
   width="15.332861mm"
   height="19.577017mm"
   viewBox="0 0 15.332861 19.577016"
   version="1.1"
   id="svg67976"
   xmlns="http://www.w3.org/2000/svg"
   xmlns:svg="http://www.w3.org/2000/svg"
   xmlns:rdf="http://www.w3.org/1999/02/22-rdf-syntax-ns#"
   xmlns:cc="http://creativecommons.org/ns#"
   xmlns:dc="http://purl.org/dc/elements/1.1/">
  <defs
     id="defs67970">
    <clipPath
       id="clipPath192311"
       clipPathUnits="userSpaceOnUse">
      <path
         id="path192309"
         d="M 0,0 H 623.622 V 864.567 H 0 Z" />
    </clipPath>
    <clipPath
       id="clipPath192343"
       clipPathUnits="userSpaceOnUse">
      <path
         id="path192341"
         d="m 45.328,59.399 h 43.463 v 55.494 H 45.328 Z" />
    </clipPath>
  </defs>
  <metadata
     id="metadata67973">
    <rdf:RDF>
      <cc:Work
         rdf:about="">
        <dc:format>image/svg+xml</dc:format>
        <dc:type
           rdf:resource="http://purl.org/dc/dcmitype/StillImage" />
        <dc:title />
      </cc:Work>
    </rdf:RDF>
  </metadata>
  <g
     id="layer1"
     transform="translate(1171.7263,494.46044)">
    <g
       id="g192455">
      <g
         transform="matrix(0.35277777,0,0,-0.35277777,-1166.6056,-494.46044)"
         id="g192321">
        <path
           id="path192323"
           style="fill:#2f5e8a;fill-opacity:1;fill-rule:nonzero;stroke:none"
           d="M 0,0 V -0.041 -1.023 -6.72 l 1.019,0.46 v 5.237 h 11.738 v -5.24 L 13.775,-6.72 V -1.023 -0.09 0 Z" />
      </g>
      <g
         transform="matrix(0.35277777,0,0,-0.35277777,-1162.1053,-481.70297)"
         id="g192325">
        <path
           id="path192327"
           style="fill:#2f5e8a;fill-opacity:1;fill-rule:nonzero;stroke:none"
           d="M 0,0 V -18.312 H -11.738 V 0 l -1.019,0.463 v -18.775 -1.019 H -11.738 0 1.019 v 1.019 18.775 z" />
      </g>
      <g
         transform="matrix(0.35277777,0,0,-0.35277777,-1156.7529,-489.66587)"
         id="g192329">
        <path
           id="path192331"
           style="fill:#2f5e8a;fill-opacity:1;fill-rule:nonzero;stroke:none"
           d="m 0,0 h -7.088 l 0.464,-1.019 H 0 v -7.978 h -4.54 v -1.02 H 0 1.019 V 0 Z" />
      </g>
      <g
         transform="matrix(0.35277777,0,0,-0.35277777,-1171.3668,-489.66587)"
         id="g192333">
        <path
           id="path192335"
           style="fill:#2f5e8a;fill-opacity:1;fill-rule:nonzero;stroke:none"
           d="m 0,0 h -1.019 v -1.019 -7.979 -1.019 H 0 4.54 v 1.019 H 0 v 7.979 H 6.624 L 7.087,0 Z" />
      </g>
      <g
         transform="matrix(0.35277777,0,0,-0.35277777,-1187.7168,-453.92871)"
         id="g192337">
        <g
           clip-path="url(#clipPath192343)"
           id="g192339">
          <g
             transform="translate(69.617,102.5258)"
             id="g192345">
            <path
               id="path192347"
               style="fill:#2f5e8a;fill-opacity:1;fill-rule:nonzero;stroke:none"
               d="m 0,0 c -0.654,0.266 -1.435,0.4 -2.344,0.4 -0.418,0 -0.814,-0.009 -1.188,-0.027 v -3.97 c 0.322,-0.012 0.631,-0.028 0.926,-0.052 0.575,-0.044 1.232,-0.129 1.972,-0.251 v -1.968 h -1.11 c -0.179,0.412 -0.407,0.74 -0.683,0.984 -0.276,0.243 -0.597,0.417 -0.963,0.521 -0.043,0.013 -0.097,0.017 -0.142,0.028 v -3.158 c 0.246,-0.018 0.608,-0.027 1.087,-0.027 0.516,0 0.976,0.032 1.381,0.094 0.405,0.062 0.774,0.159 1.105,0.293 0.332,0.133 0.629,0.318 0.893,0.556 0.264,0.237 0.479,0.51 0.645,0.819 0.166,0.309 0.287,0.652 0.364,1.029 0.077,0.378 0.115,0.79 0.115,1.239 0,0.901 -0.179,1.642 -0.539,2.221 C 1.16,-0.689 0.654,-0.266 0,0" />
          </g>
          <g
             transform="translate(73.1991,97.1742)"
             id="g192349">
            <path
               id="path192351"
               style="fill:#2f5e8a;fill-opacity:1;fill-rule:nonzero;stroke:none"
               d="m 0,0 c -0.236,-0.571 -0.582,-1.049 -1.036,-1.435 -0.393,-0.338 -0.875,-0.615 -1.446,-0.833 -0.473,-0.177 -1.019,-0.304 -1.639,-0.38 -0.62,-0.075 -1.442,-0.113 -2.468,-0.113 h -3.334 v 0.327 c 0.283,0.053 0.486,0.104 0.608,0.153 0.123,0.049 0.218,0.111 0.285,0.186 0.068,0.076 0.117,0.184 0.148,0.327 0.031,0.142 0.046,0.366 0.046,0.672 V 1.116 C -9.389,1.057 -9.894,0.905 -10.35,0.659 c -0.601,-0.324 -1.074,-0.812 -1.417,-1.463 -0.343,-0.651 -0.515,-1.439 -0.515,-2.362 0,-0.928 0.142,-1.72 0.425,-2.375 0.284,-0.656 0.702,-1.151 1.255,-1.485 0.129,-0.078 0.267,-0.144 0.41,-0.204 0.123,0.398 0.293,0.772 0.521,1.118 0.494,0.746 1.22,1.324 2.179,1.732 0.958,0.408 2.104,0.613 3.436,0.613 0.666,0 1.28,-0.022 1.843,-0.066 0.564,-0.045 1.208,-0.127 1.933,-0.247 v -1.928 h -1.087 c -0.175,0.403 -0.399,0.725 -0.67,0.964 -0.27,0.239 -0.585,0.409 -0.943,0.511 -0.359,0.102 -0.791,0.153 -1.296,0.153 -0.754,0 -1.425,-0.158 -2.014,-0.476 -0.589,-0.318 -1.052,-0.796 -1.389,-1.434 -0.191,-0.363 -0.322,-0.774 -0.404,-1.223 0.399,0.023 0.74,0.073 1.021,0.153 0.388,0.112 0.715,0.288 0.98,0.53 0.265,0.241 0.518,0.596 0.756,1.065 h 1.109 v -2.031 c -0.702,-0.119 -1.421,-0.208 -2.156,-0.267 -0.55,-0.044 -1.156,-0.066 -1.788,-0.077 -0.01,-0.152 -0.023,-0.303 -0.023,-0.464 0,-0.909 0.139,-1.685 0.418,-2.328 0.278,-0.643 0.687,-1.127 1.229,-1.454 0.541,-0.327 1.207,-0.491 1.998,-0.491 0.6,0 1.09,0.055 1.471,0.164 0.38,0.108 0.7,0.282 0.96,0.519 0.26,0.236 0.507,0.584 0.741,1.043 h 1.087 v -1.991 c -0.688,-0.115 -1.393,-0.202 -2.113,-0.26 -0.721,-0.059 -1.514,-0.087 -2.377,-0.087 -1.858,0 -3.264,0.399 -4.215,1.197 -0.952,0.798 -1.427,1.988 -1.427,3.57 0,0.235 0.016,0.462 0.044,0.684 -1.137,0.17 -2.051,0.537 -2.732,1.108 -0.971,0.815 -1.457,2.029 -1.457,3.644 0,1.013 0.252,1.901 0.756,2.663 0.505,0.762 1.246,1.352 2.224,1.768 0.788,0.336 1.706,0.53 2.741,0.595 v 2.926 c 0,0.31 -0.015,0.535 -0.046,0.676 -0.031,0.14 -0.082,0.247 -0.152,0.323 -0.07,0.075 -0.164,0.136 -0.281,0.183 -0.117,0.046 -0.319,0.099 -0.608,0.156 v 0.327 h 4.034 c 1.16,0 2.11,-0.092 2.85,-0.277 0.74,-0.184 1.364,-0.456 1.874,-0.815 0.51,-0.36 0.89,-0.808 1.142,-1.343 C 0.228,3.361 0.354,2.723 0.354,1.981 0.354,1.231 0.236,0.57 0,0 m -5.939,10.021 c -7.442,0 -13.475,-6.032 -13.475,-13.474 0,-7.442 6.033,-13.476 13.475,-13.476 7.442,0 13.475,6.034 13.475,13.476 0,7.442 -6.033,13.474 -13.475,13.474" />
          </g>
        </g>
      </g>
    </g>
  </g>
</svg>
