<?xml version="1.0" encoding="UTF-8" standalone="no"?>
<!-- Created with Inkscape (http://www.inkscape.org/) -->

<svg
   width="10.447mm"
   height="10.644mm"
   viewBox="0 0 10.446999 10.644001"
   version="1.1"
   id="svg52138"
   sodipodi:docname="eltham-college.svg"
   inkscape:version="1.3.2 (091e20ef0f, 2023-11-25)"
   xmlns:inkscape="http://www.inkscape.org/namespaces/inkscape"
   xmlns:sodipodi="http://sodipodi.sourceforge.net/DTD/sodipodi-0.dtd"
   xmlns:xlink="http://www.w3.org/1999/xlink"
   xmlns="http://www.w3.org/2000/svg"
   xmlns:svg="http://www.w3.org/2000/svg"
   xmlns:rdf="http://www.w3.org/1999/02/22-rdf-syntax-ns#"
   xmlns:cc="http://creativecommons.org/ns#"
   xmlns:dc="http://purl.org/dc/elements/1.1/">
  <style>svg { background-color: #d01d4b; }</style>
  <g
     id="layer1"
     transform="translate(-140.93021,-288.46505)">
    <g
       id="g24"
       transform="matrix(0.95975627,0,0,0.95975627,5.9150429,11.852396)">
      <g
         id="g56561"
         transform="matrix(0.35277777,0,0,-0.35277777,146.00585,292.26143)"
         clip-path="url(#clipPath17)">
        <path
           d="m 0,0 c 0.441,0.983 1.432,1.673 2.488,1.728 2.465,0.262 4.455,-1.674 5.787,-3.636 1.77,-2.573 2.279,-6.261 1.27,-9.366 -0.347,-1.009 -0.875,-1.91 -1.379,-2.866 l 0.048,-0.051 c 2.34,2.39 3.162,5.65 2.738,9.098 -0.586,2.761 -2.548,5.36 -5.018,6.953 2.762,0.157 5.122,-1.883 6.368,-4.22 2.02,-3.394 1.486,-8.487 -0.764,-11.59 -2.419,-3.531 -6.503,-5.256 -10.827,-4.699 -0.958,0.134 -2.006,0.475 -2.677,0.877 l -0.002,0.005 c 3.475,0.13 6.843,1.797 8.465,5.032 1.219,2.417 1.158,5.684 -0.135,8.333 C 5.07,-1.753 2.463,-1.643 3.312,0.957 2.222,1.302 0.806,0.989 0.008,0.003"
           style="fill:#ffffff;fill-opacity:1;fill-rule:nonzero;stroke:none"
           id="path56563" />
      </g>
      <g
         id="g56565"
         transform="matrix(0.35277777,0,0,-0.35277777,147.87839,294.0757)"
         clip-path="url(#clipPath16)">
        <path
           d="m 0,0 c 0.626,-0.877 0.732,-2.073 0.248,-3.021 -1.002,-2.263 -3.676,-3.024 -6.037,-3.193 -3.115,-0.25 -6.564,1.162 -8.747,3.579 -0.7,0.808 -1.218,1.72 -1.792,2.631 L -16.4,-0.021 c 0.902,-3.215 3.312,-5.561 6.512,-6.921 2.679,-0.871 5.916,-0.468 8.531,0.872 -1.245,-2.47 -4.194,-3.493 -6.84,-3.41 -3.949,-0.047 -8.092,2.96 -9.655,6.459 -1.848,3.861 -1.297,8.268 1.344,11.731 0.596,0.757 1.416,1.496 2.098,1.877 l 0.006,10e-4 c -1.626,-3.078 -1.864,-6.825 0.128,-9.847 1.479,-2.264 4.342,-3.848 7.282,-4.051 2.938,-0.204 4.338,1.996 6.163,-0.037 0.845,0.77 1.278,2.154 0.831,3.333"
           style="fill:#ffffff;fill-opacity:1;fill-rule:nonzero;stroke:none"
           id="path56567" />
      </g>
      <g
         id="g56569"
         transform="matrix(0.35277777,0,0,-0.35277777,145.36795,294.73606)"
         clip-path="url(#clipPath15)">
        <path
           d="m 0,0 c -1.071,-0.106 -2.161,0.406 -2.738,1.297 -1.459,2.003 -0.782,4.691 0.255,6.826 1.341,2.821 4.281,5.101 7.473,5.78 1.049,0.206 2.095,0.2 3.174,0.243 l 0.019,0.071 C 4.949,15.044 1.711,14.124 -1.065,12.033 -3.163,10.146 -4.433,7.15 -4.579,4.213 c -1.516,2.314 -0.926,5.376 0.474,7.628 1.929,3.444 6.604,5.527 10.417,5.129 4.27,-0.328 7.804,-3.006 9.487,-7.029 0.358,-0.896 0.586,-1.976 0.576,-2.756 -1.853,2.946 -4.982,5.024 -8.597,4.812 C 5.083,11.843 2.28,10.156 0.634,7.713 -1.011,5.269 0.194,2.959 -2.483,2.391 -2.236,1.278 -1.255,0.21 -0.01,0.009"
           style="fill:#ffffff;fill-opacity:1;fill-rule:nonzero;stroke:none"
           id="path56571" />
      </g>
    </g>
  </g>
</svg>
