<?xml version="1.0" encoding="UTF-8" standalone="no"?>
<svg
   width="19.878357mm"
   height="21.187515mm"
   viewBox="0 0 19.878356 21.187515"
   version="1.1"
   id="svg67976"
   xmlns="http://www.w3.org/2000/svg"
   xmlns:svg="http://www.w3.org/2000/svg"
   xmlns:rdf="http://www.w3.org/1999/02/22-rdf-syntax-ns#"
   xmlns:cc="http://creativecommons.org/ns#"
   xmlns:dc="http://purl.org/dc/elements/1.1/">
  <defs
     id="defs67970">
    <clipPath
       id="clipPath175323"
       clipPathUnits="userSpaceOnUse">
      <path
         id="path175321"
         d="M 0,0 H 595.276 V 841.89 H 0 Z" />
    </clipPath>
    <clipPath
       id="clipPath175355"
       clipPathUnits="userSpaceOnUse">
      <path
         id="path175353"
         d="M 0,0 H 595.276 V 841.89 H 0 Z" />
    </clipPath>
    <clipPath
       id="clipPath175399"
       clipPathUnits="userSpaceOnUse">
      <path
         id="path175397"
         d="M 0,0 H 595.276 V 841.89 H 0 Z" />
    </clipPath>
    <clipPath
       id="clipPath175417"
       clipPathUnits="userSpaceOnUse">
      <path
         id="path175415"
         d="M 0,0 H 595.276 V 841.89 H 0 Z" />
    </clipPath>
    <clipPath
       id="clipPath175461"
       clipPathUnits="userSpaceOnUse">
      <path
         id="path175459"
         d="M 0,0 H 595.276 V 841.89 H 0 Z" />
    </clipPath>
  </defs>
  <metadata
     id="metadata67973">
    <rdf:RDF>
      <cc:Work
         rdf:about="">
        <dc:format>image/svg+xml</dc:format>
        <dc:type
           rdf:resource="http://purl.org/dc/dcmitype/StillImage" />
        <dc:title />
      </cc:Work>
    </rdf:RDF>
  </metadata>
  <g
     id="layer1"
     transform="translate(672.87408,0.66913105)">
    <g
       id="g175851">
      <path
         id="path175391"
         style="fill:#0860a0;fill-opacity:1;fill-rule:nonzero;stroke:none;stroke-width:0.352778"
         d="m -660.68225,-0.66913105 h 5.05813 V 3.1168799 h -5.05813 z" />
      <g
         transform="matrix(0.35277777,0,0,-0.35277777,-689.87426,276.13089)"
         id="g175393">
        <g
           clip-path="url(#clipPath175399)"
           id="g175395">
          <g
             transform="translate(70.4717,736.8459)"
             id="g175401">
            <path
               id="path175403"
               style="fill:#e81d31;fill-opacity:1;fill-rule:nonzero;stroke:none"
               d="m 0,0 c 1.758,-0.171 3.712,-0.275 5.869,-0.275 h 0.048 c 2.16,0 4.115,0.104 5.873,0.276 v 25.215 h 14.825 v 11.35 H 11.79 V 47.784 H 0 V 36.566 H -14.856 V 25.216 H 0 Z" />
          </g>
          <g
             transform="translate(76.4605,731.5399)"
             id="g175405">
            <path
               id="path175407"
               style="fill:#e81d31;fill-opacity:1;fill-rule:nonzero;stroke:none"
               d="m 0,0 h -0.097 -0.097 c -2.131,0 -4.057,0.086 -5.795,0.233 v -4.351 c 0.662,-0.406 1.295,-0.773 1.884,-1.097 l 0.845,-0.452 c 1.628,-0.846 2.804,-1.302 3.15,-1.302 0.348,0 1.253,0.32 2.498,0.918 l 2.885,1.558 c 0.174,0.103 0.35,0.209 0.529,0.319 V 0.233 C 4.063,0.086 2.134,0 0,0" />
          </g>
        </g>
      </g>
      <path
         id="path175409"
         style="fill:#0860a0;fill-opacity:1;fill-rule:nonzero;stroke:none;stroke-width:0.352778"
         d="m -670.25523,-0.66913105 h 5.07012 V 3.1168799 h -5.07012 z" />
      <g
         transform="matrix(0.35277777,0,0,-0.35277777,-689.87426,276.13089)"
         id="g175411">
        <g
           clip-path="url(#clipPath175417)"
           id="g175413">
          <g
             transform="translate(93.3505,741.1488)"
             id="g175419">
            <path
               id="path175421"
               style="fill:#0860a0;fill-opacity:1;fill-rule:nonzero;stroke:none"
               d="m 0,0 c 0.072,-0.086 0.125,-0.086 0.151,-0.086 0.18,0 0.478,0.221 0.766,0.436 0.462,0.343 1.036,0.77 1.694,0.77 0.082,0 0.165,-0.007 0.245,-0.021 C 2.982,1.446 3.095,1.795 3.195,2.148 2.979,2.108 2.76,2.069 2.534,2.035 2.365,2.01 1.397,1.788 0.884,1.498 0.057,1.042 -0.248,0.537 -0.075,0.124 L -0.076,0.123 C -0.05,0.082 -0.024,0.04 0,0" />
          </g>
          <g
             transform="translate(59.0905,740.5884)"
             id="g175423">
            <path
               id="path175425"
               style="fill:#0860a0;fill-opacity:1;fill-rule:nonzero;stroke:none"
               d="m 0,0 c -0.294,0.053 -0.588,0.272 -0.922,0.52 -0.424,0.316 -0.894,0.687 -1.392,0.687 -0.029,0 -0.066,0 -0.102,-0.001 0.177,-0.445 0.375,-0.883 0.59,-1.316 0.326,-0.195 0.832,-0.474 1.529,-0.795 C -0.225,-0.621 -0.141,-0.326 0,0" />
          </g>
          <g
             transform="translate(58.4943,742.6461)"
             id="g175427">
            <path
               id="path175429"
               style="fill:#0860a0;fill-opacity:1;fill-rule:nonzero;stroke:none"
               d="m 0,0 c -0.516,0.291 -1.483,0.512 -1.652,0.538 -0.234,0.035 -0.461,0.075 -0.684,0.117 0.102,-0.355 0.217,-0.708 0.345,-1.056 0.004,0.001 0.007,0.002 0.012,0.003 0.082,0.013 0.166,0.021 0.25,0.021 0.658,0 1.232,-0.427 1.694,-0.771 0.288,-0.214 0.586,-0.435 0.766,-0.435 0.026,0 0.079,0 0.151,0.086 0.034,0.057 0.069,0.114 0.107,0.174 L 0.982,-1.308 C 1.154,-0.896 0.824,-0.456 0,0" />
          </g>
          <g
             transform="translate(94.5578,741.108)"
             id="g175431">
            <path
               id="path175433"
               style="fill:#0860a0;fill-opacity:1;fill-rule:nonzero;stroke:none"
               d="m 0,0 c -0.333,-0.247 -0.627,-0.466 -0.921,-0.52 0.141,-0.326 0.225,-0.621 0.296,-0.905 0.687,0.316 1.188,0.592 1.515,0.787 0.212,0.43 0.407,0.867 0.582,1.309 C 1.449,0.673 1.427,0.674 1.404,0.674 0.907,0.674 0.425,0.316 0,0" />
          </g>
          <g
             transform="translate(63.1447,732.9406)"
             id="g175435">
            <path
               id="path175437"
               style="fill:#0860a0;fill-opacity:1;fill-rule:nonzero;stroke:none"
               d="m 0,0 c 2.241,-2.087 4.674,-3.853 6.841,-5.217 v 4.093 C 4.089,-0.868 1.829,-0.459 0,0" />
          </g>
          <g
             transform="translate(82.7488,731.8173)"
             id="g175439">
            <path
               id="path175441"
               style="fill:#0860a0;fill-opacity:1;fill-rule:nonzero;stroke:none"
               d="M 0,0 V -4.151 C 2.191,-2.775 4.648,-0.982 6.902,1.14 5.062,0.675 2.783,0.259 0,0" />
          </g>
          <g
             transform="translate(56.9152,743.6649)"
             id="g175443">
            <path
               id="path175445"
               style="fill:#0860a0;fill-opacity:1;fill-rule:nonzero;stroke:none"
               d="M 0,0 C 0.124,-0.019 1.207,-0.25 1.816,-0.595 3.178,-1.347 3.21,-2.07 2.997,-2.543 2.992,-2.555 2.986,-2.565 2.979,-2.576 L 2.92,-2.685 C 2.898,-2.732 2.878,-2.772 2.864,-2.79 2.557,-3.32 2.436,-3.747 2.33,-4.183 c 0.597,-0.258 1.306,-0.535 2.135,-0.812 1.928,-0.642 4.78,-1.366 8.606,-1.774 v 24.68 H -1.302 V 3.417 c 0,-1.112 0.144,-2.2 0.406,-3.259 C -0.607,0.099 -0.308,0.047 0,0" />
          </g>
          <g
             transform="translate(91.3473,738.6707)"
             id="g175447">
            <path
               id="path175449"
               style="fill:#0860a0;fill-opacity:1;fill-rule:nonzero;stroke:none"
               d="M 0,0 C 0.829,0.276 1.538,0.553 2.134,0.811 2.028,1.247 1.908,1.674 1.6,2.204 1.556,2.263 1.514,2.332 1.476,2.409 L 1.471,2.407 C 1.464,2.417 1.458,2.428 1.453,2.439 1.239,2.913 1.286,3.648 2.65,4.401 3.257,4.744 4.34,4.975 4.465,4.994 4.764,5.039 5.055,5.091 5.336,5.147 5.597,6.209 5.74,7.298 5.74,8.411 V 22.905 H -8.598 V -1.774 C -4.776,-1.366 -1.926,-0.642 0,0" />
          </g>
        </g>
      </g>
      <g
         transform="matrix(0.35277777,0,0,-0.35277777,-668.04924,2.7053649)"
         id="g175451">
        <path
           id="path175453"
           style="fill:#f8be2c;fill-opacity:1;fill-rule:nonzero;stroke:none"
           d="M 0,0 -1.33,2.695 -4.303,3.127 -2.152,5.224 -2.66,8.185 0,6.787 2.66,8.185 2.152,5.224 4.303,3.127 1.33,2.695 Z" />
      </g>
      <g
         transform="matrix(0.35277777,0,0,-0.35277777,-689.87426,276.13089)"
         id="g175455">
        <g
           clip-path="url(#clipPath175461)"
           id="g175457">
          <g
             transform="translate(75.4634,778.2737)"
             id="g175463">
            <path
               id="path175465"
               style="fill:#f8be2c;fill-opacity:1;fill-rule:nonzero;stroke:none"
               d="M 0,0 C -0.045,0.194 0.108,0.786 0.757,1.568 1.407,2.351 1.826,2.772 1.497,1.715 1.403,1.183 1.497,-0.164 1.09,-0.116 0.683,-0.069 0.045,-0.194 0,0 m 5.262,-2.377 c 0,0 0.795,-4.406 0.124,-7.004 -1.089,-4.215 -1.355,-8.281 1.697,-9.276 0,0 -0.334,1.105 -0.229,1.662 0,0 0.625,-0.269 0.714,-0.256 0.089,0.012 -0.725,1.593 -0.629,1.871 0.096,0.277 1.195,0.039 1.417,0.063 0.221,0.023 -1.101,1.195 -1.025,2.298 0.028,0.486 0.123,0.189 0.457,0.017 0.334,-0.172 0.655,-0.269 1.132,-0.106 0,0 -0.494,0.264 -0.587,1.122 -0.093,0.857 -0.769,1.706 -1.022,1.875 -0.283,0.188 0.014,0.497 0.452,0.337 0.437,-0.159 0.805,-0.671 0.812,-0.435 0.007,0.235 -0.34,1.483 -1.064,2.462 -0.27,0.346 -0.194,0.433 0.045,0.559 0.24,0.126 0.699,0.215 0.905,0.195 0.206,-0.021 0.305,0.374 -0.304,0.686 -0.611,0.313 -0.586,0.164 -0.204,0.625 0.381,0.461 0.838,0.949 0.367,0.962 -0.472,0.014 -0.835,-0.314 -0.855,-0.004 -0.021,0.31 0.724,1.235 0.684,1.384 -0.04,0.148 -0.672,-0.169 -0.694,0.274 -0.021,0.442 0.29,1.343 0.401,1.635 0.111,0.291 0.098,0.336 -0.309,0.009 C 7.139,-1.75 6.286,-2.617 6.001,-2.459 5.264,-2.052 5.262,-2.377 5.262,-2.377 m 8.505,-21.485 c 0.84,-2.835 -0.53,-5.885 -2.799,-7.721 -0.232,-0.192 -0.474,-0.377 -0.727,-0.553 -2.273,-1.585 -5.445,-2.486 -5.903,-3.739 0,0 -0.257,-0.612 -0.439,-1.705 -0.181,-1.092 -0.256,-2.399 -0.978,-2.753 -0.723,-0.416 -1.587,-0.869 -2.31,-1.37 -1.187,0 -2.485,0.059 -2.485,0.059 0.496,0.586 1.198,1.29 2.179,2.038 0.818,0.775 0.899,1.041 1.359,2.626 0.42,1.445 -0.449,2.637 2.976,5.156 0,0 -2.806,2.298 -2.077,6.696 0,0 -5.878,-0.464 -8.42,4.332 -0.145,0.452 -0.185,0.682 -0.185,0.682 -1.469,-0.762 -1.804,-0.984 -2.622,-1.456 -1.332,-0.768 -3.529,-1.453 -3.68,-3.056 0.021,-1.033 -0.613,-1.194 -1.248,-1.269 -0.635,-0.076 -1.205,-0.065 -1.334,0.01 -0.129,0.076 -0.086,1.152 0.226,1.7 0.312,0.549 1.151,1.883 3.141,3.4 1.991,1.517 2.783,2.389 2.991,2.814 0.719,1.458 0.455,5.22 -0.098,5.64 -0.552,0.42 -1.013,0.747 -1.963,1.012 -0.375,0.196 -1.394,-0.136 -2.064,-0.395 -0.893,-0.344 -1.453,-0.519 -2.015,-0.809 0,0 0.008,-1.042 -0.229,-1.601 -0.194,-0.398 -2.733,-0.506 -3.045,-0.194 -0.204,0.312 0.183,1.313 0.333,1.937 0.151,0.624 0.248,0.678 1.475,1.162 1.226,0.484 2.044,0.904 3.055,1.635 1.012,0.732 1.604,1.108 3.239,0.226 1.636,-0.882 4.234,-2.03 4.481,-2.169 0.248,-0.14 -0.263,-0.145 -0.311,-1.544 -0.004,-0.143 -0.102,-0.462 -0.007,-1.31 0,0 0.093,-0.014 0.286,0.104 0,0 -0.065,0.771 0.128,1.782 0.458,1.29 1.988,2.981 3.547,3.912 0.772,0.461 1.675,1.095 3.236,2.217 0,0 -0.009,0.176 -0.059,0.24 -0.049,0.065 -0.25,0.073 -0.616,-0.218 -0.366,-0.291 -0.689,-0.593 -1.582,-0.679 -0.893,-0.086 -1.732,0.194 -2.625,0.183 -0.894,-0.011 -1.453,0.021 -1.808,-0.075 -0.355,-0.097 -0.893,-0.56 -1.14,-0.377 -0.248,0.183 -0.42,0.667 -0.786,0.775 -0.366,0.107 -0.678,0.591 -0.452,0.904 0.226,0.311 0.366,0.57 0.516,0.828 0.151,0.258 0.248,0.29 0.84,0.517 0.592,0.226 2.313,0.71 3.809,1.829 1.495,1.119 1.464,2.211 3.458,1.974 l 0.568,-0.036 c 0.346,-0.02 0.674,-0.044 1.181,-0.116 0.508,-0.072 1.828,1.315 2.241,1.603 0.34,0.238 0.794,0.819 0.794,-0.175 0,-0.994 -0.277,-1.268 -0.667,-2.125 C 4.625,-2.348 4.801,-2.492 4.946,-3.599 5.09,-4.705 5.473,-7.397 4.942,-9.651 c -0.486,-2.066 -1.826,-6.596 0.847,-8.857 0.243,-0.206 0.52,-0.393 0.833,-0.557 2.214,-0.703 4.655,-1.489 6.158,-3.39 0.166,-0.211 0.591,-0.48 0.987,-1.407 M 0.333,-2.387 c 0,0 0.301,0.286 -0.016,0.541 -0.318,0.255 -0.426,0.178 -0.642,-0.16 -0.215,-0.337 -0.307,-0.698 -0.07,-0.732 0.237,-0.035 0.473,0.051 0.728,0.351 m -6.197,-2.55 c -0.31,-0.132 -0.265,-0.166 -0.331,-0.317 -0.079,-0.182 -0.192,-0.456 0.066,-0.618 0.258,-0.162 0.493,-0.022 0.611,0.468 0.118,0.49 -0.037,0.6 -0.346,0.467 m -0.901,-26.205 c 0.44,0.017 1.11,0.006 2.537,-0.027 3.138,-0.074 5.701,-0.28 5.716,0.868 0.014,1.15 -0.339,2.889 -0.118,4.023 0.147,0.839 0,0.825 -0.427,0.898 -0.34,0.059 -1.249,0.163 -1.822,0.329 -0.441,0.128 -0.366,-0.058 -0.309,-0.462 0.105,-0.646 0.233,-1.893 -0.184,-2.628 -0.314,-0.556 -1.374,-0.945 -1.936,-0.929 -1.219,0.034 -2.818,-0.029 -4.113,-0.226 l -0.169,-0.023 c -1.318,-0.2 -1.944,-0.657 -3.171,-1.141 -1.226,-0.484 -1.323,-0.538 -1.474,-1.162 -0.15,-0.624 -0.538,-1.625 -0.333,-1.937 0.312,-0.312 2.851,-0.204 3.045,0.194 0.237,0.56 0.219,1.656 0.219,1.656 0.546,0.211 1.128,0.444 2.288,0.539 z" />
          </g>
          <g
             transform="translate(96.2726,768.366)"
             id="g175467">
            <path
               id="path175469"
               style="fill:#f8be2c;fill-opacity:1;fill-rule:nonzero;stroke:none"
               d="m 0,0 c -2.235,0.707 -3.577,-0.614 -4.12,-1.418 0.391,1.886 1.135,4.171 2.707,5.427 -3.515,-1.066 -4.51,-3.314 -5.224,-5.991 -0.081,1.46 -0.472,3.686 0.703,5.077 -5.477,-2.648 0.764,-13.624 -1.036,-16.25 0,0 0.252,-0.273 0.354,-0.694 0.105,-0.434 0.126,-0.694 0.126,-0.694 2.431,1.045 1.872,6.132 2.09,9.276 C -3.457,-1.609 0,0 0,0" />
          </g>
          <g
             transform="translate(51.5215,742.3942)"
             id="g175471">
            <path
               id="path175473"
               style="fill:#e81d31;fill-opacity:1;fill-rule:nonzero;stroke:none"
               d="m 0,0 c -0.378,0.112 -1.013,0.138 -1.685,0.165 -0.567,0.023 -1.143,0.045 -1.647,0.12 1.125,-0.955 3.183,-2.341 7.241,-2.874 0.009,0.088 0.017,0.185 0.025,0.284 0.053,0.634 0.062,1.392 0.527,1.875 0.049,0.051 0.15,0.14 0.243,0.185 0.081,0.04 0.161,0.077 0.29,0.099 0.082,0.013 0.166,0.021 0.25,0.021 0.658,0 1.232,-0.427 1.694,-0.771 0.288,-0.214 0.586,-0.435 0.765,-0.435 0.027,0 0.08,0 0.152,0.086 0.034,0.057 0.069,0.114 0.106,0.174 L 7.955,-1.057 C 8.127,-0.644 7.797,-0.204 6.973,0.252 6.457,0.543 5.49,0.764 5.321,0.79 0.914,1.456 -1.497,3.372 -2.566,4.369 -1.938,2.766 -0.348,0.892 0.224,0.421 0.314,0.347 0.339,0.221 0.284,0.119 0.23,0.017 0.111,-0.033 0,0" />
          </g>
          <g
             transform="translate(59.0905,740.5884)"
             id="g175475">
            <path
               id="path175477"
               style="fill:#e81d31;fill-opacity:1;fill-rule:nonzero;stroke:none"
               d="M 0,0 C -0.294,0.053 -0.588,0.272 -0.922,0.52 -1.346,0.836 -1.816,1.207 -2.314,1.207 -2.37,1.207 -2.454,1.208 -2.51,1.199 -2.572,1.188 -2.581,1.184 -2.645,1.152 L -2.672,1.137 C -2.849,0.535 -2.561,0.317 -2.321,0.205 -2.307,0.198 -2.292,0.19 -2.279,0.181 -2.27,0.173 -1.632,-0.291 -0.297,-0.905 -0.225,-0.621 -0.141,-0.326 0,0" />
          </g>
          <g
             transform="translate(97.2966,739.8052)"
             id="g175479">
            <path
               id="path175481"
               style="fill:#e81d31;fill-opacity:1;fill-rule:nonzero;stroke:none"
               d="M 0,0 C 4.058,0.533 6.115,1.919 7.241,2.874 6.737,2.799 6.16,2.777 5.594,2.754 4.922,2.727 4.286,2.701 3.908,2.589 3.797,2.556 3.679,2.606 3.624,2.708 3.57,2.81 3.595,2.936 3.684,3.01 4.257,3.481 5.847,5.355 6.475,6.958 5.406,5.961 2.995,4.045 -1.412,3.379 -1.581,3.353 -2.549,3.132 -3.062,2.842 -3.889,2.386 -4.194,1.881 -4.021,1.467 h -0.001 c 0.026,-0.042 0.052,-0.083 0.076,-0.123 0.072,-0.086 0.125,-0.086 0.151,-0.086 0.18,0 0.478,0.221 0.766,0.435 0.462,0.344 1.036,0.771 1.694,0.771 0.084,0 0.168,-0.008 0.25,-0.021 0.128,-0.022 0.209,-0.059 0.289,-0.099 0.066,0.002 0.145,-0.08 0.193,-0.13 C -0.137,1.73 -0.078,0.918 -0.026,0.284 -0.017,0.185 -0.009,0.088 0,0" />
          </g>
          <g
             transform="translate(95.9154,740.7692)"
             id="g175483">
            <path
               id="path175485"
               style="fill:#e81d31;fill-opacity:1;fill-rule:nonzero;stroke:none"
               d="m 0,0 c 0.013,0.009 0.027,0.018 0.042,0.025 0.216,0.1 0.472,0.288 0.39,0.765 L 0.375,0.941 C 0.311,0.973 0.279,0.989 0.216,0.999 0.161,1.008 0.103,1.013 0.046,1.013 c -0.497,0 -0.979,-0.358 -1.404,-0.674 -0.333,-0.248 -0.626,-0.466 -0.921,-0.52 0.141,-0.326 0.225,-0.621 0.296,-0.905 C -0.647,-0.472 -0.009,-0.007 0,0" />
          </g>
          <g
             transform="translate(80.1332,734.6771)"
             id="g175487">
            <path
               id="path175489"
               style="fill:#e81d31;fill-opacity:1;fill-rule:nonzero;stroke:none"
               d="m 0,0 c -0.352,-0.017 -0.626,-0.323 -0.61,-0.676 0.016,-0.351 0.318,-0.626 0.67,-0.609 0.352,0.016 0.629,0.317 0.612,0.669 C 0.656,-0.264 0.352,0.016 0,0" />
          </g>
          <g
             transform="translate(72.9155,734.6872)"
             id="g175491">
            <path
               id="path175493"
               style="fill:#e81d31;fill-opacity:1;fill-rule:nonzero;stroke:none"
               d="M 0,0 -0.318,0.016 -0.381,-1.26 -0.063,-1.276 C 0.3,-1.294 0.579,-1.033 0.597,-0.668 0.614,-0.304 0.363,-0.018 0,0" />
          </g>
          <g
             transform="translate(97.319,737.6663)"
             id="g175495">
            <path
               id="path175497"
               style="fill:#e81d31;fill-opacity:1;fill-rule:nonzero;stroke:none"
               d="m 0,0 c -0.01,0.087 -0.02,0.177 -0.02,0.268 0,0.206 -0.214,0.829 -0.355,1.242 L -0.431,1.676 C -0.488,1.842 -0.508,2.08 -0.532,2.383 -0.552,2.618 -0.574,2.889 -0.619,3.152 -0.73,2.964 -0.903,2.81 -1.134,2.697 -1.325,2.559 -2.775,1.561 -5.786,0.554 -8.699,-0.421 -13.691,-1.582 -20.93,-1.582 h -0.048 c -7.24,0 -12.232,1.161 -15.146,2.136 -3.012,1.007 -4.462,2.005 -4.653,2.143 -0.231,0.113 -0.404,0.267 -0.515,0.455 -0.045,-0.263 -0.067,-0.534 -0.086,-0.769 -0.026,-0.303 -0.046,-0.541 -0.102,-0.707 l -0.056,-0.165 c -0.106,-0.309 -0.252,-0.736 -0.32,-1.019 L -41.899,0.125 C -41.902,0.083 -41.907,0.041 -41.911,0 c -0.026,-0.226 -0.049,-0.423 0.095,-0.631 0.095,-0.104 1.238,-1.308 4.216,-2.497 2.867,-1.146 8.065,-2.512 16.547,-2.512 h 0.194 c 8.484,0 13.682,1.366 16.548,2.512 2.975,1.188 4.119,2.391 4.216,2.497 C 0.048,-0.423 0.026,-0.226 0,0 m -29.46,-3.152 c -0.087,-0.535 -0.594,-0.898 -1.127,-0.811 l -0.654,0.106 c -0.027,0.005 -0.045,0.033 -0.041,0.061 l 0.297,1.827 c 0.005,0.027 0.031,0.049 0.058,0.044 l 0.654,-0.106 c 0.533,-0.086 0.899,-0.591 0.813,-1.121 m 1.93,0.466 c -0.003,-0.028 -0.028,-0.051 -0.059,-0.047 l -0.822,0.097 -0.054,-0.455 0.686,-0.081 c 0.028,-0.003 0.05,-0.031 0.047,-0.059 l -0.027,-0.231 c -0.004,-0.03 -0.031,-0.05 -0.059,-0.046 l -0.686,0.081 -0.057,-0.487 0.822,-0.097 c 0.03,-0.003 0.05,-0.03 0.046,-0.058 l -0.027,-0.228 c -0.003,-0.028 -0.028,-0.05 -0.058,-0.047 l -1.131,0.133 c -0.03,0.004 -0.05,0.032 -0.046,0.059 l 0.216,1.839 c 0.003,0.028 0.028,0.05 0.059,0.046 l 1.13,-0.132 c 0.031,-0.004 0.05,-0.031 0.047,-0.06 z m 1.843,-0.162 c -0.002,-0.028 -0.027,-0.051 -0.057,-0.049 l -0.825,0.069 -0.038,-0.457 0.688,-0.057 c 0.028,-0.003 0.051,-0.03 0.049,-0.057 l -0.02,-0.232 c -0.002,-0.03 -0.029,-0.051 -0.057,-0.048 l -0.688,0.057 -0.041,-0.488 0.825,-0.068 c 0.031,-0.003 0.051,-0.03 0.049,-0.058 l -0.019,-0.228 c -0.003,-0.028 -0.027,-0.051 -0.058,-0.049 l -1.134,0.095 c -0.03,0.002 -0.051,0.029 -0.048,0.057 l 0.153,1.845 c 0.003,0.028 0.027,0.051 0.058,0.048 l 1.134,-0.094 c 0.03,-0.003 0.05,-0.029 0.048,-0.058 z m 1.237,-1.749 -0.661,0.032 c -0.028,0.002 -0.049,0.028 -0.048,0.055 l 0.091,1.85 c 0.001,0.027 0.025,0.051 0.053,0.05 l 0.661,-0.033 c 0.539,-0.026 0.959,-0.487 0.932,-1.023 -0.026,-0.541 -0.489,-0.958 -1.028,-0.931 m 2.13,-0.103 c -0.353,0.007 -0.556,0.176 -0.611,0.231 -0.025,0.025 -0.038,0.04 -0.012,0.084 l 0.104,0.171 c 0.023,0.039 0.071,0.038 0.096,0.018 0.013,-0.009 0.237,-0.179 0.418,-0.182 0.145,-0.003 0.257,0.089 0.259,0.209 0.003,0.143 -0.115,0.243 -0.348,0.343 -0.261,0.112 -0.52,0.285 -0.513,0.615 0.005,0.249 0.195,0.534 0.64,0.524 0.285,-0.006 0.5,-0.156 0.555,-0.199 0.028,-0.017 0.035,-0.065 0.015,-0.093 l -0.11,-0.157 c -0.023,-0.033 -0.065,-0.054 -0.098,-0.031 -0.022,0.014 -0.232,0.158 -0.386,0.162 -0.159,0.003 -0.248,-0.101 -0.25,-0.191 -0.003,-0.131 0.099,-0.223 0.324,-0.32 0.269,-0.115 0.579,-0.283 0.571,-0.644 -0.006,-0.288 -0.26,-0.548 -0.654,-0.54 m 3.722,0.275 c -0.188,-0.187 -0.427,-0.277 -0.676,-0.281 -0.559,-0.007 -1.015,0.431 -1.023,0.99 -0.008,0.559 0.436,1.015 0.995,1.023 0.283,0.004 0.488,-0.082 0.68,-0.25 0.026,-0.022 0.026,-0.056 0.004,-0.079 L -18.786,-3.2 c -0.019,-0.023 -0.047,-0.023 -0.069,-10e-4 -0.12,0.101 -0.277,0.161 -0.434,0.159 -0.357,-0.005 -0.619,-0.308 -0.614,-0.66 0.005,-0.35 0.277,-0.642 0.636,-0.638 0.167,0.003 0.309,0.069 0.425,0.166 0.022,0.02 0.053,0.018 0.07,0.001 l 0.176,-0.176 c 0.022,-0.02 0.017,-0.056 -0.002,-0.076 m 1.489,-0.213 c -0.559,-0.026 -1.024,0.398 -1.05,0.956 -0.026,0.559 0.397,1.03 0.956,1.056 0.559,0.026 1.027,-0.403 1.053,-0.962 0.026,-0.559 -0.4,-1.024 -0.959,-1.05 m 2.381,0.156 c -0.438,-0.038 -0.804,0.277 -0.84,0.7 l -0.097,1.16 c -0.003,0.027 0.02,0.055 0.048,0.057 l 0.265,0.022 c 0.03,0.003 0.055,-0.02 0.057,-0.048 l 0.096,-1.14 c 0.02,-0.237 0.198,-0.41 0.44,-0.389 0.243,0.02 0.391,0.221 0.371,0.455 l -0.096,1.142 c -0.003,0.028 0.018,0.055 0.048,0.058 l 0.265,0.022 c 0.028,0.002 0.055,-0.021 0.057,-0.048 l 0.099,-1.16 c 0.035,-0.423 -0.273,-0.794 -0.713,-0.831 m 3.101,0.344 -0.067,-0.008 -1.322,1.125 -0.003,-10e-4 0.152,-1.192 c 0.004,-0.028 -0.015,-0.056 -0.045,-0.06 l -0.253,-0.032 c -0.027,-0.004 -0.056,0.018 -0.059,0.046 l -0.239,1.866 c -0.003,0.028 0.019,0.054 0.047,0.057 l 0.069,0.009 1.311,-1.078 h 0.002 l -0.146,1.145 c -0.004,0.028 0.015,0.056 0.046,0.06 l 0.255,0.032 c 0.028,0.004 0.056,-0.018 0.06,-0.045 l 0.238,-1.867 c 0.003,-0.028 -0.019,-0.053 -0.046,-0.057 m 1.623,1.944 -0.421,-0.074 0.268,-1.545 c 0.005,-0.028 -0.016,-0.056 -0.043,-0.062 l -0.256,-0.044 c -0.028,-0.005 -0.057,0.016 -0.062,0.043 l -0.268,1.546 -0.422,-0.073 c -0.03,-0.006 -0.057,0.015 -0.061,0.043 l -0.039,0.226 c -0.006,0.027 0.012,0.056 0.043,0.061 l 1.203,0.209 c 0.031,0.005 0.057,-0.015 0.062,-0.043 l 0.039,-0.226 c 0.005,-0.027 -0.013,-0.056 -0.043,-0.061" />
          </g>
          <g
             transform="translate(66.9592,735.3066)"
             id="g175499">
            <path
               id="path175501"
               style="fill:#e81d31;fill-opacity:1;fill-rule:nonzero;stroke:none"
               d="M 0,0 -0.315,0.051 -0.52,-1.21 -0.205,-1.261 C 0.154,-1.32 0.46,-1.092 0.519,-0.73 0.577,-0.371 0.359,-0.058 0,0" />
          </g>
        </g>
      </g>
    </g>
  </g>
</svg>
