<?xml version="1.0" encoding="UTF-8" standalone="no"?>
<!-- Created with Inkscape (http://www.inkscape.org/) -->

<svg
   width="36.70956mm"
   height="39.501465mm"
   viewBox="0 0 36.70956 39.501465"
   version="1.1"
   id="svg131952"
   xmlns="http://www.w3.org/2000/svg"
   xmlns:svg="http://www.w3.org/2000/svg"
   xmlns:rdf="http://www.w3.org/1999/02/22-rdf-syntax-ns#"
   xmlns:cc="http://creativecommons.org/ns#"
   xmlns:dc="http://purl.org/dc/elements/1.1/">
  <defs
     id="defs131946">
    <clipPath
       id="clip2">
      <path
         id="path132044"
         d="M 245.69531,125 H 250 v 9 h -4.30469 z m 0,0" />
    </clipPath>
    <clipPath
       id="clip3">
      <path
         id="path132047"
         d="m 269,128 h 5 v 7.77734 h -5 z m 0,0" />
    </clipPath>
    <clipPath
       id="clip4">
      <path
         id="path132050"
         d="m 312,128 h 5 v 7.77734 h -5 z m 0,0" />
    </clipPath>
    <clipPath
       id="clip5">
      <path
         id="path132053"
         d="m 345,128 h 4.75391 v 6 H 345 Z m 0,0" />
    </clipPath>
  </defs>
  <metadata
     id="metadata131949">
    <rdf:RDF>
      <cc:Work
         rdf:about="">
        <dc:format>image/svg+xml</dc:format>
        <dc:type
           rdf:resource="http://purl.org/dc/dcmitype/StillImage" />
        <dc:title />
      </cc:Work>
    </rdf:RDF>
  </metadata>
  <g
     id="layer1"
     transform="translate(-402.00091,-39.200941)">
    <g
       id="g133456">
      <g
         id="g133116">
        <g
           style="clip-rule:nonzero"
           clip-path="url(#clip2)"
           id="g132178"
           transform="matrix(0.35277779,0,0,0.35277779,315.32506,30.803176)">
          <path
             style="fill:#eb1923;fill-opacity:1;fill-rule:nonzero;stroke:none"
             d="m 245.69531,131.63672 c 0.54297,0.55859 1.07813,0.83594 1.60547,0.83594 0.37891,0 0.70313,-0.125 0.97266,-0.37891 0.26953,-0.25391 0.40625,-0.55469 0.40625,-0.90234 0,-0.22266 -0.0781,-0.44141 -0.22657,-0.66407 -0.15234,-0.21484 -0.5,-0.42578 -1.04296,-0.625 -0.40625,-0.14843 -0.72266,-0.29687 -0.94532,-0.45312 -0.22656,-0.15235 -0.41015,-0.35938 -0.55468,-0.61328 -0.14063,-0.25391 -0.21485,-0.54688 -0.21485,-0.87891 0,-0.59765 0.20703,-1.08984 0.61719,-1.48437 0.41406,-0.39063 0.92187,-0.58985 1.53125,-0.58985 0.5,0 0.99219,0.16016 1.47656,0.47266 v 1.19922 c -0.51172,-0.46485 -0.98437,-0.69531 -1.42187,-0.69531 -0.32422,0 -0.59375,0.0977 -0.8086,0.29687 -0.21484,0.19531 -0.32031,0.44141 -0.32031,0.73828 0,0.22266 0.0781,0.42969 0.23047,0.61719 0.15234,0.1914 0.48828,0.38281 1.01562,0.57422 0.60157,0.22265 1.04297,0.48828 1.32032,0.79687 0.27734,0.3086 0.41797,0.72656 0.41797,1.25391 0,0.63672 -0.23829,1.17969 -0.70704,1.6289 -0.46875,0.44922 -1.03125,0.67188 -1.68359,0.67188 -0.54297,0 -1.09766,-0.17969 -1.66797,-0.53516 z m 0,0"
             id="path132176" />
        </g>
        <path
           style="fill:#eb1923;fill-opacity:1;fill-rule:nonzero;stroke:none;stroke-width:0.35277778"
           d="m 403.73035,75.251798 h 0.35278 v 1.050068 c 0.062,-0.08957 0.13091,-0.157099 0.2067,-0.201196 0.0772,-0.0441 0.15985,-0.06615 0.24942,-0.06615 0.15434,0 0.27424,0.05099 0.35968,0.15572 0.0854,0.104729 0.12953,0.243914 0.12953,0.421678 v 1.227833 h -0.3514 v -1.205784 c 0,-0.07993 -0.0207,-0.143316 -0.062,-0.192924 -0.0413,-0.04961 -0.0978,-0.07442 -0.1695,-0.07442 -0.10197,0 -0.18741,0.04823 -0.25769,0.143316 -0.0689,0.09646 -0.10473,0.213597 -0.10473,0.354158 v 0.975649 h -0.35278 z m 0,0"
           id="path132180" />
        <path
           style="fill:#eb1923;fill-opacity:1;fill-rule:nonzero;stroke:none;stroke-width:0.35277778"
           d="m 406.20392,76.97159 c -0.22048,0.02342 -0.36655,0.06339 -0.43821,0.121267 -0.0703,0.05788 -0.10473,0.130916 -0.10473,0.220486 0,0.07442 0.0234,0.139182 0.0717,0.190172 0.0469,0.05236 0.10748,0.07855 0.18052,0.07855 0.0868,0 0.1571,-0.03583 0.21084,-0.107488 0.0537,-0.07166 0.0799,-0.170875 0.0799,-0.294897 z m -0.74689,-0.792371 c 0.17914,-0.09646 0.35415,-0.144695 0.52641,-0.144695 0.11024,0 0.2067,0.0193 0.28801,0.05926 0.0813,0.04134 0.15021,0.101974 0.20395,0.186037 0.0537,0.08406 0.0813,0.1819 0.0813,0.296277 v 0.873676 c 0,0.07579 0.0303,0.112998 0.091,0.112998 0.0358,0 0.0703,-0.01101 0.10197,-0.03447 v 0.311436 c -0.0772,0.01655 -0.15159,0.0248 -0.22462,0.0248 -0.18879,0 -0.28939,-0.07579 -0.30041,-0.227376 -0.0565,0.07993 -0.11852,0.139181 -0.18466,0.179144 -0.0675,0.03997 -0.14056,0.06064 -0.21773,0.06064 -0.1571,0 -0.28388,-0.05374 -0.37896,-0.162609 -0.0951,-0.110243 -0.14332,-0.242535 -0.14332,-0.398251 0,-0.365182 0.30179,-0.570509 0.90399,-0.61323 v -0.05236 c 0,-0.09233 -0.0262,-0.165365 -0.0813,-0.223245 -0.0537,-0.0565 -0.12816,-0.08544 -0.22324,-0.08544 -0.12953,0 -0.27699,0.06752 -0.44235,0.202573 z m 0,0"
           id="path132182" />
        <path
           style="fill:#eb1923;fill-opacity:1;fill-rule:nonzero;stroke:none;stroke-width:0.35277778"
           d="m 407.36286,76.328046 c 0.0524,-0.09784 0.11024,-0.172255 0.17363,-0.220487 0.0634,-0.04823 0.13229,-0.07303 0.20671,-0.07303 0.051,0 0.11024,0.01242 0.17776,0.03721 v 0.358292 c -0.062,-0.02893 -0.11989,-0.04272 -0.17639,-0.04272 -0.11162,0 -0.20257,0.04686 -0.27423,0.14194 -0.0717,0.09646 -0.10748,0.210837 -0.10748,0.345888 v 0.964625 h -0.3514 V 76.07174 h 0.32108 z m 0,0"
           id="path132184" />
        <path
           style="fill:#eb1923;fill-opacity:1;fill-rule:nonzero;stroke:none;stroke-width:0.35277778"
           d="m 408.09046,76.071731 h 0.35553 v 1.768024 h -0.35553 z m 0.17225,-0.821309 c 0.062,0 0.11163,0.02343 0.14745,0.06752 0.0358,0.0441 0.0524,0.100598 0.0524,0.168123 0,0.07166 -0.0179,0.128157 -0.0537,0.170875 -0.0372,0.04272 -0.0841,0.06339 -0.14056,0.06339 -0.0606,0 -0.10887,-0.02205 -0.14332,-0.0689 -0.0358,-0.04548 -0.0537,-0.100598 -0.0537,-0.165365 0,-0.0689 0.0193,-0.126781 0.0579,-0.169499 0.0386,-0.0441 0.0827,-0.06615 0.13366,-0.06615"
           id="path132186" />
        <path
           style="fill:#eb1923;fill-opacity:1;fill-rule:nonzero;stroke:none;stroke-width:0.35277778"
           d="m 409.22321,76.297731 c 0.0634,-0.08819 0.13367,-0.152964 0.21084,-0.197061 0.0758,-0.0441 0.15985,-0.06615 0.24942,-0.06615 0.15021,0 0.26872,0.05099 0.35829,0.151585 0.0882,0.101974 0.13229,0.23151 0.13229,0.389985 v 1.263661 h -0.35691 v -1.135504 c 0,-0.114377 -0.0179,-0.199816 -0.0565,-0.256314 -0.0372,-0.0565 -0.0937,-0.08544 -0.17087,-0.08544 -0.1006,0 -0.18742,0.04823 -0.25907,0.146071 -0.0717,0.09784 -0.10749,0.227376 -0.10749,0.389985 v 0.941201 h -0.34589 v -1.768024 h 0.31833 z m 0,0"
           id="path132188" />
        <g
           style="clip-rule:nonzero"
           clip-path="url(#clip3)"
           id="g132192"
           transform="matrix(0.35277779,0,0,0.35277779,315.32506,30.803176)">
          <path
             style="fill:#eb1923;fill-opacity:1;fill-rule:nonzero;stroke:none"
             d="m 272.73828,129.6875 c -0.13281,-0.18359 -0.26953,-0.32031 -0.41406,-0.41016 -0.14453,-0.0937 -0.29688,-0.13672 -0.45313,-0.13672 -0.3164,0 -0.58593,0.15625 -0.80078,0.46875 -0.21484,0.3125 -0.32422,0.71485 -0.32422,1.21485 0,0.45703 0.0937,0.83984 0.28516,1.14062 0.19141,0.30078 0.42969,0.45313 0.72266,0.45313 0.29687,0 0.53125,-0.16016 0.71484,-0.48047 0.17969,-0.32031 0.26953,-0.64453 0.26953,-0.97656 z m 0,2.91016 c -0.17969,0.24218 -0.375,0.42578 -0.58203,0.55078 -0.20703,0.12109 -0.42578,0.18359 -0.66016,0.18359 -0.50781,0 -0.92968,-0.25 -1.26562,-0.75 -0.33594,-0.50391 -0.50391,-1.08984 -0.50391,-1.76562 0,-0.70313 0.1836,-1.3125 0.54688,-1.82813 0.36718,-0.51562 0.82812,-0.77344 1.3789,-0.77344 0.1875,0 0.375,0.0469 0.5586,0.14063 0.17968,0.0898 0.35547,0.23437 0.52734,0.42187 l 0.27734,-0.45703 H 273.75 v 5.01172 c 0,0.72656 -0.19531,1.31641 -0.59375,1.76953 -0.39063,0.45313 -0.91406,0.67578 -1.5625,0.67578 -0.45703,0 -0.96484,-0.16406 -1.53125,-0.49218 v -1.14454 c 0.50781,0.49219 0.98828,0.73829 1.43359,0.73829 0.375,0 0.67578,-0.14454 0.90235,-0.4375 0.22656,-0.29297 0.33984,-0.66407 0.33984,-1.10938 z m 0,0"
             id="path132190" />
        </g>
        <path
           style="fill:#eb1923;fill-opacity:1;fill-rule:nonzero;stroke:none;stroke-width:0.35277778"
           d="m 413.24019,75.251798 h 1.34083 v 0.343133 h -0.97152 v 0.78686 h 0.91089 v 0.332105 h -0.91089 v 1.125859 h -0.36931 z m 0,0"
           id="path132194" />
        <path
           style="fill:#eb1923;fill-opacity:1;fill-rule:nonzero;stroke:none;stroke-width:0.35277778"
           d="m 415.58699,76.97159 c -0.22187,0.02342 -0.36794,0.06339 -0.43822,0.121267 -0.0703,0.05788 -0.10473,0.130916 -0.10473,0.220486 0,0.07442 0.0234,0.139182 0.0703,0.190172 0.0482,0.05236 0.10887,0.07855 0.1819,0.07855 0.0868,0 0.15572,-0.03583 0.21084,-0.107488 0.0537,-0.07166 0.0799,-0.170875 0.0799,-0.294897 z m -0.74828,-0.792371 c 0.17915,-0.09646 0.35554,-0.144695 0.52779,-0.144695 0.11024,0 0.20533,0.0193 0.28801,0.05926 0.0813,0.04134 0.14883,0.101974 0.20395,0.186037 0.0538,0.08406 0.0813,0.1819 0.0813,0.296277 v 0.873676 c 0,0.07579 0.0303,0.112998 0.0909,0.112998 0.0358,0 0.0703,-0.01101 0.10197,-0.03447 v 0.311436 c -0.0786,0.01655 -0.15296,0.0248 -0.22462,0.0248 -0.18879,0 -0.28939,-0.07579 -0.30041,-0.227376 -0.0565,0.07993 -0.11851,0.139181 -0.18604,0.179144 -0.0661,0.03997 -0.13918,0.06064 -0.21635,0.06064 -0.15709,0 -0.28387,-0.05374 -0.37896,-0.162609 -0.0951,-0.110243 -0.14332,-0.242535 -0.14332,-0.398251 0,-0.365182 0.3018,-0.570509 0.904,-0.61323 v -0.05236 c 0,-0.09233 -0.0276,-0.165365 -0.0813,-0.223245 -0.0551,-0.0565 -0.12815,-0.08544 -0.22324,-0.08544 -0.12953,0 -0.27699,0.06752 -0.44373,0.202573 z m 0,0"
           id="path132196" />
        <path
           style="fill:#eb1923;fill-opacity:1;fill-rule:nonzero;stroke:none;stroke-width:0.35277778"
           d="m 416.40417,76.071731 h 0.35553 v 1.768024 h -0.35553 z m 0.17225,-0.821309 c 0.0634,0 0.11162,0.02343 0.14745,0.06752 0.0358,0.0441 0.0524,0.100598 0.0524,0.168123 0,0.07166 -0.0179,0.128157 -0.0537,0.170875 -0.0372,0.04272 -0.0841,0.06339 -0.14056,0.06339 -0.0606,0 -0.10886,-0.02205 -0.14469,-0.0689 -0.0345,-0.04548 -0.0524,-0.100598 -0.0524,-0.165365 0,-0.0689 0.0193,-0.126781 0.0579,-0.169499 0.0386,-0.0441 0.0827,-0.06615 0.13367,-0.06615"
           id="path132198" />
        <path
           style="fill:#eb1923;fill-opacity:1;fill-rule:nonzero;stroke:none;stroke-width:0.35277778"
           d="m 417.28198,75.505357 h 0.31143 v 0.566374 h 0.33624 v 0.300412 h -0.33624 v 1.051443 c 0,0.04823 0.0124,0.08268 0.0386,0.107488 0.0262,0.02343 0.0648,0.03583 0.11713,0.03583 0.0537,0 0.113,-0.01792 0.18052,-0.05512 v 0.307305 c -0.10197,0.03858 -0.20257,0.05788 -0.30317,0.05788 -0.11851,0 -0.21084,-0.03168 -0.27698,-0.09646 -0.0661,-0.06477 -0.0992,-0.15434 -0.0992,-0.268718 v -1.139638 h -0.23978 v -0.300412 h 0.23978 z m 0,0"
           id="path132200" />
        <path
           style="fill:#eb1923;fill-opacity:1;fill-rule:nonzero;stroke:none;stroke-width:0.35277778"
           d="m 418.17908,75.251798 h 0.35278 v 1.050068 c 0.062,-0.08957 0.13091,-0.157099 0.2067,-0.201196 0.0772,-0.0441 0.15985,-0.06615 0.24943,-0.06615 0.15434,0 0.27423,0.05099 0.35967,0.15572 0.0868,0.104729 0.12953,0.243914 0.12953,0.421678 v 1.227833 h -0.3514 v -1.205784 c 0,-0.07993 -0.0207,-0.143316 -0.062,-0.192924 -0.0413,-0.04961 -0.0978,-0.07442 -0.1695,-0.07442 -0.10197,0 -0.18741,0.04823 -0.25769,0.143316 -0.0689,0.09646 -0.10473,0.213597 -0.10473,0.354158 v 0.975649 h -0.35278 z m 0,0"
           id="path132202" />
        <path
           style="fill:#eb1923;fill-opacity:1;fill-rule:nonzero;stroke:none;stroke-width:0.35277778"
           d="m 419.93745,78.39786 0.0386,-0.101974 c 0.0634,-0.166744 0.0951,-0.304546 0.0965,-0.414789 -0.10473,-0.03583 -0.15709,-0.112998 -0.15709,-0.23289 0,-0.07304 0.0179,-0.135047 0.0565,-0.181899 0.0386,-0.04823 0.0868,-0.07166 0.14469,-0.07166 0.0593,0 0.10611,0.02618 0.14469,0.07579 0.0372,0.05099 0.0565,0.115754 0.0565,0.194303 0,0.133668 -0.0634,0.347264 -0.19154,0.640786 l -0.0386,0.09233 z m 0,0"
           id="path132204" />
        <path
           style="fill:#eb1923;fill-opacity:1;fill-rule:nonzero;stroke:none;stroke-width:0.35277778"
           d="m 421.71926,75.251798 h 0.36931 v 1.072117 h 0.7841 v -1.072117 h 0.37346 v 2.587957 h -0.37346 v -1.18787 h -0.7841 v 1.18787 h -0.36931 z m 0,0"
           id="path132206" />
        <path
           style="fill:#eb1923;fill-opacity:1;fill-rule:nonzero;stroke:none;stroke-width:0.35277778"
           d="m 424.36096,76.329425 c -0.1323,0 -0.23289,0.05788 -0.30179,0.17501 -0.0689,0.117136 -0.10473,0.275607 -0.10473,0.474045 0,0.176389 0.0358,0.319705 0.10748,0.429948 0.073,0.110243 0.16399,0.166744 0.27561,0.166744 0.11438,0 0.20808,-0.0565 0.2825,-0.166744 0.073,-0.110243 0.11024,-0.26596 0.11024,-0.467152 0,-0.180524 -0.0345,-0.327974 -0.10611,-0.440973 -0.0703,-0.114377 -0.15847,-0.170878 -0.2632,-0.170878 m -0.0372,-0.294901 c 0.23427,0 0.4203,0.08406 0.55948,0.253559 0.13781,0.168123 0.20671,0.391365 0.20671,0.668348 0,0.265963 -0.0661,0.486449 -0.19982,0.660083 -0.13366,0.173633 -0.31694,0.260448 -0.55121,0.260448 -0.23564,0 -0.41755,-0.08819 -0.54846,-0.264583 -0.13091,-0.176389 -0.19568,-0.39274 -0.19568,-0.650434 0,-0.264583 0.0675,-0.48507 0.20257,-0.662838 0.13505,-0.176389 0.31006,-0.264583 0.52641,-0.264583"
           id="path132208" />
        <g
           style="clip-rule:nonzero"
           clip-path="url(#clip4)"
           id="g132212"
           transform="matrix(0.35277779,0,0,0.35277779,315.32506,30.803176)">
          <path
             style="fill:#eb1923;fill-opacity:1;fill-rule:nonzero;stroke:none"
             d="m 313.0625,131.94922 c 0.13281,0.1914 0.26953,0.33203 0.41406,0.42969 0.14453,0.0937 0.29297,0.14453 0.44922,0.14453 0.30078,0 0.5625,-0.15235 0.78906,-0.45313 0.22657,-0.30078 0.33985,-0.73047 0.33985,-1.28906 0,-0.46875 -0.0899,-0.86328 -0.26563,-1.17969 -0.17969,-0.32031 -0.42187,-0.47656 -0.72265,-0.47656 -0.30079,0 -0.53907,0.15234 -0.72657,0.45703 -0.18359,0.30469 -0.27734,0.66016 -0.27734,1.0625 z m 0,-2.94531 c 0.16406,-0.26563 0.35156,-0.46094 0.56641,-0.59375 0.21484,-0.12891 0.44921,-0.19532 0.71093,-0.19532 0.52344,0 0.94532,0.2461 1.26563,0.73438 0.32031,0.49219 0.48047,1.08984 0.48047,1.79687 0,0.73828 -0.17578,1.3711 -0.53516,1.89844 -0.35547,0.53125 -0.82812,0.79297 -1.41016,0.79297 -0.19531,0 -0.38671,-0.0391 -0.5625,-0.11328 -0.17968,-0.0742 -0.35156,-0.1875 -0.51562,-0.33985 v 2.6836 h -0.99609 v -7.34766 h 0.90625 z m 0,0"
             id="path132210" />
        </g>
        <path
           style="fill:#eb1923;fill-opacity:1;fill-rule:nonzero;stroke:none;stroke-width:0.35277778"
           d="m 427.46154,76.676692 h 0.67662 c -0.008,-0.117136 -0.0386,-0.20533 -0.0882,-0.264583 -0.051,-0.05926 -0.12265,-0.08819 -0.21498,-0.08819 -0.0786,0 -0.1502,0.02893 -0.21222,0.08819 -0.062,0.05925 -0.11575,0.147447 -0.16123,0.264583 m 0.97979,0.989429 c -0.22876,0.140561 -0.42581,0.210841 -0.58842,0.210841 -0.24805,0 -0.4396,-0.08957 -0.57464,-0.265962 -0.13505,-0.177765 -0.20258,-0.391361 -0.20258,-0.640786 0,-0.270097 0.0744,-0.493339 0.22187,-0.671107 0.14745,-0.176389 0.33073,-0.264583 0.54846,-0.264583 0.19981,0 0.35966,0.07303 0.47956,0.217731 0.11988,0.146071 0.17914,0.336243 0.17914,0.573264 v 0.129536 h -1.07211 v 0.06339 c 0,0.157095 0.0427,0.285252 0.13091,0.387226 0.0868,0.101974 0.19017,0.152965 0.31006,0.152965 0.17087,0 0.36104,-0.09922 0.56775,-0.296281 z m 0,0"
           id="path132214" />
        <path
           style="fill:#eb1923;fill-opacity:1;fill-rule:nonzero;stroke:none;stroke-width:0.35277778"
           d="m 430.31271,76.478255 c -0.20258,0.15434 -0.30455,0.33486 -0.30455,0.542946 0,0.146071 0.0441,0.268718 0.12953,0.367937 0.0868,0.100594 0.19155,0.150205 0.31558,0.150205 0.11713,0 0.22048,-0.04823 0.31143,-0.146071 z m -0.113,-0.228755 c -0.10336,-0.203952 -0.15434,-0.376206 -0.15434,-0.515388 0,-0.148826 0.0524,-0.272852 0.15847,-0.373447 0.10611,-0.09784 0.24805,-0.148829 0.42719,-0.148829 0.0937,0 0.19982,0.0193 0.31833,0.05926 v 0.363802 c -0.10335,-0.06615 -0.19431,-0.09922 -0.27423,-0.09922 -0.0744,0 -0.1378,0.0193 -0.18879,0.06201 -0.051,0.04134 -0.0772,0.101978 -0.0772,0.181903 0,0.07993 0.0455,0.210838 0.1378,0.39274 l 0.40239,0.810285 c 0.0248,-0.201192 0.0372,-0.40652 0.0372,-0.615982 h 0.35003 c -0.008,0.410655 -0.0772,0.738629 -0.20533,0.981164 l 0.24529,0.491959 h -0.38999 l -0.0937,-0.187413 c -0.15986,0.14883 -0.33211,0.22462 -0.51676,0.22462 -0.21498,0 -0.38861,-0.07442 -0.5209,-0.221865 -0.1323,-0.147451 -0.19982,-0.332105 -0.19982,-0.551215 0,-0.1695 0.0413,-0.318326 0.12264,-0.450618 0.0813,-0.132291 0.22187,-0.265962 0.42169,-0.403764"
           id="path132216" />
        <path
           style="fill:#eb1923;fill-opacity:1;fill-rule:nonzero;stroke:none;stroke-width:0.35277778"
           d="m 432.68018,75.251798 h 0.36931 v 2.250338 h 0.96187 v 0.337619 h -1.33118 z m 0,0"
           id="path132218" />
        <path
           style="fill:#eb1923;fill-opacity:1;fill-rule:nonzero;stroke:none;stroke-width:0.35277778"
           d="m 434.8933,76.329425 c -0.13091,0 -0.23151,0.05788 -0.30041,0.17501 -0.0703,0.117136 -0.10473,0.275607 -0.10473,0.474045 0,0.176389 0.0358,0.319705 0.10749,0.429948 0.0717,0.110243 0.16399,0.166744 0.2756,0.166744 0.11438,0 0.20809,-0.0565 0.2825,-0.166744 0.073,-0.110243 0.11024,-0.26596 0.11024,-0.467152 0,-0.180524 -0.0358,-0.327974 -0.1061,-0.440973 -0.0703,-0.114377 -0.15848,-0.170878 -0.26459,-0.170878 m -0.0358,-0.294901 c 0.23427,0 0.42031,0.08406 0.55811,0.253559 0.13918,0.168123 0.20809,0.391365 0.20809,0.668348 0,0.265963 -0.0661,0.486449 -0.19982,0.660083 -0.13367,0.173633 -0.31833,0.260448 -0.55122,0.260448 -0.23564,0 -0.41754,-0.08819 -0.54846,-0.264583 -0.13091,-0.176389 -0.19568,-0.39274 -0.19568,-0.650434 0,-0.264583 0.0675,-0.48507 0.2012,-0.662838 0.13504,-0.176389 0.31143,-0.264583 0.52778,-0.264583"
           id="path132220" />
        <path
           style="fill:#eb1923;fill-opacity:1;fill-rule:nonzero;stroke:none;stroke-width:0.35277778"
           d="m 435.73666,76.071731 h 0.3831 l 0.34313,1.329807 0.34175,-1.329807 h 0.37207 l -0.54019,1.768024 h -0.35967 z m 0,0"
           id="path132222" />
        <g
           style="clip-rule:nonzero"
           clip-path="url(#clip5)"
           id="g132226"
           transform="matrix(0.35277779,0,0,0.35277779,315.32506,30.803176)">
          <path
             style="fill:#eb1923;fill-opacity:1;fill-rule:nonzero;stroke:none"
             d="m 346.79687,130.03516 h 1.91407 c -0.0234,-0.33204 -0.10938,-0.58204 -0.25,-0.75 -0.14063,-0.16797 -0.34375,-0.25 -0.60938,-0.25 -0.22265,0 -0.42187,0.082 -0.60156,0.25 -0.17578,0.16796 -0.32813,0.41796 -0.45313,0.75 m 2.77735,2.80468 c -0.65235,0.39844 -1.21094,0.59766 -1.67188,0.59766 -0.70312,0 -1.24609,-0.25391 -1.6289,-0.75391 -0.37891,-0.5039 -0.57032,-1.10937 -0.57032,-1.8164 0,-0.76563 0.20704,-1.39844 0.62891,-1.90235 0.41797,-0.5 0.93359,-0.75 1.55469,-0.75 0.5625,0 1.01562,0.20703 1.35547,0.61719 0.33984,0.41406 0.51172,0.95313 0.51172,1.625 v 0.36719 h -3.04297 v 0.17969 c 0,0.44531 0.125,0.80859 0.37109,1.09765 0.24609,0.28906 0.53906,0.4336 0.87891,0.4336 0.48828,0 1.02343,-0.28125 1.61328,-0.83985 z m 0,0"
             id="path132224" />
        </g>
      </g>
      <g
         id="g133272">
        <path
           style="fill:#1c3a85;fill-opacity:1;fill-rule:nonzero;stroke:none;stroke-width:0.35277778"
           d="m 402.26687,59.93077 v 0.811665 l 0.30041,0.169498 v -1.646755 z m 0,0"
           id="path132228" />
        <path
           style="fill:#ffffff;fill-opacity:1;fill-rule:nonzero;stroke:none;stroke-width:0.35277778"
           d="m 402.50527,59.401604 v 1.475879 l 0.12402,0.0689 v -1.81901 z m -0.30041,0.66697 v 0.63941 l 0.12402,0.07028 v -0.983919 z m 0,0"
           id="path132230" />
        <path
           style="fill:#1c3a85;fill-opacity:1;fill-rule:nonzero;stroke:none;stroke-width:0.35277778"
           d="m 402.76985,58.818693 v 2.204861 l 0.30042,0.169499 v -3.04133 z m 0,0"
           id="path132232" />
        <path
           style="fill:#ffffff;fill-opacity:1;fill-rule:nonzero;stroke:none;stroke-width:0.35277778"
           d="m 403.00825,58.289527 v 2.869075 l 0.12403,0.0689 V 58.11727 l -0.0427,-0.01102 z m -0.30179,0.665592 v 2.033985 l 0.12541,0.07028 V 58.68089 Z m 0,0"
           id="path132234" />
        <path
           style="fill:#1c3a85;fill-opacity:1;fill-rule:nonzero;stroke:none;stroke-width:0.35277778"
           d="m 403.27146,61.306053 0.30041,0.16812 v -3.237012 l -0.30041,-0.0813 z m 0,0"
           id="path132236" />
        <path
           style="fill:#ffffff;fill-opacity:1;fill-rule:nonzero;stroke:none;stroke-width:0.35277778"
           d="m 403.20945,61.271602 0.12402,0.0689 v -3.16811 l -0.12402,-0.03307 z m 0.30041,0.16812 0.12403,0.07028 v -3.256304 l -0.12403,-0.03307 z m 0,0"
           id="path132238" />
        <path
           style="fill:#1c3a85;fill-opacity:1;fill-rule:nonzero;stroke:none;stroke-width:0.35277778"
           d="m 402.76848,58.818693 v 2.20624 l 0.30179,0.16812 v -3.04133 z m 0,0"
           id="path132240" />
        <path
           style="fill:#ffffff;fill-opacity:1;fill-rule:nonzero;stroke:none;stroke-width:0.35277778"
           d="m 403.00825,58.289527 v 2.869075 l 0.12403,0.0689 V 58.11727 l -0.0427,-0.01102 z m -0.30179,0.66697 v 2.032607 l 0.12403,0.07028 v -2.377116 z m 0,0"
           id="path132242" />
        <path
           style="fill:#1c3a85;fill-opacity:1;fill-rule:nonzero;stroke:none;stroke-width:0.35277778"
           d="m 403.27146,61.306053 0.30041,0.16812 v -3.237012 l -0.30041,-0.0813 z m 0,0"
           id="path132244" />
        <path
           style="fill:#ffffff;fill-opacity:1;fill-rule:nonzero;stroke:none;stroke-width:0.35277778"
           d="m 403.20945,61.271602 0.12402,0.0689 v -3.16811 l -0.12402,-0.03307 z m 0.30041,0.16812 0.12403,0.07028 v -3.256304 l -0.12403,-0.03307 z m 0,0"
           id="path132246" />
        <path
           style="fill:#1c3a85;fill-opacity:1;fill-rule:nonzero;stroke:none;stroke-width:0.35277778"
           d="m 403.77307,61.587172 0.30041,0.169499 v -3.383084 l -0.30041,-0.08268 z m 0,0"
           id="path132248" />
        <path
           style="fill:#ffffff;fill-opacity:1;fill-rule:nonzero;stroke:none;stroke-width:0.35277778"
           d="m 403.71106,61.552721 0.12402,0.0689 v -3.314182 l -0.12402,-0.03307 z m 0.30179,0.169499 0.12264,0.0689 v -3.400998 l -0.12264,-0.03445 z m 0,0"
           id="path132250" />
        <path
           style="fill:#1c3a85;fill-opacity:1;fill-rule:nonzero;stroke:none;stroke-width:0.35277778"
           d="m 404.30085,55.425963 0.27561,0.101975 v -0.715202 z m -0.0262,6.443707 0.30179,0.168121 v -3.529156 l -0.30179,-0.0813 z m 0,0"
           id="path132252" />
        <path
           style="fill:#ffffff;fill-opacity:1;fill-rule:nonzero;stroke:none;stroke-width:0.35277778"
           d="m 404.51445,54.95054 v 0.553971 l 0.12402,0.04548 v -0.873676 z m -0.2136,0.475423 0.0358,0.0124 v -0.09509 z m -0.0882,6.407878 0.12403,0.07028 v -3.460254 l -0.12403,-0.03307 z m 0.30179,0.169499 0.12402,0.0689 v -3.547071 l -0.12402,-0.03307 z m 0,0"
           id="path132254" />
        <path
           style="fill:#1c3a85;fill-opacity:1;fill-rule:nonzero;stroke:none;stroke-width:0.35277778"
           d="m 404.77766,54.36763 v 1.233344 l 0.30041,0.111621 v -2.010558 z m 0,7.78316 0.30041,0.168121 v -3.67385 l -0.30041,-0.08131 z m 0,0"
           id="path132256" />
        <path
           style="fill:#ffffff;fill-opacity:1;fill-rule:nonzero;stroke:none;stroke-width:0.35277778"
           d="m 405.01606,53.838463 v 1.850706 l 0.12402,0.04685 v -2.171788 z m -0.30042,0.666971 v 1.073492 l 0.12403,0.04547 v -1.393197 z m 0,7.610905 0.12403,0.0689 v -3.604948 l -0.12403,-0.03445 z m 0.30042,0.168121 0.12402,0.0689 v -3.691765 l -0.12402,-0.03307 z m 0,0"
           id="path132258" />
        <path
           style="fill:#1c3a85;fill-opacity:1;fill-rule:nonzero;stroke:none;stroke-width:0.35277778"
           d="m 405.27926,53.255553 v 2.531456 l 0.30041,0.110243 v -2.711979 l -0.23564,-0.07441 z m 0,9.176357 0.30041,0.169499 v -3.8213 l -0.30041,-0.08131 z m 0,0"
           id="path132260" />
        <path
           style="fill:#ffffff;fill-opacity:1;fill-rule:nonzero;stroke:none;stroke-width:0.35277778"
           d="m 405.21725,53.393357 v 2.370226 l 0.12402,0.04548 v -2.691309 z m 0.30041,2.481847 0.12402,0.04548 v -2.716113 l -0.12402,-0.03996 z m -0.30041,6.522255 0.12402,0.0689 v -3.749642 l -0.12402,-0.03445 z m 0.30041,0.169498 0.12402,0.0689 v -3.837836 l -0.12402,-0.03445 z m 0,0"
           id="path132262" />
        <path
           style="fill:#1c3a85;fill-opacity:1;fill-rule:nonzero;stroke:none;stroke-width:0.35277778"
           d="m 406.02891,51.597773 0.0537,0.02067 V 51.47926 Z m -0.24804,4.373893 0.30179,0.111621 v -2.740918 l -0.30179,-0.09508 z m 0,6.741364 0.30179,0.169498 v -3.965994 l -0.30179,-0.0813 z m 0,0"
           id="path132264" />
        <path
           style="fill:#ffffff;fill-opacity:1;fill-rule:nonzero;stroke:none;stroke-width:0.35277778"
           d="m 406.02891,51.597773 0.11576,0.04685 V 51.34008 Z m -0.31006,4.351845 0.12403,0.04547 v -2.728516 l -0.12403,-0.03858 z m 0.3018,0.110243 0.12402,0.04548 v -2.743674 l -0.12402,-0.03859 z m -0.3018,6.618718 0.12403,0.07028 v -3.897093 l -0.12403,-0.03307 z m 0.3018,0.169498 0.12402,0.0689 v -3.983908 l -0.12402,-0.03307 z m 0,0"
           id="path132266" />
        <path
           style="fill:#1c3a85;fill-opacity:1;fill-rule:nonzero;stroke:none;stroke-width:0.35277778"
           d="m 406.28385,51.032777 v 0.666971 l 0.30041,0.119889 v -1.45383 z m 0,5.124925 0.30041,0.111621 v -2.769857 l -0.30041,-0.09371 z m 0,6.837825 0.30041,0.168121 V 59.05296 l -0.30041,-0.0813 z m 0,0"
           id="path132268" />
        <path
           style="fill:#ffffff;fill-opacity:1;fill-rule:nonzero;stroke:none;stroke-width:0.35277778"
           d="m 406.52225,50.502233 v 1.292599 l 0.12403,0.04961 v -1.616439 z m -0.30179,0.668348 v 0.504362 l 0.1254,0.04961 v -0.829579 z m 0,4.963694 0.1254,0.04547 v -2.754698 l -0.1254,-0.03858 z m 0.30179,0.111621 0.12403,0.04547 v -2.771235 l -0.12403,-0.03996 z m -0.30179,6.713802 0.1254,0.07028 v -4.041786 l -0.1254,-0.03445 z m 0.30179,0.169499 0.12403,0.07028 v -4.129981 l -0.12403,-0.03445 z m 0,0"
           id="path132270" />
        <path
           style="fill:#1c3a85;fill-opacity:1;fill-rule:nonzero;stroke:none;stroke-width:0.35277778"
           d="m 406.78546,49.919322 v 1.980241 l 0.30041,0.11989 v -2.767101 z m 0,6.423037 0.30041,0.111621 v -2.79604 l -0.30041,-0.09508 z m 0,6.934288 0.30041,0.169499 v -4.258138 l -0.30041,-0.0813 z m 0,0"
           id="path132272" />
        <path
           style="fill:#ffffff;fill-opacity:1;fill-rule:nonzero;stroke:none;stroke-width:0.35277778"
           d="m 407.02386,49.390156 v 2.604492 l 0.12402,0.04961 v -2.92971 z m -0.30041,0.66697 v 1.817633 l 0.12402,0.04961 V 49.78152 Z m 0,6.263184 0.12402,0.04548 v -2.783638 l -0.12402,-0.03858 z m 0.30041,0.110243 0.12402,0.04685 v -2.800174 l -0.12402,-0.03858 z m -0.30041,6.811643 0.12402,0.0689 V 59.12324 l -0.12402,-0.03307 z m 0.30041,0.169499 0.12402,0.0689 v -4.276053 l -0.12402,-0.03307 z m 0,0"
           id="path132274" />
        <path
           style="fill:#1c3a85;fill-opacity:1;fill-rule:nonzero;stroke:none;stroke-width:0.35277778"
           d="m 407.28706,52.099379 0.3018,0.121268 v -3.192915 l -0.3018,-0.07028 z m 0,4.429015 0.3018,0.110243 v -2.8236 l -0.3018,-0.09508 z m 0,7.029373 0.3018,0.169499 v -4.402833 l -0.3018,-0.0813 z m 0,0"
           id="path132276" />
        <path
           style="fill:#ffffff;fill-opacity:1;fill-rule:nonzero;stroke:none;stroke-width:0.35277778"
           d="m 407.22505,48.945049 v 3.130903 l 0.12403,0.04961 V 48.97261 l -0.12403,-0.02894 z m 0.30179,3.250793 0.12265,0.04961 V 49.04289 l -0.12265,-0.02894 z m -0.30179,4.309125 0.12403,0.04548 v -2.809821 l -0.12403,-0.03996 z m 0.30179,0.111621 0.12265,0.04548 v -2.827735 l -0.12265,-0.03858 z m -0.30179,6.906728 0.12403,0.0689 v -4.332552 l -0.12403,-0.03445 z m 0.30179,0.169499 0.12265,0.0689 V 59.34097 l -0.12265,-0.03307 z m 0,0"
           id="path132278" />
        <path
           style="fill:#1c3a85;fill-opacity:1;fill-rule:nonzero;stroke:none;stroke-width:0.35277778"
           d="m 408.02431,47.175648 0.0661,0.03721 v -0.183279 z m -0.23564,5.124925 0.30179,0.119889 v -3.275597 l -0.30179,-0.07028 z m 0,4.412478 0.30179,0.111621 v -2.851161 l -0.30179,-0.09509 z m 0,7.127214 0.30179,0.16812 v -4.547526 l -0.30179,-0.08268 z m 0,0"
           id="path132280" />
        <path
           style="fill:#ffffff;fill-opacity:1;fill-rule:nonzero;stroke:none;stroke-width:0.35277778"
           d="m 408.02845,47.16738 v 0.01102 l 0.12402,0.07028 v -0.356912 z m -0.30041,5.108388 0.12264,0.04961 v -3.237012 l -0.12264,-0.02756 z m 0.30041,0.119889 0.12402,0.04961 v -3.286622 l -0.12402,-0.02894 z m -0.30041,4.295345 0.12264,0.04548 v -2.838759 l -0.12264,-0.03859 z m 0.30041,0.110243 0.12402,0.04548 v -2.853917 l -0.12402,-0.03859 z m -0.30041,7.003191 0.12264,0.07028 v -4.480003 l -0.12264,-0.03307 z m 0.30041,0.169499 0.12402,0.0689 v -4.56544 l -0.12402,-0.03445 z m 0,0"
           id="path132282" />
        <path
           style="fill:#1c3a85;fill-opacity:1;fill-rule:nonzero;stroke:none;stroke-width:0.35277778"
           d="m 408.29165,46.583092 v 0.744141 l 0.30042,0.170876 v -1.581988 z m 0,5.917296 0.30042,0.121267 V 49.26062 l -0.30042,-0.0689 z m 0,4.398698 0.30042,0.110243 v -2.878722 l -0.30042,-0.09371 z m 0,7.222298 0.30042,0.169499 v -4.694976 l -0.30042,-0.0813 z m 0,0"
           id="path132284" />
        <path
           style="fill:#ffffff;fill-opacity:1;fill-rule:nonzero;stroke:none;stroke-width:0.35277778"
           d="m 408.53005,46.053925 v 1.408355 l 0.12403,0.07028 v -1.754242 z m -0.30041,0.666971 v 0.571886 l 0.12402,0.07028 v -0.916395 z m 0,5.754688 0.12402,0.04961 V 49.2055 l -0.12402,-0.02894 z m 0.30041,0.119889 0.12403,0.04961 v -3.370681 l -0.12403,-0.02756 z m -0.30041,4.280187 0.12402,0.04547 v -2.86632 l -0.12402,-0.03858 z m 0.30041,0.111621 0.12403,0.04547 V 54.1499 l -0.12403,-0.03859 z m -0.30041,7.099653 0.12402,0.0689 v -4.624697 l -0.12402,-0.03307 z m 0.30041,0.16812 0.12403,0.07028 v -4.712891 l -0.12403,-0.03307 z m 0,0"
           id="path132286" />
        <path
           style="fill:#1c3a85;fill-opacity:1;fill-rule:nonzero;stroke:none;stroke-width:0.35277778"
           d="m 408.79326,45.469637 v 2.141471 l 0.30179,0.170877 V 45.35526 l -0.20395,-0.101975 z m 0,7.231945 0.30179,0.119889 v -3.443717 l -0.30179,-0.07028 z m 0,4.382161 0.30179,0.111621 v -2.906282 l -0.30179,-0.09508 z m 0,7.318762 0.30179,0.169498 v -4.83967 l -0.30179,-0.0813 z m 0,0"
           id="path132288" />
        <path
           style="fill:#ffffff;fill-opacity:1;fill-rule:nonzero;stroke:none;stroke-width:0.35277778"
           d="m 409.03304,47.747534 0.12402,0.07028 v -2.430859 l -0.12402,-0.06339 z m -0.30179,-2.140093 v 1.969216 l 0.12402,0.07028 V 45.33321 Z m 0,7.069336 0.12402,0.04961 v -3.405132 l -0.12402,-0.02894 z m 0.30179,0.119889 0.12402,0.04961 v -3.454742 l -0.12402,-0.02894 z m -0.30179,4.265029 0.12402,0.04548 v -2.89388 l -0.12402,-0.03858 z m 0.30179,0.110243 0.12402,0.04548 v -2.909039 l -0.12402,-0.03996 z m -0.30179,7.196115 0.12402,0.07028 v -4.770768 l -0.12402,-0.03445 z m 0.30179,0.169499 0.12402,0.0689 v -4.857585 l -0.12402,-0.03307 z m 0,0"
           id="path132290" />
        <path
           style="fill:#1c3a85;fill-opacity:1;fill-rule:nonzero;stroke:none;stroke-width:0.35277778"
           d="m 409.40511,44.113647 0.19155,0.132292 v -0.556727 z m -0.11025,3.782715 0.3018,0.169499 v -2.459798 l -0.3018,-0.150206 z m 0,5.005035 0.3018,0.11989 v -3.527778 l -0.3018,-0.07028 z m 0,4.368382 0.3018,0.110243 v -2.933844 l -0.3018,-0.09371 z m 0,7.413845 0.3018,0.169499 v -4.985742 l -0.3018,-0.08131 z m 0,0"
           id="path132292" />
        <path
           style="fill:#ffffff;fill-opacity:1;fill-rule:nonzero;stroke:none;stroke-width:0.35277778"
           d="m 409.53464,43.827016 v 0.376204 l 0.12403,0.08682 v -0.73725 z m -0.30179,4.033517 0.12403,0.07028 v -2.444639 l -0.12403,-0.06201 z m 0.30179,0.170877 0.12403,0.07028 v -2.463932 l -0.12403,-0.06201 z m -0.30179,4.845182 0.12403,0.04961 v -3.487815 l -0.12403,-0.02894 z m 0.30179,0.11989 0.12403,0.04961 V 49.50729 l -0.12403,-0.02894 z m -0.30179,4.24987 0.12403,0.04547 v -2.920063 l -0.12403,-0.03996 z m 0.30179,0.111621 0.12403,0.04547 v -2.937977 l -0.12403,-0.03858 z m -0.30179,7.2912 0.12403,0.07028 v -4.91684 l -0.12403,-0.03307 z m 0.30179,0.169499 0.12403,0.0689 v -5.002279 l -0.12403,-0.03445 z m 0,0"
           id="path132294" />
        <path
           style="fill:#1c3a85;fill-opacity:1;fill-rule:nonzero;stroke:none;stroke-width:0.35277778"
           d="m 409.79785,43.244105 v 1.141016 l 0.30041,0.209462 v -2.017448 z m 0,4.936133 0.30041,0.170877 v -2.492871 l -0.30041,-0.151584 z m 0,4.920975 0.30041,0.119889 v -3.611838 l -0.30041,-0.0689 z m 0,4.353223 0.30041,0.111621 v -2.962782 l -0.30041,-0.09371 z m 0,7.511686 0.30041,0.168121 v -5.130436 l -0.30041,-0.08131 z m 0,0"
           id="path132296" />
        <path
           style="fill:#ffffff;fill-opacity:1;fill-rule:nonzero;stroke:none;stroke-width:0.35277778"
           d="m 410.03625,42.714939 v 1.835547 l 0.12402,0.08682 v -2.196593 z m -0.30041,0.66697 v 0.960493 l 0.12264,0.08544 v -1.320161 z m 0,4.7625 0.12264,0.07166 v -2.477712 l -0.12264,-0.06201 z m 0.30041,0.170877 0.12402,0.07028 v -2.497005 l -0.12402,-0.06201 z m -0.30041,4.761122 0.12264,0.04961 v -3.571876 l -0.12264,-0.02894 z m 0.30041,0.119889 0.12402,0.04961 v -3.621485 l -0.12402,-0.02894 z m -0.30041,4.23609 0.12264,0.04548 V 54.52886 l -0.12264,-0.03996 z m 0.30041,0.110243 0.12402,0.04547 v -2.96416 l -0.12402,-0.03996 z m -0.30041,7.389041 0.12264,0.0689 v -5.061534 l -0.12264,-0.03307 z m 0.30041,0.168121 0.12402,0.07028 v -5.149729 l -0.12402,-0.03307 z m 0,0"
           id="path132298" />
        <path
           style="fill:#1c3a85;fill-opacity:1;fill-rule:nonzero;stroke:none;stroke-width:0.35277778"
           d="m 410.29946,44.732387 0.30179,0.208083 v -2.574175 l -0.30179,-0.150206 z m 0,3.731727 0.30179,0.170877 v -2.525944 l -0.30179,-0.150206 z m 0,4.838292 0.30179,0.11989 v -3.695899 l -0.30179,-0.07028 z m 0,4.338065 0.2756,0.100597 v 2.392274 l -0.2756,-0.07579 v 5.189692 l 0.30179,0.169499 V 54.761749 l -0.30179,-0.09509 z m 0,0"
           id="path132300" />
        <path
           style="fill:#ffffff;fill-opacity:1;fill-rule:nonzero;stroke:none;stroke-width:0.35277778"
           d="m 410.23744,42.269832 v 2.419835 l 0.12403,0.08682 v -2.5287 l -0.0923,-0.04685 z m 0.3018,2.627919 0.12402,0.08682 V 42.39799 l -0.12402,-0.06201 z m -0.3018,3.531912 0.12403,0.07028 v -2.510786 l -0.12403,-0.06201 z m 0.3018,0.170877 0.12402,0.07028 v -2.530079 l -0.12402,-0.06201 z m -0.3018,4.677062 0.12403,0.04961 v -3.657313 l -0.12403,-0.02756 z m 0.3018,0.119889 0.12402,0.04961 v -3.706922 l -0.12402,-0.02894 z m -0.3018,4.219553 0.12403,0.04548 v -2.976562 l -0.12403,-0.03859 z m 0.3018,0.111621 0.0358,0.0124 v 2.390896 l -0.0358,-0.0096 v 5.25997 l 0.12402,0.0689 v -10.67019 l -0.12402,-0.03859 z m -0.3018,7.484126 0.12403,0.0689 v -5.206229 l -0.12403,-0.03445 z m 0,0"
           id="path132302" />
        <path
           style="fill:#1c3a85;fill-opacity:1;fill-rule:nonzero;stroke:none;stroke-width:0.35277778"
           d="m 410.80244,41.022708 v 0.307302 l 0.0386,0.02756 -0.0386,0.971517 v 11.173132 l 0.0276,0.01102 V 54.8334 l -0.0276,-0.0096 v 15.773024 h 0.30041 V 40.354359 Z m 0,0"
           id="path132304" />
        <path
           style="fill:#ffffff;fill-opacity:1;fill-rule:nonzero;stroke:none;stroke-width:0.35277778"
           d="m 411.04084,40.492163 v 30.042612 h -0.17777 V 40.884904 l -0.12402,0.275607 v 0.12678 l 0.10198,0.07028 -0.0441,1.106565 -0.0579,-0.02756 v 2.601736 l 0.0579,0.03859 -0.0455,1.107942 -0.0124,-0.0069 v 2.53559 l 0.0248,0.01378 0.0331,1.044553 -0.0579,-0.01378 v 3.719325 l 0.091,0.03583 v 1.320161 l -0.091,-0.02894 v 15.85433 h 0.42581 V 40.216555 Z m 0,0"
           id="path132306" />
        <path
           style="fill:#1c3a85;fill-opacity:1;fill-rule:nonzero;stroke:none;stroke-width:0.35277778"
           d="m 411.80565,39.304294 v 31.292492 h 0.30041 v -31.36415 l -0.0703,-0.03169 z m 0,0"
           id="path132308" />
        <path
           style="fill:#ffffff;fill-opacity:1;fill-rule:nonzero;stroke:none;stroke-width:0.35277778"
           d="m 412.04543,70.534775 h -0.17777 V 39.276733 l -0.12402,0.0565 v 31.325564 h 0.42443 v -31.3986 l -0.12264,-0.05512 z m 0,0"
           id="path132310" />
        <path
           style="fill:#1c3a85;fill-opacity:1;fill-rule:nonzero;stroke:none;stroke-width:0.35277778"
           d="m 412.81024,70.534775 v 0.06201 h 0.30041 v -10.47998 l -0.0551,0.01516 v -2.390896 l 0.0551,-0.02067 v -7.984356 l -0.0441,0.0096 0.0441,-0.15434 v -0.332106 l -0.0661,-0.57602 0.0661,-0.03721 v -7.977463 l -0.30041,-0.666971 z m 0,0"
           id="path132312" />
        <path
           style="fill:#ffffff;fill-opacity:1;fill-rule:nonzero;stroke:none;stroke-width:0.35277778"
           d="m 412.74823,70.534775 v 0.124022 h 0.42443 v -2.949 l -0.04,-2.443263 0.04,-0.02067 v -5.145596 l -0.11713,0.03307 v -2.392274 l 0.11713,-0.04272 v -3.02755 l -0.04,0.0124 0.04,-1.194759 v -3.767558 l -0.1061,0.0248 0.0882,-0.310059 -0.0441,-0.176389 -0.062,-0.537434 v 21.812968 h -0.17777 V 40.138007 l -0.12264,-0.274229 z m 0.30041,-21.854309 0.12402,-0.07028 v -7.805209 l -0.12402,-0.274229 z m 0,0"
           id="path132314" />
        <path
           style="fill:#1c3a85;fill-opacity:1;fill-rule:nonzero;stroke:none;stroke-width:0.35277778"
           d="m 413.31185,41.302449 0.0648,-0.04548 -0.0648,-0.144694 z m 0,1.143772 v 2.575554 l 0.30041,-0.209462 v -2.516298 z m 0,3.720703 v 2.364714 l 0.30041,-0.170877 v -2.344043 z m 0,3.522266 v 3.61046 l 0.30041,-0.121267 V 49.61891 Z m 0,4.938889 v 3.019282 l 0.30041,-0.111621 v -3.001368 z m 0,5.434983 v 5.1139 l 0.30041,-0.151584 v -5.04362 z m 0,0"
           id="path132316" />
        <path
           style="fill:#ffffff;fill-opacity:1;fill-rule:nonzero;stroke:none;stroke-width:0.35277778"
           d="m 413.24984,41.345168 0.12402,-0.08544 v -0.0096 l -0.12402,-0.274229 z m 0,3.719326 0.12402,-0.08682 V 42.4159 l -0.0978,0.04823 -0.0262,-0.664215 z m 0.30179,-2.738162 v 2.530078 l 0.12264,-0.08682 v -2.50527 z m -0.30179,6.239757 0.12402,-0.07028 V 46.13523 l -0.0978,0.04961 -0.0262,-0.665593 z m 0.30179,-2.519054 v 2.348177 l 0.12264,-0.07028 v -2.339909 z m 0,3.585656 v 3.570497 l 0.12264,-0.04961 v -3.549826 z m -0.30179,0.07028 v 3.622862 l 0.12402,-0.05099 v -3.600814 z m 0.30179,4.850694 v 3.004124 l 0.12264,-0.04548 V 54.51508 Z m -0.30179,0.09371 v 3.022038 l 0.12402,-0.04548 v -3.015147 z m 0.30179,5.350922 v 5.057401 l 0.12264,-0.06201 v -5.028462 z m -0.30179,0.0813 v 5.127681 l 0.12402,-0.06201 v -5.098742 z m 0,0"
           id="path132318" />
        <path
           style="fill:#1c3a85;fill-opacity:1;fill-rule:nonzero;stroke:none;stroke-width:0.35277778"
           d="m 413.81345,44.674509 0.30179,-0.209462 v -1.570963 l -0.30179,-0.668349 z m 0,1.241612 v 2.330263 l 0.30179,-0.170876 v -2.309593 z m 0,3.655936 v 3.525022 l 0.30179,-0.121268 v -3.474034 z m 0,4.898926 v 2.990343 l 0.30179,-0.111621 v -2.971051 z m 0,5.455653 v 4.996767 l 0.30179,-0.150206 v -4.927865 z m 0,0"
           id="path132320" />
        <path
           style="fill:#ffffff;fill-opacity:1;fill-rule:nonzero;stroke:none;stroke-width:0.35277778"
           d="m 413.75144,42.225735 v 2.491493 l 0.12403,-0.08544 v -2.268251 l -0.073,-0.162609 z m 0.30179,2.283409 0.12403,-0.08682 v -1.391819 l -0.12403,-0.274229 z m 0,1.287088 v 2.315104 l 0.12403,-0.07166 V 45.73422 Z m -0.30179,0.150206 v 2.335775 l 0.12403,-0.07028 v -2.327506 z m 0.30179,3.569119 v 3.485059 l 0.12403,-0.04961 v -3.464388 z m -0.30179,0.07028 v 3.536046 l 0.12403,-0.04961 v -3.515376 z m 0.30179,4.810732 v 2.976562 l 0.12403,-0.04548 v -2.968294 z m -0.30179,0.09371 v 2.993099 l 0.12403,-0.04547 V 54.45169 Z m 0.30179,5.371594 v 4.941644 l 0.12403,-0.06201 v -4.912706 z m -0.30179,0.08268 V 64.9551 l 0.12403,-0.06201 V 59.9101 Z m 0,0"
           id="path132322" />
        <path
           style="fill:#1c3a85;fill-opacity:1;fill-rule:nonzero;stroke:none;stroke-width:0.35277778"
           d="m 414.31644,44.327243 0.30041,-0.209461 v -0.110243 l -0.30041,-0.668349 z m 0,1.338075 v 2.295812 l 0.30041,-0.170877 v -2.276519 z m 0,3.788228 v 3.440961 l 0.30041,-0.122645 v -3.388596 z m 0,4.861719 v 2.960025 l 0.30041,-0.110243 v -2.943489 z m 0,5.476323 v 4.879634 l 0.30041,-0.151584 v -4.809354 z m 0,0"
           id="path132324" />
        <path
           style="fill:#ffffff;fill-opacity:1;fill-rule:nonzero;stroke:none;stroke-width:0.35277778"
           d="m 414.25443,44.369962 0.12402,-0.08682 V 43.47699 l -0.12402,-0.275608 z m 0.30041,-0.209461 0.1006,-0.0689 -0.1006,-0.221865 z m 0,1.384928 v 2.280653 l 0.12402,-0.07166 v -2.271007 z m -0.30041,0.150206 v 2.301324 l 0.12402,-0.07028 v -2.293056 z m 0.30041,3.702789 v 3.398242 l 0.12402,-0.04961 v -3.377572 z m -0.30041,0.07028 v 3.450608 l 0.12402,-0.04961 v -3.429937 z m 0.30041,4.772146 v 2.946246 l 0.12402,-0.04547 V 54.20227 Z m -0.30041,0.09371 v 2.96416 l 0.12402,-0.04548 v -2.95727 z m 0.30041,5.392264 v 4.824511 l 0.12402,-0.06201 V 59.69237 Z m -0.30041,0.0813 v 4.894792 l 0.12402,-0.06201 v -4.865853 z m 0,0"
           id="path132326" />
        <path
           style="fill:#1c3a85;fill-opacity:1;fill-rule:nonzero;stroke:none;stroke-width:0.35277778"
           d="m 414.81804,45.413137 v 2.262739 l 0.30042,-0.170877 v -2.242068 z m 0,3.923275 v 3.354145 l 0.30042,-0.121267 v -3.303157 z m 0,4.823134 v 2.931088 l 0.30042,-0.111622 v -2.913173 z m 0,5.495617 v 4.763878 l 0.30042,-0.151584 v -4.693598 z m 0,0"
           id="path132328" />
        <path
           style="fill:#ffffff;fill-opacity:1;fill-rule:nonzero;stroke:none;stroke-width:0.35277778"
           d="m 415.05644,45.294626 v 2.246202 l 0.12403,-0.07028 v -2.217264 l -0.007,-0.01791 z m -0.30041,0.150206 v 2.266873 l 0.12402,-0.07028 v -2.258604 z m 0.30041,3.836459 v 3.312804 l 0.12403,-0.04961 v -3.292133 z m -0.30041,0.07028 v 3.365169 l 0.12402,-0.05099 v -3.343121 z m 0.30041,4.733561 v 2.917307 l 0.12403,-0.04548 v -2.910417 z m -0.30041,0.09371 v 2.935221 l 0.12402,-0.04685 V 54.14026 Z m 0.30041,5.411556 v 4.708757 l 0.12403,-0.06201 v -4.679818 z m -0.30041,0.0813 v 4.779037 l 0.12402,-0.06339 v -4.74872 z m 0,0"
           id="path132330" />
        <path
           style="fill:#1c3a85;fill-opacity:1;fill-rule:nonzero;stroke:none;stroke-width:0.35277778"
           d="m 415.31965,47.392001 0.30179,-0.170878 v -0.992187 l -0.30179,-0.668349 z m 0,1.827278 v 3.268707 l 0.30179,-0.121268 v -3.217719 z m 0,4.784549 v 2.902149 l 0.30179,-0.111622 v -2.885612 z m 0,5.516287 v 4.646745 l 0.30179,-0.151584 v -4.577843 z m 0,0"
           id="path132332" />
        <path
           style="fill:#ffffff;fill-opacity:1;fill-rule:nonzero;stroke:none;stroke-width:0.35277778"
           d="m 415.25764,47.426451 0.12402,-0.07028 v -1.65778 l -0.12402,-0.275607 z m 0.30179,-0.170876 0.12402,-0.07028 V 46.36674 l -0.12402,-0.275608 z m 0,1.908583 v 3.227365 l 0.12402,-0.04961 V 49.13384 Z m -0.30179,0.07028 v 3.278352 l 0.12402,-0.04961 v -3.257682 z m 0.30179,4.693598 v 2.888368 l 0.12402,-0.04547 v -2.881478 z m -0.30179,0.09371 v 2.906283 l 0.12402,-0.04547 v -2.898015 z m 0.30179,5.433605 v 4.591624 l 0.12402,-0.06201 v -4.564063 z m -0.30179,0.0813 v 4.661904 l 0.12402,-0.06339 V 59.5022 Z m 0,0"
           id="path132334" />
        <path
           style="fill:#1c3a85;fill-opacity:1;fill-rule:nonzero;stroke:none;stroke-width:0.35277778"
           d="m 415.82263,47.106747 0.15434,-0.08819 -0.15434,-0.343131 z m 0,1.995399 v 3.183268 l 0.30041,-0.122645 v -3.130903 z m 0,4.744585 v 2.87321 l 0.30041,-0.111621 v -2.855295 z m 0,5.536958 v 4.53099 l 0.30041,-0.151584 v -4.46071 z m 0,0"
           id="path132336" />
        <path
           style="fill:#ffffff;fill-opacity:1;fill-rule:nonzero;stroke:none;stroke-width:0.35277778"
           d="m 415.76062,47.141197 0.12402,-0.07028 v -0.257693 l -0.12402,-0.275608 z m 0.30041,1.904449 v 3.143306 l 0.12403,-0.05099 v -3.121257 z m -0.30041,0.07028 v 3.194293 l 0.12402,-0.04961 v -3.173623 z m 0.30041,4.656391 v 2.85943 l 0.12403,-0.04547 v -2.85254 z m -0.30041,0.09371 v 2.877344 l 0.12402,-0.04685 v -2.869076 z m 0.30041,5.452897 v 4.475868 l 0.12403,-0.06201 V 59.28447 Z m -0.30041,0.08131 v 4.546148 l 0.12402,-0.06339 v -4.515831 z m 0,0"
           id="path132338" />
        <path
           style="fill:#1c3a85;fill-opacity:1;fill-rule:nonzero;stroke:none;stroke-width:0.35277778"
           d="m 416.32424,48.985012 v 3.096452 l 0.30041,-0.121267 v -3.045464 z m 0,4.706001 v 2.844271 l 0.30041,-0.111621 v -2.826357 z m 0,5.55625 v 4.415235 l 0.30041,-0.151584 v -4.344955 z m 0,0"
           id="path132340" />
        <path
           style="fill:#ffffff;fill-opacity:1;fill-rule:nonzero;stroke:none;stroke-width:0.35277778"
           d="m 416.56402,48.928513 v 3.056489 l 0.12264,-0.04961 v -3.035819 z m -0.30179,0.07028 v 3.108854 l 0.12402,-0.05099 v -3.086806 z m 0.30179,4.617806 v 2.830491 l 0.12264,-0.04685 v -2.822222 z m -0.30179,0.09371 v 2.847027 l 0.12402,-0.04548 V 53.67172 Z m 0.30179,5.472189 v 4.360114 l 0.12264,-0.06339 v -4.329797 z m -0.30179,0.08131 v 4.430393 l 0.12402,-0.06339 v -4.400076 z m 0,0"
           id="path132342" />
        <path
           style="fill:#1c3a85;fill-opacity:1;fill-rule:nonzero;stroke:none;stroke-width:0.35277778"
           d="m 416.82584,51.878893 0.3018,-0.121267 v -2.188325 l -0.3018,-0.668349 z m 0,1.656402 v 2.813954 l 0.3018,-0.111621 v -2.79604 z m 0,5.576921 v 4.298101 l 0.3018,-0.151584 v -4.227822 z m 0,0"
           id="path132344" />
        <path
           style="fill:#ffffff;fill-opacity:1;fill-rule:nonzero;stroke:none;stroke-width:0.35277778"
           d="m 416.76383,48.88166 v 3.023416 l 0.12403,-0.05099 v -2.815332 l -0.0758,-0.168121 z m 0.30179,2.90077 0.12265,-0.04961 v -2.027095 l -0.12265,-0.275607 z m 0,1.678451 v 2.800173 l 0.12265,-0.04548 v -2.793283 z m -0.30179,0.09371 v 2.818088 l 0.12403,-0.04685 v -2.80982 z m 0.30179,5.49286 v 4.24298 l 0.12265,-0.06339 V 59.013 Z m -0.30179,0.0813 v 4.31326 l 0.12403,-0.06339 v -4.282943 z m 0,0"
           id="path132346" />
        <path
           style="fill:#1c3a85;fill-opacity:1;fill-rule:nonzero;stroke:none;stroke-width:0.35277778"
           d="m 417.32883,51.676321 0.30041,-0.122645 V 50.68 l -0.30041,-0.665593 z m 0,1.703256 v 2.783637 l 0.30041,-0.110243 v -2.768479 z m 0,5.596213 v 4.182346 l 0.30041,-0.151584 v -4.112067 z m 0,0"
           id="path132348" />
        <path
           style="fill:#ffffff;fill-opacity:1;fill-rule:nonzero;stroke:none;stroke-width:0.35277778"
           d="m 417.26544,51.701126 0.12402,-0.04961 v -1.500683 l -0.12402,-0.275608 z m 0.30179,-0.121268 0.12402,-0.05099 V 50.8178 l -0.12402,-0.275607 z m 0,1.723926 v 2.772613 l 0.12402,-0.04685 v -2.764345 z m -0.30179,0.09371 v 2.789149 l 0.12402,-0.04547 v -2.782259 z m 0.30179,5.513531 v 4.127225 l 0.12402,-0.06339 v -4.096908 z m -0.30179,0.0813 v 4.197505 l 0.12402,-0.06339 v -4.167188 z m 0,0"
           id="path132350" />
        <path
           style="fill:#1c3a85;fill-opacity:1;fill-rule:nonzero;stroke:none;stroke-width:0.35277778"
           d="m 417.83044,51.47375 0.13229,-0.05374 -0.13229,-0.2949 z m 0,1.74873 v 2.756077 l 0.30041,-0.111621 v -2.738163 z m 0,5.616884 v 4.066591 l 0.30041,-0.151584 V 58.75806 Z m 0,0"
           id="path132352" />
        <path
           style="fill:#ffffff;fill-opacity:1;fill-rule:nonzero;stroke:none;stroke-width:0.35277778"
           d="m 417.76842,51.498554 0.12403,-0.05099 V 51.26291 l -0.12403,-0.27423 z m 0.30042,1.649512 v 2.742296 l 0.12402,-0.04548 v -2.735406 z m -0.30042,0.09371 v 2.76021 l 0.12403,-0.04685 v -2.751942 z m 0.30042,5.532823 v 4.011469 l 0.12402,-0.06339 v -3.981153 z m -0.30042,0.0813 v 4.080372 l 0.12403,-0.06201 v -4.051433 z m 0,0"
           id="path132354" />
        <path
           style="fill:#1c3a85;fill-opacity:1;fill-rule:nonzero;stroke:none;stroke-width:0.35277778"
           d="M 418.33204,53.066762 V 55.7939 l 0.30179,-0.111621 v -2.709224 z m 0,5.637554 v 3.949458 l 0.30179,-0.151584 v -3.880556 z m 0,0"
           id="path132356" />
        <path
           style="fill:#ffffff;fill-opacity:1;fill-rule:nonzero;stroke:none;stroke-width:0.35277778"
           d="m 418.57182,52.992348 v 2.711979 l 0.12402,-0.04547 v -2.619651 l -0.0345,-0.07441 z m -0.30179,0.09371 v 2.729894 l 0.12402,-0.04547 v -2.723004 z m 0.30179,5.553494 v 3.892958 l 0.12402,-0.06201 v -3.865397 z m -0.30179,0.08131 V 62.6841 l 0.12402,-0.06201 v -3.935677 z m 0,0"
           id="path132358" />
        <path
           style="fill:#1c3a85;fill-opacity:1;fill-rule:nonzero;stroke:none;stroke-width:0.35277778"
           d="m 437.2842,61.164115 0.30041,-0.151585 v -1.536512 l -0.30041,-0.665593 z m 0,0"
           id="path132360" />
        <path
           style="fill:#ffffff;fill-opacity:1;fill-rule:nonzero;stroke:none;stroke-width:0.35277778"
           d="m 437.22219,61.19581 0.12402,-0.06339 v -2.185569 l -0.12402,-0.27423 z m 0.30041,-0.151585 0.12402,-0.06339 v -1.367014 l -0.12402,-0.27423 z m 0,0"
           id="path132362" />
        <path
           style="fill:#1c3a85;fill-opacity:1;fill-rule:nonzero;stroke:none;stroke-width:0.35277778"
           d="m 436.78122,58.035968 v 3.381706 l 0.30179,-0.151585 v -2.90077 l -0.16537,-0.36518 z m 0,0"
           id="path132364" />
        <path
           style="fill:#ffffff;fill-opacity:1;fill-rule:nonzero;stroke:none;stroke-width:0.35277778"
           d="m 436.7192,58.053882 v 3.395487 l 0.12403,-0.06339 v -3.366548 z m 0.30179,3.243902 0.12403,-0.06339 v -2.73265 l -0.12403,-0.27423 z m 0,0"
           id="path132366" />
        <path
           style="fill:#1c3a85;fill-opacity:1;fill-rule:nonzero;stroke:none;stroke-width:0.35277778"
           d="m 436.27961,58.172393 v 3.49884 l 0.30179,-0.151585 v -3.428559 z m 0,0"
           id="path132368" />
        <path
           style="fill:#ffffff;fill-opacity:1;fill-rule:nonzero;stroke:none;stroke-width:0.35277778"
           d="m 436.51939,58.107626 v 3.443717 l 0.12264,-0.06339 v -3.413401 z m -0.30179,0.0813 v 3.513998 l 0.12402,-0.06339 v -3.483681 z m 0,0"
           id="path132370" />
        <path
           style="fill:#1c3a85;fill-opacity:1;fill-rule:nonzero;stroke:none;stroke-width:0.35277778"
           d="m 436.78259,58.035968 v 3.381706 l 0.30042,-0.151585 v -2.90077 l -0.16537,-0.36518 z m 0,0"
           id="path132372" />
        <path
           style="fill:#ffffff;fill-opacity:1;fill-rule:nonzero;stroke:none;stroke-width:0.35277778"
           d="m 436.72058,58.053882 v 3.395487 l 0.12265,-0.06339 v -3.366548 z m 0.30041,3.243902 0.12403,-0.06339 v -2.731272 l -0.12403,-0.27423 z m 0,0"
           id="path132374" />
        <path
           style="fill:#1c3a85;fill-opacity:1;fill-rule:nonzero;stroke:none;stroke-width:0.35277778"
           d="m 436.27961,58.172393 v 3.49884 l 0.30179,-0.151585 v -3.428559 z m 0,0"
           id="path132376" />
        <path
           style="fill:#ffffff;fill-opacity:1;fill-rule:nonzero;stroke:none;stroke-width:0.35277778"
           d="m 436.51939,58.107626 v 3.443717 l 0.12264,-0.06339 v -3.413401 z m -0.30179,0.0813 v 3.513998 l 0.12402,-0.06339 v -3.483681 z m 0,0"
           id="path132378" />
        <path
           style="fill:#1c3a85;fill-opacity:1;fill-rule:nonzero;stroke:none;stroke-width:0.35277778"
           d="m 435.77801,58.308819 v 3.615973 l 0.30041,-0.151585 v -3.545692 z m 0,0"
           id="path132380" />
        <path
           style="fill:#ffffff;fill-opacity:1;fill-rule:nonzero;stroke:none;stroke-width:0.35277778"
           d="m 436.01641,58.244051 v 3.560851 l 0.12402,-0.06339 V 58.2096 Z m -0.30042,0.08131 v 3.631131 l 0.12403,-0.06201 V 58.29229 Z m 0,0"
           id="path132382" />
        <path
           style="fill:#1c3a85;fill-opacity:1;fill-rule:nonzero;stroke:none;stroke-width:0.35277778"
           d="m 435.27502,55.439744 0.30179,-0.111621 v -0.301791 l -0.30179,-0.66697 z m 0,3.004123 v 3.734484 l 0.30179,-0.151585 v -3.664203 z m 0,0"
           id="path132384" />
        <path
           style="fill:#ffffff;fill-opacity:1;fill-rule:nonzero;stroke:none;stroke-width:0.35277778"
           d="m 435.21301,55.461792 0.12402,-0.04548 v -0.92053 l -0.12402,-0.274229 z m 0.30179,-0.110243 0.12402,-0.04685 v -0.14056 L 435.5148,54.88991 Z m 0,3.02755 v 3.677984 l 0.12402,-0.06201 v -3.649046 z m -0.30179,0.08268 v 3.748264 l 0.12402,-0.06339 v -3.719325 z m 0,0"
           id="path132386" />
        <path
           style="fill:#1c3a85;fill-opacity:1;fill-rule:nonzero;stroke:none;stroke-width:0.35277778"
           d="m 434.77341,55.624401 0.3018,-0.110243 v -1.599903 l -0.3018,-0.66697 z m 0,2.955892 v 3.851617 l 0.3018,-0.151585 v -3.781337 z m 0,0"
           id="path132388" />
        <path
           style="fill:#ffffff;fill-opacity:1;fill-rule:nonzero;stroke:none;stroke-width:0.35277778"
           d="m 434.7114,55.647827 0.12403,-0.04547 V 53.38371 l -0.12403,-0.275607 z m 0.30179,-0.111621 0.12403,-0.04548 v -1.44005 l -0.12403,-0.274229 z m 0,2.979319 v 3.795117 l 0.12403,-0.06201 v -3.766179 z m -0.30179,0.0813 v 3.866776 l 0.12403,-0.06339 v -3.836459 z m 0,0"
           id="path132390" />
        <path
           style="fill:#1c3a85;fill-opacity:1;fill-rule:nonzero;stroke:none;stroke-width:0.35277778"
           d="m 434.27181,53.080542 v 2.729894 l 0.30179,-0.111621 v -2.71198 z m 0,5.636177 v 3.96875 l 0.30179,-0.151585 v -3.89847 z m 0,0"
           id="path132392" />
        <path
           style="fill:#ffffff;fill-opacity:1;fill-rule:nonzero;stroke:none;stroke-width:0.35277778"
           d="m 434.51021,53.006128 v 2.716114 l 0.12402,-0.04548 v -2.709223 z m -0.30041,0.09509 v 2.731272 l 0.12402,-0.04548 v -2.72576 z m 0.30041,5.550738 v 3.91225 l 0.12402,-0.06201 V 58.6175 Z m -0.30041,0.0813 v 3.983909 l 0.12402,-0.06339 v -3.95497 z m 0,0"
           id="path132394" />
        <path
           style="fill:#1c3a85;fill-opacity:1;fill-rule:nonzero;stroke:none;stroke-width:0.35277778"
           d="m 433.7702,51.491664 0.17777,-0.07166 -0.17777,-0.395497 z m 0,1.745975 v 2.757454 l 0.30041,-0.111621 v -2.73954 z m 0,5.614127 v 4.087262 l 0.30041,-0.151585 v -4.016981 z m 0,0"
           id="path132396" />
        <path
           style="fill:#ffffff;fill-opacity:1;fill-rule:nonzero;stroke:none;stroke-width:0.35277778"
           d="m 433.70819,51.516469 0.12264,-0.05099 v -0.303168 l -0.12264,-0.27423 z m 0.30041,1.646755 v 2.743675 l 0.12403,-0.04548 V 53.12464 Z m -0.30041,0.09371 v 2.761589 l 0.12264,-0.04548 v -2.754698 z m 0.30041,5.530068 v 4.030761 l 0.12403,-0.06201 V 58.75393 Z m -0.30041,0.08268 v 4.101042 l 0.12264,-0.06339 V 58.83523 Z m 0,0"
           id="path132398" />
        <path
           style="fill:#1c3a85;fill-opacity:1;fill-rule:nonzero;stroke:none;stroke-width:0.35277778"
           d="m 433.26722,51.692858 0.30179,-0.121268 v -0.990809 l -0.30179,-0.668349 z m 0,1.701877 v 2.786393 l 0.30179,-0.111621 v -2.768478 z m 0,5.593457 v 4.204395 l 0.30179,-0.151585 v -4.134114 z m 0,0"
           id="path132400" />
        <path
           style="fill:#ffffff;fill-opacity:1;fill-rule:nonzero;stroke:none;stroke-width:0.35277778"
           d="m 433.20521,51.717662 0.12402,-0.04961 v -1.617817 l -0.12402,-0.274229 z m 0.30179,-0.121267 0.12402,-0.04961 v -0.829579 l -0.12402,-0.27423 z m 0,1.723926 v 2.772613 l 0.12402,-0.04685 v -2.764345 z m -0.30179,0.09371 v 2.78915 l 0.12402,-0.04547 v -2.78226 z m 0.30179,5.509398 v 4.147894 l 0.12402,-0.06201 v -4.120335 z m -0.30179,0.0813 v 4.219553 l 0.12402,-0.06339 v -4.189236 z m 0,0"
           id="path132402" />
        <path
           style="fill:#1c3a85;fill-opacity:1;fill-rule:nonzero;stroke:none;stroke-width:0.35277778"
           d="m 432.76561,48.877526 v 3.017903 l 0.30179,-0.121267 v -2.306836 l -0.27009,-0.596691 z m 0,4.674305 v 2.813955 l 0.30179,-0.110243 v -2.797418 z m 0,5.572787 v 4.321528 l 0.30179,-0.151585 v -4.252625 z m 0,0"
           id="path132404" />
        <path
           style="fill:#ffffff;fill-opacity:1;fill-rule:nonzero;stroke:none;stroke-width:0.35277778"
           d="m 432.7036,48.892684 v 3.02755 l 0.12402,-0.05099 v -2.931088 l -0.0303,-0.06752 z m 0.30179,2.906283 0.12265,-0.04961 V 49.60513 l -0.12265,-0.27423 z m 0,1.67845 v 2.800174 l 0.12265,-0.04548 v -2.793284 z m -0.30179,0.09371 v 2.818088 l 0.12402,-0.04548 v -2.811198 z m 0.30179,5.487348 v 4.266407 l 0.12265,-0.06201 v -4.237468 z m -0.30179,0.08268 v 4.336687 l 0.12402,-0.06339 v -4.307747 z m 0,0"
           id="path132406" />
        <path
           style="fill:#1c3a85;fill-opacity:1;fill-rule:nonzero;stroke:none;stroke-width:0.35277778"
           d="m 432.26263,48.993281 v 3.103342 l 0.30179,-0.121267 v -3.050977 z m 0,4.715647 v 2.842892 l 0.30179,-0.111621 v -2.826356 z m 0,5.550738 v 4.440039 l 0.30179,-0.151584 v -4.369759 z m 0,0"
           id="path132408" />
        <path
           style="fill:#ffffff;fill-opacity:1;fill-rule:nonzero;stroke:none;stroke-width:0.35277778"
           d="m 432.50241,48.938159 v 3.062001 l 0.12402,-0.04961 v -3.04133 z m -0.30179,0.07028 v 3.112989 l 0.12402,-0.04961 v -3.092317 z m 0.30179,4.626075 v 2.829112 l 0.12402,-0.04685 v -2.822222 z m -0.30179,0.09371 v 2.847027 l 0.12402,-0.04685 v -2.838759 z m 0.30179,5.466678 v 4.38354 l 0.12402,-0.06201 v -4.354601 z m -0.30179,0.0813 V 63.7314 l 0.12402,-0.06339 v -4.424881 z m 0,0"
           id="path132410" />
        <path
           style="fill:#1c3a85;fill-opacity:1;fill-rule:nonzero;stroke:none;stroke-width:0.35277778"
           d="m 431.76102,47.132929 0.2012,-0.114377 -0.2012,-0.445106 z m 0,1.976107 v 3.190159 l 0.30179,-0.121268 v -3.139171 z m 0,4.756988 v 2.870454 l 0.30179,-0.110243 v -2.855296 z m 0,5.530067 v 4.557173 l 0.30179,-0.151584 v -4.488271 z m 0,0"
           id="path132412" />
        <path
           style="fill:#ffffff;fill-opacity:1;fill-rule:nonzero;stroke:none;stroke-width:0.35277778"
           d="m 431.69901,47.16738 0.12403,-0.07028 v -0.385851 l -0.12403,-0.275607 z m 0.30179,1.886534 v 3.148818 l 0.12403,-0.04961 v -3.128146 z m -0.30179,0.0689 v 3.201182 l 0.12403,-0.04961 v -3.179135 z m 0.30179,4.667415 v 2.858051 l 0.12403,-0.04547 v -2.851161 z m -0.30179,0.09508 v 2.874587 l 0.12403,-0.04685 v -2.867698 z m 0.30179,5.446007 v 4.500673 l 0.12403,-0.06201 v -4.473112 z m -0.30179,0.0813 v 4.572331 l 0.12403,-0.06339 v -4.542014 z m 0,0"
           id="path132414" />
        <path
           style="fill:#1c3a85;fill-opacity:1;fill-rule:nonzero;stroke:none;stroke-width:0.35277778"
           d="m 431.25942,47.416805 0.30041,-0.170877 v -1.117589 l -0.30041,-0.668348 z m 0,1.807986 v 3.275597 l 0.30041,-0.121267 v -3.22461 z m 0,4.796951 v 2.900771 l 0.30041,-0.111621 v -2.882856 z m 0,5.510775 v 4.674306 l 0.30041,-0.151584 v -4.605404 z m 0,0"
           id="path132416" />
        <path
           style="fill:#ffffff;fill-opacity:1;fill-rule:nonzero;stroke:none;stroke-width:0.35277778"
           d="m 431.19741,47.451256 0.12402,-0.0689 v -1.784559 l -0.12402,-0.275608 z m 0.30179,-0.169499 0.12264,-0.07166 v -0.943956 l -0.12264,-0.275608 z m 0,1.887913 v 3.234256 l 0.12264,-0.04961 v -3.213585 z m -0.30179,0.0689 v 3.288 l 0.12402,-0.05099 v -3.264573 z m 0.30179,4.708757 v 2.88699 l 0.12264,-0.04685 v -2.878722 z m -0.30179,0.09509 v 2.902148 l 0.12402,-0.04548 V 54.00245 Z m 0.30179,5.425336 v 4.617807 l 0.12264,-0.06201 v -4.590245 z m -0.30179,0.08131 v 4.689464 l 0.12402,-0.06339 v -4.660525 z m 0,0"
           id="path132418" />
        <path
           style="fill:#1c3a85;fill-opacity:1;fill-rule:nonzero;stroke:none;stroke-width:0.35277778"
           d="m 430.75781,45.436564 v 2.265495 l 0.30041,-0.170877 v -2.244824 z m 0,3.903982 v 3.362414 l 0.30041,-0.121268 v -3.311426 z m 0,4.838293 v 2.928331 l 0.30041,-0.110243 v -2.911795 z m 0,5.488726 v 4.792817 l 0.30041,-0.152962 v -4.721159 z m 0,0"
           id="path132420" />
        <path
           style="fill:#ffffff;fill-opacity:1;fill-rule:nonzero;stroke:none;stroke-width:0.35277778"
           d="m 430.99621,45.316675 v 2.248958 l 0.12403,-0.07028 v -2.24069 z m -0.30041,0.150206 v 2.269629 l 0.12402,-0.07028 v -2.261361 z m 0.30041,3.818544 v 3.321072 l 0.12403,-0.04961 v -3.300402 z m -0.30041,0.0689 v 3.373438 l 0.12402,-0.04961 v -3.352767 z m 0.30041,4.750098 v 2.914551 l 0.12403,-0.04548 v -2.907661 z m -0.30041,0.09371 v 2.932466 l 0.12402,-0.04548 v -2.925575 z m 0.30041,5.404666 v 4.736318 l 0.12403,-0.06201 v -4.707379 z m -0.30041,0.08131 v 4.807975 l 0.12402,-0.06339 v -4.777658 z m 0,0"
           id="path132422" />
        <path
           style="fill:#1c3a85;fill-opacity:1;fill-rule:nonzero;stroke:none;stroke-width:0.35277778"
           d="m 430.25483,44.35756 0.30179,-0.208084 v -0.243912 l -0.30179,-0.666971 z m 0,1.329807 v 2.298568 l 0.30179,-0.170877 v -2.277897 z m 0,3.768935 v 3.447852 l 0.30179,-0.121268 v -3.396864 z m 0,4.879633 v 2.95727 l 0.30179,-0.111621 v -2.939356 z m 0,5.468056 v 4.90995 l 0.30179,-0.151584 v -4.839671 z m 0,0"
           id="path132424" />
        <path
           style="fill:#ffffff;fill-opacity:1;fill-rule:nonzero;stroke:none;stroke-width:0.35277778"
           d="m 430.19281,44.401657 0.12403,-0.08682 v -0.939822 l -0.12403,-0.27423 z m 0.30179,-0.209461 0.12403,-0.08544 v -0.06339 L 430.4946,43.76776 Z m 0,1.375282 v 2.283409 l 0.12403,-0.07028 v -2.275141 z m -0.30179,0.151584 v 2.302702 l 0.12403,-0.07028 V 45.65705 Z m 0.30179,3.682118 v 3.407889 l 0.12403,-0.05099 v -3.38584 z m -0.30179,0.0689 v 3.458876 l 0.12403,-0.04961 V 49.44114 Z m 0.30179,4.791439 v 2.94349 l 0.12403,-0.04685 v -2.935221 z m -0.30179,0.09371 v 2.960026 l 0.12403,-0.04548 v -2.953136 z m 0.30179,5.383995 v 4.854829 l 0.12403,-0.06339 v -4.82589 z m -0.30179,0.0813 v 4.925109 l 0.12403,-0.06339 v -4.894792 z m 0,0"
           id="path132426" />
        <path
           style="fill:#1c3a85;fill-opacity:1;fill-rule:nonzero;stroke:none;stroke-width:0.35277778"
           d="m 429.75322,42.217467 v 2.487359 l 0.30041,-0.208084 v -1.704633 l -0.26596,-0.591179 z m 0,3.720703 v 2.333019 l 0.30041,-0.170877 v -2.312348 z m 0,3.632509 v 3.536046 l 0.30041,-0.121268 v -3.48368 z m 0,4.922353 v 2.98483 l 0.30041,-0.110243 v -2.968294 z m 0,5.446007 V 64.9675 l 0.30041,-0.151584 v -4.958182 z m 0,0"
           id="path132428" />
        <path
           style="fill:#ffffff;fill-opacity:1;fill-rule:nonzero;stroke:none;stroke-width:0.35277778"
           d="m 429.69121,42.249161 v 2.499762 l 0.12402,-0.08682 v -2.399165 l -0.0275,-0.06201 z m 0.30041,2.2903 0.12402,-0.08544 v -1.52411 l -0.12402,-0.275608 z m 0,1.280198 v 2.315104 l 0.12402,-0.07028 v -2.306836 z m -0.30041,0.150206 v 2.335775 l 0.12402,-0.07028 v -2.327507 z m 0.30041,3.54707 v 3.493327 l 0.12402,-0.04961 v -3.472656 z m -0.30041,0.0689 v 3.545693 l 0.12402,-0.04961 v -3.525022 z m 0.30041,4.83278 v 2.971051 l 0.12402,-0.04548 v -2.964161 z m -0.30041,0.09371 v 2.988965 l 0.12402,-0.04548 v -2.982075 z m 0.30041,5.361947 v 4.971962 l 0.12402,-0.06201 v -4.943023 z m -0.30041,0.0813 v 5.04362 l 0.12402,-0.06339 v -5.013303 z m 0,0"
           id="path132430" />
        <path
           style="fill:#1c3a85;fill-opacity:1;fill-rule:nonzero;stroke:none;stroke-width:0.35277778"
           d="m 429.25162,41.334144 0.11024,-0.07717 -0.11024,-0.245291 z m 0,3.719325 0.30041,-0.209461 v -2.525944 l -0.29077,0.146072 -0.01,-0.256316 z m 0,3.502974 0.30041,-0.172255 v -2.345421 l -0.29077,0.146072 -0.01,-0.257693 z m 0,1.129991 v 3.621485 l 0.30041,-0.11989 v -3.570497 z m 0,4.963694 v 3.013769 l 0.30041,-0.111621 v -2.995855 z m 0,5.425336 v 5.145595 l 0.30041,-0.151584 V 59.99416 Z m 0,0"
           id="path132432" />
        <path
           style="fill:#ffffff;fill-opacity:1;fill-rule:nonzero;stroke:none;stroke-width:0.35277778"
           d="m 429.1896,48.590894 0.12403,-0.07028 v -2.361958 l -0.0524,0.02618 -0.0441,-1.107942 0.0965,-0.06615 v -2.572797 l -0.0524,0.02618 -0.0441,-1.106565 0.0965,-0.06615 v -0.141938 l -0.12403,-0.27423 z m 0.30042,-6.241135 v 2.536968 l 0.12402,-0.08544 v -2.513542 z m 0,3.720703 v 2.349555 l 0.12402,-0.07028 V 46.00845 Z m 0,3.560851 v 3.581521 l 0.12402,-0.05099 V 49.60375 Z m -0.30042,0.07028 v 3.631131 l 0.12403,-0.04961 v -3.61046 z m 0.30042,4.872744 v 2.999989 l 0.12402,-0.04548 v -2.993098 z m -0.30042,0.09508 v 3.016526 l 0.12403,-0.04548 v -3.009636 z m 0.30042,5.341277 v 5.089095 l 0.12402,-0.06201 v -5.060156 z m -0.30042,0.0813 v 5.160753 l 0.12403,-0.06339 v -5.130436 z m 0,10.442774 v 0.124022 h 0.0165 l -0.0165,-2.10839 z m 0,0"
           id="path132434" />
        <path
           style="fill:#1c3a85;fill-opacity:1;fill-rule:nonzero;stroke:none;stroke-width:0.35277778"
           d="m 428.74863,70.534775 v 0.06201 h 0.30179 V 60.129208 l -0.011,0.0028 v -2.390896 l 0.011,-0.0028 v -4.069347 l -0.005,-0.276985 0.005,-0.0028 v -3.86122 l -0.005,-0.151584 0.005,-0.03721 v -0.135047 l -0.051,-0.505741 0.051,-0.02894 v -8.101487 l -0.30179,-0.668349 z m 0,0"
           id="path132436" />
        <path
           style="fill:#ffffff;fill-opacity:1;fill-rule:nonzero;stroke:none;stroke-width:0.35277778"
           d="m 428.68662,70.534775 v 0.124022 h 0.42581 V 60.112671 l -0.073,0.02067 v -2.392275 l 0.073,-0.02618 V 54.69285 l -0.0386,0.0124 -0.0289,-1.313271 0.0675,-0.02756 V 49.71813 l -0.0537,0.0124 -0.0138,-0.354156 0.0138,-0.08819 -0.0593,-0.589801 0.113,-0.06339 v -7.930611 l -0.12402,-0.27423 v 30.104624 h -0.17776 V 40.03741 l -0.12403,-0.275607 z m 0,0"
           id="path132438" />
        <path
           style="fill:#1c3a85;fill-opacity:1;fill-rule:nonzero;stroke:none;stroke-width:0.35277778"
           d="m 427.74542,39.324964 v 31.273201 h 0.30041 V 39.211966 l -0.0248,-0.01102 z m 0,0"
           id="path132440" />
        <path
           style="fill:#ffffff;fill-opacity:1;fill-rule:nonzero;stroke:none;stroke-width:0.35277778"
           d="m 428.02103,39.200941 -0.0372,0.01653 V 70.53477 h -0.17639 V 39.297404 l -0.12402,0.0565 v 31.304894 h 0.42443 V 39.240904 Z m 0,0"
           id="path132442" />
        <path
           style="fill:#1c3a85;fill-opacity:1;fill-rule:nonzero;stroke:none;stroke-width:0.35277778"
           d="m 426.74083,41.123304 v 0.175011 l 0.0854,0.05926 -0.0455,1.106565 -0.04,-0.02067 v 2.60587 l 0.04,0.02756 -0.04,1.000456 v 2.633431 l 0.0303,0.01654 0.01,1.043174 -0.04,-0.0083 v 20.83456 h 0.30041 v -30.14183 z m 0,0"
           id="path132444" />
        <path
           style="fill:#ffffff;fill-opacity:1;fill-rule:nonzero;stroke:none;stroke-width:0.35277778"
           d="m 426.98061,40.59276 v 29.942015 h -0.17777 V 41.926701 l -0.022,0.537435 -0.10197,-0.05099 v 2.59209 l 0.10197,0.07166 -0.0441,1.107943 -0.0579,-0.02894 v 2.519054 l 0.0923,0.05237 0.01,1.044553 -0.10198,-0.0248 v 3.719325 l 0.0331,0.01378 0.0152,1.357367 -0.0482,-0.01516 v 10.646724 l 0.0124,0.0069 v 5.182802 h 0.41203 V 40.31853 Z m -0.30042,0.664214 0.12265,0.08544 v -0.355533 z m 0,0"
           id="path132446" />
        <path
           style="fill:#1c3a85;fill-opacity:1;fill-rule:nonzero;stroke:none;stroke-width:0.35277778"
           d="m 426.23922,42.232625 v 2.469445 l 0.30042,0.208083 v -2.565907 l -0.28663,-0.143316 z m 0,6.19566 0.30042,0.169499 v -2.510786 l -0.30042,-0.151584 z m 0,4.861719 0.30042,0.121268 v -3.695899 l -0.30042,-0.07028 z m 0,4.33393 0.30042,0.110243 v -2.955891 l -0.30042,-0.09646 z m 0,7.597125 0.30042,0.169499 V 60.12783 l -0.30042,-0.08131 z m 0,0"
           id="path132448" />
        <path
           style="fill:#ffffff;fill-opacity:1;fill-rule:nonzero;stroke:none;stroke-width:0.35277778"
           d="m 426.17721,42.370429 v 2.287544 l 0.12402,0.08682 v -2.520432 l -0.0482,-0.02343 z m 0.30041,2.497005 0.12403,0.08544 v -2.57831 l -0.12403,-0.06201 z m -0.30041,3.5264 0.12402,0.07028 v -2.497005 l -0.12402,-0.06201 z m 0.30041,0.169499 0.12403,0.0689 v -2.51492 l -0.12403,-0.06201 z m -0.30041,4.703244 0.12402,0.04961 v -3.655936 l -0.12402,-0.02894 z m 0.30041,0.11989 0.12403,0.04961 v -3.706923 l -0.12403,-0.02756 z m -0.30041,4.214041 0.12402,0.04548 v -2.94349 l -0.12402,-0.03996 z m 0.30041,0.110243 0.0813,0.03032 v 2.390896 l -0.0813,-0.02067 v 5.244813 l 0.12403,0.0689 V 54.79758 l -0.12403,-0.03859 z m -0.30041,7.477235 0.12402,0.0689 V 60.06306 l -0.12402,-0.03445 z m 0,0"
           id="path132450" />
        <path
           style="fill:#1c3a85;fill-opacity:1;fill-rule:nonzero;stroke:none;stroke-width:0.35277778"
           d="m 425.73624,43.344702 v 1.008724 l 0.30179,0.209462 v -1.885157 z m 0,4.802463 0.30179,0.168121 v -2.480469 l -0.30179,-0.150206 z m 0,4.943023 0.30179,0.11989 V 49.59824 l -0.30179,-0.0689 z m 0,4.347711 0.30179,0.111621 v -2.931087 l -0.30179,-0.09784 z m 0,7.50204 0.30179,0.169499 v -5.118034 l -0.30179,-0.0813 z m 0,0"
           id="path132452" />
        <path
           style="fill:#ffffff;fill-opacity:1;fill-rule:nonzero;stroke:none;stroke-width:0.35277778"
           d="m 425.97602,42.815535 v 1.704633 l 0.12402,0.08544 v -2.065679 z m -0.30179,0.666971 v 0.828201 l 0.12402,0.08682 v -1.190625 z m 0,4.62883 0.12402,0.07028 v -2.466688 l -0.12402,-0.06201 z m 0.30179,0.169499 0.12402,0.07028 v -2.484603 l -0.12402,-0.06201 z m -0.30179,4.784549 0.12402,0.04961 v -3.571875 l -0.12402,-0.02894 z m 0.30179,0.119889 0.12402,0.04961 v -3.621485 l -0.12402,-0.02894 z m -0.30179,4.2292 0.12402,0.04685 V 54.54126 l -0.12402,-0.03996 z m 0.30179,0.111621 0.12402,0.04547 V 54.63772 l -0.12402,-0.03996 z m -0.30179,7.379394 0.12402,0.07028 v -5.049133 l -0.12402,-0.03307 z m 0.30179,0.169499 0.12402,0.0689 V 60.00794 l -0.12402,-0.03307 z m 0,0"
           id="path132454" />
        <path
           style="fill:#1c3a85;fill-opacity:1;fill-rule:nonzero;stroke:none;stroke-width:0.35277778"
           d="m 425.38898,44.113647 0.14745,0.101975 v -0.425814 z m -0.15434,3.75102 0.30179,0.169499 v -2.450152 l -0.30179,-0.150206 z m 0,5.024328 0.30179,0.119889 v -3.5264 l -0.30179,-0.0689 z m 0,4.364247 0.30179,0.110243 v -2.906283 l -0.30179,-0.09646 z m 0,7.405578 0.30179,0.16812 v -4.971962 l -0.30179,-0.0813 z m 0,0"
           id="path132456" />
        <path
           style="fill:#ffffff;fill-opacity:1;fill-rule:nonzero;stroke:none;stroke-width:0.35277778"
           d="m 425.47441,43.927612 v 0.245291 l 0.12265,0.08544 v -0.606336 z m -0.30179,3.902605 0.12403,0.0689 v -2.434994 l -0.12403,-0.06201 z m 0.30179,0.16812 0.12265,0.07028 v -2.454286 l -0.12265,-0.06201 z m -0.30179,4.865853 0.12403,0.04961 v -3.486437 l -0.12403,-0.02894 z m 0.30179,0.11989 0.12265,0.04961 v -3.536046 l -0.12265,-0.02894 z m -0.30179,4.245735 0.12403,0.04547 v -2.895258 l -0.12403,-0.03858 z m 0.30179,0.111621 0.12265,0.04548 v -2.910417 l -0.12265,-0.03996 z m -0.30179,7.282933 0.12403,0.0689 V 59.79021 l -0.12403,-0.03307 z m 0.30179,0.16812 0.12265,0.07028 v -4.989876 l -0.12265,-0.03445 z m 0,0"
           id="path132458" />
        <path
           style="fill:#1c3a85;fill-opacity:1;fill-rule:nonzero;stroke:none;stroke-width:0.35277778"
           d="m 424.73303,45.571612 v 2.010558 l 0.30041,0.169498 v -2.418457 l -0.1571,-0.07993 z m 0,7.116189 0.30041,0.11989 v -3.440962 l -0.30041,-0.07028 z m 0,4.379406 0.30041,0.111621 v -2.882856 l -0.30041,-0.09646 z m 0,7.310493 0.30041,0.168121 V 59.71993 l -0.30041,-0.0813 z m 0,0"
           id="path132460" />
        <path
           style="fill:#ffffff;fill-opacity:1;fill-rule:nonzero;stroke:none;stroke-width:0.35277778"
           d="m 424.97143,47.717217 0.12402,0.0689 v -2.422591 l -0.12402,-0.06201 z m -0.30041,-2.007801 v 1.838303 l 0.12402,0.07028 v -2.18419 z m 0,6.953581 0.12402,0.04961 v -3.400998 l -0.12402,-0.02894 z m 0.30041,0.119889 0.12402,0.04961 V 49.38051 l -0.12402,-0.02894 z m -0.30041,4.260894 0.12402,0.04685 v -2.87045 l -0.12402,-0.03996 z m 0.30041,0.111621 0.12402,0.04548 v -2.885612 l -0.12402,-0.03859 z m -0.30041,7.187848 0.12402,0.0689 v -4.756988 l -0.12402,-0.03445 z m 0.30041,0.16812 0.12402,0.07028 v -4.845182 l -0.12402,-0.03307 z m 0,0"
           id="path132462" />
        <path
           style="fill:#1c3a85;fill-opacity:1;fill-rule:nonzero;stroke:none;stroke-width:0.35277778"
           d="m 424.23142,46.683689 v 0.617361 l 0.30041,0.169499 v -1.453831 z m 0,5.802919 0.30041,0.119889 v -3.356901 l -0.30041,-0.0689 z m 0,4.395942 0.30041,0.110243 V 54.13612 l -0.30041,-0.09646 z m 0,7.212652 0.30041,0.169498 v -4.681195 l -0.30041,-0.08131 z m 0,0"
           id="path132464" />
        <path
           style="fill:#ffffff;fill-opacity:1;fill-rule:nonzero;stroke:none;stroke-width:0.35277778"
           d="m 424.46982,46.154522 v 1.280197 l 0.12403,0.07028 v -1.626085 z m -0.30179,0.666971 v 0.443728 l 0.1254,0.07028 v -0.788238 z m 0,5.64031 0.1254,0.04961 v -3.316938 l -0.1254,-0.02894 z m 0.30179,0.119889 0.12403,0.04961 v -3.366548 l -0.12403,-0.02894 z m -0.30179,4.277431 0.1254,0.04548 v -2.845649 l -0.1254,-0.03996 z m 0.30179,0.111621 0.12403,0.04548 v -2.860808 l -0.12403,-0.03996 z m -0.30179,7.090007 0.1254,0.07028 v -4.612294 l -0.1254,-0.03307 z m 0.30179,0.169499 0.12403,0.0689 v -4.699111 l -0.12403,-0.03307 z m 0,0"
           id="path132466" />
        <path
           style="fill:#1c3a85;fill-opacity:1;fill-rule:nonzero;stroke:none;stroke-width:0.35277778"
           d="m 424.00956,47.175648 0.0207,0.0124 v -0.05788 z m -0.28112,5.109766 0.30179,0.119889 v -3.271462 l -0.30179,-0.07028 z m 0,4.411101 0.30179,0.111621 v -2.833247 l -0.30179,-0.09646 z m 0,7.117567 0.30179,0.169499 v -4.535124 l -0.30179,-0.08268 z m 0,0"
           id="path132468" />
        <path
           style="fill:#ffffff;fill-opacity:1;fill-rule:nonzero;stroke:none;stroke-width:0.35277778"
           d="m 424.00956,47.175648 0.0827,0.04685 v -0.230133 z m -0.34314,5.084962 0.12403,0.04961 v -3.2315 l -0.12403,-0.02894 z m 0.3018,0.119889 0.12402,0.04961 v -3.282487 l -0.12402,-0.02756 z m -0.3018,4.292589 0.12403,0.04685 v -2.822222 l -0.12403,-0.03859 z m 0.3018,0.111621 0.12402,0.04548 V 53.99556 l -0.12402,-0.03996 z m -0.3018,6.994922 0.12403,0.0689 v -4.466222 l -0.12403,-0.03307 z m 0.3018,0.168121 0.12402,0.07028 v -4.553039 l -0.12402,-0.03445 z m 0,0"
           id="path132470" />
        <path
           style="fill:#1c3a85;fill-opacity:1;fill-rule:nonzero;stroke:none;stroke-width:0.35277778"
           d="m 423.22683,52.084221 0.30041,0.119889 v -3.186025 l -0.30041,-0.07028 z m 0,4.427636 0.30041,0.110244 v -2.808443 l -0.30041,-0.09646 z m 0,7.021105 0.30041,0.168121 v -4.389052 l -0.30041,-0.0813 z m 0,0"
           id="path132472" />
        <path
           style="fill:#ffffff;fill-opacity:1;fill-rule:nonzero;stroke:none;stroke-width:0.35277778"
           d="m 423.16482,49.045646 v 3.01377 l 0.12402,0.04961 v -3.147439 l -0.0785,-0.01791 z m 0.30041,3.133659 0.12402,0.04961 v -3.197049 l -0.12402,-0.02894 z m -0.30041,4.309126 0.12402,0.04548 v -2.796039 l -0.12402,-0.03996 z m 0.30041,0.110243 0.12402,0.04685 v -2.811198 l -0.12402,-0.03996 z m -0.30041,6.899838 0.12402,0.0689 v -4.32015 l -0.12402,-0.03307 z m 0.30041,0.16812 0.12402,0.0689 v -4.406966 l -0.12402,-0.03307 z m 0,0"
           id="path132474" />
        <path
           style="fill:#1c3a85;fill-opacity:1;fill-rule:nonzero;stroke:none;stroke-width:0.35277778"
           d="m 422.72385,50.021297 v 1.86173 l 0.30179,0.119889 v -2.649967 z m 0,6.304525 0.30179,0.111621 v -2.783637 l -0.30179,-0.09646 z m 0,6.924642 0.30179,0.169499 v -4.244358 l -0.30179,-0.0813 z m 0,0"
           id="path132476" />
        <path
           style="fill:#ffffff;fill-opacity:1;fill-rule:nonzero;stroke:none;stroke-width:0.35277778"
           d="m 422.96363,49.490753 v 2.487359 l 0.12402,0.04961 v -2.811198 z m -0.30179,0.668348 v 1.699121 l 0.12402,0.04961 v -2.024338 z m 0,6.143295 0.12402,0.04685 v -2.772613 l -0.12402,-0.03996 z m 0.30179,0.111621 0.12402,0.04547 v -2.786393 l -0.12402,-0.03996 z m -0.30179,6.801996 0.12402,0.07028 v -4.175455 l -0.12402,-0.03307 z m 0.30179,0.169499 0.12402,0.0689 V 59.19214 l -0.12402,-0.03307 z m 0,0"
           id="path132478" />
        <path
           style="fill:#1c3a85;fill-opacity:1;fill-rule:nonzero;stroke:none;stroke-width:0.35277778"
           d="m 422.22224,51.133374 v 0.548459 l 0.30179,0.11989 v -1.336697 z m 0,5.007791 0.30179,0.110243 v -2.758832 l -0.30179,-0.09646 z m 0,6.82818 0.30179,0.169498 v -4.098285 l -0.30179,-0.08268 z m 0,0"
           id="path132480" />
        <path
           style="fill:#ffffff;fill-opacity:1;fill-rule:nonzero;stroke:none;stroke-width:0.35277778"
           d="m 422.46202,50.602829 v 1.175467 l 0.12402,0.04961 V 50.3286 Z m -0.30179,0.668349 v 0.385851 l 0.12403,0.04961 V 50.99557 Z m 0,4.84656 0.12403,0.04548 v -2.746431 l -0.12403,-0.03996 z m 0.30179,0.111622 0.12402,0.04548 v -2.761589 l -0.12402,-0.03996 z m -0.30179,6.705534 0.12403,0.0689 V 58.97579 l -0.12403,-0.03445 z m 0.30179,0.169498 0.12402,0.0689 v -4.1162 l -0.12402,-0.03445 z m 0,0"
           id="path132482" />
        <path
           style="fill:#1c3a85;fill-opacity:1;fill-rule:nonzero;stroke:none;stroke-width:0.35277778"
           d="m 422.01278,51.597773 0.008,0.0028 v -0.02067 z m -0.29214,4.357357 0.30041,0.111621 v -2.734028 l -0.30041,-0.09646 z m 0,6.733095 0.30041,0.168121 v -3.952214 l -0.30041,-0.08131 z m 0,0"
           id="path132484" />
        <path
           style="fill:#ffffff;fill-opacity:1;fill-rule:nonzero;stroke:none;stroke-width:0.35277778"
           d="m 422.01278,51.597773 0.0703,0.02894 v -0.186034 z m -0.35415,4.335308 0.12402,0.04548 v -2.723004 l -0.12402,-0.03996 z m 0.30041,0.110243 0.12402,0.04548 V 53.35202 l -0.12402,-0.03996 z m -0.30041,6.61045 0.12402,0.0689 v -3.883312 l -0.12402,-0.03307 z m 0.30041,0.168121 0.12402,0.07028 v -3.971507 l -0.12402,-0.03307 z m 0,0"
           id="path132486" />
        <path
           style="fill:#1c3a85;fill-opacity:1;fill-rule:nonzero;stroke:none;stroke-width:0.35277778"
           d="m 421.21765,53.35615 v 2.414323 l 0.30179,0.110243 v -2.709223 l -0.19017,-0.06063 z m 0,9.049577 0.30179,0.169499 v -3.806142 l -0.30179,-0.08268 z m 0,0"
           id="path132488" />
        <path
           style="fill:#ffffff;fill-opacity:1;fill-rule:nonzero;stroke:none;stroke-width:0.35277778"
           d="m 421.45743,55.858667 0.12403,0.04548 v -2.713358 l -0.12403,-0.03858 z m -0.30041,-2.364713 v 2.253092 l 0.12402,0.04548 V 53.21835 Z m 0,8.877322 0.12402,0.07028 v -3.73724 l -0.12402,-0.03445 z m 0.30041,0.169499 0.12403,0.0689 V 58.78562 l -0.12403,-0.03445 z m 0,0"
           id="path132490" />
        <path
           style="fill:#eb1923;fill-opacity:1;fill-rule:nonzero;stroke:none;stroke-width:0.35277778"
           d="m 421.12394,74.081846 h -2.48873 V 58.938583 h -9.84057 v -2.864942 h 9.84057 v -9.852973 h 2.48873 v 9.852973 h 9.84195 v 2.864942 h -9.84195 z m 0,0"
           id="path132492" />
        <path
           style="fill:#ffffff;fill-opacity:1;fill-rule:nonzero;stroke:none;stroke-width:0.35277778"
           d="m 421.1956,46.150388 h -2.63067 v 9.851595 h -9.84057 v 3.00688 h 9.84057 v 15.144639 h 2.63067 V 59.008863 h 9.84058 v -3.00688 h -9.84058 z m -0.14194,0.141938 v 9.851595 h 9.84058 v 2.723004 h -9.84058 v 15.144641 h -2.34679 V 58.866925 h -9.84057 v -2.723004 h 9.84057 v -9.851595 z m 0,0"
           id="path132494" />
        <path
           style="fill:#1c3a85;fill-opacity:1;fill-rule:nonzero;stroke:none;stroke-width:0.35277778"
           d="m 420.65817,46.01534 c -0.83509,0 -1.51584,-0.679373 -1.51584,-1.514464 0,-0.07028 0.0124,-0.148828 0.0248,-0.221864 0.11162,-0.687641 0.64354,-1.397331 0.74414,-1.508952 1.33945,-1.562695 3.10472,-1.86173 3.12126,-1.865864 h 0.005 l 0.0207,-0.0028 c 0.0331,0 0.0606,0.01654 0.0744,0.0441 0.0303,0.0565 -0.007,0.108865 -0.10474,0.246669 -0.0978,0.139181 -0.24529,0.348643 -0.32521,0.571885 -0.10473,0.279742 -0.15848,0.57602 -0.15848,0.881945 0,0.03445 0.008,0.108865 0.0193,0.21084 0.0441,0.406521 0.1254,1.161686 -0.022,1.544781 -0.13642,0.740006 -0.99219,1.613682 -1.88377,1.613682"
           id="path132496" />
        <path
           style="fill:#ffffff;fill-opacity:1;fill-rule:nonzero;stroke:none;stroke-width:0.35277778"
           d="m 423.05871,40.83116 c -0.0138,0 -0.0276,0.0014 -0.0413,0.0041 -0.12678,0.02205 -1.8259,0.332107 -3.16122,1.890668 -0.004,0.0041 -0.63114,0.755165 -0.7593,1.542025 -0.0124,0.07166 -0.0248,0.155718 -0.0248,0.232888 0,0.875055 0.71107,1.586123 1.58612,1.586123 0.92053,0 1.80248,-0.895725 1.95406,-1.671561 0.14745,-0.402387 0.0661,-1.157552 0.022,-1.565451 -0.01,-0.09095 -0.0193,-0.176389 -0.0193,-0.20395 0,-0.297656 0.0524,-0.585666 0.15434,-0.855762 0.0772,-0.216352 0.22186,-0.420301 0.31695,-0.556727 0.10611,-0.150206 0.15985,-0.225999 0.11024,-0.321083 -0.0262,-0.04961 -0.0786,-0.0813 -0.1378,-0.0813 m 0,0.141938 c 0.0868,0 -0.27561,0.355534 -0.42168,0.766189 -0.10335,0.27423 -0.16399,0.581532 -0.16399,0.906749 0,0.161231 0.1819,1.263661 0.003,1.730816 -0.14055,0.749653 -0.98667,1.568208 -1.81763,1.568208 -0.79788,0 -1.44418,-0.6463 -1.44418,-1.444185 0,-0.06614 0.011,-0.141938 0.0221,-0.210839 0.11437,-0.694532 0.6587,-1.394575 0.7276,-1.471745 1.33946,-1.562696 3.07992,-1.843815 3.07992,-1.843815 0.007,-0.0014 0.011,-0.0014 0.0152,-0.0014"
           id="path132498" />
        <path
           style="fill:#1c3a85;fill-opacity:1;fill-rule:nonzero;stroke:none;stroke-width:0.35277778"
           d="m 416.8162,48.3332 h -0.01 c -0.73174,-0.0124 -1.35047,-0.395497 -1.418,-0.438216 -1.62195,-0.978407 -1.71703,-2.61965 -1.72254,-2.805685 -0.008,-0.01929 -0.0138,-0.04548 0.003,-0.07304 l 0.13229,-0.206705 0.005,0.248047 c 0.0179,0.03169 0.0675,0.111621 0.16812,0.192925 0.13367,0.107487 0.37896,0.235645 0.79375,0.235645 0.0551,0 0.113,-0.0028 0.17364,-0.0069 0.0344,-0.0028 0.1378,-0.02756 0.25769,-0.05512 0.31144,-0.07441 0.83371,-0.195681 1.21405,-0.195681 0.0951,0 0.17639,0.0069 0.24529,0.02205 0.7841,0.02894 1.8135,0.957736 1.91823,1.740462 0.0496,0.366558 -0.0717,0.683507 -0.34864,0.919152 -0.24254,0.205327 -0.59669,0.343131 -1.02389,0.401008 -0.0648,0.0083 -0.30454,0.02205 -0.3886,0.02205"
           id="path132500" />
        <path
           style="fill:#ffffff;fill-opacity:1;fill-rule:nonzero;stroke:none;stroke-width:0.35277778"
           d="m 413.72939,44.91291 h -0.0786 l -0.0413,0.06615 c -0.0303,0.04685 -0.0248,0.09233 -0.0138,0.124024 0.01,0.241157 0.13367,1.874132 1.757,2.852539 0.0675,0.0441 0.7028,0.43546 1.45245,0.44924 h 0.011 c 0.0785,0 0.32521,-0.01378 0.39825,-0.02343 0.44097,-0.05926 0.80753,-0.203949 1.05971,-0.417545 0.29628,-0.250803 0.42582,-0.591179 0.37345,-0.982541 -0.11024,-0.822689 -1.14653,-1.761133 -1.98575,-1.802474 -0.0703,-0.01516 -0.15297,-0.02205 -0.24667,-0.02205 -0.38999,0 -0.9164,0.124023 -1.23197,0.197059 -0.10611,0.02618 -0.21773,0.05237 -0.24667,0.05374 -0.0579,0.0041 -0.11438,0.0069 -0.1695,0.0069 -0.39274,0 -0.62287,-0.118512 -0.74689,-0.219108 -0.10611,-0.08544 -0.14883,-0.166743 -0.15434,-0.180523 h 10e-4 c -0.0372,-0.08819 -0.10198,-0.101975 -0.13781,-0.101975 m 0.007,0.16123 c 0.0193,0.03996 0.0758,0.136426 0.19431,0.231511 0.15571,0.125401 0.41754,0.250802 0.83646,0.250802 0.0565,0 0.11714,-0.0028 0.18053,-0.0069 0.13642,-0.01103 0.93982,-0.250803 1.46761,-0.250803 0.0841,0 0.16261,0.0069 0.22875,0.02067 0.75379,0.03032 1.76114,0.916396 1.86311,1.681207 0.0992,0.733116 -0.52779,1.134125 -1.31189,1.240234 -0.062,0.0083 -0.30041,0.02205 -0.37896,0.02205 h -0.008 c -0.69453,-0.01378 -1.29811,-0.373449 -1.38217,-0.42857 -1.644,-0.99081 -1.6881,-2.652724 -1.68947,-2.760211 m -0.007,-0.01929 c 0,0 0.003,0.0041 0.007,0.01378 v 0.0055 c -0.006,-0.0124 -0.008,-0.01929 -0.007,-0.01929"
           id="path132502" />
        <path
           style="fill:#ffffff;fill-opacity:1;fill-rule:nonzero;stroke:none;stroke-width:0.35277778"
           d="m 414.3316,45.599173 c 0,0 -0.25632,0.276985 1.44694,1.295355 0.32108,0.191548 0.64216,0.216352 1.20302,0.231511 0.0689,0.0014 0.77171,-0.01102 0.83785,-0.01102 0.2508,0 0.58291,0.01791 0.58291,0.0069 0,-0.770323 -1.05144,-1.68534 -1.80385,-1.715657 -0.69867,-0.05099 -1.59026,0.267339 -1.74873,0.265961 -0.40928,-0.0028 -0.52641,-0.09508 -0.51814,-0.07304"
           id="path132504" />
        <path
           style="fill:#1c3a85;fill-opacity:1;fill-rule:nonzero;stroke:none;stroke-width:0.35277778"
           d="m 418.1653,52.322621 c -0.37483,0 -1.67845,-0.0813 -2.69131,-1.132747 -1.21819,-1.262283 -0.29904,-3.052355 -0.28939,-3.071648 l 0.0661,-0.125401 0.0606,0.128158 c 0.004,0.01102 0.49196,1.010102 1.93752,1.200271 0.47542,0.06339 0.8282,0.250803 1.05007,0.556727 0.38998,0.540191 0.30317,1.332563 0.18328,1.962327 l -0.11162,0.425814 -0.0124,0.04823 -0.0496,0.0041 c 0,0 -0.051,0.0041 -0.14332,0.0041"
           id="path132506" />
        <path
           style="fill:#ffffff;fill-opacity:1;fill-rule:nonzero;stroke:none;stroke-width:0.35277778"
           d="m 415.2535,47.835729 -0.13229,0.250803 c -0.008,0.01791 -0.95084,1.854839 0.30041,3.152951 1.03353,1.070736 2.36196,1.154796 2.74368,1.154796 0.0937,0 0.14745,-0.0055 0.14883,-0.0055 l 0.10059,-0.0083 0.0248,-0.09646 0.11025,-0.420302 0.003,-0.01102 c 0.12127,-0.643544 0.20946,-1.453831 -0.19706,-2.01607 -0.23289,-0.322461 -0.6022,-0.519521 -1.09692,-0.585666 -1.40422,-0.186036 -1.86448,-1.120345 -1.8824,-1.160309 z m -0.005,0.31557 c 0,0 0.48645,1.041797 1.99264,1.240235 1.50482,0.199815 1.32844,1.616439 1.17272,2.434993 l -0.11025,0.42168 c 0,0 -0.0496,0.0041 -0.1378,0.0041 -0.40928,0 -1.6564,-0.09095 -2.6417,-1.110699 C 414.32885,49.901408 415.248,48.1513 415.248,48.1513"
           id="path132508" />
        <path
           style="fill:#1c3a85;fill-opacity:1;fill-rule:nonzero;stroke:none;stroke-width:0.35277778"
           d="m 413.39315,55.577547 c -0.44097,0 -1.2926,-0.140559 -2.04225,-1.083138 -1.10381,-1.387684 -0.44924,-3.498839 -0.42168,-3.588411 l 0.0703,-0.219108 0.0648,0.220486 c 0.004,0.0083 0.28801,0.912261 1.7005,1.293978 0.15158,0.04134 0.62563,0.471289 0.94533,1.050065 0.23151,0.423058 0.4644,1.072114 0.24805,1.769401 l -0.0992,0.458887 -0.01,0.04134 -0.0414,0.0124 c -0.007,0.0014 -0.16398,0.0441 -0.41478,0.0441"
           id="path132510" />
        <path
           style="fill:#ffffff;fill-opacity:1;fill-rule:nonzero;stroke:none;stroke-width:0.35277778"
           d="m 411.00088,50.449867 -0.13918,0.434082 c -0.0289,0.09095 -0.69316,2.237934 0.43408,3.654558 0.76756,0.966004 1.644,1.110699 2.09737,1.110699 0.26045,0 0.42719,-0.04548 0.43408,-0.04823 l 0.0827,-0.02205 0.0179,-0.08406 0.10059,-0.460265 c 0.21911,-0.717957 -0.0179,-1.38355 -0.25631,-1.816254 -0.32246,-0.585666 -0.80202,-1.034907 -0.98944,-1.084516 -1.36839,-0.370693 -1.63848,-1.212674 -1.64951,-1.247124 z m -0.004,0.476802 c 0,0 0.27699,0.945334 1.74873,1.343587 0.22462,0.06063 1.57234,1.350477 1.14515,2.728516 l -0.1006,0.465776 c 0,0 -0.15296,0.04272 -0.39687,0.04272 -0.46716,0 -1.26918,-0.154341 -1.98713,-1.056956 -1.09279,-1.373904 -0.40928,-3.523643 -0.40928,-3.523643"
           id="path132512" />
        <path
           style="fill:#1c3a85;fill-opacity:1;fill-rule:nonzero;stroke:none;stroke-width:0.35277778"
           d="m 430.39677,56.029544 c -0.226,0 -0.39275,-0.04685 -0.52642,-0.08406 -0.0468,-0.01378 -0.0909,-0.02618 -0.13229,-0.03445 -0.17776,-0.03583 -0.38447,-0.343131 -0.46991,-0.701421 -0.0675,-0.283876 -0.14469,-1.005968 0.58842,-1.577854 0.45751,-0.35829 0.86817,-0.49196 1.26504,-0.621495 0.56086,-0.183279 1.09003,-0.355534 1.75011,-1.125858 l 0.1447,-0.16812 -0.0193,0.220486 c -0.0124,0.129536 -0.29766,3.18878 -1.39733,3.746886 -0.45889,0.232889 -0.85163,0.345887 -1.20303,0.345887"
           id="path132514" />
        <path
           style="fill:#ffffff;fill-opacity:1;fill-rule:nonzero;stroke:none;stroke-width:0.35277778"
           d="m 433.10599,51.502688 -0.28801,0.334864 c -0.6463,0.755165 -1.1672,0.924663 -1.71841,1.105186 -0.40239,0.130914 -0.81856,0.26734 -1.28709,0.63252 -0.76481,0.598069 -0.68351,1.353234 -0.61323,1.65089 0.0923,0.388606 0.31833,0.713823 0.52503,0.755165 0.04,0.0069 0.0813,0.01929 0.12678,0.03169 0.13781,0.03859 0.31006,0.08682 0.54571,0.08682 0.36242,0 0.76618,-0.115756 1.23472,-0.352778 1.1355,-0.574642 1.42351,-3.672472 1.43591,-3.803386 z m -0.18052,0.427192 c 0,0 -0.27975,3.144683 -1.35737,3.690387 -0.51952,0.263205 -0.89159,0.337619 -1.17133,0.337619 -0.29904,0 -0.49059,-0.08544 -0.64493,-0.115755 -0.2949,-0.05926 -0.9288,-1.314649 0.14883,-2.155252 1.07763,-0.841981 1.87413,-0.413412 3.0248,-1.756999"
           id="path132516" />
        <path
           style="fill:#1c3a85;fill-opacity:1;fill-rule:nonzero;stroke:none;stroke-width:0.35277778"
           d="m 423.65127,55.328123 c -1.8824,0 -2.20486,-1.865864 -2.20762,-1.885157 l -0.005,-0.02894 0.0179,-0.02343 c 0.1943,-0.264583 0.92466,-0.784104 1.73219,-0.784104 0.34865,0 0.66697,0.09784 0.94533,0.292144 0.59394,0.41479 0.72485,0.480936 0.96325,0.600825 0.0854,0.0441 0.18604,0.09371 0.32384,0.169498 0.31144,0.168121 0.59394,0.202572 0.77584,0.202572 0.1006,0 0.16261,-0.01102 0.16261,-0.01102 l 0.22462,-0.04272 -0.15986,0.162608 c -1.04455,1.054199 -2.13871,1.282954 -2.18556,1.2926 -0.20533,0.03583 -0.40101,0.05512 -0.58705,0.05512"
           id="path132518" />
        <path
           style="fill:#ffffff;fill-opacity:1;fill-rule:nonzero;stroke:none;stroke-width:0.35277778"
           d="m 423.18825,52.534839 c -0.76757,0 -1.54478,0.480936 -1.79007,0.813043 l -0.0345,0.04823 0.01,0.05926 c 0.003,0.01929 0.33624,1.943034 2.27652,1.943034 0.19155,0 0.39274,-0.01792 0.59945,-0.05512 0.0496,-0.01102 1.16444,-0.243913 2.22415,-1.31327 l 0.31833,-0.321083 -0.44511,0.08268 c -10e-4,0 -0.0579,0.0096 -0.15158,0.0096 -0.17363,0 -0.44235,-0.03307 -0.74001,-0.194304 -0.14056,-0.07579 -0.24116,-0.126779 -0.32659,-0.170876 -0.23565,-0.118512 -0.36518,-0.184658 -0.95499,-0.595313 -0.28938,-0.202572 -0.62149,-0.305925 -0.98529,-0.305925 m 0,0.141939 c 0.30455,0 0.61598,0.07855 0.90399,0.279741 0.80753,0.563618 0.76344,0.486448 1.29536,0.774458 0.32935,0.177767 0.62838,0.212218 0.80753,0.212218 0.11162,0 0.17777,-0.0124 0.17777,-0.0124 -1.04042,1.051443 -2.14836,1.271929 -2.14836,1.271929 -0.20671,0.03721 -0.39688,0.05374 -0.57465,0.05374 -1.84244,0 -2.13733,-1.824523 -2.13733,-1.824523 0.19843,-0.268717 0.91501,-0.755165 1.67569,-0.755165"
           id="path132520" />
        <path
           style="fill:#ffffff;fill-opacity:1;fill-rule:nonzero;stroke:none;stroke-width:0.35277778"
           d="m 425.63151,54.018986 c 0,0 -0.92053,-0.399631 -1.28433,-0.708311 -0.5209,-0.442351 -1.27331,-0.675239 -1.94855,-0.310059 0,0 -0.47542,0.265961 -0.57602,0.398253 0,0 0.69729,0.886079 1.79421,0.886079 1.09554,0 2.01469,-0.265962 2.01469,-0.265962"
           id="path132522" />
        <path
           style="fill:#1c3a85;fill-opacity:1;fill-rule:nonzero;stroke:none;stroke-width:0.35277778"
           d="m 422.88646,51.061716 c -0.54295,0 -1.0101,-0.112999 -1.38769,-0.336241 l -0.0275,-0.01516 -0.006,-0.03169 c -0.004,-0.02205 -0.0992,-0.536057 0.45199,-1.423513 0.57327,-0.923286 1.48415,-1.372526 2.78502,-1.372526 0.36656,0 0.76894,0.03721 1.19476,0.110243 l 0.0634,0.01102 -0.006,0.06615 -0.006,0.07855 0.12678,0.04823 0.0827,0.03032 -0.0482,0.07441 c -0.004,0.0055 -0.3638,0.551215 -0.46026,0.764811 -0.0648,0.144695 -0.67111,1.42627 -1.95406,1.908584 -0.022,0.0055 -0.35691,0.08682 -0.81029,0.08682"
           id="path132524" />
        <path
           style="fill:#ffffff;fill-opacity:1;fill-rule:nonzero;stroke:none;stroke-width:0.35277778"
           d="m 424.70409,47.812302 c -1.32981,0 -2.25998,0.458887 -2.84703,1.405599 -0.56499,0.910883 -0.46577,1.452452 -0.46026,1.474501 l 0.0124,0.06201 0.0538,0.03169 c 0.3886,0.230133 0.86678,0.345888 1.42351,0.345888 0.46302,0 0.80478,-0.08268 0.81856,-0.08544 l 0.0165,-0.0055 c 1.30914,-0.493338 1.92788,-1.79834 1.99402,-1.94579 0.0937,-0.208084 0.45062,-0.749653 0.45476,-0.755165 l 0.0978,-0.14745 -0.16674,-0.06201 -0.0772,-0.02894 0.003,-0.02618 0.011,-0.129536 -0.12815,-0.02205 c -0.42995,-0.07441 -0.83647,-0.111621 -1.20579,-0.111621 m 0,0.141938 c 0.3514,0 0.74415,0.03445 1.18098,0.108865 l -0.011,0.132292 0.17776,0.06752 c 0,0 -0.36518,0.552593 -0.46577,0.774457 -0.0992,0.221864 -0.70832,1.416624 -1.9141,1.871376 0,0 -0.33486,0.0813 -0.78548,0.0813 -0.40928,0 -0.91364,-0.06752 -1.35186,-0.325217 0,0 -0.0992,-0.498849 0.44373,-1.372526 0.43959,-0.709689 1.21405,-1.338075 2.72576,-1.338075"
           id="path132526" />
        <path
           style="fill:#ffffff;fill-opacity:1;fill-rule:nonzero;stroke:none;stroke-width:0.35277778"
           d="m 421.66827,50.498099 c 0,0 0.13229,-1.183735 1.32843,-1.980241 1.05695,-0.705556 2.73403,-0.28801 2.73403,-0.28801 l 0.022,0.05512 c 0,0 -0.88608,0.354156 -1.37253,0.906749 -0.48783,0.553972 -1.60541,1.44005 -2.71198,1.306381"
           id="path132528" />
        <path
           style="fill:#1c3a85;fill-opacity:1;fill-rule:nonzero;stroke:none;stroke-width:0.35277778"
           d="m 406.6573,58.752547 c -0.073,0 -0.15021,-0.0041 -0.226,-0.01378 -1.45383,-0.170877 -2.60587,-1.194759 -3.10196,-2.133203 l -0.0317,-0.05788 0.0565,-0.03583 c 0.008,-0.0055 0.0386,-0.02067 0.091,-0.02067 0.0813,0 0.17225,0.04134 0.26596,0.124024 0.0289,0.0248 0.0537,0.05099 0.0772,0.07441 0.0648,0.06477 0.1006,0.100597 0.1819,0.100597 0.0772,0 0.19293,-0.03307 0.35416,-0.09922 l 0.1943,-0.07855 c 0.38585,-0.157096 0.64079,-0.260449 1.10105,-0.549837 0.22049,-0.139182 0.54984,-0.214974 0.92742,-0.214974 0.45614,0 1.05972,0.118511 1.38907,0.453375 0.48093,0.487825 0.59669,0.950846 0.6022,0.970139 l 0.004,0.02205 -0.007,0.02067 c -0.006,0.01378 -0.55673,1.438671 -1.87827,1.438671"
           id="path132530" />
        <path
           style="fill:#ffffff;fill-opacity:1;fill-rule:nonzero;stroke:none;stroke-width:0.35277778"
           d="m 406.54844,55.775985 c -0.39274,0 -0.73588,0.07993 -0.96601,0.225998 -0.45475,0.286632 -0.70831,0.389985 -1.0914,0.544325 -0.0606,0.0248 -0.12541,0.05099 -0.19431,0.07993 -0.15021,0.06201 -0.25907,0.09233 -0.3266,0.09233 -0.0482,0 -0.0648,-0.01102 -0.13091,-0.07993 -0.0248,-0.02343 -0.051,-0.04961 -0.0813,-0.07717 -0.10749,-0.09371 -0.2136,-0.141938 -0.31419,-0.141938 -0.0661,0 -0.11025,0.02205 -0.12678,0.03169 l -0.113,0.07028 0.062,0.117134 c 0.50574,0.95498 1.67707,1.996777 3.15708,2.17041 0.0786,0.0096 0.15848,0.01378 0.23427,0.01378 1.36977,0 1.92098,-1.423513 1.94441,-1.484147 l 0.0152,-0.04134 -0.01,-0.04272 c -0.006,-0.01929 -0.1254,-0.501606 -0.62012,-1.003212 -0.34451,-0.350022 -0.97014,-0.475423 -1.43867,-0.475423 m 0,0.141938 c 0.50849,0 1.05557,0.14745 1.33807,0.432704 0.47129,0.479557 0.58291,0.937066 0.58291,0.937066 0,0 -0.52503,1.393197 -1.81212,1.393197 -0.0703,0 -0.14331,-0.0041 -0.21773,-0.0124 -1.44694,-0.169499 -2.56866,-1.187869 -3.04822,-2.095996 0,0 0.0179,-0.01102 0.0524,-0.01102 0.0469,0 0.12127,0.01929 0.22049,0.107486 0.11437,0.09922 0.15709,0.191548 0.30592,0.191548 0.0841,0 0.19981,-0.02894 0.38034,-0.103353 0.50298,-0.206706 0.76756,-0.2949 1.30638,-0.635276 0.21773,-0.136426 0.5457,-0.203949 0.89159,-0.203949"
           id="path132532" />
        <path
           style="fill:#ffffff;fill-opacity:1;fill-rule:nonzero;stroke:none;stroke-width:0.35277778"
           d="m 404.15892,56.955586 c 0,0 0.68626,-0.110243 1.25815,-0.529167 0.51538,-0.376204 1.2361,-0.392741 1.4428,-0.341754 0.20671,0.05237 0.97428,0.186036 1.35048,1.004591 l -0.0138,0.07304 c 0,0 -1.23334,0.547082 -2.01469,0.479558 -0.78272,-0.06615 -1.81625,-0.354156 -2.04501,-0.560862 0,0 -0.0882,-0.101975 0.0221,-0.125401"
           id="path132534" />
      </g>
    </g>
  </g>
</svg>
