<?xml version="1.0" encoding="UTF-8" standalone="no"?>
<!-- Created with Inkscape (http://www.inkscape.org/) -->

<svg
   xmlns:dc="http://purl.org/dc/elements/1.1/"
   xmlns:cc="http://creativecommons.org/ns#"
   xmlns:rdf="http://www.w3.org/1999/02/22-rdf-syntax-ns#"
   xmlns:svg="http://www.w3.org/2000/svg"
   xmlns="http://www.w3.org/2000/svg"
   xmlns:sodipodi="http://sodipodi.sourceforge.net/DTD/sodipodi-0.dtd"
   xmlns:inkscape="http://www.inkscape.org/namespaces/inkscape"
   width="37.791649mm"
   height="35.805885mm"
   viewBox="0 0 37.791649 35.805885"
   version="1.1"
   id="svg214854"
   inkscape:version="0.92.4 (unknown)"
   sodipodi:docname="girton-grammar-school.svg">
  <defs
     id="defs214848">
    <clipPath
       id="clipPath214872"
       clipPathUnits="userSpaceOnUse">
      <path
         inkscape:connector-curvature="0"
         id="path214870"
         d="M 0,0 H 419.528 V 595.276 H 0 Z" />
    </clipPath>
    <clipPath
       id="clipPath214942"
       clipPathUnits="userSpaceOnUse">
      <path
         inkscape:connector-curvature="0"
         id="path214940"
         d="M 286.268,39.685 H 393.394 V 141.186 H 286.268 Z" />
    </clipPath>
    <clipPath
       id="clipPath214958"
       clipPathUnits="userSpaceOnUse">
      <path
         inkscape:connector-curvature="0"
         id="path214956"
         d="M 286.268,39.685 H 393.394 V 141.182 H 286.268 Z" />
    </clipPath>
    <clipPath
       id="clipPath214970"
       clipPathUnits="userSpaceOnUse">
      <path
         inkscape:connector-curvature="0"
         id="path214968"
         d="M 286.268,39.685 H 393.394 V 141.186 H 286.268 Z" />
    </clipPath>
    <clipPath
       id="clipPath214982"
       clipPathUnits="userSpaceOnUse">
      <path
         inkscape:connector-curvature="0"
         id="path214980"
         d="M 286.268,39.685 H 393.394 V 141.182 H 286.268 Z" />
    </clipPath>
    <clipPath
       id="clipPath214994"
       clipPathUnits="userSpaceOnUse">
      <path
         inkscape:connector-curvature="0"
         id="path214992"
         d="M 286.268,39.685 H 393.394 V 141.186 H 286.268 Z" />
    </clipPath>
    <clipPath
       id="clipPath215006"
       clipPathUnits="userSpaceOnUse">
      <path
         inkscape:connector-curvature="0"
         id="path215004"
         d="M 286.268,39.685 H 393.394 V 141.182 H 286.268 Z" />
    </clipPath>
    <clipPath
       id="clipPath215018"
       clipPathUnits="userSpaceOnUse">
      <path
         inkscape:connector-curvature="0"
         id="path215016"
         d="M 286.268,39.685 H 393.394 V 141.186 H 286.268 Z" />
    </clipPath>
    <clipPath
       id="clipPath215030"
       clipPathUnits="userSpaceOnUse">
      <path
         inkscape:connector-curvature="0"
         id="path215028"
         d="M 286.268,39.685 H 393.394 V 141.182 H 286.268 Z" />
    </clipPath>
    <clipPath
       id="clipPath215042"
       clipPathUnits="userSpaceOnUse">
      <path
         inkscape:connector-curvature="0"
         id="path215040"
         d="M 286.268,39.685 H 393.394 V 141.186 H 286.268 Z" />
    </clipPath>
    <clipPath
       id="clipPath215054"
       clipPathUnits="userSpaceOnUse">
      <path
         inkscape:connector-curvature="0"
         id="path215052"
         d="M 286.268,39.685 H 393.394 V 141.182 H 286.268 Z" />
    </clipPath>
    <clipPath
       id="clipPath215066"
       clipPathUnits="userSpaceOnUse">
      <path
         inkscape:connector-curvature="0"
         id="path215064"
         d="M 286.268,39.685 H 393.394 V 141.186 H 286.268 Z" />
    </clipPath>
  </defs>
  <sodipodi:namedview
     id="base"
     pagecolor="#ffffff"
     bordercolor="#666666"
     borderopacity="1.0"
     inkscape:pageopacity="0.0"
     inkscape:pageshadow="2"
     inkscape:zoom="1.979899"
     inkscape:cx="134.07704"
     inkscape:cy="164.08919"
     inkscape:document-units="mm"
     inkscape:current-layer="layer1"
     showgrid="false"
     inkscape:pagecheckerboard="true"
     fit-margin-top="0"
     fit-margin-left="0"
     fit-margin-right="0"
     fit-margin-bottom="0"
     inkscape:window-width="1920"
     inkscape:window-height="1009"
     inkscape:window-x="1920"
     inkscape:window-y="24"
     inkscape:window-maximized="1" />
  <metadata
     id="metadata214851">
    <rdf:RDF>
      <cc:Work
         rdf:about="">
        <dc:format>image/svg+xml</dc:format>
        <dc:type
           rdf:resource="http://purl.org/dc/dcmitype/StillImage" />
        <dc:title></dc:title>
      </cc:Work>
    </rdf:RDF>
  </metadata>
  <g
     inkscape:label="Layer 1"
     inkscape:groupmode="layer"
     id="layer1"
     transform="translate(-19.49075,-243.71043)">
    <g
       id="g215621"
       transform="translate(-144.32554,-15.501633)">
      <g
         transform="matrix(0.35277777,0,0,-0.35277777,62.827303,309.01793)"
         id="g214936">
        <g
           clip-path="url(#clipPath214942)"
           id="g214938">
          <g
             transform="translate(339.6408,39.685)"
             id="g214944">
            <path
               inkscape:connector-curvature="0"
               id="path214946"
               style="fill:#a7641d;fill-opacity:1;fill-rule:nonzero;stroke:none"
               d="m 0,0 c 1.399,0 2.531,0.443 2.531,0.443 19.847,6.75 28.06,15.31 31.879,17.983 6.217,4.352 5.151,13.498 5.151,13.498 V 96.886 H 0.322 -0.111 -39.539 V 31.924 c 0,0 -1.066,-9.146 5.151,-13.498 3.819,-2.673 12.032,-11.233 31.879,-17.983 0,0 1.132,-0.443 2.531,-0.443 z" />
          </g>
          <g
             transform="translate(340.0794,140.6526)"
             id="g214948">
            <path
               inkscape:connector-curvature="0"
               id="path214950"
               style="fill:#ffffff;fill-opacity:1;fill-rule:nonzero;stroke:none"
               d="m 0,0 h 37.03 v -71.397 c 0,0 0.2,-4.462 -3.063,-7.725 C 30.703,-82.386 21.978,-91.111 2.531,-97.504 1.511,-97.84 0.666,-98.037 0,-98.037 h -0.417 c -0.666,0 -1.51,0.197 -2.53,0.533 -19.448,6.393 -28.173,15.118 -31.436,18.382 -3.264,3.263 -3.064,7.725 -3.064,7.725 V 0 h 37.03 z" />
          </g>
        </g>
      </g>
      <g
         transform="matrix(0.35277777,0,0,-0.35277777,62.827303,309.01793)"
         id="g214952">
        <g
           clip-path="url(#clipPath214958)"
           id="g214954">
          <g
             transform="translate(340.0794,140.6526)"
             id="g214960">
            <path
               inkscape:connector-curvature="0"
               id="path214962"
               style="fill:none;stroke:#a7641d;stroke-width:1.06599998;stroke-linecap:butt;stroke-linejoin:miter;stroke-miterlimit:4;stroke-dasharray:none;stroke-opacity:1"
               d="m 0,0 h 37.03 v -71.397 c 0,0 0.2,-4.462 -3.063,-7.725 C 30.703,-82.386 21.978,-91.111 2.531,-97.504 1.511,-97.84 0.666,-98.037 0,-98.037 h -0.417 c -0.666,0 -1.51,0.197 -2.53,0.533 -19.448,6.393 -28.173,15.118 -31.436,18.382 -3.264,3.263 -3.064,7.725 -3.064,7.725 V 0 h 37.03 z" />
          </g>
        </g>
      </g>
      <g
         transform="matrix(0.35277777,0,0,-0.35277777,62.827303,309.01793)"
         id="g214964">
        <g
           clip-path="url(#clipPath214970)"
           id="g214966">
          <g
             transform="translate(298.3397,96.6957)"
             id="g214972">
            <path
               inkscape:connector-curvature="0"
               id="path214974"
               style="fill:#a7641d;fill-opacity:1;fill-rule:nonzero;stroke:none"
               d="m 0,0 h -8.125 c -1.599,-0.932 -2.9,-2.276 -2.9,-2.276 3.06,-0.459 5.062,-4.262 5.062,-4.262 l 1.035,-0.522 3.545,2.043 c 0,0 -7.623,-6.305 -6.158,-17.761 0,0 6.861,8.248 10.235,10.379 z" />
          </g>
        </g>
      </g>
      <g
         transform="matrix(0.35277777,0,0,-0.35277777,62.827303,309.01793)"
         id="g214976">
        <g
           clip-path="url(#clipPath214982)"
           id="g214978">
          <g
             transform="translate(298.3397,96.6957)"
             id="g214984">
            <path
               inkscape:connector-curvature="0"
               id="path214986"
               style="fill:none;stroke:#a7641d;stroke-width:0.79900002;stroke-linecap:butt;stroke-linejoin:miter;stroke-miterlimit:4;stroke-dasharray:none;stroke-opacity:1"
               d="m 0,0 h -8.125 c -1.599,-0.932 -2.9,-2.276 -2.9,-2.276 3.06,-0.459 5.062,-4.262 5.062,-4.262 l 1.035,-0.522 3.545,2.043 c 0,0 -7.623,-6.305 -6.158,-17.761 0,0 6.861,8.248 10.235,10.379 z" />
          </g>
        </g>
      </g>
      <g
         transform="matrix(0.35277777,0,0,-0.35277777,62.827303,309.01793)"
         id="g214988">
        <g
           clip-path="url(#clipPath214994)"
           id="g214990">
          <g
             transform="translate(302.7658,104.2883)"
             id="g214996">
            <path
               inkscape:connector-curvature="0"
               id="path214998"
               style="fill:#ffffff;fill-opacity:1;fill-rule:nonzero;stroke:none"
               d="m 0,0 c 0,0 -6.833,-1.323 -15.482,-7.06 0,0 3.583,-0.754 6.957,-5.55 0,0 -7.623,-6.305 -6.157,-17.76 0,0 6.512,8.703 9.887,10.834 3.374,2.131 4.262,3.729 4.44,5.328 0.178,1.598 -1.132,4.251 -2.842,5.139 z" />
          </g>
        </g>
      </g>
      <g
         transform="matrix(0.35277777,0,0,-0.35277777,62.827303,309.01793)"
         id="g215000">
        <g
           clip-path="url(#clipPath215006)"
           id="g215002">
          <g
             transform="translate(302.7658,104.2883)"
             id="g215008">
            <path
               inkscape:connector-curvature="0"
               id="path215010"
               style="fill:none;stroke:#a7641d;stroke-width:0.79900002;stroke-linecap:butt;stroke-linejoin:miter;stroke-miterlimit:4;stroke-dasharray:none;stroke-opacity:1"
               d="m 0,0 c 0,0 -6.833,-1.323 -15.482,-7.06 0,0 3.583,-0.754 6.957,-5.55 0,0 -7.623,-6.305 -6.157,-17.76 0,0 6.512,8.703 9.887,10.834 3.374,2.131 4.262,3.729 4.44,5.328 0.178,1.598 -1.132,4.251 -2.842,5.139 z" />
          </g>
        </g>
      </g>
      <g
         transform="matrix(0.35277777,0,0,-0.35277777,62.827303,309.01793)"
         id="g215012">
        <g
           clip-path="url(#clipPath215018)"
           id="g215014">
          <g
             transform="translate(381.3223,96.6957)"
             id="g215020">
            <path
               inkscape:connector-curvature="0"
               id="path215022"
               style="fill:#a7641d;fill-opacity:1;fill-rule:nonzero;stroke:none"
               d="m 0,0 h 8.125 c 1.599,-0.932 2.9,-2.276 2.9,-2.276 C 7.966,-2.735 5.964,-6.538 5.964,-6.538 L 4.928,-7.06 1.383,-5.017 c 0,0 7.623,-6.305 6.158,-17.761 0,0 -6.861,8.248 -10.235,10.379 z" />
          </g>
        </g>
      </g>
      <g
         transform="matrix(0.35277777,0,0,-0.35277777,62.827303,309.01793)"
         id="g215024">
        <g
           clip-path="url(#clipPath215030)"
           id="g215026">
          <g
             transform="translate(381.3223,96.6957)"
             id="g215032">
            <path
               inkscape:connector-curvature="0"
               id="path215034"
               style="fill:none;stroke:#a7641d;stroke-width:0.79900002;stroke-linecap:butt;stroke-linejoin:miter;stroke-miterlimit:4;stroke-dasharray:none;stroke-opacity:1"
               d="m 0,0 h 8.125 c 1.599,-0.932 2.9,-2.276 2.9,-2.276 C 7.966,-2.735 5.964,-6.538 5.964,-6.538 L 4.928,-7.06 1.383,-5.017 c 0,0 7.623,-6.305 6.158,-17.761 0,0 -6.861,8.248 -10.235,10.379 z" />
          </g>
        </g>
      </g>
      <g
         transform="matrix(0.35277777,0,0,-0.35277777,62.827303,309.01793)"
         id="g215036">
        <g
           clip-path="url(#clipPath215042)"
           id="g215038">
          <g
             transform="translate(376.8961,104.2883)"
             id="g215044">
            <path
               inkscape:connector-curvature="0"
               id="path215046"
               style="fill:#ffffff;fill-opacity:1;fill-rule:nonzero;stroke:none"
               d="m 0,0 c 0,0 6.833,-1.323 15.482,-7.06 0,0 -3.582,-0.754 -6.957,-5.55 0,0 7.623,-6.305 6.158,-17.76 0,0 -6.513,8.703 -9.888,10.834 -3.374,2.131 -4.262,3.729 -4.44,5.328 -0.177,1.598 1.133,4.251 2.842,5.139 z" />
          </g>
        </g>
      </g>
      <g
         transform="matrix(0.35277777,0,0,-0.35277777,62.827303,309.01793)"
         id="g215048">
        <g
           clip-path="url(#clipPath215054)"
           id="g215050">
          <g
             transform="translate(376.8961,104.2883)"
             id="g215056">
            <path
               inkscape:connector-curvature="0"
               id="path215058"
               style="fill:none;stroke:#a7641d;stroke-width:0.79900002;stroke-linecap:butt;stroke-linejoin:miter;stroke-miterlimit:4;stroke-dasharray:none;stroke-opacity:1"
               d="m 0,0 c 0,0 6.833,-1.323 15.482,-7.06 0,0 -3.582,-0.754 -6.957,-5.55 0,0 7.623,-6.305 6.158,-17.76 0,0 -6.513,8.703 -9.888,10.834 -3.374,2.131 -4.262,3.729 -4.44,5.328 -0.177,1.598 1.133,4.251 2.842,5.139 z" />
          </g>
        </g>
      </g>
      <g
         transform="matrix(0.35277777,0,0,-0.35277777,62.827303,309.01793)"
         id="g215060">
        <g
           clip-path="url(#clipPath215066)"
           id="g215062">
          <g
             transform="translate(340.0102,117.6085)"
             id="g215068">
            <path
               inkscape:connector-curvature="0"
               id="path215070"
               style="fill:#a7641d;fill-opacity:1;fill-rule:nonzero;stroke:none"
               d="m 0,0 h 34.13 v -47.009 c 0,0 0.185,-4.239 -2.823,-7.339 C 28.299,-57.449 20.257,-65.334 2.333,-71.408 1.392,-71.727 0.614,-71.914 0,-71.914 h -0.384 c -0.614,0 -1.392,0.187 -2.332,0.506 -17.925,6.074 -25.967,13.959 -28.974,17.06 -3.008,3.1 -2.824,7.339 -2.824,7.339 V 0 h 34.13 z" />
          </g>
          <g
             transform="translate(307.4679,137.308)"
             id="g215072">
            <path
               inkscape:connector-curvature="0"
               id="path215074"
               style="fill:#a7641d;fill-opacity:1;fill-rule:nonzero;stroke:none"
               d="m 0,0 c 0,0.482 -0.189,0.47 -0.412,0.548 -0.07,0.024 -0.113,0.066 -0.113,0.138 0,0.078 0.032,0.102 0.167,0.102 0.195,0 0.564,-0.048 0.824,-0.048 0.26,0 0.773,0.048 1.06,0.048 0.712,0 1.354,-0.247 1.354,-1.109 0,-0.71 -0.561,-1.229 -1.176,-1.229 -0.125,0 -0.643,0.049 -0.643,0.254 0,0.066 0.038,0.078 0.27,0.078 0.464,0 0.675,0.379 0.675,0.843 0,0.578 -0.345,0.873 -0.864,0.873 -0.189,0 -0.318,-0.12 -0.318,-0.265 v -2.91 c 0,-0.362 0.351,-0.452 0.572,-0.489 0.07,-0.012 0.113,-0.054 0.113,-0.144 0,-0.097 -0.156,-0.097 -0.313,-0.097 -0.243,0 -0.486,0.05 -0.73,0.05 -0.244,0 -0.488,-0.05 -0.732,-0.05 -0.124,0 -0.157,0.031 -0.157,0.097 0,0.09 0.092,0.12 0.147,0.144 C -0.07,-3.075 0,-2.87 0,-2.677 Z" />
          </g>
          <g
             transform="translate(311.0987,137.0465)"
             id="g215076">
            <path
               inkscape:connector-curvature="0"
               id="path215078"
               style="fill:#a7641d;fill-opacity:1;fill-rule:nonzero;stroke:none"
               d="m 0,0 c 0,0.295 -0.027,0.746 -0.255,0.777 -0.168,0.024 -0.281,0.078 -0.281,0.176 0,0.097 0.092,0.097 0.2,0.097 0.417,-0.061 0.835,-0.042 1.252,-0.049 0.415,0 0.831,0.049 1.247,0.049 0.125,0 0.234,0 0.234,-0.121 C 2.397,0.797 2.373,0.664 2.373,0.531 2.373,0.398 2.397,0.265 2.397,0.132 2.397,0.065 2.38,0.017 2.299,0.017 2.212,0.017 2.195,0.126 2.19,0.18 2.152,0.561 1.996,0.718 1.364,0.718 H 1.013 C 0.861,0.718 0.824,0.664 0.824,0.428 V -0.63 c 0,-0.097 0.092,-0.127 0.307,-0.127 0.314,0 0.551,0.103 0.638,0.363 0.059,0.169 0.081,0.187 0.135,0.187 0.081,0 0.081,-0.084 0.081,-0.169 0,-0.181 -0.032,-0.363 -0.032,-0.544 0,-0.181 0.032,-0.361 0.032,-0.541 0,-0.084 0,-0.168 -0.103,-0.168 -0.081,0 -0.081,0.18 -0.146,0.3 -0.135,0.246 -0.291,0.282 -0.605,0.282 -0.259,0 -0.307,-0.078 -0.307,-0.228 v -1.027 c 0,-0.445 0.07,-0.511 0.356,-0.511 0.567,0 0.881,0.192 1.064,0.39 0.185,0.199 0.239,0.403 0.326,0.403 0.065,0 0.087,-0.054 0.087,-0.114 0,-0.12 -0.044,-0.355 -0.082,-0.475 -0.07,-0.24 -0.314,-0.536 -0.569,-0.536 -0.361,0 -0.723,0.049 -1.085,0.049 -0.363,0 -0.726,-0.049 -1.089,-0.049 -0.168,0 -0.249,0 -0.249,0.097 0,0.096 0.108,0.139 0.206,0.193 C -0.033,-2.759 0,-2.615 0,-2.272 Z" />
          </g>
          <g
             transform="translate(314.4428,134.6434)"
             id="g215080">
            <path
               inkscape:connector-curvature="0"
               id="path215082"
               style="fill:#a7641d;fill-opacity:1;fill-rule:nonzero;stroke:none"
               d="m 0,0 c 0,-0.199 -0.065,-0.429 -0.277,-0.501 -0.054,-0.018 -0.146,-0.048 -0.146,-0.144 0,-0.097 0.082,-0.097 0.157,-0.097 0.217,0 0.434,0.049 0.651,0.049 0.216,0 0.433,-0.049 0.649,-0.049 0.249,0 0.314,0.018 0.314,0.097 0,0.096 -0.043,0.138 -0.113,0.144 -0.228,0.018 -0.411,0.127 -0.411,0.622 v 1.026 c 0,0.079 0.037,0.109 0.178,0.109 0.2,0 0.287,-0.151 0.379,-0.338 l 0.633,-1.293 c 0.119,-0.239 0.309,-0.359 0.466,-0.359 0.179,0 0.818,0.036 0.818,0.293 0,0.066 -0.022,0.108 -0.087,0.108 -0.048,0 -0.108,-0.018 -0.168,-0.018 -0.049,0 -0.092,0.036 -0.146,0.103 -0.265,0.332 -0.872,1.539 -0.872,1.63 0,0.06 0.157,0.096 0.265,0.163 0.222,0.144 0.407,0.356 0.407,0.766 0,0.995 -0.754,1.143 -1.479,1.143 -0.238,0 -0.638,-0.05 -0.931,-0.05 -0.385,0 -0.531,0.05 -0.661,0.05 -0.13,0 -0.152,-0.036 -0.152,-0.095 0,-0.095 0.044,-0.13 0.114,-0.142 C -0.184,3.18 0,3.072 0,2.716 Z m 0.824,2.915 c 0,0.217 0.048,0.314 0.335,0.314 0.465,0 0.698,-0.423 0.698,-0.858 0,-0.603 -0.201,-0.857 -0.687,-0.857 -0.346,0 -0.346,0.139 -0.346,0.211 z" />
          </g>
          <g
             transform="translate(319.6768,134.4238)"
             id="g215084">
            <path
               inkscape:connector-curvature="0"
               id="path215086"
               style="fill:#a7641d;fill-opacity:1;fill-rule:nonzero;stroke:none"
               d="m 0,0 c -0.043,-0.097 -0.087,-0.163 -0.179,-0.236 -0.075,-0.06 -0.211,-0.096 -0.211,-0.191 0,-0.096 0.065,-0.096 0.141,-0.096 0.184,0 0.368,0.05 0.553,0.05 0.184,0 0.368,-0.05 0.552,-0.05 0.087,0 0.147,0 0.147,0.096 0.001,0.098 -0.199,0.147 -0.351,0.195 -0.114,0.036 -0.249,0.151 -0.249,0.241 0,0.259 0.151,0.868 0.428,0.868 H 1.66 C 1.925,0.877 2.028,0.853 2.099,0.774 2.18,0.683 2.342,0.163 2.342,0.012 2.342,-0.145 2.256,-0.284 2.115,-0.314 2.034,-0.32 1.974,-0.374 1.974,-0.445 c 0,-0.036 0.033,-0.078 0.109,-0.078 0.259,0 0.52,0.05 0.758,0.05 0.238,0 0.499,-0.05 0.759,-0.05 0.086,0 0.14,0 0.14,0.096 0,0.095 -0.081,0.113 -0.227,0.161 C 3.307,-0.2 3.231,0.091 3.134,0.321 L 1.779,3.597 C 1.747,3.669 1.714,3.723 1.692,3.723 1.644,3.723 1.616,3.669 1.546,3.512 Z m 1.28,2.273 c 0.011,0.03 0.055,0.157 0.087,0.157 0.038,0 0.06,-0.042 0.098,-0.121 L 1.833,1.485 C 1.876,1.389 1.914,1.281 1.914,1.244 1.914,1.22 1.849,1.208 1.676,1.208 H 1.091 c -0.136,0 -0.228,0.018 -0.228,0.073 0,0.017 0.022,0.084 0.06,0.168 z" />
          </g>
          <g
             transform="translate(323.6924,134.9899)"
             id="g215088">
            <path
               inkscape:connector-curvature="0"
               id="path215090"
               style="fill:#a7641d;fill-opacity:1;fill-rule:nonzero;stroke:none"
               d="m 0,0 c -0.011,0.054 -0.038,0.138 -0.038,0.192 0,0.042 0.022,0.091 0.114,0.091 0.108,0 0.135,-0.163 0.173,-0.253 0.201,-0.474 0.592,-0.895 1.102,-0.895 0.381,0 0.691,0.259 0.691,0.697 0,0.979 -2.015,0.504 -2.015,2.144 0,0.619 0.455,1.18 1.096,1.18 0.462,0 0.739,-0.236 0.919,-0.236 0.059,0 0.178,0.085 0.227,0.085 0.071,0 0.087,-0.037 0.087,-0.116 C 2.345,2.547 2.432,2 2.432,1.934 2.432,1.856 2.399,1.802 2.324,1.802 c -0.098,0 -0.12,0.096 -0.163,0.246 -0.125,0.439 -0.587,0.835 -1,0.835 -0.331,0 -0.619,-0.21 -0.619,-0.552 0,-1.022 2.015,-0.481 2.015,-2.139 0,-0.582 -0.412,-1.33 -1.222,-1.33 -0.348,0 -0.652,0.128 -0.983,0.2 -0.054,0.013 -0.141,0.019 -0.162,0.103 z" />
          </g>
          <g
             transform="translate(327.0399,137.308)"
             id="g215092">
            <path
               inkscape:connector-curvature="0"
               id="path215094"
               style="fill:#a7641d;fill-opacity:1;fill-rule:nonzero;stroke:none"
               d="m 0,0 c 0,0.482 -0.19,0.47 -0.412,0.548 -0.07,0.024 -0.114,0.066 -0.114,0.138 0,0.078 0.033,0.102 0.168,0.102 0.195,0 0.564,-0.048 0.824,-0.048 0.26,0 0.773,0.048 1.06,0.048 0.712,0 1.354,-0.247 1.354,-1.109 0,-0.71 -0.561,-1.229 -1.176,-1.229 -0.125,0 -0.643,0.049 -0.643,0.254 0,0.066 0.038,0.078 0.27,0.078 0.465,0 0.675,0.379 0.675,0.843 0,0.578 -0.345,0.873 -0.864,0.873 -0.189,0 -0.318,-0.12 -0.318,-0.265 v -2.91 c 0,-0.362 0.351,-0.452 0.572,-0.489 0.07,-0.012 0.113,-0.054 0.113,-0.144 0,-0.097 -0.156,-0.097 -0.313,-0.097 -0.243,0 -0.486,0.05 -0.73,0.05 -0.244,0 -0.488,-0.05 -0.732,-0.05 -0.124,0 -0.157,0.031 -0.157,0.097 0,0.09 0.092,0.12 0.147,0.144 C -0.071,-3.075 0,-2.87 0,-2.677 Z" />
          </g>
          <g
             transform="translate(330.6707,137.0465)"
             id="g215096">
            <path
               inkscape:connector-curvature="0"
               id="path215098"
               style="fill:#a7641d;fill-opacity:1;fill-rule:nonzero;stroke:none"
               d="m 0,0 c 0,0.295 -0.027,0.746 -0.255,0.777 -0.167,0.024 -0.281,0.078 -0.281,0.176 0,0.097 0.092,0.097 0.2,0.097 0.417,-0.061 0.834,-0.042 1.252,-0.049 0.415,0 0.831,0.049 1.247,0.049 0.125,0 0.234,0 0.234,-0.121 C 2.397,0.797 2.373,0.664 2.373,0.531 2.373,0.398 2.397,0.265 2.397,0.132 2.397,0.065 2.38,0.017 2.299,0.017 2.212,0.017 2.196,0.126 2.19,0.18 2.152,0.561 1.996,0.718 1.364,0.718 H 1.013 C 0.861,0.718 0.824,0.664 0.824,0.428 V -0.63 c 0,-0.097 0.092,-0.127 0.308,-0.127 0.313,0 0.55,0.103 0.637,0.363 0.059,0.169 0.081,0.187 0.135,0.187 0.081,0 0.081,-0.084 0.081,-0.169 0,-0.181 -0.033,-0.363 -0.033,-0.544 0,-0.181 0.033,-0.361 0.033,-0.541 0,-0.084 0,-0.168 -0.103,-0.168 -0.081,0 -0.081,0.18 -0.146,0.3 -0.135,0.246 -0.291,0.282 -0.604,0.282 -0.26,0 -0.308,-0.078 -0.308,-0.228 v -1.027 c 0,-0.445 0.07,-0.511 0.356,-0.511 0.567,0 0.881,0.192 1.064,0.39 0.185,0.199 0.239,0.403 0.326,0.403 0.065,0 0.087,-0.054 0.087,-0.114 0,-0.12 -0.044,-0.355 -0.082,-0.475 -0.07,-0.24 -0.314,-0.536 -0.569,-0.536 -0.362,0 -0.723,0.049 -1.085,0.049 -0.363,0 -0.726,-0.049 -1.089,-0.049 -0.168,0 -0.249,0 -0.249,0.097 0,0.096 0.108,0.139 0.206,0.193 C -0.033,-2.759 0,-2.615 0,-2.272 Z" />
          </g>
          <g
             transform="translate(334.0148,134.6434)"
             id="g215100">
            <path
               inkscape:connector-curvature="0"
               id="path215102"
               style="fill:#a7641d;fill-opacity:1;fill-rule:nonzero;stroke:none"
               d="m 0,0 c 0,-0.199 -0.065,-0.429 -0.276,-0.501 -0.055,-0.018 -0.147,-0.048 -0.147,-0.144 0,-0.097 0.082,-0.097 0.157,-0.097 0.217,0 0.434,0.049 0.651,0.049 0.217,0 0.433,-0.049 0.65,-0.049 0.248,0 0.313,0.018 0.313,0.097 0,0.096 -0.043,0.138 -0.113,0.144 -0.228,0.018 -0.411,0.127 -0.411,0.622 v 1.026 c 0,0.079 0.037,0.109 0.178,0.109 0.2,0 0.287,-0.151 0.379,-0.338 l 0.633,-1.293 c 0.119,-0.239 0.309,-0.359 0.466,-0.359 0.179,0 0.818,0.036 0.818,0.293 0,0.066 -0.022,0.108 -0.087,0.108 -0.048,0 -0.108,-0.018 -0.168,-0.018 -0.048,0 -0.092,0.036 -0.146,0.103 -0.265,0.332 -0.872,1.539 -0.872,1.63 0,0.06 0.157,0.096 0.265,0.163 0.222,0.144 0.407,0.356 0.407,0.766 0,0.995 -0.754,1.143 -1.479,1.143 -0.237,0 -0.638,-0.05 -0.931,-0.05 -0.385,0 -0.531,0.05 -0.661,0.05 -0.13,0 -0.152,-0.036 -0.152,-0.095 0,-0.095 0.044,-0.13 0.114,-0.142 C -0.184,3.18 0,3.072 0,2.716 Z m 0.824,2.915 c 0,0.217 0.048,0.314 0.335,0.314 0.465,0 0.698,-0.423 0.698,-0.858 0,-0.603 -0.201,-0.857 -0.687,-0.857 -0.346,0 -0.346,0.139 -0.346,0.211 z" />
          </g>
          <g
             transform="translate(337.7423,134.4238)"
             id="g215104">
            <path
               inkscape:connector-curvature="0"
               id="path215106"
               style="fill:#a7641d;fill-opacity:1;fill-rule:nonzero;stroke:none"
               d="m 0,0 c -0.043,-0.097 -0.087,-0.163 -0.179,-0.236 -0.076,-0.06 -0.211,-0.096 -0.211,-0.191 0,-0.096 0.065,-0.096 0.141,-0.096 0.184,0 0.368,0.05 0.553,0.05 0.184,0 0.368,-0.05 0.552,-0.05 0.087,0 0.147,0 0.147,0.096 0.001,0.098 -0.199,0.147 -0.351,0.195 -0.114,0.036 -0.249,0.151 -0.249,0.241 0,0.259 0.151,0.868 0.428,0.868 H 1.66 C 1.926,0.877 2.028,0.853 2.099,0.774 2.18,0.683 2.343,0.163 2.343,0.012 2.343,-0.145 2.256,-0.284 2.115,-0.314 2.034,-0.32 1.974,-0.374 1.974,-0.445 c 0,-0.036 0.033,-0.078 0.109,-0.078 0.26,0 0.52,0.05 0.758,0.05 0.239,0 0.499,-0.05 0.759,-0.05 0.087,0 0.141,0 0.141,0.096 0,0.095 -0.081,0.113 -0.228,0.161 C 3.307,-0.2 3.231,0.091 3.134,0.321 L 1.779,3.597 C 1.747,3.669 1.714,3.723 1.692,3.723 1.644,3.723 1.616,3.669 1.546,3.512 Z m 1.281,2.273 c 0.011,0.03 0.054,0.157 0.086,0.157 0.038,0 0.06,-0.042 0.098,-0.121 L 1.833,1.485 C 1.877,1.389 1.915,1.281 1.915,1.244 1.915,1.22 1.85,1.208 1.676,1.208 H 1.091 c -0.136,0 -0.228,0.018 -0.228,0.073 0,0.017 0.022,0.084 0.06,0.168 z" />
          </g>
          <g
             transform="translate(343.4646,134.4238)"
             id="g215108">
            <path
               inkscape:connector-curvature="0"
               id="path215110"
               style="fill:#a7641d;fill-opacity:1;fill-rule:nonzero;stroke:none"
               d="m 0,0 c -0.043,-0.097 -0.087,-0.163 -0.179,-0.236 -0.076,-0.06 -0.211,-0.096 -0.211,-0.191 0,-0.096 0.065,-0.096 0.141,-0.096 0.184,0 0.368,0.05 0.552,0.05 0.185,0 0.369,-0.05 0.553,-0.05 0.087,0 0.146,0 0.146,0.096 0.002,0.098 -0.199,0.147 -0.35,0.195 -0.114,0.036 -0.25,0.151 -0.25,0.241 0,0.259 0.152,0.868 0.429,0.868 H 1.66 C 1.925,0.877 2.028,0.853 2.099,0.774 2.18,0.683 2.342,0.163 2.342,0.012 2.342,-0.145 2.256,-0.284 2.115,-0.314 2.033,-0.32 1.974,-0.374 1.974,-0.445 c 0,-0.036 0.032,-0.078 0.108,-0.078 0.26,0 0.52,0.05 0.759,0.05 0.238,0 0.498,-0.05 0.759,-0.05 0.086,0 0.14,0 0.14,0.096 0,0.095 -0.081,0.113 -0.227,0.161 C 3.307,-0.2 3.231,0.091 3.134,0.321 L 1.779,3.597 C 1.746,3.669 1.714,3.723 1.692,3.723 1.643,3.723 1.616,3.669 1.546,3.512 Z m 1.28,2.273 c 0.011,0.03 0.055,0.157 0.087,0.157 0.038,0 0.06,-0.042 0.098,-0.121 L 1.833,1.485 C 1.877,1.389 1.914,1.281 1.914,1.244 1.914,1.22 1.849,1.208 1.676,1.208 H 1.091 c -0.136,0 -0.228,0.018 -0.228,0.073 0,0.017 0.022,0.084 0.06,0.168 z" />
          </g>
          <g
             transform="translate(347.8147,134.7722)"
             id="g215112">
            <path
               inkscape:connector-curvature="0"
               id="path215114"
               style="fill:#a7641d;fill-opacity:1;fill-rule:nonzero;stroke:none"
               d="m 0,0 c 0,-0.235 -0.011,-0.573 -0.217,-0.65 -0.092,-0.036 -0.195,-0.066 -0.195,-0.155 0,-0.066 0.076,-0.066 0.168,-0.066 0.157,0 0.336,0.05 0.493,0.05 0.179,0 0.564,-0.05 1.123,-0.05 1.08,0 2.149,0.739 2.149,2.21 0,1.422 -0.89,1.985 -2.252,1.985 -0.266,0 -0.532,-0.048 -0.798,-0.048 -0.265,0 -0.53,0.048 -0.796,0.048 -0.136,0 -0.206,-0.024 -0.206,-0.14 0,-0.084 0.065,-0.091 0.265,-0.157 C -0.081,2.972 0,2.906 0,2.309 Z m 0.824,2.563 c 0,0.313 0.081,0.488 0.423,0.488 0.988,0 1.4,-1.013 1.4,-1.923 0,-0.772 -0.396,-1.683 -1.188,-1.683 -0.451,0 -0.635,0.085 -0.635,0.603 z" />
          </g>
          <g
             transform="translate(353.4023,134.4238)"
             id="g215116">
            <path
               inkscape:connector-curvature="0"
               id="path215118"
               style="fill:#a7641d;fill-opacity:1;fill-rule:nonzero;stroke:none"
               d="m 0,0 c -0.043,-0.097 -0.087,-0.163 -0.179,-0.236 -0.076,-0.06 -0.211,-0.096 -0.211,-0.191 0,-0.096 0.065,-0.096 0.141,-0.096 0.184,0 0.368,0.05 0.553,0.05 0.184,0 0.368,-0.05 0.552,-0.05 0.087,0 0.146,0 0.146,0.096 0.002,0.098 -0.198,0.147 -0.35,0.195 -0.114,0.036 -0.249,0.151 -0.249,0.241 0,0.259 0.151,0.868 0.428,0.868 H 1.66 C 1.925,0.877 2.028,0.853 2.099,0.774 2.18,0.683 2.342,0.163 2.342,0.012 2.342,-0.145 2.256,-0.284 2.115,-0.314 2.034,-0.32 1.974,-0.374 1.974,-0.445 c 0,-0.036 0.033,-0.078 0.109,-0.078 0.259,0 0.52,0.05 0.758,0.05 0.239,0 0.499,-0.05 0.759,-0.05 0.087,0 0.141,0 0.141,0.096 0,0.095 -0.082,0.113 -0.228,0.161 C 3.307,-0.2 3.231,0.091 3.134,0.321 L 1.779,3.597 C 1.747,3.669 1.714,3.723 1.692,3.723 1.643,3.723 1.616,3.669 1.546,3.512 Z m 1.28,2.273 c 0.012,0.03 0.055,0.157 0.087,0.157 0.038,0 0.06,-0.042 0.098,-0.121 L 1.833,1.485 C 1.877,1.389 1.915,1.281 1.915,1.244 1.915,1.22 1.85,1.208 1.676,1.208 H 1.091 c -0.136,0 -0.228,0.018 -0.228,0.073 0,0.017 0.022,0.084 0.06,0.168 z" />
          </g>
          <g
             transform="translate(357.4179,134.9899)"
             id="g215120">
            <path
               inkscape:connector-curvature="0"
               id="path215122"
               style="fill:#a7641d;fill-opacity:1;fill-rule:nonzero;stroke:none"
               d="m 0,0 c -0.011,0.054 -0.038,0.138 -0.038,0.192 0,0.042 0.022,0.091 0.114,0.091 0.108,0 0.135,-0.163 0.173,-0.253 0.201,-0.474 0.592,-0.895 1.102,-0.895 0.381,0 0.691,0.259 0.691,0.697 0,0.979 -2.015,0.504 -2.015,2.144 0,0.619 0.455,1.18 1.096,1.18 0.462,0 0.739,-0.236 0.919,-0.236 0.059,0 0.178,0.085 0.227,0.085 0.071,0 0.087,-0.037 0.087,-0.116 C 2.345,2.547 2.432,2 2.432,1.934 2.432,1.856 2.399,1.802 2.324,1.802 c -0.098,0 -0.12,0.096 -0.163,0.246 -0.125,0.439 -0.587,0.835 -1,0.835 -0.331,0 -0.619,-0.21 -0.619,-0.552 0,-1.022 2.015,-0.481 2.015,-2.139 0,-0.582 -0.412,-1.33 -1.222,-1.33 -0.347,0 -0.652,0.128 -0.983,0.2 -0.054,0.013 -0.141,0.019 -0.162,0.103 z" />
          </g>
          <g
             transform="translate(361.7477,137.4997)"
             id="g215124">
            <path
               inkscape:connector-curvature="0"
               id="path215126"
               style="fill:#a7641d;fill-opacity:1;fill-rule:nonzero;stroke:none"
               d="m 0,0 c 0,0.217 -0.13,0.265 -0.391,0.265 -0.522,0 -0.755,-0.048 -0.891,-0.645 -0.006,-0.036 -0.037,-0.054 -0.096,-0.054 -0.074,0 -0.096,0.036 -0.096,0.072 0,0.054 0.011,0.139 0.016,0.205 l 0.054,0.615 c 0.01,0.108 0.037,0.139 0.16,0.139 0.554,0 1.103,-0.049 1.656,-0.049 0.553,0 1.113,0.049 1.656,0.049 0.134,0 0.15,-0.019 0.166,-0.223 l 0.053,-0.615 c 0.005,-0.042 0.011,-0.091 0.011,-0.133 0,-0.036 -0.054,-0.06 -0.096,-0.06 -0.064,0 -0.091,0.018 -0.096,0.054 C 1.97,0.217 1.736,0.265 1.215,0.265 0.916,0.265 0.824,0.199 0.824,0 v -2.797 c 0,-0.476 0.369,-0.47 0.548,-0.56 0.06,-0.031 0.153,-0.012 0.153,-0.145 0,-0.097 -0.066,-0.097 -0.131,-0.097 -0.321,0 -0.652,0.05 -0.982,0.05 -0.331,0 -0.662,-0.05 -0.982,-0.05 -0.066,0 -0.131,0 -0.131,0.097 0,0.133 0.092,0.114 0.152,0.145 C -0.37,-3.267 0,-3.273 0,-2.797 Z" />
          </g>
          <g
             transform="translate(364.7274,134.6434)"
             id="g215128">
            <path
               inkscape:connector-curvature="0"
               id="path215130"
               style="fill:#a7641d;fill-opacity:1;fill-rule:nonzero;stroke:none"
               d="m 0,0 c 0,-0.199 -0.065,-0.429 -0.276,-0.501 -0.054,-0.018 -0.147,-0.048 -0.147,-0.144 0,-0.097 0.082,-0.097 0.158,-0.097 0.216,0 0.433,0.049 0.65,0.049 0.216,0 0.434,-0.049 0.65,-0.049 0.248,0 0.313,0.018 0.313,0.097 0,0.096 -0.043,0.138 -0.113,0.144 -0.227,0.018 -0.411,0.127 -0.411,0.622 v 1.026 c 0,0.079 0.038,0.109 0.178,0.109 0.201,0 0.287,-0.151 0.379,-0.338 l 0.633,-1.293 c 0.119,-0.239 0.309,-0.359 0.466,-0.359 0.179,0 0.818,0.036 0.818,0.293 0,0.066 -0.022,0.108 -0.087,0.108 -0.048,0 -0.108,-0.018 -0.167,-0.018 -0.049,0 -0.093,0.036 -0.147,0.103 -0.265,0.332 -0.872,1.539 -0.872,1.63 0,0.06 0.157,0.096 0.265,0.163 0.222,0.144 0.407,0.356 0.407,0.766 0,0.995 -0.754,1.143 -1.478,1.143 -0.238,0 -0.639,-0.05 -0.932,-0.05 -0.385,0 -0.531,0.05 -0.661,0.05 -0.13,0 -0.152,-0.036 -0.152,-0.095 0,-0.095 0.044,-0.13 0.114,-0.142 C -0.184,3.18 0,3.072 0,2.716 Z m 0.824,2.915 c 0,0.217 0.048,0.314 0.335,0.314 0.465,0 0.698,-0.423 0.698,-0.858 0,-0.603 -0.2,-0.857 -0.687,-0.857 -0.346,0 -0.346,0.139 -0.346,0.211 z" />
          </g>
          <g
             transform="translate(368.4552,134.4238)"
             id="g215132">
            <path
               inkscape:connector-curvature="0"
               id="path215134"
               style="fill:#a7641d;fill-opacity:1;fill-rule:nonzero;stroke:none"
               d="m 0,0 c -0.044,-0.097 -0.087,-0.163 -0.179,-0.236 -0.076,-0.06 -0.211,-0.096 -0.211,-0.191 0,-0.096 0.065,-0.096 0.141,-0.096 0.184,0 0.368,0.05 0.552,0.05 0.185,0 0.369,-0.05 0.553,-0.05 0.087,0 0.146,0 0.146,0.096 0.002,0.098 -0.198,0.147 -0.35,0.195 -0.114,0.036 -0.25,0.151 -0.25,0.241 0,0.259 0.152,0.868 0.429,0.868 H 1.66 C 1.925,0.877 2.028,0.853 2.098,0.774 2.18,0.683 2.342,0.163 2.342,0.012 2.342,-0.145 2.256,-0.284 2.115,-0.314 2.034,-0.32 1.974,-0.374 1.974,-0.445 c 0,-0.036 0.033,-0.078 0.108,-0.078 0.26,0 0.52,0.05 0.759,0.05 0.238,0 0.498,-0.05 0.759,-0.05 0.086,0 0.141,0 0.141,0.096 0,0.095 -0.082,0.113 -0.228,0.161 C 3.307,-0.2 3.231,0.091 3.134,0.321 L 1.779,3.597 C 1.746,3.669 1.714,3.723 1.692,3.723 1.643,3.723 1.616,3.669 1.546,3.512 Z m 1.28,2.273 c 0.011,0.03 0.055,0.157 0.087,0.157 0.038,0 0.06,-0.042 0.098,-0.121 L 1.833,1.485 C 1.877,1.389 1.914,1.281 1.914,1.244 1.914,1.22 1.849,1.208 1.676,1.208 H 1.091 c -0.136,0 -0.228,0.018 -0.228,0.073 0,0.017 0.022,0.084 0.06,0.168 z" />
          </g>
          <g
             transform="translate(350.9984,133.2697)"
             id="g215136">
            <path
               inkscape:connector-curvature="0"
               id="path215138"
               style="fill:#a7641d;fill-opacity:1;fill-rule:nonzero;stroke:none"
               d="m 0,0 1.273,-4.14 4.25,-0.832 -2.949,-3.173 1.404,-4.097 -4.221,0.968 -2.847,-3.265 -1.273,4.14 -4.25,0.832 2.948,3.173 -1.403,4.097 4.221,-0.967 z" />
          </g>
          <g
             transform="translate(339.8372,97.0928)"
             id="g215140">
            <path
               inkscape:connector-curvature="0"
               id="path215142"
               style="fill:#a7641d;fill-opacity:1;fill-rule:nonzero;stroke:none"
               d="M 0,0 C 17.703,0 40.485,-2.108 40.485,-2.108 V 16.465 C 21.272,19.015 0,18.715 0,18.715 h -0.173 c 0,0 -21.272,0.3 -40.485,-2.25 V -2.108 c 0,0 22.781,2.108 40.485,2.108 z" />
          </g>
          <g
             transform="translate(339.8312,98.0611)"
             id="g215144">
            <path
               inkscape:connector-curvature="0"
               id="path215146"
               style="fill:#ffffff;fill-opacity:1;fill-rule:nonzero;stroke:none"
               d="m 0,0 c 17.183,0 39.295,-1.871 39.295,-1.871 v 16.49 C 20.646,16.883 0,16.617 0,16.617 h -0.168 c 0,0 -20.647,0.266 -39.295,-1.998 v -16.49 c 0,0 22.111,1.871 39.295,1.871 z" />
          </g>
          <g
             transform="translate(302.2329,95.1525)"
             id="g215148">
            <path
               inkscape:connector-curvature="0"
               id="path215150"
               style="fill:#ffffff;fill-opacity:1;fill-rule:nonzero;stroke:none"
               d="m 0,0 c 0,0 -0.333,0.133 -1.399,-0.067 0,0 0.8,-0.599 1.332,-2.131 z" />
          </g>
          <g
             transform="translate(377.4703,95.1525)"
             id="g215152">
            <path
               inkscape:connector-curvature="0"
               id="path215154"
               style="fill:#ffffff;fill-opacity:1;fill-rule:nonzero;stroke:none"
               d="m 0,0 c 0,0 0.333,0.133 1.399,-0.067 0,0 -0.8,-0.599 -1.332,-2.131 z" />
          </g>
          <path
             inkscape:connector-curvature="0"
             id="path215156"
             style="fill:#2d6dbe;fill-opacity:1;fill-rule:nonzero;stroke:none"
             d="M 372.99,93.312 H 306.602 V 81.217 h 66.388 z" />
          <path
             inkscape:connector-curvature="0"
             id="path215158"
             style="fill:#eb1a2c;fill-opacity:1;fill-rule:nonzero;stroke:none"
             d="M 373.012,79.453 H 306.624 V 67.358 h 66.388 z" />
          <g
             transform="translate(341.5558,47.9988)"
             id="g215160">
            <path
               inkscape:connector-curvature="0"
               id="path215162"
               style="fill:#0a974b;fill-opacity:1;fill-rule:nonzero;stroke:none"
               d="m 0,0 c 16.317,3.929 29.638,17.649 29.638,17.649 h -62.7 c 0,0 13.32,-13.72 29.637,-17.649 0,0 0.533,-0.266 1.532,-0.344 C -0.875,-0.423 0,0 0,0" />
          </g>
          <g
             transform="translate(358.654,87.3832)"
             id="g215164">
            <path
               inkscape:connector-curvature="0"
               id="path215166"
               style="fill:#a7641d;fill-opacity:1;fill-rule:nonzero;stroke:none"
               d="m 0,0 1.273,-4.14 4.25,-0.833 -2.949,-3.172 1.404,-4.097 -4.221,0.968 -2.847,-3.265 -1.273,4.14 -4.25,0.832 2.949,3.173 -1.404,4.097 4.221,-0.967 z" />
          </g>
          <g
             transform="translate(337.5233,64.7839)"
             id="g215168">
            <path
               inkscape:connector-curvature="0"
               id="path215170"
               style="fill:#a7641d;fill-opacity:1;fill-rule:nonzero;stroke:none"
               d="m 0,0 0.833,-4.25 4.14,-1.273 -3.264,-2.846 0.968,-4.222 -4.098,1.404 -3.171,-2.949 -0.834,4.25 -4.139,1.272 3.263,2.847 -0.968,4.221 4.098,-1.403 z" />
          </g>
          <g
             transform="translate(324.9687,94.8384)"
             id="g215172">
            <path
               inkscape:connector-curvature="0"
               id="path215174"
               style="fill:#a7641d;fill-opacity:1;fill-rule:nonzero;stroke:none"
               d="m 0,0 1.836,-3.922 4.325,-0.234 -2.478,-3.551 1.96,-3.862 -4.315,0.37 -2.364,-3.628 -1.837,3.922 -4.325,0.233 2.479,3.552 -1.961,3.862 4.315,-0.371 z" />
          </g>
          <g
             transform="translate(317.1221,103.6835)"
             id="g215176">
            <path
               inkscape:connector-curvature="0"
               id="path215178"
               style="fill:#a7641d;fill-opacity:1;fill-rule:nonzero;stroke:none"
               d="M 0,0 C -0.127,1.116 -1.06,1.32 -2.036,1.282 -2.291,1.271 -2.49,1.376 -2.523,1.664 -2.552,1.916 -2.187,1.994 -1.22,2.104 -0.298,2.209 0.636,2.206 1.558,2.31 2.479,2.415 3.389,2.628 4.31,2.733 4.817,2.79 4.99,2.701 5.011,2.521 5.044,2.233 4.662,2.098 4.438,2.018 3.564,1.7 3.434,0.992 3.502,0.398 L 3.801,-2.23 c 0.033,-0.288 -3.856,-2.006 -6.828,-2.344 -4.723,-0.538 -8.427,1.448 -8.842,5.102 -0.438,3.852 2.91,7.241 7.495,7.762 2.765,0.315 4.878,-0.411 5.2,-0.374 C 1.402,7.981 1.132,8.515 1.823,8.594 1.984,8.613 2.065,8.512 2.099,8.425 L 2.756,5.929 C 2.835,5.646 2.974,5.243 2.99,5.099 3.021,4.829 2.924,4.654 2.694,4.627 2.418,4.596 2.115,4.999 2.009,5.115 -0.332,7.638 -2.001,7.74 -3.752,7.541 -7.576,7.106 -8.556,4.642 -8.229,1.762 c 0.297,-2.61 1.608,-5.925 5.548,-5.476 2.05,0.233 2.998,0.924 2.804,2.634 z" />
          </g>
          <g
             transform="translate(327.7188,111.022)"
             id="g215180">
            <path
               inkscape:connector-curvature="0"
               id="path215182"
               style="fill:#a7641d;fill-opacity:1;fill-rule:nonzero;stroke:none"
               d="m 0,0 c 0.028,-0.488 -1.069,-1.604 -1.718,-1.641 -0.648,-0.037 -1.865,0.946 -1.894,1.434 -0.028,0.506 1.065,1.694 1.713,1.731 C -1.251,1.561 -0.029,0.507 0,0 m -3.021,-4.703 c -0.019,0.326 -0.35,0.433 -0.675,0.433 -0.627,0 -0.681,0.124 -0.693,0.341 -0.017,0.29 0.417,0.424 0.855,0.485 0.668,0.093 1.989,0.549 2.6,0.821 0.181,0.083 0.454,0.189 0.685,0.202 0.186,0.011 0.246,-0.24 0.294,-1.072 l 0.303,-5.281 c 0.045,-0.778 0.519,-0.95 0.966,-1.051 0.447,-0.101 0.911,-0.093 0.928,-0.382 0.017,-0.29 -0.284,-0.307 -0.562,-0.323 -0.857,-0.049 -1.722,0.046 -2.578,-0.003 -0.857,-0.049 -1.705,-0.243 -2.561,-0.292 -0.394,-0.022 -0.518,0.115 -0.526,0.26 -0.017,0.29 0.257,0.378 0.623,0.472 0.32,0.09 0.634,0.29 0.61,0.706 z" />
          </g>
          <g
             transform="translate(331.7119,106.6773)"
             id="g215184">
            <path
               inkscape:connector-curvature="0"
               id="path215186"
               style="fill:#a7641d;fill-opacity:1;fill-rule:nonzero;stroke:none"
               d="m 0,0 c -0.008,0.326 -0.336,0.445 -0.661,0.455 -0.348,0.009 -0.673,0.038 -0.681,0.364 -0.007,0.289 0.43,0.409 0.87,0.456 C 0.199,1.346 1.534,1.759 2.154,2.01 2.337,2.088 2.614,2.185 2.845,2.191 2.961,2.193 3.035,2.032 3.04,1.797 L 3.07,0.583 C 3.594,0.977 4.584,2.233 5.372,2.253 6.276,2.275 7.48,1.435 7.492,0.946 7.502,0.53 6.789,-0.648 6.14,-0.664 5.491,-0.68 4.843,0.21 4.309,0.197 3.544,0.178 3.139,-0.303 3.158,-1.064 L 3.231,-4.033 C 3.254,-4.957 3.722,-5.145 4.166,-5.261 4.609,-5.377 5.074,-5.383 5.081,-5.673 5.085,-5.854 5.018,-5.965 4.509,-5.977 3.651,-5.999 2.789,-5.875 1.932,-5.896 1.074,-5.917 0.22,-6.083 -0.638,-6.104 c -0.348,-0.009 -0.512,0.096 -0.517,0.277 -0.007,0.289 0.269,0.369 0.639,0.451 0.322,0.08 0.642,0.269 0.628,0.831 z" />
          </g>
          <g
             transform="translate(341.3845,107.2508)"
             id="g215188">
            <path
               inkscape:connector-curvature="0"
               id="path215190"
               style="fill:#a7641d;fill-opacity:1;fill-rule:nonzero;stroke:none"
               d="M 0,0 C 0.005,0.525 -0.179,0.672 -0.782,0.678 -1.315,0.683 -1.361,0.774 -1.359,0.901 -1.357,1.154 -0.938,1.295 -0.752,1.42 0.439,2.224 1.536,2.974 2.45,3.962 2.567,4.088 2.708,4.267 2.939,4.265 3.056,4.264 3.171,4.209 3.167,3.774 L 3.148,1.854 C 3.147,1.727 3.193,1.672 3.355,1.671 L 4.561,1.659 C 5.326,1.652 5.329,1.96 5.723,1.956 5.909,1.954 5.954,1.827 5.952,1.646 5.949,1.265 5.688,0.652 4.899,0.66 L 3.693,0.671 C 3.299,0.675 3.136,0.549 3.134,0.368 L 3.086,-4.577 C 3.083,-4.939 3.288,-5.358 4.053,-5.365 4.748,-5.372 5.679,-5.037 6.027,-5.04 6.236,-5.042 6.258,-5.115 6.257,-5.223 6.25,-6.002 3.993,-6.705 2.44,-6.69 c -1.762,0.017 -2.495,0.929 -2.483,2.234 z" />
          </g>
          <g
             transform="translate(354.4678,108.5976)"
             id="g215192">
            <path
               inkscape:connector-curvature="0"
               id="path215194"
               style="fill:#a7641d;fill-opacity:1;fill-rule:nonzero;stroke:none"
               d="m 0,0 c -3.358,0.173 -5.946,-1.399 -6.074,-3.877 -0.132,-2.569 2.656,-4.327 5.805,-4.49 3.289,-0.169 5.759,1.808 5.88,4.16 C 5.741,-1.693 2.709,-0.14 0,0 m -0.315,-0.71 c 1.737,-0.089 2.878,-1.817 2.76,-4.114 -0.079,-1.52 -0.639,-2.924 -2.607,-2.823 -1.551,0.08 -2.878,1.817 -2.769,3.934 0.087,1.701 0.648,3.105 2.616,3.003" />
          </g>
          <g
             transform="translate(363.1906,106.1464)"
             id="g215196">
            <path
               inkscape:connector-curvature="0"
               id="path215198"
               style="fill:#a7641d;fill-opacity:1;fill-rule:nonzero;stroke:none"
               d="m 0,0 c 0.033,0.306 -0.28,0.431 -0.599,0.502 -0.342,0.073 -0.661,0.144 -0.632,0.414 0.024,0.216 0.473,0.277 0.919,0.302 0.986,0.058 1.737,0.104 2.688,0.275 0.19,0.034 0.479,0.113 0.71,0.088 C 3.201,1.569 3.249,1.363 3.223,1.129 L 3.101,-0.006 3.147,-0.011 c 1.104,0.938 2.152,1.353 3.65,1.192 2.282,-0.246 3.789,-1.629 3.551,-3.844 L 9.983,-6.049 c -0.043,-0.397 0.307,-0.616 0.624,-0.705 0.363,-0.094 0.628,-0.232 0.599,-0.502 -0.019,-0.18 -0.146,-0.276 -0.561,-0.231 -0.784,0.084 -1.553,0.313 -2.336,0.397 -0.784,0.085 -1.584,0.025 -2.367,0.109 -0.323,0.035 -0.502,0.109 -0.477,0.343 0.03,0.27 0.318,0.349 0.693,0.363 0.443,0.007 0.67,0.165 0.713,0.561 l 0.384,3.566 C 7.36,-1.175 6.957,-0.148 5.32,0.028 3.684,0.204 3.072,-0.713 2.967,-1.686 L 2.629,-4.82 C 2.548,-5.577 2.988,-5.824 3.414,-5.98 3.864,-6.137 4.296,-6.239 4.267,-6.509 4.245,-6.707 4.074,-6.78 3.659,-6.735 c -0.853,0.092 -1.69,0.328 -2.543,0.42 -0.853,0.092 -1.722,0.039 -2.575,0.131 -0.415,0.045 -0.495,0.163 -0.476,0.343 0.029,0.27 0.317,0.348 0.692,0.363 0.329,0.019 0.671,0.164 0.714,0.561 z" />
          </g>
        </g>
      </g>
    </g>
  </g>
</svg>
