<?xml version="1.0" encoding="UTF-8" standalone="no"?>
<!-- Created with Inkscape (http://www.inkscape.org/) -->

<svg
   xmlns:dc="http://purl.org/dc/elements/1.1/"
   xmlns:cc="http://creativecommons.org/ns#"
   xmlns:rdf="http://www.w3.org/1999/02/22-rdf-syntax-ns#"
   xmlns:svg="http://www.w3.org/2000/svg"
   xmlns="http://www.w3.org/2000/svg"
   xmlns:sodipodi="http://sodipodi.sourceforge.net/DTD/sodipodi-0.dtd"
   xmlns:inkscape="http://www.inkscape.org/namespaces/inkscape"
   width="18.151518mm"
   height="23.031153mm"
   viewBox="0 0 18.151518 23.031153"
   version="1.1"
   id="svg281907"
   inkscape:version="0.92.4 (unknown)"
   sodipodi:docname="heathdale-christian-college.svg">
  <defs
     id="defs281901">
    <clipPath
       id="clip3">
      <path
         id="path282233"
         d="m 331.80078,36 h 51.72656 v 65.28516 h -51.72656 z m 0,0"
         inkscape:connector-curvature="0" />
    </clipPath>
  </defs>
  <sodipodi:namedview
     id="base"
     pagecolor="#ffffff"
     bordercolor="#666666"
     borderopacity="1.0"
     inkscape:pageopacity="0.0"
     inkscape:pageshadow="2"
     inkscape:zoom="11.2"
     inkscape:cx="64.8749"
     inkscape:cy="46.458433"
     inkscape:document-units="mm"
     inkscape:current-layer="layer1"
     showgrid="false"
     fit-margin-top="0"
     fit-margin-left="0"
     fit-margin-right="0"
     fit-margin-bottom="0"
     inkscape:pagecheckerboard="true"
     inkscape:window-width="1920"
     inkscape:window-height="1009"
     inkscape:window-x="1920"
     inkscape:window-y="24"
     inkscape:window-maximized="1" />
  <metadata
     id="metadata281904">
    <rdf:RDF>
      <cc:Work
         rdf:about="">
        <dc:format>image/svg+xml</dc:format>
        <dc:type
           rdf:resource="http://purl.org/dc/dcmitype/StillImage" />
        <dc:title></dc:title>
      </cc:Work>
    </rdf:RDF>
  </metadata>
  <g
     inkscape:label="Layer 1"
     inkscape:groupmode="layer"
     id="layer1"
     transform="translate(-507.25497,6.3729409)">
    <g
       id="g287555">
      <g
         transform="matrix(0.35277778,0,0,0.35277778,390.1548,-19.072941)"
         id="g284710"
         clip-path="url(#clip3)"
         style="clip-rule:nonzero">
        <path
           id="path284706"
           d="m 357.66406,36 c 14.17188,0 25.72656,14.671875 25.72656,32.660156 0,17.988282 -11.55468,32.660154 -25.72656,32.660154 -14.16797,0 -25.72656,-14.671872 -25.72656,-32.660154 C 331.9375,50.671875 343.49609,36 357.66406,36"
           style="fill:#ffffff;fill-opacity:1;fill-rule:evenodd;stroke:none"
           inkscape:connector-curvature="0" />
        <path
           id="path284708"
           d="m 357.66406,36 c 14.17188,0 25.72656,14.671875 25.72656,32.660156 0,17.988282 -11.55468,32.660154 -25.72656,32.660154 -14.16797,0 -25.72656,-14.671872 -25.72656,-32.660154 C 331.9375,50.671875 343.49609,36 357.66406,36 m 0,2.398438 c 12.85938,0 23.34766,13.59375 23.34766,30.261718 0,16.667969 -10.48828,30.261719 -23.34766,30.261719 -12.85937,0 -23.34765,-13.59375 -23.34765,-30.261719 0,-16.667968 10.48828,-30.261718 23.34765,-30.261718"
           style="fill:#d11e0f;fill-opacity:1;fill-rule:evenodd;stroke:none"
           inkscape:connector-curvature="0" />
      </g>
      <path
         id="path284712"
         d="m 517.53101,-5.4152043 c 3.9839,0.755165 7.03763,5.21036238 7.03626,10.5640407 0,0.2094618 -0.007,0.4230578 -0.0179,0.6380318 l -2.7175,-0.00138 -10e-4,-4.5365018 c -0.0868,-2.8442709 -3.05511,-3.3693033 -4.141,-1.10794273 -0.0469,0.079926 -0.15434,0.0840602 -0.15848,0.0248038 z m 0,0"
         style="fill:#0a1e61;fill-opacity:1;fill-rule:evenodd;stroke:none;stroke-width:0.35277778"
         inkscape:connector-curvature="0" />
      <path
         id="path284714"
         d="m 517.53101,1.3220244 c 0.14469,-2.14836164 2.5535,-2.13595938 2.58244,0 v 4.4648438 h -2.58244 z m 0,0"
         style="fill:#0a1e61;fill-opacity:1;fill-rule:evenodd;stroke:none;stroke-width:0.35277778"
         inkscape:connector-curvature="0" />
      <path
         id="path284716"
         d="m 513.38724,6.6384956 c 0.12816,-0.3279729 0.38448,-0.7124456 0.50023,-1.0390406 0.26596,-0.4423502 0.24529,-1.364258 0.1943,-1.8465712 -0.0193,0 -0.14193,0.1694988 -0.15296,0.1846569 -0.23013,0.7027997 -0.48782,1.2429907 -1.10794,1.0858945 -0.24391,0.293522 -0.30179,0.2521807 -0.69729,0.2163519 -0.15985,0.079926 -0.28938,0.1088648 -0.4644,0.103353 -0.10611,-0.00413 -0.22737,-0.07717 -0.33762,-0.1143773 -0.0965,-0.031694 -0.19843,0.00551 -0.28111,-0.034452 -0.16261,-0.082682 -0.30593,-0.1088647 -0.42858,-0.07028 -0.15847,-0.1598524 -0.53881,-0.092329 -0.53881,-0.2163522 0.0758,-0.022049 0.1571,-0.1157549 0.37896,-0.2439127 0.0372,-0.022049 0.13367,-0.00964 0.17364,-0.034452 0.0496,-0.027562 0.0262,-0.07028 0.0772,-0.1019746 0.0882,-0.053744 0.17914,-0.015159 0.27147,-0.07028 0.0606,-0.037207 0.0468,-0.093707 0.10473,-0.1350479 0.10887,-0.074414 0.18741,-0.1502061 0.2825,-0.2025713 0.0689,-0.039963 0.16123,-0.059256 0.21084,-0.1005971 0.0813,-0.066146 0.12678,-0.2094618 0.1378,-0.2521807 0.38447,-0.050988 0.37345,-0.1488285 0.6463,-0.316949 0.113,-0.00138 0.25632,0.075792 0.34727,0.030318 0.19154,-0.093707 0.32246,-0.2673395 0.74827,0.00138 0,0.00827 0.0427,0.042719 0.0427,0.055122 0.16261,0.060634 0.40515,0.2177299 0.51125,0.1460719 0.0689,-0.019293 0.0675,-0.1047309 0.0441,-0.2508028 -0.0634,-0.4037651 -0.51952,-1.0982964 -0.5774,-1.4083552 -0.003,-0.049609 -0.17639,-0.092329 -0.24253,0.035829 -0.0524,0.1033526 -0.19017,0.2163519 -0.29077,0.3417534 -0.38309,0.055122 -0.4079,0.4230575 -0.76205,0.4010089 -0.18328,-0.00413 -0.16123,0.059256 -0.42857,0.1143772 -0.10887,0.022049 -0.16399,-0.020669 -0.23427,-0.017914 -0.0703,0.00138 -0.15434,0.046853 -0.22462,0.033073 -0.0951,-0.017914 -0.1447,-0.1019747 -0.22876,-0.1446939 -0.10197,0.020669 -0.14882,0.049609 -0.29352,0.030318 -0.14469,-0.019293 -0.3073,-0.07717 -0.39687,-0.2025717 -0.27836,0.035829 -0.4768,-0.1226453 -0.47267,-0.223242 -0.24253,-0.089572 -0.31419,-0.1254016 -0.34864,-0.3789606 -0.0799,0 -0.32108,-0.3389972 -0.32108,-0.4175453 0.14882,0.037207 0.31694,0.096463 0.44648,0.099219 0.0661,0.00138 0.0772,-0.053744 0.16536,-0.071658 0.12954,-0.00689 0.30317,0.033073 0.43271,0.030318 0.0372,-0.027563 0.04,-0.086817 0.13918,-0.095085 0.0758,-0.00689 0.23427,-0.00827 0.32797,-0.030318 0.0717,-0.017914 0.0937,-0.1061088 0.17363,-0.095085 0.15297,0.017914 0.3707,-0.013779 0.48645,-0.097841 0.13643,-0.033073 0.30041,0.027563 0.38999,0.011024 0.0978,-0.074414 0.15158,-0.071658 0.37482,-0.09095 -0.003,0.038585 0.13781,0.062012 0.19155,0.066146 0,0.00964 0.0469,0.067524 0.0469,0.078548 0.0386,0.015159 0.66972,0.4974717 0.85576,0.4643988 0.0565,-0.00964 0.0868,-0.075792 0.0138,-0.2218641 -0.0579,-0.1212674 -0.22324,-0.81579862 -0.22738,-0.81579862 -0.0317,-0.31970486 -0.20946,-0.2921441 -0.25631,-0.46026493 -0.13505,-0.023428 -0.22049,-0.21497361 -0.26872,-0.21497361 -0.0496,-0.08681649 -0.11851,-0.15847448 -0.14331,-0.22048611 -0.0951,-0.27009584 0.0441,-0.14056008 -0.0785,-0.41616772 0.01,-0.0316935 -0.0744,-0.13504756 -0.10335,-0.13918177 0.0441,-0.0606337 0.0331,-0.2025717 -0.0648,-0.23426667 0.051,-0.1033526 0.18741,-0.24391267 0.11162,-0.40789927 -0.0152,0 -0.062,-0.1267795 -0.0772,-0.1267795 -0.0166,-0.095085 -0.04,-0.2204862 0.0648,-0.2907662 0,-0.020669 0.04,-0.00551 0.04,-0.024804 0.0152,-0.00551 -0.006,-0.048231 0.0124,-0.052366 0.0124,-0.1998155 -0.008,-0.5319226 0.1695,-0.621495 0.022,-0.081304 0.1061,-0.1639866 0.14607,-0.2949003 0.0248,-0.082682 0.0248,-0.2508028 0.19016,-0.3293513 0.0648,-0.1047305 0.0772,-0.2576928 0.17088,-0.2921437 0.13092,-0.048231 0.20533,-0.1129993 0.25356,-0.2604495 0.0262,-0.2025714 0.15434,-0.2356443 0.29628,-0.2880099 0.0965,-0.035829 0.15434,-0.1763889 0.19706,-0.3224608 0.0289,-0.075792 0.0841,-0.096463 0.113,-0.1474501 0.0179,0.026183 0.0179,0.068902 0.0152,0.1446939 0.006,0.092329 0.0179,0.1005967 0.0427,0.3017904 0.062,0.023428 0.11024,0.057878 0.1254,0.1005967 0.0482,0.143316 -0.091,0.366558 0.19155,0.4781794 0.001,0.1763889 -0.0372,0.2783635 -0.007,0.396875 0.0165,0.067524 0.0772,0.1391818 0.1254,0.2315104 0.0262,0.1198891 -0.13092,0.2384005 -0.004,0.3748264 0.0744,0.1322917 0.0413,0.3128148 -0.0689,0.4864474 -0.0455,0.071658 0.0441,0.1281575 0.0234,0.2191082 -0.0331,0.1322916 -0.20808,0.2976562 -0.27147,0.3679362 -0.0275,0.09095 -0.0358,0.1887912 -0.0744,0.29214379 -0.0276,0.0744142 -0.12402,0.15158438 -0.15709,0.22875452 -0.0455,0.10473091 -0.004,0.23151042 -0.051,0.33348507 -0.0951,0.20946181 -0.33211,0.38447275 -0.45338,0.53605713 -0.17776,0.44786233 -0.0703,0.56499548 0.0317,1.02250419 0.091,0.2011937 0.17225,0.3596679 0.23289,0.4519965 0.3321,0 0.2508,-1.1038085 0.83922,-1.24299027 0.0468,-0.17914515 0.23978,-0.41754567 0.39274,-0.53054462 0.2012,0.002752 0.31144,-0.11713352 0.41204,-0.29490036 0.0455,-0.079926 0.18741,-0.0440972 0.28249,-0.0826823 0.0758,-0.25631528 0.34865,-0.25218108 0.58429,-0.25218108 0.19431,-0.12126736 0.34038,-0.30454637 0.5898,-0.30454637 0.21498,0.20670592 0.57602,-0.012404 0.87781,-0.00689 -0.20395,0.25907115 -0.3321,0.253559 -0.37345,0.6490557 -0.0703,0.11437726 -0.15158,0.13642587 -0.22599,0.25493733 -0.0152,0.21635191 -0.022,0.24115642 -0.0524,0.31970486 -0.19017,0.0771701 -0.13367,0.37069219 -0.28663,0.52503247 -0.51676,0.17363299 -0.56224,0.72346994 -1.19752,0.72346994 -0.22462,0.031694 -0.31695,0.068902 -0.48507,0.1791452 -0.26182,0.053744 -1.20164,-0.038585 -1.3298,0.2797415 0.20808,0.4878257 0.4203,1.0982967 0.71382,1.5806099 0.3197,-0.074414 0.25907,-0.2328884 0.34175,-0.5457032 0.10474,-0.024804 0.13229,-0.3706921 0.4644,-0.4258137 0.11163,-0.1874132 0.26183,-0.3100585 0.46716,-0.36518 0.12265,-0.034452 0.24942,-0.1639866 0.35829,-0.213596 0.22738,-0.2632054 0.52503,-0.3293512 0.87781,-0.356912 0.11713,-0.048231 0.47542,-0.1998154 0.6339,-0.1805231 -0.0276,0.1226457 -0.22187,0.2590715 -0.28664,0.3982533 0.001,0.1088648 0.0455,0.2563149 -0.0124,0.35829 -0.0661,0.1157552 -0.23702,0.1874131 -0.27699,0.3265949 -0.0799,0.2700955 -0.38723,0.4519965 -0.52365,0.6311417 -0.35554,0.052365 -0.36518,0.22462 -0.63114,0.3486436 -0.0992,0.00964 -0.29628,0.057877 -0.39137,0.07028 -0.40789,0.2935221 -0.73862,-0.075792 -1.02388,0.1254012 0.17088,0.9081273 -0.20119,1.9581926 -0.16536,2.3895184 -0.0827,0.033073 -0.69729,0.6187391 -0.70556,0.6325193"
         style="fill:#0a1e61;fill-opacity:1;fill-rule:evenodd;stroke:none;stroke-width:0.35277778"
         inkscape:connector-curvature="0" />
      <path
         id="path284718"
         d="m 509.74922,7.6692685 c -0.0152,0.3913625 -0.0152,0.7758353 0,1.1534179 -0.11713,0 -0.19568,0.00138 -0.23978,0.00551 -0.0427,0.00413 -0.0909,0.00827 -0.14055,0.016535 0.0648,-0.8199328 0.0799,-1.6136828 0.0427,-2.38125 0.18191,0.00689 0.30868,0 0.38034,-0.022049 -0.0289,0.4933375 -0.0427,0.8406031 -0.0427,1.0445528 h 1.04318 c 0.007,-0.1736326 0.011,-0.3610458 0.011,-0.5608616 0,-0.1998155 -0.007,-0.3569117 -0.022,-0.4726669 0.1819,0.022049 0.31143,0.017914 0.39136,-0.011024 -0.0579,0.7248479 -0.0799,1.5144641 -0.0648,2.3702257 -0.15296,-0.00689 -0.27561,0 -0.36931,0.022049 0.0207,-0.2618274 0.0386,-0.649056 0.0537,-1.1644422 z m 0,0"
         style="fill:#0a1e61;fill-opacity:1;fill-rule:nonzero;stroke:none;stroke-width:0.35277778"
         inkscape:connector-curvature="0" />
      <path
         id="path284720"
         d="m 512.35096,7.7450604 c 0,-0.3472656 -0.10473,-0.5222766 -0.31557,-0.5222766 -0.0868,0 -0.17639,0.053744 -0.26596,0.1584745 -0.091,0.1047309 -0.15021,0.2370226 -0.17915,0.396875 0.022,-0.00689 0.12265,-0.012404 0.30455,-0.016535 0.18052,-0.00413 0.33211,-0.00827 0.45613,-0.016535 m 0.21773,0.8157951 c -0.0661,0.095084 -0.16399,0.1653646 -0.29352,0.213596 -0.13092,0.046853 -0.24667,0.07028 -0.34865,0.07028 -0.17363,0 -0.32383,-0.062012 -0.45062,-0.1846573 -0.12677,-0.1240232 -0.19016,-0.3017904 -0.19016,-0.5346788 0,-0.2893878 0.0717,-0.5291666 0.21773,-0.7179578 0.14469,-0.1887911 0.32935,-0.2824977 0.55397,-0.2824977 0.19568,0 0.34451,0.068902 0.4451,0.2067055 0.10198,0.1378038 0.1447,0.3224611 0.13092,0.5539716 h -1.0542 v 0.1529619 c 0,0.057878 0.0152,0.1391822 0.0482,0.2439131 0.0331,0.1061088 0.0813,0.1887911 0.14745,0.2508027 0.0648,0.062012 0.1695,0.103353 0.31557,0.1254016 0.21635,0.013779 0.37207,-0.093707 0.46716,-0.325217 0,0.028938 10e-4,0.062012 0.005,0.097841 0.003,0.035829 0.005,0.060634 0.005,0.075792 z m 0,0"
         style="fill:#0a1e61;fill-opacity:1;fill-rule:nonzero;stroke:none;stroke-width:0.35277778"
         inkscape:connector-curvature="0" />
      <path
         id="path284722"
         d="M 513.52642,8.3224585 V 7.909047 c -0.10886,0 -0.22599,0.049609 -0.35277,0.1474502 -0.12816,0.097841 -0.19017,0.214974 -0.19017,0.3527778 0,0.1088651 0.0441,0.1874132 0.13505,0.2342663 0.091,0.046853 0.1819,0.041341 0.27285,-0.016535 0.0896,-0.057877 0.13504,-0.1598524 0.13504,-0.3045464 m 0.022,0.5112523 c 0,-0.022049 -10e-4,-0.044097 -0.005,-0.066146 -0.003,-0.022049 -0.007,-0.044097 -0.01,-0.064768 -0.004,-0.022049 -0.01,-0.044097 -0.0165,-0.066146 -0.17501,0.1460722 -0.33349,0.2149739 -0.47818,0.2080838 -0.24667,0.01378 -0.37069,-0.1088651 -0.37069,-0.3706922 0,-0.3252173 0.28663,-0.5470814 0.85989,-0.6628366 V 7.4970153 c 0,-0.1240233 -0.0441,-0.2067056 -0.13091,-0.2508028 -0.0868,-0.042719 -0.17226,-0.031694 -0.25494,0.033073 -0.0841,0.064768 -0.1254,0.1626083 -0.1254,0.2935221 -0.073,0 -0.17501,0.00827 -0.30455,0.022049 0.022,-0.1515844 0.0937,-0.2700955 0.21774,-0.3527778 0.12264,-0.08406 0.26458,-0.1254016 0.42305,-0.1254016 0.13092,0 0.24116,0.034452 0.33211,0.103353 0.091,0.068902 0.13229,0.1681205 0.1254,0.2990342 0,0.2163522 0.003,0.4809356 0.011,0.792372 0.007,0.3114365 0.0138,0.4781794 0.0207,0.500228 -0.10748,0 -0.2067,0.00689 -0.29352,0.022049"
         style="fill:#0a1e61;fill-opacity:1;fill-rule:nonzero;stroke:none;stroke-width:0.35277778"
         inkscape:connector-curvature="0" />
      <path
         id="path284724"
         d="m 514.36979,8.5181401 c 0,0.151584 0.13091,0.1998154 0.39136,0.1419376 -0.0138,0.057878 -0.0221,0.1005971 -0.0221,0.1295358 -0.11575,0.022049 -0.24943,0.039963 -0.40239,0.055122 -0.18052,-0.015159 -0.27009,-0.1088651 -0.27009,-0.2824977 0,-0.2259986 0.001,-0.4354604 0.006,-0.6311417 0.003,-0.1970595 0.005,-0.3775826 0.005,-0.5443251 -0.0303,-0.00689 -0.0606,-0.011024 -0.0923,-0.011024 h -0.10335 l -0.0413,-0.082682 c 0.19844,-0.086816 0.34864,-0.2439127 0.4644,-0.5264105 0.0207,0 0.0413,-0.00138 0.0593,-0.00551 0.0179,-0.00413 0.0345,-0.00551 0.0482,-0.00551 -0.0138,0.1309137 -0.0207,0.2521811 -0.0207,0.3610458 0.0717,0.013779 0.19155,0.00689 0.35829,-0.022049 v 0.2811198 c -0.0579,-0.00689 -0.18465,-0.011024 -0.38034,-0.011024 z m 0,0"
         style="fill:#0a1e61;fill-opacity:1;fill-rule:nonzero;stroke:none;stroke-width:0.35277778"
         inkscape:connector-curvature="0" />
      <path
         id="path284726"
         d="m 515.80984,8.844735 c 0.022,-0.079926 0.0331,-0.2893882 0.0331,-0.6311416 V 7.5728057 c 0,-0.1088651 -0.0565,-0.1846573 -0.16812,-0.2273762 -0.113,-0.044097 -0.22462,-0.035829 -0.33762,0.026183 -0.11162,0.062012 -0.16812,0.1584742 -0.16812,0.2880099 -0.0152,0.6159832 -0.011,1.0073457 0.01,1.1740886 -0.10059,-0.015159 -0.22048,-0.011024 -0.35829,0.011024 0.0799,-0.8709201 0.10198,-1.6977431 0.0648,-2.4804688 0.17501,0.00689 0.28664,0.00413 0.33762,-0.011024 -0.0221,0.1309134 -0.04,0.4575087 -0.0537,0.9797849 0.20257,-0.1446939 0.37345,-0.2204861 0.50987,-0.2273762 0.14607,0 0.25907,0.035829 0.34313,0.1088651 0.0827,0.071658 0.12403,0.1626083 0.12403,0.2714735 0,0.8764323 0.004,1.3215387 0.011,1.3366972 h -0.17363 c -0.0579,0 -0.11576,0.00689 -0.17363,0.022049"
         style="fill:#0a1e61;fill-opacity:1;fill-rule:nonzero;stroke:none;stroke-width:0.35277778"
         inkscape:connector-curvature="0" />
      <path
         id="path284728"
         d="m 517.40285,7.5507571 c 0,-0.1157552 -0.0648,-0.2039497 -0.19568,-0.2659613 -0.12954,-0.062012 -0.2577,-0.038585 -0.38034,0.07028 -0.12265,0.1088651 -0.18879,0.315571 -0.19569,0.6201174 0,0.2756076 0.0606,0.4561307 0.17915,0.5429472 0.11989,0.088194 0.2508,0.1074868 0.39274,0.060633 0.14056,-0.048231 0.21084,-0.096462 0.21084,-0.1474498 0.0221,-0.3114368 0.0179,-0.6049589 -0.011,-0.8805665 m -0.45475,1.2939779 c -0.20395,0 -0.35967,-0.074414 -0.46853,-0.2232423 -0.10887,-0.1488281 -0.16261,-0.3169486 -0.16261,-0.5057401 0,-0.3321071 0.0744,-0.5842882 0.22324,-0.7551646 0.14883,-0.1694988 0.31695,-0.2549373 0.50574,-0.2549373 0.12954,0 0.26045,0.060634 0.39137,0.1832789 0,-0.3265949 -0.004,-0.587044 -0.011,-0.7827256 l 0.33762,-0.020669 c -0.051,1.1520399 -0.0593,1.9278752 -0.022,2.3261285 -0.0951,-0.01378 -0.20257,-0.00413 -0.3266,0.033073 V 8.5953113 c -0.19568,0.1667425 -0.35139,0.2494248 -0.46715,0.2494248"
         style="fill:#0a1e61;fill-opacity:1;fill-rule:nonzero;stroke:none;stroke-width:0.35277778"
         inkscape:connector-curvature="0" />
      <path
         id="path284730"
         d="M 518.75057,8.3224585 V 7.909047 c -0.10887,0 -0.22738,0.049609 -0.35416,0.1474502 -0.12677,0.097841 -0.19017,0.214974 -0.19017,0.3527778 0,0.1088651 0.0455,0.1874132 0.13643,0.2342663 0.091,0.046853 0.18052,0.041341 0.27147,-0.016535 0.091,-0.057877 0.13643,-0.1598524 0.13643,-0.3045464 m 0.022,0.5112523 c 0,-0.022049 -10e-4,-0.044097 -0.005,-0.066146 -0.004,-0.022049 -0.007,-0.044097 -0.011,-0.064768 -0.004,-0.022049 -0.008,-0.044097 -0.0166,-0.066146 -0.17363,0.1460722 -0.33348,0.2149739 -0.47818,0.2080838 -0.24667,0.01378 -0.38309,-0.1088651 -0.38309,-0.3706922 0,-0.3252173 0.30041,-0.5470814 0.8723,-0.6628366 V 7.4970153 c 0,-0.1240233 -0.0427,-0.2067056 -0.13092,-0.2508028 -0.0868,-0.042719 -0.17087,-0.031694 -0.25493,0.033073 -0.0841,0.064768 -0.12403,0.1626083 -0.12403,0.2935221 -0.073,0 -0.17501,0.00827 -0.30592,0.022049 0.0221,-0.1515844 0.0951,-0.2700955 0.21773,-0.3527778 0.12402,-0.08406 0.26458,-0.1254016 0.42443,-0.1254016 0.13092,0 0.24116,0.034452 0.33211,0.103353 0.0896,0.068902 0.13229,0.1681205 0.1254,0.2990342 0,0.2163522 0.003,0.4809356 0.01,0.792372 0.008,0.3114365 0.0358,0.4781794 0.0427,0.500228 -0.10886,0 -0.22737,0.00689 -0.31419,0.022049"
         style="fill:#0a1e61;fill-opacity:1;fill-rule:nonzero;stroke:none;stroke-width:0.35277778"
         inkscape:connector-curvature="0" />
      <path
         id="path284732"
         d="m 519.55396,7.2145158 c -0.0138,0.7689451 -0.007,1.2760632 0.0221,1.5875 -0.10886,-0.01378 -0.23151,-0.011024 -0.36931,0.011024 0.0358,-0.4203016 0.0579,-0.8433594 0.0648,-1.3366973 0.008,-0.4933375 -0.003,-0.8626517 -0.0317,-1.1093206 0.14469,0.01378 0.26734,0.011024 0.36931,-0.011024 -0.0221,0.1515844 -0.04,0.4382163 -0.0551,0.8585179"
         style="fill:#0a1e61;fill-opacity:1;fill-rule:nonzero;stroke:none;stroke-width:0.35277778"
         inkscape:connector-curvature="0" />
      <path
         id="path284734"
         d="m 520.74597,7.7450604 c 0,-0.3472656 -0.10473,-0.5222766 -0.31557,-0.5222766 -0.0868,0 -0.17501,0.053744 -0.26596,0.1584745 -0.091,0.1047309 -0.15021,0.2370226 -0.17915,0.396875 0.0221,-0.00689 0.12265,-0.012404 0.30455,-0.016535 0.18052,-0.00413 0.33348,-0.00827 0.45613,-0.016535 m 0.21773,0.8157986 c -0.0661,0.095085 -0.16399,0.1653646 -0.29353,0.213596 -0.13091,0.046853 -0.24666,0.07028 -0.34864,0.07028 -0.17363,0 -0.32384,-0.062012 -0.45062,-0.1846573 -0.12678,-0.1240233 -0.19016,-0.3017905 -0.19016,-0.5346788 0,-0.2893879 0.073,-0.5291667 0.21772,-0.7179579 0.1447,-0.1887911 0.32936,-0.2824977 0.55398,-0.2824977 0.19568,0 0.34451,0.068902 0.4451,0.2067055 0.10198,0.1378039 0.1447,0.3224612 0.13092,0.5539716 h -1.0542 v 0.152962 c 0,0.057878 0.0165,0.1391821 0.0482,0.243913 0.0331,0.1061088 0.0827,0.1887911 0.14745,0.2508028 0.0648,0.062012 0.17088,0.1033529 0.31557,0.1254015 0.21635,0.013779 0.37207,-0.093707 0.46715,-0.325217 0,0.028938 10e-4,0.062012 0.006,0.097841 0.003,0.035829 0.005,0.060634 0.005,0.075792 z m 0,0"
         style="fill:#0a1e61;fill-opacity:1;fill-rule:nonzero;stroke:none;stroke-width:0.35277778"
         inkscape:connector-curvature="0" />
      <path
         id="path284736"
         d="m 512.60452,11.219095 c -0.17501,0.04272 -0.32246,0.06477 -0.44648,0.06477 -0.39826,0 -0.71521,-0.111621 -0.95085,-0.336241 -0.23565,-0.225998 -0.35278,-0.508496 -0.35278,-0.848871 0,-0.3403759 0.11989,-0.6366538 0.3638,-0.8860787 0.24254,-0.2508031 0.55535,-0.3762047 0.93983,-0.3762047 0.18189,0 0.33761,0.026183 0.46853,0.07717 -0.0152,0.1598524 -0.0221,0.2549373 -0.0221,0.283876 -0.15985,-0.1240236 -0.3266,-0.1929253 -0.50023,-0.2067059 -0.20395,0 -0.39688,0.093707 -0.58291,0.2824978 -0.18466,0.1874132 -0.27699,0.467155 -0.27699,0.8364695 0,0.253559 0.0841,0.483691 0.25081,0.690397 0.16674,0.205328 0.40928,0.312815 0.7276,0.319705 0.15296,-0.0069 0.29766,-0.06477 0.43546,-0.172255 -0.0358,0.180523 -0.0537,0.271474 -0.0537,0.271474"
         style="fill:#0a1e61;fill-opacity:1;fill-rule:nonzero;stroke:none;stroke-width:0.35277778"
         inkscape:connector-curvature="0" />
      <path
         id="path284738"
         d="m 513.75794,11.283862 c 0.022,-0.07993 0.0317,-0.289387 0.0317,-0.629763 v -0.640788 c 0,-0.1088647 -0.0551,-0.1860348 -0.16812,-0.2287541 -0.11162,-0.044097 -0.22462,-0.034452 -0.33624,0.027563 -0.113,0.060634 -0.1695,0.1570965 -0.1695,0.2880091 -0.0138,0.615984 -0.011,1.005968 0.011,1.172711 -0.10197,-0.01378 -0.22048,0.124024 -0.35828,0.144694 0.0799,-0.869542 0.10197,-1.8741313 0.0648,-2.656857 0.17364,0.00689 0.28663,0.00413 0.33762,-0.011024 -0.0221,0.1309133 -0.04,0.5002276 -0.0551,1.0225041 0.20395,-0.1433159 0.37345,-0.2204861 0.51125,-0.2273762 0.1447,0 0.25907,0.037207 0.34176,0.1088651 0.0841,0.073036 0.1254,0.1626084 0.1254,0.2714735 0,0.8764325 0.003,1.3229165 0.011,1.3380755 h -0.17364 c -0.0579,0 -0.11575,0.0069 -0.17363,0.02067"
         style="fill:#0a1e61;fill-opacity:1;fill-rule:nonzero;stroke:none;stroke-width:0.35277778"
         inkscape:connector-curvature="0" />
      <path
         id="path284740"
         d="m 515.24208,9.8975562 c -0.0441,-0.01378 -0.15571,-0.038585 -0.19981,-0.038585 -0.15159,0 -0.26183,0.071658 -0.33073,0.2122178 -0.0689,0.141938 -0.10335,0.28801 -0.10335,0.440972 0,0.384473 0.007,0.633898 0.0207,0.749653 -0.18741,0 -0.30455,-0.01378 -0.34864,0 0.0441,-0.253559 0.0717,-0.529167 0.0827,-0.869542 0.011,-0.341753 -10e-4,-0.6132272 -0.0372,-0.8171769 0.0648,0.00827 0.16674,0.00413 0.30317,-0.011024 -0.0289,0.3775827 -0.0427,0.5691299 -0.0427,0.5773979 0.0221,-0.05099 0.051,-0.118512 0.0868,-0.2011932 0.0358,-0.084061 0.0868,-0.1639866 0.15296,-0.2397788 0.0648,-0.075792 0.15158,-0.1143773 0.26045,-0.1143773 l 0.18603,-0.00275 c -0.007,0.088194 -0.0303,0.2053276 -0.0303,0.3141927"
         style="fill:#0a1e61;fill-opacity:1;fill-rule:nonzero;stroke:none;stroke-width:0.35277778"
         inkscape:connector-curvature="0" />
      <path
         id="path284742"
         d="m 515.3854,8.9356854 c 0.0496,0 0.0937,0.017914 0.12953,0.053744 0.0372,0.035829 0.0551,0.079926 0.0551,0.1309137 0,0.1157552 -0.062,0.1736326 -0.18466,0.1736326 -0.11576,0 -0.17363,-0.057877 -0.17363,-0.1736326 0,-0.1240236 0.0579,-0.1846573 0.17363,-0.1846573 m -0.17363,0.642166 c 0.0716,0.015159 0.18741,0.00689 0.34726,-0.022049 -0.0648,0.7179582 -0.0648,1.2870872 0,1.7073892 -0.0799,-0.01516 -0.20257,-0.0083 -0.36931,0.02067 0.0289,-0.195681 0.0469,-0.485069 0.0537,-0.869541 0.008,-0.383095 -0.003,-0.6628371 -0.0317,-0.8364697"
         style="fill:#0a1e61;fill-opacity:1;fill-rule:nonzero;stroke:none;stroke-width:0.35277778"
         inkscape:connector-curvature="0" />
      <path
         id="path284744"
         d="m 516.17088,10.217261 c 0.20257,0.09508 0.34451,0.176389 0.42857,0.245291 0.0827,0.0689 0.12402,0.172255 0.12402,0.310058 0,0.137804 -0.0648,0.257693 -0.19568,0.359668 -0.12953,0.100597 -0.27836,0.151584 -0.44648,0.151584 -0.0427,0 -0.11851,-0.01653 -0.22738,-0.04961 -0.10886,-0.03169 -0.17088,-0.04823 -0.18466,-0.04823 l -0.0303,-0.332107 c 0.0152,0.0069 0.0772,0.0565 0.12816,0.114377 0.051,0.05788 0.11024,0.104731 0.17915,0.14056 0.0689,0.03721 0.14331,0.05512 0.22324,0.05512 0.19706,0 0.2949,-0.09508 0.2949,-0.282498 0,-0.108865 -0.11989,-0.221864 -0.35967,-0.337619 -0.15985,-0.07993 -0.2701,-0.155718 -0.33211,-0.228754 -0.062,-0.07166 -0.0923,-0.173633 -0.0923,-0.304547 0,-0.1378036 0.0593,-0.2508026 0.17915,-0.3376191 0.11989,-0.086817 0.2632,-0.1309137 0.42995,-0.1309137 0.0868,0 0.15434,0.00551 0.20119,0.016535 0.0469,0.011024 0.0992,0.024804 0.1571,0.038585 v 0.3155706 c 0,-0.035829 -0.0413,-0.088194 -0.12403,-0.1570962 -0.0841,-0.068902 -0.18327,-0.1033529 -0.29903,-0.1033529 -0.0868,0 -0.15985,0.024804 -0.21773,0.075792 -0.0579,0.050987 -0.0868,0.1198894 -0.0868,0.2067055 0,0.1019748 0.0841,0.1956818 0.25081,0.2824978"
         style="fill:#0a1e61;fill-opacity:1;fill-rule:nonzero;stroke:none;stroke-width:0.35277778"
         inkscape:connector-curvature="0" />
      <path
         id="path284746"
         d="m 517.2237,10.957268 c 0,0.152962 0.13643,0.205327 0.43546,0.128157 -0.0179,0.0041 0.007,0.03445 0.003,0.05237 -0.0124,0.04134 -0.0358,0.08957 -0.0358,0.110243 -0.11576,0.02067 -0.27561,0.03721 -0.43546,0.03583 -0.18053,-0.0014 -0.2701,-0.108864 -0.2701,-0.282497 0,-0.224621 10e-4,-0.43546 0.006,-0.631142 0.003,-0.195681 0.005,-0.3775822 0.005,-0.5443248 -0.0303,-0.00689 -0.0606,-0.00964 -0.0937,-0.00964 h -0.10197 v -0.07717 c 0.16536,-0.073036 0.3073,-0.2494249 0.42305,-0.5333009 0.0207,0 0.0413,-0.00138 0.0593,-0.00551 0.0179,-0.00275 0.0344,-0.00551 0.0482,-0.00551 -0.0138,0.1322916 -0.0207,0.252181 -0.0207,0.3610461 0.0717,0.015159 0.19155,0.00689 0.43133,-0.00689 l 0.0427,0.283876 c -0.13091,-0.022049 -0.30041,-0.027563 -0.49609,-0.027563 z m 0,0"
         style="fill:#0a1e61;fill-opacity:1;fill-rule:nonzero;stroke:none;stroke-width:0.35277778"
         inkscape:connector-curvature="0" />
      <path
         id="path284748"
         d="m 517.67708,9.5489123 c 0.0716,0.01378 0.15985,0 0.31832,-0.028938 -0.0648,0.7165797 -0.0648,1.2857087 0,1.7060107 -0.0799,-0.01378 -0.20257,-0.0069 -0.36793,0.02205 0.0289,-0.195682 0.0468,-0.486448 0.0537,-0.869542 0.007,-0.3858505 0.0248,-0.6573239 -0.004,-0.8295789"
         style="fill:#0a1e61;fill-opacity:1;fill-rule:nonzero;stroke:none;stroke-width:0.35277778"
         inkscape:connector-curvature="0" />
      <path
         id="path284750"
         d="m 518.99724,10.762964 v -0.413411 c -0.10887,0 -0.22738,0.04823 -0.35416,0.146072 -0.12678,0.09784 -0.19017,0.216352 -0.19017,0.354155 0,0.108865 0.0455,0.186036 0.13643,0.232889 0.091,0.04823 0.18052,0.04272 0.27147,-0.01653 0.091,-0.0565 0.13643,-0.158474 0.13643,-0.303168 m 0.022,0.509874 c 0,-0.02205 -10e-4,-0.04272 -0.006,-0.06477 -0.004,-0.02205 -0.007,-0.0441 -0.011,-0.06614 -0.004,-0.02205 -0.008,-0.0441 -0.0166,-0.06615 -0.17363,0.146072 -0.33349,0.214973 -0.47818,0.208083 -0.24667,0.01516 -0.36931,-0.108865 -0.36931,-0.369314 0,-0.326595 0.28663,-0.547081 0.85852,-0.662836 V 9.9361431 c 0,-0.1226457 -0.0427,-0.2067059 -0.13092,-0.2494249 -0.0868,-0.044097 -0.17087,-0.033073 -0.25493,0.031694 -0.0827,0.066146 -0.12541,0.1639866 -0.12541,0.2948998 -0.0717,0 -0.17363,0.0069 -0.30454,0.02067 0.0221,-0.1515832 0.0951,-0.2687164 0.21773,-0.352777 0.12402,-0.082682 0.26458,-0.1254012 0.42443,-0.1254012 0.13092,0 0.24116,0.034452 0.33211,0.1033526 0.0896,0.068902 0.13229,0.1681208 0.12402,0.2990346 0,0.217729 0.004,0.482313 0.011,0.79375 0.008,0.311436 0.0593,0.478179 0.0661,0.498849 -0.10887,0 -0.25081,0.0083 -0.33762,0.02205"
         style="fill:#0a1e61;fill-opacity:1;fill-rule:nonzero;stroke:none;stroke-width:0.35277778"
         inkscape:connector-curvature="0" />
      <path
         id="path284752"
         d="m 520.4552,11.261814 c 0.0289,-0.100597 0.0441,-0.296278 0.0441,-0.585666 v -0.673861 c 0,-0.117133 -0.0579,-0.1984374 -0.17363,-0.2452908 -0.11714,-0.046853 -0.23289,-0.037207 -0.34865,0.027563 -0.11575,0.064768 -0.17363,0.1708767 -0.17363,0.3155708 0,0.644923 0.007,1.028017 0.022,1.150662 -0.10887,-0.0069 -0.23289,0 -0.37069,0.02205 0.0661,-0.811664 0.0661,-1.3876848 0,-1.7280603 0.13091,0.015159 0.23978,0.00689 0.32659,-0.022049 -0.007,0.095085 -0.003,0.1915471 0.011,0.2935221 0.13091,-0.1956813 0.3073,-0.2935221 0.5333,-0.2935221 0.32522,0 0.48782,0.1350476 0.48782,0.4023872 0,0.2687171 -10e-4,0.5236541 -0.006,0.7661891 -0.004,0.242535 -10e-4,0.425814 0.006,0.548459 -0.16674,0 -0.28525,0.0083 -0.35828,0.02205"
         style="fill:#0a1e61;fill-opacity:1;fill-rule:nonzero;stroke:none;stroke-width:0.35277778"
         inkscape:connector-curvature="0" />
      <path
         id="path284754"
         d="m 513.83511,13.625149 c -0.17363,0.0441 -0.32246,0.06615 -0.44511,0.06615 -0.39825,0 -0.71658,-0.112999 -0.95085,-0.337619 -0.23564,-0.22462 -0.35415,-0.507118 -0.35415,-0.848871 0,-0.340376 0.12264,-0.635276 0.3638,-0.886079 0.24391,-0.249425 0.55673,-0.374827 0.9412,-0.374827 0.18052,0 0.33762,0.02618 0.46715,0.07579 -0.0138,0.159852 -0.022,0.254937 -0.022,0.283875 -0.15848,-0.122645 -0.32522,-0.192925 -0.50023,-0.206705 -0.20257,0 -0.39688,0.09371 -0.58153,0.282498 -0.18466,0.188791 -0.27699,0.467155 -0.27699,0.836469 0,0.253559 0.0841,0.483691 0.2508,0.690397 0.16674,0.206706 0.40928,0.312815 0.72761,0.319705 0.15296,-0.0069 0.29765,-0.06339 0.43546,-0.170877 -0.0358,0.180523 -0.0551,0.270095 -0.0551,0.270095"
         style="fill:#0a1e61;fill-opacity:1;fill-rule:nonzero;stroke:none;stroke-width:0.35277778"
         inkscape:connector-curvature="0" />
      <path
         id="path284756"
         d="m 514.96096,12.831399 c 0,-0.508496 -0.14607,-0.762055 -0.43546,-0.762055 -0.28387,0 -0.42581,0.228755 -0.42581,0.684885 0,0.544326 0.14194,0.815799 0.42581,0.815799 0.28939,0 0.43546,-0.245291 0.43546,-0.738629 m 0.30317,-0.0441 c 0,0.282498 -0.0703,0.504362 -0.21222,0.664214 -0.14056,0.159853 -0.32384,0.239779 -0.54846,0.239779 -0.21083,0 -0.38309,-0.07441 -0.51676,-0.223242 -0.13367,-0.148828 -0.20119,-0.361046 -0.20119,-0.636654 0,-0.261827 0.0675,-0.474045 0.20119,-0.636653 0.13367,-0.163987 0.31695,-0.245291 0.54846,-0.245291 0.20395,0 0.3762,0.06477 0.51676,0.195682 0.14194,0.130913 0.21222,0.344509 0.21222,0.642165"
         style="fill:#0a1e61;fill-opacity:1;fill-rule:nonzero;stroke:none;stroke-width:0.35277778"
         inkscape:connector-curvature="0" />
      <path
         id="path284758"
         d="m 515.72578,12.081747 c -0.0138,0.768945 -0.007,1.263661 0.022,1.575097 -0.10748,-0.01516 -0.23151,-0.01102 -0.36931,0.01103 0.0358,-0.420302 0.0579,-0.788238 0.0648,-1.281576 0.008,-0.493337 -0.003,-0.906749 -0.0317,-1.153418 0.0717,0.0083 0.1447,-0.0689 0.20533,-0.07028 0.062,-0.0028 0.11162,0.05788 0.16261,0.04685 -0.0221,0.152962 -0.0386,0.451996 -0.0537,0.872298"
         style="fill:#0a1e61;fill-opacity:1;fill-rule:nonzero;stroke:none;stroke-width:0.35277778"
         inkscape:connector-curvature="0" />
      <path
         id="path284760"
         d="m 516.40928,12.125844 c -0.0138,0.767567 -0.007,1.219564 0.0221,1.531 -0.10887,-0.01516 -0.23151,-0.01102 -0.36931,0.01103 0.0358,-0.42168 0.0579,-0.788238 0.0648,-1.281576 0.007,-0.493337 -0.003,-0.906749 -0.0317,-1.153418 0.1447,0.01516 0.26734,-0.03307 0.36932,-0.05512 -0.0221,0.151584 -0.04,0.52641 -0.0551,0.94809"
         style="fill:#0a1e61;fill-opacity:1;fill-rule:nonzero;stroke:none;stroke-width:0.35277778"
         inkscape:connector-curvature="0" />
      <path
         id="path284762"
         d="m 517.62747,12.591621 c 0,-0.347266 -0.10473,-0.522277 -0.31557,-0.522277 -0.0868,0 -0.17501,0.05237 -0.26596,0.158475 -0.091,0.104731 -0.15021,0.237022 -0.17915,0.396875 0.022,-0.0069 0.12265,-0.0124 0.30455,-0.01653 0.18052,-0.0041 0.33348,-0.0083 0.45613,-0.01654 m 0.21773,0.815798 c -0.0661,0.09508 -0.16261,0.165365 -0.29352,0.212218 -0.13092,0.04823 -0.24667,0.07166 -0.34865,0.07166 -0.17363,0 -0.32384,-0.06201 -0.45062,-0.186035 -0.12678,-0.122645 -0.19017,-0.300412 -0.19017,-0.5333 0,-0.289389 0.073,-0.529167 0.21773,-0.717959 0.1447,-0.188791 0.32935,-0.282497 0.55397,-0.282497 0.19569,0 0.34451,0.0689 0.44511,0.206706 0.10198,0.137803 0.14607,0.32246 0.13091,0.553971 h -1.05419 v 0.152962 c 0,0.05788 0.0165,0.139182 0.0496,0.243913 0.0317,0.106109 0.0813,0.188791 0.14607,0.250803 0.0648,0.06201 0.17088,0.103352 0.31557,0.125401 0.21773,0.01378 0.37207,-0.09371 0.46715,-0.325217 0,0.02894 10e-4,0.06201 0.006,0.09784 0.004,0.03583 0.005,0.06063 0.005,0.07579 z m 0,0"
         style="fill:#0a1e61;fill-opacity:1;fill-rule:nonzero;stroke:none;stroke-width:0.35277778"
         inkscape:connector-curvature="0" />
      <path
         id="path284764"
         d="m 519.08681,13.352298 v -0.260449 c 0.0138,-0.644922 -0.10886,-0.967383 -0.36931,-0.967383 -0.0951,0 -0.18604,0.05099 -0.27286,0.151584 -0.0868,0.101975 -0.12953,0.253559 -0.12953,0.457509 0,0.49885 0.15847,0.749652 0.47818,0.749652 0.14469,0 0.24253,-0.0441 0.29352,-0.130913 m 0.0221,-1.15204 c 0.008,-0.01378 0.0138,-0.04134 0.0165,-0.0813 0.004,-0.03996 0.006,-0.07441 0.006,-0.104731 0.15158,0 0.25356,-0.0069 0.30454,-0.02067 -0.0289,0.166742 -0.0441,0.746897 -0.0441,1.740462 0,0.414789 -0.24529,0.621495 -0.73863,0.621495 -0.21084,0 -0.40239,-0.0441 -0.57602,-0.132292 0.007,-0.05788 0.0152,-0.124023 0.0262,-0.201193 0.011,-0.07579 0.0165,-0.139182 0.0165,-0.190169 0.14469,0.253559 0.33073,0.381716 0.55397,0.381716 0.17501,0 0.29766,-0.06615 0.3707,-0.197059 0.0289,-0.05099 0.0427,-0.221864 0.0427,-0.511253 -0.0868,0.115756 -0.23564,0.175011 -0.4451,0.175011 -0.17363,0 -0.32108,-0.07166 -0.44098,-0.212217 -0.1185,-0.141938 -0.17914,-0.332108 -0.17914,-0.571886 0,-0.268718 0.062,-0.486448 0.18466,-0.653191 0.12402,-0.166742 0.29076,-0.249424 0.50023,-0.249424 0.15985,0 0.29352,0.0689 0.40238,0.206706"
         style="fill:#0a1e61;fill-opacity:1;fill-rule:nonzero;stroke:none;stroke-width:0.35277778"
         inkscape:connector-curvature="0" />
      <path
         id="path284766"
         d="m 520.6123,12.591621 c 0,-0.347266 -0.10473,-0.522277 -0.31419,-0.522277 -0.0868,0 -0.17639,0.05237 -0.26597,0.158475 -0.091,0.104731 -0.15158,0.237022 -0.18052,0.396875 0.022,-0.0069 0.12402,-0.0124 0.30455,-0.01653 0.1819,-0.0041 0.33348,-0.0083 0.45613,-0.01654 m 0.21773,0.815798 c -0.0648,0.09508 -0.16261,0.165365 -0.29352,0.212218 -0.12954,0.04823 -0.24667,0.07166 -0.34727,0.07166 -0.17363,0 -0.32522,-0.06201 -0.45062,-0.186035 -0.12815,-0.122645 -0.19154,-0.300412 -0.19154,-0.5333 0,-0.289389 0.073,-0.529167 0.21773,-0.717959 0.14469,-0.188791 0.32935,-0.282497 0.55397,-0.282497 0.19705,0 0.34451,0.0689 0.44648,0.206706 0.10198,0.137803 0.14469,0.32246 0.12954,0.553971 h -1.0542 v 0.152962 c 0,0.05788 0.0165,0.139182 0.0496,0.243913 0.0317,0.106109 0.0813,0.188791 0.14607,0.250803 0.0661,0.06201 0.17087,0.103352 0.31557,0.125401 0.21773,0.01378 0.37345,-0.09371 0.46715,-0.325217 0,0.02894 0.003,0.06201 0.006,0.09784 0.004,0.03583 0.005,0.06063 0.005,0.07579 z m 0,0"
         style="fill:#0a1e61;fill-opacity:1;fill-rule:nonzero;stroke:none;stroke-width:0.35277778"
         inkscape:connector-curvature="0" />
    </g>
  </g>
</svg>
