<?xml version="1.0" encoding="UTF-8" standalone="no"?>
<svg
   xmlns:dc="http://purl.org/dc/elements/1.1/"
   xmlns:cc="http://creativecommons.org/ns#"
   xmlns:rdf="http://www.w3.org/1999/02/22-rdf-syntax-ns#"
   xmlns:svg="http://www.w3.org/2000/svg"
   xmlns="http://www.w3.org/2000/svg"
   xmlns:xlink="http://www.w3.org/1999/xlink"
   xmlns:sodipodi="http://sodipodi.sourceforge.net/DTD/sodipodi-0.dtd"
   xmlns:inkscape="http://www.inkscape.org/namespaces/inkscape"
   viewBox="0 0 306.78 306.78"
   version="1.1"
   id="svg308"
   sodipodi:docname="hillcrest-christian-college-full.svg"
   inkscape:version="1.0.1 (3bc2e813f5, 2020-09-07)"
   width="306.78"
   height="306.78">
  <metadata
     id="metadata312">
    <rdf:RDF>
      <cc:Work
         rdf:about="">
        <dc:format>image/svg+xml</dc:format>
        <dc:type
           rdf:resource="http://purl.org/dc/dcmitype/StillImage" />
        <dc:title>hc-logo</dc:title>
      </cc:Work>
    </rdf:RDF>
  </metadata>
  <sodipodi:namedview
     pagecolor="#ffffff"
     bordercolor="#666666"
     borderopacity="1"
     objecttolerance="10"
     gridtolerance="10"
     guidetolerance="10"
     inkscape:pageopacity="0"
     inkscape:pageshadow="2"
     inkscape:window-width="1920"
     inkscape:window-height="1000"
     id="namedview310"
     showgrid="false"
     inkscape:zoom="0.73861976"
     inkscape:cx="380.38594"
     inkscape:cy="42.303959"
     inkscape:window-x="1920"
     inkscape:window-y="0"
     inkscape:window-maximized="1"
     inkscape:current-layer="Layer_1-2"
     inkscape:document-rotation="0" />
  <defs
     id="defs76">
    <style
       id="style2">.cls-1,.cls-2,.cls-3{fill:#85754e;}.cls-2,.cls-3,.cls-4{fill-rule:evenodd;}.cls-2{opacity:0.25;}.cls-4{fill:url(#linear-gradient);}.cls-5{fill:url(#linear-gradient-2);}.cls-6{fill:url(#linear-gradient-3);}.cls-7{fill:url(#linear-gradient-4);}.cls-8{fill:url(#linear-gradient-5);}.cls-9{fill:url(#linear-gradient-6);}.cls-10{fill:url(#linear-gradient-7);}.cls-11{fill:url(#linear-gradient-8);}.cls-12{fill:url(#linear-gradient-9);}.cls-13{fill:url(#linear-gradient-10);}.cls-14{fill:url(#linear-gradient-11);}.cls-15{fill:url(#linear-gradient-12);}.cls-16{fill:url(#linear-gradient-13);}.cls-17{fill:url(#linear-gradient-14);}.cls-18{fill:url(#linear-gradient-15);}.cls-19{fill:url(#linear-gradient-16);}.cls-20{fill:url(#linear-gradient-17);}.cls-21{fill:url(#linear-gradient-18);}.cls-22{fill:url(#linear-gradient-19);}.cls-23{fill:url(#linear-gradient-20);}.cls-24{fill:url(#linear-gradient-21);}.cls-25{fill:url(#linear-gradient-22);}.cls-26{fill:url(#linear-gradient-23);}.cls-27{fill:url(#linear-gradient-24);}.cls-28{fill:url(#linear-gradient-25);}.cls-29{fill:url(#linear-gradient-26);}.cls-30{fill:url(#linear-gradient-27);}.cls-31{fill:url(#linear-gradient-28);}.cls-32{fill:url(#linear-gradient-29);}.cls-33{fill:url(#linear-gradient-30);}.cls-34{fill:url(#linear-gradient-31);}.cls-35{fill:url(#linear-gradient-32);}.cls-36{fill:url(#linear-gradient-33);}.cls-37{fill:url(#linear-gradient-34);}.cls-38{fill:url(#linear-gradient-35);}.cls-39{fill:url(#linear-gradient-36);}.cls-40{fill:url(#linear-gradient-37);}.cls-41{fill:url(#linear-gradient-38);}.cls-42{fill:url(#linear-gradient-39);}.cls-43{fill:url(#linear-gradient-40);}.cls-44{fill:url(#linear-gradient-41);}.cls-45{fill:url(#linear-gradient-42);}.cls-46{fill:url(#linear-gradient-43);}.cls-47{fill:url(#linear-gradient-44);}.cls-48{fill:url(#linear-gradient-45);}.cls-49{fill:url(#linear-gradient-46);}.cls-50{fill:url(#linear-gradient-47);}.cls-51{fill:url(#linear-gradient-48);}.cls-52{fill:url(#linear-gradient-49);}.cls-53{fill:url(#linear-gradient-50);}.cls-54{fill:url(#linear-gradient-51);}.cls-55{fill:url(#linear-gradient-52);}.cls-56{fill:url(#linear-gradient-53);}.cls-57{fill:url(#linear-gradient-54);}.cls-58{fill:url(#linear-gradient-55);}.cls-59{fill:url(#linear-gradient-56);}.cls-60{fill:url(#linear-gradient-57);}.cls-61{fill:url(#linear-gradient-58);}.cls-62{fill:url(#linear-gradient-59);}.cls-63{fill:url(#linear-gradient-60);}.cls-64{fill:url(#linear-gradient-61);}.cls-65{fill:url(#linear-gradient-62);}.cls-66{fill:#fff;}</style>
    <linearGradient
       id="linear-gradient"
       x1="153.2"
       y1="307.29001"
       x2="153.2"
       y2="182.12"
       gradientUnits="userSpaceOnUse">
      <stop
         offset="0.05"
         stop-color="#fff"
         stop-opacity="0"
         id="stop4" />
      <stop
         offset="0.32"
         stop-color="#fff"
         stop-opacity="0"
         id="stop6" />
      <stop
         offset="1"
         stop-color="#85754e"
         id="stop8" />
    </linearGradient>
    <linearGradient
       id="linear-gradient-2"
       x1="157.07001"
       y1="113.07"
       x2="161.19"
       y2="245.98"
       gradientTransform="matrix(1,-0.02,0.02,1,-5.65,19.33)"
       gradientUnits="userSpaceOnUse">
      <stop
         offset="0"
         stop-color="#85754e"
         id="stop11" />
      <stop
         offset="1"
         stop-color="#ffd100"
         id="stop13" />
    </linearGradient>
    <linearGradient
       id="linear-gradient-3"
       x1="71.849998"
       y1="42.110001"
       x2="80.559998"
       y2="75.779999"
       xlink:href="#linear-gradient-2" />
    <linearGradient
       id="linear-gradient-4"
       x1="65.620003"
       y1="72.709999"
       x2="91.989998"
       y2="39.459999"
       xlink:href="#linear-gradient-2" />
    <linearGradient
       id="linear-gradient-5"
       x1="105.95"
       y1="393.89001"
       x2="113.53"
       y2="423.20999"
       gradientTransform="rotate(26.79,746.74911,184.89747)"
       xlink:href="#linear-gradient-2" />
    <linearGradient
       id="linear-gradient-6"
       x1="100.52"
       y1="420.54001"
       x2="123.5"
       y2="391.57001"
       gradientTransform="rotate(26.79,746.74911,184.89747)"
       xlink:href="#linear-gradient-2" />
    <linearGradient
       id="linear-gradient-7"
       x1="190.64"
       y1="-281.17001"
       x2="199.53999"
       y2="-246.71001"
       gradientTransform="matrix(0.84,-0.54,0.54,0.84,27.63,418.41)"
       xlink:href="#linear-gradient-2" />
    <linearGradient
       id="linear-gradient-8"
       x1="184.28"
       y1="-249.87"
       x2="211.22"
       y2="-283.82999"
       gradientTransform="matrix(0.84,-0.54,0.54,0.84,27.63,418.41)"
       xlink:href="#linear-gradient-2" />
    <linearGradient
       id="linear-gradient-9"
       x1="350.51001"
       y1="-407.10999"
       x2="359.94"
       y2="-370.66"
       gradientTransform="matrix(0.62,-0.8,0.79,0.61,128.71,642.71)"
       xlink:href="#linear-gradient-2" />
    <linearGradient
       id="linear-gradient-10"
       x1="343.79999"
       y1="-374.01001"
       x2="372.28"
       y2="-409.92001"
       gradientTransform="matrix(0.62,-0.8,0.79,0.61,128.71,642.71)"
       xlink:href="#linear-gradient-2" />
    <linearGradient
       id="linear-gradient-11"
       x1="1054.08"
       y1="685.16998"
       x2="1061.6899"
       y2="714.62"
       gradientTransform="matrix(-0.5,-0.88,-0.87,0.49,1211.32,711.22)"
       xlink:href="#linear-gradient-2" />
    <linearGradient
       id="linear-gradient-12"
       x1="1048.67"
       y1="711.90997"
       x2="1071.67"
       y2="682.90997"
       gradientTransform="matrix(-0.5,-0.88,-0.87,0.49,1211.32,711.22)"
       xlink:href="#linear-gradient-2" />
    <linearGradient
       id="linear-gradient-13"
       x1="1122.05"
       y1="594.82001"
       x2="1130.03"
       y2="625.69"
       gradientTransform="matrix(-0.66,-0.77,-0.76,0.65,1280.67,620.76)"
       xlink:href="#linear-gradient-2" />
    <linearGradient
       id="linear-gradient-14"
       x1="1116.36"
       y1="622.84998"
       x2="1140.48"
       y2="592.42999"
       gradientTransform="matrix(-0.66,-0.77,-0.76,0.65,1280.67,620.76)"
       xlink:href="#linear-gradient-2" />
    <linearGradient
       id="linear-gradient-15"
       x1="1155.26"
       y1="517.72998"
       x2="1163.15"
       y2="548.25"
       gradientTransform="matrix(-0.76,-0.67,-0.67,0.75,1315.16,551.41)"
       xlink:href="#linear-gradient-2" />
    <linearGradient
       id="linear-gradient-16"
       x1="1149.64"
       y1="545.44"
       x2="1173.49"
       y2="515.35999"
       gradientTransform="matrix(-0.76,-0.67,-0.67,0.75,1315.16,551.41)"
       xlink:href="#linear-gradient-2" />
    <linearGradient
       id="linear-gradient-17"
       x1="1187.9399"
       y1="399.03"
       x2="1196.39"
       y2="431.70001"
       gradientTransform="matrix(-0.86,-0.53,-0.52,0.85,1343.13,463.28)"
       xlink:href="#linear-gradient-2" />
    <linearGradient
       id="linear-gradient-18"
       x1="1181.92"
       y1="428.67999"
       x2="1207.47"
       y2="396.47"
       gradientTransform="matrix(-0.86,-0.53,-0.52,0.85,1343.13,463.28)"
       xlink:href="#linear-gradient-2" />
    <linearGradient
       id="linear-gradient-19"
       x1="1205.84"
       y1="229.28"
       x2="1215.05"
       y2="264.91"
       gradientTransform="matrix(-0.96,-0.32,-0.32,0.95,1357.46,351.28)"
       xlink:href="#linear-gradient-2" />
    <linearGradient
       id="linear-gradient-20"
       x1="1199.24"
       y1="261.64001"
       x2="1227.13"
       y2="226.49001"
       gradientTransform="matrix(-0.96,-0.32,-0.32,0.95,1357.46,351.28)"
       xlink:href="#linear-gradient-2" />
    <linearGradient
       id="linear-gradient-21"
       x1="1193.4301"
       y1="100.34"
       x2="1202.64"
       y2="135.96001"
       gradientTransform="matrix(-1,-0.16,-0.16,0.99,1354.18,284.61)"
       xlink:href="#linear-gradient-2" />
    <linearGradient
       id="linear-gradient-22"
       x1="1186.83"
       y1="132.77"
       x2="1214.72"
       y2="97.610001"
       gradientTransform="matrix(-1,-0.16,-0.16,0.99,1354.18,284.61)"
       xlink:href="#linear-gradient-2" />
    <linearGradient
       id="linear-gradient-23"
       x1="468.42999"
       y1="-448.95001"
       x2="478.32001"
       y2="-410.69"
       gradientTransform="matrix(0.4156295,-0.92051731,0.91140328,0.41151436,232.48,764.89)"
       xlink:href="#linear-gradient-2" />
    <linearGradient
       id="linear-gradient-24"
       x1="461.39999"
       y1="-414.20999"
       x2="491.29001"
       y2="-451.89001"
       gradientTransform="matrix(0.4156295,-0.92051731,0.91140328,0.41151436,232.48,764.89)"
       xlink:href="#linear-gradient-2" />
    <linearGradient
       id="linear-gradient-25"
       x1="685.97998"
       y1="-446.04999"
       x2="696.15997"
       y2="-406.67001"
       gradientTransform="matrix(0.06,-1.02,1,0.06,430.95,910.68)"
       xlink:href="#linear-gradient-2" />
    <linearGradient
       id="linear-gradient-26"
       x1="678.72998"
       y1="-410.26001"
       x2="709.51001"
       y2="-449.06"
       gradientTransform="matrix(0.06,-1.02,1,0.06,430.95,910.68)"
       xlink:href="#linear-gradient-2" />
    <linearGradient
       id="linear-gradient-27"
       x1="806.07001"
       y1="-391.92999"
       x2="816.72998"
       y2="-350.70001"
       gradientTransform="matrix(-0.17,-1.01,0.99,-0.17,566.73,964.09)"
       xlink:href="#linear-gradient-2" />
    <linearGradient
       id="linear-gradient-28"
       x1="798.47998"
       y1="-354.42001"
       x2="830.71002"
       y2="-395.06"
       gradientTransform="matrix(-0.17,-1.01,0.99,-0.17,566.73,964.09)"
       xlink:href="#linear-gradient-2" />
    <linearGradient
       id="linear-gradient-29"
       x1="980.81"
       y1="-244.75999"
       x2="992.21002"
       y2="-200.66"
       gradientTransform="matrix(-0.52,-0.88,0.86,-0.51,787.25,991.62)"
       xlink:href="#linear-gradient-2" />
    <linearGradient
       id="linear-gradient-30"
       x1="972.66998"
       y1="-204.67999"
       x2="1007.18"
       y2="-248.19"
       gradientTransform="matrix(-0.52,-0.88,0.86,-0.51,787.25,991.62)"
       xlink:href="#linear-gradient-2" />
    <linearGradient
       id="linear-gradient-31"
       x1="1075.5601"
       y1="-76.099998"
       x2="1087.75"
       y2="-28.93"
       gradientTransform="matrix(-0.74,-0.71,0.69,-0.72,951.83,976.16)"
       xlink:href="#linear-gradient-2" />
    <linearGradient
       id="linear-gradient-32"
       x1="1066.83"
       y1="-33.240002"
       x2="1103.76"
       y2="-79.809998"
       gradientTransform="matrix(-0.74,-0.71,0.69,-0.72,951.83,976.16)"
       xlink:href="#linear-gradient-2" />
    <linearGradient
       id="linear-gradient-33"
       x1="1284.8"
       y1="41.599998"
       x2="1293.5"
       y2="75.269997"
       gradientTransform="matrix(-1,0.02,0.02,1,1522.17,-14.06)"
       xlink:href="#linear-gradient-2" />
    <linearGradient
       id="linear-gradient-34"
       x1="1278.55"
       y1="72.209999"
       x2="1304.92"
       y2="38.959999"
       gradientTransform="matrix(-1,0.02,0.02,1,1522.17,-14.06)"
       xlink:href="#linear-gradient-2" />
    <linearGradient
       id="linear-gradient-35"
       x1="1176.38"
       y1="-176.02"
       x2="1183.97"
       y2="-146.69"
       gradientTransform="matrix(-0.87,0.49,0.49,0.87,1337.95,-343.32)"
       xlink:href="#linear-gradient-2" />
    <linearGradient
       id="linear-gradient-36"
       x1="1170.96"
       y1="-149.36"
       x2="1193.9399"
       y2="-178.34"
       gradientTransform="matrix(-0.87,0.49,0.49,0.87,1337.95,-343.32)"
       xlink:href="#linear-gradient-2" />
    <linearGradient
       id="linear-gradient-37"
       x1="1224.41"
       y1="351.53"
       x2="1233.3199"
       y2="385.97"
       gradientTransform="matrix(-0.86,-0.5,-0.5,0.86,1505.68,385.96)"
       xlink:href="#linear-gradient-2" />
    <linearGradient
       id="linear-gradient-38"
       x1="1218.0601"
       y1="382.82001"
       x2="1245"
       y2="348.85999"
       gradientTransform="matrix(-0.86,-0.5,-0.5,0.86,1505.68,385.96)"
       xlink:href="#linear-gradient-2" />
    <linearGradient
       id="linear-gradient-39"
       x1="1100.58"
       y1="537.48999"
       x2="1110"
       y2="573.92999"
       gradientTransform="matrix(-0.65,-0.78,-0.76,0.64,1415.08,614.09)"
       xlink:href="#linear-gradient-2" />
    <linearGradient
       id="linear-gradient-40"
       x1="1093.86"
       y1="570.58002"
       x2="1122.34"
       y2="534.66998"
       gradientTransform="matrix(-0.65,-0.78,-0.76,0.64,1415.08,614.09)"
       xlink:href="#linear-gradient-2" />
    <linearGradient
       id="linear-gradient-41"
       x1="486.22"
       y1="-382.94"
       x2="493.82999"
       y2="-353.48999"
       gradientTransform="matrix(0.46,-0.9,0.89,0.46,337.38,731.01)"
       xlink:href="#linear-gradient-2" />
    <linearGradient
       id="linear-gradient-42"
       x1="480.79999"
       y1="-356.20001"
       x2="503.81"
       y2="-385.20999"
       gradientTransform="matrix(0.46,-0.9,0.89,0.46,337.38,731.01)"
       xlink:href="#linear-gradient-2" />
    <linearGradient
       id="linear-gradient-43"
       x1="368.13"
       y1="-345.98999"
       x2="376.10999"
       y2="-315.10999"
       gradientTransform="matrix(0.62,-0.8,0.79,0.61,262.88,642.87)"
       xlink:href="#linear-gradient-2" />
    <linearGradient
       id="linear-gradient-44"
       x1="362.42999"
       y1="-317.95001"
       x2="386.54999"
       y2="-348.37"
       gradientTransform="matrix(0.62,-0.8,0.79,0.61,262.88,642.87)"
       xlink:href="#linear-gradient-2" />
    <linearGradient
       id="linear-gradient-45"
       x1="280.25"
       y1="-309.12"
       x2="288.14001"
       y2="-278.59"
       gradientTransform="matrix(0.73,-0.71,0.7,0.72,225.83,575.59)"
       xlink:href="#linear-gradient-2" />
    <linearGradient
       id="linear-gradient-46"
       x1="274.62"
       y1="-281.39999"
       x2="298.48001"
       y2="-311.48001"
       gradientTransform="matrix(0.73,-0.71,0.7,0.72,225.83,575.59)"
       xlink:href="#linear-gradient-2" />
    <linearGradient
       id="linear-gradient-47"
       x1="183.56"
       y1="-258.32001"
       x2="192"
       y2="-225.64"
       gradientTransform="matrix(0.84,-0.57,0.56,0.83,193.35,488.81)"
       xlink:href="#linear-gradient-2" />
    <linearGradient
       id="linear-gradient-48"
       x1="177.52"
       y1="-228.64999"
       x2="203.06"
       y2="-260.85999"
       gradientTransform="matrix(0.84,-0.57,0.56,0.83,193.35,488.81)"
       xlink:href="#linear-gradient-2" />
    <linearGradient
       id="linear-gradient-49"
       x1="80.529999"
       y1="-179.97"
       x2="89.739998"
       y2="-144.34"
       gradientTransform="matrix(0.95,-0.36,0.36,0.93,174.03,377.99)"
       xlink:href="#linear-gradient-2" />
    <linearGradient
       id="linear-gradient-50"
       x1="73.940002"
       y1="-147.60001"
       x2="101.81"
       y2="-182.75"
       gradientTransform="matrix(0.95,-0.36,0.36,0.93,174.03,377.99)"
       xlink:href="#linear-gradient-2" />
    <linearGradient
       id="linear-gradient-51"
       x1="17.879999"
       y1="-121.98"
       x2="27.09"
       y2="-86.360001"
       gradientTransform="matrix(0.99,-0.21,0.21,0.98,174.59,310.79)"
       xlink:href="#linear-gradient-2" />
    <linearGradient
       id="linear-gradient-52"
       x1="11.29"
       y1="-89.629997"
       x2="39.18"
       y2="-124.79"
       gradientTransform="matrix(0.99,-0.21,0.21,0.98,174.59,310.79)"
       xlink:href="#linear-gradient-2" />
    <linearGradient
       id="linear-gradient-53"
       x1="985.21997"
       y1="645.40997"
       x2="995.10999"
       y2="683.66998"
       gradientTransform="matrix(-0.46,-0.9,-0.89,0.45,1317.55,740.93)"
       xlink:href="#linear-gradient-2" />
    <linearGradient
       id="linear-gradient-54"
       x1="978.19"
       y1="680.15002"
       x2="1008.07"
       y2="642.46997"
       gradientTransform="matrix(-0.46,-0.9,-0.89,0.45,1317.55,740.93)"
       xlink:href="#linear-gradient-2" />
    <linearGradient
       id="linear-gradient-55"
       x1="779.31"
       y1="763.20001"
       x2="789.48999"
       y2="802.57001"
       gradientTransform="matrix(-0.1,-1.02,-0.99,0.1,1125.48,895.58)"
       xlink:href="#linear-gradient-2" />
    <linearGradient
       id="linear-gradient-56"
       x1="772.03003"
       y1="799.03003"
       x2="802.79999"
       y2="760.22998"
       gradientTransform="matrix(-0.1,-1.02,-0.99,0.1,1125.48,895.58)"
       xlink:href="#linear-gradient-2" />
    <linearGradient
       id="linear-gradient-57"
       x1="630.58002"
       y1="807.59003"
       x2="641.23999"
       y2="848.83002"
       gradientTransform="matrix(0.13,-1.02,-0.99,-0.13,992.08,954.42)"
       xlink:href="#linear-gradient-2" />
    <linearGradient
       id="linear-gradient-58"
       x1="623.01001"
       y1="845"
       x2="655.23999"
       y2="804.35999"
       gradientTransform="matrix(0.13,-1.02,-0.99,-0.13,992.08,954.42)"
       xlink:href="#linear-gradient-2" />
    <linearGradient
       id="linear-gradient-59"
       x1="403.64999"
       y1="814.34003"
       x2="415.04999"
       y2="858.44"
       gradientTransform="matrix(0.48,-0.9,-0.88,-0.47,772.89,991.87)"
       xlink:href="#linear-gradient-2" />
    <linearGradient
       id="linear-gradient-60"
       x1="395.51001"
       y1="854.40002"
       x2="430.03"
       y2="810.89001"
       gradientTransform="matrix(0.48,-0.9,-0.88,-0.47,772.89,991.87)"
       xlink:href="#linear-gradient-2" />
    <linearGradient
       id="linear-gradient-61"
       x1="235.56"
       y1="779.04999"
       x2="247.75"
       y2="826.20001"
       gradientTransform="matrix(0.71,-0.74,-0.72,-0.69,607.8,982.67)"
       xlink:href="#linear-gradient-2" />
    <linearGradient
       id="linear-gradient-62"
       x1="226.84"
       y1="821.90002"
       x2="263.76999"
       y2="775.33002"
       gradientTransform="matrix(0.71,-0.74,-0.72,-0.69,607.8,982.67)"
       xlink:href="#linear-gradient-2" />
    <linearGradient
       inkscape:collect="always"
       xlink:href="#linear-gradient-2"
       id="linearGradient190"
       gradientUnits="userSpaceOnUse"
       gradientTransform="matrix(1,-0.02,0.02,1,-5.65,19.33)"
       x1="157.07001"
       y1="113.07"
       x2="161.19"
       y2="245.98" />
  </defs>
  <title
     id="title78">hc-logo</title>
  <g
     id="Layer_2"
     data-name="Layer 2">
    <g
       id="Layer_1-2"
       data-name="Layer 1">
      <path
         class="cls-1"
         d="M 153.39,306.78 C 68.81,306.78 0,238 0,153.39 0,68.78 68.81,0 153.39,0 c 84.58,0 153.39,68.81 153.39,153.39 0,84.58 -68.78,153.39 -153.39,153.39 z m 0,-301.68 C 71.62,5.1 5.1,71.62 5.1,153.39 c 0,81.77 66.52,148.29 148.29,148.29 81.77,0 148.29,-66.52 148.29,-148.29 C 301.68,71.62 235.16,5.1 153.39,5.1 Z"
         id="path80" />
      <path
         class="cls-2"
         d="M 154.63,68.67 A 86.11,86.11 0 1 1 68.52,154.78 86.27,86.27 0 0 1 154.63,68.67 Z"
         id="path82" />
      <path
         class="cls-3"
         d="m 108.59,180.32 c 0,0 -0.17,-1.85 -1.21,-0.88 -1.27,1.18 1.77,-1.08 1.84,-1.08 a 8,8 0 0 1 3.38,-1 c 0.36,-0.35 1.16,-0.29 1.4,-0.66 0.44,-0.07 0.53,-0.15 1.11,-0.22 a 2.6,2.6 0 0 1 0.31,-0.5 l 0.06,-1.18 a 0.7,0.7 0 0 1 0.16,-0.13 c 0.22,-1.36 0.84,-2.61 1,-4 a 18.44,18.44 0 0 0 -0.44,-4.68 c -0.29,-2.47 -0.29,-2.47 -0.67,-4.59 q 0,-2.2 -0.06,-4.38 c 0.7,-2.64 1.75,-5.2 2.72,-7.79 a 5.37,5.37 0 0 0 0.13,-1.42 c 0,-0.28 -0.09,-0.37 -0.13,-1.51 -0.13,-0.06 -0.13,-0.06 -1.44,-0.09 -0.49,-0.32 -1,-0.41 -1,-1 a 1.19,1.19 0 0 0 -0.26,-0.05 c 0,-0.48 -0.14,-2.62 0.2,-2.95 a 24.09,24.09 0 0 1 1,-4.07 17.74,17.74 0 0 0 0.73,-1.84 c 0.22,-0.43 0.22,-0.43 0.37,-0.57 a 4.92,4.92 0 0 1 0.82,-2 7.4,7.4 0 0 1 0,-0.83 c 0.33,-0.81 1.24,-2.1 1.08,-3 a 1.24,1.24 0 0 0 -0.82,0.33 13,13 0 0 0 -2.37,1.64 4.27,4.27 0 0 0 -0.57,0.16 2,2 0 0 0 -1.11,0.28 4.84,4.84 0 0 1 -1.46,-0.33 c -0.11,-0.13 -0.2,-0.26 -0.29,-0.37 -0.09,-0.11 0,-0.24 0.11,-0.24 0,-0.33 0.07,-1 0.54,-1 l 0.06,-0.13 a 2.57,2.57 0 0 1 0.11,-0.44 l 0.18,-0.22 c 0.09,-0.18 0.18,-0.85 0.31,-1.09 a 3.24,3.24 0 0 1 0.09,-0.57 0.3,0.3 0 0 1 0.13,0 2.77,2.77 0 0 0 -0.67,-1.32 c 0,-0.28 -0.15,-0.41 -0.3,-0.63 -0.15,-0.22 -0.22,-0.68 -0.33,-1 0,-0.48 0,-1 0.08,-1.44 0.11,-0.13 0.2,-0.68 0.47,-1.45 a 4.9,4.9 0 0 0 0.66,-1.66 c 0.71,-1.75 1.57,-3.45 2.17,-5.23 0.07,-0.5 0.14,-1 0.22,-1.46 0,-0.83 -0.06,-1.67 -0.08,-2.5 -0.09,-0.08 -0.45,-1.53 -0.54,-1.61 -0.18,-1.06 -0.57,-2.11 -0.77,-3.18 0,-0.33 0,-0.63 0.06,-0.94 0.2,-0.46 0.4,-0.92 0.6,-1.35 l 0.86,-0.92 c 0.14,-0.37 0.27,-0.75 0.4,-1.1 0,-0.54 0,-1.09 0,-1.62 -0.45,-0.43 -0.36,-1.66 -0.82,-2.12 0,-0.61 0,-1.22 0.07,-1.82 a 19.78,19.78 0 0 1 4.73,-7 c 0,-0.4 1.59,-1.75 1.9,-2.06 0.54,-0.79 0.67,-1.16 1,-1.6 0,-0.24 0,-0.48 0.07,-0.72 -0.64,0 -1.17,0.39 -1.81,0.39 -0.07,-0.46 -0.14,-0.92 -0.18,-1.35 h -0.51 c 0,-1.36 0.55,-2.72 0.66,-4.07 L 122.39,80 c -0.58,0.18 -0.69,0.55 -1,1 l -0.44,0.12 v -2 a 4.68,4.68 0 0 0 -0.53,0.17 c -1.62,2.51 -1.07,0 -0.21,-1.23 a 8.09,8.09 0 0 0 0.81,-1.83 c 0.24,-0.51 -1.43,0.17 -1.25,-0.37 0,-0.24 1.35,-2.07 1.37,-2.3 0.02,-0.23 -0.86,0.24 -0.83,0 -0.23,-0.22 1,-1.15 1.32,-2 0.24,-0.67 -0.79,0 -0.63,-0.23 0.15,-0.4 0.46,-1.69 0.61,-1.89 -0.09,-0.11 -0.09,-0.11 -0.09,-0.77 a 3.79,3.79 0 0 0 -0.8,0.09 c 0,-0.5 0,-0.89 0.58,-1 0.47,-0.46 0.47,-0.46 0.53,-0.65 l -0.15,-0.16 c 0.15,-1.29 2.52,-1.15 1,-2.51 -0.17,0.46 1.59,-0.4 1.79,-0.57 0,-0.16 0.1,0.07 0.12,-0.09 -0.54,-0.13 -0.75,-0.23 -0.75,-0.83 h -0.16 c -0.29,0 -0.18,0.3 -0.44,0.3 0.11,-0.83 1.25,-0.67 1.87,-1.22 0.31,-0.15 -0.49,-0.66 -0.16,-0.79 0.66,-0.06 1,-0.74 1.67,-0.69 L 127,60.48 c 0,-0.11 0.05,-0.22 0.07,-0.31 h 0.6 l 2.23,0.11 c 0.05,-0.22 0.09,-0.41 0.13,-0.61 a 1.08,1.08 0 0 1 0.13,-0.15 H 131 a 1.42,1.42 0 0 1 0.16,-0.35 2.05,2.05 0 0 1 1.37,0.59 l 0.62,0.19 c 0,-0.17 0,-0.35 0.07,-0.5 a 2.6,2.6 0 0 1 1.3,0.87 h 0.45 a 0.75,0.75 0 0 1 0.31,-0.5 1.84,1.84 0 0 1 1.19,1.38 c 0.55,0.2 0.53,0.59 0.53,1.11 0.16,0.09 0.67,0.09 0.86,0.2 l -0.06,1.25 c -0.16,0.13 -0.16,0.13 -0.38,0.74 -0.57,0.57 -0.59,0.77 -0.06,1.45 0,0.7 0,1.4 0,2.1 a 10.1,10.1 0 0 0 2.39,2.12 1.58,1.58 0 0 1 -0.55,1.29 c 0,0.44 0.12,0.6 0.09,1 a 6,6 0 0 0 0.6,1.29 6.57,6.57 0 0 0 -0.05,0.66 2.5,2.5 0 0 1 0.35,1.49 18.41,18.41 0 0 1 -2.14,1.68 c -0.49,0 -1,1 -1.18,1.31 -0.13,0.68 -0.24,1.38 -0.35,2.08 0,0.24 0,0.5 0,0.76 0.23,0.07 0.47,0.16 0.71,0.25 a 12.3,12.3 0 0 0 1.95,-0.09 4.91,4.91 0 0 1 1.26,-0.44 7.76,7.76 0 0 1 2.56,-1.07 c 0.93,0 1.74,-1 2.81,-0.37 0.35,-0.38 0.71,-0.75 1.08,-1.12 2.19,-1.7 2.66,-3.55 4.65,-5.44 a 0.25,0.25 0 0 1 0,-0.15 c 0.75,-0.81 2.29,-3 1.65,-4.29 a 113.88,113.88 0 0 0 -12.24,4.19 c -0.31,0.26 -0.25,0.33 -0.53,0.59 -0.16,0 -0.31,0 -0.45,0.09 -0.2,-0.39 -0.37,-0.79 -0.57,-1.18 0,-0.24 -0.07,-0.48 -0.09,-0.72 0.27,-0.26 0.34,0.1 0.69,0.14 0.35,0.04 0.46,0.19 0.67,0.11 4.75,-1.81 7.87,-3 12.12,-4.69 l 0.49,-0.39 c 0,-1 -0.11,-1.62 0.84,-2.08 0.31,0 0.62,0 0.93,0 0.27,-0.2 0.53,-0.37 0.8,-0.55 a 2.75,2.75 0 0 1 1,0.09 c 0.24,0.24 1.45,-0.48 1.72,-0.62 0.53,0 1.35,-0.06 1.75,0.33 a 1,1 0 0 0 0.22,0.07 c 1.16,-0.14 2.13,-1.13 3.39,-1.28 0.51,-0.66 -0.44,-2 0.79,-2 0.18,0.22 0.38,0.43 0.58,0.66 a 1.75,1.75 0 0 1 0.4,-0.05 2.27,2.27 0 0 1 1.86,-1.43 0.46,0.46 0 0 1 0.16,-0.15 c 0.37,0 0.59,-0.39 0.85,-0.13 0.49,0 1,-0.37 1.36,0 0,0 1,-0.49 1.35,0 0.1,0.17 0.15,0.57 0.35,0.48 l 25.56,-8.91 c 1.51,-0.53 2.83,-1.06 4.32,-1.58 2.23,-0.8 4.09,-3.32 3.25,-7.55 l 0.27,-0.09 2.41,6.78 2.41,6.78 -0.27,0.1 c -2,-3.82 -5.06,-4.63 -7.31,-3.88 -1.55,0.54 -3,1 -4.56,1.52 -9.3,3.24 -19,5.8 -26.54,8.81 a 2.26,2.26 0 0 0 -0.94,1.07 4.88,4.88 0 0 1 -1.88,3 c -3.34,7.09 -5.1,11.81 -10.61,17.17 -0.77,0 -5.31,2.67 -5.55,2.89 V 87 a 0.78,0.78 0 0 0 -0.22,0.15 c 0,1 -0.06,2 -0.08,3 0.22,0.22 -0.09,1.27 -0.14,1.54 a 6.34,6.34 0 0 0 -0.31,0.8 6.78,6.78 0 0 0 -2.26,0.9 c -0.46,0.48 -0.93,1 -1.39,1.45 a 2.5,2.5 0 0 0 -0.69,0.43 4.26,4.26 0 0 1 -1.68,0.13 0.9,0.9 0 0 0 -0.18,0.16 c 0,0.46 -0.09,0.92 -0.13,1.37 -0.09,0.09 -0.09,0.09 -0.26,0.84 -0.34,0.78 -0.64,1.57 -1,2.36 a 6.05,6.05 0 0 0 -0.64,0.24 c 0,0.57 0,1.16 -0.06,1.75 a 39.32,39.32 0 0 0 -0.47,4.57 12.55,12.55 0 0 0 1.2,1.3 l 0.53,0.8 c 1.66,1.55 3.38,3.15 4.89,4.86 a 23.12,23.12 0 0 1 2.85,2.54 1.19,1.19 0 0 1 0.22,0.08 l 0.14,0.07 c 0,0 0.13,0.09 0.15,0.15 1.22,0.94 2.11,2.39 3.5,3.2 1.26,1.24 1.26,1.24 3,2.71 a 2.51,2.51 0 0 1 0.26,1 1.65,1.65 0 0 0 0.88,0.5 c 0.33,0.22 0.67,0.44 1,0.68 a 9.33,9.33 0 0 0 0.78,2.32 c 0.09,1 -0.47,2 -0.58,3.06 -0.09,0.09 -1.77,6.78 -1.86,6.87 a 5.84,5.84 0 0 1 -0.44,1.75 c -0.25,1.51 -0.86,3 -1,4.51 -0.09,0.08 -0.44,2.18 -0.53,2.27 -0.33,2.43 -0.49,2.87 -0.77,4.61 a 6.57,6.57 0 0 0 0.08,1.56 9.92,9.92 0 0 0 1.75,2.8 c 3.5,2.56 3.74,2.63 3.9,2.76 0.5,0.11 0.9,0.28 1,0.81 a 1.16,1.16 0 0 1 0.35,0.63 l 1.15,0.2 c 0.6,0 1.2,0 1.81,0 0.44,-0.22 1.35,-0.51 1.77,-0.22 1.24,0.32 2.5,0.65 3.77,1 0.33,0.33 0.86,0.26 1.15,0.55 0,4.81 7.85,8.75 11.53,11.2 0.48,1 2.1,1.66 3,2.19 h 0.15 c 0,0 0.21,0.13 0.21,0.19 1.34,0.75 1.57,0.75 1.77,0.9 a 10.7,10.7 0 0 1 1.06,0.24 l -0.66,20.42 h -81.75 l -0.18,-14.63 z m 51.77,-114 c -0.23,0.24 -0.56,1.62 -0.9,1.9 a 3,3 0 0 0 -0.72,1.87 c -0.21,0.26 -0.38,0.52 -0.56,0.79 a 22.82,22.82 0 0 0 -1.29,2.84 v 0 c -0.39,0.87 -0.63,0.73 -1,1.65 2.86,-2.11 7,-6.43 8.4,-9.9 0.2,-0.5 -0.29,0 -0.15,-0.54 0.14,-0.54 -3.41,1.3 -3.81,1.38 z m -8.65,19.27 z m 1.84,30.19 z M 114,129.71 Z m 0,0.09 z m 36.3,6.56 z m -1,18.73 0.67,-0.29 a 1.63,1.63 0 0 1 -0.67,0.29 z m 0,0 -5.09,2.19 a 0.73,0.73 0 0 1 0.16,-0.22 c 1.84,-0.66 2,-0.79 2.52,-0.92 a 6,6 0 0 0 2.3,-0.31 c 0,-0.26 0.07,-0.5 0.11,-0.74 z m -5.09,2.19 0.07,0.08 a 0.19,0.19 0 0 0 -0.07,-0.08 z m 0.07,0.08 a 0.31,0.31 0 0 1 0.15,0 0.35,0.35 0 0 0 -0.11,0.1 0.28,0.28 0 0 1 0,-0.13 z m -0.07,-0.08 5.09,-2.19 a 3.08,3.08 0 0 1 0.51,-1.86 c 0.18,-0.51 0.36,-1 0.53,-1.51 a 62.09,62.09 0 0 0 0.8,-11.64 c 0,-0.37 0,-0.74 0.09,-1.09 0,-0.18 0,-0.36 0.07,-0.53 V 138 c -0.2,-1.86 -0.2,-1.86 -0.29,-2 0,-0.5 0,-0.5 -0.09,-0.59 l -0.93,0.26 c -0.33,0.68 -3.06,1.42 -3.5,1.58 -0.44,0.16 -0.62,0.11 -0.93,0.17 l -3.8,-0.13 a 11.33,11.33 0 0 1 -2,1 9.39,9.39 0 0 0 -3.18,4.07 c -0.14,0.13 -0.16,0.31 -0.91,1.29 a 16.4,16.4 0 0 0 -1.2,1.27 c -0.49,0.33 -1.17,0.61 -1.68,0.9 -0.6,0.11 -1.39,0 -1.66,0.61 l -0.51,0.33 c -0.7,0.9 -1.55,2.34 -1.72,2.47 -0.76,0 -1.49,0.09 -2.22,0.15 -0.22,1.16 -0.31,1.25 -0.31,1.47 h -0.13 v 0.13 a 7.28,7.28 0 0 1 -0.09,0.75 13.46,13.46 0 0 0 -1.44,2.86 c -0.57,2.67 -1.22,5.49 -1.57,8.2 -0.09,0.09 -0.09,0.09 -0.53,2.06 v 0.57 c -0.66,1 0,2.76 -0.8,3.65 -0.22,2.26 -0.31,2.34 -0.31,2.47 0,0.13 0.12,0.49 0.31,1 0.69,0.68 1.13,1.64 2.22,1.79 l 0.28,-0.22 a 6.83,6.83 0 0 1 1.55,-2.29 12,12 0 0 0 1.16,-2.54 c 0.39,-0.42 0.79,-0.83 1.21,-1.23 0.62,-0.52 1.37,-1.72 1.93,-2.31 l 2.79,-1.91 c 0.15,0 0.15,0 2.23,-1.24 1,-0.33 2,-0.77 3,-1 0.44,-0.28 0.88,-0.55 1.35,-0.81 a 29,29 0 0 1 4,-3.22 l 0.73,-0.21 z"
         id="path84" />
      <path
         class="cls-4"
         d="m 186.77,297.34 -54,2.49 c -28.06,-9.39 -53,-19.31 -80.85,-40.76 L 30.82,231.24 19.46,205.45 76.27,190.22 90.37,179.5 c 5.35,-4.07 13.48,0.85 20.06,-0.82 v 1.58 l 79.45,-4.85 1.24,-0.74 21.17,7.88 c 6.62,2.5 10.47,1.37 17.39,2.89 l 57.26,24.56 -21.2,35.63 c 0,0 -38.38,44 -78.97,51.71 z"
         id="path86"
         style="fill:url(#linear-gradient)" />
      <path
         class="cls-5"
         d="m 238.46,87.13 a 100.92,100.92 0 0 1 3.82,9.57 99.55,99.55 0 0 1 7.13,34.9 c 1.11,49.84 -34.54,91.74 -81.62,98.7 l 0.08,3.52 A 97.55,97.55 0 0 0 238.46,87.13 Z M 145,230.89 c -47.63,-4.58 -85.43,-45 -86.55,-95.07 a 98.74,98.74 0 0 1 9.13,-43.91 97.54,97.54 0 0 0 77.56,142.41 z"
         id="path88"
         style="fill:url(#linearGradient190)" />
      <path
         class="cls-6"
         d="m 65.29,97.42 c 0,0 24.18,-8.56 14.84,-35.85 L 80,61.34 c 0,0 -24.18,8.56 -14.84,35.85 z"
         id="path90"
         style="fill:url(#linear-gradient-3)" />
      <path
         class="cls-7"
         d="M 65.28,97.42 80.13,61.57 v 0 L 80,61.34 c 0,0 -24.18,8.56 -14.84,35.85 z"
         id="path92"
         style="fill:url(#linear-gradient-4)" />
      <path
         class="cls-8"
         d="m 63.72,110.76 c 0,0 22.08,3.3 26.12,-21.47 v -0.22 c 0,0 -22.08,-3.3 -26.11,21.47 z"
         id="path94"
         style="fill:url(#linear-gradient-5)" />
      <path
         class="cls-9"
         d="M 63.72,110.76 89.83,89.29 v 0 -0.22 c 0,0 -22.08,-3.3 -26.11,21.47 z"
         id="path96"
         style="fill:url(#linear-gradient-6)" />
      <path
         class="cls-10"
         d="m 54.35,112.57 c 0,0 16.5,-20.34 -6.27,-39.16 l -0.23,-0.13 c 0,0 -16.5,20.33 6.27,39.15 z"
         id="path98"
         style="fill:url(#linear-gradient-7)" />
      <path
         class="cls-11"
         d="M 54.34,112.57 48.09,73.41 v 0 l -0.23,-0.13 c 0,0 -16.5,20.33 6.27,39.15 z"
         id="path100"
         style="fill:url(#linear-gradient-8)" />
      <path
         class="cls-12"
         d="m 53.08,139.89 c 0,0 9.38,-26.37 -20.08,-36.89 h -0.28 c 0,0 -9.38,26.36 20.08,36.92 z"
         id="path102"
         style="fill:url(#linear-gradient-9)" />
      <path
         class="cls-13"
         d="M 53.08,139.89 33,103 v 0 h -0.28 c 0,0 -9.38,26.36 20.08,36.92 z"
         id="path104"
         style="fill:url(#linear-gradient-10)" />
      <path
         class="cls-14"
         d="m 60.38,139 c 0,0 -4.55,-22.13 20.19,-27.28 h 0.23 c 0,0 4.54,22.14 -20.2,27.28 z"
         id="path106"
         style="fill:url(#linear-gradient-11)" />
      <path
         class="cls-15"
         d="m 60.38,139 20.18,-27.28 h 0.24 c 0,0 4.54,22.14 -20.2,27.28 z"
         id="path108"
         style="fill:url(#linear-gradient-12)" />
      <path
         class="cls-16"
         d="m 66.43,162.89 c 0,0 -9,-21.92 15.47,-32 l 0.23,-0.05 c 0,0 9,21.92 -15.47,32.05 z"
         id="path110"
         style="fill:url(#linear-gradient-13)" />
      <path
         class="cls-17"
         d="m 66.43,162.89 15.47,-32 v 0 l 0.23,-0.05 c 0,0 9,21.92 -15.47,32.05 z"
         id="path112"
         style="fill:url(#linear-gradient-14)" />
      <path
         class="cls-18"
         d="m 75.72,185.48 c 0,0 -11.85,-20.24 10.76,-33.48 l 0.21,-0.08 c 0,0 11.85,20.25 -10.75,33.51 z"
         id="path114"
         style="fill:url(#linear-gradient-15)" />
      <path
         class="cls-19"
         d="M 75.72,185.48 86.47,152 v 0 l 0.21,-0.08 c 0,0 11.85,20.25 -10.75,33.51 z"
         id="path116"
         style="fill:url(#linear-gradient-16)" />
      <path
         class="cls-20"
         d="m 91.41,205 c 0,0 -16.33,-19.13 5,-37.36 l 0.21,-0.13 c 0,0 16.32,19.12 -5,37.35 z"
         id="path118"
         style="fill:url(#linear-gradient-17)" />
      <path
         class="cls-21"
         d="m 91.41,205 5,-37.35 v 0 l 0.21,-0.13 c 0,0 16.32,19.12 -5,37.35 z"
         id="path120"
         style="fill:url(#linear-gradient-18)" />
      <path
         class="cls-22"
         d="m 115.52,220.62 c 0,0 -22.09,-16.29 -4,-40.93 l 0.19,-0.19 c 0,0 22.1,16.29 4,40.93 z"
         id="path122"
         style="fill:url(#linear-gradient-19)" />
      <path
         class="cls-23"
         d="m 115.53,220.61 -4,-40.91 v 0 l 0.19,-0.19 c 0,0 22.1,16.29 4,40.93 z"
         id="path124"
         style="fill:url(#linear-gradient-20)" />
      <path
         class="cls-24"
         d="m 140.56,227.83 c 0,0 -24.41,-12.58 -10.45,-39.78 l 0.17,-0.22 c 0,0 24.41,12.58 10.45,39.78 z"
         id="path126"
         style="fill:url(#linear-gradient-21)" />
      <path
         class="cls-25"
         d="m 140.56,227.82 -10.45,-39.77 v 0 l 0.17,-0.22 c 0,0 24.41,12.58 10.45,39.78 z"
         id="path128"
         style="fill:url(#linear-gradient-22)" />
      <path
         class="cls-26"
         d="m 56.34,167.66 c 0,0 3.22,-29.16 -29.34,-32.87 h -0.3 c 0,0 -3.26,29.21 29.35,32.88 z"
         id="path130"
         style="fill:url(#linear-gradient-23)" />
      <path
         class="cls-27"
         d="M 56.34,167.66 27,134.79 v 0 h -0.3 c 0,0 -3.26,29.21 29.35,32.88 z"
         id="path132"
         style="fill:url(#linear-gradient-24)" />
      <path
         class="cls-28"
         d="m 68.9,190 c 0,0 -7.72,-29.45 -40.4,-20.89 l -0.27,0.12 c 0,0 7.71,29.46 40.39,20.9 z"
         id="path134"
         style="fill:url(#linear-gradient-25)" />
      <path
         class="cls-29"
         d="M 68.89,190 28.51,169.1 v 0 l -0.27,0.12 c 0,0 7.71,29.46 40.39,20.9 z"
         id="path136"
         style="fill:url(#linear-gradient-26)" />
      <path
         class="cls-30"
         d="m 86.16,212.83 c 0,0 -14.83,-28.22 -46.16,-11.83 l -0.25,0.19 c 0,0 14.85,28.25 46.16,11.81 z"
         id="path138"
         style="fill:url(#linear-gradient-27)" />
      <path
         class="cls-31"
         d="M 86.16,212.83 40,201 v 0 l -0.25,0.19 c 0,0 14.85,28.25 46.16,11.81 z"
         id="path140"
         style="fill:url(#linear-gradient-28)" />
      <path
         class="cls-32"
         d="m 111.91,227.89 c 0,0 -25.53,-22.69 -50.68,5.52 l -0.17,0.29 c 0,0 25.54,22.69 50.68,-5.52 z"
         id="path142"
         style="fill:url(#linear-gradient-29)" />
      <path
         class="cls-33"
         d="m 111.91,227.89 -50.67,5.52 v 0 l -0.17,0.29 c 0,0 25.54,22.69 50.68,-5.52 z"
         id="path144"
         style="fill:url(#linear-gradient-30)" />
      <path
         class="cls-34"
         d="m 141.36,236.19 c 0,0 -33,-15.85 -50.54,20.56 l -0.09,0.35 c 0,0 33,15.86 50.53,-20.55 z"
         id="path146"
         style="fill:url(#linear-gradient-31)" />
      <path
         class="cls-35"
         d="m 141.36,236.2 -50.53,20.54 v 0 l -0.09,0.35 c 0,0 33,15.86 50.53,-20.55 z"
         id="path148"
         style="fill:url(#linear-gradient-32)" />
      <path
         class="cls-36"
         d="m 242.06,93.51 c 0,0 -24.53,-7.51 -16.41,-35.16 l 0.11,-0.23 c 0,0 24.54,7.48 16.42,35.16 z"
         id="path150"
         style="fill:url(#linear-gradient-33)" />
      <path
         class="cls-37"
         d="M 242.06,93.51 225.65,58.36 v 0 l 0.11,-0.23 c 0,0 24.54,7.48 16.42,35.16 z"
         id="path152"
         style="fill:url(#linear-gradient-34)" />
      <path
         class="cls-38"
         d="m 244.22,106.78 c 0,0 -21.91,4.26 -27,-20.3 v -0.23 c 0,0 21.91,-4.26 27,20.3 z"
         id="path154"
         style="fill:url(#linear-gradient-35)" />
      <path
         class="cls-39"
         d="m 244.22,106.77 -27,-20.28 v 0 -0.23 c 0,0 21.91,-4.26 27,20.3 z"
         id="path156"
         style="fill:url(#linear-gradient-36)" />
      <path
         class="cls-40"
         d="m 253.67,108.16 c 0,0 -17.39,-19.58 4.51,-39.39 l 0.23,-0.14 c 0,0 17.39,19.57 -4.52,39.37 z"
         id="path158"
         style="fill:url(#linear-gradient-37)" />
      <path
         class="cls-41"
         d="m 253.67,108.16 4.51,-39.39 v 0 l 0.23,-0.14 c 0,0 17.39,19.57 -4.52,39.37 z"
         id="path160"
         style="fill:url(#linear-gradient-38)" />
      <path
         class="cls-42"
         d="m 256.15,135.4 c 0,0 -10.55,-25.93 18.41,-37.77 h 0.27 c 0,0 10.54,25.92 -18.41,37.76 z"
         id="path162"
         style="fill:url(#linear-gradient-39)" />
      <path
         class="cls-43"
         d="m 256.15,135.4 18.4,-37.77 v 0 h 0.27 c 0,0 10.54,25.92 -18.41,37.76 z"
         id="path164"
         style="fill:url(#linear-gradient-40)" />
      <path
         class="cls-44"
         d="m 248.82,134.86 c 0,0 3.55,-22.31 -21.38,-26.37 h -0.23 c 0,0 -3.56,22.3 21.38,26.36 z"
         id="path166"
         style="fill:url(#linear-gradient-41)" />
      <path
         class="cls-45"
         d="m 248.81,134.86 -21.37,-26.37 h -0.23 c 0,0 -3.56,22.3 21.38,26.36 z"
         id="path168"
         style="fill:url(#linear-gradient-42)" />
      <path
         class="cls-46"
         d="m 243.83,159 c 0,0 8,-22.3 -16.88,-31.34 h -0.23 c 0,0 -8,22.3 16.88,31.34 z"
         id="path170"
         style="fill:url(#linear-gradient-43)" />
      <path
         class="cls-47"
         d="M 243.83,159 227,127.63 v 0 h -0.23 c 0,0 -8,22.3 16.88,31.34 z"
         id="path172"
         style="fill:url(#linear-gradient-44)" />
      <path
         class="cls-48"
         d="m 235.56,182 c 0,0 10.93,-20.76 -12.24,-33 l -0.22,-0.07 c 0,0 -10.93,20.75 12.24,33 z"
         id="path174"
         style="fill:url(#linear-gradient-45)" />
      <path
         class="cls-49"
         d="m 235.56,182 -12.23,-33 v 0 l -0.22,-0.07 c 0,0 -10.93,20.75 12.24,33 z"
         id="path176"
         style="fill:url(#linear-gradient-46)" />
      <path
         class="cls-50"
         d="m 220.76,202.17 c 0,0 15.45,-19.83 -6.66,-37.1 l -0.22,-0.12 c 0,0 -15.45,19.82 6.66,37.09 z"
         id="path178"
         style="fill:url(#linear-gradient-47)" />
      <path
         class="cls-51"
         d="m 220.76,202.16 -6.66,-37.08 v 0 l -0.22,-0.12 c 0,0 -15.45,19.82 6.66,37.09 z"
         id="path180"
         style="fill:url(#linear-gradient-48)" />
      <path
         class="cls-52"
         d="m 197.36,218.81 c 0,0 21.35,-17.24 2.15,-41.06 l -0.21,-0.18 c 0,0 -21.35,17.24 -2.15,41.06 z"
         id="path182"
         style="fill:url(#linear-gradient-49)" />
      <path
         class="cls-53"
         d="m 197.35,218.8 2.16,-41.05 v 0 l -0.21,-0.18 c 0,0 -21.35,17.24 -2.15,41.06 z"
         id="path184"
         style="fill:url(#linear-gradient-50)" />
      <path
         class="cls-54"
         d="m 172.66,227.12 c 0,0 23.83,-13.65 8.67,-40.21 l -0.17,-0.21 c 0,0 -23.84,13.65 -8.68,40.2 z"
         id="path186"
         style="fill:url(#linear-gradient-51)" />
      <path
         class="cls-55"
         d="m 172.66,227.11 8.68,-40.19 v 0 l -0.17,-0.21 c 0,0 -23.84,13.65 -8.68,40.2 z"
         id="path188"
         style="fill:url(#linear-gradient-52)" />
      <path
         class="cls-56"
         d="m 254.12,163.29 c 0,0 -4.51,-29 27.91,-34.14 h 0.29 c 0,0 4.5,29 -27.91,34.13 z"
         id="path190"
         style="fill:url(#linear-gradient-53)" />
      <path
         class="cls-57"
         d="M 254.12,163.29 282,129.15 h 0.3 c 0,0 4.5,29 -27.91,34.13 z"
         id="path192"
         style="fill:url(#linear-gradient-54)" />
      <path
         class="cls-58"
         d="m 242.58,186.15 c 0,0 6.42,-29.76 39.42,-22.65 l 0.28,0.11 c 0,0 -6.4,29.77 -39.43,22.66 z"
         id="path194"
         style="fill:url(#linear-gradient-55)" />
      <path
         class="cls-59"
         d="M 242.58,186.15 282,163.49 v 0 l 0.28,0.11 c 0,0 -6.4,29.77 -39.43,22.66 z"
         id="path196"
         style="fill:url(#linear-gradient-56)" />
      <path
         class="cls-60"
         d="m 226.34,209.74 c 0,0 13.57,-28.87 45.57,-13.85 l 0.26,0.18 c 0,0 -13.57,28.86 -45.57,13.85 z"
         id="path198"
         style="fill:url(#linear-gradient-57)" />
      <path
         class="cls-61"
         d="m 226.34,209.74 45.57,-13.85 v 0 l 0.26,0.18 c 0,0 -13.57,28.86 -45.57,13.85 z"
         id="path200"
         style="fill:url(#linear-gradient-58)" />
      <path
         class="cls-62"
         d="m 201.28,225.92 c 0,0 24.51,-23.8 50.88,3.27 l 0.19,0.28 c 0,0 -24.51,23.8 -50.88,-3.27 z"
         id="path202"
         style="fill:url(#linear-gradient-59)" />
      <path
         class="cls-63"
         d="m 201.28,225.92 50.87,3.27 v 0 l 0.19,0.28 c 0,0 -24.51,23.8 -50.88,-3.27 z"
         id="path204"
         style="fill:url(#linear-gradient-60)" />
      <path
         class="cls-64"
         d="m 172.24,235.52 c 0,0 32.25,-17.31 51.4,18.29 l 0.11,0.35 c 0,0 -32.24,17.3 -51.4,-18.3 z"
         id="path206"
         style="fill:url(#linear-gradient-61)" />
      <path
         class="cls-65"
         d="m 172.24,235.52 51.39,18.28 v 0 l 0.11,0.35 c 0,0 -32.24,17.3 -51.4,-18.3 z"
         id="path208"
         style="fill:url(#linear-gradient-62)" />
      <path
         class="cls-1"
         d="m 246,242.75 c 1.14,8.11 -1.59,22.89 -5.21,30.64 l 40.09,4.09 1.91,-24.78 z"
         id="path210" />
      <path
         class="cls-66"
         d="m 281.7,278.41 -42.14,-4.3 0.5,-1.08 c 3.71,-7.94 6.2,-22.6 5.14,-30.16 l -0.18,-1.28 38.71,10.48 z m -39.61,-5.75 38,3.88 1.79,-23.2 L 247,243.9 c 0.79,8.39 -1.79,21.36 -4.91,28.76 z"
         id="path212" />
      <path
         class="cls-1"
         d="m 65.11,242.52 c -1.12,8.12 1.6,22.9 5.21,30.64 l -40.08,4.1 -1.91,-24.78 z"
         id="path214" />
      <path
         class="cls-66"
         d="m 29.46,278.19 -2,-26.34 38.7,-10.48 -0.16,1.27 c -1.06,7.59 1.44,22.25 5.14,30.16 l 0.5,1.09 z m -0.23,-25.07 1.77,23.2 38.05,-3.88 c -3.41,-8 -5.62,-20.92 -4.94,-28.77 z"
         id="path216" />
      <path
         class="cls-1"
         d="m 44.1,245.12 c -4.79,2.88 -12.11,4 -17.58,4 0.43,10.13 -1,27.74 -5.53,36.13 4,0 50.05,-1.18 49.62,-11.06 -0.18,-4.15 -7,-4.72 -10.94,-4.44 -27.69,3.48 -35.76,-3.3 -24.07,-11.53 z"
         id="path218" />
      <path
         class="cls-66"
         d="m 19.57,286.09 0.68,-1.25 c 4.44,-8.21 5.84,-25.82 5.42,-35.7 v -0.89 h 1 c 5.15,0 12.3,-1 17,-3.87 l 1.15,1.2 -8.73,13.32 c -3.66,2.58 -5.36,5.07 -4.68,6.84 1.14,2.94 9.19,5.54 28.15,3.15 1.78,-0.12 7.61,-0.31 10.43,2.2 a 4.24,4.24 0 0 1 1.47,3.05 4.42,4.42 0 0 1 -1.38,3.3 c -7.72,8.08 -48.68,8.65 -49.09,8.65 z M 27.4,250 c 0.28,9.15 -0.84,25.4 -5,34.43 9.87,-0.17 40.46,-1.82 46.47,-8.11 a 2.75,2.75 0 0 0 0.91,-2 2.53,2.53 0 0 0 -0.91,-1.86 c -1.84,-1.65 -6.06,-2 -9.12,-1.77 -17.11,2.15 -28,0.61 -29.91,-4.24 -0.7,-1.82 -0.37,-4.81 5.15,-8.74 l 6.73,-10.35 A 41.53,41.53 0 0 1 27.4,250 Z"
         id="path220" />
      <path
         class="cls-1"
         d="m 267.13,245.18 c 4.8,2.87 12.11,4 17.58,4 -0.43,10.14 1,27.74 5.53,36.14 -4,0 -50,-1.19 -49.62,-11.07 0.18,-4.15 6.95,-4.72 10.95,-4.44 27.68,3.48 35.76,-3.3 24.06,-11.53 z"
         id="path222" />
      <path
         class="cls-66"
         d="m 291.67,286.15 h -1.43 c -0.41,0 -41.32,-0.54 -49.09,-8.65 a 4.45,4.45 0 0 1 -1.38,-3.3 4.22,4.22 0 0 1 1.48,-3.06 c 2.81,-2.51 8.66,-2.32 10.38,-2.2 19,2.39 27.05,-0.2 28.2,-3.15 0.68,-1.77 -1,-4.26 -4.68,-6.84 l -0.23,-0.23 -8.5,-13.08 1.15,-1.19 c 4.76,2.85 11.93,3.86 17.08,3.86 h 1 v 0.89 c -0.42,9.88 1,27.48 5.43,35.69 z m -41.84,-15.57 c -2.75,0 -5.92,0.46 -7.45,1.83 a 2.55,2.55 0 0 0 -0.91,1.86 2.77,2.77 0 0 0 0.91,2.05 c 6,6.31 37.41,7.94 46.48,8.11 -4.18,-9 -5.31,-25.27 -5,-34.43 a 41.69,41.69 0 0 1 -14.29,-2.68 l 6.72,10.34 c 5.53,3.93 5.86,6.92 5.15,8.75 -1.88,4.84 -12.79,6.38 -30,4.22 -0.44,-0.03 -1.04,-0.05 -1.61,-0.05 z"
         id="path224" />
      <path
         class="cls-1"
         d="m 280.74,265.75 c 1.7,-14.08 -65.78,-28 -124.61,-28.54 -62.8,-0.59 -126.74,17.19 -125.75,28.62 -1.69,-21.38 0.84,-39.91 5.39,-47 21.81,-13.2 67.54,-23.19 120.36,-23.19 52.82,0 97.66,9.84 119.5,23 4.29,6.48 7.48,24.4 5.32,46.46 z"
         id="path226" />
      <path
         class="cls-66"
         d="m 281.55,266 -1.65,-0.36 a 5,5 0 0 0 -1.53,-3.83 C 267.9,249.88 209.63,238.56 156.12,238.05 A 368.94,368.94 0 0 0 77,246.12 c -22.33,4.83 -39.32,11.2 -44.34,16.63 a 4.18,4.18 0 0 0 -1.42,3 v 0 l -1.69,0.14 c -1.63,-20.7 0.58,-39.78 5.52,-47.5 l 0.11,-0.17 0.17,-0.1 c 23.39,-14.16 70.81,-23.31 120.8,-23.31 49.56,0 96.64,9.08 119.94,23.13 l 0.27,0.26 c 4.36,6.57 7.63,24.84 5.46,47 v 0.17 z M 36.38,219.43 c -4.33,7 -6.46,24.12 -5.4,42.65 a 6.4,6.4 0 0 1 0.42,-0.49 c 11,-11.86 69,-25.77 124.74,-25.23 53.9,0.51 112.77,12.11 123.51,24.34 a 8.76,8.76 0 0 1 0.74,0.95 c 1.51,-20.07 -1.44,-36.27 -5.36,-42.39 -23.11,-13.85 -69.74,-22.79 -118.9,-22.79 -49.58,0 -96.54,9.01 -119.75,22.96 z"
         id="path228" />
      <path
         class="cls-66"
         d="m 67.76,217.86 c -0.55,0.12 -1.13,0.27 -1.74,0.44 a 10,10 0 0 0 -2.86,1.17 3.52,3.52 0 0 0 -1.3,1.75 7.3,7.3 0 0 0 -0.35,2.66 h -0.3 l -0.84,-4.83 17.54,-3.93 1.3,4.73 -0.29,0.09 a 6.26,6.26 0 0 0 -1.71,-2.48 4.16,4.16 0 0 0 -2.47,-0.84 16.51,16.51 0 0 0 -4.16,0.56 l 3,13.22 a 9.54,9.54 0 0 0 0.58,1.93 2.21,2.21 0 0 0 0.79,0.93 2.33,2.33 0 0 0 1,0.37 4.25,4.25 0 0 0 1.24,-0.07 l 0.07,0.3 -8.28,1.86 -0.07,-0.3 A 4.54,4.54 0 0 0 70,235 a 2.22,2.22 0 0 0 1,-1.9 9.16,9.16 0 0 0 -0.29,-2 z"
         id="path230" />
      <path
         class="cls-66"
         d="m 85.77,222.56 a 4,4 0 0 1 0.83,-1.43 4.21,4.21 0 0 1 2.32,-1.23 2,2 0 0 1 1.37,0.13 1.08,1.08 0 0 1 0.56,0.76 0.85,0.85 0 0 1 -0.13,0.65 0.87,0.87 0 0 1 -0.58,0.35 1.06,1.06 0 0 1 -0.84,-0.22 l -0.49,-0.37 a 1.52,1.52 0 0 0 -1.22,-0.3 q -0.9,0.16 -1.17,1.41 a 8.39,8.39 0 0 0 0.09,3.28 L 87,228 l 0.2,1 a 6,6 0 0 0 0.34,1.28 1.43,1.43 0 0 0 0.53,0.61 2.76,2.76 0 0 0 1.45,0.28 l 0.05,0.28 -5.77,1.07 v -0.27 a 3.58,3.58 0 0 0 1.07,-0.5 1.37,1.37 0 0 0 0.42,-0.75 3,3 0 0 0 0,-0.94 c 0,-0.41 -0.12,-1 -0.27,-1.76 l -0.6,-3.2 a 16.92,16.92 0 0 0 -0.41,-1.87 2,2 0 0 0 -0.45,-0.82 1.35,1.35 0 0 0 -0.63,-0.43 2.35,2.35 0 0 0 -0.94,0 v -0.28 l 3.28,-1.09 a 10.92,10.92 0 0 1 0.5,1.95 z"
         id="path232" />
      <path
         class="cls-66"
         d="m 103.75,229.37 a 7.77,7.77 0 0 1 -0.42,-1.61 5.39,5.39 0 0 1 -3.64,2.24 4.14,4.14 0 0 1 -2.76,-0.39 2.75,2.75 0 0 1 -1.31,-2.08 l -0.7,-4.57 -0.16,-1 A 6.24,6.24 0 0 0 94.45,220.68 1.57,1.57 0 0 0 94,220 2.7,2.7 0 0 0 92.56,219.69 l -0.05,-0.29 3.86,-0.59 1,6.65 a 14.52,14.52 0 0 0 0.42,2.07 2.87,2.87 0 0 0 0.53,1.05 2,2 0 0 0 0.93,0.58 2.85,2.85 0 0 0 1.24,0.07 3.44,3.44 0 0 0 1.34,-0.5 2.54,2.54 0 0 0 0.88,-0.94 2.94,2.94 0 0 0 0.33,-1.26 14,14 0 0 0 -0.22,-2.22 l -0.39,-2.57 -0.16,-1 a 5.9,5.9 0 0 0 -0.3,-1.28 1.43,1.43 0 0 0 -0.51,-0.63 2.63,2.63 0 0 0 -1.44,-0.32 v -0.29 l 3.86,-0.59 1.09,7.12 a 15.23,15.23 0 0 0 0.37,1.88 2.18,2.18 0 0 0 0.42,0.85 1.45,1.45 0 0 0 0.63,0.44 2.37,2.37 0 0 0 0.93,0.07 l 0.05,0.27 z"
         id="path234" />
      <path
         class="cls-66"
         d="m 111.2,220.84 a 8.1,8.1 0 0 0 0.06,0.94 7.38,7.38 0 0 0 0.59,2.21 5.58,5.58 0 0 0 1.15,1.71 4.15,4.15 0 0 0 1.6,1 4.07,4.07 0 0 0 1.89,0.21 3.74,3.74 0 0 0 1.32,-0.39 3.08,3.08 0 0 0 1,-0.78 3.92,3.92 0 0 0 0.65,-1.57 l 0.28,0.06 a 3.74,3.74 0 0 1 -1.2,2.5 5.3,5.3 0 0 1 -2.91,1.13 6.84,6.84 0 0 1 -2.84,-0.2 4.91,4.91 0 0 1 -2.15,-1.35 6,6 0 0 1 -1.55,-3.54 5.64,5.64 0 0 1 1.59,-4.9 5.56,5.56 0 0 1 3.38,-1.64 5.12,5.12 0 0 1 2,0.15 4.22,4.22 0 0 1 1.64,0.92 4.08,4.08 0 0 1 1.28,2.66 z m 5.69,-1.18 a 5,5 0 0 0 -0.72,-2 2.81,2.81 0 0 0 -1.06,-0.91 2.37,2.37 0 0 0 -1.3,-0.23 2.59,2.59 0 0 0 -1.87,1.2 4.39,4.39 0 0 0 -0.72,2.58 z"
         id="path236" />
      <path
         class="cls-66"
         d="m 136.32,214.77 4.74,5.94 a 27.32,27.32 0 0 0 1.17,-2.72 4.39,4.39 0 0 0 0.3,-1.6 c 0,-0.85 -0.68,-1.34 -1.92,-1.45 v -0.28 l 5.16,-0.25 v 0.26 a 3.62,3.62 0 0 0 -1,0.26 2.32,2.32 0 0 0 -0.7,0.5 10,10 0 0 0 -1.54,2.79 l -0.37,0.87 c -0.2,0.49 -0.49,1.13 -0.88,1.92 0.36,0.42 0.77,0.88 1.25,1.36 0.48,0.48 0.91,0.89 1.28,1.2 a 7.18,7.18 0 0 0 1.37,0.94 2.31,2.31 0 0 0 1.11,0.26 1.44,1.44 0 0 0 0.94,-0.37 2.62,2.62 0 0 0 0.62,-1.06 l 0.27,0.1 a 2.76,2.76 0 0 1 -2.74,2.39 4.45,4.45 0 0 1 -1.54,-0.2 5.16,5.16 0 0 1 -1.48,-0.7 12.44,12.44 0 0 1 -2.16,-1.91 15.7,15.7 0 0 1 -0.89,1.33 5.36,5.36 0 0 1 -3.91,2 5.75,5.75 0 0 1 -2.1,-0.3 4.31,4.31 0 0 1 -1.69,-1 4.45,4.45 0 0 1 -1.34,-3.13 5.64,5.64 0 0 1 1,-3.5 7.06,7.06 0 0 1 1,-1.2 17.79,17.79 0 0 1 1.67,-1.34 l 0.21,-0.15 a 16.62,16.62 0 0 1 -1.26,-1.79 6.27,6.27 0 0 1 -1,-2.76 3.53,3.53 0 0 1 0.3,-1.54 3.28,3.28 0 0 1 1.3,-1.58 4.35,4.35 0 0 1 2.14,-0.63 4.08,4.08 0 0 1 2.75,0.77 2.88,2.88 0 0 1 1.18,2.25 3.19,3.19 0 0 1 -0.46,1.86 5.68,5.68 0 0 1 -1.69,1.66 z m -1.85,1.23 a 4.59,4.59 0 0 0 -1.61,2 5.82,5.82 0 0 0 -0.48,2.72 6.18,6.18 0 0 0 0.41,2 5.17,5.17 0 0 0 0.94,1.58 3.65,3.65 0 0 0 1.26,0.87 3.54,3.54 0 0 0 1.51,0.26 3.41,3.41 0 0 0 2.16,-0.88 4,4 0 0 0 0.62,-0.68 10.78,10.78 0 0 0 0.68,-1.08 z m 1.59,-1.55 a 6.66,6.66 0 0 0 0.89,-0.91 3.92,3.92 0 0 0 0.5,-0.91 4.94,4.94 0 0 0 0.37,-2.13 3.28,3.28 0 0 0 -0.74,-2.08 2.08,2.08 0 0 0 -1.75,-0.7 2,2 0 0 0 -1.46,0.67 2.15,2.15 0 0 0 -0.49,1.58 2.85,2.85 0 0 0 0.28,1.12 9.9,9.9 0 0 0 1,1.53 c 0.4,0.65 0.88,1.27 1.4,1.87 z"
         id="path238" />
      <path
         class="cls-66"
         d="m 164.28,215.88 -0.14,5.3 a 9.75,9.75 0 0 0 0.1,2 2.27,2.27 0 0 0 0.52,1.09 2.18,2.18 0 0 0 0.83,0.59 4.37,4.37 0 0 0 1.24,0.25 v 0.31 l -8.48,-0.22 v -0.3 a 3.48,3.48 0 0 0 1.21,-0.18 2.13,2.13 0 0 0 0.9,-0.53 2.42,2.42 0 0 0 0.56,-1.11 9.48,9.48 0 0 0 0.21,-2 l 0.25,-9.78 a 15.19,15.19 0 0 0 0,-1.77 2.18,2.18 0 0 0 -1.09,-1.77 3.75,3.75 0 0 0 -1.55,-0.4 v -0.3 l 13.87,0.35 0.28,4.33 -0.31,0.05 a 8.71,8.71 0 0 0 -0.57,-1.53 4.38,4.38 0 0 0 -1.71,-1.83 4.51,4.51 0 0 0 -1.48,-0.56 15.45,15.45 0 0 0 -2.34,-0.21 l -2.06,-0.05 -0.19,7.84 h 0.53 a 4.74,4.74 0 0 0 3.44,-1 3,3 0 0 0 0.73,-1.05 6.33,6.33 0 0 0 0.36,-1.61 h 0.3 l -0.28,8.05 h -0.32 a 6.48,6.48 0 0 0 -0.45,-2.1 2.77,2.77 0 0 0 -1,-1.22 4,4 0 0 0 -1.3,-0.52 11,11 0 0 0 -2.06,-0.12 z"
         id="path240" />
      <path
         class="cls-66"
         d="m 185.5,225.16 0.21,0.15 a 2.06,2.06 0 0 1 -2.28,1.24 2.5,2.5 0 0 1 -1.53,-0.57 3.47,3.47 0 0 1 -0.78,-1.12 9.24,9.24 0 0 1 -1.41,1 4.11,4.11 0 0 1 -2,0.34 3.52,3.52 0 0 1 -2.26,-0.86 2.31,2.31 0 0 1 -0.73,-2 2.6,2.6 0 0 1 0.82,-1.8 3.41,3.41 0 0 1 1,-0.59 9.46,9.46 0 0 1 1.54,-0.4 c 0.78,-0.14 1.35,-0.26 1.73,-0.37 a 3.48,3.48 0 0 0 1,-0.42 1.58,1.58 0 0 0 0.64,-0.67 3.33,3.33 0 0 0 0.23,-1.13 3.59,3.59 0 0 0 -0.43,-2.31 2,2 0 0 0 -0.64,-0.57 2,2 0 0 0 -0.86,-0.26 1.79,1.79 0 0 0 -1,0.21 1.68,1.68 0 0 0 -0.69,0.73 l -0.39,0.74 a 0.94,0.94 0 0 1 -1,0.56 1,1 0 0 1 -0.74,-0.35 1,1 0 0 1 -0.25,-0.77 c 0,-0.45 0.37,-0.81 1,-1.07 a 5.74,5.74 0 0 1 1.31,-0.31 8.46,8.46 0 0 1 1.5,0 7.61,7.61 0 0 1 1.7,0.33 5.77,5.77 0 0 1 1.45,0.65 2.11,2.11 0 0 1 1,1.34 5.7,5.7 0 0 1 0,1.35 l -0.33,4.9 a 8.54,8.54 0 0 0 0,1.7 1.06,1.06 0 0 0 1,1 1.17,1.17 0 0 0 0.66,-0.11 2.22,2.22 0 0 0 0.53,-0.56 z m -4,-5.52 a 8.52,8.52 0 0 1 -1.64,0.94 14.68,14.68 0 0 0 -1.39,0.69 3.9,3.9 0 0 0 -0.71,0.59 2.81,2.81 0 0 0 -0.75,1.75 2.15,2.15 0 0 0 0.39,1.48 1.53,1.53 0 0 0 1.18,0.65 2.11,2.11 0 0 0 1.25,-0.32 2.57,2.57 0 0 0 0.94,-1 6.35,6.35 0 0 0 0.58,-2.55 z"
         id="path242" />
      <path
         class="cls-66"
         d="m 188.05,215.67 3.85,-0.1 -0.75,7.61 -0.09,1 a 5.92,5.92 0 0 0 0,1.32 1.34,1.34 0 0 0 0.34,0.73 2.75,2.75 0 0 0 1.31,0.68 v 0.28 l -5.84,-0.58 v -0.28 a 3.63,3.63 0 0 0 1.16,-0.18 1.42,1.42 0 0 0 0.62,-0.6 2.76,2.76 0 0 0 0.3,-0.89 c 0.08,-0.41 0.16,-1 0.23,-1.77 l 0.32,-3.24 a 17.68,17.68 0 0 0 0.12,-1.91 2.05,2.05 0 0 0 -0.2,-0.92 1.42,1.42 0 0 0 -0.49,-0.58 2.48,2.48 0 0 0 -0.89,-0.3 z m 3.26,-4.95 a 1.2,1.2 0 0 1 -0.82,-0.42 1.15,1.15 0 0 1 -0.26,-0.87 1.18,1.18 0 0 1 0.43,-0.79 1.2,1.2 0 0 1 0.89,-0.25 1.15,1.15 0 0 1 0.81,0.42 1.12,1.12 0 0 1 0.27,0.86 1.17,1.17 0 0 1 -0.42,0.8 1.22,1.22 0 0 1 -0.9,0.25 z"
         id="path244" />
      <path
         class="cls-66"
         d="m 199.43,216.62 3.36,0.41 -0.07,0.5 -3.35,-0.41 -0.94,7.67 a 3.26,3.26 0 0 0 0.23,2 1.7,1.7 0 0 0 0.6,0.59 2,2 0 0 0 0.85,0.29 1.86,1.86 0 0 0 1,-0.12 3.35,3.35 0 0 0 1,-0.78 l 0.18,0.19 a 2.81,2.81 0 0 1 -1.36,1 4.62,4.62 0 0 1 -2,0.14 3.49,3.49 0 0 1 -2.19,-0.89 1.49,1.49 0 0 1 -0.41,-0.82 7.65,7.65 0 0 1 0.08,-1.6 l 1,-8 -1.41,-0.09 v -0.21 a 3.79,3.79 0 0 0 1.71,-0.88 5.1,5.1 0 0 0 0.82,-0.88 6.53,6.53 0 0 0 0.66,-1.18 l 0.19,-0.42 0.49,0.06 z"
         id="path246" />
      <path
         class="cls-66"
         d="m 209.68,210.57 -1.43,9 a 7.59,7.59 0 0 1 1,-0.75 3.87,3.87 0 0 1 0.94,-0.42 5,5 0 0 1 2.25,-0.12 4.86,4.86 0 0 1 2.46,1 2.46,2.46 0 0 1 0.81,1.28 5.42,5.42 0 0 1 0,2 l -0.6,3.82 -0.15,1 a 5.86,5.86 0 0 0 -0.1,1.32 1.42,1.42 0 0 0 0.3,0.75 2.61,2.61 0 0 0 1.26,0.75 v 0.28 l -5.79,-0.92 v -0.28 a 4.48,4.48 0 0 0 1,-0.06 1.46,1.46 0 0 0 0.6,-0.36 2.1,2.1 0 0 0 0.47,-0.84 12.1,12.1 0 0 0 0.36,-1.65 l 0.66,-4.16 a 6,6 0 0 0 0.09,-1.51 2.59,2.59 0 0 0 -0.33,-1 2.4,2.4 0 0 0 -1.76,-1.07 q -3.17,-0.49 -4,4.5 l -0.34,2.1 -0.14,1 a 5.93,5.93 0 0 0 -0.1,1.32 1.32,1.32 0 0 0 0.3,0.75 2.56,2.56 0 0 0 1.26,0.75 v 0.28 l -5.8,-0.92 v -0.28 a 3.35,3.35 0 0 0 1.18,-0.11 1.39,1.39 0 0 0 0.66,-0.56 3.09,3.09 0 0 0 0.34,-0.88 17,17 0 0 0 0.34,-1.75 L 207,214.52 a 18.34,18.34 0 0 0 0.24,-1.9 2.21,2.21 0 0 0 -0.15,-0.94 1.43,1.43 0 0 0 -0.45,-0.61 2.78,2.78 0 0 0 -0.88,-0.34 l 0.05,-0.28 z"
         id="path248" />
      <path
         class="cls-66"
         d="m 224.05,221.08 -1.33,6.8 -0.19,1 a 5.77,5.77 0 0 0 -0.14,1.31 1.33,1.33 0 0 0 0.27,0.77 2.72,2.72 0 0 0 1.24,0.79 l -0.06,0.27 -5.76,-1.12 v -0.28 a 3.32,3.32 0 0 0 1.18,-0.07 1.37,1.37 0 0 0 0.74,-0.55 2.84,2.84 0 0 0 0.37,-0.86 c 0.12,-0.4 0.26,-1 0.41,-1.74 l 1.31,-6.72 -1.89,-0.37 0.1,-0.49 1.89,0.37 0.62,-3.19 a 4.58,4.58 0 0 1 0.65,-1.75 3.29,3.29 0 0 1 1.3,-1 5.4,5.4 0 0 1 1.81,-0.45 8.19,8.19 0 0 1 2.14,0.13 3.41,3.41 0 0 1 1.56,0.67 1.1,1.1 0 0 1 0.43,1.06 0.93,0.93 0 0 1 -0.39,0.6 0.83,0.83 0 0 1 -0.67,0.14 1.07,1.07 0 0 1 -0.57,-0.31 2.17,2.17 0 0 1 -0.4,-0.72 3.26,3.26 0 0 0 -0.45,-0.91 1,1 0 0 0 -0.6,-0.31 2.31,2.31 0 0 0 -1,0 1.89,1.89 0 0 0 -0.79,0.39 2.28,2.28 0 0 0 -0.57,0.89 10.86,10.86 0 0 0 -0.43,1.69 l -0.68,3.45 2.57,0.51 -0.1,0.49 z"
         id="path250" />
      <path
         class="cls-66"
         d="m 236,235 a 7.86,7.86 0 0 1 0.21,-1.66 5.38,5.38 0 0 1 -4.21,0.66 4.12,4.12 0 0 1 -2.41,-1.39 2.74,2.74 0 0 1 -0.45,-2.42 l 1,-4.5 0.22,-1 a 6.62,6.62 0 0 0 0.19,-1.31 1.48,1.48 0 0 0 -0.23,-0.77 2.8,2.8 0 0 0 -1.23,-0.83 l 0.07,-0.28 3.8,0.88 -1.47,6.62 a 17,17 0 0 0 -0.38,2.07 2.85,2.85 0 0 0 0.11,1.17 1.93,1.93 0 0 0 0.65,0.89 2.87,2.87 0 0 0 1.13,0.52 3.4,3.4 0 0 0 1.42,0 2.49,2.49 0 0 0 1.17,-0.54 2.92,2.92 0 0 0 0.77,-1 A 13.72,13.72 0 0 0 237,230 l 0.59,-2.54 0.21,-0.95 a 6.1,6.1 0 0 0 0.2,-1.31 1.32,1.32 0 0 0 -0.24,-0.77 2.58,2.58 0 0 0 -1.22,-0.83 l 0.06,-0.29 3.81,0.89 -1.63,7 a 16.93,16.93 0 0 0 -0.36,1.89 2.1,2.1 0 0 0 0.08,0.93 1.39,1.39 0 0 0 0.42,0.65 2.34,2.34 0 0 0 0.84,0.41 l -0.06,0.27 z"
         id="path252" />
      <path
         class="cls-66"
         d="m 246.27,218.54 3.82,0.52 -3.8,14.32 -0.25,1 a 6,6 0 0 0 -0.23,1.31 1.39,1.39 0 0 0 0.21,0.78 2.82,2.82 0 0 0 1.19,0.87 l -0.07,0.27 -5.68,-1.5 0.07,-0.27 a 3.55,3.55 0 0 0 1.19,0 1.33,1.33 0 0 0 0.7,-0.49 2.89,2.89 0 0 0 0.44,-0.84 q 0.21,-0.57 0.51,-1.71 l 2.68,-10.06 a 17.73,17.73 0 0 0 0.42,-1.86 2,2 0 0 0 -0.05,-0.95 1.37,1.37 0 0 0 -0.39,-0.65 2.44,2.44 0 0 0 -0.83,-0.43 z"
         id="path254" />
    </g>
  </g>
</svg>
