<?xml version="1.0" encoding="UTF-8" standalone="no"?>
<!-- Created with Inkscape (http://www.inkscape.org/) -->

<svg
   xmlns:dc="http://purl.org/dc/elements/1.1/"
   xmlns:cc="http://creativecommons.org/ns#"
   xmlns:rdf="http://www.w3.org/1999/02/22-rdf-syntax-ns#"
   xmlns:svg="http://www.w3.org/2000/svg"
   xmlns="http://www.w3.org/2000/svg"
   xmlns:sodipodi="http://sodipodi.sourceforge.net/DTD/sodipodi-0.dtd"
   xmlns:inkscape="http://www.inkscape.org/namespaces/inkscape"
   width="53.36039mm"
   height="53.360401mm"
   viewBox="0 0 53.36039 53.360401"
   version="1.1"
   id="svg165510"
   inkscape:version="0.92.4 (unknown)"
   sodipodi:docname="horsham-college.svg">
  <defs
     id="defs165504" />
  <sodipodi:namedview
     id="base"
     pagecolor="#ffffff"
     bordercolor="#666666"
     borderopacity="1.0"
     inkscape:pageopacity="0.0"
     inkscape:pageshadow="2"
     inkscape:zoom="3.959798"
     inkscape:cx="74.039149"
     inkscape:cy="69.214446"
     inkscape:document-units="mm"
     inkscape:current-layer="layer1"
     showgrid="false"
     fit-margin-top="0"
     fit-margin-left="0"
     fit-margin-right="0"
     fit-margin-bottom="0"
     inkscape:pagecheckerboard="true"
     inkscape:window-width="1920"
     inkscape:window-height="1009"
     inkscape:window-x="1920"
     inkscape:window-y="24"
     inkscape:window-maximized="1" />
  <metadata
     id="metadata165507">
    <rdf:RDF>
      <cc:Work
         rdf:about="">
        <dc:format>image/svg+xml</dc:format>
        <dc:type
           rdf:resource="http://purl.org/dc/dcmitype/StillImage" />
        <dc:title></dc:title>
      </cc:Work>
    </rdf:RDF>
  </metadata>
  <g
     inkscape:label="Layer 1"
     inkscape:groupmode="layer"
     id="layer1"
     transform="translate(-396.5066,-317.39004)">
    <g
       id="g169680">
      <path
         id="path167289"
         d="m 449.86699,344.07024 c 0,14.73537 -11.94483,26.6802 -26.6802,26.6802 -14.73536,0 -26.68019,-11.94483 -26.68019,-26.6802 0,-14.73536 11.94483,-26.6802 26.68019,-26.6802 14.73537,0 26.6802,11.94484 26.6802,26.6802"
         style="fill:#f0c542;fill-opacity:1;fill-rule:nonzero;stroke:none;stroke-width:0.35277778"
         inkscape:connector-curvature="0" />
      <path
         id="path167291"
         d="m 447.72828,344.1543 c 0,13.50753 -10.94989,24.45605 -24.45743,24.45605 -13.50615,0 -24.45604,-10.94852 -24.45604,-24.45605 0,-13.50615 10.94989,-24.45604 24.45604,-24.45604 13.50754,0 24.45743,10.94989 24.45743,24.45604"
         style="fill:#1c2147;fill-opacity:1;fill-rule:nonzero;stroke:none;stroke-width:0.35277778"
         inkscape:connector-curvature="0" />
      <path
         id="path167293"
         d="m 438.46648,344.02339 c 0,8.45427 -6.85298,15.30725 -15.30587,15.30725 -8.45288,0 -15.30587,-6.85298 -15.30587,-15.30725 0,-8.45289 6.85299,-15.30587 15.30587,-15.30587 8.45289,0 15.30587,6.85298 15.30587,15.30587"
         style="fill:#fdfdfd;fill-opacity:1;fill-rule:nonzero;stroke:none;stroke-width:0.35277778"
         inkscape:connector-curvature="0" />
      <path
         id="path167295"
         d="m 438.46648,344.02339 h -0.0882 c 0,4.20301 -1.70326,8.0064 -4.45658,10.7611 -2.7547,2.7547 -6.55808,4.45795 -10.7611,4.45795 -4.20164,0 -8.0064,-1.70325 -10.75972,-4.45795 -2.7547,-2.7547 -4.45796,-6.55809 -4.45796,-10.7611 0,-4.20164 1.70326,-8.00502 4.45796,-10.75972 2.75332,-2.7547 6.55808,-4.45796 10.75972,-4.45796 4.20302,0 8.0064,1.70326 10.7611,4.45796 2.75332,2.7547 4.45658,6.55808 4.45658,10.75972 h 0.17639 c 0,-8.50112 -6.89157,-15.39407 -15.39407,-15.39407 -8.50112,0 -15.39406,6.89295 -15.39406,15.39407 0,8.50249 6.89294,15.39544 15.39406,15.39544 8.5025,0 15.39407,-6.89295 15.39407,-15.39544"
         style="fill:#fdfdfd;fill-opacity:1;fill-rule:nonzero;stroke:none;stroke-width:0.35277778"
         inkscape:connector-curvature="0" />
      <path
         id="path167297"
         d="m 415.35816,338.60908 v -7.11068 l 7.76938,3.68763 v 7.24297"
         style="fill:#e6ca42;fill-opacity:1;fill-rule:nonzero;stroke:none;stroke-width:0.35277778"
         inkscape:connector-curvature="0" />
      <path
         id="path167299"
         d="m 430.90932,338.61872 v -7.11205 l -7.76938,3.68763 v 7.24297"
         style="fill:#2b3063;fill-opacity:1;fill-rule:nonzero;stroke:none;stroke-width:0.35277778"
         inkscape:connector-curvature="0" />
      <path
         id="path167301"
         d="m 415.35816,346.90625 v -7.11068 l 7.76938,3.68625 v 7.24297"
         style="fill:#e6ca42;fill-opacity:1;fill-rule:nonzero;stroke:none;stroke-width:0.35277778"
         inkscape:connector-curvature="0" />
      <path
         id="path167303"
         d="m 430.90932,346.91451 v -7.11205 l -7.76938,3.68763 v 7.24297"
         style="fill:#1c2147;fill-opacity:1;fill-rule:nonzero;stroke:none;stroke-width:0.35277778"
         inkscape:connector-curvature="0" />
      <path
         id="path167305"
         d="m 415.35816,355.20203 v -7.11067 l 7.76938,3.68763 v 7.24297"
         style="fill:#e6ca42;fill-opacity:1;fill-rule:nonzero;stroke:none;stroke-width:0.35277778"
         inkscape:connector-curvature="0" />
      <path
         id="path167307"
         d="m 430.90932,355.2103 v -7.11067 l -7.76938,3.68763 v 7.24159"
         style="fill:#2b3063;fill-opacity:1;fill-rule:nonzero;stroke:none;stroke-width:0.35277778"
         inkscape:connector-curvature="0" />
      <path
         id="path167309"
         d="m 401.21535,338.85161 0.76206,-1.75424 1.86586,0.81166 0.83371,-1.91685 -1.86586,-0.81028 0.76481,-1.76251 5.33163,2.31648 -0.76481,1.76251 -2.15663,-0.93707 -0.83371,1.91685 2.15663,0.93707 -0.76206,1.75424"
         style="fill:#fdfdfd;fill-opacity:1;fill-rule:nonzero;stroke:none;stroke-width:0.35277778"
         inkscape:connector-curvature="0" />
      <path
         id="path167311"
         d="m 401.21535,338.85161 0.04,0.0179 0.74551,-1.71428 1.86587,0.81167 0.86816,-1.99816 -1.86586,-0.81028 0.73036,-1.68121 5.25032,2.28203 -0.73036,1.68121 -2.15663,-0.93707 -0.86816,1.99678 2.15663,0.93706 -0.7276,1.67432 -5.29029,-2.29995 -0.0179,0.04 0.04,0.0179 -0.04,-0.0179 -0.0179,0.0413 5.37297,2.3344 0.79651,-1.83555 -2.15663,-0.93706 0.79788,-1.83555 2.15663,0.93706 0.80064,-1.84244 -5.41293,-2.3523 -0.80064,1.84243 1.86586,0.81167 -0.79788,1.83554 -1.86449,-0.81166 -0.79788,1.83554 0.04,0.0179"
         style="fill:#fdfdfd;fill-opacity:1;fill-rule:nonzero;stroke:none;stroke-width:0.35277778"
         inkscape:connector-curvature="0" />
      <path
         id="path167313"
         d="m 409.62001,358.31916 c -0.38861,0.43959 -0.58153,0.83233 -0.5774,1.17822 0.004,0.34589 0.15572,0.65181 0.45475,0.9164 0.3073,0.27285 0.62977,0.38998 0.96463,0.35002 0.33486,-0.0386 0.71796,-0.30042 1.14928,-0.78824 0.36243,-0.40928 0.53882,-0.78686 0.53055,-1.13137 -0.008,-0.34451 -0.16261,-0.65043 -0.4644,-0.91777 -0.28939,-0.25494 -0.60634,-0.36518 -0.95085,-0.32798 -0.34451,0.0372 -0.71382,0.27837 -1.10656,0.72072 m -1.42627,-1.27331 c 0.62976,-0.71107 1.3298,-1.07762 2.10151,-1.09967 0.7717,-0.0234 1.53375,0.29903 2.28616,0.96462 0.7717,0.68351 1.19338,1.40422 1.26642,2.16215 0.073,0.75792 -0.19982,1.48828 -0.82131,2.18832 -0.44924,0.5085 -0.91089,0.84611 -1.3808,1.0101 -0.46991,0.16399 -0.95773,0.18328 -1.46347,0.0606 -0.50436,-0.12541 -1.01424,-0.41479 -1.52825,-0.86955 -0.52227,-0.46302 -0.88608,-0.92328 -1.09003,-1.38355 -0.20395,-0.45888 -0.2632,-0.95222 -0.17638,-1.48001 0.0868,-0.52641 0.35553,-1.04455 0.80615,-1.55305"
         style="fill:#fdfdfd;fill-opacity:1;fill-rule:nonzero;stroke:none;stroke-width:0.35277778"
         inkscape:connector-curvature="0" />
      <path
         id="path167315"
         d="m 409.62001,358.31916 -0.0331,-0.0289 c -0.3886,0.43959 -0.58842,0.83647 -0.58842,1.19614 v 0.0124 l 0.0441,-0.001 -0.0441,0.001 c 0.004,0.35829 0.16399,0.678 0.46991,0.94809 0.27423,0.24392 0.565,0.36932 0.86817,0.36932 0.0441,0 0.0868,-0.003 0.12953,-0.008 0.35554,-0.0413 0.74277,-0.31281 1.17822,-0.8034 0.35692,-0.40376 0.54157,-0.78272 0.54157,-1.13688 v -0.0248 c -0.008,-0.35828 -0.17087,-0.67661 -0.47955,-0.94946 -0.25907,-0.22876 -0.54433,-0.34589 -0.85025,-0.34589 -0.0441,0 -0.0896,0.003 -0.13367,0.007 -0.36243,0.04 -0.73863,0.28939 -1.13551,0.73587 l 0.0331,0.0289 0.0331,0.0303 c 0.38999,-0.44097 0.75103,-0.67248 1.079,-0.70693 0.0414,-0.004 0.0827,-0.007 0.12403,-0.007 0.28387,0 0.5457,0.10611 0.79237,0.32384 0.29352,0.26183 0.44097,0.55397 0.44924,0.88608 v 0.022 c 10e-4,0.32246 -0.1695,0.6835 -0.51952,1.079 -0.42857,0.48369 -0.80615,0.73863 -1.12172,0.77446 -0.04,0.004 -0.0799,0.007 -0.11989,0.007 -0.27699,0 -0.54571,-0.11437 -0.81029,-0.34726 -0.29214,-0.25907 -0.43546,-0.55121 -0.43959,-0.88332 v -0.011 c 0,-0.32522 0.18465,-0.70693 0.56637,-1.13688 z m -1.42627,-1.27331 0.0331,0.0289 c 0.62425,-0.70418 1.31189,-1.06247 2.06981,-1.08452 l 0.0799,-10e-4 c 0.73036,0 1.45521,0.31695 2.17592,0.95498 0.76619,0.678 1.18098,1.38906 1.25264,2.1332 0.007,0.0772 0.011,0.15434 0.011,0.23151 0,0.66146 -0.27148,1.30087 -0.82131,1.92374 -0.44787,0.50437 -0.90262,0.83648 -1.36426,0.99633 -0.26321,0.0923 -0.53193,0.1378 -0.80615,0.1378 -0.20671,0 -0.41755,-0.0248 -0.63115,-0.0785 -0.49609,-0.12126 -1.00045,-0.40652 -1.51033,-0.85851 -0.51952,-0.46027 -0.87781,-0.9164 -1.079,-1.3684 -0.14056,-0.31695 -0.21084,-0.64905 -0.21084,-0.99907 0,-0.14883 0.0124,-0.30042 0.0386,-0.45614 0.0854,-0.51676 0.34864,-1.02664 0.79512,-1.53099 l -0.0661,-0.0579 c -0.45476,0.51264 -0.72761,1.03767 -0.8158,1.5751 -0.0276,0.15986 -0.04,0.31558 -0.04,0.46992 0,0.36104 0.073,0.70693 0.21773,1.0349 0.20808,0.46716 0.57602,0.93293 1.10243,1.39871 0.51814,0.45889 1.03353,0.75241 1.54753,0.87919 0.21911,0.0537 0.43684,0.0799 0.65182,0.0799 0.28387,0 0.56361,-0.0469 0.83646,-0.14194 0.47956,-0.16812 0.94534,-0.50988 1.39871,-1.02251 0.56087,-0.63252 0.84474,-1.29535 0.84474,-1.98162 0,-0.0799 -0.004,-0.15985 -0.0124,-0.23977 -0.0744,-0.77309 -0.50436,-1.50344 -1.2802,-2.19109 -0.73174,-0.64768 -1.47725,-0.97703 -2.23517,-0.97703 l -0.0827,10e-4 c -0.78548,0.022 -1.4993,0.39825 -2.1332,1.11483"
         style="fill:#fdfdfd;fill-opacity:1;fill-rule:nonzero;stroke:none;stroke-width:0.35277778"
         inkscape:connector-curvature="0" />
      <path
         id="path167317"
         d="m 405.74221,355.52036 0.76894,1.5627 c -0.40376,0.21222 -0.7965,0.32797 -1.17822,0.34588 -0.38172,0.0193 -0.74827,-0.0537 -1.10105,-0.22048 -0.3514,-0.16537 -0.71383,-0.45475 -1.08452,-0.86541 -0.45199,-0.50023 -0.75103,-0.97014 -0.89986,-1.40973 -0.1502,-0.4396 -0.15572,-0.9288 -0.0207,-1.46761 0.13643,-0.54019 0.47267,-1.05145 1.00873,-1.53514 0.71382,-0.64354 1.44418,-0.93569 2.19246,-0.87781 0.74965,0.0593 1.45658,0.45889 2.12355,1.19752 0.52228,0.58015 0.82269,1.13412 0.90262,1.66329 0.0786,0.53054 -0.0372,1.08038 -0.34865,1.65227 l -1.39319,-1.01837 c 0.0923,-0.16261 0.14745,-0.2949 0.16536,-0.39825 0.0303,-0.17088 0.0207,-0.339 -0.0276,-0.50299 -0.0496,-0.16536 -0.1378,-0.31833 -0.26596,-0.46026 -0.28939,-0.32246 -0.6339,-0.45889 -1.03215,-0.41066 -0.29628,0.0317 -0.63803,0.22324 -1.02526,0.57189 -0.47818,0.43132 -0.73587,0.80339 -0.77446,1.11896 -0.0386,0.3142 0.0703,0.61185 0.32246,0.89159 0.24391,0.27286 0.50161,0.41341 0.77032,0.42306 0.26872,0.01 0.56776,-0.0772 0.89711,-0.26045"
         style="fill:#fdfdfd;fill-opacity:1;fill-rule:nonzero;stroke:none;stroke-width:0.35277778"
         inkscape:connector-curvature="0" />
      <path
         id="path167319"
         d="m 405.74221,355.52036 -0.04,0.0193 0.76895,1.5627 0.04,-0.0193 -0.0207,-0.0386 c -0.39825,0.20946 -0.7841,0.32246 -1.15893,0.34037 -0.0386,0.003 -0.0758,0.003 -0.113,0.003 -0.33486,0 -0.65594,-0.0717 -0.96738,-0.2191 -0.34589,-0.16123 -0.7028,-0.44649 -1.07211,-0.85576 -0.44786,-0.4961 -0.74414,-0.96187 -0.89022,-1.3932 -0.0772,-0.226 -0.11437,-0.4644 -0.11437,-0.71658 0,-0.23013 0.0317,-0.47267 0.0951,-0.72761 0.13367,-0.52916 0.4644,-1.03215 0.99495,-1.51171 0.64905,-0.58428 1.305,-0.87367 1.97473,-0.87367 0.062,0 0.12402,0.001 0.18603,0.007 0.73449,0.0579 1.43178,0.44924 2.09324,1.18373 0.51952,0.57465 0.81442,1.12173 0.89159,1.63987 0.0152,0.10473 0.0234,0.21084 0.0234,0.31833 0,0.4203 -0.12127,0.85576 -0.36656,1.30638 l 0.0386,0.0207 0.0262,-0.0358 -1.3932,-1.01699 -0.0262,0.0344 0.0386,0.0221 c 0.0937,-0.16536 0.15021,-0.30041 0.1695,-0.41203 0.0124,-0.0689 0.0193,-0.13643 0.0179,-0.20395 10e-4,-0.10886 -0.0152,-0.21498 -0.0455,-0.31971 -0.051,-0.17225 -0.14331,-0.33073 -0.27561,-0.47818 -0.25907,-0.28801 -0.56637,-0.43545 -0.91363,-0.43408 -0.051,0 -0.10336,0.003 -0.15572,0.01 -0.31282,0.0344 -0.66008,0.23151 -1.05007,0.58291 -0.48093,0.43546 -0.74689,0.81166 -0.78961,1.14652 -0.004,0.0427 -0.007,0.0854 -0.007,0.12816 -10e-4,0.28112 0.11575,0.54984 0.34037,0.79927 0.24943,0.27698 0.51814,0.42581 0.80202,0.43683 h 0.0427 c 0.26734,0 0.55948,-0.0896 0.87781,-0.26596 l -0.022,-0.0386 -0.04,0.0193 0.04,-0.0193 -0.022,-0.0386 c -0.3073,0.17225 -0.58566,0.25494 -0.83371,0.25494 h -0.04 c -0.25356,-0.01 -0.49885,-0.14194 -0.74001,-0.4079 -0.2136,-0.2384 -0.31695,-0.48231 -0.31695,-0.74001 0,-0.0386 0.003,-0.0786 0.007,-0.11713 0.0344,-0.2949 0.28525,-0.66421 0.76068,-1.09279 0.38309,-0.34451 0.71796,-0.52916 1.00045,-0.56086 0.0496,-0.005 0.0978,-0.008 0.14608,-0.008 0.32246,0 0.60082,0.13229 0.84749,0.40514 0.1254,0.1378 0.20946,0.28525 0.25631,0.44373 0.0289,0.0965 0.0427,0.19568 0.0441,0.2949 -0.001,0.062 -0.007,0.1254 -0.0179,0.18879 -0.0152,0.0937 -0.0689,0.22462 -0.15848,0.38447 l -0.0193,0.0331 1.46485,1.07211 0.0248,-0.0455 c 0.24942,-0.46027 0.3762,-0.90951 0.3762,-1.34772 0,-0.11162 -0.008,-0.22187 -0.0248,-0.33073 -0.0813,-0.54157 -0.38723,-1.10381 -0.91226,-1.68672 -0.67249,-0.74552 -1.39044,-1.15204 -2.1525,-1.21268 -0.0648,-0.004 -0.12953,-0.007 -0.19292,-0.007 -0.69591,0 -1.37529,0.3018 -2.03399,0.89711 -0.54019,0.48645 -0.88194,1.00597 -1.02113,1.5558 -0.0648,0.26045 -0.0978,0.50988 -0.0978,0.74828 0,0.26183 0.0386,0.50987 0.11852,0.74552 0.15296,0.44648 0.45613,0.92053 0.9095,1.42351 0.37345,0.41479 0.74001,0.70831 1.0983,0.87643 0.32246,0.15159 0.6587,0.22738 1.00596,0.22738 0.0386,0 0.0772,0 0.11714,-0.003 0.3886,-0.0179 0.78824,-0.13643 1.19614,-0.35003 l 0.0386,-0.0207 -0.80891,-1.644 -0.0413,0.0234"
         style="fill:#fdfdfd;fill-opacity:1;fill-rule:nonzero;stroke:none;stroke-width:0.35277778"
         inkscape:connector-curvature="0" />
      <path
         id="path167321"
         d="m 415.72334,359.11429 1.76665,0.73173 -1.6757,4.04868 2.75883,1.14102 -0.54708,1.32291 -4.52548,-1.87275"
         style="fill:#fdfdfd;fill-opacity:1;fill-rule:nonzero;stroke:none;stroke-width:0.35277778"
         inkscape:connector-curvature="0" />
      <path
         id="path167323"
         d="m 415.72334,359.11429 -0.0179,0.04 1.72668,0.7152 -1.6757,4.04868 2.75884,1.14101 -0.51401,1.24162 -4.44417,-1.83831 2.20624,-5.33163 -0.04,-0.0165 -0.0179,0.04 0.0179,-0.04 -0.0413,-0.0165 -2.23931,5.41156 4.60678,1.9072 0.58153,-1.40422 -2.75883,-1.14239 1.67569,-4.04868 -1.84932,-0.76481 -0.0165,0.0413"
         style="fill:#fdfdfd;fill-opacity:1;fill-rule:nonzero;stroke:none;stroke-width:0.35277778"
         inkscape:connector-curvature="0" />
      <path
         id="path167325"
         d="m 420.25984,361.40045 1.89756,-0.24391 0.55673,4.34771 2.9614,-0.38034 0.1819,1.41938 -4.85896,0.62287"
         style="fill:#fdfdfd;fill-opacity:1;fill-rule:nonzero;stroke:none;stroke-width:0.35277778"
         inkscape:connector-curvature="0" />
      <path
         id="path167327"
         d="m 420.25984,361.40045 0.005,0.0441 1.85347,-0.2384 0.55672,4.34633 2.96141,-0.37896 0.17088,1.33256 -4.77077,0.61047 -0.73312,-5.72161 -0.0441,0.005 0.006,0.0441 -0.006,-0.0441 -0.0427,0.006 0.74414,5.80981 4.94577,-0.6339 -0.1943,-1.50758 -2.96003,0.38034 -0.55672,-4.34633 -1.98438,0.25356 0.006,0.0441"
         style="fill:#fdfdfd;fill-opacity:1;fill-rule:nonzero;stroke:none;stroke-width:0.35277778"
         inkscape:connector-curvature="0" />
      <path
         id="path167329"
         d="m 426.13717,361.24611 4.58611,-2.28616 0.55398,1.11069 -2.87184,1.43041 0.41204,0.8282 2.66375,-1.32843 0.52916,1.06109 -2.66375,1.32843 0.51126,1.02526 2.95451,-1.47312 0.58842,1.17822 -4.67155,2.32888"
         style="fill:#fdfdfd;fill-opacity:1;fill-rule:nonzero;stroke:none;stroke-width:0.35277778"
         inkscape:connector-curvature="0" />
      <path
         id="path167331"
         d="m 426.13717,361.24611 0.0193,0.04 4.54753,-2.26688 0.514,1.03077 -2.87183,1.43178 0.452,0.90676 2.66375,-1.32843 0.4892,0.98254 -2.66375,1.32705 0.55122,1.10519 2.95451,-1.47313 0.54846,1.09967 -4.59162,2.28893 -2.57418,-5.16351 -0.0386,0.0193 0.0193,0.04 -0.0193,-0.04 -0.04,0.0193 2.61276,5.24206 4.7501,-2.36609 -0.62701,-1.25815 -2.95589,1.47312 -0.47129,-0.94671 2.66375,-1.32843 -0.56775,-1.13964 -2.66513,1.32843 -0.37207,-0.74827 2.87184,-1.43178 -0.59256,-1.18925 -4.66604,2.32613 0.0193,0.0386"
         style="fill:#fdfdfd;fill-opacity:1;fill-rule:nonzero;stroke:none;stroke-width:0.35277778"
         inkscape:connector-curvature="0" />
      <path
         id="path167333"
         d="m 437.22349,359.47671 -0.90399,-0.80339 1.96233,-2.21038 1.85346,1.64538 c -0.10473,0.66421 -0.25356,1.20165 -0.44373,1.61368 -0.19155,0.41203 -0.48507,0.8406 -0.88057,1.28709 -0.48783,0.54983 -0.97289,0.91915 -1.45658,1.10932 -0.48369,0.19017 -0.98392,0.226 -1.50069,0.10749 -0.51676,-0.11852 -1.00045,-0.37758 -1.45107,-0.77722 -0.47542,-0.42168 -0.79513,-0.89297 -0.96187,-1.41249 -0.16537,-0.51952 -0.16123,-1.06109 0.0138,-1.6247 0.13918,-0.43822 0.44373,-0.92329 0.91364,-1.45384 0.45475,-0.51124 0.83785,-0.85576 1.14928,-1.03215 0.31282,-0.17638 0.6339,-0.26595 0.96601,-0.27147 0.33073,-0.005 0.67524,0.0758 1.03077,0.23978 l -0.99494,1.58612 c -0.2136,-0.0896 -0.42444,-0.10473 -0.63252,-0.0455 -0.20671,0.0579 -0.40377,0.19292 -0.59118,0.40238 -0.27836,0.3142 -0.39825,0.65457 -0.35967,1.02251 0.04,0.36794 0.28112,0.74827 0.72347,1.14239 0.47129,0.41755 0.89021,0.6215 1.25953,0.61185 0.36931,-0.01 0.7028,-0.1819 1.00183,-0.51952 0.14194,-0.15985 0.25632,-0.33073 0.34176,-0.51539 0.0841,-0.18327 0.15847,-0.41616 0.22048,-0.6959 l -0.40928,-0.3638"
         style="fill:#fdfdfd;fill-opacity:1;fill-rule:nonzero;stroke:none;stroke-width:0.35277778"
         inkscape:connector-curvature="0" />
      <path
         id="path167335"
         d="m 437.22349,359.47671 0.0289,-0.0345 -0.87092,-0.77307 1.90307,-2.14423 1.82039,1.61644 0.0303,-0.0331 -0.0441,-0.007 c -0.10473,0.66146 -0.2508,1.19476 -0.43959,1.60128 -0.18879,0.4079 -0.47956,0.83372 -0.87367,1.27744 -0.48507,0.54571 -0.96463,0.91089 -1.44006,1.09692 -0.29214,0.11576 -0.59118,0.17226 -0.89572,0.17226 -0.19017,0 -0.3831,-0.0221 -0.57878,-0.0661 -0.50849,-0.11713 -0.98667,-0.37207 -1.43178,-0.76757 -0.46991,-0.41754 -0.7841,-0.88056 -0.94809,-1.39319 -0.0799,-0.24805 -0.11989,-0.50023 -0.11989,-0.7593 0,-0.27285 0.0441,-0.5526 0.13367,-0.83923 0.13505,-0.42857 0.43546,-0.9095 0.904,-1.43729 0.45199,-0.5085 0.83371,-0.85025 1.13825,-1.0225 0.30593,-0.17226 0.62012,-0.26045 0.94396,-0.26597 h 0.0289 c 0.31557,0 0.64216,0.0785 0.98254,0.23565 l 0.0193,-0.04 -0.0386,-0.0234 -0.99218,1.58475 0.0358,0.0248 0.0179,-0.0413 c -0.13505,-0.0551 -0.26872,-0.0841 -0.40101,-0.0841 -0.0882,0 -0.17501,0.0124 -0.26183,0.0372 -0.21773,0.0606 -0.42168,0.2012 -0.61185,0.41617 -0.24942,0.28112 -0.37758,0.58842 -0.37758,0.9164 0,0.0469 0.003,0.0937 0.008,0.14055 0.0413,0.38448 0.29077,0.77308 0.73725,1.16996 0.4644,0.41203 0.88333,0.62287 1.26366,0.62287 h 0.0262 c 0.38172,-0.01 0.72898,-0.19017 1.03353,-0.5333 0.14469,-0.16261 0.26045,-0.33899 0.34726,-0.52641 0.0882,-0.18879 0.16261,-0.42306 0.22462,-0.70555 l 0.006,-0.0262 -0.46165,-0.40928 -0.87918,0.98943 0.0331,0.0303 0.0289,-0.0345 -0.0289,0.0345 0.0331,0.0289 0.81993,-0.92467 0.3762,0.33487 0.0303,-0.0331 -0.0441,-0.01 c -0.0606,0.27836 -0.13367,0.50711 -0.21635,0.68764 -0.0841,0.17914 -0.19568,0.34726 -0.33487,0.50436 -0.29352,0.33073 -0.6146,0.49471 -0.97013,0.50436 h -0.0234 c -0.34589,0.001 -0.74965,-0.19568 -1.2044,-0.60082 -0.4396,-0.38999 -0.67249,-0.76206 -0.70969,-1.11346 -0.004,-0.0441 -0.007,-0.0882 -0.007,-0.13091 0,-0.30455 0.11713,-0.58842 0.35553,-0.85714 0.18328,-0.20671 0.37207,-0.33487 0.57051,-0.39137 0.0786,-0.0221 0.15709,-0.0331 0.23702,-0.0331 0.11989,0 0.24253,0.0262 0.36656,0.0772 l 0.0345,0.0152 1.04042,-1.65916 -0.0455,-0.0221 c -0.35002,-0.16261 -0.6904,-0.24391 -1.01975,-0.24391 h -0.0303 c -0.339,0.005 -0.66835,0.0978 -0.98667,0.27836 -0.31833,0.18053 -0.70418,0.52641 -1.16031,1.04042 -0.47267,0.5333 -0.78135,1.02251 -0.92191,1.46899 -0.091,0.29352 -0.1378,0.58291 -0.1378,0.86541 0,0.26734 0.0413,0.52917 0.12402,0.78686 0.16812,0.52779 0.49334,1.00597 0.97289,1.4304 0.45613,0.40514 0.94672,0.66835 1.47175,0.78824 0.20119,0.0469 0.40101,0.0689 0.59807,0.0689 0.31557,0 0.62563,-0.0592 0.92879,-0.17776 0.49197,-0.19431 0.98255,-0.56776 1.47313,-1.12173 0.39825,-0.44786 0.69453,-0.88056 0.88745,-1.29811 0.19293,-0.41755 0.34176,-0.95912 0.44649,-1.62471 l 0.004,-0.0248 -1.90445,-1.68947 -2.02021,2.27514 0.97014,0.86265 0.0289,-0.0331"
         style="fill:#fdfdfd;fill-opacity:1;fill-rule:nonzero;stroke:none;stroke-width:0.35277778"
         inkscape:connector-curvature="0" />
      <path
         id="path167337"
         d="m 437.35165,353.54977 2.54248,-4.45107 1.07763,0.61599 -1.59164,2.78639 0.8034,0.45751 1.47587,-2.5852 1.0294,0.58842 -1.47588,2.5852 0.99494,0.56775 1.63712,-2.86632 1.14377,0.65319 -2.58796,4.53099"
         style="fill:#fdfdfd;fill-opacity:1;fill-rule:nonzero;stroke:none;stroke-width:0.35277778"
         inkscape:connector-curvature="0" />
      <path
         id="path167339"
         d="m 437.35165,353.54977 0.0386,0.022 2.52043,-4.41248 1.00184,0.57188 -1.59163,2.7864 0.87781,0.5016 1.47725,-2.5852 0.95223,0.54433 -1.47588,2.5852 1.07211,0.61185 1.63711,-2.86632 1.0666,0.60909 -2.54386,4.4552 -5.01054,-2.86219 -0.022,0.0386 0.0386,0.022 -0.0386,-0.022 -0.022,0.0386 5.08634,2.90491 2.63205,-4.60816 -1.21956,-0.69729 -1.63711,2.8677 -0.91915,-0.52504 1.47726,-2.58519 -1.10657,-0.63115 -1.47588,2.58382 -0.72623,-0.4134 1.59164,-2.7864 -1.1548,-0.66008 -2.5852,4.52823 0.0372,0.022"
         style="fill:#fdfdfd;fill-opacity:1;fill-rule:nonzero;stroke:none;stroke-width:0.35277778"
         inkscape:connector-curvature="0" />
      <path
         id="path167341"
         d="m 408.15791,331.29858 c 0.43546,0.39274 0.82682,0.58843 1.17271,0.58705 0.34589,0 0.65319,-0.15021 0.92053,-0.44648 0.27423,-0.30593 0.39412,-0.62564 0.35829,-0.96188 -0.0372,-0.33486 -0.29628,-0.72071 -0.77997,-1.15617 -0.40652,-0.36518 -0.78273,-0.5457 -1.12724,-0.54019 -0.34451,0.007 -0.65181,0.15847 -0.92053,0.45751 -0.25907,0.28663 -0.37069,0.60358 -0.33624,0.94809 0.0345,0.34588 0.27148,0.7152 0.71245,1.11207 m -1.28571,1.41663 c -0.70556,-0.63528 -1.0666,-1.33946 -1.08314,-2.11116 -0.0165,-0.7717 0.31144,-1.53238 0.98392,-2.27927 0.68902,-0.76481 1.41387,-1.18098 2.17179,-1.2485 0.7593,-0.0661 1.4869,0.21359 2.18281,0.8406 0.50436,0.45337 0.83785,0.91639 0.9977,1.38906 0.15985,0.47129 0.17639,0.95911 0.0482,1.46348 -0.12816,0.50436 -0.42168,1.01148 -0.88194,1.52135 -0.46716,0.51952 -0.93018,0.87919 -1.39182,1.079 -0.46164,0.19982 -0.95498,0.25494 -1.48139,0.16399 -0.52641,-0.0909 -1.0418,-0.3638 -1.54616,-0.81855"
         style="fill:#fdfdfd;fill-opacity:1;fill-rule:nonzero;stroke:none;stroke-width:0.35277778"
         inkscape:connector-curvature="0" />
      <path
         id="path167343"
         d="m 408.15791,331.29858 -0.0303,0.0331 c 0.4396,0.39412 0.83785,0.59807 1.20027,0.59807 h 0.003 c 0.35967,0 0.67938,-0.1571 0.95223,-0.46164 0.24805,-0.27561 0.3762,-0.56776 0.3762,-0.87368 0,-0.04 -0.001,-0.0813 -0.007,-0.12127 -0.0386,-0.35553 -0.30592,-0.74552 -0.79237,-1.18373 -0.40514,-0.36518 -0.7841,-0.5526 -1.14101,-0.5526 h -0.0179 c -0.35691,0.006 -0.67799,0.16675 -0.95222,0.47267 -0.23427,0.25907 -0.35278,0.54708 -0.35278,0.85714 0,0.0413 10e-4,0.0827 0.006,0.12402 0.0372,0.36243 0.2825,0.74139 0.72623,1.14102 l 0.0303,-0.0331 0.0289,-0.0331 c -0.43684,-0.39274 -0.6656,-0.75517 -0.69729,-1.08314 -0.004,-0.04 -0.006,-0.0786 -0.006,-0.11576 0,-0.288 0.10749,-0.55121 0.32936,-0.79788 0.26458,-0.29214 0.5581,-0.43684 0.89021,-0.44373 h 0.0152 c 0.32384,0 0.68488,0.17226 1.08176,0.52917 0.47955,0.43133 0.73174,0.81166 0.76481,1.12861 0.004,0.0372 0.006,0.0744 0.006,0.11163 0,0.27973 -0.11575,0.54983 -0.35278,0.81442 -0.26182,0.29076 -0.55535,0.43132 -0.88745,0.4327 v 0.0441 l 0.001,-0.0441 h -0.004 c -0.32797,10e-4 -0.70969,-0.18741 -1.14102,-0.57602 z m -1.28571,1.41663 0.0289,-0.0331 c -0.69867,-0.62976 -1.05145,-1.32016 -1.06798,-2.07946 l -0.001,-0.0593 c 0.001,-0.73725 0.32384,-1.46624 0.97428,-2.18833 0.68488,-0.76067 1.3987,-1.16857 2.14285,-1.23472 0.0716,-0.005 0.14331,-0.008 0.21497,-0.008 0.66697,0 1.31051,0.2756 1.93339,0.83647 0.5016,0.45061 0.82958,0.9095 0.98667,1.37114 0.0868,0.25907 0.13092,0.5209 0.13092,0.78824 0,0.2136 -0.0276,0.42995 -0.0841,0.65044 -0.12541,0.49471 -0.41479,0.99632 -0.87092,1.50344 -0.4644,0.51538 -0.92467,0.87092 -1.37804,1.06797 -0.31144,0.13505 -0.63666,0.20258 -0.97979,0.20258 -0.15434,0 -0.31419,-0.0138 -0.47542,-0.0427 -0.51677,-0.0896 -1.02526,-0.35691 -1.52549,-0.80754 l -0.0289,0.0331 -0.0303,0.0317 c 0.50988,0.45889 1.03215,0.73725 1.56959,0.82958 0.16674,0.0289 0.33073,0.0441 0.49058,0.0441 0.35416,0 0.69315,-0.0703 1.01562,-0.21084 0.46853,-0.20394 0.93706,-0.56775 1.40697,-1.08864 0.46302,-0.51539 0.76068,-1.02802 0.89159,-1.54065 0.0579,-0.22738 0.0868,-0.45062 0.0868,-0.67248 0,-0.27699 -0.0455,-0.54984 -0.13643,-0.8158 -0.16398,-0.48232 -0.5016,-0.95085 -1.0101,-1.40836 -0.6339,-0.57188 -1.29949,-0.86127 -1.99264,-0.85989 -0.0744,0 -0.14883,0.003 -0.22187,0.008 -0.77445,0.0689 -1.50757,0.49334 -2.2021,1.26366 -0.66008,0.73312 -0.99632,1.48277 -0.99632,2.24758 l 0.001,0.062 c 0.0165,0.78549 0.38585,1.50207 1.09692,2.14148"
         style="fill:#fdfdfd;fill-opacity:1;fill-rule:nonzero;stroke:none;stroke-width:0.35277778"
         inkscape:connector-curvature="0" />
      <path
         id="path167345"
         d="m 414.13033,325.72166 0.75103,-0.29076 c 0.0813,-0.0317 0.23013,-0.11713 0.44373,-0.2577 0.11024,-0.0675 0.18465,-0.16123 0.22324,-0.28249 0.04,-0.11989 0.0372,-0.2384 -0.008,-0.35691 -0.0689,-0.17502 -0.17914,-0.28664 -0.33348,-0.33487 -0.15434,-0.0482 -0.3955,-0.008 -0.72072,0.11713 l -0.78272,0.30317 z m -0.54295,3.91914 -2.10013,-5.4212 2.97243,-1.15204 c 0.55121,-0.21359 0.98943,-0.33211 1.31602,-0.35691 0.32522,-0.0234 0.62425,0.0496 0.89573,0.22049 0.27147,0.17225 0.47404,0.42994 0.60771,0.77583 0.11714,0.30041 0.14883,0.58567 0.0965,0.85714 -0.0524,0.27148 -0.17088,0.5209 -0.35691,0.74828 -0.11989,0.14607 -0.30042,0.29903 -0.54433,0.4575 0.2384,-0.0152 0.41892,-0.008 0.54157,0.0207 0.0841,0.0179 0.21497,0.0772 0.39688,0.17363 0.18052,0.0978 0.3073,0.17776 0.38033,0.23978 l 1.47175,1.2361 -2.01469,0.78134 -1.59577,-1.28708 c -0.20395,-0.16812 -0.36518,-0.26458 -0.48507,-0.29215 -0.15985,-0.0345 -0.32246,-0.0207 -0.48507,0.0427 l -0.1571,0.0606 0.85163,2.20072"
         style="fill:#fdfdfd;fill-opacity:1;fill-rule:nonzero;stroke:none;stroke-width:0.35277778"
         inkscape:connector-curvature="0" />
      <path
         id="path167347"
         d="m 414.13033,325.72166 0.0152,0.0413 0.7524,-0.29214 c 0.0882,-0.0345 0.23565,-0.11989 0.452,-0.26045 l -0.0248,-0.0372 0.0234,0.0386 c 0.11851,-0.073 0.19981,-0.17777 0.24253,-0.3073 0.0193,-0.0593 0.0289,-0.11989 0.0289,-0.17915 0,-0.0703 -0.0138,-0.13918 -0.0386,-0.20808 -0.0717,-0.18328 -0.1943,-0.30868 -0.36242,-0.35967 -0.0469,-0.0152 -0.1006,-0.0221 -0.15986,-0.0221 -0.15434,0 -0.35002,0.0469 -0.58842,0.13918 l -0.82544,0.31971 0.45888,1.18373 0.0414,-0.0152 -0.0152,-0.0413 0.0413,-0.0165 -0.41204,-1.05971 0.74277,-0.28801 c 0.23288,-0.091 0.4203,-0.13367 0.55672,-0.13367 0.0524,0 0.0965,0.005 0.13367,0.0179 0.14057,0.0441 0.24116,0.14194 0.30593,0.3073 0.022,0.0593 0.0331,0.11714 0.0331,0.17639 0,0.0496 -0.008,0.1006 -0.0248,0.15158 -0.0372,0.11163 -0.10335,0.19569 -0.20394,0.25908 h -10e-4 c -0.2136,0.13918 -0.36105,0.22462 -0.43546,0.25356 l -0.75241,0.29076 0.0165,0.0413 0.0413,-0.0165 z m -0.54295,3.91914 0.0413,-0.0165 -2.08359,-5.37986 2.93109,-1.13551 c 0.54846,-0.21222 0.98391,-0.33073 1.30224,-0.35415 0.04,-0.003 0.0786,-0.004 0.11576,-0.004 0.27147,0 0.52227,0.073 0.75378,0.21911 0.26321,0.16536 0.45889,0.41479 0.5898,0.75241 0.0799,0.20395 0.11851,0.39963 0.11851,0.58704 0,0.0841 -0.008,0.16537 -0.0234,0.24667 -0.051,0.2632 -0.16674,0.50574 -0.34864,0.72898 -0.11438,0.14056 -0.29215,0.29077 -0.5333,0.44787 l -0.14056,0.0923 0.16812,-0.011 c 0.0813,-0.006 0.15709,-0.008 0.22599,-0.008 0.12541,0 0.22738,0.01 0.3018,0.0276 0.0744,0.0165 0.20532,0.073 0.38585,0.1695 0.17914,0.0965 0.30454,0.17639 0.37207,0.23565 l 1.41524,1.18787 -1.92236,0.74551 -1.5751,-1.27193 c -0.2067,-0.1695 -0.36931,-0.27009 -0.50298,-0.30179 -0.0593,-0.0124 -0.11989,-0.0179 -0.17915,-0.0179 -0.11024,0 -0.22186,0.0207 -0.3321,0.0634 l -0.1571,0.0606 -0.0413,0.0165 0.85301,2.20073 -1.75011,0.67799 0.0152,0.0413 0.0413,-0.0165 -0.0413,0.0165 0.0165,0.04 1.83279,-0.70969 -0.853,-2.19934 0.11575,-0.0455 c 0.10198,-0.04 0.20119,-0.0579 0.30041,-0.0579 0.0537,0 0.10749,0.006 0.16123,0.0165 0.10474,0.0234 0.26459,0.11714 0.46578,0.28388 l 1.61506,1.30362 2.1084,-0.81718 -1.52962,-1.28433 c -0.0772,-0.0661 -0.20533,-0.14745 -0.38723,-0.24529 -0.18328,-0.0978 -0.31557,-0.15709 -0.40652,-0.17914 -0.0854,-0.0193 -0.19155,-0.0289 -0.32246,-0.0289 -0.0717,0 -0.14883,0.003 -0.23289,0.008 l 0.003,0.0441 0.0248,0.0372 c 0.2453,-0.16123 0.42995,-0.31557 0.5526,-0.46578 0.19154,-0.23289 0.31419,-0.49058 0.36793,-0.76894 0.0165,-0.0868 0.0247,-0.17504 0.0247,-0.26324 0,-0.19981 -0.0413,-0.40652 -0.12402,-0.61874 -0.13643,-0.35277 -0.34589,-0.61873 -0.62563,-0.7965 -0.24392,-0.15434 -0.51263,-0.23151 -0.80064,-0.23151 -0.04,0 -0.0813,10e-4 -0.12265,0.004 -0.33211,0.0248 -0.77446,0.14607 -1.32705,0.35966 l -3.01377,1.1672 2.13182,5.50389 0.0414,-0.0165"
         style="fill:#fdfdfd;fill-opacity:1;fill-rule:nonzero;stroke:none;stroke-width:0.35277778"
         inkscape:connector-curvature="0" />
      <path
         id="path167349"
         d="m 419.73894,325.07261 1.82039,-0.0717 c 0.0345,0.27836 0.11162,0.49058 0.22876,0.63803 0.19292,0.23978 0.47266,0.36242 0.83784,0.36932 0.27285,0.005 0.48507,-0.051 0.63528,-0.16813 0.14883,-0.11713 0.226,-0.25493 0.22875,-0.41479 0.003,-0.1502 -0.0648,-0.28663 -0.20257,-0.40789 -0.13918,-0.12127 -0.46302,-0.23978 -0.97289,-0.35554 -0.83647,-0.19292 -1.42903,-0.43959 -1.78181,-0.74001 -0.35415,-0.30041 -0.52641,-0.67799 -0.51814,-1.13274 0.006,-0.29766 0.10335,-0.57878 0.29214,-0.84061 0.1888,-0.26182 0.46991,-0.46577 0.84336,-0.61047 0.37345,-0.14469 0.88195,-0.21084 1.52687,-0.19844 0.78961,0.0138 1.39044,0.16399 1.8011,0.44787 0.40927,0.28387 0.64767,0.72898 0.7152,1.33256 l -1.80386,0.0648 c -0.0441,-0.26321 -0.14056,-0.45475 -0.29214,-0.5774 -0.1502,-0.12127 -0.36104,-0.18465 -0.63114,-0.19017 -0.22186,-0.004 -0.39136,0.0372 -0.50436,0.12402 -0.11438,0.0854 -0.17363,0.19293 -0.17501,0.31971 -0.003,0.0923 0.0427,0.17639 0.13367,0.25218 0.0882,0.0785 0.30179,0.15434 0.63803,0.226 0.83233,0.18604 1.42765,0.36794 1.78593,0.54846 0.3583,0.17914 0.61737,0.39963 0.77722,0.6587 0.15985,0.25907 0.23702,0.54846 0.23013,0.86541 -0.007,0.37207 -0.12264,0.71382 -0.34864,1.02388 -0.22462,0.31006 -0.53606,0.54295 -0.93293,0.69867 -0.39826,0.15434 -0.89573,0.22737 -1.49517,0.21497 -1.05283,-0.0193 -1.77767,-0.22324 -2.17593,-0.61185 -0.39825,-0.38861 -0.61874,-0.87643 -0.66008,-1.46485"
         style="fill:#fdfdfd;fill-opacity:1;fill-rule:nonzero;stroke:none;stroke-width:0.35277778"
         inkscape:connector-curvature="0" />
      <path
         id="path167351"
         d="m 419.73894,325.07261 10e-4,0.0441 1.82177,-0.0716 -0.003,-0.0441 -0.0427,0.005 c 0.0345,0.2825 0.11162,0.50437 0.23702,0.66146 0.2012,0.24943 0.49609,0.37758 0.8723,0.38448 h 0.0345 c 0.26182,0 0.47266,-0.0565 0.627,-0.17777 0.15848,-0.12265 0.24392,-0.27423 0.24667,-0.44786 v -0.01 c 10e-4,-0.16123 -0.0758,-0.30868 -0.21773,-0.43271 -0.15296,-0.13229 -0.47955,-0.24804 -0.99219,-0.36518 -0.83233,-0.19292 -1.42075,-0.43821 -1.76251,-0.73036 -0.33761,-0.28663 -0.50298,-0.63803 -0.50436,-1.06798 l 10e-4,-0.0303 c 0.006,-0.28939 0.0992,-0.55948 0.28388,-0.8158 0.18328,-0.25493 0.45613,-0.45337 0.82406,-0.59531 0.33487,-0.13091 0.78962,-0.19844 1.36151,-0.19844 0.0482,0 0.0978,10e-4 0.14744,0.003 0.78549,0.0138 1.37804,0.16399 1.7763,0.4396 0.39825,0.27698 0.63114,0.70556 0.69728,1.30087 l 0.0441,-0.004 -10e-4,-0.0441 -1.80523,0.0648 0.003,0.0441 0.0427,-0.007 c -0.0441,-0.2701 -0.14469,-0.47405 -0.30592,-0.60358 -0.16123,-0.13092 -0.3831,-0.19568 -0.66009,-0.2012 h -0.0303 c -0.2136,0 -0.38172,0.0414 -0.50161,0.1323 -0.12264,0.0923 -0.19017,0.21359 -0.19154,0.35415 v 0.007 c -0.001,0.10611 0.0537,0.20119 0.1502,0.28112 l 0.0275,-0.0345 -0.0289,0.0331 c 0.10336,0.0896 0.31833,0.16261 0.65733,0.23702 0.83096,0.18328 1.42489,0.36656 1.77629,0.54295 0.35278,0.17776 0.60496,0.39274 0.7593,0.64354 0.14883,0.24253 0.22324,0.51125 0.22462,0.80753 l -10e-4,0.0331 c -0.007,0.3638 -0.11989,0.69591 -0.34038,1.00045 -0.22048,0.30179 -0.52365,0.52917 -0.91364,0.68213 -0.3638,0.14194 -0.8158,0.2136 -1.35736,0.2136 -0.04,0 -0.0799,0 -0.12127,-0.001 -1.04731,-0.0193 -1.76251,-0.22462 -2.1456,-0.59945 -0.38999,-0.38172 -0.60497,-0.85714 -0.64768,-1.43591 l -0.0427,0.003 0.001,0.0441 -0.001,-0.0441 -0.0441,0.004 c 0.0427,0.59669 0.26734,1.09692 0.67386,1.49241 0.41203,0.40101 1.14791,0.60358 2.20486,0.62425 0.0413,0.001 0.0827,0.001 0.12265,0.001 0.54983,0 1.01285,-0.0717 1.38906,-0.21911 0.40376,-0.15847 0.72347,-0.39549 0.9536,-0.71382 0.23014,-0.31695 0.35002,-0.66835 0.35691,-1.04869 l 10e-4,-0.0358 c 0,-0.31144 -0.0799,-0.5967 -0.2384,-0.85439 -0.16536,-0.26734 -0.43132,-0.49196 -0.79513,-0.67524 -0.3638,-0.18328 -0.96187,-0.36518 -1.79558,-0.55121 -0.33486,-0.0703 -0.54432,-0.14883 -0.61874,-0.21635 v -10e-4 c -0.0841,-0.0689 -0.11851,-0.1378 -0.11989,-0.21221 l 0.001,-0.004 c 0.003,-0.11438 0.051,-0.20533 0.1571,-0.28663 0.0978,-0.0744 0.24529,-0.11438 0.44787,-0.11438 h 0.0289 c 0.26459,0.006 0.4644,0.0675 0.60496,0.18052 0.14056,0.113 0.23427,0.29353 0.27561,0.54984 l 0.005,0.0386 1.89205,-0.0675 -0.006,-0.0482 c -0.0675,-0.61185 -0.31281,-1.07211 -0.73449,-1.36288 -0.42168,-0.29214 -1.02939,-0.44097 -1.8259,-0.45613 -0.051,-10e-4 -0.1006,-0.003 -0.14883,-0.003 -0.57877,0 -1.04179,0.0675 -1.39457,0.20395 -0.37758,0.14745 -0.66697,0.35553 -0.86265,0.62562 -0.19431,0.26872 -0.2949,0.55811 -0.30041,0.86679 l -0.001,0.0317 c 0,0.45338 0.18053,0.8351 0.53606,1.13413 0.36105,0.30868 0.96049,0.55535 1.79834,0.74965 0.5085,0.11438 0.82958,0.23565 0.9536,0.34589 0.12954,0.11438 0.1888,0.23426 0.1888,0.36656 v 0.008 c -0.003,0.1447 -0.0703,0.26734 -0.21222,0.38034 -0.13367,0.10335 -0.32384,0.15848 -0.57327,0.15848 h -0.0331 c -0.35691,-0.007 -0.62012,-0.12403 -0.80478,-0.35278 -0.11024,-0.13781 -0.18465,-0.34314 -0.21911,-0.61599 l -0.004,-0.04 -1.90858,0.0758 0.004,0.0455"
         style="fill:#fdfdfd;fill-opacity:1;fill-rule:nonzero;stroke:none;stroke-width:0.35277778"
         inkscape:connector-curvature="0" />
      <path
         id="path167353"
         d="m 428.31309,321.73224 1.76665,0.7345 -0.77997,1.87826 1.92926,0.80202 0.77997,-1.87964 1.77491,0.73725 -2.22967,5.36884 -1.77491,-0.73726 0.90261,-2.17179 -1.93063,-0.80064 -0.90124,2.17179 -1.76664,-0.73449"
         style="fill:#fdfdfd;fill-opacity:1;fill-rule:nonzero;stroke:none;stroke-width:0.35277778"
         inkscape:connector-curvature="0" />
      <path
         id="path167355"
         d="m 428.31309,321.73224 -0.0165,0.0413 1.7253,0.71658 -0.77997,1.87827 2.01056,0.83647 0.78135,-1.87964 1.69223,0.70279 -2.19659,5.28754 -1.69223,-0.7028 0.90261,-2.17179 -2.01194,-0.83509 -0.90261,2.17179 -1.68396,-0.70005 2.21313,-5.32749 -0.0413,-0.0179 -0.0165,0.0413 0.0165,-0.0413 -0.0413,-0.0165 -2.24621,5.41018 1.84795,0.76757 0.90124,-2.17317 1.84932,0.76894 -0.90123,2.17179 1.85484,0.77032 2.26412,-5.45014 -1.85622,-0.7717 -0.77997,1.87965 -1.84933,-0.76757 0.78135,-1.87965 -1.84795,-0.76756 -0.0179,0.0413"
         style="fill:#fdfdfd;fill-opacity:1;fill-rule:nonzero;stroke:none;stroke-width:0.35277778"
         inkscape:connector-curvature="0" />
      <path
         id="path167357"
         d="m 436.64196,330.92514 1.00046,-1.9582 -1.95957,0.99357 z m -0.61185,1.16719 -1.531,-1.53926 -0.89297,0.46164 -1.37804,-1.38493 5.76296,-2.44878 1.47174,1.48002 -2.48322,5.7478 -1.41249,-1.41938"
         style="fill:#fdfdfd;fill-opacity:1;fill-rule:nonzero;stroke:none;stroke-width:0.35277778"
         inkscape:connector-curvature="0" />
      <path
         id="path167359"
         d="m 436.64196,330.92514 0.0386,0.0193 1.06247,-2.07808 -2.13458,1.08314 1.04455,1.05007 0.0276,-0.0551 -0.0386,-0.0193 0.0303,-0.0317 -0.91502,-0.92053 1.78318,-0.90537 -0.93844,1.83693 0.04,0.0207 0.0303,-0.0317 z m -0.61185,1.16719 0.0303,-0.0303 -1.55305,-1.56407 -0.89296,0.46302 -1.30914,-1.31603 5.67614,-2.41157 1.42902,1.4373 -2.44601,5.66098 -1.34359,-1.35186 0.46302,-0.89572 -0.0234,-0.022 -0.0303,0.0303 -0.04,-0.0207 -0.4768,0.92466 1.48001,1.48966 2.52181,-5.83461 -1.51308,-1.52273 -5.85115,2.48598 1.44556,1.45383 0.89434,-0.46165 1.50758,1.51722 0.0317,-0.0317 -0.04,-0.0207"
         style="fill:#fdfdfd;fill-opacity:1;fill-rule:nonzero;stroke:none;stroke-width:0.35277778"
         inkscape:connector-curvature="0" />
      <path
         id="path167361"
         d="m 442.85002,332.74966 1.02664,2.29719 -2.83463,2.32751 3.62287,-0.56362 1.02526,2.29581 -5.30683,2.3716 -0.63941,-1.4304 4.0473,-1.80799 -4.53925,0.70556 -0.57878,-1.29398 3.55671,-2.90904 -4.04867,1.80936 -0.63803,-1.4304"
         style="fill:#fdfdfd;fill-opacity:1;fill-rule:nonzero;stroke:none;stroke-width:0.35277778"
         inkscape:connector-curvature="0" />
      <path
         id="path167363"
         d="m 442.85002,332.74966 -0.04,0.0179 1.01286,2.2655 -2.93385,2.41018 3.74965,-0.58291 0.99356,2.22416 -5.2269,2.33577 -0.60358,-1.35048 4.30913,-1.92511 -4.83279,0.7524 -0.55121,-1.23334 3.78547,-3.09645 -4.30912,1.92649 -0.60221,-1.35047 5.26687,-2.35369 -0.0179,-0.04 -0.04,0.0179 0.04,-0.0179 -0.0179,-0.04 -5.34817,2.38952 0.67524,1.51033 3.78685,-1.69223 -3.32659,2.72163 0.60496,1.35599 4.24849,-0.66146 -3.78822,1.69223 0.67524,1.51033 5.3895,-2.40744 -1.05833,-2.36609 -3.49608,0.54433 2.7354,-2.24758 -1.05833,-2.36747 -0.04,0.0179"
         style="fill:#fdfdfd;fill-opacity:1;fill-rule:nonzero;stroke:none;stroke-width:0.35277778"
         inkscape:connector-curvature="0" />
    </g>
  </g>
</svg>
