<?xml version="1.0" encoding="UTF-8" standalone="no"?>
<svg
   xmlns:dc="http://purl.org/dc/elements/1.1/"
   xmlns:cc="http://creativecommons.org/ns#"
   xmlns:rdf="http://www.w3.org/1999/02/22-rdf-syntax-ns#"
   xmlns:svg="http://www.w3.org/2000/svg"
   xmlns="http://www.w3.org/2000/svg"
   xmlns:sodipodi="http://sodipodi.sourceforge.net/DTD/sodipodi-0.dtd"
   xmlns:inkscape="http://www.inkscape.org/namespaces/inkscape"
   id="Layer_1"
   data-name="Layer 1"
   viewBox="0 0 303.06852 279.81897"
   version="1.1"
   sodipodi:docname="ilim-college-full.svg"
   inkscape:version="1.0.1 (3bc2e813f5, 2020-09-07)"
   width="303.06851"
   height="279.81897">
  <metadata
     id="metadata221">
    <rdf:RDF>
      <cc:Work
         rdf:about="">
        <dc:format>image/svg+xml</dc:format>
        <dc:type
           rdf:resource="http://purl.org/dc/dcmitype/StillImage" />
        <dc:title>Ilim LOGO_2 col_white Keyline_LgeName</dc:title>
      </cc:Work>
    </rdf:RDF>
  </metadata>
  <sodipodi:namedview
     pagecolor="#ffffff"
     bordercolor="#666666"
     borderopacity="1"
     objecttolerance="10"
     gridtolerance="10"
     guidetolerance="10"
     inkscape:pageopacity="0"
     inkscape:pageshadow="2"
     inkscape:window-width="1920"
     inkscape:window-height="1000"
     id="namedview219"
     showgrid="false"
     inkscape:zoom="1.0359403"
     inkscape:cx="476.07652"
     inkscape:cy="93.110481"
     inkscape:window-x="1920"
     inkscape:window-y="0"
     inkscape:window-maximized="1"
     inkscape:current-layer="Layer_1"
     inkscape:document-rotation="0" />
  <defs
     id="defs4">
    <style
       id="style2">.cls-1,.cls-2{fill:#002d74;}.cls-1,.cls-5,.cls-7,.cls-8{stroke:#fff;}.cls-1{stroke-miterlimit:10;stroke-width:7px;}.cls-3{fill:#f7be00;}.cls-4{fill:#1b3d6b;}.cls-5,.cls-7,.cls-8,.cls-9{fill:none;}.cls-5{stroke-width:3px;}.cls-6{fill:#fff;}.cls-7{stroke-width:2.93px;}.cls-8,.cls-9{stroke-width:2px;}.cls-9{stroke:#1b3d6b;stroke-linecap:round;stroke-linejoin:round;}</style>
  </defs>
  <title
     id="title6">Ilim LOGO_2 col_white Keyline_LgeName</title>
  <path
     class="cls-1"
     d="m 249.21455,86.233015 c -2.27,-29.39 -30.38,-43.45 -47.8,-52.11 -17.42,-8.66 -51.76,-30.0000001 -51.76,-30.0000001 0,0 -34.35,21.4300001 -51.770001,30.0000001 -17.42,8.57 -45.52,22.72 -47.81,52.11 -2.29,29.389995 13.58,146.999995 99.350001,146.999995 h 0.46 c 85.76,0 101.63,-117.58 99.34,-146.999995"
     id="path8" />
  <path
     class="cls-2"
     d="m 249.21455,86.233015 c -2.27,-29.39 -30.38,-43.45 -47.8,-52.11 -17.42,-8.66 -51.76,-30.0000001 -51.76,-30.0000001 0,0 -34.35,21.4300001 -51.770001,30.0000001 -17.42,8.57 -45.52,22.72 -47.81,52.11 -2.29,29.389995 13.58,146.999995 99.350001,146.999995 h 0.46 c 85.76,0 101.63,-117.58 99.34,-146.999995"
     id="path10" />
  <polygon
     class="cls-3"
     points="160.54,183.57 157.3,189.4 163.28,193.51 155.79,195.02 155.64,201.5 149.59,197.54 143.47,201.5 143.33,195.02 135.77,193.51 141.75,189.4 138.51,183.57 146.07,184.87 149.59,179.11 152.98,184.87 "
     id="polygon12"
     transform="translate(0.00454864,-0.04698513)" />
  <polygon
     class="cls-3"
     points="101.52,178.83 97.12,181.86 98.85,186.68 94.46,183.66 90.07,186.68 91.8,181.86 87.4,178.83 92.8,178.91 94.46,174.01 96.12,178.91 "
     id="polygon14"
     transform="translate(0.00454864,-0.04698513)" />
  <polygon
     class="cls-3"
     points="124.9,188.03 120.58,190.98 122.23,195.81 117.84,192.86 113.52,195.81 115.18,190.98 110.79,188.03 116.19,188.03 117.84,183.14 119.5,188.03 "
     id="polygon16"
     transform="translate(0.00454864,-0.04698513)" />
  <polygon
     class="cls-3"
     points="188.12,187.96 183.72,190.98 185.38,195.81 181.06,192.78 176.66,195.81 178.39,190.98 174,187.96 179.4,188.03 181.06,183.14 182.71,188.03 "
     id="polygon18"
     transform="translate(0.00454864,-0.04698513)" />
  <polygon
     class="cls-3"
     points="212.03,178.83 207.64,181.86 209.3,186.68 204.98,183.66 200.59,186.68 202.24,181.86 197.85,178.83 203.32,178.83 204.98,174.01 206.64,178.83 "
     id="polygon20"
     transform="translate(0.00454864,-0.04698513)" />
  <path
     class="cls-2"
     d="m 300.02455,244.23301 -20.6,12.8 6.21,20.75 c 0,0 -57.24,-13.08 -71,-15.64 l 15.7,-34.13 c 0,0 56.9,9.67 69.66,16.21"
     id="path22" />
  <path
     class="cls-4"
     d="m 219.72455,250.02301 -4.64,12.13 29.39,-6.07 c 0,0 -16.69,-4.64 -24.75,-6.06"
     id="path24" />
  <path
     class="cls-5"
     d="m 300.02455,244.23301 -20.6,12.8 6.21,20.75 c 0,0 -57.24,-13.08 -71,-15.64 l 15.7,-34.13 c 0,0 56.93,9.68 69.69,16.22 z"
     id="path26" />
  <path
     class="cls-2"
     d="m 3.0445486,244.23301 20.6100004,12.8 -6.22,20.75 c 0,0 57.24,-13.08 71,-15.64 l -15.72,-34.12 c 0,0 -56.91,9.67 -69.6700004,16.21"
     id="path28" />
  <path
     class="cls-6"
     d="m 252.10455,254.93301 1.42,-6.34 -1.79,-0.4 0.26,-1.2 h 0.17 c 1.19,0.27 2,0 2.43,-1 l 1.34,0.3 -2,9 z"
     id="path30" />
  <path
     class="cls-6"
     d="m 258.50455,254.16301 c -0.15,0.68 0,1.13 0.58,1.27 1,0.21 1.33,-0.72 1.63,-2 l 0.1,-0.43 v 0 a 2,2 0 0 1 -1.86,0.38 c -1.6,-0.36 -1.92,-1.69 -1.56,-3.3 0.46,-2.05 1.62,-3 3.62,-2.55 2.51,0.56 2.38,2.64 1.89,4.83 -0.57,2.55 -1.16,4.95 -4.13,4.28 -1.3,-0.29 -2.35,-1.1 -2,-2.83 z m 1.35,-2 c 0.72,0.16 1.11,-0.26 1.38,-1.48 0.22,-1 0.25,-1.81 -0.6,-2 -0.85,-0.19 -1.16,0.54 -1.39,1.55 -0.27,1.2 -0.1,1.74 0.61,1.91 z"
     id="path32" />
  <path
     class="cls-6"
     d="m 264.59455,255.53301 c -0.15,0.68 0,1.13 0.59,1.27 1,0.21 1.33,-0.72 1.63,-2 l 0.09,-0.44 v 0 a 2,2 0 0 1 -1.86,0.38 c -1.6,-0.36 -1.93,-1.69 -1.56,-3.3 0.46,-2.05 1.62,-3 3.62,-2.55 2.52,0.56 2.38,2.64 1.89,4.83 -0.58,2.55 -1.17,4.95 -4.14,4.28 -1.29,-0.29 -2.35,-1.1 -2,-2.83 z m 1.35,-2 c 0.73,0.16 1.11,-0.26 1.39,-1.48 0.22,-1 0.25,-1.81 -0.6,-2 -0.85,-0.19 -1.16,0.54 -1.39,1.55 -0.28,1.18 -0.13,1.75 0.6,1.91 z"
     id="path34" />
  <path
     class="cls-6"
     d="m 275.12455,252.35301 -3.31,-0.75 -0.65,2 v 0 a 1.93,1.93 0 0 1 1.8,-0.3 c 1.72,0.39 1.87,1.94 1.54,3.36 -0.44,2 -1.32,3.19 -3.62,2.67 -2.3,-0.52 -2.32,-2.09 -2.09,-3.09 l 0.05,-0.24 1.75,0.39 c -0.13,0.6 -0.23,1.49 0.56,1.67 0.79,0.18 1.2,-0.34 1.46,-1.51 0.34,-1.48 0.2,-1.95 -0.62,-2.14 a 0.85,0.85 0 0 0 -1.05,0.63 l -1.64,-0.37 1.44,-4.8 4.68,1 z"
     id="path36" />
  <path
     class="cls-4"
     d="m 83.764549,250.02301 4.65,12.13 -29.39,-6.07 c 0,0 16.68,-4.64 24.74,-6.06"
     id="path38" />
  <line
     class="cls-7"
     x1="58.184547"
     y1="256.53299"
     x2="88.414551"
     y2="262.15302"
     id="line40" />
  <path
     class="cls-5"
     d="m 3.0445486,244.23301 20.6100004,12.8 -6.22,20.75 c 0,0 57.24,-13.08 71,-15.64 l -15.72,-34.12 c 0,0 -56.91,9.67 -69.6700004,16.21 z"
     id="path42" />
  <line
     class="cls-7"
     x1="244.89455"
     y1="256.53299"
     x2="214.66455"
     y2="262.15302"
     id="line44" />
  <path
     class="cls-2"
     d="m 59.044549,256.08301 c 0,0 43.890001,-12.08 90.480001,-12.08 46.59,0 94.95,12.08 94.95,12.08 l 8.74,-34.5 c 0,0 -34.58,-12.37 -103.67,-12.37 -69.090001,0 -98.850001,12.37 -98.850001,12.37 z"
     id="path46" />
  <path
     class="cls-5"
     d="m 59.044549,256.08301 c 0,0 43.890001,-12.08 90.480001,-12.08 46.59,0 94.95,12.08 94.95,12.08 l 8.74,-34.5 c 0,0 -34.58,-12.37 -103.67,-12.37 -69.090001,0 -98.850001,12.37 -98.850001,12.37 z"
     id="path48" />
  <path
     class="cls-6"
     d="m 64.274549,231.03301 2.69,-0.61 5.31,10.14 -2.26,0.52 -1,-2.17 -2.87,0.65 v 2.4 l -2.27,0.51 z m 1.82,6.66 2.12,-0.48 -2.15,-4.61 v 0 z"
     id="path50" />
  <path
     class="cls-6"
     d="m 76.944549,238.71301 v 0 a 2,2 0 0 1 -1.63,1.46 c -1.72,0.36 -2.77,-0.74 -3.39,-3.78 -0.62,-3.04 -0.1,-4.46 1.62,-4.81 a 2,2 0 0 1 2,0.61 v 0 l -0.7,-3.43 2.09,-0.43 2.23,10.84 -2,0.41 z m -1.31,-0.29 c 0.93,-0.19 0.92,-1.14 0.56,-2.91 -0.36,-1.77 -0.74,-2.65 -1.67,-2.46 -0.93,0.19 -0.9,1.13 -0.54,2.91 0.36,1.78 0.74,2.65 1.65,2.46 z"
     id="path52" />
  <path
     class="cls-6"
     d="m 82.834549,229.97301 2.11,-0.39 -0.52,8.58 -2.44,0.46 -3.66,-7.84 2.2,-0.41 2.27,5.64 v 0 z"
     id="path54" />
  <path
     class="cls-6"
     d="m 85.964549,231.99301 v -0.19 c -0.33,-1.9 0.86,-2.76 2.45,-3 2.51,-0.42 3.16,0.54 3.41,2 l 0.74,4.32 a 3.47,3.47 0 0 0 0.53,1.55 l -2,0.34 a 3.25,3.25 0 0 1 -0.41,-0.81 v 0 a 2.05,2.05 0 0 1 -1.91,1.43 c -1.47,0.25 -2.2,-0.91 -2.39,-2 -0.26,-1.54 0.25,-2.28 1.64,-2.92 l 1.14,-0.53 c 0.59,-0.27 0.77,-0.55 0.67,-1.1 a 0.89,0.89 0 0 0 -1.15,-0.85 1,1 0 0 0 -0.79,1.24 v 0.23 z m 4.12,0.94 a 2.53,2.53 0 0 1 -0.83,0.56 c -0.82,0.33 -1.09,0.8 -1,1.53 0.09,0.73 0.42,1.11 1,1 a 1.27,1.27 0 0 0 1.08,-1.5 z"
     id="path56" />
  <path
     class="cls-6"
     d="m 93.004549,228.21301 2,-0.31 0.15,1 v 0 a 2.29,2.29 0 0 1 1.92,-1.5 c 1.31,-0.2 2.2,0.4 2.45,2 l 0.940001,6.11 -2.120001,0.32 -0.87,-5.68 c -0.12,-0.83 -0.45,-1.11 -1.08,-1 -0.63,0.11 -1,0.61 -0.91,1.53 l 0.84,5.47 -2.12,0.32 z"
     id="path58" />
  <path
     class="cls-6"
     d="m 105.14455,229.49301 c -0.11,-0.8 -0.38,-1.64 -1.18,-1.53 -1,0.14 -1.09,1.08 -0.83,3 0.26,1.92 0.57,2.86 1.52,2.73 0.71,-0.09 1,-0.74 0.77,-2.07 l 2,-0.27 c 0.29,2.16 -0.45,3.5 -2.69,3.8 -2.24,0.3 -3.31,-0.61 -3.75,-3.92 -0.44,-3.31 0.81,-4.54 2.76,-4.8 1.95,-0.26 3.14,0.84 3.4,2.8 z"
     id="path60" />
  <path
     class="cls-6"
     d="m 110.32455,230.34301 0.07,0.66 c 0.11,1 0.49,1.9 1.27,1.81 0.78,-0.09 0.94,-0.66 1,-1.69 l 1.91,-0.22 c 0.14,1.93 -0.66,3.12 -2.66,3.35 -3.08,0.36 -3.48,-2 -3.72,-4.06 -0.25,-2.22 -0.06,-4.33 2.8,-4.67 2.48,-0.28 3.23,1.32 3.52,3.86 l 0.06,0.47 z m 2,-1.51 c -0.19,-1.26 -0.43,-2 -1.31,-1.85 -0.88,0.15 -1,1 -0.9,1.78 v 0.32 z"
     id="path62" />
  <path
     class="cls-6"
     d="m 125.26455,221.61301 0.16,1.82 -2.41,0.21 0.79,9.2 -2.22,0.19 -0.79,-9.2 -2.41,0.21 -0.16,-1.83 z"
     id="path64" />
  <path
     class="cls-6"
     d="m 126.34455,221.53301 2.14,-0.14 0.23,3.57 v 0 a 2.19,2.19 0 0 1 1.95,-1.2 c 1.33,-0.08 2.17,0.59 2.28,2.24 l 0.39,6.17 -2.13,0.14 -0.37,-5.75 c -0.05,-0.83 -0.35,-1.14 -1,-1.1 -0.65,0.04 -1.1,0.52 -1,1.45 l 0.35,5.53 -2.13,0.13 z"
     id="path66" />
  <path
     class="cls-6"
     d="m 134.35455,223.78301 2.05,-0.09 0.05,1.12 v 0 a 2.14,2.14 0 0 1 1.86,-1.42 h 0.39 l 0.09,2 h -0.67 a 1.44,1.44 0 0 0 -1.51,1.57 l 0.22,5 -2.14,0.1 z"
     id="path68" />
  <path
     class="cls-6"
     d="m 142.65455,223.26301 c 2.57,-0.11 3.32,1.41 3.39,4.3 0.07,2.89 -0.73,4.41 -3.18,4.47 -2.45,0.06 -3.32,-1.41 -3.39,-4.31 -0.07,-2.9 0.74,-4.41 3.18,-4.46 z m 0.18,7.31 c 0.86,0 1.12,-0.88 1.07,-3 -0.05,-2.12 -0.34,-2.92 -1.21,-2.9 -1.06,0 -1.12,1.25 -1.08,3 0.04,1.75 0.16,2.93 1.22,2.9 z"
     id="path70" />
  <path
     class="cls-6"
     d="m 151.49455,230.78301 v 0 a 2.27,2.27 0 0 1 -2.13,1.18 c -1.33,0 -2.12,-0.74 -2.11,-2.38 v -6.18 h 2.14 v 5.75 c 0,0.83 0.28,1.16 0.91,1.16 0.63,0 1.14,-0.44 1.14,-1.37 v -5.53 h 2.14 v 8.34 h -2.05 z"
     id="path72" />
  <path
     class="cls-6"
     d="m 161.39455,223.61301 -0.23,7.92 c -0.07,2.2 -1.08,3.24 -3.57,3.17 -1.81,0 -2.81,-0.89 -2.77,-2.32 l 2,0.06 a 0.75,0.75 0 0 0 0.31,0.65 1.32,1.32 0 0 0 0.71,0.25 c 0.87,0 1.19,-0.61 1.22,-1.47 v -1.1 0 a 2.24,2.24 0 0 1 -1.81,1 c -1.71,-0.05 -2.52,-1.23 -2.43,-4.29 0,-1.95 0.41,-4.23 2.74,-4.17 a 1.87,1.87 0 0 1 1.69,1.2 v 0 -0.93 z m -3.4,6.51 c 0.9,0 1.19,-0.94 1.23,-2.35 0.06,-2 -0.18,-2.8 -1,-2.82 -0.82,-0.02 -1.14,0.72 -1.21,3 -0.06,1.12 0.08,2.14 0.98,2.17 z"
     id="path74" />
  <path
     class="cls-6"
     d="m 163.15455,220.96301 2.14,0.11 -0.19,3.58 v 0 a 2.18,2.18 0 0 1 2.08,-1 c 1.33,0.07 2.09,0.84 2,2.48 l -0.33,6.18 -2.14,-0.12 0.31,-5.74 c 0,-0.84 -0.22,-1.18 -0.85,-1.21 -0.63,-0.03 -1.16,0.39 -1.21,1.32 l -0.29,5.52 -2.14,-0.11 z"
     id="path76" />
  <path
     class="cls-6"
     d="m 177.21455,221.86301 -0.38,4.42 v 0 l 3.19,-4.18 2.41,0.21 -3.4,4.47 2.8,6.58 -2.5,-0.21 -1.89,-4.72 -0.92,1.18 -0.28,3.28 -2.23,-0.19 0.94,-11 z"
     id="path78" />
  <path
     class="cls-6"
     d="m 183.06455,225.12301 2,0.21 -0.1,1 v 0 a 2.26,2.26 0 0 1 2.23,-1 c 1.33,0.14 2,0.94 1.87,2.58 l -0.65,6.15 -2.12,-0.22 0.6,-5.72 c 0.08,-0.84 -0.16,-1.19 -0.79,-1.25 -0.63,-0.06 -1.18,0.33 -1.27,1.25 l -0.58,5.51 -2.13,-0.23 z"
     id="path80" />
  <path
     class="cls-6"
     d="m 193.88455,226.10301 c 2.56,0.26 3.08,1.87 2.73,4.75 -0.35,2.88 -1.36,4.25 -3.79,4 -2.43,-0.25 -3.09,-1.88 -2.74,-4.75 0.35,-2.87 1.37,-4.32 3.8,-4 z m -0.89,7.26 c 0.86,0.11 1.24,-0.71 1.5,-2.77 0.26,-2.06 0.07,-2.94 -0.79,-3.05 -1.05,-0.12 -1.29,1.08 -1.49,2.77 -0.2,1.69 -0.26,2.92 0.78,3.05 z"
     id="path82" />
  <path
     class="cls-6"
     d="m 197.75455,226.78301 2.12,0.3 0.14,6 v 0 l 1.86,-5.72 2.3,0.33 0.26,6 v 0 l 1.83,-5.72 2,0.28 -2.95,8 -2.41,-0.34 -0.26,-6 v 0 l -1.86,5.72 -2.45,-0.35 z"
     id="path84" />
  <path
     class="cls-6"
     d="m 209.74455,225.78301 2.11,0.33 -1.71,10.93 -2.11,-0.33 z"
     id="path86" />
  <path
     class="cls-6"
     d="m 214.04455,233.78301 -0.11,0.66 c -0.16,1 -0.06,1.95 0.72,2.08 0.78,0.13 1.08,-0.37 1.37,-1.35 l 1.9,0.31 c -0.4,1.9 -1.49,2.82 -3.48,2.48 -3.06,-0.51 -2.79,-2.88 -2.44,-4.93 0.35,-2.05 1.14,-4.18 4,-3.7 2.46,0.41 2.74,2.15 2.31,4.67 l -0.08,0.48 z m 2.37,-0.89 c 0.16,-1.27 0.13,-2 -0.75,-2.14 -0.88,-0.14 -1.23,0.69 -1.36,1.45 l -0.05,0.33 z"
     id="path88" />
  <path
     class="cls-6"
     d="m 223.01455,238.33301 v 0 a 2,2 0 0 1 -2.06,0.74 c -1.72,-0.31 -2.29,-1.72 -1.73,-4.77 0.56,-3.05 1.58,-4.18 3.3,-3.86 a 2,2 0 0 1 1.6,1.3 v 0 l 0.62,-3.45 2.11,0.39 -2,10.89 -2,-0.37 z m -1.11,-0.75 c 0.93,0.17 1.28,-0.71 1.61,-2.5 0.33,-1.79 0.31,-2.73 -0.62,-2.9 -0.93,-0.17 -1.27,0.71 -1.59,2.5 -0.32,1.79 -0.31,2.73 0.6,2.9 z"
     id="path90" />
  <path
     class="cls-6"
     d="m 233.97455,232.86301 -1.54,7.77 c -0.43,2.16 -1.6,3 -4,2.53 -1.79,-0.35 -2.63,-1.34 -2.35,-2.74 l 2,0.4 a 0.77,0.77 0 0 0 0.2,0.69 1.27,1.27 0 0 0 0.65,0.36 c 0.85,0.17 1.29,-0.41 1.45,-1.24 l 0.21,-1.08 v 0 a 2.22,2.22 0 0 1 -1.94,0.66 c -1.68,-0.33 -2.29,-1.64 -1.69,-4.63 0.38,-1.92 1.11,-4.12 3.39,-3.66 a 1.86,1.86 0 0 1 1.47,1.46 v 0 l 0.18,-0.91 z m -4.44,5.85 c 0.89,0.18 1.33,-0.73 1.61,-2.11 0.39,-2 0.28,-2.79 -0.55,-3 -0.83,-0.21 -1.25,0.53 -1.68,2.74 -0.23,1.16 -0.26,2.2 0.62,2.37 z"
     id="path92" />
  <path
     class="cls-6"
     d="m 236.36455,237.96301 -0.14,0.65 c -0.2,1 -0.15,1.95 0.63,2.12 0.78,0.17 1.1,-0.32 1.43,-1.3 l 1.88,0.41 c -0.48,1.88 -1.62,2.74 -3.59,2.32 -3,-0.65 -2.65,-3 -2.22,-5 0.47,-2.19 1.33,-4.13 4.15,-3.52 2.44,0.52 2.64,2.28 2.1,4.78 l -0.1,0.47 z m 2.41,-0.79 c 0.22,-1.25 0.21,-2 -0.65,-2.16 -0.86,-0.16 -1.26,0.63 -1.42,1.39 l -0.07,0.32 z"
     id="path94" />
  <path
     class="cls-6"
     d="m 36.374549,249.28301 0.39,1.48 -3.21,0.84 0.55,2.11 3,-0.78 0.39,1.48 -3,0.79 0.63,2.41 3.34,-0.87 0.38,1.49 -5.14,1.34 -2.35,-9 z"
     id="path96" />
  <path
     class="cls-6"
     d="m 40.394549,255.46301 0.06,0.23 a 0.89,0.89 0 0 0 1.16,0.74 0.79,0.79 0 0 0 0.67,-1 0.81,0.81 0 0 0 -0.83,-0.6 l -1.33,-0.13 a 1.93,1.93 0 0 1 -1.91,-1.54 c -0.29,-1.12 0.17,-2.22 2,-2.68 1.57,-0.41 2.5,0.1 2.82,1.32 l 0.07,0.28 -1.56,0.4 c -0.18,-0.68 -0.47,-1 -1,-0.82 a 0.76,0.76 0 0 0 -0.63,0.94 c 0.08,0.33 0.33,0.56 1,0.6 l 1.13,0.08 a 1.89,1.89 0 0 1 2,1.55 c 0.36,1.42 -0.51,2.4 -2,2.78 -1.95,0.51 -2.71,-0.21 -3,-1.5 l -0.06,-0.24 z"
     id="path98" />
  <path
     class="cls-6"
     d="m 43.414549,247.78301 1.74,-0.45 0.5,1.94 1,-0.27 0.3,1.19 -1,0.26 0.94,3.66 c 0.14,0.53 0.31,0.71 0.81,0.58 a 3,3 0 0 0 0.39,-0.12 l 0.32,1.21 c -0.37,0.13 -0.71,0.26 -1.11,0.36 -1.36,0.36 -1.72,0 -2.08,-1.37 l -1,-3.87 -0.88,0.23 -0.31,-1.19 0.88,-0.23 z"
     id="path100" />
  <path
     class="cls-6"
     d="m 50.284549,253.17301 0.51,2 -1.67,0.43 -0.5,-2 z"
     id="path102" />
  <path
     class="cls-6"
     d="m 89.934549,74.363015 -11.72,-13.71 2.77,-2.37 11.73,13.72 z"
     id="path104" />
  <path
     class="cls-6"
     d="m 94.414549,70.503015 -10.3,-14.83 3,-2.07 8.6,12.37 5.290001,-3.68 1.7,2.45 z"
     id="path106" />
  <path
     class="cls-6"
     d="m 103.95455,64.173015 -8.740001,-15.77 3.18,-1.77 8.780001,15.77 z"
     id="path108" />
  <path
     class="cls-6"
     d="m 102.37455,44.283015 5,-2 7,10.93 v 0 l -2.21,-12.82 5,-2 6.56,16.82 -3.11,1.21 -5.24,-13.42 v 0 l 2.24,14.6 -2.64,1 -8.23,-12.26 v 0 l 5.24,13.42 -3.11,1.22 z"
     id="path110" />
  <path
     class="cls-6"
     d="m 137.38455,40.723015 c -0.36,-2.6 -1,-3.66 -2.67,-3.43 -1.83,0.25 -2,2.14 -1.3,7.2 0.74,5.41 1.63,6.28 3.18,6.07 1.3,-0.18 2.16,-1 1.63,-4.85 l 3.61,-0.5 c 0.53,3.86 0,7.32 -4.7,8 -5.41,0.75 -6.61,-3 -7.37,-8.45 -0.76,-5.45 -0.6,-9.39 4.81,-10.14 5.16,-0.71 6,3 6.41,5.63 z"
     id="path112" />
  <path
     class="cls-6"
     d="m 150.21455,33.603015 c 5.46,0.08 6.09,4 6,9.47 -0.09,5.47 -0.82,9.37 -6.28,9.29 -5.46,-0.08 -6.09,-4 -6,-9.47 0.09,-5.47 0.83,-9.37 6.28,-9.29 z m -0.24,16.08 c 2.15,0 2.53,-1.81 2.6,-6.66 0.07,-4.85 -0.25,-6.71 -2.4,-6.74 -2.15,-0.03 -2.53,1.83 -2.6,6.66 -0.07,4.83 0.26,6.71 2.41,6.74 z"
     id="path114" />
  <path
     class="cls-6"
     d="m 157.70455,52.253015 2.51,-17.88 3.61,0.5 -2.1,14.91 6.38,0.89 -0.41,2.95 z"
     id="path116" />
  <path
     class="cls-6"
     d="m 168.74455,53.903015 4.66,-17.44 3.52,0.94 -3.89,14.56 6.23,1.66 -0.77,2.88 z"
     id="path118" />
  <path
     class="cls-6"
     d="m 195.69455,44.003015 -1.13,2.78 -6,-2.44 -1.61,3.93 5.62,2.3 -1.13,2.76 -5.62,-2.29 -1.83,4.49 6.2,2.54 -1.1,2.71 -9.57,-3.92 6.83,-16.71 z"
     id="path120" />
  <path
     class="cls-6"
     d="m 203.50455,54.413015 c 0.68,-1.15 1,-2.92 -0.26,-3.66 -1.53,-0.9 -3.06,0.32 -5.33,4.2 -2.27,3.88 -3.22,6.32 -1.41,7.38 a 2.67,2.67 0 0 0 3.4,-1.36 l 0.93,-1.59 -2.08,-1.21 1.36,-2.32 5.08,3 -4.91,8.4 -2.32,-1.35 0.85,-1.44 v 0 a 4,4 0 0 1 -4.29,-0.17 c -3.87,-2.26 -2.94,-5.58 0.21,-11 3.06,-5.23 5.86,-7.2 9.87,-4.85 3.45,2 3.81,4.6 2,7.76 z"
     id="path122" />
  <path
     class="cls-6"
     d="m 220.81455,60.453015 -1.86,2.33 -5,-4 -2.65,3.32 4.75,3.78 -1.86,2.33 -4.75,-3.78 -3,3.8 5.24,4.17 -1.92,2.38 -8.09,-6.45 11.25,-14.12 z"
     id="path124" />
  <path
     class="cls-3"
     d="m 211.06455,170.83301 a 67.62,67.62 0 0 0 14.28,-41.44 c 0,-39.199995 -33.94,-70.999995 -75.82,-70.999995 -41.88,0 -75.820001,31.78 -75.820001,70.999995 a 67.63,67.63 0 0 0 14.29,41.44 z"
     id="path126" />
  <path
     class="cls-4"
     d="m 201.54455,126.69301 a 1.69,1.69 0 0 0 -1.86,-1.41 H 99.744549 a 1.68,1.68 0 0 0 -1.86,1.41 l -15.87,42.72 a 1.68,1.68 0 0 0 1.86,1.37 H 214.96455 a 1.68,1.68 0 0 0 1.86,-1.42 z"
     id="path128" />
  <path
     class="cls-8"
     d="m 201.54455,126.69301 a 1.69,1.69 0 0 0 -1.86,-1.41 H 99.744549 a 1.68,1.68 0 0 0 -1.86,1.41 l -15.87,42.72 a 1.68,1.68 0 0 0 1.86,1.37 H 214.96455 a 1.68,1.68 0 0 0 1.86,-1.42 z"
     id="path130" />
  <path
     class="cls-4"
     d="m 158.01455,102.78301 a 15.07,15.07 0 0 1 0,-30.139995 14.87,14.87 0 0 1 5.06,0.89 17.78,17.78 0 0 0 -8.86,-2.29 18,18 0 1 0 17.1,23.54 15.05,15.05 0 0 1 -13.3,7.999995"
     id="path132" />
  <path
     class="cls-6"
     d="m 108.15455,122.10301 c 2.62,-0.6 7.35,-1.71 15.73,-3.73 23.32,-5.6 25.62,5.61 25.62,5.61 v 0.92 0.07 40.46 h -0.06 l 0.06,0.42 a 6.67,6.67 0 0 0 -4,0.74 l -0.11,0.05 -0.55,0.24 -0.11,0.05 -0.55,0.28 v 0 c -0.39,0.21 -0.73,0.39 -1,0.55 h -0.05 l -0.29,0.17 h -0.07 l -0.17,0.11 v 0 h -0.07 -56.220001 l 14.000001,-42.06 c 0,0 5.76,-2.84 7.81,-4"
     id="path134" />
  <path
     class="cls-9"
     d="m 108.15455,122.10301 c 2.62,-0.6 7.35,-1.71 15.73,-3.73 23.32,-5.6 25.62,5.61 25.62,5.61 v 0.92 0.07 40.46 h -0.06 l 0.06,0.42 a 6.67,6.67 0 0 0 -4,0.74 l -0.11,0.05 -0.55,0.24 -0.11,0.05 -0.55,0.28 v 0 c -0.39,0.21 -0.73,0.39 -1,0.55 h -0.05 l -0.29,0.17 h -0.07 l -0.17,0.11 v 0 h -0.07 -56.220001 l 14.000001,-42.06 c 0,0 5.76,-2.84 7.81,-4"
     id="path136" />
  <path
     class="cls-6"
     d="m 190.89455,122.10301 c -2.62,-0.6 -7.35,-1.71 -15.73,-3.73 -23.32,-5.6 -25.62,5.61 -25.62,5.61 v 0.92 0.07 40.46 h 0.06 l -0.06,0.42 a 6.67,6.67 0 0 1 4,0.74 l 0.11,0.05 0.55,0.24 0.1,0.05 0.56,0.28 v 0 c 0.39,0.21 0.73,0.39 1,0.55 h 0.05 l 0.29,0.17 h 0.07 l 0.17,0.11 v 0 h 0.07 56.21 l -14,-42.06 c 0,0 -5.76,-2.84 -7.81,-4"
     id="path138" />
  <path
     class="cls-9"
     d="m 190.89455,122.10301 c -2.62,-0.6 -7.35,-1.71 -15.73,-3.73 -23.32,-5.6 -25.62,5.61 -25.62,5.61 v 0.92 0.07 40.46 h 0.06 l -0.06,0.42 a 6.67,6.67 0 0 1 4,0.74 l 0.11,0.05 0.55,0.24 0.1,0.05 0.56,0.28 v 0 c 0.39,0.21 0.73,0.39 1,0.55 h 0.05 l 0.29,0.17 h 0.07 l 0.17,0.11 v 0 h 0.07 56.21 l -14,-42.06 c 0,0 -5.76,-2.84 -7.81,-4"
     id="path140" />
  <path
     class="cls-6"
     d="m 108.15455,122.09301 c 1.12,-0.23 5.09,-1.15 17.29,-4.18 21.91,-5.44 24.08,5.44 24.08,5.44 v 42.5 c -1.92,-8.34 -15.5,-9.67 -27.83,-7.25 -12.33,2.42 -25.340001,4.58 -25.340001,4.58 z"
     id="path142" />
  <path
     class="cls-9"
     d="m 108.15455,122.09301 c 1.12,-0.23 5.09,-1.15 17.29,-4.18 21.91,-5.44 24.08,5.44 24.08,5.44 v 42.5 c -1.92,-8.34 -15.5,-9.67 -27.83,-7.25 -12.33,2.42 -25.340001,4.58 -25.340001,4.58 z"
     id="path144" />
  <path
     class="cls-6"
     d="m 190.89455,122.09301 c -1.12,-0.23 -5.09,-1.15 -17.29,-4.18 -21.91,-5.44 -24.08,5.44 -24.08,5.44 v 42.5 c 1.92,-8.34 15.5,-9.67 27.83,-7.25 12.33,2.42 25.34,4.58 25.34,4.58 z"
     id="path146" />
  <path
     class="cls-9"
     d="m 190.89455,122.09301 c -1.12,-0.23 -5.09,-1.15 -17.29,-4.18 -21.91,-5.44 -24.08,5.44 -24.08,5.44 v 42.5 c 1.92,-8.34 15.5,-9.67 27.83,-7.25 12.33,2.42 25.34,4.58 25.34,4.58 z"
     id="path148" />
</svg>
