<?xml version="1.0" encoding="UTF-8"?>
<svg width="64px" height="71px" viewBox="0 0 64 71" version="1.1" xmlns="http://www.w3.org/2000/svg" xmlns:xlink="http://www.w3.org/1999/xlink">
    <!-- Generator: Sketch 43.1 (39012) - http://www.bohemiancoding.com/sketch -->
    <title>logo</title>
    <desc>Created with Sketch.</desc>
    <defs></defs>
    <g id="Desktop" stroke="none" stroke-width="1" fill="none" fill-rule="evenodd">
        <g id="Desktop---Homepage" transform="translate(-23.000000, -24.000000)">
            <g id="logo" transform="translate(23.000000, 24.000000)">
                <polyline id="Fill-1" fill="#0F99D6" points="11.941004 1.67792865 13.2567686 4.44163963 10.0884398 4.99458363"></polyline>
                <polyline id="Fill-2" fill="#0F99D6" points="51.6421815 1.67792865 50.3254079 4.55666813 53.4937367 4.99458363"></polyline>
                <path d="M9.31240109,5.29032795 C11.7350627,3.99272579 12.3979901,2.28546074 11.8642175,1.56098302 C11.0105849,0.404643919 6.14609037,1.61849726 3.77488891,2.4771749 L5.03313922,4.8039794 L3.58418377,7.76142258 C3.58418377,7.76142258 7.54762179,6.25495289 9.62116179,5.72521639 L9.31240109,5.29032795 L9.31240109,5.29032795 Z" id="Fill-3" fill="#0F99D6"></path>
                <path d="M54.2696745,5.29032795 C51.8470129,3.99272579 51.1830765,2.28546074 51.7188671,1.56098302 C52.5714906,0.404643919 57.4369942,1.61849726 59.8081957,2.4771749 L58.5499454,4.8039794 L59.9999099,7.76142258 C59.9999099,7.76142258 56.0344538,6.25495289 53.9609138,5.72521639" id="Fill-5" fill="#0F99D6"></path>
                <path d="M32.249386,62.1349892 C35.7224394,59.958529 55.2318778,45.6051925 55.2318778,22.1383702 C55.2318778,20.5198991 55.2288507,11.8493739 55.2288507,11.8493739 L8.33556699,11.8493739 C8.33556699,11.8493739 8.3315309,20.5198991 8.3315309,22.1383702 C8.3315309,45.6051925 27.8419783,59.958529 31.3150317,62.1349892 L32.249386,62.1349892 Z" id="Fill-7" fill="#0F99D6"></path>
                <path d="M11.8828844,61.8966583 C12.1210135,61.8482252 13.8605673,61.2508843 14.076498,61.1429189 C14.2682121,61.0470618 14.2873836,60.8180139 14.0381552,60.6939042 C13.8282786,60.5899749 11.6921792,59.5577455 10.0797622,59.4255636 C9.49049345,59.3771306 9.42087094,59.6636928 9.60350391,59.8725603 C9.7831098,60.0834459 11.4247884,61.7150343 11.5307357,61.8290538 C11.634665,61.9440823 11.8334423,61.9057395 11.8828844,61.8966583" id="Fill-9" fill="#FEFEFE"></path>
                <polygon id="Fill-11" fill="#0F99D6" points="0.68364942 70.2998935 62.8787502 70.2998935 62.8787502 64.5000357 0.68364942 64.5000357"></polygon>
                <path d="M1.14275438,69.8407886 L62.4216633,69.8407886 L62.4216633,64.9571226 L1.14275438,64.9571226 L1.14275438,69.8407886 Z M62.8071097,64.0429488 C52.9308033,63.5808167 53.6784886,62.7957977 53.3969715,62.4204415 C53.2325009,62.1994657 53.4161429,62.0945275 53.5685052,61.9441832 C53.7218765,61.7908119 54.6935646,61.1319206 54.6935646,61.1319206 C54.9226126,61.934093 55.7298301,62.0460944 56.7640775,61.7322886 C59.3502007,60.9523147 57.9325249,58.8807927 56.2010433,58.6093658 C52.4384006,58.020097 48.4275386,60.0169514 47.4740129,60.7424381 C46.7132104,61.3185896 47.1924958,62.8987179 48.1197869,64.0429488 L15.4436218,64.0429488 C16.3719219,62.8987179 16.8491893,61.3185896 16.0893958,60.7424381 C15.1348611,60.0169514 11.125008,58.020097 7.36236537,58.6093658 C5.63088379,58.8807927 4.21320802,60.9523147 6.79933115,61.7322886 C7.83256957,62.0460944 8.64079611,61.934093 8.86883506,61.1319206 C8.86883506,61.1319206 9.84153217,61.7908119 9.99591252,61.9441832 C10.1472658,62.0945275 10.3309078,62.1994657 10.1654282,62.4204415 C9.88492011,62.7957977 10.6315963,63.5808167 0.757308019,64.0429488 L0.2265625,64.0429488 L0.2265625,70.7569805 L63.3368462,70.7569805 L63.3368462,64.0429488 L62.8071097,64.0429488 Z" id="Fill-13" fill="#161F36"></path>
                <path d="M32.2394976,1.61748824 L31.7814016,1.61748824 L32.2394976,1.61748824 Z M52.532946,9.86826031 L53.8729271,5.24895805 C46.6291589,3.16431881 40.5165042,2.07659321 31.9014752,2.07558418 L31.7844287,2.07558418 L31.3222967,2.07861125 L31.3222967,2.07558418 C22.8848556,2.10585484 16.8367783,3.19257143 9.68785814,5.24895805 L11.0278392,9.86624226 C18.0637489,7.85727966 23.4862326,6.89164571 31.7783746,6.88357353 L32.2374795,6.88256451 L32.2374795,6.88559157 C40.274339,6.92897952 45.6261911,7.89360445 52.532946,9.86826031 L52.532946,9.86826031 Z" id="Fill-14" fill="#0F99D6"></path>
                <path d="M54.3213364,5.34632867 L54.4192115,5.01234242 L54.485807,4.8872237 C53.5776873,4.40087515 52.9460396,3.86104843 52.550503,3.36763672 C52.1519393,2.87119795 52.000586,2.42117418 52.0036131,2.14268414 C52.0046221,1.99133085 52.0419559,1.89547377 52.0873619,1.83392344 C52.1206597,1.7814543 52.2326611,1.6987145 52.4536369,1.63817319 C52.6725946,1.57662285 52.9793373,1.54332513 53.3415761,1.54433415 C54.9287676,1.53828002 57.4715028,2.17093675 59.1505152,2.73195293 L58.033528,4.79338467 L59.0819017,6.93251109 C57.8297056,6.47340613 55.7511204,5.73581112 54.3213364,5.34632867 L54.3213364,5.34632867 Z M52.2195438,9.30169451 C45.6316398,7.44206715 40.3484012,6.50468581 32.6949701,6.43102721 L32.6949701,6.42497308 L31.7787782,6.42497308 C23.6238632,6.43203623 18.1882622,7.36840855 11.3400306,9.30169451 L10.2553321,5.56225935 C17.0591667,3.63300948 22.877187,2.60279813 30.8646043,2.5372117 L30.8646043,2.53922975 L31.7868503,2.53317561 L31.9018788,2.53317561 C40.3040042,2.53620268 46.2774138,3.5694411 53.3042423,5.56225935 L52.2195438,9.30169451 Z M4.50088017,6.93251109 L5.54925392,4.79439369 L4.4332757,2.73195293 C6.11228814,2.17194577 8.65300528,1.53828002 10.2401967,1.54433415 C10.6024356,1.54433415 10.9111963,1.57662285 11.128136,1.63817319 C11.3491118,1.6987145 11.4601042,1.7814543 11.496429,1.83190539 C11.5398169,1.89547377 11.5791688,1.99133085 11.5791688,2.14268414 C11.5821959,2.42117418 11.4318516,2.87119795 11.0332879,3.36763672 C10.6367423,3.86104843 10.0040856,4.40087515 9.09596589,4.8872237 L9.12220046,4.93464773 L9.12018242,4.93464773 L9.24126505,5.35137378 C7.81047199,5.74186525 5.74904025,6.47542417 4.50088017,6.93251109 L4.50088017,6.93251109 Z M12.1906361,3.26471649 L12.5357215,3.99524835 C12.1734827,4.08908738 11.8092258,4.18393544 11.4439599,4.28382861 C11.5539432,4.16980913 11.6548454,4.05276259 11.7476754,3.9377341 C11.9262723,3.71373124 12.0745985,3.48871935 12.1906361,3.26471649 L12.1906361,3.26471649 Z M51.4072812,3.2929691 C51.5223097,3.50688175 51.6625637,3.72281243 51.8340974,3.93874312 C51.9299545,4.05679868 52.0338838,4.17485424 52.1458852,4.29190078 C51.7907095,4.19503468 51.4335157,4.10119565 51.0793491,4.00937465 L51.4072812,3.2929691 Z M59.0647484,4.81457413 L60.4632527,2.22744198 L59.9637869,2.04581804 C58.2444136,1.42728761 55.3273312,0.633187379 53.3415761,0.62814227 C52.9268681,0.629151292 52.5484849,0.663458036 52.2104626,0.755279029 C51.8784944,0.847100022 51.5667066,0.999462328 51.3497669,1.29006064 C51.3043609,1.35161097 51.261982,1.42022446 51.2307023,1.48883795 L51.2246482,1.48681991 L50.0521648,3.75005602 C44.4500752,2.36971407 39.1254666,1.64220928 32.2399012,1.61900177 L32.2399012,1.61799275 L31.7818052,1.61799275 L31.3216913,1.61900177 C24.4966671,1.64019123 19.2033383,2.3576058 13.6557359,3.71474026 L12.3540976,1.48076577 L12.3510705,1.48278382 C12.3167638,1.41517935 12.278421,1.35060195 12.232006,1.29006064 C12.0170843,0.999462328 11.7042875,0.847100022 11.3713103,0.755279029 C11.034297,0.663458036 10.6559137,0.629151292 10.2401967,0.62814227 C8.25645967,0.635205423 5.3363503,1.42728761 3.61899503,2.04581804 L3.11952919,2.22744198 L4.51904256,4.81457413 L2.66143324,8.60244234 L3.74714081,8.18975238 C3.74915885,8.18773433 4.7329552,7.81439623 5.97909725,7.37345366 C7.12635515,6.96580882 8.49963395,6.50266776 9.49654759,6.2322499 L10.715446,10.431799 L11.1533615,10.3066803 C18.1690908,8.30478088 23.521952,7.3522642 31.7807962,7.34116496 L31.9190322,7.34116496 L32.2348561,7.34217398 C40.2374088,7.38657095 45.5216564,8.34211469 52.4072219,10.3066803 L52.8471554,10.431799 L52.9732832,9.99489256 L54.0670629,6.22619576 C55.0639765,6.49661363 56.4493636,6.96278175 57.6046937,7.37345366 C58.8488177,7.81439623 59.833623,8.18773433 59.8356411,8.18975238 L60.9213487,8.60244234 L59.0647484,4.81457413 Z" id="Fill-15" fill="#161F36"></path>
                <path d="M11.8146745,5.78656492 L12.4079794,5.62915751 L12.7177491,6.79962291 L12.7278393,6.79659584 C12.760128,6.6795493 12.7984708,6.56855689 12.8337866,6.45857351 L13.2020796,5.42028997 L13.9356385,5.22655777 L13.357469,6.58470124 L14.6823147,7.86111395 L13.9830626,8.04576495 L13.0335729,7.07407687 L12.8802016,7.41310822 L13.1072315,8.27783999 L12.5149357,8.43423838 L11.8146745,5.78656492 Z" id="Fill-16" fill="#161F36"></path>
                <polygon id="Fill-17" fill="#161F36" points="15.0932894 4.9515993 15.7330092 7.61440809 15.1275961 7.76071627 14.4888852 5.09588943"></polygon>
                <polygon id="Fill-18" fill="#161F36" points="15.8772994 4.76654469 16.4857396 4.63738988 16.9498896 6.80678696 18.0144077 6.57874802 18.1223731 7.08628603 16.4504238 7.44549783"></polygon>
                <polygon id="Fill-19" fill="#161F36" points="18.2061219 4.28241598 18.8185982 4.17344161 19.2060626 6.35898305 20.2786529 6.16726888 20.3704739 6.67985201 18.6864163 6.97953151"></polygon>
                <polygon id="Fill-20" fill="#161F36" points="22.385087 5.22494333 21.3871643 5.36317933 21.4759583 6.00592628 22.5919365 5.85255495 22.659541 6.35605688 20.9290684 6.59418605 20.5547213 3.88092616 22.2307067 3.64986015 22.2983111 4.15235306 21.2398471 4.29866123 21.3175418 4.86270447 22.3154645 4.72547749"></polygon>
                <path d="M23.2415448,5.6471181 C23.4161056,5.71573159 23.6794603,5.77526388 23.941806,5.75003833 C24.2243321,5.72077669 24.3635771,5.58960385 24.3454147,5.41100697 C24.3292704,5.24250031 24.1900254,5.15774248 23.852003,5.07298464 C23.3817988,4.95896516 23.0639569,4.73698034 23.0235961,4.34144376 C22.9781901,3.87729369 23.3303387,3.48276612 23.9740947,3.42020677 C24.2798283,3.38892709 24.5139214,3.43130601 24.6834371,3.48882025 L24.5956522,3.99938534 C24.4796147,3.95700642 24.2778103,3.89949217 24.0104195,3.92572674 C23.7460557,3.95297033 23.6269912,4.08616122 23.6421265,4.22742428 C23.6572618,4.40198507 23.8187053,4.46353541 24.1849803,4.56141053 C24.6834371,4.69157436 24.9336745,4.92163135 24.9720173,5.30606869 C25.0174233,5.76214659 24.7036175,6.18795383 23.9559323,6.26262145 C23.6441445,6.29390113 23.3283207,6.23840493 23.1658681,6.16878242 L23.2415448,5.6471181 Z" id="Fill-21" fill="#161F36"></path>
                <polygon id="Fill-22" fill="#161F36" points="26.0590366 3.81463343 25.3244687 3.86104843 25.29218 3.34241118 27.3929636 3.21123833 27.4252523 3.72987559 26.6785761 3.77629059 26.8188301 5.99109366 26.1962636 6.03044552"></polygon>
                <polygon id="Fill-23" fill="#161F36" points="29.687883 4.71609359 28.6808791 4.74636425 28.7010596 5.39617435 29.827128 5.36085858 29.8422633 5.86940562 28.0966555 5.9238928 28.0098796 3.18742541 29.6999913 3.13495627 29.7161356 3.64148527 28.6475814 3.67478299 28.6657438 4.24387134 29.6737567 4.21259166"></polygon>
                <path d="M31.0756917,4.33175715 L31.319875,4.32973911 C31.6276267,4.32973911 31.8102597,4.17434973 31.8082416,3.93420252 C31.8072326,3.68194705 31.6356989,3.55783735 31.3501457,3.55481029 C31.2008104,3.55481029 31.1170616,3.56792757 31.0716556,3.57700877 L31.0756917,4.33175715 Z M30.4551432,3.15624664 C30.6539206,3.12193989 30.950573,3.09671434 31.2795141,3.0946963 C31.687159,3.09368728 31.9717032,3.15321957 32.1674534,3.30759992 C32.330915,3.4357457 32.4207179,3.62645084 32.422736,3.87870632 C32.424754,4.22883692 32.1765346,4.46999315 31.9404235,4.55475099 L31.9404235,4.56786827 C32.1331467,4.64455394 32.239094,4.82617788 32.3097255,5.07944238 C32.3965014,5.38719405 32.4842863,5.74438781 32.5377644,5.84831706 L31.9030897,5.85235315 C31.8576837,5.7716314 31.7931063,5.55166462 31.7093575,5.21465131 C31.6346898,4.87360191 31.5156253,4.78178092 31.2633698,4.77774483 L31.0767007,4.77875385 L31.0817458,5.85638924 L30.4682605,5.8594163 L30.4551432,3.15624664 Z" id="Fill-24" fill="#161F36"></path>
                <path d="M36.1198931,5.87334081 C36.0038556,5.92681897 35.7445369,5.98231517 35.4125687,5.96919789 C34.4661062,5.93489114 34.0009471,5.32544191 34.0281907,4.54546799 C34.0624974,3.61212273 34.7476233,3.11568396 35.5750213,3.14595461 C35.8968992,3.15705385 36.1360374,3.23071245 36.2450118,3.29226279 L36.1017307,3.77861134 C35.97863,3.7210971 35.8050783,3.66660991 35.5851115,3.65853774 C35.0947268,3.64037534 34.7012083,3.92290148 34.6800188,4.5323507 C34.6608474,5.08125862 34.9726352,5.43845237 35.5235611,5.45762378 C35.7102302,5.46468694 35.9201068,5.43038019 36.0432074,5.38699225 L36.1198931,5.87334081 Z" id="Fill-25" fill="#161F36"></path>
                <path d="M37.231028,4.65454325 C37.1916762,5.18932486 37.416688,5.58486144 37.828369,5.6151321 C38.2471131,5.64540276 38.5145039,5.26701955 38.5528467,4.73627403 C38.5901805,4.24488036 38.3853491,3.80595584 37.9605508,3.77568518 C37.5418067,3.7444055 37.2703799,4.12379774 37.231028,4.65454325 M39.2077019,4.76351762 C39.1400974,5.65852004 38.5589008,6.16202197 37.7607645,6.10248968 C36.9515289,6.04396641 36.5206766,5.39617435 36.5791999,4.61922749 C36.6377231,3.80091073 37.2058025,3.22677727 38.0110019,3.28530054 C38.8505082,3.3478599 39.2621891,4.00977826 39.2077019,4.76351762" id="Fill-26" fill="#161F36"></path>
                <polygon id="Fill-27" fill="#161F36" points="40.0244042 3.50335017 40.6429347 3.5739817 40.3866431 5.77869455 41.4693236 5.90381327 41.4097913 6.42043248 39.7105984 6.22468223"></polygon>
                <polygon id="Fill-28" fill="#161F36" points="42.3883407 3.79213224 43.0028351 3.8869803 42.6648127 6.07857586 43.7404301 6.24506447 43.6627354 6.75966564 41.9726237 6.49832897"></polygon>
                <polygon id="Fill-29" fill="#161F36" points="46.0435226 6.03034461 45.0526631 5.83963947 44.9305714 6.47734131 46.0344414 6.69024493 45.9395933 7.18971077 44.2242561 6.85875159 44.7408753 4.16970823 46.4017253 4.48956817 46.3048592 4.98802499 45.2564855 4.78622061 45.1485201 5.34420972 46.1383706 5.53491486"></polygon>
                <path d="M48.8083435,7.71420036 C48.6075481,7.7343808 48.235219,7.73942591 47.8830704,7.65668611 C47.3967218,7.54367566 47.0728258,7.33884421 46.8821207,7.04521884 C46.6904065,6.7576476 46.6369283,6.37825536 46.7327854,5.98675487 C46.942662,5.10083364 47.7054825,4.74565793 48.5813135,4.94847133 C48.924381,5.02919309 49.1736094,5.15834789 49.291665,5.2511779 L49.0505087,5.70523776 C48.9193359,5.60837166 48.7488112,5.5135236 48.4572038,5.44591913 C47.9526929,5.32887259 47.5067052,5.52563186 47.3735143,6.10279239 C47.2433505,6.65270932 47.5137684,7.05833612 48.0091981,7.17336462 C48.1464251,7.20565332 48.2604446,7.21473452 48.3139227,7.20161723 L48.4450956,6.64463715 L48.0334146,6.54777104 L48.143398,6.07655782 L49.1362756,6.30964187 L48.8083435,7.71420036 Z" id="Fill-30" fill="#161F36"></path>
                <polygon id="Fill-31" fill="#161F36" points="51.3171755 7.30897716 50.3434694 7.05066756 50.1759717 7.6792882 51.2647064 7.96786846 51.1345426 8.45825311 49.4454399 8.01024738 50.1477191 5.36257392 51.7823346 5.79645334 51.6511618 6.28683798 50.6189324 6.01440207 50.4726242 6.56330998 51.4463303 6.82161959"></polygon>
                <path d="M3.92785663,68.2837669 C4.11654372,68.379624 4.40411497,68.4754811 4.70177643,68.4754811 C5.02264539,68.4754811 5.19317009,68.3432992 5.19317009,68.1404858 C5.19317009,67.9497806 5.04585289,67.8397973 4.67453283,67.7066064 C4.16194971,67.5280095 3.82695444,67.2444743 3.82695444,66.7954596 C3.82695444,66.2687502 4.26688799,65.8671594 4.99439278,65.8671594 C5.34351435,65.8671594 5.59879689,65.939809 5.78243888,66.0225488 L5.62604048,66.585583 C5.50293981,66.5260507 5.28398206,66.4372568 4.98127549,66.4372568 C4.67856892,66.4372568 4.53326977,66.5754928 4.53326977,66.7369363 C4.53326977,66.9336956 4.70682153,67.0194625 5.10437616,67.1718248 C5.65025701,67.3726201 5.90553955,67.6571643 5.90553955,68.0910437 C5.90553955,68.6086719 5.50798492,69.0526416 4.66141555,69.0526416 C4.30926691,69.0526416 3.96014533,68.9577935 3.78659356,68.8599184 L3.92785663,68.2837669 Z" id="Fill-32" fill="#161F36"></path>
                <polygon id="Fill-33" fill="#161F36" points="7.20213269 66.5022378 6.37271669 66.5022378 6.37271669 65.9170051 8.74492717 65.9170051 8.74492717 66.5022378 7.90239389 66.5022378 7.90239389 69.0015851 7.20213269 69.0015851"></polygon>
                <path d="M10.0359707,67.2862478 L10.3114337,67.2862478 C10.6595462,67.2862478 10.8653867,67.1116871 10.8653867,66.8412692 C10.8653867,66.557734 10.6726635,66.416471 10.3517945,66.4104168 C10.1832879,66.4104168 10.0874308,66.4245431 10.0359707,66.4346334 L10.0359707,67.2862478 Z M9.34680874,65.958375 C9.5708116,65.9210412 9.9027798,65.8937976 10.2730908,65.8937976 C10.7321958,65.8937976 11.0530648,65.9624111 11.2720225,66.1359629 C11.4546555,66.2832801 11.5565667,66.4971927 11.5565667,66.7807279 C11.5565667,67.1762645 11.2770676,67.4456733 11.0106858,67.5415304 L11.0106858,67.5556567 C11.2266165,67.6424326 11.3456811,67.848273 11.4233758,68.1318082 C11.5202419,68.4799208 11.616099,68.8825205 11.6756313,69.0015851 L10.9612438,69.0015851 C10.9107927,68.9097641 10.8371341,68.6645718 10.7463221,68.2841705 C10.6635823,67.8997332 10.5314004,67.7937859 10.2468563,67.7897498 L10.0359707,67.7897498 L10.0359707,69.0015851 L9.34680874,69.0015851 L9.34680874,65.958375 Z" id="Fill-34" fill="#161F36"></path>
                <polygon id="Fill-35" fill="#161F36" points="14.124931 67.6980297 12.9897814 67.6980297 12.9897814 68.4295706 14.2581219 68.4295706 14.2581219 69.001686 12.2895202 69.001686 12.2895202 65.917106 14.1935445 65.917106 14.1935445 66.4892214 12.9897814 66.4892214 12.9897814 67.1289413 14.124931 67.1289413"></polygon>
                <path d="M14.962621,69.0018878 L14.962621,65.9173078 L15.7769017,65.9173078 L16.4186396,67.0464033 C16.6032906,67.3733264 16.7849146,67.7567548 16.9221415,68.1048673 L16.9352588,68.1048673 C16.8908619,67.6982315 16.8767356,67.2804964 16.8767356,66.8143283 L16.8767356,65.9173078 L17.5174645,65.9173078 L17.5174645,69.0018878 L16.7849146,69.0018878 L16.1270323,67.8112419 C15.9433903,67.4823008 15.7415859,67.0847462 15.5902326,66.7214983 L15.5761063,66.7275524 C15.5942687,67.1351973 15.6033499,67.5690767 15.6033499,68.0725786 L15.6033499,69.0018878 L14.962621,69.0018878 Z" id="Fill-36" fill="#161F36"></path>
                <path d="M20.9291693,68.8602211 C20.7132386,68.9328707 20.3066028,69.0347819 19.8979489,69.0347819 C19.3359237,69.0347819 18.9272699,68.8925098 18.6437347,68.6180558 C18.3612086,68.3526831 18.2048102,67.9490743 18.2108643,67.4960235 C18.2138914,66.4708572 18.9595586,65.8836065 19.9716075,65.8836065 C20.3701712,65.8836065 20.6779229,65.9623102 20.8282671,66.0359688 L20.6809499,66.5949669 C20.5114342,66.5213083 20.3015577,66.460767 19.9625263,66.460767 C19.3813297,66.460767 18.9413962,66.7907172 18.9413962,67.4586897 C18.9413962,68.0953825 19.3389508,68.4707387 19.9120752,68.4707387 C20.0715007,68.4707387 20.2016645,68.4525763 20.2551427,68.4253327 L20.2551427,67.7805677 L19.7798934,67.7805677 L19.7798934,67.2367049 L20.9291693,67.2367049 L20.9291693,68.8602211 Z" id="Fill-37" fill="#161F36"></path>
                <polygon id="Fill-38" fill="#161F36" points="22.2983111 66.5022378 21.4709132 66.5022378 21.4709132 65.9170051 23.8411056 65.9170051 23.8411056 66.5022378 22.9975633 66.5022378 22.9975633 69.0015851 22.2983111 69.0015851"></polygon>
                <polygon id="Fill-39" fill="#161F36" points="25.1411294 65.9170051 25.1411294 67.1015968 26.2893963 67.1015968 26.2893963 65.9170051 26.9866305 65.9170051 26.9866305 69.0015851 26.2893963 69.0015851 26.2893963 67.7110461 25.1411294 67.7110461 25.1411294 69.0015851 24.4408682 69.0015851 24.4408682 65.9170051"></polygon>
                <path d="M30.0688897,66.3007362 C29.8943289,66.3007362 29.7934267,66.4571345 29.7934267,66.61656 C29.7934267,66.7719494 29.8670853,66.9101854 30.0043123,67.0615387 C30.2283151,66.9061493 30.3433436,66.7870847 30.3433436,66.6084878 C30.3433436,66.4611706 30.2545497,66.3007362 30.0719167,66.3007362 L30.0688897,66.3007362 Z M29.9952311,68.5488369 C30.1728189,68.5488369 30.3251812,68.4802235 30.4159932,68.3934476 C30.22327,68.2007244 29.9710145,67.9222343 29.7197681,67.6386992 C29.5926313,67.7305202 29.4786119,67.861693 29.4786119,68.0645064 C29.4786119,68.3258431 29.6743621,68.5488369 29.990186,68.5488369 L29.9952311,68.5488369 Z M30.9427026,69.0018878 C30.8781252,68.9332743 30.8135478,68.8636518 30.7408982,68.78293 C30.5401029,68.9383194 30.2606038,69.0523389 29.8943289,69.0523389 C29.1476527,69.0523389 28.8187115,68.6083692 28.8187115,68.1775169 C28.8187115,67.7708811 29.0517956,67.4782647 29.4039442,67.2946227 L29.4039442,67.2764603 C29.2717624,67.1291431 29.1708602,66.9000952 29.1708602,66.6811374 C29.1708602,66.292664 29.4786119,65.8668567 30.0951242,65.8668567 C30.5713826,65.8668567 30.9326124,66.1453468 30.9326124,66.5903254 C30.9326124,66.9000952 30.7509885,67.1664769 30.3251812,67.3803896 L30.3201361,67.399561 C30.497724,67.5963203 30.6874201,67.8213322 30.8377644,67.9767215 C30.960865,67.7839983 31.0567221,67.4994542 31.098092,67.2250002 L31.7206585,67.2250002 C31.6379187,67.6931864 31.4815203,68.090741 31.2070664,68.3984927 C31.3816272,68.595252 31.5612331,68.7960473 31.7529472,69.0018878 L30.9427026,69.0018878 Z" id="Fill-40" fill="#161F36"></path>
                <path d="M33.4649547,65.9170051 L34.1571437,65.9170051 L34.1571437,67.2812027 L34.17127,67.2812027 C34.2378654,67.1611291 34.3125331,67.0521548 34.3801375,66.9421714 L35.0824168,65.9170051 L35.9390764,65.9170051 L34.9169372,67.2307516 L35.9925545,69.0015851 L35.1782739,69.0015851 L34.4225165,67.6706852 L34.1571437,67.9955902 L34.1571437,69.0015851 L33.4649547,69.0015851 L33.4649547,65.9170051 Z" id="Fill-41" fill="#161F36"></path>
                <polygon id="Fill-42" fill="#161F36" points="36.5069539 69.0022914 37.2072151 69.0022914 37.2072151 65.9177114 36.5069539 65.9177114"></polygon>
                <path d="M38.0402636,69.0018878 L38.0402636,65.9173078 L38.8535352,65.9173078 L39.4952731,67.0464033 C39.6779061,67.3733264 39.8605391,67.7567548 39.9987751,68.1048673 L40.0118924,68.1048673 C39.9674954,67.6982315 39.9533691,67.2804964 39.9533691,66.8143283 L39.9533691,65.9173078 L40.593089,65.9173078 L40.593089,69.0018878 L39.8605391,69.0018878 L39.2016478,67.8112419 C39.0200238,67.4823008 38.8172104,67.0847462 38.6668662,66.7214983 L38.6527399,66.7275524 C38.6719113,67.1351973 38.6809925,67.5690767 38.6809925,68.0725786 L38.6809925,69.0018878 L38.0402636,69.0018878 Z" id="Fill-43" fill="#161F36"></path>
                <path d="M42.128114,68.4758847 C42.1876463,68.490011 42.2835034,68.490011 42.3702792,68.490011 C43.002936,68.4940471 43.4146169,68.1459345 43.4146169,67.4093485 C43.419662,66.7676106 43.0432968,66.4295883 42.4439378,66.4295883 C42.2895575,66.4295883 42.1876463,66.4427055 42.128114,66.4568318 L42.128114,68.4758847 Z M41.4278528,65.958375 C41.6831353,65.9170051 42.0181306,65.8937976 42.3702792,65.8937976 C42.95753,65.8937976 43.3369222,65.9997449 43.6335747,66.2237478 C43.9544436,66.4608679 44.156248,66.8412692 44.156248,67.386141 C44.156248,67.9764188 43.9413263,68.3840637 43.6436649,68.6353101 C43.3187598,68.906737 42.8243391,69.0348828 42.219935,69.0348828 C41.8587051,69.0348828 41.6024136,69.0116753 41.4278528,68.9884678 L41.4278528,65.958375 Z" id="Fill-44" fill="#161F36"></path>
                <polygon id="Fill-45" fill="#161F36" points="44.8446027 65.9170051 45.5448639 65.9170051 45.5448639 68.4163524 46.7708255 68.4163524 46.7708255 69.0015851 44.8446027 69.0015851"></polygon>
                <polygon id="Fill-46" fill="#161F36" points="47.4134716 69.0022914 48.1137328 69.0022914 48.1137328 65.9177114 47.4134716 65.9177114"></polygon>
                <path d="M48.9465795,69.0018878 L48.9465795,65.9173078 L49.7598511,65.9173078 L50.40058,67.0464033 C50.585231,67.3733264 50.766855,67.7567548 50.905091,68.1048673 L50.9192173,68.1048673 C50.8738113,67.6982315 50.860694,67.2804964 50.860694,66.8143283 L50.860694,65.9173078 L51.5004139,65.9173078 L51.5004139,69.0018878 L50.766855,69.0018878 L50.1089727,67.8112419 C49.9253307,67.4823008 49.7235263,67.0847462 49.572173,66.7214983 L49.5590558,66.7275524 C49.5782272,67.1351973 49.5862993,67.5690767 49.5862993,68.0725786 L49.5862993,69.0018878 L48.9465795,69.0018878 Z" id="Fill-47" fill="#161F36"></path>
                <polygon id="Fill-48" fill="#161F36" points="54.1697813 67.6980297 53.0346317 67.6980297 53.0346317 68.4295706 54.3029722 68.4295706 54.3029722 69.001686 52.3353795 69.001686 52.3353795 65.917106 54.2394038 65.917106 54.2394038 66.4892214 53.0346317 66.4892214 53.0346317 67.1289413 54.1697813 67.1289413"></polygon>
                <path d="M55.0316878,68.2837669 C55.2183569,68.379624 55.5069371,68.4754811 55.8045986,68.4754811 C56.1254676,68.4754811 56.2939742,68.3432992 56.2939742,68.1404858 C56.2939742,67.9497806 56.1476661,67.8397973 55.777355,67.7066064 C55.2647719,67.5280095 54.9307856,67.2444743 54.9307856,66.7954596 C54.9307856,66.2687502 55.3697102,65.8671594 56.098224,65.8671594 C56.4463365,65.8671594 56.7016191,65.939809 56.8862701,66.0225488 L56.7298717,66.585583 C56.604753,66.5260507 56.3868042,66.4372568 56.0851067,66.4372568 C55.7803821,66.4372568 55.6350829,66.5754928 55.6350829,66.7369363 C55.6350829,66.9336956 55.8086347,67.0194625 56.2061893,67.1718248 C56.7520702,67.3726201 57.0093708,67.6571643 57.0093708,68.0910437 C57.0093708,68.6086719 56.6108071,69.0526416 55.7632287,69.0526416 C55.410071,69.0526416 55.0629675,68.9577935 54.8894157,68.8599184 L55.0316878,68.2837669 Z" id="Fill-49" fill="#161F36"></path>
                <path d="M57.7328395,68.2837669 C57.9205175,68.379624 58.2080888,68.4754811 58.5057502,68.4754811 C58.8266192,68.4754811 58.9981529,68.3432992 58.9981529,68.1404858 C58.9981529,67.9497806 58.8488177,67.8397973 58.4785066,67.7066064 C57.9669325,67.5280095 57.6319373,67.2444743 57.6319373,66.7954596 C57.6319373,66.2687502 58.0708618,65.8671594 58.7993756,65.8671594 C59.1484972,65.8671594 59.4037797,65.939809 59.5884307,66.0225488 L59.4310233,66.585583 C59.3079226,66.5260507 59.0889649,66.4372568 58.7862583,66.4372568 C58.4825427,66.4372568 58.3362345,66.5754928 58.3362345,66.7369363 C58.3362345,66.9336956 58.5128134,67.0194625 58.9073409,67.1718248 C59.4552398,67.3726201 59.7105224,67.6571643 59.7105224,68.0910437 C59.7105224,68.6086719 59.3129677,69.0526416 58.4643803,69.0526416 C58.1132407,69.0526416 57.7651282,68.9577935 57.5895583,68.8599184 L57.7328395,68.2837669 Z" id="Fill-50" fill="#161F36"></path>
                <polygon id="Fill-51" fill="#FEC52F" points="20.8216076 34.5440926 17.1911468 38.1735444 13.560686 34.5440926 17.1911468 30.9136319"></polygon>
                <polygon id="Fill-52" fill="#FEC52F" points="28.1089655 34.5440926 24.4774957 38.1735444 20.849053 34.5440926 24.4774957 30.9136319"></polygon>
                <polygon id="Fill-53" fill="#FEC52F" points="35.3952136 34.5440926 31.7657618 38.1735444 28.13631 34.5440926 31.7657618 30.9136319"></polygon>
                <polygon id="Fill-54" fill="#FEC52F" points="35.3952136 27.2869044 31.7657618 30.9173652 28.13631 27.2869044 31.7657618 23.6574527"></polygon>
                <polygon id="Fill-55" fill="#FEC52F" points="35.3952136 41.8028953 31.7657618 45.4333561 28.13631 41.8028953 31.7657618 38.1734435"></polygon>
                <polygon id="Fill-56" fill="#FEC52F" points="35.3952136 49.0629087 31.7657618 52.6933695 28.13631 49.0629087 31.7657618 45.433457"></polygon>
                <polygon id="Fill-57" fill="#FEC52F" points="35.3952136 56.3222159 31.7657618 59.9536857 28.13631 56.3222159 31.7657618 52.6937731"></polygon>
                <polygon id="Fill-58" fill="#FEC52F" points="42.6814616 34.5440926 39.0520098 38.1735444 35.421549 34.5440926 39.0520098 30.9136319"></polygon>
                <polygon id="Fill-59" fill="#FEC52F" points="49.9688196 34.5440926 46.3393678 38.1735444 42.707898 34.5440926 46.3393678 30.9136319"></polygon>
                <path d="M31.5720296,31.8096433 C31.31372,32.1103318 30.440916,32.9972621 30.4550423,33.4260964 C30.4711867,33.8559397 30.7708662,33.8125518 30.8838767,33.8408044 C30.9989051,33.870066 31.8858354,33.9558329 32.1007571,33.8841923 C32.2652276,33.8297051 32.5164741,33.6995413 32.5729793,33.3554648 C32.6304936,33.0113884 32.5881146,32.6390593 32.2581645,32.5532924 C31.9302324,32.4675256 31.5568943,32.2808565 31.5720296,31.8096433" id="Fill-60" fill="#000000"></path>
                <path d="M33.5329627,34.4129198 C33.3170321,34.4714431 33.0022172,34.5713362 32.8881978,34.5713362 L30.642115,34.5713362 C30.4978249,34.5713362 30.3414265,34.4421814 30.1547574,34.3422883 C29.9690974,34.2413861 29.8399426,34.284774 29.7249141,34.3705409 C29.6119036,34.4563077 29.352585,34.5995888 29.2970888,34.6571031 C29.2375565,34.7136083 29.2244392,34.7862579 29.3828557,34.8003842 C29.5392541,34.8135015 29.5967683,34.885142 29.6552916,34.9567826 C29.7107878,35.0284232 31.0144441,36.0868871 31.1698335,36.1867803 C31.3282499,36.2886915 32.1425306,36.2301682 32.301956,36.1444014 C32.4583544,36.0586345 33.6449642,35.0284232 33.7902633,35.0142968 C33.9315264,35.0001705 34.0758165,34.8417541 33.960788,34.7711226 C33.8457595,34.700491 33.8326422,34.6702204 33.8326422,34.5713362 C33.8326422,34.4714431 33.6449642,34.3564146 33.5329627,34.4129198" id="Fill-61" fill="#000000"></path>
                <path d="M44.4568356,49.6623687 C39.3935637,56.1423073 33.8974215,60.1884851 32.033758,61.3902302 L31.5312651,61.3902302 C29.6676017,60.1884851 24.1694413,56.1423073 19.1071785,49.6623687 C14.0681231,43.2137097 9.44882085,34.3746779 9.09969927,23.4671511 L54.4653238,23.4671511 C54.1151932,34.3746779 49.4969,43.2137097 44.4568356,49.6623687 L44.4568356,49.6623687 Z M54.4855043,13.3850043 L53.6944311,12.5939312 L54.4855043,12.5939312 L54.4855043,13.3850043 Z M54.4855043,14.8672575 L52.214196,12.5939312 L53.2090916,12.5939312 L54.4855043,13.8713529 L54.4855043,14.8672575 Z M50.7329518,12.5939312 L51.7288564,12.5939312 L54.4865133,15.351588 L54.4865133,16.3474926 L50.7329518,12.5939312 Z M54.4865133,18.3150853 L54.4865133,19.3109899 L47.7694545,12.5939312 L48.7653591,12.5939312 L54.4865133,18.3150853 Z M54.4865133,16.8338412 L54.4865133,17.8297458 L49.2517077,12.5939312 L50.2466033,12.5939312 L54.4865133,16.8338412 Z M46.2882104,12.5939312 L47.285124,12.5939312 L54.4865133,19.7973385 L54.4865133,20.7912251 L46.2882104,12.5939312 Z M54.4865133,22.2724692 L44.8079752,12.5939312 L45.8028708,12.5939312 L54.4865133,21.2775736 L54.4865133,22.1382693 L54.4865133,22.2724692 Z M53.2837592,22.5519683 L43.3257221,12.5939312 L44.3226357,12.5939312 L54.2786548,22.5519683 L53.2837592,22.5519683 Z M51.8035241,22.5519683 L41.8444779,12.5939312 L42.8403825,12.5939312 L52.7984197,22.5519683 L51.8035241,22.5519683 Z M50.3232889,22.5519683 L40.3642428,12.5939312 L41.3591384,12.5939312 L51.3171755,22.5519683 L50.3232889,22.5519683 Z M48.8410358,22.5519683 L38.8829987,12.5939312 L39.8778942,12.5939312 L49.8359314,22.5519683 L48.8410358,22.5519683 Z M47.3587826,22.5519683 L37.4017545,12.5939312 L38.3966501,12.5939312 L48.3556962,22.5519683 L47.3587826,22.5519683 Z M45.8785475,22.5519683 L35.9205104,12.5939312 L36.917424,12.5939312 L46.8734431,22.5519683 L45.8785475,22.5519683 Z M44.3973033,22.5519683 L34.4392662,12.5939312 L35.4341618,12.5939312 L45.3932079,22.5519683 L44.3973033,22.5519683 Z M42.9160592,22.5519683 L32.9590311,12.5939312 L33.9539267,12.5939312 L43.9109548,22.5519683 L42.9160592,22.5519683 Z M41.434815,22.5519683 L31.4777869,12.5939312 L32.4726825,12.5939312 L42.4297106,22.5519683 L41.434815,22.5519683 Z M39.9525619,22.5519683 L29.9955338,12.5939312 L30.9914384,12.5939312 L40.9484665,22.5519683 L39.9525619,22.5519683 Z M38.4733358,22.5519683 L28.5152986,12.5939312 L29.5112033,12.5939312 L39.4672223,22.5519683 L38.4733358,22.5519683 Z M36.9900736,22.5519683 L27.0340545,12.5939312 L28.0299591,12.5939312 L37.9869872,22.5519683 L36.9900736,22.5519683 Z M35.5108475,22.5519683 L25.5528104,12.5939312 L26.5477059,12.5939312 L36.5067521,22.5519683 L35.5108475,22.5519683 Z M34.0296033,22.5519683 L24.0715662,12.5939312 L25.0664618,12.5939312 L35.0255079,22.5519683 L34.0296033,22.5519683 Z M32.5483592,22.5519683 L22.5903221,12.5939312 L23.5862267,12.5939312 L33.5432548,22.5519683 L32.5483592,22.5519683 Z M31.067115,22.5519683 L21.1090779,12.5939312 L22.1039735,12.5939312 L32.0620106,22.5519683 L31.067115,22.5519683 Z M29.5858709,22.5519683 L19.6288428,12.5939312 L20.6227294,12.5939312 L30.5807665,22.5519683 L29.5858709,22.5519683 Z M28.1046267,22.5519683 L18.1465896,12.5939312 L19.1424942,12.5939312 L29.0995223,22.5519683 L28.1046267,22.5519683 Z M26.6243916,22.5519683 L16.6653455,12.5939312 L17.6612501,12.5939312 L27.6192872,22.5519683 L26.6243916,22.5519683 Z M25.1421384,22.5519683 L15.1841013,12.5939312 L16.1800059,12.5939312 L26.137034,22.5519683 L25.1421384,22.5519683 Z M23.6608943,22.5519683 L13.7028572,12.5939312 L14.6977528,12.5939312 L24.6567989,22.5519683 L23.6608943,22.5519683 Z M22.1796501,22.5519683 L12.220604,12.5939312 L13.2175176,12.5939312 L23.1755548,22.5519683 L22.1796501,22.5519683 Z M20.699415,22.5519683 L10.7403689,12.5939312 L11.7352645,12.5939312 L21.6943106,22.5519683 L20.699415,22.5519683 Z M19.2171619,22.5519683 L9.26114278,12.5939312 L10.2560384,12.5939312 L20.2130665,22.5519683 L19.2171619,22.5519683 Z M17.7359177,22.5519683 L9.07850981,13.8935514 L9.07850981,12.8986558 L18.7318223,22.5519683 L17.7359177,22.5519683 Z M16.2536645,22.5519683 L9.07750079,15.3737865 C9.07750079,15.028701 9.07850981,14.6947148 9.07850981,14.3788909 L17.2505782,22.5519683 L16.2536645,22.5519683 Z M14.7734294,22.5519683 L9.07750079,16.8550306 L9.07750079,16.3868445 L9.07750079,15.860135 L15.769334,22.5519683 L14.7734294,22.5519683 Z M13.2921853,22.5519683 L9.07750079,18.3362748 L9.07750079,17.3403702 L14.2880899,22.5519683 L13.2921853,22.5519683 Z M11.8109411,22.5519683 L9.07649177,19.8165099 C9.07649177,19.499677 9.07649177,19.1666998 9.07750079,18.8216143 L12.8068457,22.5519683 L11.8109411,22.5519683 Z M10.331715,22.5519683 L9.07649177,21.2977541 L9.07649177,20.3018494 L11.3276196,22.5519683 L10.331715,22.5519683 Z M9.07951883,22.5519683 C9.07850981,22.4137323 9.07649177,22.2765053 9.07649177,22.1382693 L9.07649177,21.7841026 L9.84536646,22.5519683 L9.07951883,22.5519683 Z M55.9738116,11.849273 L55.9738116,11.1056239 L7.58919349,11.1056239 L7.58919349,11.849273 C7.58919349,11.849273 7.58818447,20.5197982 7.58818447,22.1382693 C7.58818447,34.0850886 12.5545903,43.7000583 17.934695,50.5785605 C23.3218629,57.464126 29.1106216,61.6283594 30.9187888,62.765527 L31.1004128,62.8785375 L32.4636013,62.8785375 L32.6442163,62.765527 C34.4533925,61.6283594 40.2431602,57.464126 45.62831,50.5785605 C51.0084148,43.7000583 55.9748206,34.0850886 55.9748206,22.1382693 C55.9748206,20.5197982 55.9738116,11.849273 55.9738116,11.849273 L55.9738116,11.849273 Z" id="Fill-62" fill="#161F36"></path>
                <polygon id="Fill-63" fill="#FEC52F" points="36.2647886 16.8905482 32.275116 16.281099 32.2508995 13.0270034 31.2005077 13.0270034 30.5910585 17.0166759 27.3359539 17.0408925 27.3359539 18.0922933 31.3266355 18.7007335 31.349843 21.9558381 32.4012438 21.9558381 33.009684 17.9661656 36.2647886 17.941949"></polygon>
            </g>
        </g>
    </g>
</svg>