<?xml version="1.0" encoding="UTF-8" standalone="no"?>
<svg
   xmlns:dc="http://purl.org/dc/elements/1.1/"
   xmlns:cc="http://creativecommons.org/ns#"
   xmlns:rdf="http://www.w3.org/1999/02/22-rdf-syntax-ns#"
   xmlns:svg="http://www.w3.org/2000/svg"
   xmlns="http://www.w3.org/2000/svg"
   xmlns:sodipodi="http://sodipodi.sourceforge.net/DTD/sodipodi-0.dtd"
   xmlns:inkscape="http://www.inkscape.org/namespaces/inkscape"
   width="56.000031"
   height="47.999043"
   viewBox="0 0 56.000031 47.999043"
   version="1.1"
   id="svg25"
   sodipodi:docname="kingswood-college-web.svg"
   inkscape:version="1.0.1 (3bc2e813f5, 2020-09-07)">
  <metadata
     id="metadata29">
    <rdf:RDF>
      <cc:Work
         rdf:about="">
        <dc:format>image/svg+xml</dc:format>
        <dc:type
           rdf:resource="http://purl.org/dc/dcmitype/StillImage" />
      </cc:Work>
    </rdf:RDF>
  </metadata>
  <sodipodi:namedview
     pagecolor="#ffffff"
     bordercolor="#666666"
     borderopacity="1"
     objecttolerance="10"
     gridtolerance="10"
     guidetolerance="10"
     inkscape:pageopacity="0"
     inkscape:pageshadow="2"
     inkscape:window-width="1920"
     inkscape:window-height="1000"
     id="namedview27"
     showgrid="false"
     inkscape:zoom="3.5472779"
     inkscape:cx="174.50088"
     inkscape:cy="25"
     inkscape:window-x="1920"
     inkscape:window-y="0"
     inkscape:window-maximized="1"
     inkscape:current-layer="g23" />
  <defs
     id="defs3">
    <path
       id="a"
       d="M 0,0 H 353 V 51 H 0 Z" />
  </defs>
  <g
     fill="none"
     fill-rule="evenodd"
     id="g23"
     transform="translate(8.7625412e-4)">
    <path
       fill="#fdbd00"
       d="m 11.207,12 c -0.022,-0.235 -0.373,-0.96 -0.138,-1.397 0.132,-0.245 0.588,-0.006 0.723,0.053 0.226,0.1 0.88,0.4 1.103,0.487 0.022,-0.366 0.06,-0.774 0.105,-1.084 A 4.701,4.701 0 0 1 12.16,9.828 C 11.907,9.728 11.313,9.599 11.447,9.208 11.546,8.928 11.903,8.718 12.155,8.534 11.284,8.041 10.755,7.635 10.272,6.862 9.785,6.082 9.582,4.972 9.466,4 9.08,5.474 8.811,6.93 9.166,8.448 9.486,9.831 10.327,11.062 11.207,12 m 2.827,-2.029 c 0.373,0.527 0.921,1.029 0.921,1.029 0,0 0.42,-0.11 1.234,-0.126 1.064,-0.021 1.307,-0.31 1.696,-0.404 C 18.105,10.414 17.9,9.565 18,9 17.9,9.565 17.81,9.808 17.326,9.632 16.572,9.355 16.146,9.092 15.389,9.451 c -0.672,0.318 -1.335,0.463 -1.335,0.463 0,0 -0.022,0.002 -0.054,0.01 0.013,0.015 0.023,0.032 0.034,0.047"
       id="path11" />
    <path
       fill="#002c5a"
       d="M 22,9 C 21.15,7.969 20.151,7.044 19,6.314 19.583,6.047 20.5,5.731 20.912,6.393 21.394,7.173 21.773,8.127 22,9 21.142,7.96 22,9 22,9 m 0.45,3 c 0,0 0.552,1.923 0.259,3.295 -0.294,1.361 -1.167,3.446 -2.115,5.537 -1.253,2.764 -0.81,6.252 2.406,8.168 -4.42,-2.166 -4.48,-5.856 -3.46,-8.092 1.148,-2.515 1.802,-3.49 2.404,-5.167 C 22.547,14.061 22.449,12 22.449,12"
       id="path13" />
    <path
       fill="#1a1919"
       d="m 48.002,33.003 c -0.003,-0.004 -0.003,-0.004 0,0 M 49,34 49.026,34.074 49,34 m 0,0 c 0.011,0.03 0.01,0.027 0,0 M 48,33 48.007,33.016 48,33"
       id="path15" />
    <path
       fill="#002c5a"
       d="m 55.338,15.627 c -0.121,1.581 -0.295,2.927 -1.158,4.574 -0.906,1.722 -1.629,2.414 -2.524,3.644 -0.745,1.025 -1.197,2.048 -1.632,3.313 -0.526,-1.16 -0.627,-2.718 -0.627,-2.718 0,0 -1.592,0.914 -2.594,1.615 a 16.992,16.992 0 0 0 -1.95,1.625 l -1.16,-0.97 c 0,0 0.48,-0.445 1.56,-1.147 1.012,-0.66 3.209,-1.92 3.209,-1.92 0,0 -0.746,-0.107 -1.36,-0.615 -0.543,-0.447 -1.145,-1.292 -1.145,-1.292 0,0 0.45,0.094 1.066,0.022 1.09,-0.128 2.83,-0.58 4.644,-2.461 1.655,-1.715 2.266,-3.022 2.898,-4.858 0.47,-1.367 0.564,-2.188 0.564,-2.188 0,0 0.363,1.418 0.21,3.376 z M 39.732,34.144 c 0,0 1.728,0.825 2.408,2.672 0.526,1.432 0.488,3.646 -0.94,4.662 -1.536,1.091 -3.177,0.396 -3.617,-1.523 -0.586,-2.562 2.15,-5.811 2.15,-5.811 z M 46.995,32.9 c 0,0.003 0.005,0.011 0.008,0.024 l 0.008,0.02 c 0.017,0.048 0.046,0.132 0.09,0.268 0.01,0.023 0.02,0.048 0.028,0.076 l 0.086,0.25 c 0.02,0.062 0.04,0.116 0.059,0.169 a 0.28,0.28 0 0 1 0.01,0.039 c 0.02,0.051 0.037,0.097 0.05,0.141 l 0.02,0.058 0.067,0.193 0.03,0.087 c 0.011,0.032 0.013,0.036 0,0 l -0.03,-0.087 a 11.8,11.8 0 0 1 -0.067,-0.193 l -0.02,-0.058 c -0.014,-0.046 -0.031,-0.092 -0.05,-0.141 a 0.242,0.242 0 0 0 -0.01,-0.04 c -0.02,-0.055 -0.04,-0.111 -0.059,-0.169 0.831,2.419 0.505,4.957 -0.53,7.234 -0.92,2.026 -2.222,3.854 -4.2,4.903 -1.698,0.898 -3.821,1.17 -5.49,0.055 -0.898,-0.6 -1.716,-1.487 -2.317,-2.384 -0.647,-0.968 -0.893,-2.142 -0.858,-3.325 0.037,-1.255 0.533,-2.936 1.134,-4.023 0.694,-1.25 1.697,-2.307 1.697,-2.307 0,0 0.44,-0.082 1.138,0.001 0.581,0.069 1.325,0.303 1.325,0.303 0,0 -1.642,2.247 -2.094,3.897 -0.676,2.455 0.107,5.14 2.674,5.24 2.438,0.097 3.99,-2.004 3.828,-4.54 -0.192,-2.98 -2.179,-4.683 -4.183,-5.238 -1.213,-0.334 -2.656,-0.431 -3.886,-0.21 -1.905,0.341 -5.657,1.305 -7.264,1.344 -2.86,0.065 -6.256,-0.793 -6.256,-0.793 0,0 0.245,1.338 -0.001,2.154 -0.75,2.455 -1.627,4.973 -2.107,7.465 -0.08,0.423 -0.288,1.556 0.02,1.951 0.107,0.138 0.424,-0.113 0.512,-0.146 0.397,-0.154 1.168,-0.2 1.81,-0.284 1.016,-0.138 1.687,0.458 1.797,0.767 0.136,0.38 0.048,1.047 -0.271,1.111 -0.755,0.147 -3.626,0.322 -4.144,0.028 -0.57,-0.321 -0.94,-0.38 -1.641,-0.337 -1.468,0.092 -2.54,0.607 -3.99,0.44 -1.705,-0.196 -2.54,-0.02 -3.166,0.068 -0.534,0.076 -0.593,-1.327 -0.383,-1.9 0.228,-0.635 2.511,-0.066 3.918,-0.16 0.912,-0.06 2.402,-0.147 2.618,-0.765 0.174,-0.507 0.384,-2.77 0.573,-4.743 0.14,-1.464 0.267,-3.047 0.384,-4.02 0.085,-0.722 0.167,-1.455 0.21,-1.653 0.054,-0.248 0.258,-0.307 0.586,-0.377 0.326,-0.07 1.028,-0.309 1.028,-0.309 0,0 -1.394,-0.306 -1.881,-0.625 -0.537,-0.354 -1.144,-0.85 -1.543,-1.356 a 17.62,17.62 0 0 1 -0.485,-0.699 l 0.248,1.145 c 0,0 -0.918,0.33 -1.511,0.635 -0.704,0.36 -1.479,0.816 -2.18,1.175 -0.119,0.059 -0.238,-0.746 -0.996,-1.756 -0.902,-1.198 -2.125,-1.664 -2.125,-1.664 0,0 -0.02,-1.956 -0.356,-3.777 C 8.609,24.702 8.113,23.479 7.622,22.19 7.367,21.523 7.102,20.937 6.823,20.28 6.637,19.847 6.272,19.306 6.472,18.82 6.696,18.277 5.648,18.407 4.891,19.298 4.578,19.668 4.197,19.863 3.725,19.946 3.492,19.99 2.565,20.39 2.49,20.052 c -0.087,-0.41 0.026,-0.81 0.305,-1.061 0.388,-0.353 0.862,-0.423 1.3,-0.67 0.414,-0.232 0.68,-0.671 0.92,-1.061 0.327,-0.532 0.327,-1.065 0.317,-1.684 -0.003,-0.23 -0.226,-0.915 0.115,-0.984 0.104,-0.022 0.6,0.306 0.6,0.306 0,0 -0.308,-0.663 -0.53,-0.724 -0.929,-0.257 -1.748,0.807 -2.525,1.644 -0.17,0.181 -0.792,0.222 -0.906,-0.003 -0.11,-0.214 0.22,-0.722 0.382,-0.985 0.298,-0.48 0.389,-0.75 0.715,-1.2 0.302,-0.413 0.746,-0.834 1.265,-0.965 0.614,-0.156 2.314,-0.264 2.63,-0.192 0.447,0.1 0.596,0.77 0.683,1.145 0.104,0.448 0.253,0.918 0.077,1.357 -0.183,0.461 -0.216,0.672 -0.104,1.17 0.596,1.23 1.23,2.478 1.82,3.712 a 117.23,117.23 0 0 0 1.773,3.543 c 0.449,0.866 0.847,1.921 1.621,2.545 0.402,0.325 0.876,0.412 1.16,0.85 0.127,0.196 0.302,0.431 0.424,0.665 0.195,0.373 0.534,1.03 0.534,1.03 0,0 -0.093,-0.607 -0.145,-0.885 -0.091,-0.495 -0.114,-0.76 -0.167,-1.262 -0.119,-1.148 0.176,-2.287 0.62,-3.35 0.457,-1.097 1.113,-2.09 1.65,-3.143 0.604,-1.175 1.174,-1.961 1.676,-3.188 0.24,-0.585 0.539,-1.303 0.84,-2.645 0.343,-1.518 0.243,-2.943 0.243,-2.943 0,0 -0.846,1.595 -1.023,1.613 -0.257,0.025 -0.515,-0.036 -0.772,-0.021 a 6.841,6.841 0 0 0 -1.855,0.373 7.525,7.525 0 0 0 -1.846,0.96 c -0.125,0.088 -0.818,0.802 -0.925,0.562 -0.17,-0.392 -0.086,-0.938 -0.117,-1.358 -0.02,-0.268 -0.135,-1.012 0.202,-1.137 0.604,-0.226 2.134,-0.268 2.77,-0.267 0.753,0 1.775,-0.404 1.797,-0.714 0.035,-0.558 0.201,-1.92 0.304,-2.148 0.17,0.002 0.34,0.012 0.504,0.042 C 17.364,8.066 15.58,7.524 13.925,7.135 13.089,6.937 12.959,6.697 12.804,6.459 12.665,6.243 12.907,5.665 13.109,5.362 c 0.215,-0.32 0.504,-0.626 0.75,-0.54 0.8,0.282 1.721,0.7 2.548,0.868 0.229,0.046 0.709,-0.23 1.123,-0.467 0.41,-0.236 0.765,-0.498 1.232,-0.28 0.362,0.17 0.779,0.388 1.15,0.515 0.455,0.155 0.676,-0.112 0.95,-0.41 0.762,-0.838 1.736,-1.703 2.614,-2.417 0.413,-0.336 1.462,-1.218 1.462,-1.218 0,0 -0.091,1.712 -0.895,2.857 -0.752,1.072 -1.343,1.965 -1.177,3.026 0.068,0.424 0.475,1.417 1.284,2.701 0.656,1.042 0.98,1.568 1.316,3.402 0.321,1.75 -0.14,3.128 -0.372,4.87 -0.14,1.057 -0.16,2.19 0.006,3.256 0.332,2.133 0.651,3.753 0.651,3.753 0,0 0.275,-1.406 0.636,-1.935 a 5.119,5.119 0 0 1 2.073,1.37 c 1.062,1.154 1.663,2.746 1.663,2.746 0,0 -0.226,-1.643 -1.175,-3.03 -0.751,-1.104 -1.474,-1.472 -2.208,-1.82 0.107,-0.185 0.378,-0.6 0.51,-0.79 0.33,-0.477 0.872,-1.193 1.38,-1.994 1.452,-0.017 3.116,0.09 4.768,0.974 2.01,1.078 3.545,2.935 3.545,2.935 0,0 -1.044,-1.867 -2.705,-3.212 -1.294,-1.048 -3.454,-1.696 -5.111,-1.586 0.274,-0.463 0.507,-0.89 0.644,-1.21 0.55,-1.29 0.609,-1.925 1.5,-2.271 0.872,-0.34 4.445,-1.826 8.103,-1.725 2.607,0.074 5.78,1.476 5.78,1.476 0,0 -2.939,-1.943 -5.378,-2.254 -2.091,-0.266 -4.327,0.1 -6.676,0.713 0.246,-0.263 0.56,-0.62 0.798,-0.918 0.743,-0.936 1.288,-1.666 2.297,-2.844 0.746,-0.87 1.559,-1.796 2.221,-1.5 0.531,0.236 -0.084,1.454 -0.084,1.454 0,0 1.398,-1.378 4.289,-2.125 3.528,-0.915 5.592,-0.53 5.592,-0.53 0,0 -0.615,0.706 -0.828,1.03 -0.708,1.082 -1.221,2.657 -1.41,3.944 -0.296,2.058 0.2,3.754 0.2,3.754 0,0 -1.149,-0.356 -2.5,0.346 -2.368,1.229 -3.073,3.832 -4.564,5.956 -0.964,1.373 -1.74,2.282 -2.715,3.085 -2.8,2.308 -6.748,3.171 -10.337,3.111 0.679,0.194 2.077,0.343 3.117,0.295 1.41,-0.067 3.986,-0.423 5.894,-1.328 1.908,-0.905 3.39,-1.857 3.39,-1.857 0,0 2.473,0.645 4.495,2.299 2.345,1.917 3.48,3.426 4.26,5.7 l -0.086,-0.249 a 1.376,1.376 0 0 0 -0.027,-0.076 l -0.09,-0.269 -0.009,-0.019 C 47,32.911 46.995,32.904 46.995,32.9 c -0.002,-0.005 -0.002,-0.005 0,0 z M 2.507,17.298 c 0,0 -0.301,-0.574 -0.358,-0.974 0.158,0.04 0.403,0.073 0.713,0.058 -0.225,0.351 -0.355,0.916 -0.355,0.916 z M 1.897,14.63 c -0.246,0.369 -0.42,0.961 -0.399,1.351 0.007,0.148 -0.343,0.109 -0.706,-0.004 -0.566,-0.18 -0.15,-0.935 0.04,-1.226 0.41,-0.628 0.847,-1.164 1.078,-1.225 0.245,-0.066 0.771,-0.067 0.771,-0.067 0,0 -0.503,0.756 -0.785,1.171 z m -1.492,2.632 c 0,0 -0.149,-0.662 -0.1,-1.082 0.148,0.082 0.387,0.185 0.71,0.257 -0.324,0.292 -0.61,0.826 -0.61,0.826 z m 13.003,-6.805 c 0.245,0.465 0.904,1.11 0.904,1.11 0,0 -0.804,0.037 -1.093,0.161 0,0 0.01,-0.739 0.189,-1.271 z M 12.911,8.98 C 12.771,8.262 12.73,7.906 12.743,7.375 c 0,0 0.501,0.194 1.112,0.365 -0.373,0.29 -0.676,0.671 -0.944,1.24 z M 2.042,20.043 c 0,0 -0.34,-0.185 -0.582,-0.377 C 1.22,19.474 1.059,19.131 1.059,19.131 l 0.99,0.284 z m 52.813,-10.7 c 0,0 0.109,1.062 -0.017,2.11 -0.225,1.848 -0.954,4.307 -2.675,6.519 -1.72,2.211 -4.082,3.234 -5.407,3.251 -0.908,0.009 -1.868,-0.234 -1.868,-0.234 0,0 0.258,0.56 0.813,1.28 0.718,0.93 1.583,1.524 1.583,1.524 l -1.969,1.16 c -1.509,0.89 -2.058,1.373 -2.058,1.373 0,0 -2.08,-1.53 -1.198,-1.83 0.598,-0.206 1.35,0.255 1.35,0.255 0,0 -0.611,-0.859 -1.555,-1.151 -1.128,-0.35 -2.185,-0.114 -2.185,-0.114 0,0 1.392,-2.651 2.677,-4.686 0.695,-1.103 1.513,-1.983 2.752,-2.18 0.972,-0.155 2.016,0.588 2.016,0.588 0,0 -0.4,-1.09 -0.475,-1.692 -0.298,-2.428 0.246,-5.007 1.567,-7.054 0.642,-0.996 1.41,-1.714 2.542,-2.072 0.773,-0.247 1.662,-0.288 1.662,-0.288 0,0 -2.276,-0.755 -4.32,-0.905 -1.368,-0.099 -3.125,-0.157 -4.49,-0.03 -2.668,0.247 -5.638,1.08 -7.914,2.5 -2.643,1.65 -5.06,4.511 -5.327,4.783 -0.216,0.224 -0.22,0.295 -0.477,0.104 -0.63,-0.465 -1.349,-0.824 -2.066,-1.132 0.95,2.12 1.267,4.456 0.543,6.644 -0.8,2.421 -2.07,3.97 -2.07,3.97 l -0.207,-0.844 a 7.914,7.914 0 0 1 -0.192,-1.87 c 0.007,-1.3 0.262,-2.572 0.346,-3.867 A 8.494,8.494 0 0 0 25.619,11.758 C 25.231,10.788 24.646,9.991 24.133,9.098 23.966,8.804 23.688,8.332 23.844,7.98 24.066,7.478 24.464,7.039 24.709,6.542 25.707,4.516 25.407,2.148 25.982,0 24.152,1.526 22.68,2.636 20.94,4.272 20.777,4.425 20.21,5.13 19.952,5.019 19.624,4.874 19.262,4.579 18.921,4.454 18.323,4.238 17.683,4.282 17.133,4.649 16.536,5.052 16.187,5.304 15.463,4.972 14.963,4.744 14.282,4.278 13.737,4.187 12.864,4.039 12.15,5.561 11.866,6.281 c -0.215,0.548 0.431,0.918 0.431,0.918 0,0 0.065,0.919 0.192,1.448 0.157,0.655 0.334,1.155 0.334,1.155 0,0 0.103,-0.446 0.583,-1.122 0.652,-0.923 1.15,-0.87 1.15,-0.87 0,0 0.365,0.049 1.155,0.238 0.846,0.205 1.138,0.39 1.828,0.613 0.08,0.025 0.104,0.513 0.007,1.042 -0.095,0.52 0.1,1.3 -0.109,1.351 -0.368,0.087 -0.598,0.352 -1.604,0.372 -0.77,0.015 -1.166,0.116 -1.166,0.116 0,0 -0.518,-0.462 -0.871,-0.946 -0.295,-0.404 -0.48,-0.78 -0.48,-0.78 0,0 -0.214,0.594 -0.276,0.953 -0.056,0.316 -0.097,0.699 -0.124,1.08 -0.004,0.038 -0.152,0.176 -0.16,0.27 -0.05,0.6 0.02,1.018 0.027,1.277 0.013,0.578 0.024,1.194 -0.104,1.76 -0.026,0.102 -0.366,1.152 -0.118,1.092 0.24,-0.06 0.612,-0.444 0.752,-0.628 a 5.448,5.448 0 0 1 2.29,-1.809 8.207,8.207 0 0 1 1.965,-0.577 c 0.378,-0.063 0.757,-0.1 0.614,0.404 -0.126,0.44 -0.389,0.868 -0.615,1.256 -0.326,0.555 -0.647,1.115 -0.98,1.667 -1.404,2.345 -2.601,4.817 -2.667,7.615 -0.007,0.331 0.023,1.307 0.023,1.307 0,0 -0.747,-0.331 -1.02,-0.681 C 12.309,24.01 11.68,22.887 11.192,22.012 10.517,20.798 8.86,17.465 8.279,16.202 8.173,15.966 8.45,15.752 8.717,15.299 9.082,14.682 8.584,14.241 8.362,13.546 8.228,13.123 8.108,12.239 7.704,11.986 7.342,11.761 6.864,11.908 6.469,11.974 5.991,12.054 5.288,12.176 4.805,12.206 4.01,12.255 3.625,12.449 3.055,12.86 2.634,13.167 1.945,12.945 1.553,13.31 0.684,14.114 0.052,15.264 0,16.461 c -0.02,0.47 0.309,1.526 0.309,1.526 0,0 0.283,-0.579 0.422,-0.765 0.28,-0.383 0.468,-0.642 0.68,-0.678 0.328,-0.057 0.46,-0.036 0.56,0.195 0.057,0.129 0.591,1.17 0.591,1.17 0,0 0.278,-1.114 0.66,-1.59 0.295,-0.372 0.446,-0.633 0.869,-0.858 0.246,-0.129 0.289,-0.03 0.36,0.114 0.136,0.268 0.204,0.687 0.14,0.992 -0.096,0.462 -0.455,1.18 -0.85,1.433 -0.252,0.164 -0.561,0.252 -0.84,0.34 -0.246,0.075 -0.38,0.224 -0.556,0.401 -0.294,0.29 -0.763,0.132 -1.111,0.012 -0.126,-0.044 -0.791,-0.225 -0.791,-0.225 0,0 0.16,0.651 0.29,0.823 0.481,0.647 1.183,1.565 2.048,1.468 0.646,-0.074 1.252,-0.122 1.875,-0.333 0.48,-0.161 0.613,-0.297 0.923,-0.64 0.261,-0.287 0.314,-0.094 0.414,0.123 0.164,0.357 0.313,0.723 0.46,1.09 0.787,1.99 1.467,4.008 1.593,6.16 0.137,2.357 -0.227,3.635 -0.227,3.635 0,0 1.818,0.333 2.684,1.85 0.865,1.514 1.19,4.24 1.19,4.24 0,0 0.678,-1.314 0.976,-1.788 a 6.798,6.798 0 0 1 2.177,-2.175 c 0.208,-0.128 1.59,-0.81 1.59,-0.81 0,0 0.371,0.585 0.785,0.994 0.145,0.144 0.13,0.525 0.127,0.725 -0.011,0.695 -0.078,1.694 -0.118,2.387 -0.083,1.47 -0.476,5.143 -0.542,5.903 -0.062,0.72 -0.145,1.735 -1.022,2.006 -1.283,0.392 -3.17,-0.428 -4.222,-0.362 -0.868,0.053 -1.51,0.64 -1.588,1.164 -0.855,0.368 -1.892,1.45 -2.201,2.756 0.717,-0.212 1.406,-0.418 2.19,-0.418 0.346,0 0.164,0.293 0.698,0.463 0.884,0.282 4.152,0.284 6.559,-0.018 0.969,-0.12 1.422,-0.016 2.387,0.065 1.325,0.11 4.485,0.093 4.8,-0.288 0.173,-0.213 0.346,-0.346 0.682,-0.346 0.521,0 1.036,0.014 1.73,0.277 -0.18,-1.064 -1.097,-1.85 -1.893,-2.11 -0.734,-0.24 -1.006,-0.872 -1.688,-1.12 -0.451,-0.164 -2.517,0.439 -2.573,0.015 -0.09,-0.667 0.169,-1.475 0.39,-2.096 0.43,-1.215 0.797,-2.262 1.343,-3.436 0.479,-1.03 0.879,-1.936 1.558,-2.86 0.197,-0.27 0.757,-0.104 2.783,0.14 1.245,0.148 3.352,-0.149 5.242,-0.844 1.54,-0.567 3.692,-1.303 3.692,-1.303 0,0 -0.541,0.635 -1.132,1.62 -1.168,1.94 -1.857,5.521 -0.673,7.588 1.232,2.149 2.314,2.439 2.41,2.832 0.1,0.392 -1.45,0.198 -1.45,0.198 0,0 1.484,1.031 3.362,1.027 1.826,-0.003 3.333,-0.592 3.974,-0.657 0.61,-0.062 -0.461,1.047 -0.461,1.047 0,0 2.002,-0.49 3.296,-2.162 0.957,-1.237 1.324,-2.336 1.909,-3.482 0.1,-0.194 0.714,-1.993 1.098,-1.464 0.279,0.389 0.397,1.691 0.397,1.691 0,0 0.727,-1.687 0.677,-3.693 -0.038,-1.415 -0.328,-2.635 -0.663,-3.994 -0.146,-0.597 -0.57,-1.648 -0.75,-2.236 -0.12,-0.383 -0.224,-1.031 0.26,-1.19 0.342,-0.112 1.356,0.728 1.356,0.728 0,0 -0.348,-1.497 -1.65,-2.378 -1.3,-0.879 -2.23,-1.32 -2.23,-1.32 0,0 0.681,-0.652 1.418,-1.246 1.272,-1.026 2.026,-1.444 2.026,-1.444 0,0 0.167,1.465 0.513,2.26 0.356,0.82 0.963,1.54 1.29,1.893 0.063,-0.524 0.186,-1.22 0.478,-2.036 0.467,-1.307 1.225,-2.501 1.995,-3.636 1.467,-2.168 2.658,-4.28 2.935,-7.436 0.366,-4.197 -1.086,-7.033 -1.086,-7.033 z"
       id="path17" />
    <path
       fill="#1a1919"
       d="m 48,33 0.024,0.065 C 48.017,33.041 48.008,33.02 48,33 m 1,1 0.017,0.049 L 49,34 m 0,-1"
       id="path19" />
    <path
       fill="#002c5a"
       d="m 25.084,45 c 0.24,0.098 0.671,0.283 0.916,0.764 C 25.703,45.656 25.385,45.64 25,45.69 25.1,45.437 25.105,45.122 25.084,45 M 10,45.875 C 9.615,45.829 9.299,45.903 9,46 c 0.246,-0.435 0.57,-0.848 0.943,-1 0,0 -0.04,0.613 0.057,0.875"
       id="path21" />
  </g>
</svg>
