<?xml version="1.0" encoding="UTF-8" standalone="no"?>
<svg
   xmlns:dc="http://purl.org/dc/elements/1.1/"
   xmlns:cc="http://creativecommons.org/ns#"
   xmlns:rdf="http://www.w3.org/1999/02/22-rdf-syntax-ns#"
   xmlns:svg="http://www.w3.org/2000/svg"
   xmlns="http://www.w3.org/2000/svg"
   xmlns:sodipodi="http://sodipodi.sourceforge.net/DTD/sodipodi-0.dtd"
   xmlns:inkscape="http://www.inkscape.org/namespaces/inkscape"
   width="18.3134mm"
   height="16.921227mm"
   viewBox="0 0 18.3134 16.921226"
   version="1.1"
   id="svg67976"
   inkscape:version="1.0.1 (3bc2e813f5, 2020-09-07)"
   sodipodi:docname="king-david-school.svg">
  <defs
     id="defs67970">
    <clipPath
       id="clipPath192512"
       clipPathUnits="userSpaceOnUse">
      <path
         inkscape:connector-curvature="0"
         id="path192510"
         d="m 304.681,53.077 h 267.121 v 62.349 H 304.681 Z" />
    </clipPath>
  </defs>
  <sodipodi:namedview
     id="base"
     pagecolor="#ffffff"
     bordercolor="#666666"
     borderopacity="1.0"
     inkscape:pageopacity="0.0"
     inkscape:pageshadow="2"
     inkscape:zoom="2.8"
     inkscape:cx="-29.683047"
     inkscape:cy="96.780236"
     inkscape:document-units="mm"
     inkscape:current-layer="g192508"
     showgrid="false"
     fit-margin-top="0"
     fit-margin-left="0"
     fit-margin-right="0"
     fit-margin-bottom="0"
     inkscape:pagecheckerboard="true"
     inkscape:window-width="1920"
     inkscape:window-height="1000"
     inkscape:window-x="1920"
     inkscape:window-y="0"
     inkscape:window-maximized="1"
     inkscape:document-rotation="0" />
  <metadata
     id="metadata67973">
    <rdf:RDF>
      <cc:Work
         rdf:about="">
        <dc:format>image/svg+xml</dc:format>
        <dc:type
           rdf:resource="http://purl.org/dc/dcmitype/StillImage" />
        <dc:title />
      </cc:Work>
    </rdf:RDF>
  </metadata>
  <g
     inkscape:label="Layer 1"
     inkscape:groupmode="layer"
     id="layer1"
     transform="translate(1028.3173,321.27517)">
    <g
       id="g194562">
      <g
         transform="matrix(0.35277777,0,0,-0.35277777,-1211.5524,-283.41778)"
         id="g192506">
        <g
           clip-path="url(#clipPath192512)"
           id="g192508">
          <g
             transform="translate(561.7384,77.2013)"
             id="g192560">
            <path
               inkscape:connector-curvature="0"
               id="path192562"
               style="fill:#8b6e45;fill-opacity:1;fill-rule:nonzero;stroke:none"
               d="m 0,0 c -1.862,-3.015 -4.866,-4.682 -8.681,-4.804 l -0.197,-0.007 0.055,-0.698 0.162,0.005 c 4.064,0.128 7.27,1.911 9.271,5.152 0.016,0.038 1.174,2.104 3.687,2.468 L 4.198,2.809 C 1.322,2.395 0.053,0.097 0,0" />
          </g>
          <g
             transform="translate(560.3706,72.3101)"
             id="g192564">
            <path
               inkscape:connector-curvature="0"
               id="path192566"
               style="fill:#8b6e45;fill-opacity:1;fill-rule:nonzero;stroke:none"
               d="m 0,0 c -0.012,-0.557 -0.523,-1.015 -1.138,-1.02 -0.615,-0.007 -1.099,0.444 -1.08,1 0.016,0.561 0.529,1.017 1.142,1.021 C -0.462,1.008 0.024,0.562 0,0" />
          </g>
          <g
             transform="translate(567.6178,79.7023)"
             id="g192568">
            <path
               inkscape:connector-curvature="0"
               id="path192570"
               style="fill:#8b6e45;fill-opacity:1;fill-rule:nonzero;stroke:none"
               d="m 0,0 c -0.014,-0.335 -0.32,-0.611 -0.687,-0.614 -0.369,-0.001 -0.66,0.269 -0.651,0.603 0.012,0.336 0.318,0.61 0.685,0.612 C -0.284,0.605 0.009,0.335 0,0" />
          </g>
          <g
             transform="translate(562.4906,78.4772)"
             id="g192572">
            <path
               inkscape:connector-curvature="0"
               id="path192574"
               style="fill:#8b6e45;fill-opacity:1;fill-rule:nonzero;stroke:none"
               d="m 0,0 c -0.015,-0.349 -0.332,-0.635 -0.718,-0.639 -0.381,-0.002 -0.681,0.279 -0.672,0.625 0.011,0.349 0.33,0.637 0.713,0.639 C -0.292,0.629 0.011,0.348 0,0" />
          </g>
          <g
             transform="translate(564.5065,77.3074)"
             id="g192576">
            <path
               inkscape:connector-curvature="0"
               id="path192578"
               style="fill:#8b6e45;fill-opacity:1;fill-rule:nonzero;stroke:none"
               d="m 0,0 c -0.016,-0.392 -0.377,-0.715 -0.811,-0.721 -0.435,-0.001 -0.779,0.315 -0.763,0.71 0.011,0.396 0.372,0.721 0.81,0.723 C -0.333,0.716 0.012,0.397 0,0" />
          </g>
          <g
             transform="translate(561.0011,76.5968)"
             id="g192580">
            <path
               inkscape:connector-curvature="0"
               id="path192582"
               style="fill:#8b6e45;fill-opacity:1;fill-rule:nonzero;stroke:none"
               d="m 0,0 c -0.01,-0.425 -0.405,-0.773 -0.87,-0.776 -0.464,-0.005 -0.831,0.338 -0.82,0.761 0.013,0.428 0.403,0.771 0.869,0.778 C -0.356,0.765 0.015,0.425 0,0" />
          </g>
          <g
             transform="translate(562.2402,74.1877)"
             id="g192584">
            <path
               inkscape:connector-curvature="0"
               id="path192586"
               style="fill:#8b6e45;fill-opacity:1;fill-rule:nonzero;stroke:none"
               d="m 0,0 c -0.014,-0.44 -0.413,-0.8 -0.899,-0.802 -0.482,-0.005 -0.866,0.35 -0.847,0.788 0.011,0.44 0.412,0.801 0.897,0.805 C -0.365,0.794 0.015,0.443 0,0" />
          </g>
          <g
             transform="translate(565.228,80.3667)"
             id="g192588">
            <path
               inkscape:connector-curvature="0"
               id="path192590"
               style="fill:#8b6e45;fill-opacity:1;fill-rule:nonzero;stroke:none"
               d="m 0,0 c -0.01,-0.288 -0.275,-0.523 -0.589,-0.527 -0.316,-0.002 -0.569,0.23 -0.561,0.519 0.011,0.287 0.277,0.524 0.59,0.526 C -0.239,0.522 0.01,0.29 0,0" />
          </g>
          <g
             transform="translate(555.1304,71.5726)"
             id="g192592">
            <path
               inkscape:connector-curvature="0"
               id="path192594"
               style="fill:#8b6e45;fill-opacity:1;fill-rule:nonzero;stroke:none"
               d="m 0,0 c 0,0 0.807,0.731 2.817,-0.263 0,0 1.404,-0.7 2.05,-0.851 0,0 -3.874,-0.643 -4.867,1.114" />
          </g>
          <g
             transform="translate(555.1935,72.6775)"
             id="g192596">
            <path
               inkscape:connector-curvature="0"
               id="path192598"
               style="fill:#8b6e45;fill-opacity:1;fill-rule:nonzero;stroke:none"
               d="m 0,0 c 0,0 -0.858,0.608 -0.037,2.666 0,0 0.576,1.434 0.663,2.065 C 0.626,4.731 1.74,1.25 0,0" />
          </g>
          <g
             transform="translate(561.6595,75.8057)"
             id="g192600">
            <path
               inkscape:connector-curvature="0"
               id="path192602"
               style="fill:#8b6e45;fill-opacity:1;fill-rule:nonzero;stroke:none"
               d="m 0,0 c 0,0 0.384,0.606 2.047,0.418 0,0 1.16,-0.136 1.654,-0.096 C 3.701,0.322 1.137,-0.857 0,0" />
          </g>
          <g
             transform="translate(563.1202,78.7976)"
             id="g192604">
            <path
               inkscape:connector-curvature="0"
               id="path192606"
               style="fill:#8b6e45;fill-opacity:1;fill-rule:nonzero;stroke:none"
               d="m 0,0 c 0,0 -0.362,0.267 -0.043,1.239 0,0 0.226,0.68 0.258,0.974 0,0 0.496,-1.6 -0.215,-2.213" />
          </g>
          <g
             transform="translate(565.7079,78.7175)"
             id="g192608">
            <path
               inkscape:connector-curvature="0"
               id="path192610"
               style="fill:#8b6e45;fill-opacity:1;fill-rule:nonzero;stroke:none"
               d="m 0,0 c -0.009,-0.202 -0.19,-0.364 -0.411,-0.366 -0.218,-0.004 -0.393,0.159 -0.385,0.36 0.005,0.199 0.191,0.363 0.409,0.365 C -0.167,0.362 0.007,0.198 0,0" />
          </g>
          <g
             transform="translate(556.577,74.8761)"
             id="g192612">
            <path
               inkscape:connector-curvature="0"
               id="path192614"
               style="fill:#8b6e45;fill-opacity:1;fill-rule:nonzero;stroke:none"
               d="m 0,0 c 0.023,-0.557 0.533,-1.014 1.144,-1.021 0.615,-0.003 1.101,0.444 1.08,1.004 C 2.209,0.54 1.698,0.999 1.083,1.001 0.466,1.007 -0.016,0.56 0,0" />
          </g>
          <g
             transform="translate(524.3191,79.3183)"
             id="g192616">
            <path
               inkscape:connector-curvature="0"
               id="path192618"
               style="fill:#8b6e45;fill-opacity:1;fill-rule:nonzero;stroke:none"
               d="M 0,0 C 2.514,-0.366 3.667,-2.431 3.677,-2.451 5.688,-5.71 8.895,-7.493 12.958,-7.62 l 0.162,-0.007 0.054,0.698 -0.194,0.009 C 9.166,-6.799 6.159,-5.132 4.287,-2.1 4.244,-2.02 2.976,0.279 0.101,0.693 Z" />
          </g>
          <g
             transform="translate(529.984,72.3101)"
             id="g192620">
            <path
               inkscape:connector-curvature="0"
               id="path192622"
               style="fill:#8b6e45;fill-opacity:1;fill-rule:nonzero;stroke:none"
               d="m 0,0 c 0.016,-0.557 0.525,-1.015 1.141,-1.02 0.615,-0.007 1.098,0.444 1.077,1 C 2.203,0.541 1.693,0.997 1.078,1.001 0.464,1.008 -0.02,0.562 0,0" />
          </g>
          <g
             transform="translate(522.7411,79.7023)"
             id="g192624">
            <path
               inkscape:connector-curvature="0"
               id="path192626"
               style="fill:#8b6e45;fill-opacity:1;fill-rule:nonzero;stroke:none"
               d="M 0,0 C 0.01,-0.335 0.316,-0.611 0.686,-0.614 1.053,-0.615 1.343,-0.345 1.332,-0.011 1.322,0.325 1.016,0.599 0.649,0.601 0.279,0.605 -0.01,0.335 0,0" />
          </g>
          <g
             transform="translate(527.8674,78.4772)"
             id="g192628">
            <path
               inkscape:connector-curvature="0"
               id="path192630"
               style="fill:#8b6e45;fill-opacity:1;fill-rule:nonzero;stroke:none"
               d="M 0,0 C 0.01,-0.349 0.329,-0.635 0.715,-0.639 1.095,-0.641 1.398,-0.36 1.387,-0.014 1.378,0.335 1.058,0.623 0.673,0.625 0.289,0.629 -0.01,0.348 0,0" />
          </g>
          <g
             transform="translate(525.8489,77.3074)"
             id="g192632">
            <path
               inkscape:connector-curvature="0"
               id="path192634"
               style="fill:#8b6e45;fill-opacity:1;fill-rule:nonzero;stroke:none"
               d="m 0,0 c 0.016,-0.392 0.375,-0.715 0.812,-0.721 0.432,-0.001 0.775,0.315 0.763,0.71 C 1.562,0.385 1.2,0.71 0.767,0.712 0.331,0.716 -0.012,0.397 0,0" />
          </g>
          <g
             transform="translate(529.3534,76.5968)"
             id="g192636">
            <path
               inkscape:connector-curvature="0"
               id="path192638"
               style="fill:#8b6e45;fill-opacity:1;fill-rule:nonzero;stroke:none"
               d="M 0,0 C 0.016,-0.425 0.401,-0.773 0.87,-0.776 1.337,-0.781 1.705,-0.438 1.691,-0.015 1.677,0.413 1.291,0.756 0.823,0.763 0.356,0.765 -0.009,0.425 0,0" />
          </g>
          <g
             transform="translate(528.1161,74.1877)"
             id="g192640">
            <path
               inkscape:connector-curvature="0"
               id="path192642"
               style="fill:#8b6e45;fill-opacity:1;fill-rule:nonzero;stroke:none"
               d="m 0,0 c 0.011,-0.44 0.413,-0.8 0.898,-0.802 0.483,-0.005 0.865,0.35 0.849,0.788 C 1.733,0.426 1.332,0.787 0.85,0.791 0.365,0.794 -0.017,0.443 0,0" />
          </g>
          <g
             transform="translate(525.1274,80.3667)"
             id="g192644">
            <path
               inkscape:connector-curvature="0"
               id="path192646"
               style="fill:#8b6e45;fill-opacity:1;fill-rule:nonzero;stroke:none"
               d="m 0,0 c 0.011,-0.288 0.271,-0.523 0.594,-0.527 0.312,-0.002 0.564,0.23 0.552,0.519 C 1.144,0.279 0.877,0.516 0.562,0.518 0.239,0.522 -0.009,0.29 0,0" />
          </g>
          <g
             transform="translate(531.42,74.8761)"
             id="g192648">
            <path
               inkscape:connector-curvature="0"
               id="path192650"
               style="fill:#8b6e45;fill-opacity:1;fill-rule:nonzero;stroke:none"
               d="M 0,0 C 0.018,-0.557 0.53,-1.014 1.145,-1.021 1.758,-1.024 2.241,-0.577 2.226,-0.017 2.207,0.54 1.694,0.999 1.081,1.001 0.466,1.007 -0.014,0.56 0,0" />
          </g>
          <g
             transform="translate(535.2231,71.5726)"
             id="g192652">
            <path
               inkscape:connector-curvature="0"
               id="path192654"
               style="fill:#8b6e45;fill-opacity:1;fill-rule:nonzero;stroke:none"
               d="m 0,0 c 0,0 -0.803,0.731 -2.814,-0.263 0,0 -1.406,-0.7 -2.054,-0.851 0,0 3.878,-0.643 4.868,1.114" />
          </g>
          <g
             transform="translate(535.1593,72.6775)"
             id="g192656">
            <path
               inkscape:connector-curvature="0"
               id="path192658"
               style="fill:#8b6e45;fill-opacity:1;fill-rule:nonzero;stroke:none"
               d="m 0,0 c 0,0 0.86,0.608 0.041,2.666 0,0 -0.581,1.434 -0.665,2.065 0,0 -1.115,-3.481 0.624,-4.731" />
          </g>
          <g
             transform="translate(528.6967,75.8057)"
             id="g192660">
            <path
               inkscape:connector-curvature="0"
               id="path192662"
               style="fill:#8b6e45;fill-opacity:1;fill-rule:nonzero;stroke:none"
               d="m 0,0 c 0,0 -0.383,0.606 -2.049,0.418 0,0 -1.16,-0.136 -1.654,-0.096 0,0 2.567,-1.179 3.703,-0.322" />
          </g>
          <g
             transform="translate(527.2334,78.7976)"
             id="g192664">
            <path
               inkscape:connector-curvature="0"
               id="path192666"
               style="fill:#8b6e45;fill-opacity:1;fill-rule:nonzero;stroke:none"
               d="m 0,0 c 0,0 0.363,0.267 0.044,1.239 0,0 -0.224,0.68 -0.258,0.974 0,0 -0.491,-1.6 0.214,-2.213" />
          </g>
          <g
             transform="translate(524.6517,78.7175)"
             id="g192668">
            <path
               inkscape:connector-curvature="0"
               id="path192670"
               style="fill:#8b6e45;fill-opacity:1;fill-rule:nonzero;stroke:none"
               d="M 0,0 C 0,-0.202 0.186,-0.364 0.405,-0.366 0.626,-0.37 0.797,-0.207 0.793,-0.006 0.785,0.193 0.603,0.357 0.384,0.359 0.163,0.362 -0.012,0.198 0,0" />
          </g>
          <g
             transform="translate(532.3912,65.9114)"
             id="g192672">
            <path
               inkscape:connector-curvature="0"
               id="path192674"
               style="fill:#8b6e45;fill-opacity:1;fill-rule:nonzero;stroke:none"
               d="m 0,0 c -0.123,-0.151 -0.263,-0.264 -0.419,-0.339 -0.177,-0.087 -0.38,-0.128 -0.619,-0.128 v 0.61 c 0.193,0 0.329,0.036 0.418,0.1 0.102,0.075 0.166,0.14 0.195,0.189 0.017,0.029 0.034,0.096 0.042,0.195 v 0.942 l -0.095,0.1 h -1.677 v 0.983 h 0.649 V 2.271 h 1.409 L 0.123,2.214 C 0.188,2.161 0.222,2.079 0.222,1.965 V 0.662 C 0.222,0.406 0.147,0.183 0,0" />
          </g>
          <g
             transform="translate(533.4045,66.8799)"
             id="g192676">
            <path
               inkscape:connector-curvature="0"
               id="path192678"
               style="fill:#8b6e45;fill-opacity:1;fill-rule:nonzero;stroke:none"
               d="m 0,0 v 0.699 h -0.357 v 0.603 h 0.569 c 0.116,0 0.21,-0.027 0.281,-0.093 C 0.564,1.145 0.602,1.065 0.602,0.958 V 0 Z" />
          </g>
          <g
             transform="translate(536.5701,65.6197)"
             id="g192680">
            <path
               inkscape:connector-curvature="0"
               id="path192682"
               style="fill:#8b6e45;fill-opacity:1;fill-rule:nonzero;stroke:none"
               d="m 0,0 c -0.119,-0.11 -0.28,-0.171 -0.459,-0.171 h -1.669 v 0.605 h 1.526 l 0.135,0.051 0.04,0.141 v 1.24 l -0.04,0.084 -0.059,0.01 h -1.602 v 0.603 h 1.878 c 0.07,0 0.17,-0.028 0.294,-0.081 C 0.137,2.405 0.173,2.314 0.173,2.207 V 0.438 C 0.173,0.244 0.109,0.098 0,0" />
          </g>
          <g
             transform="translate(540.3801,65.6317)"
             id="g192684">
            <path
               inkscape:connector-curvature="0"
               id="path192686"
               style="fill:#8b6e45;fill-opacity:1;fill-rule:nonzero;stroke:none"
               d="M 0,0 C -0.103,-0.122 -0.226,-0.183 -0.369,-0.183 H -3.06 v 1.658 l 0.151,0.474 h -0.29 v 0.602 h 0.603 L -2.4,2.457 -2.303,2.284 V 1.949 H -2.457 V 0.422 h 0.698 v 1.527 h -0.276 v 0.602 h 0.618 L -1.204,2.452 -1.155,2.265 V 0.422 h 0.509 l 0.144,0.051 0.041,0.124 v 1.352 h -0.276 v 0.602 h 0.568 L 0.055,2.465 0.142,2.254 V 0.298 C 0.123,0.188 0.076,0.086 0,0" />
          </g>
          <g
             transform="translate(542.6597,65.4487)"
             id="g192688">
            <path
               inkscape:connector-curvature="0"
               id="path192690"
               style="fill:#8b6e45;fill-opacity:1;fill-rule:nonzero;stroke:none"
               d="m 0,0 v 2.038 l -0.011,0.064 -0.1,0.03 h -1.644 v 0.602 h 1.932 c 0.132,0 0.227,-0.023 0.289,-0.076 L 0.603,2.408 V 0 Z m -1.755,1.583 h 0.602 V 0 h -0.602 z" />
          </g>
          <g
             transform="translate(545.8541,65.9114)"
             id="g192692">
            <path
               inkscape:connector-curvature="0"
               id="path192694"
               style="fill:#8b6e45;fill-opacity:1;fill-rule:nonzero;stroke:none"
               d="M 0,0 C -0.123,-0.151 -0.26,-0.264 -0.414,-0.339 -0.598,-0.426 -0.8,-0.467 -1.036,-0.467 v 0.61 c 0.195,0 0.328,0.036 0.415,0.1 0.101,0.075 0.164,0.14 0.199,0.189 0.014,0.029 0.031,0.096 0.044,0.195 v 0.942 l -0.104,0.1 h -1.67 v 0.983 h 0.646 V 2.271 h 1.407 L 0.122,2.214 C 0.19,2.161 0.228,2.079 0.228,1.965 V 0.662 C 0.228,0.406 0.148,0.183 0,0" />
          </g>
          <g
             transform="translate(546.8665,65.4487)"
             id="g192696">
            <path
               inkscape:connector-curvature="0"
               id="path192698"
               style="fill:#8b6e45;fill-opacity:1;fill-rule:nonzero;stroke:none"
               d="m 0,0 v 2.038 l -0.049,0.083 -0.062,0.011 h -0.245 v 0.602 h 0.533 c 0.136,0 0.227,-0.023 0.292,-0.076 L 0.604,2.408 V 0 Z" />
          </g>
          <g
             transform="translate(550.6075,67.5122)"
             id="g192700">
            <path
               inkscape:connector-curvature="0"
               id="path192702"
               style="fill:#8b6e45;fill-opacity:1;fill-rule:nonzero;stroke:none"
               d="m 0,0 c -0.025,-0.047 -0.059,-0.126 -0.1,-0.225 -0.026,-0.1 -0.04,-0.187 -0.04,-0.267 V -2.83 h -0.603 v 2.338 l 0.163,0.56 H -0.923 V 0.67 h 0.628 c 0.098,0 0.179,-0.022 0.236,-0.069 C 0.008,0.554 0.037,0.478 0.037,0.373 V 0.201 Z" />
          </g>
          <g
             transform="translate(551.4324,66.8799)"
             id="g192704">
            <path
               inkscape:connector-curvature="0"
               id="path192706"
               style="fill:#8b6e45;fill-opacity:1;fill-rule:nonzero;stroke:none"
               d="M 0,0 V 0.699 H -0.356 V 1.302 H 0.21 c 0.117,0 0.212,-0.027 0.283,-0.093 0.071,-0.064 0.11,-0.144 0.11,-0.251 V 0 Z" />
          </g>
          <g
             transform="translate(552.4701,65.4487)"
             id="g192708">
            <path
               inkscape:connector-curvature="0"
               id="path192710"
               style="fill:#8b6e45;fill-opacity:1;fill-rule:nonzero;stroke:none"
               d="M 0,0 V 0.605 H 1.662 V 2.132 H 0 v 0.602 h 1.878 c 0.113,0 0.201,-0.035 0.264,-0.098 L 2.265,2.395 V 0.605 H 2.591 V 0 Z" />
          </g>
          <g
             transform="translate(557.2583,65.4487)"
             id="g192712">
            <path
               inkscape:connector-curvature="0"
               id="path192714"
               style="fill:#8b6e45;fill-opacity:1;fill-rule:nonzero;stroke:none"
               d="m 0,0 v 2.038 l -0.015,0.064 -0.097,0.03 h -1.646 v 0.602 h 1.933 c 0.134,0 0.228,-0.023 0.294,-0.076 L 0.6,2.408 V 0 Z m -1.758,1.583 h 0.605 V 0 h -0.605 z" />
          </g>
          <g
             transform="translate(560.4554,65.9114)"
             id="g192716">
            <path
               inkscape:connector-curvature="0"
               id="path192718"
               style="fill:#8b6e45;fill-opacity:1;fill-rule:nonzero;stroke:none"
               d="m 0,0 c -0.127,-0.151 -0.266,-0.264 -0.418,-0.339 -0.18,-0.087 -0.387,-0.128 -0.62,-0.128 v 0.61 c 0.193,0 0.329,0.036 0.414,0.1 0.1,0.075 0.163,0.14 0.196,0.189 0.019,0.029 0.033,0.096 0.048,0.195 v 0.942 l -0.101,0.1 h -1.674 v 0.983 h 0.65 V 2.271 h 1.404 L 0.123,2.214 C 0.184,2.161 0.22,2.079 0.22,1.965 V 0.662 C 0.22,0.406 0.141,0.183 0,0" />
          </g>
          <g
             transform="translate(519.4065,62.9568)"
             id="g192720">
            <path
               inkscape:connector-curvature="0"
               id="path192722"
               style="fill:#8b6e45;fill-opacity:1;fill-rule:nonzero;stroke:none"
               d="m 0,0 v -0.551 h 0.819 v -2.962 h 0.46 v 2.962 H 2.102 V 0 Z" />
          </g>
          <g
             transform="translate(521.6097,61.1997)"
             id="g192724">
            <path
               inkscape:connector-curvature="0"
               id="path192726"
               style="fill:#8b6e45;fill-opacity:1;fill-rule:nonzero;stroke:none"
               d="M 0,0 C 0,0.989 0.359,1.854 1.285,1.854 2.208,1.854 2.568,0.989 2.568,0 2.568,-0.987 2.208,-1.853 1.285,-1.853 0.359,-1.853 0,-0.987 0,0 m 2.092,0 c 0,0.774 -0.296,1.304 -0.807,1.304 -0.514,0 -0.809,-0.53 -0.809,-1.304 0,-0.77 0.295,-1.302 0.809,-1.302 0.511,0 0.807,0.532 0.807,1.302" />
          </g>
          <g
             transform="translate(527.1598,62.9568)"
             id="g192728">
            <path
               inkscape:connector-curvature="0"
               id="path192730"
               style="fill:#8b6e45;fill-opacity:1;fill-rule:nonzero;stroke:none"
               d="M 0,0 -1.119,-1.63 V 0 h -0.458 v -3.514 h 0.458 v 1.093 l 0.372,0.527 0.82,-1.62 H 0.694 L -0.388,-1.428 0.627,0 Z" />
          </g>
          <g
             transform="translate(529.9104,62.9568)"
             id="g192732">
            <path
               inkscape:connector-curvature="0"
               id="path192734"
               style="fill:#8b6e45;fill-opacity:1;fill-rule:nonzero;stroke:none"
               d="M 0,0 V -2.637 H -0.005 L -1.305,0 h -0.529 v -3.514 h 0.443 v 2.637 h 0.004 l 1.312,-2.637 H 0.44 V 0 Z" />
          </g>
          <g
             transform="translate(530.6758,61.1997)"
             id="g192736">
            <path
               inkscape:connector-curvature="0"
               id="path192738"
               style="fill:#8b6e45;fill-opacity:1;fill-rule:nonzero;stroke:none"
               d="M 0,0 C 0,0.989 0.361,1.854 1.288,1.854 2.211,1.854 2.572,0.989 2.572,0 2.572,-0.987 2.211,-1.853 1.288,-1.853 0.361,-1.853 0,-0.987 0,0 M 2.095,0 C 2.095,0.774 1.8,1.304 1.288,1.304 0.773,1.304 0.479,0.774 0.479,0 c 0,-0.77 0.294,-1.302 0.809,-1.302 0.512,0 0.807,0.532 0.807,1.302" />
          </g>
          <g
             transform="translate(536.4045,62.9568)"
             id="g192740">
            <path
               inkscape:connector-curvature="0"
               id="path192742"
               style="fill:#8b6e45;fill-opacity:1;fill-rule:nonzero;stroke:none"
               d="M 0,0 -0.503,-2.725 H -0.507 L -1.054,0 H -1.536 L -2.078,-2.725 H -2.087 L -2.577,0 h -0.496 l 0.724,-3.514 h 0.497 l 0.547,2.697 h 0.009 l 0.543,-2.697 h 0.496 L 0.477,0 Z" />
          </g>
          <g
             transform="translate(538.8854,62.9568)"
             id="g192744">
            <path
               inkscape:connector-curvature="0"
               id="path192746"
               style="fill:#8b6e45;fill-opacity:1;fill-rule:nonzero;stroke:none"
               d="m 0,0 -0.971,-3.514 h 0.497 l 0.228,0.871 H 0.782 L 1.01,-3.514 H 1.522 L 0.549,0 Z m 0.271,-0.61 0.372,-1.483 h -0.752 z" />
          </g>
          <g
             transform="translate(542.4371,62.9568)"
             id="g192748">
            <path
               inkscape:connector-curvature="0"
               id="path192750"
               style="fill:#8b6e45;fill-opacity:1;fill-rule:nonzero;stroke:none"
               d="M 0,0 V -2.637 H -0.005 L -1.307,0 h -0.528 v -3.514 h 0.443 v 2.637 h 0.003 l 1.313,-2.637 H 0.443 V 0 Z" />
          </g>
          <g
             transform="translate(543.3243,62.9568)"
             id="g192752">
            <path
               inkscape:connector-curvature="0"
               id="path192754"
               style="fill:#8b6e45;fill-opacity:1;fill-rule:nonzero;stroke:none"
               d="m 0,0 h 1.18 c 0.858,0 1.07,-0.787 1.07,-1.791 0,-0.757 -0.216,-1.723 -0.96,-1.723 H 0 Z m 0.461,-2.963 h 0.646 c 0.328,0 0.68,0.173 0.68,1.202 0,1.141 -0.449,1.21 -0.704,1.21 H 0.461 Z" />
          </g>
          <g
             transform="translate(546.9926,62.9568)"
             id="g192756">
            <path
               inkscape:connector-curvature="0"
               id="path192758"
               style="fill:#8b6e45;fill-opacity:1;fill-rule:nonzero;stroke:none"
               d="m 0,0 h 0.461 v -1.984 c 0,-0.486 0.009,-1.075 0.61,-1.075 0.599,0 0.61,0.589 0.61,1.075 V 0 H 2.139 V -2.002 C 2.139,-2.584 2.129,-3.61 1.071,-3.61 0.013,-3.61 0,-2.584 0,-2.002 Z" />
          </g>
          <g
             transform="translate(551.3956,62.9568)"
             id="g192760">
            <path
               inkscape:connector-curvature="0"
               id="path192762"
               style="fill:#8b6e45;fill-opacity:1;fill-rule:nonzero;stroke:none"
               d="M 0,0 V -2.637 H -0.007 L -1.307,0 h -0.528 v -3.514 h 0.442 v 2.637 h 0.006 l 1.31,-2.637 H 0.439 V 0 Z" />
          </g>
          <g
             transform="translate(552.2827,62.9568)"
             id="g192764">
            <path
               inkscape:connector-curvature="0"
               id="path192766"
               style="fill:#8b6e45;fill-opacity:1;fill-rule:nonzero;stroke:none"
               d="m 0,0 h 1.179 c 0.859,0 1.069,-0.787 1.069,-1.791 0,-0.757 -0.212,-1.723 -0.957,-1.723 H 0 Z m 0.46,-2.963 h 0.647 c 0.329,0 0.683,0.173 0.683,1.202 0,1.141 -0.45,1.21 -0.707,1.21 H 0.46 Z" />
          </g>
          <g
             transform="translate(554.8931,62.9568)"
             id="g192768">
            <path
               inkscape:connector-curvature="0"
               id="path192770"
               style="fill:#8b6e45;fill-opacity:1;fill-rule:nonzero;stroke:none"
               d="m 0,0 v -3.514 h 1.924 v 0.551 H 0.459 v 0.975 h 1.382 v 0.552 H 0.459 V -0.55 H 1.896 V 0 Z" />
          </g>
          <g
             transform="translate(557.1637,62.9568)"
             id="g192772">
            <path
               inkscape:connector-curvature="0"
               id="path192774"
               style="fill:#8b6e45;fill-opacity:1;fill-rule:nonzero;stroke:none"
               d="m 0,0 h 1.383 c 0.557,0 0.736,-0.408 0.736,-0.954 0,-0.459 -0.154,-0.744 -0.361,-0.848 v -0.009 c 0.259,-0.088 0.317,-0.453 0.317,-0.948 0,-0.169 0.005,-0.563 0.094,-0.755 H 1.672 c -0.034,0.1 -0.055,0.278 -0.055,0.533 0,0.501 -0.042,0.856 -0.38,0.856 H 0.455 V -3.514 H 0 Z m 1.251,-1.574 c 0.254,0 0.39,0.123 0.39,0.516 0,0.363 -0.149,0.508 -0.39,0.508 H 0.455 v -1.024 z" />
          </g>
          <g
             transform="translate(560.5046,63.0546)"
             id="g192776">
            <path
               inkscape:connector-curvature="0"
               id="path192778"
               style="fill:#8b6e45;fill-opacity:1;fill-rule:nonzero;stroke:none"
               d="M 0,0 C 0.335,0 1.01,-0.098 1.07,-1.117 H 0.573 c -0.016,0.271 -0.167,0.566 -0.55,0.566 -0.31,0 -0.508,-0.152 -0.508,-0.481 0,-0.827 1.627,-0.035 1.627,-1.536 0,-0.905 -0.585,-1.14 -1.052,-1.14 -0.783,0 -1.1,0.496 -1.108,1.234 h 0.499 c 0.009,-0.463 0.248,-0.683 0.626,-0.683 0.279,0 0.538,0.131 0.538,0.515 0,0.872 -1.609,0.115 -1.609,1.556 C -0.964,-0.304 -0.534,0 0,0" />
          </g>
          <g
             transform="translate(561.7026,62.9568)"
             id="g192780">
            <path
               inkscape:connector-curvature="0"
               id="path192782"
               style="fill:#8b6e45;fill-opacity:1;fill-rule:nonzero;stroke:none"
               d="m 0,0 v -0.551 h 0.82 v -2.962 h 0.461 v 2.962 H 2.097 V 0 Z" />
          </g>
          <g
             transform="translate(564.6343,62.9568)"
             id="g192784">
            <path
               inkscape:connector-curvature="0"
               id="path192786"
               style="fill:#8b6e45;fill-opacity:1;fill-rule:nonzero;stroke:none"
               d="m 0,0 -0.973,-3.514 h 0.496 l 0.227,0.871 h 1.029 l 0.23,-0.871 H 1.518 L 0.545,0 Z M 0.267,-0.61 0.64,-2.093 h -0.753 z" />
          </g>
          <g
             transform="translate(568.1801,62.9568)"
             id="g192788">
            <path
               inkscape:connector-curvature="0"
               id="path192790"
               style="fill:#8b6e45;fill-opacity:1;fill-rule:nonzero;stroke:none"
               d="M 0,0 V -2.637 H -0.004 L -1.305,0 H -1.83 v -3.514 h 0.441 v 2.637 h 0.007 l 1.309,-2.637 h 0.52 V 0 Z" />
          </g>
          <g
             transform="translate(569.0715,62.9568)"
             id="g192792">
            <path
               inkscape:connector-curvature="0"
               id="path192794"
               style="fill:#8b6e45;fill-opacity:1;fill-rule:nonzero;stroke:none"
               d="m 0,0 h 1.181 c 0.855,0 1.066,-0.787 1.066,-1.791 0,-0.757 -0.214,-1.723 -0.959,-1.723 H 0 Z m 0.46,-2.963 h 0.643 c 0.334,0 0.685,0.173 0.685,1.202 0,1.141 -0.451,1.21 -0.707,1.21 H 0.46 Z" />
          </g>
          <g
             transform="translate(545.4513,105.7525)"
             id="g192796">
            <path
               inkscape:connector-curvature="0"
               id="path192798"
               style="fill:#8b6e45;fill-opacity:1;fill-rule:nonzero;stroke:none"
               d="m 0,0 c -0.404,0 -0.734,-0.301 -0.734,-0.672 0,-0.296 0.211,-0.544 0.501,-0.635 V -6.903 H -1.52 v 3.968 c 0.289,0.09 0.498,0.339 0.498,0.633 0,0.371 -0.327,0.673 -0.735,0.673 -0.406,0 -0.733,-0.302 -0.733,-0.673 0,-0.294 0.208,-0.544 0.499,-0.633 v -3.968 h -1.472 v 2.351 c 0.3,0.085 0.519,0.337 0.519,0.64 0,0.373 -0.329,0.672 -0.737,0.672 -0.403,0 -0.732,-0.299 -0.732,-0.672 0,-0.29 0.2,-0.533 0.48,-0.629 v -2.362 h -1.488 c 0.866,3.537 1.843,7.6 1.804,7.742 -0.061,0.207 -0.301,0.621 -0.835,0.707 -0.462,0.075 -0.95,-0.179 -1.029,-0.432 -0.101,-0.327 -1.22,-5.236 -1.951,-8.463 l -2.364,0.961 c 0,0 -1.79,-1.029 0,-2.264 l 2.282,0.956 c -0.321,-1.427 -0.551,-2.449 -0.551,-2.449 0,0 -1.794,0.234 -4.081,-1.785 -0.39,-0.616 -2.466,-1.901 -0.815,-6.591 0,0 6.106,-13.866 8.345,-16.23 0.107,-0.113 0.379,-0.31 0.587,-0.392 0.884,-0.35 2.469,-0.509 3.998,-0.488 m -1.489,1.948 v 25.842 h 1.287 v -25.96 m -10.695,15.442 c 0,0 -3.215,6.555 4.218,6.25 0,0 0.48,1.914 1.057,4.268 h 1.72 v -24.361 c -2.333,3.289 -6.995,13.843 -6.995,13.843 m 7.465,-14.438 v 24.956 h 1.472 v -25.737 c -0.473,0.125 -0.882,0.297 -1.176,0.504 -0.091,0.061 -0.192,0.158 -0.296,0.277" />
          </g>
          <g
             transform="translate(545.3901,70.1286)"
             id="g192800">
            <path
               inkscape:connector-curvature="0"
               id="path192802"
               style="fill:#8b6e45;fill-opacity:1;fill-rule:nonzero;stroke:none"
               d="m 0,0 c 1.528,-0.02 3.17,0.131 4.053,0.48 0.21,0.084 0.481,0.281 0.589,0.393 2.239,2.364 8.345,16.23 8.345,16.23 1.651,4.689 -0.426,5.974 -0.817,6.59 -2.288,2.02 -4.079,1.785 -4.079,1.785 0,0 -0.231,1.023 -0.555,2.449 l 2.286,-0.956 c 1.791,1.236 0,2.266 0,2.266 L 7.456,28.273 C 6.724,31.501 5.606,36.41 5.505,36.739 5.426,36.992 4.94,37.246 4.479,37.17 3.943,37.083 3.701,36.669 3.642,36.464 3.601,36.322 4.578,32.257 5.448,28.721 h -1.49 v 2.362 c 0.28,0.097 0.478,0.339 0.478,0.629 0,0.373 -0.325,0.672 -0.733,0.672 -0.406,0 -0.734,-0.299 -0.734,-0.672 0,-0.304 0.219,-0.556 0.522,-0.641 v -2.35 H 2.018 v 3.967 c 0.287,0.089 0.496,0.339 0.496,0.634 0,0.371 -0.325,0.674 -0.732,0.674 -0.404,0 -0.734,-0.303 -0.734,-0.674 0,-0.295 0.21,-0.543 0.499,-0.634 V 28.721 H 0.259 v 5.596 c 0.29,0.09 0.498,0.339 0.498,0.635 0,0.372 -0.327,0.672 -0.733,0.672 M 0.259,1.822 V 27.783 H 1.547 V 1.942 m 2.411,1.48 v 24.361 h 1.721 c 0.579,-2.355 1.055,-4.268 1.055,-4.268 7.435,0.304 4.222,-6.25 4.222,-6.25 0,0 -4.667,-10.555 -6.998,-13.843 M 3.195,2.551 C 2.9,2.342 2.487,2.171 2.018,2.046 V 27.783 H 3.491 V 2.828 C 3.384,2.709 3.281,2.611 3.195,2.551" />
          </g>
        </g>
      </g>
    </g>
  </g>
</svg>
