<?xml version="1.0" encoding="UTF-8" standalone="no"?>
<svg
   xmlns:dc="http://purl.org/dc/elements/1.1/"
   xmlns:cc="http://creativecommons.org/ns#"
   xmlns:rdf="http://www.w3.org/1999/02/22-rdf-syntax-ns#"
   xmlns:svg="http://www.w3.org/2000/svg"
   xmlns="http://www.w3.org/2000/svg"
   xmlns:sodipodi="http://sodipodi.sourceforge.net/DTD/sodipodi-0.dtd"
   xmlns:inkscape="http://www.inkscape.org/namespaces/inkscape"
   width="14.887469mm"
   height="19.837606mm"
   viewBox="0 0 14.887469 19.837606"
   version="1.1"
   id="svg202444"
   inkscape:version="1.0.1 (3bc2e813f5, 2020-09-07)"
   sodipodi:docname="knox-school.svg">
  <defs
     id="defs202438">
    <clipPath
       id="clipPath202462"
       clipPathUnits="userSpaceOnUse">
      <path
         style="clip-rule:evenodd"
         inkscape:connector-curvature="0"
         id="path202460"
         d="M 8.871e-6,0 H 595.32001 V 841.92 H 8.871e-6 Z" />
    </clipPath>
    <clipPath
       id="clipPath202470"
       clipPathUnits="userSpaceOnUse">
      <path
         style="clip-rule:evenodd"
         inkscape:connector-curvature="0"
         id="path202468"
         d="M 8.871e-6,0 H 595.32001 V 841.92 H 8.871e-6 Z" />
    </clipPath>
    <clipPath
       id="clipPath202478"
       clipPathUnits="userSpaceOnUse">
      <path
         style="clip-rule:evenodd"
         inkscape:connector-curvature="0"
         id="path202476"
         d="M 8.871e-6,0 H 595.32001 V 841.92 H 8.871e-6 Z" />
    </clipPath>
    <clipPath
       id="clipPath202486"
       clipPathUnits="userSpaceOnUse">
      <path
         style="clip-rule:evenodd"
         inkscape:connector-curvature="0"
         id="path202484"
         d="M 8.871e-6,0 H 595.32001 V 841.92 H 8.871e-6 Z" />
    </clipPath>
    <clipPath
       id="clipPath202494"
       clipPathUnits="userSpaceOnUse">
      <path
         style="clip-rule:evenodd"
         inkscape:connector-curvature="0"
         id="path202492"
         d="M -1.46e-7,2.4414e-4 H 595.32 V 841.92024 H -1.46e-7 Z" />
    </clipPath>
    <clipPath
       id="clipPath202506"
       clipPathUnits="userSpaceOnUse">
      <path
         style="clip-rule:evenodd"
         inkscape:connector-curvature="0"
         id="path202504"
         d="M 2.1e-8,2.4414e-4 H 595.32 V 841.92024 H 2.1e-8 Z" />
    </clipPath>
    <clipPath
       id="clipPath202608"
       clipPathUnits="userSpaceOnUse">
      <path
         style="clip-rule:evenodd"
         inkscape:connector-curvature="0"
         id="path202606"
         d="M -4.426e-6,3.0518e-4 H 595.32 V 841.92031 H -4.426e-6 Z" />
    </clipPath>
    <clipPath
       id="clipPath202618"
       clipPathUnits="userSpaceOnUse">
      <path
         inkscape:connector-curvature="0"
         id="path202616"
         d="M 0,0 H 283.56 V 98.676 H 0 Z" />
    </clipPath>
    <linearGradient
       id="linearGradient202684"
       spreadMethod="pad"
       gradientUnits="userSpaceOnUse"
       y2="736.32001"
       x2="441.35999"
       y1="755.88"
       x1="441.35999">
      <stop
         id="stop202676"
         offset="0"
         style="stop-opacity:1;stop-color:#ffc000" />
      <stop
         id="stop202678"
         offset="0.04"
         style="stop-opacity:1;stop-color:#ffd966" />
      <stop
         id="stop202680"
         offset="0.87"
         style="stop-opacity:1;stop-color:#fff2cb" />
      <stop
         id="stop202682"
         offset="1"
         style="stop-opacity:1;stop-color:#fff2cb" />
    </linearGradient>
    <clipPath
       id="clipPath202696"
       clipPathUnits="userSpaceOnUse">
      <path
         style="clip-rule:evenodd"
         inkscape:connector-curvature="0"
         id="path202694"
         d="M 8.871e-6,0 H 595.32001 V 841.92 H 8.871e-6 Z" />
    </clipPath>
    <linearGradient
       id="linearGradient202708"
       spreadMethod="pad"
       gradientUnits="userSpaceOnUse"
       y2="715.32001"
       x2="441.35999"
       y1="734.88"
       x1="441.35999">
      <stop
         id="stop202700"
         offset="0"
         style="stop-opacity:1;stop-color:#ffc000" />
      <stop
         id="stop202702"
         offset="0.04"
         style="stop-opacity:1;stop-color:#ffd966" />
      <stop
         id="stop202704"
         offset="0.87"
         style="stop-opacity:1;stop-color:#fff2cb" />
      <stop
         id="stop202706"
         offset="1"
         style="stop-opacity:1;stop-color:#fff2cb" />
    </linearGradient>
    <clipPath
       id="clipPath202720"
       clipPathUnits="userSpaceOnUse">
      <path
         style="clip-rule:evenodd"
         inkscape:connector-curvature="0"
         id="path202718"
         d="M 8.871e-6,0 H 595.32001 V 841.92 H 8.871e-6 Z" />
    </clipPath>
    <clipPath
       id="clipPath202728"
       clipPathUnits="userSpaceOnUse">
      <path
         style="clip-rule:evenodd"
         inkscape:connector-curvature="0"
         id="path202726"
         d="M 8.871e-6,0 H 595.32001 V 841.92 H 8.871e-6 Z" />
    </clipPath>
    <clipPath
       id="clipPath202736"
       clipPathUnits="userSpaceOnUse">
      <path
         style="clip-rule:evenodd"
         inkscape:connector-curvature="0"
         id="path202734"
         d="M 8.871e-6,0 H 595.32001 V 841.92 H 8.871e-6 Z" />
    </clipPath>
    <clipPath
       id="clipPath202744"
       clipPathUnits="userSpaceOnUse">
      <path
         style="clip-rule:evenodd"
         inkscape:connector-curvature="0"
         id="path202742"
         d="M 8.871e-6,0 H 595.32001 V 841.92 H 8.871e-6 Z" />
    </clipPath>
    <clipPath
       id="clipPath202752"
       clipPathUnits="userSpaceOnUse">
      <path
         style="clip-rule:evenodd"
         inkscape:connector-curvature="0"
         id="path202750"
         d="M 8.871e-6,0 H 595.32001 V 841.92 H 8.871e-6 Z" />
    </clipPath>
    <clipPath
       id="clipPath202760"
       clipPathUnits="userSpaceOnUse">
      <path
         style="clip-rule:evenodd"
         inkscape:connector-curvature="0"
         id="path202758"
         d="M 8.871e-6,0 H 595.32001 V 841.92 H 8.871e-6 Z" />
    </clipPath>
    <clipPath
       id="clipPath202768"
       clipPathUnits="userSpaceOnUse">
      <path
         style="clip-rule:evenodd"
         inkscape:connector-curvature="0"
         id="path202766"
         d="M 8.871e-6,0 H 595.32001 V 841.92 H 8.871e-6 Z" />
    </clipPath>
    <clipPath
       id="clipPath202776"
       clipPathUnits="userSpaceOnUse">
      <path
         style="clip-rule:evenodd"
         inkscape:connector-curvature="0"
         id="path202774"
         d="M 8.871e-6,0 H 595.32001 V 841.92 H 8.871e-6 Z" />
    </clipPath>
    <clipPath
       id="clipPath202784"
       clipPathUnits="userSpaceOnUse">
      <path
         style="clip-rule:evenodd"
         inkscape:connector-curvature="0"
         id="path202782"
         d="M 8.871e-6,0 H 595.32001 V 841.92 H 8.871e-6 Z" />
    </clipPath>
    <clipPath
       id="clipPath202792"
       clipPathUnits="userSpaceOnUse">
      <path
         style="clip-rule:evenodd"
         inkscape:connector-curvature="0"
         id="path202790"
         d="M 8.871e-6,0 H 595.32001 V 841.92 H 8.871e-6 Z" />
    </clipPath>
    <clipPath
       id="clipPath202800"
       clipPathUnits="userSpaceOnUse">
      <path
         style="clip-rule:evenodd"
         inkscape:connector-curvature="0"
         id="path202798"
         d="M 8.871e-6,0 H 595.32001 V 841.92 H 8.871e-6 Z" />
    </clipPath>
    <clipPath
       id="clipPath202812"
       clipPathUnits="userSpaceOnUse">
      <path
         style="clip-rule:evenodd"
         inkscape:connector-curvature="0"
         id="path202810"
         d="M 8.871e-6,0 H 595.32001 V 841.92 H 8.871e-6 Z" />
    </clipPath>
    <clipPath
       id="clipPath202820"
       clipPathUnits="userSpaceOnUse">
      <path
         style="clip-rule:evenodd"
         inkscape:connector-curvature="0"
         id="path202818"
         d="M 8.871e-6,0 H 595.32001 V 841.92 H 8.871e-6 Z" />
    </clipPath>
    <clipPath
       id="clipPath202832"
       clipPathUnits="userSpaceOnUse">
      <path
         style="clip-rule:evenodd"
         inkscape:connector-curvature="0"
         id="path202830"
         d="M 8.871e-6,0 H 595.32001 V 841.92 H 8.871e-6 Z" />
    </clipPath>
    <clipPath
       id="clipPath202844"
       clipPathUnits="userSpaceOnUse">
      <path
         style="clip-rule:evenodd"
         inkscape:connector-curvature="0"
         id="path202842"
         d="M 8.871e-6,0 H 595.32001 V 841.92 H 8.871e-6 Z" />
    </clipPath>
    <clipPath
       id="clipPath202856"
       clipPathUnits="userSpaceOnUse">
      <path
         style="clip-rule:evenodd"
         inkscape:connector-curvature="0"
         id="path202854"
         d="M 8.871e-6,0 H 595.32001 V 841.92 H 8.871e-6 Z" />
    </clipPath>
    <clipPath
       id="clipPath202868"
       clipPathUnits="userSpaceOnUse">
      <path
         style="clip-rule:evenodd"
         inkscape:connector-curvature="0"
         id="path202866"
         d="M 8.871e-6,0 H 595.32001 V 841.92 H 8.871e-6 Z" />
    </clipPath>
    <clipPath
       id="clipPath202876"
       clipPathUnits="userSpaceOnUse">
      <path
         style="clip-rule:evenodd"
         inkscape:connector-curvature="0"
         id="path202874"
         d="M 8.871e-6,0 H 595.32001 V 841.92 H 8.871e-6 Z" />
    </clipPath>
    <clipPath
       id="clipPath202884"
       clipPathUnits="userSpaceOnUse">
      <path
         style="clip-rule:evenodd"
         inkscape:connector-curvature="0"
         id="path202882"
         d="M 8.871e-6,0 H 595.32001 V 841.92 H 8.871e-6 Z" />
    </clipPath>
    <clipPath
       id="clipPath202896"
       clipPathUnits="userSpaceOnUse">
      <path
         style="clip-rule:evenodd"
         inkscape:connector-curvature="0"
         id="path202894"
         d="M 8.871e-6,0 H 595.32001 V 841.92 H 8.871e-6 Z" />
    </clipPath>
    <clipPath
       id="clipPath202904"
       clipPathUnits="userSpaceOnUse">
      <path
         style="clip-rule:evenodd"
         inkscape:connector-curvature="0"
         id="path202902"
         d="M 8.871e-6,0 H 595.32001 V 841.92 H 8.871e-6 Z" />
    </clipPath>
    <clipPath
       id="clipPath202916"
       clipPathUnits="userSpaceOnUse">
      <path
         style="clip-rule:evenodd"
         inkscape:connector-curvature="0"
         id="path202914"
         d="M 8.871e-6,0 H 595.32001 V 841.92 H 8.871e-6 Z" />
    </clipPath>
    <clipPath
       id="clipPath202928"
       clipPathUnits="userSpaceOnUse">
      <path
         style="clip-rule:evenodd"
         inkscape:connector-curvature="0"
         id="path202926"
         d="M 8.871e-6,0 H 595.32001 V 841.92 H 8.871e-6 Z" />
    </clipPath>
    <clipPath
       id="clipPath202940"
       clipPathUnits="userSpaceOnUse">
      <path
         style="clip-rule:evenodd"
         inkscape:connector-curvature="0"
         id="path202938"
         d="M 8.871e-6,0 H 595.32001 V 841.92 H 8.871e-6 Z" />
    </clipPath>
    <clipPath
       id="clipPath202952"
       clipPathUnits="userSpaceOnUse">
      <path
         style="clip-rule:evenodd"
         inkscape:connector-curvature="0"
         id="path202950"
         d="M 8.871e-6,0 H 595.32001 V 841.92 H 8.871e-6 Z" />
    </clipPath>
    <clipPath
       id="clipPath202964"
       clipPathUnits="userSpaceOnUse">
      <path
         style="clip-rule:evenodd"
         inkscape:connector-curvature="0"
         id="path202962"
         d="M 8.871e-6,0 H 595.32001 V 841.92 H 8.871e-6 Z" />
    </clipPath>
    <clipPath
       id="clipPath202972"
       clipPathUnits="userSpaceOnUse">
      <path
         style="clip-rule:evenodd"
         inkscape:connector-curvature="0"
         id="path202970"
         d="M 8.871e-6,0 H 595.32001 V 841.92 H 8.871e-6 Z" />
    </clipPath>
    <clipPath
       id="clipPath202980"
       clipPathUnits="userSpaceOnUse">
      <path
         style="clip-rule:evenodd"
         inkscape:connector-curvature="0"
         id="path202978"
         d="M 8.871e-6,0 H 595.32001 V 841.92 H 8.871e-6 Z" />
    </clipPath>
    <clipPath
       id="clipPath202992"
       clipPathUnits="userSpaceOnUse">
      <path
         style="clip-rule:evenodd"
         inkscape:connector-curvature="0"
         id="path202990"
         d="M 8.871e-6,0 H 595.32001 V 841.92 H 8.871e-6 Z" />
    </clipPath>
    <clipPath
       id="clipPath203000"
       clipPathUnits="userSpaceOnUse">
      <path
         style="clip-rule:evenodd"
         inkscape:connector-curvature="0"
         id="path202998"
         d="M 8.871e-6,0 H 595.32001 V 841.92 H 8.871e-6 Z" />
    </clipPath>
    <clipPath
       id="clipPath203008"
       clipPathUnits="userSpaceOnUse">
      <path
         style="clip-rule:evenodd"
         inkscape:connector-curvature="0"
         id="path203006"
         d="M 8.871e-6,0 H 595.32001 V 841.92 H 8.871e-6 Z" />
    </clipPath>
    <clipPath
       id="clipPath203020"
       clipPathUnits="userSpaceOnUse">
      <path
         style="clip-rule:evenodd"
         inkscape:connector-curvature="0"
         id="path203018"
         d="M 8.871e-6,0 H 595.32001 V 841.92 H 8.871e-6 Z" />
    </clipPath>
    <clipPath
       id="clipPath203028"
       clipPathUnits="userSpaceOnUse">
      <path
         style="clip-rule:evenodd"
         inkscape:connector-curvature="0"
         id="path203026"
         d="M 8.871e-6,0 H 595.32001 V 841.92 H 8.871e-6 Z" />
    </clipPath>
    <clipPath
       id="clipPath203040"
       clipPathUnits="userSpaceOnUse">
      <path
         style="clip-rule:evenodd"
         inkscape:connector-curvature="0"
         id="path203038"
         d="M 8.871e-6,0 H 595.32001 V 841.92 H 8.871e-6 Z" />
    </clipPath>
    <clipPath
       id="clipPath203052"
       clipPathUnits="userSpaceOnUse">
      <path
         style="clip-rule:evenodd"
         inkscape:connector-curvature="0"
         id="path203050"
         d="M 8.871e-6,0 H 595.32001 V 841.92 H 8.871e-6 Z" />
    </clipPath>
    <clipPath
       id="clipPath203060"
       clipPathUnits="userSpaceOnUse">
      <path
         style="clip-rule:evenodd"
         inkscape:connector-curvature="0"
         id="path203058"
         d="M 8.871e-6,0 H 595.32001 V 841.92 H 8.871e-6 Z" />
    </clipPath>
    <clipPath
       id="clipPath203072"
       clipPathUnits="userSpaceOnUse">
      <path
         style="clip-rule:evenodd"
         inkscape:connector-curvature="0"
         id="path203070"
         d="M 8.871e-6,0 H 595.32001 V 841.92 H 8.871e-6 Z" />
    </clipPath>
    <clipPath
       id="clipPath203080"
       clipPathUnits="userSpaceOnUse">
      <path
         style="clip-rule:evenodd"
         inkscape:connector-curvature="0"
         id="path203078"
         d="M 8.871e-6,0 H 595.32001 V 841.92 H 8.871e-6 Z" />
    </clipPath>
    <clipPath
       id="clipPath203092"
       clipPathUnits="userSpaceOnUse">
      <path
         style="clip-rule:evenodd"
         inkscape:connector-curvature="0"
         id="path203090"
         d="M 8.871e-6,0 H 595.32001 V 841.92 H 8.871e-6 Z" />
    </clipPath>
    <clipPath
       id="clipPath203100"
       clipPathUnits="userSpaceOnUse">
      <path
         style="clip-rule:evenodd"
         inkscape:connector-curvature="0"
         id="path203098"
         d="M 8.871e-6,0 H 595.32001 V 841.92 H 8.871e-6 Z" />
    </clipPath>
    <clipPath
       id="clipPath203112"
       clipPathUnits="userSpaceOnUse">
      <path
         style="clip-rule:evenodd"
         inkscape:connector-curvature="0"
         id="path203110"
         d="M 8.871e-6,0 H 595.32001 V 841.92 H 8.871e-6 Z" />
    </clipPath>
    <clipPath
       id="clipPath203120"
       clipPathUnits="userSpaceOnUse">
      <path
         style="clip-rule:evenodd"
         inkscape:connector-curvature="0"
         id="path203118"
         d="M 8.871e-6,0 H 595.32001 V 841.92 H 8.871e-6 Z" />
    </clipPath>
    <clipPath
       id="clipPath203132"
       clipPathUnits="userSpaceOnUse">
      <path
         style="clip-rule:evenodd"
         inkscape:connector-curvature="0"
         id="path203130"
         d="M 8.871e-6,0 H 595.32001 V 841.92 H 8.871e-6 Z" />
    </clipPath>
    <clipPath
       id="clipPath203140"
       clipPathUnits="userSpaceOnUse">
      <path
         style="clip-rule:evenodd"
         inkscape:connector-curvature="0"
         id="path203138"
         d="M 8.871e-6,0 H 595.32001 V 841.92 H 8.871e-6 Z" />
    </clipPath>
    <clipPath
       id="clipPath203152"
       clipPathUnits="userSpaceOnUse">
      <path
         style="clip-rule:evenodd"
         inkscape:connector-curvature="0"
         id="path203150"
         d="M 8.871e-6,0 H 595.32001 V 841.92 H 8.871e-6 Z" />
    </clipPath>
    <clipPath
       id="clipPath203160"
       clipPathUnits="userSpaceOnUse">
      <path
         style="clip-rule:evenodd"
         inkscape:connector-curvature="0"
         id="path203158"
         d="M 8.871e-6,0 H 595.32001 V 841.92 H 8.871e-6 Z" />
    </clipPath>
    <clipPath
       id="clipPath203172"
       clipPathUnits="userSpaceOnUse">
      <path
         style="clip-rule:evenodd"
         inkscape:connector-curvature="0"
         id="path203170"
         d="M 8.871e-6,0 H 595.32001 V 841.92 H 8.871e-6 Z" />
    </clipPath>
    <clipPath
       id="clipPath203180"
       clipPathUnits="userSpaceOnUse">
      <path
         style="clip-rule:evenodd"
         inkscape:connector-curvature="0"
         id="path203178"
         d="M 8.871e-6,0 H 595.32001 V 841.92 H 8.871e-6 Z" />
    </clipPath>
    <clipPath
       id="clipPath203192"
       clipPathUnits="userSpaceOnUse">
      <path
         style="clip-rule:evenodd"
         inkscape:connector-curvature="0"
         id="path203190"
         d="M 8.871e-6,0 H 595.32001 V 841.92 H 8.871e-6 Z" />
    </clipPath>
    <clipPath
       id="clipPath203200"
       clipPathUnits="userSpaceOnUse">
      <path
         style="clip-rule:evenodd"
         inkscape:connector-curvature="0"
         id="path203198"
         d="M 8.871e-6,0 H 595.32001 V 841.92 H 8.871e-6 Z" />
    </clipPath>
    <clipPath
       id="clipPath203212"
       clipPathUnits="userSpaceOnUse">
      <path
         style="clip-rule:evenodd"
         inkscape:connector-curvature="0"
         id="path203210"
         d="M 8.871e-6,0 H 595.32001 V 841.92 H 8.871e-6 Z" />
    </clipPath>
    <clipPath
       id="clipPath203220"
       clipPathUnits="userSpaceOnUse">
      <path
         style="clip-rule:evenodd"
         inkscape:connector-curvature="0"
         id="path203218"
         d="M 8.871e-6,0 H 595.32001 V 841.92 H 8.871e-6 Z" />
    </clipPath>
    <clipPath
       id="clipPath203232"
       clipPathUnits="userSpaceOnUse">
      <path
         style="clip-rule:evenodd"
         inkscape:connector-curvature="0"
         id="path203230"
         d="M 8.871e-6,0 H 595.32001 V 841.92 H 8.871e-6 Z" />
    </clipPath>
    <clipPath
       id="clipPath203240"
       clipPathUnits="userSpaceOnUse">
      <path
         style="clip-rule:evenodd"
         inkscape:connector-curvature="0"
         id="path203238"
         d="M 8.871e-6,0 H 595.32001 V 841.92 H 8.871e-6 Z" />
    </clipPath>
    <clipPath
       id="clipPath203252"
       clipPathUnits="userSpaceOnUse">
      <path
         style="clip-rule:evenodd"
         inkscape:connector-curvature="0"
         id="path203250"
         d="M 8.871e-6,0 H 595.32001 V 841.92 H 8.871e-6 Z" />
    </clipPath>
    <clipPath
       id="clipPath203260"
       clipPathUnits="userSpaceOnUse">
      <path
         style="clip-rule:evenodd"
         inkscape:connector-curvature="0"
         id="path203258"
         d="M 8.871e-6,0 H 595.32001 V 841.92 H 8.871e-6 Z" />
    </clipPath>
    <clipPath
       id="clipPath203272"
       clipPathUnits="userSpaceOnUse">
      <path
         style="clip-rule:evenodd"
         inkscape:connector-curvature="0"
         id="path203270"
         d="M 8.871e-6,0 H 595.32001 V 841.92 H 8.871e-6 Z" />
    </clipPath>
    <clipPath
       id="clipPath203280"
       clipPathUnits="userSpaceOnUse">
      <path
         style="clip-rule:evenodd"
         inkscape:connector-curvature="0"
         id="path203278"
         d="M 8.871e-6,0 H 595.32001 V 841.92 H 8.871e-6 Z" />
    </clipPath>
    <clipPath
       id="clipPath203292"
       clipPathUnits="userSpaceOnUse">
      <path
         style="clip-rule:evenodd"
         inkscape:connector-curvature="0"
         id="path203290"
         d="M 8.871e-6,0 H 595.32001 V 841.92 H 8.871e-6 Z" />
    </clipPath>
    <clipPath
       id="clipPath203300"
       clipPathUnits="userSpaceOnUse">
      <path
         style="clip-rule:evenodd"
         inkscape:connector-curvature="0"
         id="path203298"
         d="M 8.871e-6,0 H 595.32001 V 841.92 H 8.871e-6 Z" />
    </clipPath>
    <clipPath
       id="clipPath203312"
       clipPathUnits="userSpaceOnUse">
      <path
         style="clip-rule:evenodd"
         inkscape:connector-curvature="0"
         id="path203310"
         d="M 8.871e-6,0 H 595.32001 V 841.92 H 8.871e-6 Z" />
    </clipPath>
    <clipPath
       id="clipPath203324"
       clipPathUnits="userSpaceOnUse">
      <path
         style="clip-rule:evenodd"
         inkscape:connector-curvature="0"
         id="path203322"
         d="M 8.871e-6,0 H 595.32001 V 841.92 H 8.871e-6 Z" />
    </clipPath>
    <clipPath
       id="clipPath203338"
       clipPathUnits="userSpaceOnUse">
      <path
         style="clip-rule:evenodd"
         inkscape:connector-curvature="0"
         id="path203336"
         d="M 8.871e-6,0 H 595.32001 V 841.92 H 8.871e-6 Z" />
    </clipPath>
    <clipPath
       id="clipPath203350"
       clipPathUnits="userSpaceOnUse">
      <path
         style="clip-rule:evenodd"
         inkscape:connector-curvature="0"
         id="path203348"
         d="M 8.871e-6,0 H 595.32001 V 841.92 H 8.871e-6 Z" />
    </clipPath>
    <clipPath
       id="clipPath203362"
       clipPathUnits="userSpaceOnUse">
      <path
         style="clip-rule:evenodd"
         inkscape:connector-curvature="0"
         id="path203360"
         d="M 8.871e-6,0 H 595.32001 V 841.92 H 8.871e-6 Z" />
    </clipPath>
    <clipPath
       id="clipPath203372"
       clipPathUnits="userSpaceOnUse">
      <path
         style="clip-rule:evenodd"
         inkscape:connector-curvature="0"
         id="path203370"
         d="M 8.871e-6,0 H 595.32001 V 841.92 H 8.871e-6 Z" />
    </clipPath>
    <clipPath
       id="clipPath203384"
       clipPathUnits="userSpaceOnUse">
      <path
         style="clip-rule:evenodd"
         inkscape:connector-curvature="0"
         id="path203382"
         d="M 8.871e-6,0 H 595.32001 V 841.92 H 8.871e-6 Z" />
    </clipPath>
    <clipPath
       id="clipPath203396"
       clipPathUnits="userSpaceOnUse">
      <path
         style="clip-rule:evenodd"
         inkscape:connector-curvature="0"
         id="path203394"
         d="M 8.871e-6,0 H 595.32001 V 841.92 H 8.871e-6 Z" />
    </clipPath>
    <clipPath
       id="clipPath203408"
       clipPathUnits="userSpaceOnUse">
      <path
         style="clip-rule:evenodd"
         inkscape:connector-curvature="0"
         id="path203406"
         d="M 8.871e-6,0 H 595.32001 V 841.92 H 8.871e-6 Z" />
    </clipPath>
    <clipPath
       id="clipPath203416"
       clipPathUnits="userSpaceOnUse">
      <path
         style="clip-rule:evenodd"
         inkscape:connector-curvature="0"
         id="path203414"
         d="M 8.871e-6,0 H 595.32001 V 841.92 H 8.871e-6 Z" />
    </clipPath>
    <clipPath
       id="clipPath203428"
       clipPathUnits="userSpaceOnUse">
      <path
         style="clip-rule:evenodd"
         inkscape:connector-curvature="0"
         id="path203426"
         d="M 8.871e-6,0 H 595.32001 V 841.92 H 8.871e-6 Z" />
    </clipPath>
    <clipPath
       id="clipPath203436"
       clipPathUnits="userSpaceOnUse">
      <path
         style="clip-rule:evenodd"
         inkscape:connector-curvature="0"
         id="path203434"
         d="M 8.871e-6,0 H 595.32001 V 841.92 H 8.871e-6 Z" />
    </clipPath>
    <clipPath
       id="clipPath203448"
       clipPathUnits="userSpaceOnUse">
      <path
         style="clip-rule:evenodd"
         inkscape:connector-curvature="0"
         id="path203446"
         d="M 8.871e-6,0 H 595.32001 V 841.92 H 8.871e-6 Z" />
    </clipPath>
    <clipPath
       id="clipPath203460"
       clipPathUnits="userSpaceOnUse">
      <path
         style="clip-rule:evenodd"
         inkscape:connector-curvature="0"
         id="path203458"
         d="M 8.871e-6,0 H 595.32001 V 841.92 H 8.871e-6 Z" />
    </clipPath>
    <clipPath
       id="clipPath203472"
       clipPathUnits="userSpaceOnUse">
      <path
         style="clip-rule:evenodd"
         inkscape:connector-curvature="0"
         id="path203470"
         d="M 8.871e-6,0 H 595.32001 V 841.92 H 8.871e-6 Z" />
    </clipPath>
    <clipPath
       id="clipPath203484"
       clipPathUnits="userSpaceOnUse">
      <path
         style="clip-rule:evenodd"
         inkscape:connector-curvature="0"
         id="path203482"
         d="M 8.871e-6,0 H 595.32001 V 841.92 H 8.871e-6 Z" />
    </clipPath>
    <clipPath
       id="clipPath203492"
       clipPathUnits="userSpaceOnUse">
      <path
         style="clip-rule:evenodd"
         inkscape:connector-curvature="0"
         id="path203490"
         d="M 8.871e-6,0 H 595.32001 V 841.92 H 8.871e-6 Z" />
    </clipPath>
    <clipPath
       id="clipPath203504"
       clipPathUnits="userSpaceOnUse">
      <path
         style="clip-rule:evenodd"
         inkscape:connector-curvature="0"
         id="path203502"
         d="M 8.871e-6,0 H 595.32001 V 841.92 H 8.871e-6 Z" />
    </clipPath>
    <clipPath
       id="clipPath203516"
       clipPathUnits="userSpaceOnUse">
      <path
         style="clip-rule:evenodd"
         inkscape:connector-curvature="0"
         id="path203514"
         d="M 8.871e-6,0 H 595.32001 V 841.92 H 8.871e-6 Z" />
    </clipPath>
    <clipPath
       id="clipPath203528"
       clipPathUnits="userSpaceOnUse">
      <path
         style="clip-rule:evenodd"
         inkscape:connector-curvature="0"
         id="path203526"
         d="M 8.871e-6,0 H 595.32001 V 841.92 H 8.871e-6 Z" />
    </clipPath>
    <clipPath
       id="clipPath203540"
       clipPathUnits="userSpaceOnUse">
      <path
         style="clip-rule:evenodd"
         inkscape:connector-curvature="0"
         id="path203538"
         d="M 8.871e-6,0 H 595.32001 V 841.92 H 8.871e-6 Z" />
    </clipPath>
    <clipPath
       id="clipPath203548"
       clipPathUnits="userSpaceOnUse">
      <path
         style="clip-rule:evenodd"
         inkscape:connector-curvature="0"
         id="path203546"
         d="M 8.871e-6,0 H 595.32001 V 841.92 H 8.871e-6 Z" />
    </clipPath>
    <clipPath
       id="clipPath203560"
       clipPathUnits="userSpaceOnUse">
      <path
         style="clip-rule:evenodd"
         inkscape:connector-curvature="0"
         id="path203558"
         d="M 8.871e-6,0 H 595.32001 V 841.92 H 8.871e-6 Z" />
    </clipPath>
    <clipPath
       id="clipPath203572"
       clipPathUnits="userSpaceOnUse">
      <path
         style="clip-rule:evenodd"
         inkscape:connector-curvature="0"
         id="path203570"
         d="M 8.871e-6,0 H 595.32001 V 841.92 H 8.871e-6 Z" />
    </clipPath>
    <clipPath
       id="clipPath203584"
       clipPathUnits="userSpaceOnUse">
      <path
         style="clip-rule:evenodd"
         inkscape:connector-curvature="0"
         id="path203582"
         d="M 8.871e-6,0 H 595.32001 V 841.92 H 8.871e-6 Z" />
    </clipPath>
    <clipPath
       id="clipPath203596"
       clipPathUnits="userSpaceOnUse">
      <path
         style="clip-rule:evenodd"
         inkscape:connector-curvature="0"
         id="path203594"
         d="M 8.871e-6,0 H 595.32001 V 841.92 H 8.871e-6 Z" />
    </clipPath>
    <clipPath
       id="clipPath203604"
       clipPathUnits="userSpaceOnUse">
      <path
         style="clip-rule:evenodd"
         inkscape:connector-curvature="0"
         id="path203602"
         d="M 8.871e-6,0 H 595.32001 V 841.92 H 8.871e-6 Z" />
    </clipPath>
    <clipPath
       id="clipPath203616"
       clipPathUnits="userSpaceOnUse">
      <path
         style="clip-rule:evenodd"
         inkscape:connector-curvature="0"
         id="path203614"
         d="M 8.871e-6,0 H 595.32001 V 841.92 H 8.871e-6 Z" />
    </clipPath>
    <clipPath
       id="clipPath203624"
       clipPathUnits="userSpaceOnUse">
      <path
         style="clip-rule:evenodd"
         inkscape:connector-curvature="0"
         id="path203622"
         d="M 8.871e-6,0 H 595.32001 V 841.92 H 8.871e-6 Z" />
    </clipPath>
    <clipPath
       id="clipPath203636"
       clipPathUnits="userSpaceOnUse">
      <path
         style="clip-rule:evenodd"
         inkscape:connector-curvature="0"
         id="path203634"
         d="M 8.871e-6,0 H 595.32001 V 841.92 H 8.871e-6 Z" />
    </clipPath>
    <clipPath
       id="clipPath203648"
       clipPathUnits="userSpaceOnUse">
      <path
         style="clip-rule:evenodd"
         inkscape:connector-curvature="0"
         id="path203646"
         d="M 8.871e-6,0 H 595.32001 V 841.92 H 8.871e-6 Z" />
    </clipPath>
    <clipPath
       id="clipPath203660"
       clipPathUnits="userSpaceOnUse">
      <path
         style="clip-rule:evenodd"
         inkscape:connector-curvature="0"
         id="path203658"
         d="M 8.871e-6,0 H 595.32001 V 841.92 H 8.871e-6 Z" />
    </clipPath>
    <clipPath
       id="clipPath203668"
       clipPathUnits="userSpaceOnUse">
      <path
         style="clip-rule:evenodd"
         inkscape:connector-curvature="0"
         id="path203666"
         d="M 8.871e-6,0 H 595.32001 V 841.92 H 8.871e-6 Z" />
    </clipPath>
    <clipPath
       id="clipPath203680"
       clipPathUnits="userSpaceOnUse">
      <path
         style="clip-rule:evenodd"
         inkscape:connector-curvature="0"
         id="path203678"
         d="M 8.871e-6,0 H 595.32001 V 841.92 H 8.871e-6 Z" />
    </clipPath>
    <clipPath
       id="clipPath203688"
       clipPathUnits="userSpaceOnUse">
      <path
         style="clip-rule:evenodd"
         inkscape:connector-curvature="0"
         id="path203686"
         d="M 8.871e-6,0 H 595.32001 V 841.92 H 8.871e-6 Z" />
    </clipPath>
    <clipPath
       id="clipPath203700"
       clipPathUnits="userSpaceOnUse">
      <path
         style="clip-rule:evenodd"
         inkscape:connector-curvature="0"
         id="path203698"
         d="M 8.871e-6,0 H 595.32001 V 841.92 H 8.871e-6 Z" />
    </clipPath>
    <clipPath
       id="clipPath203708"
       clipPathUnits="userSpaceOnUse">
      <path
         style="clip-rule:evenodd"
         inkscape:connector-curvature="0"
         id="path203706"
         d="M 8.871e-6,0 H 595.32001 V 841.92 H 8.871e-6 Z" />
    </clipPath>
    <clipPath
       id="clipPath203720"
       clipPathUnits="userSpaceOnUse">
      <path
         style="clip-rule:evenodd"
         inkscape:connector-curvature="0"
         id="path203718"
         d="M 8.871e-6,0 H 595.32001 V 841.92 H 8.871e-6 Z" />
    </clipPath>
    <clipPath
       id="clipPath203732"
       clipPathUnits="userSpaceOnUse">
      <path
         style="clip-rule:evenodd"
         inkscape:connector-curvature="0"
         id="path203730"
         d="M 8.871e-6,0 H 595.32001 V 841.92 H 8.871e-6 Z" />
    </clipPath>
    <clipPath
       id="clipPath204959"
       clipPathUnits="userSpaceOnUse">
      <path
         inkscape:connector-curvature="0"
         id="path204957"
         d="M 0,0 H 595.275 V 841.89 H 0 Z" />
    </clipPath>
    <clipPath
       id="clipPath204973"
       clipPathUnits="userSpaceOnUse">
      <path
         inkscape:connector-curvature="0"
         id="path204971"
         d="M 0,0 H 595.276 V 841.89 H 0 Z" />
    </clipPath>
    <clipPath
       id="clipPath204981"
       clipPathUnits="userSpaceOnUse">
      <path
         inkscape:connector-curvature="0"
         id="path204979"
         d="M -55.5035,188.396 H 769.189 V 58.5276 H -55.5035 Z" />
    </clipPath>
    <clipPath
       id="clipPath205003"
       clipPathUnits="userSpaceOnUse">
      <path
         inkscape:connector-curvature="0"
         id="path205001"
         d="m 29.055,79.033 h 134.492 v 85.715 H 29.055 Z" />
    </clipPath>
    <clipPath
       id="clipPath205019"
       clipPathUnits="userSpaceOnUse">
      <path
         inkscape:connector-curvature="0"
         id="path205017"
         d="m 29.055,79.033 h 134.492 v 85.715 H 29.055 Z" />
    </clipPath>
  </defs>
  <sodipodi:namedview
     id="base"
     pagecolor="#ffffff"
     bordercolor="#666666"
     borderopacity="1.0"
     inkscape:pageopacity="0.0"
     inkscape:pageshadow="2"
     inkscape:zoom="5.6"
     inkscape:cx="55.017709"
     inkscape:cy="46.395192"
     inkscape:document-units="mm"
     inkscape:current-layer="layer1"
     showgrid="false"
     inkscape:pagecheckerboard="true"
     fit-margin-top="0"
     fit-margin-left="0"
     fit-margin-right="0"
     fit-margin-bottom="0"
     inkscape:window-width="1920"
     inkscape:window-height="1000"
     inkscape:window-x="1920"
     inkscape:window-y="0"
     inkscape:window-maximized="1"
     inkscape:document-rotation="0" />
  <metadata
     id="metadata202441">
    <rdf:RDF>
      <cc:Work
         rdf:about="">
        <dc:format>image/svg+xml</dc:format>
        <dc:type
           rdf:resource="http://purl.org/dc/dcmitype/StillImage" />
        <dc:title />
      </cc:Work>
    </rdf:RDF>
  </metadata>
  <g
     inkscape:label="Layer 1"
     inkscape:groupmode="layer"
     id="layer1"
     transform="translate(306.07942,-128.07018)">
    <g
       id="g202456"
       transform="matrix(0.35277777,0,0,-0.35277777,-20.341164,187.99964)">
      <g
         id="g202458"
         clip-path="url(#clipPath202462)" />
    </g>
    <g
       id="g202464"
       transform="matrix(0.35277777,0,0,-0.35277777,-20.341164,187.99964)">
      <g
         id="g202466"
         clip-path="url(#clipPath202470)" />
    </g>
    <g
       id="g202472"
       transform="matrix(0.35277777,0,0,-0.35277777,-20.341164,187.99964)">
      <g
         id="g202474"
         clip-path="url(#clipPath202478)" />
    </g>
    <g
       id="g202480"
       transform="matrix(0.35277777,0,0,-0.35277777,-20.341164,187.99964)">
      <g
         id="g202482"
         clip-path="url(#clipPath202486)" />
    </g>
    <g
       id="g202690"
       transform="matrix(0.35277777,0,0,-0.35277777,-20.341164,187.99964)">
      <g
         id="g202692"
         clip-path="url(#clipPath202696)" />
    </g>
    <g
       id="g202714"
       transform="matrix(0.35277777,0,0,-0.35277777,-20.341164,187.99964)">
      <g
         id="g202716"
         clip-path="url(#clipPath202720)" />
    </g>
    <g
       id="g202722"
       transform="matrix(0.35277777,0,0,-0.35277777,-20.341164,187.99964)">
      <g
         id="g202724"
         clip-path="url(#clipPath202728)" />
    </g>
    <g
       id="g202730"
       transform="matrix(0.35277777,0,0,-0.35277777,-20.341164,187.99964)">
      <g
         id="g202732"
         clip-path="url(#clipPath202736)" />
    </g>
    <g
       id="g202738"
       transform="matrix(0.35277777,0,0,-0.35277777,-20.341164,187.99964)">
      <g
         id="g202740"
         clip-path="url(#clipPath202744)" />
    </g>
    <g
       id="g202746"
       transform="matrix(0.35277777,0,0,-0.35277777,-20.341164,187.99964)">
      <g
         id="g202748"
         clip-path="url(#clipPath202752)" />
    </g>
    <g
       id="g202754"
       transform="matrix(0.35277777,0,0,-0.35277777,-20.341164,187.99964)">
      <g
         id="g202756"
         clip-path="url(#clipPath202760)" />
    </g>
    <g
       id="g202762"
       transform="matrix(0.35277777,0,0,-0.35277777,-20.341164,187.99964)">
      <g
         id="g202764"
         clip-path="url(#clipPath202768)" />
    </g>
    <g
       id="g202770"
       transform="matrix(0.35277777,0,0,-0.35277777,-20.341164,187.99964)">
      <g
         id="g202772"
         clip-path="url(#clipPath202776)" />
    </g>
    <g
       id="g202778"
       transform="matrix(0.35277777,0,0,-0.35277777,-20.341164,187.99964)">
      <g
         id="g202780"
         clip-path="url(#clipPath202784)" />
    </g>
    <g
       id="g202786"
       transform="matrix(0.35277777,0,0,-0.35277777,-20.341164,187.99964)">
      <g
         id="g202788"
         clip-path="url(#clipPath202792)" />
    </g>
    <g
       id="g202806"
       transform="matrix(0.35277777,0,0,-0.35277777,-20.341164,187.99964)">
      <g
         id="g202808"
         clip-path="url(#clipPath202812)" />
    </g>
    <g
       id="g202862"
       transform="matrix(0.35277777,0,0,-0.35277777,-20.341164,187.99964)">
      <g
         id="g202864"
         clip-path="url(#clipPath202868)" />
    </g>
    <g
       id="g202870"
       transform="matrix(0.35277777,0,0,-0.35277777,-20.341164,187.99964)">
      <g
         id="g202872"
         clip-path="url(#clipPath202876)" />
    </g>
    <g
       id="g202890"
       transform="matrix(0.35277777,0,0,-0.35277777,-20.341164,187.99964)">
      <g
         id="g202892"
         clip-path="url(#clipPath202896)" />
    </g>
    <g
       id="g202958"
       transform="matrix(0.35277777,0,0,-0.35277777,-20.341164,187.99964)">
      <g
         id="g202960"
         clip-path="url(#clipPath202964)" />
    </g>
    <g
       id="g202966"
       transform="matrix(0.35277777,0,0,-0.35277777,-20.341164,187.99964)">
      <g
         id="g202968"
         clip-path="url(#clipPath202972)" />
    </g>
    <g
       id="g202986"
       transform="matrix(0.35277777,0,0,-0.35277777,-20.341164,187.99964)">
      <g
         id="g202988"
         clip-path="url(#clipPath202992)" />
    </g>
    <g
       id="g202994"
       transform="matrix(0.35277777,0,0,-0.35277777,-20.341164,187.99964)">
      <g
         id="g202996"
         clip-path="url(#clipPath203000)" />
    </g>
    <g
       id="g203014"
       transform="matrix(0.35277777,0,0,-0.35277777,-20.341164,187.99964)">
      <g
         id="g203016"
         clip-path="url(#clipPath203020)" />
    </g>
    <g
       id="g203046"
       transform="matrix(0.35277777,0,0,-0.35277777,-20.341164,187.99964)">
      <g
         id="g203048"
         clip-path="url(#clipPath203052)" />
    </g>
    <g
       id="g203066"
       transform="matrix(0.35277777,0,0,-0.35277777,-20.341164,187.99964)">
      <g
         id="g203068"
         clip-path="url(#clipPath203072)" />
    </g>
    <g
       id="g203086"
       transform="matrix(0.35277777,0,0,-0.35277777,-20.341164,187.99964)">
      <g
         id="g203088"
         clip-path="url(#clipPath203092)" />
    </g>
    <g
       id="g203106"
       transform="matrix(0.35277777,0,0,-0.35277777,-20.341164,187.99964)">
      <g
         id="g203108"
         clip-path="url(#clipPath203112)" />
    </g>
    <g
       id="g203126"
       transform="matrix(0.35277777,0,0,-0.35277777,-20.341164,187.99964)">
      <g
         id="g203128"
         clip-path="url(#clipPath203132)" />
    </g>
    <g
       id="g203146"
       transform="matrix(0.35277777,0,0,-0.35277777,-20.341164,187.99964)">
      <g
         id="g203148"
         clip-path="url(#clipPath203152)" />
    </g>
    <g
       id="g203166"
       transform="matrix(0.35277777,0,0,-0.35277777,-20.341164,187.99964)">
      <g
         id="g203168"
         clip-path="url(#clipPath203172)" />
    </g>
    <g
       id="g203186"
       transform="matrix(0.35277777,0,0,-0.35277777,-20.341164,187.99964)">
      <g
         id="g203188"
         clip-path="url(#clipPath203192)" />
    </g>
    <g
       id="g203206"
       transform="matrix(0.35277777,0,0,-0.35277777,-20.341164,187.99964)">
      <g
         id="g203208"
         clip-path="url(#clipPath203212)" />
    </g>
    <g
       id="g203226"
       transform="matrix(0.35277777,0,0,-0.35277777,-20.341164,187.99964)">
      <g
         id="g203228"
         clip-path="url(#clipPath203232)" />
    </g>
    <g
       id="g203246"
       transform="matrix(0.35277777,0,0,-0.35277777,-20.341164,187.99964)">
      <g
         id="g203248"
         clip-path="url(#clipPath203252)" />
    </g>
    <g
       id="g203266"
       transform="matrix(0.35277777,0,0,-0.35277777,-20.341164,187.99964)">
      <g
         id="g203268"
         clip-path="url(#clipPath203272)" />
    </g>
    <g
       id="g203286"
       transform="matrix(0.35277777,0,0,-0.35277777,-20.341164,187.99964)">
      <g
         id="g203288"
         clip-path="url(#clipPath203292)" />
    </g>
    <g
       id="g203356"
       transform="matrix(0.35277777,0,0,-0.35277777,-20.341164,187.99964)">
      <g
         id="g203358"
         clip-path="url(#clipPath203362)" />
    </g>
    <g
       id="g203402"
       transform="matrix(0.35277777,0,0,-0.35277777,-20.341164,187.99964)">
      <g
         id="g203404"
         clip-path="url(#clipPath203408)" />
    </g>
    <g
       id="g203422"
       transform="matrix(0.35277777,0,0,-0.35277777,-20.341164,187.99964)">
      <g
         id="g203424"
         clip-path="url(#clipPath203428)" />
    </g>
    <g
       id="g203478"
       transform="matrix(0.35277777,0,0,-0.35277777,-20.341164,187.99964)">
      <g
         id="g203480"
         clip-path="url(#clipPath203484)" />
    </g>
    <g
       id="g203534"
       transform="matrix(0.35277777,0,0,-0.35277777,-20.341164,187.99964)">
      <g
         id="g203536"
         clip-path="url(#clipPath203540)" />
    </g>
    <g
       id="g203590"
       transform="matrix(0.35277777,0,0,-0.35277777,-20.341164,187.99964)">
      <g
         id="g203592"
         clip-path="url(#clipPath203596)" />
    </g>
    <g
       id="g203610"
       transform="matrix(0.35277777,0,0,-0.35277777,-20.341164,187.99964)">
      <g
         id="g203612"
         clip-path="url(#clipPath203616)" />
    </g>
    <g
       id="g203654"
       transform="matrix(0.35277777,0,0,-0.35277777,-20.341164,187.99964)">
      <g
         id="g203656"
         clip-path="url(#clipPath203660)" />
    </g>
    <g
       id="g203674"
       transform="matrix(0.35277777,0,0,-0.35277777,-20.341164,187.99964)">
      <g
         id="g203676"
         clip-path="url(#clipPath203680)" />
    </g>
    <g
       id="g203694"
       transform="matrix(0.35277777,0,0,-0.35277777,-20.341164,187.99964)">
      <g
         id="g203696"
         clip-path="url(#clipPath203700)" />
    </g>
    <g
       id="g205013"
       transform="matrix(0.35277777,0,0,-0.35277777,-332.60841,181.93867)">
      <g
         id="g205015"
         clip-path="url(#clipPath205019)">
        <g
           id="g205021"
           transform="translate(102.4007,158.2804)" />
        <g
           id="g205023"
           transform="translate(109.665,108.0973)">
          <path
             d="m 0,0 0.765,-1.912 c 0,0 -0.147,-0.514 -1.588,-0.588 -1.441,-0.074 -1.252,-0.91 -1.252,-0.91 0,0 -0.625,2.389 -2.381,1.279 -1.529,-0.967 -2.853,-1.339 -3.353,-0.884 -0.499,0.456 0.854,2.677 5.486,3.294 4.632,0.618 0.544,1.574 0.544,1.574 0,0 -0.868,0.206 -0.883,0.632 -0.014,0.427 1.053,0.98 3.324,0.588 2.327,-0.401 4.968,-2.889 7.074,-2.485 0,0 -0.406,-0.627 -2.833,-0.489 0,0 0.958,-1.018 2.684,-1.015 0,0 -1.209,-1.148 -3.738,0.102 C 1.319,0.436 0,0 0,0"
             style="fill:#2154ac;fill-opacity:1;fill-rule:nonzero;stroke:none"
             id="path205025"
             inkscape:connector-curvature="0" />
        </g>
        <g
           id="g205027"
           transform="translate(107.0034,110.5824)">
          <path
             d="m 0,0 c 0.015,-0.426 0.882,-0.632 0.882,-0.632 0,0 4.088,-0.956 -0.544,-1.574 -0.116,-0.015 -0.229,-0.033 -0.341,-0.05 V 0.016 C -0.002,0.014 0,0.013 0.001,0.011 0.001,0.007 0,0.004 0,0"
             style="fill:#fab80a;fill-opacity:1;fill-rule:nonzero;stroke:none"
             id="path205029"
             inkscape:connector-curvature="0" />
        </g>
        <g
           id="g205031"
           transform="translate(82.9363,108.0973)">
          <path
             d="m 0,0 -0.765,-1.912 c 0,0 0.148,-0.514 1.588,-0.588 1.441,-0.074 1.252,-0.91 1.252,-0.91 0,0 0.625,2.389 2.381,1.279 1.529,-0.967 2.853,-1.339 3.352,-0.884 0.5,0.456 -0.853,2.677 -5.485,3.294 -4.632,0.618 -0.544,1.574 -0.544,1.574 0,0 0.868,0.206 0.883,0.632 0.014,0.427 -1.053,0.98 -3.324,0.588 -2.327,-0.401 -4.968,-2.889 -7.074,-2.485 0,0 0.406,-0.627 2.833,-0.489 0,0 -0.958,-1.018 -2.684,-1.015 0,0 1.209,-1.148 3.738,0.102 C -1.32,0.436 0,0 0,0"
             style="fill:#2154ac;fill-opacity:1;fill-rule:nonzero;stroke:none"
             id="path205033"
             inkscape:connector-curvature="0" />
        </g>
        <g
           id="g205035"
           transform="translate(85.5978,110.5824)">
          <path
             d="m 0,0 c -0.015,-0.426 -0.882,-0.632 -0.882,-0.632 0,0 -4.088,-0.956 0.544,-1.574 0.116,-0.015 0.229,-0.033 0.341,-0.05 V 0.016 C 0.002,0.014 0,0.013 -0.001,0.011 -0.001,0.007 0,0.004 0,0"
             style="fill:#fab80a;fill-opacity:1;fill-rule:nonzero;stroke:none"
             id="path205037"
             inkscape:connector-curvature="0" />
        </g>
        <g
           id="g205039"
           transform="translate(107.1443,105.6365)">
          <path
             d="m 0,0 c -0.002,0.003 -0.004,0.007 -0.007,0.009 l -0.018,0.028 c 0,-0.001 -10e-4,-0.001 -10e-4,-0.001 -0.373,0.525 -1.001,0.873 -1.914,0.297 -1.512,-0.954 -2.819,-1.329 -3.333,-0.899 0.131,-0.148 0.345,-0.333 0.702,-0.533 0.801,-0.448 1.811,-1.723 1.91,-1.845 -2.216,-1.834 -5.059,-2.933 -8.158,-2.933 -3.108,0 -5.963,1.117 -8.184,2.969 0.067,0.081 1.071,1.354 1.886,1.809 0.357,0.2 0.572,0.385 0.702,0.533 -0.513,-0.43 -1.82,-0.055 -3.332,0.899 -0.888,0.56 -1.504,0.226 -1.882,-0.26 v 0.001 l -0.005,-0.007 c -0.043,-0.056 -0.084,-0.114 -0.121,-0.173 l 10e-4,-0.001 -2.063,-2.973 c 2.82,-3.789 7.894,-6.091 12.966,-6.091 5.065,0 10.146,2.312 12.965,6.089 z"
             style="fill:#fab80a;fill-opacity:1;fill-rule:nonzero;stroke:none"
             id="path205041"
             inkscape:connector-curvature="0" />
        </g>
        <g
           id="g205043"
           transform="translate(96.2936,96.6396)">
          <path
             d="M 0,0 C 5.016,0 10.005,2.32 12.75,5.919 L 10.829,8.72 C 8.417,5.099 4.4,2.945 0.032,2.945 c -4.369,0 -8.392,2.168 -10.815,5.812 L -12.751,5.921 C -10.013,2.321 -5.023,0 0,0"
             style="fill:#2154ac;fill-opacity:1;fill-rule:nonzero;stroke:none"
             id="path205045"
             inkscape:connector-curvature="0" />
        </g>
        <g
           id="g205047"
           transform="translate(85.5611,102.1108)">
          <path
             d="M 0,0 C -0.095,0.09 -0.159,0.213 -0.17,0.352 L 0.004,0.371 C 0.016,0.272 0.046,0.186 0.118,0.118 0.174,0.065 0.229,0.055 0.264,0.092 L 0.265,0.094 C 0.299,0.128 0.294,0.166 0.215,0.292 0.12,0.443 0.072,0.556 0.19,0.679 L 0.192,0.681 C 0.3,0.794 0.462,0.783 0.589,0.661 0.68,0.575 0.73,0.473 0.745,0.362 L 0.575,0.326 C 0.557,0.417 0.525,0.492 0.472,0.542 0.419,0.592 0.369,0.594 0.34,0.564 L 0.338,0.562 C 0.299,0.521 0.313,0.482 0.395,0.352 0.49,0.199 0.518,0.085 0.414,-0.023 L 0.413,-0.025 C 0.295,-0.149 0.134,-0.128 0,0"
             style="fill:#ffffff;fill-opacity:1;fill-rule:nonzero;stroke:none"
             id="path205049"
             inkscape:connector-curvature="0" />
        </g>
        <g
           id="g205051"
           transform="translate(85.9385,101.7733)">
          <path
             d="M 0,0 0.564,0.65 1.054,0.224 0.943,0.097 0.596,0.399 0.481,0.267 0.787,0.002 0.677,-0.126 0.371,0.14 0.252,0.004 0.605,-0.302 0.495,-0.43 Z"
             style="fill:#ffffff;fill-opacity:1;fill-rule:nonzero;stroke:none"
             id="path205053"
             inkscape:connector-curvature="0" />
        </g>
        <g
           id="g205055"
           transform="translate(86.5817,101.2222)">
          <path
             d="M 0,0 0.531,0.676 1.041,0.276 0.937,0.143 0.575,0.428 0.467,0.29 0.786,0.04 0.682,-0.092 0.363,0.158 0.252,0.016 0.619,-0.272 0.515,-0.404 Z"
             style="fill:#ffffff;fill-opacity:1;fill-rule:nonzero;stroke:none"
             id="path205057"
             inkscape:connector-curvature="0" />
        </g>
        <g
           id="g205059"
           transform="translate(87.7051,100.3828)">
          <path
             d="M 0,0 -0.007,0.452 -0.148,0.425 -0.299,0.211 -0.453,0.319 0.041,1.022 0.196,0.913 -0.021,0.606 0.481,0.712 0.667,0.581 0.171,0.484 0.186,-0.131 Z"
             style="fill:#ffffff;fill-opacity:1;fill-rule:nonzero;stroke:none"
             id="path205061"
             inkscape:connector-curvature="0" />
        </g>
        <g
           id="g205063"
           transform="translate(89.0315,99.549)">
          <path
             d="M 0,0 -0.142,0.083 -0.025,0.667 -0.477,0.28 -0.619,0.363 -0.434,1.259 -0.259,1.157 -0.4,0.564 0.062,0.971 0.202,0.889 0.072,0.287 0.521,0.699 0.692,0.599 Z"
             style="fill:#ffffff;fill-opacity:1;fill-rule:nonzero;stroke:none"
             id="path205065"
             inkscape:connector-curvature="0" />
        </g>
        <g
           id="g205067"
           transform="translate(89.4534,99.3356)">
          <path
             d="M 0,0 0.392,0.765 0.561,0.679 0.168,-0.087 Z"
             style="fill:#ffffff;fill-opacity:1;fill-rule:nonzero;stroke:none"
             id="path205069"
             inkscape:connector-curvature="0" />
        </g>
        <g
           id="g205071"
           transform="translate(90.1053,99.0027)">
          <path
             d="m 0,0 c -0.118,0.055 -0.219,0.152 -0.274,0.279 l 0.158,0.075 C -0.072,0.263 -0.016,0.192 0.074,0.15 0.144,0.118 0.199,0.126 0.221,0.172 L 0.222,0.173 C 0.242,0.217 0.225,0.252 0.11,0.346 -0.028,0.459 -0.11,0.55 -0.038,0.705 l 0.001,0.003 C 0.029,0.849 0.186,0.89 0.346,0.816 0.46,0.763 0.541,0.682 0.591,0.582 L 0.441,0.494 C 0.394,0.574 0.339,0.635 0.273,0.665 0.208,0.696 0.159,0.682 0.141,0.644 L 0.14,0.642 C 0.117,0.59 0.142,0.558 0.261,0.461 0.401,0.346 0.464,0.248 0.4,0.111 L 0.399,0.109 C 0.327,-0.046 0.168,-0.078 0,0"
             style="fill:#ffffff;fill-opacity:1;fill-rule:nonzero;stroke:none"
             id="path205073"
             inkscape:connector-curvature="0" />
        </g>
        <g
           id="g205075"
           transform="translate(91.2841,98.9863)">
          <path
             d="m 0,0 c 0.056,0.142 -0.002,0.28 -0.146,0.337 l -0.136,0.054 -0.191,-0.483 0.136,-0.054 c 0.144,-0.057 0.28,0.002 0.336,0.144 z m -0.4,-0.305 -0.312,0.123 0.316,0.802 0.313,-0.124 C 0.169,0.396 0.274,0.155 0.185,-0.071 L 0.184,-0.073 C 0.095,-0.299 -0.148,-0.405 -0.4,-0.305"
             style="fill:#ffffff;fill-opacity:1;fill-rule:nonzero;stroke:none"
             id="path205077"
             inkscape:connector-curvature="0" />
        </g>
        <g
           id="g205079"
           transform="translate(92.2778,98.6476)">
          <path
             d="M 0,0 C 0.045,0.141 -0.02,0.291 -0.166,0.338 -0.311,0.385 -0.449,0.302 -0.494,0.161 L -0.495,0.159 c -0.045,-0.141 0.02,-0.292 0.166,-0.338 0.145,-0.047 0.283,0.036 0.328,0.177 z m -0.385,-0.345 c -0.254,0.081 -0.374,0.329 -0.3,0.562 l 0.001,0.002 C -0.609,0.453 -0.363,0.585 -0.11,0.504 0.144,0.422 0.264,0.175 0.189,-0.058 V -0.061 C 0.114,-0.294 -0.132,-0.426 -0.385,-0.345"
             style="fill:#ffffff;fill-opacity:1;fill-rule:nonzero;stroke:none"
             id="path205081"
             inkscape:connector-curvature="0" />
        </g>
        <g
           id="g205083"
           transform="translate(93.1857,97.9665)">
          <path
             d="M 0,0 0.131,0.547 -0.19,0.245 -0.195,0.247 -0.343,0.657 -0.474,0.114 -0.654,0.157 -0.453,0.995 -0.255,0.947 -0.12,0.54 0.186,0.841 0.384,0.793 0.183,-0.044 Z"
             style="fill:#ffffff;fill-opacity:1;fill-rule:nonzero;stroke:none"
             id="path205085"
             inkscape:connector-curvature="0" />
        </g>
        <g
           id="g205087"
           transform="translate(94.4182,98.3883)">
          <path
             d="m 0,0 -0.152,-0.26 0.226,-0.032 z m 0.167,-0.669 -0.051,0.202 -0.359,0.051 -0.105,-0.179 -0.191,0.027 0.488,0.805 0.172,-0.025 0.242,-0.909 z"
             style="fill:#ffffff;fill-opacity:1;fill-rule:nonzero;stroke:none"
             id="path205089"
             inkscape:connector-curvature="0" />
        </g>
        <g
           id="g205091"
           transform="translate(95.5459,97.6283)">
          <path
             d="M 0,0 -0.373,0.577 -0.415,0.032 -0.601,0.046 -0.535,0.904 -0.362,0.89 0,0.331 0.04,0.859 0.226,0.845 0.161,-0.012 Z"
             style="fill:#ffffff;fill-opacity:1;fill-rule:nonzero;stroke:none"
             id="path205093"
             inkscape:connector-curvature="0" />
        </g>
        <g
           id="g205095"
           transform="translate(96.5449,98.0331)">
          <path
             d="m 0,0 c 0.002,0.152 -0.102,0.261 -0.256,0.262 l -0.147,0.002 -0.006,-0.519 0.147,-0.001 c 0.154,-0.002 0.26,0.101 0.262,0.254 z M -0.264,-0.428 -0.6,-0.424 -0.59,0.437 -0.255,0.433 C 0.016,0.43 0.201,0.242 0.198,0 V -0.002 C 0.195,-0.245 0.006,-0.431 -0.264,-0.428"
             style="fill:#ffffff;fill-opacity:1;fill-rule:nonzero;stroke:none"
             id="path205097"
             inkscape:connector-curvature="0" />
        </g>
        <g
           id="g205099"
           transform="translate(97.5526,97.6351)">
          <path
             d="m 0,0 c -0.23,-0.018 -0.381,0.1 -0.4,0.353 l -0.038,0.49 0.189,0.014 0.037,-0.485 c 0.011,-0.14 0.086,-0.207 0.201,-0.198 0.115,0.009 0.18,0.084 0.169,0.22 L 0.12,0.885 0.309,0.9 0.346,0.416 C 0.366,0.156 0.23,0.018 0,0"
             style="fill:#ffffff;fill-opacity:1;fill-rule:nonzero;stroke:none"
             id="path205101"
             inkscape:connector-curvature="0" />
        </g>
        <g
           id="g205103"
           transform="translate(98.7509,97.7911)">
          <path
             d="m 0,0 -0.492,0.48 0.08,-0.541 -0.185,-0.027 -0.125,0.851 0.173,0.025 0.475,-0.465 -0.077,0.524 0.185,0.027 0.125,-0.851 z"
             style="fill:#ffffff;fill-opacity:1;fill-rule:nonzero;stroke:none"
             id="path205105"
             inkscape:connector-curvature="0" />
        </g>
        <g
           id="g205107"
           transform="translate(99.6361,98.4016)">
          <path
             d="m 0,0 c -0.032,0.149 -0.157,0.231 -0.308,0.199 l -0.143,-0.031 0.109,-0.507 0.143,0.031 c 0.151,0.032 0.231,0.157 0.199,0.305 z m -0.163,-0.475 -0.328,-0.071 -0.181,0.841 0.328,0.071 C -0.08,0.423 0.142,0.281 0.193,0.044 L 0.194,0.042 c 0.051,-0.237 -0.092,-0.46 -0.357,-0.517"
             style="fill:#ffffff;fill-opacity:1;fill-rule:nonzero;stroke:none"
             id="path205109"
             inkscape:connector-curvature="0" />
        </g>
        <g
           id="g205111"
           transform="translate(100.1139,98.0735)">
          <path
             d="M 0,0 -0.231,0.828 0.394,1.002 0.439,0.84 -0.005,0.716 0.042,0.548 0.432,0.657 0.478,0.495 0.087,0.386 0.136,0.212 0.585,0.338 0.63,0.176 Z"
             style="fill:#ffffff;fill-opacity:1;fill-rule:nonzero;stroke:none"
             id="path205113"
             inkscape:connector-curvature="0" />
        </g>
        <g
           id="g205115"
           transform="translate(101.2449,99.0162)">
          <path
             d="m 0,0 c -0.027,0.077 -0.094,0.098 -0.181,0.068 l -0.178,-0.061 0.08,-0.234 0.182,0.062 c 0.087,0.03 0.121,0.094 0.098,0.163 z m 0.181,-0.538 -0.264,0.201 -0.141,-0.048 0.09,-0.261 -0.18,-0.062 -0.28,0.815 0.373,0.128 C -0.03,0.301 0.121,0.239 0.178,0.072 L 0.179,0.07 C 0.224,-0.062 0.182,-0.169 0.091,-0.243 l 0.3,-0.223 z"
             style="fill:#ffffff;fill-opacity:1;fill-rule:nonzero;stroke:none"
             id="path205117"
             inkscape:connector-curvature="0" />
        </g>
        <g
           id="g205119"
           transform="translate(102.0826,98.7165)">
          <path
             d="m 0,0 c -0.121,-0.049 -0.26,-0.056 -0.39,-0.009 l 0.053,0.166 c 0.096,-0.03 0.187,-0.037 0.278,0 0.072,0.029 0.103,0.075 0.084,0.121 L 0.024,0.281 C 0.006,0.325 -0.03,0.337 -0.177,0.317 -0.354,0.293 -0.476,0.295 -0.541,0.454 l -0.001,0.002 c -0.058,0.145 0.02,0.288 0.182,0.354 0.117,0.047 0.231,0.05 0.338,0.018 L -0.06,0.659 C -0.15,0.68 -0.232,0.681 -0.299,0.654 -0.367,0.627 -0.389,0.582 -0.374,0.543 L -0.373,0.541 C -0.351,0.488 -0.31,0.485 -0.158,0.505 0.021,0.529 0.136,0.508 0.192,0.368 L 0.193,0.366 C 0.257,0.208 0.172,0.07 0,0"
             style="fill:#ffffff;fill-opacity:1;fill-rule:nonzero;stroke:none"
             id="path205121"
             inkscape:connector-curvature="0" />
        </g>
        <g
           id="g205123"
           transform="translate(102.5902,99.7034)">
          <path
             d="M 0,0 0.289,-0.623 0.117,-0.703 -0.172,-0.08 -0.41,-0.19 -0.483,-0.032 0.164,0.269 0.238,0.11 Z"
             style="fill:#ffffff;fill-opacity:1;fill-rule:nonzero;stroke:none"
             id="path205125"
             inkscape:connector-curvature="0" />
        </g>
        <g
           id="g205127"
           transform="translate(103.2093,99.9629)">
          <path
             d="m 0,0 0.029,-0.301 0.203,0.108 z m 0.53,-0.444 -0.16,0.134 -0.322,-0.17 0.02,-0.208 -0.171,-0.09 -0.078,0.94 0.154,0.081 0.732,-0.595 z"
             style="fill:#ffffff;fill-opacity:1;fill-rule:nonzero;stroke:none"
             id="path205129"
             inkscape:connector-curvature="0" />
        </g>
        <g
           id="g205131"
           transform="translate(104.5654,100.006)">
          <path
             d="m 0,0 -0.641,0.25 0.285,-0.467 -0.16,-0.098 -0.448,0.736 0.149,0.091 0.621,-0.243 -0.277,0.453 0.16,0.097 0.448,-0.735 z"
             style="fill:#ffffff;fill-opacity:1;fill-rule:nonzero;stroke:none"
             id="path205133"
             inkscape:connector-curvature="0" />
        </g>
        <g
           id="g205135"
           transform="translate(105.1409,100.9098)">
          <path
             d="m 0,0 c -0.087,0.125 -0.234,0.153 -0.36,0.065 l -0.121,-0.084 0.296,-0.425 0.121,0.083 c 0.126,0.089 0.153,0.234 0.066,0.359 z m 0.033,-0.501 -0.275,-0.191 -0.491,0.705 0.275,0.192 c 0.222,0.154 0.481,0.109 0.619,-0.09 L 0.162,0.113 c 0.139,-0.198 0.093,-0.46 -0.129,-0.614"
             style="fill:#ffffff;fill-opacity:1;fill-rule:nonzero;stroke:none"
             id="path205137"
             inkscape:connector-curvature="0" />
        </g>
        <g
           id="g205139"
           transform="translate(105.7079,100.7923)">
          <path
             d="M 0,0 -0.521,0.686 -0.37,0.801 0.151,0.115 Z"
             style="fill:#ffffff;fill-opacity:1;fill-rule:nonzero;stroke:none"
             id="path205141"
             inkscape:connector-curvature="0" />
        </g>
        <g
           id="g205143"
           transform="translate(106.5094,101.4297)">
          <path
             d="M 0,0 -0.669,0.157 -0.321,-0.265 -0.465,-0.384 -1.012,0.279 -0.878,0.39 -0.23,0.238 -0.567,0.646 -0.423,0.765 0.124,0.102 Z"
             style="fill:#ffffff;fill-opacity:1;fill-rule:nonzero;stroke:none"
             id="path205145"
             inkscape:connector-curvature="0" />
        </g>
        <g
           id="g205147"
           transform="translate(107.1265,101.9569)">
          <path
             d="m 0,0 c -0.197,-0.182 -0.46,-0.168 -0.633,0.019 l -0.002,0.002 c -0.166,0.18 -0.161,0.456 0.031,0.633 0.113,0.105 0.211,0.138 0.328,0.143 L -0.266,0.61 C -0.353,0.606 -0.417,0.589 -0.491,0.521 -0.592,0.428 -0.59,0.264 -0.491,0.157 l 0.002,-0.002 c 0.107,-0.116 0.265,-0.127 0.377,-0.024 0.051,0.047 0.084,0.101 0.096,0.159 L -0.099,0.38 -0.24,0.251 -0.351,0.371 -0.076,0.625 0.178,0.35 C 0.164,0.235 0.116,0.107 0,0"
             style="fill:#ffffff;fill-opacity:1;fill-rule:nonzero;stroke:none"
             id="path205149"
             inkscape:connector-curvature="0" />
        </g>
        <g
           id="g205151"
           transform="translate(106.9411,118.613)">
          <path
             d="m 0,0 c 0.001,0.055 0.001,0.109 0.003,0.163 0.002,0.134 0.006,0.268 0.006,0.403 v 0.089 c 0,0.004 0,0.008 0,0.012 V 3.154 3.917 H 0.006 L 0.004,6.494 0.003,7.256 h -0.762 -9.776 -0.178 -9.776 -0.763 V 6.493 0.584 c 0,-3.453 0.761,-6.826 2.205,-9.815 0.026,-0.054 0.051,-0.109 0.077,-0.162 0.045,-0.091 0.092,-0.18 0.137,-0.27 0.06,-0.116 0.119,-0.233 0.181,-0.349 0.005,-0.01 0.01,-0.02 0.015,-0.03 0.019,-0.035 0.04,-0.069 0.059,-0.104 0.089,-0.164 0.179,-0.327 0.273,-0.488 0.012,-0.022 0.025,-0.043 0.038,-0.064 0.108,-0.185 0.218,-0.368 0.332,-0.55 10e-4,-0.001 0.002,-0.002 0.003,-0.004 0.724,-1.152 1.569,-2.24 2.538,-3.243 0.005,-0.006 0.01,-0.011 0.016,-0.016 0.14,-0.146 0.284,-0.29 0.431,-0.432 0.028,-0.028 0.058,-0.056 0.087,-0.084 0.12,-0.115 0.242,-0.229 0.366,-0.342 0.058,-0.053 0.115,-0.105 0.173,-0.157 0.097,-0.086 0.195,-0.171 0.295,-0.256 0.085,-0.073 0.171,-0.146 0.258,-0.218 0.077,-0.063 0.153,-0.125 0.231,-0.187 0.109,-0.088 0.219,-0.174 0.331,-0.26 0.063,-0.048 0.128,-0.097 0.192,-0.145 0.12,-0.09 0.242,-0.178 0.364,-0.265 0.07,-0.05 0.141,-0.1 0.212,-0.149 0.109,-0.075 0.217,-0.149 0.327,-0.222 0.045,-0.029 0.087,-0.06 0.132,-0.089 v 0.004 c 0.292,-0.19 0.588,-0.375 0.891,-0.549 l 0.089,-0.05 0.391,-0.224 0.384,0.235 0.073,0.044 c 0.302,0.174 0.596,0.357 0.886,0.545 v -0.004 c 0.034,0.023 0.068,0.047 0.102,0.07 1.105,0.726 2.123,1.555 3.048,2.473 0.053,0.053 0.107,0.106 0.16,0.16 0.063,0.064 0.125,0.129 0.188,0.194 2.7,2.8 4.393,6.206 5.203,9.824 C -0.229,-3.118 -0.038,-1.58 0,0"
             style="fill:#fab80a;fill-opacity:1;fill-rule:nonzero;stroke:none"
             id="path205153"
             inkscape:connector-curvature="0" />
        </g>
        <g
           id="g205155"
           transform="translate(96.4014,101.4121)">
          <path
             d="M 0,0 -0.081,-0.049 -0.168,0 c -0.438,0.252 -0.861,0.521 -1.271,0.803 0,0.336 -0.002,0.637 -0.002,0.637 v 18.915 0.76 h -0.76 -7.748 v 2.579 h 9.776 0.178 9.776 L 9.783,21.118 H 2.037 1.274 V 20.355 1.44 c 0,0 0,-0.299 0,-0.635 C 0.862,0.522 0.439,0.253 0,0"
             style="fill:#8e0a26;fill-opacity:1;fill-rule:nonzero;stroke:none"
             id="path205157"
             inkscape:connector-curvature="0" />
        </g>
        <g
           id="g205159"
           transform="translate(94.2004,102.7689)">
          <path
             d="M 0,0 C -0.013,0.01 -0.027,0.02 -0.039,0.03 -0.327,0.251 -0.607,0.48 -0.879,0.716 -0.905,0.738 -0.93,0.76 -0.955,0.782 -3.29,2.828 -5.065,5.414 -6.214,8.297 -6.223,8.319 -6.232,8.342 -6.241,8.365 -6.373,8.7 -6.496,9.039 -6.612,9.382 c -0.015,0.046 -0.03,0.091 -0.045,0.136 -0.109,0.332 -0.21,0.668 -0.304,1.006 -0.014,0.052 -0.027,0.105 -0.041,0.156 -0.085,0.32 -0.164,0.642 -0.234,0.967 -0.012,0.054 -0.024,0.107 -0.035,0.162 -0.065,0.306 -0.121,0.615 -0.172,0.926 -0.015,0.086 -0.031,0.173 -0.044,0.26 -0.048,0.311 -0.087,0.622 -0.122,0.935 -0.011,0.102 -0.022,0.204 -0.032,0.306 -0.031,0.315 -0.055,0.631 -0.072,0.949 -0.005,0.088 -0.008,0.177 -0.012,0.266 -0.015,0.352 -0.025,0.705 -0.024,1.06 l 10e-4,2.487 H 0 Z"
             style="fill:#1b6e44;fill-opacity:1;fill-rule:nonzero;stroke:none"
             id="path205161"
             inkscape:connector-curvature="0" />
        </g>
        <g
           id="g205163"
           transform="translate(106.1669,118.2866)">
          <path
             d="m 0,0 c -0.005,-0.131 -0.01,-0.261 -0.018,-0.391 -0.015,-0.272 -0.035,-0.543 -0.061,-0.813 -0.014,-0.155 -0.031,-0.31 -0.049,-0.464 -0.026,-0.235 -0.056,-0.469 -0.091,-0.703 -0.023,-0.162 -0.05,-0.324 -0.077,-0.486 -0.04,-0.233 -0.082,-0.466 -0.13,-0.697 -0.022,-0.113 -0.045,-0.226 -0.069,-0.338 -0.067,-0.301 -0.139,-0.6 -0.218,-0.898 -0.017,-0.065 -0.034,-0.13 -0.051,-0.195 -0.094,-0.341 -0.196,-0.68 -0.307,-1.016 -0.01,-0.03 -0.02,-0.061 -0.03,-0.091 -0.987,-2.952 -2.61,-5.65 -4.803,-7.832 -0.023,-0.023 -0.046,-0.047 -0.07,-0.07 -0.248,-0.244 -0.504,-0.481 -0.768,-0.712 -0.043,-0.037 -0.086,-0.076 -0.129,-0.113 -0.266,-0.229 -0.538,-0.452 -0.818,-0.666 -0.013,-0.01 -0.026,-0.02 -0.039,-0.03 V 3.48 H 0.018 L 0.02,0.99 C 0.022,0.659 0.013,0.329 0,0"
             style="fill:#2154ac;fill-opacity:1;fill-rule:nonzero;stroke:none"
             id="path205165"
             inkscape:connector-curvature="0" />
        </g>
        <g
           id="g205167"
           transform="translate(90.205,119.9713)">
          <path
             d="m 0,0 c -0.027,-0.073 -0.109,-0.11 -0.183,-0.083 -0.073,0.027 -0.11,0.109 -0.083,0.183 0.028,0.073 0.109,0.11 0.183,0.083 C -0.01,0.155 0.027,0.074 0,0"
             style="fill:#ffffff;fill-opacity:1;fill-rule:nonzero;stroke:none"
             id="path205169"
             inkscape:connector-curvature="0" />
        </g>
        <g
           id="g205171"
           transform="translate(90.5384,114.2413)">
          <path
             d="m 0,0 c -1.741,1.849 -1.063,3.928 -0.897,4.355 0.172,10e-4 0.33,0.121 0.363,0.303 l 0.007,0.041 c 0.047,0.256 0.174,0.491 0.364,0.671 l -0.42,0.163 -0.42,0.164 C -0.985,5.437 -1.052,5.179 -1.191,4.958 L -1.213,4.923 C -1.31,4.769 -1.278,4.577 -1.157,4.459 -1.334,3.984 -2.028,1.743 -0.205,-0.193 1.622,-2.132 1.022,-5.328 1.015,-5.36 1,-5.436 1.05,-5.51 1.126,-5.525 c 0.009,-0.002 0.019,-0.003 0.027,-0.003 0.066,0 0.125,0.047 0.138,0.114 C 1.318,-5.278 1.927,-2.046 0,0"
             style="fill:#ffffff;fill-opacity:1;fill-rule:nonzero;stroke:none"
             id="path205173"
             inkscape:connector-curvature="0" />
        </g>
        <g
           id="g205175"
           transform="translate(91.2255,118.052)">
          <path
             d="m 0,0 c -0.071,-0.032 -0.155,0 -0.187,0.072 -0.032,0.072 0,0.155 0.071,0.187 0.072,0.032 0.156,0 0.188,-0.072 C 0.104,0.116 0.072,0.032 0,0"
             style="fill:#ffffff;fill-opacity:1;fill-rule:nonzero;stroke:none"
             id="path205177"
             inkscape:connector-curvature="0" />
        </g>
        <g
           id="g205179"
           transform="translate(90.3557,117.465)">
          <path
             d="M 0,0 C 0.215,0.147 0.472,0.222 0.733,0.213 L 0.555,0.627 0.376,1.041 C 0.204,0.846 -0.027,0.711 -0.282,0.655 l -0.04,-0.008 c -0.228,-0.05 -0.355,-0.296 -0.262,-0.51 0.092,-0.215 0.357,-0.292 0.55,-0.16 z"
             style="fill:#ffffff;fill-opacity:1;fill-rule:nonzero;stroke:none"
             id="path205181"
             inkscape:connector-curvature="0" />
        </g>
        <g
           id="g205183"
           transform="translate(91.3124,116.5515)">
          <path
             d="M 0,0 C -0.068,-0.039 -0.155,-0.016 -0.194,0.052 -0.233,0.12 -0.21,0.207 -0.142,0.246 -0.074,0.285 0.013,0.262 0.052,0.194 0.091,0.126 0.068,0.039 0,0"
             style="fill:#ffffff;fill-opacity:1;fill-rule:nonzero;stroke:none"
             id="path205185"
             inkscape:connector-curvature="0" />
        </g>
        <g
           id="g205187"
           transform="translate(90.507,115.8786)">
          <path
             d="M 0,0 C 0.199,0.168 0.447,0.269 0.707,0.287 L 0.488,0.68 0.268,1.074 C 0.116,0.862 -0.099,0.704 -0.347,0.623 L -0.386,0.61 C -0.608,0.537 -0.709,0.28 -0.595,0.076 c 0.113,-0.204 0.385,-0.253 0.563,-0.103 z"
             style="fill:#ffffff;fill-opacity:1;fill-rule:nonzero;stroke:none"
             id="path205189"
             inkscape:connector-curvature="0" />
        </g>
        <g
           id="g205191"
           transform="translate(91.9928,115.3415)">
          <path
             d="M 0,0 C -0.064,-0.045 -0.153,-0.029 -0.198,0.036 -0.242,0.101 -0.226,0.189 -0.161,0.234 -0.097,0.278 -0.008,0.262 0.036,0.198 0.081,0.133 0.064,0.045 0,0"
             style="fill:#ffffff;fill-opacity:1;fill-rule:nonzero;stroke:none"
             id="path205193"
             inkscape:connector-curvature="0" />
        </g>
        <g
           id="g205195"
           transform="translate(91.2455,114.6048)">
          <path
             d="M 0,0 C 0.185,0.184 0.423,0.304 0.681,0.344 L 0.43,0.718 0.179,1.092 C 0.045,0.868 -0.157,0.693 -0.397,0.592 L -0.435,0.576 C -0.651,0.485 -0.73,0.221 -0.6,0.027 c 0.13,-0.194 0.405,-0.221 0.571,-0.056 z"
             style="fill:#ffffff;fill-opacity:1;fill-rule:nonzero;stroke:none"
             id="path205197"
             inkscape:connector-curvature="0" />
        </g>
        <g
           id="g205199"
           transform="translate(92.9202,114.0755)">
          <path
             d="m 0,0 c -0.061,-0.049 -0.151,-0.038 -0.199,0.023 -0.049,0.061 -0.039,0.15 0.023,0.199 0.061,0.049 0.15,0.039 0.199,-0.023 C 0.072,0.138 0.061,0.048 0,0"
             style="fill:#ffffff;fill-opacity:1;fill-rule:nonzero;stroke:none"
             id="path205201"
             inkscape:connector-curvature="0" />
        </g>
        <g
           id="g205203"
           transform="translate(92.2227,113.2913)">
          <path
             d="M 0,0 C 0.172,0.196 0.403,0.331 0.657,0.388 L 0.382,0.745 0.107,1.101 C -0.012,0.869 -0.202,0.682 -0.435,0.565 L -0.472,0.547 C -0.681,0.442 -0.743,0.173 -0.6,-0.012 c 0.142,-0.185 0.418,-0.194 0.573,-0.019 z"
             style="fill:#ffffff;fill-opacity:1;fill-rule:nonzero;stroke:none"
             id="path205205"
             inkscape:connector-curvature="0" />
        </g>
        <g
           id="g205207"
           transform="translate(93.5911,112.5014)">
          <path
             d="M 0,0 C -0.066,-0.042 -0.154,-0.021 -0.196,0.045 -0.237,0.111 -0.217,0.199 -0.151,0.24 -0.084,0.282 0.003,0.262 0.045,0.196 0.086,0.129 0.066,0.042 0,0"
             style="fill:#ffffff;fill-opacity:1;fill-rule:nonzero;stroke:none"
             id="path205209"
             inkscape:connector-curvature="0" />
        </g>
        <g
           id="g205211"
           transform="translate(92.8108,111.7995)">
          <path
             d="M 0,0 C 0.193,0.175 0.437,0.285 0.696,0.312 L 0.462,0.698 0.229,1.083 C 0.084,0.866 -0.125,0.7 -0.37,0.61 L -0.409,0.596 c -0.219,-0.081 -0.31,-0.342 -0.189,-0.541 0.122,-0.2 0.394,-0.24 0.567,-0.083 z"
             style="fill:#ffffff;fill-opacity:1;fill-rule:nonzero;stroke:none"
             id="path205213"
             inkscape:connector-curvature="0" />
        </g>
        <g
           id="g205215"
           transform="translate(89.5884,111.9002)">
          <path
             d="M 0,0 C 0.078,0.008 0.148,-0.048 0.156,-0.126 0.165,-0.204 0.108,-0.274 0.03,-0.282 -0.048,-0.29 -0.118,-0.234 -0.126,-0.156 -0.134,-0.078 -0.078,-0.008 0,0"
             style="fill:#ffffff;fill-opacity:1;fill-rule:nonzero;stroke:none"
             id="path205217"
             inkscape:connector-curvature="0" />
        </g>
        <g
           id="g205219"
           transform="translate(90.597,112.1907)">
          <path
             d="m 0,0 c -0.25,-0.073 -0.518,-0.065 -0.763,0.023 l 0.042,-0.448 0.042,-0.449 c 0.225,0.132 0.486,0.19 0.745,0.164 l 0.041,-0.004 c 0.232,-0.024 0.428,0.171 0.407,0.404 -0.022,0.232 -0.25,0.387 -0.475,0.321 z"
             style="fill:#ffffff;fill-opacity:1;fill-rule:nonzero;stroke:none"
             id="path205221"
             inkscape:connector-curvature="0" />
        </g>
        <g
           id="g205223"
           transform="translate(88.9668,113.5024)">
          <path
             d="M 0,0 C 0.078,-0.005 0.137,-0.073 0.132,-0.151 0.127,-0.229 0.059,-0.288 -0.019,-0.283 -0.097,-0.278 -0.156,-0.21 -0.151,-0.132 -0.146,-0.054 -0.078,0.006 0,0"
             style="fill:#ffffff;fill-opacity:1;fill-rule:nonzero;stroke:none"
             id="path205225"
             inkscape:connector-curvature="0" />
        </g>
        <g
           id="g205227"
           transform="translate(90.0101,113.6153)">
          <path
             d="m 0,0 c -0.259,-0.029 -0.521,0.024 -0.747,0.154 l -0.036,-0.449 -0.036,-0.449 c 0.244,0.091 0.511,0.103 0.762,0.033 l 0.04,-0.011 c 0.225,-0.063 0.451,0.095 0.47,0.328 0.018,0.233 -0.18,0.425 -0.412,0.399 z"
             style="fill:#ffffff;fill-opacity:1;fill-rule:nonzero;stroke:none"
             id="path205229"
             inkscape:connector-curvature="0" />
        </g>
        <g
           id="g205231"
           transform="translate(88.074,115.3673)">
          <path
             d="m 0,0 c 0.07,-0.035 0.098,-0.121 0.062,-0.191 -0.035,-0.07 -0.121,-0.098 -0.19,-0.062 -0.071,0.035 -0.098,0.12 -0.063,0.191 C -0.155,0.007 -0.07,0.035 0,0"
             style="fill:#ffffff;fill-opacity:1;fill-rule:nonzero;stroke:none"
             id="path205233"
             inkscape:connector-curvature="0" />
        </g>
        <g
           id="g205235"
           transform="translate(89.0778,115.0613)">
          <path
             d="M 0,0 C -0.25,0.075 -0.469,0.227 -0.627,0.435 L -0.836,0.036 -1.045,-0.363 c 0.26,-0.012 0.51,-0.106 0.714,-0.268 l 0.032,-0.026 c 0.182,-0.146 0.452,-0.09 0.561,0.117 0.108,0.207 0.001,0.461 -0.222,0.528 z"
             style="fill:#ffffff;fill-opacity:1;fill-rule:nonzero;stroke:none"
             id="path205237"
             inkscape:connector-curvature="0" />
        </g>
        <g
           id="g205239"
           transform="translate(87.6563,117.2028)">
          <path
             d="m 0,0 c 0.061,-0.049 0.071,-0.138 0.022,-0.199 -0.049,-0.062 -0.139,-0.071 -0.2,-0.022 -0.061,0.049 -0.07,0.138 -0.021,0.199 C -0.15,0.04 -0.061,0.049 0,0"
             style="fill:#ffffff;fill-opacity:1;fill-rule:nonzero;stroke:none"
             id="path205241"
             inkscape:connector-curvature="0" />
        </g>
        <g
           id="g205243"
           transform="translate(88.5755,116.6963)">
          <path
             d="M 0,0 C -0.229,0.125 -0.412,0.319 -0.524,0.555 L -0.811,0.208 -1.098,-0.139 c 0.253,-0.065 0.478,-0.209 0.643,-0.411 l 0.027,-0.031 c 0.148,-0.181 0.424,-0.181 0.573,-0.001 0.149,0.179 0.096,0.45 -0.109,0.563 z"
             style="fill:#ffffff;fill-opacity:1;fill-rule:nonzero;stroke:none"
             id="path205245"
             inkscape:connector-curvature="0" />
        </g>
        <g
           id="g205247"
           transform="translate(87.7276,119.0232)">
          <path
             d="M 0,0 C 0.058,-0.053 0.061,-0.143 0.008,-0.2 -0.045,-0.258 -0.135,-0.261 -0.193,-0.208 -0.25,-0.155 -0.254,-0.065 -0.2,-0.008 -0.147,0.05 -0.058,0.053 0,0"
             style="fill:#ffffff;fill-opacity:1;fill-rule:nonzero;stroke:none"
             id="path205249"
             inkscape:connector-curvature="0" />
        </g>
        <g
           id="g205251"
           transform="translate(88.6092,118.454)">
          <path
             d="m 0,0 c -0.22,0.14 -0.389,0.347 -0.484,0.59 l -0.31,-0.326 -0.311,-0.327 c 0.247,-0.082 0.462,-0.241 0.613,-0.453 l 0.024,-0.034 c 0.135,-0.19 0.411,-0.21 0.572,-0.041 0.161,0.169 0.128,0.443 -0.069,0.569 z"
             style="fill:#ffffff;fill-opacity:1;fill-rule:nonzero;stroke:none"
             id="path205253"
             inkscape:connector-curvature="0" />
        </g>
        <g
           id="g205255"
           transform="translate(101.8524,120.3403)">
          <path
             d="M 0,0 0.662,0.157 0.356,-0.451 0.892,-0.872 0.225,-1.011 0.23,-1.692 l -0.524,0.434 -0.528,-0.428 0.012,0.68 -0.665,0.146 0.54,0.416 -0.301,0.61 0.661,-0.163 0.29,0.616 z"
             style="fill:#ffffff;fill-opacity:1;fill-rule:nonzero;stroke:none"
             id="path205257"
             inkscape:connector-curvature="0" />
        </g>
        <g
           id="g205259"
           transform="translate(100.4893,116.5761)">
          <path
             d="m 0,0 0.663,0.157 -0.307,-0.608 0.536,-0.42 -0.667,-0.139 0.007,-0.681 -0.525,0.434 -0.529,-0.43 0.012,0.681 -0.665,0.147 0.54,0.414 -0.301,0.612 0.662,-0.164 0.29,0.616 z"
             style="fill:#ffffff;fill-opacity:1;fill-rule:nonzero;stroke:none"
             id="path205261"
             inkscape:connector-curvature="0" />
        </g>
        <g
           id="g205263"
           transform="translate(104.4478,117.6142)">
          <path
             d="m 0,0 0.663,0.157 -0.307,-0.608 0.536,-0.42 -0.667,-0.139 0.006,-0.681 -0.525,0.433 -0.528,-0.428 0.012,0.68 -0.665,0.148 0.54,0.414 -0.3,0.611 0.661,-0.164 0.29,0.616 z"
             style="fill:#ffffff;fill-opacity:1;fill-rule:nonzero;stroke:none"
             id="path205265"
             inkscape:connector-curvature="0" />
        </g>
        <g
           id="g205267"
           transform="translate(101.9035,110.5553)">
          <path
             d="M 0,0 0.663,0.157 0.356,-0.451 0.892,-0.87 0.225,-1.011 l 0.006,-0.68 -0.524,0.433 -0.529,-0.428 0.011,0.68 -0.664,0.146 0.54,0.415 -0.301,0.61 0.661,-0.161 0.29,0.615 z"
             style="fill:#ffffff;fill-opacity:1;fill-rule:nonzero;stroke:none"
             id="path205269"
             inkscape:connector-curvature="0" />
        </g>
        <g
           id="g205271"
           transform="translate(103.5903,114.3685)">
          <path
             d="m 0,0 0.331,0.079 -0.153,-0.305 0.267,-0.21 -0.333,-0.07 0.003,-0.34 -0.262,0.217 -0.265,-0.215 0.007,0.34 -0.333,0.073 0.27,0.208 -0.15,0.305 0.33,-0.081 0.146,0.308 z"
             style="fill:#ffffff;fill-opacity:1;fill-rule:nonzero;stroke:none"
             id="path205273"
             inkscape:connector-curvature="0" />
        </g>
        <g
           id="g205275"
           transform="translate(90.2298,130.729)">
          <path
             d="M 0,0 C -0.059,-0.13 -0.212,-0.187 -0.342,-0.128 -0.344,-0.127 -0.43,-0.289 -0.478,-0.369 -0.536,-0.1 -0.198,0.577 -0.061,0.653 -0.082,0.562 -0.136,0.346 -0.128,0.342 0.002,0.283 0.059,0.13 0,0 m 16.196,2.514 0.387,0.217 -0.349,0.276 c -0.384,0.304 -0.85,0.487 -1.338,0.526 l -0.777,0.062 0.52,0.101 c 0.59,0.115 1.131,0.403 1.556,0.828 l 0.196,0.196 -0.257,0.107 c -0.551,0.231 -1.159,0.294 -1.745,0.18 L 10.666,4.079 C 10.228,3.969 9.772,3.946 9.325,4.01 c 0,0 -0.119,0.076 -0.334,0.211 1.506,0.309 2.676,0.821 3.13,1.492 C 10.707,5.301 9.657,5.706 9.657,5.706 c 1.926,0.353 3.206,0.832 3.912,2.086 -1.381,-0.695 -2.546,-0.569 -2.546,-0.569 2.506,0.733 4.498,2.051 4.45,4.816 -1.007,-1.925 -2.627,-2.497 -2.726,-2.531 2.578,2.204 3.063,5.559 2.309,6.841 -0.374,-2.671 -2.463,-4.359 -2.574,-4.477 1.971,3.15 2.322,5.548 0.991,7.857 0.108,-4.238 -2.051,-5.392 -2.051,-5.392 1.542,3.142 2.028,5.489 0.174,7.515 C 11.804,20.339 11.503,17.496 8.204,14.297 6.408,12.556 4.927,12.623 4.578,10.042 4.414,8.829 4.042,7.974 3.587,7.351 3.58,7.356 3.571,7.36 3.564,7.364 3.162,7.318 2.897,7.771 2.897,7.771 3.545,8.55 3.207,9.443 3.207,9.443 3.006,8.656 2.405,8.395 2.405,8.395 3.099,9.672 2.422,10.893 2.422,10.893 2.327,9.652 1.81,9.048 1.81,9.048 c 0.608,3.086 -0.419,3.65 -0.419,3.65 0.152,-1.961 -0.404,-2.95 -0.404,-2.95 0.569,4.433 -1.216,4.855 -1.216,4.855 0.551,-2.416 0.07,-3.618 0.07,-3.618 -0.221,5.776 -2.752,5.149 -2.752,5.149 1.446,-2.087 0.996,-3.235 0.996,-3.235 -2.041,5.063 -5.221,2.697 -5.221,2.697 2.828,-0.91 3.274,-3.167 3.274,-3.167 -3.844,4.426 -7.285,1.07 -7.285,1.07 8.06,-0.165 5.11,-6.141 7.84,-6.864 2.702,-0.715 3.344,-2.424 3.344,-2.424 0,0 0.073,-0.727 -0.368,-1.389 -0.292,-0.438 -0.68,-1.152 -0.9,-1.686 -0.18,-0.344 -0.258,-0.753 -0.192,-1.166 0.049,-0.307 0.172,-0.575 0.344,-0.789 0.049,-0.568 0.221,-1.248 0.742,-1.442 -0.098,0.145 -0.171,0.309 -0.198,0.487 -0.014,0.104 -0.019,0.212 0.011,0.317 0.026,0.104 0.084,0.205 0.17,0.264 -0.074,-0.193 -0.065,-0.371 -0.036,-0.559 0.008,-0.059 0.02,-0.119 0.032,-0.179 0.209,0.025 0.576,0.14 0.735,0.63 L 0.375,-1.3 c 0.679,0.189 1.16,0.855 1.202,1.6 0.099,0.014 0.202,0.014 0.308,-0.006 0.776,-0.145 1.364,-0.5 1.637,-0.691 -0.041,-0.206 -0.066,-0.42 -0.065,-0.639 0.008,-1.282 0.332,-2.183 0.332,-2.183 l 0.263,0.285 C 4.053,-2.935 4.055,-2.935 4.056,-2.935 4.167,-3.349 4.279,-4.205 4.078,-4.345 3.651,-4.641 3.499,-4.772 3.275,-4.977 2.913,-5.312 2.844,-5.476 2.922,-5.909 L 2.926,-5.91 c 0,-0.006 -0.002,-0.011 -0.001,-0.017 0.002,-0.028 0.011,-0.056 0.019,-0.085 0.053,-0.176 0.225,-0.279 0.382,-0.23 0.045,0.014 0.084,0.039 0.116,0.071 -0.21,0.009 -0.278,0.1 -0.317,0.226 -10e-4,0.004 -0.004,0.01 -0.003,0.015 0.088,-0.003 0.14,0.018 0.159,0.129 0.024,0.131 0.153,0.807 0.994,0.941 H 5.577 C 5.543,-4.767 5.476,-4.673 5.35,-4.576 l -0.4,0.299 -0.237,0.178 -0.086,1.133 c 0.078,-0.004 0.125,-0.005 0.125,-0.005 0.05,-0.055 0.101,-0.113 0.151,-0.171 0.187,0.513 0.27,1.06 0.224,1.604 -0.013,0.153 -0.018,0.31 -0.014,0.469 0.21,0.019 0.472,0.097 0.762,0.211 -0.271,-1.972 0.845,-3.005 0.845,-3.005 0.04,0.122 0.085,0.279 0.13,0.445 0.037,0.05 0.075,0.095 0.113,0.138 C 7.036,-3.708 7.066,-4.238 6.912,-4.345 6.485,-4.641 6.333,-4.772 6.109,-4.977 5.746,-5.312 5.678,-5.476 5.756,-5.909 L 5.761,-5.91 c 0,-0.006 -0.002,-0.011 -0.002,-0.017 0.003,-0.028 0.011,-0.056 0.019,-0.085 0.053,-0.176 0.225,-0.279 0.382,-0.23 0.046,0.014 0.084,0.039 0.117,0.071 -0.211,0.009 -0.279,0.1 -0.318,0.226 -10e-4,0.004 -0.003,0.01 -0.003,0.015 0.089,-0.003 0.141,0.018 0.16,0.129 0.023,0.131 0.152,0.808 0.993,0.941 H 8.411 C 8.377,-4.767 8.31,-4.673 8.184,-4.576 l -0.4,0.299 -0.236,0.178 -0.087,1.134 c 0.265,-0.386 0.456,-0.572 0.456,-0.572 0.375,0.839 0.258,2.73 0.258,2.73 0,0 0.651,0.918 0.959,1.584 l 2.517,-1.846 c 0.26,-0.191 0.572,-0.3 0.895,-0.313 l 0.701,-0.028 -0.239,0.66 c -0.11,0.302 -0.307,0.565 -0.566,0.755 l 0.567,-0.33 c 0.326,-0.19 0.7,-0.278 1.076,-0.254 l 0.619,0.041 -0.273,0.558 c -0.163,0.337 -0.424,0.617 -0.748,0.806 l -0.332,0.193 0.704,-0.214 c 0.622,-0.188 1.285,-0.188 1.906,0.003 l 0.193,0.059 -0.13,0.158 c -0.409,0.5 -0.958,0.867 -1.576,1.055 l -0.674,0.205 1.012,-0.081 c 0.49,-0.04 0.981,0.068 1.41,0.31"
             style="fill:#2154ac;fill-opacity:1;fill-rule:evenodd;stroke:none"
             id="path205277"
             inkscape:connector-curvature="0" />
        </g>
        <g
           id="g205279"
           transform="translate(90.2298,130.729)">
          <path
             d="M 0,0 C -0.059,-0.13 -0.212,-0.187 -0.342,-0.128 -0.344,-0.127 -0.43,-0.289 -0.478,-0.369 -0.536,-0.1 -0.198,0.577 -0.061,0.653 -0.082,0.562 -0.136,0.346 -0.128,0.342 0.002,0.283 0.059,0.13 0,0 Z m 16.196,2.514 0.387,0.217 -0.349,0.276 c -0.384,0.304 -0.85,0.487 -1.338,0.526 l -0.777,0.062 0.52,0.101 c 0.59,0.115 1.131,0.403 1.556,0.828 l 0.196,0.196 -0.257,0.107 c -0.551,0.231 -1.159,0.294 -1.745,0.18 L 10.666,4.079 C 10.228,3.969 9.772,3.946 9.325,4.01 c 0,0 -0.119,0.076 -0.334,0.211 1.506,0.309 2.676,0.821 3.13,1.492 C 10.707,5.301 9.657,5.706 9.657,5.706 c 1.926,0.353 3.206,0.832 3.912,2.086 -1.381,-0.695 -2.546,-0.569 -2.546,-0.569 2.506,0.733 4.498,2.051 4.45,4.816 -1.007,-1.925 -2.627,-2.497 -2.726,-2.531 2.578,2.204 3.063,5.559 2.309,6.841 -0.374,-2.671 -2.463,-4.359 -2.574,-4.477 1.971,3.15 2.322,5.548 0.991,7.857 0.108,-4.238 -2.051,-5.392 -2.051,-5.392 1.542,3.142 2.028,5.489 0.174,7.515 C 11.804,20.339 11.503,17.496 8.204,14.297 6.408,12.556 4.927,12.623 4.578,10.042 4.414,8.829 4.042,7.974 3.587,7.351 3.58,7.356 3.571,7.36 3.564,7.364 3.162,7.318 2.897,7.771 2.897,7.771 3.545,8.55 3.207,9.443 3.207,9.443 3.006,8.656 2.405,8.395 2.405,8.395 3.099,9.672 2.422,10.893 2.422,10.893 2.327,9.652 1.81,9.048 1.81,9.048 c 0.608,3.086 -0.419,3.65 -0.419,3.65 0.152,-1.961 -0.404,-2.95 -0.404,-2.95 0.569,4.433 -1.216,4.855 -1.216,4.855 0.551,-2.416 0.07,-3.618 0.07,-3.618 -0.221,5.776 -2.752,5.149 -2.752,5.149 1.446,-2.087 0.996,-3.235 0.996,-3.235 -2.041,5.063 -5.221,2.697 -5.221,2.697 2.828,-0.91 3.274,-3.167 3.274,-3.167 -3.844,4.426 -7.285,1.07 -7.285,1.07 8.06,-0.165 5.11,-6.141 7.84,-6.864 2.702,-0.715 3.344,-2.424 3.344,-2.424 0,0 0.073,-0.727 -0.368,-1.389 -0.292,-0.438 -0.68,-1.152 -0.9,-1.686 -0.18,-0.344 -0.258,-0.753 -0.192,-1.166 0.049,-0.307 0.172,-0.575 0.344,-0.789 0.049,-0.568 0.221,-1.248 0.742,-1.442 -0.098,0.145 -0.171,0.309 -0.198,0.487 -0.014,0.104 -0.019,0.212 0.011,0.317 0.026,0.104 0.084,0.205 0.17,0.264 -0.074,-0.193 -0.065,-0.371 -0.036,-0.559 0.008,-0.059 0.02,-0.119 0.032,-0.179 0.209,0.025 0.576,0.14 0.735,0.63 L 0.375,-1.3 c 0.679,0.189 1.16,0.855 1.202,1.6 0.099,0.014 0.202,0.014 0.308,-0.006 0.776,-0.145 1.364,-0.5 1.637,-0.691 -0.041,-0.206 -0.066,-0.42 -0.065,-0.639 0.008,-1.282 0.332,-2.183 0.332,-2.183 l 0.263,0.285 C 4.053,-2.935 4.055,-2.935 4.056,-2.935 4.167,-3.349 4.279,-4.205 4.078,-4.345 3.651,-4.641 3.499,-4.772 3.275,-4.977 2.913,-5.312 2.844,-5.476 2.922,-5.909 L 2.926,-5.91 c 0,-0.006 -0.002,-0.011 -0.001,-0.017 0.002,-0.028 0.011,-0.056 0.019,-0.085 0.053,-0.176 0.225,-0.279 0.382,-0.23 0.045,0.014 0.084,0.039 0.116,0.071 -0.21,0.009 -0.278,0.1 -0.317,0.226 -10e-4,0.004 -0.004,0.01 -0.003,0.015 0.088,-0.003 0.14,0.018 0.159,0.129 0.024,0.131 0.153,0.807 0.994,0.941 H 5.577 C 5.543,-4.767 5.476,-4.673 5.35,-4.576 l -0.4,0.299 -0.237,0.178 -0.086,1.133 c 0.078,-0.004 0.125,-0.005 0.125,-0.005 0.05,-0.055 0.101,-0.113 0.151,-0.171 0.187,0.513 0.27,1.06 0.224,1.604 -0.013,0.153 -0.018,0.31 -0.014,0.469 0.21,0.019 0.472,0.097 0.762,0.211 -0.271,-1.972 0.845,-3.005 0.845,-3.005 0.04,0.122 0.085,0.279 0.13,0.445 0.037,0.05 0.075,0.095 0.113,0.138 C 7.036,-3.708 7.066,-4.238 6.912,-4.345 6.485,-4.641 6.333,-4.772 6.109,-4.977 5.746,-5.312 5.678,-5.476 5.756,-5.909 L 5.761,-5.91 c 0,-0.006 -0.002,-0.011 -0.002,-0.017 0.003,-0.028 0.011,-0.056 0.019,-0.085 0.053,-0.176 0.225,-0.279 0.382,-0.23 0.046,0.014 0.084,0.039 0.117,0.071 -0.211,0.009 -0.279,0.1 -0.318,0.226 -10e-4,0.004 -0.003,0.01 -0.003,0.015 0.089,-0.003 0.141,0.018 0.16,0.129 0.023,0.131 0.152,0.808 0.993,0.941 H 8.411 C 8.377,-4.767 8.31,-4.673 8.184,-4.576 l -0.4,0.299 -0.236,0.178 -0.087,1.134 c 0.265,-0.386 0.456,-0.572 0.456,-0.572 0.375,0.839 0.258,2.73 0.258,2.73 0,0 0.651,0.918 0.959,1.584 l 2.517,-1.846 c 0.26,-0.191 0.572,-0.3 0.895,-0.313 l 0.701,-0.028 -0.239,0.66 c -0.11,0.302 -0.307,0.565 -0.566,0.755 l 0.567,-0.33 c 0.326,-0.19 0.7,-0.278 1.076,-0.254 l 0.619,0.041 -0.273,0.558 c -0.163,0.337 -0.424,0.617 -0.748,0.806 l -0.332,0.193 0.704,-0.214 c 0.622,-0.188 1.285,-0.188 1.906,0.003 l 0.193,0.059 -0.13,0.158 c -0.409,0.5 -0.958,0.867 -1.576,1.055 l -0.674,0.205 1.012,-0.081 c 0.49,-0.04 0.981,0.068 1.41,0.31 z"
             style="fill:none;stroke:#fefefe;stroke-width:0.077;stroke-linecap:butt;stroke-linejoin:miter;stroke-miterlimit:10;stroke-dasharray:none;stroke-opacity:1"
             id="path205281"
             inkscape:connector-curvature="0" />
        </g>
      </g>
    </g>
  </g>
</svg>
