<?xml version="1.0" encoding="UTF-8" standalone="no"?>
<svg
   width="23.161625mm"
   height="25.284637mm"
   viewBox="0 0 23.161625 25.284638"
   version="1.1"
   id="svg67976"
   xmlns="http://www.w3.org/2000/svg"
   xmlns:svg="http://www.w3.org/2000/svg"
   xmlns:rdf="http://www.w3.org/1999/02/22-rdf-syntax-ns#"
   xmlns:cc="http://creativecommons.org/ns#"
   xmlns:dc="http://purl.org/dc/elements/1.1/">
  <defs
     id="defs67970">
    <clipPath
       id="clipPath68020"
       clipPathUnits="userSpaceOnUse">
      <path
         style="clip-rule:evenodd"
         id="path68018"
         d="M 204.12,543.779 H 643.5 v -5.04 H 204.12 Z" />
    </clipPath>
    <clipPath
       id="clipPath68028"
       clipPathUnits="userSpaceOnUse">
      <path
         id="path68026"
         d="M 0.03,1191.03 H 842.01 V 0.03 H 0.03 Z" />
    </clipPath>
    <clipPath
       id="clipPath68124"
       clipPathUnits="userSpaceOnUse">
      <path
         style="clip-rule:evenodd"
         id="path68122"
         d="M 205.56,918.659 H 643.5 v -93.72 H 205.56 Z" />
    </clipPath>
    <clipPath
       id="clipPath68132"
       clipPathUnits="userSpaceOnUse">
      <path
         id="path68130"
         d="M 0.03,1191.03 H 842.01 V 0.03 H 0.03 Z" />
    </clipPath>
    <clipPath
       id="clipPath68222"
       clipPathUnits="userSpaceOnUse">
      <path
         style="clip-rule:evenodd"
         id="path68220"
         d="m 207.66,916.559 h 12 v -12.78 h -12 z" />
    </clipPath>
    <clipPath
       id="clipPath68230"
       clipPathUnits="userSpaceOnUse">
      <path
         style="clip-rule:evenodd"
         id="path68228"
         d="M 205.56,918.659 H 643.5 v -93.72 H 205.56 Z" />
    </clipPath>
    <clipPath
       id="clipPath68238"
       clipPathUnits="userSpaceOnUse">
      <path
         id="path68236"
         d="M 0.03,1191.03 H 842.01 V 0.03 H 0.03 Z" />
    </clipPath>
    <clipPath
       id="clipPath68264"
       clipPathUnits="userSpaceOnUse">
      <path
         id="path68262"
         d="m 216.74,916.536 h -9.065 v -11.34 h 9.065 z" />
    </clipPath>
    <clipPath
       id="clipPath68276"
       clipPathUnits="userSpaceOnUse">
      <path
         style="clip-rule:evenodd"
         id="path68274"
         d="m 317.16,916.559 h 13.38 v -12.78 h -13.38 z" />
    </clipPath>
    <clipPath
       id="clipPath68284"
       clipPathUnits="userSpaceOnUse">
      <path
         style="clip-rule:evenodd"
         id="path68282"
         d="M 205.56,918.659 H 643.5 v -93.72 H 205.56 Z" />
    </clipPath>
    <clipPath
       id="clipPath68292"
       clipPathUnits="userSpaceOnUse">
      <path
         id="path68290"
         d="M 0.03,1191.03 H 842.01 V 0.03 H 0.03 Z" />
    </clipPath>
    <clipPath
       id="clipPath68306"
       clipPathUnits="userSpaceOnUse">
      <path
         style="clip-rule:evenodd"
         id="path68304"
         d="m 426.66,916.559 h 13.32 v -12.78 h -13.32 z" />
    </clipPath>
    <clipPath
       id="clipPath68314"
       clipPathUnits="userSpaceOnUse">
      <path
         style="clip-rule:evenodd"
         id="path68312"
         d="M 205.56,918.659 H 643.5 v -93.72 H 205.56 Z" />
    </clipPath>
    <clipPath
       id="clipPath68322"
       clipPathUnits="userSpaceOnUse">
      <path
         id="path68320"
         d="M 0.03,1191.03 H 842.01 V 0.03 H 0.03 Z" />
    </clipPath>
    <clipPath
       id="clipPath68332"
       clipPathUnits="userSpaceOnUse">
      <path
         id="path68330"
         d="m 436.167,916.536 h -9.507 v -11.22 h 9.507 z" />
    </clipPath>
    <clipPath
       id="clipPath68344"
       clipPathUnits="userSpaceOnUse">
      <path
         style="clip-rule:evenodd"
         id="path68342"
         d="m 201.3,399.899 h 445.08 v -90.72 H 201.3 Z" />
    </clipPath>
    <clipPath
       id="clipPath68352"
       clipPathUnits="userSpaceOnUse">
      <path
         id="path68350"
         d="M 0.03,1191.03 H 842.01 V 0.03 H 0.03 Z" />
    </clipPath>
    <clipPath
       id="clipPath68362"
       clipPathUnits="userSpaceOnUse">
      <path
         id="path68360"
         d="M 204.131,394.234 H 578.584 V 346.279 H 204.131 Z" />
    </clipPath>
    <clipPath
       id="clipPath68376"
       clipPathUnits="userSpaceOnUse">
      <path
         id="path68374"
         d="m 577.779,309.192 v 85.042 h 65.738 l 10e-4,-85.042" />
    </clipPath>
    <clipPath
       id="clipPath68390"
       clipPathUnits="userSpaceOnUse">
      <path
         id="path68388"
         d="M 204.131,346.403 H 578.584 V 309.192 H 204.131 Z" />
    </clipPath>
    <clipPath
       id="clipPath68432"
       clipPathUnits="userSpaceOnUse">
      <path
         id="path68430"
         d="m 626.872,382.224 c 0.013,0.007 0.02,0.011 0.02,0.011 -0.001,-0.001 -0.009,-0.005 -0.02,-0.011 m -0.231,-0.143 c 0.001,0 0.001,10e-4 0.002,10e-4 -10e-4,0 -10e-4,-10e-4 -0.002,-10e-4 m -0.004,-0.004 c -0.002,-10e-4 -0.004,-0.003 -0.006,-0.004 -10e-4,0 -10e-4,0 -0.002,-10e-4 -0.002,-0.002 -0.005,-0.004 -0.007,-0.006 -10e-4,0 -10e-4,-10e-4 -0.002,-0.002 -0.003,-0.001 -0.006,-0.003 -0.008,-0.005 0,0 0,-0.001 -10e-4,-0.001 -0.019,-0.014 -0.039,-0.03 -0.059,-0.045 -10e-4,-10e-4 -0.002,-0.002 -0.003,-0.003 -10e-4,-10e-4 -0.004,-0.003 -0.006,-0.005 -0.002,-10e-4 -0.003,-0.003 -0.005,-0.004 -10e-4,-10e-4 -0.002,-10e-4 -0.003,-0.002 -0.003,-0.003 -0.005,-0.005 -0.007,-0.007 -10e-4,0 -10e-4,0 -0.002,0 -0.153,-0.129 -0.31,-0.303 -0.375,-0.513 0.083,0.262 0.307,0.469 0.488,0.599 -10e-4,0 -10e-4,0 -0.002,-10e-4 m -0.475,-1.044 c 0,0.002 -0.001,0.004 -0.002,0.006 10e-4,-0.002 0.002,-0.004 0.002,-0.006 m 1.592,-4.455 c -0.069,1.938 -1.176,3.61 -1.571,4.401 0.395,-0.792 1.502,-2.463 1.571,-4.401 m 0.003,-0.198 v 0.01 c 0,-0.003 0,-0.007 0,-0.01 m 0,-0.048 c 0,0.004 0,0.007 0,0.011 0,0.012 0,0.025 0,0.037 0,-0.016 0,-0.032 0,-0.048 m -10e-4,-0.005 c 0,-0.01 0,-0.02 0,-0.03 0,-0.002 0,-0.004 0,-0.006 10e-4,0.014 10e-4,0.027 10e-4,0.041 0,-0.002 0,-0.004 -10e-4,-0.005 m 0,-0.055 c 0,0.001 0,0.002 0,0.003 0,0.006 0,0.011 0,0.016 0,-0.007 0,-0.013 0,-0.019 m -10e-4,-0.022 c 0,-0.006 0,-0.012 0,-0.019 0,-0.009 0,-0.018 -10e-4,-0.027 0,-0.007 0,-0.013 -10e-4,-0.019 0,-0.009 0,-0.018 -0.001,-0.026 0,-0.008 0,-0.015 -10e-4,-0.021 0,-0.009 -10e-4,-0.017 -10e-4,-0.025 -10e-4,-0.008 -10e-4,-0.016 -0.002,-0.024 0,-0.004 0,-0.008 0,-0.012 0.003,0.055 0.006,0.11 0.007,0.165 10e-4,0.01 10e-4,0.02 10e-4,0.03 0,-0.007 -10e-4,-0.014 -10e-4,-0.022 m -0.007,-0.179 c 0,0.002 0,0.004 0,0.006 0,-0.002 0,-0.004 0,-0.006 m -0.001,-0.004 c 0,-0.002 0,-0.003 0,-0.004 0,0.002 0.001,0.005 0.001,0.008 0,-0.002 0,-0.003 -0.001,-0.004 m 0,-0.014 c 0,0.003 0,0.007 0,0.01 0,-0.003 0,-0.007 0,-0.01 m -10e-4,-0.011 c 0,-0.006 -10e-4,-0.012 -10e-4,-0.018 0,0.01 10e-4,0.02 0.002,0.029 -10e-4,-0.003 -10e-4,-0.007 -10e-4,-0.011 m -0.002,-0.024 c 0,0.001 10e-4,0.003 10e-4,0.004 0,0.001 0,0.001 0,0.002 0,-0.002 -10e-4,-0.004 -10e-4,-0.006 M 627.743,376 c 0,0.006 10e-4,0.012 10e-4,0.018 0,-0.006 -10e-4,-0.012 -10e-4,-0.018 m -0.001,-0.019 c 0,0.005 0,0.009 0.001,0.014 0,10e-4 0,0.003 0,0.005 0,-0.007 -0.001,-0.013 -0.001,-0.019 m -10e-4,-0.004 c -10e-4,-0.008 -10e-4,-0.016 -0.002,-0.024 10e-4,0.01 0.002,0.019 0.003,0.028 -10e-4,-10e-4 -10e-4,-0.003 -10e-4,-0.004 m -0.003,-0.043 c 0,0.005 10e-4,0.009 10e-4,0.014 0,0.002 0,0.003 0,0.005 0,-0.006 -10e-4,-0.013 -10e-4,-0.019 m 0,-0.002 c -0.001,-0.009 -0.002,-0.018 -0.003,-0.027 10e-4,0.009 0.002,0.019 0.003,0.029 0,-0.001 0,-0.002 0,-0.002 m -0.006,-0.061 c 10e-4,0.006 10e-4,0.011 0.002,0.017 0,0.004 10e-4,0.008 10e-4,0.011 0,0.002 0,0.004 0,0.006 -10e-4,-0.012 -0.002,-0.023 -0.003,-0.034 m -0.002,-0.018 c 0,0 0,0 0,-0.001 10e-4,0.006 10e-4,0.013 0.002,0.019 -10e-4,-0.006 -10e-4,-0.012 -0.002,-0.018 m 0,-0.004 c 0,0.001 0,0.002 0,0.003 0,-10e-4 0,-0.002 0,-0.003 m -10e-4,-0.005 c 0,-10e-4 0,-0.002 0,-0.003 0,0.003 10e-4,0.006 10e-4,0.008 0,-0.002 -10e-4,-0.003 -10e-4,-0.005 m -0.004,-0.042 c 0,10e-4 10e-4,0.002 10e-4,0.004 10e-4,0.011 0.002,0.023 0.003,0.035 -0.001,-0.013 -0.003,-0.026 -0.004,-0.039 m 0,-0.001 c -10e-4,-0.007 -0.002,-0.013 -0.002,-0.02 0.001,0.007 0.001,0.014 0.002,0.021 0,-0.001 0,-0.001 0,-0.001 m -0.039,-0.29 c 0.014,0.081 0.024,0.164 0.034,0.246 0,10e-4 0,0.002 0,0.003 10e-4,0.007 0.002,0.014 0.003,0.021 -0.01,-0.09 -0.023,-0.18 -0.037,-0.27 m -0.006,-0.04 c 0.003,0.013 0.004,0.026 0.006,0.039 -0.002,-0.013 -0.003,-0.026 -0.006,-0.039 m -0.006,-0.041 c 0,0.009 0.002,0.017 0.003,0.026 -10e-4,-0.009 -0.003,-0.017 -0.003,-0.026 m -0.007,-0.036 c 10e-4,0.006 0.002,0.01 0.003,0.016 -10e-4,-0.006 -0.002,-0.01 -0.003,-0.016 m -0.006,-0.031 v 10e-4 z m -0.087,-0.408 c 0.001,0.006 0.002,0.012 0.003,0.017 -10e-4,-0.005 -0.002,-0.011 -0.003,-0.017 m -0.006,-0.021 c 0,10e-4 0,10e-4 0,0.002 0,-10e-4 0,-10e-4 0,-0.002 m 0,0 v 0 m -0.003,-0.012 c 10e-4,0.004 0.002,0.008 0.003,0.012 -10e-4,-0.004 -0.002,-0.008 -0.003,-0.012 m 0.003,0.012 v 0 m -0.02,-0.077 c 10e-4,0.006 0.003,0.011 0.004,0.015 -10e-4,-0.004 -0.003,-0.009 -0.004,-0.015 m -0.002,-0.011 c 10e-4,0.004 0.002,0.008 0.002,0.011 0,-0.003 -10e-4,-0.007 -0.002,-0.011 m -0.008,-0.029 c 0.002,0.01 0.005,0.019 0.008,0.029 -0.003,-0.01 -0.006,-0.019 -0.008,-0.029 m -0.002,-0.005 c 0.001,0.002 0.001,0.004 0.002,0.005 -10e-4,-0.001 -10e-4,-0.003 -0.002,-0.005 m -0.007,-0.028 c 10e-4,0.003 0.002,0.006 0.002,0.009 0,-0.003 -10e-4,-0.006 -0.002,-0.009 m -0.007,-0.026 c 0,0.002 0,0.003 0,0.005 0,-0.002 0,-0.003 0,-0.005 m -0.006,-0.019 c 0.002,0.006 0.004,0.013 0.006,0.019 -0.002,-0.006 -0.004,-0.013 -0.006,-0.019 m -0.006,-0.023 c 10e-4,0.003 10e-4,0.005 0.002,0.008 -10e-4,-0.003 -10e-4,-0.005 -0.002,-0.008 m -0.005,-0.015 c 10e-4,0.004 0.003,0.009 0.005,0.015 -0.002,-0.006 -0.004,-0.011 -0.005,-0.015 m -0.008,-0.028 c 0.003,0.009 0.006,0.018 0.008,0.028 -0.002,-0.01 -0.005,-0.019 -0.008,-0.028 m -0.003,-0.009 c 10e-4,0.002 0.002,0.005 0.003,0.009 -10e-4,-0.004 -0.002,-0.007 -0.003,-0.009 m -0.005,-0.018 c 0.002,0.006 0.004,0.012 0.005,0.018 -10e-4,-0.006 -0.003,-0.012 -0.005,-0.018 m -0.014,-0.049 c -0.002,-0.004 -0.003,-0.008 -0.004,-0.012 0.006,0.02 0.013,0.041 0.018,0.061 -0.004,-0.016 -0.01,-0.033 -0.014,-0.049 m -0.02,-0.064 c 10e-4,0.003 0.002,0.005 0.003,0.007 0.004,0.016 0.009,0.03 0.013,0.044 0,10e-4 0,10e-4 0,10e-4 -0.005,-0.017 -0.011,-0.034 -0.016,-0.052 m -0.004,-0.011 c 10e-4,0.004 0.003,0.008 0.004,0.011 -0.001,-0.003 -0.003,-0.007 -0.004,-0.011 m -0.006,-0.02 c -0.001,-0.003 -0.002,-0.005 -0.003,-0.009 0.002,0.006 0.004,0.011 0.006,0.017 -10e-4,-0.003 -0.002,-0.006 -0.003,-0.008 m -0.005,-0.016 c 10e-4,0.002 0.002,0.004 0.002,0.007 0,-0.002 -10e-4,-0.005 -0.002,-0.007 m -0.001,-0.004 c 0,10e-4 0.001,0.002 0.001,0.004 -0.001,-0.002 -0.001,-0.003 -0.001,-0.004 m -0.015,-0.046 c 0.002,0.007 0.005,0.014 0.007,0.021 -0.002,-0.007 -0.005,-0.014 -0.007,-0.021 m -0.036,-0.106 c 10e-4,0.002 0.002,0.004 0.003,0.007 -10e-4,-0.003 -0.002,-0.005 -0.003,-0.007 m -0.017,-0.051 c 0,10e-4 0,10e-4 10e-4,0.002 -10e-4,0 -10e-4,-0.001 -10e-4,-0.002 m -0.439,-1.051 c 0.002,0.004 0.004,0.006 0.005,0.01 -10e-4,-0.003 -0.003,-0.006 -0.005,-0.01 m -0.021,-0.044 c 0.002,0.005 0.004,0.008 0.007,0.013 -0.003,-0.005 -0.005,-0.008 -0.007,-0.013 m -0.029,-0.058 c 0.004,0.007 0.008,0.014 0.011,0.021 -0.003,-0.007 -0.007,-0.014 -0.011,-0.021 m -0.019,-0.041 c 0.003,0.008 0.008,0.016 0.011,0.024 -0.003,-0.008 -0.008,-0.016 -0.011,-0.024 m -0.512,-0.965 c 0.145,0.265 0.324,0.587 0.506,0.954 -0.182,-0.368 -0.361,-0.689 -0.506,-0.954 m -0.148,-0.281 c 0,10e-4 10e-4,0.002 10e-4,0.002 0,0 -10e-4,-0.001 -10e-4,-0.002 m -0.003,-0.004 c 10e-4,0.001 0.002,0.003 0.003,0.004 -10e-4,-10e-4 -0.002,-0.003 -0.003,-0.004 m -0.017,-0.034 c 0.002,0.003 0.005,0.008 0.007,0.012 -0.002,-0.004 -0.005,-0.009 -0.007,-0.012 m -0.049,-0.151 c 0.01,0.049 0.027,0.099 0.049,0.151 -0.022,-0.052 -0.039,-0.102 -0.049,-0.151 m -0.003,-0.013 c 10e-4,10e-4 10e-4,0.002 10e-4,0.003 0,-10e-4 0,-0.002 -10e-4,-0.003" />
    </clipPath>
    <clipPath
       id="clipPath68446"
       clipPathUnits="userSpaceOnUse">
      <path
         id="path68444"
         d="m 626.271,381.719 c -0.004,-0.007 -0.01,-0.015 -0.014,-0.022 -10e-4,-0.002 -0.003,-0.003 -0.004,-0.005 -0.001,-0.004 -0.004,-0.006 -0.006,-0.009 -0.003,-0.006 -0.005,-0.01 -0.009,-0.015 -0.001,-0.002 -0.003,-0.004 -0.004,-0.007 -0.002,-0.003 -0.004,-0.007 -0.007,-0.012 -10e-4,-10e-4 -0.002,-0.003 -0.003,-0.005 -0.003,-0.005 -0.007,-0.012 -0.009,-0.017 -10e-4,-0.001 -0.002,-0.003 -0.003,-0.004 -0.003,-0.006 -0.006,-0.012 -0.009,-0.018 -0.004,-0.007 -0.007,-0.014 -0.011,-0.02 0,-10e-4 0,-0.002 0,-0.002 -0.027,-0.057 -0.048,-0.116 -0.06,-0.178 0,-0.002 -10e-4,-0.003 -10e-4,-0.005 v -10e-4 c -10e-4,-0.004 -0.002,-0.008 -0.003,-0.012 -0.004,-0.028 -0.008,-0.057 -0.009,-0.087 v -0.055 c 0,-0.004 0,-0.009 10e-4,-0.013 0,-0.004 0,-0.007 10e-4,-0.011 0,-10e-4 0,-0.002 0,-0.002 0,-10e-4 0,-10e-4 0,-0.002 0,-0.002 0,-0.003 0,-0.005 10e-4,-10e-4 10e-4,-0.002 10e-4,-0.003 0,0 0,-10e-4 0,-0.002 0,-0.002 0,-0.003 0.001,-0.005 0,-10e-4 0,-10e-4 0,-0.002 0,-10e-4 0,-10e-4 0,-0.002 0,-10e-4 0,-0.003 10e-4,-0.005 v -0.002 c 0,-10e-4 0,-10e-4 0,-10e-4 0,-0.002 10e-4,-0.004 10e-4,-0.006 v -0.001 c 0,-10e-4 0,-10e-4 0,-0.002 10e-4,0 10e-4,-0.002 10e-4,-0.004 0,-0.007 10e-4,-0.015 0.003,-0.022 10e-4,-0.004 10e-4,-0.007 0.002,-0.01 v -10e-4 c 0.004,-0.021 0.009,-0.042 0.015,-0.063 0.004,-0.013 0.007,-0.025 0.012,-0.038 10e-4,0 10e-4,-0.001 10e-4,-0.001 v -10e-4 c 0,-10e-4 0,-10e-4 0,-10e-4 10e-4,-0.001 10e-4,-0.001 10e-4,-0.001 0.002,-0.004 0.002,-0.01 0.004,-0.014 10e-4,-0.002 0.002,-0.004 0.003,-0.005 10e-4,-0.003 10e-4,-0.005 0.002,-0.007 0.002,-0.004 0.004,-0.01 0.006,-0.014 0,-0.001 0.001,-0.002 0.001,-0.003 0.003,-0.006 0.005,-0.012 0.007,-0.017 0.408,-0.816 1.574,-2.572 1.574,-4.589 v -0.01 h 3.761 v 0.01 c 0,0.239 -0.238,0.53 -0.238,0.53 l -4.388,5.315 c -0.017,-0.009 -0.4,-0.199 -0.621,-0.516 m 1.308,-6.739 c -0.003,-0.014 -0.006,-0.027 -0.01,-0.04 0,-0.002 -10e-4,-0.004 -10e-4,-0.006 -0.003,-0.012 -0.006,-0.024 -0.01,-0.036 0,-0.002 -10e-4,-0.005 -10e-4,-0.008 -0.003,-0.01 -0.006,-0.022 -0.009,-0.033 0,-0.003 -10e-4,-0.007 -0.002,-0.011 -0.003,-0.01 -0.006,-0.019 -0.008,-0.029 -0.002,-0.005 -0.003,-0.01 -0.005,-0.015 -0.002,-0.008 -0.003,-0.015 -0.006,-0.023 -0.002,-0.007 -0.004,-0.014 -0.005,-0.021 -0.002,-0.006 -0.004,-0.013 -0.006,-0.019 -0.003,-0.008 -0.004,-0.016 -0.006,-0.023 -0.002,-0.006 -0.004,-0.011 -0.005,-0.015 -0.002,-0.01 -0.005,-0.019 -0.008,-0.028 -10e-4,-0.004 -0.002,-0.007 -0.003,-0.009 -0.36,-1.231 -0.995,-2.242 -1.29,-2.822 0,-10e-4 -10e-4,-0.002 -10e-4,-0.003 -0.002,-0.002 -0.003,-0.005 -0.004,-0.007 -0.006,-0.011 -0.01,-0.021 -0.016,-0.031 -0.002,-0.006 -0.004,-0.01 -0.006,-0.016 -0.002,-0.003 -0.004,-0.008 -0.006,-0.012 0,0 0,-0.001 0,-0.002 -0.023,-0.058 -0.037,-0.114 -0.045,-0.169 0,-10e-4 0,-10e-4 0,-0.002 -10e-4,-0.004 -0.002,-0.007 -0.002,-0.011 0,-0.002 0,-0.002 -10e-4,-0.004 0,-0.004 0,-0.007 -0.001,-0.01 0,-10e-4 0,-0.002 0,-0.002 0,-10e-4 0,-0.002 0,-0.002 0,-0.001 0,-0.002 0,-0.003 -10e-4,-10e-4 -10e-4,-0.003 -10e-4,-0.005 0,-10e-4 0,-0.002 0,-0.003 0,-0.002 -10e-4,-0.004 -10e-4,-0.006 0,-0.007 -10e-4,-0.013 -10e-4,-0.02 v -10e-4 c 0.002,0.028 0.006,0.057 0.011,0.086 0,10e-4 0,0.002 0,0.003 10e-4,0.002 10e-4,0.004 0.002,0.006 0,0.003 0.001,0.004 0.001,0.006 0,10e-4 0,0.002 0,0.002 10e-4,0.003 0.002,0.005 0.002,0.008 v 10e-4 c 0.01,0.048 0.027,0.096 0.048,0.147 0.399,0.798 1.521,2.492 1.572,4.45 -0.012,-0.436 -0.077,-0.859 -0.176,-1.262" />
    </clipPath>
    <clipPath
       id="clipPath68460"
       clipPathUnits="userSpaceOnUse">
      <path
         id="path68458"
         d="m 626.118,371.463 10e-4,0.034 h 10e-4 l -10e-4,-0.034" />
    </clipPath>
    <clipPath
       id="clipPath68468"
       clipPathUnits="userSpaceOnUse">
      <path
         id="path68466"
         d="m 626.119,371.497 h 10e-4 v -0.034 h -10e-4 z" />
    </clipPath>
    <clipPath
       id="clipPath68476"
       clipPathUnits="userSpaceOnUse">
      <path
         id="path68474"
         d="m 626.119,371.487 c 0,-0.008 0,-0.017 0,-0.024 v 0.01 c 0,0.007 0,0.015 0,0.024" />
    </clipPath>
    <clipPath
       id="clipPath68488"
       clipPathUnits="userSpaceOnUse">
      <path
         id="path68486"
         d="m 626.119,371.507 v -0.01 c 0,-0.009 0,-0.017 0,-0.024 v 0.06 c 0,-0.009 0,-0.018 0,-0.026" />
    </clipPath>
    <clipPath
       id="clipPath68502"
       clipPathUnits="userSpaceOnUse">
      <path
         id="path68500"
         d="m 627.755,376.242 c 10e-4,0.046 0.002,0.092 0.002,0.138 0,-0.046 -10e-4,-0.092 -0.002,-0.138" />
    </clipPath>
    <clipPath
       id="clipPath68516"
       clipPathUnits="userSpaceOnUse">
      <path
         id="path68514"
         d="m 627.757,376.345 c 0,0.012 0,0.023 0,0.035 0,-0.012 0,-0.023 0,-0.035 m 0,0 v 0 m -0.002,-0.096 c 10e-4,0.032 0.002,0.063 0.002,0.096 -10e-4,-0.032 -10e-4,-0.064 -0.002,-0.096 m 0,0 v 0 m 0,0 c 0,-0.003 0,-0.007 0,-0.009 0,0 0,10e-4 0,0.002 0,0.002 0,0.004 0,0.007 m 0,-0.009 v 0 m 0,-0.022 c 0,0.007 0,0.014 0,0.022 0,-0.008 0,-0.015 0,-0.022 m 0,0.022 v 0 m -10e-4,-0.045 c 10e-4,0.008 10e-4,0.015 10e-4,0.023 0,-0.008 0,-0.015 -10e-4,-0.023 m -10e-4,-0.03 c 0,0.01 10e-4,0.02 10e-4,0.03 0,-0.01 -10e-4,-0.02 -10e-4,-0.03 m -0.001,-0.016 c 0.001,0.005 0.001,0.01 0.001,0.016 0,-0.006 0,-0.011 -0.001,-0.016 m -0.002,-0.036 c 10e-4,0.012 0.002,0.024 0.002,0.036 0,-0.012 -10e-4,-0.024 -0.002,-0.036 m 0,0 v 0 m 0,0 c 0,-0.003 0,-0.006 0,-0.009 0,0.003 0,0.006 0,0.009 m 0,-0.009 v 0 m -0.002,-0.038 c 0,0.012 10e-4,0.025 0.002,0.038 -10e-4,-0.013 -0.002,-0.026 -0.002,-0.038 m 0.002,0.038 v 0 m -0.003,-0.045 c 0,10e-4 0,0.004 0.001,0.007 -0.001,-0.003 -0.001,-0.006 -0.001,-0.007 m -1.564,-4.267 c -0.019,-0.044 -0.033,-0.087 -0.044,-0.129 0.011,0.042 0.025,0.085 0.044,0.128 0.386,0.774 1.452,2.387 1.564,4.268 -0.113,-1.881 -1.178,-3.494 -1.564,-4.267 m -0.048,-0.147 c 0,0.006 0.002,0.012 0.004,0.018 -0.002,-0.006 -0.004,-0.012 -0.004,-0.018 m -0.002,-0.008 c 10e-4,0.002 0.002,0.004 0.002,0.007 0,-0.003 -10e-4,-0.005 -0.002,-0.007 m -0.001,-0.009 c 0,0.003 0.001,0.004 0.001,0.006 0,-0.002 -0.001,-0.003 -0.001,-0.006 m -0.002,-0.009 c 0,10e-4 0,0.002 0,0.003 0,-0.001 0,-0.002 0,-0.003" />
    </clipPath>
    <clipPath
       id="clipPath68530"
       clipPathUnits="userSpaceOnUse">
      <path
         id="path68528"
         d="m 626.101,370.537 0.023,0.9 0.791,-0.02 -0.024,-0.901" />
    </clipPath>
    <clipPath
       id="clipPath68538"
       clipPathUnits="userSpaceOnUse">
      <path
         id="path68536"
         d="m 626.124,371.417 c 0.064,-0.54 0.768,-0.881 0.768,-0.881 -0.025,0.013 -0.704,0.351 -0.768,0.881" />
    </clipPath>
    <clipPath
       id="clipPath68550"
       clipPathUnits="userSpaceOnUse">
      <path
         id="path68548"
         d="m 631.28,375.86 -4.388,-5.313 c 0,0 -0.679,0.329 -0.765,0.851 0,0 0,10e-4 0,0.002 0,0.001 -10e-4,0.003 -10e-4,0.005 0,0.001 0,0.003 0,0.005 -0.003,0.021 -0.005,0.042 -0.007,0.063 v -0.004 c 0,-0.008 10e-4,-0.016 0.002,-0.024 10e-4,-0.009 0.002,-0.019 0.003,-0.028 0.028,-0.235 0.177,-0.432 0.336,-0.579 0.002,-0.002 0.003,-0.003 0.005,-0.005 10e-4,-0.001 0.003,-0.002 0.003,-0.003 0.199,-0.182 0.412,-0.288 0.424,-0.294 l 4.388,5.313 c 0.007,0.009 0.238,0.296 0.238,0.531 -0.007,-0.238 -0.238,-0.52 -0.238,-0.52" />
    </clipPath>
    <clipPath
       id="clipPath68564"
       clipPathUnits="userSpaceOnUse">
      <path
         id="path68562"
         d="m 626.127,371.4 c 0,0.001 -10e-4,0.003 -10e-4,0.005 0,-0.002 10e-4,-0.004 10e-4,-0.005 m 0.765,-0.853 c -0.021,0.011 -0.679,0.337 -0.765,0.851 0.086,-0.522 0.765,-0.851 0.765,-0.851" />
    </clipPath>
    <clipPath
       id="clipPath68578"
       clipPathUnits="userSpaceOnUse">
      <path
         id="path68576"
         d="m 627.757,376.38 c 0,-2.017 -1.166,-3.771 -1.574,-4.589 -0.005,-0.012 -0.01,-0.025 -0.014,-0.036 -0.016,-0.041 -0.028,-0.081 -0.036,-0.121 0,-0.002 -0.001,-0.003 -0.001,-0.006 0,-10e-4 -10e-4,-0.002 -10e-4,-0.002 0,-0.002 -10e-4,-0.004 -10e-4,-0.005 0,-10e-4 0,-10e-4 0,-0.002 -0.003,-0.014 -0.004,-0.028 -0.006,-0.042 0,-10e-4 -10e-4,-0.003 -10e-4,-0.004 0,-0.002 0,-0.005 -0.001,-0.006 -10e-4,-0.014 -0.002,-0.028 -0.003,-0.043 v -0.051 c 0.002,-0.021 0.004,-0.042 0.007,-0.063 0,-0.002 0,-0.004 0,-0.005 0,-0.002 10e-4,-0.004 10e-4,-0.005 0,-10e-4 0,-0.002 0,-0.002 0.086,-0.514 0.744,-0.84 0.765,-0.851 l 4.388,5.313 c 0,0 0.231,0.282 0.238,0.52" />
    </clipPath>
    <clipPath
       id="clipPath68596"
       clipPathUnits="userSpaceOnUse">
      <path
         id="path68594"
         d="m 419.24,318.117 h 12.042 l 0.498,-0.308 h -13.507 z m -0.967,-0.308 h 13.507 l 0.223,-0.138 h -14.245 z m -0.515,-0.138 h 14.245 l 0.182,-0.141 h -14.953 z m 8.826,-0.141 h 5.601 l 0.101,-0.078 h -3.949 z m -9.352,0 h 9.352 l -1.757,-0.138 h -8.112 z m -0.517,-0.138 h 8.112 l -0.266,-0.046 h -8.015 z m 11.622,0.06 h 3.949 l 0.383,-0.296 h -2.849 z m 1.483,-0.296 h 2.849 l 0.02,-0.016 h -2.825 z m -13.274,0.19 h 8.015 l -1.359,-0.233 h -7.938 z m -1.282,-0.233 h 7.938 l -0.504,-0.11 h -8.04 z m 14.6,0.027 h 2.825 l 0.447,-0.428 h -2.093 z m -15.206,-0.137 h 8.04 l -1.81,-0.395 h -10.003 z m 16.385,-0.291 h 2.093 l 0.201,-0.193 h -1.933 z m -20.158,-0.104 h 10.003 l -0.593,-0.129 h -12.381 z m -2.971,-0.129 h 12.381 l -0.049,-0.011 h -13.535 z m -1.203,-0.011 h 13.535 l -0.731,-0.159 h -13.022 z m 24.693,0.051 h 1.933 l 0.277,-0.328 h -1.595 z m -24.911,-0.21 h 13.022 l -2.479,-0.442 h -11.144 z m 25.526,-0.118 h 1.595 l 0.327,-0.388 h -1.38 z m 0.542,-0.388 h 1.38 l 0.033,-0.044 h -1.351 z m 0.062,-0.044 h 1.351 l -0.029,-0.096 h -1.188 z m -26.731,0.108 h 11.144 l -3.178,-0.411 h -8.526 z m 26.865,-0.204 h 1.188 l -0.139,-0.464 h -0.535 z m -27.425,-0.207 h 8.526 l -4.088,-0.339 h -4.899 z m -0.461,-0.339 h 4.899 l -5.203,-0.223 z m 28.4,0.082 h 0.535 l -0.137,-0.457" />
    </clipPath>
    <linearGradient
       id="linearGradient68612"
       gradientUnits="userSpaceOnUse"
       y2="314.73001"
       x2="433.418"
       y1="314.73001"
       x1="404.54999">
      <stop
         id="stop68608"
         offset="0"
         style="stop-opacity:1;stop-color:#f3f4f4" />
      <stop
         id="stop68610"
         offset="1"
         style="stop-opacity:1;stop-color:#a7a7a6" />
    </linearGradient>
    <clipPath
       id="clipPath68622"
       clipPathUnits="userSpaceOnUse">
      <path
         id="path68620"
         d="m 419.24,318.117 h 12.042 l 0.498,-0.308 h -13.507 z m -0.967,-0.308 h 13.507 l 0.223,-0.138 h -14.245 z m -0.515,-0.138 h 14.245 l 0.182,-0.141 h -14.953 z m 8.826,-0.141 h 5.601 l 0.101,-0.078 h -3.949 z m -9.352,0 h 9.352 l -1.757,-0.138 h -8.112 z m -0.517,-0.138 h 8.112 l -0.266,-0.046 h -8.015 z m 11.622,0.06 h 3.949 l 0.383,-0.296 h -2.849 z m 1.483,-0.296 h 2.849 l 0.02,-0.016 h -2.825 z m -13.274,0.19 h 8.015 l -1.359,-0.233 h -7.938 z m -1.282,-0.233 h 7.938 l -0.504,-0.11 h -8.04 z m 14.6,0.027 h 2.825 l 0.447,-0.428 h -2.093 z m -15.206,-0.137 h 8.04 l -1.81,-0.395 h -10.003 z m 16.385,-0.291 h 2.093 l 0.201,-0.193 h -1.933 z m -20.158,-0.104 h 10.003 l -0.593,-0.129 h -12.381 z m -2.971,-0.129 h 12.381 l -0.049,-0.011 h -13.535 z m -1.203,-0.011 h 13.535 l -0.731,-0.159 h -13.022 z m 24.693,0.051 h 1.933 l 0.277,-0.328 h -1.595 z m -24.911,-0.21 h 13.022 l -2.479,-0.442 h -11.144 z m 25.526,-0.118 h 1.595 l 0.327,-0.388 h -1.38 z m 0.542,-0.388 h 1.38 l 0.033,-0.044 h -1.351 z m 0.062,-0.044 h 1.351 l -0.029,-0.096 h -1.188 z m -26.731,0.108 h 11.144 l -3.178,-0.411 h -8.526 z m 26.865,-0.204 h 1.188 l -0.139,-0.464 h -0.535 z m -27.425,-0.207 h 8.526 l -4.088,-0.339 h -4.899 z m -0.461,-0.339 h 4.899 l -5.203,-0.223 z m 28.4,0.082 h 0.535 l -0.137,-0.457" />
    </clipPath>
    <linearGradient
       id="linearGradient68638"
       gradientUnits="userSpaceOnUse"
       y2="314.73001"
       x2="434.11899"
       y1="314.73001"
       x1="433.418">
      <stop
         id="stop68634"
         offset="0"
         style="stop-opacity:1;stop-color:#a8a6a6" />
      <stop
         id="stop68636"
         offset="1"
         style="stop-opacity:1;stop-color:#a6a5a4" />
    </linearGradient>
    <clipPath
       id="clipPath68648"
       clipPathUnits="userSpaceOnUse">
      <path
         id="path68646"
         d="m 403.848,314.786 c 0.417,0.407 11.185,-0.383 18.372,1.822 4.256,1.304 5.953,0.77 6.274,0.719 3.545,-0.555 5.065,-2.585 5.065,-2.585 0,0 0.989,1.29 2.724,1.286 1.711,-0.004 2.734,-1.242 2.734,-1.242 0,0 2.188,2.655 6.448,2.655 4.261,0 10.504,-3.664 22.876,-2.694 0,0 -0.7,28.77 -31.995,28.867 -0.052,0 -0.11,0 -0.162,0 -31.623,0.003 -31.835,-28.337 -32.336,-28.828" />
    </clipPath>
    <clipPath
       id="clipPath68664"
       clipPathUnits="userSpaceOnUse">
      <path
         id="path68662"
         d="m 404.828,320.416 29.544,-1.6 -0.306,-5.657 -29.545,1.6" />
    </clipPath>
    <clipPath
       id="clipPath68672"
       clipPathUnits="userSpaceOnUse">
      <path
         id="path68670"
         d="m 419.341,318.828 c -0.259,-0.066 -0.511,-0.132 -0.752,-0.198 -4.359,-1.184 -11.62,-0.724 -11.62,-0.724 l -2.227,-1.456 c 8.292,-0.228 12.599,0.236 15.578,0.702 2.606,0.405 4.197,0.812 6.553,0.756 5.047,-0.123 6.918,-3.161 6.918,-3.161 l 0.361,1 -0.03,0.045 c -0.986,1.459 -2.242,2.425 -3.636,3.036" />
    </clipPath>
    <clipPath
       id="clipPath69396"
       clipPathUnits="userSpaceOnUse">
      <path
         id="path69394"
         d="m 405.083,321.378 29.495,-2.581 -0.572,-6.537 -29.495,2.581" />
    </clipPath>
    <clipPath
       id="clipPath69404"
       clipPathUnits="userSpaceOnUse">
      <path
         id="path69402"
         d="m 416.597,318.828 c -3.705,-0.416 -8.116,-0.092 -9.208,0 h -0.29 l -2.239,-1.36 c 8.744,-0.529 13.071,-0.139 16.084,0.251 2.336,0.301 3.882,0.603 6.085,0.478 5.039,-0.289 6.804,-3.387 6.804,-3.387 l 0.396,0.987 -0.028,0.046 c -0.859,1.368 -1.959,2.329 -3.195,2.985" />
    </clipPath>
    <clipPath
       id="clipPath69976"
       clipPathUnits="userSpaceOnUse">
      <path
         id="path69974"
         d="m 405.719,324.119 29.332,-4.331 -1.358,-9.201 -29.333,4.332" />
    </clipPath>
    <clipPath
       id="clipPath69984"
       clipPathUnits="userSpaceOnUse">
      <path
         id="path69982"
         d="m 406.484,319.896 -1.389,-0.778 c 9.296,-1.098 13.618,-0.86 16.679,-0.624 2.025,0.157 3.499,0.314 5.496,0.085 5.014,-0.576 6.592,-3.769 6.592,-3.769 l 0.454,0.963 -0.025,0.047 c -1.147,2.091 -2.793,3.354 -4.637,4.076" />
    </clipPath>
    <clipPath
       id="clipPath70568"
       clipPathUnits="userSpaceOnUse">
      <path
         id="path70566"
         d="m 406.79,327.787 29.053,-6.335 -2.76,-12.66 -29.053,6.335" />
    </clipPath>
    <clipPath
       id="clipPath70576"
       clipPathUnits="userSpaceOnUse">
      <path
         id="path70574"
         d="m 406.896,321.675 -1.418,-0.636 c 9.688,-1.811 13.974,-1.773 17.078,-1.736 1.791,0.022 3.19,0.044 5.006,-0.289 4.962,-0.911 6.313,-4.203 6.313,-4.203 l 0.52,0.93 -0.022,0.05 c -2.755,5.977 -10.36,5.338 -14.87,5.232 -1.539,-0.036 -4.054,0.295 -6.268,0.652" />
    </clipPath>
    <clipPath
       id="clipPath71160"
       clipPathUnits="userSpaceOnUse">
      <path
         id="path71158"
         d="m 403.848,314.786 c 0.417,0.407 11.185,-0.383 18.372,1.822 4.256,1.304 5.953,0.77 6.274,0.719 3.545,-0.555 5.065,-2.585 5.065,-2.585 0,0 0.989,1.29 2.724,1.286 1.711,-0.004 2.734,-1.242 2.734,-1.242 0,0 2.188,2.655 6.448,2.655 4.261,0 10.504,-3.664 22.876,-2.694 0,0 -0.7,28.77 -31.995,28.867 -0.052,0 -0.11,0 -0.162,0 -31.623,0.003 -31.835,-28.337 -32.336,-28.828" />
    </clipPath>
    <clipPath
       id="clipPath71172"
       clipPathUnits="userSpaceOnUse">
      <path
         id="path71170"
         d="m 407.749,329.9 28.695,-7.688 -3.898,-14.55 -28.695,7.689" />
    </clipPath>
    <clipPath
       id="clipPath71180"
       clipPathUnits="userSpaceOnUse">
      <path
         id="path71178"
         d="m 406.843,322.742 -1.011,-0.398 c 15.126,-3.554 17.049,-1.898 21.963,-3.036 4.913,-1.139 6.105,-4.488 6.105,-4.488 l 0.564,0.905 -0.02,0.05 c -2.466,6.097 -10.093,5.808 -14.603,5.91 -1.672,0.038 -4.475,0.561 -6.793,1.057" />
    </clipPath>
    <clipPath
       id="clipPath71764"
       clipPathUnits="userSpaceOnUse">
      <path
         id="path71762"
         d="m 403.848,314.786 c 0.417,0.407 11.185,-0.383 18.372,1.822 4.256,1.304 5.953,0.77 6.274,0.719 3.545,-0.555 5.065,-2.585 5.065,-2.585 0,0 0.989,1.29 2.724,1.286 1.711,-0.004 2.734,-1.242 2.734,-1.242 0,0 2.188,2.655 6.448,2.655 4.261,0 10.504,-3.664 22.876,-2.694 0,0 -0.7,28.77 -31.995,28.867 -0.052,0 -0.11,0 -0.162,0 -31.623,0.003 -31.835,-28.337 -32.336,-28.828" />
    </clipPath>
    <clipPath
       id="clipPath71776"
       clipPathUnits="userSpaceOnUse">
      <path
         id="path71774"
         d="m 409.513,333.191 28.039,-9.709 -6.005,-17.341 -28.039,9.709" />
    </clipPath>
    <clipPath
       id="clipPath71784"
       clipPathUnits="userSpaceOnUse">
      <path
         id="path71782"
         d="m 407.324,324.521 -0.813,-0.249 v -0.027 c 14.792,-4.576 16.83,-3.062 21.645,-4.536 4.818,-1.475 5.766,-4.899 5.766,-4.899 l 0.627,0.864 -0.016,0.051 c -2.02,6.252 -9.628,6.873 -14.139,6.907 -2.861,0.021 -6.258,1.099 -8.369,1.889" />
    </clipPath>
    <clipPath
       id="clipPath72368"
       clipPathUnits="userSpaceOnUse">
      <path
         id="path72366"
         d="m 403.848,314.786 c 0.417,0.407 11.185,-0.383 18.372,1.822 4.256,1.304 5.953,0.77 6.274,0.719 3.545,-0.555 5.065,-2.585 5.065,-2.585 0,0 0.989,1.29 2.724,1.286 1.711,-0.004 2.734,-1.242 2.734,-1.242 0,0 2.188,2.655 6.448,2.655 4.261,0 10.504,-3.664 22.876,-2.694 0,0 -0.7,28.77 -31.995,28.867 -0.052,0 -0.11,0 -0.162,0 -31.623,0.003 -31.835,-28.337 -32.336,-28.828" />
    </clipPath>
    <clipPath
       id="clipPath72380"
       clipPathUnits="userSpaceOnUse">
      <path
         id="path72378"
         d="m 412.028,335.561 26.625,-11.302 -8.051,-18.968 -26.626,11.302" />
    </clipPath>
    <clipPath
       id="clipPath72388"
       clipPathUnits="userSpaceOnUse">
      <path
         id="path72386"
         d="m 407.946,325.944 c 13.868,-5.29 16.016,-3.986 20.647,-5.757 4.701,-1.799 5.403,-5.279 5.403,-5.279 l 0.688,0.82 -0.013,0.051 c -1.571,6.375 -9.117,7.511 -13.615,7.851 -2.862,0.216 -6.592,1.444 -8.936,2.314" />
    </clipPath>
    <clipPath
       id="clipPath72972"
       clipPathUnits="userSpaceOnUse">
      <path
         id="path72970"
         d="m 403.848,314.786 c 0.417,0.407 11.185,-0.383 18.372,1.822 4.256,1.304 5.953,0.77 6.274,0.719 3.545,-0.555 5.065,-2.585 5.065,-2.585 0,0 0.989,1.29 2.724,1.286 1.711,-0.004 2.734,-1.242 2.734,-1.242 0,0 2.188,2.655 6.448,2.655 4.261,0 10.504,-3.664 22.876,-2.694 0,0 -0.7,28.77 -31.995,28.867 -0.052,0 -0.11,0 -0.162,0 -31.623,0.003 -31.835,-28.337 -32.336,-28.828" />
    </clipPath>
    <clipPath
       id="clipPath72984"
       clipPathUnits="userSpaceOnUse">
      <path
         id="path72982"
         d="m 413.511,337.14 26.063,-12.32 -9.423,-19.934 -26.063,12.32" />
    </clipPath>
    <clipPath
       id="clipPath72992"
       clipPathUnits="userSpaceOnUse">
      <path
         id="path72990"
         d="m 408.724,327.011 c 13.612,-5.813 15.801,-4.595 20.337,-6.537 4.603,-1.97 5.161,-5.459 5.161,-5.459 l 0.717,0.789 -0.01,0.052 c -1.275,6.406 -8.764,7.822 -13.223,8.333 -3.017,0.346 -6.964,1.868 -9.213,2.822" />
    </clipPath>
    <clipPath
       id="clipPath73576"
       clipPathUnits="userSpaceOnUse">
      <path
         id="path73574"
         d="m 403.848,314.786 c 0.417,0.407 11.185,-0.383 18.372,1.822 4.256,1.304 5.953,0.77 6.274,0.719 3.545,-0.555 5.065,-2.585 5.065,-2.585 0,0 0.989,1.29 2.724,1.286 1.711,-0.004 2.734,-1.242 2.734,-1.242 0,0 2.188,2.655 6.448,2.655 4.261,0 10.504,-3.664 22.876,-2.694 0,0 -0.7,28.77 -31.995,28.867 -0.052,0 -0.11,0 -0.162,0 -31.623,0.003 -31.835,-28.337 -32.336,-28.828" />
    </clipPath>
    <clipPath
       id="clipPath73588"
       clipPathUnits="userSpaceOnUse">
      <path
         id="path73586"
         d="m 415.616,337.959 24.751,-12.94 -10.524,-20.131 -24.751,12.939" />
    </clipPath>
    <clipPath
       id="clipPath73596"
       clipPathUnits="userSpaceOnUse">
      <path
         id="path73594"
         d="m 410.265,327.723 c 12.679,-5.939 14.907,-4.891 19.265,-6.961 4.505,-2.142 4.918,-5.639 4.918,-5.639 l 0.746,0.758 -0.008,0.052 c -1.022,6.428 -8.409,8.131 -12.831,8.815 -2.81,0.434 -6.395,1.934 -8.644,2.975" />
    </clipPath>
    <clipPath
       id="clipPath74180"
       clipPathUnits="userSpaceOnUse">
      <path
         id="path74178"
         d="m 403.848,314.786 c 0.417,0.407 11.185,-0.383 18.372,1.822 4.256,1.304 5.953,0.77 6.274,0.719 3.545,-0.555 5.065,-2.585 5.065,-2.585 0,0 0.989,1.29 2.724,1.286 1.711,-0.004 2.734,-1.242 2.734,-1.242 0,0 2.188,2.655 6.448,2.655 4.261,0 10.504,-3.664 22.876,-2.694 0,0 -0.7,28.77 -31.995,28.867 -0.052,0 -0.11,0 -0.162,0 -31.623,0.003 -31.835,-28.337 -32.336,-28.828" />
    </clipPath>
    <clipPath
       id="clipPath74192"
       clipPathUnits="userSpaceOnUse">
      <path
         id="path74190"
         d="M 417.064,339.362 441.309,325.421 429.37,304.659 405.126,318.6" />
    </clipPath>
    <clipPath
       id="clipPath74200"
       clipPathUnits="userSpaceOnUse">
      <path
         id="path74198"
         d="m 410.986,328.79 c 12.476,-6.468 14.741,-5.5 19.013,-7.741 4.406,-2.314 4.675,-5.818 4.675,-5.818 l 0.776,0.726 -0.006,0.053 c -0.739,6.454 -8.057,8.442 -12.44,9.297 -2.935,0.572 -6.681,2.36 -8.845,3.483" />
    </clipPath>
    <clipPath
       id="clipPath74784"
       clipPathUnits="userSpaceOnUse">
      <path
         id="path74782"
         d="m 403.848,314.786 c 0.417,0.407 11.185,-0.383 18.372,1.822 4.256,1.304 5.953,0.77 6.274,0.719 3.545,-0.555 5.065,-2.585 5.065,-2.585 0,0 0.989,1.29 2.724,1.286 1.711,-0.004 2.734,-1.242 2.734,-1.242 0,0 2.188,2.655 6.448,2.655 4.261,0 10.504,-3.664 22.876,-2.694 0,0 -0.7,28.77 -31.995,28.867 -0.052,0 -0.11,0 -0.162,0 -31.623,0.003 -31.835,-28.337 -32.336,-28.828" />
    </clipPath>
    <clipPath
       id="clipPath74796"
       clipPathUnits="userSpaceOnUse">
      <path
         id="path74794"
         d="m 418.531,340.673 23.721,-14.937 -13.358,-21.212 -23.72,14.938" />
    </clipPath>
    <clipPath
       id="clipPath74804"
       clipPathUnits="userSpaceOnUse">
      <path
         id="path74802"
         d="m 411.721,329.859 c 12.258,-6.996 14.563,-6.11 18.746,-8.523 4.308,-2.485 4.433,-5.997 4.433,-5.997 l 0.805,0.695 -0.004,0.053 c -0.509,6.475 -7.704,8.752 -12.048,9.778 -3.044,0.72 -6.92,2.804 -8.978,3.994" />
    </clipPath>
    <clipPath
       id="clipPath75388"
       clipPathUnits="userSpaceOnUse">
      <path
         id="path75386"
         d="m 403.848,314.786 c 0.417,0.407 11.185,-0.383 18.372,1.822 4.256,1.304 5.953,0.77 6.274,0.719 3.545,-0.555 5.065,-2.585 5.065,-2.585 0,0 0.989,1.29 2.724,1.286 1.711,-0.004 2.734,-1.242 2.734,-1.242 0,0 2.188,2.655 6.448,2.655 4.261,0 10.504,-3.664 22.876,-2.694 0,0 -0.7,28.77 -31.995,28.867 -0.052,0 -0.11,0 -0.162,0 -31.623,0.003 -31.835,-28.337 -32.336,-28.828" />
    </clipPath>
    <clipPath
       id="clipPath75400"
       clipPathUnits="userSpaceOnUse">
      <path
         id="path75398"
         d="m 420.003,341.892 23.183,-15.933 -14.763,-21.48 -23.183,15.933" />
    </clipPath>
    <clipPath
       id="clipPath75408"
       clipPathUnits="userSpaceOnUse">
      <path
         id="path75406"
         d="m 412.466,330.926 c 12.031,-7.522 14.376,-6.72 18.47,-9.303 4.209,-2.657 4.19,-6.177 4.19,-6.177 l 0.834,0.664 -0.002,0.053 c -0.202,6.503 -7.35,9.062 -11.656,10.261 -3.141,0.875 -7.123,3.266 -9.059,4.502" />
    </clipPath>
    <clipPath
       id="clipPath75992"
       clipPathUnits="userSpaceOnUse">
      <path
         id="path75990"
         d="m 403.848,314.786 c 0.417,0.407 11.185,-0.383 18.372,1.822 4.256,1.304 5.953,0.77 6.274,0.719 3.545,-0.555 5.065,-2.585 5.065,-2.585 0,0 0.989,1.29 2.724,1.286 1.711,-0.004 2.734,-1.242 2.734,-1.242 0,0 2.188,2.655 6.448,2.655 4.261,0 10.504,-3.664 22.876,-2.694 0,0 -0.7,28.77 -31.995,28.867 -0.052,0 -0.11,0 -0.162,0 -31.623,0.003 -31.835,-28.337 -32.336,-28.828" />
    </clipPath>
    <clipPath
       id="clipPath76004"
       clipPathUnits="userSpaceOnUse">
      <path
         id="path76002"
         d="m 421.492,343.047 22.66,-16.952 -16.154,-21.594 -22.66,16.952" />
    </clipPath>
    <clipPath
       id="clipPath76012"
       clipPathUnits="userSpaceOnUse">
      <path
         id="path76010"
         d="m 413.223,331.994 c 11.794,-8.048 14.178,-7.33 18.181,-10.084 4.111,-2.829 3.948,-6.356 3.948,-6.356 l 0.863,0.634 0.001,0.052 c 0.051,6.527 -6.998,9.373 -11.265,10.743 -3.229,1.037 -7.3,3.746 -9.101,5.011" />
    </clipPath>
    <clipPath
       id="clipPath76596"
       clipPathUnits="userSpaceOnUse">
      <path
         id="path76594"
         d="m 403.848,314.786 c 0.417,0.407 11.185,-0.383 18.372,1.822 4.256,1.304 5.953,0.77 6.274,0.719 3.545,-0.555 5.065,-2.585 5.065,-2.585 0,0 0.989,1.29 2.724,1.286 1.711,-0.004 2.734,-1.242 2.734,-1.242 0,0 2.188,2.655 6.448,2.655 4.261,0 10.504,-3.664 22.876,-2.694 0,0 -0.7,28.77 -31.995,28.867 -0.052,0 -0.11,0 -0.162,0 -31.623,0.003 -31.835,-28.337 -32.336,-28.828" />
    </clipPath>
    <clipPath
       id="clipPath76608"
       clipPathUnits="userSpaceOnUse">
      <path
         id="path76606"
         d="m 423.045,344.206 22.23,-18.066 -17.573,-21.624 -22.23,18.066" />
    </clipPath>
    <clipPath
       id="clipPath76616"
       clipPathUnits="userSpaceOnUse">
      <path
         id="path76614"
         d="m 413.987,333.06 c 11.55,-8.571 13.974,-7.938 17.886,-10.863 4.012,-3.001 3.706,-6.535 3.706,-6.535 l 0.892,0.602 0.002,0.053 c 0.287,6.551 -6.644,9.683 -10.871,11.225 -3.311,1.208 -7.453,4.246 -9.109,5.518" />
    </clipPath>
    <clipPath
       id="clipPath77200"
       clipPathUnits="userSpaceOnUse">
      <path
         id="path77198"
         d="m 403.848,314.786 c 0.417,0.407 11.185,-0.383 18.372,1.822 4.256,1.304 5.953,0.77 6.274,0.719 3.545,-0.555 5.065,-2.585 5.065,-2.585 0,0 0.989,1.29 2.724,1.286 1.711,-0.004 2.734,-1.242 2.734,-1.242 0,0 2.188,2.655 6.448,2.655 4.261,0 10.504,-3.664 22.876,-2.694 0,0 -0.7,28.77 -31.995,28.867 -0.052,0 -0.11,0 -0.162,0 -31.623,0.003 -31.835,-28.337 -32.336,-28.828" />
    </clipPath>
    <clipPath
       id="clipPath77212"
       clipPathUnits="userSpaceOnUse">
      <path
         id="path77210"
         d="m 426.081,345.745 20.904,-20.047 -19.99,-20.845 -20.904,20.047" />
    </clipPath>
    <clipPath
       id="clipPath77220"
       clipPathUnits="userSpaceOnUse">
      <path
         id="path77218"
         d="m 415.623,334.839 c 10.784,-9.471 13.253,-9.037 16.904,-12.268 3.745,-3.313 3.142,-6.812 3.142,-6.812 l 0.939,0.529 0.007,0.053 c 0.839,6.506 -5.5,9.927 -9.096,12.593 -2.821,2.092 -6.074,4.748 -7.477,5.905" />
    </clipPath>
    <clipPath
       id="clipPath77804"
       clipPathUnits="userSpaceOnUse">
      <path
         id="path77802"
         d="m 403.848,314.786 c 0.417,0.407 11.185,-0.383 18.372,1.822 4.256,1.304 5.953,0.77 6.274,0.719 3.545,-0.555 5.065,-2.585 5.065,-2.585 0,0 0.989,1.29 2.724,1.286 1.711,-0.004 2.734,-1.242 2.734,-1.242 0,0 2.188,2.655 6.448,2.655 4.261,0 10.504,-3.664 22.876,-2.694 0,0 -0.7,28.77 -31.995,28.867 -0.052,0 -0.11,0 -0.162,0 -31.623,0.003 -31.835,-28.337 -32.336,-28.828" />
    </clipPath>
    <clipPath
       id="clipPath77816"
       clipPathUnits="userSpaceOnUse">
      <path
         id="path77814"
         d="m 432.818,346.258 14.907,-24.615 -23.871,-14.457 -14.907,24.615" />
    </clipPath>
    <clipPath
       id="clipPath77824"
       clipPathUnits="userSpaceOnUse">
      <path
         id="path77822"
         d="m 418.662,337.685 c 3.984,-5.074 12.256,-10.517 14.875,-14.484 2.741,-4.15 2.201,-7.442 2.201,-7.442 l 1.047,0.272 0.021,0.05 c 1.204,3.652 -2.626,9.198 -5.723,12.408 -4.396,4.557 -7.647,7.995 -8.779,9.196" />
    </clipPath>
    <clipPath
       id="clipPath78408"
       clipPathUnits="userSpaceOnUse">
      <path
         id="path78406"
         d="M 435.584,347.498 449.963,321.45 426.36,308.421 411.981,334.469" />
    </clipPath>
    <clipPath
       id="clipPath78416"
       clipPathUnits="userSpaceOnUse">
      <path
         id="path78414"
         d="m 422.317,340.175 c 7.65,-10.104 9.107,-12.289 11.625,-16.463 2.566,-4.256 1.833,-7.968 1.833,-7.968 l 1.058,0.229 0.023,0.049 c 2.77,5.941 -12.77,24.008 -12.895,24.153" />
    </clipPath>
    <clipPath
       id="clipPath79000"
       clipPathUnits="userSpaceOnUse">
      <path
         id="path78998"
         d="m 435.603,345.837 13.249,-24.401 -20.14,-10.935 -13.248,24.402" />
    </clipPath>
    <clipPath
       id="clipPath79008"
       clipPathUnits="userSpaceOnUse">
      <path
         id="path79006"
         d="m 425.831,340.532 c 11.845,-15.921 10.044,-24.725 10.044,-24.725 l 1.059,0.223 0.023,0.048 c 1.527,9.496 -8.159,22.543 -9.627,24.454" />
    </clipPath>
    <clipPath
       id="clipPath79592"
       clipPathUnits="userSpaceOnUse">
      <path
         id="path79590"
         d="m 403.848,314.786 c 0.417,0.407 11.185,-0.383 18.372,1.822 4.256,1.304 5.953,0.77 6.274,0.719 3.545,-0.555 5.065,-2.585 5.065,-2.585 0,0 0.989,1.29 2.724,1.286 1.711,-0.004 2.734,-1.242 2.734,-1.242 0,0 2.188,2.655 6.448,2.655 4.261,0 10.504,-3.664 22.876,-2.694 0,0 -0.7,28.77 -31.995,28.867 -0.052,0 -0.11,0 -0.162,0 -31.623,0.003 -31.835,-28.337 -32.336,-28.828" />
    </clipPath>
    <clipPath
       id="clipPath79612"
       clipPathUnits="userSpaceOnUse">
      <path
         id="path79610"
         d="m 441.217,318.117 h 12.042 l 0.967,-0.308 h -13.467 z m -0.458,-0.308 h 13.467 l 1.041,-0.279 h -14.923 z m -0.415,-0.279 h 5.57 l -1.598,-0.06 h -4.061 z m 5.57,0 h 9.353 l 0.516,-0.138 h -8.112 z m 1.757,-0.138 h 8.112 l 0.17,-0.046 h -8.016 z m -7.416,0.078 h 4.061 l -0.98,-0.174 h -3.34 z m -0.259,-0.174 h 3.34 l -0.395,-0.07 h -3.024 z m 7.941,0.05 h 8.016 l 1.282,-0.233 h -7.939 z m 1.359,-0.233 h 7.939 l 0.605,-0.11 h -8.04 z m -9.379,0.113 h 3.024 l -1.161,-0.375 h -2.285 z m -0.422,-0.375 h 2.285 l -0.13,-0.062 h -2.224 z m 10.305,0.152 h 8.04 l 3.774,-0.395 H 451.61 Z m 1.81,-0.395 h 10.004 l 2.97,-0.129 h -12.381 z m 0.593,-0.129 h 12.381 l 1.204,-0.011 h -13.535 z m -12.777,0.31 h 2.224 l -0.826,-0.394 h -1.766 z m 12.827,-0.321 h 13.535 l 0.217,-0.159 h -13.021 z m -13.195,-0.073 h 1.766 l -0.287,-0.183 h -1.65 z m -0.171,-0.183 h 1.65 l -0.472,-0.3 h -1.178 z m 14.097,0.097 h 13.021 l 0.601,-0.442 h -11.144 z m 2.478,-0.442 h 11.144 l 0.561,-0.411 h -8.526 z m -16.575,0.045 h 1.178 l -0.57,-0.459 h -0.608 z m 19.754,-0.456 h 8.526 l 0.46,-0.339 h -4.899 z m 4.087,-0.339 h 4.899 l 0.304,-0.223 h -0.008 z m 5.195,-0.223 h 0.008 v 0 z m -29.036,0.559 h 0.608 l -0.608,-0.636 v 0" />
    </clipPath>
    <linearGradient
       id="linearGradient79628"
       gradientUnits="userSpaceOnUse"
       y2="318.14999"
       x2="442.71399"
       y1="318.14999"
       x1="468.047">
      <stop
         id="stop79624"
         offset="0"
         style="stop-opacity:1;stop-color:#f1f2f1" />
      <stop
         id="stop79626"
         offset="1"
         style="stop-opacity:1;stop-color:#b7b7b6" />
    </linearGradient>
    <clipPath
       id="clipPath79638"
       clipPathUnits="userSpaceOnUse">
      <path
         id="path79636"
         d="m 441.217,318.117 h 12.042 l 0.967,-0.308 h -13.467 z m -0.458,-0.308 h 13.467 l 1.041,-0.279 h -14.923 z m -0.415,-0.279 h 5.57 l -1.598,-0.06 h -4.061 z m 5.57,0 h 9.353 l 0.516,-0.138 h -8.112 z m 1.757,-0.138 h 8.112 l 0.17,-0.046 h -8.016 z m -7.416,0.078 h 4.061 l -0.98,-0.174 h -3.34 z m -0.259,-0.174 h 3.34 l -0.395,-0.07 h -3.024 z m 7.941,0.05 h 8.016 l 1.282,-0.233 h -7.939 z m 1.359,-0.233 h 7.939 l 0.605,-0.11 h -8.04 z m -9.379,0.113 h 3.024 l -1.161,-0.375 h -2.285 z m -0.422,-0.375 h 2.285 l -0.13,-0.062 h -2.224 z m 10.305,0.152 h 8.04 l 3.774,-0.395 H 451.61 Z m 1.81,-0.395 h 10.004 l 2.97,-0.129 h -12.381 z m 0.593,-0.129 h 12.381 l 1.204,-0.011 h -13.535 z m -12.777,0.31 h 2.224 l -0.826,-0.394 h -1.766 z m 12.827,-0.321 h 13.535 l 0.217,-0.159 h -13.021 z m -13.195,-0.073 h 1.766 l -0.287,-0.183 h -1.65 z m -0.171,-0.183 h 1.65 l -0.472,-0.3 h -1.178 z m 14.097,0.097 h 13.021 l 0.601,-0.442 h -11.144 z m 2.478,-0.442 h 11.144 l 0.561,-0.411 h -8.526 z m -16.575,0.045 h 1.178 l -0.57,-0.459 h -0.608 z m 19.754,-0.456 h 8.526 l 0.46,-0.339 h -4.899 z m 4.087,-0.339 h 4.899 l 0.304,-0.223 h -0.008 z m 5.195,-0.223 h 0.008 v 0 z m -29.036,0.559 h 0.608 l -0.608,-0.636 v 0" />
    </clipPath>
    <linearGradient
       id="linearGradient79654"
       gradientUnits="userSpaceOnUse"
       y2="318.14999"
       x2="438.87"
       y1="318.14999"
       x1="442.71399">
      <stop
         id="stop79650"
         offset="0"
         style="stop-opacity:1;stop-color:#b7b6b6" />
      <stop
         id="stop79652"
         offset="1"
         style="stop-opacity:1;stop-color:#afafaf" />
    </linearGradient>
    <clipPath
       id="clipPath79664"
       clipPathUnits="userSpaceOnUse">
      <path
         id="path79662"
         d="m 467.964,315.006 -28.993,-1.57 -0.291,5.381 28.992,1.57" />
    </clipPath>
    <clipPath
       id="clipPath79672"
       clipPathUnits="userSpaceOnUse">
      <path
         id="path79670"
         d="m 442.013,318.828 c -1.164,-0.509 -2.231,-1.267 -3.126,-2.352 v -1.481 c 0.575,0.728 2.578,2.812 6.738,2.913 2.356,0.056 3.946,-0.351 6.553,-0.756 2.979,-0.466 7.286,-0.93 15.579,-0.702 l -2.227,1.456 c 0,0 -7.262,-0.46 -11.62,0.724 -0.241,0.066 -0.493,0.132 -0.752,0.198" />
    </clipPath>
    <clipPath
       id="clipPath80340"
       clipPathUnits="userSpaceOnUse">
      <path
         id="path80338"
         d="m 467.988,314.84 -29.235,-2.557 -0.57,6.515 29.235,2.557" />
    </clipPath>
    <clipPath
       id="clipPath80348"
       clipPathUnits="userSpaceOnUse">
      <path
         id="path80346"
         d="m 465.109,318.828 c -1.092,-0.092 -5.503,-0.416 -9.207,0 h -14.409 c -1.127,-0.598 -2.141,-1.45 -2.962,-2.632 v -1.051 l 0.134,-0.335 c 0,0 1.765,3.098 6.806,3.387 2.2,0.125 3.746,-0.177 6.084,-0.478 3.012,-0.39 7.339,-0.78 16.084,-0.251 l -2.24,1.36" />
    </clipPath>
    <clipPath
       id="clipPath80756"
       clipPathUnits="userSpaceOnUse">
      <path
         id="path80754"
         d="m 468.139,314.918 -28.992,-4.281 -1.351,9.15 28.992,4.282" />
    </clipPath>
    <clipPath
       id="clipPath80764"
       clipPathUnits="userSpaceOnUse">
      <path
         id="path80762"
         d="m 442.844,319.896 c -1.677,-0.657 -3.191,-1.762 -4.313,-3.531 v -1.33 l 0.106,-0.225 c 0,0 1.577,3.193 6.592,3.769 1.996,0.229 3.469,0.072 5.494,-0.085 3.062,-0.236 7.384,-0.474 16.681,0.624 l -1.389,0.778" />
    </clipPath>
    <clipPath
       id="clipPath81180"
       clipPathUnits="userSpaceOnUse">
      <path
         id="path81178"
         d="m 468.457,315.124 -28.633,-6.243 -2.729,12.516 28.633,6.243" />
    </clipPath>
    <clipPath
       id="clipPath81188"
       clipPathUnits="userSpaceOnUse">
      <path
         id="path81186"
         d="m 459.264,321.675 c -2.214,-0.357 -4.729,-0.688 -6.269,-0.652 -4.305,0.101 -11.429,0.687 -14.464,-4.458 v -1.588 l 0.092,-0.166 c 0,0 1.352,3.292 6.314,4.203 1.815,0.333 3.213,0.311 5.004,0.289 3.105,-0.037 7.391,-0.075 17.08,1.736 l -1.418,0.636" />
    </clipPath>
    <clipPath
       id="clipPath81604"
       clipPathUnits="userSpaceOnUse">
      <path
         id="path81602"
         d="m 403.848,314.786 c 0.417,0.407 11.185,-0.383 18.372,1.822 4.256,1.304 5.953,0.77 6.274,0.719 3.545,-0.555 5.065,-2.585 5.065,-2.585 0,0 0.989,1.29 2.724,1.286 1.711,-0.004 2.734,-1.242 2.734,-1.242 0,0 2.188,2.655 6.448,2.655 4.261,0 10.504,-3.664 22.876,-2.694 0,0 -0.7,28.77 -31.995,28.867 -0.052,0 -0.11,0 -0.162,0 -31.623,0.003 -31.835,-28.337 -32.336,-28.828" />
    </clipPath>
    <clipPath
       id="clipPath81616"
       clipPathUnits="userSpaceOnUse">
      <path
         id="path81614"
         d="m 468.647,315.351 -28.231,-7.565 -3.865,14.426 28.231,7.564" />
    </clipPath>
    <clipPath
       id="clipPath81624"
       clipPathUnits="userSpaceOnUse">
      <path
         id="path81622"
         d="m 459.451,322.742 c -2.318,-0.496 -5.121,-1.019 -6.793,-1.057 -4.251,-0.096 -11.268,0.155 -14.127,-4.919 v -1.836 l 0.068,-0.11 c 0,0 1.193,3.349 6.105,4.488 4.913,1.138 6.837,-0.518 21.962,3.036 l -1.01,0.398" />
    </clipPath>
    <clipPath
       id="clipPath82040"
       clipPathUnits="userSpaceOnUse">
      <path
         id="path82038"
         d="m 403.848,314.786 c 0.417,0.407 11.185,-0.383 18.372,1.822 4.256,1.304 5.953,0.77 6.274,0.719 3.545,-0.555 5.065,-2.585 5.065,-2.585 0,0 0.989,1.29 2.724,1.286 1.711,-0.004 2.734,-1.242 2.734,-1.242 0,0 2.188,2.655 6.448,2.655 4.261,0 10.504,-3.664 22.876,-2.694 0,0 -0.7,28.77 -31.995,28.867 -0.052,0 -0.11,0 -0.162,0 -31.623,0.003 -31.835,-28.337 -32.336,-28.828" />
    </clipPath>
    <clipPath
       id="clipPath82052"
       clipPathUnits="userSpaceOnUse">
      <path
         id="path82050"
         d="m 469.034,315.85 -27.877,-9.653 -5.985,17.284 27.876,9.653" />
    </clipPath>
    <clipPath
       id="clipPath82060"
       clipPathUnits="userSpaceOnUse">
      <path
         id="path82058"
         d="m 460.473,324.521 c -2.111,-0.79 -5.508,-1.868 -8.368,-1.889 -4.369,-0.033 -11.64,-0.616 -13.93,-6.329 v -0.939 l 0.402,-0.554 c 0,0 0.947,3.424 5.766,4.899 4.817,1.475 6.857,-0.042 21.688,4.55 l -0.856,0.262" />
    </clipPath>
    <clipPath
       id="clipPath82476"
       clipPathUnits="userSpaceOnUse">
      <path
         id="path82474"
         d="m 403.848,314.786 c 0.417,0.407 11.185,-0.383 18.372,1.822 4.256,1.304 5.953,0.77 6.274,0.719 3.545,-0.555 5.065,-2.585 5.065,-2.585 0,0 0.989,1.29 2.724,1.286 1.711,-0.004 2.734,-1.242 2.734,-1.242 0,0 2.188,2.655 6.448,2.655 4.261,0 10.504,-3.664 22.876,-2.694 0,0 -0.7,28.77 -31.995,28.867 -0.052,0 -0.11,0 -0.162,0 -31.623,0.003 -31.835,-28.337 -32.336,-28.828" />
    </clipPath>
    <clipPath
       id="clipPath82488"
       clipPathUnits="userSpaceOnUse">
      <path
         id="path82486"
         d="m 468.523,316.593 -26.321,-11.173 -7.997,18.839 26.322,11.173" />
    </clipPath>
    <clipPath
       id="clipPath82496"
       clipPathUnits="userSpaceOnUse">
      <path
         id="path82494"
         d="m 460.379,325.944 c -2.344,-0.87 -6.074,-2.098 -8.937,-2.314 -4.226,-0.319 -11.143,-1.342 -13.267,-6.752 v -1.579 l 0.328,-0.391 c 0,0 0.701,3.48 5.403,5.279 4.629,1.771 6.778,0.467 20.648,5.757" />
    </clipPath>
    <clipPath
       id="clipPath82912"
       clipPathUnits="userSpaceOnUse">
      <path
         id="path82910"
         d="m 403.848,314.786 c 0.417,0.407 11.185,-0.383 18.372,1.822 4.256,1.304 5.953,0.77 6.274,0.719 3.545,-0.555 5.065,-2.585 5.065,-2.585 0,0 0.989,1.29 2.724,1.286 1.711,-0.004 2.734,-1.242 2.734,-1.242 0,0 2.188,2.655 6.448,2.655 4.261,0 10.504,-3.664 22.876,-2.694 0,0 -0.7,28.77 -31.995,28.867 -0.052,0 -0.11,0 -0.162,0 -31.623,0.003 -31.835,-28.337 -32.336,-28.828" />
    </clipPath>
    <clipPath
       id="clipPath82924"
       clipPathUnits="userSpaceOnUse">
      <path
         id="path82922"
         d="m 468.409,317.206 -25.849,-12.219 -9.375,19.833 25.849,12.219" />
    </clipPath>
    <clipPath
       id="clipPath82932"
       clipPathUnits="userSpaceOnUse">
      <path
         id="path82930"
         d="m 460.005,327.011 c -2.248,-0.954 -6.195,-2.476 -9.213,-2.822 -4.226,-0.485 -11.173,-1.782 -12.972,-7.37 v -1.301 l 0.457,-0.503 c 0,0 0.557,3.489 5.16,5.459 4.536,1.942 6.725,0.724 20.337,6.537" />
    </clipPath>
    <clipPath
       id="clipPath83348"
       clipPathUnits="userSpaceOnUse">
      <path
         id="path83346"
         d="m 403.848,314.786 c 0.417,0.407 11.185,-0.383 18.372,1.822 4.256,1.304 5.953,0.77 6.274,0.719 3.545,-0.555 5.065,-2.585 5.065,-2.585 0,0 0.989,1.29 2.724,1.286 1.711,-0.004 2.734,-1.242 2.734,-1.242 0,0 2.188,2.655 6.448,2.655 4.261,0 10.504,-3.664 22.876,-2.694 0,0 -0.7,28.77 -31.995,28.867 -0.052,0 -0.11,0 -0.162,0 -31.623,0.003 -31.835,-28.337 -32.336,-28.828" />
    </clipPath>
    <clipPath
       id="clipPath83360"
       clipPathUnits="userSpaceOnUse">
      <path
         id="path83358"
         d="m 467.408,317.828 -24.347,-12.729 -10.414,19.92 24.347,12.728" />
    </clipPath>
    <clipPath
       id="clipPath83368"
       clipPathUnits="userSpaceOnUse">
      <path
         id="path83366"
         d="m 458.788,327.723 c -2.249,-1.041 -5.834,-2.541 -8.645,-2.975 -3.966,-0.613 -10.32,-2.048 -12.323,-6.977 v -2.414 l 0.23,-0.234 c 0,0 0.414,3.497 4.919,5.639 4.357,2.07 6.584,1.022 19.265,6.961" />
    </clipPath>
    <clipPath
       id="clipPath83784"
       clipPathUnits="userSpaceOnUse">
      <path
         id="path83782"
         d="m 403.848,314.786 c 0.417,0.407 11.185,-0.383 18.372,1.822 4.256,1.304 5.953,0.77 6.274,0.719 3.545,-0.555 5.065,-2.585 5.065,-2.585 0,0 0.989,1.29 2.724,1.286 1.711,-0.004 2.734,-1.242 2.734,-1.242 0,0 2.188,2.655 6.448,2.655 4.261,0 10.504,-3.664 22.876,-2.694 0,0 -0.7,28.77 -31.995,28.867 -0.052,0 -0.11,0 -0.162,0 -31.623,0.003 -31.835,-28.337 -32.336,-28.828" />
    </clipPath>
    <clipPath
       id="clipPath83796"
       clipPathUnits="userSpaceOnUse">
      <path
         id="path83794"
         d="m 467.373,318.6 -23.933,-13.761 -11.835,20.582 23.932,13.762" />
    </clipPath>
    <clipPath
       id="clipPath83804"
       clipPathUnits="userSpaceOnUse">
      <path
         id="path83802"
         d="m 458.339,328.79 c -2.163,-1.123 -5.909,-2.911 -8.845,-3.483 -3.944,-0.77 -10.268,-2.458 -12.03,-7.495 v -2.244 l 0.36,-0.337 c 0,0 0.27,3.504 4.677,5.818 4.27,2.241 6.534,1.273 19.012,7.741" />
    </clipPath>
    <clipPath
       id="clipPath84220"
       clipPathUnits="userSpaceOnUse">
      <path
         id="path84218"
         d="m 403.848,314.786 c 0.417,0.407 11.185,-0.383 18.372,1.822 4.256,1.304 5.953,0.77 6.274,0.719 3.545,-0.555 5.065,-2.585 5.065,-2.585 0,0 0.989,1.29 2.724,1.286 1.711,-0.004 2.734,-1.242 2.734,-1.242 0,0 2.188,2.655 6.448,2.655 4.261,0 10.504,-3.664 22.876,-2.694 0,0 -0.7,28.77 -31.995,28.867 -0.052,0 -0.11,0 -0.162,0 -31.623,0.003 -31.835,-28.337 -32.336,-28.828" />
    </clipPath>
    <clipPath
       id="clipPath84232"
       clipPathUnits="userSpaceOnUse">
      <path
         id="path84230"
         d="m 467.325,319.462 -23.496,-14.796 -13.268,21.069 23.495,14.796" />
    </clipPath>
    <clipPath
       id="clipPath84240"
       clipPathUnits="userSpaceOnUse">
      <path
         id="path84238"
         d="m 457.823,329.859 c -2.058,-1.19 -5.933,-3.274 -8.978,-3.994 -3.938,-0.93 -10.22,-2.888 -11.737,-8.072 v -2.03 l 0.49,-0.424 c 0,0 0.126,3.512 4.434,5.997 4.182,2.413 6.487,1.527 18.746,8.523" />
    </clipPath>
    <clipPath
       id="clipPath84656"
       clipPathUnits="userSpaceOnUse">
      <path
         id="path84654"
         d="m 403.848,314.786 c 0.417,0.407 11.185,-0.383 18.372,1.822 4.256,1.304 5.953,0.77 6.274,0.719 3.545,-0.555 5.065,-2.585 5.065,-2.585 0,0 0.989,1.29 2.724,1.286 1.711,-0.004 2.734,-1.242 2.734,-1.242 0,0 2.188,2.655 6.448,2.655 4.261,0 10.504,-3.664 22.876,-2.694 0,0 -0.7,28.77 -31.995,28.867 -0.052,0 -0.11,0 -0.162,0 -31.623,0.003 -31.835,-28.337 -32.336,-28.828" />
    </clipPath>
    <clipPath
       id="clipPath84668"
       clipPathUnits="userSpaceOnUse">
      <path
         id="path84666"
         d="m 467.257,320.412 -23.037,-15.833 -14.694,21.38 23.037,15.833" />
    </clipPath>
    <clipPath
       id="clipPath84676"
       clipPathUnits="userSpaceOnUse">
      <path
         id="path84674"
         d="m 457.256,330.926 c -1.936,-1.236 -5.918,-3.627 -9.06,-4.502 -3.922,-1.092 -10.203,-3.313 -11.444,-8.617 v -1.867 l 0.62,-0.494 c 0,0 -0.019,3.52 4.191,6.177 4.093,2.583 6.438,1.781 18.469,9.303" />
    </clipPath>
    <clipPath
       id="clipPath85092"
       clipPathUnits="userSpaceOnUse">
      <path
         id="path85090"
         d="m 403.848,314.786 c 0.417,0.407 11.185,-0.383 18.372,1.822 4.256,1.304 5.953,0.77 6.274,0.719 3.545,-0.555 5.065,-2.585 5.065,-2.585 0,0 0.989,1.29 2.724,1.286 1.711,-0.004 2.734,-1.242 2.734,-1.242 0,0 2.188,2.655 6.448,2.655 4.261,0 10.504,-3.664 22.876,-2.694 0,0 -0.7,28.77 -31.995,28.867 -0.052,0 -0.11,0 -0.162,0 -31.623,0.003 -31.835,-28.337 -32.336,-28.828" />
    </clipPath>
    <clipPath
       id="clipPath85104"
       clipPathUnits="userSpaceOnUse">
      <path
         id="path85102"
         d="m 467.161,321.453 -22.327,-16.703 -15.968,21.345 22.327,16.702" />
    </clipPath>
    <clipPath
       id="clipPath85112"
       clipPathUnits="userSpaceOnUse">
      <path
         id="path85110"
         d="m 456.649,331.994 c -1.801,-1.265 -5.872,-3.974 -9.102,-5.011 -3.593,-1.153 -9.156,-3.353 -10.795,-7.915 v -3.225 l 0.394,-0.289 c 0,0 -0.163,3.527 3.948,6.356 4.004,2.754 6.387,2.036 18.182,10.084" />
    </clipPath>
    <clipPath
       id="clipPath85528"
       clipPathUnits="userSpaceOnUse">
      <path
         id="path85526"
         d="m 403.848,314.786 c 0.417,0.407 11.185,-0.383 18.372,1.822 4.256,1.304 5.953,0.77 6.274,0.719 3.545,-0.555 5.065,-2.585 5.065,-2.585 0,0 0.989,1.29 2.724,1.286 1.711,-0.004 2.734,-1.242 2.734,-1.242 0,0 2.188,2.655 6.448,2.655 4.261,0 10.504,-3.664 22.876,-2.694 0,0 -0.7,28.77 -31.995,28.867 -0.052,0 -0.11,0 -0.162,0 -31.623,0.003 -31.835,-28.337 -32.336,-28.828" />
    </clipPath>
    <clipPath
       id="clipPath85540"
       clipPathUnits="userSpaceOnUse">
      <path
         id="path85538"
         d="m 467.027,322.582 -21.703,-17.638 -17.225,21.196 21.703,17.637" />
    </clipPath>
    <clipPath
       id="clipPath85548"
       clipPathUnits="userSpaceOnUse">
      <path
         id="path85546"
         d="m 456.005,333.06 c -1.655,-1.272 -5.798,-4.31 -9.108,-5.518 -3.464,-1.263 -8.57,-3.876 -10.145,-8.383 v -3.44 l 0.169,-0.057 c 0,0 -0.307,3.534 3.705,6.535 3.912,2.925 6.335,2.292 17.886,10.863" />
    </clipPath>
    <clipPath
       id="clipPath85964"
       clipPathUnits="userSpaceOnUse">
      <path
         id="path85962"
         d="m 403.848,314.786 c 0.417,0.407 11.185,-0.383 18.372,1.822 4.256,1.304 5.953,0.77 6.274,0.719 3.545,-0.555 5.065,-2.585 5.065,-2.585 0,0 0.989,1.29 2.724,1.286 1.711,-0.004 2.734,-1.242 2.734,-1.242 0,0 2.188,2.655 6.448,2.655 4.261,0 10.504,-3.664 22.876,-2.694 0,0 -0.7,28.77 -31.995,28.867 -0.052,0 -0.11,0 -0.162,0 -31.623,0.003 -31.835,-28.337 -32.336,-28.828" />
    </clipPath>
    <clipPath
       id="clipPath85976"
       clipPathUnits="userSpaceOnUse">
      <path
         id="path85974"
         d="m 466.407,324.899 -20.288,-19.455 -19.424,20.254 20.288,19.456" />
    </clipPath>
    <clipPath
       id="clipPath85984"
       clipPathUnits="userSpaceOnUse">
      <path
         id="path85982"
         d="m 452.457,334.839 c -1.403,-1.157 -4.658,-3.813 -7.478,-5.905 -2.709,-2.009 -6.756,-4.69 -8.227,-8.674 v -4.482 l 0.078,-0.019 c 0,0 -0.603,3.499 3.141,6.812 3.652,3.231 6.121,2.797 16.905,12.268" />
    </clipPath>
    <clipPath
       id="clipPath86400"
       clipPathUnits="userSpaceOnUse">
      <path
         id="path86398"
         d="m 403.848,314.786 c 0.417,0.407 11.185,-0.383 18.372,1.822 4.256,1.304 5.953,0.77 6.274,0.719 3.545,-0.555 5.065,-2.585 5.065,-2.585 0,0 0.989,1.29 2.724,1.286 1.711,-0.004 2.734,-1.242 2.734,-1.242 0,0 2.188,2.655 6.448,2.655 4.261,0 10.504,-3.664 22.876,-2.694 0,0 -0.7,28.77 -31.995,28.867 -0.052,0 -0.11,0 -0.162,0 -31.623,0.003 -31.835,-28.337 -32.336,-28.828" />
    </clipPath>
    <clipPath
       id="clipPath86412"
       clipPathUnits="userSpaceOnUse">
      <path
         id="path86410"
         d="m 463.552,331.801 -14.3,-23.612 -22.216,13.454 14.3,23.612" />
    </clipPath>
    <clipPath
       id="clipPath86420"
       clipPathUnits="userSpaceOnUse">
      <path
         id="path86418"
         d="m 450.193,337.685 c -1.132,-1.201 -4.381,-4.639 -8.777,-9.196 -1.879,-1.948 -3.751,-4.835 -4.664,-7.62 v -3.614 c 0.118,1.351 0.594,3.499 2.21,5.946 2.62,3.966 10.889,9.41 14.875,14.484 z m -13.441,-21.923 0.009,-0.003 c 0,0 -0.004,0.023 -0.009,0.067" />
    </clipPath>
    <clipPath
       id="clipPath86836"
       clipPathUnits="userSpaceOnUse">
      <path
         id="path86834"
         d="m 403.848,314.786 c 0.417,0.407 11.185,-0.383 18.372,1.822 4.256,1.304 5.953,0.77 6.274,0.719 3.545,-0.555 5.065,-2.585 5.065,-2.585 0,0 0.989,1.29 2.724,1.286 1.711,-0.004 2.734,-1.242 2.734,-1.242 0,0 2.188,2.655 6.448,2.655 4.261,0 10.504,-3.664 22.876,-2.694 0,0 -0.7,28.77 -31.995,28.867 -0.052,0 -0.11,0 -0.162,0 -31.623,0.003 -31.835,-28.337 -32.336,-28.828" />
    </clipPath>
    <clipPath
       id="clipPath86848"
       clipPathUnits="userSpaceOnUse">
      <path
         id="path86846"
         d="m 460.517,334.469 -13.651,-24.729 -21.212,11.71 13.651,24.729" />
    </clipPath>
    <clipPath
       id="clipPath86856"
       clipPathUnits="userSpaceOnUse">
      <path
         id="path86854"
         d="m 448.536,340.175 c -0.098,-0.121 -10.237,-12.677 -12.139,-20.361 v -3.905 c 0.013,-0.031 0.026,-0.061 0.04,-0.091 l 0.286,-0.074 c 0,0 -0.732,3.712 1.834,7.968 2.518,4.174 3.975,6.36 11.623,16.463" />
    </clipPath>
    <clipPath
       id="clipPath87272"
       clipPathUnits="userSpaceOnUse">
      <path
         id="path87270"
         d="m 403.848,314.786 c 0.417,0.407 11.185,-0.383 18.372,1.822 4.256,1.304 5.953,0.77 6.274,0.719 3.545,-0.555 5.065,-2.585 5.065,-2.585 0,0 0.989,1.29 2.724,1.286 1.711,-0.004 2.734,-1.242 2.734,-1.242 0,0 2.188,2.655 6.448,2.655 4.261,0 10.504,-3.664 22.876,-2.694 0,0 -0.7,28.77 -31.995,28.867 -0.052,0 -0.11,0 -0.162,0 -31.623,0.003 -31.835,-28.337 -32.336,-28.828" />
    </clipPath>
    <clipPath
       id="clipPath87284"
       clipPathUnits="userSpaceOnUse">
      <path
         id="path87282"
         d="m 457.036,334.903 -13.065,-24.064 -19.517,10.598 13.065,24.063" />
    </clipPath>
    <clipPath
       id="clipPath87292"
       clipPathUnits="userSpaceOnUse">
      <path
         id="path87290"
         d="m 445.183,340.532 c -1.114,-1.569 -7.352,-10.644 -8.786,-19.094 v -5.584 l 0.227,-0.047 c 0,0 -1.802,8.804 10.044,24.725" />
    </clipPath>
    <clipPath
       id="clipPath87708"
       clipPathUnits="userSpaceOnUse">
      <path
         id="path87706"
         d="m 403.848,314.786 c 0.417,0.407 11.185,-0.383 18.372,1.822 4.256,1.304 5.953,0.77 6.274,0.719 3.545,-0.555 5.065,-2.585 5.065,-2.585 0,0 0.989,1.29 2.724,1.286 1.711,-0.004 2.734,-1.242 2.734,-1.242 0,0 2.188,2.655 6.448,2.655 4.261,0 10.504,-3.664 22.876,-2.694 0,0 -0.7,28.77 -31.995,28.867 -0.052,0 -0.11,0 -0.162,0 -31.623,0.003 -31.835,-28.337 -32.336,-28.828" />
    </clipPath>
    <clipPath
       id="clipPath87728"
       clipPathUnits="userSpaceOnUse">
      <path
         id="path87726"
         d="m 436.749,343.203 11.749,-21.638 -14.758,-8.012 -11.749,21.638" />
    </clipPath>
    <clipPath
       id="clipPath87736"
       clipPathUnits="userSpaceOnUse">
      <path
         id="path87734"
         d="m 432.483,340.887 v -0.219 c 0.906,-3.912 4.067,-18.142 3.725,-24.799 0,0 1.799,7.78 -2.599,25.018 z m 3.725,-25.018 0.179,0.067 z" />
    </clipPath>
    <clipPath
       id="clipPath87744"
       clipPathUnits="userSpaceOnUse">
      <path
         id="path87742"
         d="m 204.131,309.192 h 439.388 v 85.043 H 204.131 Z" />
    </clipPath>
    <clipPath
       id="clipPath88424"
       clipPathUnits="userSpaceOnUse">
      <path
         id="path88422"
         d="m 403.848,314.786 c 0.417,0.407 11.185,-0.383 18.372,1.822 4.256,1.304 5.953,0.77 6.274,0.719 3.545,-0.555 5.065,-2.585 5.065,-2.585 0,0 0.989,1.29 2.724,1.286 1.711,-0.004 2.734,-1.242 2.734,-1.242 0,0 2.188,2.655 6.448,2.655 4.261,0 10.504,-3.664 22.876,-2.694 0,0 -0.7,28.77 -31.995,28.867 -0.052,0 -0.11,0 -0.162,0 -31.623,0.003 -31.835,-28.337 -32.336,-28.828" />
    </clipPath>
    <clipPath
       id="clipPath88436"
       clipPathUnits="userSpaceOnUse">
      <path
         id="path88434"
         d="m 449.494,335.82 -10.189,-18.766 -12.24,6.646 10.189,18.766" />
    </clipPath>
    <clipPath
       id="clipPath88444"
       clipPathUnits="userSpaceOnUse">
      <path
         id="path88442"
         d="m 439.004,340.887 c -1.797,-8.013 -2.416,-14.771 -2.607,-19.245 v -3.009 c 0.401,7.45 3.057,19.221 3.765,22.254" />
    </clipPath>
    <clipPath
       id="clipPath88860"
       clipPathUnits="userSpaceOnUse">
      <path
         id="path88858"
         d="m 403.848,314.786 c 0.417,0.407 11.185,-0.383 18.372,1.822 4.256,1.304 5.953,0.77 6.274,0.719 3.545,-0.555 5.065,-2.585 5.065,-2.585 0,0 0.989,1.29 2.724,1.286 1.711,-0.004 2.734,-1.242 2.734,-1.242 0,0 2.188,2.655 6.448,2.655 4.261,0 10.504,-3.664 22.876,-2.694 0,0 -0.7,28.77 -31.995,28.867 -0.052,0 -0.11,0 -0.162,0 -31.623,0.003 -31.835,-28.337 -32.336,-28.828" />
    </clipPath>
    <clipPath
       id="clipPath88884"
       clipPathUnits="userSpaceOnUse">
      <path
         id="path88882"
         d="m 204.131,309.192 h 439.388 v 85.042 H 204.131 Z" />
    </clipPath>
    <clipPath
       id="clipPath89058"
       clipPathUnits="userSpaceOnUse">
      <path
         id="path89056"
         d="m 436.971,394.234 -6.743,-4.382 0.616,-0.401 v -0.894 c -0.119,-0.03 -0.208,-0.131 -0.208,-0.259 0,-0.098 0.056,-0.182 0.136,-0.23 l -0.544,-3.098 h 1.362 l -0.545,3.098 c 0.08,0.048 0.135,0.132 0.135,0.23 0,0.128 -0.09,0.229 -0.207,0.259 v 0.81 l 1.742,-1.132 v 0.109 c 0.012,-0.161 0.036,-0.328 0.074,-0.502 0.136,-0.589 0.395,-0.552 0.604,-1.221 v -0.069 c -0.015,-0.078 -0.076,-0.163 -0.127,-0.177 -0.251,-0.069 -0.255,-0.207 -0.222,-0.385 0.023,-0.123 0.213,-1.033 0.323,-1.36 0.085,-0.242 0.245,-0.47 0.289,-0.718 0.089,-0.493 0.304,-0.922 0.69,-1.293 0.064,-0.063 0.112,-0.167 0.105,-0.247 -0.03,-0.38 -0.076,-0.759 -0.135,-1.136 -0.013,-0.075 -0.102,-0.183 -0.175,-0.198 -0.294,-0.052 -0.34,-0.246 -0.409,-0.441 -0.093,-0.26 -0.193,-0.519 -0.309,-0.769 -0.037,-0.079 -0.128,-0.161 -0.217,-0.194 -0.523,-0.197 -1.055,-0.375 -1.579,-0.566 -0.531,-0.193 -1.889,-1.018 -2.498,-1.321 v -1.158 h 16.051 c 0.047,0.369 0.101,1.048 -0.131,1.152 -1.606,0.707 -2.532,1.295 -4.217,1.85 -0.125,0.041 -0.275,0.121 -0.326,0.219 -0.137,0.259 -0.232,0.535 -0.331,0.81 -0.061,0.175 -0.115,0.34 -0.339,0.424 -0.06,0.022 -0.116,0.122 -0.114,0.187 0.012,0.635 -0.214,1.098 0.065,1.347 0.507,0.456 0.391,1.015 0.645,1.292 0.254,0.279 0.882,2.242 0.763,2.495 -0.12,0.251 -0.546,0.134 -0.446,0.256 0.391,0.482 0.511,1.455 0.491,2.253 0.069,-0.145 0.108,-0.303 0.108,-0.475 v -0.164 l 2.485,1.615 -6.743,4.384" />
    </clipPath>
    <clipPath
       id="clipPath89090"
       clipPathUnits="userSpaceOnUse">
      <path
         id="path89088"
         d="m 424.567,377.499 c -0.021,-0.023 -0.041,-0.048 -0.059,-0.076 -0.153,-0.227 -0.414,-0.29 -0.658,-0.29 -0.185,0 -0.359,0.036 -0.468,0.065 l -0.008,0.051 -0.056,-0.008 v -0.652 h 2.483 l -0.142,0.91" />
    </clipPath>
    <clipPath
       id="clipPath89106"
       clipPathUnits="userSpaceOnUse">
      <path
         id="path89104"
         d="m 423.156,388.526 c -0.159,-0.05 -0.29,-0.177 -0.339,-0.349 l -1.533,-5.421 v -0.844 c 0.063,-0.073 0.148,-0.13 0.248,-0.158 l 2.853,-0.807 c 0.045,-0.013 0.09,-0.019 0.135,-0.019 0.059,0 0.116,0.01 0.171,0.029 -0.107,0.082 -0.222,0.188 -0.33,0.326 -0.231,0.197 -0.265,0.304 -0.27,0.356 -0.043,0.175 -0.075,0.236 -0.092,0.264 l -0.027,0.064 c -0.079,0.119 -0.086,0.279 -0.045,0.392 0.012,0.036 0.032,0.065 0.053,0.092 l -2.208,0.623 1.318,4.66 3.101,-0.877 -0.985,-3.48 v -0.004 c 0.022,-0.122 0.052,-0.283 0.076,-0.404 0.029,0.009 0.061,0.017 0.096,0.02 0.011,0.001 0.024,0.002 0.039,0.002 0.022,0 0.048,-0.002 0.076,-0.008 l 1.163,4.108 c 0.077,0.273 -0.081,0.557 -0.355,0.634 l -2.833,0.801 z m 0.918,-0.712 0.04,0.144 1.321,-0.374 -0.04,-0.144 z m 1.745,-0.558 c -0.07,0.019 -0.112,0.091 -0.092,0.161 0.016,0.057 0.07,0.095 0.127,0.095 0.011,0 0.024,-0.002 0.035,-0.004 0.071,-0.02 0.111,-0.093 0.091,-0.163 -0.015,-0.058 -0.067,-0.095 -0.125,-0.095 -0.013,0 -0.024,0.002 -0.036,0.006 m -3.314,-5.21 0.105,0.371 1.203,-0.34 -0.105,-0.371 z m 0.797,5.103 -0.296,-1.044 0.041,-0.072 0.969,-0.275 10e-4,0.002 0.07,0.039 0.296,1.045 -0.039,0.072 -0.969,0.274 z m -0.239,-1.061 0.295,1.046 0.97,-0.274 -0.296,-1.045 z m 0.07,0.041 0.86,-0.243 0.263,0.934 -0.858,0.243 z m -0.36,-0.55 c -0.023,-0.081 0.025,-0.167 0.107,-0.191 l 2.289,-0.647 c 0.014,-0.004 0.029,-0.005 0.043,-0.005 0.068,0 0.13,0.044 0.149,0.111 0.023,0.083 -0.025,0.168 -0.105,0.192 l -2.291,0.648 c -0.014,0.003 -0.029,0.005 -0.043,0.005 -0.068,0 -0.13,-0.045 -0.149,-0.113 m -0.192,-0.624 c -0.024,-0.083 0.025,-0.166 0.108,-0.19 l 2.024,-0.572 0.018,0.002 c 0.008,0.001 0.015,0.001 0.023,0.001 0.07,0 0.136,-0.028 0.19,-0.069 l 0.033,-0.01 c 0.015,-0.003 0.029,-0.005 0.044,-0.005 0.067,0 0.129,0.044 0.148,0.112 0.023,0.082 -0.024,0.168 -0.108,0.191 l -2.289,0.647 c -0.014,0.005 -0.028,0.007 -0.042,0.007 -0.068,0 -0.129,-0.045 -0.149,-0.114 m -0.181,-0.641 c -0.024,-0.082 0.024,-0.168 0.107,-0.191 l 1.688,-0.478 c -0.005,0.066 -0.01,0.129 -0.015,0.2 -0.001,0.046 0.003,0.088 0.007,0.126 l -1.596,0.451 c -0.014,0.004 -0.028,0.006 -0.042,0.006 -0.068,0 -0.13,-0.045 -0.149,-0.114 m 2.087,-0.593 c 0.146,-0.817 0.257,-1.233 0.257,-1.233 -0.011,-0.052 0.213,-0.74 0.06,-0.778 -0.1,0.035 -0.247,0.251 -0.247,0.251 l -0.192,0.248 c -0.072,0.071 -0.133,0.1 -0.179,0.1 -0.143,0 -0.154,-0.273 -0.031,-0.374 -0.006,-0.051 0.047,-0.031 0.16,-0.353 0.008,-0.077 0.254,-0.247 0.254,-0.247 0.327,-0.348 0.696,-0.443 0.696,-0.443 0.188,-0.105 0.111,-0.204 0.111,-0.204 l 1.165,0.221 0.02,0.218 c 0.156,0.531 -0.065,1.198 -0.065,1.198 -0.031,0.3 -0.298,0.33 -0.404,0.33 -0.027,0 -0.043,-0.002 -0.043,-0.002 -0.071,0.124 -0.158,0.161 -0.235,0.161 -0.113,0 -0.208,-0.083 -0.208,-0.083 -0.073,0.105 -0.153,0.138 -0.224,0.138 -0.135,0 -0.244,-0.123 -0.244,-0.123 -0.038,0.002 -0.324,1.12 -0.356,1.12 -0.039,0.088 -0.127,0.173 -0.198,0.173 -0.069,0 -0.122,-0.081 -0.097,-0.318" />
    </clipPath>
    <clipPath
       id="clipPath89162"
       clipPathUnits="userSpaceOnUse">
      <path
         style="clip-rule:evenodd"
         id="path89160"
         d="M 194.28,753.899 H 319.62 V 550.979 H 194.28 Z" />
    </clipPath>
    <clipPath
       id="clipPath89170"
       clipPathUnits="userSpaceOnUse">
      <path
         style="clip-rule:evenodd"
         id="path89168"
         d="M 204.12,761.939 H 309.78 V 547.799 H 204.12 Z" />
    </clipPath>
    <clipPath
       id="clipPath89178"
       clipPathUnits="userSpaceOnUse">
      <path
         id="path89176"
         d="M 0.03,1191.03 H 842.01 V 0.03 H 0.03 Z" />
    </clipPath>
    <clipPath
       id="clipPath89298"
       clipPathUnits="userSpaceOnUse">
      <path
         style="clip-rule:evenodd"
         id="path89296"
         d="M 205.56,517.739 H 643.5 v -94.86 H 205.56 Z" />
    </clipPath>
    <clipPath
       id="clipPath89306"
       clipPathUnits="userSpaceOnUse">
      <path
         id="path89304"
         d="M 0.03,1191.03 H 842.01 V 0.03 H 0.03 Z" />
    </clipPath>
    <clipPath
       id="clipPath89394"
       clipPathUnits="userSpaceOnUse">
      <path
         style="clip-rule:evenodd"
         id="path89392"
         d="m 207.66,515.579 h 12 v -12.72 h -12 z" />
    </clipPath>
    <clipPath
       id="clipPath89402"
       clipPathUnits="userSpaceOnUse">
      <path
         style="clip-rule:evenodd"
         id="path89400"
         d="M 205.56,517.739 H 643.5 v -94.86 H 205.56 Z" />
    </clipPath>
    <clipPath
       id="clipPath89410"
       clipPathUnits="userSpaceOnUse">
      <path
         id="path89408"
         d="M 0.03,1191.03 H 842.01 V 0.03 H 0.03 Z" />
    </clipPath>
    <clipPath
       id="clipPath89436"
       clipPathUnits="userSpaceOnUse">
      <path
         id="path89434"
         d="m 216.739,515.591 h -9.065 v -11.34 h 9.065 z" />
    </clipPath>
    <clipPath
       id="clipPath89448"
       clipPathUnits="userSpaceOnUse">
      <path
         style="clip-rule:evenodd"
         id="path89446"
         d="m 317.16,515.579 h 13.32 v -12.72 h -13.32 z" />
    </clipPath>
    <clipPath
       id="clipPath89456"
       clipPathUnits="userSpaceOnUse">
      <path
         style="clip-rule:evenodd"
         id="path89454"
         d="M 205.56,517.739 H 643.5 v -94.86 H 205.56 Z" />
    </clipPath>
    <clipPath
       id="clipPath89464"
       clipPathUnits="userSpaceOnUse">
      <path
         id="path89462"
         d="M 0.03,1191.03 H 842.01 V 0.03 H 0.03 Z" />
    </clipPath>
    <clipPath
       id="clipPath89474"
       clipPathUnits="userSpaceOnUse">
      <path
         id="path89472"
         d="m 327.088,515.586 h -9.921 v -10.839 h 9.921 z" />
    </clipPath>
    <clipPath
       id="clipPath89482"
       clipPathUnits="userSpaceOnUse">
      <path
         style="clip-rule:evenodd"
         id="path89480"
         d="m 317.16,515.579 h 9.9 v -10.8 h -9.9 z" />
    </clipPath>
    <clipPath
       id="clipPath89490"
       clipPathUnits="userSpaceOnUse">
      <path
         style="clip-rule:evenodd"
         id="path89488"
         d="m 317.16,515.579 h 13.32 v -12.72 h -13.32 z" />
    </clipPath>
    <clipPath
       id="clipPath89498"
       clipPathUnits="userSpaceOnUse">
      <path
         style="clip-rule:evenodd"
         id="path89496"
         d="M 205.56,517.739 H 643.5 v -94.86 H 205.56 Z" />
    </clipPath>
    <clipPath
       id="clipPath89506"
       clipPathUnits="userSpaceOnUse">
      <path
         id="path89504"
         d="M 0.03,1191.03 H 842.01 V 0.03 H 0.03 Z" />
    </clipPath>
    <clipPath
       id="clipPath89518"
       clipPathUnits="userSpaceOnUse">
      <path
         style="clip-rule:evenodd"
         id="path89516"
         d="m 426.66,515.579 h 13.32 v -12.72 h -13.32 z" />
    </clipPath>
    <clipPath
       id="clipPath89526"
       clipPathUnits="userSpaceOnUse">
      <path
         style="clip-rule:evenodd"
         id="path89524"
         d="M 205.56,517.739 H 643.5 v -94.86 H 205.56 Z" />
    </clipPath>
    <clipPath
       id="clipPath89534"
       clipPathUnits="userSpaceOnUse">
      <path
         id="path89532"
         d="M 0.03,1191.03 H 842.01 V 0.03 H 0.03 Z" />
    </clipPath>
    <clipPath
       id="clipPath89544"
       clipPathUnits="userSpaceOnUse">
      <path
         id="path89542"
         d="m 436.166,515.591 h -9.507 v -11.22 h 9.507 z" />
    </clipPath>
    <clipPath
       id="clipPath89556"
       clipPathUnits="userSpaceOnUse">
      <path
         style="clip-rule:evenodd"
         id="path89554"
         d="m 536.16,515.579 h 13.32 v -11.34 h -13.32 z" />
    </clipPath>
    <clipPath
       id="clipPath89564"
       clipPathUnits="userSpaceOnUse">
      <path
         style="clip-rule:evenodd"
         id="path89562"
         d="M 205.56,517.739 H 643.5 v -94.86 H 205.56 Z" />
    </clipPath>
    <clipPath
       id="clipPath89572"
       clipPathUnits="userSpaceOnUse">
      <path
         id="path89570"
         d="M 0.03,1191.03 H 842.01 V 0.03 H 0.03 Z" />
    </clipPath>
  </defs>
  <metadata
     id="metadata67973">
    <rdf:RDF>
      <cc:Work
         rdf:about="">
        <dc:format>image/svg+xml</dc:format>
        <dc:type
           rdf:resource="http://purl.org/dc/dcmitype/StillImage" />
        <dc:title />
      </cc:Work>
    </rdf:RDF>
  </metadata>
  <g
     id="layer1"
     transform="translate(-58.423777,-64.355653)">
    <g
       id="g123536" />
    <g
       id="g123498">
      <g
         transform="matrix(0.35277777,0,0,-0.35277777,62.725909,75.068103)"
         id="g89254">
        <path
           id="path89256"
           style="fill:#fdb813;fill-opacity:1;fill-rule:nonzero;stroke:none"
           d="m 0,0 1.828,0.677 3.662,-21.711 2.96,0.592 -0.947,1.259 -3.668,19.86 3.53,1.573 h 27.427 l 6.514,-2.466 -3.454,-21.706 -13.587,3.049 c -0.424,-0.855 -1.602,-1.47 -2.988,-1.47 -1.271,0 -2.367,0.516 -2.867,1.26 L 4.701,-22.021 0,0" />
      </g>
      <g
         transform="matrix(0.35277777,0,0,-0.35277777,60.415208,87.625225)"
         id="g89258">
        <path
           id="path89260"
           style="fill:#fdb813;fill-opacity:1;fill-rule:evenodd;stroke:none"
           d="m 0,0 -5.645,2.749 c 2.662,0.73 5.021,1.715 6.962,2.912 C 3.654,3.822 6.513,2.223 9.765,0.942 5.136,-3 -0.012,-5.084 -1.541,-5.712 Z m 54.365,0.34 1.54,-5.712 C 54.423,-4.763 49.545,-2.788 45.032,0.92 48.34,2.2 51.247,3.805 53.625,5.658 55.45,4.615 57.606,3.748 60.01,3.09 Z M 11.059,11.264 c 4.095,1.83 9.296,2.925 14.954,2.925 6.78,0 11.977,-1.249 16.273,-3.626 2.433,0.817 4.647,1.828 6.577,3 l 5.43,-7.205 C 47.934,2.049 38.291,-0.699 27.497,-0.699 16.714,-0.699 7.081,2.043 0.722,6.343 l 5.515,7.319 c 1.453,-0.896 3.07,-1.701 4.822,-2.398 z M 30.435,9.488 c -3.232,1.212 -4.428,1.882 -11.221,1.882 -2.213,0 -4.453,-0.279 -6.575,-0.692 4.391,-1.518 9.517,-2.389 14.992,-2.389 3.647,0 7.138,0.386 10.362,1.092 -1.812,-0.18 -4.259,-0.216 -7.558,0.107" />
      </g>
      <g
         transform="matrix(0.35277777,0,0,-0.35277777,72.117209,69.372506)"
         id="g89262">
        <path
           id="path89264"
           style="fill:#fdb813;fill-opacity:1;fill-rule:nonzero;stroke:none"
           d="m 0,0 c 0,-2.422 -0.638,-3.297 -1.268,-4.678 h -0.31 v 0.089 c 0,3.157 -2.421,3.542 -2.848,7.476 -0.584,-1.902 0.369,-3.314 0.236,-5.418 -0.039,-0.621 -0.115,-1.105 -0.227,-1.538 -0.311,4.282 -2.455,5.967 -2.455,9.698 0,3.632 2.61,5.149 2.757,8.592 0.459,-2.813 -0.209,-3.555 -0.18,-5.975 0.046,-3.719 1.117,-3.8 1.769,-5.95 l 0.01,0.128 C -2.335,4.654 -3.405,5.67 -2.692,7.957 -2.609,4.525 0,3.364 0,0 Z M -4.422,-4.089 C -4.476,-4.294 -4.539,-4.487 -4.61,-4.678 h -4.446 c -0.559,1.554 -1.268,2.472 -1.034,4.927 0.353,3.686 2.485,4.773 2.631,8.024 0.492,-1.88 -0.358,-3.485 -0.233,-5.765 0.155,-2.84 0.797,-2.829 1.376,-4.226 0.078,0.647 0.275,1.404 0.687,2.335 -0.038,-3.017 0.694,-3.771 1.207,-4.706" />
      </g>
      <g
         transform="matrix(0.35277777,0,0,-0.35277777,68.564029,71.620406)"
         id="g89266">
        <path
           id="path89268"
           style="fill:#fdb813;fill-opacity:1;fill-rule:nonzero;stroke:none"
           d="M 0,0 C 0,0.495 0.31,0.896 0.693,0.896 H 8.821 C 9.204,0.896 9.515,0.495 9.515,0 9.515,-0.496 9.204,-0.898 8.821,-0.898 H 0.693 C 0.31,-0.898 0,-0.496 0,0" />
      </g>
      <g
         transform="matrix(0.35277777,0,0,-0.35277777,68.700909,80.915747)"
         id="g89270">
        <path
           id="path89272"
           style="fill:#ffffff;fill-opacity:1;fill-rule:nonzero;stroke:none"
           d="m 0,0 c -2.376,-0.181 -2.554,-1.226 -6.256,-2.572 -0.464,-0.169 -2.434,-0.562 -3.493,0.221 -0.436,3.539 -2.182,15.04 -3.056,21.011 6.985,2.654 7.567,6.857 12.078,5.309 2.094,-0.72 3.236,-2.58 4.946,-4.514 0.01,0.011 2.867,3.538 4.949,4.252 4.511,1.548 5.094,-2.654 12.078,-5.307 C 20.373,12.428 18.627,0.927 18.19,-2.611 17.133,-3.395 15.162,-3.002 14.698,-2.832 10.996,-1.487 10.817,-0.442 8.442,-0.26 6.626,-0.122 4.22,-2.166 4.22,-2.166 4.077,-2.309 1.815,0.139 0,0" />
      </g>
      <g
         transform="matrix(0.35277777,0,0,-0.35277777,68.700909,80.915747)"
         id="g89274">
        <path
           id="path89276"
           style="fill:none;stroke:#fdb813;stroke-width:2.032;stroke-linecap:butt;stroke-linejoin:miter;stroke-miterlimit:3.864;stroke-dasharray:none;stroke-opacity:1"
           d="m 0,0 c -2.376,-0.181 -2.554,-1.226 -6.256,-2.572 -0.464,-0.169 -2.434,-0.562 -3.493,0.221 -0.436,3.539 -2.182,15.04 -3.056,21.011 6.985,2.654 7.567,6.857 12.078,5.309 2.094,-0.72 3.236,-2.58 4.946,-4.514 0.01,0.011 2.867,3.538 4.949,4.252 4.511,1.548 5.094,-2.654 12.078,-5.307 C 20.373,12.428 18.627,0.927 18.19,-2.611 17.133,-3.395 15.162,-3.002 14.698,-2.832 10.996,-1.487 10.817,-0.442 8.442,-0.26 6.626,-0.122 4.22,-2.166 4.22,-2.166 4.077,-2.309 1.815,0.139 0,0 Z" />
      </g>
      <g
         transform="matrix(0.35277777,0,0,-0.35277777,75.304909,86.340055)"
         id="g89278">
        <path
           id="path89280"
           style="fill:#ffffff;fill-opacity:1;fill-rule:evenodd;stroke:none"
           d="M 0,0 0.018,-0.057 0.206,0 Z m -3.859,0 c 0.366,-0.65 0.918,-0.899 1.507,-0.763 0.451,0.105 0.739,0.38 0.887,0.763 h -0.807 c -0.064,-0.044 -0.138,-0.076 -0.22,-0.095 -0.19,-0.044 -0.355,-0.004 -0.498,0.096 z m -3.718,0 0.053,-0.331 c 0.067,-0.372 0.18,-0.663 0.382,-0.864 0.331,-0.326 0.761,-0.343 1.042,-0.298 0.739,0.117 1.156,0.582 1.046,1.492 L -5.722,0 -5.716,-0.029 c 0.071,-0.451 -0.066,-0.738 -0.503,-0.807 -0.296,-0.047 -0.579,0.141 -0.66,0.66 L -6.907,0 Z m -3.149,0 0.167,-1.908 2.174,0.189 -0.06,0.68 -1.53,-0.134 L -10.079,0 Z m -6.531,0 -0.035,-1.984 2.348,-0.041 0.012,0.666 -1.713,0.03 0.016,0.976 1.507,-0.026 0.006,0.379 z m -3.755,0 c -0.043,-1.168 0.474,-1.823 1.25,-1.89 0.771,-0.068 1.258,0.465 1.459,1.269 l -0.644,0.056 c -0.118,-0.454 -0.387,-0.678 -0.743,-0.647 -0.508,0.045 -0.686,0.591 -0.66,1.212 z m -1.607,0 -0.201,-1.43 0.639,-0.089 0.214,1.519 z m -3.366,0 -0.16,-0.821 0.634,-0.123 0.183,0.944 z m -3.151,0 c 0.154,-0.146 0.374,-0.272 0.686,-0.356 0.209,-0.056 0.852,-0.162 1.251,0.356 h -1.937" />
      </g>
      <g
         transform="matrix(0.35277777,0,0,-0.35277777,62.465909,85.412955)"
         id="g89282">
        <path
           id="path89284"
           style="fill:#ffffff;fill-opacity:1;fill-rule:evenodd;stroke:none"
           d="M 0,0 0.58,-0.257 1.18,1.09 1.79,0.818 C 2.226,0.624 2.168,0.43 1.959,-0.039 1.801,-0.394 1.746,-0.581 1.713,-0.761 l 0.652,-0.292 0.041,0.091 C 2.306,-0.848 2.361,-0.723 2.585,-0.22 2.871,0.423 2.793,0.584 2.616,0.812 2.945,0.804 3.247,1.06 3.416,1.439 3.548,1.736 3.712,2.473 2.96,2.808 L 1.533,3.443 Z M 1.438,1.67 1.848,2.591 2.582,2.264 C 2.928,2.11 2.875,1.812 2.794,1.63 2.642,1.289 2.435,1.226 2.129,1.363 Z M 6.897,1.346 4.746,2.086 3.518,-1.477 5.739,-2.243 5.956,-1.612 4.336,-1.055 4.654,-0.131 6.078,-0.622 6.296,0.01 4.871,0.5 5.129,1.249 6.68,0.714 Z m 4.369,-2.945 0.212,1.086 0.503,-0.097 c 0.393,-0.076 0.529,-0.258 0.459,-0.618 -0.032,-0.166 -0.113,-0.578 -0.586,-0.486 z m 29.897,4.609 -0.867,-0.35 0.601,-2.962 -1.64,2.543 -0.873,-0.354 1.411,-3.494 0.56,0.225 -1.18,2.921 1.712,-2.706 0.586,0.237 -0.647,3.136 1.189,-2.917 0.559,0.227 z m -4.563,-5.638 2.059,0.629 -0.195,0.638 -1.64,-0.501 -0.285,0.932 1.44,0.441 -0.194,0.639 -1.44,-0.441 -0.233,0.758 1.569,0.48 -0.195,0.637 -2.176,-0.666 1.084,-3.546 z m -1.672,0 c 0.098,0.257 0.133,0.562 0.109,0.894 L 34.41,-1.879 c 0.02,-0.355 -0.084,-0.611 -0.288,-0.75 z m -1.524,0 c -0.259,0.18 -0.439,0.559 -0.538,0.986 -0.241,1.038 0.147,1.385 0.449,1.456 0.519,0.12 0.713,-0.272 0.814,-0.481 l 0.628,0.145 c -0.158,0.535 -0.697,1.208 -1.6,0.999 -0.776,-0.179 -1.234,-0.973 -0.937,-2.258 0.076,-0.334 0.183,-0.616 0.315,-0.847 z m -2.064,0 c -0.003,0.033 -0.009,0.069 -0.014,0.105 l -0.384,2.422 -0.652,-0.104 0.382,-2.423 z m -1.853,0 -0.355,2.24 -0.652,-0.103 0.337,-2.137 z m -3.172,0 -0.165,1.902 -0.644,-0.055 0.161,-1.847 z m -5.037,0 0.006,0.287 -1.507,0.027 0.014,0.792 1.64,-0.028 0.012,0.666 -2.275,0.04 -0.031,-1.784 z m -5.234,0 c 0.001,0.045 0.004,0.091 0.008,0.138 0.094,1.06 0.57,1.271 0.878,1.244 0.532,-0.046 0.594,-0.479 0.626,-0.708 l 0.643,-0.057 c 0.014,0.558 -0.291,1.365 -1.214,1.445 -0.793,0.07 -1.475,-0.545 -1.59,-1.858 -0.006,-0.07 -0.011,-0.138 -0.013,-0.204 z m -1.618,0 0.311,2.213 -0.639,0.089 -0.323,-2.302 z m -3.36,0 0.076,0.39 0.728,-0.142 c 0.815,-0.159 1.132,0.657 1.197,0.992 0.141,0.726 -0.125,1.254 -0.712,1.368 l -1.387,0.27 -0.559,-2.878 z m -1.871,0 c 0.1,0.129 0.185,0.3 0.245,0.519 0.175,0.655 -0.145,0.958 -0.52,1.189 l -0.669,0.413 c -0.115,0.069 -0.29,0.181 -0.214,0.465 0.088,0.33 0.399,0.36 0.636,0.297 C 9.218,0.109 9.164,-0.29 9.138,-0.456 L 9.736,-0.617 C 9.851,-0.17 9.802,0.627 8.888,0.871 7.918,1.131 7.548,0.465 7.439,0.058 7.224,-0.742 7.655,-0.999 8.101,-1.266 L 8.397,-1.442 C 8.689,-1.619 8.893,-1.756 8.817,-2.039 8.714,-2.424 8.361,-2.422 8.066,-2.344 7.52,-2.197 7.54,-1.789 7.59,-1.586 L 6.992,-1.425 C 6.906,-1.749 6.872,-2.256 7.258,-2.628 h 1.937" />
      </g>
      <g
         transform="matrix(0.35277777,0,0,-0.35277777,74.847709,78.665378)"
         id="g89286">
        <path
           id="path89288"
           style="fill:#fdb813;fill-opacity:1;fill-rule:evenodd;stroke:none"
           d="m 0,0 -1.467,0.483 0.231,1.646 1.451,-0.417 z m 0.321,2.55 -1.982,0.761 0.156,1.775 2.027,-0.928 z m 0.308,2.467 -3.332,1.63 V 8.759 L 0.852,6.795 Z m 0.325,2.584 -4.468,2.636 0.076,2.111 4.636,-2.798 z m -21.067,9.587 0.205,-10.364 2.182,1.12 1.978,-1.344 -0.085,9.683 -4.28,0.905" />
      </g>
      <path
         id="path89290"
         style="fill:#fdb813;fill-opacity:1;fill-rule:nonzero;stroke:none;stroke-width:0.352778"
         d="m 69.914809,81.607192 h 0.55775 V 74.0835 h -0.55775 z" />
    </g>
  </g>
</svg>
