<?xml version="1.0" encoding="UTF-8" standalone="no"?>
<svg
   xmlns:dc="http://purl.org/dc/elements/1.1/"
   xmlns:cc="http://creativecommons.org/ns#"
   xmlns:rdf="http://www.w3.org/1999/02/22-rdf-syntax-ns#"
   xmlns:svg="http://www.w3.org/2000/svg"
   xmlns="http://www.w3.org/2000/svg"
   xmlns:sodipodi="http://sodipodi.sourceforge.net/DTD/sodipodi-0.dtd"
   xmlns:inkscape="http://www.inkscape.org/namespaces/inkscape"
   width="11.07828mm"
   height="10.91953mm"
   viewBox="0 0 11.078281 10.91953"
   version="1.1"
   id="svg67976"
   inkscape:version="1.0.1 (3bc2e813f5, 2020-09-07)"
   sodipodi:docname="loyola-college.svg">
  <defs
     id="defs67970">
    <clipPath
       id="clipPath200604"
       clipPathUnits="userSpaceOnUse">
      <path
         inkscape:connector-curvature="0"
         id="path200602"
         d="M 0,841.89 H 595.276 V 0 H 0 Z" />
    </clipPath>
  </defs>
  <sodipodi:namedview
     id="base"
     pagecolor="#ffffff"
     bordercolor="#666666"
     borderopacity="1.0"
     inkscape:pageopacity="0.0"
     inkscape:pageshadow="2"
     inkscape:zoom="3.959798"
     inkscape:cx="137.75911"
     inkscape:cy="43.358225"
     inkscape:document-units="mm"
     inkscape:current-layer="g200600"
     showgrid="false"
     fit-margin-top="0"
     fit-margin-left="0"
     fit-margin-right="0"
     fit-margin-bottom="0"
     inkscape:pagecheckerboard="true"
     inkscape:window-width="1920"
     inkscape:window-height="1000"
     inkscape:window-x="1920"
     inkscape:window-y="0"
     inkscape:window-maximized="1"
     inkscape:document-rotation="0" />
  <metadata
     id="metadata67973">
    <rdf:RDF>
      <cc:Work
         rdf:about="">
        <dc:format>image/svg+xml</dc:format>
        <dc:type
           rdf:resource="http://purl.org/dc/dcmitype/StillImage" />
        <dc:title />
      </cc:Work>
    </rdf:RDF>
  </metadata>
  <g
     inkscape:label="Layer 1"
     inkscape:groupmode="layer"
     id="layer1"
     transform="translate(1437.3914,580.04869)">
    <g
       id="g200600"
       clip-path="url(#clipPath200604)"
       transform="matrix(0.35277777,0,0,-0.35277777,-1513.9989,-514.33071)">
      <g
         id="g200610"
         transform="translate(223.8628,185.7433)">
        <path
           d="m 0,0 c -0.336,-0.137 -0.58,-0.484 -0.578,-0.85 0.002,-1.111 -0.002,-2.223 0.002,-3.336 0.002,-0.186 0.191,-0.293 0.36,-0.296 0.155,-0.157 0.32,-0.305 0.476,-0.462 -0.224,-0.006 -0.45,0.008 -0.674,-0.007 -0.198,-0.023 -0.333,-0.256 -0.259,-0.441 0.034,-0.105 0.13,-0.17 0.213,-0.235 0.383,-0.288 0.733,-0.616 1.094,-0.933 0.409,-0.387 0.797,-0.813 1.068,-1.312 0.203,-0.386 0.305,-0.822 0.308,-1.258 -10e-4,-3.119 0,-6.238 -10e-4,-9.357 -0.011,-0.389 0.062,-0.783 0.229,-1.135 0.206,-0.385 0.495,-0.718 0.815,-1.013 -2.789,-0.002 -5.577,0 -8.365,-10e-4 -0.484,0.004 -0.924,-0.425 -0.923,-0.91 0.001,-0.99 0,-1.98 0.001,-2.97 0.008,-0.479 0.443,-0.895 0.92,-0.898 2.406,-0.004 4.814,-10e-4 7.22,-10e-4 -0.263,-0.598 -0.53,-1.194 -0.791,-1.793 -0.159,-0.362 -0.053,-0.815 0.24,-1.078 0.149,-0.137 0.345,-0.201 0.528,-0.277 1.34,-0.541 2.74,-0.929 4.166,-1.152 3.349,-0.528 6.838,-0.137 9.983,1.129 0.177,0.074 0.366,0.132 0.522,0.247 0.288,0.212 0.434,0.597 0.362,0.946 -0.031,0.164 -0.111,0.311 -0.176,0.461 -0.222,0.506 -0.45,1.009 -0.67,1.516 2.395,0.001 4.79,0 7.185,0.001 0.393,-0.007 0.774,0.257 0.903,0.629 0.071,0.187 0.053,0.39 0.054,0.586 0,0.87 -0.001,1.74 0,2.61 0.02,0.496 -0.415,0.953 -0.911,0.954 -2.793,0 -5.586,0.003 -8.379,-0.002 0.24,0.228 0.47,0.468 0.651,0.746 0.264,0.367 0.381,0.822 0.395,1.269 v 8.909 c 0.004,0.436 -0.032,0.882 0.095,1.306 0.172,0.664 0.635,1.198 1.1,1.68 0.444,0.414 0.898,0.817 1.379,1.186 0.209,0.152 0.142,0.521 -0.112,0.583 -0.236,0.033 -0.476,0.004 -0.713,0.015 0.138,0.134 0.27,0.275 0.41,0.409 0.083,0.085 0.222,0.056 0.31,0.133 0.084,0.062 0.123,0.166 0.118,0.268 -0.001,1.095 0,2.19 0,3.284 0.002,0.489 -0.434,0.928 -0.923,0.922 C 11.978,0.07 6.323,0.072 0.668,0.071 0.445,0.067 0.209,0.099 0,0 m -0.076,0.295 c 0.221,0.099 0.466,0.082 0.701,0.08 5.685,0 11.369,0.002 17.053,-0.001 0.634,-0.02 1.182,-0.593 1.181,-1.225 0,-1.035 -0.002,-2.07 0,-3.105 -0.002,-0.148 0.015,-0.306 -0.052,-0.443 -0.049,-0.118 -0.141,-0.205 -0.232,-0.288 0.287,-0.123 0.468,-0.461 0.372,-0.765 -0.041,-0.148 -0.138,-0.274 -0.261,-0.363 -0.334,-0.251 -0.648,-0.526 -0.958,-0.805 -0.369,-0.304 -0.692,-0.659 -0.972,-1.046 -0.307,-0.406 -0.48,-0.909 -0.485,-1.419 0,-3.18 0,-6.359 10e-4,-9.538 -0.004,-0.309 -0.067,-0.615 -0.169,-0.905 -0.101,-0.299 -0.29,-0.554 -0.478,-0.804 H 23.3 c 0.64,-0.002 1.215,-0.571 1.216,-1.213 v -2.972 c -0.01,-0.636 -0.58,-1.189 -1.213,-1.201 -2.257,-0.004 -4.512,0 -6.768,-0.002 0.205,-0.476 0.422,-0.947 0.624,-1.425 0.235,-0.584 -0.068,-1.305 -0.637,-1.564 -3.381,-1.449 -7.184,-1.891 -10.808,-1.258 -1.457,0.253 -2.887,0.67 -4.247,1.252 -0.58,0.254 -0.888,0.986 -0.649,1.574 0.203,0.476 0.417,0.947 0.623,1.421 -2.253,0.002 -4.505,-0.001 -6.758,10e-4 -0.655,0.005 -1.239,0.593 -1.223,1.25 0.002,0.868 0.001,1.738 0.001,2.606 10e-4,0.221 -0.019,0.451 0.059,0.665 0.156,0.493 0.644,0.867 1.166,0.867 2.554,-0.001 5.109,0 7.664,-0.001 -0.23,0.3 -0.446,0.622 -0.539,0.993 -0.145,0.466 -0.099,0.957 -0.105,1.438 0,2.909 -10e-4,5.817 0,8.726 -10e-4,0.279 -0.036,0.559 -0.126,0.822 -0.181,0.552 -0.579,0.995 -0.972,1.408 -0.438,0.403 -0.885,0.799 -1.357,1.164 -0.172,0.131 -0.267,0.355 -0.241,0.57 0.026,0.232 0.185,0.435 0.398,0.526 -0.194,0.132 -0.308,0.36 -0.3,0.594 0,1.065 -0.004,2.129 0.002,3.194 -0.006,0.515 0.33,1.011 0.814,1.192"
           style="fill:#ffffff;fill-opacity:1;fill-rule:nonzero;stroke:none"
           id="path200612"
           inkscape:connector-curvature="0" />
      </g>
      <g
         id="g200614"
         transform="translate(237.5176,182.6925)">
        <path
           d="M 0,0 C -0.029,-0.105 -0.077,-0.21 -0.071,-0.321 -0.05,-0.395 0.037,-0.413 0.104,-0.409 0.333,-0.41 0.563,-0.414 0.792,-0.402 0.755,-0.283 0.617,-0.242 0.569,-0.129 0.494,0 0.528,0.153 0.571,0.288 0.787,0.285 1.003,0.305 1.221,0.299 1.262,0.119 1.294,-0.064 1.364,-0.236 1.397,-0.31 1.445,-0.404 1.539,-0.406 1.831,-0.415 2.123,-0.407 2.415,-0.408 2.409,-0.306 2.307,-0.269 2.242,-0.207 2.105,-0.094 2.026,0.07 1.963,0.233 1.719,0.866 1.471,1.498 1.226,2.131 1.119,2.132 1.012,2.133 0.906,2.135 0.522,1.462 0.224,0.741 0,0 M -2.238,2.127 C -2.18,2.07 -2.116,2.02 -2.061,1.961 c 0.03,-0.294 -0.007,-0.59 -0.002,-0.885 0.009,-0.495 -0.028,-0.99 -0.004,-1.485 0.572,0 1.144,-0.001 1.716,0 0.033,0.254 0.082,0.506 0.107,0.762 -0.193,-0.101 -0.278,-0.332 -0.484,-0.417 -0.23,-0.145 -0.517,-0.108 -0.744,0.02 C -1.488,0.679 -1.464,1.4 -1.492,2.122 -1.74,2.14 -1.99,2.134 -2.238,2.127 M -7.107,2.12 c 0.065,-0.092 0.168,-0.147 0.239,-0.235 0.157,-0.191 0.245,-0.424 0.346,-0.647 0.078,-0.193 0.167,-0.383 0.225,-0.584 0.016,-0.294 -0.001,-0.589 0.005,-0.883 -0.005,-0.066 0.026,-0.125 0.051,-0.183 0.245,0.006 0.491,0 0.736,0.004 0.014,0.143 -0.186,0.17 -0.178,0.308 10e-4,0.243 -0.009,0.485 -0.014,0.727 -0.016,0.112 0.085,0.184 0.143,0.266 0.251,0.293 0.406,0.659 0.479,1.035 0.021,0.071 -0.002,0.141 -0.026,0.208 -0.218,-0.008 -0.437,0 -0.656,-0.007 C -5.706,2.003 -5.514,2.021 -5.474,1.882 -5.482,1.576 -5.638,1.293 -5.836,1.068 -6,1.418 -6.137,1.783 -6.333,2.116 -6.588,2.149 -6.85,2.134 -7.107,2.12 M -4.01,2.127 C -4.235,2.072 -4.442,1.948 -4.597,1.775 -5.076,1.264 -5.041,0.374 -4.546,-0.114 c 0.448,-0.459 1.277,-0.418 1.702,0.052 0.542,0.549 0.445,1.57 -0.179,2.018 -0.284,0.198 -0.654,0.258 -0.987,0.171 M -8.417,2.126 C -8.67,2.061 -8.905,1.914 -9.063,1.703 -9.479,1.174 -9.42,0.33 -8.928,-0.131 c 0.449,-0.441 1.255,-0.392 1.678,0.061 0.531,0.535 0.455,1.516 -0.122,1.988 -0.291,0.228 -0.689,0.303 -1.045,0.208 m -3.053,0.008 c 0.04,-0.098 0.182,-0.129 0.173,-0.248 -0.008,-0.764 -0.029,-1.528 -0.018,-2.292 0.571,-0.009 1.143,0.001 1.714,-0.005 0.038,0.255 0.086,0.51 0.107,0.767 -0.183,-0.104 -0.268,-0.323 -0.465,-0.412 -0.232,-0.152 -0.536,-0.126 -0.763,0.02 0.005,0.718 -0.012,1.435 -0.013,2.153 -0.244,0.031 -0.49,0.008 -0.735,0.017 m -1.947,0.316 c 0.123,0.053 0.26,0.026 0.39,0.031 C -7.374,2.479 -1.72,2.483 3.934,2.48 4.112,2.495 4.267,2.33 4.258,2.154 4.259,1.286 4.26,0.417 4.257,-0.453 4.268,-0.648 4.077,-0.799 3.889,-0.78 c -5.699,-0.001 -11.397,0 -17.097,0 -0.191,-0.026 -0.396,0.123 -0.382,0.327 -0.002,0.87 -10e-4,1.739 -10e-4,2.608 -0.008,0.123 0.066,0.241 0.174,0.295"
           style="fill:#ffffff;fill-opacity:1;fill-rule:nonzero;stroke:none"
           id="path200616"
           inkscape:connector-curvature="0" />
      </g>
      <g
         id="g200618"
         transform="translate(229.0474,184.5626)">
        <path
           d="M 0,0 C 0.103,0.051 0.228,0.048 0.33,-0.006 0.585,-0.13 0.75,-0.38 0.864,-0.632 1.006,-0.967 1.061,-1.356 0.935,-1.705 0.872,-1.875 0.715,-2.03 0.521,-2.011 c -0.211,0.03 -0.38,0.186 -0.5,0.354 -0.256,0.37 -0.387,0.847 -0.278,1.292 C -0.216,-0.222 -0.137,-0.072 0,0"
           style="fill:#ffffff;fill-opacity:1;fill-rule:nonzero;stroke:none"
           id="path200620"
           inkscape:connector-curvature="0" />
      </g>
      <g
         id="g200622"
         transform="translate(233.4551,184.5626)">
        <path
           d="M 0,0 C 0.202,0.103 0.418,-0.036 0.562,-0.176 0.841,-0.475 0.997,-0.884 1,-1.292 0.995,-1.512 0.957,-1.756 0.788,-1.913 0.69,-2.012 0.535,-2.037 0.407,-1.986 c -0.19,0.078 -0.34,0.229 -0.442,0.404 -0.22,0.363 -0.337,0.813 -0.226,1.231 C -0.218,-0.21 -0.14,-0.062 0,0"
           style="fill:#ffffff;fill-opacity:1;fill-rule:nonzero;stroke:none"
           id="path200624"
           inkscape:connector-curvature="0" />
      </g>
      <g
         id="g200626"
         transform="translate(238.1396,183.171)">
        <path
           d="M 0,0 C 0.07,0.265 0.172,0.52 0.306,0.757 0.369,0.562 0.429,0.365 0.477,0.165 0.303,0.153 0.113,0.155 0,0"
           style="fill:#ffffff;fill-opacity:1;fill-rule:nonzero;stroke:none"
           id="path200628"
           inkscape:connector-curvature="0" />
      </g>
      <g
         id="g200630"
         transform="translate(224.5659,181.2706)">
        <path
           d="M 0,0 C 5.524,0.001 11.047,-0.002 16.571,0.001 16.419,-0.159 16.259,-0.312 16.105,-0.472 10.893,-0.474 5.681,-0.472 0.469,-0.473 0.312,-0.314 0.153,-0.16 0,0"
           style="fill:#ffffff;fill-opacity:1;fill-rule:nonzero;stroke:none"
           id="path200632"
           inkscape:connector-curvature="0" />
      </g>
      <g
         id="g200634"
         transform="translate(224.7656,179.9992)">
        <path
           d="m 0,0 c 0.542,-0.45 1.022,-0.979 1.398,-1.575 0.303,-0.504 0.474,-1.086 0.496,-1.674 0.002,-0.198 0,-0.397 -10e-4,-0.596 1.402,-0.003 2.805,-10e-4 4.208,0 -0.001,1.282 0,2.564 0,3.845 C 4.067,0.001 2.033,0.002 0,0 m -0.381,0.157 c 2.209,0.002 4.418,0 6.627,0.001 0.003,-1.382 -0.002,-2.765 0.003,-4.147 -1.499,-0.01 -2.998,0.004 -4.497,-0.007 -0.012,0.264 10e-4,0.527 -0.006,0.791 -0.019,0.401 -0.112,0.8 -0.272,1.169 -0.211,0.487 -0.55,0.906 -0.902,1.299 -0.29,0.327 -0.639,0.591 -0.953,0.894"
           style="fill:#ffffff;fill-opacity:1;fill-rule:nonzero;stroke:none"
           id="path200636"
           inkscape:connector-curvature="0" />
      </g>
      <g
         id="g200638"
         transform="translate(231.1479,180.1574)">
        <path
           d="m 0,0 h 0.314 c 0.001,-1.582 0.001,-3.165 0,-4.747 -1.649,0 -3.299,10e-4 -4.948,0 -0.002,0.154 -0.002,0.31 0.002,0.464 C -3.088,-4.288 -1.545,-4.284 0,-4.285 0,-2.857 -0.001,-1.428 0,0"
           style="fill:#ffffff;fill-opacity:1;fill-rule:nonzero;stroke:none"
           id="path200640"
           inkscape:connector-curvature="0" />
      </g>
      <g
         id="g200642"
         transform="translate(231.5981,180.1574)">
        <path
           d="m 0,0 c 0.835,-0.001 1.671,0 2.507,0 10e-4,-1.627 -0.001,-3.255 10e-4,-4.882 1.695,10e-4 3.389,10e-4 5.084,0 -10e-4,-0.679 -10e-4,-1.356 0,-2.035 -1.695,-0.001 -3.39,0 -5.085,0 10e-4,-3.312 0,-6.625 10e-4,-9.937 -0.448,-0.351 -0.871,-0.735 -1.251,-1.159 -0.389,0.416 -0.808,0.805 -1.258,1.155 v 9.941 h -5.084 v 2.035 c 1.694,0 3.389,10e-4 5.083,0 C 0,-3.254 -0.002,-1.627 0,0"
           style="fill:#ffffff;fill-opacity:1;fill-rule:nonzero;stroke:none"
           id="path200644"
           inkscape:connector-curvature="0" />
      </g>
      <g
         id="g200646"
         transform="translate(234.2363,180.1515)">
        <path
           d="m 0,0 c 0.102,0.005 0.205,0.007 0.308,0.006 0,-1.428 0,-2.857 0,-4.285 1.549,-0.004 3.099,0.005 4.648,-0.004 C 4.953,-4.436 4.953,-4.588 4.953,-4.741 H 0.004 C 0.001,-3.161 0.01,-1.581 0,0"
           style="fill:#ffffff;fill-opacity:1;fill-rule:nonzero;stroke:none"
           id="path200648"
           inkscape:connector-curvature="0" />
      </g>
      <g
         id="g200650"
         transform="translate(234.8364,180.0001)">
        <path
           d="m 0,0 v -3.847 c 1.401,-0.002 2.802,0.002 4.203,-0.002 0.013,0.289 -0.014,0.579 0.023,0.868 0.059,0.519 0.234,1.025 0.513,1.466 0.369,0.572 0.839,1.073 1.355,1.512 C 4.062,0.002 2.031,-0.002 0,0 m -0.145,0.158 c 2.21,-0.002 4.42,-0.001 6.63,0 C 6.16,-0.145 5.81,-0.422 5.513,-0.754 5.056,-1.255 4.636,-1.821 4.467,-2.49 4.32,-2.978 4.354,-3.489 4.355,-3.99 2.854,-3.997 1.354,-3.992 -0.146,-3.993 c 0.001,1.384 -0.002,2.767 0.001,4.151"
           style="fill:#ffffff;fill-opacity:1;fill-rule:nonzero;stroke:none"
           id="path200652"
           inkscape:connector-curvature="0" />
      </g>
      <g
         id="g200654"
         transform="translate(226.5132,173.1046)">
        <path
           d="m 0,0 h 4.949 v -9.702 c -0.104,0.076 -0.209,0.151 -0.315,0.225 0,3.005 10e-4,6.011 0,9.017 C 3.089,-0.461 1.544,-0.461 0,-0.461 Z"
           style="fill:#ffffff;fill-opacity:1;fill-rule:nonzero;stroke:none"
           id="path200656"
           inkscape:connector-curvature="0" />
      </g>
      <g
         id="g200658"
         transform="translate(234.2402,173.1046)">
        <path
           d="M 0,0 C 1.65,0 3.3,0.001 4.949,-0.001 4.937,-0.149 4.977,-0.323 4.929,-0.457 3.388,-0.465 1.847,-0.459 0.305,-0.46 0.303,-3.467 0.303,-6.474 0.305,-9.48 0.204,-9.554 0.102,-9.625 0,-9.698 Z"
           style="fill:#ffffff;fill-opacity:1;fill-rule:nonzero;stroke:none"
           id="path200660"
           inkscape:connector-curvature="0" />
      </g>
      <g
         id="g200662"
         transform="translate(226.5181,172.5021)">
        <path
           d="M 0,0 C 1.498,-0.009 2.994,-0.004 4.492,-0.003 4.498,-0.926 4.493,-1.85 4.494,-2.772 4.491,-3.048 4.504,-3.324 4.481,-3.6 c -0.08,0.258 -0.181,0.513 -0.2,0.785 -0.015,0.17 0.105,0.309 0.165,0.46 -0.287,-0.071 -0.528,-0.31 -0.569,-0.607 0.006,0.206 -0.058,0.401 -0.116,0.596 0.047,0.095 0.122,0.181 0.131,0.293 C 3.812,-2.091 3.732,-2.11 3.653,-2.131 3.646,-2.064 3.639,-1.997 3.632,-1.931 3.47,-2.008 3.334,-2.145 3.151,-2.169 3.09,-2.179 3.041,-2.218 2.988,-2.247 2.884,-2.313 2.739,-2.235 2.641,-2.313 2.589,-2.411 2.604,-2.606 2.743,-2.615 2.893,-2.636 3.025,-2.713 3.158,-2.781 3.118,-2.926 3.004,-3.033 2.96,-3.178 2.923,-3.262 2.918,-3.363 2.863,-3.438 c -0.06,0.05 -0.107,0.119 -0.179,0.152 -0.155,0.053 -0.266,0.184 -0.428,0.222 0,0.074 0,0.148 0,0.222 0.286,0.11 0.284,0.554 0.001,0.665 -0.001,0.08 -0.002,0.159 -0.001,0.238 0.255,0.094 0.292,0.489 0.063,0.629 C 2.176,-1.217 1.986,-1.33 1.948,-1.482 1.886,-1.659 1.969,-1.875 2.152,-1.937 2.154,-2.017 2.154,-2.096 2.154,-2.175 1.864,-2.277 1.853,-2.744 2.152,-2.84 2.153,-2.915 2.154,-2.99 2.154,-3.066 1.916,-3.1 1.762,-3.301 1.598,-3.456 c -0.044,0.167 -0.093,0.336 -0.189,0.48 -0.042,0.063 -0.076,0.131 -0.086,0.205 0.152,0.076 0.307,0.142 0.473,0.175 0.073,0.068 0.061,0.184 0.046,0.273 -0.086,0.078 -0.214,0.036 -0.318,0.05 -0.07,0.047 -0.142,0.094 -0.227,0.109 -0.17,0.033 -0.299,0.158 -0.451,0.232 -0.012,-0.065 -0.022,-0.132 -0.033,-0.199 -0.08,0.021 -0.16,0.039 -0.24,0.054 0.013,-0.047 0.039,-0.141 0.053,-0.188 0.025,0.037 0.05,0.075 0.075,0.112 0.055,-0.033 0.11,-0.066 0.165,-0.099 -0.049,-0.037 -0.118,-0.054 -0.15,-0.107 -0.067,-0.194 -0.133,-0.393 -0.111,-0.6 -0.06,0.291 -0.29,0.531 -0.577,0.605 0.057,-0.153 0.178,-0.29 0.16,-0.461 -0.017,-0.258 -0.096,-0.508 -0.199,-0.744 -0.008,0.458 -0.011,0.917 0.006,1.375 C -0.001,-1.456 -0.012,-0.728 0,0"
           style="fill:#ffffff;fill-opacity:1;fill-rule:nonzero;stroke:none"
           id="path200664"
           inkscape:connector-curvature="0" />
      </g>
      <g
         id="g200666"
         transform="translate(234.689,172.4953)">
        <path
           d="M 0,0 C 0.173,0.003 0.346,0.005 0.52,0.001 0.361,-0.186 0.181,-0.354 0.003,-0.521 0,-0.348 0.002,-0.174 0,0"
           style="fill:#ffffff;fill-opacity:1;fill-rule:nonzero;stroke:none"
           id="path200668"
           inkscape:connector-curvature="0" />
      </g>
      <g
         id="g200670"
         transform="translate(236.5811,172.4962)">
        <path
           d="m 0,0 c 0.232,0.003 0.463,0.001 0.695,0.001 -0.856,-0.868 -1.722,-1.728 -2.585,-2.589 0.003,0.227 -0.009,0.454 0.004,0.681 0.055,0.093 0.145,0.159 0.219,0.237 C -1.111,-1.113 -0.553,-0.56 0,0"
           style="fill:#ffffff;fill-opacity:1;fill-rule:nonzero;stroke:none"
           id="path200672"
           inkscape:connector-curvature="0" />
      </g>
      <g
         id="g200674"
         transform="translate(238.6509,172.4962)">
        <path
           d="m 0,0 c 0.179,0.003 0.358,0.001 0.537,0.002 0.001,-0.053 0.003,-0.106 0.004,-0.159 -1.499,-1.502 -2.999,-3.002 -4.501,-4.501 0.003,0.227 -0.009,0.456 0.003,0.682 0.066,0.099 0.16,0.172 0.241,0.257 1.238,1.24 2.48,2.477 3.716,3.719"
           style="fill:#ffffff;fill-opacity:1;fill-rule:nonzero;stroke:none"
           id="path200676"
           inkscape:connector-curvature="0" />
      </g>
      <g
         id="g200678"
         transform="translate(228.561,170.9728)">
        <path
           d="m 0,0 c 0.021,0.099 0.132,0.208 0.232,0.13 0.14,-0.104 0.111,-0.317 0,-0.432 C 0.213,-0.273 0.176,-0.217 0.157,-0.188 0.14,-0.219 0.104,-0.278 0.087,-0.308 0.024,-0.22 -0.041,-0.112 0,0"
           style="fill:#ffffff;fill-opacity:1;fill-rule:nonzero;stroke:none"
           id="path200680"
           inkscape:connector-curvature="0" />
      </g>
      <g
         id="g200682"
         transform="translate(234.6929,166.4796)">
        <path
           d="M 0,0 C 1.502,1.494 2.996,2.997 4.497,4.492 4.497,4.262 4.496,4.031 4.498,3.8 2.999,2.298 1.499,0.798 -0.002,-0.701 -0.002,-0.467 -0.005,-0.233 0,0"
           style="fill:#ffffff;fill-opacity:1;fill-rule:nonzero;stroke:none"
           id="path200684"
           inkscape:connector-curvature="0" />
      </g>
      <g
         id="g200686"
         transform="translate(227.3926,170.4757)">
        <path
           d="M 0,0 C 0.088,-0.048 0.17,-0.105 0.251,-0.165 0.241,-0.185 0.223,-0.223 0.214,-0.241 0.27,-0.24 0.325,-0.24 0.381,-0.24 0.39,-0.259 0.409,-0.297 0.418,-0.316 0.549,-0.295 0.682,-0.295 0.813,-0.303 0.812,-0.318 0.81,-0.351 0.809,-0.367 0.937,-0.388 0.878,-0.471 0.837,-0.54 c -0.183,0 -0.345,-0.123 -0.533,-0.065 0.114,-0.068 0.026,-0.207 0.1,-0.296 0.101,-0.173 0.218,-0.354 0.215,-0.564 0.008,-0.099 -0.057,-0.182 -0.095,-0.27 0.158,0.105 0.27,0.262 0.42,0.377 0.076,0.049 0.17,0.019 0.254,0.021 C 1.168,-1.508 0.958,-1.434 0.871,-1.548 0.758,-1.675 0.654,-1.813 0.512,-1.911 0.321,-1.933 0.292,-1.687 0.258,-1.549 0.168,-1.746 0.305,-2.006 0.531,-2.011 0.452,-2.202 0.284,-2.331 0.134,-2.464 0.098,-2.405 0.061,-2.348 0.023,-2.29 0.025,-2.461 0.067,-2.64 0.013,-2.807 -0.065,-2.96 -0.259,-2.982 -0.371,-3.103 c -0.117,-0.108 -0.124,-0.282 -0.111,-0.43 0.031,-0.076 0.106,-0.122 0.159,-0.182 -0.1,0.01 -0.252,-0.039 -0.284,0.095 -0.046,0.175 -0.024,0.36 -0.02,0.538 0.076,0.116 0.244,0.195 0.234,0.351 -0.087,0.162 -0.174,0.326 -0.31,0.453 -0.165,0.229 -0.166,0.555 -0.04,0.803 0.145,0.318 0.201,0.693 0.042,1.015 0.216,-0.18 0.4,-0.447 0.355,-0.742 -0.018,-0.194 -0.134,-0.355 -0.25,-0.502 -0.144,-0.183 -0.104,-0.473 0.079,-0.613 0.026,0.266 0.321,0.379 0.385,0.629 0.058,0.314 -0.048,0.628 -0.028,0.945 0.016,0.195 0.063,0.408 0.236,0.524 C 0.039,-0.15 0.013,-0.076 0,0"
           style="fill:#ffffff;fill-opacity:1;fill-rule:nonzero;stroke:none"
           id="path200688"
           inkscape:connector-curvature="0" />
      </g>
      <g
         id="g200690"
         transform="translate(229.8716,170.2306)">
        <path
           d="M 0,0 C -0.011,0.135 0.143,0.188 0.246,0.229 0.228,0.158 0.2,0.091 0.164,0.028 0.344,-0.085 0.382,-0.301 0.408,-0.496 0.427,-0.826 0.303,-1.158 0.39,-1.486 0.482,-1.71 0.735,-1.833 0.776,-2.085 c 0.144,0.166 0.217,0.43 0.07,0.618 -0.128,0.164 -0.261,0.345 -0.259,0.563 -0.02,0.279 0.158,0.52 0.356,0.696 C 0.78,-0.548 0.848,-0.937 1.001,-1.266 1.103,-1.462 1.091,-1.695 1.025,-1.901 0.968,-2.063 0.802,-2.148 0.738,-2.306 0.702,-2.396 0.584,-2.493 0.659,-2.594 0.71,-2.683 0.79,-2.748 0.868,-2.812 0.854,-3.022 0.936,-3.259 0.811,-3.448 0.741,-3.492 0.647,-3.458 0.57,-3.469 c 0.057,0.071 0.162,0.12 0.163,0.222 0.001,0.124 -0.006,0.264 -0.093,0.361 -0.116,0.155 -0.366,0.168 -0.427,0.368 -0.019,0.154 -0.001,0.308 0.007,0.46 -0.039,-0.053 -0.078,-0.107 -0.116,-0.162 -0.141,0.141 -0.313,0.262 -0.39,0.452 0.235,0.009 0.338,0.265 0.298,0.468 -0.069,-0.126 -0.077,-0.364 -0.261,-0.37 -0.167,0.083 -0.263,0.252 -0.392,0.379 -0.091,0.101 -0.303,0.028 -0.307,0.209 0.093,-0.011 0.208,0.02 0.28,-0.058 0.125,-0.113 0.242,-0.235 0.369,-0.346 -0.09,0.182 -0.093,0.398 0.001,0.58 0.053,0.156 0.225,0.282 0.162,0.463 0.019,0.019 0.055,0.059 0.074,0.078 -0.195,-0.042 -0.366,0.061 -0.553,0.085 -0.013,0.037 -0.026,0.073 -0.038,0.108 0.048,0.026 0.084,0.064 0.107,0.113 0.081,10e-4 0.162,0.008 0.243,0.018 0.071,-0.059 0.148,-0.018 0.198,0.045 C -0.08,0.003 -0.027,0 0,0"
           style="fill:#ffffff;fill-opacity:1;fill-rule:nonzero;stroke:none"
           id="path200692"
           inkscape:connector-curvature="0" />
      </g>
      <g
         id="g200694"
         transform="translate(230.1577,170.255)">
        <path
           d="M 0,0 C 0.027,0.039 0.077,0.085 0.128,0.076 0.149,0.026 0.121,-0.043 0.073,-0.07 0.02,-0.075 -0.005,-0.052 0,0"
           style="fill:#ffffff;fill-opacity:1;fill-rule:nonzero;stroke:none"
           id="path200696"
           inkscape:connector-curvature="0" />
      </g>
      <g
         id="g200698"
         transform="translate(228.6519,169.756)">
        <path
           d="M 0,0 C -0.127,0.13 -0.123,0.321 -0.02,0.464 0.003,0.442 0.049,0.399 0.072,0.377 0.092,0.397 0.133,0.437 0.153,0.457 0.261,0.322 0.261,0.134 0.142,0.007 0.142,0.091 0.107,0.126 0.036,0.114 0.027,0.086 0.009,0.028 0,0"
           style="fill:#ffffff;fill-opacity:1;fill-rule:nonzero;stroke:none"
           id="path200700"
           inkscape:connector-curvature="0" />
      </g>
      <g
         id="g200702"
         transform="translate(230.3569,169.4747)">
        <path
           d="m 0,0 c 0.026,-0.259 0.079,-0.526 0.243,-0.736 0.095,-0.107 0.104,-0.25 0.102,-0.386 -0.126,0.172 -0.334,0.3 -0.373,0.523 C -0.062,-0.399 -0.001,-0.2 0,0"
           style="fill:#ffffff;fill-opacity:1;fill-rule:nonzero;stroke:none"
           id="path200704"
           inkscape:connector-curvature="0" />
      </g>
      <g
         id="g200706"
         transform="translate(227.1382,169.421)">
        <path
           d="m 0,0 c 0.038,-0.231 0.102,-0.489 -0.018,-0.707 -0.086,-0.126 -0.202,-0.227 -0.305,-0.339 -0.063,0.257 0.176,0.414 0.242,0.636 0.05,0.132 0.063,0.272 0.081,0.41"
           style="fill:#ffffff;fill-opacity:1;fill-rule:nonzero;stroke:none"
           id="path200708"
           inkscape:connector-curvature="0" />
      </g>
      <g
         id="g200710"
         transform="translate(228.4692,169.2589)">
        <path
           d="M 0,0 C 0.062,0.029 0.124,0.059 0.185,0.089 0.202,0.058 0.236,-0.006 0.253,-0.037 0.271,-0.006 0.308,0.059 0.326,0.09 0.382,0.063 0.438,0.035 0.495,0.009 0.356,-0.008 0.367,-0.144 0.371,-0.248 H 0.197 C 0.195,-0.18 0.208,-0.106 0.178,-0.042 0.122,-0.019 0.062,-0.004 0,0"
           style="fill:#ffffff;fill-opacity:1;fill-rule:nonzero;stroke:none"
           id="path200712"
           inkscape:connector-curvature="0" />
      </g>
      <g
         id="g200714"
         transform="translate(234.6929,164.4103)">
        <path
           d="M 0,0 C 1.509,1.492 2.993,3.008 4.497,4.505 4.497,4.27 4.496,4.034 4.498,3.8 2.999,2.301 1.505,0.798 -0.001,-0.694 -0.003,-0.463 -0.005,-0.23 0,0"
           style="fill:#ffffff;fill-opacity:1;fill-rule:nonzero;stroke:none"
           id="path200716"
           inkscape:connector-curvature="0" />
      </g>
      <g
         id="g200718"
         transform="translate(229.3804,168.6456)">
        <path
           d="m 0,0 c 0.073,-0.136 0.126,-0.282 0.219,-0.407 -0.135,-0.19 -0.24,-0.475 -0.084,-0.683 0.05,-0.082 0.101,-0.164 0.15,-0.246 -0.183,-0.107 -0.345,-0.25 -0.541,-0.335 -0.019,-0.216 0.277,-0.213 0.406,-0.13 0.159,0.154 0.359,0.249 0.537,0.376 0.104,0.122 -0.129,0.242 -0.028,0.355 0.126,-0.173 0.396,-0.197 0.458,-0.415 0.029,-0.075 0.014,-0.156 0.004,-0.233 -0.055,-0.049 -0.13,-0.09 -0.138,-0.172 0.049,-0.127 0.22,-0.085 0.326,-0.073 0.221,0.205 0.132,0.526 0.15,0.792 -0.077,0.067 -0.197,0.121 -0.213,0.233 0.068,0.168 0.17,0.323 0.286,0.462 0.065,0.073 0.063,0.175 0.085,0.264 0.033,-0.737 0.007,-1.476 0.015,-2.215 v -2.496 c -0.61,0.406 -1.28,0.71 -1.953,0.995 -0.593,0.229 -1.175,0.498 -1.695,0.865 -0.28,0.235 -0.516,0.525 -0.69,0.845 -0.246,0.623 -0.148,1.304 -0.177,1.956 0.082,-0.265 0.326,-0.443 0.394,-0.717 -0.087,-0.095 -0.261,-0.162 -0.227,-0.319 0.02,-0.19 -0.036,-0.402 0.08,-0.571 0.058,-0.147 0.251,-0.124 0.369,-0.074 0.084,0.096 -0.057,0.184 -0.119,0.242 -0.002,0.126 0.006,0.266 0.1,0.361 0.128,0.08 0.265,0.151 0.364,0.268 0.118,-0.099 -0.117,-0.233 -0.023,-0.344 0.101,-0.099 0.239,-0.146 0.351,-0.231 0.111,-0.073 0.197,-0.207 0.344,-0.203 0.084,0.012 0.224,-0.012 0.246,0.097 0.042,0.077 -0.053,0.113 -0.103,0.142 -0.153,0.076 -0.282,0.19 -0.429,0.274 0.076,0.134 0.173,0.258 0.226,0.403 0.02,0.19 -0.062,0.372 -0.157,0.529 0.061,0.1 0.126,0.2 0.159,0.314 0.047,0.003 0.093,0.006 0.14,0.008 0.005,-0.166 -0.039,-0.37 0.102,-0.495 0.132,-0.128 0.331,-0.087 0.497,-0.093 0.149,-0.005 0.305,0.069 0.383,0.198 0.048,0.119 0.025,0.253 0.029,0.379 C -0.081,-0.1 -0.028,-0.068 0,0"
           style="fill:#ffffff;fill-opacity:1;fill-rule:nonzero;stroke:none"
           id="path200720"
           inkscape:connector-curvature="0" />
      </g>
      <g
         id="g200722"
         transform="translate(229.6079,167.5607)">
        <path
           d="M 0,0 C -0.144,0.173 -0.089,0.476 0.101,0.587 0.24,0.47 0.405,0.341 0.388,0.138 0.346,0.082 0.269,0.04 0.268,-0.036 0.25,-0.135 0.344,-0.193 0.396,-0.262 0.224,-0.4 0.039,-0.521 -0.125,-0.67 c -0.097,-0.002 -0.192,-0.004 -0.288,-0.002 0.045,0.108 0.168,0.117 0.254,0.176 0.098,0.067 0.201,0.129 0.291,0.208 C 0.162,-0.175 0.046,-0.093 0,0"
           style="fill:#ffffff;fill-opacity:1;fill-rule:nonzero;stroke:none"
           id="path200724"
           inkscape:connector-curvature="0" />
      </g>
      <g
         id="g200726"
         transform="translate(227.5098,167.7023)">
        <path
           d="M 0,0 C -0.006,0.209 0.16,0.342 0.309,0.459 0.405,0.345 0.496,0.199 0.473,0.043 0.448,-0.128 0.282,-0.237 0.248,-0.403 0.307,-0.5 0.422,-0.541 0.507,-0.61 0.598,-0.691 0.754,-0.686 0.795,-0.816 0.691,-0.805 0.565,-0.847 0.478,-0.772 0.32,-0.645 0.152,-0.529 -0.008,-0.404 0.04,-0.346 0.103,-0.294 0.128,-0.221 0.142,-0.126 0.056,-0.062 0,0"
           style="fill:#ffffff;fill-opacity:1;fill-rule:nonzero;stroke:none"
           id="path200728"
           inkscape:connector-curvature="0" />
      </g>
      <g
         id="g200730"
         transform="translate(237.3887,165.0402)">
        <path
           d="M 0,0 C 0.583,0.594 1.174,1.178 1.762,1.766 1.675,1.292 1.345,0.911 1.005,0.591 0.696,0.354 0.353,0.163 0,0"
           style="fill:#ffffff;fill-opacity:1;fill-rule:nonzero;stroke:none"
           id="path200732"
           inkscape:connector-curvature="0" />
      </g>
      <g
         id="g200734"
         transform="translate(227.5371,163.7287)">
        <path
           d="m 0,0 c 0.046,-0.056 0.096,-0.108 0.146,-0.161 0,-0.405 0.004,-0.81 -0.015,-1.214 -0.012,-0.169 0,-0.338 0.019,-0.506 0.426,-0.055 0.859,-0.01 1.287,-0.023 0.024,0.19 0.056,0.381 0.071,0.572 C 1.368,-1.421 1.297,-1.591 1.137,-1.653 0.972,-1.752 0.772,-1.735 0.606,-1.65 c 0.003,0.203 -0.056,0.418 0,0.614 0.164,0.022 0.328,-0.005 0.492,-0.005 0.021,0.105 0.042,0.211 0.063,0.315 C 1.024,-0.742 0.881,-0.718 0.748,-0.752 0.7,-0.816 0.659,-0.89 0.59,-0.936 0.551,-0.705 0.589,-0.471 0.583,-0.239 0.723,-0.168 0.895,-0.141 1.037,-0.218 1.174,-0.279 1.246,-0.419 1.331,-0.535 1.325,-0.359 1.303,-0.185 1.284,-0.01 0.86,0.056 0.428,-0.007 0,0 m -1.066,-0.077 c -0.58,-0.293 -0.696,-1.209 -0.195,-1.628 0.252,-0.199 0.625,-0.28 0.921,-0.131 0.151,0.147 0.269,0.325 0.405,0.486 -0.256,-0.052 -0.512,-0.116 -0.773,-0.139 -0.209,-0.015 -0.372,0.172 -0.415,0.361 -0.055,0.25 -0.075,0.541 0.086,0.756 0.087,0.125 0.241,0.245 0.401,0.187 0.159,-0.064 0.239,-0.226 0.334,-0.358 0.054,0.151 0.099,0.306 0.137,0.462 -0.269,0.168 -0.625,0.138 -0.901,0.004 m -1.28,0.081 c 0.049,-0.055 0.107,-0.103 0.144,-0.167 0.037,-0.524 -0.03,-1.051 -0.003,-1.575 0.008,-0.052 -10e-4,-0.151 0.071,-0.158 0.193,-0.02 0.387,-0.008 0.581,-0.002 -0.058,0.083 -0.176,0.134 -0.181,0.247 -0.037,0.508 -0.041,1.02 -0.024,1.53 0.006,0.066 -0.052,0.135 -0.12,0.127 -0.156,0.007 -0.312,0.001 -0.468,-0.002 m -2.597,-0.07 c -0.187,-0.096 -0.356,-0.277 -0.356,-0.498 -0.013,-0.188 0.094,-0.384 0.274,-0.452 0.209,-0.078 0.458,-0.059 0.637,-0.209 0.093,-0.066 0.081,-0.195 0.043,-0.289 -0.068,-0.106 -0.213,-0.107 -0.325,-0.121 -0.226,0.015 -0.38,0.206 -0.524,0.359 -0.046,-0.153 -0.116,-0.299 -0.137,-0.458 0.066,-0.118 0.219,-0.13 0.337,-0.152 0.283,-0.032 0.595,-0.034 0.841,0.128 0.246,0.154 0.378,0.509 0.239,0.774 -0.165,0.246 -0.487,0.265 -0.751,0.324 -0.132,0.015 -0.201,0.151 -0.186,0.273 -0.014,0.146 0.153,0.212 0.274,0.204 0.18,0 0.286,-0.165 0.391,-0.287 0.081,0.06 0.092,0.189 0.133,0.28 0.053,0.091 -0.052,0.171 -0.134,0.187 -0.25,0.051 -0.525,0.06 -0.756,-0.063 m -2.23,0.067 c 0.05,-0.053 0.154,-0.076 0.153,-0.162 0.005,-0.419 -0.001,-0.839 0.002,-1.258 -0.007,-0.155 0.085,-0.303 0.223,-0.372 0.341,-0.183 0.758,-0.144 1.107,-0.001 0.059,0.034 0.158,0.065 0.153,0.149 0.006,0.404 -0.009,0.808 0.011,1.211 -0.002,0.143 0.02,0.289 -0.02,0.428 -0.191,0.025 -0.385,0.01 -0.577,0.003 0.052,-0.037 0.106,-0.072 0.155,-0.114 0.011,-0.466 0.002,-0.933 0.004,-1.398 -0.159,-0.08 -0.388,-0.115 -0.515,0.038 -0.152,0.176 -0.089,0.428 -0.101,0.64 -0.017,0.28 0.027,0.564 -0.027,0.841 -0.189,0.001 -0.379,0.006 -0.568,-0.005 m -0.762,0.003 c 0.047,-0.061 0.111,-0.11 0.143,-0.181 0.024,-0.295 0,-0.591 -0.003,-0.885 0.002,-0.229 0.005,-0.461 -0.053,-0.685 -0.063,-0.252 -0.214,-0.469 -0.367,-0.675 0.013,-0.02 0.039,-0.061 0.051,-0.081 0.274,0.198 0.543,0.403 0.818,0.6 0.001,0.43 0.007,0.86 -0.01,1.291 -0.011,0.192 0.023,0.39 -0.018,0.579 -0.168,0.088 -0.377,0.021 -0.561,0.037 m 23.993,0.058 c 0.045,-0.06 0.104,-0.112 0.133,-0.183 0.019,-0.344 -0.007,-0.688 -0.008,-1.032 -0.003,-0.222 -0.037,-0.451 0.025,-0.668 0.188,-0.036 0.382,-0.01 0.572,-0.011 -0.053,0.061 -0.123,0.111 -0.158,0.186 -0.028,0.209 -0.037,0.42 -0.024,0.63 0.21,0.031 0.423,0.021 0.634,0.037 0.033,0.067 0.019,0.183 0.122,0.188 0.009,-0.349 -0.064,-0.702 0.016,-1.045 0.208,0 0.414,-0.006 0.622,0.004 -0.06,0.077 -0.174,0.13 -0.178,0.238 -0.037,0.478 -0.035,0.957 -0.03,1.436 -0.008,0.072 0.019,0.168 -0.055,0.213 -0.17,0.019 -0.342,0.006 -0.513,0.007 0.045,-0.058 0.098,-0.111 0.133,-0.177 0.011,-0.163 0.013,-0.329 -0.004,-0.492 -0.014,-0.012 -0.043,-0.034 -0.058,-0.044 -0.192,-0.018 -0.385,0.015 -0.579,0.004 -0.043,-0.072 -0.086,-0.144 -0.132,-0.214 0.012,0.262 0.02,0.526 0.012,0.789 0.005,0.061 -0.031,0.147 -0.106,0.134 -0.142,0.006 -0.283,0 -0.424,0 M 13.691,0.041 c 0.053,-0.061 0.152,-0.106 0.142,-0.202 0.006,-0.345 0.002,-0.691 -0.015,-1.035 -0.007,-0.214 -0.02,-0.435 0.037,-0.644 0.206,0.006 0.412,-0.002 0.617,0.007 -0.069,0.085 -0.192,0.146 -0.181,0.272 -0.027,0.513 -0.048,1.029 -0.016,1.542 -0.038,0.036 -0.073,0.092 -0.133,0.081 -0.151,0.002 -0.305,0.017 -0.451,-0.021 m -1.116,0.021 c -0.296,-0.55 -0.54,-1.127 -0.707,-1.729 -0.01,-0.051 -0.036,-0.132 0.021,-0.162 0.205,-0.019 0.411,-0.007 0.617,-0.003 -0.059,0.074 -0.132,0.137 -0.18,0.219 -0.045,0.093 -0.013,0.198 0.005,0.293 0.164,-0.002 0.327,0.005 0.491,0.011 0.049,-0.175 0.05,-0.388 0.192,-0.521 0.236,-0.017 0.473,-0.005 0.71,-0.005 -0.082,0.138 -0.248,0.212 -0.3,0.373 -0.204,0.507 -0.398,1.018 -0.597,1.526 C 12.742,0.063 12.658,0.062 12.575,0.062 M 10.727,0.061 c 0.035,-0.054 0.082,-0.1 0.132,-0.142 0.041,-0.295 -10e-4,-0.592 0.006,-0.889 0.005,-0.288 -0.048,-0.582 0.022,-0.867 0.205,10e-4 0.41,-0.004 0.614,0.004 -0.065,0.085 -0.177,0.154 -0.173,0.274 -0.011,0.182 -0.03,0.364 -0.021,0.545 0.01,0.011 0.032,0.034 0.043,0.044 0.154,0.009 0.309,-0.007 0.463,-0.015 0.025,0.106 0.047,0.213 0.067,0.32 -0.136,-0.004 -0.273,-0.011 -0.41,-0.017 -0.051,-0.051 -0.082,-0.217 -0.173,-0.16 0.005,0.225 0.007,0.45 0.01,0.675 0.126,0.048 0.265,0.109 0.397,0.046 0.171,-0.054 0.247,-0.226 0.352,-0.356 -0.009,0.176 -0.031,0.35 -0.05,0.525 C 11.807,0.101 11.6,0.075 11.397,0.07 11.173,0.058 10.95,0.067 10.727,0.061 M -3.634,-0.004 c -0.059,-0.01 -0.156,0.01 -0.177,-0.066 -0.061,-0.154 -0.14,-0.304 -0.157,-0.47 0.139,0.06 0.246,0.179 0.392,0.225 0.158,0.052 0.348,0.076 0.493,-0.023 -0.088,-0.042 -0.178,-0.078 -0.269,-0.112 0.008,-0.481 -0.017,-0.963 0.013,-1.441 0.174,-0.032 0.355,-0.008 0.532,-0.01 -0.044,0.06 -0.091,0.119 -0.139,0.176 -0.021,0.46 -0.014,0.922 -0.008,1.381 0.011,0.015 0.03,0.042 0.04,0.057 0.136,0.033 0.278,0.02 0.417,0.024 0.04,0.128 0.075,0.257 0.097,0.388 -0.374,-0.23 -0.822,-0.108 -1.234,-0.129 m 18.202,0.045 c -0.066,-0.168 -0.135,-0.334 -0.191,-0.506 0.144,0.013 0.232,0.15 0.366,0.194 0.167,0.062 0.384,0.111 0.533,-0.015 -0.09,-0.037 -0.182,-0.071 -0.273,-0.106 0.006,-0.481 -0.011,-0.962 0.015,-1.443 0.183,-0.003 0.365,-0.004 0.547,10e-4 -0.058,0.07 -0.16,0.128 -0.155,0.23 0.004,0.422 -0.022,0.843 -0.011,1.265 -0.008,0.058 0.029,0.119 0.091,0.119 0.125,0.017 0.252,0.014 0.378,0.025 0.035,0.126 0.067,0.253 0.091,0.381 C 15.535,-0.078 15.03,0.114 14.568,0.041 M -9.268,0.422 c -0.005,0.174 0.152,0.326 0.326,0.315 3.105,0.002 6.21,0 9.316,0.001 C 0.541,0.735 0.68,0.625 0.833,0.57 1.503,0.299 2.174,0.019 2.8,-0.347 3.766,-0.933 4.619,-1.7 5.317,-2.587 c 0.548,0.704 1.196,1.331 1.921,1.852 0.885,0.659 1.93,1.041 2.936,1.467 3.105,0.015 6.212,0 9.317,0.007 0.192,0.032 0.414,-0.1 0.404,-0.311 0.004,-0.948 0,-1.896 0.002,-2.843 0.018,-0.196 -0.163,-0.362 -0.356,-0.344 -2.474,-0.004 -4.95,0.002 -7.424,-0.003 -0.094,0.23 -0.24,0.447 -0.462,0.568 C 11.4,-2.05 11.08,-2.032 10.81,-2.148 8.938,-2.93 6.899,-3.308 4.872,-3.242 3.141,-3.189 1.421,-2.817 -0.177,-2.15 -0.523,-1.997 -0.958,-2.073 -1.225,-2.346 -1.347,-2.457 -1.42,-2.609 -1.484,-2.759 -3.956,-2.761 -6.426,-2.76 -8.897,-2.76 c -0.18,-0.018 -0.369,0.115 -0.37,0.305 -0.003,0.959 -0.001,1.918 -0.001,2.877"
           style="fill:#ffffff;fill-opacity:1;fill-rule:nonzero;stroke:none"
           id="path200736"
           inkscape:connector-curvature="0" />
      </g>
      <g
         id="g200738"
         transform="translate(240.1362,163.1144)">
        <path
           d="M 0,0 C 0.053,-0.144 0.094,-0.291 0.126,-0.44 0.045,-0.446 -0.035,-0.454 -0.115,-0.461 -0.152,-0.497 -0.19,-0.532 -0.227,-0.568 -0.177,-0.37 -0.094,-0.182 0,0"
           style="fill:#ffffff;fill-opacity:1;fill-rule:nonzero;stroke:none"
           id="path200740"
           inkscape:connector-curvature="0" />
      </g>
      <g
         id="g200742"
         transform="translate(232.1958,159.1945)">
        <path
           d="m 0,0 c 0.065,-0.062 0.179,-0.098 0.16,-0.209 0.011,-0.497 0.018,-0.995 0.029,-1.492 0.009,-0.112 -0.026,-0.239 0.029,-0.343 0.183,-0.008 0.367,0.002 0.55,0.014 -0.029,0.078 -0.11,0.122 -0.146,0.196 -0.006,0.176 -0.027,0.354 -0.008,0.529 0.053,0.088 0.179,0.119 0.252,0.035 0.202,-0.209 0.147,-0.543 0.334,-0.767 0.185,-0.005 0.371,0.007 0.557,0.014 -0.349,0.195 -0.285,0.712 -0.65,0.883 0.123,0.056 0.252,0.13 0.303,0.262 0.088,0.215 0.135,0.482 0.004,0.689 C 1.307,-0.013 1.086,0.052 0.89,0.037 0.594,0.008 0.296,0.027 0,0 m -1.646,0.172 c 0.049,-0.08 0.161,-0.145 0.144,-0.252 -0.03,-0.348 -0.069,-0.694 -0.112,-1.04 -0.029,-0.237 -0.069,-0.476 -0.051,-0.715 -0.012,-0.069 0.078,-0.061 0.12,-0.072 0.419,-0.041 0.838,-0.083 1.258,-0.122 0.044,0.204 0.103,0.405 0.138,0.611 -0.163,-0.095 -0.27,-0.273 -0.459,-0.324 -0.182,-0.071 -0.389,-0.037 -0.546,0.074 0.023,0.215 -0.021,0.454 0.062,0.654 0.175,0.035 0.359,-0.069 0.531,-0.033 0.039,0.103 0.066,0.208 0.097,0.313 -0.151,0.01 -0.302,0.02 -0.452,0.025 -0.052,-0.069 -0.092,-0.204 -0.205,-0.151 0.036,0.238 0.058,0.478 0.09,0.716 0.163,0.051 0.356,0.071 0.501,-0.039 0.135,-0.082 0.194,-0.233 0.272,-0.363 0.013,0.187 0.006,0.374 0.01,0.56 -0.208,0.095 -0.443,0.084 -0.666,0.102 -0.245,0.008 -0.487,0.05 -0.732,0.056 M 2.189,0.012 C 1.679,-0.304 1.58,-1.06 1.906,-1.54 c 0.219,-0.322 0.652,-0.461 1.023,-0.37 0.105,0.034 0.227,0.068 0.288,0.17 0.108,0.166 0.213,0.333 0.32,0.5 C 3.329,-1.3 3.126,-1.377 2.917,-1.434 2.78,-1.473 2.626,-1.523 2.491,-1.447 2.27,-1.338 2.194,-1.081 2.155,-0.855 c -0.058,0.255 0.02,0.548 0.226,0.718 0.081,0.072 0.201,0.103 0.302,0.055 0.156,-0.069 0.26,-0.211 0.361,-0.344 0.03,0.174 0.061,0.347 0.092,0.52 C 2.839,0.252 2.468,0.175 2.189,0.012 M 4.33,0.438 C 4.409,0.362 4.558,0.388 4.603,0.276 4.651,0.04 4.566,-0.2 4.467,-0.412 4.291,-0.198 4.133,0.03 3.959,0.246 3.922,0.288 3.88,0.359 3.812,0.326 3.635,0.29 3.457,0.254 3.282,0.205 3.283,0.196 3.284,0.18 3.285,0.172 3.644,0.014 3.834,-0.346 4.055,-0.647 4.282,-0.939 4.219,-1.348 4.394,-1.664 4.568,-1.615 4.75,-1.59 4.923,-1.538 4.939,-1.522 4.971,-1.493 4.987,-1.479 4.912,-1.425 4.795,-1.398 4.78,-1.293 4.728,-1.082 4.684,-0.87 4.636,-0.659 4.843,-0.297 4.965,0.135 4.888,0.552 4.698,0.533 4.514,0.485 4.33,0.438 M -3.856,0.655 C -3.81,0.603 -3.76,0.552 -3.709,0.501 -3.834,-0.133 -3.996,-0.76 -4.115,-1.396 c 0.172,-0.037 0.342,-0.082 0.514,-0.115 -0.044,0.097 -0.133,0.189 -0.094,0.303 0.092,0.402 0.179,0.808 0.28,1.208 0.085,-0.244 0.119,-0.502 0.179,-0.753 0.069,-0.014 0.139,-0.028 0.21,-0.042 0.195,0.194 0.387,0.392 0.577,0.591 -0.093,-0.426 -0.191,-0.85 -0.291,-1.275 -0.011,-0.069 -0.044,-0.144 -0.014,-0.215 0.175,-0.069 0.366,-0.09 0.548,-0.136 -0.004,0.101 -0.114,0.165 -0.105,0.265 0.109,0.599 0.281,1.189 0.372,1.793 -0.14,0.032 -0.28,0.064 -0.42,0.092 -0.196,-0.177 -0.366,-0.382 -0.561,-0.56 -0.068,0.237 -0.072,0.496 -0.163,0.723 -0.255,0.069 -0.513,0.129 -0.773,0.172 M -5.349,1.787 C -5.204,1.869 -5.052,1.77 -4.916,1.718 -2.883,0.898 -0.668,0.536 1.52,0.665 3.192,0.762 4.846,1.143 6.392,1.786 6.548,1.872 6.752,1.781 6.812,1.618 7.186,0.776 7.558,-0.067 7.929,-0.91 7.999,-1.054 7.922,-1.238 7.779,-1.303 4.158,-2.853 0.027,-3.167 -3.791,-2.202 c -0.901,0.226 -1.785,0.519 -2.641,0.881 -0.162,0.057 -0.275,0.255 -0.186,0.416 0.361,0.825 0.728,1.646 1.089,2.471 0.037,0.088 0.088,0.181 0.18,0.221"
           style="fill:#ffffff;fill-opacity:1;fill-rule:nonzero;stroke:none"
           id="path200744"
           inkscape:connector-curvature="0" />
      </g>
      <g
         id="g200746"
         transform="translate(232.792,158.9747)">
        <path
           d="M 0,0 C 0.142,0.023 0.328,0.042 0.415,-0.101 0.483,-0.244 0.52,-0.437 0.417,-0.574 0.333,-0.651 0.207,-0.652 0.111,-0.71 0.076,-0.759 0.043,-0.809 0.012,-0.861 0.007,-0.574 0.009,-0.287 0,0"
           style="fill:#ffffff;fill-opacity:1;fill-rule:nonzero;stroke:none"
           id="path200748"
           inkscape:connector-curvature="0" />
      </g>
      <g
         id="g200750"
         transform="translate(223.7871,186.0382)">
        <path
           d="m 0,0 c -0.484,-0.181 -0.82,-0.677 -0.814,-1.192 -0.006,-1.065 -0.002,-2.129 -0.002,-3.194 -0.009,-0.234 0.106,-0.462 0.3,-0.593 -0.213,-0.092 -0.373,-0.294 -0.398,-0.527 -0.026,-0.215 0.068,-0.439 0.241,-0.57 0.472,-0.364 0.919,-0.761 1.357,-1.164 0.393,-0.413 0.791,-0.856 0.972,-1.407 0.09,-0.264 0.124,-0.544 0.126,-0.823 -0.001,-2.909 -0.001,-5.817 -0.001,-8.726 0.007,-0.481 -0.039,-0.972 0.105,-1.438 0.093,-0.371 0.309,-0.693 0.54,-0.993 -2.555,10e-4 -5.11,0 -7.664,10e-4 -0.522,0 -1.01,-0.374 -1.167,-0.867 -0.077,-0.214 -0.057,-0.444 -0.058,-0.665 0,-0.868 0.001,-1.738 -0.001,-2.606 -0.016,-0.657 0.568,-1.245 1.223,-1.25 2.253,-0.002 4.505,10e-4 6.758,-0.001 -0.206,-0.474 -0.42,-0.945 -0.623,-1.421 -0.239,-0.588 0.069,-1.32 0.648,-1.574 1.36,-0.582 2.791,-0.999 4.248,-1.252 3.624,-0.633 7.427,-0.191 10.808,1.258 0.569,0.259 0.872,0.981 0.637,1.565 -0.202,0.477 -0.419,0.948 -0.625,1.424 2.256,0.002 4.512,-0.002 6.768,0.002 0.634,0.012 1.204,0.565 1.213,1.201 v 2.972 c -0.001,0.642 -0.575,1.211 -1.216,1.213 h -7.674 c 0.187,0.25 0.377,0.505 0.477,0.804 0.103,0.29 0.165,0.596 0.17,0.905 -10e-4,3.179 -10e-4,6.358 -10e-4,9.538 0.005,0.51 0.178,1.013 0.485,1.419 0.279,0.387 0.603,0.742 0.971,1.046 0.311,0.279 0.625,0.554 0.958,0.805 0.123,0.089 0.22,0.215 0.261,0.363 0.097,0.304 -0.085,0.643 -0.372,0.766 0.091,0.083 0.184,0.169 0.233,0.287 0.067,0.137 0.05,0.295 0.052,0.443 -0.002,1.035 0,2.07 0,3.105 0.001,0.632 -0.548,1.206 -1.181,1.225 C 12.07,0.082 6.386,0.08 0.701,0.08 0.466,0.082 0.22,0.099 0,0 m 0.276,0.249 h 17.615 c 0.484,-0.088 0.926,-0.412 1.108,-0.876 0.106,-0.233 0.11,-0.493 0.105,-0.745 -0.003,-1.035 0,-2.07 -10e-4,-3.106 0.004,-0.173 -0.076,-0.332 -0.167,-0.473 0.15,-0.152 0.27,-0.344 0.279,-0.563 0.021,-0.266 -0.097,-0.539 -0.312,-0.7 -0.446,-0.344 -0.865,-0.722 -1.282,-1.099 -0.439,-0.446 -0.886,-0.939 -1.037,-1.563 -0.082,-0.311 -0.07,-0.634 -0.068,-0.952 0,-3.045 -10e-4,-6.091 0,-9.136 -0.016,-0.528 -0.167,-1.061 -0.478,-1.494 2.447,0 4.894,0 7.341,10e-4 0.469,0 0.921,-0.265 1.166,-0.663 0.126,-0.193 0.187,-0.419 0.226,-0.645 v -3.168 c -0.076,-0.319 -0.205,-0.638 -0.454,-0.863 -0.263,-0.249 -0.623,-0.39 -0.985,-0.388 -2.153,0.001 -4.306,0.001 -6.458,0.001 0.173,-0.412 0.371,-0.814 0.535,-1.23 0.24,-0.663 -0.102,-1.469 -0.749,-1.752 -2.188,-0.938 -4.553,-1.45 -6.931,-1.539 H 8.376 c -2.217,0.088 -4.421,0.539 -6.482,1.363 -0.231,0.095 -0.475,0.173 -0.677,0.322 -0.397,0.291 -0.618,0.795 -0.567,1.284 0.018,0.278 0.153,0.526 0.262,0.777 0.112,0.259 0.23,0.516 0.339,0.776 -2.147,-0.003 -4.295,0 -6.442,-0.002 -0.31,-0.002 -0.621,0.094 -0.87,0.281 -0.317,0.228 -0.521,0.597 -0.571,0.983 v 3.196 c 0.067,0.675 0.666,1.255 1.349,1.266 2.456,10e-4 4.912,0 7.368,0 -0.303,0.436 -0.458,0.966 -0.472,1.494 v 8.958 c -0.004,0.404 0.028,0.819 -0.092,1.212 -0.105,0.391 -0.343,0.726 -0.598,1.032 -0.376,0.463 -0.85,0.83 -1.295,1.222 -0.233,0.216 -0.558,0.368 -0.669,0.686 -0.118,0.315 -0.01,0.678 0.232,0.905 -0.114,0.166 -0.184,0.36 -0.176,0.564 0,1.05 -0.001,2.101 0,3.151 -0.006,0.386 0.13,0.779 0.407,1.053 0.223,0.24 0.533,0.383 0.854,0.43"
           style="fill:#176fc1;fill-opacity:1;fill-rule:nonzero;stroke:none"
           id="path200752"
           inkscape:connector-curvature="0" />
      </g>
      <g
         id="g200754"
         transform="translate(226.8467,160.9816)">
        <path
           d="m 0,0 c -0.092,-0.04 -0.143,-0.133 -0.18,-0.221 -0.361,-0.825 -0.728,-1.646 -1.089,-2.471 -0.088,-0.162 0.024,-0.359 0.186,-0.416 0.856,-0.362 1.74,-0.655 2.641,-0.881 3.818,-0.965 7.949,-0.651 11.57,0.899 0.143,0.065 0.22,0.249 0.15,0.393 -0.371,0.843 -0.743,1.686 -1.116,2.528 -0.06,0.163 -0.265,0.254 -0.421,0.168 C 10.195,-0.645 8.541,-1.025 6.869,-1.122 4.681,-1.251 2.466,-0.889 0.433,-0.069 0.297,-0.018 0.145,0.082 0,0 m -8.577,3.169 c -10e-4,-0.959 -0.003,-1.918 0,-2.877 10e-4,-0.189 0.19,-0.323 0.37,-0.305 2.471,0 4.942,-0.001 7.414,10e-4 0.064,0.15 0.136,0.302 0.259,0.413 0.266,0.273 0.701,0.349 1.047,0.196 1.598,-0.667 3.319,-1.039 5.049,-1.092 2.027,-0.066 4.067,0.312 5.938,1.094 0.27,0.116 0.59,0.098 0.846,-0.046 0.222,-0.121 0.367,-0.338 0.461,-0.568 2.475,0.005 4.95,-0.001 7.424,0.003 0.193,-0.018 0.374,0.148 0.356,0.344 -0.002,0.947 0.003,1.896 -0.002,2.843 0.01,0.211 -0.211,0.343 -0.403,0.311 C 17.076,3.479 13.97,3.494 10.865,3.479 9.859,3.053 8.813,2.671 7.929,2.012 7.204,1.491 6.556,0.864 6.008,0.16 5.309,1.047 4.456,1.814 3.49,2.4 2.865,2.766 2.194,3.046 1.523,3.317 1.37,3.372 1.231,3.482 1.064,3.485 -2.042,3.484 -5.147,3.486 -8.252,3.484 -8.425,3.495 -8.583,3.343 -8.577,3.169 m 19.119,0.89 c 0.353,0.163 0.696,0.354 1.005,0.59 0.34,0.321 0.67,0.702 0.757,1.175 C 11.716,5.236 11.125,4.652 10.542,4.059 M 0.663,6.721 C 0.719,6.659 0.805,6.595 0.791,6.5 0.766,6.427 0.703,6.375 0.655,6.316 0.815,6.191 0.983,6.076 1.141,5.948 1.228,5.874 1.354,5.916 1.458,5.904 1.417,6.035 1.261,6.029 1.17,6.11 1.085,6.18 0.97,6.221 0.911,6.317 0.945,6.483 1.111,6.593 1.136,6.764 1.159,6.92 1.068,7.065 0.972,7.18 0.823,7.062 0.657,6.93 0.663,6.721 M 2.761,6.579 C 2.808,6.486 2.923,6.404 2.893,6.291 2.804,6.212 2.701,6.15 2.603,6.083 2.517,6.024 2.393,6.015 2.349,5.907 2.444,5.905 2.54,5.907 2.636,5.909 2.8,6.058 2.985,6.179 3.158,6.317 3.105,6.386 3.011,6.444 3.029,6.543 3.03,6.619 3.107,6.661 3.149,6.717 3.167,6.92 3.001,7.049 2.862,7.166 2.672,7.055 2.618,6.752 2.761,6.579 M 2.534,7.664 C 2.506,7.596 2.453,7.564 2.376,7.57 2.373,7.444 2.396,7.311 2.348,7.191 2.27,7.062 2.113,6.988 1.964,6.993 1.798,6.999 1.6,6.958 1.468,7.086 1.327,7.211 1.371,7.415 1.365,7.581 1.319,7.579 1.272,7.576 1.226,7.573 1.193,7.459 1.127,7.359 1.066,7.259 1.162,7.102 1.244,6.92 1.224,6.73 1.171,6.585 1.073,6.461 0.998,6.327 1.145,6.243 1.274,6.129 1.427,6.053 1.477,6.024 1.571,5.988 1.53,5.911 1.508,5.802 1.368,5.826 1.284,5.814 1.136,5.811 1.05,5.944 0.939,6.017 0.828,6.103 0.69,6.149 0.589,6.248 0.495,6.359 0.729,6.493 0.612,6.592 0.512,6.475 0.375,6.404 0.248,6.324 0.153,6.229 0.146,6.089 0.147,5.963 0.21,5.905 0.351,5.817 0.267,5.721 0.149,5.671 -0.044,5.648 -0.102,5.795 -0.218,5.964 -0.163,6.176 -0.182,6.366 -0.216,6.523 -0.042,6.59 0.045,6.685 -0.023,6.959 -0.268,7.137 -0.349,7.402 -0.32,6.75 -0.418,6.069 -0.172,5.446 0.001,5.126 0.238,4.836 0.518,4.602 1.038,4.234 1.62,3.965 2.212,3.736 2.886,3.451 3.556,3.147 4.166,2.741 V 5.237 C 4.157,5.976 4.184,6.715 4.151,7.452 4.129,7.363 4.13,7.261 4.065,7.188 3.95,7.049 3.848,6.895 3.779,6.726 3.795,6.614 3.916,6.561 3.993,6.493 3.975,6.228 4.064,5.906 3.843,5.701 3.737,5.689 3.565,5.647 3.517,5.774 3.524,5.856 3.6,5.897 3.655,5.946 3.665,6.023 3.679,6.104 3.65,6.179 3.588,6.397 3.318,6.421 3.193,6.594 3.092,6.481 3.324,6.361 3.22,6.239 3.042,6.112 2.843,6.017 2.684,5.863 2.555,5.78 2.259,5.777 2.277,5.993 2.474,6.078 2.636,6.221 2.818,6.328 2.77,6.41 2.718,6.492 2.669,6.574 2.513,6.782 2.618,7.067 2.753,7.257 2.66,7.382 2.606,7.528 2.534,7.664 M 7.846,3.429 C 7.841,3.198 7.843,2.966 7.845,2.734 c 1.506,1.493 3,2.995 4.499,4.495 C 12.342,7.463 12.343,7.698 12.343,7.934 10.839,6.437 9.355,4.921 7.846,3.429 M 1.623,8.277 C 1.685,8.273 1.744,8.259 1.801,8.235 1.83,8.171 1.817,8.098 1.819,8.029 H 1.994 C 1.99,8.134 1.979,8.27 2.118,8.286 2.061,8.313 2.004,8.341 1.949,8.367 1.93,8.336 1.894,8.271 1.875,8.24 1.858,8.271 1.825,8.335 1.808,8.366 1.746,8.336 1.685,8.307 1.623,8.277 M 0.292,8.439 C 0.273,8.302 0.26,8.161 0.21,8.029 0.144,7.808 -0.095,7.65 -0.031,7.394 0.071,7.506 0.188,7.606 0.273,7.732 0.394,7.95 0.33,8.208 0.292,8.439 M 3.51,8.493 C 3.509,8.293 3.448,8.094 3.482,7.895 3.521,7.671 3.729,7.543 3.855,7.371 3.857,7.507 3.849,7.65 3.753,7.757 3.589,7.967 3.537,8.234 3.51,8.493 M 1.805,8.774 C 1.814,8.803 1.833,8.86 1.841,8.889 1.912,8.9 1.947,8.865 1.947,8.781 2.066,8.908 2.066,9.097 1.958,9.231 1.938,9.211 1.897,9.172 1.877,9.151 1.854,9.174 1.809,9.217 1.785,9.238 1.683,9.096 1.678,8.904 1.805,8.774 M 3.311,9.273 C 3.306,9.222 3.331,9.198 3.384,9.203 3.432,9.23 3.46,9.3 3.439,9.35 3.388,9.358 3.338,9.313 3.311,9.273 M 3.025,9.249 C 2.998,9.249 2.945,9.252 2.919,9.253 2.87,9.19 2.792,9.149 2.722,9.208 2.641,9.198 2.56,9.191 2.479,9.19 2.456,9.141 2.42,9.104 2.372,9.077 2.384,9.042 2.396,9.006 2.41,8.969 2.597,8.945 2.768,8.842 2.962,8.884 2.944,8.865 2.908,8.825 2.889,8.806 2.952,8.625 2.78,8.499 2.727,8.343 2.633,8.161 2.636,7.945 2.726,7.763 2.599,7.874 2.481,7.996 2.357,8.109 2.285,8.188 2.17,8.156 2.077,8.167 2.081,7.986 2.292,8.059 2.384,7.958 2.513,7.831 2.609,7.662 2.776,7.579 2.959,7.585 2.968,7.823 3.037,7.949 3.077,7.746 2.974,7.49 2.739,7.481 2.815,7.291 2.988,7.17 3.128,7.029 3.167,7.084 3.206,7.138 3.245,7.191 3.237,7.039 3.219,6.885 3.238,6.731 3.299,6.531 3.549,6.518 3.665,6.363 3.751,6.266 3.759,6.126 3.758,6.002 3.757,5.9 3.652,5.851 3.595,5.78 3.672,5.791 3.766,5.757 3.836,5.801 3.961,5.99 3.879,6.227 3.893,6.437 3.815,6.501 3.735,6.566 3.684,6.655 3.609,6.756 3.727,6.853 3.763,6.943 3.827,7.101 3.993,7.187 4.05,7.348 4.116,7.554 4.127,7.787 4.026,7.983 3.873,8.312 3.805,8.701 3.968,9.041 3.77,8.865 3.592,8.624 3.612,8.345 3.61,8.127 3.743,7.946 3.871,7.782 4.018,7.594 3.945,7.33 3.801,7.164 3.76,7.416 3.507,7.539 3.415,7.763 3.328,8.091 3.452,8.423 3.433,8.753 3.407,8.948 3.369,9.164 3.188,9.277 3.225,9.34 3.253,9.407 3.271,9.478 3.168,9.438 3.014,9.384 3.025,9.249 M 0.546,9.494 C 0.559,9.418 0.584,9.344 0.622,9.275 0.449,9.159 0.402,8.946 0.386,8.751 0.366,8.435 0.472,8.12 0.414,7.806 0.35,7.556 0.055,7.443 0.029,7.177 -0.154,7.317 -0.194,7.607 -0.05,7.79 0.066,7.937 0.182,8.099 0.2,8.292 0.245,8.587 0.061,8.854 -0.155,9.034 0.004,8.712 -0.052,8.337 -0.197,8.02 -0.323,7.771 -0.322,7.445 -0.157,7.216 -0.021,7.089 0.066,6.925 0.153,6.763 0.163,6.607 -0.005,6.528 -0.082,6.412 -0.085,6.234 -0.107,6.049 -0.061,5.874 -0.029,5.74 0.123,5.789 0.223,5.779 0.17,5.839 0.095,5.885 0.064,5.961 0.051,6.109 0.058,6.283 0.175,6.392 0.287,6.512 0.481,6.534 0.559,6.687 0.613,6.854 0.571,7.033 0.569,7.204 0.606,7.146 0.644,7.089 0.68,7.03 0.83,7.163 0.998,7.292 1.077,7.483 0.851,7.488 0.714,7.748 0.804,7.945 0.837,7.808 0.867,7.562 1.058,7.583 1.2,7.681 1.304,7.819 1.417,7.946 1.503,8.061 1.714,7.986 1.744,8.157 1.66,8.155 1.565,8.186 1.49,8.136 1.34,8.021 1.228,7.864 1.07,7.759 1.108,7.847 1.173,7.93 1.165,8.029 1.167,8.239 1.051,8.42 0.95,8.593 0.875,8.683 0.964,8.821 0.85,8.889 1.038,8.831 1.2,8.954 1.383,8.954 1.424,9.023 1.482,9.106 1.354,9.127 1.355,9.144 1.358,9.176 1.359,9.191 1.228,9.199 1.095,9.199 0.964,9.178 0.955,9.197 0.936,9.235 0.927,9.254 0.871,9.254 0.815,9.254 0.76,9.253 0.769,9.271 0.787,9.31 0.797,9.329 0.716,9.389 0.634,9.446 0.546,9.494 m 7.3,-3.996 C 7.841,5.265 7.844,5.031 7.844,4.797 9.345,6.296 10.845,7.796 12.344,9.298 12.342,9.529 12.343,9.76 12.343,9.99 10.842,8.495 9.348,6.992 7.846,5.498 M 1.714,9.991 C 1.673,9.879 1.739,9.771 1.801,9.684 1.819,9.713 1.854,9.772 1.872,9.803 1.891,9.774 1.928,9.718 1.947,9.689 c 0.11,0.116 0.139,0.329 -0.001,0.432 -0.1,0.078 -0.21,-0.031 -0.232,-0.13 m 10.09,1.524 C 10.568,10.272 9.327,9.036 8.088,7.796 8.007,7.711 7.913,7.638 7.848,7.539 7.835,7.312 7.848,7.084 7.844,6.856 c 1.502,1.499 3.002,2.999 4.501,4.501 -0.001,0.053 -0.003,0.107 -0.004,0.16 -0.179,-10e-4 -0.358,0.001 -0.537,-0.002 m -2.07,0 C 9.181,10.955 8.623,10.401 8.067,9.845 7.993,9.767 7.904,9.7 7.848,9.607 c -0.013,-0.226 0,-0.454 -0.004,-0.68 0.864,0.861 1.729,1.72 2.586,2.589 -0.232,0 -0.464,0.002 -0.696,-10e-4 M 7.842,11.514 c 0.002,-0.174 0,-0.348 0.004,-0.522 0.177,0.168 0.358,0.336 0.516,0.523 -0.174,0.004 -0.346,0.002 -0.52,-0.001 m -8.171,0.007 C -0.34,10.793 -0.33,10.064 -0.333,9.337 -0.351,8.879 -0.348,8.42 -0.34,7.962 -0.237,8.197 -0.157,8.447 -0.14,8.705 -0.123,8.877 -0.243,9.014 -0.3,9.166 -0.014,9.093 0.217,8.853 0.276,8.562 0.255,8.769 0.321,8.968 0.388,9.161 0.419,9.215 0.489,9.231 0.537,9.269 0.482,9.302 0.427,9.335 0.373,9.367 0.348,9.33 0.323,9.293 0.297,9.256 0.284,9.303 0.258,9.396 0.245,9.443 0.325,9.429 0.405,9.41 0.484,9.39 0.495,9.456 0.506,9.523 0.518,9.589 0.669,9.515 0.798,9.39 0.969,9.356 1.053,9.342 1.125,9.295 1.195,9.247 1.3,9.233 1.428,9.275 1.514,9.197 1.528,9.108 1.54,8.992 1.467,8.925 1.301,8.892 1.146,8.825 0.994,8.75 1.004,8.676 1.038,8.607 1.081,8.545 1.177,8.4 1.225,8.231 1.27,8.064 1.434,8.22 1.587,8.421 1.826,8.454 1.825,8.53 1.825,8.605 1.824,8.681 1.524,8.776 1.536,9.243 1.826,9.346 1.826,9.425 1.825,9.504 1.824,9.583 1.641,9.646 1.558,9.861 1.62,10.038 1.658,10.19 1.848,10.304 1.99,10.211 2.22,10.07 2.182,9.676 1.927,9.581 c 0,-0.078 0,-0.157 10e-4,-0.237 0.283,-0.112 0.285,-0.556 0,-0.665 C 1.927,8.604 1.927,8.53 1.928,8.456 2.089,8.419 2.201,8.287 2.355,8.234 2.427,8.201 2.474,8.133 2.535,8.083 2.59,8.157 2.595,8.259 2.632,8.343 2.675,8.487 2.79,8.595 2.83,8.739 2.697,8.808 2.564,8.885 2.414,8.905 2.275,8.914 2.261,9.109 2.312,9.208 2.41,9.285 2.556,9.207 2.66,9.273 2.712,9.303 2.762,9.342 2.823,9.352 3.006,9.376 3.142,9.513 3.304,9.59 3.311,9.523 3.317,9.456 3.324,9.39 3.403,9.41 3.483,9.43 3.563,9.447 3.555,9.336 3.479,9.25 3.432,9.154 3.49,8.96 3.555,8.765 3.548,8.559 3.59,8.855 3.831,9.095 4.118,9.165 4.057,9.015 3.937,8.876 3.952,8.705 3.972,8.434 4.073,8.179 4.153,7.921 4.176,8.196 4.162,8.473 4.166,8.748 4.164,9.671 4.169,10.595 4.163,11.518 2.666,11.517 1.169,11.512 -0.329,11.521 m 7.723,0.602 V 2.425 c 0.101,0.073 0.203,0.144 0.305,0.218 -0.003,3.006 -0.003,6.013 0,9.02 1.541,10e-4 3.082,-0.005 4.623,0.003 0.049,0.134 0.008,0.308 0.021,0.456 -1.65,0.002 -3.3,10e-4 -4.949,10e-4 m -7.727,0 v -0.461 c 1.544,0 3.089,0 4.633,10e-4 C 4.302,8.657 4.3,5.651 4.301,2.646 4.407,2.572 4.512,2.497 4.616,2.421 v 9.702 z m 8.178,7.054 c -0.004,-1.384 0,-2.768 -10e-4,-4.152 1.5,10e-4 3,-0.004 4.501,0.003 -0.002,0.501 -0.035,1.013 0.112,1.5 0.169,0.669 0.589,1.236 1.046,1.737 0.297,0.332 0.646,0.609 0.972,0.912 -2.21,-0.001 -4.42,-0.002 -6.63,0 M 7.39,19.17 c 0.009,-1.581 0.001,-3.161 0.004,-4.741 h 4.949 c -10e-4,0.153 -10e-4,0.305 0.002,0.458 -1.549,0.009 -3.098,0 -4.648,0.004 0.001,1.428 0,2.857 0.001,4.285 C 7.595,19.177 7.492,19.175 7.39,19.17 M 4.751,19.176 C 4.749,17.549 4.752,15.922 4.75,14.294 c -1.695,10e-4 -3.389,0 -5.083,0 V 12.259 H 4.75 V 2.317 C 5.2,1.968 5.619,1.579 6.009,1.163 c 0.38,0.424 0.803,0.808 1.25,1.158 -0.001,3.313 0,6.625 0,9.938 1.695,0 3.389,-0.001 5.084,0 -10e-4,0.679 0,1.356 0,2.035 -1.695,10e-4 -3.389,10e-4 -5.083,0 -0.003,1.627 0,3.255 -10e-4,4.882 -0.836,0 -1.672,-10e-4 -2.508,0 m -0.45,0 c -0.001,-1.428 0,-2.858 0,-4.285 -1.545,10e-4 -3.088,-0.003 -4.632,0.002 -0.003,-0.155 -0.003,-0.31 -0.002,-0.464 1.649,10e-4 3.299,0 4.948,0 10e-4,1.582 10e-4,3.165 0,4.747 z m -6.763,-10e-4 c 0.314,-0.303 0.663,-0.568 0.953,-0.895 0.352,-0.392 0.691,-0.811 0.902,-1.299 0.16,-0.369 0.253,-0.767 0.272,-1.168 0.007,-0.264 -0.006,-0.528 0.006,-0.792 1.499,0.011 2.998,-0.002 4.497,0.007 -0.005,1.382 0,2.766 -0.003,4.148 -2.209,-10e-4 -4.418,0.001 -6.627,-10e-4 m 0.181,1.114 c 0.154,-0.16 0.313,-0.314 0.469,-0.473 5.212,0.001 10.424,-10e-4 15.636,0.001 0.155,0.16 0.315,0.313 0.467,0.473 -5.524,-0.003 -11.048,0 -16.572,-10e-4 m -0.465,3.872 c -0.108,-0.055 -0.182,-0.172 -0.174,-0.295 0,-0.869 -10e-4,-1.738 10e-4,-2.608 -0.014,-0.204 0.19,-0.353 0.382,-0.327 5.7,0 11.398,-0.001 17.097,0 0.188,-0.019 0.379,0.131 0.368,0.327 0.003,0.87 0.002,1.739 10e-4,2.607 0.009,0.176 -0.146,0.341 -0.325,0.326 -5.653,0.003 -11.307,-10e-4 -16.96,0.001 -0.13,-0.005 -0.268,0.022 -0.39,-0.031 m -0.238,0.601 c 0.21,0.098 0.445,0.067 0.669,0.071 5.654,0.001 11.309,-10e-4 16.963,0.001 0.489,0.006 0.925,-0.434 0.923,-0.922 0,-1.095 -10e-4,-2.189 0,-3.284 0.005,-0.103 -0.034,-0.206 -0.117,-0.269 -0.089,-0.076 -0.228,-0.047 -0.311,-0.132 -0.14,-0.134 -0.272,-0.275 -0.41,-0.41 0.237,-0.01 0.477,0.019 0.713,-0.014 0.254,-0.063 0.321,-0.431 0.113,-0.583 -0.482,-0.369 -0.936,-0.773 -1.38,-1.186 -0.465,-0.482 -0.928,-1.016 -1.099,-1.68 -0.128,-0.424 -0.092,-0.871 -0.096,-1.306 V 6.139 C 12.97,5.691 12.853,5.236 12.589,4.87 12.408,4.592 12.178,4.352 11.938,4.124 c 2.793,0.005 5.586,0.002 8.379,0.002 0.496,-0.001 0.932,-0.458 0.912,-0.954 -10e-4,-0.87 -10e-4,-1.74 -10e-4,-2.61 -0.001,-0.196 0.017,-0.399 -0.054,-0.586 -0.129,-0.372 -0.509,-0.636 -0.903,-0.629 -2.395,-0.001 -4.79,0 -7.185,-0.001 0.22,-0.507 0.448,-1.01 0.67,-1.516 0.065,-0.15 0.145,-0.298 0.176,-0.461 C 14.004,-2.98 13.858,-3.365 13.57,-3.577 13.414,-3.692 13.226,-3.75 13.048,-3.824 9.903,-5.09 6.414,-5.481 3.065,-4.953 c -1.426,0.223 -2.826,0.61 -4.166,1.151 -0.183,0.076 -0.378,0.141 -0.527,0.278 -0.294,0.262 -0.4,0.715 -0.241,1.078 0.262,0.598 0.528,1.195 0.791,1.793 -2.406,0 -4.814,-0.003 -7.22,0.001 -0.477,0.003 -0.912,0.419 -0.92,0.898 -10e-4,0.989 0,1.98 -10e-4,2.97 -0.001,0.485 0.439,0.914 0.923,0.91 2.788,10e-4 5.576,-0.001 8.365,10e-4 -0.319,0.295 -0.609,0.628 -0.815,1.013 -0.167,0.352 -0.24,0.746 -0.229,1.134 0.001,3.12 0,6.239 0.001,9.358 -0.003,0.435 -0.105,0.872 -0.308,1.258 -0.271,0.499 -0.658,0.924 -1.068,1.312 -0.36,0.317 -0.711,0.645 -1.094,0.933 -0.083,0.065 -0.179,0.13 -0.213,0.235 -0.074,0.185 0.061,0.418 0.26,0.441 0.223,0.015 0.449,0.001 0.673,0.006 -0.156,0.158 -0.32,0.306 -0.476,0.462 -0.169,0.003 -0.358,0.111 -0.36,0.297 -0.003,1.112 0,2.225 -0.002,3.336 -0.002,0.365 0.242,0.713 0.578,0.85"
           style="fill:#176fc1;fill-opacity:1;fill-rule:nonzero;stroke:none"
           id="path200756"
           inkscape:connector-curvature="0" />
      </g>
      <g
         id="g200758"
         transform="translate(226.0479,184.8263)">
        <path
           d="M 0,0 C 0.245,-0.009 0.491,0.015 0.734,-0.017 0.736,-0.734 0.753,-1.452 0.748,-2.17 0.975,-2.315 1.278,-2.342 1.51,-2.189 1.708,-2.101 1.792,-1.882 1.976,-1.777 1.955,-2.035 1.907,-2.29 1.869,-2.545 1.297,-2.539 0.726,-2.549 0.154,-2.54 0.144,-1.775 0.165,-1.012 0.172,-0.248 0.182,-0.129 0.04,-0.098 0,0"
           style="fill:#176fc1;fill-opacity:1;fill-rule:nonzero;stroke:none"
           id="path200760"
           inkscape:connector-curvature="0" />
      </g>
      <g
         id="g200762"
         transform="translate(229.0474,184.5626)">
        <path
           d="m 0,0 c -0.137,-0.072 -0.216,-0.222 -0.257,-0.365 -0.109,-0.445 0.022,-0.922 0.278,-1.292 0.12,-0.168 0.289,-0.324 0.5,-0.354 0.194,-0.019 0.351,0.136 0.414,0.306 0.126,0.349 0.071,0.738 -0.071,1.073 C 0.75,-0.38 0.585,-0.13 0.33,-0.006 0.228,0.048 0.103,0.051 0,0 M 0.054,0.256 C 0.41,0.351 0.807,0.276 1.098,0.048 1.675,-0.424 1.751,-1.405 1.22,-1.94 0.797,-2.394 -0.009,-2.442 -0.458,-2.001 -0.95,-1.54 -1.009,-0.696 -0.593,-0.167 -0.435,0.044 -0.2,0.19 0.054,0.256"
           style="fill:#176fc1;fill-opacity:1;fill-rule:nonzero;stroke:none"
           id="path200764"
           inkscape:connector-curvature="0" />
      </g>
      <g
         id="g200766"
         transform="translate(233.4551,184.5626)">
        <path
           d="M 0,0 C -0.14,-0.062 -0.218,-0.21 -0.261,-0.351 -0.372,-0.769 -0.255,-1.219 -0.035,-1.582 0.067,-1.757 0.217,-1.908 0.407,-1.986 0.535,-2.037 0.69,-2.012 0.788,-1.913 0.957,-1.756 0.995,-1.512 1,-1.292 0.997,-0.884 0.841,-0.475 0.562,-0.176 0.418,-0.036 0.202,0.103 0,0 m 0.053,0.257 c 0.333,0.087 0.703,0.027 0.986,-0.171 0.624,-0.448 0.721,-1.469 0.18,-2.019 -0.425,-0.469 -1.255,-0.51 -1.702,-0.051 -0.496,0.488 -0.53,1.378 -0.052,1.889 0.155,0.173 0.362,0.297 0.588,0.352"
           style="fill:#176fc1;fill-opacity:1;fill-rule:nonzero;stroke:none"
           id="path200768"
           inkscape:connector-curvature="0" />
      </g>
      <g
         id="g200770"
         transform="translate(230.4102,184.8126)">
        <path
           d="m 0,0 c 0.257,0.014 0.519,0.029 0.774,-0.004 0.197,-0.333 0.334,-0.698 0.497,-1.048 0.198,0.225 0.354,0.508 0.363,0.814 C 1.593,-0.099 1.401,-0.117 1.351,0.009 1.569,0.016 1.788,0.008 2.007,0.016 2.03,-0.051 2.054,-0.121 2.033,-0.192 1.959,-0.568 1.804,-0.935 1.553,-1.228 1.495,-1.31 1.395,-1.381 1.411,-1.493 1.415,-1.735 1.426,-1.978 1.425,-2.22 1.416,-2.358 1.617,-2.385 1.603,-2.528 1.357,-2.532 1.112,-2.526 0.867,-2.532 0.841,-2.475 0.811,-2.415 0.816,-2.35 0.81,-2.055 0.827,-1.76 0.81,-1.466 0.752,-1.265 0.664,-1.075 0.585,-0.882 0.484,-0.659 0.396,-0.426 0.239,-0.235 0.168,-0.147 0.066,-0.092 0,0"
           style="fill:#176fc1;fill-opacity:1;fill-rule:nonzero;stroke:none"
           id="path200772"
           inkscape:connector-curvature="0" />
      </g>
      <g
         id="g200774"
         transform="translate(235.2793,184.8195)">
        <path
           d="m 0,0 c 0.249,0.007 0.498,0.013 0.746,-0.005 0.028,-0.722 0.004,-1.443 0.02,-2.166 0.227,-0.128 0.515,-0.165 0.745,-0.02 0.205,0.086 0.291,0.316 0.484,0.417 C 1.969,-2.03 1.92,-2.282 1.888,-2.536 c -0.573,-10e-4 -1.144,0 -1.717,0 -0.024,0.495 0.014,0.99 0.004,1.485 C 0.17,-0.756 0.208,-0.46 0.178,-0.166 0.122,-0.107 0.059,-0.057 0,0"
           style="fill:#176fc1;fill-opacity:1;fill-rule:nonzero;stroke:none"
           id="path200776"
           inkscape:connector-curvature="0" />
      </g>
      <g
         id="g200778"
         transform="translate(238.1396,183.171)">
        <path
           d="M 0,0 C 0.113,0.155 0.303,0.153 0.477,0.165 0.429,0.365 0.369,0.562 0.306,0.757 0.172,0.52 0.07,0.265 0,0 M -0.622,-0.479 C -0.398,0.263 -0.1,0.983 0.284,1.656 0.39,1.654 0.497,1.653 0.604,1.652 0.849,1.02 1.097,0.388 1.341,-0.245 1.404,-0.408 1.483,-0.572 1.62,-0.686 1.685,-0.747 1.787,-0.784 1.793,-0.887 1.501,-0.886 1.208,-0.894 0.917,-0.885 c -0.094,0.002 -0.142,0.097 -0.175,0.17 -0.07,0.172 -0.102,0.356 -0.143,0.535 -0.218,0.006 -0.434,-0.013 -0.65,-0.01 -0.043,-0.135 -0.077,-0.289 -0.002,-0.417 0.048,-0.114 0.186,-0.155 0.223,-0.274 -0.229,-0.012 -0.459,-0.008 -0.688,-0.007 -0.067,-0.004 -0.154,0.015 -0.175,0.088 -0.006,0.112 0.042,0.216 0.071,0.321"
           style="fill:#176fc1;fill-opacity:1;fill-rule:nonzero;stroke:none"
           id="path200780"
           inkscape:connector-curvature="0" />
      </g>
      <g
         id="g200782"
         transform="translate(224.7656,179.9992)">
        <path
           d="m 0,0 c 2.033,0.002 4.067,0.001 6.101,0 0,-1.281 -0.001,-2.563 0,-3.845 -1.403,-10e-4 -2.806,-0.003 -4.208,0 10e-4,0.199 0.003,0.398 10e-4,0.596 -0.022,0.588 -0.193,1.17 -0.496,1.674 C 1.022,-0.979 0.542,-0.45 0,0"
           style="fill:#176fc1;fill-opacity:1;fill-rule:nonzero;stroke:none"
           id="path200784"
           inkscape:connector-curvature="0" />
      </g>
      <g
         id="g200786"
         transform="translate(234.8364,180.0001)">
        <path
           d="M 0,0 C 2.031,-0.002 4.062,0.002 6.094,-0.003 5.578,-0.442 5.108,-0.943 4.739,-1.515 4.46,-1.956 4.285,-2.462 4.226,-2.981 4.189,-3.27 4.216,-3.56 4.203,-3.849 2.802,-3.845 1.401,-3.849 0,-3.847 Z"
           style="fill:#176fc1;fill-opacity:1;fill-rule:nonzero;stroke:none"
           id="path200788"
           inkscape:connector-curvature="0" />
      </g>
      <g
         id="g200790"
         transform="translate(242.105,163.7697)">
        <path
           d="M 0,0 C 0.462,0.073 0.967,-0.119 1.392,0.145 1.367,0.017 1.335,-0.11 1.3,-0.236 1.174,-0.247 1.047,-0.244 0.922,-0.261 0.86,-0.261 0.823,-0.322 0.831,-0.38 0.82,-0.802 0.846,-1.223 0.842,-1.645 0.837,-1.747 0.939,-1.805 0.998,-1.875 0.815,-1.88 0.633,-1.879 0.45,-1.876 c -0.026,0.48 -0.009,0.962 -0.014,1.443 0.09,0.035 0.182,0.069 0.272,0.106 C 0.56,-0.201 0.342,-0.25 0.175,-0.312 0.041,-0.356 -0.047,-0.493 -0.19,-0.506 -0.135,-0.334 -0.066,-0.168 0,0"
           style="fill:#176fc1;fill-opacity:1;fill-rule:nonzero;stroke:none"
           id="path200792"
           inkscape:connector-curvature="0" />
      </g>
      <g
         id="g200794"
         transform="translate(223.9033,163.7247)">
        <path
           d="M 0,0 C 0.412,0.021 0.859,-0.102 1.234,0.129 1.211,-0.002 1.177,-0.131 1.137,-0.259 0.998,-0.263 0.856,-0.25 0.72,-0.283 0.71,-0.298 0.69,-0.325 0.68,-0.34 0.673,-0.799 0.667,-1.261 0.687,-1.721 c 0.048,-0.057 0.096,-0.116 0.14,-0.176 -0.177,0.001 -0.358,-0.022 -0.533,0.01 -0.029,0.478 -0.004,0.96 -0.012,1.441 0.091,0.034 0.181,0.07 0.269,0.112 -0.145,0.099 -0.336,0.075 -0.493,0.022 -0.146,-0.045 -0.253,-0.165 -0.392,-0.224 0.017,0.166 0.096,0.316 0.157,0.47 C -0.156,0.01 -0.059,-0.01 0,0"
           style="fill:#176fc1;fill-opacity:1;fill-rule:nonzero;stroke:none"
           id="path200796"
           inkscape:connector-curvature="0" />
      </g>
      <g
         id="g200798"
         transform="translate(238.2637,163.7892)">
        <path
           d="m 0,0 c 0.223,0.007 0.447,-0.003 0.67,0.01 0.204,0.005 0.41,0.03 0.609,-0.023 0.02,-0.174 0.042,-0.348 0.05,-0.524 -0.105,0.13 -0.18,0.302 -0.351,0.355 C 0.845,-0.118 0.706,-0.18 0.581,-0.228 0.577,-0.452 0.575,-0.678 0.57,-0.902 c 0.092,-0.058 0.123,0.108 0.174,0.16 0.136,0.006 0.273,0.013 0.41,0.016 C 1.133,-0.833 1.111,-0.939 1.087,-1.046 0.933,-1.037 0.778,-1.021 0.624,-1.03 0.613,-1.041 0.591,-1.063 0.58,-1.074 0.571,-1.256 0.591,-1.437 0.602,-1.619 0.598,-1.739 0.709,-1.809 0.775,-1.894 0.57,-1.901 0.366,-1.896 0.161,-1.897 0.091,-1.612 0.144,-1.318 0.138,-1.03 0.132,-0.733 0.174,-0.437 0.132,-0.142 0.082,-0.1 0.035,-0.054 0,0"
           style="fill:#176fc1;fill-opacity:1;fill-rule:nonzero;stroke:none"
           id="path200800"
           inkscape:connector-curvature="0" />
      </g>
      <g
         id="g200802"
         transform="translate(240.1362,163.1144)">
        <path
           d="m 0,0 c -0.094,-0.182 -0.177,-0.37 -0.227,-0.568 0.037,0.036 0.075,0.071 0.112,0.107 0.08,0.007 0.16,0.015 0.241,0.021 C 0.094,-0.291 0.053,-0.144 0,0 m -0.024,0.676 c 0.083,0.001 0.167,0.002 0.252,0.003 0.199,-0.509 0.393,-1.02 0.597,-1.527 0.052,-0.161 0.217,-0.235 0.3,-0.373 -0.237,0 -0.474,-0.011 -0.71,0.005 -0.142,0.133 -0.144,0.346 -0.192,0.522 -0.164,-0.007 -0.327,-0.014 -0.492,-0.012 -0.017,-0.095 -0.049,-0.199 -0.004,-0.293 0.047,-0.082 0.121,-0.145 0.18,-0.219 -0.206,-0.004 -0.412,-0.015 -0.617,0.003 -0.058,0.03 -0.031,0.111 -0.021,0.162 0.167,0.602 0.411,1.179 0.707,1.729"
           style="fill:#176fc1;fill-opacity:1;fill-rule:nonzero;stroke:none"
           id="path200804"
           inkscape:connector-curvature="0" />
      </g>
      <g
         id="g200806"
         transform="translate(241.228,163.7697)">
        <path
           d="M 0,0 C 0.146,0.038 0.3,0.023 0.451,0.021 0.511,0.032 0.546,-0.024 0.584,-0.06 0.552,-0.573 0.573,-1.089 0.6,-1.602 0.589,-1.728 0.712,-1.789 0.781,-1.874 0.576,-1.883 0.37,-1.875 0.165,-1.881 0.107,-1.672 0.12,-1.451 0.127,-1.237 0.144,-0.893 0.148,-0.547 0.142,-0.202 0.152,-0.106 0.053,-0.061 0,0"
           style="fill:#176fc1;fill-opacity:1;fill-rule:nonzero;stroke:none"
           id="path200808"
           inkscape:connector-curvature="0" />
      </g>
      <g
         id="g200810"
         transform="translate(243.5947,163.7912)">
        <path
           d="M 0,0 C 0.141,0 0.283,0.006 0.424,0 0.499,0.013 0.536,-0.073 0.531,-0.135 0.538,-0.397 0.53,-0.661 0.518,-0.924 c 0.046,0.07 0.089,0.143 0.133,0.214 0.193,0.012 0.386,-0.021 0.578,-0.004 0.015,0.011 0.044,0.032 0.058,0.044 0.018,0.163 0.015,0.329 0.005,0.492 -0.035,0.067 -0.088,0.119 -0.134,0.177 0.171,-0.001 0.343,0.013 0.513,-0.007 0.074,-0.045 0.048,-0.14 0.055,-0.213 C 1.722,-0.699 1.72,-1.179 1.757,-1.656 1.761,-1.765 1.874,-1.817 1.934,-1.895 1.727,-1.904 1.52,-1.898 1.312,-1.898 1.232,-1.556 1.306,-1.202 1.297,-0.854 1.194,-0.858 1.207,-0.975 1.174,-1.041 0.963,-1.058 0.75,-1.048 0.54,-1.078 0.528,-1.288 0.536,-1.5 0.564,-1.708 0.599,-1.783 0.669,-1.833 0.723,-1.895 0.532,-1.894 0.338,-1.92 0.15,-1.884 0.089,-1.666 0.122,-1.437 0.125,-1.216 0.126,-0.871 0.153,-0.527 0.134,-0.184 0.104,-0.112 0.045,-0.061 0,0"
           style="fill:#176fc1;fill-opacity:1;fill-rule:nonzero;stroke:none"
           id="path200812"
           inkscape:connector-curvature="0" />
      </g>
      <g
         id="g200814"
         transform="translate(219.6025,163.7326)">
        <path
           d="m 0,0 c 0.184,-0.016 0.392,0.051 0.561,-0.037 0.041,-0.189 0.006,-0.387 0.017,-0.579 0.017,-0.431 0.012,-0.861 0.01,-1.291 -0.275,-0.197 -0.544,-0.402 -0.817,-0.6 -0.013,0.02 -0.039,0.061 -0.051,0.081 0.153,0.206 0.303,0.423 0.367,0.675 0.058,0.224 0.054,0.456 0.053,0.685 0.003,0.295 0.027,0.59 0.003,0.885 C 0.11,-0.11 0.047,-0.061 0,0"
           style="fill:#176fc1;fill-opacity:1;fill-rule:nonzero;stroke:none"
           id="path200816"
           inkscape:connector-curvature="0" />
      </g>
      <g
         id="g200818"
         transform="translate(220.3643,163.7296)">
        <path
           d="M 0,0 C 0.189,0.011 0.378,0.006 0.568,0.005 0.622,-0.271 0.578,-0.556 0.595,-0.836 0.607,-1.048 0.543,-1.3 0.696,-1.476 0.823,-1.629 1.052,-1.594 1.21,-1.514 1.208,-1.049 1.218,-0.582 1.207,-0.116 1.158,-0.074 1.104,-0.039 1.052,-0.002 1.244,0.005 1.437,0.021 1.628,-0.005 1.669,-0.144 1.646,-0.29 1.649,-0.433 1.628,-0.836 1.644,-1.24 1.638,-1.644 1.643,-1.728 1.544,-1.759 1.484,-1.793 1.136,-1.936 0.719,-1.975 0.378,-1.792 0.24,-1.723 0.147,-1.575 0.155,-1.42 0.151,-1.001 0.158,-0.581 0.153,-0.162 0.154,-0.076 0.05,-0.053 0,0"
           style="fill:#176fc1;fill-opacity:1;fill-rule:nonzero;stroke:none"
           id="path200820"
           inkscape:connector-curvature="0" />
      </g>
      <g
         id="g200822"
         transform="translate(222.5942,163.6622)">
        <path
           d="M 0,0 C 0.23,0.123 0.506,0.114 0.755,0.063 0.837,0.048 0.943,-0.032 0.89,-0.124 0.849,-0.215 0.838,-0.344 0.757,-0.403 0.652,-0.281 0.546,-0.116 0.366,-0.116 0.245,-0.108 0.078,-0.175 0.092,-0.32 0.077,-0.442 0.146,-0.578 0.278,-0.594 0.542,-0.652 0.864,-0.672 1.029,-0.918 1.167,-1.183 1.036,-1.537 0.79,-1.691 0.544,-1.854 0.231,-1.852 -0.051,-1.819 c -0.118,0.021 -0.271,0.034 -0.337,0.151 0.021,0.159 0.091,0.306 0.137,0.458 0.144,-0.152 0.298,-0.344 0.524,-0.358 0.112,0.013 0.257,0.014 0.325,0.121 0.038,0.093 0.05,0.222 -0.043,0.289 -0.18,0.149 -0.428,0.131 -0.637,0.209 -0.18,0.067 -0.287,0.263 -0.274,0.451 0,0.222 0.169,0.402 0.356,0.498"
           style="fill:#176fc1;fill-opacity:1;fill-rule:nonzero;stroke:none"
           id="path200824"
           inkscape:connector-curvature="0" />
      </g>
      <g
         id="g200826"
         transform="translate(225.1909,163.7326)">
        <path
           d="M 0,0 C 0.156,0.003 0.312,0.009 0.468,0.002 0.537,0.01 0.594,-0.059 0.588,-0.125 0.571,-0.635 0.576,-1.146 0.612,-1.655 0.618,-1.768 0.735,-1.819 0.793,-1.902 0.6,-1.908 0.405,-1.92 0.212,-1.9 0.14,-1.893 0.149,-1.794 0.142,-1.742 0.114,-1.218 0.182,-0.691 0.145,-0.167 0.107,-0.103 0.049,-0.055 0,0"
           style="fill:#176fc1;fill-opacity:1;fill-rule:nonzero;stroke:none"
           id="path200828"
           inkscape:connector-curvature="0" />
      </g>
      <g
         id="g200830"
         transform="translate(226.4707,163.6515)">
        <path
           d="M 0,0 C 0.277,0.134 0.632,0.164 0.902,-0.004 0.864,-0.16 0.819,-0.314 0.765,-0.466 0.669,-0.334 0.59,-0.172 0.43,-0.107 0.27,-0.05 0.117,-0.17 0.03,-0.295 -0.131,-0.51 -0.112,-0.801 -0.057,-1.051 -0.013,-1.24 0.149,-1.427 0.358,-1.412 0.62,-1.389 0.875,-1.325 1.131,-1.272 0.995,-1.434 0.877,-1.612 0.726,-1.759 0.431,-1.908 0.057,-1.827 -0.195,-1.628 -0.696,-1.209 -0.58,-0.293 0,0"
           style="fill:#176fc1;fill-opacity:1;fill-rule:nonzero;stroke:none"
           id="path200832"
           inkscape:connector-curvature="0" />
      </g>
      <g
         id="g200834"
         transform="translate(227.5371,163.7287)">
        <path
           d="m 0,0 c 0.428,-0.007 0.86,0.056 1.284,-0.01 0.019,-0.175 0.041,-0.349 0.047,-0.525 -0.085,0.116 -0.157,0.256 -0.294,0.317 -0.142,0.077 -0.314,0.05 -0.454,-0.021 0.006,-0.232 -0.032,-0.466 0.007,-0.697 0.069,0.046 0.11,0.12 0.158,0.184 0.133,0.034 0.276,0.01 0.413,0.026 -0.021,-0.104 -0.042,-0.21 -0.063,-0.315 -0.164,0 -0.328,0.027 -0.492,0.005 -0.056,-0.196 0.003,-0.411 0,-0.614 0.166,-0.085 0.366,-0.102 0.531,-0.003 0.16,0.062 0.231,0.232 0.371,0.321 C 1.493,-1.523 1.461,-1.714 1.437,-1.904 1.009,-1.891 0.576,-1.936 0.15,-1.881 0.131,-1.713 0.119,-1.544 0.131,-1.375 0.15,-0.971 0.146,-0.566 0.146,-0.161 0.096,-0.108 0.046,-0.056 0,0"
           style="fill:#176fc1;fill-opacity:1;fill-rule:nonzero;stroke:none"
           id="path200836"
           inkscape:connector-curvature="0" />
      </g>
      <g
         id="g200838"
         transform="translate(228.3394,159.8497)">
        <path
           d="m 0,0 c 0.261,-0.043 0.519,-0.104 0.773,-0.172 0.092,-0.227 0.095,-0.486 0.163,-0.724 0.196,0.178 0.366,0.383 0.562,0.561 0.14,-0.028 0.28,-0.061 0.419,-0.093 C 1.826,-1.031 1.655,-1.621 1.546,-2.221 1.537,-2.32 1.646,-2.385 1.65,-2.485 1.468,-2.439 1.277,-2.418 1.102,-2.35 c -0.029,0.072 0.003,0.147 0.015,0.216 0.099,0.425 0.197,0.849 0.291,1.275 C 1.218,-1.059 1.025,-1.256 0.831,-1.45 0.76,-1.437 0.69,-1.422 0.62,-1.408 0.561,-1.157 0.526,-0.899 0.441,-0.655 0.341,-1.056 0.253,-1.461 0.162,-1.863 c -0.04,-0.115 0.05,-0.206 0.093,-0.303 -0.172,0.033 -0.342,0.078 -0.513,0.115 0.119,0.636 0.28,1.263 0.405,1.897 C 0.097,-0.104 0.047,-0.053 0,0"
           style="fill:#176fc1;fill-opacity:1;fill-rule:nonzero;stroke:none"
           id="path200840"
           inkscape:connector-curvature="0" />
      </g>
      <g
         id="g200842"
         transform="translate(236.5259,159.6329)">
        <path
           d="M 0,0 C 0.184,0.047 0.368,0.095 0.558,0.113 0.635,-0.304 0.513,-0.735 0.306,-1.098 0.354,-1.309 0.397,-1.521 0.45,-1.731 0.465,-1.837 0.582,-1.863 0.657,-1.917 0.641,-1.932 0.609,-1.961 0.593,-1.977 0.419,-2.028 0.238,-2.054 0.063,-2.103 c -0.174,0.317 -0.111,0.725 -0.338,1.017 -0.221,0.302 -0.411,0.661 -0.77,0.819 -0.001,0.008 -0.002,0.025 -0.003,0.034 0.174,0.048 0.353,0.085 0.53,0.121 0.068,0.033 0.11,-0.038 0.147,-0.08 0.174,-0.216 0.331,-0.445 0.508,-0.659 0.099,0.212 0.184,0.453 0.136,0.689 C 0.228,-0.051 0.079,-0.076 0,0"
           style="fill:#176fc1;fill-opacity:1;fill-rule:nonzero;stroke:none"
           id="path200844"
           inkscape:connector-curvature="0" />
      </g>
      <g
         id="g200846"
         transform="translate(234.3853,159.2062)">
        <path
           d="M 0,0 C 0.278,0.163 0.649,0.24 0.947,0.082 0.916,-0.091 0.885,-0.264 0.854,-0.437 0.754,-0.305 0.649,-0.163 0.494,-0.094 0.392,-0.046 0.272,-0.077 0.191,-0.148 -0.015,-0.318 -0.092,-0.611 -0.035,-0.867 0.004,-1.093 0.081,-1.35 0.301,-1.459 0.437,-1.535 0.59,-1.484 0.728,-1.445 0.937,-1.389 1.14,-1.312 1.347,-1.252 1.241,-1.419 1.136,-1.586 1.028,-1.752 0.967,-1.854 0.844,-1.888 0.74,-1.922 0.368,-2.013 -0.065,-1.874 -0.283,-1.552 -0.61,-1.071 -0.511,-0.315 0,0"
           style="fill:#176fc1;fill-opacity:1;fill-rule:nonzero;stroke:none"
           id="path200848"
           inkscape:connector-curvature="0" />
      </g>
      <g
         id="g200850"
         transform="translate(230.5493,159.3663)">
        <path
           d="M 0,0 C 0.245,-0.006 0.487,-0.048 0.732,-0.056 0.956,-0.074 1.19,-0.062 1.399,-0.158 1.395,-0.344 1.401,-0.531 1.389,-0.718 1.311,-0.588 1.251,-0.437 1.117,-0.354 0.972,-0.245 0.778,-0.265 0.615,-0.315 0.583,-0.554 0.561,-0.794 0.526,-1.032 0.639,-1.085 0.679,-0.95 0.73,-0.881 0.881,-0.886 1.032,-0.896 1.182,-0.906 1.151,-1.011 1.125,-1.116 1.085,-1.219 0.913,-1.255 0.729,-1.15 0.554,-1.186 0.471,-1.386 0.516,-1.625 0.492,-1.84 0.65,-1.951 0.856,-1.985 1.038,-1.914 1.228,-1.863 1.334,-1.685 1.497,-1.59 1.463,-1.796 1.403,-1.997 1.359,-2.201 0.94,-2.162 0.521,-2.12 0.101,-2.079 c -0.041,0.012 -0.132,0.003 -0.119,0.072 -0.019,0.239 0.021,0.478 0.05,0.715 0.044,0.346 0.083,0.692 0.113,1.04 C 0.161,-0.145 0.049,-0.08 0,0"
           style="fill:#176fc1;fill-opacity:1;fill-rule:nonzero;stroke:none"
           id="path200852"
           inkscape:connector-curvature="0" />
      </g>
      <g
         id="g200854"
         transform="translate(232.792,158.9747)">
        <path
           d="m 0,0 c 0.009,-0.287 0.007,-0.574 0.012,-0.861 0.031,0.052 0.064,0.102 0.099,0.151 0.096,0.058 0.222,0.059 0.306,0.136 0.103,0.137 0.066,0.33 -0.002,0.473 C 0.328,0.042 0.142,0.023 0,0 M -0.596,0.22 C -0.3,0.247 -0.002,0.228 0.293,0.257 0.49,0.271 0.711,0.207 0.818,0.03 0.949,-0.177 0.902,-0.443 0.814,-0.658 0.763,-0.79 0.634,-0.864 0.511,-0.92 0.876,-1.091 0.812,-1.608 1.161,-1.804 0.975,-1.811 0.789,-1.822 0.604,-1.817 0.417,-1.594 0.472,-1.26 0.27,-1.05 0.197,-0.966 0.071,-0.997 0.018,-1.085 -0.001,-1.261 0.02,-1.438 0.026,-1.614 c 0.036,-0.074 0.117,-0.118 0.145,-0.197 -0.182,-0.011 -0.366,-0.021 -0.549,-0.013 -0.056,0.103 -0.02,0.23 -0.029,0.343 -0.011,0.497 -0.018,0.995 -0.03,1.492 0.02,0.111 -0.094,0.147 -0.159,0.209"
           style="fill:#176fc1;fill-opacity:1;fill-rule:nonzero;stroke:none"
           id="path200856"
           inkscape:connector-curvature="0" />
      </g>
    </g>
  </g>
</svg>
