<?xml version="1.0" encoding="UTF-8" standalone="no"?>
<svg
   viewBox="0 0 557.99998 478.50344"
   version="1.1"
   id="svg76"
   width="558"
   height="478.50342"
   xmlns="http://www.w3.org/2000/svg"
   xmlns:svg="http://www.w3.org/2000/svg"
   xmlns:rdf="http://www.w3.org/1999/02/22-rdf-syntax-ns#"
   xmlns:cc="http://creativecommons.org/ns#"
   xmlns:dc="http://purl.org/dc/elements/1.1/">
  <metadata
     id="metadata80">
    <rdf:RDF>
      <cc:Work
         rdf:about="">
        <dc:format>image/svg+xml</dc:format>
        <dc:type
           rdf:resource="http://purl.org/dc/dcmitype/StillImage" />
        <dc:title>macrob-logo</dc:title>
      </cc:Work>
    </rdf:RDF>
  </metadata>
  <defs
     id="defs4">
    <style
       id="style2">
      .a {
        fill: #691b31;
      }

      .b {
        fill: #4b4b4d;
      }
    </style>
  </defs>
  <title
     id="title6">macrob-logo</title>
  <g
     id="g64"
     transform="translate(0,0.0034056)">
    <path
       class="a"
       d="m 0,413.44 c 0,-61.5 0.1,-65 1.8,-64.5 0.9,0.4 17.9,6.6 37.7,13.9 l 36,13.4 0.3,-13.4 0.3,-13.3 H 482 v 13 c 0,7.2 0.3,13 0.6,13 0.3,0 17.2,-6.3 37.4,-14 20.2,-7.7 37,-14 37.4,-14 0.4,0 0.6,29.2 0.6,64.9 v 65 l -5.2,-1.9 c -2.9,-1 -19.9,-7.3 -37.8,-13.9 -17.9,-6.6 -32.5,-12.1 -32.7,-12.1 -0.2,0 -0.3,6.1 -0.3,13.5 v 13.5 L 279.3,476.34 76.5,476 76.2,463.3 c -0.1,-7.1 -0.7,-12.8 -1.1,-12.8 -0.9,0 -5.8,1.9 -50.9,19.1 -12.8,4.9 -23.5,8.9 -23.7,8.9 C 0.3,478.5 0,449.24 0,413.44 Z m 21.3,51.4 c 1.6,-0.5 1.7,-3.8 1.7,-51.3 v -50.8 l -6.7,-2.5 c -3.8,-1.4 -7.6,-2.8 -8.5,-3.2 -1.7,-0.7 -1.8,2.4 -1.8,56.4 v 57.1 l 6.8,-2.6 c 3.7,-1.4 7.5,-2.8 8.5,-3.1 z m 455.5,-52 -0.3,-57.8 -197.2,-0.3 -197.3,-0.2 v 116 h 395 z m 74.9,-56.9 c -0.1,-0.2 -4.6,1.3 -10,3.3 l -9.7,3.6 V 462 l 9.8,3.5 9.7,3.5 0.3,-56.4 c 0.1,-30.96 0.1,-56.6 -0.1,-56.66 z M 57.7,450.84 76,444 75.7,413.1 75.5,382.2 54.5,374.4 C 43,370 32.7,366.3 31.8,365.9 30.1,365.4 30,368.1 30,413.4 v 48.1 l 4.8,-1.9 c 2.6,-1.06 12.9,-4.96 22.9,-8.76 z M 525,412.54 c 0,-35.2 -0.3,-46 -1.2,-46 -0.7,0 -10.3,3.5 -21.5,7.7 L 482,382 v 61.3 l 4.3,1.6 c 23.1,8.7 36.4,13.5 37.5,13.6 0.9,0.04 1.2,-9.76 1.2,-45.96 z"
       id="path14" />
    <path
       class="a"
       d="m 96,413.54 v -39 l 180.8,0.2 180.7,0.3 v 77 l -180.7,0.3 -180.8,0.2 z m 356,0 v -33 H 101 v 66 h 351 z"
       id="path16" />
    <path
       class="a"
       d="m 163,434.44 c -9.1,-2.7 -14.5,-10.9 -13.8,-21 0.8,-10.9 8.2,-17.9 19.2,-17.9 9,0 13.9,2.8 17.7,10.2 2.1,4.2 2.5,13 0.8,17.5 -1.2,3.4 -5.5,8 -8.9,9.8 -3.6,1.9 -10.9,2.6 -15,1.4 z m 10.9,-3.3 c 4.5,-2.4 6.4,-6.2 6.9,-14.1 0.4,-5.8 0,-8.1 -1.6,-11.8 -5.4,-12.1 -20.6,-8.9 -22.6,4.8 -2.4,15.8 6.5,26.6 17.3,21.1 z"
       id="path18" />
    <path
       class="a"
       d="m 318,434.44 a 16.13,16.13 0 0 0 -6.1,-0.3 c -2.5,0.5 -2.6,0.3 -3.3,-5.2 -0.7,-5.5 0.1,-8.6 1.2,-5.4 1.2,3.4 8,9 10.9,9 4.5,0 7.3,-2.5 7.3,-6.6 0,-2.9 -0.6,-3.8 -4.1,-6.2 -13,-8.7 -15.6,-11.7 -14.3,-16.6 a 13.08,13.08 0 0 1 3.2,-5.1 c 2.4,-2.4 3.1,-2.5 10.9,-2.3 9.2,0.3 8.8,0 9.6,8.1 0.4,4.4 -0.7,4.8 -2.7,0.9 -3.2,-6.1 -9.6,-8.7 -13.6,-5.4 -4,3.3 -2.2,6.5 7.1,12.4 11.1,7 13.5,12.5 8.3,18.7 -2.1,2.5 -8.2,5.4 -10.4,5 -0.3,-0.1 -2.1,-0.5 -4,-1 z"
       id="path20" />
    <path
       class="a"
       d="m 365.5,434.44 a 15.62,15.62 0 0 0 -5.6,-0.5 c -2.5,0.5 -2.7,0.2 -3.3,-4.1 -0.3,-2.5 -0.6,-5.2 -0.6,-5.9 0,-2.4 1.7,-1.5 2.9,1.4 1.4,3.3 6.9,7.2 10.2,7.2 3.7,0 6.9,-2.7 6.9,-5.9 0,-3.7 -1.3,-5.2 -9.6,-10.4 -10,-6.3 -11.9,-12.3 -5.9,-18.3 2.3,-2.3 3.1,-2.4 10.9,-2.2 9.4,0.3 9.6,0.4 9.6,8.1 0,4.5 -1,4.7 -3,0.4 a 11.68,11.68 0 0 0 -5.4,-5.1 c -3.5,-1.7 -4.2,-1.8 -6.5,-0.5 -3.2,1.8 -3.9,5.4 -1.5,8 a 35.45,35.45 0 0 0 6.8,4.9 46,46 0 0 1 8.1,6 c 5.7,6 3,14.7 -5.4,17 -4.2,1.1 -4.6,1.1 -8.6,-0.1 z"
       id="path22" />
    <path
       class="a"
       d="m 402.2,434.64 a 14,14 0 0 1 -8.5,-6.6 c -0.6,-1.1 -1.4,-8.3 -1.7,-16 -0.5,-13.6 -0.6,-14 -2.7,-14.3 -1.3,-0.2 -2.3,-0.8 -2.3,-1.3 0,-0.5 3.8,-0.9 8.5,-0.9 4.7,0 8.5,0.4 8.5,0.9 0,0.5 -1,1.1 -2.2,1.3 -2.2,0.3 -2.3,0.6 -2.6,14.5 -0.2,13.7 -0.2,14.2 2.1,16.9 2.1,2.4 3.1,2.8 7.7,2.7 4.3,-0.1 5.7,-0.6 7.9,-2.7 2.4,-2.5 2.6,-3.3 3,-14.1 0.4,-13.8 -0.1,-16.3 -3.4,-17.1 -4.4,-1.1 -1.6,-2.4 5.1,-2.4 6.7,0 8,0.8 4.2,2.5 -2.2,0.9 -2.3,1.7 -2.8,14.5 -0.5,14.4 -1.4,17.3 -6.3,20.4 -2.8,1.9 -10.3,2.7 -14.5,1.7 z"
       id="path24" />
    <path
       class="a"
       d="m 115,434 c 0,-0.3 1.1,-1 2.5,-1.5 l 2.5,-1 -0.2,-16.7 c -0.3,-16.6 -0.3,-16.8 -2.6,-17.1 -1.2,-0.2 -2,-0.8 -1.7,-1.3 0.8,-1.3 16.7,-1.1 22.1,0.2 a 13.61,13.61 0 0 1 6.9,4.1 c 6.4,7.6 -0.4,16.8 -12.5,16.8 h -5.1 l 0.3,7.3 c 0.3,6.6 0.5,7.2 2.6,7.5 1.2,0.2 2.2,0.8 2.2,1.3 0,0.5 -3.8,0.9 -8.5,0.9 -4.7,0 -8.5,-0.16 -8.5,-0.5 z m 22.8,-22.1 a 8.5,8.5 0 0 0 1.6,-8.9 c -0.9,-2.2 -5.7,-4.5 -9.4,-4.5 h -3 v 7.8 c 0,4.3 0.3,8.2 0.7,8.5 1.3,1.44 7.9,-0.46 10.1,-2.86 z"
       id="path26" />
    <path
       class="a"
       d="m 200,434 c 0,-0.3 1.1,-1 2.5,-1.5 l 2.5,-1 v -33 h -2.7 c -5,0 -7,1.1 -8.9,4.8 l -1.9,3.7 -0.3,-4.4 c -0.6,-7.3 -1.1,-7.1 17.2,-7.1 h 16.4 l 0.4,5.1 c 0.4,6 -0.8,7.4 -2.3,2.9 -1.2,-3.4 -4.1,-5 -9,-5 H 211 v 15.1 c 0,15.6 0.7,18.9 4,18.9 1.1,0 2,0.5 2,1 0,0.5 -3.5,1 -8.5,1 -4.7,0.04 -8.5,-0.16 -8.5,-0.5 z"
       id="path28" />
    <path
       class="a"
       d="m 227,434 c 0,-0.3 1.1,-1 2.5,-1.5 l 2.5,-1 -0.2,-16.7 c -0.3,-16.6 -0.3,-16.8 -2.5,-17.1 -1.3,-0.2 -2.3,-0.8 -2.3,-1.3 0,-0.5 6.2,-0.8 15.8,-0.7 l 15.7,0.3 0.3,4.3 c 0.2,2.5 -0.1,4.2 -0.7,4.2 a 1.23,1.23 0 0 1 -1.1,-1.3 c 0,-3.2 -3.5,-4.7 -10.8,-4.7 H 239 v 14 h 6.5 c 6.1,0 6.6,-0.2 7.5,-2.5 1.7,-4.4 3,-2.8 3,3.8 0,3.5 -0.3,6.7 -0.7,7 -0.4,0.3 -1.4,-0.7 -2.4,-2.3 -1.7,-2.8 -2.3,-3 -7.9,-3 h -6 v 16.2 l 8.1,-0.4 c 7.9,-0.3 8.2,-0.4 11,-3.8 1.6,-1.8 3.1,-3.1 3.4,-2.9 0.3,0.2 -0.1,2.5 -0.8,5 l -1.3,4.4 -16.2,0.3 c -8.9,0.14 -16.2,0.04 -16.2,-0.3 z"
       id="path30" />
    <path
       class="a"
       d="m 263.3,433.94 a 15,15 0 0 1 2.9,-1.8 c 2.2,-1.1 2.3,-1.7 2.6,-16.9 l 0.3,-15.8 -3.1,-1.3 c -3.9,-1.6 -2.8,-2.6 2.9,-2.6 h 4.6 l 11.3,13.7 11.3,13.6 -0.3,-11.9 c -0.3,-11.2 -0.4,-12 -2.5,-12.9 -3.9,-1.7 -2.5,-2.5 4.1,-2.5 6.6,0 9.5,1.3 5.2,2.4 -3.2,0.8 -3.6,2.7 -3.6,20.9 0,8.6 -0.4,15.7 -0.8,15.7 -0.4,0 -6.4,-6.8 -13.3,-15 l -12.4,-15.1 -0.3,12.1 c -0.3,12.2 0.5,16 3.3,16 0.8,0 1.5,0.5 1.5,1 0,0.5 -3.1,1 -7.2,1 -3.9,0 -6.8,-0.3 -6.5,-0.6 z"
       id="path32" />
    <path
       class="a"
       d="m 430.3,433.94 a 15,15 0 0 1 2.9,-1.8 c 2.2,-1.1 2.3,-1.7 2.6,-15.9 0.3,-15.5 -0.4,-18.7 -3.9,-18.7 -1.1,0 -1.7,-0.4 -1.4,-1 0.3,-0.6 4.2,-1 8.5,-1 4.3,0 8.2,0.5 8.5,1 0.3,0.5 -0.2,1 -1.2,1 -3.8,0 -4.3,1.9 -4.3,17.5 0,15.6 0.5,17.5 4.2,17.5 1,0 1.8,0.5 1.8,1 0,0.5 -3.7,1 -9.2,1 -5,0 -8.8,-0.3 -8.5,-0.6 z"
       id="path34" />
    <path
       class="a"
       d="m 327.2,335.34 c -4.7,-5.1 -5.5,-14 -2.3,-27.3 2.4,-9.7 7.7,-24.9 9.9,-28.3 2.5,-3.8 7.1,-5.2 17,-5.2 20.9,0 29.3,-7.2 25.6,-21.8 a 33.83,33.83 0 0 1 -1.2,-9.3 c 0.4,-2.5 0.1,-3 -2,-3.6 a 11.32,11.32 0 0 0 -5.4,0.5 c -2.2,0.8 -2.8,0.7 -2.8,-0.4 0,-2.3 3.8,-3.6 9.3,-2.9 6.6,0.7 7.9,-0.2 7.5,-5.1 -0.3,-3.9 -0.3,-3.9 -5,-4.2 a 16.91,16.91 0 0 0 -8.3,1.4 c -3.8,1.8 -5.8,1.2 -3.4,-1 2,-1.9 7.6,-3.6 11.8,-3.6 a 12.4,12.4 0 0 0 6,-1.6 c 2.5,-1.8 2.5,-2.9 -0.1,-11.2 -1.8,-6.3 0,-9.1 7.5,-11.5 8.6,-2.8 8.5,-3.8 -1.2,-21 -9.2,-16.5 -10.9,-20.1 -16.1,-35.3 -5.8,-16.6 -12.2,-30.4 -14.1,-30.4 -0.9,0 -4.5,1.4 -8,3.2 -4.6,2.2 -9.2,5.9 -16.1,12.8 -9.5,9.4 -9.8,9.8 -9.8,14.2 0,6 -3.3,18.4 -6.6,25 -5.9,11.7 -10.1,15.8 -19.4,18.9 -2,0.7 -1.7,0.8 1.1,0.4 l 3.6,-0.5 -4.1,4.2 a 74.17,74.17 0 0 1 -7.1,6.5 c -3.9,2.7 -14.5,6.3 -18.7,6.3 -3.6,0 -9.4,-2.6 -14.7,-6.5 -4.6,-3.4 -1.3,-3.3 3.9,0.1 a 20.56,20.56 0 0 0 16,2.6 l 3.5,-1 -3.5,-0.1 c -4.5,-0.2 -8,-1.1 -8,-2.2 0,-0.5 4.6,-0.9 10.3,-0.9 10.1,0 10.4,-0.1 13.7,-3.1 3.3,-2.8 3.3,-3 1,-2.5 -14.6,3.4 -30,3.2 -36.5,-0.3 -2.2,-1.2 -4.8,-2.7 -5.7,-3.3 -3.4,-2.4 -9.8,3.6 -9.8,9.2 0,1.3 -0.4,1.9 -1.1,1.4 -0.7,-0.5 -0.9,-2.3 -0.5,-5.1 0.4,-2.8 0.2,-4.2 -0.4,-3.8 -0.6,0.4 -1,1.7 -1,2.9 a 7.001607,7.001607 0 1 1 -14,-0.3 l 0.1,-2.6 1.5,2.7 a 10,10 0 0 0 3.5,3.8 c 2.6,1.5 5.9,0.3 5.9,-2 a 10.23,10.23 0 0 1 0.5,-3.2 c 0.4,-0.9 -0.4,-1.9 -2,-2.6 -2,-0.9 -2.5,-1.9 -2.5,-5 0,-2.5 0.7,-4.5 1.8,-5.5 2.7,-2.5 3.3,-2.1 1.6,1.1 -1.3,2.1 -1.4,3.3 -0.5,5.5 1.2,3 3.5,3.4 6.6,1.1 2,-1.5 2,-1.5 0.1,-3 a 7.53,7.53 0 0 0 -3.5,-1.4 c -1.1,0 -1.2,-0.3 -0.4,-1.1 1.5,-1.5 5.8,-0.4 8.4,2.2 2.6,2.6 3.5,1.8 1.9,-2 -1.7,-4.2 -4.4,-6.3 -8.3,-6.4 a 10.79,10.79 0 0 0 -10.2,6.6 c -1.6,3.8 -0.7,6 3.3,8.1 2.4,1.4 2.5,1.5 0.6,1.6 a 9.42,9.42 0 0 1 -4.8,-2.1 c -3.9,-3.1 -3.6,-8.1 0.8,-12.5 3,-3 4,-3.4 8.9,-3.4 6.6,0 9.5,2 12.5,8.4 2.4,5 5.9,7.9 11.7,9.5 4.5,1.2 16.1,1.4 24.5,0.4 l 5.5,-0.6 -6,-1.3 a 89.08,89.08 0 0 0 -15,-1.3 c -9.6,-0.1 -15.5,-2.3 -15.5,-5.7 0,-1.6 0.1,-1.6 1.8,-0.1 2,1.8 8.3,2.2 16.6,1.1 l 4.6,-0.7 -2.6,-3.4 c -1.4,-1.9 -2.4,-3.6 -2.2,-3.9 0.2,-0.3 2.2,0.9 4.4,2.6 4.3,3.2 7.3,3.6 11.9,1.5 l 3,-1.3 -4.1,-0.1 c -8,-0.2 -10.6,-1.3 -16.2,-6.8 -3,-2.9 -5.5,-5.3 -5.7,-5.3 -0.2,0 -2.2,0.9 -4.6,2 a 25.53,25.53 0 0 1 -8.9,2 c -4.2,0 -4.3,0.1 -2.4,1.4 a 15.37,15.37 0 0 0 4.7,2.1 c 3.4,0.9 3.5,2.5 0.2,2.5 -5.3,0 -13.8,-6.9 -14,-11.3 a 10.49,10.49 0 0 0 -0.9,-3.6 c -1.6,-2.6 0.2,-2 4,1.4 5.2,4.7 9.4,4.7 17.8,0 7.8,-4.4 11.7,-4.5 19.6,-0.5 6.9,3.5 13.6,4 16.9,1.3 2.2,-1.8 2.1,-1.8 -2.6,-1.8 -4,0 -6.2,-0.8 -12.2,-4.4 -4,-2.5 -8.5,-4.4 -10.1,-4.4 -1.6,0 -4.9,1.5 -7.8,3.5 -10.4,7.6 -14.4,8.4 -19.9,4.3 -1.8,-1.4 -4.8,-3.6 -6.7,-5 l -3.4,-2.6 -2.8,2.5 -2.9,2.4 3,1.3 3,1.2 -4.9,0.8 c -2.7,0.4 -5.4,1.3 -5.9,1.8 -1.6,1.6 -3,1.3 -2.3,-0.4 1,-2.8 -3.1,-1.6 -5.8,1.6 -3.4,4 -3.6,7.2 -0.3,4.1 a 8.15,8.15 0 0 1 4.2,-2.2 c 1.6,0 1.4,0.5 -1.2,3.3 a 16.08,16.08 0 0 0 -3.9,6 c -0.6,2.7 -0.7,2.7 -2.5,1.1 -4.4,-3.9 -3.5,-12.7 1.7,-18 1.9,-1.9 3,-3.4 2.4,-3.4 -0.6,0 -1,-0.9 -1,-2 0,-1.1 0.5,-2 1.1,-2 0.6,0 0.7,0.5 0.4,1 -1.5,2.5 2.9,1.9 8,-1 7,-4 9,-3.7 18.2,2.5 3.7,2.5 7.4,4.5 8.1,4.5 0.7,0 4.8,-2.4 8.9,-5.2 7.9,-5.5 12.4,-6.5 18.2,-4.4 l 2.3,0.8 -2.3,-3.1 c -2.6,-3.6 -7,-5.4 -10.2,-4.2 a 67,67 0 0 0 -7.6,4.5 c -5.3,3.6 -10,4.6 -13,2.7 -0.8,-0.5 -2.4,-2.9 -3.5,-5.3 -1.6,-3.3 -2.7,-4.4 -4.9,-4.6 -3.5,-0.4 -2.5,-2.2 1.2,-2.2 2.8,0 5.9,2.6 8,6.8 1.6,3 3.1,2.8 8.7,-1.3 a 88.72,88.72 0 0 1 7.9,-5.1 l 3,-1.5 -4,0.6 c -13.4,2 -14.8,1.9 -18.9,-1.4 -5.1,-4.1 -7.8,-4 -18.1,0.4 -3.9,1.7 -4,1.7 -2.3,-0.2 5.2,-5.7 17.2,-8.1 22,-4.4 2.6,2.1 3.8,2.4 8.3,2.2 2.7,-0.1 2.8,-0.3 1,-1.2 -1.1,-0.6 -3.7,-2.3 -5.7,-3.6 -2.9,-2 -4.5,-2.4 -7,-1.9 -3.1,0.5 -3.2,0.5 -1.4,-0.9 2.7,-2 5.9,-1.9 10.6,0.5 5.3,2.7 8.5,2.5 18.2,-1 5.4,-2 10.1,-3 13.7,-3 6.1,0 6.2,-0.7 0.2,-2.1 -3.3,-0.7 -5.5,-0.4 -11.8,1.6 -10,3.2 -13.6,3.1 -20.3,-0.5 -3,-1.7 -6.5,-3 -7.8,-3 -2.9,0 -7.1,2.2 -9.7,5 -3.1,3.4 -7.4,5.3 -13.8,6.1 -3.3,0.4 -6.7,1.5 -8,2.5 l -2.1,1.9 1.5,-2.5 c 1.6,-2.5 2.3,-2.8 10.4,-4.9 2.6,-0.7 6,-3 9.7,-6.5 8,-7.6 13.1,-8.2 23.3,-2.7 5,2.7 5.6,2.6 14.5,-0.4 4,-1.4 8.5,-2.5 9.9,-2.5 a 22.76,22.76 0 0 1 13.2,4.7 l 3.1,2.7 5.1,-5.5 c 2.8,-3 12.4,-13.2 21.4,-22.6 9,-9.4 16.3,-17.6 16.3,-18.1 0,-1.4 -30.5,-21.2 -35.8,-23.2 -10.4,-4 -20.5,-5.3 -36.6,-4.7 -18.5,0.6 -28.9,3.2 -45.1,11.2 -13.6,6.7 -18.9,10.6 -25.7,18.9 -24.6,29.8 -33.3,72 -21.1,102.6 6.1,15.1 17.8,30.1 32.3,41.2 7.8,5.9 8.1,9 0.3,3.7 -6.2,-4.3 -21.1,-19.1 -25.1,-25 a 90.28,90.28 0 0 1 -15.2,-61 c 2.7,-23.1 12.8,-47 27.3,-64.2 11.3,-13.4 34.1,-24.8 58.2,-29.3 10.8,-2 32.8,-1.4 41.5,1 6.8,2 8,2 8,0.2 0,-2.1 -0.9,-2.5 -12,-4.7 -11.3,-2.1 -30.8,-2.6 -40.6,-0.8 -20.5,3.6 -45.2,16.5 -58.1,30.2 -15.4,16.5 -26.8,43.2 -29.3,68.7 -3.5,35 10.4,64.3 40.5,85 4.2,2.9 8.3,6.7 9.2,8.3 1.7,3.3 2,19 0.8,34.3 -0.7,8.1 -0.7,8.4 1.3,8.4 2.9,0 35.6,-6.6 41.9,-8.5 6.3,-1.9 10.4,-5.2 12.7,-9.9 2,-4.3 2.1,-14.3 0.1,-22 -2.2,-8.5 -9.1,-21 -14.7,-26.8 -5.2,-5.4 -5.5,-5.8 -3.4,-5.8 1.9,0 11.2,10.1 13.2,14.4 l 1.7,3.5 1.8,-5.2 c 1,-2.9 1.4,-5.3 0.8,-5.5 -2.6,-1 -0.2,-1.7 5.9,-1.9 a 44.56,44.56 0 0 0 11.3,-1.8 l 4.4,-1.5 -2.8,2.5 -2.8,2.5 2,2.6 c 2.3,2.9 2.8,8.3 1.1,11.4 -0.9,1.6 -0.6,2.2 1.7,3.3 l 2.7,1.5 -3.2,1.6 c -3.2,1.6 -3.2,1.8 -5,12.6 -0.4,2.5 -1.1,4.5 -1.6,4.5 -0.5,0 -2.1,-3.1 -3.6,-7 -2.1,-5.3 -3.3,-7.1 -4.9,-7.3 -2.1,-0.3 -2.2,-0.1 -1.4,3.5 1.4,6.7 1,18.5 -0.9,22.1 -1.6,3.1 -1.6,3.4 0.9,8.9 3,6.5 4.1,16.8 2.6,24.8 a 23.41,23.41 0 0 0 0.3,10.5 c 1.4,5.7 1.8,20.8 0.8,24.8 -1,4 -2.4,2.3 -2.5,-3 a 62.69,62.69 0 0 0 -0.7,-9.2 l -0.7,-3.8 -3.2,4.5 c -3.5,4.8 -4,7.5 -2.2,10.9 1.3,2.5 0.5,3.5 -1.6,1.8 -1,-0.8 -1.5,-0.9 -1.5,-0.1 0,2.6 -2.9,0.8 -4,-2.4 -0.6,-1.9 -1.5,-3.5 -2,-3.5 -0.5,0 -1.4,1.6 -2.1,3.5 -1.6,4.3 -4.3,4.9 -3.3,0.8 a 72.73,72.73 0 0 1 3.1,-8.3 c 3.2,-7.4 3.9,-12.7 2,-17 -0.9,-2.3 -1.6,-3 -1.9,-2 -0.3,0.8 -1.4,4.4 -2.6,8 a 111.1,111.1 0 0 0 -3.4,14.3 c -0.9,6.1 -1.5,7.7 -2.7,7.5 -1,-0.2 -1.8,-1.8 -2.2,-4.3 l -0.5,-4 -1,4.5 -1,4.5 -0.8,-6.5 a 55.75,55.75 0 0 0 -1.9,-10 c -1.2,-3.5 -1.2,-3.5 -1.7,3.5 -0.4,4.9 -0.2,7.6 0.7,9 a 8.72,8.72 0 0 1 1.3,2.7 c 0,1.3 -2.8,0.9 -3.4,-0.4 -0.5,-1 -0.7,-1 -1.2,0 a 3,3 0 0 1 -2.5,1.2 c -1.6,0 -1.9,-0.7 -1.9,-4.2 -0.1,-5 -4,-17 -5.7,-17.6 -2.4,-0.7 -3,14.4 -0.8,20 0.5,1.3 0,1.6 -2.7,1.6 -3,0 -3.5,-0.5 -6,-5.4 -1.4,-3 -2.3,-5.4 -2,-5.4 a 13.23,13.23 0 0 1 3.4,2.7 l 2.8,2.7 v -3.3 c 0,-1.8 -0.4,-3 -0.9,-2.6 -0.5,0.4 -1.2,-0.3 -1.4,-1.2 -0.2,-0.9 -1,-3.9 -1.7,-6.6 -0.7,-2.7 -1.6,-5 -2.1,-5.3 -0.5,-0.3 -1.3,1.5 -2,3.8 -1,3.6 -0.9,5.4 0.6,10.8 2.7,10.1 2.8,11 1.6,11 -1.5,0 -5,-8.3 -5.7,-13.4 -0.5,-3.6 0.2,-7.1 3,-13.6 1.2,-3 -0.9,-3.8 -10.9,-4.5 -6.5,-0.5 -10.9,-1.3 -12.5,-2.3 a 7.16,7.16 0 0 0 -3.3,-1.4 c -1.7,0.5 -7.6,-2.8 -10.5,-5.9 -1.7,-1.8 -4.7,-7.5 -6.8,-12.8 a 94.23,94.23 0 0 0 -5,-11.1 c -1.7,-2.1 -8.4,-16.2 -8.4,-17.7 0,-0.7 -1.1,-2.9 -2.5,-4.9 a 24,24 0 0 1 -3.1,-6.3 71.36,71.36 0 0 0 -4,-9.9 c -1.9,-4 -3.4,-8.2 -3.4,-9.3 a 10.71,10.71 0 0 0 -1,-3.9 c -2.1,-3.8 -8.6,-31.5 -10.5,-44.5 -2.7,-17.8 -2.9,-38.7 -0.6,-48.5 0.6,-2.5 1.7,-7.4 2.5,-11 3.2,-14.3 4.2,-16.7 17.6,-42 2.7,-5 7.9,-11.9 14.1,-18.5 2.1,-2.2 5.7,-6.1 8,-8.8 2.3,-2.7 5.2,-5 6.5,-5.3 1.3,-0.3 2.4,-1.2 2.4,-1.9 0,-1.6 7.8,-8.5 9.7,-8.5 0.7,0 1.3,-0.4 1.3,-0.9 0,-1.4 12.7,-9.1 14.9,-9.1 1.1,0 2.1,-0.3 2.3,-0.8 0.2,-0.5 3.9,-2.4 8.3,-4.3 7.2,-3.3 22.4,-7 28,-6.8 a 85,85 0 0 0 8.8,-1 c 7.5,-1.2 40.8,-0.6 43.5,0.8 a 35.68,35.68 0 0 0 6.1,1.5 c 7.5,1.06 24.1,11.2 24.1,14.5 0,0.9 -2.5,3.4 -5.6,5.6 -6.6,4.7 -14,12.4 -15.4,15.9 a 12.38,12.38 0 0 0 -0.3,5.8 c 0.4,2.8 1.3,3.9 5,5.8 2.5,1.3 10.6,6.5 18.1,11.6 l 13.6,9.2 4.5,-5.1 c 9.7,-11 12.2,-12.5 15.5,-9.1 2,1.9 2,5.7 0.1,24.3 -0.8,8.2 -1.2,17.5 -0.8,21.3 0.5,5.5 0.3,7.2 -1,8.6 -1.5,1.6 -1.2,2.5 2.9,11.6 2.4,5.4 5.9,14.3 7.8,19.9 a 138.88,138.88 0 0 0 13.1,29.7 c 2.6,4.7 6.3,11.3 8.2,14.8 5,8.9 3.9,12.3 -4.8,15.1 -6.7,2.2 -7.7,3.7 -6,9.3 2.5,8.4 2.5,9.5 -0.2,12.2 -1.6,1.6 -2.1,2.9 -1.6,3.8 0.5,0.7 0.9,3 0.9,5 0,3.1 -0.6,4.2 -3.6,6.4 -3.4,2.6 -3.5,3 -3,7.3 1.8,13.9 1.8,16.8 0.2,19.9 -3.7,7.1 -14.3,11.2 -29.4,11.2 -11.3,0 -12.4,0.8 -17,12.6 -8.5,22 -9.7,42.1 -2.7,44.7 0.8,0.4 1.5,1.1 1.5,1.7 0,1.8 -2.6,1.1 -4.8,-1.2 z m -60.4,-16 a 14.82,14.82 0 0 1 1.7,-5.5 c 2.4,-3.7 1.8,-8.5 -2.2,-16.4 -3.3,-6.4 -3.8,-8.3 -3.7,-14 v -6.6 l -2.3,3.4 c -2.3,3.4 -2.3,3.4 -0.5,8.6 a 46.91,46.91 0 0 0 4.1,9 17.67,17.67 0 0 1 1.7,16.2 c -1.6,4.1 -1.5,8.5 0.3,8.5 0.4,0 0.8,-1.54 0.9,-3.2 z m -27,-7.7 c -0.3,-4.7 -1.1,-6.7 -4.1,-10.9 a 45.8,45.8 0 0 1 -5.2,-8.9 l -1.4,-3.8 v 5.8 c -0.1,5.1 0.3,6.4 3.2,10.2 a 37.7,37.7 0 0 1 5.2,10.2 c 2.1,6.6 2.9,5.7 2.3,-2.6 z m 9.7,-5.9 c -0.3,-1.3 -2.5,-4.5 -4.9,-7 -2.4,-2.5 -6,-6.9 -8,-9.5 -3,-4.1 -3.6,-4.5 -3.6,-2.5 0.1,3.6 3.4,9.8 8.4,15.7 a 27.75,27.75 0 0 1 5.9,9.9 l 1.2,4.5 0.8,-4.4 a 22.27,22.27 0 0 0 0.2,-6.7 z m 24.1,1.4 c -1,-3.9 -2.1,-3.1 -2.1,1.4 0,3.4 0.2,3.8 1.4,2.6 a 4.43,4.43 0 0 0 0.7,-4 z m -46.3,-5.8 a 13.19,13.19 0 0 1 -1.3,-4.4 c 0,-1.3 -0.4,-1.1 -1.9,0.7 -1.2,1.5 -1.6,3 -1.1,3.9 a 22.5,22.5 0 0 1 1.4,5.4 l 0.7,3.8 1.8,-3.3 c 1.5,-2.9 1.5,-3.8 0.4,-6.1 z m 29.9,-8.9 -0.5,-3.2 -1.3,3.1 c -1,2.4 -1,3.9 -0.1,6.9 l 1.2,3.8 0.6,-3.7 a 26.69,26.69 0 0 0 0.1,-6.9 z m -33.8,3 c 1,-5.1 0.7,-18.9 -0.4,-18.9 -0.6,0 -1,2.8 -1,6.4 a 38.5,38.5 0 0 1 -1,9.2 c -1.1,2.7 -0.5,6.4 0.9,6.4 0.5,0 1.1,-1.4 1.5,-3.1 z m 4.3,-1.1 c -0.3,-0.8 -0.6,-0.5 -0.6,0.6 0,1.1 0.2,1.7 0.5,1.3 a 2,2 0 0 0 0.1,-1.9 z m 18.8,-2.1 a 24.34,24.34 0 0 1 -0.1,-16.2 c 2.1,-5 0.2,-4.3 -2.3,0.8 -3,6.2 -2.8,12.7 0.5,16.7 3.3,3.8 3.9,3.4 1.9,-1.3 z m 27.9,-1.8 c 0.3,-3.4 0.6,-8.1 0.6,-10.4 0,-4.9 -2.7,-14.8 -3.9,-14.1 -1.6,1 -1.9,8.5 -0.5,12.3 a 29.62,29.62 0 0 1 1.3,7.8 l -0.1,4 -1.2,-5 c -1.7,-6.5 -3.1,-3.8 -1.6,3 1.2,5.3 2.7,8.5 3.9,8.5 0.4,0 1.1,-2.8 1.5,-6.1 z m -58.9,-1.1 a 116,116 0 0 0 0.3,-13.3 c -0.2,-3.8 0.1,-13.3 0.6,-21 0.5,-7.7 0.5,-13.7 0.2,-13.4 -1.1,1.1 -8.6,38.7 -9.3,46.7 l -0.6,7.2 h 8.1 z m -11.5,2.8 c 0,-3.7 2.6,-18.3 7.2,-40 l 4.2,-19.9 -2.8,-2.4 c -1.6,-1.3 -3.2,-2.1 -3.7,-1.6 -1,1 -4.9,14.6 -9.5,32.7 -4.3,17 -6.5,30.6 -5.1,32.4 0.5,0.6 2.9,1.2 5.3,1.2 4,0 4.4,-0.2 4.4,-2.4 z m 51,-4 a 25.79,25.79 0 0 0 -1.2,-5.8 c -1.1,-3.9 -1.2,-3.9 -2.4,-1.6 -1.7,3 -1.7,4.1 0.1,8.6 1.3,2.9 1.8,3.4 2.5,2.2 a 7.52,7.52 0 0 0 1,-3.4 z m -63.5,-2.3 c 1.1,-9.1 4.1,-22.3 9.7,-42 l 5.1,-18.2 -2.4,-2 a 10.8,10.8 0 0 0 -3.5,-2.1 c -1,0 -13.7,38 -16.9,50.6 a 59.68,59.68 0 0 0 -1.5,11.2 c 0,4.6 0.2,5.1 3.3,6.6 4.9,2.4 5.4,2.06 6.2,-4.1 z m 37.4,-3 c 0.1,-1.3 -0.3,-2.3 -0.9,-2.3 -0.6,0 -1,2.1 -0.9,4.8 0.1,3.8 0.2,4.2 0.9,2.2 a 29.7,29.7 0 0 0 0.9,-4.7 z m 10.9,-3.5 c 2.1,-6.6 1.3,-7.9 -1.2,-1.8 -1.4,3.6 -2.2,9 -1.2,7.9 a 56.26,56.26 0 0 0 2.4,-6.1 z m -51.7,-31.6 c 3.3,-10.8 6.9,-21.7 7.9,-24.3 l 1.9,-4.6 -3,-2.3 c -1.7,-1.2 -3.3,-2 -3.5,-1.7 -1.6,1.6 -18.7,45 -19.1,48.5 -0.4,3.5 0.1,5.9 2.8,12.2 l 3.4,7.8 1.7,-7.9 c 0.9,-4.44 4.5,-16.8 7.9,-27.7 z m 42.7,28 c -2.7,-0.5 -3.1,0.1 -1.7,3.2 l 1.3,2.7 1.1,-2.8 c 1,-2.5 0.9,-2.84 -0.7,-3.1 z m 27.6,3.1 a 42.66,42.66 0 0 0 2.1,-6 c 0.6,-2.8 0.4,-3.3 -1.3,-3.3 -2.6,0 -4.6,4.9 -3.7,8.9 0.8,3.8 1.1,3.8 2.9,0.4 z m 6.3,-9.5 c -0.3,-0.8 -0.6,-0.5 -0.6,0.6 0,1.1 0.2,1.7 0.5,1.3 a 2,2 0 0 0 0.1,-1.9 z m -94,-11.7 c 0.7,-2.2 5.2,-13.4 10.1,-24.9 l 8.8,-21 -2.6,-3.3 -2.7,-3.2 -10.6,17.7 c -5.9,9.8 -10.9,19.4 -11.3,21.3 -0.5,2.8 0,4.9 2.7,10.4 1.8,3.8 3.5,6.9 3.8,6.9 0.3,0 1.2,-1.8 1.8,-3.9 z m 0.4,-35.6 c 5.6,-9.3 10.3,-17.5 10.6,-18.2 0.4,-1.1 -3.7,-8.3 -4.8,-8.3 -1.7,0 -19,27.6 -20.9,33.6 -1,2.8 -0.8,4.1 1,8.1 1.7,3.8 2.4,4.5 3.1,3.3 0.5,-0.8 5.5,-9.1 11,-18.54 z m 117.3,12.5 c 0.5,-3.6 1.2,-5.3 2.8,-6.1 1.6,-0.8 1.8,-1.3 0.7,-1.9 -0.7,-0.5 -2.1,-0.3 -3.3,0.6 -1.2,0.9 -3.9,1.4 -6.1,1.5 -3.2,0 -3.6,0.2 -1.9,0.9 1.3,0.5 2.8,2.8 3.9,5.9 1,2.7 2.2,4.8 2.5,4.6 0.3,-0.2 1,-2.7 1.4,-5.5 z m -10.4,-6.8 c 0,-0.4 -0.9,-1.3 -2,-2 -1.8,-1.1 -1.9,-1 -0.8,1.3 1,2.1 2.8,2.6 2.8,0.7 z m -109.8,-25.2 7,-10.4 -1.7,-3.6 -1.7,-3.5 -4.2,4.6 c -7.3,8.1 -18.7,23.6 -18.9,25.7 a 25.12,25.12 0 0 0 2.3,7.1 l 2.3,5.1 3.9,-7.3 c 2.2,-3.9 7.1,-11.9 11,-17.7 z M 289.4,224 c 5.8,-5.4 1.9,-15.5 -6.1,-15.5 -4.6,0 -9.3,4.6 -9.3,9 0,2.2 0.9,4.1 2.9,6.1 3.8,3.84 8.7,3.94 12.5,0.4 z M 156.7,198.8 c 5,-6.5 10.2,-12.8 11.6,-14.1 2.5,-2.3 2.5,-2.4 0.9,-7.3 -0.9,-2.7 -1.8,-4.9 -2.1,-4.9 -0.3,0 -5.7,5 -12,11 l -11.4,11 0.6,5.2 c 0.5,4.8 2.2,10.8 3,10.8 0.2,0.04 4.4,-5.26 9.4,-11.66 z m 9.2,-35.1 a 25.33,25.33 0 0 0 -1.3,-4.9 c -0.4,-0.5 -9.2,6.4 -18,14.1 l -6.8,6 0.6,5.2 c 1.1,9.6 0.8,9.7 14.1,-3.6 l 12.2,-12.2 z M 303,181.44 a 19.22,19.22 0 0 0 6.6,-3.6 c 2.9,-2.4 2.9,-2.4 0.4,-1.7 -3.6,1 -13.8,6.4 -12.1,6.4 a 27.93,27.93 0 0 0 5.1,-1.1 z m -142.9,-23.1 c 4.2,-2.8 4.9,-3.8 4.9,-6.7 0,-2.7 -0.3,-3.2 -1.7,-2.7 -3.8,1.4 -17.8,10.3 -22,14 -4.2,3.7 -4.4,4.1 -3.7,8 a 19.94,19.94 0 0 0 1.1,4.9 c 0.2,0.4 4.1,-2.6 8.5,-6.7 a 124.1,124.1 0 0 1 12.9,-10.8 z m 134.7,12.6 c 3.2,-0.9 2.7,-2.4 -0.9,-2.4 -1.7,0 -6.1,-1.3 -9.9,-3 -6.7,-2.9 -10,-3.6 -11.3,-2.4 -0.7,0.7 5.4,5.1 9.8,7 a 22.18,22.18 0 0 0 12.3,0.8 z m 25.2,-12 c 1.3,-4.6 0.8,-6.6 -1.2,-4.6 -0.9,0.9 -0.9,1.2 0,1.2 1.3,0 -1.6,7.3 -4.9,12.4 -1.8,2.7 -1.7,2.7 1.4,-0.7 a 23.74,23.74 0 0 0 4.7,-8.3 z m -177.7,-0.4 c 2.6,-1.9 8.7,-5.8 13.5,-8.6 l 8.7,-5.1 0.3,-4.6 0.3,-4.7 -14.5,7.2 c -8,4 -14.7,7.7 -15,8.3 -0.5,1.5 0.6,11.6 1.3,11.3 0.3,-0.2 2.7,-1.9 5.4,-3.8 z m 169.6,-5.1 c 3.1,-1.1 6.5,-1.8 7.8,-1.4 2,0.5 2.3,0.2 2.3,-2.4 v -2.9 l -7.1,2.5 c -5.2,1.8 -8.1,2.3 -11,1.8 -4.7,-0.8 -10.9,-5.2 -12.9,-9.1 -3.9,-7.9 -4.6,-8.4 -11.3,-8.3 -5.2,0.1 -5.6,0.2 -2.7,0.8 5.4,1.1 7.7,2.7 12.1,8.7 4.4,6 8.3,8.9 13.8,9.9 3.1,0.6 3.3,0.9 1.6,1.5 l -2,0.9 h 2 c 1.1,0.1 4.4,-0.8 7.4,-2 z m -145.4,-24.7 c 0.3,-1.9 0.4,-3.6 0.1,-3.9 -0.3,-0.3 -7.4,1.9 -15.8,4.8 l -15.3,5.36 -0.3,6.3 -0.3,6.2 15.5,-7.7 c 14.7,-7.26 15.5,-7.86 16.1,-11.06 z m 139.6,16.2 a 10.86,10.86 0 0 1 -3.7,-6.2 c -1.9,-10.5 -9.3,-15.2 -19.4,-12.3 -2.4,0.7 -2.4,0.8 1,1.5 4.4,1 7.6,3.9 10.5,9.6 3.3,6.4 7.6,9.8 12.8,9.9 1.5,0.1 1.2,-0.5 -1.2,-2.5 z m 15.9,-1.4 c 0,-1.5 -0.7,-2 -2.5,-2 -3.4,0 -7.9,-2.4 -10.3,-5.5 a 8.85,8.85 0 0 0 -2.5,-2.5 c -0.5,0 0.8,7.9 1.4,8.5 1.7,1.6 7,3.5 10.2,3.5 3,0 3.7,-0.4 3.7,-2 z m 3.4,-8 c 8.9,-11.7 26.4,-25 32.8,-25 a 10.21,10.21 0 0 0 3.8,-1 c 1.7,-0.9 1.9,-1.9 1.4,-8.8 -0.3,-4.2 0.1,-14.8 1,-23.4 0.9,-8.6 1.3,-16.5 1,-17.3 -1,-2.4 -3.5,-0.3 -12.5,10.2 -4.6,5.4 -14.2,15.9 -21.4,23.4 -7.2,7.5 -16.1,17 -19.9,21.2 l -6.8,7.7 4.7,7.5 c 4.7,7.5 7.6,10.5 10.5,10.5 0.9,0 3.3,-2.3 5.4,-5 z M 169,117.64 a 15.63,15.63 0 0 0 0.7,-3.6 c -0.3,-0.2 -17.7,2.1 -25.4,3.4 -3.9,0.7 -7.4,1.8 -7.6,2.5 a 49,49 0 0 0 -1.2,6.9 l -0.7,5.6 16.6,-5.7 c 16.4,-5.6 16.6,-5.74 17.6,-9.1 z m -11.8,-4.7 c 13.7,-1.8 13.8,-1.8 14.8,-4.8 0.6,-1.6 0.6,-3.4 0.2,-3.8 -1.3,-1.3 -30,-3.4 -31.2,-2.2 -0.5,0.5 -1.6,3.8 -2.4,7.3 l -1.5,6.3 3.2,-0.5 c 1.8,-0.3 9.4,-1.4 16.9,-2.3 z m 18.7,-15 c 1,-2.8 1,-3.8 0.2,-4.4 -2.3,-1.4 -24.8,-6.2 -27.6,-5.8 -2.4,0.2 -3.3,1.1 -4.9,5 -1.1,2.6 -1.7,5.1 -1.3,5.4 0.4,0.3 6.8,1.1 14.3,1.5 7.5,0.4 13.9,1.1 14.2,1.4 1.6,1.6 3.9,0.1 5.1,-3.1 z m 5,-10 c 1.2,-2 2.1,-3.7 1.9,-3.8 -2.1,-1.3 -27.1,-12.6 -27.8,-12.6 -0.9,0 -7.5,11.9 -6.8,12.5 0.2,0.1 5.1,1.2 11,2.4 A 124.22,124.22 0 0 1 173.7,90 c 5.1,1.94 4.8,1.94 7.2,-2.06 z m 6.4,-10.2 2.5,-3.9 -12.6,-6.6 c -6.9,-3.7 -13.6,-6.7 -14.7,-6.7 -1.4,0 -2.9,1.3 -4.3,3.9 -2.5,4.4 -2.6,5.1 -1.2,5.1 0.6,0 6.8,2.7 13.8,6 7,3.3 13,6 13.3,6 0.3,0 1.8,-1.7 3.2,-3.8 z M 195,68 c 1.8,-1.9 3.1,-3.7 2.8,-4 -2.2,-2.3 -25.4,-16.2 -26.4,-15.8 -0.6,0.2 -2.6,2.4 -4.3,4.8 l -3.1,4.3 8.7,4.5 c 4.9,2.5 10.8,5.7 13.3,7.1 a 33.27,33.27 0 0 0 5.1,2.6 c 0.3,0.04 2,-1.56 3.9,-3.5 z m 13.3,-12.5 c -13.7,-12.5 -21.9,-19 -24.1,-19 -2.4,0 -9.2,6.2 -9.2,8.4 0,0.6 5.7,4.8 12.8,9.2 l 12.7,8.1 4.3,-2.9 c 2.4,-1.66 4,-3.36 3.5,-3.76 z m 9.6,-4.9 c 2.1,-1.3 -19.1,-24.1 -22.3,-24.1 -1.2,0 -3.7,1.6 -5.6,3.5 l -3.3,3.4 2.9,2.3 c 1.6,1.3 7,6 12.2,10.6 10.1,8.94 9.5,8.84 16.1,4.34 z M 228,44.7 A 7.56,7.56 0 0 0 226.6,42 c -0.7,-1.1 -3.9,-7.2 -7.1,-13.5 -3.2,-6.3 -6.3,-11.8 -6.8,-12.2 -1.4,-0.8 -3.3,0 -9.4,4 l -5.3,3.5 12.2,12.3 12.1,12.3 2.8,-1.5 c 1.6,-0.76 2.9,-1.76 2.9,-2.16 z m 7,-2.2 c 1.7,-0.9 1.7,-1.3 0.3,-5.2 -0.8,-2.4 -1.7,-10 -2,-17 -0.5,-9.8 -0.9,-12.8 -1.9,-12.8 -1,0 -12.7,4.7 -16.1,6.5 -0.4,0.2 13.3,26.3 14.6,27.9 1.6,1.94 2.5,2.04 5.1,0.64 z m 9,-3 3.5,-1 0.2,-10.2 a 141.15,141.15 0 0 1 1.2,-16.7 C 249.5,8 249.8,5 249.6,4.7 249,4.2 237.4,5.6 236,6.5 c -2.4,1.5 1.3,34 3.8,34 a 41.39,41.39 0 0 0 4.2,-0.96 z m 73.4,-12.6 a 66.12,66.12 0 0 1 8.9,-7.2 c 1.5,-0.9 2.7,-2 2.7,-2.4 0,-0.4 -2.1,-2.2 -4.7,-3.8 l -4.8,-3 -1.7,2.2 c -3.7,4.7 -13.6,19.4 -15.2,22.5 l -1.6,3.2 3.2,0.9 c 3.1,0.8 3.3,0.6 5.1,-3 1.1,-2.06 4.7,-6.3 8.1,-9.36 z m -58.8,9.6 c 1.9,0 2.4,-0.5 2.4,-2.5 0,-4 2.9,-17.3 5.4,-24.7 l 2.2,-6.8 -3.5,0.1 c -2,0 -5.6,0.4 -8.1,0.7 l -4.5,0.7 -1.2,9.5 c -0.6,5.2 -1.2,12.8 -1.2,16.9 l -0.1,7.4 3.1,-0.7 a 40,40 0 0 1 5.5,-0.56 z m 42.7,-4.3 a 139.84,139.84 0 0 1 8.8,-13.6 c 3.3,-4.6 5.8,-9 5.5,-9.7 -0.4,-1.1 -10.7,-4.9 -11.1,-4.1 0,0.1 -2,3.1 -4.3,6.7 -4.8,7.6 -8.8,16.3 -9.7,21.3 -0.7,3.8 -0.1,4.3 5.5,4.6 2,0.14 3,-0.86 5.3,-5.16 z m -12.8,-2.1 c 1.6,-6.3 5.3,-13.9 9.6,-20.3 3.6,-5.2 3.6,-6.3 0.2,-6.3 A 49.38,49.38 0 0 1 292,2.9 c -3.3,-0.5 -3.6,-0.4 -5.2,3.5 -1.8,4.2 -8.8,26.5 -8.8,28.1 0,0.7 7.5,1.9 8.8,1.4 a 51.45,51.45 0 0 0 1.7,-5.76 z m -11,-4.1 c 2.5,-9.6 6.1,-20.2 7.8,-22.2 0.7,-1 -0.6,-1.3 -6.2,-1.3 h -7.2 l -1.6,3.8 C 268,11.8 264,28.2 264,32.2 v 3.4 l 5.6,-0.3 5.6,-0.3 z"
       id="path36" />
    <path
       class="a"
       d="m 278.4,223.24 a 6.68,6.68 0 0 1 -2.7,-5.7 c 0,-3.9 4,-8 7.9,-8 3.5,0 7.4,4.2 7.4,8 0,3.8 -3.9,8 -7.4,8 a 10.34,10.34 0 0 1 -5.2,-2.3 z m 8.8,-1.4 c 3.6,-3.2 1.1,-10.3 -3.6,-10.3 -2.7,0 -4,0.9 -5.5,3.7 -2.9,5.7 4.3,11 9.1,6.6 z"
       id="path38" />
    <path
       class="a"
       d="m 326.1,273.14 c -3.3,-1.2 -11.6,-7.4 -10.8,-8.2 0.2,-0.2 3.9,1.4 8.2,3.6 4.3,2.2 8.5,4 9.2,4 a 2.53,2.53 0 0 1 1.8,1 c 0.8,1.4 -4.2,1.1 -8.4,-0.4 z"
       id="path40" />
    <path
       class="a"
       d="m 222.4,270.34 c -0.4,-0.6 -0.8,-8.2 -0.9,-16.7 -0.2,-11.1 -0.7,-17 -1.8,-20.6 -1.1,-3.1 -1.3,-5.3 -0.7,-5.9 2.9,-2.9 6.5,20.3 5.3,34.2 -0.4,4.5 -0.2,7.2 0.4,7.2 1.4,0 21.3,-4.4 30.7,-6.9 10.8,-2.7 13.8,-5.7 14.4,-14 0.8,-11 -6.7,-29.3 -15.2,-37 -2.9,-2.7 -3.3,-4.1 -1.2,-4.1 2.3,0 9.5,9.8 13.8,18.6 7.3,15.1 7.5,27.4 0.5,34 -3.4,3.2 -12.4,5.9 -34.6,10.5 -11,2.3 -9.8,2.2 -10.7,0.7 z"
       id="path42" />
    <path
       class="a"
       d="m 221.4,223.34 c -0.4,-0.6 0.8,-2.4 2.7,-4 4,-3.4 18.3,-10.5 21.9,-11 4.5,-0.6 3.6,1.5 -1.5,3.2 a 58.3,58.3 0 0 0 -17.8,9.4 c -3,2.3 -4.9,3.06 -5.3,2.4 z"
       id="path44" />
    <path
       class="a"
       d="m 241.5,204.54 c -2.6,-1 -5,-3.8 -4.1,-4.7 0.4,-0.4 1,-0.2 1.4,0.4 1,1.5 5.7,3.3 8.8,3.3 1.4,0 2.2,0.4 1.9,1 -0.7,1.2 -5.2,1.2 -8,0 z"
       id="path46" />
    <path
       class="a"
       d="m 369.4,202 a 6.56,6.56 0 0 1 -1,-5 c 0.9,-3.5 2.4,-3.2 1.8,0.4 -0.3,2 0.3,3.4 1.9,5 1.9,1.7 2,2.1 0.6,2.1 -0.9,0.04 -2.4,-1.06 -3.3,-2.5 z"
       id="path48" />
    <path
       class="a"
       d="m 248.2,200.34 c -3.1,-3.1 0.9,-9.8 5.7,-9.8 2.1,0 1.9,0.3 -1.4,3.4 -2.8,2.6 -3.5,4 -3,5.5 0.7,2.4 0.4,2.56 -1.3,0.9 z"
       id="path50" />
    <path
       class="a"
       d="m 378.7,200.94 c -1.3,-1.3 1.4,-4.4 3.8,-4.4 2.7,0 3.3,1.8 1.3,3.8 -1.3,1.3 -4.1,1.6 -5.1,0.6 z"
       id="path52" />
    <path
       class="a"
       d="m 224,180.24 a 16.86,16.86 0 0 1 1.5,-6.6 c 2.1,-4.1 7.2,-8.1 10.3,-8.1 h 2.7 l -3,1.9 a 22.26,22.26 0 0 0 -9.5,11.7 l -1.9,4.9 z"
       id="path54" />
    <path
       class="a"
       d="m 268.5,178.84 c -4.8,-1.2 -3.8,-2.4 1.8,-2.1 3.1,0.2 5.8,0.8 6,1.3 0.2,1.1 -4.6,1.6 -7.8,0.8 z"
       id="path56" />
    <path
       class="a"
       d="m 347.8,166.64 -4.7,-1.7 4.4,-4.2 c 6.5,-6.1 10.8,-7.7 16.8,-6.2 3.6,0.9 5.2,0.9 6,0.1 1.7,-1.7 3.1,-1.3 1.7,0.4 a 5.46,5.46 0 0 1 -3.7,1.5 c -3,0 -3.8,2 -2.5,6.9 l 0.9,3.9 -3.6,0.6 a 28.19,28.19 0 0 1 -15.3,-1.3 z m 11.2,0.4 a 18.08,18.08 0 0 0 -1.2,-2.8 c -0.7,-1.2 -1.3,-2.3 -1.4,-2.5 a 21,21 0 0 0 -4.5,1.7 l -4.4,1.9 3.5,1 c 3.9,1.1 8,1.5 8,0.66 z m -2,-8 c 4.1,-2.7 4.9,-3.5 3.2,-3.5 -2.9,0 -7.1,2.2 -9.6,4.9 -3,3.3 0,2.56 6.4,-1.44 z"
       id="path58" />
    <path
       class="a"
       d="m 340,158.74 c 0,-1.2 12.5,-10.1 18.9,-13.4 6.1,-3.2 10.1,-3.6 12.4,-1 2.3,2.6 2.3,5.7 0,4.6 a 32.74,32.74 0 0 0 -5.6,-1.2 c -3.2,-0.3 -5.1,0.4 -12,4.5 -9.2,5.5 -13.7,7.7 -13.7,6.5 z"
       id="path60" />
    <path
       class="a"
       d="m 216.3,145.94 c 5.8,-7 7.5,-8.4 10.9,-8.4 a 10.09,10.09 0 0 1 5.3,1.4 7.24,7.24 0 0 0 5.2,0.9 7.64,7.64 0 0 1 5.9,1.2 c 3.3,2.1 2.7,2.8 -1.4,1.3 -2.8,-1.1 -3.4,-1 -5.5,1 l -2.4,2.3 -1.7,-2.6 c -2.6,-4 -7.3,-3.4 -12.1,1.5 -4.4,4.46 -7.6,5.46 -4.2,1.4 z"
       id="path62" />
  </g>
</svg>
