<?xml version="1.0" encoding="UTF-8" standalone="no"?>
<!-- Created with Inkscape (http://www.inkscape.org/) -->

<svg
   width="52.800247mm"
   height="52.916664mm"
   viewBox="0 0 52.800247 52.916665"
   version="1.1"
   id="svg67976"
   xmlns="http://www.w3.org/2000/svg"
   xmlns:svg="http://www.w3.org/2000/svg"
   xmlns:rdf="http://www.w3.org/1999/02/22-rdf-syntax-ns#"
   xmlns:cc="http://creativecommons.org/ns#"
   xmlns:dc="http://purl.org/dc/elements/1.1/">
  <defs
     id="defs67970">
    <clipPath
       id="clipPath132960"
       clipPathUnits="userSpaceOnUse">
      <path
         id="path132958"
         d="M 0,0 H 518.74 V 694.488 H 0 Z" />
    </clipPath>
    <clipPath
       id="clipPath132980"
       clipPathUnits="userSpaceOnUse">
      <path
         id="path132978"
         d="M 0,0 H 518.74 V 694.488 H 0 Z" />
    </clipPath>
    <clipPath
       id="clipPath133004"
       clipPathUnits="userSpaceOnUse">
      <path
         id="path133002"
         d="M 0,0 H 518.74 V 694.488 H 0 Z" />
    </clipPath>
    <clipPath
       id="clipPath133028"
       clipPathUnits="userSpaceOnUse">
      <path
         id="path133026"
         d="M 0,0 H 518.74 V 694.488 H 0 Z" />
    </clipPath>
    <clipPath
       id="clipPath133048"
       clipPathUnits="userSpaceOnUse">
      <path
         id="path133046"
         d="M 0,0 H 518.74 V 694.488 H 0 Z" />
    </clipPath>
    <clipPath
       id="clipPath133108"
       clipPathUnits="userSpaceOnUse">
      <path
         id="path133106"
         d="M 0,0 H 518.74 V 694.488 H 0 Z" />
    </clipPath>
    <clipPath
       id="clipPath133144"
       clipPathUnits="userSpaceOnUse">
      <path
         id="path133142"
         d="M 0,0 H 518.74 V 694.488 H 0 Z" />
    </clipPath>
    <clipPath
       id="clipPath133160"
       clipPathUnits="userSpaceOnUse">
      <path
         id="path133158"
         d="M 0,0 H 518.74 V 694.488 H 0 Z" />
    </clipPath>
    <clipPath
       id="clipPath133180"
       clipPathUnits="userSpaceOnUse">
      <path
         id="path133178"
         d="M 0,0 H 518.74 V 694.488 H 0 Z" />
    </clipPath>
    <clipPath
       id="clipPath133208"
       clipPathUnits="userSpaceOnUse">
      <path
         id="path133206"
         d="M 0,0 H 518.74 V 694.488 H 0 Z" />
    </clipPath>
    <clipPath
       id="clipPath133228"
       clipPathUnits="userSpaceOnUse">
      <path
         id="path133226"
         d="M 0,0 H 518.74 V 694.488 H 0 Z" />
    </clipPath>
    <clipPath
       id="clipPath133248"
       clipPathUnits="userSpaceOnUse">
      <path
         id="path133246"
         d="M 0,0 H 518.74 V 694.488 H 0 Z" />
    </clipPath>
    <clipPath
       id="clipPath133268"
       clipPathUnits="userSpaceOnUse">
      <path
         id="path133266"
         d="M 0,0 H 518.74 V 694.488 H 0 Z" />
    </clipPath>
    <clipPath
       id="clipPath133288"
       clipPathUnits="userSpaceOnUse">
      <path
         id="path133286"
         d="M 0,0 H 518.74 V 694.488 H 0 Z" />
    </clipPath>
    <clipPath
       id="clipPath133312"
       clipPathUnits="userSpaceOnUse">
      <path
         id="path133310"
         d="M 0,0 H 518.74 V 694.488 H 0 Z" />
    </clipPath>
    <clipPath
       id="clipPath133334"
       clipPathUnits="userSpaceOnUse">
      <path
         id="path133332"
         d="M 0,0 H 518.74 V 694.488 H 0 Z" />
    </clipPath>
    <clipPath
       id="clipPath133354"
       clipPathUnits="userSpaceOnUse">
      <path
         id="path133352"
         d="M 0,0 H 518.74 V 694.488 H 0 Z" />
    </clipPath>
    <clipPath
       id="clipPath133378"
       clipPathUnits="userSpaceOnUse">
      <path
         id="path133376"
         d="M 0,0 H 518.74 V 694.488 H 0 Z" />
    </clipPath>
    <clipPath
       id="clipPath133402"
       clipPathUnits="userSpaceOnUse">
      <path
         id="path133400"
         d="M 0,0 H 518.74 V 694.488 H 0 Z" />
    </clipPath>
    <clipPath
       id="clipPath133548"
       clipPathUnits="userSpaceOnUse">
      <path
         id="path133546"
         d="M 0,0 H 518.74 V 694.488 H 0 Z" />
    </clipPath>
    <clipPath
       id="clipPath133794"
       clipPathUnits="userSpaceOnUse">
      <path
         id="path133792"
         d="m 79.405,445.217 c 0.598,-0.088 1.189,-0.187 1.773,-0.295 v 0 l 3.053,-0.668 h 0.002 l 1.232,-0.352 0.022,0.081 -1.233,0.352 c -1.393,0.352 -2.823,0.648 -4.294,0.882 v 0 z m 12.988,-3.799 0.348,-0.144 0.003,-10e-4 2.13,-1.018 0.084,0.052 -2.179,1.044 -0.353,0.146 z m -20.843,-6.101 -0.878,-0.012 v -0.086 l 0.882,0.016 c 2.152,-0.054 4.237,-0.271 6.267,-0.631 v 0 l 0.127,-0.03 0.018,0.082 -0.126,0.027 -0.003,0.002 c -2.034,0.362 -4.126,0.58 -6.282,0.632 v 0 z m 34.497,-1.921 1.652,-1.152 v -0.001 l 1.543,-1.158 h 0.14 l -1.635,1.225 -1.784,1.248 z m -20.516,-0.933 1.064,-0.387 2.32,-0.991 v 0.083 l 0.032,-0.008 -2.317,0.996 -0.006,10e-4 -1.065,0.385 z m 36.694,-11.136 1.741,-1.229 c 0.792,-0.545 1.59,-1.081 2.398,-1.603 v 0 l 1.243,-0.774 0.045,0.072 -1.242,0.774 c -0.806,0.521 -1.606,1.054 -2.395,1.601 v 0 l -1.766,1.243 z m -16.263,-0.771 3.948,-2.967 c 1.631,-1.246 3.251,-2.496 4.869,-3.727 v 0 l 3.467,-2.569 0.013,0.082 0.035,-0.016 -3.463,2.571 -4.869,3.724 -3.915,2.946 z m 32.167,-8.175 1.115,-0.437 c 2.775,-0.992 5.688,-1.758 8.785,-2.23 v 0 l 0.002,-0.002 1.433,-0.166 0.01,0.083 -1.432,0.168 c -3.092,0.471 -6,1.236 -8.771,2.227 v 0 l -1.111,0.433 z m -8.567,-8.429 2.167,-1.097 c 5.005,-2.395 10.233,-3.915 15.876,-3.957 v 0 h 0.495 c 0.058,0 0.117,10e-4 0.176,0.002 v 0 l 1.198,0.068 -0.004,0.084 -1.194,-0.069 h -0.006 l -2.139,0.045 c -4.242,0.225 -8.253,1.278 -12.125,2.898 v 0 l -1.918,0.853 -0.004,10e-4 -2.482,1.249 z" />
    </clipPath>
    <clipPath
       id="clipPath133804"
       clipPathUnits="userSpaceOnUse">
      <path
         id="path133802"
         d="m 70.671011,398.89759 v 46.31998 h 78.802559 v -46.31998 z" />
    </clipPath>
  </defs>
  <metadata
     id="metadata67973">
    <rdf:RDF>
      <cc:Work
         rdf:about="">
        <dc:format>image/svg+xml</dc:format>
        <dc:type
           rdf:resource="http://purl.org/dc/dcmitype/StillImage" />
        <dc:title />
      </cc:Work>
    </rdf:RDF>
  </metadata>
  <g
     id="layer1"
     transform="translate(150.18172,59.700308)">
    <g
       id="g135741"
       transform="translate(-293.20063,41.864599)">
      <g
         transform="matrix(0.35277777,0,0,-0.35277777,195.48081,-75.035772)"
         id="g132938">
        <path
           id="path132940"
           style="fill:#ffffff;fill-opacity:1;fill-rule:nonzero;stroke:none"
           d="m 0,0 c 0,-40.93 -33.11,-74.112 -73.948,-74.112 -40.844,0 -73.954,33.182 -73.954,74.112 0,40.933 33.11,74.116 73.954,74.116 C -33.11,74.116 0,40.933 0,0" />
      </g>
      <path
         d="m 154.22952,-86.599862 c -1.15817,1.535642 -2.08809,3.250494 -2.74355,5.098344 h 16.71672 z m 3.92501,-3.879144 c -1.36808,1.007886 -2.59398,2.193572 -3.64702,3.523544 l 13.84159,5.049661 z m -7.74277,16.354072 c 0.51012,10.076744 8.82438,18.090444 19.0052,18.090444 10.18293,0 18.49825,-8.0137 19.00625,-18.090444 l -19.00625,-6.932789 z m 37.08682,-6.948311 h -16.86525 l 17.80681,6.498166 c 0.007,-0.177447 0.008,-0.354189 0.008,-0.531283 0,-2.083859 -0.33408,-4.090458 -0.95003,-5.966883 m -25.00454,-11.803239 c -1.41781,0.554919 -2.75201,1.275997 -3.98003,2.13748 l 10.11061,8.504061 z m -11.15448,11.803239 c -0.61595,1.876425 -0.95108,3.883024 -0.95108,5.966883 0,0.177094 0.002,0.353836 0.007,0.531283 l 17.80681,-6.498166 z m 28.98352,-9.663642 c -1.22802,-0.8636 -2.56328,-1.584678 -3.98215,-2.139597 l -6.1274,10.641541 z m 4.00756,3.781425 c -1.05305,-1.329972 -2.28107,-2.515658 -3.64914,-3.523544 l -10.19457,8.573205 z m 3.01907,5.453944 c -0.65405,-1.84785 -1.58609,-3.562702 -2.7432,-5.098344 l -13.97318,5.098344 z m -11.4133,-11.528072 c -1.29399,-0.47378 -2.6536,-0.809272 -4.05977,-0.991305 l -2.03518,11.571816 z m -8.97502,-0.991305 c -1.40829,0.182033 -2.76684,0.517525 -4.06083,0.991305 l 6.09706,10.580511 z m 4.48804,-0.04904 c -0.66711,-0.07056 -1.34373,-0.109009 -2.032,-0.109009 -0.68616,0 -1.36278,0.03845 -2.03095,0.109009 l 2.03095,11.547122 z"
         style="fill:#00437b;fill-opacity:1;fill-rule:nonzero;stroke:none;stroke-width:0.35277778"
         id="path132944" />
      <g
         transform="matrix(0.35277777,0,0,-0.35277777,158.75781,-69.092454)"
         id="g132946">
        <path
           id="path132948"
           style="fill:#fff200;fill-opacity:1;fill-rule:nonzero;stroke:none"
           d="M 0,0 H 1.966 L 2.065,-0.048 3.848,-2.481 5.646,-0.048 5.742,0 H 7.678 L 7.801,-0.119 V -7.031 L 7.678,-7.149 h -1.84 l -0.123,0.118 v 3.92 L 3.95,-5.444 H 3.755 l -1.771,2.333 v -3.92 L 1.864,-7.149 H 0 l -0.123,0.118 v 6.912 z m 0,-0.119 v -6.912 h 1.864 v 4.283 l 1.984,-2.624 1.99,2.624 v -4.283 h 1.84 v 6.912 H 5.742 L 3.848,-2.686 1.966,-0.119 Z" />
      </g>
      <g
         transform="matrix(0.35277777,0,0,-0.35277777,163.01474,-68.331936)"
         id="g132950">
        <path
           id="path132952"
           style="fill:#fff200;fill-opacity:1;fill-rule:nonzero;stroke:none"
           d="M 0,0 1.286,2.099 1.392,2.16 h 2.23 L 3.722,1.969 1.106,-2.156 V -4.87 L 0.98,-4.993 H -1.013 L -1.13,-4.87 v 2.714 L -3.749,1.969 -3.65,2.16 h 2.243 L -1.308,2.099 Z M -1.013,-2.116 V -4.87 H 0.98 v 2.754 L 3.622,2.037 H 1.392 L 0.009,-0.215 H -0.012 L -1.407,2.037 H -3.65 Z" />
      </g>
      <g
         transform="matrix(0.35277777,0,0,-0.35277777,130.47731,130.73488)"
         id="g132954">
        <g
           clip-path="url(#clipPath132960)"
           id="g132956">
          <g
             transform="translate(99.083,566.4397)"
             id="g132962">
            <path
               id="path132964"
               style="fill:#fff200;fill-opacity:1;fill-rule:nonzero;stroke:none"
               d="m 0,0 h 1.99 l 0.117,-0.119 v -4.245 c 0,-0.664 0.358,-1.06 1.031,-1.06 0.653,0 1.041,0.402 1.041,1.06 v 4.245 L 4.296,0 h 1.975 l 0.123,-0.119 v -4.235 c 0,-1.983 -1.329,-2.925 -3.256,-2.925 -1.92,0 -3.261,0.942 -3.261,2.925 v 4.235 z M 0,-0.119 V -4.354 C 0,-6.26 1.266,-7.16 3.138,-7.16 c 1.885,0 3.133,0.9 3.133,2.806 v 4.235 H 4.296 v -4.245 c 0,-0.722 -0.439,-1.184 -1.158,-1.184 -0.733,0 -1.148,0.462 -1.148,1.184 v 4.245 z" />
          </g>
        </g>
      </g>
      <g
         transform="matrix(0.35277777,0,0,-0.35277777,168.67037,-68.414874)"
         id="g132966">
        <path
           id="path132968"
           style="fill:#fff200;fill-opacity:1;fill-rule:nonzero;stroke:none"
           d="m 0,0 h -2.098 l -0.124,0.123 v 1.679 l 0.124,0.123 H 4.296 L 4.416,1.802 V 0.123 L 4.296,0 H 2.197 V -5.11 L 2.074,-5.229 H 0.117 L 0,-5.11 Z M 0.117,0.123 V -5.11 H 2.074 V 0.123 H 4.296 V 1.802 H -2.098 V 0.123 Z" />
      </g>
      <g
         transform="matrix(0.35277777,0,0,-0.35277777,170.47638,-69.092454)"
         id="g132970">
        <path
           id="path132972"
           style="fill:#fff200;fill-opacity:1;fill-rule:nonzero;stroke:none"
           d="M 0,0 H 1.966 L 2.062,-0.048 3.845,-2.481 5.643,-0.048 5.742,0 h 1.936 l 0.12,-0.119 V -7.031 L 7.678,-7.149 H 5.835 l -0.12,0.118 v 3.92 L 3.944,-5.444 H 3.748 l -1.767,2.333 v -3.92 L 1.861,-7.149 H 0 l -0.123,0.118 v 6.912 z m 0,-0.119 v -6.912 h 1.861 v 4.283 l 1.984,-2.624 1.99,2.624 v -4.283 h 1.843 v 6.912 H 5.742 L 3.845,-2.686 1.966,-0.119 Z" />
      </g>
      <g
         transform="matrix(0.35277777,0,0,-0.35277777,130.47731,130.73488)"
         id="g132974">
        <g
           clip-path="url(#clipPath132980)"
           id="g132976">
          <g
             transform="translate(125.9398,560.9955)"
             id="g132982">
            <path
               id="path132984"
               style="fill:#fff200;fill-opacity:1;fill-rule:nonzero;stroke:none"
               d="M 0,0 C 1.049,0 1.659,0.78 1.659,1.87 1.659,2.959 1.061,3.737 0,3.737 -1.052,3.737 -1.651,2.959 -1.651,1.87 -1.651,0.78 -1.037,0 0,0 m 0,-0.123 c -1.121,0 -1.774,0.86 -1.774,1.993 0,1.137 0.644,1.992 1.774,1.992 1.139,0 1.78,-0.855 1.78,-1.992 C 1.78,0.737 1.13,-0.123 0,-0.123 m 0,5.696 c 2.366,0 3.893,-1.662 3.893,-3.703 0,-2.042 -1.518,-3.705 -3.893,-3.705 -2.366,0 -3.89,1.663 -3.89,3.705 0,2.041 1.536,3.703 3.89,3.703 m 0,-0.12 c -2.294,0 -3.767,-1.61 -3.767,-3.583 0,-1.974 1.464,-3.586 3.767,-3.586 2.315,0 3.767,1.612 3.767,3.586 0,1.973 -1.461,3.583 -3.767,3.583" />
          </g>
          <g
             transform="translate(131.3296,561.6597)"
             id="g132986">
            <path
               id="path132988"
               style="fill:#fff200;fill-opacity:1;fill-rule:nonzero;stroke:none"
               d="m 0,0 c 0.628,-0.348 1.383,-0.596 1.978,-0.596 0.511,0 0.713,0.18 0.713,0.363 0,0.31 -0.74,0.387 -1.732,0.688 -0.92,0.277 -1.903,0.798 -1.903,2.184 0,1.257 1.073,2.275 2.841,2.275 0.935,0 1.813,-0.235 2.724,-0.645 L 4.684,4.102 3.971,2.635 3.809,2.576 c -0.676,0.33 -1.278,0.44 -1.813,0.44 -0.475,0 -0.661,-0.191 -0.661,-0.359 0,-0.299 0.74,-0.372 1.731,-0.668 0.921,-0.273 1.906,-0.799 1.906,-2.194 0,-1.3 -1.037,-2.294 -2.985,-2.294 -1.115,0 -2.321,0.378 -3.036,0.818 l -0.039,0.172 0.926,1.467 z m -0.057,-0.104 -0.929,-1.473 c 0.695,-0.425 1.888,-0.797 2.973,-0.797 1.903,0 2.862,0.955 2.862,2.169 0,1.32 -0.905,1.806 -1.816,2.079 -0.91,0.273 -1.818,0.33 -1.818,0.783 0,0.277 0.288,0.484 0.781,0.484 0.556,0 1.176,-0.115 1.867,-0.455 l 0.71,1.473 c -0.902,0.405 -1.759,0.63 -2.676,0.63 -1.719,0 -2.718,-0.979 -2.718,-2.15 0,-1.304 0.905,-1.792 1.816,-2.07 0.911,-0.272 1.819,-0.339 1.819,-0.802 0,-0.297 -0.316,-0.488 -0.836,-0.488 -0.628,0 -1.392,0.258 -2.035,0.617" />
          </g>
        </g>
      </g>
      <g
         transform="matrix(0.35277777,0,0,-0.35277777,179.46407,-68.414874)"
         id="g132990">
        <path
           id="path132992"
           style="fill:#fff200;fill-opacity:1;fill-rule:nonzero;stroke:none"
           d="m 0,0 h -2.098 l -0.121,0.123 v 1.679 l 0.121,0.123 H 4.296 L 4.419,1.802 V 0.123 L 4.296,0 H 2.197 V -5.11 L 2.077,-5.229 H 0.123 L 0,-5.11 Z M 0.123,0.123 V -5.11 H 2.077 V 0.123 H 4.296 V 1.802 H -2.098 V 0.123 Z" />
      </g>
      <g
         transform="matrix(0.35277777,0,0,-0.35277777,162.63403,-65.54358)"
         id="g132994">
        <path
           id="path132996"
           style="fill:#fff200;fill-opacity:1;fill-rule:nonzero;stroke:none"
           d="M 0,0 H 5.3 L 5.417,-0.125 V -1.759 L 5.3,-1.883 H 2.098 V -2.824 H 4.837 L 4.96,-2.945 V -4.474 L 4.837,-4.597 H 2.098 V -7.03 L 1.975,-7.151 H 0 l -0.12,0.121 v 6.905 z M 0,-0.125 V -7.03 h 1.975 v 2.556 h 2.862 v 1.529 H 1.975 v 1.186 H 5.3 v 1.634 z" />
      </g>
      <g
         transform="matrix(0.35277777,0,0,-0.35277777,130.47731,130.73488)"
         id="g132998">
        <g
           clip-path="url(#clipPath133004)"
           id="g133000">
          <g
             transform="translate(100.8627,550.9315)"
             id="g133006">
            <path
               id="path133008"
               style="fill:#fff200;fill-opacity:1;fill-rule:nonzero;stroke:none"
               d="M 0,0 C 1.049,0 1.659,0.783 1.659,1.874 1.659,2.963 1.058,3.742 0,3.742 -1.055,3.742 -1.656,2.963 -1.656,1.874 -1.656,0.783 -1.043,0 0,0 m 0,-0.119 c -1.121,0 -1.774,0.854 -1.774,1.993 0,1.131 0.637,1.991 1.774,1.991 1.139,0 1.78,-0.86 1.78,-1.991 C 1.78,0.735 1.13,-0.119 0,-0.119 m 0,5.695 c 2.366,0 3.89,-1.667 3.89,-3.702 0,-2.041 -1.515,-3.709 -3.89,-3.709 -2.372,0 -3.896,1.668 -3.896,3.709 0,2.035 1.536,3.702 3.896,3.702 M 0,5.453 c -2.294,0 -3.773,-1.61 -3.773,-3.579 0,-1.975 1.47,-3.585 3.773,-3.585 2.309,0 3.767,1.61 3.767,3.585 C 3.767,3.843 2.3,5.453 0,5.453" />
          </g>
          <g
             transform="translate(108.922,553.2635)"
             id="g133010">
            <path
               id="path133012"
               style="fill:#fff200;fill-opacity:1;fill-rule:nonzero;stroke:none"
               d="M 0,0 C 0.562,0 0.848,0.239 0.848,0.693 0.848,1.166 0.544,1.39 0,1.39 H -1.088 V 0 Z M 0,-0.124 H -1.211 V 1.515 H 0 c 0.58,0 0.968,-0.268 0.968,-0.822 0,-0.53 -0.367,-0.817 -0.968,-0.817 m -3.186,3.24 h 3.204 c 2.246,0 3.048,-1.161 3.048,-2.395 0,-0.62 -0.225,-1.199 -0.7,-1.619 L 1.897,-1.195 3.123,-3.861 3.012,-4.034 H 0.929 l -0.12,0.076 -0.899,2.367 h -0.998 v -2.323 l -0.123,-0.12 h -1.975 l -0.124,0.12 v 6.906 z m 0,-0.124 v -6.906 h 1.975 v 2.447 h 1.202 l 0.938,-2.447 h 2.083 l -1.268,2.763 c 0.835,0.386 1.196,1.085 1.196,1.872 0,1.166 -0.727,2.271 -2.922,2.271 z" />
          </g>
        </g>
      </g>
      <g
         transform="matrix(0.35277777,0,0,-0.35277777,171.25263,-65.54358)"
         id="g133014">
        <path
           id="path133016"
           style="fill:#fff200;fill-opacity:1;fill-rule:nonzero;stroke:none"
           d="m 0,0 h 1.975 l 0.123,-0.125 v -2.479 h 1.984 v 2.479 L 4.205,0 H 6.169 L 6.295,-0.125 V -7.03 L 6.169,-7.151 H 4.205 L 4.082,-7.03 v 2.571 H 2.098 V -7.03 L 1.975,-7.151 H 0 l -0.12,0.121 v 6.905 z M 0,-0.125 V -7.03 h 1.975 v 2.695 h 2.23 V -7.03 h 1.964 v 6.905 H 4.205 V -2.73 h -2.23 v 2.605 z" />
      </g>
      <g
         transform="matrix(0.35277777,0,0,-0.35277777,173.89007,-63.063517)"
         id="g133018">
        <path
           id="path133020"
           style="fill:#fff200;fill-opacity:1;fill-rule:nonzero;stroke:none"
           d="M 0,0 V 6.905 L 0.12,7.03 H 2.098 L 2.219,6.905 V 0 L 2.098,-0.121 H 0.12 Z M 0.12,0 H 2.098 V 6.905 H 0.12 Z" />
      </g>
      <g
         transform="matrix(0.35277777,0,0,-0.35277777,130.47731,130.73488)"
         id="g133022">
        <g
           clip-path="url(#clipPath133028)"
           id="g133024">
          <g
             transform="translate(127.1752,551.6003)"
             id="g133030">
            <path
               id="path133032"
               style="fill:#fff200;fill-opacity:1;fill-rule:nonzero;stroke:none"
               d="m 0,0 c 0.634,-0.35 1.383,-0.603 1.978,-0.603 0.511,0 0.715,0.183 0.715,0.364 0,0.311 -0.742,0.393 -1.728,0.693 -0.923,0.277 -1.903,0.798 -1.903,2.179 0,1.258 1.073,2.275 2.838,2.275 0.932,0 1.81,-0.234 2.727,-0.64 L 4.69,4.1 3.974,2.628 3.812,2.571 C 3.139,2.906 2.531,3.016 2.002,3.016 1.521,3.016 1.341,2.824 1.341,2.653 1.341,2.351 2.08,2.285 3.066,1.988 3.992,1.711 4.975,1.186 4.975,-0.211 c 0,-1.294 -1.04,-2.288 -2.985,-2.288 -1.118,0 -2.324,0.376 -3.033,0.816 l -0.039,0.168 0.926,1.471 z m -0.057,-0.11 -0.926,-1.467 c 0.691,-0.43 1.885,-0.803 2.973,-0.803 1.906,0 2.862,0.957 2.862,2.169 0,1.32 -0.908,1.808 -1.819,2.079 -0.905,0.272 -1.816,0.33 -1.816,0.785 0,0.277 0.286,0.486 0.785,0.486 0.55,0 1.176,-0.119 1.861,-0.458 L 4.578,4.153 C 3.674,4.56 2.814,4.784 1.9,4.784 0.177,4.784 -0.821,3.81 -0.821,2.633 -0.821,1.329 0.09,0.841 0.998,0.57 1.909,0.292 2.814,0.225 2.814,-0.239 c 0,-0.296 -0.316,-0.483 -0.836,-0.483 -0.628,0 -1.392,0.258 -2.035,0.612" />
          </g>
          <g
             transform="translate(97.4325,546.4439)"
             id="g133034">
            <path
               id="path133036"
               style="fill:#fff200;fill-opacity:1;fill-rule:nonzero;stroke:none"
               d="M 0,0 C 1.221,0 2.107,-0.416 2.844,-0.981 L 2.862,-1.157 1.822,-2.391 1.656,-2.408 c -0.444,0.323 -0.943,0.567 -1.584,0.567 -1.088,0 -1.756,-0.787 -1.756,-1.863 0,-1.157 0.644,-1.859 1.756,-1.859 0.187,0 0.358,0.018 0.511,0.053 l 0.361,0.143 v 0.84 h -1.256 l -0.127,0.126 v 1.194 l 0.127,0.119 H 2.835 L 2.952,-3.207 V -6.419 L 2.901,-6.515 c -0.755,-0.554 -1.737,-0.893 -2.91,-0.893 -2.366,0 -3.899,1.586 -3.899,3.713 C -3.908,-1.674 -2.417,0 0,0 m 0,-0.121 c -2.351,0 -3.785,-1.619 -3.785,-3.574 0,-2.059 1.473,-3.594 3.776,-3.594 1.148,0 2.104,0.336 2.844,0.87 v 3.212 H -0.312 V -4.401 H 1.07 v -1.047 c -0.288,-0.163 -0.601,-0.24 -0.998,-0.24 -1.181,0 -1.873,0.77 -1.873,1.984 0,1.128 0.71,1.984 1.873,1.984 0.674,0 1.203,-0.255 1.66,-0.589 l 1.04,1.234 C 2.047,-0.526 1.193,-0.121 0,-0.121" />
          </g>
        </g>
      </g>
      <g
         transform="matrix(0.35277777,0,0,-0.35277777,166.3256,-61.994319)"
         id="g133038">
        <path
           id="path133040"
           style="fill:#fff200;fill-opacity:1;fill-rule:nonzero;stroke:none"
           d="M 0,0 H 1.972 L 2.098,-0.124 V -5.281 H 5.201 L 5.324,-5.405 V -7.03 L 5.201,-7.154 H 0 l -0.12,0.124 v 6.906 z M 0,-0.124 V -7.03 h 5.201 v 1.625 H 1.972 v 5.281 z" />
      </g>
      <g
         transform="matrix(0.35277777,0,0,-0.35277777,130.47731,130.73488)"
         id="g133042">
        <g
           clip-path="url(#clipPath133048)"
           id="g133044">
          <g
             transform="translate(111.1195,540.8659)"
             id="g133050">
            <path
               id="path133052"
               style="fill:#fff200;fill-opacity:1;fill-rule:nonzero;stroke:none"
               d="M 0,0 C 1.049,0 1.659,0.785 1.659,1.874 1.659,2.963 1.058,3.748 0,3.748 -1.055,3.748 -1.653,2.963 -1.653,1.874 -1.653,0.785 -1.043,0 0,0 m 0,-0.119 c -1.121,0 -1.774,0.86 -1.774,1.993 0,1.137 0.641,1.993 1.774,1.993 1.139,0 1.78,-0.856 1.78,-1.993 C 1.78,0.741 1.13,-0.119 0,-0.119 m 0,5.697 c 2.366,0 3.893,-1.663 3.893,-3.704 0,-2.041 -1.524,-3.709 -3.893,-3.709 -2.369,0 -3.896,1.668 -3.896,3.709 0,2.041 1.536,3.704 3.896,3.704 M 0,5.457 c -2.294,0 -3.773,-1.61 -3.773,-3.583 0,-1.973 1.47,-3.585 3.773,-3.585 2.309,0 3.767,1.612 3.767,3.585 C 3.767,3.847 2.3,5.457 0,5.457" />
          </g>
          <g
             transform="translate(119.179,543.1979)"
             id="g133054">
            <path
               id="path133056"
               style="fill:#fff200;fill-opacity:1;fill-rule:nonzero;stroke:none"
               d="M 0,0 C 0.562,0 0.848,0.239 0.848,0.699 0.848,1.167 0.544,1.396 0,1.396 H -1.091 V 0 Z M 0,-0.119 H -1.212 V 1.52 H 0 C 0.583,1.52 0.968,1.249 0.968,0.699 0.968,0.163 0.601,-0.119 0,-0.119 m -3.187,3.24 h 3.205 c 2.243,0 3.048,-1.161 3.048,-2.394 0,-0.622 -0.225,-1.2 -0.706,-1.625 L 1.897,-1.195 3.123,-3.861 3.012,-4.033 H 0.926 l -0.115,0.077 -0.907,2.37 h -0.995 v -2.323 l -0.121,-0.124 h -1.975 l -0.123,0.124 v 6.906 z m 0,-0.124 v -6.906 h 1.975 v 2.442 h 1.203 L 0.926,-3.909 H 3.012 L 1.74,-1.146 c 0.839,0.382 1.203,1.084 1.203,1.873 0,1.166 -0.731,2.27 -2.925,2.27 z" />
          </g>
        </g>
      </g>
      <g
         transform="matrix(0.35277777,0,0,-0.35277777,174.92837,-61.232283)"
         id="g133058">
        <path
           id="path133060"
           style="fill:#fff200;fill-opacity:1;fill-rule:nonzero;stroke:none"
           d="M 0,0 1.293,2.098 1.398,2.16 h 2.23 L 3.728,1.969 1.112,-2.156 V -4.87 L 0.992,-4.994 H -1.007 L -1.13,-4.87 v 2.714 l -2.619,4.125 0.106,0.191 h 2.242 L -1.302,2.098 Z M -1.007,-2.116 V -4.87 h 1.999 v 2.754 L 3.628,2.036 H 1.398 L 0.015,-0.215 h -0.024 l -1.392,2.251 h -2.242 z" />
      </g>
      <g
         transform="matrix(0.35277777,0,0,-0.35277777,160.25207,-75.610165)"
         id="g133062">
        <path
           id="path133064"
           style="fill:#ffffff;fill-opacity:1;fill-rule:nonzero;stroke:none"
           d="M 0,0 6.304,32.447 25.889,25.886 V -6.236 Z" />
      </g>
      <g
         transform="matrix(0.35277777,0,0,-0.35277777,162.20127,-87.525622)"
         id="g133066">
        <path
           id="path133068"
           style="fill:#00437b;fill-opacity:1;fill-rule:nonzero;stroke:none"
           d="m 0,0 -0.436,-2.27 -5.901,-30.358 -0.372,-1.903 1.89,-0.457 23.701,-5.713 2.498,-0.601 v 2.576 30.103 1.463 l -1.383,0.464 -17.803,5.964 z m 1.551,-2.658 17.803,-5.965 v -30.103 l -23.698,5.715 z" />
      </g>
      <g
         transform="matrix(0.35277777,0,0,-0.35277777,169.45082,-84.742064)"
         id="g133070">
        <path
           id="path133072"
           style="fill:#ffffff;fill-opacity:1;fill-rule:nonzero;stroke:none"
           d="M 0,0 19.591,6.562 25.889,-25.88 0,-32.122 Z" />
      </g>
      <g
         transform="matrix(0.35277777,0,0,-0.35277777,176.63362,-87.525622)"
         id="g133074">
        <path
           id="path133076"
           style="fill:#00437b;fill-opacity:1;fill-rule:nonzero;stroke:none"
           d="m 0,0 -2.189,-0.732 -17.799,-5.964 -1.389,-0.464 v -1.463 -30.103 -2.576 l 2.504,0.601 23.695,5.713 1.888,0.457 -0.37,1.903 -5.895,30.358 z m -1.548,-2.658 5.898,-30.353 -23.7,-5.715 v 30.103 z" />
      </g>
      <g
         transform="matrix(0.35277777,0,0,-0.35277777,172.35976,-82.302359)"
         id="g133078">
        <path
           id="path133080"
           style="fill:#00437b;fill-opacity:1;fill-rule:nonzero;stroke:none"
           d="M 0,0 H -6.253 V 8.029 L -10.419,7.354 V 0 h -6.259 v -4.182 h 6.259 v -24.331 h 4.166 V -4.182 H 0 Z" />
      </g>
      <g
         transform="matrix(0.35277777,0,0,-0.35277777,172.48602,-82.390236)"
         id="g133082">
        <path
           id="path133084"
           style="fill:none;stroke:#00437b;stroke-width:0.24600001;stroke-linecap:butt;stroke-linejoin:miter;stroke-miterlimit:10;stroke-dasharray:none;stroke-opacity:1"
           d="M 0,0 H -6.523 V 8.2 L -10.865,7.516 V 0 h -6.526 v -4.27 h 6.526 v -24.854 h 4.342 V -4.27 H 0 Z" />
      </g>
      <g
         transform="matrix(0.35277777,0,0,-0.35277777,158.52773,-74.499514)"
         id="g133086">
        <path
           id="path133088"
           style="fill:#ffffff;fill-opacity:1;fill-rule:nonzero;stroke:none"
           d="M 0,0 6.109,31.471 9.953,30.189 4.678,3.01 30.873,-3.303 57.065,3.01 51.787,30.189 55.632,31.471 61.746,0 30.873,-7.441 Z" />
      </g>
      <g
         transform="matrix(0.35277777,0,0,-0.35277777,178.42584,-86.07059)"
         id="g133090">
        <path
           id="path133092"
           style="fill:#00437b;fill-opacity:1;fill-rule:nonzero;stroke:none"
           d="m 0,0 -2.189,-0.732 -1.902,-0.636 -1.684,-0.563 0.34,-1.749 4.921,-25.349 -25.017,-6.032 -25.023,6.032 4.927,25.349 0.34,1.749 -1.684,0.563 -1.909,0.636 -2.188,0.732 -0.439,-2.266 -5.345,-27.514 -0.364,-1.873 -0.37,-1.908 1.888,-0.453 1.849,-0.449 26.74,-6.443 1.106,-0.268 0.472,-0.114 0.472,0.114 1.106,0.268 26.737,6.443 1.851,0.449 1.882,0.453 -0.366,1.908 -0.367,1.873 -5.342,27.514 z m -1.545,-2.657 5.342,-27.51 0.361,-1.874 -1.849,-0.444 -26.74,-6.447 -1.1,-0.262 -1.106,0.262 -26.74,6.447 -1.849,0.444 0.361,1.874 5.348,27.51 1.9,-0.636 -5.291,-27.252 27.377,-6.599 27.377,6.599 -5.3,27.252 z" />
      </g>
      <g
         transform="matrix(0.35277777,0,0,-0.35277777,145.72221,-75.17713)"
         id="g133094">
        <path
           id="path133096"
           style="fill:#00437b;fill-opacity:1;fill-rule:nonzero;stroke:none"
           d="M 0,0 0.129,2.083 3.093,3.891 0.385,6.075 0.52,8.125 8.159,7.628 8.039,5.677 3.295,5.983 6.066,3.7 3.027,1.788 7.768,1.482 7.639,-0.493 Z" />
      </g>
      <g
         transform="matrix(0.35277777,0,0,-0.35277777,147.94926,-79.457665)"
         id="g133098">
        <path
           id="path133100"
           style="fill:#00437b;fill-opacity:1;fill-rule:nonzero;stroke:none"
           d="M 0,0 0.319,1.478 -2.287,1.282 -2.294,1.258 Z M -4.93,0.66 -4.44,2.93 3.604,3.877 3.129,1.698 1.945,1.597 1.431,-0.788 2.474,-1.351 1.999,-3.551 Z" />
      </g>
      <g
         transform="matrix(0.35277777,0,0,-0.35277777,130.47731,130.73488)"
         id="g133102">
        <g
           clip-path="url(#clipPath133108)"
           id="g133104">
          <g
             transform="translate(50.615,605.1984)"
             id="g133110">
            <path
               id="path133112"
               style="fill:#00437b;fill-opacity:1;fill-rule:nonzero;stroke:none"
               d="M 0,0 C 0.214,0.598 0.042,1.071 -0.517,1.267 -1.094,1.472 -1.509,1.186 -1.713,0.602 l -0.424,-1.209 1.713,-0.607 z m -4.377,-2.035 1.124,3.207 C -2.48,3.361 -1.07,3.68 0.153,3.255 0.977,2.963 1.578,2.338 1.687,1.357 L 5.02,1.61 4.29,-0.473 1.401,-0.506 0.977,-1.711 3.539,-2.613 2.841,-4.588 Z" />
          </g>
        </g>
      </g>
      <g
         transform="matrix(0.35277777,0,0,-0.35277777,149.87942,-85.023193)"
         id="g133114">
        <path
           id="path133116"
           style="fill:#00437b;fill-opacity:1;fill-rule:nonzero;stroke:none"
           d="M 0,0 0.694,1.344 -1.87,1.841 -1.879,1.821 Z M -4.578,1.94 -3.511,4.001 4.497,2.791 3.466,0.809 2.297,1.029 1.175,-1.133 2.029,-1.958 0.995,-3.947 Z" />
      </g>
      <g
         transform="matrix(0.35277777,0,0,-0.35277777,149.44991,-87.864077)"
         id="g133118">
        <path
           id="path133120"
           style="fill:#00437b;fill-opacity:1;fill-rule:nonzero;stroke:none"
           d="M 0,0 1.139,1.616 6.325,1.392 2.774,3.919 3.911,5.521 10.158,1.076 9.018,-0.526 3.848,-0.33 7.383,-2.843 6.247,-4.439 Z" />
      </g>
      <g
         transform="matrix(0.35277777,0,0,-0.35277777,153.28256,-89.951498)"
         id="g133122">
        <path
           id="path133124"
           style="fill:#00437b;fill-opacity:1;fill-rule:nonzero;stroke:none"
           d="m 0,0 1.028,1.099 -2.33,1.18 -0.015,-0.014 z m -3.884,3.117 1.59,1.687 7.377,-3.341 -1.53,-1.63 -1.064,0.53 -1.668,-1.773 0.598,-1.028 -1.533,-1.634 z" />
      </g>
      <g
         transform="matrix(0.35277777,0,0,-0.35277777,154.35895,-92.523036)"
         id="g133126">
        <path
           id="path133128"
           style="fill:#00437b;fill-opacity:1;fill-rule:nonzero;stroke:none"
           d="M 0,0 -1.804,-1.51 -2.994,-0.081 2.194,4.27 3.385,2.841 1.587,1.332 5.309,-3.127 3.724,-4.456 Z" />
      </g>
      <g
         transform="matrix(0.35277777,0,0,-0.35277777,155.71845,-94.456259)"
         id="g133130">
        <path
           id="path133132"
           style="fill:#00437b;fill-opacity:1;fill-rule:nonzero;stroke:none"
           d="M 0,0 1.759,1.125 3.313,-1.318 5.297,-0.048 3.749,2.394 5.498,3.514 9.617,-2.959 7.864,-4.078 6.262,-1.555 4.272,-2.826 5.88,-5.349 4.115,-6.471 Z" />
      </g>
      <g
         transform="matrix(0.35277777,0,0,-0.35277777,159.97634,-94.906932)"
         id="g133134">
        <path
           id="path133136"
           style="fill:#00437b;fill-opacity:1;fill-rule:nonzero;stroke:none"
           d="M 0,0 1.368,0.636 -0.358,2.6 -0.379,2.591 Z m -2.441,4.34 2.102,0.975 5.597,-5.862 -2.02,-0.937 -0.794,0.892 -2.206,-1.026 0.177,-1.175 -2.032,-0.944 z" />
      </g>
      <g
         transform="matrix(0.35277777,0,0,-0.35277777,130.47731,130.73488)"
         id="g133138">
        <g
           clip-path="url(#clipPath133144)"
           id="g133140">
          <g
             transform="translate(94.3995,648.8743)"
             id="g133146">
            <path
               id="path133148"
               style="fill:#00437b;fill-opacity:1;fill-rule:nonzero;stroke:none"
               d="M 0,0 C 1.094,0.282 2.098,0.138 3.057,-0.315 L 2.299,-1.972 c -0.534,0.264 -1.076,0.452 -1.821,0.261 -1.155,-0.295 -1.683,-1.311 -1.359,-2.611 0.334,-1.315 1.269,-1.963 2.447,-1.661 0.709,0.182 1.157,0.602 1.479,1.136 L 4.53,-5.804 C 3.911,-6.777 3.087,-7.427 1.891,-7.735 -0.367,-8.308 -2.342,-7.048 -2.904,-4.839 -3.457,-2.659 -2.264,-0.578 0,0" />
          </g>
        </g>
      </g>
      <g
         transform="matrix(0.35277777,0,0,-0.35277777,165.53227,-98.512568)"
         id="g133150">
        <path
           id="path133152"
           style="fill:#00437b;fill-opacity:1;fill-rule:nonzero;stroke:none"
           d="M 0,0 2.074,0.241 2.414,-2.633 4.756,-2.359 4.416,0.517 6.481,0.759 7.374,-6.86 5.309,-7.104 4.966,-4.132 2.625,-4.406 2.967,-7.384 0.893,-7.625 Z" />
      </g>
      <g
         transform="matrix(0.35277777,0,0,-0.35277777,130.47731,130.73488)"
         id="g133154">
        <g
           clip-path="url(#clipPath133160)"
           id="g133156">
          <g
             transform="translate(111.8921,647.1871)"
             id="g133162">
            <path
               id="path133164"
               style="fill:#00437b;fill-opacity:1;fill-rule:nonzero;stroke:none"
               d="M 0,0 C 0.64,-0.012 1.031,0.297 1.043,0.889 1.058,1.502 0.652,1.808 0.042,1.821 L -1.239,1.848 -1.284,0.029 Z M -3.295,3.537 0.096,3.465 C 2.414,3.418 3.156,2.172 3.132,0.88 3.114,0 2.709,-0.77 1.816,-1.178 l 1.283,-3.098 -2.206,0.048 -0.935,2.74 -1.269,0.024 -0.057,-2.718 -2.089,0.046 z" />
          </g>
          <g
             transform="translate(111.8921,647.1871)"
             id="g133166">
            <path
               id="path133168"
               style="fill:#00437b;fill-opacity:1;fill-rule:nonzero;stroke:none"
               d="M 0,0 C 0.64,-0.012 1.031,0.297 1.043,0.889 1.058,1.502 0.652,1.808 0.042,1.821 L -1.239,1.848 -1.284,0.029 Z M -3.295,3.537 0.096,3.465 C 2.414,3.418 3.156,2.172 3.132,0.88 3.114,0 2.709,-0.77 1.816,-1.178 l 1.283,-3.098 -2.206,0.048 -0.935,2.74 -1.269,0.024 -0.057,-2.718 -2.089,0.046 z" />
          </g>
        </g>
      </g>
      <g
         transform="matrix(0.35277777,0,0,-0.35277777,171.8815,-98.68049)"
         id="g133170">
        <path
           id="path133172"
           style="fill:#00437b;fill-opacity:1;fill-rule:nonzero;stroke:none"
           d="M 0,0 2.071,-0.252 1.145,-7.869 -0.926,-7.621 Z" />
      </g>
      <g
         transform="matrix(0.35277777,0,0,-0.35277777,130.47731,130.73488)"
         id="g133174">
        <g
           clip-path="url(#clipPath133180)"
           id="g133176">
          <g
             transform="translate(121.3252,644.4276)"
             id="g133182">
            <path
               id="path133184"
               style="fill:#00437b;fill-opacity:1;fill-rule:nonzero;stroke:none"
               d="M 0,0 C 0.577,-0.53 1.305,-0.982 1.96,-1.122 2.498,-1.24 2.865,-1.106 2.937,-0.786 3.151,0.22 -0.755,0.322 -0.144,3.151 0.132,4.426 1.392,5.26 3.172,4.874 4.118,4.67 4.948,4.227 5.793,3.585 L 4.711,2.148 C 4.07,2.669 3.457,2.939 2.889,3.061 2.375,3.174 2.032,3.013 1.969,2.713 1.756,1.728 5.67,1.649 5.051,-1.211 4.759,-2.531 3.547,-3.355 1.578,-2.927 c -1.127,0.249 -2.266,0.922 -2.886,1.538 z" />
          </g>
        </g>
      </g>
      <g
         transform="matrix(0.35277777,0,0,-0.35277777,176.62611,-96.984793)"
         id="g133186">
        <path
           id="path133188"
           style="fill:#00437b;fill-opacity:1;fill-rule:nonzero;stroke:none"
           d="M 0,0 -2.219,0.774 -1.602,2.536 4.783,0.307 4.167,-1.455 1.954,-0.681 0.045,-6.169 -1.909,-5.486 Z" />
      </g>
      <g
         transform="matrix(0.35277777,0,0,-0.35277777,178.89676,-96.8174)"
         id="g133190">
        <path
           id="path133192"
           style="fill:#00437b;fill-opacity:1;fill-rule:nonzero;stroke:none"
           d="m 0,0 1.902,-0.868 -3.171,-6.985 -1.903,0.865 z" />
      </g>
      <g
         transform="matrix(0.35277777,0,0,-0.35277777,180.19051,-94.214006)"
         id="g133194">
        <path
           id="path133196"
           style="fill:#00437b;fill-opacity:1;fill-rule:nonzero;stroke:none"
           d="M 0,0 1.308,-0.759 1.921,1.788 1.903,1.8 Z m 2.14,4.5 2.002,-1.167 -1.563,-7.961 -1.927,1.121 0.274,1.16 -2.107,1.225 -0.86,-0.82 -1.936,1.125 z" />
      </g>
      <g
         transform="matrix(0.35277777,0,0,-0.35277777,183.04854,-94.509881)"
         id="g133198">
        <path
           id="path133200"
           style="fill:#00437b;fill-opacity:1;fill-rule:nonzero;stroke:none"
           d="m 0,0 1.554,-1.215 -0.463,-5.182 2.688,3.441 1.545,-1.209 -4.723,-6.046 -1.539,1.209 0.433,5.167 -2.667,-3.42 -1.545,1.21 z" />
      </g>
      <g
         transform="matrix(0.35277777,0,0,-0.35277777,130.47731,130.73488)"
         id="g133202">
        <g
           clip-path="url(#clipPath133208)"
           id="g133204">
          <g
             transform="translate(155.1205,626.2032)"
             id="g133210">
            <path
               id="path133212"
               style="fill:#00437b;fill-opacity:1;fill-rule:nonzero;stroke:none"
               d="M 0,0 C 0.153,-0.774 0.478,-1.568 0.92,-2.07 1.283,-2.481 1.659,-2.591 1.909,-2.371 2.675,-1.687 -0.424,0.702 1.74,2.624 2.714,3.493 4.221,3.416 5.432,2.055 6.069,1.329 6.484,0.482 6.782,-0.53 L 5.065,-1.051 C 4.855,-0.253 4.521,0.326 4.133,0.759 3.788,1.157 3.415,1.234 3.18,1.027 2.429,0.358 5.546,-2.021 3.361,-3.962 c -1.01,-0.893 -2.475,-0.846 -3.809,0.665 -0.764,0.864 -1.293,2.083 -1.425,2.947 z" />
          </g>
          <g
             transform="translate(166.0927,621.0938)"
             id="g133214">
            <path
               id="path133216"
               style="fill:#00437b;fill-opacity:1;fill-rule:nonzero;stroke:none"
               d="m 0,0 c 0.643,-0.931 0.854,-1.925 0.758,-2.986 l -1.807,0.148 c 0.057,0.587 0.048,1.166 -0.385,1.801 -0.673,0.986 -1.807,1.138 -2.916,0.379 -1.115,-0.765 -1.401,-1.865 -0.712,-2.873 0.414,-0.603 0.962,-0.88 1.572,-0.999 l -0.388,-1.726 c -1.124,0.248 -2.014,0.798 -2.711,1.821 -1.317,1.922 -0.815,4.217 1.064,5.506 C -3.68,2.338 -1.32,1.931 0,0" />
          </g>
        </g>
      </g>
      <g
         transform="matrix(0.35277777,0,0,-0.35277777,189.98951,-86.844302)"
         id="g133218">
        <path
           id="path133220"
           style="fill:#00437b;fill-opacity:1;fill-rule:nonzero;stroke:none"
           d="m 0,0 0.944,-1.87 -2.573,-1.304 1.064,-2.112 2.579,1.309 0.935,-1.854 -6.836,-3.47 -0.935,1.855 2.663,1.353 -1.064,2.112 -2.66,-1.353 -0.95,1.869 z" />
      </g>
      <g
         transform="matrix(0.35277777,0,0,-0.35277777,130.47731,130.73488)"
         id="g133222">
        <g
           clip-path="url(#clipPath133228)"
           id="g133224">
          <g
             transform="translate(168.188,602.9811)"
             id="g133230">
            <path
               id="path133232"
               style="fill:#00437b;fill-opacity:1;fill-rule:nonzero;stroke:none"
               d="M 0,0 C 0.382,-1.137 1.506,-1.487 2.697,-1.085 3.884,-0.678 4.572,0.268 4.184,1.414 3.803,2.552 2.688,2.886 1.491,2.485 0.304,2.079 -0.379,1.124 0,0 M 5.859,1.979 C 6.632,-0.33 5.441,-2.375 3.364,-3.073 1.296,-3.775 -0.887,-2.886 -1.671,-0.568 -2.447,1.744 -1.251,3.785 0.818,4.488 2.892,5.196 5.083,4.283 5.859,1.979" />
          </g>
          <g
             transform="translate(170.4576,594.1012)"
             id="g133234">
            <path
               id="path133236"
               style="fill:#00437b;fill-opacity:1;fill-rule:nonzero;stroke:none"
               d="m 0,0 c 0.208,-1.18 1.262,-1.692 2.501,-1.472 1.242,0.22 2.062,1.056 1.852,2.246 C 4.139,1.955 3.084,2.457 1.846,2.237 0.61,2.017 -0.207,1.166 0,0 m 6.084,1.08 c 0.43,-2.398 -1.058,-4.239 -3.213,-4.622 -2.156,-0.387 -4.179,0.823 -4.609,3.236 -0.423,2.4 1.059,4.239 3.214,4.622 C 3.628,4.703 5.66,3.475 6.084,1.08" />
          </g>
        </g>
      </g>
      <g
         transform="matrix(0.35277777,0,0,-0.35277777,193.0108,-76.994535)"
         id="g133238">
        <path
           id="path133240"
           style="fill:#00437b;fill-opacity:1;fill-rule:nonzero;stroke:none"
           d="m 0,0 0.088,-2.088 -5.848,-0.244 0.145,-3.416 -1.81,-0.077 -0.222,5.51 z" />
      </g>
      <g
         transform="matrix(0.35277777,0,0,-0.35277777,130.47731,130.73488)"
         id="g133244"
         clip-path="url(#clipPath133248)">
        <g
           id="g133250"
           transform="translate(110.386,656.1726)">
          <path
             d="m 0,0 c -39.996,0 -72.529,-32.607 -72.529,-72.685 0,-40.079 32.533,-72.687 72.529,-72.687 39.99,0 72.523,32.608 72.523,72.687 C 72.523,-32.607 39.99,0 0,0 m 0,-147.685 c -41.268,0 -74.835,33.645 -74.835,75 0,41.354 33.567,75 74.835,75 41.262,0 74.835,-33.646 74.835,-75 0,-41.355 -33.573,-75 -74.835,-75"
             style="fill:#00437b;fill-opacity:1;fill-rule:nonzero;stroke:none"
             id="path133252" />
        </g>
      </g>
      <g
         transform="matrix(0.35277777,0,0,-0.35277777,158.75781,-69.050438)"
         id="g133254">
        <path
           id="path133256"
           style="fill:#fdba12;fill-opacity:1;fill-rule:nonzero;stroke:none"
           d="M 0,0 H 1.966 L 3.848,-2.567 5.742,0 h 1.936 v -6.911 h -1.84 v 4.282 L 3.848,-5.253 1.864,-2.629 V -6.911 H 0 Z" />
      </g>
      <g
         transform="matrix(0.35277777,0,0,-0.35277777,162.65735,-67.585317)"
         id="g133258">
        <path
           id="path133260"
           style="fill:#fdba12;fill-opacity:1;fill-rule:nonzero;stroke:none"
           d="m 0,0 -2.637,4.153 h 2.243 L 1.001,1.901 h 0.021 l 1.383,2.252 h 2.23 L 1.993,0 V -2.754 H 0 Z" />
      </g>
      <g
         transform="matrix(0.35277777,0,0,-0.35277777,130.47731,130.73488)"
         id="g133262">
        <g
           clip-path="url(#clipPath133268)"
           id="g133264">
          <g
             transform="translate(99.083,566.3206)"
             id="g133270">
            <path
               id="path133272"
               style="fill:#fdba12;fill-opacity:1;fill-rule:nonzero;stroke:none"
               d="m 0,0 h 1.99 v -4.245 c 0,-0.722 0.415,-1.184 1.148,-1.184 0.719,0 1.158,0.462 1.158,1.184 V 0 h 1.975 v -4.234 c 0,-1.907 -1.248,-2.807 -3.133,-2.807 -1.872,0 -3.138,0.9 -3.138,2.807 z" />
          </g>
        </g>
      </g>
      <g
         transform="matrix(0.35277777,0,0,-0.35277777,168.71172,-68.458407)"
         id="g133274">
        <path
           id="path133276"
           style="fill:#fdba12;fill-opacity:1;fill-rule:nonzero;stroke:none"
           d="M 0,0 H -2.216 V 1.678 H 4.179 V 0 H 1.957 V -5.233 H 0 Z" />
      </g>
      <g
         transform="matrix(0.35277777,0,0,-0.35277777,170.47638,-69.050438)"
         id="g133278">
        <path
           id="path133280"
           style="fill:#fdba12;fill-opacity:1;fill-rule:nonzero;stroke:none"
           d="M 0,0 H 1.966 L 3.845,-2.567 5.742,0 H 7.678 V -6.911 H 5.835 v 4.282 L 3.845,-5.253 1.861,-2.629 V -6.911 H 0 Z" />
      </g>
      <g
         transform="matrix(0.35277777,0,0,-0.35277777,130.47731,130.73488)"
         id="g133282">
        <g
           clip-path="url(#clipPath133288)"
           id="g133284">
          <g
             transform="translate(125.9398,560.8721)"
             id="g133290">
            <path
               id="path133292"
               style="fill:#fdba12;fill-opacity:1;fill-rule:nonzero;stroke:none"
               d="M 0,0 C 1.13,0 1.78,0.86 1.78,1.993 1.78,3.13 1.139,3.986 0,3.986 -1.13,3.986 -1.774,3.13 -1.774,1.993 -1.774,0.86 -1.121,0 0,0 m 0,5.577 c 2.306,0 3.767,-1.611 3.767,-3.584 0,-1.974 -1.452,-3.585 -3.767,-3.585 -2.303,0 -3.767,1.611 -3.767,3.585 0,1.973 1.473,3.584 3.767,3.584" />
          </g>
          <g
             transform="translate(131.2727,561.5557)"
             id="g133294">
            <path
               id="path133296"
               style="fill:#fdba12;fill-opacity:1;fill-rule:nonzero;stroke:none"
               d="m 0,0 c 0.643,-0.359 1.407,-0.617 2.035,-0.617 0.52,0 0.836,0.191 0.836,0.488 0,0.926 -3.635,0.262 -3.635,2.872 0,1.171 0.999,2.15 2.718,2.15 0.917,0 1.774,-0.225 2.675,-0.63 L 3.92,2.79 C 3.229,3.13 2.609,3.245 2.053,3.245 1.56,3.245 1.272,3.038 1.272,2.761 c 0,-0.907 3.634,-0.228 3.634,-2.862 0,-1.214 -0.959,-2.169 -2.862,-2.169 -1.085,0 -2.278,0.372 -2.973,0.797 z" />
          </g>
        </g>
      </g>
      <g
         transform="matrix(0.35277777,0,0,-0.35277777,179.5076,-68.458407)"
         id="g133298">
        <path
           id="path133300"
           style="fill:#fdba12;fill-opacity:1;fill-rule:nonzero;stroke:none"
           d="M 0,0 H -2.222 V 1.678 H 4.172 V 0 H 1.954 V -5.233 H 0 Z" />
      </g>
      <g
         transform="matrix(0.35277777,0,0,-0.35277777,162.63403,-65.499554)"
         id="g133302">
        <path
           id="path133304"
           style="fill:#fdba12;fill-opacity:1;fill-rule:nonzero;stroke:none"
           d="M 0,0 H 5.3 V -1.634 H 1.975 V -2.82 H 4.837 V -4.349 H 1.975 V -6.905 H 0 Z" />
      </g>
      <g
         transform="matrix(0.35277777,0,0,-0.35277777,130.47731,130.73488)"
         id="g133306">
        <g
           clip-path="url(#clipPath133312)"
           id="g133308">
          <g
             transform="translate(100.8627,550.8124)"
             id="g133314">
            <path
               id="path133316"
               style="fill:#fdba12;fill-opacity:1;fill-rule:nonzero;stroke:none"
               d="M 0,0 C 1.13,0 1.78,0.854 1.78,1.993 1.78,3.124 1.139,3.984 0,3.984 -1.137,3.984 -1.774,3.124 -1.774,1.993 -1.774,0.854 -1.121,0 0,0 m 0,5.572 c 2.3,0 3.767,-1.61 3.767,-3.579 0,-1.975 -1.458,-3.585 -3.767,-3.585 -2.303,0 -3.773,1.61 -3.773,3.585 0,1.969 1.479,3.579 3.773,3.579" />
          </g>
          <g
             transform="translate(108.922,553.1397)"
             id="g133318">
            <path
               id="path133320"
               style="fill:#fdba12;fill-opacity:1;fill-rule:nonzero;stroke:none"
               d="M 0,0 C 0.601,0 0.968,0.286 0.968,0.817 0.968,1.371 0.58,1.639 0,1.639 H -1.211 V 0 Z m -3.186,3.115 h 3.204 c 2.195,0 2.922,-1.104 2.922,-2.27 0,-0.788 -0.361,-1.487 -1.196,-1.872 L 3.012,-3.79 H 0.929 l -0.938,2.447 H -1.211 V -3.79 h -1.975 z" />
          </g>
        </g>
      </g>
      <g
         transform="matrix(0.35277777,0,0,-0.35277777,171.25263,-65.499554)"
         id="g133322">
        <path
           id="path133324"
           style="fill:#fdba12;fill-opacity:1;fill-rule:nonzero;stroke:none"
           d="m 0,0 h 1.975 v -2.605 h 2.23 V 0 H 6.169 V -6.905 H 4.205 v 2.694 H 1.975 V -6.905 H 0 Z" />
      </g>
      <path
         id="path133326"
         style="fill:#fdba12;fill-opacity:1;fill-rule:nonzero;stroke:none;stroke-width:0.35277778"
         d="m 173.93248,-63.063588 h 0.69779 v -2.43593 h -0.69779 z" />
      <g
         transform="matrix(0.35277777,0,0,-0.35277777,130.47731,130.73488)"
         id="g133328">
        <g
           clip-path="url(#clipPath133334)"
           id="g133330">
          <g
             transform="translate(127.1183,551.4905)"
             id="g133336">
            <path
               id="path133338"
               style="fill:#fdba12;fill-opacity:1;fill-rule:nonzero;stroke:none"
               d="m 0,0 c 0.643,-0.354 1.407,-0.612 2.035,-0.612 0.52,0 0.836,0.187 0.836,0.482 0,0.928 -3.635,0.264 -3.635,2.873 0,1.177 0.998,2.151 2.721,2.151 0.914,0 1.774,-0.224 2.678,-0.631 L 3.92,2.791 C 3.235,3.13 2.609,3.249 2.059,3.249 1.56,3.249 1.274,3.04 1.274,2.763 c 0,-0.909 3.635,-0.225 3.635,-2.864 0,-1.213 -0.956,-2.169 -2.862,-2.169 -1.088,0 -2.282,0.373 -2.973,0.803 z" />
          </g>
          <g
             transform="translate(97.4325,546.3233)"
             id="g133340">
            <path
               id="path133342"
               style="fill:#fdba12;fill-opacity:1;fill-rule:nonzero;stroke:none"
               d="M 0,0 C 1.193,0 2.047,-0.405 2.772,-0.955 L 1.732,-2.188 C 1.275,-1.854 0.746,-1.6 0.072,-1.6 c -1.163,0 -1.873,-0.855 -1.873,-1.983 0,-1.214 0.692,-1.984 1.873,-1.984 0.397,0 0.71,0.077 0.998,0.239 v 1.047 h -1.382 v 1.195 h 3.147 v -3.212 c -0.74,-0.535 -1.696,-0.871 -2.844,-0.871 -2.303,0 -3.776,1.535 -3.776,3.595 C -3.785,-1.619 -2.351,0 0,0" />
          </g>
        </g>
      </g>
      <g
         transform="matrix(0.35277777,0,0,-0.35277777,166.3256,-61.95068)"
         id="g133344">
        <path
           id="path133346"
           style="fill:#fdba12;fill-opacity:1;fill-rule:nonzero;stroke:none"
           d="M 0,0 H 1.972 V -5.281 H 5.201 V -6.906 H 0 Z" />
      </g>
      <g
         transform="matrix(0.35277777,0,0,-0.35277777,130.47731,130.73488)"
         id="g133348">
        <g
           clip-path="url(#clipPath133354)"
           id="g133350">
          <g
             transform="translate(111.1195,540.7468)"
             id="g133356">
            <path
               id="path133358"
               style="fill:#fdba12;fill-opacity:1;fill-rule:nonzero;stroke:none"
               d="M 0,0 C 1.13,0 1.78,0.86 1.78,1.993 1.78,3.13 1.139,3.986 0,3.986 -1.133,3.986 -1.774,3.13 -1.774,1.993 -1.774,0.86 -1.121,0 0,0 m 0,5.576 c 2.3,0 3.767,-1.61 3.767,-3.583 0,-1.973 -1.458,-3.585 -3.767,-3.585 -2.303,0 -3.773,1.612 -3.773,3.585 0,1.973 1.479,3.583 3.773,3.583" />
          </g>
          <g
             transform="translate(119.179,543.0788)"
             id="g133360">
            <path
               id="path133362"
               style="fill:#fdba12;fill-opacity:1;fill-rule:nonzero;stroke:none"
               d="M 0,0 C 0.601,0 0.968,0.282 0.968,0.818 0.968,1.368 0.583,1.639 0,1.639 H -1.212 V 0 Z m -3.187,3.116 h 3.205 c 2.194,0 2.925,-1.104 2.925,-2.269 0,-0.79 -0.364,-1.492 -1.203,-1.874 L 3.012,-3.79 H 0.926 l -0.935,2.442 H -1.212 V -3.79 h -1.975 z" />
          </g>
        </g>
      </g>
      <g
         transform="matrix(0.35277777,0,0,-0.35277777,174.57305,-60.485664)"
         id="g133364">
        <path
           id="path133366"
           style="fill:#fdba12;fill-opacity:1;fill-rule:nonzero;stroke:none"
           d="m 0,0 -2.636,4.153 h 2.242 L 0.998,1.901 H 1.022 L 2.405,4.153 H 4.636 L 1.999,0 V -2.754 H 0 Z" />
      </g>
      <g
         transform="matrix(0.35277777,0,0,-0.35277777,162.24057,-55.059907)"
         id="g133368">
        <path
           id="path133370"
           style="fill:#00437b;fill-opacity:1;fill-rule:nonzero;stroke:none"
           d="M 0,0 4.672,-1.544 4.19,-3.016 1.22,-2.035 0.911,-2.987 3.532,-3.852 3.108,-5.128 0.49,-4.263 0.147,-5.304 3.141,-6.289 2.657,-7.765 -2.041,-6.212 Z" />
      </g>
      <g
         transform="matrix(0.35277777,0,0,-0.35277777,130.47731,130.73488)"
         id="g133372">
        <g
           clip-path="url(#clipPath133378)"
           id="g133374">
          <g
             transform="translate(95.0336,520.3867)"
             id="g133380">
            <path
               id="path133382"
               style="fill:#00437b;fill-opacity:1;fill-rule:nonzero;stroke:none"
               d="m 0,0 c 0.496,-0.453 1.13,-0.84 1.69,-0.97 0.465,-0.104 0.787,0.006 0.847,0.283 0.193,0.86 -3.189,0.97 -2.66,3.373 C 0.12,3.772 1.212,4.479 2.748,4.135 3.568,3.953 4.284,3.57 5.014,3.016 L 4.073,1.803 C 3.52,2.252 2.991,2.481 2.501,2.591 2.056,2.692 1.756,2.558 1.704,2.3 1.518,1.463 4.903,1.368 4.365,-1.065 4.113,-2.189 3.063,-2.882 1.359,-2.503 0.388,-2.284 -0.601,-1.701 -1.13,-1.17 Z" />
          </g>
        </g>
      </g>
      <g
         transform="matrix(0.35277777,0,0,-0.35277777,166.59706,-53.400828)"
         id="g133384">
        <path
           id="path133386"
           style="fill:#00437b;fill-opacity:1;fill-rule:nonzero;stroke:none"
           d="M 0,0 -2.02,0.239 -1.831,1.817 3.983,1.124 3.794,-0.458 1.777,-0.215 1.19,-5.128 -0.586,-4.917 Z" />
      </g>
      <g
         transform="matrix(0.35277777,0,0,-0.35277777,167.80183,-51.521158)"
         id="g133388">
        <path
           id="path133390"
           style="fill:#00437b;fill-opacity:1;fill-rule:nonzero;stroke:none"
           d="M 0,0 1.674,-0.096 1.773,1.586 0.102,1.683 Z" />
      </g>
      <g
         transform="matrix(0.35277777,0,0,-0.35277777,169.962,-51.472263)"
         id="g133392">
        <path
           id="path133394"
           style="fill:#00437b;fill-opacity:1;fill-rule:nonzero;stroke:none"
           d="M 0,0 -0.153,4.822 -1.154,4.406 -1.732,5.64 0.292,6.557 1.641,6.595 1.846,0.057 Z" />
      </g>
      <g
         transform="matrix(0.35277777,0,0,-0.35277777,130.47731,130.73488)"
         id="g133396">
        <g
           clip-path="url(#clipPath133402)"
           id="g133398">
          <g
             transform="translate(117.9915,520.7514)"
             id="g133404">
            <path
               id="path133406"
               style="fill:#00437b;fill-opacity:1;fill-rule:nonzero;stroke:none"
               d="M 0,0 C -0.135,0.999 -0.496,1.49 -1.088,1.423 -1.563,1.375 -1.84,0.942 -1.78,0.352 -1.708,-0.235 -1.383,-0.55 -0.872,-0.497 -0.52,-0.455 -0.244,-0.264 0,0 m -2.294,-2.496 c 0.349,-0.167 0.8,-0.277 1.293,-0.224 0.881,0.1 1.139,0.789 1.124,1.611 -0.303,-0.287 -0.805,-0.541 -1.341,-0.598 -1.22,-0.139 -2.155,0.488 -2.305,1.854 -0.138,1.252 0.736,2.414 2.342,2.596 1.833,0.205 2.859,-1.091 3.066,-2.906 0.277,-2.472 -1.118,-3.704 -2.748,-3.886 -0.601,-0.066 -1.334,0.048 -1.99,0.349 z" />
          </g>
        </g>
      </g>
      <g
         transform="matrix(0.35277777,0,0,-0.35277777,173.86044,-53.756852)"
         id="g133408">
        <path
           id="path133410"
           style="fill:#00437b;fill-opacity:1;fill-rule:nonzero;stroke:none"
           d="M 0,0 -2.925,-0.603 -3.205,0.759 1.449,1.72 1.701,0.497 0.523,-5.143 -1.302,-5.525 Z" />
      </g>
      <g
         transform="matrix(0.35277777,0,0,-0.35277777,176.03344,-52.957634)"
         id="g133420">
        <path
           id="path133422"
           style="fill:#00437b;fill-opacity:1;fill-rule:nonzero;stroke:none"
           d="M 0,0 C 0.814,0.258 1.064,1.118 0.724,2.213 0.388,3.312 -0.31,3.876 -1.124,3.623 -1.954,3.359 -2.213,2.499 -1.873,1.399 -1.53,0.306 -0.83,-0.258 0,0 M -1.572,5.046 C 0.168,5.592 1.819,4.765 2.441,2.747 3.072,0.735 2.188,-0.88 0.445,-1.43 c -1.756,-0.544 -3.397,0.282 -4.025,2.299 -0.632,2.012 0.255,3.627 2.008,4.177" />
      </g>
      <g
         transform="matrix(0.35277777,0,0,-0.35277777,148.33316,-82.765662)"
         id="g133424">
        <path
           id="path133426"
           style="fill:#00437b;fill-opacity:1;fill-rule:nonzero;stroke:none"
           d="M 0,0 C 0.214,0.598 0.042,1.071 -0.517,1.267 -1.094,1.472 -1.509,1.186 -1.713,0.602 l -0.424,-1.209 1.713,-0.607 z m -4.377,-2.035 1.124,3.207 C -2.48,3.361 -1.07,3.68 0.153,3.255 0.977,2.963 1.578,2.338 1.687,1.357 L 5.02,1.61 4.29,-0.473 1.401,-0.506 0.977,-1.711 3.539,-2.613 2.841,-4.588 Z" />
      </g>
      <g
         transform="matrix(0.35277777,0,0,-0.35277777,163.77936,-98.173549)"
         id="g133428">
        <path
           id="path133430"
           style="fill:#00437b;fill-opacity:1;fill-rule:nonzero;stroke:none"
           d="M 0,0 C 1.094,0.282 2.098,0.138 3.057,-0.315 L 2.299,-1.972 c -0.534,0.264 -1.076,0.452 -1.821,0.261 -1.155,-0.295 -1.683,-1.311 -1.359,-2.611 0.334,-1.315 1.269,-1.963 2.447,-1.661 0.709,0.182 1.157,0.602 1.479,1.136 L 4.53,-5.804 C 3.911,-6.777 3.087,-7.427 1.891,-7.735 -0.367,-8.308 -2.342,-7.048 -2.904,-4.839 -3.457,-2.659 -2.264,-0.578 0,0" />
      </g>
      <g
         transform="matrix(0.35277777,0,0,-0.35277777,169.95036,-97.578342)"
         id="g133432">
        <path
           id="path133434"
           style="fill:#00437b;fill-opacity:1;fill-rule:nonzero;stroke:none"
           d="M 0,0 C 0.64,-0.012 1.031,0.297 1.043,0.889 1.058,1.502 0.652,1.808 0.042,1.821 L -1.239,1.848 -1.284,0.029 Z M -3.295,3.537 0.096,3.465 C 2.414,3.418 3.156,2.172 3.132,0.88 3.114,0 2.709,-0.77 1.816,-1.178 l 1.283,-3.098 -2.206,0.048 -0.935,2.74 -1.269,0.024 -0.057,-2.718 -2.089,0.046 z" />
      </g>
      <g
         transform="matrix(0.35277777,0,0,-0.35277777,173.27814,-96.604852)"
         id="g133436">
        <path
           id="path133438"
           style="fill:#00437b;fill-opacity:1;fill-rule:nonzero;stroke:none"
           d="M 0,0 C 0.577,-0.53 1.305,-0.982 1.96,-1.122 2.498,-1.24 2.865,-1.106 2.937,-0.786 3.151,0.22 -0.755,0.322 -0.144,3.151 0.132,4.426 1.392,5.26 3.172,4.874 4.118,4.67 4.948,4.227 5.793,3.585 L 4.711,2.148 C 4.07,2.669 3.457,2.939 2.889,3.061 2.375,3.174 2.032,3.013 1.969,2.713 1.756,1.728 5.67,1.649 5.051,-1.211 4.759,-2.531 3.547,-3.355 1.578,-2.927 c -1.127,0.249 -2.266,0.922 -2.886,1.538 z" />
      </g>
      <g
         transform="matrix(0.35277777,0,0,-0.35277777,185.20037,-90.175688)"
         id="g133440">
        <path
           id="path133442"
           style="fill:#00437b;fill-opacity:1;fill-rule:nonzero;stroke:none"
           d="M 0,0 C 0.153,-0.774 0.478,-1.568 0.92,-2.07 1.283,-2.481 1.659,-2.591 1.909,-2.371 2.675,-1.687 -0.424,0.702 1.74,2.624 2.714,3.493 4.221,3.416 5.432,2.055 6.069,1.329 6.484,0.482 6.782,-0.53 L 5.065,-1.051 C 4.855,-0.253 4.521,0.326 4.133,0.759 3.788,1.157 3.415,1.234 3.18,1.027 2.429,0.358 5.546,-2.021 3.361,-3.962 c -1.01,-0.893 -2.475,-0.846 -3.809,0.665 -0.764,0.864 -1.293,2.083 -1.425,2.947 z" />
      </g>
      <g
         transform="matrix(0.35277777,0,0,-0.35277777,190.61096,-78.850816)"
         id="g133444">
        <path
           id="path133446"
           style="fill:#00437b;fill-opacity:1;fill-rule:nonzero;stroke:none"
           d="m 0,0 c 0.208,-1.18 1.262,-1.692 2.501,-1.472 1.242,0.22 2.062,1.056 1.852,2.246 C 4.139,1.955 3.084,2.457 1.846,2.237 0.61,2.017 -0.207,1.166 0,0 m 6.084,1.08 c 0.43,-2.398 -1.058,-4.239 -3.213,-4.622 -2.156,-0.387 -4.179,0.823 -4.609,3.236 -0.423,2.4 1.059,4.239 3.214,4.622 C 3.628,4.703 5.66,3.475 6.084,1.08" />
      </g>
      <g
         transform="matrix(0.35277777,0,0,-0.35277777,164.00305,-52.84598)"
         id="g133448">
        <path
           id="path133450"
           style="fill:#00437b;fill-opacity:1;fill-rule:nonzero;stroke:none"
           d="m 0,0 c 0.496,-0.453 1.13,-0.84 1.69,-0.97 0.465,-0.104 0.787,0.006 0.847,0.283 0.193,0.86 -3.189,0.97 -2.66,3.373 C 0.12,3.772 1.212,4.479 2.748,4.135 3.568,3.953 4.284,3.57 5.014,3.016 L 4.073,1.803 C 3.52,2.252 2.991,2.481 2.501,2.591 2.056,2.692 1.756,2.558 1.704,2.3 1.518,1.463 4.903,1.368 4.365,-1.065 4.113,-2.189 3.063,-2.882 1.359,-2.503 0.388,-2.284 -0.601,-1.701 -1.13,-1.17 Z" />
      </g>
      <g
         transform="matrix(0.35277777,0,0,-0.35277777,172.10209,-52.974638)"
         id="g133452">
        <path
           id="path133454"
           style="fill:#00437b;fill-opacity:1;fill-rule:nonzero;stroke:none"
           d="M 0,0 C -0.135,0.999 -0.496,1.49 -1.088,1.423 -1.563,1.375 -1.84,0.942 -1.78,0.352 -1.708,-0.235 -1.383,-0.55 -0.872,-0.497 -0.52,-0.455 -0.244,-0.264 0,0 m -2.294,-2.496 c 0.349,-0.167 0.8,-0.277 1.293,-0.224 0.881,0.1 1.139,0.789 1.124,1.611 -0.303,-0.287 -0.805,-0.541 -1.341,-0.598 -1.22,-0.139 -2.155,0.488 -2.305,1.854 -0.138,1.252 0.736,2.414 2.342,2.596 1.833,0.205 2.859,-1.091 3.066,-2.906 0.277,-2.472 -1.118,-3.704 -2.748,-3.886 -0.601,-0.066 -1.334,0.048 -1.99,0.349 z" />
      </g>
      <g
         transform="matrix(0.35277777,0,0,-0.35277777,176.03344,-52.957634)"
         id="g133456">
        <path
           id="path133458"
           style="fill:#00437b;fill-opacity:1;fill-rule:nonzero;stroke:none"
           d="M 0,0 C 0.814,0.258 1.064,1.118 0.724,2.213 0.388,3.312 -0.31,3.876 -1.124,3.623 -1.954,3.359 -2.213,2.499 -1.873,1.399 -1.53,0.306 -0.83,-0.258 0,0 M -1.572,5.046 C 0.168,5.592 1.819,4.765 2.441,2.747 3.072,0.735 2.188,-0.88 0.445,-1.43 c -1.756,-0.544 -3.397,0.282 -4.025,2.299 -0.632,2.012 0.255,3.627 2.008,4.177" />
      </g>
    </g>
    <g
       id="g133542"
       transform="matrix(0.35277777,0,0,-0.35277777,130.47731,130.73488)">
      <g
         id="g133544"
         clip-path="url(#clipPath133548)">
        <text
           transform="matrix(1,0,0,-1,562.7269,59.67)"
           style="font-variant:normal;font-weight:bold;font-stretch:normal;font-size:17px;font-family:'DDEYKP +Montserrat-Bold';-inkscape-font-specification:Montserrat-Bold;writing-mode:lr-tb;fill:#00437b;fill-opacity:1;fill-rule:nonzero;stroke:none"
           id="text133554"
           y="0"><tspan
             x="0 12.665 22.559 32.452999 42.959 51.799 60.639 65.126999 72.607002 83.470001 93.975998 98.463997 109.497 120.819 132.14101 143.174 150.161 157.64101 168.521 179.384 184.34801 191.828 201.858 206.34599 213.724 224.757 229.245 238.901 249.407 259.505 266.492 277.35501 282.40399"
             y="0"
             id="tspan133550">Access the opportunity to Learn,</tspan><tspan
             x="9.809 22.882 33.251999 43.214001 53.720001 58.683998 69.717003 81.039001 86.087997 90.575996 101.422 111.928 118.915 128.877 139.383 144.43201 148.92 161.67 168.521 179.384 194.718 199.20599 209.304 220.16701 231.489 235.97701 247.095 257.04001 266.93399 277.44"
             y="24.395"
             id="tspan133552">Develop, Serve, Grow and Excel</tspan></text>
      </g>
    </g>
    <g
       id="g133788"
       transform="matrix(0.35277777,0,0,-0.35277777,130.47731,130.73488)">
      <g
         id="g133790"
         clip-path="url(#clipPath133794)">
        <g
           id="g133796">
          <g
             id="g133798">
            <g
               id="g133800"
               clip-path="url(#clipPath133804)" />
          </g>
        </g>
      </g>
    </g>
  </g>
</svg>
