<?xml version="1.0" encoding="UTF-8" standalone="no"?>
<svg
   viewBox="0 0 154.98254 198.42999"
   version="1.1"
   id="svg276"
   width="154.98254"
   height="198.42999"
   xmlns="http://www.w3.org/2000/svg"
   xmlns:svg="http://www.w3.org/2000/svg"
   xmlns:rdf="http://www.w3.org/1999/02/22-rdf-syntax-ns#"
   xmlns:cc="http://creativecommons.org/ns#"
   xmlns:dc="http://purl.org/dc/elements/1.1/">
  <metadata
     id="metadata280">
    <rdf:RDF>
      <cc:Work
         rdf:about="">
        <dc:format>image/svg+xml</dc:format>
        <dc:type
           rdf:resource="http://purl.org/dc/dcmitype/StillImage" />
      </cc:Work>
    </rdf:RDF>
  </metadata>
  <defs
     id="defs4">
    <style
       id="style2">.cls-1{fill:#0083bf;}.cls-2{fill:#004f7e;}.cls-3{fill:#231f20;}.cls-4{fill:#fff;}.cls-5{fill:#156da3;}.cls-6{fill:#103a60;}.cls-7{fill:#bccee0;}</style>
  </defs>
  <title
     id="title6">Mazenod College</title>
  <g
     id="Layer_2"
     data-name="Layer 2"
     transform="translate(-48.298326)">
    <g
       id="Layer_2-2"
       data-name="Layer 2">
      <path
         class="cls-1"
         d="m 59.73,152.61 0.68,-10.14 a 23.46,23.46 0 0 0 -7.48,0 c -2.24,0.41 -3.48,1.33 -3.6,2.42 a 3.67,3.67 0 0 0 1.12,3"
         id="path8" />
      <path
         class="cls-2"
         d="M 91.52,174.68 H 91.4 c -2.23,0.2 -4.47,0.3 -6.66,0.3 -20.26,0 -33.07,-8.52 -35.39,-10.19 v -17.86 c 11.23,9.41 29.56,11.43 43.18,11.43 v 0 c 1.26,0 2.57,0 3.9,-0.05 H 97 c 3.29,0 4.74,0.81 5.38,1.48 a 1.9,1.9 0 0 1 0.57,1.32 l -1.12,15.11 z"
         id="path10" />
      <path
         class="cls-3"
         d="m 115.49,164.25 v 0 a 5.17,5.17 0 0 0 -3.43,1.35 5.12,5.12 0 0 0 -0.28,6.95 4.08,4.08 0 0 0 3.06,1.29 4.81,4.81 0 0 0 4.85,-5 5,5 0 0 0 -1.09,-3.24 4,4 0 0 0 -3.11,-1.35 z m 1.88,7.59 a 2,2 0 0 1 -1.92,1 2.57,2.57 0 0 1 -2.32,-1.21 4.94,4.94 0 0 1 -0.77,-2.76 6.71,6.71 0 0 1 0.13,-1.31 4.13,4.13 0 0 1 0.38,-1.16 2.48,2.48 0 0 1 0.75,-0.86 2.17,2.17 0 0 1 1.19,-0.3 2.57,2.57 0 0 1 2.37,1.2 5.42,5.42 0 0 1 0.74,2.93 5.11,5.11 0 0 1 -0.55,2.47 z"
         id="path12" />
      <path
         class="cls-3"
         d="m 138.21,173.05 a 0.91,0.91 0 0 1 -0.84,-0.62 13.57,13.57 0 0 1 -0.12,-2.47 v -2.76 a 16.3,16.3 0 0 1 0.09,-1.71 v 0 a 0.39,0.39 0 0 1 0.21,-0.22 3.72,3.72 0 0 1 0.49,-0.2 h 0.05 a 0.37,0.37 0 0 0 0.16,-0.27 0.25,0.25 0 0 0 -0.29,-0.25 v 0 H 137.42 137 a 8.15,8.15 0 0 0 -1.79,0.17 5.43,5.43 0 0 0 -1.31,0.53 2.56,2.56 0 0 0 -1.36,2.09 0.93,0.93 0 0 0 0.49,0.9 0.82,0.82 0 0 0 0.74,-0.1 1.44,1.44 0 0 0 0.37,-0.43 0.36,0.36 0 0 0 0,-0.49 0.82,0.82 0 0 1 -0.18,-0.59 1,1 0 0 1 0.39,-0.79 1.55,1.55 0 0 1 1.11,-0.35 h 0.17 a 0.92,0.92 0 0 1 0,0.22 c 0,0.52 0.07,1.3 0.07,2.32 v 2 c 0,0.61 0,1.12 0,1.53 a 4.2,4.2 0 0 1 -0.15,1 0.49,0.49 0 0 1 -0.27,0.32 2.5,2.5 0 0 1 -0.64,0.2 0.31,0.31 0 0 0 -0.26,0.3 c 0,0.06 0,0.25 0.33,0.29 l 1.68,-0.06 1.73,0.06 c 0.27,0 0.35,-0.15 0.37,-0.29 0.02,-0.14 -0.02,-0.25 -0.28,-0.33 z"
         id="path14" />
      <path
         class="cls-3"
         d="m 132.2,173.06 a 3.58,3.58 0 0 1 -0.89,-0.28 0.51,0.51 0 0 1 -0.3,-0.39 c -0.06,-0.32 -0.13,-0.94 -0.21,-1.85 -0.13,-1.59 -0.18,-2.9 -0.17,-3.87 0,-0.16 0,-0.37 0,-0.63 a 1.23,1.23 0 0 1 0.13,-0.53 1.52,1.52 0 0 1 1.09,-0.52 0.31,0.31 0 0 0 0.26,-0.3 c 0,-0.07 0,-0.25 -0.37,-0.25 v 0 c -0.58,0 -1,0.06 -1.42,0.06 h -0.71 a 0.48,0.48 0 0 0 -0.4,0.1 0.25,0.25 0 0 0 -0.06,0.22 4.8,4.8 0 0 1 -0.41,1.21 c -0.43,1 -1,2.59 -2,4.64 v 0.06 0 c -0.87,-1.79 -1.81,-3.37 -2.35,-4.71 a 7.4,7.4 0 0 1 -0.21,-0.77 1.46,1.46 0 0 1 0,-0.35 0.3,0.3 0 0 0 0,-0.29 0.32,0.32 0 0 0 -0.3,-0.1 h -0.36 -0.71 c -0.37,0 -0.84,0 -1.42,-0.06 v 0 c -0.33,0 -0.37,0.17 -0.37,0.25 a 0.31,0.31 0 0 0 0.26,0.3 1.52,1.52 0 0 1 1.09,0.52 1.23,1.23 0 0 1 0.13,0.53 c 0,0.06 0,0.1 0,0.15 0,0.36 -0.08,0.91 -0.15,1.69 -0.07,0.78 -0.08,1.78 -0.26,2.86 -0.2,1.37 -0.44,1.83 -0.66,2 a 3.49,3.49 0 0 1 -0.81,0.36 0.28,0.28 0 0 0 -0.21,0.33 c 0,0.08 0.08,0.23 0.37,0.26 l 1.45,-0.06 1.57,0.06 c 0.29,0 0.38,-0.13 0.4,-0.27 0.02,-0.14 0,-0.21 -0.24,-0.29 l -0.38,-0.17 a 0.66,0.66 0 0 1 -0.41,-0.55 6.46,6.46 0 0 1 -0.06,-1.57 c 0.11,-1.52 0.1,-2.81 0.21,-3.83 0.46,1.17 1.14,2.33 1.6,3.49 0.46,1.16 0.9,2 1.09,2.63 0.1,0.33 0.26,0.5 0.46,0.5 0.2,0 0.24,-0.08 0.51,-0.56 a 8.31,8.31 0 0 0 0.32,-0.86 c 0.49,-1.22 0.82,-2.26 1.3,-3.21 0.35,-0.72 0.5,-1.39 0.74,-1.89 0,1.07 0,2.57 0,4.47 0,0.55 0,0.92 0,1.11 0,0.19 -0.13,0.35 -0.39,0.41 -0.26,0.06 -0.25,0.23 -0.24,0.27 a 0.25,0.25 0 0 0 0,0.2 0.32,0.32 0 0 0 0.25,0.12 c 0.29,0 0.7,0 1.26,-0.06 l 2,0.06 c 0.29,0 0.32,-0.21 0.32,-0.29 0,-0.08 -0.09,-0.29 -0.34,-0.35 z"
         id="path16" />
      <path
         class="cls-1"
         d="m 101.92,174.7 c -3.31,-0.77 -9.21,-2.85 -9.28,-6.32 v -0.13 c 0,0 -0.07,-1.34 2.47,-2.42 a 16.46,16.46 0 0 1 3.55,-0.9 13.2,13.2 0 0 0 4.07,-1.17 z"
         id="path18" />
      <path
         class="cls-1"
         d="m 191.9,152.61 -0.68,-10.14 a 23.46,23.46 0 0 1 7.48,0 c 2.24,0.41 3.48,1.33 3.6,2.42 a 3.67,3.67 0 0 1 -1.12,3"
         id="path20" />
      <path
         class="cls-2"
         d="m 148.69,161.11 a 1.9,1.9 0 0 1 0.57,-1.33 c 0.64,-0.68 2.09,-1.48 5.38,-1.48 h 0.56 c 1.33,0 2.64,0.05 3.9,0.05 13.62,0 32,-2 43.19,-11.43 v 17.88 c -2.29,1.67 -15.18,10.2 -35.4,10.2 -2.19,0 -4.44,-0.1 -6.66,-0.3 h -0.12 l -10.3,1.53 z"
         id="path22" />
      <path
         class="cls-1"
         d="m 148.9,163.76 a 13.2,13.2 0 0 0 4.07,1.17 16.46,16.46 0 0 1 3.55,0.9 c 2.54,1.08 2.47,2.4 2.47,2.45 v 0.1 c -0.07,3.47 -6,5.55 -9.28,6.32 z"
         id="path24" />
      <path
         class="cls-2"
         d="m 126.69,197.85 c -22.71,-0.48 -33.27,-8.16 -34.79,-9.37 l 0.27,-19 a 42,42 0 0 0 8,4.21 69.77,69.77 0 0 0 26.56,4.85 c 19.69,0 29.79,-6.61 32.76,-9 0,2 0.09,6.9 0.27,18.94 -1.31,1.22 -10.41,8.9 -33.07,9.37 z"
         id="path26" />
      <path
         class="cls-3"
         d="m 203.28,144.79 c -0.18,-1.61 -1.79,-2.81 -4.41,-3.29 a 24.35,24.35 0 0 0 -7.76,0 l -1,0.1 0.73,10.77 c -6.79,2.66 -16.93,5 -31.77,5 -1.26,0 -2.55,0 -3.87,-0.05 h -0.58 c -7.38,0 -7,3.89 -7,3.89 l 1,13.37 a 65.74,65.74 0 0 1 -22,3.42 70.81,70.81 0 0 1 -23.71,-3.8 l 1,-13 c 0,0 0.42,-3.89 -7,-3.89 H 96.4 c -1.32,0 -2.62,0.05 -3.87,0.05 -14.84,0 -25,-2.34 -31.77,-5 l 0.73,-10.77 -1,-0.1 a 24.39,24.39 0 0 0 -7.76,0 c -2.63,0.48 -4.23,1.68 -4.42,3.29 0,0 0,0 0,0 V 145 a 4.67,4.67 0 0 0 0,0.66 v 19.69 c 0,0 13.46,10.65 36.43,10.65 2.17,0 4.42,-0.1 6.75,-0.3 v 0 l -0.19,13.06 c 0,0 10.32,9.14 35.36,9.67 25,-0.53 33.6,-9.67 33.6,-9.67 0,0 -0.11,-7.21 -0.19,-13.05 v 0 c 2.33,0.21 4.58,0.3 6.75,0.3 23,0 36.39,-10.69 36.39,-10.69 v -19.7 a 4.65,4.65 0 0 0 0,-0.64 v -0.15 c 0,0 0.08,-0.03 0.07,-0.04 z M 94.87,170.51 a 2.66,2.66 0 0 1 -1.22,-2.14 v -0.15 c 0,-0.28 0.27,-0.8 1.84,-1.46 a 15.5,15.5 0 0 1 3.34,-0.84 22.53,22.53 0 0 0 2.77,-0.61 l -0.59,8.11 h -0.12 a 47.55,47.55 0 0 1 -6.02,-2.91 z M 50.34,145 c 0.06,-0.52 0.94,-1.2 2.78,-1.54 a 20.07,20.07 0 0 1 6.22,-0.11 l -0.55,8.15 a 36.88,36.88 0 0 1 -8,-4.71 2.91,2.91 0 0 1 -0.45,-1.79 z m 41,28.66 c -2.2,0.2 -4.41,0.3 -6.57,0.3 -18.94,0 -31.29,-7.58 -34.38,-9.7 V 149 c 11.54,8.49 29,10.36 42.18,10.36 1.28,0 2.61,0 3.93,-0.05 H 97 c 3.58,0 4.91,1 4.95,1.75 l -0.15,2 c -2,0.88 -4.7,0.8 -7.07,1.8 -3.17,1.34 -3.11,3.21 -3.09,3.45 v 0 l -0.08,5.3 z m 35.38,22.72 c -12.46,-0.27 -21,-2.75 -26.06,-4.78 a 35.47,35.47 0 0 1 -7.27,-3.85 l 0.23,-15.67 c 5.06,3 16,7.89 33.11,7.89 16.55,0 26.57,-4.64 31.34,-7.66 l 0.09,6.26 0.14,9.28 c -2.23,1.87 -11.16,8.15 -31.61,8.56 z M 150,165.31 a 22.53,22.53 0 0 0 2.77,0.61 15.5,15.5 0 0 1 3.34,0.84 c 1.57,0.66 1.84,1.25 1.85,1.45 v 0.15 c 0,2.36 -4.15,4.17 -7.37,5.07 z m 51.24,-1 c -3.08,2.13 -15.37,9.7 -34.38,9.7 -2.16,0 -4.38,-0.1 -6.57,-0.3 h -0.24 v 0 c 0,-3 -0.07,-5.28 -0.07,-5.3 0,-0.29 0.07,-2.14 -3.08,-3.47 -2.37,-1 -5.06,-0.93 -7.07,-1.8 l -0.15,-2 v 0 0.07 -0.1 c 0.08,-0.71 1.43,-1.71 4.95,-1.71 h 0.53 c 1.32,0 2.64,0.05 3.93,0.05 13.14,0 30.64,-1.87 42.18,-10.36 z m -0.42,-17.46 a 36.88,36.88 0 0 1 -8,4.71 l -0.55,-8.15 a 20.09,20.09 0 0 1 6.23,0.11 c 1.84,0.34 2.72,1 2.78,1.54 a 2.91,2.91 0 0 1 -0.43,1.75 z"
         id="path28" />
      <path
         class="cls-4"
         d="m 100.55,180.91 1.55,0.49 v 4.38 l 1.88,0.6 v 1 l -3.43,-1.09 z"
         id="path30" />
      <path
         class="cls-4"
         d="m 104.41,182.1 1.57,0.44 V 188 l -1.57,-0.44 z"
         id="path32" />
      <path
         class="cls-4"
         d="m 107,182.84 1.09,0.25 2.3,3.54 v -3 l 1.24,0.29 v 5.42 l -1,-0.23 -2.39,-3.61 v 3.07 L 107,188.29 Z"
         id="path34" />
      <path
         class="cls-4"
         d="M 117.77,191.59 115.42,190 a 3.2,3.2 0 0 1 -2.13,-1 3.38,3.38 0 0 1 -0.82,-2.25 2.22,2.22 0 0 1 2.68,-2.36 3.18,3.18 0 0 1 2.63,3.22 2.42,2.42 0 0 1 -1.12,2.2 l 1.67,0.93 z m -2.65,-6.07 c -0.65,-0.1 -1,0.4 -1,1.52 0,1.12 0.32,1.73 1,1.83 0.68,0.1 1,-0.41 1,-1.52 0,-1.11 -0.34,-1.73 -0.99,-1.83 z"
         id="path36" />
      <path
         class="cls-4"
         d="m 120.14,185.1 v 2.65 c 0,0.94 0,1.18 0.19,1.44 a 0.75,0.75 0 0 0 0.6,0.36 0.73,0.73 0 0 0 0.69,-0.32 2.51,2.51 0 0 0 0.21,-1.37 v -2.62 l 1.39,0.11 v 3 a 2.47,2.47 0 0 1 -0.28,1.53 1.56,1.56 0 0 1 -0.5,0.5 2.45,2.45 0 0 1 -1.59,0.31 2.35,2.35 0 0 1 -2.13,-1.27 2.88,2.88 0 0 1 -0.19,-1.51 V 185 Z"
         id="path38" />
      <path
         class="cls-4"
         d="m 124.14,185.35 h 3.29 v 1 h -1.67 v 1 h 1.63 v 1 h -1.62 v 1.29 h 2 v 1 h -3.62 z"
         id="path40" />
      <path
         class="cls-4"
         d="m 128.46,185.36 1.12,-0.08 2.35,2.83 v -3 l 1.27,-0.1 v 5.42 l -1,0.08 -2.45,-2.88 v 3.07 l -1.26,0.09 z"
         id="path42" />
      <path
         class="cls-4"
         d="m 134.31,184.87 1.69,-0.26 0.5,-0.08 a 4.23,4.23 0 0 1 1.09,0 2.16,2.16 0 0 1 1,0.41 2.08,2.08 0 0 1 0.75,1.74 3.17,3.17 0 0 1 -1.47,2.73 4.31,4.31 0 0 1 -1.79,0.61 l -1.78,0.28 z m 1.85,4.1 a 1.48,1.48 0 0 0 1.17,-0.67 2.65,2.65 0 0 0 0.34,-1.35 c 0,-1.06 -0.5,-1.51 -1.49,-1.35 h -0.27 v 3.4 z"
         id="path44" />
      <path
         class="cls-4"
         d="m 141.65,183.56 v 2.65 c 0,0.94 0,1.17 0.18,1.38 a 0.53,0.53 0 0 0 0.59,0.18 1,1 0 0 0 0.67,-0.53 3,3 0 0 0 0.21,-1.44 v -2.62 l 1.36,-0.31 v 3 a 3,3 0 0 1 -0.28,1.62 2.42,2.42 0 0 1 -0.49,0.65 3.13,3.13 0 0 1 -1.55,0.79 c -1,0.23 -1.8,0 -2.08,-0.62 -0.18,-0.38 -0.19,-0.46 -0.19,-1.45 v -2.91 z"
         id="path46" />
      <path
         class="cls-4"
         d="m 145.53,182.67 1.84,-0.56 1.08,3 1,-3.64 1.8,-0.54 v 5.42 l -1.49,0.45 v -2.73 a 8.1,8.1 0 0 1 0.08,-1.44 c -0.18,0.81 -0.26,1.18 -0.37,1.53 l -0.9,3 -0.65,0.2 -0.92,-2.46 a 8.73,8.73 0 0 1 -0.37,-1.3 c 0.05,0.51 0.07,0.7 0.08,0.92 v 3.2 l -1.21,0.37 z"
         id="path48" />
      <path
         class="cls-4"
         d="m 60.64,159.29 1.06,0.37 2.22,3.79 v -3 l 1.2,0.42 v 5.42 l -1,-0.34 -2.31,-3.88 v 3.07 l -1.19,-0.42 z"
         id="path50" />
      <path
         class="cls-4"
         d="m 66.16,161.13 1.57,0.42 V 167 l -1.57,-0.42 z"
         id="path52" />
      <path
         class="cls-4"
         d="m 68.83,161.88 1.6,0.29 v 1.9 l 1.7,0.3 v -1.9 l 1.59,0.29 v 5.42 l -1.59,-0.29 v -2.48 l -1.7,-0.3 v 2.48 l -1.61,-0.29 z"
         id="path54" />
      <path
         class="cls-4"
         d="m 74.85,162.83 1.62,0.17 v 5.42 l -1.62,-0.17 z"
         id="path56" />
      <path
         class="cls-4"
         d="m 77.59,163.1 1.62,0.11 v 4.38 l 2,0.14 v 1 l -3.59,-0.25 z"
         id="path58" />
      <path
         class="cls-4"
         d="m 163.22,163.72 h 1.63 v 5.42 h -1.63 z"
         id="path60" />
      <path
         class="cls-4"
         d="m 165.92,163.68 h 1.12 l 2.35,2.92 v -3 l 1.28,-0.05 v 5.42 h -1 l -2.45,-3 V 169 h -1.27 z"
         id="path62" />
      <path
         class="cls-4"
         d="m 172.87,167.46 -0.53,1.34 -1.26,0.1 2.2,-5.6 1.37,-0.11 2,5.25 -1.73,0.14 -0.43,-1.26 z m 0.88,-2.63 -0.62,1.74 1.15,-0.09 z"
         id="path64" />
      <path
         class="cls-4"
         d="m 178.47,162.74 v 2.65 c 0,0.94 0,1.17 0.18,1.39 a 0.56,0.56 0 0 0 0.59,0.2 1,1 0 0 0 0.68,-0.5 2.88,2.88 0 0 0 0.21,-1.43 v -2.62 l 1.38,-0.25 v 3 a 2.89,2.89 0 0 1 -0.28,1.6 2.27,2.27 0 0 1 -0.5,0.63 3,3 0 0 1 -1.57,0.72 c -1,0.19 -1.81,-0.07 -2.1,-0.72 -0.18,-0.39 -0.19,-0.47 -0.19,-1.46 V 163 Z"
         id="path66" />
      <path
         class="cls-4"
         d="m 185,162.28 a 1.29,1.29 0 0 0 -0.72,0 c -0.3,0.09 -0.49,0.27 -0.49,0.49 0,0.22 0.09,0.25 0.55,0.52 a 6.26,6.26 0 0 1 0.79,0.52 1.34,1.34 0 0 1 0.5,1.06 2.49,2.49 0 0 1 -2,2.18 2.38,2.38 0 0 1 -1.64,0 l 0.48,-1 a 1.21,1.21 0 0 0 0.94,0.11 0.76,0.76 0 0 0 0.59,-0.7 c 0,-0.31 -0.13,-0.46 -0.74,-0.81 a 3.92,3.92 0 0 1 -0.66,-0.44 1.07,1.07 0 0 1 -0.37,-0.86 2.26,2.26 0 0 1 1.82,-2 2.53,2.53 0 0 1 1.37,0 z"
         id="path68" />
      <path
         class="cls-4"
         d="m 187.82,160.19 v 2.65 c 0,0.94 0,1.17 0.18,1.36 a 0.46,0.46 0 0 0 0.56,0.1 1.22,1.22 0 0 0 0.65,-0.62 3.26,3.26 0 0 0 0.2,-1.46 v -2.62 l 1.31,-0.49 v 3 a 3.31,3.31 0 0 1 -0.27,1.65 3,3 0 0 1 -0.47,0.71 3.54,3.54 0 0 1 -1.5,1 c -1,0.36 -1.73,0.24 -2,-0.36 -0.17,-0.36 -0.18,-0.44 -0.18,-1.43 v -2.91 z"
         id="path70" />
      <path
         class="cls-4"
         d="m 191.54,158.79 1.76,-0.79 1,2.86 1,-3.77 1.71,-0.77 v 5.42 l -1.42,0.64 v -2.73 a 8.65,8.65 0 0 1 0.07,-1.45 c -0.17,0.83 -0.25,1.21 -0.36,1.57 l -0.86,3.12 -0.62,0.28 -0.88,-2.34 a 8.26,8.26 0 0 1 -0.36,-1.25 c 0.05,0.5 0.07,0.69 0.07,0.91 v 3.2 l -1.16,0.52 z"
         id="path72" />
      <path
         class="cls-3"
         d="m 125.62,160.18 -58.94,-35 V 45.33 C 66.58,31.3 62,26 59.23,24.09 l -0.52,-0.36 v -6.55 h 51.39 v 2.43 h -49 v 2.87 c 3.15,2.46 7.86,8.52 8,22.81 v 78.47 l 56.51,33.59 56.89,-33.59 -0.08,-78.46 c 0.14,-14.32 4.87,-20.39 8,-22.85 v -2.84 h -49.03 v -2.43 h 51.51 v 6.51 l -0.52,0.36 c -2.21,1.54 -7.37,6.71 -7.51,21.26 l 0.08,79.84 z"
         id="path74" />
      <path
         class="cls-2"
         d="M 125.62,157.33 69.08,123.78 V 45.11 c -0.14,-14.27 -4.86,-20 -8,-22.51 v -3 h 129.51 v 3 c -3.16,2.48 -7.94,8.37 -8.07,22.66 v 78.64 c 0,0 -38.4,22.47 -56.9,33.43 z"
         id="path76" />
      <path
         class="cls-5"
         d="m 189,21.07 v 0.74 c -3.74,3.23 -7.94,9.87 -8.08,23.38 v 77.76 c -5.41,3.18 -38.27,22.48 -55.37,32.61 l -55,-32.65 V 45.1 c -0.11,-10.77 -2.87,-18.78 -8,-23.22 v -0.79 h 126.43 m 1.54,-1.54 H 61.01 v 3 c 3.16,2.48 7.88,8.24 8,22.51 v 78.66 l 56.54,33.56 c 18.5,-11 56.91,-33.51 56.91,-33.51 V 45.13 c 0.14,-14.28 4.91,-20.18 8.07,-22.66 v -3 z"
         id="path78" />
      <path
         class="cls-6"
         d="M 121.86,105.09 C 105.95,98.23 89.48,82.49 89.48,68 V 56.6 h 71.35 V 68 c 0,14.47 -16.47,30.22 -32.38,37.07 l -3.29,1.42 z"
         id="path80" />
      <polygon
         class="cls-3"
         points="141.4,0 110.11,0 110.11,40.67 58.27,40.67 58.28,67.51 110.11,67.51 110.11,149.57 125.57,158.76 141.4,149.46 141.4,67.51 193.35,67.51 193.35,40.67 141.4,40.67 "
         id="polygon82" />
      <polygon
         class="cls-4"
         points="137.58,3.82 137.58,150.29 139.59,149.1 139.59,1.81 111.92,1.81 111.92,149.2 113.93,150.4 113.93,3.82 "
         id="polygon84" />
      <path
         class="cls-4"
         d="M 191.56,65.73 H 60.1 V 42.46 h 131.46 z m -129.45,-2 H 189.55 V 44.47 H 62.08 Z"
         id="path86" />
      <path
         class="cls-4"
         d="m 124.53,96 a 57.06,57.06 0 0 1 -19,-13.44 C 100.2,76.78 97.27,70.87 97.27,65.94 v -35 H 154 v 35 c 0,4.94 -2.93,10.84 -8.26,16.62 a 57.06,57.06 0 0 1 -19,13.44 l -1.09,0.47 z"
         id="path88" />
      <path
         class="cls-3"
         d="M 125.62,97.54 124.13,96.9 A 58.09,58.09 0 0 1 104.8,83.22 c -5.5,-6 -8.52,-12.11 -8.52,-17.3 v -36 H 155 v 36 c 0,5.19 -3,11.34 -8.52,17.3 A 58.09,58.09 0 0 1 127.11,96.9 Z m -0.69,-2.49 0.69,0.3 0.69,-0.3 A 56,56 0 0 0 145,81.86 c 5.15,-5.6 8,-11.26 8,-15.94 v -34 H 98.29 v 34 c 0,4.68 2.84,10.34 8,15.94 a 56,56 0 0 0 18.65,13.19 z"
         id="path90" />
      <polygon
         class="cls-6"
         points="83.07,109.58 83.07,109.58 81.37,107.11 83.07,102.85 84.77,107.11 "
         id="polygon92" />
      <polygon
         class="cls-6"
         points="84.4,102.85 84.4,102.85 87.1,104.07 87.41,105.98 85.51,105.59 "
         id="polygon94" />
      <polygon
         class="cls-6"
         points="81.74,102.85 81.74,102.85 79.04,104.07 78.73,105.98 80.63,105.59 "
         id="polygon96" />
      <polygon
         class="cls-6"
         points="83.1,101.14 83.1,101.14 79.67,91.69 83.1,88.12 86.54,91.69 "
         id="polygon98" />
      <path
         class="cls-6"
         d="m 76.56,94.26 c 3.69,0.16 5.2,5.83 5.3,6.33 h 2.4 c 0.1,-0.5 1.61,-6.17 5.3,-6.33 3.64,0.37 2.53,4.73 0.77,5.81 0,0 -0.34,-1.94 -1.91,-1.79 -1.57,0.15 -2.51,1.05 -3.05,2.9 a 3.86,3.86 0 0 0 -0.11,1 h -4.4 a 3.86,3.86 0 0 0 -0.11,-1 c -0.54,-1.85 -1.49,-2.76 -3.05,-2.9 -1.56,-0.14 -1.91,1.79 -1.91,1.79 C 74,99 72.92,94.63 76.56,94.26 Z"
         id="path100" />
      <polygon
         class="cls-4"
         points="83.07,108.33 83.07,108.33 81.37,105.86 83.07,101.61 84.77,105.86 "
         id="polygon102" />
      <polygon
         class="cls-4"
         points="84.4,101.61 84.4,101.61 87.1,102.83 87.41,104.74 85.51,104.35 "
         id="polygon104" />
      <polygon
         class="cls-4"
         points="81.74,101.61 81.74,101.61 79.04,102.83 78.73,104.74 80.63,104.35 "
         id="polygon106" />
      <polygon
         class="cls-4"
         points="83.1,99.43 83.1,99.43 79.67,89.98 83.1,86.41 86.54,89.98 "
         id="polygon108" />
      <path
         class="cls-4"
         d="m 76.56,93.11 c 3.69,0.16 5.2,6.38 5.3,6.88 h 2.4 c 0.1,-0.5 1.61,-6.72 5.3,-6.88 3.64,0.37 2.53,4.73 0.77,5.81 0,0 -0.34,-1.94 -1.91,-1.79 -1.57,0.15 -2.51,1.05 -3.05,2.9 a 3.86,3.86 0 0 0 -0.11,1 h -4.4 a 3.86,3.86 0 0 0 -0.11,-1 c -0.54,-1.85 -1.49,-2.76 -3.05,-2.9 -1.56,-0.14 -1.91,1.79 -1.91,1.79 -1.79,-1.08 -2.87,-5.44 0.77,-5.81 z"
         id="path110" />
      <polygon
         class="cls-7"
         points="83.16,98.15 83.04,87.09 85.81,89.97 "
         id="polygon112" />
      <path
         class="cls-7"
         d="m 88.61,93.62 c 0,0 1.75,-0.36 2.39,0.58 a 4,4 0 0 1 0.19,2.69 c 0,0 -0.28,-3.01 -2.58,-3.27 z"
         id="path114" />
      <polygon
         class="cls-7"
         points="84.23,105.64 83.06,102.58 83.06,107.39 "
         id="polygon116" />
      <path
         class="cls-7"
         d="m 75.7,93.6 a 3.1,3.1 0 0 1 2.55,0.55 c 1.27,0.93 2.72,4 2.72,4 0,0 -2.42,-4.15 -5.27,-4.55 z"
         id="path118" />
      <polygon
         class="cls-6"
         points="168.53,109.58 168.53,109.58 166.82,107.11 168.53,102.85 170.23,107.11 "
         id="polygon120" />
      <polygon
         class="cls-6"
         points="169.86,102.85 169.86,102.85 172.55,104.07 172.86,105.98 170.97,105.59 "
         id="polygon122" />
      <polygon
         class="cls-6"
         points="167.19,102.85 167.19,102.85 164.5,104.07 164.19,105.98 166.09,105.59 "
         id="polygon124" />
      <polygon
         class="cls-6"
         points="168.56,101.14 168.56,101.14 165.13,91.69 168.56,88.12 171.99,91.69 "
         id="polygon126" />
      <path
         class="cls-6"
         d="m 162,94.26 c 3.69,0.16 5.2,5.83 5.3,6.33 h 2.4 c 0.1,-0.5 1.61,-6.17 5.3,-6.33 3.64,0.37 2.53,4.73 0.77,5.81 0,0 -0.34,-1.94 -1.91,-1.79 -1.57,0.15 -2.51,1.05 -3.05,2.9 a 3.86,3.86 0 0 0 -0.11,1 h -4.4 a 3.86,3.86 0 0 0 -0.11,-1 c -0.54,-1.85 -1.49,-2.76 -3.05,-2.9 -1.56,-0.14 -1.91,1.79 -1.91,1.79 -1.75,-1.07 -2.86,-5.44 0.77,-5.81 z"
         id="path128" />
      <polygon
         class="cls-4"
         points="168.53,108.33 168.53,108.33 166.82,105.86 168.53,101.61 170.23,105.86 "
         id="polygon130" />
      <polygon
         class="cls-4"
         points="169.86,101.61 169.86,101.61 172.55,102.83 172.86,104.74 170.97,104.35 "
         id="polygon132" />
      <polygon
         class="cls-4"
         points="167.19,101.61 167.19,101.61 164.5,102.83 164.19,104.74 166.09,104.35 "
         id="polygon134" />
      <polygon
         class="cls-4"
         points="168.56,99.43 168.56,99.43 165.13,89.98 168.56,86.41 171.99,89.98 "
         id="polygon136" />
      <path
         class="cls-4"
         d="m 162,93.11 c 3.69,0.16 5.2,6.38 5.3,6.88 h 2.4 c 0.1,-0.5 1.61,-6.72 5.3,-6.88 3.64,0.37 2.53,4.73 0.77,5.81 0,0 -0.34,-1.94 -1.91,-1.79 -1.57,0.15 -2.51,1.05 -3.05,2.9 a 3.86,3.86 0 0 0 -0.11,1 h -4.4 a 3.86,3.86 0 0 0 -0.11,-1 c -0.54,-1.85 -1.49,-2.76 -3.05,-2.9 -1.56,-0.14 -1.91,1.79 -1.91,1.79 -1.75,-1.08 -2.86,-5.44 0.77,-5.81 z"
         id="path138" />
      <polygon
         class="cls-7"
         points="168.61,98.15 168.5,87.09 171.26,89.97 "
         id="polygon140" />
      <path
         class="cls-7"
         d="m 174.07,93.62 c 0,0 1.75,-0.36 2.39,0.58 a 4,4 0 0 1 0.19,2.69 c 0,0 -0.29,-3.01 -2.58,-3.27 z"
         id="path142" />
      <polygon
         class="cls-7"
         points="169.68,105.64 168.52,102.58 168.52,107.39 "
         id="polygon144" />
      <path
         class="cls-7"
         d="m 161.15,93.6 a 3.1,3.1 0 0 1 2.55,0.55 c 1.27,0.93 2.72,4 2.72,4 0,0 -2.42,-4.15 -5.27,-4.55 z"
         id="path146" />
      <polygon
         class="cls-6"
         points="99.1,128.32 99.1,128.32 97.4,125.86 99.1,121.6 100.8,125.86 "
         id="polygon148" />
      <polygon
         class="cls-6"
         points="100.43,121.6 100.43,121.6 103.13,122.82 103.44,124.73 101.54,124.34 "
         id="polygon150" />
      <polygon
         class="cls-6"
         points="97.77,121.6 97.77,121.6 95.08,122.82 94.77,124.73 96.66,124.34 "
         id="polygon152" />
      <polygon
         class="cls-6"
         points="99.13,119.89 99.13,119.89 95.7,110.44 99.13,106.87 102.57,110.44 "
         id="polygon154" />
      <path
         class="cls-6"
         d="m 92.59,113 c 3.69,0.16 5.2,5.83 5.3,6.33 h 2.4 c 0.1,-0.5 1.61,-6.17 5.3,-6.33 3.64,0.37 2.53,4.73 0.77,5.81 0,0 -0.34,-1.94 -1.91,-1.79 -1.57,0.15 -2.51,1.05 -3.05,2.9 a 3.86,3.86 0 0 0 -0.11,1 h -4.4 a 3.86,3.86 0 0 0 -0.11,-1 c -0.54,-1.85 -1.49,-2.76 -3.05,-2.9 -1.56,-0.14 -1.91,1.79 -1.91,1.79 -1.76,-1.07 -2.87,-5.43 0.77,-5.81 z"
         id="path156" />
      <polygon
         class="cls-4"
         points="99.1,127.08 99.1,127.08 97.4,124.61 99.1,120.36 100.8,124.61 "
         id="polygon158" />
      <polygon
         class="cls-4"
         points="100.43,120.36 100.43,120.36 103.13,121.58 103.44,123.49 101.54,123.1 "
         id="polygon160" />
      <polygon
         class="cls-4"
         points="97.77,120.36 97.77,120.36 95.08,121.58 94.77,123.49 96.66,123.1 "
         id="polygon162" />
      <polygon
         class="cls-4"
         points="99.13,118.18 99.13,118.18 95.7,108.73 99.13,105.16 102.57,108.73 "
         id="polygon164" />
      <path
         class="cls-4"
         d="m 92.59,111.86 c 3.69,0.16 5.2,6.38 5.3,6.88 h 2.4 c 0.1,-0.5 1.61,-6.72 5.3,-6.88 3.64,0.37 2.53,4.73 0.77,5.81 0,0 -0.34,-1.94 -1.91,-1.79 -1.57,0.15 -2.51,1.05 -3.05,2.9 a 3.86,3.86 0 0 0 -0.11,1 h -4.4 a 3.86,3.86 0 0 0 -0.11,-1 c -0.54,-1.85 -1.49,-2.76 -3.05,-2.9 -1.56,-0.14 -1.91,1.79 -1.91,1.79 -1.76,-1.08 -2.87,-5.44 0.77,-5.81 z"
         id="path166" />
      <polygon
         class="cls-7"
         points="99.19,116.9 99.07,105.84 101.84,108.72 "
         id="polygon168" />
      <path
         class="cls-7"
         d="m 104.64,112.37 c 0,0 1.75,-0.36 2.39,0.58 a 4,4 0 0 1 0.19,2.69 c 0,0 -0.28,-3.01 -2.58,-3.27 z"
         id="path170" />
      <polygon
         class="cls-7"
         points="100.26,124.39 99.09,121.33 99.09,126.14 "
         id="polygon172" />
      <path
         class="cls-7"
         d="m 91.73,112.35 a 3.1,3.1 0 0 1 2.55,0.55 c 1.27,0.93 2.72,4 2.72,4 0,0 -2.42,-4.18 -5.27,-4.55 z"
         id="path174" />
      <polygon
         class="cls-6"
         points="152.43,128.32 152.43,128.32 150.72,125.86 152.43,121.6 154.13,125.86 "
         id="polygon176" />
      <polygon
         class="cls-6"
         points="153.76,121.6 153.76,121.6 156.45,122.82 156.76,124.73 154.87,124.34 "
         id="polygon178" />
      <polygon
         class="cls-6"
         points="151.09,121.6 151.09,121.6 148.4,122.82 148.09,124.73 149.99,124.34 "
         id="polygon180" />
      <polygon
         class="cls-6"
         points="152.46,119.89 152.46,119.89 149.02,110.44 152.46,106.87 155.89,110.44 "
         id="polygon182" />
      <path
         class="cls-6"
         d="m 145.92,113 c 3.69,0.16 5.2,5.83 5.3,6.33 h 2.4 c 0.1,-0.5 1.61,-6.17 5.3,-6.33 3.64,0.37 2.53,4.73 0.77,5.81 0,0 -0.34,-1.94 -1.91,-1.79 -1.57,0.15 -2.51,1.05 -3.05,2.9 a 3.86,3.86 0 0 0 -0.11,1 h -4.4 a 3.86,3.86 0 0 0 -0.11,-1 c -0.54,-1.85 -1.49,-2.76 -3.05,-2.9 -1.56,-0.14 -1.91,1.79 -1.91,1.79 -1.77,-1.07 -2.88,-5.43 0.77,-5.81 z"
         id="path184" />
      <polygon
         class="cls-4"
         points="152.43,127.08 152.43,127.08 150.72,124.61 152.43,120.36 154.13,124.61 "
         id="polygon186" />
      <polygon
         class="cls-4"
         points="153.76,120.36 153.76,120.36 156.45,121.58 156.76,123.49 154.87,123.1 "
         id="polygon188" />
      <polygon
         class="cls-4"
         points="151.09,120.36 151.09,120.36 148.4,121.58 148.09,123.49 149.99,123.1 "
         id="polygon190" />
      <polygon
         class="cls-4"
         points="152.46,118.18 152.46,118.18 149.02,108.73 152.46,105.16 155.89,108.73 "
         id="polygon192" />
      <path
         class="cls-4"
         d="m 145.92,111.86 c 3.69,0.16 5.2,6.38 5.3,6.88 h 2.4 c 0.1,-0.5 1.61,-6.72 5.3,-6.88 3.64,0.37 2.53,4.73 0.77,5.81 0,0 -0.34,-1.94 -1.91,-1.79 -1.57,0.15 -2.51,1.05 -3.05,2.9 a 3.86,3.86 0 0 0 -0.11,1 h -4.4 a 3.86,3.86 0 0 0 -0.11,-1 c -0.54,-1.85 -1.49,-2.76 -3.05,-2.9 -1.56,-0.14 -1.91,1.79 -1.91,1.79 -1.77,-1.08 -2.88,-5.44 0.77,-5.81 z"
         id="path194" />
      <polygon
         class="cls-7"
         points="152.51,116.9 152.4,105.84 155.16,108.72 "
         id="polygon196" />
      <path
         class="cls-7"
         d="m 158,112.37 c 0,0 1.75,-0.36 2.39,0.58 a 4,4 0 0 1 0.19,2.69 c 0,0 -0.32,-3.01 -2.58,-3.27 z"
         id="path198" />
      <polygon
         class="cls-7"
         points="153.58,124.39 152.42,121.33 152.42,126.14 "
         id="polygon200" />
      <path
         class="cls-7"
         d="m 145.05,112.35 a 3.1,3.1 0 0 1 2.55,0.55 c 1.27,0.93 2.72,4 2.72,4 0,0 -2.42,-4.18 -5.27,-4.55 z"
         id="path202" />
      <polygon
         class="cls-4"
         points="125.76,143.4 125.76,143.4 124.06,140.93 125.76,136.67 127.46,140.93 "
         id="polygon204" />
      <polygon
         class="cls-4"
         points="127.09,136.67 127.09,136.67 129.79,137.9 130.1,139.81 128.2,139.42 "
         id="polygon206" />
      <polygon
         class="cls-4"
         points="124.43,136.67 124.43,136.67 121.74,137.9 121.43,139.81 123.32,139.42 "
         id="polygon208" />
      <polygon
         class="cls-4"
         points="125.8,134.5 125.8,134.5 122.36,125.05 125.8,121.47 129.23,125.05 "
         id="polygon210" />
      <path
         class="cls-4"
         d="m 119.25,128.18 c 3.69,0.16 5.2,6.38 5.3,6.88 H 127 c 0.1,-0.5 1.61,-6.72 5.3,-6.88 3.64,0.37 2.53,4.73 0.77,5.81 0,0 -0.34,-1.94 -1.91,-1.79 -1.57,0.15 -2.51,1.05 -3.05,2.9 a 3.86,3.86 0 0 0 -0.11,1 h -4.4 a 3.86,3.86 0 0 0 -0.11,-1 c -0.54,-1.85 -1.49,-2.76 -3.05,-2.9 -1.56,-0.14 -1.91,1.79 -1.91,1.79 -1.81,-1.09 -2.92,-5.44 0.72,-5.81 z"
         id="path212" />
      <polygon
         class="cls-7"
         points="125.86,133.45 125.75,122.39 128.52,125.27 "
         id="polygon214" />
      <path
         class="cls-7"
         d="m 131.32,128.92 c 0,0 1.75,-0.36 2.39,0.58 a 4,4 0 0 1 0.19,2.69 c 0,0 -0.28,-3.01 -2.58,-3.27 z"
         id="path216" />
      <polygon
         class="cls-7"
         points="126.94,140.94 125.77,137.88 125.77,142.69 "
         id="polygon218" />
      <path
         class="cls-7"
         d="m 118.41,128.9 a 3.1,3.1 0 0 1 2.55,0.55 c 1.27,0.93 2.72,4 2.72,4 0,0 -2.42,-4.18 -5.27,-4.55 z"
         id="path220" />
      <path
         class="cls-1"
         d="m 100.37,34.08 v 31.81 c 0,8.58 11.4,21.2 25.25,27.17 13.85,-6 25.25,-18.59 25.25,-27.17 V 34.08 Z"
         id="path222" />
      <path
         class="cls-5"
         d="m 150,35 v 30.9 c 0,8.29 -11.34,20.45 -24.35,26.19 -13,-5.74 -24.35,-17.9 -24.35,-26.19 V 35 H 150 m 0.9,-0.9 h -50.53 v 31.79 c 0,8.58 11.4,21.2 25.25,27.17 13.85,-6 25.25,-18.59 25.25,-27.17 V 34.08 Z"
         id="path224" />
      <polygon
         class="cls-5"
         points="130.73,41.15 129.28,43.67 131.68,45.31 128.8,45.75 129.01,48.66 126.88,46.68 124.74,48.66 124.95,45.75 122.07,45.31 124.47,43.67 123.03,41.15 125.81,42 126.88,39.29 127.94,42 "
         id="polygon226" />
      <polygon
         class="cls-5"
         points="114.03,59.2 112.79,61.36 114.85,62.77 112.38,63.15 112.56,65.64 110.73,63.95 108.89,65.64 109.08,63.15 106.61,62.77 108.67,61.36 107.42,59.2 109.81,59.93 110.73,57.61 111.64,59.93 "
         id="polygon228" />
      <polygon
         class="cls-5"
         points="130.31,78.91 129.63,81.03 131.61,82.04 129.63,83.06 130.31,85.18 128.19,84.5 127.18,86.47 126.16,84.5 124.04,85.18 124.72,83.06 122.74,82.04 124.72,81.03 124.04,78.91 126.16,79.59 127.18,77.61 128.19,79.59 "
         id="polygon230" />
      <polygon
         class="cls-5"
         points="145.43,55.4 143.97,57.39 145.43,59.38 142.98,59.12 141.98,61.38 140.98,59.12 138.53,59.38 139.99,57.39 138.53,55.4 140.98,55.66 141.98,53.4 142.98,55.66 "
         id="polygon232" />
      <polygon
         class="cls-5"
         points="136.35,65.11 134.7,66.37 135.3,68.35 133.6,67.17 131.9,68.35 132.5,66.37 130.84,65.11 132.92,65.07 133.6,63.11 134.28,65.07 "
         id="polygon234" />
      <polygon
         class="cls-4"
         points="130.73,39.84 129.28,42.36 131.68,44.01 128.8,44.45 129.01,47.35 126.88,45.37 124.74,47.35 124.95,44.45 122.07,44.01 124.47,42.36 123.03,39.84 125.81,40.69 126.88,37.98 127.94,40.69 "
         id="polygon236" />
      <polygon
         class="cls-4"
         points="114.03,57.89 112.79,60.05 114.85,61.47 112.38,61.84 112.56,64.33 110.73,62.64 108.89,64.33 109.08,61.84 106.61,61.47 108.67,60.05 107.42,57.89 109.81,58.62 110.73,56.3 111.64,58.62 "
         id="polygon238" />
      <polygon
         class="cls-4"
         points="130.31,77.6 129.63,79.72 131.61,80.73 129.63,81.75 130.31,83.87 128.19,83.19 127.18,85.17 126.16,83.19 124.04,83.87 124.72,81.75 122.74,80.73 124.72,79.72 124.04,77.6 126.16,78.28 127.18,76.3 128.19,78.28 "
         id="polygon240" />
      <polygon
         class="cls-4"
         points="145.43,54.09 143.97,56.08 145.43,58.07 142.98,57.81 141.98,60.07 140.98,57.81 138.53,58.07 139.99,56.08 138.53,54.09 140.98,54.35 141.98,52.09 142.98,54.35 "
         id="polygon242" />
      <polygon
         class="cls-4"
         points="136.35,63.8 134.7,65.06 135.3,67.04 133.6,65.86 131.9,67.04 132.5,65.06 130.84,63.8 132.92,63.76 133.6,61.8 134.28,63.76 "
         id="polygon244" />
    </g>
  </g>
</svg>
