<?xml version="1.0" encoding="UTF-8" standalone="no"?>
<svg
   viewBox="0 0 284.13 307.55"
   version="1.1"
   id="svg76"
   xmlns="http://www.w3.org/2000/svg"
   xmlns:svg="http://www.w3.org/2000/svg"
   xmlns:rdf="http://www.w3.org/1999/02/22-rdf-syntax-ns#"
   xmlns:cc="http://creativecommons.org/ns#"
   xmlns:dc="http://purl.org/dc/elements/1.1/">
  <metadata
     id="metadata80">
    <rdf:RDF>
      <cc:Work
         rdf:about="">
        <dc:format>image/svg+xml</dc:format>
        <dc:type
           rdf:resource="http://purl.org/dc/dcmitype/StillImage" />
        <dc:title>melb_high_logo</dc:title>
      </cc:Work>
    </rdf:RDF>
  </metadata>
  <defs
     id="defs4">
    <style
       id="style2">
      .a, .f {
        fill: #231f20;
      }

      .a, .b, .c, .d, .e {
        fill-rule: evenodd;
      }

      .b {
        fill: #fff200;
      }

      .c {
        fill: #00703c;
      }

      .d {
        fill: #8b0f04;
      }

      .e {
        fill: #fff;
      }
    </style>
  </defs>
  <title
     id="title6">melb_high_logo</title>
  <g
     id="g74">
    <path
       class="a"
       d="M67.31,300.72c-.79-.78-6.4-1.51-7.85-1.51,0,4.79-7.69,7.5-15.15,7.31-9.15-.24-12.78-4.72-13.1-9.69s-.07-10-2.28-10c.22,6.5-4.28,8.35-9.09,8.92s-8.59.43-8.89-5c-.28-5-4.36-15.22-6.08-19.1-1.33-3-4-6.06-4.37-7.21-2.46-7,4.75-14.06,10.09-18a20.4,20.4,0,0,1,13.21-4.34c5.17.09,10.42,1.9,16.08,6.48,6.91,5.61,12.53,11.9,14.26,15.28,1,2,1.18,2.17,1.78.74,1.51-1.51,0-3.54-1.29-4.87-1.89-1.94-3.09-3-1-5.14,1.08-1.08,1.65-1.39.37-2.27-2.63,0-2.32-4.92-.41-5.82.43-.21.86-.39.86-.89,1.32,0,1.21-3,.48-5.25a13,13,0,0,0-2.23-4c-2.33-3.27-5.08-2-7-4.73-.81-1.2-.76-2.73-.11-5,.43-1.67.52-2.28-1.33-4.55-.88-1.08-.94-2.55-2.29-3a11.05,11.05,0,0,0-2.73-.09c-5,.07-6.8-2.83-7-5.35-.28-3,2-5.47,5.92-5.28,2,.1,3.94.39,5.21,2.48,6.36-1.46,9.58,2.31,8.78,8.88,1.29,0,1.41-1.09,2.11-2.16a5.2,5.2,0,0,1,4.93-2.27c2,.09,3,3.17,3.34,4.75,6.12-1.71,8.76,5.58,2.65,7.09,0,1.2.25,3.25-.22,4.13-1,1.94-3.09,3.16-4.38,3,1.14,1.14,7.44,2.82,9.13,2.82,0-12.32.91-21.88,4.23-32.69a99.21,99.21,0,0,1,11.75-25.34c6.23-9.25,12.89-17.85,19.94-26.56,5.38-6.64,11.22-13.55,15.91-20.65,7-10.59,9.8-21.47,8.11-27.07-8.18,1.72-8,3.55-10,7.06-3.54,6-8.2,10.06-15,14.77-6.33,4.42-12.75,7.79-19.18,11.77-1.27.79-.37,2.85,1.72,5,0,.57.12,4.37-.11,8.6-.22,4-.93,16.86-7.17,16.95-1.51,0-2.07-4.35-3.25-5.81-.52-.64-1.77-.82-2.15-1.77s.33-2.14-.06-3-1.87-1.33-2.18-2.16a14.7,14.7,0,0,1-1.14-4.53c-3.42-.28-10.77-3.42-5.93-6.54a92.87,92.87,0,0,0,8-9.12c1.52-2.06,2.95-3.95,2.84-5.43-.1-1.26-1.43-2.14-2.37-1.06-2.76,3.17-6.88,9.69-10.6,13.89-2.23,2.52-3.74,3.93-5.89,3.61-3.29-.49-6.66-1-9.57-5.51-.37-.57-.7-3.47-1.52-5-2.3-4.29-5.83-4.42-3.25-11.91,1.21-3.52,9.67-17.38,12.38-20.09,0-.82,5-7.72,6.27-8.93,0-1.64,15.48-19.94,11.8-23.62,0-2.77-.26-18,2.31-20.59,0-.75.79-1.51.79-2.16,5.36-5.36-5.33-6.65-5.33-10.44-.32-.32-.21-1.09-.64-1.62a13.51,13.51,0,0,0-2.33-2.26c-3.29-2.49-6.39-4-6.39-8.64-1.55,0-5.74-4.31-5.74-6.1-4.52-2.47-4.65-3.83-5-5.47-1-1.05-1.88-2-2.57-2.79-3.11-3.68-8.3-9.57-6-11.63,2.09-1.87,7.84,3,7.84,5C53.1,5.5,56.15,8,56.46,10c5.78,1.81,7,3.33,7.67,5.86,2.69-.28,7.67,2.64,8.62,6.13,3.76.58,7,3.57,7.12,4.92.1,2.41.84,2.65,3.06,2.65,2.66,1.6,2.51-.15,1.76-2.84-.21-.74-3.93-12,.3-9.43.92.56,1.19,1.91,2,2.9,2.45,2.86,6.42,7.16,8.94,9.85,1,1.05.08,2.61,1.29,2.61,1.31-2.75.75-9.18.74-14.48,0-3.4.62-5.92,2.15-5.77,2.14.2,2.56,5,4.56,8.89s3.61,6.14,5.65,7.12c3.23-1.56,12.57-3.48,20.59-4a50.6,50.6,0,0,1,16.93,2.07c4.82,1.37,9.83,5.9,12.75,8.78,1.33,1.31,1.26,1.77,2.25,2.69a12.89,12.89,0,0,0-2.4-5.33c-2.27-2.54-5.48-4.07-5.48-5.55,4.26-1.3,24.91.8,34.71,16.56,6.64.49,17.89,3,25.31,8.39,5.78,4.22,9.28,10.38,6.29,17.9-.48,1.21-1.95,2-1.95,3s1.68,2.23,2.84,3.32C231.53,85,240,101.86,239.91,117a35.16,35.16,0,0,1-3.27,14.3c-1.46,3.17-3.94,5.82-4.74,8.56-.36,1.21.3,2.89.66,4.79a40.92,40.92,0,0,1,.87,11.51c-.08,1-.81,4.45,1,2.16,1.35-1.67,3.38-5.75,3.83-5.75,2.76,0-1.85,18-1.41,24.87.84,13-5.4,27.82-12.73,38.29-.67,1-1.59,2.24-1.16,2.74.25.3,1.26.05,2.34.05,0-2.17,7.74,2,7.69,1.62-.58-4.31,1.92-6.68,4.55-7.88.67-.3,2-.23,3.12-.56s2.1-1.1,3.36-1.47c2.22-.65,4.34-1.52,5.64-.71a3.66,3.66,0,0,1,2.13,2.52c1.18,4.49-3.4,3.84-6.44,5.62-.49.28-1.55.82-1.54,1.45a4,4,0,0,1-1,2.78c-1.86,2.22-3.1,1.67-3.66,3.54-.36,1.2.29,3,.18,4-.23,2.29-3.55,4.1-5.32,3.82-2-.3-3.23,1.32-3.2,3.17-.81,1.61-2.44,4.36-2.19,7.06a3.9,3.9,0,0,0,1.66,2.87A3.66,3.66,0,0,1,232,250.5c-1.28,3.37-4,2.16.17,5,.88.62-.07,2.45-2.21,4.59-1.25,0-3,4.81-.25,4.81,4.89-10.07,19.34-23.12,31.46-22.94,11.57.17,22.81,11.38,23,20.35,0,1-2.13,4.47-3.83,7.31-3.9,6.49-5.71,16.17-6.5,17-1.18,4.14-.42,6.12-1.27,7.5-1,1.56-2.95,1.61-6.95,1.47-3.67-.12-8.59-.94-9.75-4.42-.91-2.77,1.67-7.12.71-7.34-.6-.14-1.53,1-2.11,4.6-.19,1.19.23,2.95-.05,4.63-1.91,11.37-7.42,13.54-15,13.59-12.25.08-13-3.55-15-7.49-26.47,6.19-57.36,8.24-82.92,8.39-25.26.15-47.67-2.45-74.11-6.82Zm-7.56-45.87a2.29,2.29,0,1,1-2.24,2.29,2.27,2.27,0,0,1,2.24-2.29Zm165.9.16a2,2,0,1,1-2.13,2,2.09,2.09,0,0,1,2.13-2Zm-18.23-23.55,8.1-4.88a1.84,1.84,0,0,1,.79-.05,3.41,3.41,0,0,1,1.87,1c1.45,1.33,2.37,4.54,3.15,5.31s3.14.31,3.14.31,1.44.74,0,2a15.36,15.36,0,0,1-7.28,3.27c-2.62.2-4-.4-6.12-2.29s-3.78-2.67-3.78-3.23a10.84,10.84,0,0,1,.13-1.37ZM26.11,275.15a7.89,7.89,0,0,0,.05-2.64c-.16-.87-.5-1.52-.2-2.27.58-1.45,2.09-1,2.81.15,1.67,2.77.47,3.79-.47,4.27-.56.28-.71,0-1,.86-.18.11-1.07,0-1.19-.37Zm115.43-10c42.49,0,77.84,4.22,77.72,6.85s-35.23,6.86-77.72,6.86S64.15,274.61,64.15,272s34.89-6.85,77.39-6.85Zm113.66,9.75c-.61-1.23-1.63-.84-1.63-2,0-1.32,1.09-3.24,1.94-3.24h.94c.62,0,1.13,1.22,1,1.89s0,2.92-.56,3.86c-.32.57-1.14.55-1.67-.5Z"
       id="path8" />
    <path
       class="b"
       d="M58.08,251c.85-1.52,1.29-2.91,5.17-3.75a112,112,0,0,1,17-3.38c13.68-1.69,33.68-3,61.91-3,17.78,0,33.5.59,45.56,1.57,22,1.79,33.5,4.6,35,5.69,2.36,1.69,2.36,3,2.36,3s2-2.09-.64-4.37c-2.17-1.87-7.61-4.15-28.88-6.36C181,238.88,156.16,238,142,238c-15.36,0-33.21.6-47.72,1.9-17,1.53-28.07,3.06-32.3,5.1-4.39,1.86-5.4,4.19-3.88,6.05Zm1.18,19.65c.84-1.35,1.58-2.1,5.11-3.65,1.68-.74,6.7-1.9,16.67-3a542.5,542.5,0,0,1,61.23-3.13c17.55,0,33.48.84,45.39,1.72,21.7,1.59,32.35,4.4,33.86,5.38,2.34,1.5,2.64,2.81,2.64,2.81s2.27-1.55-.33-3.59c-2.13-1.67-7.82-4-28.81-6C180.57,259.84,156.1,259,142.1,259c-15.16,0-32.79.53-47.11,1.69-16.75,1.37-28.54,3.24-32.72,5.06-4.34,1.66-4.51,3.22-3,4.88Zm-1.44-18.49a2.57,2.57,0,0,0,2,1.58c1.95.28,5.14-.39,5.25,1.56.19,3.17-2.13,4.16-4,5.54-1.28,1-2.31,1.36-2,2a2.22,2.22,0,0,0,3.34,1c1.93-1.06,8.12-2.87,16.18-3.9a509.67,509.67,0,0,1,64.18-3.37c28.3.2,52.71,1.85,67.25,4.17a54.63,54.63,0,0,1,14.24,4c1-.2,1.37-1.84-2.79-3.39a5.5,5.5,0,0,1-2.78-3.48c-.31-1.36-.81-2.75.8-3.14,3.28-.79,4.71-.74,5.09-1.31.68-1-3.54-3.56-6.37-4.15-10.79-2.25-33.5-6.13-76.38-6.13-25.65,0-50.19,1.44-64.4,3.68-15.6,2.47-19.62,5.34-19.62,5.34Z"
       id="path10" />
    <path
       class="a"
       d="M195.54,250.43l-.18,5.72s-.09,1.62-1.91,1.14c-5.27-1.38-10.16-1.44-15.54-1.33,0,0-1.27-.1-1.27-1.24s-.19-6.1-.19-6.1-.09-1.72,1.46-1.72c5.31,0,11.36,0,16.45,1.91a2.17,2.17,0,0,1,1.18,1.62Z"
       id="path12" />
    <path
       class="a"
       d="M209.32,248.37a2.47,2.47,0,1,1-2.59,2.47,2.54,2.54,0,0,1,2.59-2.47Z"
       id="path14" />
    <path
       class="c"
       d="M230.89,299.07c-3.51-3.7,5.81-5.23,7.47-5.28,6.91-.23,8.67,2,9.24,3.94-2,2.77-5.92,5.41-10.18,4.69a11.45,11.45,0,0,1-6.53-3.35Z"
       id="path16" />
    <path
       class="c"
       d="M52.42,299.07c3.51-3.7-5.81-5.23-7.47-5.28-6.92-.23-8.67,2-9.24,3.94,2,2.77,5.92,5.41,10.18,4.69a11.42,11.42,0,0,0,6.53-3.35Z"
       id="path18" />
    <path
       class="c"
       d="M233.1,269.86c-2-.73,1.94-8.08,7-13.71,4.51-5,12-9.38,18.83-9.6,8.81-.27,18.87,6,20.53,13.35.53,2.37-2.09,5.43-4.93,6.24-2.07.59-4-.32-5.44-1.05-2.92-1.52-5.12-4.55-6.56-7.69-.9-1.94-2.84-1.3-3.19,0a11.2,11.2,0,0,0-.93,3.73c.13,2-.47,2.83-1.88,3.46-2.94,1.3-2.57,3-5.7,3.78-3.34.87-5.31,0-7.61-.42a20.58,20.58,0,0,0-5.52.42c-1.07.42-3,2.13-4.63,1.54Z"
       id="path20" />
    <path
       class="c"
       d="M50.74,269.21c-2.31-1.58-6.28-2.32-9.69-2.45-5.68-.22-5.61,1.94-9.79.28a30.15,30.15,0,0,0-5.32-4.21c-1.19-.77-1.14-2.41-1.16-4.8,0-1.53-2.7-4.86-3.92-1.57a18.22,18.22,0,0,1-3.49,5.25c-2,2.07-5.41,3.7-7.34,3.57-3.44-.24-8.55-3-5.41-8.54a30.12,30.12,0,0,1,5.64-6.7c4-3.41,10.07-4.63,12.91-4.65,8.67,0,16.77,5.6,21.16,11.35,4.67,6.1,7,12.3,6.41,12.47Z"
       id="path22" />
    <path
       class="d"
       d="M13.47,290.67c0-6.88-2.89-13.83-4.92-20.18a19.23,19.23,0,0,0,6.17-1c1.74-.62,3.26-2.21,4.26-2.09,1.26.15,2.95,10,3.06,10.73a32.24,32.24,0,0,1,.48,7.63c-.19,2.08-.84,3.46-2.3,4.17s-3.69.75-6.75.75Zm54.14,5.72c-3.12-.7-7.91-1-10.4-3.08a15.35,15.35,0,0,0-9.65-4c-5.16-.46-10,.51-12.91,3.42a37.41,37.41,0,0,1-2.1-12.32c-.07-4.88,2.59-6.57,6.94-7.19,5.57-.79,9.88-.5,14,1.29,1.89.81,3.71,2.6,6,3.39,8.7,3,21.44,4.79,33.58,6.19a492.7,492.7,0,0,0,65.05,2.85c21.61-.55,43-4.05,63.81-7.8,0,0,2.6-.25,3.93-1.55,4.84-4.69,12.94-5,19.32-4.08,5.67.82,7.14,3.55,7.18,10.56a22.86,22.86,0,0,1-1.2,8.74c-2.9-2.73-6.94-3.5-11.06-3.58-4.39-.09-8.87.66-12.18,3.07-.83.6-1.63,1.84-2.94,2.2-11,3-27.44,5.75-47.53,7.38-36.33,3-74.18,2.53-109.91-5.49Zm192.61-12c.5-5.3,1-10.18,2.61-14.81.58-1.68,1.38-1.38,2.49-.45,1.8,1.51,5.88,2.59,8.95,2.59-.47,1.29-1.11,2.52-1.52,3.62a79,79,0,0,0-2.32,8c-.9,3.87-1.49,7.88-1.6,7.88-3.4.52-5.64.44-7-.45-1.54-1-1.94-3-1.62-6.39Z"
       id="path24" />
    <path
       class="e"
       d="M209.32,249.16a1.68,1.68,0,1,1-1.76,1.68,1.73,1.73,0,0,1,1.76-1.68Z"
       id="path26" />
    <path
       class="a"
       d="M73.69,248.75a2.47,2.47,0,1,1-2.59,2.46,2.53,2.53,0,0,1,2.59-2.46Z"
       id="path28" />
    <path
       class="a"
       d="M118.2,245.05a2.47,2.47,0,1,1-2.59,2.47,2.54,2.54,0,0,1,2.59-2.47Z"
       id="path30" />
    <path
       class="a"
       d="M166.4,245.15a2.47,2.47,0,1,1-2.58,2.47,2.54,2.54,0,0,1,2.58-2.47Z"
       id="path32" />
    <path
       class="a"
       d="M74.08,254.45a2.47,2.47,0,1,1-2.58,2.47,2.54,2.54,0,0,1,2.58-2.47Z"
       id="path34" />
    <path
       class="a"
       d="M118.2,250.75a2.47,2.47,0,1,1-2.59,2.46,2.54,2.54,0,0,1,2.59-2.46Z"
       id="path36" />
    <path
       class="a"
       d="M166.4,250.85a2.47,2.47,0,1,1-2.58,2.47,2.54,2.54,0,0,1,2.58-2.47Z"
       id="path38" />
    <path
       class="a"
       d="M209.07,254.83a2.47,2.47,0,1,1-2.59,2.46,2.53,2.53,0,0,1,2.59-2.46Z"
       id="path40" />
    <path
       class="e"
       d="M194.87,250.62l-.17,5.07s-.09,1.44-1.78,1a52.72,52.72,0,0,0-14.44-1.19s-1.18-.08-1.18-1.1-.17-5.4-.17-5.4-.09-1.52,1.35-1.52c4.94,0,10.56,0,15.29,1.69a1.93,1.93,0,0,1,1.1,1.43Z"
       id="path42" />
    <path
       class="a"
       d="M84.37,250.43l.18,5.72s.09,1.62,1.91,1.14c5.28-1.38,10.17-1.44,15.55-1.33,0,0,1.27-.1,1.27-1.24s.18-6.1.18-6.1.09-1.72-1.45-1.72c-5.32,0-11.36,0-16.46,1.91a2.17,2.17,0,0,0-1.18,1.62Z"
       id="path44" />
    <path
       class="a"
       d="M139.92,244.35l-9.36,4.24s-1.08,1-.16,1.55l10.15,5.51a4.52,4.52,0,0,0,3.66,0L154.27,250a1,1,0,0,0,0-1.92c-1-.34-9.89-3.64-10.54-3.81a5.23,5.23,0,0,0-3.77.13Z"
       id="path46" />
    <path
       class="f"
       d="M58.56,292.11,61,280.84l2.47.51-1,4.51,4.32.91,1-4.51,2.38.5L67.73,294l-2.38-.5,1.06-4.93-4.32-.9L61,292.62l-2.47-.51Zm15.27-2.81a5.6,5.6,0,0,0,.17,3.26A2.51,2.51,0,0,0,76,294a2.56,2.56,0,0,0,2.37-.7,5.66,5.66,0,0,0,1.3-3,5.39,5.39,0,0,0-.2-3.23,2.49,2.49,0,0,0-2-1.44,2.52,2.52,0,0,0-2.35.69,5.44,5.44,0,0,0-1.3,3Zm-2.58-.47a6,6,0,0,1,2.24-4,6.07,6.07,0,0,1,8,1.4,6,6,0,0,1,.71,4.49,6.32,6.32,0,0,1-2.23,4.1,6.07,6.07,0,0,1-8.08-1.4,6.27,6.27,0,0,1-.68-4.61ZM83.84,297l1.43-11.44,3.58.44,3.22,9.72,1.15-9.19,2.23.27L94,298.2l-3.44-.41-3.33-10-1.18,9.47L83.84,297Zm15.82-4a5.65,5.65,0,0,0,.47,3.24,2.77,2.77,0,0,0,4.4.38,5.62,5.62,0,0,0,1-3.11,5.38,5.38,0,0,0-.48-3.2,2.78,2.78,0,0,0-4.38-.37,5.45,5.45,0,0,0-1,3.06Zm-2.6-.24a6,6,0,0,1,1.87-4.15,6.08,6.08,0,0,1,8.14.7,6,6,0,0,1,1.1,4.41,6.21,6.21,0,0,1-1.86,4.27,6.06,6.06,0,0,1-8.17-.7,6.2,6.2,0,0,1-1.08-4.53Zm13.86-4.43,2.48.13-.38,7.25a2.57,2.57,0,0,0,.54,1.94,2.7,2.7,0,0,0,1.93.74,2.55,2.55,0,0,0,2-.55,2.79,2.79,0,0,0,.72-2l.38-7.15,2.4.12-.37,7.09a4.55,4.55,0,0,1-1.42,3.4,6.91,6.91,0,0,1-7.57-.38,4.51,4.51,0,0,1-1-3.54l.38-7.08ZM126,294.13l1.47.05a3.57,3.57,0,0,0,1.92-.29,1.37,1.37,0,0,0,.56-1.2,1.54,1.54,0,0,0-.44-1.31,3.56,3.56,0,0,0-1.92-.42l-1.48-.06-.11,3.23Zm-2.69,6.43L123.7,289l4.86.17a5,5,0,0,1,3,.8,2.54,2.54,0,0,1,.88,2.23,3,3,0,0,1-.6,1.88A3.1,3.1,0,0,1,130,295a2.18,2.18,0,0,1,1.38.62,2.86,2.86,0,0,1,.53,1.62l.15,1.67a7.33,7.33,0,0,0,.19,1.17,2.76,2.76,0,0,0,.34.79l-2.71-.1a2.17,2.17,0,0,1-.18-.56,5.09,5.09,0,0,1-.1-.85l-.1-1.75a2.35,2.35,0,0,0-.29-1.28,2,2,0,0,0-1.18-.26l-2.16-.08-.16,4.64-2.46-.08Zm18.47.66.17-9.65-3.44-.06,0-1.87,9.39.16,0,1.87-3.44-.05-.17,9.64-2.51,0Zm8-.06V289.63h2.52v4.62h4.42v-4.62h2.43v11.53h-2.43v-5h-4.42v5Zm12.36-.2-.41-11.52,7.76-.27.06,1.91-5.21.18.09,2.72,4.9-.17.06,1.87-4.89.17.11,3.1,5.4-.19.07,1.92-7.94.28Zm12.72-12.07,2.73-.29,2.63,8.74,1.36-9.15,2.82-.29,3,8.7.89-9.1,2.41-.25L189,299l-2.84.29-3-8.56-1.35,9-2.77.29-4.2-11.15Zm20.31,3.34a5.64,5.64,0,0,0,1.2,3,2.79,2.79,0,0,0,4.38-.6,5.62,5.62,0,0,0,.29-3.26,5.35,5.35,0,0,0-1.2-3,2.49,2.49,0,0,0-2.33-.77,2.53,2.53,0,0,0-2,1.37,5.48,5.48,0,0,0-.31,3.22Zm-2.59.34a6,6,0,0,1,.88-4.47,6.08,6.08,0,0,1,8.08-1.11,6,6,0,0,1,2.09,4.05,6.2,6.2,0,0,1-.84,4.58,5.24,5.24,0,0,1-3.82,2.14,5.39,5.39,0,0,1-4.3-1,6.33,6.33,0,0,1-2.09-4.18Zm15.58-3.12,1.44-.28a3.65,3.65,0,0,0,1.81-.7,1.36,1.36,0,0,0,.26-1.3,1.5,1.5,0,0,0-.72-1.17,3.43,3.43,0,0,0-2,0l-1.45.27.63,3.17ZM207,296.31,204.76,285l4.78-.92a5.12,5.12,0,0,1,3.07.13,2.55,2.55,0,0,1,1.37,2,2.55,2.55,0,0,1-1.67,3.23,2.15,2.15,0,0,1,1.48.3,2.81,2.81,0,0,1,.88,1.46l.53,1.59a7,7,0,0,0,.46,1.1,2.38,2.38,0,0,0,.51.69l-2.67.51a2.45,2.45,0,0,1-.3-.51,5.45,5.45,0,0,1-.29-.81l-.5-1.68c-.2-.68-.39-1.07-.58-1.18a2,2,0,0,0-1.2,0l-2.12.41.9,4.55-2.42.47Zm11.29-2.3-2.83-11.18,2.42-.6,1.22,4.83,2.48-5.74,2.73-.67-2.73,6,6,5.11-2.82.69-5.47-4.81,1.47,5.79-2.42.6Z"
       id="path48" />
    <path
       class="b"
       d="M149.71,217c1.86,0,4.48.86,6.1.08,1.08-.54.93-2.16,2.94-2.16,1,0,2,1.85,2,2.63,0,1.54-1.31,2-2.62,2-2,0-1,2.55-2.39,2.55-.87,0-2.64-.14-4.38-.28-1.36-.12-2.77-.15-3.34-.73-1.24-1.23.92-1.16,1.39-.69,1.08,1.08,4.08-.14.69-1.24-1.62-.53-1.62-2.24.16-2.24l-.55.07Zm-19.84-1.81c1.07.18,2.15-.68,1.25-1.58-.35-.36-1.51-1.36-1.51-1.36.68-2-1.17-2.68-3.24-2.68-1.79,0-.6,3-1.23,3.66-.89.89-2.8.45-3.31,1.53s-.68,3.83.65,4.47a3.87,3.87,0,0,0,2.82-.05c.18-.09.15,1.05.68,1.59,1.62,1.62,4.12.69,4.12-.84,0-.35,3-.93,3-2.28,0-2.33-3.85-.28-5.29-1-2.6-1.27-.54-1.56,2.06-1.47Zm21.85-1.36c-.15,1.09-1.66.69-.26,1.6a6,6,0,0,0,2.7.39c.69,0,1.62,0,1.93-.62.23-.46.12-.44-.05-.82-.37-.86,1.39-1.47,1.39-2.63,0-.93-.38-1.86-1.46-1.86-.23,0-1.47-.15-1.62,0-.54.54-1.57.86-2,1.63-.15.31-.44,2.47-.67,2.31Zm-17.67-7.37c-1.27-1.88-2.4-4.11-1.93-6.08a2.93,2.93,0,0,1,2.77-1.84c1.18-.07,2.21,1.21,3.28.25.53-.48,1.7-2.27,3.07-2.39s2.08,0,2.22,1.66,3.44,0,4.74.4c2.24.75,2.46,5.72,1,7.95-.21.32-4.63,5.57-4.63,2.17,0-2.09,2.16-3.79,2.16-5.88,0-1.09-2.29-.53-2.24.77.07,1.66-2.38,6.18-2.62,1.55,0-.33.78-2.49.38-4s-1.28-1-1.66.08a10.41,10.41,0,0,0-.33,3.44c0,.66.07,1.32.07,2,0,2.62-2,.38-2.4-.78-.93-2.86-3-2.33-1.93-.15,2.85,5.82.35,4.2-1.92.82Zm7.87,4.9a3.44,3.44,0,1,1-3.48,3.44,3.47,3.47,0,0,1,3.48-3.44Z"
       id="path50" />
    <path
       class="b"
       d="M197.42,150.89c-1.65-3.81-3.85-7.52-4.28-11.13-.45-3.78,3.06-4,5.59-7.3a91.83,91.83,0,0,0,7-10c3.58-6.15,6.27-12.7,6.27-15.25,1.63,0,9.78,7.45,9.78,13.46,0,6.59-4.84,12.57-10,12.67-4.39.09-3,3.52-.11,6.19,4.65,4.24,9.07,3.1,14.8,3.1a42.84,42.84,0,0,1,1.74,15.18,39,39,0,0,1-7.51,20.72c-1.34,2-3.63,3.77-4.49,5.05-1.66,2.47-1.89,3.84-1.4,4.45,1.14,1.43,3.8-.22,5.81-2.28C224.4,181.9,231,175,232.56,172.12a36.39,36.39,0,0,1-1.21,13.34c-2,7.91-3.87,14.67-8,21.91a103.54,103.54,0,0,1-10.58,14.86c-.61.57-7.62,5.93-7.62,3.9a7.19,7.19,0,0,0-4.79-12.64c-5.46,0-7.66,3.06-8.13,6.37-.3,2.13-.21,4.2,1.22,5.95,0,.91-1.21,1.32-2.18,1.59a21.45,21.45,0,0,1-4.25.2c-4.46.19-14.06.63-12-1.47,10.57-5,20-12.74,25.8-25.46,4.11-9,3.74-18.49,3.34-24.87-.64-10.28-4.79-20.4-6.74-24.91Zm27.25,88.18a2,2,0,1,1-2.08,2,2,2,0,0,1,2.08-2Zm-163.19-.69c-.38,0-.76.09-1.14.09-.85,0-1.51,1.52-1.51,2.18a3.59,3.59,0,0,0,.28,1s.38.47.47.47.38.19.67.19,1,.19,1.42,0a4.55,4.55,0,0,0,1-.85c.19-.19-.1-1.24-.1-1.71,0-.19-.09-1-.37-1a1.94,1.94,0,0,1-.76-.38Zm-2.84-11.9a2.89,2.89,0,0,0-1.1.35,3.27,3.27,0,0,0-.28.68c-.07.92,1.44.79,1.44,1.57,0,.19,0,.19,0,.48s.19.49.19.59c0,1.28,1.38.07,1.51-1.38s-.8-2.55-1.77-2.29ZM57,221.7a3.81,3.81,0,0,0-2.17,2.45,3.75,3.75,0,0,0,.18.54c.18.09.44.36.62.46A5.07,5.07,0,0,0,58.17,224a6.45,6.45,0,0,0,.11-1.37.54.54,0,0,0-.27-.54,1.79,1.79,0,0,0-1-.36Zm-6.59,5.08c-.58,0-1.27-.1-1.27.49a2.44,2.44,0,0,1-.2.49v.59a3.62,3.62,0,0,0,.39,1.08,6.21,6.21,0,0,0,1.48,1.28c.39,0,1.08.3,1.28-.19a5.29,5.29,0,0,0,.39-1.09,1.89,1.89,0,0,0-.79-1.37c-.19-.2-.29-.5-.39-.6a2.43,2.43,0,0,0-.89-.68Zm-5.17-13.6a2,2,0,1,1-1.9,2,1.95,1.95,0,0,1,1.9-2Zm40.27,19.6-5.09,6.36c.59-.06,11-1.49,12.65-1.36-.86-.62-6.71-4.68-7.56-5Zm5.27-3.41s-1-1.35-1.77-.23.7,1.68.7,1.68a29.91,29.91,0,0,0,4.29,2.8c1.91.94,7.14,2.53,7.7,2.15s-.66-1.07-2-1.59a38.58,38.58,0,0,1-5.6-2.47c-1.49-.94-3.31-2.34-3.31-2.34Zm-7.59-1.61,2-2.1,2,2.05-4,0Zm1.47-11.9a3.41,3.41,0,1,1-3.42,3.41,3.41,3.41,0,0,1,3.42-3.41Zm-8.1,5.8s-.44,3.8-.63,6.34-.15,5.8-.15,5.8L81,226a5.93,5.93,0,0,1-2.54-1.66l-1.9-2.63Zm54.83,13.73,10.2-7.79,10.42,8-10.2-.43-10.42.22Zm8.67-11.85s-.55-.88.65-.77,3.62,2.19,5.93,4.28,8.23,6.58,11.85,8a29.16,29.16,0,0,0,5.91,2,21,21,0,0,0,5.16.25s1.52.05,1.53-.37-.68-.62-1.63-.66a23.63,23.63,0,0,1-10-2.41A97.56,97.56,0,0,1,147,225c-1.76-1.75-4.17-4.16-5.38-4.05-2.77-.07-2.61,2.51-1.53,2.63Zm52.21,5.62,1.11,1.22a22.28,22.28,0,0,1-5.11,4.12c-2.45,1.23-7,2.56-8.23,2.34s0-1.11,1.56-1.45a21.36,21.36,0,0,0,5.89-2.67,42.2,42.2,0,0,0,4.78-3.56Zm4.67,3-7,4.9s5.44.45,6.33.67,6.34.78,6.34.78L197,232.16Zm-.22-3.78,2.11-1.67,2,2-4.11-.33Zm3.17-10.14a3.29,3.29,0,1,1-3.51,3.29,3.42,3.42,0,0,1,3.51-3.29Zm23.84,6.13s2.44,1.78,2.44,3-.44,1.44-.44,1.44-1.56-.89-1.89-.22a2.43,2.43,0,0,1-1.11,1s.22-1.33-.56-1.78-3.78-2.23-3.78-2.23-1.33-1.33-.44-2.22,1.78-1.9,1.78-1.9a5.48,5.48,0,0,1,2.89-.89,6.68,6.68,0,0,1,2.89.34s2.78,3.23,1.77,3.23-3.55.22-3.55.22Zm7.21,3a2.14,2.14,0,0,1,2.19-2.28c1.43,0,2.12,1.31,1.78,2.75a1.88,1.88,0,0,1-2,1.44,1.93,1.93,0,0,1-2-1.91Zm6.42-7.53a1.69,1.69,0,0,1-1.9-2c.19-1,1-2.06,1.89-2.08,1.35,0,1.92,1,1.89,2.26a1.75,1.75,0,0,1-1.88,1.8ZM56.69,132.32c-.08-1.5.38-3-1.34-3-.62,0-1.21.74-2.2.68a2.73,2.73,0,0,1-2.48-2.77,4.08,4.08,0,0,1,4-4.17c3.4,0,4.68,2.29,4.89,4.91a12.79,12.79,0,0,1-1.06,6c-.9,1.87-.79,4.15-2.43,4.2-1,0-1.43-.4-1.42-1.66s2.09-2.54,2-4.15ZM82.37,162a6.7,6.7,0,0,1-2-4.72,4.23,4.23,0,0,1,.22-1.3,8,8,0,0,0,.53-3.57c0-.87-1-2.19-1.47-2.19H78.54c-1,0-.79,1.62-.79,2.16,0,.27.14.36.21.51,1,2-.78,4.19-1.75,1.29-.37-1.1-.75-2.58.12-3.69,1.41-1.84,3.46-3.5,4.69-3.49s1.49,2.12,1.75,4.62c.12,1.09.89,3.07.77,4.12A26.83,26.83,0,0,1,82.37,162Zm109.45-82.2A2.22,2.22,0,1,1,189.37,82a2.34,2.34,0,0,1,2.45-2.21ZM77.39,66.87c0-6.21,1.32-12.92,5.09-18.18,3.63-5,7.36-9.09,15.35-10.33,0,2.28,3.47,10.12,4.67,11.71,1.52,2,2.62,3.91.12,6.87S95.18,62.85,92.56,64,90.81,60.24,91,59.09c.29-1.93,4.33-4.41,5.52-6.48a2.22,2.22,0,0,0-.4-2.81c0-.06-1.14-1.3-2.08-.68a29.1,29.1,0,0,1-4.15,5c-2.1,2-5,3.27-7.65,6.06-2.84,3-3.74,5.3-4.84,6.69Zm28.44-18.58c-1-1-2.56-4.65-3.64-7.95a33.75,33.75,0,0,1-1.69-10.55c.23,0,.5-.13.5.14,1.58,1.58,3.87,6.1,4.52,8.41a24.46,24.46,0,0,1,1,7.69,3.61,3.61,0,0,1-.66,2.26Zm44.22,136.29a8.18,8.18,0,0,1,.92,3.61c.75.75-1,10.76-3.59,8.21-.55,0,.3-6.75-5.31-6.8s-5.88,4.06-6,4.94a6.65,6.65,0,0,0-7.15,3.29c-1,2-1.11,4.84,1.08,8.14,1.23,1.63,5.59,5.18,3.81,5.18a18.77,18.77,0,0,0-6.71-3.85c-2.4-.6-5.62,1.26-5.62,3.9-9.35,0-7.32,10.76.09,10.76,0,8.57,13.61,2,13.61.36,2.38.12.86,2.28-3.59,4.87a43.06,43.06,0,0,1-21,5.79c-5.75-.07-15.42-3.08-19.51-6.25-2.23-1.73-1.18-3.38.1-5.31a4.58,4.58,0,0,0,.5-4c-.57-2.6-1.85-4.75-6.35-4.89-4-.11-5.74,1.55-7.73,2.73.51-9.35,8.64-24.82,12.74-32.88,8.21-16.13,23.22-28.93,33.72-43.6,6.53-9.12,11.88-18.53,11.38-27.71-.12-2.16.34-4.92-.67-7.34,0-3.56,8-6.65,8-9.5,3.17-3.17-2.42-6.34-4-4.18-7.5,6.77-16.14,12.38-25.69,13.15-2.49.2-4.62.51-4.62,1.68-1,0-.74,2.74.66,3.3,1.72.68,4.47-.32,5.31.91.5.74-1.19,2.75-3.61,4.89-5.69,5-17.84,14.16-18.2,14.16-.75.75-2.59.09-4.49-.33-9-2-6.31,11.57-7.75,11.78,0,.82-2.17,2.9-4,4.73-1.12,1.14-1.94,2.44-2.69,3.11a2.29,2.29,0,0,1-3.16.24,2,2,0,0,1-.1-2.85c1.92-2.22,4.23-4.91,4.23-5.23,1.69,0,5.19-7.75,5.19-9.51,0-2.91-1.35-4.89-3.61-5.45-3.86-1-8.54,5.86-12.88,11.49-2.2,2.86-3.8,5.84-5.31,5.95,0,.54-2.24.67-5.07-3.25-1.55-2.16-5.31-4.8-5.4-9.78-.15-8.46,8.13-14.84,12.19-20.37,5.45-7.42,10.11-15.19,11.36-17.3A162.81,162.81,0,0,0,79,76.71c1.3-3.25,2.46-6.14,3.61-9.41.78-2.21,1.93-4.84,3.22-5.41,2.24-1,1.89,3.5,2.18,4.62C89,70,91.42,68.1,93.94,67c1.65-.73,6.08-2.47,9.27-5.23A25,25,0,0,0,107.1,57,3.16,3.16,0,0,1,110,55.8c0-2.82.17-6.26.29-9.82a30.46,30.46,0,0,0-.88-9.12c-.27-.92-4.6-7.18-2.81-7.65,2.12.7,3.87,3.72,5.15,5.6,3.56,5.2,4.15,12.16,3.78,17.45a14.86,14.86,0,0,1-.9,4.8c-.19.45.17,1.26.17,1.67,1,.3,1.76.82,2.84.34.74-.32,1.35-1,2.18-.92a1.88,1.88,0,0,1,1.41,1.94c.15,0,4.95,1.67,5,1.74,2.41,0,14.11,3,14.11,4.53,1.79,0,7.08,7.62,4.4,10.3,0,1.33-4,2.9-2.31,4.61,0,3.94,14.28-5.19,14.33-5.19,0,10.43,2,26.34,8.58,34.67,1.83,2.3,3.63,4.6,2.34,7.07-2.1,4-6,10.24-10.46,17.23-4.93,7.76-9.47,17.7-10.88,27.06-1.2,8,.15,15,3.74,22.47ZM191.26,63c0,4-1.58,10.69,0,14.27.68,1.55,1.76,1.75,3.15.64,2.42-1.93,2-10.07,1.53-14.68-.54-5.63-2.64-11.1-2.64-13.86,7.24,0,23.52,5.5,23.68,14.91,0,2.69-1.64,8.6-2.57,7.35-.8-1.08-.42-2.85-.72-4.51-.77-4.28-5-8.6-9.38-8.9-3.49-.24.31,3.74,1.38,4.13,4.19,1.53,6.42,6.84,2.29,13.59-2.63,3.75-1.5,4.72-.11,4.73s3-1,4.89-2.11,3-.63,3.43.4c7.18,4.48,13.1,16.39,16.11,26.38a46.64,46.64,0,0,1,2.14,13c-.13,7.5-3.92,13.93-7.73,18.48-2,2.42-8.51,2.53-11.67-.71,4.77-1.86,10.74-5.44,11.33-12.16a20.15,20.15,0,0,0-5.67-15.49,28.56,28.56,0,0,0-6.07-4.35c-1.47-1-1.82-3-1.32-3.49.16-2.25.46-4.83.6-6.35s-1.2-2.69-3.73-2.69c0,4.19-1.58,14.57-5.6,24.25-3.23,7.77-8.49,13.31-13.2,17.75a75.62,75.62,0,0,1-10.53,8.89,30.66,30.66,0,0,0-12.11,19.87c-1,7.2,1.41,14.1,5.05,17.14,3.25,2.71,4.17,2.39,7.47,2.62-3.08,1.93-10,6.57-17.33,4.6s-13.55-7.86-12.52-20.26c1-11.41,7.48-24.31,11.35-29.5,5-6.68,10.92-17.6,12.61-17.6,1-.52,2.55-.22,4.25.26a18.16,18.16,0,0,0,17.2-3.57c7-6.2,7.44-18,4.21-17.29-2,3.94-9,9.5-11.55,2.67-.84-1.05-1-7.16,0-8.14,0-1.91,3.15-5.27,2.3-6.12,0-1.33-5.62-1.76-6.54,10.54-.18,2.35.58,8.31,4.12,10.09a11.16,11.16,0,0,0,5.88.9c3.07-.25-1.46,6.73-9.46,7-12.63.34-16.81-7.88-20.27-18.39A70.94,70.94,0,0,1,163,84.48C162.14,76,162,66.2,161.84,66a42.31,42.31,0,0,0-2.58-13.89,27.72,27.72,0,0,0-4.37-8.33C153.37,42,151,41.55,150,42.47c-.77.74-.26,2.37,1,3.83a21,21,0,0,1,3.44,5.83c1.88,4.82,3.83,14.45,1.52,16.75,0,1.1-2.11,3.79-3.76,4.88-1.48,1-1.78-.21-2.19-1.88-.32-1.31-.86-3-1-3.66-1-4.46-6.16-7.61-10.45-8.61-3.86-.9-8.82-1.66-12.37-2.67s-5.62-3-6.17-6.79c-.39-2.75-.3-6.06-.73-9.13a10.18,10.18,0,0,0-1-3.39c-1.67-2.82-3.6-6-1.67-6.47a58.67,58.67,0,0,1,10.8-2,80.89,80.89,0,0,1,10.74-.08,31.24,31.24,0,0,1,16.33,6.43c6,4.52,8.49,11,9,17.42.1,1.29.18,2.48.18,3.46,1,0,1.67.66,2.18,0,1.3-1.55,1.11-10.73.9-16.58-.1-2.8-1.7-5.19-1.83-6.43-.23-2.1,2.19-1.53,5.3.14C179,38.4,191.09,51,191.26,63ZM88,27.7h.43c1.6,1.16,2.25,3.16,3.12,4.65s2,2.46,1.87,3.47S92,37.23,91.28,37.09C87,36.3,88,30.6,88,27.7ZM49.6,7.79a4.3,4.3,0,0,1,2.95,1.08c.55.38,1.45.58,1.33,1.18-.33,1.59-2,1.54-3.17,1-2-.89-3.49-3.31-1.11-3.27Zm27,31.29c0-1.49-.33-2.87.29-3.61,1-1.25,3.16-1.27,5-1a9.11,9.11,0,0,1,3.76,1.34c1.32.89,1.46,1.77-.07,2.37a5,5,0,0,0-2.8,2.19c-.42.77-.37,1.86-.94,2.35s-1.2.18-2-.39a33.87,33.87,0,0,1-3.25-3.25ZM66.87,28.2c2.75-4.06,11.22,2.59,10.16,1.95,2.75,2.75-4,1.92-5,2.3-.33.12-.67.59-1.07.57-.8-.05-.89-.83-1.67-1.35-1.61-1.06-3.55-2.36-2.45-3.47ZM69.4,23c.18,1-1.37,2-4.3,1.88-3.53-.15-6.06-3.34-4.68-4.76a4,4,0,0,1,2.71-.67c2.6.09,6,2.08,6.27,3.55Zm-12-9.15a8,8,0,0,1,2.42,1.23c.36,0,.74,1.9-.73,2.28a4.09,4.09,0,0,1-4-1.26c-1.44-1.72-1-3.51,2.33-2.25ZM198.63,185.16c0,4.74-1.51,10.22-4.12,15.54-5.93,12.1-17.34,19.51-28.64,23.56-4.47,2-3.51,3.16.27,4.13a103.71,103.71,0,0,0,15.51,2.06c-.43,2.37-8.79,3.92-16.22,2.72a20.32,20.32,0,0,1-13.17-7.63c1.51.86,6.85.43,7.13-3.22,5.91-.3,7.12-4.86,4.78-8.54-.54-.85-2.13-.87-2.6-1.62a5.51,5.51,0,0,1-.88-2.8c-.16-3.18-7.91-6.24-10.08,1.15-.63.05-1.09-.07-1.1-.49a6.53,6.53,0,0,1,1.54-2.84c2.16-2.72,3.13-4.65,2.58-6.41-.74-2.32-2.23-3.73-.83-5.61,3.4-4.55,2.89-6.09,8.76-4.07a22.81,22.81,0,0,0,4.34.84,16.46,16.46,0,0,0,11-2c4.82-2.66,10.93-7.87,11.37-11.51.2-1.69-.95-1.5-1.72-1.35-2.27.45-4.89,1.05-7,.51-3.52-.9-5.93-4.61-6.22-10.93-.19-4.19.29-8.79,4.93-14.85,1.69-2.2,4.93-5.46,8.33-4.69,4.31,1,8.43,8.8,10.16,16,2,8.4,1.93,16.51,1.93,22.06Z"
       id="path52" />
    <path
       class="e"
       d="M209.07,255.61a1.68,1.68,0,1,1-1.76,1.68,1.74,1.74,0,0,1,1.76-1.68Z"
       id="path54" />
    <path
       class="e"
       d="M166.4,245.93a1.69,1.69,0,1,1-1.76,1.69,1.73,1.73,0,0,1,1.76-1.69Z"
       id="path56" />
    <path
       class="e"
       d="M166.4,251.63a1.69,1.69,0,1,1-1.76,1.69,1.73,1.73,0,0,1,1.76-1.69Z"
       id="path58" />
    <path
       class="e"
       d="M140.27,245.11l-8.69,3.77s-1,.71-.14,1.15l9.27,4.76a3.91,3.91,0,0,0,3.23.1l9.27-5.16c.74-.41,1-1,.1-1.29s-9.13-3.38-9.72-3.52a4.52,4.52,0,0,0-3.32.19Z"
       id="path60" />
    <path
       class="e"
       d="M118.2,245.83a1.69,1.69,0,1,1-1.77,1.69,1.73,1.73,0,0,1,1.77-1.69Z"
       id="path62" />
    <path
       class="e"
       d="M118.2,251.53a1.69,1.69,0,1,1-1.77,1.68,1.73,1.73,0,0,1,1.77-1.68Z"
       id="path64" />
    <path
       class="e"
       d="M85.05,250.62l.17,5.07s.08,1.44,1.77,1a52.75,52.75,0,0,1,14.44-1.19s1.19-.08,1.19-1.1.17-5.4.17-5.4.08-1.52-1.36-1.52c-4.94,0-10.55,0-15.29,1.69a1.93,1.93,0,0,0-1.09,1.43Z"
       id="path66" />
    <path
       class="e"
       d="M73.69,249.53a1.69,1.69,0,1,1-1.77,1.68,1.73,1.73,0,0,1,1.77-1.68Z"
       id="path68" />
    <path
       class="e"
       d="M74.08,255.23a1.69,1.69,0,1,1-1.76,1.69,1.73,1.73,0,0,1,1.76-1.69Z"
       id="path70" />
    <path
       class="a"
       d="M80.78,72.46a4,4,0,0,0,2.67.58c1.17-.33,2.84-1.5,4-1.67s6-.08,6.84-.25,1.59-.25,1.92.17-.75,1.17-.83,2S95.54,77.72,95,79s-2.09,5-6.17,5.09S84,80.31,83.7,79.23s-.41-3.26-1.17-3.76a26,26,0,0,1-2.25-1.92l.5-1.09Zm7.51,2.42c2.18-.22,3.42,1,2.75,2.68s-1.24,2.67-2.75,2.67a2.71,2.71,0,0,1-2.75-2.67c0-1.48.57-2.46,2.75-2.68Z"
       id="path72" />
  </g>
</svg>
