<?xml version="1.0" encoding="UTF-8" standalone="no"?>
<svg
   width="235.41269"
   height="150.83495"
   viewBox="0 0 235.41269 150.83495"
   version="1.1"
   id="svg45"
   xmlns="http://www.w3.org/2000/svg"
   xmlns:svg="http://www.w3.org/2000/svg"
   xmlns:rdf="http://www.w3.org/1999/02/22-rdf-syntax-ns#"
   xmlns:cc="http://creativecommons.org/ns#"
   xmlns:dc="http://purl.org/dc/elements/1.1/">
  <metadata
     id="metadata49">
    <rdf:RDF>
      <cc:Work
         rdf:about="">
        <dc:format>image/svg+xml</dc:format>
        <dc:type
           rdf:resource="http://purl.org/dc/dcmitype/StillImage" />
      </cc:Work>
    </rdf:RDF>
  </metadata>
  <!-- Generator: Sketch 41.2 (35397) - http://www.bohemiancoding.com/sketch -->
  <title
     id="title2">Main Logo Section</title>
  <desc
     id="desc4">Created with Sketch.</desc>
  <defs
     id="defs11">
    <linearGradient
       x1="0.5"
       y1="3.3360577"
       x2="0.5"
       y2="-0.47037259"
       id="linearGradient-1">
      <stop
         stop-color="#000000"
         stop-opacity="0.023607337"
         offset="0%"
         id="stop6" />
      <stop
         stop-color="#753BBD"
         offset="100%"
         id="stop8" />
    </linearGradient>
  </defs>
  <g
     id="DESKTOP"
     stroke="none"
     stroke-width="1"
     fill="none"
     fill-rule="evenodd"
     transform="translate(-32.999945,-41.335331)">
    <g
       id="Desktop---News-&amp;-Events-Section"
       transform="translate(-53,-70)">
      <g
         id="Main-Logo-Section"
         transform="translate(53,70)">
        <g
           id="MGC-Main-Logo"
           transform="translate(33,41)">
          <g
             id="MGC-Logo-Copy"
             transform="translate(0,0.239643)">
            <path
               d="m 105.81203,35.818761 -0.51888,-4.90942 c -0.0399,-0.359226 -0.0798,-0.718452 -0.11974,-1.117592 -0.0399,-0.359226 -0.0399,-0.758366 -0.0798,-1.117592 -0.0399,0.359226 -0.11974,0.718452 -0.19957,1.117592 -0.0798,0.39914 -0.19957,0.838194 -0.35923,1.277248 l -1.39699,4.749764 h -2.63432 l -1.436902,-4.749764 c -0.119742,-0.439054 -0.239484,-0.878108 -0.319312,-1.277248 -0.119742,-0.39914 -0.159656,-0.758366 -0.239484,-1.117592 0,0.39914 -0.03991,0.758366 -0.07983,1.117592 -0.03991,0.39914 -0.07983,0.758366 -0.07983,1.117592 l -0.558795,4.90942 h -4.350625 l 2.115441,-12.333422 h 4.590117 l 0.8781,3.033463 c 0,0.119742 0.0399,0.239484 0.11974,0.439054 0.35923,1.277248 0.59871,2.354925 0.67854,3.193119 h 0.0798 c 0.0399,-0.518882 0.15966,-1.077678 0.2794,-1.676387 0.15966,-0.59871 0.31931,-1.277248 0.55879,-1.9957 l 0.91803,-2.993549 h 4.55019 l 1.95579,12.333422 z"
               id="Fill-19"
               fill="#001871" />
            <path
               d="m 122.77531,31.388364 h -1.95579 v -2.873807 h 6.8253 c 0.0399,0.239484 0.0399,0.439054 0.0399,0.558796 v 0.319312 c 0,0.718452 -0.0798,1.357075 -0.19957,1.955785 -0.11974,0.558796 -0.31931,1.077678 -0.59871,1.516731 -0.59871,1.077678 -1.4369,1.875958 -2.43475,2.434754 -0.99785,0.558795 -2.11545,0.838193 -3.39269,0.838193 -0.91802,0 -1.79613,-0.159656 -2.59441,-0.478968 -0.79828,-0.279397 -1.47682,-0.758365 -2.07553,-1.357075 -0.59871,-0.59871 -1.07768,-1.317162 -1.39699,-2.075527 -0.31931,-0.79828 -0.47897,-1.636474 -0.47897,-2.554495 0,-0.918022 0.15966,-1.79613 0.47897,-2.554496 0.31931,-0.798279 0.79828,-1.476817 1.39699,-2.075527 0.59871,-0.59871 1.27725,-1.077677 2.07553,-1.357075 0.79828,-0.319312 1.67639,-0.478968 2.59441,-0.478968 1.27724,0 2.39484,0.279398 3.39269,0.838194 0.95793,0.518881 1.79613,1.357075 2.39484,2.394839 l -3.95149,1.476817 c -0.19957,-0.319312 -0.43905,-0.59871 -0.75836,-0.758366 -0.2794,-0.159655 -0.59871,-0.239483 -0.99785,-0.239483 -0.63863,0 -1.15751,0.239483 -1.55665,0.718451 -0.39914,0.518882 -0.59871,1.19742 -0.59871,2.035614 0,0.878107 0.19957,1.556645 0.59871,2.035613 0.39914,0.478968 0.95794,0.718452 1.67639,0.718452 0.39914,0 0.75836,-0.07983 1.03776,-0.279398 0.2794,-0.159656 0.43905,-0.439054 0.47897,-0.758366"
               id="Fill-20"
               fill="#001871" />
            <path
               d="m 141.93419,28.35479 c -0.39914,-0.359226 -0.79828,-0.678538 -1.23734,-0.838194 -0.39914,-0.199569 -0.8781,-0.319311 -1.31716,-0.319311 -0.71845,0 -1.31716,0.239483 -1.75621,0.678537 -0.43906,0.439054 -0.67854,1.037764 -0.67854,1.79613 0,0.718452 0.23948,1.317161 0.63862,1.716301 0.43906,0.439054 0.99785,0.678538 1.71631,0.678538 0.39914,0 0.83819,-0.119742 1.27724,-0.279398 0.43906,-0.19957 0.91802,-0.478968 1.43691,-0.878108 l -0.11975,4.630023 c -0.47896,0.19957 -0.95793,0.359225 -1.4369,0.439053 -0.51888,0.119742 -0.99785,0.159656 -1.47682,0.159656 -0.59871,0 -1.1575,-0.07983 -1.7163,-0.199569 -0.55879,-0.119743 -1.07768,-0.319312 -1.51673,-0.558796 -1.07768,-0.638624 -1.91587,-1.436904 -2.47467,-2.394839 -0.55879,-0.957936 -0.83819,-2.075528 -0.83819,-3.312861 0,-0.918022 0.15966,-1.79613 0.47897,-2.554495 0.31931,-0.79828 0.75836,-1.476818 1.39699,-2.075528 0.59871,-0.638623 1.31716,-1.077677 2.11544,-1.396989 0.79828,-0.319312 1.67639,-0.478968 2.63432,-0.478968 0.47897,0 0.95794,0.07983 1.47682,0.159656 0.47897,0.119742 0.95793,0.279398 1.39699,0.478968 z"
               id="Fill-21"
               fill="#001871" />
            <path
               d="m 71.446034,39.331136 c 0.03992,-12.652733 0.07983,-25.305467 0.07983,-37.9582002 7.344173,2.6343231 15.007658,7.5437434 21.992606,7.8630552 8.74116,-0.3193118 16.5643,-8.94073278 24.94624,-9.14030271 8.06262,0.19956993 15.92568,8.82099091 23.54925,9.41970061 7.26435,0.19957 14.64843,-6.2664957 21.95269,-9.41970061 V 39.331136 l -8.38193,3.352775 c -0.0798,-9.499529 0.0798,-20.356133 0,-29.815747 -3.712,2.514581 -8.66134,5.468216 -13.37119,5.468216 -7.82314,0 -15.6862,-8.6214211 -23.74882,-8.8209911 -8.38194,0.19957 -16.20508,8.8209911 -24.866412,8.8209911 -3.911571,0 -8.421851,-2.155355 -12.532992,-4.70985 l -0.19957,29.616177 z"
               id="Fill-22"
               fill="#001871" />
            <path
               d="m 117.70629,51.305443 c 8.62142,0.79828 17.24284,7.863055 25.90417,8.621421 8.62143,-0.758366 16.44457,-8.621421 25.1059,-8.621421 9.4197,0 18.8394,8.621421 28.2591,8.621421 12.533,0 24.30762,-15.686197 38.43717,-19.597767 -12.53299,-1.59656 -25.90417,7.823141 -38.43717,7.823141 -9.4197,0 -18.8394,-7.823141 -28.2591,-7.823141 -8.66133,0 -16.48447,7.823141 -25.1059,7.823141 -8.66133,0 -17.28275,-7.823141 -25.90417,-7.823141 -8.62142,0 -17.24284,7.823141 -25.864264,7.823141 -8.661335,0 -16.484476,-7.823141 -25.105897,-7.823141 -9.419701,0 -18.839402,7.823141 -28.259102,7.823141 -12.572906,0 -25.904177,-9.419701 -38.477082436093,-7.823141 C 14.129496,44.240667 25.904121,59.926864 38.477027,59.926864 c 9.4197,0 18.839401,-8.621421 28.259102,-8.621421 8.621421,0 16.444562,7.863055 25.105897,8.621421 8.621424,-0.758366 17.242844,-7.823141 25.864264,-8.621421"
               id="Fill-23"
               fill="#753bbd" />
            <path
               d="m 117.70629,71.70149 c -8.62142,0.798279 -17.24284,8.661335 -25.864264,8.661335 -7.863055,0 -16.484476,-8.661335 -24.347531,-8.661335 -8.621421,0 -18.839402,7.064775 -28.259102,7.064775 -7.823142,0 -18.041122,-7.064775 -21.194327,-14.887917 7.064776,3.113291 14.129551,5.468216 21.194327,5.468216 8.661334,0 18.081035,-8.62142 27.500736,-8.62142 8.621421,0 17.242842,8.62142 25.105897,8.62142 7.823141,0 16.484474,-8.62142 25.864264,-8.62142 9.4197,0 18.04112,8.62142 25.90417,8.62142 7.82315,0 16.44457,-8.62142 25.1059,-8.62142 9.4197,0 18.8394,8.62142 27.46082,8.62142 7.06478,0 14.12956,-2.354925 21.19433,-5.468216 -3.1532,7.823142 -13.33127,14.887917 -21.19433,14.887917 -9.4197,0 -19.63768,-7.064775 -28.2591,-7.064775 -7.86305,0 -16.48447,8.661335 -24.30762,8.661335 -8.66133,0 -17.28275,-7.863056 -25.90417,-8.661335"
               id="Fill-24"
               fill="#001871" />
            <path
               d="m 117.70629,92.895816 c -8.98065,0 -16.04542,7.863054 -25.465124,8.621424 -8.661335,-0.75837 -18.839402,-8.621424 -27.500736,-9.37979 -5.468217,0 -11.774626,3.911571 -17.242842,3.911571 -3.951485,0 -9.419701,-2.354925 -11.774626,-6.266496 10.178066,2.354925 21.952692,-7.863055 32.968952,-8.661335 7.823141,0.79828 15.686197,8.661335 23.549252,8.661335 8.621424,0 17.242844,-8.661335 25.465124,-8.661335 8.22228,0 16.8437,8.661335 25.50503,8.661335 7.82315,0 15.6862,-7.863055 23.54926,-8.661335 10.97634,0.79828 22.75097,11.01626 32.96895,8.661335 -2.35493,3.911571 -7.86306,6.266496 -11.77463,6.266496 -5.50813,0 -11.77462,-3.911571 -17.28275,-3.911571 -8.62142,0.758366 -18.8394,8.62142 -27.46083,9.37979 -9.4197,-0.75837 -16.48447,-8.621424 -25.50503,-8.621424"
               id="Fill-25"
               fill="#009966" />
            <path
               d="M 117.70629,150.93064 C 94.955317,139.99421 85.535616,117.24324 77.712475,97.605555 c 3.91157,2.354926 8.621421,3.911575 11.774626,4.709855 7.064775,15.68619 14.887919,29.05738 28.219189,38.47708 13.33127,-9.4197 21.19432,-22.79089 28.2591,-38.47708 3.11329,-0.79828 7.82314,-2.354929 11.77463,-4.709855 -7.86306,19.637685 -17.28276,42.388655 -40.03373,53.325085"
               id="Fill-26"
               fill="#001871" />
          </g>
        </g>
      </g>
    </g>
  </g>
</svg>
