<?xml version="1.0" encoding="UTF-8" standalone="no"?>
<svg
   width="13.406613mm"
   height="19.862623mm"
   viewBox="0 0 13.406613 19.862623"
   version="1.1"
   id="svg804361"
   xmlns="http://www.w3.org/2000/svg"
   xmlns:svg="http://www.w3.org/2000/svg"
   xmlns:rdf="http://www.w3.org/1999/02/22-rdf-syntax-ns#"
   xmlns:cc="http://creativecommons.org/ns#"
   xmlns:dc="http://purl.org/dc/elements/1.1/">
  <defs
     id="defs804355">
    <clipPath
       id="clipPath804387"
       clipPathUnits="userSpaceOnUse">
      <path
         id="path804385"
         d="M 0,0 H 518.74 V 694.488 H 0 Z" />
    </clipPath>
    <clipPath
       id="clipPath804395"
       clipPathUnits="userSpaceOnUse">
      <path
         id="path804393"
         d="M -23.1732,567.509 H 497.098 V 466.102 H -23.1732 Z" />
    </clipPath>
    <clipPath
       id="clipPath804419"
       clipPathUnits="userSpaceOnUse">
      <path
         id="path804417"
         d="M 0,0 H 518.74 V 694.488 H 0 Z" />
    </clipPath>
    <clipPath
       id="clipPath804427"
       clipPathUnits="userSpaceOnUse">
      <path
         id="path804425"
         d="M 65.9724,461.333 H 527.74 V 431.365 H 65.9724 Z" />
    </clipPath>
    <clipPath
       id="clipPath804443"
       clipPathUnits="userSpaceOnUse">
      <path
         id="path804441"
         d="M -23.1732,553.278 H 28.8386 V 480.333 H -23.1732 Z" />
    </clipPath>
    <clipPath
       id="clipPath804607"
       clipPathUnits="userSpaceOnUse">
      <path
         id="path804605"
         d="m 36.012,573.42 h 90.426 v 90.425 H 36.012 Z" />
    </clipPath>
    <clipPath
       id="clipPath804945"
       clipPathUnits="userSpaceOnUse">
      <path
         id="path804943"
         d="m 288.056,546.277 h 176.465 v -94.78 H 288.056 Z" />
    </clipPath>
  </defs>
  <metadata
     id="metadata804358">
    <rdf:RDF>
      <cc:Work
         rdf:about="">
        <dc:format>image/svg+xml</dc:format>
        <dc:type
           rdf:resource="http://purl.org/dc/dcmitype/StillImage" />
        <dc:title />
      </cc:Work>
    </rdf:RDF>
  </metadata>
  <g
     id="layer1"
     transform="translate(-286.85287,-153.01255)">
    <g
       id="g804601"
       transform="matrix(0.35277777,0,0,-0.35277777,264.93158,386.01235)">
      <g
         id="g804603"
         clip-path="url(#clipPath804607)">
        <g
           id="g804609"
           transform="translate(80.3777,643.6639)">
          <path
             d="M 0,0 C 0.284,0.15 0.537,0.303 0.721,0.452 0.907,0.303 1.165,0.148 1.456,-0.003 Z M -6.154,0.537 C -6.171,0.516 -6.195,0.518 -6.203,0.485 -6.208,0.467 -6.209,0.448 -6.209,0.429 c 0,-0.111 0.068,-0.251 0.199,-0.415 L -8.78,0.02 c 0.786,0.425 1.734,0.74 2.626,0.517 m 16.456,-0.56 -2.871,0.006 C 7.578,0.162 7.655,0.311 7.655,0.429 7.655,0.448 7.653,0.467 7.648,0.485 7.64,0.518 7.617,0.516 7.599,0.537 8.52,0.767 9.501,0.424 10.302,-0.023 m 2.55,-0.006 C 12.533,0.814 11.1,1.732 10.459,1.968 8.821,2.575 7.662,2.615 7.018,2.093 6.56,1.72 6.49,1.166 6.49,0.863 6.49,0.743 6.501,0.666 6.503,0.652 6.492,0.667 6.293,0.429 6.242,0.368 6.117,0.435 5.46,0.767 4.946,0.795 c 0.011,0.062 0.02,0.124 0.02,0.18 0,0.368 -0.167,0.591 -0.217,0.654 C 4.978,1.818 5.05,2.04 5.05,2.213 5.05,2.375 5.004,2.491 5.001,2.493 5.016,2.47 6.819,5.623 7.229,7.479 L 6.751,8.088 c 0,0 -4.687,6.006 -4.688,6.007 l 0.007,1.807 c 0,0 -0.456,-0.095 -0.591,-0.122 0.038,0.154 0.254,1.028 0.254,1.028 H 1.657 -0.281 c 0,0 0.246,-0.857 0.289,-1.009 -0.138,0.021 -0.633,0.1 -0.633,0.1 l 0.003,-1.805 C -0.636,14.1 -5.737,7.556 -5.737,7.556 L -5.785,7.492 C -5.462,5.587 -3.547,2.478 -3.527,2.447 -3.53,2.472 -3.582,2.362 -3.582,2.198 c 0,-0.163 0.068,-0.379 0.276,-0.566 -0.051,-0.053 -0.166,-0.193 -0.166,-0.499 0,-0.109 0.03,-0.247 0.073,-0.392 -0.521,-0.023 -1.097,-0.209 -1.3,-0.374 -0.056,0.05 -0.378,0.337 -0.378,0.337 0.026,-0.017 0.203,0.929 -0.441,1.475 -0.613,0.522 -1.74,0.485 -3.349,-0.111 -0.627,-0.231 -2.064,-1.198 -2.485,-2.042 l -4.15,0.009 v -0.167 c 0,-0.064 -0.012,-6.44 0.429,-11.924 0.557,-9.952 5.848,-18.32 15.725,-24.865 l 0.082,-0.056 0.083,0.053 c 9.801,6.296 15.238,14.873 15.722,24.804 0.47,5.474 0.49,11.851 0.49,11.914 v 0.168 z"
             style="fill:#231f20;fill-opacity:1;fill-rule:nonzero;stroke:none"
             id="path804611" />
        </g>
        <g
           id="g804613"
           transform="translate(93.3311,643.3004)">
          <path
             d="M 0,0 C 0,-0.015 0.004,-0.03 0.003,-0.045 L 0,-0.096 -0.052,-0.103 c 0,0 -0.484,-0.052 -0.49,-0.023 -0.004,-0.009 -0.312,-0.877 -0.312,-0.877 l -0.069,0.069 c -0.01,0.01 -0.479,0.473 -1.176,0.939 l -3.69,0.008 c -0.036,-0.034 -0.073,-0.068 -0.113,-0.103 -0.022,-0.025 -0.503,-0.525 -1.813,-0.647 -0.576,-0.052 -0.912,-0.003 -1.267,0.097 -0.297,0.081 -1.044,0.343 -1.772,0.664 l -2.858,0.007 c -0.732,-0.322 -1.484,-0.581 -1.791,-0.657 -0.369,-0.093 -0.659,-0.149 -1.265,-0.091 -1.315,0.13 -1.793,0.636 -1.809,0.653 -0.041,0.036 -0.078,0.071 -0.115,0.106 l -3.69,0.008 c -0.698,-0.462 -1.169,-0.923 -1.18,-0.934 l -0.069,-0.068 -0.031,0.091 c 0,0 -0.234,0.667 -0.234,0.746 0,0.004 10e-4,0.006 0.003,0.007 -0.008,0 -0.592,0.067 -0.592,0.067 l 0.002,0.057 c 0,0.013 0.005,0.026 0.006,0.039 l -3.764,0.008 c 10e-4,-0.833 0.018,-6.634 0.429,-11.731 0.55,-9.812 5.765,-18.068 15.496,-24.547 9.652,6.23 15.01,14.689 15.489,24.483 0.436,5.089 0.483,10.89 0.487,11.724 z"
             style="fill:#c9bd88;fill-opacity:1;fill-rule:evenodd;stroke:none"
             id="path804615" />
        </g>
        <g
           id="g804617"
           transform="translate(87.389,643.2249)">
          <path
             d="M 0,0 C -0.002,-0.001 -0.002,-0.002 -0.003,-0.003 L 0.001,0.001 0,0"
             style="fill:#100f0d;fill-opacity:1;fill-rule:nonzero;stroke:none"
             id="path804619" />
        </g>
        <g
           id="g804621"
           transform="translate(88.662,628.9132)">
          <path
             d="m 0,0 c -3.755,0 -3.811,-1.016 -7.578,-1.016 -3.769,0 -3.855,1.016 -7.665,1.016 -2.437,0 -4.847,-0.387 -6.272,-0.664 0.173,-0.977 0.386,-1.923 0.635,-2.841 1.446,0.235 3.531,0.497 5.637,0.497 3.812,0 3.81,-0.893 7.661,-0.893 3.851,0 3.771,0.893 7.582,0.893 2.158,0 4.315,-0.276 5.78,-0.515 0.242,0.92 0.448,1.866 0.61,2.841 C 4.951,-0.402 2.451,0 0,0"
             style="fill:#004491;fill-opacity:1;fill-rule:evenodd;stroke:none"
             id="path804623" />
        </g>
        <g
           id="g804625"
           transform="translate(66.7267,631.2509)">
          <path
             d="m 0,0 c 1.324,0.25 4,0.686 6.709,0.686 3.811,0 3.81,-0.894 7.661,-0.894 3.851,0 3.77,0.894 7.582,0.894 2.733,0 5.468,-0.445 6.793,-0.694 0.011,0.203 0.026,0.403 0.034,0.607 0.425,6.058 0.425,10.26 0.425,10.26 H -0.458 c 0,0 -0.002,-4.202 0.419,-10.26 C -0.029,0.396 -0.014,0.2 0,0"
             style="fill:#004491;fill-opacity:1;fill-rule:evenodd;stroke:none"
             id="path804627" />
        </g>
        <g
           id="g804629"
           transform="translate(88.6094,616.859)">
          <path
             d="m 0,0 c -3.754,0 -3.81,-1.018 -7.576,-1.018 -3.769,0 -3.855,1.018 -7.665,1.018 -0.31,0 -0.621,-0.009 -0.927,-0.018 2.397,-3.381 5.375,-5.767 8.641,-8.324 3.304,2.533 6.291,4.924 8.676,8.315 C 0.768,-0.01 0.384,0 0,0"
             style="fill:#004491;fill-opacity:1;fill-rule:evenodd;stroke:none"
             id="path804631" />
        </g>
        <g
           id="g804633"
           transform="translate(81.0595,621.8713)">
          <path
             d="m 0,0 c -3.768,0 -3.854,1.017 -7.664,1.017 -1.577,0 -3.144,-0.162 -4.439,-0.352 0.397,-0.973 0.835,-1.916 1.317,-2.82 0.981,0.097 2.049,0.164 3.122,0.164 3.811,0 3.81,-0.892 7.66,-0.892 3.851,0 3.77,0.892 7.581,0.892 1.139,0 2.278,-0.077 3.314,-0.184 0.474,0.905 0.905,1.844 1.293,2.816 C 10.841,0.839 9.199,1.017 7.577,1.017 3.824,1.017 3.766,0 0,0"
             style="fill:#004491;fill-opacity:1;fill-rule:evenodd;stroke:none"
             id="path804635" />
        </g>
        <g
           id="g804637"
           transform="translate(84.5763,646.8632)">
          <path
             d="M 0,0 C -0.599,0.294 -2.066,0.531 -2.622,0.531 V 8.493 L 1.209,3.591 C 1.209,3.591 1.005,1.566 0,0"
             style="fill:#bf0c26;fill-opacity:1;fill-rule:nonzero;stroke:none"
             id="path804639" />
        </g>
        <g
           id="g804641"
           transform="translate(77.6223,646.8632)">
          <path
             d="m 0,0 c 0.599,0.294 2.065,0.531 2.622,0.531 v 7.97 L -1.205,3.587 c 0,0 0.199,-2.021 1.205,-3.587"
             style="fill:#bf0c26;fill-opacity:1;fill-rule:nonzero;stroke:none"
             id="path804643" />
        </g>
        <path
           d="m 83.771,650.177 h -0.236 v 0.917 h 0.236 z"
           style="fill:#ffffff;fill-opacity:1;fill-rule:nonzero;stroke:none"
           id="path804645" />
        <path
           d="m 84.127,649.822 h 0.56 v -0.237 h -0.56 z"
           style="fill:#ffffff;fill-opacity:1;fill-rule:nonzero;stroke:none"
           id="path804647" />
        <g
           id="g804649"
           transform="translate(82.9734,649.9396)">
          <path
             d="M 0,0 V -0.117 H 0.798 V -1.863 H 0.916 V -2.099 H 0.562 v 1.744 H -0.237 V 0 Z"
             style="fill:#ffffff;fill-opacity:1;fill-rule:nonzero;stroke:none"
             id="path804651" />
        </g>
        <path
           d="m 78.438,650.177 h 0.237 v 0.917 h -0.237 z"
           style="fill:#ffffff;fill-opacity:1;fill-rule:nonzero;stroke:none"
           id="path804653" />
        <path
           d="m 78.085,649.822 h -0.563 v -0.237 h 0.563 z"
           style="fill:#ffffff;fill-opacity:1;fill-rule:nonzero;stroke:none"
           id="path804655" />
        <g
           id="g804657"
           transform="translate(79.2382,649.9396)">
          <path
             d="m 0,0 v -0.117 h -0.8 v -1.746 h -0.117 v -0.236 h 0.354 v 1.744 H 0.236 V 0 Z"
             style="fill:#ffffff;fill-opacity:1;fill-rule:nonzero;stroke:none"
             id="path804659" />
        </g>
        <g
           id="g804661"
           transform="translate(79.5623,644.3723)">
          <path
             d="m 0,0 c 0,0 -3.523,-0.035 -4,-0.775 -0.563,-0.868 2.269,-1.429 5.127,0.673 0,0 -2.627,-1.216 -3.362,-0.554 C -2.572,-0.353 0,0 0,0"
             style="fill:#c9bd88;fill-opacity:1;fill-rule:nonzero;stroke:none"
             id="path804663" />
        </g>
        <g
           id="g804665"
           transform="translate(82.6405,644.3674)">
          <path
             d="m 0,0 c 0,0 3.263,-0.051 4.004,-0.774 0.741,-0.724 -2.272,-1.431 -5.132,0.672 0,0 2.629,-1.217 3.364,-0.554 C 2.574,-0.353 0,0 0,0"
             style="fill:#c9bd88;fill-opacity:1;fill-rule:nonzero;stroke:none"
             id="path804667" />
        </g>
        <g
           id="g804669"
           transform="translate(81.127,646.2201)">
          <path
             d="M 0,0 C 4.098,0 3.861,-0.852 3.861,-0.852 4.776,0.392 1.86,0.876 -0.028,0.876 -1.921,0.876 -4.805,0.251 -3.901,-0.852 -3.901,-0.852 -4.096,0 0,0"
             style="fill:#c9bd88;fill-opacity:1;fill-rule:nonzero;stroke:none"
             id="path804671" />
        </g>
        <g
           id="g804673"
           transform="translate(81.0989,644.7736)">
          <path
             d="M 0,0 C 4.097,0 3.897,-0.38 3.897,-0.38 4.42,1.076 1.536,1.111 0,1.111 -1.566,1.111 -4.462,0.978 -3.869,-0.365 -3.869,-0.365 -4.094,0 0,0"
             style="fill:#c9bd88;fill-opacity:1;fill-rule:nonzero;stroke:none"
             id="path804675" />
        </g>
        <g
           id="g804677"
           transform="translate(80.9821,658.6899)">
          <path
             d="m 0,0 -0.972,-0.479 v 1.07 L 0,0.354 Z"
             style="fill:#c9bd88;fill-opacity:1;fill-rule:nonzero;stroke:none"
             id="path804679" />
        </g>
        <g
           id="g804681"
           transform="translate(81.2174,658.6899)">
          <path
             d="m 0,0 0.972,-0.479 v 1.07 L 0,0.354 Z"
             style="fill:#c9bd88;fill-opacity:1;fill-rule:nonzero;stroke:none"
             id="path804683" />
        </g>
        <g
           id="g804685"
           transform="translate(80.6675,658.2398)">
          <path
             d="m 0,0 -5.693,-7.278 -0.072,0.208 5.346,6.848 z"
             style="fill:#c9bd88;fill-opacity:1;fill-rule:nonzero;stroke:none"
             id="path804687" />
        </g>
        <g
           id="g804689"
           transform="translate(81.5354,658.2362)">
          <path
             d="m 0,0 5.689,-7.274 0.072,0.208 -5.347,6.847 z"
             style="fill:#c9bd88;fill-opacity:1;fill-rule:nonzero;stroke:none"
             id="path804691" />
        </g>
        <g
           id="g804693"
           transform="translate(81.0988,660.201)">
          <path
             d="M 0,0 H 0.673 L 0,-1.088 -0.671,0 Z"
             style="fill:#c9bd88;fill-opacity:1;fill-rule:nonzero;stroke:none"
             id="path804695" />
        </g>
        <g
           id="g804697"
           transform="translate(75.5414,649.3378)">
          <path
             d="m 0,0 0.662,0.852 c 0,0 0.307,-2.133 1.223,-3.482 L 1.495,-2.942 C 0.659,-1.755 0,0 0,0"
             style="fill:#c9bd88;fill-opacity:1;fill-rule:nonzero;stroke:none"
             id="path804699" />
        </g>
        <g
           id="g804701"
           transform="translate(87.0726,650.5471)">
          <path
             d="m 0,0 -5.974,7.639 -5.972,-7.637 0.297,-0.901 0.448,0.586 -0.011,0.917 0.717,-0.013 h 0.002 l 0.336,0.43 V 1.933 L -9.45,1.925 h 0.002 l 0.338,0.443 -0.006,0.943 0.75,-0.002 h 0.003 l 0.296,0.377 v 0.939 h 0.734 0.002 l 0.323,0.414 v 0.916 l 0.713,-0.004 h 0.002 l 0.319,0.412 0.32,-0.412 h 0.002 L -4.94,5.955 V 5.039 l 0.325,-0.414 h 0.002 0.734 V 3.686 l 0.296,-0.377 h 0.002 l 0.75,0.002 -0.006,-0.943 0.339,-0.443 h 0.002 l 0.707,0.008 V 1.021 l 0.337,-0.43 h 10e-4 l 0.717,0.013 -0.011,-0.917 0.414,-0.544 z"
             style="fill:#c9bd88;fill-opacity:1;fill-rule:nonzero;stroke:none"
             id="path804703" />
        </g>
        <g
           id="g804705"
           transform="translate(86.599,649.4102)">
          <path
             d="m 0,0 -0.588,0.75 c 0,0 -0.219,-2.082 -1.232,-3.451 l 0.401,-0.317 C -0.582,-1.833 0,0 0,0"
             style="fill:#c9bd88;fill-opacity:1;fill-rule:nonzero;stroke:none"
             id="path804707" />
        </g>
        <g
           id="g804709"
           transform="translate(74.3226,644.4971)">
          <path
             d="m 0,0 c -0.628,0.326 -2.619,0.329 -4.361,-1.602 0,0 -0.046,0.556 -0.123,0.712 0,0 -0.278,-0.018 -0.471,-0.041 0.307,0.96 3.249,2.881 4.949,2.14 0,0 0.65,-0.269 0.61,-1.274 0,0 -0.583,-0.46 -0.604,0.065"
             style="fill:#c9bd88;fill-opacity:1;fill-rule:nonzero;stroke:none"
             id="path804711" />
        </g>
        <g
           id="g804713"
           transform="translate(87.843,644.4962)">
          <path
             d="m 0,0 c 0.629,0.326 2.621,0.329 4.362,-1.601 0,0 0.045,0.554 0.123,0.709 0,0 0.278,-0.017 0.471,-0.04 0.054,0.692 -3.07,2.876 -5.048,2.015 0,0 -0.551,-0.143 -0.512,-1.149 0,0 0.588,-0.281 0.604,0.066"
             style="fill:#c9bd88;fill-opacity:1;fill-rule:nonzero;stroke:none"
             id="path804715" />
        </g>
        <g
           id="g804717"
           transform="translate(94.0938,638.3904)">
          <path
             d="m 0,0 -2.105,-0.143 -0.71,2.084 -0.386,0.386 -0.47,-2.774 -2.731,0.447 0.386,-0.386 1.979,-1.439 -1.141,-1.942 0.386,-0.386 1.977,1.439 1.978,-1.439 -0.757,2.328 1.98,1.439 z"
             style="fill:#00325d;fill-opacity:1;fill-rule:nonzero;stroke:none"
             id="path804719" />
        </g>
        <g
           id="g804721"
           transform="translate(84.3007,638.3904)">
          <path
             d="m 0,0 -2.105,-0.143 -0.71,2.084 -0.386,0.386 -0.47,-2.774 -2.731,0.447 0.386,-0.386 1.979,-1.439 -1.142,-1.942 0.387,-0.386 1.977,1.439 1.978,-1.439 -0.758,2.328 1.981,1.439 z"
             style="fill:#00325d;fill-opacity:1;fill-rule:nonzero;stroke:none"
             id="path804723" />
        </g>
        <g
           id="g804725"
           transform="translate(74.5073,638.3904)">
          <path
             d="m 0,0 -2.105,-0.143 -0.71,2.084 -0.386,0.386 -0.47,-2.774 -2.731,0.447 0.386,-0.386 1.979,-1.439 -1.142,-1.942 0.387,-0.386 1.977,1.439 1.978,-1.439 -0.758,2.328 1.981,1.439 z"
             style="fill:#00325d;fill-opacity:1;fill-rule:nonzero;stroke:none"
             id="path804727" />
        </g>
        <g
           id="g804729"
           transform="translate(90.8926,636.0621)">
          <path
             d="M 0,0 1.978,-1.438 1.221,0.89 3.201,2.328 H 0.753 L 0,4.656 -0.753,2.328 H -3.201 L -1.222,0.89 -1.977,-1.438 Z"
             style="fill:#bf0c26;fill-opacity:1;fill-rule:nonzero;stroke:none"
             id="path804731" />
        </g>
        <g
           id="g804733"
           transform="translate(81.0993,636.0621)">
          <path
             d="M 0,0 1.978,-1.438 1.223,0.89 3.202,2.328 H 0.755 L 0,4.656 -0.752,2.328 H -3.201 L -1.22,0.89 -1.977,-1.438 Z"
             style="fill:#bf0c26;fill-opacity:1;fill-rule:nonzero;stroke:none"
             id="path804735" />
        </g>
        <g
           id="g804737"
           transform="translate(71.3068,636.0621)">
          <path
             d="M 0,0 1.977,-1.438 1.222,0.89 3.201,2.328 H 0.755 L 0,4.656 -0.753,2.328 h -2.448 l 1.98,-1.438 -0.755,-2.328 z"
             style="fill:#bf0c26;fill-opacity:1;fill-rule:nonzero;stroke:none"
             id="path804739" />
        </g>
        <g
           id="g804741"
           transform="translate(81.6846,655.4639)">
          <path
             d="M 0,0 V 0.237 L -0.587,0.983 -1.128,0.291 V -8.071 H 0 V -7.3 L -0.594,-6.885 0,-6.526 v 0.878 L -0.594,-5.289 0,-4.929 V -3.99 L -0.594,-3.63 0,-3.271 v 0.883 L -0.594,-2.027 0,-1.669 v 0.898 L -0.594,-0.412 0,-0.067 Z"
             style="fill:#c9bd88;fill-opacity:1;fill-rule:nonzero;stroke:none"
             id="path804743" />
        </g>
        <g
           id="g804745"
           transform="translate(92.8421,610.1832)">
          <path
             d="M 0,0 C 0,0.013 0.003,0.027 0.005,0.039 0.003,0.026 0.003,0.011 0,-0.002 Z"
             style="fill:#100f0d;fill-opacity:1;fill-rule:evenodd;stroke:none"
             id="path804747" />
        </g>
        <g
           id="g804749"
           transform="translate(100.1421,609.4014)">
          <path
             d="m 0,0 c -0.109,1.805 -0.439,3.167 -0.928,3.836 -0.496,0.685 -6.789,0.066 -8.976,-0.882 -0.766,-0.333 -1.112,-0.716 -1.031,-1.137 0.185,-0.959 0.308,-1.632 0.377,-2.21 -2.06,-0.504 -4.847,-0.753 -8.415,-0.753 -3.502,0 -6.394,0.336 -8.465,0.82 0.072,0.563 0.192,1.221 0.369,2.142 0.082,0.421 -0.264,0.805 -1.028,1.136 -2.186,0.949 -8.48,1.57 -8.979,0.884 -0.489,-0.669 -0.817,-2.033 -0.927,-3.836 0,-0.005 0.003,-0.01 0.004,-0.016 0,-0.01 -0.002,-0.02 -10e-4,-0.03 l 0.015,-0.073 c 0.079,-0.451 0.245,-1.388 3.227,-1.402 0.062,0 0.117,0.032 0.147,0.086 0.03,0.053 0.028,0.119 -0.004,0.171 -0.229,0.36 -0.355,0.807 -0.419,1.283 1.106,-0.128 2.409,-0.381 3.677,-0.706 -0.12,-0.689 -0.198,-1.262 -0.297,-2.15 -0.005,-0.046 0.009,-0.093 0.04,-0.129 1.272,-1.462 5.761,-2.267 12.641,-2.267 6.535,0 10.785,0.774 12.633,2.301 0.046,0.037 0.067,0.094 0.06,0.152 -0.114,0.842 -0.198,1.435 -0.325,2.103 1.255,0.32 2.543,0.569 3.637,0.695 -0.064,-0.475 -0.191,-0.922 -0.419,-1.282 -0.034,-0.052 -0.035,-0.117 -0.005,-0.171 0.03,-0.054 0.085,-0.087 0.146,-0.085 2.984,0.013 3.149,0.95 3.227,1.402 l 0.015,0.072 c 0.002,0.009 -0.001,0.018 0,0.028 C -0.004,-0.012 0,-0.006 0,0"
             style="fill:#231f20;fill-opacity:1;fill-rule:evenodd;stroke:none"
             id="path804751" />
        </g>
        <g
           id="g804753"
           transform="translate(92.902,610.0751)">
          <path
             d="m 0,0 c 0.326,-1.383 0.439,-2.117 0.613,-3.396 -1.8,-1.422 -6.058,-2.176 -12.346,-2.176 -6.613,0 -11.09,0.77 -12.337,2.112 0.148,1.315 0.26,1.974 0.553,3.444 1.52,-1.246 6.331,-2.14 11.784,-2.14 5.986,0 9.817,0.712 11.733,2.156"
             style="fill:#9b1627;fill-opacity:1;fill-rule:evenodd;stroke:none"
             id="path804755" />
        </g>
        <g
           id="g804757"
           transform="translate(98.9481,613.0357)">
          <path
             d="m 0,0 c -0.449,0.395 -6.899,0 -8.928,-1.162 -0.224,-0.129 -0.552,-0.333 -0.485,-0.529 0.149,-0.381 1.079,-0.196 1.668,-0.093 0.804,0.141 1.715,0.302 1.971,-0.863 v -0.004 c 0.126,-0.524 0.221,-0.949 0.3,-1.338 2.536,0.646 5.251,1.013 6.308,0.592 C 0.716,-1.812 0.418,-0.572 0,0"
             style="fill:#9b1627;fill-opacity:1;fill-rule:evenodd;stroke:none"
             id="path804759" />
        </g>
        <g
           id="g804761"
           transform="translate(69.1062,610.3848)">
          <path
             d="M 0,0 C 0,0.001 0.002,0.002 0.002,0.004 0.257,1.169 1.168,1.009 1.972,0.867 2.56,0.763 3.526,0.58 3.638,0.96 3.681,1.171 3.379,1.361 3.155,1.489 1.125,2.651 -5.325,3.045 -5.769,2.656 -6.191,2.08 -6.488,0.839 -6.608,-0.746 c 1.063,0.424 3.799,0.05 6.345,-0.602 C -0.192,-0.967 -0.108,-0.538 0,0"
             style="fill:#9b1627;fill-opacity:1;fill-rule:evenodd;stroke:none"
             id="path804763" />
        </g>
        <g
           id="g804765"
           transform="translate(71.1684,608.1855)">
          <path
             d="M 0,0 0.386,-0.109 0.4,-1.047 0.405,-1.048 0.892,-0.252 1.279,-0.36 0.261,-1.911 0.084,-1.861 Z"
             style="fill:#ffffff;fill-opacity:1;fill-rule:nonzero;stroke:none"
             id="path804767" />
        </g>
        <g
           id="g804769"
           transform="translate(72.663,607.7801)">
          <path
             d="M 0,0 0.995,-0.207 0.934,-0.502 0.326,-0.376 0.244,-0.774 0.809,-0.89 0.748,-1.186 0.183,-1.068 0.094,-1.494 0.724,-1.624 0.663,-1.92 -0.355,-1.708 Z"
             style="fill:#ffffff;fill-opacity:1;fill-rule:nonzero;stroke:none"
             id="path804771" />
        </g>
        <g
           id="g804773"
           transform="translate(74.3425,606.7463)">
          <path
             d="M 0,0 C 0.131,-0.02 0.223,0.038 0.243,0.174 0.264,0.311 0.2,0.38 0.056,0.402 L -0.062,0.42 -0.124,0.019 Z M -0.407,0.778 0.155,0.691 C 0.508,0.637 0.679,0.407 0.636,0.124 0.606,-0.07 0.501,-0.18 0.284,-0.235 0.424,-0.344 0.426,-0.74 0.516,-1.127 l -0.407,0.062 -0.043,0.337 c -0.051,0.39 -0.072,0.424 -0.235,0.449 l -0.112,-0.726 -0.391,0.06 z"
             style="fill:#ffffff;fill-opacity:1;fill-rule:nonzero;stroke:none"
             id="path804775" />
        </g>
        <g
           id="g804777"
           transform="translate(75.7479,605.8415)">
          <path
             d="M 0,0 C 0.183,-0.02 0.297,0.104 0.342,0.521 0.375,0.821 0.354,1.075 0.12,1.101 -0.094,1.124 -0.185,0.923 -0.222,0.582 -0.26,0.237 -0.216,0.024 0,0 M 0.157,1.441 C 0.48,1.406 0.815,1.125 0.744,0.474 0.67,-0.204 0.258,-0.373 -0.037,-0.341 c -0.335,0.037 -0.656,0.332 -0.585,0.983 0.064,0.589 0.441,0.836 0.779,0.799"
             style="fill:#ffffff;fill-opacity:1;fill-rule:nonzero;stroke:none"
             id="path804779" />
        </g>
        <g
           id="g804781"
           transform="translate(77.6766,607.1)">
          <path
             d="m 0,0 0.367,-0.02 0.419,-1.01 h 0.005 l 0.053,0.984 0.372,-0.02 -0.094,-1.741 -0.345,0.018 -0.438,1.054 H 0.333 l -0.055,-1.027 -0.372,0.021 z"
             style="fill:#ffffff;fill-opacity:1;fill-rule:nonzero;stroke:none"
             id="path804783" />
        </g>
        <g
           id="g804785"
           transform="translate(79.219,607.0296)">
          <path
             d="M 0,0 0.396,-0.013 0.339,-1.759 -0.057,-1.746 Z"
             style="fill:#ffffff;fill-opacity:1;fill-rule:nonzero;stroke:none"
             id="path804787" />
        </g>
        <g
           id="g804789"
           transform="translate(79.9258,607.0056)">
          <path
             d="M 0,0 0.396,-0.005 0.387,-0.719 0.824,-0.724 0.834,-0.011 1.23,-0.017 1.206,-1.762 0.81,-1.757 0.82,-1.026 0.383,-1.02 0.373,-1.751 -0.024,-1.746 Z"
             style="fill:#ffffff;fill-opacity:1;fill-rule:nonzero;stroke:none"
             id="path804791" />
        </g>
        <g
           id="g804793"
           transform="translate(81.4825,606.9929)">
          <path
             d="M 0,0 0.396,0.002 0.406,-1.744 0.01,-1.746 Z"
             style="fill:#ffffff;fill-opacity:1;fill-rule:nonzero;stroke:none"
             id="path804795" />
        </g>
        <g
           id="g804797"
           transform="translate(82.2051,606.9974)">
          <path
             d="M 0,0 0.396,0.009 0.427,-1.423 1.066,-1.409 1.073,-1.723 0.038,-1.746 Z"
             style="fill:#ffffff;fill-opacity:1;fill-rule:nonzero;stroke:none"
             id="path804799" />
        </g>
        <g
           id="g804801"
           transform="translate(83.8115,607.0396)">
          <path
             d="M 0,0 0.4,0.024 0.722,-0.858 H 0.727 L 0.926,0.055 1.326,0.079 0.873,-1.718 0.689,-1.73 Z"
             style="fill:#ffffff;fill-opacity:1;fill-rule:nonzero;stroke:none"
             id="path804803" />
        </g>
        <g
           id="g804805"
           transform="translate(85.3387,607.1336)">
          <path
             d="m 0,0 1.012,0.091 0.027,-0.3 -0.618,-0.056 0.036,-0.404 0.575,0.052 0.027,-0.301 -0.575,-0.051 0.039,-0.432 0.641,0.058 0.027,-0.3 -1.035,-0.094 z"
             style="fill:#ffffff;fill-opacity:1;fill-rule:nonzero;stroke:none"
             id="path804807" />
        </g>
        <g
           id="g804809"
           transform="translate(87.2519,606.626)">
          <path
             d="M 0,0 C 0.132,0.017 0.203,0.099 0.186,0.236 0.168,0.373 0.087,0.421 -0.058,0.402 l -0.119,-0.015 0.053,-0.404 z m -0.61,0.634 0.566,0.074 C 0.311,0.755 0.54,0.582 0.577,0.297 0.603,0.102 0.533,-0.034 0.339,-0.147 0.505,-0.213 0.617,-0.592 0.812,-0.941 L 0.404,-0.994 0.267,-0.682 c -0.158,0.361 -0.187,0.388 -0.352,0.366 l 0.096,-0.73 -0.393,-0.051 z"
             style="fill:#ffffff;fill-opacity:1;fill-rule:nonzero;stroke:none"
             id="path804811" />
        </g>
        <g
           id="g804813"
           transform="translate(88.05,607.4555)">
          <path
             d="M 0,0 0.391,0.065 0.68,-1.657 0.289,-1.722 Z"
             style="fill:#ffffff;fill-opacity:1;fill-rule:nonzero;stroke:none"
             id="path804815" />
        </g>
        <g
           id="g804817"
           transform="translate(89.1474,607.6548)">
          <path
             d="m 0,0 0.257,-1.172 c 0.03,-0.135 0.123,-0.216 0.261,-0.186 0.149,0.032 0.188,0.143 0.154,0.297 L 0.419,0.092 0.805,0.177 1.051,-0.943 C 1.133,-1.317 0.992,-1.591 0.588,-1.68 0.234,-1.758 -0.047,-1.633 -0.14,-1.21 l -0.247,1.125 z"
             style="fill:#ffffff;fill-opacity:1;fill-rule:nonzero;stroke:none"
             id="path804819" />
        </g>
        <g
           id="g804821"
           transform="translate(90.5757,606.7004)">
          <path
             d="m 0,0 c 0.198,-0.082 0.305,-0.1 0.405,-0.07 0.091,0.027 0.137,0.105 0.113,0.185 -0.074,0.245 -0.65,0.272 -0.772,0.678 -0.072,0.239 0.081,0.488 0.352,0.57 0.12,0.035 0.244,0.038 0.395,0.006 L 0.587,1.056 C 0.393,1.099 0.311,1.104 0.228,1.079 0.138,1.052 0.088,0.986 0.109,0.918 0.168,0.72 0.781,0.64 0.9,0.244 0.981,-0.023 0.833,-0.286 0.556,-0.369 0.427,-0.408 0.293,-0.405 0.109,-0.36 Z"
             style="fill:#ffffff;fill-opacity:1;fill-rule:nonzero;stroke:none"
             id="path804823" />
        </g>
      </g>
    </g>
  </g>
</svg>
