<?xml version="1.0" encoding="UTF-8" standalone="no"?>
<svg
   id="svg9848"
   version="1.1"
   viewBox="0 0 20.883034 20.883034"
   height="20.883034mm"
   width="20.883034mm"
   xmlns="http://www.w3.org/2000/svg"
   xmlns:svg="http://www.w3.org/2000/svg"
   xmlns:rdf="http://www.w3.org/1999/02/22-rdf-syntax-ns#"
   xmlns:cc="http://creativecommons.org/ns#"
   xmlns:dc="http://purl.org/dc/elements/1.1/">
  <defs
     id="defs9842">
    <clipPath
       clipPathUnits="userSpaceOnUse"
       id="clipPath9884">
      <path
         d="m 288.423,72.525 h 60.95 v 86.216 h -60.95 z"
         id="path9882" />
    </clipPath>
    <clipPath
       clipPathUnits="userSpaceOnUse"
       id="clipPath9902">
      <path
         d="m 288.423,72.525 h 60.95 v 86.216 h -60.95 z"
         id="path9900" />
    </clipPath>
  </defs>
  <metadata
     id="metadata9845">
    <rdf:RDF>
      <cc:Work
         rdf:about="">
        <dc:format>image/svg+xml</dc:format>
        <dc:type
           rdf:resource="http://purl.org/dc/dcmitype/StillImage" />
        <dc:title />
      </cc:Work>
    </rdf:RDF>
  </metadata>
  <g
     transform="translate(-107.98543,-254.48642)"
     id="layer1">
    <path
       id="path9876"
       style="fill:#006647;fill-opacity:1;fill-rule:nonzero;stroke:none;stroke-width:0.352778"
       d="m 108.05899,275.29625 h 20.73627 v -20.73663 h -20.73627 z" />
    <g
       transform="matrix(0.35277777,0,0,-0.35277777,5.6176106,310.48654)"
       id="g9878">
      <g
         clip-path="url(#clipPath9884)"
         id="g9880">
        <path
           id="path9886"
           style="fill:none;stroke:#ffffff;stroke-width:0.415;stroke-linecap:butt;stroke-linejoin:miter;stroke-miterlimit:4;stroke-dasharray:none;stroke-opacity:1"
           d="M 349.165,158.533 H 290.384 V 99.752 h 58.781 z" />
      </g>
    </g>
    <g
       transform="matrix(0.35277777,0,0,-0.35277777,126.51173,264.95256)"
       id="g9888">
      <path
         id="path9890"
         style="fill:#ffffff;fill-opacity:1;fill-rule:nonzero;stroke:none"
         d="m 0,0 -13.891,-4.572 2.093,-6.532 -6.532,2.093 -4.572,-13.891 -4.572,13.891 -6.532,-2.093 2.093,6.532 -13.891,4.572 13.891,4.572 -2.093,6.532 6.532,-2.092 4.572,13.89 4.572,-13.89 6.532,2.092 -2.093,-6.532 z" />
    </g>
    <g
       transform="matrix(0.35277777,0,0,-0.35277777,126.51173,264.95256)"
       id="g9892">
      <path
         id="path9894"
         style="fill:none;stroke:#ffffff;stroke-width:0.414;stroke-linecap:butt;stroke-linejoin:miter;stroke-miterlimit:4;stroke-dasharray:none;stroke-opacity:1"
         d="m 0,0 -13.891,-4.572 2.093,-6.532 -6.532,2.093 -4.572,-13.891 -4.572,13.891 -6.532,-2.093 2.093,6.532 -13.891,4.572 13.891,4.572 -2.093,6.532 6.532,-2.092 4.572,13.89 4.572,-13.89 6.532,2.092 -2.093,-6.532 z" />
    </g>
    <g
       transform="matrix(0.35277777,0,0,-0.35277777,5.6176106,310.48654)"
       id="g9896">
      <g
         clip-path="url(#clipPath9902)"
         id="g9898">
        <g
           transform="translate(319.7598,119.6324)"
           id="g9904">
          <path
             id="path9906"
             style="fill:none;stroke:#006647;stroke-width:0.372;stroke-linecap:butt;stroke-linejoin:miter;stroke-miterlimit:4;stroke-dasharray:none;stroke-opacity:1"
             d="m 0,0 c 5.224,0 9.458,4.235 9.458,9.458 0,5.224 -4.234,9.459 -9.458,9.459 -5.224,0 -9.458,-4.235 -9.458,-9.459 C -9.458,4.235 -5.224,0 0,0 Z" />
        </g>
        <g
           transform="translate(316.002,137.8637)"
           id="g9908">
          <path
             id="path9910"
             style="fill:none;stroke:#006647;stroke-width:0.103;stroke-linecap:butt;stroke-linejoin:miter;stroke-miterlimit:4;stroke-dasharray:none;stroke-opacity:1"
             d="M 0,0 3.827,11.506 7.628,-0.078" />
        </g>
        <g
           transform="translate(322.4141,138.1999)"
           id="g9912">
          <path
             id="path9914"
             style="fill:none;stroke:#006647;stroke-width:0.103;stroke-linecap:butt;stroke-linejoin:bevel;stroke-miterlimit:4;stroke-dasharray:none;stroke-opacity:1"
             d="M 0,0 -2.611,7.938 -5.197,0.078 M -3.258,9.024 -2.611,7.938 -3.691,7.666 -3.064,6.619 -4.124,6.341 -3.478,5.287 -4.544,5.016 -3.904,3.969 -4.971,3.723 -4.331,2.702 -5.41,2.424 -4.783,1.37 -5.869,1.138 -5.197,0.181 M -1.926,9.011 -2.572,7.925 -1.493,7.653 -2.12,6.606 -1.06,6.328 -1.706,5.275 -0.64,5.003 -1.279,3.956 -0.213,3.71 -0.853,2.689 0.226,2.411 -0.401,1.357 0.685,1.125 0.013,0.168" />
        </g>
        <g
           transform="translate(319.8287,146.8616)"
           id="g9916">
          <path
             id="path9918"
             style="fill:#006647;fill-opacity:1;fill-rule:nonzero;stroke:none"
             d="M 0,0 0.336,0.44 0,1.396 -0.336,0.44 Z" />
        </g>
        <g
           transform="translate(310.8697,125.2634)"
           id="g9920">
          <path
             id="path9922"
             style="fill:none;stroke:#006647;stroke-width:0.103;stroke-linecap:butt;stroke-linejoin:miter;stroke-miterlimit:4;stroke-dasharray:none;stroke-opacity:1"
             d="m 0,0 -11.506,3.827 11.584,3.8" />
        </g>
        <g
           transform="translate(310.5335,131.6755)"
           id="g9924">
          <path
             id="path9926"
             style="fill:none;stroke:#006647;stroke-width:0.103;stroke-linecap:butt;stroke-linejoin:bevel;stroke-miterlimit:4;stroke-dasharray:none;stroke-opacity:1"
             d="m 0,0 -7.938,-2.611 7.86,-2.586 m -8.946,1.939 1.086,0.647 0.272,-1.08 1.047,0.627 0.278,-1.06 1.053,0.646 0.272,-1.066 1.047,0.64 0.246,-1.067 1.021,0.64 0.278,-1.079 1.054,0.627 0.232,-1.086 0.957,0.672 m -8.83,3.271 1.086,-0.647 0.272,1.08 1.047,-0.627 0.278,1.06 1.053,-0.646 0.272,1.066 1.047,-0.64 0.246,1.067 1.021,-0.64 0.278,1.079 1.054,-0.627 0.232,1.086 0.957,-0.672" />
        </g>
        <g
           transform="translate(301.8719,129.0899)"
           id="g9928">
          <path
             id="path9930"
             style="fill:#006647;fill-opacity:1;fill-rule:nonzero;stroke:none"
             d="M 0,0 -0.44,0.336 -1.396,0 -0.44,-0.336 Z" />
        </g>
        <g
           transform="translate(323.6038,120.2559)"
           id="g9932">
          <path
             id="path9934"
             style="fill:none;stroke:#006647;stroke-width:0.103;stroke-linecap:butt;stroke-linejoin:miter;stroke-miterlimit:4;stroke-dasharray:none;stroke-opacity:1"
             d="M 0,0 -3.827,-11.506 -7.628,0.078" />
        </g>
        <g
           transform="translate(317.1914,119.9198)"
           id="g9936">
          <path
             id="path9938"
             style="fill:none;stroke:#006647;stroke-width:0.103;stroke-linecap:butt;stroke-linejoin:bevel;stroke-miterlimit:4;stroke-dasharray:none;stroke-opacity:1"
             d="m 0,0 2.612,-7.938 2.585,7.86 m -1.939,-8.946 -0.646,1.086 1.079,0.272 -0.627,1.047 1.06,0.278 -0.646,1.054 1.066,0.271 -0.64,1.047 1.067,0.246 -0.64,1.021 1.079,0.278 -0.627,1.054 1.086,0.232 -0.672,0.957 m -3.271,-8.83 0.647,1.086 -1.08,0.272 0.627,1.047 -1.06,0.278 0.647,1.053 -1.067,0.272 0.64,1.047 -1.067,0.246 0.64,1.021 -1.079,0.278 0.627,1.054 -1.086,0.232 0.672,0.957" />
        </g>
        <g
           transform="translate(319.777,111.2579)"
           id="g9940">
          <path
             id="path9942"
             style="fill:#006647;fill-opacity:1;fill-rule:nonzero;stroke:none"
             d="M 0,0 -0.336,-0.439 0,-1.396 0.336,-0.439 Z" />
        </g>
        <g
           transform="translate(328.6154,132.8519)"
           id="g9944">
          <path
             id="path9946"
             style="fill:none;stroke:#006647;stroke-width:0.103;stroke-linecap:butt;stroke-linejoin:miter;stroke-miterlimit:4;stroke-dasharray:none;stroke-opacity:1"
             d="m 0,0 11.506,-3.827 -11.584,-3.8" />
        </g>
        <g
           transform="translate(328.9515,126.4398)"
           id="g9948">
          <path
             id="path9950"
             style="fill:none;stroke:#006647;stroke-width:0.103;stroke-linecap:butt;stroke-linejoin:bevel;stroke-miterlimit:4;stroke-dasharray:none;stroke-opacity:1"
             d="M 0,0 7.938,2.611 0.078,5.197 M 9.024,3.258 7.938,2.611 7.666,3.691 6.619,3.064 6.341,4.124 5.288,3.478 5.016,4.544 3.969,3.904 3.723,4.971 2.702,4.331 2.424,5.41 1.37,4.783 1.138,5.869 0.181,5.197 M 9.011,1.926 7.925,2.573 7.653,1.493 6.606,2.12 6.328,1.06 5.275,1.706 5.003,0.64 3.956,1.28 3.71,0.213 2.689,0.853 2.411,-0.226 1.357,0.401 1.125,-0.685 0.168,-0.013" />
        </g>
        <g
           transform="translate(337.6132,129.0254)"
           id="g9952">
          <path
             id="path9954"
             style="fill:#006647;fill-opacity:1;fill-rule:nonzero;stroke:none"
             d="M 0,0 0.44,-0.336 1.396,0 0.44,0.336 Z" />
        </g>
        <g
           transform="translate(318.5785,139.025)"
           id="g9956">
          <path
             id="path9958"
             style="fill:#006647;fill-opacity:1;fill-rule:nonzero;stroke:none"
             d="m 0,0 1.224,3.648 1.229,-3.659 c 0.185,-0.024 0.37,-0.052 0.552,-0.086 L 1.224,5.122 -0.551,-0.08 C -0.369,-0.049 -0.185,-0.022 0,0" />
        </g>
        <g
           transform="translate(319.7598,139.0962)"
           id="g9960">
          <path
             id="path9962"
             style="fill:#006647;fill-opacity:1;fill-rule:nonzero;stroke:none"
             d="M 0,0 C 0.225,0 0.447,-0.01 0.668,-0.025 L 0.017,1.844 -0.633,-0.022 C -0.423,-0.009 -0.213,0 0,0" />
        </g>
        <g
           transform="translate(329.6684,130.8361)"
           id="g9964">
          <path
             id="path9966"
             style="fill:#006647;fill-opacity:1;fill-rule:nonzero;stroke:none"
             d="M 0,0 C 0.033,-0.182 0.062,-0.367 0.085,-0.553 L 3.756,-1.785 0.092,-3.014 C 0.07,-3.2 0.043,-3.384 0.011,-3.566 l 5.219,1.781 z" />
        </g>
        <g
           transform="translate(331.692,129.0771)"
           id="g9968">
          <path
             id="path9970"
             style="fill:#006647;fill-opacity:1;fill-rule:nonzero;stroke:none"
             d="m 0,0 -1.885,0.657 c 0.016,-0.236 0.027,-0.473 0.027,-0.713 0,-0.201 -0.007,-0.4 -0.019,-0.598 z" />
        </g>
        <g
           transform="translate(309.7586,127.8229)"
           id="g9972">
          <path
             id="path9974"
             style="fill:#006647;fill-opacity:1;fill-rule:nonzero;stroke:none"
             d="M 0,0 -3.698,1.241 0.011,2.486 C 0.035,2.672 0.063,2.857 0.097,3.04 L -5.172,1.241 0.081,-0.552 C 0.049,-0.369 0.022,-0.185 0,0" />
        </g>
        <g
           transform="translate(309.6852,129.0215)"
           id="g9976">
          <path
             id="path9978"
             style="fill:#006647;fill-opacity:1;fill-rule:nonzero;stroke:none"
             d="M 0,0 C 0,0.231 0.01,0.458 0.026,0.685 L -1.892,0.017 0.023,-0.651 C 0.009,-0.435 0,-0.219 0,0" />
        </g>
        <g
           transform="translate(320.9414,119.0182)"
           id="g9980">
          <path
             id="path9982"
             style="fill:#006647;fill-opacity:1;fill-rule:nonzero;stroke:none"
             d="m 0,0 -1.216,-3.623 -1.219,3.632 c -0.186,0.023 -0.37,0.051 -0.552,0.084 l 1.771,-5.19 1.767,5.177 C 0.369,0.049 0.185,0.022 0,0" />
        </g>
        <g
           transform="translate(319.7598,118.9469)"
           id="g9984">
          <path
             id="path9986"
             style="fill:#006647;fill-opacity:1;fill-rule:nonzero;stroke:none"
             d="m 0,0 c -0.219,0 -0.435,0.009 -0.65,0.023 l 0.642,-1.842 0.641,1.841 C 0.423,0.009 0.213,0 0,0" />
        </g>
        <g
           transform="translate(311.3997,135.3816)"
           id="g9988">
          <path
             id="path9990"
             style="fill:#006647;fill-opacity:1;fill-rule:nonzero;stroke:none"
             d="M 0,0 -1.023,3.13 2.133,2.094 C 1.307,1.48 0.55,0.716 0,0 m -1.614,3.721 1.529,-4.588 c 0.797,1.223 1.857,2.264 3.093,3.042 z" />
        </g>
        <g
           transform="translate(313.4381,120.6396)"
           id="g9992">
          <path
             id="path9994"
             style="fill:#006647;fill-opacity:1;fill-rule:nonzero;stroke:none"
             d="m 0,0 -3.131,-1.023 1.037,3.156 C -1.48,1.307 -0.716,0.55 0,0 m -3.721,-1.614 4.587,1.529 c -1.222,0.797 -2.263,1.857 -3.041,3.093 z" />
        </g>
        <g
           transform="translate(325.9825,137.4113)"
           id="g9996">
          <path
             id="path9998"
             style="fill:#006647;fill-opacity:1;fill-rule:nonzero;stroke:none"
             d="M 0,0 3.156,1.036 2.133,-2.094 C 1.583,-1.379 0.826,-0.614 0,0 m -0.875,0.081 c 1.236,-0.778 2.296,-1.819 3.093,-3.042 l 1.529,4.588 z" />
        </g>
        <g
           transform="translate(328.1067,122.7727)"
           id="g10000">
          <path
             id="path10002"
             style="fill:#006647;fill-opacity:1;fill-rule:nonzero;stroke:none"
             d="m 0,0 1.036,-3.156 -3.13,1.023 C -1.378,-1.583 -0.614,-0.827 0,0 m 0.081,0.875 c -0.778,-1.236 -1.819,-2.296 -3.042,-3.093 l 4.588,-1.529 z" />
        </g>
        <g
           transform="translate(319.0013,123.2034)"
           id="g10004">
          <path
             id="path10006"
             style="fill:none;stroke:#006647;stroke-width:0.248;stroke-linecap:round;stroke-linejoin:miter;stroke-miterlimit:4;stroke-dasharray:none;stroke-opacity:1"
             d="M 0,0 1.775,-1.775 M 0,-1.775 1.775,0" />
        </g>
        <g
           transform="translate(321.1044,122.1693)"
           id="g10008">
          <path
             id="path10010"
             style="fill:#006647;fill-opacity:1;fill-rule:nonzero;stroke:none"
             d="M 0,0 C 0.081,0 0.146,0.066 0.146,0.146 0.146,0.227 0.081,0.293 0,0.293 -0.081,0.293 -0.146,0.227 -0.146,0.146 -0.146,0.066 -0.081,0 0,0" />
        </g>
        <g
           transform="translate(319.8805,123.3932)"
           id="g10012">
          <path
             id="path10014"
             style="fill:#006647;fill-opacity:1;fill-rule:nonzero;stroke:none"
             d="M 0,0 C 0.081,0 0.146,0.065 0.146,0.146 0.146,0.227 0.081,0.293 0,0.293 -0.081,0.293 -0.146,0.227 -0.146,0.146 -0.146,0.065 -0.081,0 0,0" />
        </g>
        <g
           transform="translate(318.6587,122.1714)"
           id="g10016">
          <path
             id="path10018"
             style="fill:#006647;fill-opacity:1;fill-rule:nonzero;stroke:none"
             d="M 0,0 C 0.081,0 0.146,0.066 0.146,0.146 0.146,0.227 0.081,0.293 0,0.293 -0.081,0.293 -0.146,0.227 -0.146,0.146 -0.146,0.066 -0.081,0 0,0" />
        </g>
        <g
           transform="translate(319.8805,120.9477)"
           id="g10020">
          <path
             id="path10022"
             style="fill:#006647;fill-opacity:1;fill-rule:nonzero;stroke:none"
             d="M 0,0 C 0.081,0 0.146,0.065 0.146,0.146 0.146,0.227 0.081,0.292 0,0.292 -0.081,0.292 -0.146,0.227 -0.146,0.146 -0.146,0.065 -0.081,0 0,0" />
        </g>
        <g
           transform="translate(318.1395,132.7186)"
           id="g10024">
          <path
             id="path10026"
             style="fill:#006647;fill-opacity:1;fill-rule:nonzero;stroke:none"
             d="m 0,0 c 0,0 0.586,0.965 1.62,0.276 0,0 0.897,0.758 1.586,-0.242 0,0 -1,0.379 -1,-0.379 v -7.102 c 0,0 0.035,-0.413 0.518,-0.413 0.482,0 0.659,0.274 0.896,0.827 0.103,0.241 0.172,0.621 0.551,0.793 0,0 -0.262,-0.786 0.035,-1.379 0.413,-0.827 1.034,-0.965 1.034,-0.965 0,0 -0.724,-0.345 -1.379,0.345 0,0 -0.31,-0.414 -1.172,-0.414 -0.621,0 -0.931,0.414 -0.931,0.414 0,0 -0.241,-0.449 -0.965,-0.449 -0.724,0 -0.862,0.483 -0.862,0.931 0,0 0.241,-0.345 0.621,-0.345 0.379,0 0.551,0.242 0.551,0.414 V -0.31 C 1.103,-0.31 1,0.345 0,0" />
        </g>
        <g
           transform="translate(323.7933,131.1671)"
           id="g10028">
          <path
             id="path10030"
             style="fill:#006647;fill-opacity:1;fill-rule:nonzero;stroke:none"
             d="m 0,0 -0.034,-1.345 c 0,0 -0.242,1.035 -0.897,1.069 -0.655,0.035 -1.034,-1.137 -1,-1.758 0.035,-0.62 0.242,-1.551 0.966,-1.551 0.677,0 1.034,0.827 1.034,0.827 0,0 -0.034,-1.206 -1.172,-1.206 -1.38,0 -1.621,1.172 -1.621,1.93 0,0.655 0.38,2.103 1.724,2.103 0.517,0 0.483,-0.241 0.724,-0.241 C -0.034,-0.172 0,0 0,0" />
        </g>
        <g
           transform="translate(314.7955,130.8913)"
           id="g10032">
          <path
             id="path10034"
             style="fill:#006647;fill-opacity:1;fill-rule:nonzero;stroke:none"
             d="m 0,0 c 0,0 0.379,0.621 0.931,0.103 0,0 0.758,0.552 1.034,-0.069 0,0 -0.724,0.207 -0.379,-0.689 0.345,-0.896 0.551,-1.517 0.551,-1.517 l 0.724,1.724 c 0,0 0.311,0.551 -0.344,0.517 0,0 0.241,0.414 0.827,0.069 0,0 0.724,0.448 0.827,-0.138 0,0 -0.551,0.138 -0.551,-0.241 v -2.965 c 0,0 0.034,-0.448 0.517,-0.31 0,0 -0.276,-0.517 -0.931,-0.035 0,0 -0.379,-0.448 -0.758,0.069 0,0 0.482,-0.138 0.517,0.276 L 3.034,-1.207 1.965,-3.689 0.931,-1 v -2.241 c 0,0 0.069,-0.448 0.551,-0.275 0,0 -0.241,-0.552 -0.827,-0.069 0,0 -0.345,-0.483 -0.758,0.069 0,0 0.62,-0.207 0.62,0.344 v 3.034 C 0.517,-0.138 0.483,0.138 0,0" />
        </g>
        <g
           transform="translate(313.9414,127.8837)"
           id="g10036">
          <path
             id="path10038"
             style="fill:#006647;fill-opacity:1;fill-rule:nonzero;stroke:none"
             d="M 0,0 -0.073,0.729 C -0.101,0.932 -0.141,1.146 -0.296,1.308 -0.576,1.602 -1.009,1.706 -1.516,1.655 -2.024,1.605 -2.428,1.417 -2.644,1.073 -2.764,0.883 -2.761,0.666 -2.748,0.461 l 0.073,-0.729 z m -2.387,0.068 -0.044,0.444 c -0.031,0.306 0.105,0.486 0.248,0.586 0.217,0.153 0.45,0.214 0.698,0.238 0.249,0.025 0.489,0.012 0.732,-0.095 0.161,-0.07 0.329,-0.219 0.36,-0.526 l 0.044,-0.443 z" />
        </g>
        <g
           transform="translate(316.3738,133.9006)"
           id="g10040">
          <path
             id="path10042"
             style="fill:#006647;fill-opacity:1;fill-rule:nonzero;stroke:none"
             d="M 0,0 0.632,0.371 C 0.805,0.48 0.982,0.606 1.066,0.815 1.216,1.192 1.13,1.629 0.872,2.069 0.614,2.509 0.275,2.798 -0.128,2.851 -0.35,2.881 -0.547,2.787 -0.727,2.69 L -1.359,2.319 Z m -0.934,2.198 0.385,0.225 C -0.283,2.579 -0.064,2.53 0.087,2.442 0.317,2.309 0.469,2.122 0.595,1.907 0.721,1.692 0.81,1.468 0.814,1.202 0.817,1.027 0.752,0.812 0.486,0.656 L 0.102,0.431 Z" />
        </g>
        <g
           transform="translate(313.8993,129.7004)"
           id="g10044">
          <path
             id="path10046"
             style="fill:#006647;fill-opacity:1;fill-rule:nonzero;stroke:none"
             d="m 0,0 -2.642,0.497 0.256,1.36 0.315,-0.06 -0.2,-1.059 0.824,-0.155 0.189,1.008 0.315,-0.059 -0.19,-1.008 0.875,-0.165 0.204,1.083 0.314,-0.059 z" />
        </g>
        <g
           transform="translate(325.5802,129.0837)"
           id="g10048">
          <path
             id="path10050"
             style="fill:#006647;fill-opacity:1;fill-rule:nonzero;stroke:none"
             d="M 0,0 2.671,-0.304 2.514,-1.678 2.196,-1.642 2.318,-0.572 1.486,-0.477 1.37,-1.496 1.052,-1.46 1.168,-0.44 0.283,-0.34 0.159,-1.435 -0.159,-1.398 Z" />
        </g>
        <g
           transform="translate(313.0375,131.7811)"
           id="g10052">
          <path
             id="path10054"
             style="fill:#006647;fill-opacity:1;fill-rule:nonzero;stroke:none"
             d="M 0,0 C 0.694,-0.368 1.387,-0.372 1.708,0.235 2.03,0.842 1.637,1.413 0.943,1.781 0.249,2.148 -0.444,2.153 -0.766,1.545 -1.087,0.939 -0.694,0.368 0,0 M 0.15,0.283 C -0.357,0.552 -0.744,0.902 -0.483,1.396 -0.221,1.89 0.286,1.766 0.793,1.497 1.286,1.236 1.687,0.879 1.426,0.385 1.164,-0.109 0.643,0.022 0.15,0.283" />
        </g>
        <g
           transform="translate(317.6171,136.0804)"
           id="g10056">
          <path
             id="path10058"
             style="fill:#006647;fill-opacity:1;fill-rule:nonzero;stroke:none"
             d="M 0,0 C 0.088,-0.781 0.475,-1.355 1.158,-1.279 1.84,-1.202 2.09,-0.556 2.002,0.225 1.915,1.006 1.527,1.58 0.845,1.504 0.162,1.427 -0.088,0.781 0,0 M 0.319,0.036 C 0.254,0.606 0.325,1.123 0.88,1.186 1.436,1.248 1.62,0.759 1.684,0.189 1.746,-0.366 1.677,-0.898 1.122,-0.96 0.567,-1.023 0.381,-0.519 0.319,0.036" />
        </g>
        <g
           transform="translate(322.1873,136.9327)"
           id="g10060">
          <path
             id="path10062"
             style="fill:#006647;fill-opacity:1;fill-rule:nonzero;stroke:none"
             d="m 0,0 -0.006,0.001 -1.118,-2.243 -0.261,0.052 -0.163,2.502 -0.006,0.001 -0.477,-2.373 -0.278,0.056 0.531,2.635 0.497,-0.1 0.139,-2.287 0.006,-10e-4 L -0.133,0.3 0.33,0.207 -0.2,-2.428 -0.478,-2.372 Z" />
        </g>
        <g
           transform="translate(324.0401,134.4294)"
           id="g10064">
          <path
             id="path10066"
             style="fill:#006647;fill-opacity:1;fill-rule:nonzero;stroke:none"
             d="m 0,0 c -0.368,-0.587 -0.833,-0.796 -1.299,-0.496 -0.467,0.301 -0.468,0.811 -0.085,1.388 l 0.88,1.365 0.237,-0.154 -0.928,-1.439 c -0.243,-0.393 -0.202,-0.716 0.069,-0.891 0.271,-0.174 0.582,-0.078 0.84,0.305 L 0.642,1.518 0.88,1.364 Z" />
        </g>
        <g
           transform="translate(326.7095,129.5766)"
           id="g10068">
          <path
             id="path10070"
             style="fill:#006647;fill-opacity:1;fill-rule:nonzero;stroke:none"
             d="m 0,0 c -0.673,-0.163 -1.152,0.011 -1.277,0.552 -0.124,0.54 0.231,0.906 0.908,1.053 L 1.214,1.969 1.277,1.693 -0.392,1.309 C -0.841,1.198 -1.037,0.938 -0.964,0.623 -0.892,0.309 -0.602,0.161 -0.15,0.256 L 1.519,0.639 1.582,0.364 Z" />
        </g>
        <g
           transform="translate(323.8279,133.3386)"
           id="g10072">
          <path
             id="path10074"
             style="fill:#006647;fill-opacity:1;fill-rule:nonzero;stroke:none"
             d="M 0,0 1.891,1.91 2.092,1.711 0.201,-0.199 Z" />
        </g>
        <g
           transform="translate(326.2458,132.1421)"
           id="g10076">
          <path
             id="path10078"
             style="fill:#006647;fill-opacity:1;fill-rule:nonzero;stroke:none"
             d="m 0,0 c -0.306,-0.199 -0.628,-0.342 -0.9,-0.288 0.009,0.091 0.032,0.175 0.059,0.265 0.02,0.07 0.041,0.142 0.058,0.224 0.059,0.298 -0.148,0.553 -0.3,0.696 0.098,0.09 0.212,0.175 0.334,0.255 0.48,0.312 0.975,0.481 1.279,0.013 C 0.835,0.696 0.481,0.313 0,0 M -1.286,0.659 C -1.18,0.556 -1.06,0.401 -1.088,0.262 -1.102,0.193 -1.12,0.13 -1.139,0.064 c -0.018,-0.062 -0.036,-0.124 -0.05,-0.19 -0.032,0.033 -0.062,0.069 -0.091,0.113 -0.16,0.246 -0.133,0.47 -0.006,0.672 m 2.085,0.68 C 0.424,1.915 -0.265,1.849 -0.924,1.42 -1.582,0.992 -1.923,0.388 -1.548,-0.187 c 0.096,-0.148 0.213,-0.253 0.344,-0.321 0.017,-0.122 0.054,-0.26 0.126,-0.426 l 0.284,0.125 c -0.034,0.078 -0.057,0.145 -0.074,0.209 0.32,-0.025 0.686,0.099 1.043,0.331 0.658,0.429 0.998,1.032 0.624,1.608" />
        </g>
      </g>
    </g>
  </g>
</svg>
