<?xml version="1.0" encoding="UTF-8" standalone="no"?>
<svg
   version="1.1"
   id="Layer_1"
   x="0"
   y="0"
   viewBox="141.5 1 208.5 129.8"
   xml:space="preserve"
   width="208.5"
   height="129.8"
   xmlns="http://www.w3.org/2000/svg"
   xmlns:svg="http://www.w3.org/2000/svg"
   xmlns:rdf="http://www.w3.org/1999/02/22-rdf-syntax-ns#"
   xmlns:cc="http://creativecommons.org/ns#"
   xmlns:dc="http://purl.org/dc/elements/1.1/"><metadata
     id="metadata15"><rdf:RDF><cc:Work
         rdf:about=""><dc:format>image/svg+xml</dc:format><dc:type
           rdf:resource="http://purl.org/dc/dcmitype/StillImage" /></cc:Work></rdf:RDF></metadata><defs
     id="defs13" /><g
     id="Logotype"
     class="blue"
     fill="#00386d"
     transform="translate(-53.8,-0.1)" /><g
     id="Symbolmark"
     transform="translate(-53.8,-0.1)"><path
       id="Red"
       class="red"
       fill="#e2231a"
       d="m 310.2,96.5 c 9.8,11 19.5,22.6 29.1,34.4 21.8,-26.6 43.4,-51 64.5,-73.1 -30.4,8.3 -62,21.2 -93.6,38.7 z" /><path
       id="Green"
       class="green"
       fill="#31703f"
       d="m 234.6,100.3 c 8,7.4 15.8,14.7 23.8,22.7 18,-26 35.9,-50.8 54,-74 -26.1,13.9 -52.2,31.2 -77.8,51.3 z" /><path
       id="Blue_Shape1"
       class="blue"
       fill="#00386d"
       d="M 310,46.7 C 298.2,33.3 286,20.5 274.2,8.1 247.6,45.7 220.9,86.5 195.3,130.5 232.6,96 271.4,68 310,46.7 Z" /><path
       id="Blue_Shape2"
       class="blue"
       fill="#00386d"
       d="M 401.5,55 C 386,36 370.2,17.9 354.3,1.1 323.6,37.7 292.4,78.5 261.5,123.7 308.2,91 355.9,68 401.5,55 Z" /></g></svg>
