<?xml version="1.0" encoding="UTF-8" standalone="no"?>
<svg
   width="30.671085mm"
   height="30.495592mm"
   viewBox="0 0 30.671086 30.495592"
   version="1.1"
   id="svg67976"
   xmlns="http://www.w3.org/2000/svg"
   xmlns:svg="http://www.w3.org/2000/svg"
   xmlns:rdf="http://www.w3.org/1999/02/22-rdf-syntax-ns#"
   xmlns:cc="http://creativecommons.org/ns#"
   xmlns:dc="http://purl.org/dc/elements/1.1/">
  <defs
     id="defs67970">
    <clipPath
       id="clipPath196253"
       clipPathUnits="userSpaceOnUse">
      <path
         id="path196251"
         d="m 473.386,28.346 h 96.378 v 99.212 h -96.378 z" />
    </clipPath>
  </defs>
  <metadata
     id="metadata67973">
    <rdf:RDF>
      <cc:Work
         rdf:about="">
        <dc:format>image/svg+xml</dc:format>
        <dc:type
           rdf:resource="http://purl.org/dc/dcmitype/StillImage" />
        <dc:title />
      </cc:Work>
    </rdf:RDF>
  </metadata>
  <g
     id="layer1"
     transform="translate(1177.72,174.02077)">
    <g
       id="g196247"
       transform="matrix(0.35277777,0,0,-0.35277777,-1346.3845,-131.52304)">
      <g
         id="g196249"
         clip-path="url(#clipPath196253)">
        <g
           id="g196255"
           transform="translate(521.5098,46.47)">
          <path
             d="m 0,0 -0.218,0.095 c -0.177,0.077 -4.361,1.907 -6.911,3.359 -4.352,2.474 -7.379,4.369 -9.972,6.739 -1.479,1.353 -3.744,4.138 -5.47,7.312 -0.932,1.716 -2.496,5.138 -2.496,8.77 0,3.332 0.084,47.148 0.084,47.148 l 0.002,0.573 h 50.282 l 0.041,-45.887 c 0,-4.356 -0.873,-7.965 -2.67,-11.036 C 21.245,14.638 18.923,11.408 16.95,9.685 14.937,7.925 10.337,4.831 7.983,3.533 5.437,2.127 0.433,0.169 0.221,0.086 Z"
             style="fill:#ffe068;fill-opacity:1;fill-rule:nonzero;stroke:none"
             id="path196257" />
        </g>
        <g
           id="g196259"
           transform="translate(497.6753,119.3168)">
          <path
             d="m 0,0 c -0.01,-5.158 -0.083,-43.464 -0.083,-46.572 0,-3.378 1.476,-6.601 2.356,-8.221 1.654,-3.041 3.873,-5.767 5.236,-7.013 2.512,-2.297 5.483,-4.155 9.765,-6.589 2.172,-1.236 5.681,-2.808 6.585,-3.209 1.01,0.401 5.22,2.09 7.404,3.296 2.305,1.272 6.802,4.294 8.766,6.011 1.875,1.639 4.106,4.749 5.485,7.104 1.692,2.889 2.514,6.309 2.514,10.455 L 47.987,0 Z"
             style="fill:#ffe068;fill-opacity:1;fill-rule:nonzero;stroke:none"
             id="path196261" />
        </g>
        <path
           d="m 500.509,94.106 h -1.15 v 25.785 h 1.15 z"
           style="fill:#ffe068;fill-opacity:1;fill-rule:nonzero;stroke:none"
           id="path196263" />
        <path
           d="m 503.342,94.106 h -1.15 v 25.785 h 1.15 z"
           style="fill:#ffe068;fill-opacity:1;fill-rule:nonzero;stroke:none"
           id="path196265" />
        <path
           d="m 506.034,94.106 h -1.15 v 25.785 h 1.15 z"
           style="fill:#ffe068;fill-opacity:1;fill-rule:nonzero;stroke:none"
           id="path196267" />
        <path
           d="m 508.867,94.106 h -1.15 v 25.785 h 1.15 z"
           style="fill:#ffe068;fill-opacity:1;fill-rule:nonzero;stroke:none"
           id="path196269" />
        <path
           d="m 511.559,94.106 h -1.15 v 25.785 h 1.15 z"
           style="fill:#ffe068;fill-opacity:1;fill-rule:nonzero;stroke:none"
           id="path196271" />
        <path
           d="m 514.392,94.106 h -1.149 v 25.785 h 1.149 z"
           style="fill:#ffe068;fill-opacity:1;fill-rule:nonzero;stroke:none"
           id="path196273" />
        <path
           d="m 516.889,94.106 h -1.15 v 25.785 h 1.15 z"
           style="fill:#ffe068;fill-opacity:1;fill-rule:nonzero;stroke:none"
           id="path196275" />
        <path
           d="m 519.654,94.106 h -1.15 v 25.785 h 1.15 z"
           style="fill:#ffe068;fill-opacity:1;fill-rule:nonzero;stroke:none"
           id="path196277" />
        <path
           d="m 522.335,94.106 h -1.149 v 25.785 h 1.149 z"
           style="fill:#ffe068;fill-opacity:1;fill-rule:nonzero;stroke:none"
           id="path196279" />
        <path
           d="m 525.168,94.106 h -1.148 v 25.785 h 1.148 z"
           style="fill:#ffe068;fill-opacity:1;fill-rule:nonzero;stroke:none"
           id="path196281" />
        <path
           d="m 527.86,94.106 h -1.148 v 25.785 h 1.148 z"
           style="fill:#ffe068;fill-opacity:1;fill-rule:nonzero;stroke:none"
           id="path196283" />
        <path
           d="m 530.694,94.106 h -1.148 v 25.785 h 1.148 z"
           style="fill:#ffe068;fill-opacity:1;fill-rule:nonzero;stroke:none"
           id="path196285" />
        <path
           d="m 533.385,94.106 h -1.148 v 25.785 h 1.148 z"
           style="fill:#ffe068;fill-opacity:1;fill-rule:nonzero;stroke:none"
           id="path196287" />
        <path
           d="m 536.219,94.106 h -1.148 v 25.785 h 1.148 z"
           style="fill:#ffe068;fill-opacity:1;fill-rule:nonzero;stroke:none"
           id="path196289" />
        <path
           d="m 538.714,94.106 h -1.148 v 25.785 h 1.148 z"
           style="fill:#ffe068;fill-opacity:1;fill-rule:nonzero;stroke:none"
           id="path196291" />
        <path
           d="m 541.479,94.106 h -1.148 v 25.785 h 1.148 z"
           style="fill:#ffe068;fill-opacity:1;fill-rule:nonzero;stroke:none"
           id="path196293" />
        <path
           d="m 544.029,94.106 h -1.149 v 25.785 h 1.149 z"
           style="fill:#ffe068;fill-opacity:1;fill-rule:nonzero;stroke:none"
           id="path196295" />
        <g
           id="g196297"
           transform="translate(521.5112,46.5501)">
          <path
             d="m 0,0 -0.19,0.083 c -0.176,0.077 -4.357,1.906 -6.903,3.356 -4.348,2.47 -7.372,4.364 -9.959,6.729 -1.474,1.348 -3.733,4.126 -5.455,7.292 -0.929,1.71 -2.486,5.119 -2.486,8.735 0,3.332 0.084,47.147 0.084,47.147 l 10e-4,0.5 h 50.133 l 0.041,-45.813 c 0,-4.342 -0.87,-7.94 -2.66,-10.999 C 21.182,14.6 18.866,11.379 16.9,9.66 14.889,7.903 10.297,4.814 7.946,3.519 5.404,2.114 0.404,0.158 0.193,0.075 Z"
             style="fill:#ffe068;fill-opacity:1;fill-rule:nonzero;stroke:none"
             id="path196299" />
        </g>
        <g
           id="g196301"
           transform="translate(497.6011,119.3915)">
          <path
             d="m 0,0 c -0.009,-4.855 -0.083,-43.524 -0.083,-46.646 0,-3.396 1.482,-6.631 2.365,-8.258 1.658,-3.048 3.884,-5.781 5.251,-7.031 2.518,-2.302 5.492,-4.163 9.778,-6.599 2.199,-1.252 5.764,-2.846 6.621,-3.224 0.956,0.377 5.232,2.09 7.441,3.31 2.308,1.274 6.812,4.301 8.779,6.02 1.882,1.644 4.119,4.762 5.501,7.123 1.698,2.9 2.524,6.333 2.524,10.492 L 48.135,0 Z"
             style="fill:#20398b;fill-opacity:1;fill-rule:nonzero;stroke:none"
             id="path196303" />
        </g>
        <path
           d="m 500.434,94.106 h -1 v 25.785 h 1 z"
           style="fill:#ffe567;fill-opacity:1;fill-rule:nonzero;stroke:none"
           id="path196305" />
        <path
           d="m 503.267,94.106 h -1 v 25.785 h 1 z"
           style="fill:#ffe567;fill-opacity:1;fill-rule:nonzero;stroke:none"
           id="path196307" />
        <path
           d="m 505.96,94.106 h -1 v 25.785 h 1 z"
           style="fill:#ffe567;fill-opacity:1;fill-rule:nonzero;stroke:none"
           id="path196309" />
        <path
           d="m 508.793,94.106 h -1 v 25.785 h 1 z"
           style="fill:#ffe567;fill-opacity:1;fill-rule:nonzero;stroke:none"
           id="path196311" />
        <path
           d="m 511.484,94.106 h -1 v 25.785 h 1 z"
           style="fill:#ffe567;fill-opacity:1;fill-rule:nonzero;stroke:none"
           id="path196313" />
        <path
           d="m 514.317,94.106 h -1 v 25.785 h 1 z"
           style="fill:#ffe567;fill-opacity:1;fill-rule:nonzero;stroke:none"
           id="path196315" />
        <path
           d="m 516.814,94.106 h -1 v 25.785 h 1 z"
           style="fill:#ffe567;fill-opacity:1;fill-rule:nonzero;stroke:none"
           id="path196317" />
        <path
           d="m 519.58,94.106 h -1 v 25.785 h 1 z"
           style="fill:#ffe567;fill-opacity:1;fill-rule:nonzero;stroke:none"
           id="path196319" />
        <path
           d="m 522.26,94.106 h -1 v 25.785 h 1 z"
           style="fill:#ffe567;fill-opacity:1;fill-rule:nonzero;stroke:none"
           id="path196321" />
        <path
           d="m 525.094,94.106 h -1 v 25.785 h 1 z"
           style="fill:#ffe567;fill-opacity:1;fill-rule:nonzero;stroke:none"
           id="path196323" />
        <path
           d="m 527.785,94.106 h -1 v 25.785 h 1 z"
           style="fill:#ffe567;fill-opacity:1;fill-rule:nonzero;stroke:none"
           id="path196325" />
        <path
           d="m 530.619,94.106 h -1 v 25.785 h 1 z"
           style="fill:#ffe567;fill-opacity:1;fill-rule:nonzero;stroke:none"
           id="path196327" />
        <path
           d="m 533.311,94.106 h -1 v 25.785 h 1 z"
           style="fill:#ffe567;fill-opacity:1;fill-rule:nonzero;stroke:none"
           id="path196329" />
        <path
           d="m 536.145,94.106 h -1 v 25.785 h 1 z"
           style="fill:#ffe567;fill-opacity:1;fill-rule:nonzero;stroke:none"
           id="path196331" />
        <path
           d="m 538.64,94.106 h -1 v 25.785 h 1 z"
           style="fill:#ffe567;fill-opacity:1;fill-rule:nonzero;stroke:none"
           id="path196333" />
        <path
           d="m 541.404,94.106 h -1 v 25.785 h 1 z"
           style="fill:#ffe567;fill-opacity:1;fill-rule:nonzero;stroke:none"
           id="path196335" />
        <path
           d="m 543.954,94.106 h -1 v 25.785 h 1 z"
           style="fill:#ffe567;fill-opacity:1;fill-rule:nonzero;stroke:none"
           id="path196337" />
        <g
           id="g196339"
           transform="translate(521.7212,96.4462)">
          <path
             d="m 0,0 c -4.661,0 -8.452,4.828 -8.452,10.764 0,5.935 3.791,10.763 8.452,10.763 4.661,0 8.453,-4.828 8.453,-10.763 C 8.453,4.828 4.661,0 0,0"
             style="fill:#20398b;fill-opacity:1;fill-rule:nonzero;stroke:none"
             id="path196341" />
        </g>
        <g
           id="g196343"
           transform="translate(508.4033,41.5618)">
          <path
             d="m 0,0 c 0.083,-0.262 0.109,-0.553 0.012,-0.848 -0.205,-0.619 -0.861,-1.006 -1.952,-1.148 -0.395,-0.052 -1.686,-0.293 -1.707,-1.234 -0.022,-0.99 0.371,-1.603 1.318,-2.05 0.733,-0.348 1.59,-0.464 2.347,-0.567 0.278,-0.037 0.541,-0.073 0.778,-0.116 0.565,-0.104 6.518,-0.429 12.412,-0.429 3.605,0 6.956,0.169 8.757,0.259 0.642,0.032 1.075,0.054 1.239,0.054 1.003,0 4.192,0.315 5.061,0.614 0.96,0.332 1.639,0.979 1.653,1.573 0.02,0.787 -0.238,1.251 -0.862,1.554 -0.251,0.121 -0.67,0.15 -1.04,0.177 -0.607,0.043 -1.18,0.084 -1.513,0.501 -0.294,0.368 -0.226,0.925 0.203,1.659 -2.82,-0.097 -10.05,-0.334 -13.56,-0.334 C 9.622,-0.335 2.669,-0.097 0,0 m 13.208,-7.54 c -5.88,0 -11.89,0.313 -12.619,0.446 -0.221,0.041 -0.466,0.074 -0.725,0.109 -0.798,0.108 -1.791,0.243 -2.685,0.666 -1.361,0.645 -2.007,1.664 -1.975,3.115 0.034,1.475 1.42,2.179 2.707,2.346 0.761,0.1 0.987,0.301 1.01,0.371 0.043,0.13 -0.175,0.494 -0.376,0.688 l -1.084,1.045 1.505,-0.058 c 0.097,-0.004 9.806,-0.375 14.18,-0.375 4.373,0 14.578,0.371 14.68,0.375 l 1.27,0.046 -0.805,-0.984 c -0.343,-0.42 -0.669,-0.934 -0.781,-1.215 0.147,-0.019 0.402,-0.037 0.587,-0.05 0.472,-0.033 1.008,-0.071 1.46,-0.289 1.032,-0.501 1.54,-1.381 1.509,-2.614 -0.025,-1.099 -0.977,-2.132 -2.426,-2.633 -1.094,-0.377 -4.457,-0.677 -5.436,-0.677 -0.156,0 -0.57,-0.021 -1.182,-0.052 -1.81,-0.091 -5.18,-0.26 -8.814,-0.26"
             style="fill:#ffe068;fill-opacity:1;fill-rule:nonzero;stroke:none"
             id="path196345" />
        </g>
        <g
           id="g196347"
           transform="translate(481.6763,49.0706)">
          <path
             d="m 0,0 c 0.935,-0.477 4.554,-2.312 5.709,-2.732 1.386,-0.503 4.872,-1.64 6.592,-2.02 1.931,-0.424 5.062,-1.024 7.525,-1.322 1.988,-0.24 3.596,-0.824 4.781,-1.74 0.486,-0.377 0.96,-0.522 1.332,-0.41 0.272,0.081 0.426,0.278 0.479,0.434 0.202,0.589 1.209,3.916 1.593,5.189 -1.069,0.443 -3.713,1.507 -5.436,1.938 -1.689,0.422 -4.733,0.958 -6.517,1.195 C 14.145,0.787 11.373,1.667 9.454,2.307 7.553,2.939 3.645,4.893 1.545,5.942 0.357,6.536 -1.122,7.519 -2.17,8.251 -1.756,6.898 -1.312,5.362 -1.169,4.578 -0.964,3.453 -0.228,0.809 0,0 m 25.682,-9.408 c -0.463,0 -1.08,0.145 -1.778,0.684 -1.018,0.787 -2.436,1.295 -4.216,1.509 -2.504,0.303 -5.677,0.911 -7.634,1.341 -1.769,0.39 -5.327,1.551 -6.737,2.062 -1.393,0.507 -5.874,2.806 -6.064,2.904 l -0.221,0.113 -0.068,0.239 c -0.042,0.145 -1.011,3.543 -1.264,4.929 -0.122,0.675 -0.541,2.175 -1.179,4.225 -0.174,0.556 -0.104,0.953 0.208,1.179 0.307,0.224 0.69,0.174 1.139,-0.145 C -1.158,8.932 0.676,7.661 2.021,6.988 3.985,6.007 7.994,4.004 9.818,3.396 11.692,2.771 14.393,1.913 16.21,1.671 18.024,1.43 21.126,0.883 22.853,0.452 c 2.282,-0.57 5.93,-2.13 6.084,-2.195 l 0.472,-0.202 -0.148,-0.493 C 29.2,-2.64 27.762,-7.414 27.505,-8.163 27.316,-8.715 26.854,-9.15 26.269,-9.324 26.122,-9.368 25.923,-9.408 25.682,-9.408"
             style="fill:#ffe068;fill-opacity:1;fill-rule:nonzero;stroke:none"
             id="path196349" />
        </g>
        <g
           id="g196351"
           transform="translate(533.4542,46.388)">
          <path
             d="M 0,0 C 0.398,-1.281 1.428,-4.601 1.599,-5.227 1.66,-5.45 1.888,-5.55 2.017,-5.589 c 0.33,-0.098 0.88,-0.065 1.354,0.352 1.054,0.923 2.627,1.499 4.809,1.762 2.437,0.293 5.486,0.875 7.526,1.324 1.703,0.375 5.247,1.53 6.591,2.019 1.154,0.42 4.773,2.255 5.709,2.732 0.228,0.809 0.965,3.453 1.169,4.578 0.146,0.809 0.62,2.426 1.001,3.671 C 29.047,10.061 27.621,9.121 26.498,8.561 24.354,7.489 20.45,5.539 18.552,4.906 16.636,4.268 13.866,3.389 11.949,3.133 10.157,2.893 7.111,2.355 5.433,1.936 3.71,1.506 1.071,0.444 0,0 m 2.358,-6.786 c -0.228,0 -0.454,0.032 -0.671,0.097 -0.609,0.183 -1.046,0.606 -1.197,1.16 -0.202,0.743 -1.727,5.636 -1.743,5.686 l -0.154,0.495 0.476,0.204 c 0.155,0.066 3.801,1.624 6.086,2.195 1.715,0.428 4.819,0.977 6.642,1.22 1.82,0.244 4.519,1.101 6.391,1.725 1.822,0.608 5.826,2.608 7.75,3.569 1.261,0.63 2.882,1.728 4.028,2.542 0.228,0.163 0.838,0.597 1.329,0.239 0.168,-0.122 0.42,-0.417 0.227,-1.035 H 31.521 C 30.873,9.24 30.43,7.659 30.306,6.973 30.054,5.587 29.084,2.188 29.043,2.044 L 28.974,1.805 28.753,1.691 C 28.562,1.594 24.081,-0.705 22.689,-1.212 21.283,-1.724 17.73,-2.883 15.952,-3.275 13.886,-3.728 10.795,-4.318 8.318,-4.615 6.373,-4.851 5.002,-5.337 4.128,-6.102 3.621,-6.546 2.983,-6.786 2.358,-6.786"
             style="fill:#ffe068;fill-opacity:1;fill-rule:nonzero;stroke:none"
             id="path196353" />
        </g>
        <g
           id="g196355"
           transform="translate(521.6108,34.096)">
          <path
             d="m 0,0 c -5.876,0 -11.879,0.312 -12.605,0.445 -0.222,0.041 -0.468,0.075 -0.729,0.11 -0.793,0.107 -1.779,0.241 -2.663,0.659 -1.332,0.631 -1.964,1.628 -1.932,3.046 0.032,1.429 1.386,2.111 2.643,2.275 0.718,0.094 1.025,0.285 1.07,0.42 0.064,0.195 -0.219,0.595 -0.395,0.765 l -0.943,0.91 1.309,-0.05 c 0.098,-0.004 9.808,-0.375 14.183,-0.375 4.375,0 14.58,0.371 14.683,0.375 l 1.105,0.04 -0.7,-0.856 C 14.642,7.294 14.288,6.721 14.206,6.451 14.353,6.414 14.665,6.393 14.883,6.377 15.35,6.344 15.878,6.307 16.317,6.095 17.321,5.607 17.814,4.751 17.785,3.549 17.76,2.482 16.828,1.476 15.408,0.985 14.321,0.61 10.971,0.312 9.997,0.312 9.84,0.312 9.424,0.291 8.811,0.261 7.001,0.169 3.632,0 0,0"
             style="fill:#ffe567;fill-opacity:1;fill-rule:nonzero;stroke:none"
             id="path196357" />
        </g>
        <g
           id="g196359"
           transform="translate(508.2973,41.6409)">
          <path
             d="m 0,0 c 0.105,-0.274 0.151,-0.588 0.047,-0.903 -0.197,-0.599 -0.815,-0.958 -1.89,-1.099 -0.411,-0.053 -1.75,-0.305 -1.772,-1.305 -0.023,-1.024 0.383,-1.658 1.359,-2.12 0.744,-0.352 1.608,-0.468 2.37,-0.572 0.277,-0.038 0.538,-0.073 0.775,-0.116 0.567,-0.105 6.527,-0.43 12.425,-0.43 3.607,0 6.959,0.169 8.761,0.259 0.64,0.032 1.072,0.054 1.235,0.054 1.007,0 4.21,0.316 5.085,0.618 0.989,0.342 1.689,1.016 1.703,1.642 0.02,0.809 -0.258,1.309 -0.904,1.622 -0.264,0.127 -0.69,0.158 -1.068,0.184 -0.589,0.042 -1.146,0.081 -1.458,0.474 -0.289,0.361 -0.196,0.928 0.278,1.691 C 24.229,-0.095 16.819,-0.34 13.252,-0.34 9.681,-0.34 2.585,-0.095 0,0"
             style="fill:#20398b;fill-opacity:1;fill-rule:nonzero;stroke:none"
             id="path196361" />
        </g>
        <g
           id="g196363"
           transform="translate(507.3579,39.7366)">
          <path
             d="m 0,0 c -0.449,0 -1.05,0.143 -1.732,0.67 -1.029,0.795 -2.459,1.308 -4.252,1.523 -2.501,0.302 -5.672,0.911 -7.628,1.34 -1.766,0.39 -5.318,1.548 -6.727,2.06 -1.389,0.505 -5.865,2.802 -6.056,2.899 l -0.192,0.099 -0.06,0.208 c -0.041,0.144 -1.009,3.539 -1.261,4.921 -0.123,0.678 -0.543,2.18 -1.181,4.233 -0.164,0.522 -0.104,0.892 0.18,1.099 0.28,0.201 0.633,0.153 1.052,-0.147 0.976,-0.7 2.814,-1.973 4.164,-2.649 1.965,-0.983 5.976,-2.987 7.805,-3.596 1.877,-0.626 4.584,-1.486 6.406,-1.728 1.813,-0.241 4.911,-0.788 6.635,-1.218 C -0.57,9.145 3.072,7.588 3.226,7.523 L 3.637,7.346 3.508,6.918 C 3.447,6.716 2.009,1.943 1.754,1.195 1.572,0.666 1.128,0.249 0.566,0.081 0.425,0.038 0.233,0 0,0"
             style="fill:#ffe567;fill-opacity:1;fill-rule:nonzero;stroke:none"
             id="path196365" />
        </g>
        <g
           id="g196367"
           transform="translate(481.6138,49.0188)">
          <path
             d="m 0,0 c 0.887,-0.452 4.574,-2.323 5.746,-2.75 1.388,-0.504 4.878,-1.641 6.601,-2.022 1.933,-0.425 5.067,-1.027 7.532,-1.325 1.975,-0.237 3.571,-0.817 4.744,-1.724 0.506,-0.391 1.004,-0.542 1.399,-0.422 0.3,0.09 0.47,0.307 0.529,0.48 0.206,0.601 1.245,4.036 1.613,5.257 -1.027,0.427 -3.746,1.527 -5.509,1.967 C 20.964,-0.117 17.916,0.42 16.13,0.657 14.224,0.912 11.456,1.79 9.54,2.429 7.644,3.061 3.739,5.012 1.641,6.061 0.388,6.687 -1.191,7.749 -2.242,8.488 -1.812,7.09 -1.329,5.439 -1.18,4.617 -0.972,3.474 -0.218,0.771 0,0"
             style="fill:#20398b;fill-opacity:1;fill-rule:nonzero;stroke:none"
             id="path196369" />
        </g>
        <g
           id="g196371"
           transform="translate(535.8126,39.6761)">
          <path
             d="M 0,0 C -0.221,0 -0.44,0.031 -0.65,0.094 -1.234,0.27 -1.651,0.674 -1.796,1.202 -1.999,1.947 -3.525,6.842 -3.54,6.891 L -3.674,7.322 -3.26,7.5 c 0.154,0.066 3.795,1.622 6.074,2.191 1.713,0.428 4.814,0.976 6.634,1.219 1.828,0.243 4.531,1.103 6.406,1.728 1.826,0.608 5.833,2.61 7.759,3.572 1.265,0.633 2.89,1.733 4.038,2.548 0.216,0.155 0.792,0.564 1.242,0.24 0.185,-0.134 0.37,-0.408 0.2,-0.953 C 28.711,16.826 28.045,14.641 27.874,13.698 27.622,12.316 26.653,8.921 26.612,8.776 L 26.553,8.568 26.36,8.47 C 26.17,8.372 21.693,6.075 20.306,5.57 18.901,5.059 15.352,3.901 13.578,3.511 11.513,3.057 8.425,2.468 5.95,2.171 3.99,1.934 2.607,1.441 1.721,0.667 1.227,0.234 0.607,0 0,0"
             style="fill:#ffe567;fill-opacity:1;fill-rule:nonzero;stroke:none"
             id="path196373" />
        </g>
        <g
           id="g196375"
           transform="translate(533.3624,46.431)">
          <path
             d="m 0,0 c 0.383,-1.23 1.445,-4.653 1.619,-5.289 0.07,-0.259 0.324,-0.37 0.469,-0.414 0.347,-0.105 0.927,-0.07 1.424,0.367 1.043,0.912 2.602,1.482 4.769,1.744 2.44,0.293 5.49,0.876 7.532,1.324 1.708,0.376 5.256,1.533 6.601,2.023 1.171,0.427 4.858,2.298 5.746,2.75 0.218,0.771 0.972,3.473 1.18,4.617 0.154,0.852 0.673,2.603 1.063,3.87 C 29.25,10.182 27.735,9.173 26.557,8.584 24.414,7.514 20.514,5.565 18.62,4.933 16.707,4.296 13.941,3.419 12.031,3.163 10.237,2.925 7.187,2.386 5.507,1.965 3.744,1.525 1.03,0.428 0,0"
             style="fill:#20398b;fill-opacity:1;fill-rule:nonzero;stroke:none"
             id="path196377" />
        </g>
        <g
           id="g196379"
           transform="translate(502.6694,45.4798)">
          <path
             d="M 0,0 -0.163,1.24 -0.17,1.241 -0.798,0.166 Z m 1.611,-2.125 -1.776,0.372 0.004,0.017 c 0.152,0.06 0.275,0.12 0.314,0.308 0.022,0.1 0.016,0.131 0,0.233 l -0.075,0.609 -1.16,0.243 -0.225,-0.369 c -0.065,-0.109 -0.167,-0.276 -0.193,-0.4 -0.034,-0.165 0.055,-0.263 0.142,-0.372 l -0.003,-0.019 -1.203,0.252 0.004,0.018 c 0.265,0.158 0.378,0.312 0.545,0.589 l 1.3,2.177 c 0.061,0.11 0.202,0.319 0.229,0.442 0.033,0.158 -0.051,0.287 -0.153,0.386 L -0.635,2.379 0.802,2.078 1.276,-1.155 1.282,-1.181 C 1.345,-1.586 1.346,-1.727 1.614,-2.107 L 1.612,-2.119 Z m -4.582,0.853 c -0.257,0.234 -0.158,0.557 -0.105,0.864 l 0.386,2.207 c 0.053,0.307 0.07,0.651 0.391,0.783 L -2.296,2.6 -3.883,2.878 -3.886,2.859 C -3.629,2.626 -3.728,2.298 -3.783,1.99 l -0.385,-2.208 c -0.052,-0.307 -0.07,-0.644 -0.391,-0.777 l -0.002,-0.018 1.587,-0.276 z M -4.348,2.947 -5.477,3.205 -5.48,3.187 C -5.277,2.889 -5.33,2.63 -5.407,2.291 L -5.754,0.77 -7.018,3.538 -7.015,3.557 -8.232,3.833 -8.235,3.816 C -7.999,3.393 -8.013,3.23 -8.116,2.773 L -8.576,0.756 C -8.654,0.416 -8.719,0.16 -9.03,-0.021 l -0.004,-0.017 1.129,-0.258 0.004,0.019 c -0.198,0.296 -0.144,0.554 -0.068,0.894 l 0.353,1.544 0.017,-0.004 0.781,-1.754 c 0.203,-0.44 0.267,-0.664 0.657,-0.98 0.156,-0.128 0.443,-0.348 0.648,-0.395 l 0.714,3.124 c 0.076,0.339 0.142,0.595 0.447,0.778 z M -9.799,0.163 c -0.179,0.304 -0.104,0.633 -0.034,0.963 l 0.536,2.563 c 0.044,0.213 0.148,0.243 0.325,0.323 l 0.006,0.017 -1.363,0.444 -0.006,-0.018 -1.379,-1.974 -0.133,2.465 0.006,0.017 -1.312,0.426 -0.005,-0.017 c 0.109,-0.187 0.138,-0.386 0.046,-0.595 L -14.166,2.464 C -14.3,2.168 -14.405,1.887 -14.723,1.762 l -0.005,-0.017 1.124,-0.365 0.005,0.017 c -0.137,0.14 -0.188,0.332 -0.108,0.521 l 0.834,1.905 0.016,-0.006 0.067,-1.699 c 0.014,-0.326 0.004,-0.587 0.215,-0.852 0.13,-0.162 0.277,-0.329 0.457,-0.438 l 1.554,2.244 0.018,-0.005 -0.445,-2.069 c -0.033,-0.16 -0.186,-0.28 -0.315,-0.346 l -0.005,-0.017 1.505,-0.489 z m -5.967,4.005 c 0.303,0.611 0.499,1.611 -0.243,1.978 -0.632,0.315 -1.215,-0.159 -1.49,-0.713 -0.154,-0.309 -0.257,-0.775 -0.24,-1.117 0.023,-0.332 0.19,-0.67 0.496,-0.822 0.285,-0.141 0.619,-0.126 0.906,0.019 0.267,0.137 0.442,0.391 0.571,0.655 m 1.135,-0.329 c -0.581,-1.17 -1.847,-1.392 -2.943,-0.849 -1.1,0.545 -1.6,1.683 -1.038,2.815 0.569,1.149 1.845,1.388 2.934,0.847 1.133,-0.563 1.635,-1.627 1.047,-2.813"
             style="fill:#ffffff;fill-opacity:1;fill-rule:nonzero;stroke:none"
             id="path196381" />
        </g>
        <g
           id="g196383"
           transform="translate(528.1071,36.1346)">
          <path
             d="m 0,0 c -0.265,0.234 -0.294,0.57 -0.33,0.905 l -0.282,2.601 c -0.024,0.217 0.066,0.276 0.21,0.408 V 3.932 H -1.835 V 3.914 l -0.7,-2.302 -0.888,2.302 V 3.932 H -4.802 V 3.914 C -4.64,3.77 -4.55,3.591 -4.574,3.363 L -4.862,0.839 C -4.898,0.515 -4.909,0.216 -5.174,0 v -0.018 h 1.182 V 0 c -0.174,0.09 -0.283,0.258 -0.265,0.462 l 0.204,2.068 h 0.019 l 0.588,-1.595 c 0.112,-0.306 0.184,-0.558 0.467,-0.743 0.173,-0.114 0.365,-0.228 0.569,-0.276 l 0.785,2.614 h 0.018 L -1.392,0.426 C -1.372,0.264 -1.481,0.102 -1.582,0 V -0.018 H 0 Z m -5.973,0 c -0.294,0.186 -0.252,0.528 -0.252,0.839 v 2.236 c 0,0.312 -0.042,0.653 0.252,0.839 V 3.932 H -7.578 V 3.914 C -7.285,3.728 -7.327,3.387 -7.327,3.075 V 1.63 c 0,-0.401 -0.042,-1.043 -0.587,-1.043 -0.151,0 -0.301,0.067 -0.391,0.186 -0.143,0.198 -0.132,0.426 -0.132,0.66 v 1.642 c 0,0.312 -0.041,0.653 0.252,0.839 V 3.932 H -9.778 V 3.914 c 0.292,-0.186 0.25,-0.527 0.25,-0.839 V 1.181 c 0,-0.366 0.018,-0.659 0.283,-0.936 0.233,-0.239 0.551,-0.341 0.875,-0.341 0.443,0 0.809,0.221 1.043,0.564 v -0.486 h 1.354 z m -4.552,0.923 -0.299,-0.875 c -0.389,-0.108 -0.797,-0.144 -1.199,-0.144 -0.611,0 -1.127,0.102 -1.606,0.515 -0.462,0.39 -0.707,0.954 -0.707,1.565 0,0.552 0.234,1.139 0.654,1.511 0.455,0.389 1.084,0.533 1.672,0.533 l 0.911,-0.078 0.042,-0.839 c -0.294,0.198 -0.648,0.312 -1.009,0.312 -0.82,0 -1.054,-0.666 -1.054,-1.391 0,-0.827 0.402,-1.498 1.295,-1.498 0.474,0 0.899,0.173 1.3,0.389"
             style="fill:#ffffff;fill-opacity:1;fill-rule:nonzero;stroke:none"
             id="path196385" />
        </g>
        <g
           id="g196387"
           transform="translate(553.6198,48.2823)">
          <path
             d="m 0,0 c -0.218,0.647 -0.788,1.492 -1.571,1.229 -0.67,-0.226 -0.747,-0.974 -0.551,-1.558 0.111,-0.33 0.366,-0.731 0.621,-0.961 0.251,-0.22 0.608,-0.34 0.932,-0.231 0.301,0.102 0.527,0.349 0.627,0.654 C 0.152,-0.582 0.095,-0.279 0,0 m 1.035,0.57 c 0.417,-1.239 -0.322,-2.291 -1.48,-2.682 -1.165,-0.393 -2.323,0.059 -2.727,1.258 -0.41,1.216 0.324,2.284 1.478,2.674 1.198,0.404 2.306,0.005 2.729,-1.25 m -4.91,-2.713 c -0.166,-0.315 -0.461,-0.432 -0.789,-0.502 -0.204,-0.043 -0.425,-0.076 -0.634,-0.041 l -0.231,1.103 0.193,0.041 c 0.219,0.045 0.483,0.125 0.613,-0.092 l 0.03,0.006 -0.171,0.821 -0.029,-0.007 c -0.049,-0.034 -0.13,-0.056 -0.211,-0.074 l -0.546,-0.115 -0.199,0.956 0.186,0.039 c 0.287,0.061 0.615,0.16 0.832,-0.082 L -4.814,-0.087 -4.991,0.765 -5.009,0.76 C -5.068,0.717 -5.161,0.699 -5.25,0.68 L -7.302,0.249 -7.299,0.232 c 0.325,-0.115 0.355,-0.459 0.418,-0.764 l 0.46,-2.198 c 0.064,-0.306 0.174,-0.625 -0.076,-0.868 l 0.005,-0.017 2.597,0.544 0.049,0.934 z m -4.959,0.047 c -0.114,0.608 -0.463,1.299 -1.189,1.163 -0.129,-0.025 -0.256,-0.067 -0.381,-0.115 l 0.486,-2.587 c 0.112,-0.016 0.221,-0.008 0.327,0.012 0.371,0.07 0.586,0.226 0.72,0.587 0.108,0.301 0.095,0.628 0.037,0.94 m 1.149,0.216 c 0.108,-0.572 -0.023,-1.207 -0.41,-1.651 -0.461,-0.533 -1.057,-0.614 -1.718,-0.737 l -1.325,-0.249 -0.004,0.017 c 0.255,0.237 0.151,0.565 0.094,0.872 l -0.34,1.81 c -0.038,0.2 -0.141,0.743 -0.201,0.907 -0.046,0.114 -0.158,0.227 -0.274,0.261 l -0.003,0.018 1.249,0.233 c 0.636,0.121 1.227,0.261 1.832,-0.009 0.6,-0.272 0.981,-0.837 1.1,-1.472"
             style="fill:#ffffff;fill-opacity:1;fill-rule:nonzero;stroke:none"
             id="path196389" />
        </g>
        <g
           id="g196391"
           transform="translate(529.0782,69.7798)">
          <path
             d="m 0,0 c -1.231,-0.223 -2.577,-0.309 -4.395,-0.309 -0.394,0 -0.786,0.005 -1.178,0.013 L -1.884,9.86 c 0.271,-0.023 0.542,-0.046 0.81,-0.074 z m -19.23,4.367 c 0,1.156 1.031,2.212 2.663,3.089 l -0.709,-5.62 c -1.228,0.674 -1.954,1.513 -1.954,2.531 m 5.105,7.16 0.3,-0.77 c -0.138,-0.035 -0.274,-0.072 -0.409,-0.109 z m 4.529,-11.588 c -2.196,0.219 -4.207,0.587 -5.818,1.115 l 0.899,7.305 c 0.46,0.166 0.945,0.321 1.446,0.465 z m 0.944,9.783 v -5.21 l -1.939,4.9 c 0.635,0.122 1.284,0.226 1.939,0.31 m 3.968,0.262 c 0.276,0 0.55,-0.008 0.825,-0.015 L -5.9,4.387 v 5.571 c 0.408,0.017 0.814,0.026 1.216,0.026 m 9.08,-1.253 v 2.528 C 3.344,11.37 2.278,11.472 1.207,11.557 l -0.123,0.987 c 0,0.632 -1.006,6.702 -1.006,6.702 0,0 -2.803,-6.152 -3.007,-6.73 l -0.264,-0.724 c -0.449,0.011 -0.897,0.018 -1.344,0.018 -0.461,0 -0.914,-0.009 -1.363,-0.022 v 0.983 c 0,2.024 -0.189,6.352 1.187,7.206 h -5.154 c 1.377,-0.854 1.215,-5.137 1.215,-7.206 v -1.145 c -0.931,-0.086 -1.826,-0.2 -2.679,-0.342 l -0.673,1.7 c -0.153,0.385 -2.668,6.449 -2.668,6.449 0,0 -1.269,-7.054 -1.37,-7.823 l -0.206,-1.627 c -3.401,-1.331 -5.423,-3.323 -5.423,-5.759 0,-2.17 1.427,-3.703 4.093,-4.727 -0.181,-1.258 -0.419,-2.394 -1.353,-3.279 v -0.082 h 4.166 v 0.082 c -1.005,0.483 -1.043,1.411 -0.909,2.684 1.89,-0.478 4.204,-0.785 6.898,-0.949 0.04,-0.085 0.082,-0.168 0.124,-0.248 v -1.936 c 0,-2.024 0.162,-5.352 -1.215,-6.162 v -0.135 H 1.225 l 0.85,3.983 C 0.699,-8.434 -0.894,-8.594 -2.604,-8.476 L -5.9,-8.197 v 6.031 c 0.788,-0.019 1.599,-0.029 2.438,-0.029 1.166,0 2.414,0.068 3.644,0.188 C 0.149,-2.82 -0.057,-3.51 -0.859,-3.782 v -0.082 h 4.935 v 0.082 c -0.829,0.623 -1.071,1.229 -1.214,2.123 0.5,0.082 0.983,0.172 1.44,0.268 L 4.323,1.41 C 3.688,1.135 3.112,0.902 2.561,0.703 L 1.475,9.407 C 2.486,9.219 3.465,8.993 4.396,8.731"
             style="fill:#ffffff;fill-opacity:1;fill-rule:nonzero;stroke:none"
             id="path196393" />
        </g>
        <g
           id="g196395"
           transform="translate(522.161,108.1837)">
          <path
             d="m 0,0 c -0.036,-1.827 -0.24,-3.232 -0.488,-3.232 -0.249,0 -0.453,1.407 -0.488,3.235 -1.114,0.049 -1.947,0.246 -1.947,0.484 0,0.237 0.832,0.435 1.944,0.484 0.027,1.906 0.235,3.395 0.491,3.395 0.255,0 0.463,-1.488 0.49,-3.392 C 1.156,0.932 2.033,0.73 2.033,0.487 2.033,0.243 1.155,0.042 0,0 M 3.721,1.878 C 3.284,1.878 2.535,1.753 1.941,2.003 1.522,2.179 1.067,2.499 0.972,3.627 0.879,4.751 1.597,7.094 1.597,7.094 h -0.749 -2.593 -0.75 c 0,0 0.719,-2.343 0.625,-3.467 C -1.964,2.499 -2.419,2.179 -2.838,2.003 -3.432,1.753 -4.181,1.878 -4.62,1.878 c -0.436,0 -1.124,0.375 -1.124,0.375 v -3.499 c 0,0 0.375,0.344 2.219,0.312 1.249,-0.021 1.374,-1.28 1.53,-2.124 0.152,-0.819 0.063,-2.561 0,-3.498 -0.062,-0.937 -0.75,-2.374 -0.75,-2.374 h 1.093 2.406 1.092 c 0,0 -0.686,1.437 -0.749,2.374 -0.062,0.937 -0.151,2.679 0,3.498 0.157,0.844 0.282,2.103 1.531,2.124 1.842,0.032 2.217,-0.312 2.217,-0.312 v 3.499 c 0,0 -0.686,-0.375 -1.124,-0.375"
             style="fill:#ffffff;fill-opacity:1;fill-rule:nonzero;stroke:none"
             id="path196397" />
        </g>
        <path
           d="m 515.959,81.784 h -1.843 v -1.718 h 1.843 z"
           style="fill:#ffffff;fill-opacity:1;fill-rule:nonzero;stroke:none"
           id="path196399" />
      </g>
    </g>
  </g>
</svg>
