<?xml version="1.0" encoding="UTF-8" standalone="no"?>
<!-- Created with Inkscape (http://www.inkscape.org/) -->

<svg
   width="36.367153mm"
   height="36.367153mm"
   viewBox="0 0 36.367153 36.367154"
   version="1.1"
   id="svg67976"
   xmlns="http://www.w3.org/2000/svg"
   xmlns:svg="http://www.w3.org/2000/svg"
   xmlns:rdf="http://www.w3.org/1999/02/22-rdf-syntax-ns#"
   xmlns:cc="http://creativecommons.org/ns#"
   xmlns:dc="http://purl.org/dc/elements/1.1/">
  <defs
     id="defs67970">
    <clipPath
       id="clipPath129438"
       clipPathUnits="userSpaceOnUse">
      <path
         id="path129436"
         d="m 251.824,805.044 h 11.667 v 9.674 h -11.667 v -9.674" />
    </clipPath>
  </defs>
  <metadata
     id="metadata67973">
    <rdf:RDF>
      <cc:Work
         rdf:about="">
        <dc:format>image/svg+xml</dc:format>
        <dc:type
           rdf:resource="http://purl.org/dc/dcmitype/StillImage" />
        <dc:title />
      </cc:Work>
    </rdf:RDF>
  </metadata>
  <g
     id="layer1"
     transform="translate(-203.93659,0.13575775)">
    <g
       id="g132893">
      <g
         transform="matrix(0.35277777,0,0,-0.35277777,239.9619,18.047466)"
         id="g129068">
        <path
           id="path129070"
           style="fill:#002d62;fill-opacity:1;fill-rule:nonzero;stroke:none"
           d="m 0,0 c 0,-27.929 -22.644,-50.575 -50.575,-50.575 -27.93,0 -50.574,22.646 -50.574,50.575 0,27.929 22.644,50.574 50.574,50.574 C -22.644,50.574 0,27.929 0,0" />
      </g>
      <g
         transform="matrix(0.35277777,0,0,-0.35277777,222.12017,36.231397)"
         id="g129072">
        <path
           id="path129074"
           style="fill:#ffe512;fill-opacity:1;fill-rule:nonzero;stroke:none"
           d="m 0,0 c -28.421,0 -51.544,23.124 -51.544,51.544 0,28.422 23.123,51.544 51.544,51.544 28.422,0 51.544,-23.122 51.544,-51.544 C 51.544,23.124 28.422,0 0,0 m 0,101.149 c -27.353,0 -49.605,-22.252 -49.605,-49.605 0,-27.352 22.252,-49.605 49.605,-49.605 27.353,0 49.606,22.253 49.606,49.605 0,27.353 -22.253,49.605 -49.606,49.605" />
      </g>
      <g
         transform="matrix(0.35277777,0,0,-0.35277777,222.05067,29.928669)"
         id="g129076">
        <path
           id="path129078"
           style="fill:#ffe512;fill-opacity:1;fill-rule:nonzero;stroke:none"
           d="m 0,0 c -17.957,0 -32.567,14.608 -32.567,32.565 0,17.956 14.61,32.564 32.567,32.564 17.958,0 32.567,-14.608 32.567,-32.564 C 32.567,14.608 17.958,0 0,0 m 0,63.415 c -17.013,0 -30.853,-13.839 -30.853,-30.85 0,-17.013 13.84,-30.853 30.853,-30.853 17.012,0 30.853,13.84 30.853,30.853 0,17.011 -13.841,30.85 -30.853,30.85" />
      </g>
      <g
         transform="matrix(0.35277777,0,0,-0.35277777,223.4258,28.073058)"
         id="g129080">
        <path
           id="path129082"
           style="fill:#ffe512;fill-opacity:1;fill-rule:nonzero;stroke:none"
           d="M 0,0 C -15.284,0 -27.72,12.435 -27.72,27.719 -27.72,43.005 -15.284,55.44 0,55.44 15.284,55.44 27.719,43.005 27.719,27.719 27.719,12.435 15.284,0 0,0 m 0,55.023 c -15.055,0 -27.302,-12.248 -27.302,-27.304 0,-15.054 12.247,-27.3 27.302,-27.3 15.053,0 27.3,12.246 27.3,27.3 0,15.056 -12.247,27.304 -27.3,27.304" />
      </g>
      <g
         transform="matrix(0.35277777,0,0,-0.35277777,220.87345,29.447127)"
         id="g129084">
        <path
           id="path129086"
           style="fill:#ffe512;fill-opacity:1;fill-rule:nonzero;stroke:none"
           d="m 0,0 c -15.283,0 -27.717,12.434 -27.717,27.719 0,15.283 12.434,27.718 27.717,27.718 15.284,0 27.719,-12.435 27.719,-27.718 C 27.719,12.434 15.284,0 0,0 m 0,55.02 c -15.053,0 -27.299,-12.248 -27.299,-27.301 0,-15.054 12.246,-27.302 27.299,-27.302 15.055,0 27.302,12.248 27.302,27.302 C 27.302,42.772 15.055,55.02 0,55.02" />
      </g>
      <g
         transform="matrix(0.35277777,0,0,-0.35277777,207.39134,24.17063)"
         id="g129088">
        <path
           id="path129090"
           style="fill:#ffffff;fill-opacity:1;fill-rule:nonzero;stroke:none"
           d="M 0,0 C 2.208,1.211 4.392,2.445 6.561,3.73 L 6.653,3.717 C 6.905,3.237 6.944,3.183 7.224,2.693 L 7.185,2.599 C 6.093,2.044 5.761,1.859 4.717,1.281 L 3.707,0.73 C 3.023,0.374 1.555,-0.401 1.188,-0.592 c 0.639,0.137 1.225,0.258 2.783,0.554 L 5.598,0.245 C 6.852,0.444 7.286,0.524 8.143,0.689 L 8.24,0.664 C 8.512,0.145 8.536,0.098 8.85,-0.437 L 8.812,-0.531 C 8.675,-0.662 8.536,-0.796 8.405,-0.925 8.148,-1.156 6.934,-2.328 6.665,-2.587 L 5.518,-3.674 c -1.176,-1.099 -1.31,-1.22 -1.856,-1.674 0.968,0.491 1.184,0.591 2.161,1.063 l 1.759,0.83 c 1.156,0.552 1.408,0.68 2.163,1.061 l 0.092,-0.014 c 0.241,-0.459 0.271,-0.519 0.511,-0.908 L 10.304,-3.4 C 10.102,-3.479 9.889,-3.566 9.688,-3.646 8.491,-4.146 7.326,-4.703 6.145,-5.232 4.381,-6.026 4.269,-6.072 3.423,-6.513 L 3.325,-6.488 C 2.96,-5.786 2.86,-5.619 2.524,-5.023 l 0.034,0.103 c 0.681,0.575 1.153,1.028 1.708,1.561 L 7.611,-0.287 2.96,-1.151 C 1.507,-1.416 1.448,-1.423 0.843,-1.553 L 0.747,-1.53 c -0.366,0.702 -0.422,0.784 -0.784,1.438 L 0,0" />
      </g>
      <g
         transform="matrix(0.35277777,0,0,-0.35277777,208.5996,26.476738)"
         id="g129092">
        <path
           id="path129094"
           style="fill:#ffffff;fill-opacity:1;fill-rule:nonzero;stroke:none"
           d="m 0,0 -0.116,0.028 -0.005,0.01 c -0.313,0.601 -0.432,0.813 -0.67,1.233 l -0.135,0.24 0.039,0.12 0.005,0.003 c 0.667,0.565 1.135,1.013 1.677,1.532 L 0.824,3.194 4.11,6.213 -1.042,5.256 C -1.949,5.093 -2.066,5.071 -2.577,4.961 L -2.583,4.96 -2.694,4.988 -2.699,4.997 C -2.973,5.521 -3.074,5.702 -3.258,6.03 -3.32,6.141 -3.392,6.268 -3.483,6.433 l -0.005,0.011 0.044,0.109 0.007,0.005 c 2.414,1.323 4.559,2.542 6.56,3.73 L 3.13,10.292 3.243,10.275 3.249,10.264 C 3.438,9.904 3.508,9.781 3.648,9.537 3.695,9.457 3.749,9.363 3.818,9.241 L 3.824,9.232 3.779,9.119 3.771,9.115 C 2.707,8.575 2.373,8.39 1.382,7.841 L 1.303,7.797 0.292,7.246 C -0.097,7.044 -0.731,6.711 -1.289,6.416 -1.604,6.251 -1.887,6.102 -2.076,6.003 c 0.62,0.132 1.253,0.26 2.617,0.519 L 2.168,6.805 C 3.43,7.006 3.869,7.085 4.713,7.249 L 4.719,7.25 4.723,7.248 4.83,7.222 4.844,7.197 C 5.107,6.692 5.134,6.64 5.445,6.112 L 5.451,6.102 5.403,5.99 5.348,5.936 C 5.228,5.822 5.11,5.708 4.997,5.595 4.741,5.366 3.559,4.226 3.256,3.933 L 2.109,2.846 C 1.055,1.862 0.835,1.659 0.408,1.302 1.124,1.664 1.405,1.799 2.073,2.121 l 0.315,0.151 1.758,0.83 c 1.096,0.523 1.375,0.664 2.049,1.005 l 0.12,0.06 H 6.322 L 6.427,4.151 6.457,4.095 C 6.677,3.674 6.711,3.609 6.942,3.233 L 6.949,3.221 6.896,3.119 6.888,3.116 C 6.748,3.061 6.604,3.003 6.461,2.946 L 6.271,2.869 C 5.473,2.536 4.675,2.17 3.903,1.817 3.519,1.641 3.122,1.459 2.729,1.284 L 2.412,1.141 C 0.953,0.485 0.8,0.416 0.008,0.005 Z M -0.084,0.069 -0.006,0.05 C 0.781,0.459 0.938,0.529 2.393,1.184 L 2.71,1.327 c 0.392,0.175 0.789,0.357 1.173,0.532 0.772,0.353 1.571,0.719 2.37,1.053 l 0.19,0.076 c 0.14,0.057 0.282,0.114 0.419,0.168 L 6.896,3.22 C 6.669,3.586 6.633,3.655 6.415,4.073 L 6.397,4.109 6.323,4.12 6.216,4.066 C 5.542,3.725 5.263,3.583 4.166,3.06 L 2.093,2.079 C 1.371,1.731 1.101,1.6 0.247,1.168 L 0.221,1.207 C 0.765,1.658 0.904,1.783 2.077,2.88 L 3.224,3.967 C 3.527,4.26 4.709,5.401 4.965,5.629 5.077,5.74 5.197,5.856 5.316,5.97 L 5.367,6.02 5.399,6.098 C 5.093,6.618 5.065,6.674 4.802,7.175 L 4.799,7.181 4.717,7.201 C 3.875,7.039 3.436,6.96 2.176,6.758 L 0.549,6.476 C -0.936,6.194 -1.554,6.068 -2.233,5.923 l -0.015,0.043 c 0.158,0.082 0.521,0.273 0.937,0.492 0.559,0.293 1.193,0.627 1.581,0.829 l 1.09,0.596 c 0.989,0.547 1.323,0.732 2.382,1.27 l 0.03,0.076 C 3.706,9.344 3.654,9.436 3.608,9.514 3.469,9.756 3.399,9.879 3.213,10.233 L 3.14,10.243 C 1.143,9.058 -0.999,7.841 -3.407,6.521 l -0.03,-0.075 c 0.089,-0.16 0.159,-0.285 0.22,-0.394 0.183,-0.326 0.284,-0.507 0.554,-1.024 l 0.081,-0.021 c 0.508,0.109 0.627,0.132 1.532,0.297 L -0.47,5.409 4.261,6.288 0.827,3.133 C 0.286,2.613 -0.181,2.166 -0.848,1.603 L -0.876,1.517 -0.75,1.293 c 0.237,-0.418 0.356,-0.629 0.666,-1.224" />
      </g>
      <g
         transform="matrix(0.35277777,0,0,-0.35277777,208.47578,23.232594)"
         id="g129096">
        <path
           id="path129098"
           style="fill:#ffffff;fill-opacity:1;fill-rule:nonzero;stroke:none"
           d="M 0,0 C -2.337,-0.671 -4.251,0.138 -4.87,2.297 -5.461,4.362 -4.385,6.083 -1.965,6.776 0.529,7.49 2.23,6.521 2.819,4.465 3.427,2.301 2.316,0.664 0,0 M -1.661,5.52 C -2.046,5.409 -3.054,5.063 -3.587,4.482 -4.319,3.685 -4.074,2.795 -4.003,2.544 -3.728,1.586 -3.052,1.238 -2.634,1.12 c 0.728,-0.221 1.73,-0.014 2.199,0.122 0.501,0.142 1.367,0.47 1.881,1 0.503,0.53 0.711,1.222 0.49,1.992 -0.428,1.539 -2.01,1.74 -3.597,1.286" />
      </g>
      <g
         transform="matrix(0.35277777,0,0,-0.35277777,207.93673,23.3222)"
         id="g129100">
        <path
           id="path129102"
           style="fill:#ffffff;fill-opacity:1;fill-rule:nonzero;stroke:none"
           d="m 0,0 c -1.675,0 -2.901,0.927 -3.364,2.544 -0.599,2.092 0.52,3.82 2.921,4.508 0.543,0.155 1.06,0.234 1.538,0.234 1.638,0 2.801,-0.91 3.274,-2.562 C 4.969,2.592 3.909,0.912 1.535,0.23 1.001,0.078 0.485,0 0,0 M 1.095,7.238 C 0.621,7.238 0.108,7.161 -0.43,7.007 -2.803,6.327 -3.911,4.621 -3.319,2.556 -2.862,0.961 -1.652,0.046 0,0.046 0.481,0.046 0.993,0.124 1.522,0.275 3.868,0.949 4.916,2.607 4.324,4.712 3.857,6.342 2.711,7.238 1.095,7.238 M -0.36,1.252 v 0 c -0.286,0 -0.539,0.033 -0.753,0.098 -0.394,0.112 -1.099,0.447 -1.384,1.441 -0.27,0.946 0.079,1.587 0.421,1.958 0.579,0.632 1.715,0.982 1.937,1.047 C 0.357,5.938 0.829,6.01 1.262,6.01 2.752,6.01 3.294,5.185 3.486,4.493 3.698,3.754 3.522,3.039 2.991,2.479 2.409,1.879 1.396,1.556 1.099,1.471 0.87,1.406 0.268,1.252 -0.36,1.252 M 1.262,5.963 C 0.833,5.963 0.366,5.891 -0.127,5.75 -0.346,5.687 -1.472,5.34 -2.042,4.718 -2.375,4.356 -2.716,3.729 -2.452,2.803 -2.173,1.832 -1.485,1.504 -1.1,1.394 -0.89,1.331 -0.641,1.299 -0.36,1.299 0.262,1.299 0.859,1.451 1.087,1.517 1.381,1.6 2.384,1.919 2.957,2.511 3.476,3.059 3.649,3.758 3.441,4.482 3.254,5.157 2.722,5.963 1.262,5.963" />
      </g>
      <g
         transform="matrix(0.35277777,0,0,-0.35277777,206.19542,18.572753)"
         id="g129104">
        <path
           id="path129106"
           style="fill:#ffffff;fill-opacity:1;fill-rule:nonzero;stroke:none"
           d="M 0,0 C 0.984,0.076 1.245,0.091 2.099,0.174 2.562,0.219 2.907,0.253 3.716,0.343 L 4.689,0.448 C 5.337,0.511 6.266,0.602 7.008,0.042 7.619,-0.422 7.938,-1.23 8.023,-2.107 8.159,-3.499 7.665,-4.244 7.38,-4.556 6.767,-5.206 6.118,-5.269 4.855,-5.392 L 3.754,-5.499 C 2.187,-5.652 2.004,-5.67 0.602,-5.839 l -0.084,0.068 c -0.069,0.592 -0.074,0.669 -0.15,1.207 l 0.071,0.062 c 1.126,0.065 3.082,0.256 4.13,0.357 1.08,0.106 1.737,0.193 2.143,0.613 0.209,0.206 0.471,0.657 0.397,1.403 -0.027,0.27 -0.129,1.121 -0.97,1.453 C 5.662,-0.483 5.046,-0.542 4.204,-0.624 2.951,-0.746 1.364,-0.913 0.139,-1.108 L 0.06,-1.062 c -0.059,0.497 -0.066,0.561 -0.13,0.99 L 0,0" />
      </g>
      <g
         transform="matrix(0.35277777,0,0,-0.35277777,206.40533,20.641089)"
         id="g129108">
        <path
           id="path129110"
           style="fill:#ffffff;fill-opacity:1;fill-rule:nonzero;stroke:none"
           d="M 0,0 -0.099,0.079 -0.132,0.368 C -0.173,0.723 -0.188,0.857 -0.25,1.295 l -0.002,0.012 0.087,0.077 h 0.009 C 0.903,1.446 2.706,1.62 3.783,1.723 L 3.972,1.742 C 5.029,1.845 5.697,1.93 6.101,2.348 6.245,2.491 6.572,2.91 6.491,3.732 6.401,4.64 5.922,5.013 5.536,5.165 5.321,5.253 5.064,5.293 4.727,5.293 4.402,5.293 4.018,5.255 3.612,5.216 2.48,5.105 0.827,4.935 -0.452,4.732 L -0.459,4.73 -0.557,4.786 -0.566,4.868 c -0.052,0.433 -0.061,0.512 -0.122,0.92 l -0.001,0.011 0.008,0.008 0.076,0.078 0.009,0.001 c 0.219,0.017 0.403,0.031 0.565,0.043 0.56,0.043 0.869,0.066 1.533,0.131 L 1.535,6.063 C 1.979,6.106 2.33,6.141 3.12,6.229 l 0.972,0.105 c 0.227,0.023 0.485,0.048 0.76,0.048 0.651,0 1.166,-0.15 1.574,-0.458 C 6.993,5.494 7.357,4.725 7.451,3.758 7.586,2.378 7.103,1.62 6.803,1.292 6.183,0.633 5.541,0.572 4.263,0.449 L 3.098,0.335 C 1.586,0.186 1.392,0.168 0.01,0.002 Z M -0.054,0.104 0.014,0.049 c 1.374,0.166 1.57,0.185 3.079,0.332 L 4.258,0.495 C 5.525,0.617 6.16,0.679 6.769,1.324 7.063,1.646 7.538,2.391 7.405,3.754 7.312,4.706 6.955,5.464 6.398,5.887 5.998,6.189 5.492,6.335 4.852,6.335 4.579,6.335 4.322,6.31 4.096,6.288 L 3.125,6.183 C 2.335,6.094 1.984,6.06 1.539,6.017 L 1.506,6.013 C 0.842,5.949 0.533,5.926 -0.028,5.883 -0.188,5.87 -0.369,5.857 -0.584,5.84 L -0.64,5.783 C -0.581,5.384 -0.571,5.304 -0.52,4.874 L -0.513,4.815 -0.451,4.779 C 0.828,4.982 2.477,5.151 3.608,5.262 4.015,5.301 4.399,5.339 4.727,5.339 5.07,5.339 5.332,5.298 5.553,5.209 5.951,5.052 6.445,4.667 6.537,3.736 6.62,2.895 6.282,2.462 6.134,2.314 5.719,1.886 5.043,1.8 3.976,1.695 L 3.787,1.677 C 2.712,1.573 0.916,1.4 -0.146,1.339 L -0.202,1.289 C -0.141,0.86 -0.126,0.726 -0.085,0.374 l 0.031,-0.27" />
      </g>
      <g
         transform="matrix(0.35277777,0,0,-0.35277777,209.00353,15.937855)"
         id="g129112">
        <path
           id="path129114"
           style="fill:#ffffff;fill-opacity:1;fill-rule:nonzero;stroke:none"
           d="M 0,0 0.071,-0.06 C 0.021,-0.698 0.02,-0.742 0.001,-1.394 L -0.08,-1.473 c -1.187,-0.551 -2.372,-1.102 -3.558,-1.663 l -3.183,-1.475 3.719,-0.178 c 0.455,-0.024 0.9,-0.037 1.355,-0.062 0.901,-0.036 0.924,-0.037 1.369,-0.05 l 0.07,-0.071 c -0.037,-0.476 -0.04,-0.521 -0.047,-1.041 l -0.082,-0.06 c -1.025,0.123 -2.063,0.215 -3.09,0.294 -1.472,0.114 -2.955,0.217 -4.43,0.276 l -0.073,0.06 c 0.041,0.673 0.05,0.781 0.077,1.399 l 0.084,0.102 c 1.376,0.635 2.809,1.285 4.119,1.903 l 2.473,1.159 -3.598,0.19 c -1.702,0.089 -1.952,0.095 -2.703,0.112 l -0.069,0.07 c 0.036,0.487 0.034,0.596 0.045,1.029 l 0.081,0.06 C -6.202,0.457 -4.852,0.332 -3.52,0.228 -2.503,0.149 -1.475,0.081 -0.455,0.025 L 0,0" />
      </g>
      <g
         transform="matrix(0.35277777,0,0,-0.35277777,208.85184,18.088741)"
         id="g129116">
        <path
           id="path129118"
           style="fill:#ffffff;fill-opacity:1;fill-rule:nonzero;stroke:none"
           d="M 0,0 -0.009,0.001 C -0.92,0.11 -1.902,0.202 -3.099,0.294 -4.417,0.396 -5.974,0.508 -7.528,0.57 h -0.008 l -0.087,0.073 0.018,0.296 c 0.027,0.433 0.036,0.595 0.059,1.115 l 0.001,0.008 0.096,0.113 c 0.427,0.198 0.86,0.396 1.292,0.594 0.946,0.434 1.924,0.883 2.828,1.309 l 2.389,1.12 -3.506,0.186 C -6.14,5.472 -6.385,5.479 -7.147,5.495 h -0.01 l -0.085,0.085 0.001,0.01 c 0.032,0.408 0.035,0.552 0.042,0.84 l 0.005,0.199 0.097,0.073 0.009,-0.001 c 1.353,-0.127 2.677,-0.25 4,-0.353 1.013,-0.079 2.044,-0.147 3.065,-0.203 L 0.439,6.119 0.526,6.047 0.525,6.035 C 0.474,5.388 0.473,5.349 0.455,4.703 V 4.693 L 0.36,4.603 C -0.9,4.018 -2.036,3.489 -3.198,2.94 L -6.295,1.504 -2.67,1.331 c 0.22,-0.011 0.442,-0.02 0.656,-0.029 0.229,-0.01 0.464,-0.02 0.699,-0.033 l 0.08,-0.003 C -0.411,1.233 -0.378,1.231 0.053,1.219 h 0.01 L 0.146,1.133 0.145,1.123 C 0.108,0.644 0.105,0.596 0.098,0.084 V 0.072 Z M -7.518,0.617 C -5.966,0.555 -4.412,0.442 -3.096,0.34 -1.902,0.249 -0.922,0.157 -0.013,0.049 l 0.065,0.047 c 0.006,0.498 0.01,0.553 0.046,1.02 L 0.042,1.172 c -0.422,0.013 -0.46,0.014 -1.279,0.047 l -0.081,0.004 c -0.234,0.013 -0.47,0.023 -0.697,0.032 -0.215,0.009 -0.437,0.018 -0.658,0.03 l -3.719,0.177 -0.009,0.044 3.183,1.476 c 1.161,0.548 2.297,1.077 3.555,1.661 L 0.408,4.714 C 0.427,5.361 0.43,5.417 0.477,6.027 L 0.421,6.073 -0.026,6.098 c -1.021,0.057 -2.052,0.125 -3.066,0.203 -1.32,0.103 -2.641,0.226 -3.992,0.354 L -7.148,6.606 -7.152,6.429 C -7.159,6.143 -7.163,5.998 -7.194,5.597 L -7.137,5.542 C -6.381,5.525 -6.131,5.518 -4.444,5.43 L -0.845,5.239 -0.837,5.195 -3.31,4.036 C -4.214,3.61 -5.191,3.162 -6.137,2.728 -6.568,2.529 -6.999,2.332 -7.424,2.136 L -7.5,2.044 C -7.522,1.531 -7.532,1.367 -7.559,0.936 L -7.576,0.664 -7.518,0.617" />
      </g>
      <g
         transform="matrix(0.35277777,0,0,-0.35277777,207.18073,13.500161)"
         id="g129120">
        <path
           id="path129122"
           style="fill:#ffffff;fill-opacity:1;fill-rule:nonzero;stroke:none"
           d="m 0,0 c -0.234,-0.88 -0.27,-1.028 -0.489,-1.936 1.051,-0.273 1.22,-0.315 2.159,-0.542 2.648,-0.636 3.703,-0.846 4.343,-0.967 l 0.06,-0.081 C 5.928,-4.127 5.92,-4.158 5.811,-4.747 L 5.726,-4.781 c -1.465,0.408 -2.94,0.774 -4.417,1.13 -1.077,0.259 -1.641,0.371 -2.097,0.47 -0.211,-0.921 -0.236,-1.025 -0.43,-1.972 L -1.308,-5.2 c -0.363,0.111 -0.405,0.122 -0.77,0.231 l -0.061,0.071 c 0.184,0.761 0.475,1.973 0.647,2.735 0.197,0.813 0.381,1.629 0.567,2.444 l 0.086,0.035 c 0.361,-0.122 0.475,-0.16 0.78,-0.233 L 0,0" />
      </g>
      <g
         transform="matrix(0.35277777,0,0,-0.35277777,206.72036,15.343072)"
         id="g129124">
        <path
           id="path129126"
           style="fill:#ffffff;fill-opacity:1;fill-rule:nonzero;stroke:none"
           d="M 0,0 -0.009,0.002 C -0.288,0.087 -0.378,0.114 -0.57,0.171 L -0.785,0.235 -0.79,0.24 -0.859,0.32 -0.856,0.332 c 0.216,0.896 0.485,2.016 0.647,2.735 0.166,0.685 0.325,1.385 0.479,2.061 L 0.361,5.523 0.466,5.565 0.474,5.562 C 0.832,5.441 0.949,5.403 1.252,5.33 L 1.26,5.328 1.331,5.229 1.328,5.219 C 1.094,4.34 1.059,4.196 0.845,3.306 1.889,3.034 2.053,2.993 2.981,2.77 5.499,2.164 6.589,1.941 7.323,1.803 L 7.332,1.801 7.404,1.704 7.398,1.683 C 7.256,1.093 7.247,1.058 7.139,0.473 L 7.137,0.461 7.033,0.419 7.025,0.421 C 5.46,0.856 3.914,1.236 2.609,1.55 1.756,1.756 1.233,1.867 0.814,1.956 0.715,1.978 0.623,1.997 0.535,2.016 L 0.505,1.886 C 0.325,1.1 0.293,0.959 0.111,0.067 L 0.108,0.056 Z M -0.759,0.276 -0.556,0.215 C -0.366,0.159 -0.277,0.132 -0.005,0.05 L 0.067,0.087 C 0.248,0.97 0.281,1.113 0.46,1.896 L 0.5,2.072 0.522,2.067 C 0.617,2.046 0.717,2.025 0.824,2.002 1.244,1.913 1.766,1.802 2.62,1.596 3.924,1.282 5.468,0.903 7.03,0.468 l 0.066,0.026 c 0.106,0.574 0.116,0.613 0.257,1.2 L 7.306,1.759 C 6.571,1.897 5.479,2.121 2.97,2.724 2.035,2.949 1.874,2.989 0.811,3.267 L 0.789,3.272 0.794,3.295 C 1.013,4.201 1.047,4.343 1.281,5.22 L 1.233,5.286 C 0.936,5.358 0.817,5.397 0.467,5.515 L 0.401,5.488 0.316,5.118 C 0.162,4.441 0.002,3.742 -0.163,3.056 -0.325,2.341 -0.592,1.226 -0.808,0.333 l 0.049,-0.057" />
      </g>
      <g
         transform="matrix(0.35277777,0,0,-0.35277777,208.9926,11.340103)"
         id="g129128">
        <path
           id="path129130"
           style="fill:#ffffff;fill-opacity:1;fill-rule:nonzero;stroke:none"
           d="M 0,0 C 0.661,0.556 1.537,1.297 2.782,0.68 3.872,0.141 4.455,-1.152 3.617,-2.844 3.106,-3.874 2.468,-4.382 2.236,-4.557 L 2.149,-4.564 c -0.321,0.208 -0.501,0.31 -0.856,0.522 l 0.008,0.115 c 0.287,0.162 0.973,0.523 1.422,1.429 0.496,1.001 0.187,1.675 -0.396,1.963 -0.681,0.337 -1.222,-0.096 -1.779,-0.608 l -0.455,-0.38 c -0.662,-0.532 -1.539,-1.249 -2.724,-0.662 -0.361,0.179 -0.682,0.458 -0.872,0.807 -0.421,0.765 -0.236,1.678 0.154,2.467 0.38,0.769 0.758,1.163 1.178,1.596 l 0.102,0.01 c 0.35,-0.223 0.483,-0.299 0.816,-0.501 L -1.251,2.097 C -1.673,1.784 -2.13,1.443 -2.493,0.713 c -0.4,-0.807 -0.27,-1.502 0.303,-1.785 0.438,-0.216 0.787,-0.026 1.014,0.116 0.141,0.087 0.179,0.118 0.72,0.575 L 0,0" />
      </g>
      <g
         transform="matrix(0.35277777,0,0,-0.35277777,209.7486,12.958647)"
         id="g129132">
        <path
           id="path129134"
           style="fill:#ffffff;fill-opacity:1;fill-rule:nonzero;stroke:none"
           d="m 0,0 -0.007,0.004 c -0.244,0.159 -0.405,0.255 -0.627,0.387 -0.069,0.041 -0.144,0.085 -0.228,0.135 l -0.012,0.008 0.01,0.141 0.043,0.025 C -0.512,0.873 0.13,1.234 0.56,2.1 0.802,2.59 0.866,3.04 0.744,3.402 0.651,3.676 0.454,3.894 0.174,4.032 0.015,4.111 -0.139,4.149 -0.295,4.149 -0.758,4.149 -1.166,3.808 -1.579,3.428 L -2.051,3.034 C -2.536,2.644 -3.139,2.16 -3.894,2.16 c -0.293,0 -0.592,0.075 -0.89,0.222 -0.386,0.191 -0.7,0.481 -0.882,0.816 -0.469,0.851 -0.175,1.824 0.154,2.49 0.387,0.782 0.773,1.18 1.181,1.601 l 0.007,0.007 0.118,0.011 0.007,-0.004 c 0.291,-0.185 0.43,-0.269 0.662,-0.408 L -3.372,6.796 -3.371,6.674 -3.381,6.667 C -3.791,6.361 -4.255,6.016 -4.615,5.291 -4.84,4.836 -4.901,4.4 -4.787,4.062 -4.708,3.83 -4.548,3.648 -4.323,3.538 c 0.129,-0.064 0.259,-0.096 0.389,-0.096 0.236,0 0.437,0.107 0.603,0.21 0.135,0.084 0.169,0.109 0.717,0.573 l 0.461,0.384 c 0.485,0.408 1.088,0.915 1.869,0.915 C 0.02,5.524 0.334,5.446 0.65,5.289 1.221,5.006 1.63,4.529 1.802,3.945 1.994,3.292 1.888,2.528 1.495,1.734 1.142,1.021 0.675,0.442 0.108,0.012 L 0.103,0.008 Z M -0.825,0.559 C -0.746,0.512 -0.676,0.469 -0.611,0.431 -0.389,0.3 -0.23,0.205 0.012,0.048 L 0.085,0.053 C 0.644,0.478 1.104,1.051 1.453,1.754 1.84,2.538 1.946,3.29 1.757,3.932 1.589,4.504 1.189,4.971 0.63,5.247 0.321,5.4 0.013,5.478 -0.284,5.478 c -0.764,0 -1.36,-0.501 -1.839,-0.904 L -2.128,4.57 -2.583,4.19 C -3.116,3.739 -3.163,3.701 -3.307,3.613 -3.477,3.505 -3.686,3.396 -3.934,3.396 c -0.137,0 -0.274,0.033 -0.409,0.1 -0.237,0.116 -0.406,0.307 -0.488,0.552 -0.118,0.349 -0.056,0.798 0.175,1.263 0.361,0.73 0.827,1.079 1.238,1.386 l -10e-4,0.072 -0.142,0.086 c -0.23,0.138 -0.37,0.222 -0.657,0.405 L -4.303,7.251 C -4.707,6.834 -5.089,6.439 -5.47,5.667 -5.795,5.011 -6.084,4.054 -5.626,3.221 -5.447,2.894 -5.141,2.611 -4.763,2.424 -4.472,2.28 -4.18,2.207 -3.894,2.207 c 0.739,0 1.334,0.478 1.813,0.863 l 0.472,0.393 c 0.419,0.386 0.835,0.733 1.314,0.733 0.162,0 0.327,-0.041 0.49,-0.121 C 0.486,3.931 0.691,3.703 0.788,3.417 0.915,3.043 0.849,2.581 0.601,2.08 0.165,1.2 -0.485,0.835 -0.798,0.66 L -0.819,0.647 -0.825,0.559" />
      </g>
      <g
         transform="matrix(0.35277777,0,0,-0.35277777,209.75636,8.5351666)"
         id="g129136">
        <path
           id="path129138"
           style="fill:#ffffff;fill-opacity:1;fill-rule:nonzero;stroke:none"
           d="m 0,0 c -0.534,-0.74 -0.62,-0.865 -1.146,-1.635 0.884,-0.631 1.026,-0.728 1.824,-1.274 2.247,-1.538 3.158,-2.11 3.714,-2.45 L 4.418,-5.456 C 4.068,-5.966 4.051,-5.995 3.74,-6.503 L 3.648,-6.506 c -1.224,0.902 -2.472,1.77 -3.726,2.629 -0.913,0.623 -1.401,0.931 -1.791,1.186 -0.525,-0.786 -0.587,-0.876 -1.105,-1.691 l -0.099,-0.011 c -0.3,0.232 -0.337,0.257 -0.639,0.491 l -0.03,0.086 c 0.439,0.644 1.145,1.674 1.577,2.326 0.473,0.689 0.935,1.386 1.398,2.08 l 0.093,0.002 C -0.378,0.351 -0.287,0.275 -0.027,0.097 L 0,0" />
      </g>
      <g
         transform="matrix(0.35277777,0,0,-0.35277777,211.04047,10.838805)"
         id="g129140">
        <path
           id="path129142"
           style="fill:#ffffff;fill-opacity:1;fill-rule:nonzero;stroke:none"
           d="m 0,0 -0.006,0.005 c -1.314,0.968 -2.621,1.871 -3.725,2.628 -0.734,0.5 -1.184,0.793 -1.547,1.027 -0.08,0.052 -0.154,0.099 -0.225,0.146 L -5.566,3.711 C -6.02,3.031 -6.103,2.908 -6.594,2.135 L -6.6,2.126 -6.72,2.111 -6.727,2.118 C -6.869,2.227 -6.952,2.291 -7.032,2.352 -7.121,2.42 -7.207,2.485 -7.366,2.609 l -0.006,0.004 -0.001,0.007 -0.035,0.097 0.215,0.315 c 0.422,0.618 1,1.464 1.369,2.02 0.391,0.573 0.783,1.159 1.161,1.726 l 0.243,0.365 0.114,0.001 0.039,-0.031 C -3.995,6.891 -3.903,6.817 -3.654,6.646 L -3.648,6.641 -3.615,6.525 -3.621,6.516 C -4.154,5.777 -4.238,5.655 -4.754,4.9 -3.896,4.288 -3.751,4.188 -2.973,3.655 L -2.949,3.64 C -0.813,2.177 0.127,1.581 0.764,1.19 L 0.772,1.185 0.803,1.069 0.797,1.06 C 0.446,0.548 0.428,0.518 0.12,0.014 L 0.113,0.003 Z m -5.517,3.87 0.02,-0.012 C -5.42,3.808 -5.339,3.755 -5.252,3.699 -4.89,3.465 -4.439,3.172 -3.705,2.671 -2.602,1.916 -1.297,1.014 0.015,0.047 l 0.072,0.002 c 0.3,0.491 0.322,0.528 0.666,1.029 L 0.732,1.155 c -0.638,0.391 -1.579,0.99 -3.708,2.446 l -0.023,0.016 c -0.785,0.537 -0.926,0.634 -1.8,1.258 l -0.018,0.013 0.012,0.019 c 0.525,0.769 0.607,0.89 1.139,1.627 L -3.688,6.612 C -3.933,6.78 -4.026,6.856 -4.297,7.077 l -0.025,0.02 H -4.394 L -4.624,6.752 C -5.002,6.185 -5.394,5.599 -5.786,5.026 -6.154,4.47 -6.733,3.624 -7.155,3.005 L -7.357,2.709 -7.332,2.641 c 0.156,-0.12 0.24,-0.185 0.328,-0.252 0.079,-0.061 0.161,-0.123 0.297,-0.229 l 0.079,0.009 c 0.487,0.765 0.57,0.89 1.023,1.568 l 0.088,0.133" />
      </g>
      <g
         transform="matrix(0.35277777,0,0,-0.35277777,211.78025,9.1616996)"
         id="g129144">
        <path
           id="path129146"
           style="fill:#ffffff;fill-opacity:1;fill-rule:nonzero;stroke:none"
           d="M 0,0 C 0.384,-0.335 0.508,-0.438 0.857,-0.716 L 0.883,-0.838 C 0.537,-1.284 0.523,-1.3 0.152,-1.797 L 0.036,-1.799 c -0.134,0.127 -0.285,0.253 -0.434,0.377 -0.141,0.119 -0.282,0.237 -0.432,0.348 l -0.019,0.13 c 0.361,0.447 0.432,0.531 0.72,0.925 L 0,0" />
      </g>
      <g
         transform="matrix(0.35277777,0,0,-0.35277777,211.78942,9.8048136)"
         id="g129148">
        <path
           id="path129150"
           style="fill:#ffffff;fill-opacity:1;fill-rule:nonzero;stroke:none"
           d="M 0,0 -0.007,0.006 C -0.14,0.134 -0.292,0.26 -0.439,0.383 -0.578,0.499 -0.721,0.619 -0.87,0.73 l -0.008,0.005 -0.022,0.15 0.11,0.136 c 0.275,0.34 0.358,0.443 0.615,0.797 l 0.006,0.008 0.15,0.022 0.008,-0.008 C 0.379,1.501 0.499,1.4 0.845,1.125 L 0.852,1.119 0.882,0.979 0.806,0.881 C 0.525,0.519 0.489,0.472 0.144,0.011 L 0.137,0.002 Z M -0.835,0.761 C -0.687,0.651 -0.546,0.533 -0.409,0.419 -0.264,0.298 -0.114,0.172 0.018,0.047 L 0.113,0.049 C 0.452,0.502 0.49,0.55 0.769,0.909 L 0.832,0.99 0.81,1.093 C 0.47,1.363 0.349,1.465 -0.034,1.798 L -0.143,1.782 C -0.397,1.434 -0.481,1.33 -0.754,0.991 L -0.851,0.872 -0.835,0.761" />
      </g>
      <g
         transform="matrix(0.35277777,0,0,-0.35277777,213.02273,8.4229826)"
         id="g129152">
        <path
           id="path129154"
           style="fill:#ffffff;fill-opacity:1;fill-rule:nonzero;stroke:none"
           d="m 0,0 -0.218,0.258 c -0.063,0.073 -0.19,0.223 -0.331,0.372 l 0.023,0.09 c 0.16,0.079 0.303,0.145 0.509,0.321 0.125,0.105 0.498,0.422 0.34,0.958 -0.067,0.214 -0.112,0.318 -1.209,1.606 -0.901,1.059 -1.817,2.104 -2.76,3.111 v 0.1 c 0.34,0.303 0.48,0.422 0.906,0.813 L -2.649,7.605 C -1.2,5.817 -1.124,5.728 -0.475,4.982 L 0.157,4.239 C 0.271,4.121 0.525,3.824 0.799,3.502 1.375,2.822 2.262,1.697 0.767,0.423 0.468,0.171 0.275,0.064 0.099,-0.031 L 0,0" />
      </g>
      <g
         transform="matrix(0.35277777,0,0,-0.35277777,213.05872,8.4427386)"
         id="g129156">
        <path
           id="path129158"
           style="fill:#ffffff;fill-opacity:1;fill-rule:nonzero;stroke:none"
           d="M 0,0 -0.115,0.035 -0.12,0.041 -0.337,0.298 c -0.068,0.08 -0.192,0.224 -0.331,0.371 l -0.008,0.009 0.028,0.114 0.037,0.018 c 0.146,0.072 0.285,0.14 0.477,0.304 0.12,0.102 0.487,0.411 0.332,0.934 -0.063,0.204 -0.089,0.289 -1.203,1.598 -1.039,1.22 -1.916,2.208 -2.76,3.11 l -0.006,0.006 v 0.12 l 0.008,0.007 c 0.09,0.08 0.166,0.147 0.237,0.211 0.199,0.175 0.356,0.315 0.669,0.601 l 0.009,0.008 0.11,-0.027 0.006,-0.006 C -1.271,5.871 -1.204,5.794 -0.559,5.053 L 0.074,4.309 C 0.188,4.19 0.456,3.876 0.715,3.573 1.245,2.947 2.231,1.782 0.68,0.461 0.391,0.217 0.205,0.11 0.008,0.004 Z M -0.088,0.076 -0.005,0.05 C 0.186,0.152 0.369,0.259 0.65,0.496 2.165,1.788 1.199,2.929 0.679,3.543 0.421,3.846 0.154,4.159 0.038,4.278 L -0.595,5.022 C -1.239,5.763 -1.307,5.841 -2.764,7.64 L -2.835,7.658 C -3.142,7.378 -3.298,7.239 -3.495,7.065 -3.564,7.003 -3.638,6.938 -3.725,6.861 V 6.78 C -2.883,5.881 -2.007,4.894 -0.97,3.676 0.151,2.359 0.178,2.272 0.243,2.062 0.406,1.51 0.023,1.185 -0.104,1.078 -0.3,0.91 -0.441,0.841 -0.591,0.768 L -0.608,0.76 -0.625,0.692 c 0.136,-0.145 0.256,-0.284 0.321,-0.361 l 0.216,-0.255" />
      </g>
      <g
         transform="matrix(0.35277777,0,0,-0.35277777,213.29331,6.4562466)"
         id="g129160">
        <path
           id="path129162"
           style="fill:#ffffff;fill-opacity:1;fill-rule:nonzero;stroke:none"
           d="M 0,0 C -1.296,2.059 -1.055,4.119 0.847,5.318 2.665,6.46 4.616,5.908 5.958,3.776 7.339,1.582 6.883,-0.322 5.074,-1.46 3.167,-2.647 1.283,-2.038 0,0 M 4.835,3.134 C 4.621,3.474 4.009,4.346 3.302,4.695 2.332,5.176 1.547,4.692 1.324,4.554 0.482,4.023 0.335,3.277 0.338,2.843 0.33,2.082 0.81,1.178 1.069,0.764 1.347,0.323 1.903,-0.417 2.557,-0.762 3.205,-1.098 3.927,-1.105 4.606,-0.677 5.962,0.164 5.713,1.74 4.835,3.134" />
      </g>
      <g
         transform="matrix(0.35277777,0,0,-0.35277777,214.4035,7.1921416)"
         id="g129164">
        <path
           id="path129166"
           style="fill:#ffffff;fill-opacity:1;fill-rule:nonzero;stroke:none"
           d="m 0,0 c -1.2,0 -2.324,0.737 -3.166,2.074 -1.338,2.125 -1.01,4.174 0.854,5.349 0.619,0.389 1.254,0.586 1.89,0.586 1.231,0 2.387,-0.758 3.254,-2.134 C 3.5,4.812 3.762,3.765 3.589,2.844 3.422,1.953 2.851,1.18 1.94,0.606 1.294,0.204 0.641,0 0,0 M -0.422,7.963 C -1.049,7.963 -1.676,7.768 -2.287,7.384 -4.128,6.224 -4.449,4.199 -3.127,2.098 -2.294,0.775 -1.183,0.047 0,0.047 c 0.632,0 1.277,0.201 1.915,0.598 0.901,0.567 1.464,1.33 1.628,2.207 C 3.713,3.761 3.454,4.798 2.792,5.85 1.934,7.212 0.793,7.963 -0.422,7.963 M 0.37,1.056 c -0.327,0 -0.653,0.083 -0.97,0.247 -0.717,0.379 -1.285,1.199 -1.496,1.534 -0.176,0.279 -0.744,1.253 -0.736,2.092 -0.003,0.41 0.123,1.18 0.997,1.73 0.141,0.088 0.568,0.354 1.133,0.354 0.294,0 0.586,-0.071 0.868,-0.212 C 0.913,6.434 1.536,5.507 1.708,5.232 2.312,4.274 2.551,3.342 2.382,2.608 2.265,2.101 1.958,1.691 1.472,1.39 1.121,1.168 0.75,1.056 0.37,1.056 m -1.072,5.91 C -1.253,6.966 -1.657,6.715 -1.81,6.621 -2.665,6.082 -2.788,5.329 -2.785,4.929 -2.793,4.103 -2.23,3.138 -2.058,2.862 -1.894,2.603 -1.306,1.728 -0.578,1.344 -0.269,1.184 0.05,1.102 0.37,1.102 c 0.372,0 0.734,0.11 1.078,0.327 0.475,0.295 0.774,0.695 0.888,1.19 C 2.503,3.34 2.266,4.26 1.67,5.208 1.498,5.48 0.881,6.398 0.145,6.76 -0.131,6.897 -0.416,6.966 -0.702,6.966" />
      </g>
      <g
         transform="matrix(0.35277777,0,0,-0.35277777,216.57732,4.4291856)"
         id="g129168">
        <path
           id="path129170"
           style="fill:#ffffff;fill-opacity:1;fill-rule:nonzero;stroke:none"
           d="M 0,0 C 0.866,-0.013 2.013,-0.026 2.55,-1.306 3.022,-2.425 2.616,-3.786 0.876,-4.517 -0.185,-4.964 -1,-4.929 -1.29,-4.91 l -0.07,0.054 c -0.108,0.367 -0.178,0.561 -0.307,0.954 l 0.084,0.082 c 0.322,-0.066 1.078,-0.241 2.007,0.149 1.031,0.434 1.239,1.145 0.988,1.744 -0.295,0.701 -0.989,0.727 -1.744,0.705 l -0.593,0.008 c -0.848,0.033 -1.981,0.063 -2.495,1.284 -0.156,0.37 -0.215,0.792 -0.13,1.181 0.182,0.853 0.921,1.423 1.73,1.763 0.791,0.333 1.335,0.384 1.935,0.437 L 0.199,3.391 C 0.32,2.995 0.368,2.851 0.489,2.478 L 0.427,2.405 C -0.097,2.444 -0.667,2.486 -1.418,2.17 -2.247,1.822 -2.605,1.213 -2.356,0.622 -2.167,0.172 -1.778,0.088 -1.513,0.047 -1.35,0.022 -1.301,0.019 -0.592,0.01 L 0,0" />
      </g>
      <g
         transform="matrix(0.35277777,0,0,-0.35277777,216.22102,6.1726136)"
         id="g129172">
        <path
           id="path129174"
           style="fill:#ffffff;fill-opacity:1;fill-rule:nonzero;stroke:none"
           d="M 0,0 C -0.119,0 -0.213,0.005 -0.281,0.01 H -0.288 L -0.37,0.073 -0.372,0.08 c -0.08,0.272 -0.14,0.454 -0.217,0.683 -0.027,0.081 -0.056,0.169 -0.089,0.27 l -0.005,0.014 0.102,0.101 0.043,-0.009 c 0.173,-0.036 0.434,-0.09 0.77,-0.09 0.406,0 0.808,0.082 1.194,0.243 C 2.76,1.855 2.51,2.747 2.401,3.007 2.158,3.584 1.651,3.702 0.964,3.702 0.883,3.702 0.792,3.7 0.679,3.697 l -0.62,0.01 c -0.833,0.031 -1.975,0.075 -2.49,1.296 -0.166,0.396 -0.213,0.821 -0.131,1.195 0.203,0.95 1.06,1.493 1.744,1.78 0.804,0.338 1.357,0.387 1.942,0.439 H 1.132 L 1.23,8.349 1.232,8.341 C 1.333,8.006 1.385,7.849 1.47,7.589 L 1.526,7.416 1.448,7.324 1.436,7.325 C 1.258,7.338 1.078,7.351 0.887,7.351 0.425,7.351 0.028,7.271 -0.398,7.092 -0.866,6.895 -1.198,6.605 -1.333,6.276 -1.424,6.049 -1.422,5.806 -1.324,5.574 -1.154,5.168 -0.827,5.064 -0.499,5.013 -0.339,4.988 -0.303,4.985 0.419,4.976 L 1.021,4.966 C 1.873,4.953 3.041,4.935 3.583,3.646 3.83,3.059 3.827,2.43 3.574,1.875 3.292,1.256 2.711,0.747 1.895,0.404 1.267,0.14 0.612,0 0,0 M -0.271,0.056 C -0.204,0.051 -0.114,0.047 0,0.047 c 0.606,0 1.255,0.138 1.877,0.4 C 2.683,0.785 3.255,1.286 3.532,1.895 3.779,2.438 3.782,3.052 3.54,3.627 3.01,4.889 1.907,4.906 1.02,4.919 L 1.01,4.92 0.418,4.93 C -0.286,4.938 -0.337,4.941 -0.507,4.966 -0.72,5 -1.164,5.07 -1.367,5.556 -1.469,5.8 -1.473,6.055 -1.376,6.293 c 0.14,0.342 0.48,0.64 0.96,0.842 0.56,0.235 1.012,0.263 1.303,0.263 0.189,0 0.368,-0.013 0.541,-0.026 L 1.473,7.426 1.426,7.574 C 1.341,7.833 1.29,7.99 1.19,8.32 L 1.119,8.369 C 0.541,8.318 -0.007,8.269 -0.8,7.935 -1.474,7.652 -2.318,7.119 -2.517,6.188 -2.596,5.823 -2.55,5.409 -2.388,5.021 -1.885,3.827 -0.806,3.786 0.061,3.753 L 0.087,3.752 0.679,3.743 c 0.112,0.004 0.203,0.006 0.285,0.006 0.61,0 1.212,-0.088 1.479,-0.724 C 2.799,2.176 2.16,1.551 1.444,1.249 1.053,1.086 0.645,1.002 0.232,1.002 c -0.34,0 -0.615,0.057 -0.779,0.091 L -0.566,1.097 -0.63,1.034 C -0.598,0.939 -0.571,0.855 -0.545,0.778 -0.469,0.55 -0.408,0.369 -0.33,0.101 l 0.059,-0.045" />
      </g>
      <g
         transform="matrix(0.35277777,0,0,-0.35277777,219.52866,4.8010136)"
         id="g129176">
        <path
           id="path129178"
           style="fill:#ffffff;fill-opacity:1;fill-rule:nonzero;stroke:none"
           d="M 0,0 C 0.062,-0.365 0.081,-0.438 0.153,-0.801 L 0.099,-0.893 c -2.05,-0.53 -2.372,-0.625 -4.364,-1.164 l -0.07,0.061 c -0.185,0.837 -0.3,1.413 -0.798,3.336 -0.456,1.765 -0.717,2.774 -1.104,3.962 l 0.045,0.09 c 2.066,0.546 2.476,0.654 4.404,1.174 L -1.706,6.508 C -1.657,6.185 -1.646,6.055 -1.568,5.67 L -1.611,5.581 C -2.978,5.273 -3.429,5.155 -4.767,4.819 -4.548,3.846 -4.468,3.54 -4.219,2.575 c 1.295,0.324 1.691,0.437 2.967,0.789 L -1.18,3.305 C -1.126,2.927 -1.1,2.821 -1.022,2.484 L -1.067,2.392 C -2.293,2.109 -2.556,2.041 -3.984,1.671 c 0.294,-1.226 0.381,-1.516 0.65,-2.512 1.586,0.412 1.912,0.495 3.253,0.899 L 0,0" />
      </g>
      <g
         transform="matrix(0.35277777,0,0,-0.35277777,218.02195,5.5354966)"
         id="g129180">
        <path
           id="path129182"
           style="fill:#ffffff;fill-opacity:1;fill-rule:nonzero;stroke:none"
           d="m 0,0 -0.085,0.073 -0.069,0.314 c -0.152,0.693 -0.295,1.348 -0.73,3.029 -0.445,1.723 -0.715,2.763 -1.105,3.962 l -0.002,0.009 0.054,0.107 0.01,0.002 0.609,0.162 c 1.55,0.41 2.073,0.548 3.795,1.012 L 2.487,8.673 2.586,8.604 2.588,8.594 C 2.6,8.513 2.61,8.444 2.619,8.38 2.646,8.192 2.668,8.044 2.725,7.756 L 2.728,7.749 2.675,7.643 2.664,7.641 C 1.455,7.368 0.949,7.24 -0.063,6.986 L -0.468,6.884 C -0.259,5.95 -0.178,5.638 0.058,4.726 L 0.068,4.685 C 1.222,4.973 1.647,5.091 2.666,5.373 L 3.025,5.472 3.113,5.399 3.114,5.391 C 3.167,5.024 3.192,4.917 3.266,4.6 L 3.274,4.563 3.221,4.453 3.21,4.451 C 1.996,4.172 1.742,4.106 0.335,3.742 L 0.315,3.736 C 0.557,2.728 0.658,2.357 0.84,1.685 0.875,1.56 0.912,1.423 0.953,1.27 2.521,1.676 2.849,1.761 4.183,2.162 L 4.194,2.165 4.292,2.095 4.294,2.086 C 4.34,1.816 4.362,1.705 4.399,1.52 4.413,1.455 4.428,1.38 4.447,1.286 L 4.448,1.277 4.444,1.27 4.385,1.168 4.376,1.166 C 2.796,0.758 2.248,0.61 1.159,0.314 0.837,0.227 0.469,0.126 0.012,0.003 Z M -0.043,0.098 0.012,0.051 c 0.451,0.122 0.815,0.221 1.135,0.308 1.087,0.295 1.634,0.443 3.208,0.85 L 4.399,1.286 C 4.381,1.376 4.367,1.448 4.354,1.511 4.317,1.694 4.295,1.805 4.25,2.069 L 4.186,2.114 C 2.859,1.715 2.529,1.63 0.961,1.224 L 0.92,1.213 0.914,1.235 C 0.87,1.398 0.831,1.542 0.795,1.674 0.611,2.35 0.511,2.722 0.265,3.748 L 0.259,3.77 0.324,3.786 c 1.371,0.356 1.659,0.43 2.864,0.708 L 3.225,4.569 3.22,4.589 C 3.146,4.905 3.121,5.013 3.069,5.375 L 3.014,5.421 2.678,5.328 C 1.653,5.044 1.228,4.927 0.057,4.635 L 0.035,4.628 0.013,4.714 c -0.238,0.92 -0.318,1.23 -0.531,2.182 l -0.006,0.022 0.023,0.006 0.428,0.107 C 0.934,7.284 1.442,7.412 2.644,7.684 L 2.678,7.755 C 2.621,8.039 2.6,8.187 2.573,8.373 2.564,8.435 2.555,8.5 2.543,8.577 L 2.478,8.623 C 0.765,8.161 0.241,8.022 -1.306,7.612 L -1.905,7.454 -1.941,7.382 C -1.552,6.187 -1.283,5.147 -0.839,3.428 -0.404,1.745 -0.26,1.09 -0.108,0.397 l 0.065,-0.299" />
      </g>
      <g
         transform="matrix(0.35277777,0,0,-0.35277777,220.25503,5.0271436)"
         id="g129184">
        <path
           id="path129186"
           style="fill:#ffffff;fill-opacity:1;fill-rule:nonzero;stroke:none"
           d="m 0,0 c -0.593,-0.062 -0.624,-0.066 -1.182,-0.158 l -0.072,0.069 c -0.051,0.683 -0.098,1.212 -0.23,2.476 -0.179,1.671 -0.362,3.388 -0.632,5.017 l 0.045,0.082 c 0.174,0.017 0.98,0.125 1.173,0.146 L -0.187,7.73 C 0.525,7.806 1.075,7.865 1.611,7.757 2.851,7.497 3.268,6.537 3.347,5.792 3.393,5.36 3.329,4.928 3.152,4.55 2.637,3.435 1.454,3.081 0.169,2.944 -0.024,2.923 -0.167,2.919 -0.317,2.902 -0.184,1.739 -0.146,1.394 0.058,0.084 Z m 0.676,3.937 c 0.288,0.052 1.057,0.21 1.363,0.918 0.106,0.241 0.13,0.527 0.1,0.798 C 2.117,5.87 2.06,6.103 1.939,6.308 1.505,7.015 0.683,6.938 0.23,6.891 -0.309,6.833 -0.448,6.796 -0.737,6.743 c 0.053,-0.496 0.096,-1.004 0.15,-1.512 0.052,-0.483 0.114,-0.97 0.164,-1.455 0.367,0.05 0.809,0.097 1.099,0.161" />
      </g>
      <g
         transform="matrix(0.35277777,0,0,-0.35277777,219.83523,5.0920556)"
         id="g129188">
        <path
           id="path129190"
           style="fill:#ffffff;fill-opacity:1;fill-rule:nonzero;stroke:none"
           d="m 0,0 -0.087,0.084 v 0.009 c -0.051,0.675 -0.096,1.193 -0.231,2.474 l -0.007,0.069 c -0.176,1.643 -0.358,3.342 -0.624,4.948 l -0.002,0.008 0.056,0.1 0.012,10e-4 c 0.094,0.009 0.374,0.045 0.645,0.08 0.227,0.028 0.44,0.056 0.528,0.066 L 1,7.936 c 0.434,0.046 0.807,0.086 1.154,0.086 0.24,0 0.453,-0.019 0.651,-0.059 C 4.23,7.664 4.507,6.475 4.561,5.978 4.608,5.534 4.54,5.1 4.363,4.723 3.804,3.512 2.465,3.221 1.361,3.104 1.26,3.094 1.174,3.087 1.091,3.081 1.025,3.077 0.962,3.072 0.899,3.065 L 0.909,2.976 C 1.032,1.9 1.074,1.537 1.271,0.27 L 1.273,0.262 1.203,0.161 1.193,0.16 C 0.597,0.097 0.564,0.093 0.011,0.002 Z M -0.042,0.104 0.016,0.05 C 0.555,0.139 0.595,0.144 1.178,0.206 L 1.224,0.272 C 1.028,1.532 0.986,1.896 0.863,2.97 L 0.847,3.106 0.87,3.109 C 0.943,3.117 1.013,3.122 1.088,3.128 1.171,3.133 1.256,3.139 1.357,3.15 2.448,3.266 3.771,3.552 4.321,4.743 4.494,5.112 4.561,5.537 4.514,5.972 4.462,6.46 4.19,7.625 2.796,7.917 2.601,7.957 2.391,7.976 2.154,7.976 1.809,7.976 1.437,7.936 1.006,7.89 L 0.296,7.792 C 0.208,7.783 -0.006,7.756 -0.232,7.726 -0.492,7.693 -0.762,7.658 -0.867,7.648 L -0.902,7.583 c 0.266,-1.604 0.448,-3.301 0.623,-4.942 l 0.007,-0.069 c 0.134,-1.276 0.18,-1.795 0.23,-2.468 M 0.747,3.932 0.744,3.956 C 0.717,4.217 0.686,4.482 0.656,4.739 0.63,4.964 0.603,5.188 0.579,5.412 0.553,5.661 0.529,5.914 0.506,6.159 0.482,6.411 0.457,6.672 0.43,6.924 L 0.427,6.945 0.449,6.949 c 0.055,0.01 0.105,0.02 0.153,0.029 0.203,0.039 0.379,0.073 0.815,0.119 0.111,0.011 0.277,0.029 0.454,0.029 0.602,0 1.021,-0.204 1.278,-0.622 C 3.258,6.32 3.326,6.096 3.353,5.839 3.375,5.627 3.376,5.316 3.25,5.029 3.039,4.54 2.574,4.226 1.87,4.097 1.662,4.051 1.373,4.014 1.094,3.978 0.984,3.964 0.874,3.95 0.771,3.935 Z M 0.479,6.908 C 0.505,6.661 0.529,6.409 0.552,6.164 0.575,5.919 0.6,5.666 0.626,5.417 0.65,5.193 0.676,4.969 0.702,4.744 0.731,4.496 0.762,4.238 0.788,3.985 0.885,3.998 0.986,4.011 1.088,4.025 1.367,4.06 1.654,4.097 1.86,4.142 2.899,4.333 3.131,4.87 3.207,5.047 3.329,5.325 3.329,5.628 3.307,5.834 3.28,6.085 3.214,6.302 3.109,6.48 2.861,6.883 2.456,7.079 1.871,7.079 1.697,7.079 1.532,7.062 1.422,7.051 0.987,7.004 0.813,6.971 0.611,6.932 0.568,6.924 0.525,6.916 0.479,6.908" />
      </g>
      <g
         transform="matrix(0.35277777,0,0,-0.35277777,223.85301,4.9936306)"
         id="g129192">
        <path
           id="path129194"
           style="fill:#ffffff;fill-opacity:1;fill-rule:nonzero;stroke:none"
           d="m 0,0 c -0.574,0.03 -0.619,0.033 -1.227,0.035 l -0.061,0.08 c 0.102,1.211 0.207,2.521 0.26,3.638 -0.25,0.013 -0.521,0.039 -1.017,0.068 C -2.891,3.868 -3.823,3.909 -4.571,3.94 -4.698,1.883 -4.707,1.153 -4.698,0.338 L -4.756,0.266 C -5.352,0.3 -5.385,0.302 -5.982,0.303 l -0.063,0.08 c 0.105,1.058 0.147,1.61 0.332,4.893 0.081,1.463 0.078,1.985 0.082,2.636 l 0.069,0.074 c 0.554,-0.02 0.684,-0.029 1.206,-0.035 L -4.307,7.872 C -4.353,7.232 -4.425,6.346 -4.51,4.86 c 0.564,-0.041 0.868,-0.069 1.57,-0.11 0.998,-0.054 1.453,-0.069 1.963,-0.076 0.094,2.059 0.108,2.298 0.091,2.973 l 0.059,0.071 C -0.241,7.697 -0.154,7.692 0.377,7.684 L 0.426,7.604 C 0.336,6.555 0.286,5.874 0.18,3.978 0.064,1.875 0.059,1.072 0.07,0.072 L 0,0" />
      </g>
      <g
         transform="matrix(0.35277777,0,0,-0.35277777,223.85654,5.0020966)"
         id="g129196">
        <path
           id="path129198"
           style="fill:#ffffff;fill-opacity:1;fill-rule:nonzero;stroke:none"
           d="M 0,0 -0.058,0.003 C -0.59,0.031 -0.646,0.034 -1.236,0.036 h -0.011 l -0.075,0.096 0.001,0.009 c 0.102,1.222 0.207,2.504 0.26,3.614 -0.105,0.006 -0.217,0.014 -0.345,0.024 -0.168,0.012 -0.376,0.027 -0.65,0.043 C -2.758,3.861 -3.6,3.901 -4.558,3.94 -4.688,1.83 -4.693,1.126 -4.685,0.363 V 0.354 L -4.689,0.347 -4.755,0.266 -4.767,0.267 C -5.357,0.3 -5.393,0.303 -5.992,0.304 h -0.011 l -0.075,0.095 0.001,0.009 c 0.106,1.078 0.149,1.659 0.331,4.893 0.077,1.375 0.079,1.931 0.082,2.52 v 0.124 l 0.083,0.089 0.308,-0.012 C -4.944,8.009 -4.78,8.003 -4.366,7.998 h 0.013 L -4.346,7.988 -4.292,7.902 -4.293,7.894 -4.317,7.571 C -4.362,6.968 -4.424,6.143 -4.494,4.905 -4.35,4.895 -4.224,4.886 -4.103,4.876 -3.758,4.85 -3.46,4.827 -2.948,4.798 -1.944,4.743 -1.501,4.729 -1.008,4.722 l 0.013,0.264 c 0.081,1.811 0.093,2.043 0.077,2.684 v 0.009 l 0.004,0.007 0.068,0.08 0.011,-0.001 0.169,-0.006 C -0.224,7.743 -0.107,7.739 0.369,7.732 H 0.381 L 0.441,7.634 0.44,7.626 C 0.349,6.575 0.301,5.904 0.194,4.001 0.076,1.872 0.074,1.073 0.083,0.096 V 0.087 L 0.077,0.08 Z M -1.224,0.083 C -0.644,0.08 -0.584,0.078 -0.055,0.05 L -0.018,0.048 0.037,0.105 C 0.027,1.079 0.03,1.88 0.148,4.004 0.255,5.903 0.303,6.575 0.394,7.623 L 0.355,7.685 C -0.11,7.692 -0.23,7.696 -0.667,7.713 L -0.826,7.718 -0.872,7.663 C -0.856,7.026 -0.867,6.787 -0.949,4.984 L -0.963,4.675 h -0.023 c -0.501,0.007 -0.944,0.02 -1.965,0.076 -0.512,0.03 -0.81,0.052 -1.155,0.079 -0.128,0.009 -0.261,0.019 -0.415,0.031 l -0.022,0.002 0.001,0.023 c 0.071,1.25 0.133,2.082 0.179,2.688 L -4.34,7.89 -4.38,7.952 C -4.784,7.957 -4.949,7.963 -5.275,7.976 L -5.561,7.986 -5.618,7.927 V 7.821 C -5.62,7.231 -5.623,6.675 -5.699,5.298 -5.881,2.072 -5.924,1.485 -6.029,0.413 L -5.98,0.351 c 0.585,-0.002 0.628,-0.004 1.204,-0.037 l 0.045,0.056 c -0.008,0.764 -0.003,1.473 0.127,3.595 L -4.603,3.988 -4.58,3.987 C -3.612,3.948 -2.762,3.908 -2.053,3.868 -1.779,3.853 -1.571,3.838 -1.402,3.825 -1.265,3.815 -1.148,3.806 -1.036,3.8 L -1.012,3.799 -1.014,3.776 C -1.067,2.663 -1.17,1.374 -1.273,0.146 l 0.049,-0.063" />
      </g>
      <g
         transform="matrix(0.35277777,0,0,-0.35277777,227.60798,4.6733076)"
         id="g129200">
        <path
           id="path129202"
           style="fill:#ffffff;fill-opacity:1;fill-rule:nonzero;stroke:none"
           d="m 0,0 c -0.309,-0.801 -0.59,-1.623 -0.792,-2.241 -0.14,-0.422 -0.191,-0.612 -0.281,-0.924 l -0.086,-0.053 c -0.816,-0.052 -1.551,0.042 -2.325,0.295 -1.011,0.332 -2.042,0.944 -2.536,2.02 -0.324,0.712 -0.433,1.741 -0.043,2.926 0.392,1.198 1.109,2.024 1.897,2.474 1.268,0.738 2.492,0.393 3.039,0.214 C -0.013,4.345 0.586,3.805 0.83,3.576 L 0.858,3.489 C 0.689,3.144 0.613,2.986 0.417,2.525 L 0.329,2.531 C 0.08,2.852 -0.408,3.459 -1.367,3.773 -1.738,3.894 -2.649,4.147 -3.573,3.491 -4.319,2.959 -4.661,2.089 -4.817,1.614 c -0.558,-1.701 -0.033,-3.095 1.629,-3.64 0.515,-0.169 0.857,-0.166 1.118,-0.173 l 0.263,0.77 c 0.262,0.794 0.424,1.428 0.528,1.814 l 0.086,0.053 C -0.637,0.255 -0.524,0.218 -0.031,0.08 L 0,0" />
      </g>
      <g
         transform="matrix(0.35277777,0,0,-0.35277777,227.04883,5.8215996)"
         id="g129204">
        <path
           id="path129206"
           style="fill:#ffffff;fill-opacity:1;fill-rule:nonzero;stroke:none"
           d="m 0,0 c -0.655,0 -1.261,0.098 -1.906,0.31 -0.869,0.285 -2.016,0.868 -2.55,2.031 -0.219,0.483 -0.517,1.507 -0.045,2.944 0.363,1.109 1.041,1.992 1.908,2.488 0.52,0.302 1.088,0.455 1.691,0.455 0.57,0 1.053,-0.138 1.367,-0.241 C 1.62,7.608 2.231,7.036 2.431,6.848 L 2.436,6.844 2.468,6.742 2.465,6.734 C 2.289,6.378 2.216,6.224 2.023,5.771 L 2.016,5.756 1.901,5.763 1.896,5.771 C 1.665,6.068 1.185,6.686 0.211,7.006 0.014,7.07 -0.289,7.156 -0.656,7.156 -1.13,7.156 -1.574,7.012 -1.975,6.727 -2.513,6.343 -2.928,5.715 -3.209,4.861 -3.486,4.017 -3.493,3.244 -3.228,2.625 -2.955,1.987 -2.391,1.512 -1.597,1.251 -1.12,1.094 -0.797,1.087 -0.539,1.08 l 0.037,-0.001 0.258,0.754 c 0.228,0.692 0.383,1.27 0.486,1.652 L 0.286,3.655 0.295,3.66 0.388,3.718 0.399,3.715 C 0.946,3.535 1.065,3.496 1.56,3.357 L 1.571,3.354 1.611,3.255 1.607,3.246 C 1.356,2.598 1.09,1.844 0.814,1.006 0.701,0.664 0.646,0.471 0.582,0.248 L 0.531,0.075 0.427,0.014 C 0.283,0.004 0.139,0 0,0 M -0.902,8.181 C -1.496,8.181 -2.057,8.03 -2.57,7.732 -3.426,7.242 -4.096,6.369 -4.456,5.271 -4.657,4.66 -4.918,3.47 -4.413,2.361 -3.887,1.213 -2.752,0.636 -1.892,0.354 -1.117,0.101 -0.4,0.01 0.419,0.06 L 0.493,0.105 0.537,0.261 C 0.601,0.484 0.656,0.678 0.77,1.021 1.044,1.856 1.31,2.607 1.56,3.255 L 1.536,3.315 C 1.053,3.452 0.93,3.491 0.394,3.667 L 0.327,3.625 0.286,3.474 C 0.184,3.091 0.029,2.512 -0.2,1.819 l -0.269,-0.787 -0.07,10e-4 c -0.249,0.007 -0.588,0.014 -1.072,0.174 -1.609,0.528 -2.224,1.9 -1.643,3.669 0.284,0.863 0.706,1.499 1.253,1.889 0.408,0.29 0.861,0.437 1.345,0.437 0.373,0 0.682,-0.086 0.882,-0.152 C 1.204,6.729 1.689,6.112 1.925,5.808 L 1.987,5.804 C 2.174,6.241 2.251,6.405 2.418,6.745 L 2.394,6.817 C 2.192,7.008 1.588,7.57 0.451,7.943 0.139,8.045 -0.34,8.181 -0.902,8.181" />
      </g>
      <g
         transform="matrix(0.35277777,0,0,-0.35277777,229.09141,3.8795576)"
         id="g129208">
        <path
           id="path129210"
           style="fill:#ffffff;fill-opacity:1;fill-rule:nonzero;stroke:none"
           d="m 0,0 c -0.344,-0.641 -0.733,-1.405 -1.543,-3.086 -0.902,-1.879 -1.269,-2.69 -1.695,-3.727 l -0.091,-0.038 c -0.437,0.196 -0.573,0.264 -1.101,0.492 l -0.026,0.096 c 0.307,0.588 0.576,1.097 1.182,2.36 0.711,1.475 1.417,2.942 2.054,4.442 l 0.086,0.055 c 0.43,-0.207 0.587,-0.282 1.101,-0.492 L 0,0" />
      </g>
      <g
         transform="matrix(0.35277777,0,0,-0.35277777,227.91666,6.3056106)"
         id="g129212">
        <path
           id="path129214"
           style="fill:#ffffff;fill-opacity:1;fill-rule:nonzero;stroke:none"
           d="m 0,0 -0.01,0.004 c -0.131,0.059 -0.234,0.107 -0.331,0.15 -0.223,0.103 -0.4,0.183 -0.769,0.343 l -0.01,0.004 -0.031,0.116 0.054,0.104 c 0.288,0.55 0.559,1.07 1.131,2.263 0.695,1.441 1.413,2.932 2.054,4.442 L 2.091,7.432 2.194,7.497 2.206,7.492 C 2.627,7.289 2.785,7.213 3.306,7 L 3.315,6.996 3.355,6.874 3.35,6.866 C 3.016,6.242 2.625,5.479 1.807,3.78 0.92,1.933 0.54,1.098 0.113,0.055 L 0.11,0.047 Z M -1.08,0.534 C -0.719,0.378 -0.543,0.297 -0.321,0.197 -0.228,0.154 -0.127,0.108 0,0.051 L 0.074,0.082 C 0.5,1.121 0.88,1.958 1.765,3.801 2.579,5.492 2.971,6.257 3.305,6.879 L 3.277,6.961 C 2.769,7.169 2.608,7.246 2.197,7.444 L 2.129,7.401 C 1.488,5.893 0.769,4.404 0.076,2.964 -0.496,1.769 -0.767,1.25 -1.055,0.7 L -1.101,0.611 -1.08,0.534" />
      </g>
      <g
         transform="matrix(0.35277777,0,0,-0.35277777,228.76262,6.7561076)"
         id="g129216">
        <path
           id="path129218"
           style="fill:#ffffff;fill-opacity:1;fill-rule:nonzero;stroke:none"
           d="m 0,0 c -0.519,0.335 -0.529,0.342 -1.023,0.618 l -0.014,0.1 c 0.597,0.868 1.18,1.757 1.747,2.644 1.311,2.046 1.739,2.792 2.269,3.74 L 3.076,7.131 3.304,6.985 C 3.467,6.88 3.921,6.602 4.233,6.402 L 4.795,6.054 C 5.298,5.732 5.783,5.421 6.129,4.979 6.68,4.291 6.806,3.502 6.244,2.625 5.776,1.893 4.91,1.405 3.534,1.835 3.555,1.525 3.599,0.027 3.611,-0.316 3.637,-0.9 3.648,-1.164 3.733,-2.276 l -0.094,-0.07 c -0.183,0.119 -0.373,0.241 -0.563,0.349 -0.198,0.113 -0.395,0.228 -0.599,0.333 l -0.035,0.087 c 0.005,0.085 0.009,0.174 0.014,0.262 C 2.489,-0.679 2.46,-0.042 2.454,0.593 2.441,1.776 2.444,1.903 2.411,2.336 2.122,2.509 2.062,2.534 1.746,2.749 1.425,2.246 0.533,0.833 0.095,0.029 Z M 4.328,2.652 C 4.682,2.698 4.982,2.906 5.167,3.198 5.291,3.39 5.393,3.647 5.401,3.94 5.395,4.574 4.919,4.918 4.234,5.358 4.114,5.434 3.95,5.539 3.634,5.73 2.944,4.676 2.85,4.53 2.21,3.509 2.898,3.054 3.644,2.549 4.328,2.652" />
      </g>
      <g
         transform="matrix(0.35277777,0,0,-0.35277777,230.04673,7.5932496)"
         id="g129220">
        <path
           id="path129222"
           style="fill:#ffffff;fill-opacity:1;fill-rule:nonzero;stroke:none"
           d="M 0,0 -0.013,0.008 C -0.185,0.12 -0.383,0.247 -0.575,0.356 L -0.666,0.408 C -0.83,0.502 -1,0.6 -1.173,0.689 L -1.181,0.693 -1.22,0.797 c 0.004,0.086 0.008,0.174 0.013,0.263 0.023,0.462 0.015,0.933 0.007,1.39 -0.003,0.172 -0.007,0.344 -0.007,0.516 l -0.006,0.462 c -0.009,0.764 -0.01,0.908 -0.038,1.267 -0.065,0.04 -0.12,0.072 -0.167,0.1 C -1.57,4.883 -1.663,4.937 -1.886,5.089 -2.107,4.743 -3.065,3.237 -3.525,2.391 L -3.529,2.383 -3.643,2.348 -3.677,2.37 C -4.169,2.687 -4.189,2.7 -4.674,2.971 l -0.01,0.005 -0.017,0.121 0.005,0.008 c 0.534,0.775 1.089,1.615 1.748,2.643 1.29,2.014 1.718,2.756 2.267,3.738 l 0.005,0.009 0.009,0.003 0.106,0.031 0.01,-0.005 0.228,-0.147 C -0.26,9.336 -0.149,9.268 -0.019,9.187 0.175,9.066 0.417,8.915 0.607,8.795 L 1.168,8.447 C 1.68,8.119 2.159,7.811 2.508,7.366 3.113,6.611 3.152,5.809 2.624,4.985 2.344,4.547 1.81,4.024 0.862,4.024 c -0.293,0 -0.61,0.051 -0.943,0.152 0.017,-0.268 0.043,-1.081 0.06,-1.628 0.008,-0.217 0.013,-0.397 0.017,-0.49 V 2.049 C 0.021,1.469 0.033,1.205 0.117,0.098 L 0.119,0.085 Z m -1.145,0.726 c 0.172,-0.088 0.341,-0.184 0.503,-0.278 l 0.09,-0.052 C -0.364,0.29 -0.17,0.165 -0.002,0.056 L 0.07,0.108 C -0.014,1.203 -0.026,1.469 -0.05,2.047 V 2.056 C -0.054,2.149 -0.06,2.329 -0.067,2.547 -0.085,3.118 -0.113,3.982 -0.129,4.206 L -0.132,4.24 -0.099,4.23 C 0.24,4.124 0.564,4.07 0.862,4.07 1.789,4.071 2.31,4.581 2.585,5.01 3.101,5.816 3.063,6.598 2.471,7.338 2.128,7.776 1.652,8.082 1.148,8.405 L 0.582,8.756 C 0.393,8.877 0.15,9.027 -0.044,9.148 -0.173,9.228 -0.283,9.297 -0.349,9.338 L -0.567,9.479 -0.644,9.456 C -1.193,8.477 -1.622,7.733 -2.909,5.723 -3.566,4.698 -4.12,3.86 -4.652,3.085 l 0.011,-0.079 c 0.476,-0.267 0.498,-0.281 0.988,-0.597 l 0.017,-0.01 0.075,0.023 c 0.473,0.866 1.455,2.41 1.648,2.712 l 0.014,0.02 0.02,-0.013 c 0.236,-0.161 0.33,-0.216 0.483,-0.306 0.051,-0.03 0.108,-0.064 0.18,-0.106 l 0.01,-0.006 0.002,-0.012 C -1.177,4.342 -1.176,4.202 -1.167,3.428 L -1.162,2.966 C -1.16,2.795 -1.156,2.622 -1.154,2.451 -1.145,1.994 -1.136,1.521 -1.16,1.057 -1.166,0.97 -1.17,0.884 -1.173,0.799 Z m 1.649,4.263 c -0.624,0 -1.274,0.429 -1.902,0.845 l -0.063,0.041 0.012,0.02 c 0.648,1.033 0.743,1.182 1.424,2.221 l 0.012,0.018 0.02,-0.011 C 0.315,7.936 0.479,7.832 0.598,7.756 L 0.607,7.75 C 1.313,7.297 1.778,6.953 1.783,6.314 1.776,5.981 1.651,5.719 1.547,5.558 1.353,5.25 1.04,5.047 0.692,5.002 0.631,4.993 0.568,4.989 0.504,4.989 m -1.902,0.9 0.025,-0.016 C -0.75,5.461 -0.106,5.035 0.504,5.035 0.566,5.035 0.627,5.04 0.685,5.048 1.02,5.092 1.32,5.287 1.508,5.584 1.608,5.74 1.729,5.993 1.737,6.314 1.731,6.928 1.276,7.266 0.582,7.711 L 0.573,7.716 C 0.456,7.791 0.297,7.893 0.002,8.072 -0.663,7.056 -0.764,6.899 -1.398,5.889" />
      </g>
      <g
         transform="matrix(0.35277777,0,0,-0.35277777,231.51182,8.4533216)"
         id="g129224">
        <path
           id="path129226"
           style="fill:#ffffff;fill-opacity:1;fill-rule:nonzero;stroke:none"
           d="M 0,0 C -0.258,-0.249 -0.365,-0.374 -0.589,-0.595 L -0.68,-0.618 c -1.459,1.265 -1.583,1.372 -3.146,2.682 v 0.102 c 0.592,0.648 1.47,1.613 2.714,3.047 1.095,1.263 1.672,1.983 2.2,2.673 L 1.195,7.895 C 1.646,7.519 1.727,7.447 2.16,7.102 L 2.168,7.01 C 0.755,5.547 -0.95,3.58 -1.12,3.382 -1.667,2.751 -1.949,2.408 -2.275,2.014 -1.366,1.226 -1.112,1.02 0.008,0.107 L 0,0" />
      </g>
      <g
         transform="matrix(0.35277777,0,0,-0.35277777,231.26981,8.6801576)"
         id="g129228">
        <path
           id="path129230"
           style="fill:#ffffff;fill-opacity:1;fill-rule:nonzero;stroke:none"
           d="M 0,0 -0.009,0.008 C -1.464,1.269 -1.582,1.371 -3.155,2.69 l -0.008,0.007 v 0.122 l 0.005,0.006 c 0.491,0.537 1.403,1.536 2.714,3.046 1.103,1.274 1.677,1.989 2.199,2.672 l 0.007,0.009 0.126,0.01 0.008,-0.006 0.239,-0.2 C 2.398,8.137 2.518,8.037 2.86,7.764 L 2.868,7.757 2.878,7.645 2.871,7.637 C 1.394,6.107 -0.399,4.03 -0.416,4.01 -0.941,3.407 -1.226,3.061 -1.53,2.694 L -1.558,2.66 C -0.692,1.91 -0.414,1.684 0.601,0.856 L 0.717,0.761 0.708,0.633 0.702,0.627 C 0.552,0.483 0.456,0.383 0.354,0.277 0.281,0.202 0.207,0.125 0.112,0.032 L 0.108,0.027 Z M -3.117,2.718 C -1.555,1.41 -1.432,1.302 0.012,0.051 L 0.085,0.07 C 0.177,0.16 0.249,0.235 0.32,0.31 0.417,0.409 0.517,0.513 0.663,0.654 L 0.669,0.74 0.571,0.82 C -0.45,1.653 -0.725,1.878 -1.605,2.64 l -0.017,0.014 0.057,0.07 c 0.303,0.366 0.589,0.713 1.114,1.317 0.016,0.019 1.805,2.091 3.281,3.621 L 2.824,7.734 C 2.487,8.002 2.366,8.103 2.105,8.32 L 1.872,8.515 1.786,8.507 C 1.265,7.826 0.692,7.11 -0.408,5.841 -1.714,4.336 -2.625,3.339 -3.117,2.801 V 2.718" />
      </g>
      <g
         transform="matrix(0.35277777,0,0,-0.35277777,233.2489,8.5923166)"
         id="g129232">
        <path
           id="path129234"
           style="fill:#ffffff;fill-opacity:1;fill-rule:nonzero;stroke:none"
           d="m 0,0 c 0.258,-0.828 0.607,-1.92 -0.441,-2.833 -0.917,-0.799 -2.334,-0.838 -3.576,0.584 -0.755,0.868 -0.979,1.653 -1.051,1.935 l 0.029,0.082 c 0.316,0.217 0.477,0.343 0.809,0.59 l 0.105,-0.054 c 0.038,-0.324 0.108,-1.099 0.771,-1.86 0.735,-0.841 1.475,-0.816 1.967,-0.389 0.573,0.499 0.379,1.168 0.122,1.876 l -0.177,0.567 c -0.236,0.816 -0.563,1.9 0.436,2.769 0.303,0.264 0.684,0.454 1.079,0.496 C 0.942,3.857 1.712,3.335 2.29,2.671 2.855,2.025 3.074,1.526 3.312,0.97 L 3.281,0.874 C 2.943,0.635 2.821,0.543 2.506,0.31 L 2.416,0.348 C 2.288,0.856 2.151,1.413 1.616,2.027 1.025,2.704 0.334,2.852 -0.148,2.432 -0.517,2.112 -0.474,1.714 -0.43,1.451 -0.403,1.288 -0.392,1.241 -0.177,0.566 L 0,0" />
      </g>
      <g
         transform="matrix(0.35277777,0,0,-0.35277777,232.58744,9.7952886)"
         id="g129236">
        <path
           id="path129238"
           style="fill:#ffffff;fill-opacity:1;fill-rule:nonzero;stroke:none"
           d="m 0,0 c -0.758,0 -1.505,0.396 -2.159,1.146 -0.52,0.597 -0.884,1.269 -1.056,1.944 l -0.002,0.006 0.003,0.007 0.03,0.09 0.006,0.004 c 0.255,0.175 0.413,0.293 0.633,0.457 l 0.189,0.141 0.129,-0.065 0.004,-0.045 c 0.041,-0.352 0.125,-1.084 0.762,-1.815 0.384,-0.44 0.8,-0.672 1.205,-0.672 0.262,0 0.514,0.098 0.729,0.285 0.553,0.482 0.379,1.124 0.116,1.85 L 0.405,3.925 C 0.172,4.726 -0.147,5.824 0.854,6.695 1.18,6.978 1.567,7.156 1.946,7.196 2.015,7.203 2.082,7.208 2.151,7.208 3.031,7.208 3.742,6.603 4.183,6.096 4.757,5.439 4.978,4.93 5.209,4.39 L 5.213,4.382 5.21,4.373 5.176,4.27 5.17,4.265 C 4.857,4.043 4.732,3.951 4.458,3.749 L 4.384,3.694 4.272,3.741 4.266,3.761 C 4.143,4.256 4.002,4.816 3.473,5.421 3.118,5.829 2.715,6.054 2.34,6.054 2.118,6.054 1.916,5.977 1.742,5.824 1.363,5.496 1.433,5.07 1.468,4.866 1.494,4.706 1.505,4.66 1.721,3.983 L 1.901,3.405 C 2.155,2.591 2.504,1.478 1.45,0.559 1.03,0.194 0.529,0 0,0 m -3.167,3.095 c 0.169,-0.665 0.53,-1.328 1.043,-1.918 0.645,-0.74 1.38,-1.13 2.124,-1.13 0.517,0 1.007,0.19 1.419,0.548 1.031,0.898 0.702,1.95 0.439,2.796 L 1.852,3.403 1.676,3.969 C 1.459,4.648 1.449,4.695 1.421,4.857 1.386,5.07 1.313,5.514 1.711,5.86 1.892,6.017 2.11,6.1 2.34,6.1 2.73,6.1 3.143,5.87 3.508,5.452 4.044,4.839 4.186,4.274 4.311,3.775 L 4.377,3.747 4.43,3.786 C 4.701,3.987 4.826,4.079 5.138,4.298 L 5.163,4.379 C 4.933,4.913 4.714,5.417 4.147,6.065 3.713,6.565 3.013,7.161 2.151,7.161 2.084,7.161 2.016,7.157 1.951,7.15 1.58,7.111 1.202,6.937 0.884,6.659 -0.094,5.808 0.22,4.727 0.449,3.938 L 0.456,3.915 0.633,3.348 C 0.902,2.606 1.079,1.95 0.503,1.447 0.28,1.253 0.017,1.151 -0.256,1.151 c -0.418,0 -0.848,0.238 -1.24,0.688 -0.647,0.742 -0.735,1.512 -0.773,1.841 L -2.271,3.7 -2.353,3.741 -2.518,3.617 C -2.736,3.454 -2.894,3.336 -3.144,3.163 L -3.167,3.095" />
      </g>
      <g
         transform="matrix(0.35277777,0,0,-0.35277777,235.41213,9.1938026)"
         id="g129240">
        <path
           id="path129242"
           style="fill:#ffffff;fill-opacity:1;fill-rule:nonzero;stroke:none"
           d="m 0,0 c -0.961,-0.178 -1.915,-0.441 -2.845,-0.719 l -0.105,0.02 c -0.234,0.299 -0.262,0.335 -0.481,0.617 l 0.03,0.088 c 0.877,0.317 1.762,0.641 2.58,1.063 L -0.723,1.058 C -0.396,0.626 -0.334,0.536 0.023,0.098 L 0,0" />
      </g>
      <g
         transform="matrix(0.35277777,0,0,-0.35277777,234.40918,9.4559166)"
         id="g129244">
        <path
           id="path129246"
           style="fill:#ffffff;fill-opacity:1;fill-rule:nonzero;stroke:none"
           d="m 0,0 -0.119,0.022 -0.006,0.007 c -0.139,0.177 -0.205,0.261 -0.281,0.359 -0.052,0.069 -0.111,0.143 -0.2,0.258 l -0.008,0.01 0.039,0.111 0.01,0.004 C 0.247,1.064 1.168,1.397 2.011,1.832 L 2.018,1.835 2.133,1.823 2.139,1.815 2.298,1.604 C 2.502,1.335 2.595,1.212 2.885,0.856 L 2.893,0.847 2.862,0.723 2.848,0.72 C 1.84,0.534 0.846,0.252 0.005,0.002 Z M -0.093,0.065 -0.002,0.048 C 0.833,0.297 1.822,0.577 2.824,0.763 L 2.842,0.835 C 2.556,1.186 2.463,1.309 2.261,1.577 L 2.109,1.778 2.026,1.787 C 1.186,1.354 0.27,1.023 -0.539,0.731 L -0.562,0.665 c 0.086,-0.11 0.142,-0.182 0.193,-0.248 0.075,-0.097 0.14,-0.181 0.276,-0.352" />
      </g>
      <g
         transform="matrix(0.35277777,0,0,-0.35277777,235.02196,13.687133)"
         id="g129248">
        <path
           id="path129250"
           style="fill:#ffffff;fill-opacity:1;fill-rule:nonzero;stroke:none"
           d="m 0,0 c -0.486,-0.16 -0.628,-0.21 -1.015,-0.353 l -0.098,0.029 c -0.236,0.194 -0.815,0.691 -1.246,1.699 -0.937,2.183 -0.04,4.09 2.183,5.043 0.49,0.21 1.713,0.687 3.034,0.225 C 4.149,6.193 4.71,5.157 5.012,4.45 5.405,3.531 5.455,2.868 5.476,2.488 L 5.413,2.412 C 5.033,2.309 4.929,2.277 4.486,2.122 L 4.41,2.195 C 4.452,2.451 4.553,3.096 4.177,3.973 3.494,5.57 2.024,5.968 0.35,5.248 -1.538,4.441 -1.975,3.039 -1.384,1.662 -0.983,0.724 -0.341,0.301 0.01,0.087 L 0,0" />
      </g>
      <g
         transform="matrix(0.35277777,0,0,-0.35277777,234.66424,13.820483)"
         id="g129252">
        <path
           id="path129254"
           style="fill:#ffffff;fill-opacity:1;fill-rule:nonzero;stroke:none"
           d="M 0,0 -0.008,0.001 -0.113,0.036 C -0.312,0.2 -0.921,0.701 -1.366,1.744 -1.824,2.811 -1.855,3.849 -1.458,4.745 -1.069,5.626 -0.277,6.342 0.83,6.817 1.074,6.921 1.816,7.238 2.706,7.238 3.112,7.238 3.509,7.173 3.88,7.042 5.172,6.592 5.736,5.567 6.048,4.837 6.456,3.883 6.495,3.196 6.515,2.867 L 6.516,2.857 6.509,2.85 6.442,2.769 6.434,2.768 C 6.049,2.662 5.945,2.63 5.508,2.478 L 5.495,2.473 5.399,2.564 5.401,2.576 C 5.441,2.819 5.547,3.463 5.17,4.342 4.722,5.392 3.929,5.947 2.881,5.947 2.411,5.947 1.903,5.832 1.373,5.604 0.475,5.22 -0.125,4.692 -0.411,4.037 -0.671,3.438 -0.65,2.751 -0.349,2.048 0.021,1.185 0.586,0.759 1.036,0.485 L 1.051,0.477 1.035,0.36 1.021,0.356 C 0.546,0.198 0.403,0.149 0.008,0.002 Z M -0.086,0.075 -0.002,0.049 C 0.386,0.192 0.53,0.242 0.993,0.395 l 0.006,0.058 c -0.453,0.278 -1.019,0.71 -1.391,1.577 -0.305,0.714 -0.327,1.415 -0.062,2.025 0.291,0.667 0.9,1.203 1.809,1.592 0.535,0.23 1.049,0.347 1.526,0.347 1.053,0 1.882,-0.58 2.333,-1.634 C 5.589,3.483 5.491,2.836 5.449,2.581 L 5.506,2.526 C 5.931,2.674 6.038,2.708 6.415,2.811 L 6.468,2.873 C 6.449,3.204 6.407,3.881 6.005,4.819 5.697,5.541 5.139,6.554 3.864,6.998 3.498,7.127 3.107,7.192 2.706,7.192 1.826,7.192 1.09,6.878 0.848,6.774 -0.248,6.304 -1.03,5.596 -1.417,4.726 -1.808,3.842 -1.776,2.817 -1.323,1.762 -0.885,0.735 -0.288,0.24 -0.086,0.075" />
      </g>
      <g
         transform="matrix(0.35277777,0,0,-0.35277777,235.8277,13.497692)"
         id="g129256">
        <path
           id="path129258"
           style="fill:#ffffff;fill-opacity:1;fill-rule:nonzero;stroke:none"
           d="M 0,0 C 2.367,0.557 4.241,-0.34 4.757,-2.526 5.249,-4.618 4.091,-6.285 1.641,-6.862 -0.883,-7.456 -2.535,-6.408 -3.027,-4.328 -3.531,-2.139 -2.344,-0.553 0,0 m 1.397,-5.592 c 0.392,0.091 1.413,0.389 1.976,0.945 0.767,0.761 0.567,1.662 0.506,1.915 -0.23,0.971 -0.887,1.35 -1.298,1.487 -0.719,0.255 -1.729,0.096 -2.204,-0.016 -0.507,-0.121 -1.388,-0.405 -1.927,-0.913 -0.527,-0.502 -0.768,-1.184 -0.584,-1.965 0.356,-1.555 1.926,-1.833 3.531,-1.453" />
      </g>
      <g
         transform="matrix(0.35277777,0,0,-0.35277777,235.93883,15.984775)"
         id="g129260">
        <path
           id="path129262"
           style="fill:#ffffff;fill-opacity:1;fill-rule:nonzero;stroke:none"
           d="m 0,0 c -1.755,0 -2.95,0.965 -3.363,2.718 -0.498,2.159 0.641,3.788 3.043,4.355 0.456,0.107 0.9,0.162 1.319,0.162 1.797,0 3.06,-0.986 3.465,-2.705 C 4.963,2.411 3.762,0.739 1.332,0.166 0.864,0.056 0.417,0 0,0 M 0.999,7.188 C 0.583,7.188 0.143,7.134 -0.308,7.028 -2.685,6.467 -3.809,4.859 -3.318,2.728 -2.91,0.999 -1.731,0.047 0,0.047 c 0.413,0 0.857,0.055 1.321,0.164 2.404,0.567 3.591,2.217 3.098,4.308 -0.4,1.697 -1.647,2.669 -3.42,2.669 M -0.13,1.283 c -1.269,0 -2.101,0.576 -2.341,1.623 -0.178,0.75 0.033,1.456 0.591,1.987 0.585,0.553 1.55,0.827 1.937,0.919 0.196,0.046 0.714,0.154 1.274,0.154 0.368,0 0.686,-0.046 0.942,-0.138 C 2.661,5.698 3.349,5.331 3.586,4.324 3.816,3.37 3.435,2.744 3.075,2.387 2.459,1.777 1.311,1.487 1.089,1.436 0.661,1.334 0.251,1.283 -0.13,1.283 M 1.331,5.919 C 0.777,5.919 0.262,5.812 0.067,5.766 -0.317,5.675 -1.27,5.404 -1.848,4.86 -2.393,4.34 -2.599,3.65 -2.426,2.916 -2.191,1.893 -1.376,1.33 -0.13,1.33 0.247,1.33 0.653,1.381 1.077,1.481 1.299,1.532 2.434,1.819 3.043,2.419 3.393,2.768 3.766,3.38 3.541,4.313 3.309,5.298 2.638,5.657 2.258,5.783 2.005,5.874 1.694,5.919 1.331,5.919" />
      </g>
      <g
         transform="matrix(0.35277777,0,0,-0.35277777,235.51796,17.945866)"
         id="g129264">
        <path
           id="path129266"
           style="fill:#ffffff;fill-opacity:1;fill-rule:nonzero;stroke:none"
           d="m 0,0 c -0.361,0.008 -0.522,-0.004 -0.837,-0.006 l -0.081,0.05 c -0.138,1.927 -0.15,2.089 -0.331,4.122 l 0.072,0.071 c 0.878,0.041 2.179,0.101 4.073,0.238 1.668,0.121 2.586,0.219 3.448,0.336 L 6.426,4.741 C 6.477,4.156 6.486,4.05 6.546,3.499 L 6.488,3.429 C 4.455,3.391 1.858,3.205 1.597,3.185 0.763,3.124 0.321,3.082 -0.189,3.033 -0.101,1.833 -0.067,1.509 0.081,0.071 L 0,0" />
      </g>
      <g
         transform="matrix(0.35277777,0,0,-0.35277777,235.22022,17.955744)"
         id="g129268">
        <path
           id="path129270"
           style="fill:#ffffff;fill-opacity:1;fill-rule:nonzero;stroke:none"
           d="M 0,0 -0.007,0.003 -0.096,0.06 -0.097,0.071 c -0.139,1.919 -0.148,2.075 -0.33,4.122 l -0.001,0.01 0.085,0.085 h 0.009 C 0.536,4.329 1.846,4.39 3.74,4.527 5.461,4.652 6.363,4.752 7.185,4.863 L 7.195,4.864 7.292,4.781 7.296,4.73 C 7.345,4.182 7.355,4.067 7.414,3.53 V 3.52 L 7.342,3.434 H 7.333 C 5.315,3.396 2.73,3.211 2.442,3.191 1.623,3.13 1.19,3.09 0.68,3.041 0.767,1.873 0.802,1.536 0.943,0.148 L 0.949,0.091 0.853,0.005 H 0.843 C 0.608,0.011 0.458,0.007 0.295,0.004 0.207,0.003 0.116,0 0.007,0 Z M -0.051,0.086 0.013,0.046 C 0.119,0.047 0.208,0.049 0.294,0.051 0.455,0.055 0.606,0.057 0.836,0.052 L 0.9,0.11 0.897,0.144 C 0.754,1.541 0.72,1.873 0.633,3.06 L 0.63,3.083 0.653,3.085 C 1.174,3.135 1.606,3.176 2.44,3.237 2.727,3.258 5.303,3.442 7.32,3.481 L 7.366,3.535 C 7.308,4.064 7.298,4.18 7.249,4.725 L 7.247,4.758 7.181,4.815 C 6.36,4.704 5.46,4.605 3.742,4.48 1.853,4.344 0.544,4.282 -0.324,4.243 L -0.381,4.186 c 0.18,-2.032 0.193,-2.196 0.33,-4.1" />
      </g>
      <g
         transform="matrix(0.35277777,0,0,-0.35277777,235.41707,19.703758)"
         id="g129272">
        <path
           id="path129274"
           style="fill:#ffffff;fill-opacity:1;fill-rule:nonzero;stroke:none"
           d="m 0,0 c -0.357,0.051 -0.517,0.062 -0.832,0.101 l -0.073,0.057 c 0.109,1.93 0.118,2.093 0.202,4.13 L -0.625,4.35 C 0.252,4.278 1.55,4.172 3.446,4.067 5.115,3.973 6.037,3.953 6.907,3.96 L 6.979,3.879 C 6.957,3.293 6.951,3.185 6.942,2.631 L 6.873,2.568 C 4.853,2.79 2.253,2.939 1.993,2.953 1.159,3 0.713,3.014 0.204,3.032 0.135,1.828 0.127,1.503 0.089,0.06 L 0,0" />
      </g>
      <g
         transform="matrix(0.35277777,0,0,-0.35277777,235.41883,19.712225)"
         id="g129276">
        <path
           id="path129278"
           style="fill:#ffffff;fill-opacity:1;fill-rule:nonzero;stroke:none"
           d="M 0,0 -0.009,0.001 C -0.233,0.033 -0.38,0.05 -0.536,0.066 -0.627,0.077 -0.724,0.087 -0.839,0.101 l -0.007,10e-4 -0.087,0.07 0.001,0.011 c 0.108,1.935 0.117,2.094 0.199,4.13 v 0.01 l 0.095,0.075 0.049,-0.004 C 0.272,4.323 1.574,4.217 3.442,4.113 4.785,4.038 5.726,4.005 6.587,4.005 c 0.107,0 0.211,0.001 0.315,0.002 H 6.913 L 6.997,3.91 6.996,3.901 6.991,3.734 C 6.973,3.286 6.967,3.15 6.96,2.654 V 2.644 L 6.952,2.638 6.875,2.568 6.865,2.569 C 4.737,2.803 2.014,2.951 1.986,2.953 1.23,2.996 0.797,3.011 0.338,3.027 L 0.22,3.031 C 0.155,1.873 0.145,1.542 0.111,0.175 L 0.108,0.071 Z M -0.828,0.146 C -0.714,0.132 -0.621,0.122 -0.53,0.112 -0.377,0.095 -0.231,0.079 -0.011,0.049 l 0.072,0.047 0.003,0.08 C 0.1,1.552 0.108,1.879 0.176,3.057 L 0.177,3.079 0.339,3.074 C 0.799,3.058 1.232,3.042 1.989,3 2.017,2.998 4.732,2.85 6.86,2.616 l 0.054,0.05 c 0.008,0.487 0.012,0.624 0.03,1.07 L 6.95,3.893 6.892,3.961 C 6.792,3.96 6.69,3.959 6.587,3.959 5.725,3.959 4.783,3.992 3.44,4.068 1.571,4.171 0.269,4.277 -0.593,4.347 L -0.624,4.35 -0.686,4.3 C -0.769,2.277 -0.778,2.113 -0.886,0.192 l 0.058,-0.046" />
      </g>
      <g
         transform="matrix(0.35277777,0,0,-0.35277777,235.05406,21.541377)"
         id="g129280">
        <path
           id="path129282"
           style="fill:#ffffff;fill-opacity:1;fill-rule:nonzero;stroke:none"
           d="m 0,0 c -0.356,0.103 -0.43,0.115 -0.787,0.209 l -0.062,0.09 c 0.408,2.076 0.464,2.408 0.839,4.435 L 0.076,4.772 C 0.911,4.576 1.478,4.431 3.427,4.048 5.217,3.696 6.238,3.495 7.477,3.33 L 7.541,3.251 C 7.139,1.151 7.057,0.736 6.694,-1.227 L 6.606,-1.277 C 6.293,-1.182 6.17,-1.135 5.79,-1.038 L 5.729,-0.959 C 6.041,0.404 6.131,0.861 6.407,2.212 5.435,2.437 5.125,2.499 4.146,2.689 3.877,1.383 3.809,0.976 3.576,-0.329 L 3.489,-0.366 C 3.126,-0.248 3.018,-0.228 2.681,-0.152 L 2.618,-0.073 C 2.893,1.155 2.945,1.423 3.231,2.871 1.999,3.134 1.698,3.182 0.686,3.37 0.368,1.762 0.304,1.432 0.087,0.049 L 0,0" />
      </g>
      <g
         transform="matrix(0.35277777,0,0,-0.35277777,237.38522,22.001047)"
         id="g129284">
        <path
           id="path129286"
           style="fill:#ffffff;fill-opacity:1;fill-rule:nonzero;stroke:none"
           d="m 0,0 -0.01,0.003 c -0.084,0.025 -0.155,0.048 -0.221,0.069 -0.177,0.056 -0.316,0.099 -0.592,0.17 l -0.008,0.002 -0.074,0.094 0.003,0.011 c 0.282,1.231 0.383,1.724 0.604,2.804 l 0.07,0.344 C -1.177,3.717 -1.481,3.778 -2.444,3.965 -2.681,2.818 -2.762,2.361 -2.938,1.368 L -3.011,0.958 -3.118,0.912 -3.126,0.914 c -0.32,0.106 -0.439,0.132 -0.698,0.191 l -0.117,0.026 -0.075,0.094 0.004,0.01 c 0.271,1.215 0.328,1.506 0.603,2.9 l 0.004,0.02 c -1.025,0.22 -1.409,0.29 -2.1,0.418 L -5.904,4.645 C -6.217,3.068 -6.282,2.72 -6.499,1.349 L -6.501,1.338 -6.605,1.278 -6.614,1.281 C -6.855,1.35 -6.969,1.378 -7.125,1.418 -7.2,1.438 -7.286,1.459 -7.401,1.489 L -7.41,1.492 -7.48,1.597 v 0.009 c 0.345,1.757 0.438,2.26 0.686,3.607 l 0.156,0.839 0.104,0.048 0.008,-0.002 0.259,-0.062 c 0.724,-0.172 1.35,-0.32 3.091,-0.662 l 0.078,-0.016 c 1.715,-0.337 2.751,-0.54 3.97,-0.703 L 0.883,4.654 0.956,4.56 V 4.55 L 0.821,3.845 C 0.526,2.311 0.427,1.794 0.108,0.072 L 0.106,0.061 Z m -0.805,0.285 c 0.272,-0.07 0.412,-0.113 0.588,-0.169 0.063,-0.02 0.13,-0.041 0.212,-0.066 L 0.064,0.091 C 0.381,1.804 0.48,2.323 0.775,3.855 L 0.908,4.547 0.856,4.61 C -0.36,4.773 -1.395,4.977 -3.107,5.313 L -3.184,5.328 C -4.926,5.671 -5.553,5.819 -6.278,5.992 L -6.53,6.051 -6.598,6.021 -6.748,5.204 C -6.996,3.86 -7.089,3.355 -7.432,1.607 l 0.05,-0.075 C -7.27,1.503 -7.187,1.483 -7.114,1.464 -6.959,1.424 -6.846,1.395 -6.61,1.328 l 0.068,0.039 c 0.215,1.37 0.282,1.716 0.596,3.311 L -5.941,4.7 -5.496,4.618 C -4.8,4.49 -4.417,4.42 -3.373,4.197 L -3.35,4.192 -3.363,4.126 C -3.638,2.735 -3.696,2.442 -3.965,1.235 l 0.052,-0.062 0.099,-0.024 c 0.259,-0.058 0.377,-0.085 0.693,-0.187 l 0.068,0.029 0.068,0.386 c 0.178,1 0.26,1.456 0.498,2.62 L -2.481,4.02 -2.459,4.015 C -1.468,3.823 -1.17,3.763 -0.195,3.537 L -0.173,3.531 -0.178,3.509 -0.252,3.145 C -0.473,2.067 -0.574,1.573 -0.854,0.349 l 0.049,-0.064" />
      </g>
      <g
         transform="matrix(0.35277777,0,0,-0.35277777,235.20681,24.070794)"
         id="g129288">
        <path
           id="path129290"
           style="fill:#ffffff;fill-opacity:1;fill-rule:nonzero;stroke:none"
           d="M 0,0 C -0.789,0.336 -1.599,0.646 -2.212,0.869 -2.63,1.024 -2.815,1.081 -3.125,1.183 l -0.05,0.086 C -3.2,2.087 -3.08,2.818 -2.799,3.583 -2.434,4.581 -1.785,5.592 -0.693,6.047 0.03,6.348 1.062,6.419 2.234,5.989 3.416,5.556 4.218,4.811 4.639,4.009 5.332,2.713 4.945,1.503 4.748,0.963 4.344,-0.137 3.783,-0.718 3.547,-0.953 L 3.456,-0.98 C 3.118,-0.798 2.962,-0.718 2.51,-0.505 l 0.009,0.089 C 2.85,-0.18 3.469,0.287 3.819,1.235 3.952,1.6 4.237,2.502 3.615,3.448 3.109,4.212 2.249,4.584 1.781,4.757 0.099,5.375 -1.311,4.898 -1.914,3.258 -2.101,2.747 -2.111,2.405 -2.126,2.143 l 0.761,-0.29 C -0.58,1.566 0.046,1.382 0.429,1.264 L 0.48,1.177 C 0.276,0.628 0.237,0.515 0.081,0.028 L 0,0" />
      </g>
      <g
         transform="matrix(0.35277777,0,0,-0.35277777,236.42566,24.424983)"
         id="g129292">
        <path
           id="path129294"
           style="fill:#ffffff;fill-opacity:1;fill-rule:nonzero;stroke:none"
           d="m 0,0 -0.009,0.004 c -0.333,0.18 -0.488,0.259 -0.946,0.475 l -0.016,0.008 0.014,0.115 0.009,0.005 c 0.279,0.202 0.934,0.674 1.29,1.639 0.294,0.807 0.225,1.545 -0.203,2.194 -0.366,0.554 -0.978,0.99 -1.82,1.299 -0.468,0.172 -0.915,0.259 -1.329,0.259 -1.093,0 -1.924,-0.62 -2.337,-1.744 C -5.522,3.776 -5.541,3.453 -5.555,3.192 L -5.557,3.164 -4.812,2.88 C -4.131,2.63 -3.56,2.456 -3.182,2.341 L -3.01,2.289 -3.005,2.281 -2.949,2.184 -2.953,2.174 C -3.158,1.622 -3.197,1.51 -3.351,1.026 L -3.355,1.014 -3.456,0.981 -3.464,0.983 c -0.83,0.354 -1.661,0.668 -2.212,0.87 -0.343,0.126 -0.524,0.185 -0.755,0.261 l -0.164,0.054 -0.006,0.007 -0.053,0.098 c -0.023,0.818 0.097,1.556 0.378,2.322 0.315,0.859 0.938,1.986 2.12,2.479 0.389,0.161 0.844,0.247 1.319,0.247 0.528,0 1.075,-0.103 1.624,-0.305 C -0.118,6.615 0.741,5.907 1.205,5.024 1.935,3.659 1.468,2.38 1.315,1.96 0.893,0.814 0.302,0.227 0.108,0.035 L 0.099,0.029 Z M -0.92,0.514 C -0.477,0.306 -0.319,0.224 0.005,0.05 L 0.08,0.072 C 0.277,0.267 0.857,0.847 1.271,1.975 1.423,2.391 1.884,3.655 1.164,5.002 0.705,5.875 -0.145,6.574 -1.228,6.972 -1.774,7.172 -2.315,7.274 -2.837,7.274 -3.306,7.274 -3.756,7.19 -4.138,7.03 -5.304,6.544 -5.92,5.429 -6.233,4.579 -6.511,3.821 -6.629,3.09 -6.607,2.28 L -6.564,2.207 -6.417,2.158 C -6.185,2.084 -6.002,2.023 -5.66,1.896 -5.11,1.695 -4.281,1.381 -3.454,1.03 l 0.062,0.021 c 0.15,0.473 0.191,0.589 0.391,1.129 l -0.04,0.069 -0.156,0.048 c -0.377,0.115 -0.949,0.289 -1.63,0.539 l -0.779,0.297 0.005,0.062 c 0.015,0.263 0.033,0.59 0.21,1.076 0.421,1.144 1.266,1.774 2.381,1.774 0.42,0 0.872,-0.088 1.343,-0.263 C -0.814,5.471 -0.194,5.028 0.178,4.466 0.614,3.804 0.684,3.051 0.386,2.232 0.028,1.26 -0.625,0.783 -0.913,0.576 L -0.92,0.514" />
      </g>
      <g
         transform="matrix(0.35277777,0,0,-0.35277777,233.31945,25.413466)"
         id="g129296">
        <path
           id="path129298"
           style="fill:#ffffff;fill-opacity:1;fill-rule:nonzero;stroke:none"
           d="M 0,0 C -0.305,0.209 -0.372,0.248 -0.683,0.447 L -0.711,0.55 c 1.038,1.844 1.193,2.142 2.186,3.949 l 0.093,0.01 C 2.299,4.062 2.795,3.744 4.525,2.769 6.115,1.876 7.022,1.364 8.147,0.819 L 8.18,0.724 C 7.141,-1.145 6.934,-1.513 5.972,-3.263 l -0.098,-0.02 c -0.267,0.189 -0.371,0.272 -0.699,0.482 l -0.034,0.094 c 0.723,1.199 0.953,1.606 1.638,2.8 C 5.926,0.61 5.65,0.767 4.78,1.257 4.116,0.099 3.924,-0.266 3.293,-1.431 L 3.201,-1.441 C 2.89,-1.216 2.796,-1.163 2.498,-0.985 L 2.464,-0.888 C 3.11,0.191 3.243,0.428 3.966,1.713 2.882,2.351 2.609,2.49 1.708,2.987 0.903,1.559 0.738,1.265 0.098,0.019 L 0,0" />
      </g>
      <g
         transform="matrix(0.35277777,0,0,-0.35277777,235.3899,26.580808)"
         id="g129300">
        <path
           id="path129302"
           style="fill:#ffffff;fill-opacity:1;fill-rule:nonzero;stroke:none"
           d="m 0,0 -0.008,0.007 c -0.064,0.044 -0.118,0.083 -0.169,0.12 -0.162,0.116 -0.279,0.202 -0.529,0.361 l -0.007,0.004 -0.041,0.113 0.006,0.009 c 0.652,1.08 0.9,1.513 1.447,2.465 l 0.18,0.315 C 0.044,3.899 -0.246,4.065 -1.08,4.535 -1.656,3.53 -1.874,3.128 -2.346,2.254 L -2.561,1.856 -2.674,1.844 -2.681,1.849 c -0.29,0.21 -0.387,0.267 -0.647,0.422 l -0.062,0.037 -0.041,0.116 0.006,0.009 c 0.629,1.049 0.769,1.298 1.443,2.496 l 0.048,0.085 C -2.792,5.517 -3.136,5.707 -3.704,6.018 -3.838,6.092 -3.984,6.172 -4.151,6.264 -4.944,4.859 -5.112,4.561 -5.749,3.317 L -5.755,3.308 -5.765,3.305 -5.873,3.284 -5.882,3.29 c -0.254,0.173 -0.339,0.228 -0.545,0.359 l -0.145,0.092 -0.033,0.121 0.006,0.007 c 0.795,1.413 1.064,1.906 1.603,2.89 0.163,0.297 0.35,0.637 0.583,1.06 l 0.005,0.01 0.114,0.012 0.006,-0.003 0.267,-0.164 C -3.415,7.302 -2.844,6.951 -1.332,6.099 L -1.24,6.047 C 0.273,5.196 1.186,4.683 2.288,4.148 L 2.297,4.144 2.299,4.135 2.337,4.032 2.333,4.023 1.817,3.096 C 1.188,1.967 0.902,1.451 0.124,0.036 L 0.119,0.027 Z M -0.674,0.524 C -0.428,0.365 -0.311,0.28 -0.149,0.164 -0.101,0.13 -0.05,0.093 0.009,0.05 l 0.08,0.017 c 0.773,1.408 1.06,1.925 1.687,3.051 L 2.286,4.035 2.259,4.111 C 1.16,4.644 0.246,5.158 -1.263,6.007 l -0.091,0.051 c -1.514,0.853 -2.085,1.203 -2.69,1.576 L -4.306,7.794 -4.379,7.786 C -4.608,7.368 -4.792,7.03 -4.953,6.737 -5.493,5.755 -5.764,5.261 -6.554,3.856 l 0.023,-0.085 0.129,-0.083 c 0.198,-0.126 0.289,-0.185 0.538,-0.355 l 0.079,0.016 c 0.637,1.241 0.804,1.54 1.604,2.958 l 0.012,0.021 0.02,-0.012 C -3.972,6.218 -3.82,6.135 -3.682,6.06 -3.109,5.745 -2.763,5.555 -1.89,5.042 L -1.871,5.031 -1.941,4.907 C -2.613,3.711 -2.756,3.46 -3.379,2.418 l 0.027,-0.079 0.048,-0.028 c 0.251,-0.15 0.357,-0.212 0.643,-0.418 l 0.071,0.006 0.203,0.378 c 0.476,0.879 0.694,1.281 1.278,2.301 l 0.012,0.02 0.02,-0.011 c 0.854,-0.483 1.143,-0.646 2,-1.165 L 0.943,3.411 0.93,3.39 0.739,3.057 C 0.195,2.107 -0.055,1.673 -0.702,0.599 l 0.028,-0.075" />
      </g>
      <g
         transform="matrix(0.35277777,0,0,-0.35277777,213.04919,30.901983)"
         id="g129304">
        <path
           id="path129306"
           style="fill:#ffe512;fill-opacity:1;fill-rule:nonzero;stroke:none"
           d="m 0,0 c -0.503,0.371 -0.544,0.392 -1.088,0.77 l -0.011,0.088 c 0.373,1.003 0.747,2.017 1.108,3.03 0.186,0.514 1.087,3.089 1.143,3.244 L 1.227,7.156 C 1.641,6.85 1.713,6.808 2.091,6.55 L 2.107,6.46 C 1.862,5.853 1.769,5.635 1,3.669 L -0.078,0.867 2.294,2.701 c 0.782,0.608 1.57,1.224 2.349,1.847 L 4.725,4.567 C 5.081,4.304 5.118,4.278 5.481,4.043 L 5.48,3.963 C 5.087,3.682 3.165,2.272 2.734,1.949 1.953,1.387 1.154,0.836 0.389,0.248 0.287,0.173 0.188,0.101 0.081,0.019 L 0,0" />
      </g>
      <g
         transform="matrix(0.35277777,0,0,-0.35277777,214.14562,31.618827)"
         id="g129308">
        <path
           id="path129310"
           style="fill:#ffe512;fill-opacity:1;fill-rule:nonzero;stroke:none"
           d="m 0,0 c -0.41,0.244 -0.474,0.281 -0.872,0.494 l -0.005,0.078 c 0.278,0.401 0.523,0.746 1.058,1.615 0.917,1.495 1.068,1.79 1.297,2.285 L 1.551,4.504 C 1.92,4.35 2.048,4.293 2.492,4.139 L 2.541,4.046 C 2.267,3.653 1.984,3.245 1.363,2.236 0.468,0.78 0.364,0.575 0.067,0.024 Z M 3.206,5.199 C 2.799,5.428 2.708,5.473 2.3,5.67 L 2.282,5.746 c 0.069,0.095 0.138,0.206 0.2,0.308 0.087,0.141 0.156,0.269 0.245,0.431 L 2.81,6.498 C 3.236,6.28 3.311,6.245 3.727,6.044 L 3.745,5.966 C 3.539,5.652 3.491,5.573 3.289,5.223 L 3.206,5.199" />
      </g>
      <g
         transform="matrix(0.35277777,0,0,-0.35277777,215.92398,31.061791)"
         id="g129312">
        <path
           id="path129314"
           style="fill:#ffe512;fill-opacity:1;fill-rule:nonzero;stroke:none"
           d="m 0,0 c -0.064,0.076 -0.147,0.173 -0.286,0.245 -0.154,0.081 -0.299,0.082 -0.397,0.074 -0.458,-0.061 -0.646,-0.418 -1.092,-1.264 -0.483,-0.917 -0.71,-1.409 -0.918,-1.88 l -0.07,-0.037 c -0.382,0.202 -0.476,0.24 -0.874,0.429 l -0.015,0.071 c 0.333,0.613 0.637,1.169 1.035,1.926 0.684,1.299 0.835,1.644 1.035,2.141 l 0.077,0.032 c 0.34,-0.106 0.557,-0.169 0.932,-0.284 L -0.549,1.38 -0.954,0.711 C -0.721,0.919 -0.243,1.333 0.447,0.968 0.554,0.911 0.607,0.874 0.662,0.824 L 0.67,0.759 C 0.383,0.411 0.324,0.339 0.079,0.011 L 0,0" />
      </g>
      <g
         transform="matrix(0.35277777,0,0,-0.35277777,216.51135,32.513824)"
         id="g129316">
        <path
           id="path129318"
           style="fill:#ffe512;fill-opacity:1;fill-rule:nonzero;stroke:none"
           d="M 0,0 C -0.145,-0.266 -0.171,-0.325 -0.287,-0.565 L -0.35,-0.598 c -0.195,0.035 -0.352,0.062 -0.665,0.198 -0.203,0.087 -0.733,0.317 -0.805,0.867 -0.045,0.31 0.042,0.513 0.472,1.507 l 0.821,1.848 c -0.296,0.127 -0.306,0.122 -0.614,0.244 l -0.012,0.066 c 0.133,0.262 0.163,0.33 0.279,0.6 l 0.072,0.028 c 0.186,-0.08 0.291,-0.135 0.573,-0.247 0.069,0.179 0.149,0.365 0.226,0.542 0.061,0.165 0.122,0.327 0.182,0.49 L 0.246,5.588 C 0.666,5.517 0.769,5.499 1.209,5.451 L 1.249,5.383 C 0.983,4.838 0.927,4.732 0.661,4.116 1.019,3.972 1.12,3.929 1.607,3.738 L 1.628,3.669 C 1.516,3.456 1.467,3.367 1.343,3.082 L 1.28,3.05 C 0.862,3.241 0.814,3.27 0.367,3.464 L -0.326,1.903 C -0.363,1.799 -0.57,1.318 -0.622,1.2 -0.888,0.584 -0.896,0.358 -0.475,0.175 -0.297,0.1 -0.144,0.083 -0.038,0.077 L 0,0" />
      </g>
      <g
         transform="matrix(0.35277777,0,0,-0.35277777,218.59169,31.723602)"
         id="g129320">
        <path
           id="path129322"
           style="fill:#ffe512;fill-opacity:1;fill-rule:nonzero;stroke:none"
           d="m 0,0 c -0.232,-0.658 -0.442,-1.275 -0.67,-1.983 -0.348,-1.074 -0.53,-1.73 -0.634,-2.113 -0.039,-0.12 -0.07,-0.246 -0.101,-0.372 l -0.052,-0.039 c -0.422,0.125 -0.496,0.139 -0.903,0.251 l -0.036,0.07 0.128,0.364 c -0.236,-0.079 -0.815,-0.286 -1.533,-0.056 -0.34,0.111 -0.691,0.311 -0.9,0.619 -0.412,0.637 -0.171,1.378 0.039,2.063 l 0.175,0.541 c 0.386,1.257 0.431,1.397 0.557,1.876 l 0.064,0.048 c 0.414,-0.125 0.492,-0.151 0.915,-0.248 l 0.032,-0.078 -0.653,-1.902 c -0.076,-0.237 -0.142,-0.409 -0.268,-0.832 -0.11,-0.368 -0.346,-1.162 0.537,-1.446 0.515,-0.166 0.975,0.003 1.239,0.103 0.161,0.469 0.291,0.87 0.453,1.377 0.393,1.215 0.463,1.463 0.595,2.048 l 0.072,0.042 c 0.405,-0.119 0.5,-0.15 0.91,-0.256 L 0,0" />
      </g>
      <g
         transform="matrix(0.35277777,0,0,-0.35277777,219.91425,33.303341)"
         id="g129324">
        <path
           id="path129326"
           style="fill:#ffe512;fill-opacity:1;fill-rule:nonzero;stroke:none"
           d="M 0,0 C -0.117,-0.353 -0.142,-0.439 -0.231,-0.787 L -0.297,-0.839 C -0.467,-0.89 -1.005,-1.054 -1.806,-0.895 -3.283,-0.6 -4.042,0.43 -3.731,1.997 -3.399,3.671 -2.225,4.291 -1.047,4.059 -0.333,3.915 0.103,3.519 0.307,3.141 0.698,2.426 0.504,1.538 0.415,1.145 L 0.342,1.102 c -1.403,0.289 -1.646,0.337 -3.126,0.622 -0.053,-0.316 -0.114,-0.762 0.119,-1.193 0.28,-0.516 0.787,-0.662 1.065,-0.718 0.261,-0.052 0.541,-0.06 0.809,-0.021 0.361,0.069 0.592,0.192 0.728,0.267 z m -0.37,2.517 c -0.081,0.531 -0.436,0.818 -0.841,0.898 -0.505,0.099 -1.167,-0.124 -1.436,-1.006 1.088,-0.228 1.432,-0.285 2.261,-0.441 0.017,0.128 0.048,0.328 0.016,0.549" />
      </g>
      <g
         transform="matrix(0.35277777,0,0,-0.35277777,223.03175,33.437044)"
         id="g129328">
        <path
           id="path129330"
           style="fill:#ffe512;fill-opacity:1;fill-rule:nonzero;stroke:none"
           d="m 0,0 c -0.044,-0.432 -0.053,-0.561 -0.079,-0.908 l -0.056,-0.066 c -0.232,-0.114 -0.814,-0.389 -1.741,-0.373 -2.011,0.031 -3.172,1.381 -3.14,3.431 0.006,0.45 0.062,1.559 0.874,2.419 0.794,0.841 1.788,0.916 2.439,0.907 0.846,-0.014 1.375,-0.208 1.675,-0.324 L 0.009,5.015 C -0.042,4.684 -0.053,4.591 -0.087,4.198 L -0.172,4.163 c -0.18,0.122 -0.645,0.422 -1.451,0.436 -1.469,0.023 -2.285,-0.972 -2.311,-2.515 -0.027,-1.735 0.906,-2.559 2.173,-2.58 0.862,-0.013 1.409,0.336 1.698,0.532 L 0,0" />
      </g>
      <g
         transform="matrix(0.35277777,0,0,-0.35277777,224.74378,33.125541)"
         id="g129332">
        <path
           id="path129334"
           style="fill:#ffe512;fill-opacity:1;fill-rule:nonzero;stroke:none"
           d="m 0,0 c -0.05,-0.46 -0.201,-0.838 -0.47,-1.17 -0.357,-0.448 -0.877,-0.664 -1.517,-0.734 -0.823,-0.092 -1.374,0.161 -1.701,0.428 -0.691,0.561 -0.804,1.492 -0.838,1.791 -0.04,0.349 -0.121,1.246 0.423,1.925 0.227,0.292 0.714,0.726 1.625,0.828 0.621,0.069 1.255,-0.063 1.709,-0.476 C -0.296,2.156 -0.107,1.53 -0.016,0.893 0.018,0.585 0.033,0.28 0,0 M -1.411,1.958 C -1.616,2.221 -1.933,2.425 -2.445,2.369 -2.618,2.349 -3.128,2.275 -3.39,1.727 -3.594,1.325 -3.561,0.792 -3.52,0.411 c 0.04,-0.366 0.153,-1.286 0.915,-1.571 0.173,-0.064 0.368,-0.079 0.551,-0.06 0.339,0.039 0.764,0.197 0.972,0.728 0.164,0.434 0.105,1.047 0.074,1.237 -0.025,0.23 -0.13,0.837 -0.403,1.213" />
      </g>
      <g
         transform="matrix(0.35277777,0,0,-0.35277777,226.2078,31.647049)"
         id="g129336">
        <path
           id="path129338"
           style="fill:#ffe512;fill-opacity:1;fill-rule:nonzero;stroke:none"
           d="M 0,0 C 0.142,-0.683 0.284,-1.321 0.452,-2.043 0.71,-3.145 0.893,-3.8 1,-4.18 1.031,-4.305 1.069,-4.428 1.107,-4.55 L 1.083,-4.613 C 0.657,-4.721 0.588,-4.75 0.181,-4.863 l -0.067,0.041 -0.078,0.378 c -0.163,-0.19 -0.551,-0.666 -1.283,-0.84 -0.35,-0.081 -0.752,-0.092 -1.092,0.064 -0.682,0.33 -0.859,1.091 -1.033,1.786 l -0.129,0.554 c -0.32,1.275 -0.352,1.416 -0.493,1.893 l 0.03,0.074 c 0.418,0.108 0.5,0.127 0.91,0.261 l 0.071,-0.05 0.423,-1.966 c 0.056,-0.241 0.09,-0.421 0.198,-0.849 0.098,-0.373 0.304,-1.174 1.208,-0.962 0.527,0.124 0.834,0.507 1.007,0.727 -0.103,0.484 -0.199,0.896 -0.321,1.414 -0.293,1.245 -0.361,1.492 -0.551,2.061 l 0.039,0.074 c 0.41,0.105 0.508,0.128 0.912,0.251 L 0,0" />
      </g>
      <g
         transform="matrix(0.35277777,0,0,-0.35277777,227.35327,31.599424)"
         id="g129340">
        <path
           id="path129342"
           style="fill:#ffe512;fill-opacity:1;fill-rule:nonzero;stroke:none"
           d="m 0,0 c -0.099,0.005 -0.227,0.011 -0.375,-0.041 -0.166,-0.054 -0.266,-0.157 -0.326,-0.238 -0.271,-0.374 -0.14,-0.755 0.168,-1.66 0.336,-0.98 0.536,-1.486 0.736,-1.96 L 0.181,-3.975 c -0.408,-0.138 -0.501,-0.18 -0.913,-0.34 l -0.061,0.038 c -0.216,0.663 -0.412,1.265 -0.687,2.072 -0.476,1.392 -0.622,1.739 -0.846,2.227 l 0.032,0.079 c 0.308,0.173 0.501,0.288 0.843,0.482 l 0.071,-0.034 0.209,-0.754 c 0.009,0.313 0.037,0.944 0.775,1.195 0.113,0.04 0.178,0.051 0.251,0.057 L -0.09,1.008 C -0.036,0.561 -0.024,0.467 0.045,0.064 L 0,0" />
      </g>
      <g
         transform="matrix(0.35277777,0,0,-0.35277777,228.99863,31.631527)"
         id="g129344">
        <path
           id="path129346"
           style="fill:#ffe512;fill-opacity:1;fill-rule:nonzero;stroke:none"
           d="M 0,0 C 0.465,-1.036 0.514,-1.126 0.8,-1.652 L 0.778,-1.713 C 0.387,-1.898 0.322,-1.937 -0.054,-2.126 l -0.058,0.036 -0.126,0.304 c -0.102,-0.196 -0.343,-0.666 -0.983,-0.951 -0.837,-0.374 -1.68,-0.066 -2.05,0.763 -0.501,1.125 0.276,1.905 1.708,2.754 l 0.134,0.081 c -0.102,0.229 -0.172,0.386 -0.308,0.485 -0.152,0.115 -0.415,0.19 -0.834,0 C -3.116,1.103 -3.42,0.768 -3.702,0.459 l -0.087,0.012 c -0.155,0.393 -0.178,0.444 -0.249,0.624 l 0.028,0.073 c 0.395,0.377 0.833,0.703 1.327,0.923 0.622,0.277 1.318,0.338 1.786,-0.237 0.164,-0.21 0.369,-0.67 0.528,-1.024 z m -1.211,0.194 c -0.79,-0.503 -1.526,-0.974 -1.194,-1.721 0.017,-0.041 0.34,-0.761 1.136,-0.406 0.521,0.233 0.695,0.653 0.751,0.776 l -0.626,1.401 -0.067,-0.05" />
      </g>
      <g
         transform="matrix(0.35277777,0,0,-0.35277777,229.82413,31.489005)"
         id="g129348">
        <path
           id="path129350"
           style="fill:#ffe512;fill-opacity:1;fill-rule:nonzero;stroke:none"
           d="m 0,0 c 0.239,0.065 1.398,0.412 1.663,0.471 0.261,0.058 1.142,0.264 1.648,-0.6 0.397,-0.682 0.245,-1.75 -1.025,-2.491 -1.181,-0.689 -2.127,-0.477 -2.519,0.198 -0.339,0.579 -0.132,1.136 0.035,1.562 -0.209,-0.026 -0.278,-0.035 -0.47,-0.051 l -0.072,0.086 c 0.037,0.501 0.05,0.698 0.067,1.124 -0.658,-0.096 -1.175,0.26 -1.456,0.744 -0.134,0.229 -0.231,0.504 -0.246,0.803 -0.045,0.952 0.724,1.455 1.159,1.708 0.128,0.077 0.292,0.161 0.449,0.254 l 0.204,0.108 c 0.456,0.256 0.63,0.358 1.199,0.698 L 0.702,4.588 C 0.836,4.306 0.836,4.306 0.968,4.044 L 0.948,3.969 0.255,3.625 C 0.683,3.547 0.969,3.258 1.145,2.956 1.577,2.218 1.384,1.256 0.392,0.676 0.26,0.597 0.158,0.55 0.03,0.496 Z M -1.018,2.947 C -1.532,2.647 -1.637,2.075 -1.332,1.551 -1.104,1.164 -0.618,0.788 0.023,1.163 0.673,1.543 0.545,2.147 0.318,2.515 0.06,2.939 -0.425,3.295 -1.018,2.947 m 1.492,-3.702 c -0.117,-0.439 -0.171,-0.782 0.037,-1.136 0.171,-0.294 0.696,-0.646 1.504,-0.174 0.651,0.38 0.758,0.909 0.539,1.282 -0.305,0.523 -0.843,0.369 -1.421,0.212 L 0.474,-0.755" />
      </g>
      <g
         transform="matrix(0.35277777,0,0,-0.35277777,231.99759,30.023566)"
         id="g129352">
        <path
           id="path129354"
           style="fill:#ffe512;fill-opacity:1;fill-rule:nonzero;stroke:none"
           d="M 0,0 C 0.182,-0.32 0.228,-0.401 0.43,-0.699 L 0.423,-0.782 c -0.077,-0.161 -0.317,-0.67 -0.975,-1.157 -1.207,-0.898 -2.482,-0.769 -3.433,0.515 -1.019,1.372 -0.689,2.656 0.276,3.373 0.582,0.433 1.169,0.49 1.587,0.388 0.792,-0.191 1.32,-0.93 1.553,-1.26 L -0.589,0.995 C -1.743,0.148 -1.943,0 -3.147,-0.905 c 0.199,-0.252 0.489,-0.597 0.963,-0.713 0.572,-0.137 1.021,0.137 1.248,0.308 0.215,0.158 0.407,0.358 0.559,0.586 0.193,0.313 0.256,0.566 0.291,0.718 z M -2.115,1.416 C -2.563,1.712 -3.011,1.64 -3.343,1.396 -3.758,1.09 -4.037,0.447 -3.562,-0.344 c 0.895,0.655 1.172,0.87 1.845,1.38 -0.085,0.099 -0.212,0.256 -0.398,0.38" />
      </g>
      <g
         transform="matrix(0.35277777,0,0,-0.35277777,223.69709,29.204063)"
         id="g129356">
        <path
           id="path129358"
           style="fill:#00a160;fill-opacity:1;fill-rule:nonzero;stroke:none"
           d="M 0,0 C 0.291,0.045 -1.293,3.334 -1.293,3.334 -1.75,0.899 -3.539,0.742 -3.539,0.742 c 0.054,1.55 1.136,2.876 1.136,2.876 1.793,2.812 0.229,6.828 0.229,6.828 C -2.403,7.854 -3.911,7.567 -3.911,7.567 v 12.85 L -4.778,20.383 V 7.538 c 0,0 -1.505,0.285 -1.735,2.876 0,0 -1.563,-4.016 0.23,-6.825 0,0 1.08,-1.33 1.137,-2.879 0,0 -1.793,0.157 -2.249,2.591 0,0 -1.661,-1.668 -1.308,-3.375 0,0 3.967,-0.661 8.703,0.074" />
      </g>
      <g
         transform="matrix(0.35277777,0,0,-0.35277777,221.74728,14.388103)"
         id="g129360">
        <path
           id="path129362"
           style="fill:#ffffff;fill-opacity:1;fill-rule:nonzero;stroke:none"
           d="m 0,0 c 0,0 1.021,9.299 14.35,12.977 0,0 6.411,2.137 7.022,7.023 0,0 0.307,-15.726 -3.204,-20 0,0 -2.903,-5.495 -8.245,-5.95 0,0 8.887,3.215 14.199,0 0,0 4.729,-1.225 7.933,-9.924 0,0 -5.647,4.731 -12.21,0 0,0 -6.717,-2.903 -10.531,-0.155 0,0 10.378,-3.508 7.937,-24.422 0,0 -3.206,8.547 -8.396,11.141 0,0 -8.244,2.75 -7.938,8.093 0,0 0.305,-10.84 -8.854,-12.517 0,0 -7.329,-1.68 -9.464,-6.259 0,0 4.733,8.089 3.969,13.281 0,0 -0.611,5.951 5.495,10.075 0,0 -4.886,-3.817 -11.143,-4.124 0,0 -7.634,-0.611 -10.227,-8.393 0,0 -3.942,19.877 13.585,21.37 0,0 5.211,0.076 6.281,0.076 0,0 -8.6,2.215 -7.834,10 0,0 0.028,7.172 -9.286,5.495 0,0 5.516,7.42 17.12,3.603 0,0 10.462,-4.187 9.441,-11.39" />
      </g>
      <g
         transform="matrix(0.35277777,0,0,-0.35277777,211.70158,27.597161)"
         id="g129364">
        <path
           id="path129366"
           style="fill:#00a160;fill-opacity:1;fill-rule:nonzero;stroke:none"
           d="m 0,0 c 0,-1.155 -0.934,-2.088 -2.086,-2.088 -1.153,0 -2.088,0.933 -2.088,2.088 0,1.152 0.935,2.086 2.088,2.086 C -0.934,2.086 0,1.152 0,0" />
      </g>
      <g
         transform="matrix(0.35277777,0,0,-0.35277777,233.88848,27.597161)"
         id="g129368">
        <path
           id="path129370"
           style="fill:#00a160;fill-opacity:1;fill-rule:nonzero;stroke:none"
           d="m 0,0 c 0,-1.155 -0.937,-2.088 -2.09,-2.088 -1.153,0 -2.088,0.933 -2.088,2.088 0,1.152 0.935,2.086 2.088,2.086 C -0.937,2.086 0,1.152 0,0" />
      </g>
      <g
         transform="matrix(0.35277777,0,0,-0.35277777,222.42567,14.592008)"
         id="g129372">
        <path
           id="path129374"
           style="fill:#c4cadd;fill-opacity:1;fill-rule:nonzero;stroke:none"
           d="m 0,0 c 0,0 2.229,7.93 9.462,10.296 0,0 4.313,1.531 6.537,3.616 0,0 -1.877,-2.538 -8.279,-5.18 C 1.324,6.086 0,0 0,0" />
      </g>
      <g
         transform="matrix(0.35277777,0,0,-0.35277777,225.12407,17.291464)"
         id="g129376">
        <path
           id="path129378"
           style="fill:#c4cadd;fill-opacity:1;fill-rule:nonzero;stroke:none"
           d="M 0,0 C 0,0 11.69,5.288 17.81,-1.81 17.81,-1.81 11.968,4.175 0,0" />
      </g>
      <g
         transform="matrix(0.35277777,0,0,-0.35277777,225.07574,20.776202)"
         id="g129380">
        <path
           id="path129382"
           style="fill:#c4cadd;fill-opacity:1;fill-rule:nonzero;stroke:none"
           d="M 0,0 C 0,0 4.698,-3.999 6.677,-13.913 6.677,-13.913 2.783,-2.784 0,0" />
      </g>
      <g
         transform="matrix(0.35277777,0,0,-0.35277777,221.6284,21.119808)"
         id="g129384">
        <path
           id="path129386"
           style="fill:#c4cadd;fill-opacity:1;fill-rule:nonzero;stroke:none"
           d="m 0,0 c 0,0 0.03,-0.146 0.067,-0.41 0.239,-1.699 0.665,-8.264 -6.328,-11.277 0,0 6.577,4.312 6.261,11.687" />
      </g>
      <g
         transform="matrix(0.35277777,0,0,-0.35277777,218.20363,17.6834)"
         id="g129388">
        <path
           id="path129390"
           style="fill:#c4cadd;fill-opacity:1;fill-rule:nonzero;stroke:none"
           d="m 0,0 c 0,0 -13.494,1.389 -16.695,-8.625 0,0 3.621,8.587 16.695,8.625" />
      </g>
      <g
         transform="matrix(0.35277777,0,0,-0.35277777,221.05055,14.346475)"
         id="g129392">
        <path
           id="path129394"
           style="fill:#c4cadd;fill-opacity:1;fill-rule:nonzero;stroke:none"
           d="m 0,0 c 0,0 -3.061,11.41 -17.252,10.297 0,0 11.446,1.181 17.252,-10.297" />
      </g>
      <g
         transform="matrix(0.35277777,0,0,-0.35277777,224.38818,16.70303)"
         id="g129396">
        <path
           id="path129398"
           style="fill:#c4cadd;fill-opacity:1;fill-rule:nonzero;stroke:none"
           d="m 0,0 c 0,0 10.048,-0.107 12.692,11.44 0,0 1.518,7.638 1.099,11.116 0,0 -2.31,-21.338 -14.137,-22.034 L 0,0" />
      </g>
      <g
         transform="matrix(0.35277777,0,0,-0.35277777,224.37618,19.536541)"
         id="g129400">
        <path
           id="path129402"
           style="fill:#c4cadd;fill-opacity:1;fill-rule:nonzero;stroke:none"
           d="m 0,0 c 0,0 2.295,-3.549 8.558,-2.402 0,0 2.534,0.387 3.985,1.178 0,0 5.837,3.47 11.255,0.532 0,0 -3.865,4.759 -13.778,0.898 0,0 -7.305,-2.503 -9.705,0.418 L 0,0" />
      </g>
      <g
         transform="matrix(0.35277777,0,0,-0.35277777,222.13922,21.048194)"
         id="g129404">
        <path
           id="path129406"
           style="fill:#c4cadd;fill-opacity:1;fill-rule:nonzero;stroke:none"
           d="m 0,0 c 0,0 -1.796,-5.525 3.525,-8.343 0,0 2.504,-1.564 3.443,-1.878 0,0 3.34,-1.463 4.488,-3.338 0,0 3.442,-4.592 4.071,-6.366 0,0 0,7.094 -8.141,12.103 0,0 -6.886,3.34 -6.574,7.932 L 0,0" />
      </g>
      <g
         transform="matrix(0.35277777,0,0,-0.35277777,217.44092,26.470741)"
         id="g129408">
        <path
           id="path129410"
           style="fill:#c4cadd;fill-opacity:1;fill-rule:nonzero;stroke:none"
           d="m 0,0 c 4.102,2.015 7.67,0.859 11.933,6.865 0,0 -1.567,-4.961 -6.958,-6.224 -0.711,-0.165 -2.13,-0.532 -2.13,-0.532 0,0 -6.26,-1.964 -8.022,-5.838 0,0 1.964,4.148 5.177,5.729" />
      </g>
      <g
         transform="matrix(0.35277777,0,0,-0.35277777,219.5911,19.831816)"
         id="g129412">
        <path
           id="path129414"
           style="fill:#c4cadd;fill-opacity:1;fill-rule:nonzero;stroke:none"
           d="m 0,0 c 0,0 -4.591,-3.651 -8.869,-4.696 0,0 -2.605,-0.648 -3.836,-0.591 0,0 -7.915,-0.564 -10.491,-8.437 0,0 0.345,7.151 8.589,9.97 0,0 3.392,1.137 7.651,2.019 0,0 3.109,0.587 6.541,2.467 L 0,0" />
      </g>
      <g
         transform="matrix(0.35277777,0,0,-0.35277777,219.11838,17.170108)"
         id="g129416">
        <path
           id="path129418"
           style="fill:#c4cadd;fill-opacity:1;fill-rule:nonzero;stroke:none"
           d="m 0,0 c 0,0 -4.996,-0.555 -8.976,5.24 0,0 -1.141,1.928 -0.87,4.644 0,0 0.39,7.369 -9.263,5.79 0,0 10.433,2.556 10.64,-5.167 0,0 -0.312,-5.739 7.203,-8.244 C -1.268,2.264 0.663,1.668 1.507,0.991 2.294,0.359 2.075,-0.372 0.195,-0.038 L 0,0" />
      </g>
      <g
         transform="matrix(0.35277777,0,0,-0.35277777,224.46473,10.79753)"
         id="g129420">
        <path
           id="path129422"
           style="fill:#c4cadd;fill-opacity:1;fill-rule:nonzero;stroke:none"
           d="m 0,0 c 0,0 -6.335,-3.199 -7.561,-9.469 0,0 -0.128,3.297 -1.977,5.252 0,0 2.296,-4.593 1.67,-8.244 l 1.043,-0.731 c 0,0 -1.002,5.994 6.825,13.192" />
      </g>
      <g
         transform="matrix(0.35277777,0,0,-0.35277777,221.86864,21.063364)"
         id="g129424">
        <path
           id="path129426"
           style="fill:#ffe512;fill-opacity:1;fill-rule:nonzero;stroke:none"
           d="m 0,0 c 4.59,0 8.31,3.72 8.31,8.309 0,4.586 -3.72,8.306 -8.31,8.306 -4.588,0 -8.307,-3.72 -8.307,-8.306 C -8.307,3.72 -4.588,0 0,0" />
      </g>
      <g
         transform="matrix(0.35277777,0,0,-0.35277777,219.52831,17.798405)"
         id="g129428">
        <path
           id="path129430"
           style="fill:#fff0a4;fill-opacity:1;fill-rule:nonzero;stroke:none"
           d="m 0,0 c -0.001,0.003 -0.069,0.262 -0.071,0.684 v 0.041 c 0.005,1.019 0.4,2.934 2.921,4.564 1.29,0.834 2.42,1.156 3.525,1.161 H 6.429 C 7.402,6.446 8.357,6.198 9.391,5.842 c 0,0 -0.792,0.178 -1.91,0.178 C 6.016,6.02 3.989,5.716 2.435,4.314 2.435,4.314 0.209,2.297 0,0" />
      </g>
      <g
         transform="matrix(0.35277777,0,0,-0.35277777,131.47427,304.666)"
         id="g129432">
        <g
           clip-path="url(#clipPath129438)"
           id="g129434">
          <g
             transform="translate(256.134,805.044)"
             id="g129440">
            <path
               id="path129442"
               style="fill:#d9c445;fill-opacity:1;fill-rule:nonzero;stroke:none"
               d="M 0,0 C -2.223,0 -3.627,1.248 -4.111,1.716 -4.241,1.84 -4.312,1.92 -4.31,1.92 -3.716,1.822 -3.153,1.777 -2.615,1.777 4.487,1.777 6.821,9.673 6.821,9.673 9.136,3.656 3.203,0.801 3.203,0.801 1.997,0.217 0.927,0 0,0" />
          </g>
        </g>
      </g>
    </g>
  </g>
</svg>
