<?xml version="1.0" encoding="UTF-8" standalone="no"?>
<svg
   id="Layer_1"
   data-name="Layer 1"
   viewBox="0 0 172.99986 150.82631"
   version="1.1"
   width="172.99986"
   height="150.82631"
   xmlns="http://www.w3.org/2000/svg"
   xmlns:svg="http://www.w3.org/2000/svg"
   xmlns:rdf="http://www.w3.org/1999/02/22-rdf-syntax-ns#"
   xmlns:cc="http://creativecommons.org/ns#"
   xmlns:dc="http://purl.org/dc/elements/1.1/">
  <metadata
     id="metadata19">
    <rdf:RDF>
      <cc:Work
         rdf:about="">
        <dc:format>image/svg+xml</dc:format>
        <dc:type
           rdf:resource="http://purl.org/dc/dcmitype/StillImage" />
        <dc:title />
      </cc:Work>
    </rdf:RDF>
  </metadata>
  <defs
     id="defs4">
    <style
       id="style2">.cls-3{fill:#d6c152}</style>
  </defs>
  <path
     d="M -25.725072,-16.233151 H 198.72493 V 172.15685 H -25.725072 Z m 232.440002,0 h 568.42 V 172.15685 h -568.42 z"
     fill="none"
     id="path6" />
  <path
     class="cls-3"
     d="m 94.274928,110.76685 a 2.45,2.45 0 0 1 1.48,-1.34 2.86,2.86 0 0 1 1.09,-0.12 2.33,2.33 0 0 1 0.78,0.22 2.22,2.22 0 0 1 0.76,0.67 l 1.12,-0.69 a 3.26,3.26 0 0 0 -1.15,-1 3.68,3.68 0 0 0 -1.42,-0.4 4.61,4.61 0 0 0 -1.65,0.15 3.61,3.61 0 0 0 -1.34,0.71 3.7,3.7 0 0 0 -0.94,1.21 4.44,4.44 0 0 0 -0.44,1.64 4.17,4.17 0 0 0 0.16,1.65 3.6,3.6 0 0 0 1.94,2.24 4.46,4.46 0 0 0 1.6,0.42 3.84,3.84 0 0 0 1.61,-0.19 3,3 0 0 0 1.35,-0.93 l -1.06,-0.89 a 2.62,2.62 0 0 1 -0.87,0.64 1.94,1.94 0 0 1 -0.92,0.14 2.52,2.52 0 0 1 -1,-0.3 2.48,2.48 0 0 1 -0.78,-0.66 2.75,2.75 0 0 1 -0.46,-0.94 3.19,3.19 0 0 1 -0.09,-1.15 2.69,2.69 0 0 1 0.23,-1.08 z m -5.51,0.07 h -3.58 v -3.07 h -1.36 v 7.67 h 1.37 v -3.37 h 3.58 v 3.38 h 1.36 l 0.05,-7.66 h -1.41 v 3 z m -39.08,-38.390001 a 38.64,38.64 0 0 0 73.630002,0 22,22 0 0 0 4,4.75 23.48,23.48 0 0 0 11.4,5.66 c 0.12,-0.51 0.23,-1 0.34,-1.54 a 52.56,52.56 0 0 0 0.61,-6 15.91,15.91 0 0 1 -7.39,-3.68 13,13 0 0 1 -1.23,-18.34 11.9,11.9 0 0 1 1.23,-1.23 15.61,15.61 0 0 1 2.35,-1.78 52.6,52.6 0 0 0 -3.74,-6.52 22.72,22.72 0 0 0 -3.78,2.83 21.7,21.7 0 0 0 -3.35,3.93 38.63,38.63 0 0 0 -74.510002,0 21.7,21.7 0 0 0 -3.35,-3.93 23.06,23.06 0 0 0 -3.77,-2.83 54.83,54.83 0 0 0 -3.69,6.56 14.21,14.21 0 0 1 2.34,1.74 13,13 0 0 1 -0.09,19.57 16,16 0 0 1 -7.26,3.73 53.52,53.52 0 0 0 0.67,6.32 c 0.09,0.39 0.17,0.78 0.26,1.17 a 23.48,23.48 0 0 0 11.4,-5.66 21.86,21.86 0 0 0 3.93,-4.75 z m 36.7,20 a 38.11,38.11 0 0 1 -17,-4.49 l -0.5,-7.19 c 7.13,4.28 12.32,6.12 17.24,6.12 8,0 13.44,-4.6 13.44,-11.45 0,-6.55 -4.56,-9.9 -12.44,-13.48 l -1.61,-0.73 v -6.52 l 1.43,0.65 4.34,1.9 c 9.310002,4.12 14.230002,10.39 14.230002,18.14 0,10.04 -7.870002,17.05 -19.130002,17.05 z m 3.81,-13.32 v -14.53 a 24.35,24.35 0 0 1 4.86,3.24 v 11.29 z m 22.240002,-34.25 c 1.67,0.39 3.28,0.82 4.81,1.28 v 29.78 c -1.53,0.46 -3.14,0.88 -4.81,1.27 v -15.14 h -11.72 a 31.09,31.09 0 0 0 -9.000002,-5.79 l -1.52,-0.66 v -13.47 c 1.64,0 3.27,0.12 4.86,0.23 v 14.9 h 17.380002 z m -25.710002,-16.77 a 27.93,27.93 0 0 1 14.110002,3.93 v 6.43 c -5.000002,-3.55 -9.720002,-5.28 -14.450002,-5.28 -6.74,0 -11.28,3.87 -11.28,9.63 a 9.83,9.83 0 0 0 3.5,7.52 v 7.43 c -6,-3.81 -9.1,-8.69 -9.1,-14.55 0,-8.92 7.08,-15.11 17.22,-15.11 z m -29.67,17.66 c 1.08,-0.3 2.19,-0.58 3.34,-0.85 l 19.28,22.3 v -25 q 2.35,-0.12 4.77,-0.15 v 37.91 h -0.17 l -22.5,-26 v 23.52 c -1.67,-0.35 -3.24,-0.74 -4.72,-1.17 z m -3.56,66.760001 1.78,5.43 -5.26,-4.29 -1.73,0.54 2.33,7.3 1.3,-0.41 -1.79,-5.6 5.38,4.46 1.65,-0.53 -2.32,-7.3 z m 55.000002,-1.76 a 3.54,3.54 0 0 0 -1.14,-1 4.43,4.43 0 0 0 -1.58,-0.54 4.57,4.57 0 0 0 -1.65,0 3.74,3.74 0 0 0 -1.39,0.6 3.57,3.57 0 0 0 -1,1.12 4.76,4.76 0 0 0 -0.55,3.26 3.68,3.68 0 0 0 1.74,2.4 4.54,4.54 0 0 0 1.56,0.55 4.74,4.74 0 0 0 1.68,0 3.79,3.79 0 0 0 2.45,-1.71 4.81,4.81 0 0 0 0.57,-3.25 3.8,3.8 0 0 0 -0.7,-1.43 z m -0.76,2.81 a 3.29,3.29 0 0 1 -0.38,1.09 2.57,2.57 0 0 1 -1.6,1.24 2.9,2.9 0 0 1 -2.13,-0.36 2.44,2.44 0 0 1 -0.71,-0.72 2.39,2.39 0 0 1 -0.38,-1 3.18,3.18 0 0 1 0,-1.15 2.82,2.82 0 0 1 0.37,-1 2.61,2.61 0 0 1 0.67,-0.77 2.41,2.41 0 0 1 0.91,-0.44 2.94,2.94 0 0 1 2.1,0.39 2.22,2.22 0 0 1 0.72,0.71 2.55,2.55 0 0 1 0.39,1 2.93,2.93 0 0 1 0,1 z m -42.240002,-1.81 a 3.59,3.59 0 0 0 -1.1,-1.06 3.46,3.46 0 0 0 -1.43,-0.51 4.42,4.42 0 0 0 -1.66,0.1 4.2,4.2 0 0 0 -1.53,0.63 3.64,3.64 0 0 0 -1.07,1.07 3.76,3.76 0 0 0 -0.54,1.44 4.19,4.19 0 0 0 0.07,1.69 4.07,4.07 0 0 0 0.65,1.53 3.5,3.5 0 0 0 1.09,1.11 3.64,3.64 0 0 0 1.42,0.52 4.37,4.37 0 0 0 1.65,-0.08 4.56,4.56 0 0 0 1.54,-0.65 3.87,3.87 0 0 0 1.08,-1.09 3.63,3.63 0 0 0 0.55,-1.42 4.63,4.63 0 0 0 -0.72,-3.22 z m -0.68,3 a 2.74,2.74 0 0 1 -0.33,1 2.36,2.36 0 0 1 -0.68,0.76 2.83,2.83 0 0 1 -1,0.45 2.91,2.91 0 0 1 -1.1,0 2.46,2.46 0 0 1 -0.94,-0.4 2.74,2.74 0 0 1 -0.72,-0.76 3.43,3.43 0 0 1 -0.43,-1.07 2.86,2.86 0 0 1 0,-1.09 2.57,2.57 0 0 1 0.33,-1 2.33,2.33 0 0 1 0.68,-0.75 2.49,2.49 0 0 1 1,-0.44 2.55,2.55 0 0 1 1.1,0 2.44,2.44 0 0 1 0.94,0.39 2.74,2.74 0 0 1 0.71,0.73 3.38,3.38 0 0 1 0.42,1 3.12,3.12 0 0 1 0,1.18 z m 8.74,-2.7 a 2.07,2.07 0 0 0 0.26,-1.44 2.15,2.15 0 0 0 -0.38,-1 1.88,1.88 0 0 0 -0.73,-0.58 2.69,2.69 0 0 0 -1,-0.22 6.37,6.37 0 0 0 -1.07,0 l -2.64,0.36 1,7.59 1.35,-0.18 -0.44,-3.22 1,-0.13 2.2,3 1.63,-0.22 -2.46,-3.08 a 2,2 0 0 0 1.29,-0.88 z m -1.57,-0.3 a 1.93,1.93 0 0 1 -0.52,0.2 5.72,5.72 0 0 1 -0.57,0.11 l -1.05,0.14 -0.29,-2 1.17,-0.16 h 0.55 a 1.79,1.79 0 0 1 0.51,0.07 0.91,0.91 0 0 1 0.41,0.25 1.17,1.17 0 0 1 0.14,1.13 0.85,0.85 0 0 1 -0.34,0.31 z m 9.44,-3.93 -6.05,0.42 0.09,1.23 2.34,-0.16 0.47,6.44 1.36,-0.09 -0.44,-6.42 2.34,-0.16 -0.08,-1.23 z m 46.770002,20.48 -0.11,5.75 -3.76,-4.3 -2,0.71 2.61,7.2 1.22,-0.44 -2.17,-6 4.36,5.19 0.89,-0.32 v -6.78 l 2.17,6 1.22,-0.45 -2.61,-7.2 -1.93,0.7 z m -11.39,3.68 -1.19,8.27 1.47,-0.4 0.2,-1.88 3.21,-0.87 1.15,1.5 1.5,-0.41 -5.2,-6.52 z m 0.62,4.74 0.34,-3.32 2,2.69 z m -5.15,-3.59 -1.34,0.26 0.94,4.72 a 2.91,2.91 0 0 1 0,0.59 2,2 0 0 1 -0.17,0.62 1.69,1.69 0 0 1 -0.44,0.52 1.81,1.81 0 0 1 -0.77,0.32 1.94,1.94 0 0 1 -0.83,0 1.63,1.63 0 0 1 -0.61,-0.32 1.73,1.73 0 0 1 -0.39,-0.5 2.35,2.35 0 0 1 -0.2,-0.56 l -0.93,-4.72 -1.34,0.27 0.94,4.75 a 3.36,3.36 0 0 0 0.47,1.18 2.75,2.75 0 0 0 0.82,0.81 3.2,3.2 0 0 0 1.08,0.4 3.69,3.69 0 0 0 1.24,0 3.5,3.5 0 0 0 1.16,-0.45 2.85,2.85 0 0 0 0.84,-0.78 2.66,2.66 0 0 0 0.45,-1.05 3.39,3.39 0 0 0 0,-1.27 z m -27.890002,4.08 a 1.18,1.18 0 0 1 0.4,-0.17 1.77,1.77 0 0 1 0.46,0 2,2 0 0 1 0.77,0.15 1.31,1.31 0 0 1 0.57,0.47 l 1,-1 a 2.89,2.89 0 0 0 -1,-0.62 3.87,3.87 0 0 0 -1.17,-0.19 3.76,3.76 0 0 0 -1,0.13 2.87,2.87 0 0 0 -0.91,0.41 2.36,2.36 0 0 0 -0.65,0.72 2,2 0 0 0 -0.25,1 1.82,1.82 0 0 0 0.26,1.09 2.31,2.31 0 0 0 0.66,0.66 3.41,3.41 0 0 0 0.87,0.39 c 0.32,0.1 0.61,0.2 0.88,0.31 a 2.73,2.73 0 0 1 0.66,0.39 0.77,0.77 0 0 1 0.27,0.65 1.06,1.06 0 0 1 -0.13,0.46 0.92,0.92 0 0 1 -0.32,0.33 1.38,1.38 0 0 1 -0.43,0.19 2,2 0 0 1 -0.48,0.06 2,2 0 0 1 -0.86,-0.22 1.84,1.84 0 0 1 -0.64,-0.6 l -1,1 a 2.68,2.68 0 0 0 1.12,0.82 4.06,4.06 0 0 0 1.38,0.25 3.54,3.54 0 0 0 1.07,-0.14 2.79,2.79 0 0 0 0.9,-0.44 2.19,2.19 0 0 0 0.62,-0.76 2.46,2.46 0 0 0 0.24,-1.07 2,2 0 0 0 -0.26,-1.1 2.14,2.14 0 0 0 -0.67,-0.67 3.82,3.82 0 0 0 -0.87,-0.4 6.38,6.38 0 0 1 -0.87,-0.3 2.41,2.41 0 0 1 -0.67,-0.36 0.7,0.7 0 0 1 -0.26,-0.6 1,1 0 0 1 0.11,-0.45 1.11,1.11 0 0 1 0.2,-0.39 z m 6.89,5.09 -0.1,-2.08 3.51,-0.16 v -1.24 l -3.52,0.17 -0.09,-1.88 3.71,-0.18 -0.11,-1.18 -5.07,0.24 0.36,7.65 5.27,-0.25 -0.06,-1.23 z m 12.180002,-0.93 a 4.41,4.41 0 0 0 0.51,-0.46 2.69,2.69 0 0 0 0.45,-0.65 3.16,3.16 0 0 0 0.29,-0.85 4,4 0 0 0 -0.49,-2.58 3.43,3.43 0 0 0 -1,-1.11 4.07,4.07 0 0 0 -1.36,-0.65 4.43,4.43 0 0 0 -1.58,-0.1 4.22,4.22 0 0 0 -1.510002,0.47 4.19,4.19 0 0 0 -1.9,2.31 3.83,3.83 0 0 0 -0.13,1.58 4.27,4.27 0 0 0 0.52,1.63 3.54,3.54 0 0 0 1,1.14 3.67,3.67 0 0 0 1.41,0.63 5,5 0 0 0 1.680002,0.08 l 4.43,-0.53 -0.13,-1.1 z m -0.21,-1.75 a 2.89,2.89 0 0 1 -0.44,0.92 2.37,2.37 0 0 1 -0.75,0.66 2.57,2.57 0 0 1 -1,0.33 2.49,2.49 0 0 1 -1.930002,-0.55 2.71,2.71 0 0 1 -0.64,-0.79 3.26,3.26 0 0 1 -0.32,-1.06 3,3 0 0 1 0.07,-1.08 2.77,2.77 0 0 1 0.43,-0.9 2.57,2.57 0 0 1 0.74,-0.65 2.73,2.73 0 0 1 1.000002,-0.32 3.09,3.09 0 0 1 1.09,0.07 2.48,2.48 0 0 1 0.88,0.46 2.63,2.63 0 0 1 0.64,0.77 2.73,2.73 0 0 1 0.32,1 3.12,3.12 0 0 1 -0.06,1.14 z m 8.45,-29.13 -0.3,1.2 2.27,0.57 -1.57,6.23 1.33,0.33 1.57,-6.23 2.27,0.58 0.3,-1.2 z m 34.1,13.47 a 2.39,2.39 0 0 0 -1,-2.27 1.84,1.84 0 0 0 -0.88,-0.29 2.81,2.81 0 0 0 -1,0.12 6.23,6.23 0 0 0 -1,0.42 l -2.34,1.27 3.7,6.74 1.2,-0.65 -1.55,-2.86 0.88,-0.47 3.1,2 1.45,-0.78 -3.4,-2 a 2,2 0 0 0 0.84,-1.23 z m -1.57,0.28 a 2.05,2.05 0 0 1 -0.41,0.37 5.09,5.09 0 0 1 -0.5,0.3 l -0.94,0.5 -1,-1.82 1,-0.56 a 4.37,4.37 0 0 1 0.49,-0.23 1.46,1.46 0 0 1 0.51,-0.12 0.85,0.85 0 0 1 0.47,0.1 0.92,0.92 0 0 1 0.38,0.4 1,1 0 0 1 0.15,0.59 1,1 0 0 1 -0.1,0.47 z m -6.54,0 -1.24,0.57 2,4.37 a 2.21,2.21 0 0 1 0.17,0.57 1.72,1.72 0 0 1 0,0.64 1.54,1.54 0 0 1 -0.3,0.6 1.74,1.74 0 0 1 -0.67,0.5 2,2 0 0 1 -0.82,0.18 1.38,1.38 0 0 1 -0.66,-0.17 1.69,1.69 0 0 1 -0.49,-0.39 2.41,2.41 0 0 1 -0.33,-0.5 l -2,-4.37 -1.24,0.56 2,4.41 a 3,3 0 0 0 0.73,1 2.68,2.68 0 0 0 1,0.59 2.93,2.93 0 0 0 1.14,0.14 3.33,3.33 0 0 0 1.2,-0.31 3.47,3.47 0 0 0 1,-0.7 3.11,3.11 0 0 0 0.64,-1 2.89,2.89 0 0 0 0.19,-1.13 3.14,3.14 0 0 0 -0.3,-1.24 z"
     id="path10" />
  <path
     class="cls-3"
     d="m 172.83493,59.026849 a 3.34,3.34 0 0 0 -1.27,-3.78 l -15.1,-10.48 a 22,22 0 0 0 -13.19,-4.47 c -0.8,0 -1.6,0 -2.4,0.13 a 63.34,63.34 0 0 0 -43.700002,-29.91 l -9.53,-10.21000036 a 1.07,1.07 0 0 0 -1.5,0 l -10.24,10.19000036 a 63.38,63.38 0 0 0 -43.74,29.93 c -0.8,-0.08 -1.61,-0.13 -2.42,-0.13 a 22,22 0 0 0 -13.21,4.47 l -15.1,10.5 a 3.34,3.34 0 0 0 -1.26999998,3.78 c 0,0 7.44999998,21.72 10.38999998,28.84 0.58,1.43 1.22,2.9 1.94,4.41 a 81.78,81.78 0 0 0 3.92,7.18 11.71,11.71 0 0 0 -4.14,21.760001 l 4.09,-5.17 a 5.29,5.29 0 1 1 5.83,-8.3 c 0.57,0.73 1.17,1.47 1.77,2.2 l -8.16,11.27 -0.78,1 v 0.07 l -3.75,5.08 1.8,1.21 a 131.85,131.85 0 0 0 146.530002,0 l 1.8,-1.21 -12.5,-17.2 c 0.66,-0.81 1.31,-1.61 1.94,-2.42 a 5.28,5.28 0 1 1 5.82,8.3 l 4.09,5.17 a 11.71,11.71 0 0 0 -4.17,-21.760001 81.78,81.78 0 0 0 3.92,-7.18 c 0.72,-1.51 1.36,-3 1.94,-4.41 2.94,-7.12 10.39,-28.86 10.39,-28.86 z m -86.320002,-41.92 a 55.79,55.79 0 0 1 42.140002,92.370001 121.57,121.57 0 0 0 -84.280002,0 55.79,55.79 0 0 1 42.14,-92.390001 z M 109.05493,120.18685 c -1.76,-0.4 -3.45,-0.73 -5.16,-1 a 106,106 0 0 0 -34.140002,-0.08 49.87,49.87 0 0 0 -5.15,1 101.26,101.26 0 0 0 -13.26,3.66 107,107 0 0 1 -11.47,-4.57 c -1.33,-0.6 -2.66,-1.26 -4,-2 a 117.56,117.56 0 0 1 101.130002,-0.1 109.9,109.9 0 0 1 -15.47,6.67 103.92,103.92 0 0 0 -12.48,-3.58 z m 6,5.48 c -1.89,0.51 -3.79,1 -5.71,1.37 -1.92,0.37 -3.67,0.74 -5.36,1 a 111.36,111.36 0 0 1 -35.840002,-0.09 c -1.78,-0.28 -3.53,-0.61 -5.37,-1 -1.64,-0.35 -3.27,-0.75 -4.9,-1.18 q 3.74,-1.09 7.54,-1.91 c 1.77,-0.38 3.38,-0.68 4.93,-0.91 a 102.33,102.33 0 0 1 33.000002,0.08 c 1.64,0.26 3.25,0.57 4.94,1 2.28,0.45 4.56,1 6.81,1.69 z M 19.594928,89.666849 c -7.81,-15.9 -5.59,-27.05 -5.57,-27.14 v -0.47 c 0.59,-5.66 6.17,-13.39 14.25,-14.17 a 63.35,63.35 0 0 0 8.73,64.590001 l -0.5,0.23 a 89.35,89.35 0 0 1 -16.92,-23.000001 z M 155.46493,126.32685 a 127.69,127.69 0 0 1 -138.240002,0 l 7.66,-10.56 c 0.5,0.32 1,0.65 1.58,1 2,1.24 4,2.38 6,3.4 l 0.11,0.06 c 0.23,0.13 0.44,0.25 0.63,0.34 1.63,0.87 3.3,1.7 5,2.45 a 111.83,111.83 0 0 0 23.73,8 c 1.91,0.43 3.76,0.79 5.61,1.08 a 115.41,115.41 0 0 0 37.140002,0.09 c 1.76,-0.26 3.6,-0.6 5.6,-1 a 113,113 0 0 0 30.99,-11.42 c 1.23,-0.68 2.38,-1.33 3.5,-2 a 6.82,6.82 0 0 0 0.64,-0.39 c 0.63,-0.36 1.27,-0.75 1.89,-1.16 l 0.54,-0.33 z m -2,-36.660001 c -3.2,6.52 -8.44,14.430001 -17,23.000001 l -0.49,-0.21 a 63.33,63.33 0 0 0 8.7,-64.580001 c 8.1,0.78 13.68,8.51 14.2,14.17 v 0.47 c 0.12,0.1 2.34,11.25 -5.46,27.15 z"
     id="path12" />
  <path
     class="cls-3"
     d="m 45.904928,128.76685 -1.29,-0.46 -2.62,7.19 4.34,1.59 0.43,-1.16 -3.06,-1.16 z m -11.78,-5.1 -4.32,3.79 0.68,-5.7 -1.84,-1 -3.56,6.79 1.16,0.6 3,-5.63 -0.89,6.72 0.84,0.44 5,-4.55 -2.92,5.64 1.15,0.61 3.56,-6.79 z m 38.87,11.54 -4.15,7.26 1.52,0.16 0.91,-1.66 3.3,0.36 0.52,1.82 1.55,0.17 -2.45,-8 z m -1.16,4.64 1.53,-3 0.83,3.22 z m 51.120002,-19.4 -3.68,-1.22 0.65,-2 3.34,1.09 0.39,-1.17 -3.35,-1.1 0.59,-1.78 3.53,1.15 0.38,-1.17 -4.82,-1.58 -2.39,7.28 5,1.64 0.39,-1.17 z m -84.220002,6.74 3.41,1.47 0.49,-1.14 -4.66,-2 -3,7 4.84,2.09 0.49,-1.14 -3.59,-1.54 0.82,-1.91 3.23,1.39 0.49,-1.13 -3.23,-1.39 z m 9.54,10.49 2.31,-7.3 1.29,0.41 -2.3,7.3 z m 19.5,-2.7 a 2.78,2.78 0 0 0 -0.84,-0.51 5,5 0 0 0 -1,-0.29 l -2.66,-0.41 -1.34,7.54 1.34,0.24 0.57,-3.2 1,0.18 1.18,3.5 1.62,0.29 -1.37,-3.74 a 2,2 0 0 0 1.41,-0.44 2.18,2.18 0 0 0 0.7,-1.29 2.05,2.05 0 0 0 0,-1.1 1.65,1.65 0 0 0 -0.61,-0.77 z m -0.84,1.6 a 1,1 0 0 1 -0.26,0.56 0.91,0.91 0 0 1 -0.44,0.24 1.69,1.69 0 0 1 -0.55,0 5.73,5.73 0 0 1 -0.58,-0.07 l -1,-0.19 0.36,-2 1.16,0.2 a 3,3 0 0 1 0.52,0.13 1.35,1.35 0 0 1 0.47,0.22 0.86,0.86 0 0 1 0.31,0.37 0.9,0.9 0 0 1 0,0.54 z m -6.72,-2.62 a 3.89,3.89 0 0 0 -1,-1.1 4.74,4.74 0 0 0 -1.53,-0.66 4.59,4.59 0 0 0 -1.65,-0.12 3.66,3.66 0 0 0 -1.44,0.48 3.61,3.61 0 0 0 -1.13,1 4.66,4.66 0 0 0 -0.81,3.2 3.82,3.82 0 0 0 0.5,1.43 3.89,3.89 0 0 0 1,1.1 4.6,4.6 0 0 0 3.18,0.78 3.72,3.72 0 0 0 2.58,-1.5 4.56,4.56 0 0 0 0.81,-3.2 3.74,3.74 0 0 0 -0.51,-1.41 z m -1,2.74 a 3.35,3.35 0 0 1 -0.46,1.06 2.89,2.89 0 0 1 -0.74,0.74 2.38,2.38 0 0 1 -1,0.37 2.55,2.55 0 0 1 -1.1,-0.06 2.49,2.49 0 0 1 -1,-0.47 2.44,2.44 0 0 1 -0.65,-0.78 2.52,2.52 0 0 1 -0.3,-1 3.17,3.17 0 0 1 0.09,-1.15 3,3 0 0 1 0.45,-1 2.78,2.78 0 0 1 0.73,-0.72 2.56,2.56 0 0 1 2,-0.3 2.87,2.87 0 0 1 1,0.47 2.45,2.45 0 0 1 1,1.75 2.86,2.86 0 0 1 0,1.09 z"
     id="path14" />
</svg>
