<?xml version="1.0" encoding="UTF-8" standalone="no"?>
<!-- Created with Inkscape (http://www.inkscape.org/) -->

<svg
   width="35.702732mm"
   height="34.299877mm"
   viewBox="0 0 35.702732 34.299877"
   version="1.1"
   id="svg417459"
   xmlns="http://www.w3.org/2000/svg"
   xmlns:svg="http://www.w3.org/2000/svg"
   xmlns:rdf="http://www.w3.org/1999/02/22-rdf-syntax-ns#"
   xmlns:cc="http://creativecommons.org/ns#"
   xmlns:dc="http://purl.org/dc/elements/1.1/">
  <defs
     id="defs417453">
    <clipPath
       id="clipPath417479"
       clipPathUnits="userSpaceOnUse">
      <path
         id="path417477"
         d="M 0,841.89 H 595.276 V 0 H 0 Z" />
    </clipPath>
    <clipPath
       id="clipPath417499"
       clipPathUnits="userSpaceOnUse">
      <path
         id="path417497"
         d="M 38.633,708.662 H 139.838 V 805.89 H 38.633 Z" />
    </clipPath>
    <clipPath
       id="clipPath417723"
       clipPathUnits="userSpaceOnUse">
      <path
         id="path417721"
         d="M 410.158,453.011 H 558.267 V 632.125 H 410.158 Z" />
    </clipPath>
  </defs>
  <metadata
     id="metadata417456">
    <rdf:RDF>
      <cc:Work
         rdf:about="">
        <dc:format>image/svg+xml</dc:format>
        <dc:type
           rdf:resource="http://purl.org/dc/dcmitype/StillImage" />
        <dc:title />
      </cc:Work>
    </rdf:RDF>
  </metadata>
  <g
     id="layer1"
     transform="translate(-30.151003,-50.968483)">
    <g
       id="g417493"
       transform="matrix(0.35277777,0,0,-0.35277777,16.522139,335.26856)">
      <g
         id="g417495"
         clip-path="url(#clipPath417499)">
        <g
           id="g417501"
           transform="translate(139.8376,717.3733)">
          <path
             d="m 0,0 v -0.081 c -10.17,0.382 -22.606,0.36 -33.163,0.98 -2.642,0.154 -5.666,0.054 -8.414,0 C -42.505,0.88 -43.532,0.98 -44.272,0.817 -44.795,0.702 -45.247,0.189 -45.743,0 c -1.784,-0.679 -4.262,-0.572 -6.453,-0.572 -2.149,0 -4.741,0.169 -5.799,1.471 -14.733,-0.216 -28.758,-1.138 -43.21,-1.634 v 0.082 c 4.194,6.778 8.208,13.737 12.416,20.502 0.925,0.137 1.935,0.189 3.022,0.164 0.108,-0.351 -0.259,-0.647 -0.409,-0.899 -3.154,-5.302 -6.412,-10.689 -9.557,-15.847 10.04,-4.335 20.671,2.899 31.612,1.634 2.92,-0.337 4.961,-1.008 7.106,-1.96 0.574,-0.255 1.635,-0.951 2.124,-0.981 1.439,-0.085 2.457,1.366 3.839,1.552 -2.293,6.504 -7.515,10.282 -15.52,8.985 -3.531,-0.571 -6.497,-1.736 -9.557,-3.021 -4.209,-1.769 -9.237,-3.889 -14.784,-2.533 2.736,4.779 5.531,9.499 8.413,14.132 4.273,-0.172 7.348,1.007 10.047,2.287 0.697,0.33 1.64,1.017 2.287,0.081 -3.399,-1.801 -6.797,-3.604 -11.844,-3.757 -2.526,-3.9 -4.926,-7.925 -7.27,-12.008 8.206,-0.709 12.829,4.122 19.522,5.718 3.649,0.87 8.033,1.111 11.273,0 3.158,-1.083 5.373,-3.219 6.943,-5.881 -0.171,5.005 -0.416,10.077 -0.654,14.949 -0.036,0.743 0.078,1.641 -0.081,2.204 -0.146,0.515 -1.065,1.125 -1.471,1.389 -1.628,1.062 -4.521,1.878 -7.024,1.552 -1.48,-0.192 -3.297,-1.077 -4.656,-1.715 -0.646,-0.303 -1.468,-0.714 -2.124,-1.062 -0.677,-0.359 -1.31,-0.964 -1.96,-0.082 3.433,1.714 6.365,3.927 11.272,4.167 1.119,3.249 1.902,6.707 2.695,10.291 0.793,3.583 1.665,7.556 1.389,11.681 -0.332,4.962 -3.068,8.967 -5.799,11.844 -2.91,3.066 -6.362,5.583 -11.273,6.372 0.279,0.405 0.91,0.455 1.389,0.49 4.043,0.295 7.316,-2.482 9.475,-4.248 2.47,-2.019 5.147,-5.863 9.475,-5.472 3.723,0.335 5.787,3.352 8.332,5.472 1.224,1.02 2.671,1.998 4.166,2.778 1.853,0.967 4.737,2.203 6.779,0.98 -4.195,-0.696 -7.487,-2.683 -10.128,-5.146 -2.6,-2.425 -4.887,-5.615 -6.126,-9.231 -1.442,-4.202 -0.651,-9.224 0.163,-13.559 0.816,-4.347 1.98,-8.4 3.022,-12.334 5.207,0.275 8.284,-2.28 12.171,-3.595 -0.496,-1.041 -1.533,-0.54 -2.287,-0.245 -2.418,0.948 -5.449,2.387 -8.332,2.451 -3.266,0.072 -5.476,-1.629 -7.678,-3.023 0.285,-6.358 0.446,-12.84 0.653,-19.277 3.131,2.215 7.223,4.338 12.334,4.656 5.527,0.344 9.912,-1.51 14.295,-3.104 4.151,-1.51 9.214,-3.315 14.376,-1.879 -3.025,5.089 -6.619,10.316 -9.883,15.439 -5.005,0.441 -8.881,2.01 -12.743,3.594 0.626,1.066 1.588,0.313 2.369,0 2.614,-1.049 5.82,-2.107 8.985,-2.287 0.586,-0.034 1.315,0.156 1.797,0 0.496,-0.161 1.037,-1.382 1.471,-2.042 3.258,-4.97 6.809,-10.185 9.802,-14.949 C -11.653,1.628 -18.725,3.965 -23.035,5.391 -25.96,6.36 -28.88,7.234 -32.102,7.76 -39.11,8.904 -45.9,7.809 -49.909,3.594 c 5.881,1.206 12.592,1.891 19.033,1.144 2.985,-0.347 5.95,-0.932 8.903,-1.389 5.479,-0.848 12.238,-2.19 16.418,0.572 -3.532,5.534 -7.325,10.808 -10.864,16.337 0.841,-0.113 1.826,-0.08 2.778,-0.082 C -8.968,13.576 -4.617,6.656 0,0"
             style="fill:#ffffff;fill-opacity:1;fill-rule:nonzero;stroke:none"
             id="path417503" />
        </g>
        <g
           id="g417505"
           transform="translate(89.929,786.3967)">
          <path
             d="M 0,0 C 1.128,0.055 1.935,-0.795 2.042,-1.879 2.248,-3.959 0.474,-6.076 -0.817,-6.535 -2.006,-6.957 -3.298,-6.338 -3.594,-5.391 -4.327,-3.049 -2.187,-0.107 0,0"
             style="fill:#ffffff;fill-opacity:1;fill-rule:nonzero;stroke:none"
             id="path417507" />
        </g>
        <g
           id="g417509"
           transform="translate(73.8376,738.9379)">
          <path
             d="m 0,0 c -5.516,2.923 -9.964,7.409 -12.906,13.233 -2.891,5.724 -4.308,14.292 -2.205,21.973 1.809,6.612 5.53,12.015 10.373,15.929 4.76,3.845 11.362,6.817 19.441,6.861 8.15,0.044 14.704,-3.02 19.44,-6.861 4.903,-3.978 8.613,-9.128 10.456,-15.847 C 46.696,27.642 45.357,18.965 42.475,13.233 39.822,7.956 35.57,3.473 30.549,0.49 30.302,0.343 29.796,-0.044 29.733,0.163 c 5.161,3.151 9.533,7.928 12.007,13.887 2.503,6.026 3.137,14.079 0.98,21.074 -1.889,6.127 -5.408,11.063 -10.047,14.785 -4.582,3.677 -10.875,6.289 -18.624,6.208 C 6.597,56.039 0.425,52.952 -3.921,49.256 -8.487,45.373 -11.797,40.346 -13.478,33.981 -15.435,26.569 -14.373,18.752 -11.681,13.07 -8.992,7.397 -5.35,3.248 0,0"
             style="fill:#ffffff;fill-opacity:1;fill-rule:nonzero;stroke:none"
             id="path417511" />
        </g>
        <g
           id="g417513"
           transform="translate(55.7221,712.2479)">
          <path
             d="m 0,0 v -0.096 c -0.125,-0.023 -0.219,-0.063 -0.283,-0.12 -0.092,-0.085 -0.173,-0.215 -0.244,-0.39 l -1.23,-2.998 h -0.096 l -1.32,3.037 c -0.067,0.156 -0.115,0.252 -0.143,0.286 -0.043,0.054 -0.096,0.096 -0.16,0.126 -0.063,0.03 -0.148,0.05 -0.256,0.059 V 0 h 1.44 V -0.096 C -2.455,-0.112 -2.561,-0.14 -2.609,-0.179 -2.657,-0.22 -2.682,-0.27 -2.682,-0.333 c 0,-0.086 0.04,-0.221 0.12,-0.405 l 0.896,-2.066 0.832,2.04 c 0.081,0.201 0.122,0.34 0.122,0.418 0,0.051 -0.025,0.099 -0.075,0.145 -0.051,0.046 -0.135,0.078 -0.255,0.097 -0.009,0.002 -0.024,0.004 -0.044,0.008 V 0 H 0"
             style="fill:#ffffff;fill-opacity:1;fill-rule:nonzero;stroke:none"
             id="path417515" />
        </g>
        <g
           id="g417517"
           transform="translate(57.9104,712.0554)">
          <path
             d="m 0,0 v -1.393 h 0.774 c 0.201,0 0.335,0.03 0.403,0.091 0.09,0.08 0.14,0.22 0.151,0.421 H 1.424 V -2.108 H 1.328 C 1.303,-1.936 1.279,-1.826 1.255,-1.778 1.224,-1.717 1.173,-1.669 1.102,-1.635 1.031,-1.6 0.922,-1.583 0.774,-1.583 H 0 V -2.744 C 0,-2.9 0.007,-2.995 0.021,-3.029 0.035,-3.063 0.059,-3.089 0.093,-3.11 0.128,-3.129 0.194,-3.139 0.291,-3.139 h 0.598 c 0.199,0 0.344,0.014 0.434,0.041 0.09,0.028 0.176,0.082 0.26,0.164 0.107,0.107 0.217,0.27 0.329,0.486 H 2.016 L 1.712,-3.331 h -2.715 v 0.096 h 0.125 c 0.083,0 0.162,0.02 0.236,0.059 0.056,0.028 0.093,0.07 0.113,0.125 0.02,0.056 0.03,0.169 0.03,0.341 v 2.289 c 0,0.224 -0.023,0.361 -0.067,0.413 -0.063,0.069 -0.167,0.104 -0.312,0.104 H -1.003 V 0.193 H 1.712 L 1.751,-0.579 H 1.65 C 1.614,-0.394 1.573,-0.267 1.529,-0.197 1.485,-0.128 1.419,-0.076 1.333,-0.039 1.264,-0.013 1.141,0 0.966,0 H 0"
             style="fill:#ffffff;fill-opacity:1;fill-rule:nonzero;stroke:none"
             id="path417519" />
        </g>
        <g
           id="g417521"
           transform="translate(64.6566,708.7241)">
          <path
             d="M 0,0 H -0.941 L -2.133,1.648 C -2.222,1.644 -2.294,1.642 -2.349,1.642 c -0.023,0 -0.047,0.001 -0.073,0.002 -0.026,0.001 -0.053,0.002 -0.08,0.004 V 0.624 c 0,-0.222 0.024,-0.36 0.072,-0.414 0.066,-0.076 0.165,-0.114 0.297,-0.114 h 0.137 V 0 h -1.51 v 0.096 h 0.133 c 0.149,0 0.256,0.049 0.32,0.146 0.036,0.053 0.054,0.18 0.054,0.382 V 2.9 c 0,0.222 -0.024,0.36 -0.072,0.413 -0.068,0.077 -0.169,0.115 -0.302,0.115 h -0.133 v 0.096 h 1.284 c 0.375,0 0.65,-0.028 0.828,-0.082 C -1.216,3.387 -1.066,3.287 -0.942,3.141 -0.818,2.994 -0.756,2.819 -0.756,2.617 -0.756,2.4 -0.827,2.212 -0.968,2.053 -1.109,1.894 -1.328,1.78 -1.624,1.715 L -0.896,0.704 C -0.73,0.472 -0.587,0.317 -0.468,0.242 -0.348,0.165 -0.192,0.117 0,0.096 Z m -2.502,1.811 c 0.032,0 0.061,0 0.085,-10e-4 0.025,-0.001 0.045,-0.001 0.06,-0.001 0.336,0 0.59,0.073 0.76,0.218 0.171,0.145 0.256,0.331 0.256,0.556 0,0.22 -0.069,0.399 -0.206,0.537 -0.138,0.137 -0.32,0.206 -0.547,0.206 -0.101,0 -0.237,-0.016 -0.408,-0.049 V 1.811"
             style="fill:#ffffff;fill-opacity:1;fill-rule:nonzero;stroke:none"
             id="path417523" />
        </g>
        <g
           id="g417525"
           transform="translate(67.2635,708.82)">
          <path
             d="M 0,0 V -0.096 H -1.51 V 0 h 0.125 c 0.146,0 0.251,0.042 0.317,0.127 0.042,0.056 0.062,0.189 0.062,0.4 v 2.277 c 0,0.178 -0.011,0.297 -0.033,0.354 -0.018,0.043 -0.053,0.08 -0.107,0.111 -0.076,0.042 -0.156,0.063 -0.239,0.063 H -1.51 V 3.428 H 0 V 3.332 h -0.127 c -0.144,0 -0.249,-0.043 -0.315,-0.128 -0.043,-0.055 -0.065,-0.189 -0.065,-0.4 V 0.527 c 0,-0.178 0.012,-0.296 0.034,-0.353 0.017,-0.043 0.054,-0.08 0.109,-0.111 C -0.289,0.021 -0.21,0 -0.127,0 H 0"
             style="fill:#ffffff;fill-opacity:1;fill-rule:nonzero;stroke:none"
             id="path417527" />
        </g>
        <g
           id="g417529"
           transform="translate(71.4837,712.2479)">
          <path
             d="M 0,0 0.039,-0.827 H -0.06 c -0.019,0.146 -0.045,0.25 -0.078,0.313 -0.053,0.1 -0.125,0.174 -0.214,0.221 -0.089,0.048 -0.207,0.072 -0.352,0.072 h -0.497 v -2.692 c 0,-0.217 0.024,-0.352 0.071,-0.405 0.065,-0.073 0.167,-0.11 0.304,-0.11 h 0.122 v -0.096 h -1.494 v 0.096 h 0.124 c 0.149,0 0.255,0.045 0.317,0.136 0.038,0.055 0.057,0.181 0.057,0.379 v 2.692 h -0.423 c -0.165,0 -0.282,-0.012 -0.351,-0.036 -0.09,-0.034 -0.167,-0.097 -0.231,-0.19 -0.064,-0.094 -0.102,-0.22 -0.114,-0.38 H -2.918 L -2.877,0 H 0"
             style="fill:#ffffff;fill-opacity:1;fill-rule:nonzero;stroke:none"
             id="path417531" />
        </g>
        <g
           id="g417533"
           transform="translate(74.6754,709.9041)">
          <path
             d="m 0,0 h -1.364 l -0.239,-0.556 c -0.059,-0.137 -0.089,-0.239 -0.089,-0.307 0,-0.054 0.026,-0.101 0.077,-0.141 0.051,-0.041 0.161,-0.067 0.331,-0.08 V -1.18 h -1.11 v 0.096 c 0.148,0.026 0.243,0.06 0.286,0.101 0.089,0.083 0.187,0.253 0.294,0.507 l 1.24,2.9 h 0.091 l 1.226,-2.931 c 0.099,-0.235 0.189,-0.389 0.269,-0.459 0.081,-0.07 0.193,-0.109 0.337,-0.118 V -1.18 h -1.39 v 0.096 c 0.14,0.007 0.235,0.031 0.284,0.07 0.049,0.04 0.074,0.089 0.074,0.146 0,0.076 -0.035,0.197 -0.104,0.361 z M -0.073,0.192 -0.671,1.616 -1.284,0.192 h 1.211"
             style="fill:#ffffff;fill-opacity:1;fill-rule:nonzero;stroke:none"
             id="path417535" />
        </g>
        <g
           id="g417537"
           transform="translate(79.535,712.3286)">
          <path
             d="m 0,0 v -1.219 h -0.096 c -0.031,0.234 -0.087,0.42 -0.168,0.559 -0.08,0.138 -0.195,0.249 -0.344,0.33 -0.149,0.081 -0.303,0.122 -0.463,0.122 -0.18,0 -0.329,-0.055 -0.447,-0.165 -0.117,-0.11 -0.176,-0.235 -0.176,-0.375 0,-0.108 0.037,-0.206 0.111,-0.294 0.108,-0.13 0.363,-0.303 0.767,-0.52 0.329,-0.176 0.554,-0.312 0.674,-0.407 0.121,-0.094 0.213,-0.205 0.279,-0.334 0.064,-0.128 0.097,-0.262 0.097,-0.403 0,-0.266 -0.104,-0.496 -0.311,-0.69 -0.207,-0.193 -0.473,-0.289 -0.799,-0.289 -0.102,0 -0.198,0.008 -0.288,0.023 -0.054,0.009 -0.165,0.04 -0.334,0.095 -0.169,0.055 -0.276,0.082 -0.321,0.082 -0.043,0 -0.077,-0.013 -0.103,-0.039 -0.025,-0.026 -0.043,-0.079 -0.056,-0.161 h -0.096 v 1.208 h 0.096 c 0.046,-0.253 0.106,-0.442 0.182,-0.567 0.077,-0.126 0.193,-0.23 0.35,-0.313 0.157,-0.083 0.329,-0.125 0.516,-0.125 0.216,0 0.387,0.057 0.513,0.171 0.126,0.114 0.188,0.25 0.188,0.405 0,0.087 -0.024,0.174 -0.071,0.263 -0.048,0.089 -0.122,0.171 -0.222,0.247 -0.068,0.052 -0.252,0.162 -0.554,0.331 -0.301,0.169 -0.516,0.304 -0.643,0.404 -0.127,0.101 -0.224,0.212 -0.29,0.333 -0.066,0.121 -0.098,0.254 -0.098,0.4 0,0.253 0.097,0.471 0.291,0.654 0.193,0.183 0.441,0.274 0.74,0.274 0.187,0 0.386,-0.046 0.595,-0.138 0.097,-0.043 0.166,-0.065 0.205,-0.065 0.045,0 0.082,0.014 0.111,0.041 0.028,0.026 0.052,0.081 0.069,0.162 L 0,0"
             style="fill:#ffffff;fill-opacity:1;fill-rule:nonzero;stroke:none"
             id="path417539" />
        </g>
        <g
           id="g417541"
           transform="translate(85.05,708.82)">
          <path
             d="M 0,0 V -0.096 H -1.51 V 0 h 0.125 c 0.146,0 0.251,0.042 0.317,0.127 0.042,0.056 0.062,0.189 0.062,0.4 v 2.277 c 0,0.178 -0.011,0.297 -0.033,0.354 -0.018,0.043 -0.053,0.08 -0.107,0.111 -0.076,0.042 -0.156,0.063 -0.239,0.063 H -1.51 V 3.428 H 0 V 3.332 h -0.127 c -0.144,0 -0.249,-0.043 -0.315,-0.128 -0.043,-0.055 -0.065,-0.189 -0.065,-0.4 V 0.527 c 0,-0.178 0.012,-0.296 0.034,-0.353 0.017,-0.043 0.054,-0.08 0.109,-0.111 C -0.289,0.021 -0.211,0 -0.127,0 H 0"
             style="fill:#ffffff;fill-opacity:1;fill-rule:nonzero;stroke:none"
             id="path417543" />
        </g>
        <g
           id="g417545"
           transform="translate(86.1209,712.2479)">
          <path
             d="m 0,0 h 0.956 l 2.155,-2.643 v 2.032 c 0,0.217 -0.025,0.352 -0.073,0.406 -0.065,0.072 -0.166,0.109 -0.304,0.109 H 2.611 V 0 H 3.838 V -0.096 H 3.713 C 3.564,-0.096 3.458,-0.141 3.396,-0.232 3.358,-0.287 3.339,-0.413 3.339,-0.611 v -2.97 H 3.246 l -2.324,2.837 v -2.169 c 0,-0.217 0.024,-0.352 0.071,-0.405 0.065,-0.073 0.167,-0.11 0.304,-0.11 H 1.421 V -3.524 H 0.195 v 0.096 h 0.122 c 0.151,0 0.257,0.045 0.32,0.136 0.038,0.055 0.057,0.181 0.057,0.379 v 2.45 C 0.592,-0.343 0.514,-0.264 0.461,-0.226 0.408,-0.188 0.331,-0.153 0.229,-0.12 0.178,-0.104 0.102,-0.096 0,-0.096 V 0"
             style="fill:#ffffff;fill-opacity:1;fill-rule:nonzero;stroke:none"
             id="path417547" />
        </g>
        <g
           id="g417549"
           transform="translate(96.5912,712.3286)">
          <path
             d="M 0,0 0.08,-1.198 H 0 c -0.107,0.359 -0.261,0.617 -0.46,0.775 -0.199,0.157 -0.438,0.236 -0.717,0.236 -0.234,0 -0.445,-0.059 -0.634,-0.178 -0.189,-0.119 -0.337,-0.308 -0.446,-0.568 -0.108,-0.26 -0.162,-0.583 -0.162,-0.969 0,-0.319 0.051,-0.595 0.153,-0.83 0.102,-0.233 0.256,-0.413 0.461,-0.537 0.205,-0.125 0.44,-0.187 0.703,-0.187 0.229,0 0.43,0.049 0.606,0.147 0.175,0.098 0.367,0.292 0.576,0.583 l 0.081,-0.052 c -0.176,-0.313 -0.382,-0.543 -0.619,-0.689 -0.235,-0.145 -0.514,-0.218 -0.838,-0.218 -0.584,0 -1.037,0.216 -1.357,0.65 -0.239,0.322 -0.358,0.701 -0.358,1.138 0,0.352 0.078,0.675 0.236,0.969 0.157,0.294 0.375,0.523 0.651,0.685 0.276,0.162 0.578,0.243 0.905,0.243 0.255,0 0.506,-0.063 0.754,-0.187 0.073,-0.038 0.125,-0.057 0.156,-0.057 0.046,0 0.088,0.016 0.122,0.049 0.045,0.047 0.077,0.112 0.096,0.195 L 0,0"
             style="fill:#ffffff;fill-opacity:1;fill-rule:nonzero;stroke:none"
             id="path417551" />
        </g>
        <g
           id="g417553"
           transform="translate(100.3826,709.9041)">
          <path
             d="m 0,0 h -1.364 l -0.239,-0.556 c -0.059,-0.137 -0.089,-0.239 -0.089,-0.307 0,-0.054 0.026,-0.101 0.077,-0.141 0.051,-0.041 0.162,-0.067 0.331,-0.08 V -1.18 h -1.109 v 0.096 c 0.147,0.026 0.243,0.06 0.286,0.101 0.088,0.083 0.186,0.253 0.294,0.507 l 1.239,2.9 h 0.091 l 1.227,-2.931 c 0.098,-0.235 0.188,-0.389 0.268,-0.459 0.081,-0.07 0.193,-0.109 0.337,-0.118 V -1.18 h -1.39 v 0.096 c 0.14,0.007 0.234,0.031 0.285,0.07 0.049,0.04 0.073,0.089 0.073,0.146 0,0.076 -0.034,0.197 -0.104,0.361 z M -0.073,0.192 -0.67,1.616 -1.284,0.192 h 1.211"
             style="fill:#ffffff;fill-opacity:1;fill-rule:nonzero;stroke:none"
             id="path417555" />
        </g>
        <g
           id="g417557"
           transform="translate(106.3992,708.7241)">
          <path
             d="M 0,0 H -0.942 L -2.134,1.648 C -2.222,1.644 -2.294,1.642 -2.35,1.642 c -0.022,0 -0.047,0.001 -0.072,0.002 -0.026,0.001 -0.053,0.002 -0.081,0.004 V 0.624 c 0,-0.222 0.024,-0.36 0.072,-0.414 0.067,-0.076 0.165,-0.114 0.297,-0.114 h 0.138 V 0 h -1.51 v 0.096 h 0.132 c 0.15,0 0.256,0.049 0.32,0.146 0.037,0.053 0.055,0.18 0.055,0.382 V 2.9 c 0,0.222 -0.024,0.36 -0.073,0.413 C -3.14,3.39 -3.24,3.428 -3.374,3.428 h -0.132 v 0.096 h 1.284 c 0.374,0 0.65,-0.028 0.827,-0.082 C -1.217,3.387 -1.066,3.287 -0.942,3.141 -0.818,2.994 -0.756,2.819 -0.756,2.617 -0.756,2.4 -0.827,2.212 -0.969,2.053 -1.11,1.894 -1.328,1.78 -1.625,1.715 L -0.897,0.704 C -0.731,0.472 -0.588,0.317 -0.468,0.242 -0.349,0.165 -0.193,0.117 0,0.096 Z m -2.503,1.811 c 0.033,0 0.062,0 0.086,-10e-4 0.024,-0.001 0.043,-0.001 0.059,-0.001 0.337,0 0.59,0.073 0.76,0.218 0.171,0.145 0.257,0.331 0.257,0.556 0,0.22 -0.069,0.399 -0.206,0.537 -0.139,0.137 -0.321,0.206 -0.548,0.206 -0.1,0 -0.236,-0.016 -0.408,-0.049 V 1.811"
             style="fill:#ffffff;fill-opacity:1;fill-rule:nonzero;stroke:none"
             id="path417559" />
        </g>
        <g
           id="g417561"
           transform="translate(109.0058,708.82)">
          <path
             d="M 0,0 V -0.096 H -1.51 V 0 h 0.124 c 0.146,0 0.252,0.042 0.318,0.127 0.041,0.056 0.062,0.189 0.062,0.4 v 2.277 c 0,0.178 -0.011,0.297 -0.034,0.354 -0.017,0.043 -0.052,0.08 -0.106,0.111 -0.076,0.042 -0.157,0.063 -0.24,0.063 H -1.51 V 3.428 H 0 V 3.332 h -0.128 c -0.143,0 -0.248,-0.043 -0.314,-0.128 -0.043,-0.055 -0.064,-0.189 -0.064,-0.4 V 0.527 c 0,-0.178 0.01,-0.296 0.033,-0.353 C -0.456,0.131 -0.42,0.094 -0.364,0.063 -0.289,0.021 -0.211,0 -0.128,0 H 0"
             style="fill:#ffffff;fill-opacity:1;fill-rule:nonzero;stroke:none"
             id="path417563" />
        </g>
        <g
           id="g417565"
           transform="translate(113.226,712.2479)">
          <path
             d="M 0,0 0.039,-0.827 H -0.06 c -0.018,0.146 -0.045,0.25 -0.077,0.313 -0.054,0.1 -0.126,0.174 -0.215,0.221 -0.089,0.048 -0.206,0.072 -0.352,0.072 h -0.497 v -2.692 c 0,-0.217 0.024,-0.352 0.071,-0.405 0.066,-0.073 0.167,-0.11 0.304,-0.11 h 0.122 v -0.096 h -1.494 v 0.096 h 0.125 c 0.149,0 0.254,0.045 0.317,0.136 0.038,0.055 0.057,0.181 0.057,0.379 v 2.692 h -0.424 c -0.164,0 -0.281,-0.012 -0.351,-0.036 -0.09,-0.034 -0.167,-0.097 -0.231,-0.19 -0.064,-0.094 -0.102,-0.22 -0.114,-0.38 H -2.918 L -2.876,0 H 0"
             style="fill:#ffffff;fill-opacity:1;fill-rule:nonzero;stroke:none"
             id="path417567" />
        </g>
        <g
           id="g417569"
           transform="translate(116.4173,709.9041)">
          <path
             d="m 0,0 h -1.364 l -0.239,-0.556 c -0.059,-0.137 -0.089,-0.239 -0.089,-0.307 0,-0.054 0.026,-0.101 0.078,-0.141 0.05,-0.041 0.161,-0.067 0.33,-0.08 V -1.18 h -1.109 v 0.096 c 0.147,0.026 0.243,0.06 0.286,0.101 0.089,0.083 0.186,0.253 0.294,0.507 l 1.239,2.9 h 0.091 l 1.227,-2.931 c 0.098,-0.235 0.188,-0.389 0.268,-0.459 0.081,-0.07 0.193,-0.109 0.337,-0.118 V -1.18 h -1.39 v 0.096 c 0.14,0.007 0.234,0.031 0.285,0.07 0.049,0.04 0.073,0.089 0.073,0.146 0,0.076 -0.034,0.197 -0.104,0.361 z M -0.073,0.192 -0.67,1.616 -1.284,0.192 h 1.211"
             style="fill:#ffffff;fill-opacity:1;fill-rule:nonzero;stroke:none"
             id="path417571" />
        </g>
        <g
           id="g417573"
           transform="translate(121.3268,712.2479)">
          <path
             d="M 0,0 0.039,-0.827 H -0.06 c -0.019,0.146 -0.045,0.25 -0.078,0.313 -0.053,0.1 -0.125,0.174 -0.214,0.221 -0.089,0.048 -0.207,0.072 -0.353,0.072 h -0.496 v -2.692 c 0,-0.217 0.024,-0.352 0.07,-0.405 0.066,-0.073 0.168,-0.11 0.304,-0.11 h 0.122 v -0.096 h -1.494 v 0.096 h 0.125 c 0.149,0 0.255,0.045 0.317,0.136 0.038,0.055 0.057,0.181 0.057,0.379 v 2.692 h -0.424 c -0.164,0 -0.281,-0.012 -0.35,-0.036 -0.09,-0.034 -0.167,-0.097 -0.232,-0.19 -0.063,-0.094 -0.102,-0.22 -0.114,-0.38 H -2.918 L -2.877,0 H 0"
             style="fill:#ffffff;fill-opacity:1;fill-rule:nonzero;stroke:none"
             id="path417575" />
        </g>
        <g
           id="g417577"
           transform="translate(123.6215,712.0554)">
          <path
             d="m 0,0 v -1.393 h 0.774 c 0.201,0 0.335,0.03 0.403,0.091 0.09,0.08 0.14,0.22 0.151,0.421 H 1.424 V -2.108 H 1.328 c -0.025,0.172 -0.049,0.282 -0.073,0.33 -0.032,0.061 -0.083,0.109 -0.154,0.143 -0.07,0.035 -0.18,0.052 -0.327,0.052 H 0 V -2.744 C 0,-2.9 0.006,-2.995 0.02,-3.029 0.034,-3.063 0.058,-3.089 0.093,-3.11 0.128,-3.129 0.194,-3.139 0.291,-3.139 h 0.597 c 0.2,0 0.344,0.014 0.435,0.041 0.089,0.028 0.177,0.082 0.26,0.164 0.106,0.107 0.217,0.27 0.329,0.486 H 2.016 L 1.712,-3.331 h -2.716 v 0.096 h 0.126 c 0.083,0 0.161,0.02 0.236,0.059 0.056,0.028 0.093,0.07 0.113,0.125 0.02,0.056 0.03,0.169 0.03,0.341 v 2.289 c 0,0.224 -0.023,0.361 -0.067,0.413 -0.063,0.069 -0.167,0.104 -0.312,0.104 h -0.126 v 0.097 h 2.716 l 0.04,-0.772 H 1.65 C 1.614,-0.394 1.573,-0.267 1.529,-0.197 1.485,-0.128 1.42,-0.076 1.333,-0.039 1.264,-0.013 1.141,0 0.966,0 H 0"
             style="fill:#ffffff;fill-opacity:1;fill-rule:nonzero;stroke:none"
             id="path417579" />
        </g>
        <g
           id="g417581"
           transform="translate(48.7163,763.0172)">
          <path
             d="M 0,0 C -0.049,0.697 0.175,1.319 0.671,1.866 1.167,2.414 1.813,2.715 2.609,2.77 3.429,2.827 4.127,2.616 4.704,2.139 5.281,1.662 5.595,1.058 5.647,0.327 5.698,-0.412 5.477,-1.051 4.985,-1.59 4.492,-2.13 3.827,-2.428 2.989,-2.486 2.132,-2.545 1.412,-2.304 0.831,-1.76 0.326,-1.289 0.049,-0.702 0,0 M 0.296,-0.055 C 0.329,-0.535 0.535,-0.908 0.914,-1.174 1.385,-1.505 2.05,-1.64 2.909,-1.581 3.79,-1.52 4.455,-1.286 4.903,-0.878 5.244,-0.566 5.397,-0.173 5.364,0.3 5.329,0.804 5.102,1.206 4.684,1.507 4.266,1.808 3.631,1.93 2.78,1.871 1.857,1.807 1.181,1.579 0.753,1.186 0.412,0.87 0.26,0.457 0.296,-0.055"
             style="fill:#ffffff;fill-opacity:1;fill-rule:nonzero;stroke:none"
             id="path417583" />
        </g>
        <g
           id="g417585"
           transform="translate(49.2076,770.9287)">
          <path
             d="M 0,0 -0.147,0.016 0.051,1.919 0.198,1.904 0.177,1.702 C 0.155,1.49 0.227,1.319 0.393,1.186 0.469,1.122 0.656,1.075 0.955,1.043 L 3.137,0.816 C 3.676,0.76 4.089,0.662 4.375,0.524 4.662,0.386 4.895,0.149 5.075,-0.187 5.256,-0.522 5.318,-0.96 5.261,-1.499 5.2,-2.086 5.051,-2.521 4.816,-2.804 4.581,-3.087 4.285,-3.274 3.928,-3.365 3.683,-3.426 3.237,-3.421 2.589,-3.354 L 0.487,-3.135 C 0.156,-3.1 -0.065,-3.123 -0.178,-3.203 -0.291,-3.284 -0.358,-3.426 -0.379,-3.63 l -0.021,-0.202 -0.147,0.015 0.243,2.325 0.146,-0.015 -0.021,-0.207 c -0.023,-0.222 0.03,-0.388 0.16,-0.498 0.089,-0.076 0.284,-0.129 0.585,-0.161 l 2.345,-0.244 c 0.208,-0.022 0.45,-0.028 0.723,-0.018 0.275,0.01 0.492,0.058 0.653,0.143 0.162,0.084 0.301,0.216 0.419,0.395 0.117,0.179 0.19,0.406 0.219,0.681 0.037,0.352 -0.007,0.674 -0.132,0.968 -0.124,0.294 -0.3,0.504 -0.529,0.631 -0.229,0.126 -0.629,0.22 -1.201,0.28 L 0.886,0.69 C 0.55,0.724 0.336,0.71 0.244,0.644 0.117,0.553 0.042,0.406 0.021,0.203 L 0,0"
             style="fill:#ffffff;fill-opacity:1;fill-rule:nonzero;stroke:none"
             id="path417587" />
        </g>
        <g
           id="g417589"
           transform="translate(56.1937,777.8714)">
          <path
             d="m 0,0 -0.39,-1.39 -2.93,-1.079 c -0.031,-0.132 -0.059,-0.238 -0.082,-0.321 -0.009,-0.033 -0.02,-0.068 -0.032,-0.107 -0.012,-0.038 -0.025,-0.077 -0.039,-0.117 l 1.513,-0.425 c 0.327,-0.092 0.541,-0.113 0.641,-0.064 0.14,0.066 0.237,0.196 0.291,0.39 l 0.058,0.204 0.142,-0.04 -0.627,-2.231 -0.142,0.04 0.055,0.196 c 0.062,0.22 0.034,0.397 -0.083,0.532 -0.064,0.077 -0.244,0.156 -0.541,0.24 l -3.364,0.944 c -0.327,0.092 -0.541,0.114 -0.64,0.064 -0.141,-0.068 -0.239,-0.201 -0.295,-0.398 l -0.055,-0.196 -0.142,0.04 0.533,1.897 c 0.155,0.553 0.31,0.949 0.464,1.189 0.155,0.24 0.366,0.421 0.634,0.544 0.267,0.122 0.551,0.141 0.85,0.057 0.32,-0.09 0.569,-0.272 0.746,-0.547 0.177,-0.275 0.252,-0.645 0.227,-1.11 l 1.795,0.656 c 0.412,0.149 0.699,0.296 0.862,0.441 0.162,0.145 0.298,0.355 0.409,0.631 z m -3.715,-2.946 c 0.013,0.049 0.026,0.091 0.037,0.126 0.012,0.036 0.021,0.065 0.027,0.088 0.14,0.496 0.137,0.901 -0.007,1.214 -0.144,0.312 -0.383,0.515 -0.715,0.609 -0.325,0.091 -0.618,0.063 -0.879,-0.083 -0.261,-0.146 -0.438,-0.387 -0.532,-0.723 -0.042,-0.148 -0.074,-0.356 -0.097,-0.623 l 2.166,-0.608"
             style="fill:#ffffff;fill-opacity:1;fill-rule:nonzero;stroke:none"
             id="path417591" />
        </g>
        <g
           id="g417593"
           transform="translate(58.0996,784.9965)">
          <path
             d="m 0,0 0.088,0.102 1.066,-1.11 -2.007,-3.675 -0.13,0.071 0.097,0.178 c 0.11,0.201 0.123,0.38 0.04,0.538 -0.048,0.09 -0.208,0.209 -0.478,0.356 l -3.063,1.673 c -0.296,0.162 -0.5,0.231 -0.61,0.206 -0.152,-0.035 -0.278,-0.142 -0.376,-0.321 l -0.097,-0.179 -0.13,0.071 1.174,2.149 0.129,-0.071 c -0.14,-0.251 -0.213,-0.44 -0.219,-0.568 -0.007,-0.129 0.017,-0.232 0.071,-0.31 0.055,-0.078 0.223,-0.194 0.506,-0.348 l 2.982,-1.629 c 0.193,-0.106 0.337,-0.16 0.429,-0.162 0.065,10e-4 0.125,0.024 0.18,0.07 0.055,0.045 0.166,0.221 0.333,0.527 l 0.189,0.346 c 0.199,0.364 0.312,0.635 0.338,0.811 0.027,0.176 0.005,0.362 -0.065,0.558 C 0.377,-0.521 0.228,-0.282 0,0"
             style="fill:#ffffff;fill-opacity:1;fill-rule:nonzero;stroke:none"
             id="path417595" />
        </g>
        <g
           id="g417597"
           transform="translate(60.5083,788.794)">
          <path
             d="m 0,0 -1.288,-1.651 0.447,-0.814 c 0.11,-0.201 0.206,-0.333 0.288,-0.397 0.065,-0.05 0.146,-0.064 0.244,-0.041 0.097,0.024 0.234,0.133 0.409,0.327 l 0.116,-0.091 -1.048,-1.343 -0.116,0.091 c 0.107,0.202 0.157,0.35 0.147,0.441 -0.017,0.186 -0.129,0.464 -0.336,0.834 L -3.476,1.594 -3.39,1.704 1.315,0.421 C 1.693,0.318 1.963,0.283 2.124,0.314 2.285,0.345 2.438,0.443 2.585,0.609 L 2.701,0.518 1.389,-1.164 1.272,-1.073 c 0.124,0.176 0.185,0.313 0.184,0.41 C 1.454,-0.565 1.419,-0.49 1.35,-0.436 1.257,-0.364 1.079,-0.292 0.814,-0.22 Z m -0.301,0.094 -2.288,0.621 1.144,-2.087 1.144,1.466"
             style="fill:#ffffff;fill-opacity:1;fill-rule:nonzero;stroke:none"
             id="path417599" />
        </g>
        <g
           id="g417601"
           transform="translate(63.499,789.6172)">
          <path
             d="m 0,0 -0.099,0.11 0.151,0.136 c 0.17,0.153 0.242,0.316 0.215,0.489 -0.016,0.104 -0.125,0.27 -0.33,0.497 l -2.34,2.595 C -2.629,4.078 -2.798,4.21 -2.91,4.223 -3.065,4.241 -3.219,4.181 -3.371,4.044 l -0.151,-0.136 -0.099,0.109 1.635,1.474 c 0.601,0.541 1.119,0.885 1.555,1.031 0.436,0.146 0.892,0.146 1.369,0 C 1.415,6.376 1.842,6.094 2.218,5.677 2.721,5.118 2.973,4.498 2.971,3.817 2.967,3.054 2.575,2.322 1.795,1.618 Z M 0.885,1.324 C 1.185,1.495 1.421,1.656 1.591,1.81 2.049,2.223 2.284,2.727 2.296,3.321 2.308,3.915 2.066,4.488 1.569,5.039 1.069,5.594 0.523,5.895 -0.067,5.943 -0.658,5.99 -1.19,5.8 -1.664,5.373 -1.842,5.213 -2.019,5.002 -2.194,4.74 L 0.885,1.324"
             style="fill:#ffffff;fill-opacity:1;fill-rule:nonzero;stroke:none"
             id="path417603" />
        </g>
        <g
           id="g417605"
           transform="translate(68.3549,800.2332)">
          <path
             d="M 0,0 1.599,1 1.678,0.875 1.59,0.82 C 1.531,0.784 1.462,0.704 1.381,0.582 1.301,0.459 1.245,0.321 1.213,0.166 1.181,0.011 1.166,-0.218 1.168,-0.521 L 1.151,-2.954 1.87,-4.104 c 0.176,-0.282 0.318,-0.438 0.424,-0.468 0.145,-0.041 0.31,-0.004 0.495,0.111 l 0.149,0.094 0.078,-0.126 -1.948,-1.218 -0.078,0.126 0.162,0.101 c 0.194,0.121 0.295,0.266 0.303,0.434 0.004,0.103 -0.074,0.283 -0.234,0.54 l -0.679,1.086 -2.459,1.134 c -0.29,0.132 -0.479,0.21 -0.567,0.234 -0.088,0.022 -0.241,0.022 -0.457,-0.004 C -3,-2.066 -3.073,-2.095 -3.158,-2.149 l -0.078,0.125 1.961,1.227 0.078,-0.125 -0.101,-0.064 c -0.106,-0.066 -0.188,-0.152 -0.246,-0.257 -0.058,-0.105 -0.056,-0.208 0.006,-0.307 0.051,-0.081 0.211,-0.185 0.481,-0.31 L 0.824,-2.74 0.84,-0.764 C 0.842,-0.467 0.812,-0.267 0.747,-0.163 0.707,-0.1 0.656,-0.054 0.592,-0.025 0.528,0.004 0.457,0.014 0.378,0.004 0.3,-0.006 0.2,-0.049 0.078,-0.125 L 0,0"
             style="fill:#ffffff;fill-opacity:1;fill-rule:nonzero;stroke:none"
             id="path417607" />
        </g>
        <g
           id="g417609"
           transform="translate(76.0466,803.8698)">
          <path
             d="M 0,0 C 0.666,0.222 1.327,0.162 1.983,-0.18 2.64,-0.523 3.095,-1.073 3.347,-1.829 3.608,-2.608 3.578,-3.337 3.258,-4.016 2.938,-4.695 2.429,-5.151 1.731,-5.384 1.025,-5.62 0.348,-5.568 -0.299,-5.226 c -0.648,0.341 -1.105,0.91 -1.372,1.707 -0.271,0.815 -0.216,1.572 0.167,2.272 C -1.172,-0.64 -0.671,-0.224 0,0 m 0.021,-0.3 c -0.459,-0.154 -0.771,-0.447 -0.934,-0.88 -0.204,-0.539 -0.17,-1.217 0.103,-2.034 0.28,-0.838 0.674,-1.422 1.183,-1.754 0.389,-0.251 0.809,-0.301 1.261,-0.15 0.481,0.16 0.816,0.481 1.004,0.962 0.189,0.481 0.148,1.126 -0.123,1.935 C 2.222,-1.343 1.831,-0.746 1.342,-0.43 0.95,-0.18 0.51,-0.137 0.021,-0.3"
             style="fill:#ffffff;fill-opacity:1;fill-rule:nonzero;stroke:none"
             id="path417611" />
        </g>
        <g
           id="g417613"
           transform="translate(81.5755,804.8597)">
          <path
             d="m 0,0 0.349,-2.097 0.972,0.162 c 0.223,0.037 0.378,0.113 0.465,0.229 0.087,0.115 0.124,0.322 0.109,0.618 L 2.041,-1.063 2.342,-2.869 2.196,-2.893 C 2.159,-2.687 2.107,-2.539 2.039,-2.45 1.972,-2.362 1.889,-2.301 1.79,-2.268 1.692,-2.234 1.554,-2.232 1.375,-2.262 L 0.403,-2.424 0.682,-4.1 C 0.728,-4.37 0.774,-4.545 0.823,-4.626 0.86,-4.688 0.924,-4.735 1.016,-4.768 1.142,-4.812 1.268,-4.823 1.394,-4.802 l 0.193,0.032 0.024,-0.145 -2.29,-0.382 -0.024,0.146 0.189,0.031 c 0.22,0.037 0.369,0.128 0.448,0.273 0.049,0.094 0.047,0.301 -0.007,0.622 l -0.574,3.446 c -0.045,0.27 -0.091,0.446 -0.14,0.526 -0.037,0.062 -0.1,0.109 -0.189,0.143 -0.124,0.044 -0.249,0.055 -0.378,0.034 L -1.543,-0.107 -1.567,0.038 2.403,0.699 2.649,-0.465 2.511,-0.488 C 2.402,-0.25 2.292,-0.08 2.182,0.022 2.072,0.123 1.946,0.189 1.805,0.22 1.664,0.25 1.454,0.242 1.176,0.196 L 0,0"
             style="fill:#ffffff;fill-opacity:1;fill-rule:nonzero;stroke:none"
             id="path417615" />
        </g>
        <g
           id="g417617"
           transform="translate(91.795,805.8235)">
          <path
             d="m 0,0 -0.073,-1.868 -0.148,0.006 c -0.033,0.361 -0.108,0.649 -0.223,0.866 -0.115,0.218 -0.285,0.393 -0.508,0.527 -0.224,0.133 -0.458,0.205 -0.703,0.215 -0.276,0.011 -0.507,-0.065 -0.695,-0.226 -0.187,-0.162 -0.285,-0.35 -0.293,-0.565 -0.007,-0.165 0.044,-0.317 0.153,-0.457 0.157,-0.205 0.539,-0.486 1.145,-0.842 0.494,-0.291 0.83,-0.512 1.01,-0.664 0.178,-0.152 0.314,-0.328 0.406,-0.528 0.092,-0.201 0.134,-0.408 0.125,-0.623 -0.016,-0.409 -0.188,-0.755 -0.518,-1.039 -0.329,-0.284 -0.743,-0.415 -1.242,-0.396 -0.157,0.007 -0.304,0.024 -0.442,0.053 -0.082,0.017 -0.25,0.072 -0.506,0.166 -0.255,0.093 -0.418,0.142 -0.487,0.144 -0.066,0.003 -0.12,-0.015 -0.16,-0.053 -0.04,-0.038 -0.072,-0.12 -0.095,-0.244 l -0.148,0.006 0.073,1.852 0.147,-0.006 c 0.054,-0.39 0.136,-0.684 0.245,-0.881 0.11,-0.197 0.282,-0.364 0.517,-0.501 0.236,-0.137 0.497,-0.211 0.784,-0.222 0.333,-0.013 0.598,0.064 0.798,0.232 0.199,0.168 0.304,0.371 0.313,0.61 0.005,0.133 -0.026,0.268 -0.094,0.407 -0.068,0.138 -0.177,0.268 -0.326,0.391 -0.101,0.084 -0.376,0.264 -0.828,0.541 -0.453,0.277 -0.774,0.496 -0.963,0.658 -0.189,0.161 -0.331,0.337 -0.424,0.527 -0.094,0.19 -0.137,0.396 -0.128,0.619 0.015,0.387 0.177,0.715 0.486,0.984 0.309,0.268 0.692,0.394 1.152,0.376 0.287,-0.012 0.588,-0.094 0.905,-0.247 0.146,-0.073 0.25,-0.11 0.311,-0.112 0.068,-0.003 0.126,0.015 0.171,0.055 0.045,0.039 0.084,0.121 0.116,0.245 L 0,0"
             style="fill:#ffffff;fill-opacity:1;fill-rule:nonzero;stroke:none"
             id="path417619" />
        </g>
        <g
           id="g417621"
           transform="translate(95.1498,799.9601)">
          <path
             d="m 0,0 -0.022,-0.146 -2.291,0.349 0.022,0.146 0.19,-0.029 c 0.221,-0.034 0.39,0.006 0.51,0.12 0.076,0.075 0.138,0.272 0.187,0.593 l 0.527,3.454 c 0.041,0.271 0.051,0.452 0.03,0.544 -0.016,0.07 -0.062,0.135 -0.136,0.194 -0.106,0.081 -0.222,0.131 -0.348,0.15 L -1.52,5.404 -1.498,5.55 0.793,5.201 0.77,5.055 0.577,5.084 C 0.359,5.117 0.19,5.077 0.071,4.964 -0.008,4.89 -0.071,4.692 -0.12,4.372 L -0.647,0.917 c -0.041,-0.27 -0.051,-0.451 -0.03,-0.544 0.016,-0.069 0.063,-0.134 0.14,-0.194 0.103,-0.081 0.218,-0.13 0.344,-0.15 L 0,0"
             style="fill:#ffffff;fill-opacity:1;fill-rule:nonzero;stroke:none"
             id="path417623" />
        </g>
        <g
           id="g417625"
           transform="translate(99.9861,804.3141)">
          <path
             d="M 0,0 C 0.674,-0.196 1.183,-0.622 1.529,-1.278 1.874,-1.933 1.934,-2.644 1.712,-3.41 1.482,-4.199 1.043,-4.781 0.394,-5.157 c -0.65,-0.376 -1.328,-0.461 -2.035,-0.256 -0.715,0.208 -1.242,0.637 -1.58,1.287 -0.339,0.649 -0.391,1.377 -0.156,2.184 0.24,0.825 0.716,1.416 1.43,1.773 C -1.329,0.141 -0.679,0.198 0,0 m -0.154,-0.259 c -0.465,0.136 -0.888,0.072 -1.269,-0.191 -0.475,-0.327 -0.832,-0.904 -1.073,-1.732 -0.247,-0.847 -0.255,-1.552 -0.025,-2.115 0.177,-0.428 0.494,-0.709 0.951,-0.841 0.488,-0.142 0.946,-0.07 1.374,0.218 0.429,0.289 0.762,0.842 1.001,1.662 0.258,0.888 0.276,1.602 0.053,2.14 -0.179,0.429 -0.517,0.716 -1.012,0.859"
             style="fill:#ffffff;fill-opacity:1;fill-rule:nonzero;stroke:none"
             id="path417627" />
        </g>
        <g
           id="g417629"
           transform="translate(103.7067,803.0178)">
          <path
             d="m 0,0 1.315,-0.651 1.164,-5.102 1.384,2.795 c 0.147,0.298 0.206,0.5 0.176,0.607 C 4,-2.207 3.886,-2.088 3.695,-1.994 L 3.527,-1.911 3.592,-1.778 5.279,-2.613 5.214,-2.746 5.042,-2.661 C 4.838,-2.559 4.661,-2.549 4.515,-2.631 4.424,-2.681 4.312,-2.842 4.177,-3.114 L 2.155,-7.199 2.026,-7.136 0.763,-1.651 -0.715,-4.635 c -0.147,-0.298 -0.207,-0.5 -0.179,-0.606 0.041,-0.144 0.156,-0.263 0.344,-0.356 l 0.171,-0.086 -0.065,-0.132 -1.688,0.835 0.066,0.133 0.168,-0.084 c 0.207,-0.102 0.385,-0.113 0.532,-0.031 0.09,0.05 0.203,0.211 0.337,0.483 l 1.669,3.37 c -0.06,0.235 -0.113,0.395 -0.159,0.484 -0.047,0.088 -0.13,0.19 -0.248,0.305 -0.058,0.056 -0.158,0.118 -0.298,0.188 L 0,0"
             style="fill:#ffffff;fill-opacity:1;fill-rule:nonzero;stroke:none"
             id="path417631" />
        </g>
        <g
           id="g417633"
           transform="translate(116.1436,795.166)">
          <path
             d="M 0,0 -1.085,-1.489 -1.18,-1.41 c 0.227,0.528 0.3,0.983 0.222,1.365 -0.08,0.382 -0.283,0.71 -0.611,0.985 C -1.845,1.17 -2.152,1.309 -2.491,1.355 -2.83,1.402 -3.192,1.325 -3.575,1.126 -3.958,0.927 -4.34,0.6 -4.721,0.145 c -0.314,-0.375 -0.527,-0.75 -0.636,-1.127 -0.111,-0.375 -0.106,-0.738 0.012,-1.087 0.119,-0.349 0.333,-0.653 0.643,-0.913 0.269,-0.225 0.555,-0.366 0.858,-0.424 0.302,-0.057 0.72,-0.017 1.253,0.119 l 0.044,-0.141 c -0.517,-0.195 -0.986,-0.262 -1.406,-0.201 -0.421,0.061 -0.822,0.251 -1.203,0.57 -0.688,0.575 -1.006,1.276 -0.956,2.101 0.036,0.615 0.269,1.179 0.699,1.693 0.347,0.414 0.757,0.716 1.233,0.908 0.476,0.191 0.956,0.246 1.441,0.164 0.485,-0.081 0.92,-0.283 1.305,-0.606 0.3,-0.251 0.534,-0.572 0.702,-0.962 0.048,-0.118 0.091,-0.191 0.127,-0.222 0.056,-0.046 0.12,-0.067 0.193,-0.062 0.099,0.011 0.201,0.056 0.305,0.135 L 0,0"
             style="fill:#ffffff;fill-opacity:1;fill-rule:nonzero;stroke:none"
             id="path417635" />
        </g>
        <g
           id="g417637"
           transform="translate(119.2931,791.7792)">
          <path
             d="m 0,0 c 0.455,-0.534 0.647,-1.17 0.575,-1.908 -0.073,-0.737 -0.412,-1.364 -1.02,-1.881 -0.625,-0.534 -1.312,-0.779 -2.061,-0.736 -0.749,0.044 -1.363,0.345 -1.84,0.906 -0.483,0.567 -0.688,1.214 -0.613,1.943 0.074,0.729 0.431,1.366 1.071,1.911 0.653,0.556 1.376,0.789 2.168,0.695 C -1.032,0.849 -0.459,0.538 0,0 M -0.271,-0.131 C -0.585,0.237 -0.973,0.417 -1.436,0.406 -2.012,0.394 -2.628,0.108 -3.284,-0.45 c -0.672,-0.573 -1.067,-1.157 -1.184,-1.753 -0.087,-0.455 0.023,-0.864 0.332,-1.226 0.329,-0.387 0.752,-0.578 1.269,-0.573 0.516,0.005 1.099,0.284 1.749,0.838 0.704,0.6 1.111,1.186 1.22,1.758 0.086,0.457 -0.038,0.882 -0.373,1.275"
             style="fill:#ffffff;fill-opacity:1;fill-rule:nonzero;stroke:none"
             id="path417639" />
        </g>
        <g
           id="g417641"
           transform="translate(120.756,782.5613)">
          <path
             d="M 0,0 0.044,-0.127 -1.451,-0.49 -3.617,3.095 -3.49,3.171 -3.385,2.997 c 0.118,-0.196 0.266,-0.298 0.444,-0.304 0.102,-0.004 0.285,0.073 0.549,0.233 L 0.595,4.73 C 0.884,4.905 1.046,5.046 1.081,5.154 1.127,5.303 1.097,5.465 0.992,5.64 L 0.886,5.815 1.013,5.891 2.279,3.795 2.152,3.718 C 2.006,3.965 1.879,4.124 1.772,4.195 1.664,4.265 1.563,4.296 1.468,4.288 1.373,4.281 1.188,4.193 0.912,4.027 L -1.996,2.27 C -2.185,2.156 -2.304,2.06 -2.352,1.98 -2.384,1.924 -2.393,1.861 -2.382,1.791 -2.37,1.72 -2.274,1.535 -2.094,1.237 L -1.89,0.899 c 0.215,-0.355 0.391,-0.588 0.53,-0.7 0.139,-0.112 0.311,-0.187 0.516,-0.225 C -0.64,-0.063 -0.358,-0.055 0,0"
             style="fill:#ffffff;fill-opacity:1;fill-rule:nonzero;stroke:none"
             id="path417643" />
        </g>
        <g
           id="g417645"
           transform="translate(122.906,777.576)">
          <path
             d="M 0,0 0.025,-0.132 -1.508,-0.266 -3.11,3.603 -2.974,3.66 -2.896,3.472 c 0.087,-0.212 0.219,-0.334 0.394,-0.368 0.1,-0.019 0.293,0.03 0.578,0.148 L 1.3,4.587 C 1.612,4.716 1.793,4.831 1.843,4.933 1.911,5.073 1.907,5.238 1.828,5.427 L 1.751,5.615 1.887,5.672 2.824,3.409 2.687,3.353 C 2.58,3.619 2.478,3.795 2.383,3.88 2.287,3.966 2.191,4.012 2.096,4.019 2.002,4.026 1.805,3.967 1.508,3.844 L -1.632,2.545 C -1.836,2.46 -1.968,2.382 -2.027,2.312 -2.066,2.261 -2.086,2.2 -2.085,2.128 -2.084,2.056 -2.017,1.86 -1.884,1.538 L -1.733,1.173 C -1.575,0.79 -1.435,0.532 -1.314,0.401 -1.193,0.27 -1.035,0.17 -0.839,0.102 -0.642,0.034 -0.362,-0.001 0,0"
             style="fill:#ffffff;fill-opacity:1;fill-rule:nonzero;stroke:none"
             id="path417647" />
        </g>
        <g
           id="g417649"
           transform="translate(127.0793,776.0872)">
          <path
             d="m 0,0 -2.076,-0.511 0.284,-1.154 c 0.074,-0.299 0.168,-0.489 0.283,-0.567 0.152,-0.105 0.379,-0.128 0.683,-0.07 l 0.035,-0.143 -1.828,-0.45 -0.035,0.143 c 0.247,0.099 0.402,0.175 0.465,0.23 0.079,0.068 0.131,0.162 0.157,0.28 0.026,0.119 0.011,0.288 -0.043,0.508 L -2.359,-0.58 -4.09,-1.006 C -4.322,-1.063 -4.461,-1.109 -4.506,-1.142 -4.551,-1.175 -4.583,-1.221 -4.6,-1.28 -4.617,-1.339 -4.607,-1.441 -4.572,-1.585 l 0.219,-0.891 c 0.073,-0.297 0.147,-0.507 0.222,-0.631 0.074,-0.124 0.187,-0.234 0.339,-0.328 0.2,-0.12 0.481,-0.225 0.845,-0.313 l 0.038,-0.155 -1.428,0.129 -0.996,4.047 0.143,0.035 0.046,-0.186 c 0.03,-0.123 0.089,-0.234 0.176,-0.33 0.062,-0.073 0.137,-0.113 0.227,-0.123 0.09,-0.009 0.263,0.018 0.519,0.08 l 3.411,0.84 c 0.333,0.082 0.53,0.167 0.592,0.253 0.08,0.118 0.093,0.286 0.04,0.502 l -0.046,0.186 0.144,0.035 0.996,-4.047 -1.136,-0.341 -0.038,0.151 c 0.263,0.122 0.438,0.229 0.526,0.32 0.087,0.092 0.141,0.208 0.164,0.351 0.013,0.113 -0.013,0.3 -0.077,0.56 L 0,0"
             style="fill:#ffffff;fill-opacity:1;fill-rule:nonzero;stroke:none"
             id="path417651" />
        </g>
        <g
           id="g417653"
           transform="translate(128.8727,766.9115)">
          <path
             d="m 0,0 -1.687,-0.272 -0.011,0.139 c 0.412,0.174 0.716,0.38 0.914,0.62 C -0.5,0.832 -0.377,1.256 -0.416,1.76 -0.47,2.446 -0.782,2.947 -1.352,3.263 -1.832,3.526 -2.389,3.634 -3.021,3.584 -3.534,3.544 -3.994,3.408 -4.402,3.176 -4.81,2.944 -5.1,2.659 -5.271,2.322 -5.443,1.984 -5.516,1.646 -5.49,1.307 -5.474,1.108 -5.434,0.918 -5.369,0.736 -5.305,0.555 -5.217,0.381 -5.105,0.217 l 1.554,0.121 c 0.27,0.021 0.445,0.056 0.525,0.103 0.08,0.048 0.139,0.117 0.176,0.206 0.036,0.09 0.047,0.243 0.03,0.461 l 0.15,0.012 0.163,-2.088 -0.151,-0.012 -0.007,0.1 c -0.017,0.206 -0.096,0.343 -0.24,0.409 -0.102,0.045 -0.297,0.057 -0.585,0.034 l -1.646,-0.129 c -0.188,0.292 -0.332,0.584 -0.432,0.875 -0.099,0.29 -0.163,0.617 -0.192,0.98 -0.081,1.042 0.191,1.86 0.815,2.453 0.468,0.445 1.029,0.692 1.682,0.743 C -2.79,4.523 -2.327,4.444 -1.876,4.25 -1.339,4.02 -0.914,3.68 -0.599,3.23 -0.339,2.853 -0.187,2.395 -0.145,1.857 -0.13,1.661 -0.132,1.481 -0.151,1.319 -0.17,1.156 -0.223,0.923 -0.308,0.62 -0.352,0.467 -0.372,0.366 -0.368,0.315 c 0.004,-0.05 0.03,-0.091 0.079,-0.124 0.05,-0.032 0.142,-0.046 0.277,-0.044 L 0,0"
             style="fill:#ffffff;fill-opacity:1;fill-rule:nonzero;stroke:none"
             id="path417655" />
        </g>
        <g
           id="g417657"
           transform="translate(128.3438,763.2795)">
          <path
             d="m 0,0 -2.13,0.177 -0.098,-1.185 c -0.026,-0.307 0.004,-0.517 0.088,-0.628 0.11,-0.148 0.318,-0.242 0.624,-0.284 l -0.012,-0.146 -1.876,0.155 0.012,0.147 c 0.266,0.015 0.437,0.039 0.514,0.069 0.097,0.04 0.176,0.112 0.239,0.217 0.062,0.104 0.102,0.269 0.121,0.494 l 0.097,1.185 -1.776,0.147 C -4.435,0.368 -4.582,0.369 -4.635,0.352 -4.689,0.335 -4.732,0.301 -4.767,0.251 -4.802,0.201 -4.826,0.101 -4.838,-0.047 l -0.076,-0.915 c -0.025,-0.304 -0.022,-0.527 0.009,-0.669 0.031,-0.141 0.103,-0.28 0.217,-0.418 0.151,-0.178 0.385,-0.367 0.702,-0.566 L -4,-2.774 l -1.313,0.577 0.345,4.154 0.147,-0.013 -0.016,-0.19 c -0.011,-0.128 0.01,-0.251 0.061,-0.37 0.036,-0.088 0.094,-0.151 0.177,-0.189 0.082,-0.037 0.254,-0.067 0.516,-0.088 l 3.502,-0.29 C -0.239,0.788 -0.025,0.805 0.06,0.867 0.174,0.954 0.24,1.109 0.259,1.331 L 0.274,1.522 0.422,1.51 0.077,-2.644 l -1.185,0.038 0.012,0.155 c 0.289,0.033 0.489,0.078 0.6,0.137 0.112,0.059 0.201,0.152 0.268,0.28 0.048,0.103 0.083,0.288 0.106,0.556 L 0,0"
             style="fill:#ffffff;fill-opacity:1;fill-rule:nonzero;stroke:none"
             id="path417659" />
        </g>
      </g>
    </g>
  </g>
</svg>
