<?xml version="1.0" encoding="UTF-8" standalone="no"?>
<svg
   id="svg68106"
   version="1.1"
   viewBox="0 0 36.999801 34.708957"
   height="34.708958mm"
   width="36.999802mm"
   xmlns="http://www.w3.org/2000/svg"
   xmlns:svg="http://www.w3.org/2000/svg"
   xmlns:rdf="http://www.w3.org/1999/02/22-rdf-syntax-ns#"
   xmlns:cc="http://creativecommons.org/ns#"
   xmlns:dc="http://purl.org/dc/elements/1.1/">
  <defs
     id="defs68100">
    <clipPath
       clipPathUnits="userSpaceOnUse"
       id="clipPath68126">
      <path
         d="M 0,841.89 H 595.276 V 0 H 0 Z"
         id="path68124" />
    </clipPath>
    <clipPath
       clipPathUnits="userSpaceOnUse"
       id="clipPath68158">
      <path
         d="M 0,0 H 595.276 V 841.89 H 0 Z"
         id="path68156" />
    </clipPath>
    <clipPath
       clipPathUnits="userSpaceOnUse"
       id="clipPath68250">
      <path
         d="M 0,0 H 595.276 V 841.89 H 0 Z"
         id="path68248" />
    </clipPath>
    <clipPath
       clipPathUnits="userSpaceOnUse"
       id="clipPath68278">
      <path
         d="M 0,0 H 595.276 V 841.89 H 0 Z"
         id="path68276" />
    </clipPath>
  </defs>
  <metadata
     id="metadata68103">
    <rdf:RDF>
      <cc:Work
         rdf:about="">
        <dc:format>image/svg+xml</dc:format>
        <dc:type
           rdf:resource="http://purl.org/dc/dcmitype/StillImage" />
        <dc:title />
      </cc:Work>
    </rdf:RDF>
  </metadata>
  <g
     transform="translate(-109.72034,-13.065509)"
     id="layer1">
    <g
       transform="matrix(0.35277777,0,0,-0.35277777,18.220345,295.06551)"
       id="g68244">
      <g
         clip-path="url(#clipPath68250)"
         id="g68246">
        <g
           transform="translate(342.8362,714.2483)"
           id="g68252">
          <path
             id="path68254"
             style="fill:#ffffff;fill-opacity:1;fill-rule:nonzero;stroke:none"
             d="m 0,0 c -0.541,0 -0.982,0.443 -0.982,0.983 0,0.543 0.441,0.983 0.982,0.983 0.54,0 0.98,-0.44 0.98,-0.983 C 0.98,0.443 0.54,0 0,0 m 0,2.579 c -0.877,0 -1.591,-0.715 -1.591,-1.596 0,-0.88 0.714,-1.596 1.591,-1.596 0.876,0 1.59,0.716 1.59,1.596 0,0.881 -0.714,1.596 -1.59,1.596" />
        </g>
        <g
           transform="translate(355.4813,721.7562)"
           id="g68256">
          <path
             id="path68258"
             style="fill:#ffffff;fill-opacity:1;fill-rule:nonzero;stroke:none"
             d="m 0,0 c -0.033,-0.049 -0.067,-0.098 -0.1,-0.147 l -0.297,-0.434 c 0.866,-1.785 3.92,-8.08 4.563,-9.404 -0.488,-0.253 -8.84,-4.578 -9.349,-4.84 -0.221,0.452 -2.494,5.076 -3.037,6.179 l -0.214,-0.151 c -0.097,-0.069 -0.193,-0.137 -0.291,-0.204 l 3.271,-6.655 10.43,5.401 z m -17.323,8.509 c -0.002,-0.005 -0.005,-0.011 -0.008,-0.016 l 4.549,-9.246 c 0.069,0.049 0.138,0.099 0.207,0.149 l 0.294,0.214 3.637,-7.394 c -1.229,2.5 -5.775,11.743 -7.062,14.358 -0.653,0.536 -1.204,1.189 -1.617,1.935 m 13.145,0.099 v 0 c 0.035,-0.071 0.345,-0.71 0.776,-1.598 l -0.776,1.599" />
        </g>
        <g
           transform="translate(351.0515,747.572)"
           id="g68260">
          <path
             id="path68262"
             style="fill:#ffffff;fill-opacity:1;fill-rule:nonzero;stroke:none"
             d="m 0,0 h -0.338 v -16.542 c 0,0 -0.004,-0.072 -0.02,-0.108 -1.015,-2.285 -3.424,-3.894 -6.239,-3.894 -2.707,0 -5.045,1.486 -6.123,3.63 -0.054,-0.133 -0.112,-0.264 -0.173,-0.392 0.413,-0.747 0.964,-1.4 1.617,-1.936 1.263,-1.038 2.909,-1.638 4.679,-1.638 2.64,0 5.023,1.357 6.251,3.507 l -0.085,0.173 0.074,0.137 c 0.121,0.225 0.239,0.453 0.356,0.683 z" />
        </g>
        <g
           transform="translate(338.4938,748.2578)"
           id="g68264">
          <path
             id="path68266"
             style="fill:#ffffff;fill-opacity:1;fill-rule:nonzero;stroke:none"
             d="m 0,0 h -0.61 v -17.057 c -0.017,-0.05 -0.042,-0.115 -0.042,-0.115 -0.793,-2.148 -2.557,-3.541 -4.489,-3.541 -1.91,0 -3.643,1.349 -4.455,3.45 -0.019,-0.042 -0.072,-0.157 -0.083,-0.182 l -0.215,-0.444 c -0.018,-0.033 -0.036,-0.065 -0.054,-0.098 0.988,-2.058 2.809,-3.337 4.807,-3.337 1.993,0 3.818,1.28 4.798,3.315 0.002,0.006 0.005,0.011 0.008,0.017 0.061,0.128 0.119,0.259 0.173,0.393 -0.061,0.121 -0.118,0.244 -0.17,0.369 l 0.029,16.881 v 0.338 H 0 Z" />
        </g>
      </g>
    </g>
    <g
       transform="matrix(0.35277777,0,0,-0.35277777,142.06351,27.856211)"
       id="g68268">
      <path
         id="path68270"
         style="fill:#ffffff;fill-opacity:1;fill-rule:nonzero;stroke:none"
         d="m 0,0 h -12.861 12.188 v -9.197 h -11.885 -0.303 V -9.535 H -0.338 V -9.872 H 0 Z" />
    </g>
    <g
       transform="matrix(0.35277777,0,0,-0.35277777,18.220345,295.06551)"
       id="g68272">
      <g
         clip-path="url(#clipPath68278)"
         id="g68274">
        <g
           transform="translate(343.2291,784.6819)"
           id="g68280">
          <path
             id="path68282"
             style="fill:#ffffff;fill-opacity:1;fill-rule:nonzero;stroke:none"
             d="m 0,0 -0.05,-0.103 c -0.24,-0.509 -2.173,-4.609 -3.408,-7.229 0.001,0 0.002,10e-4 0.002,10e-4 z m -9.886,3.043 c -3.219,-0.004 -6.329,-1.048 -9.249,-3.104 l 4.727,-9.741 v -0.017 l 0.004,-0.007 0.026,-0.06 c 0.794,2.166 2.551,3.561 4.502,3.561 1.949,0 3.71,-1.399 4.5,-3.57 v 0.003 l 0.276,0.568 c 0.025,0.046 0.051,0.092 0.077,0.138 -0.972,2.134 -2.811,3.473 -4.853,3.473 -2.042,0 -3.879,-1.335 -4.844,-3.434 -0.488,1.003 -4.192,8.631 -4.408,9.072 2.918,2.054 6.025,3.114 9.242,3.118 m 0.037,0 c 3.185,-0.004 6.265,-1.046 9.161,-3.065 -0.191,-0.406 -3.616,-7.672 -4.257,-9.031 0.001,0.001 0.001,0.002 0.002,0.003 l 4.263,9.042 c -2.9,2.021 -5.982,3.047 -9.169,3.051 m -0.038,0.614 c -3.317,-0.005 -6.517,-1.068 -9.518,-3.16 0.003,-0.007 0.006,-0.013 0.009,-0.019 2.999,2.09 6.193,3.174 9.509,3.179 m 0.039,0 c 3.283,-0.005 6.45,-1.072 9.427,-3.126 l 0.01,0.021 c -2.98,2.056 -6.151,3.101 -9.437,3.105" />
        </g>
        <g
           transform="translate(333.3617,788.3384)"
           id="g68284">
          <path
             id="path68286"
             style="fill:#ffffff;fill-opacity:1;fill-rule:nonzero;stroke:none"
             d="m 0,0 h -0.02 c -3.316,-0.004 -6.509,-1.088 -9.509,-3.179 -0.002,0.006 -0.005,0.013 -0.009,0.02 -0.086,0.177 -0.362,0.745 -0.722,1.488 l 0.993,-2.046 c 2.919,2.056 6.029,3.099 9.248,3.103 H 0 0.019 c 3.186,-0.003 6.268,-1.029 9.168,-3.05 l 0.111,0.236 0.077,0.159 0.071,0.144 C 6.469,-1.072 3.302,-0.004 0.019,0 H 0 m 13.503,3.708 v 0 L 9.924,-3.539 9.842,-3.707 c 0,0 -0.008,-0.018 -0.024,-0.052 l 0.049,0.102 0.057,0.118 z m -27.227,0.359 -10e-4,-0.001 3.954,-8.145 v 0 c -0.102,0.209 -0.159,0.328 -0.159,0.328 0,0 -1.975,4.069 -3.794,7.818 M -0.081,8.58 c -4.594,0 -9.01,-1.4 -13.133,-4.165 l 1.73,-3.565 c -0.709,1.462 -1.36,2.804 -1.457,3.002 4.04,2.725 8.365,4.115 12.86,4.115 4.444,0 8.915,-1.441 12.953,-4.154 -0.328,-0.666 -1.721,-3.485 -2.644,-5.355 l 2.723,5.513 0.038,0.085 0.152,0.324 c -4.12,2.749 -8.684,4.2 -13.222,4.2" />
        </g>
        <g
           transform="translate(350.8134,775.4033)"
           id="g68288">
          <path
             id="path68290"
             style="fill:#ffffff;fill-opacity:1;fill-rule:nonzero;stroke:none"
             d="m 0,0 -0.025,-0.061 v 0 C -0.012,-0.031 -0.002,-0.007 0,0 M 4.547,8.27 4.516,8.203 4.473,8.109 3.034,5.036 c 0.496,1.058 0.943,2.013 1.201,2.565 5.457,-8.16 8.593,-19.181 8.593,-30.367 0,-11.35 -3.018,-22.048 -8.478,-30.223 -0.298,0.614 -2.044,4.21 -3.084,6.352 -0.431,0.888 -0.741,1.527 -0.776,1.598 3.337,6.312 5.178,14.265 5.178,22.425 0,8.107 -1.822,16.026 -5.126,22.321 L 0.56,-0.247 0.239,-1.03 c 3.111,-6.132 4.818,-13.769 4.818,-21.584 0,-7.829 -1.708,-15.463 -4.82,-21.597 -0.117,-0.23 -0.235,-0.458 -0.356,-0.683 l -0.074,-0.137 0.085,-0.174 4.379,-9.023 v 0 l 0.296,0.434 c 0.034,0.049 0.068,0.098 0.101,0.147 5.658,8.313 8.77,19.272 8.77,30.881 0,11.617 -3.156,22.631 -8.891,31.036 M 3.947,8.429 3.919,8.37 0,0 3.919,8.368 Z" />
        </g>
        <g
           transform="translate(349.6093,799.3462)"
           id="g68292">
          <path
             id="path68294"
             style="fill:#ffffff;fill-opacity:1;fill-rule:nonzero;stroke:none"
             d="m 0,0 -0.13,-0.277 -2.977,-6.351 -0.151,-0.323 -0.038,-0.085 -2.724,-5.514 -0.772,-1.563 -0.01,-0.02 -0.071,-0.143 -0.076,-0.16 -0.112,-0.236 -4.262,-9.042 c 0.397,0.657 0.9,1.235 1.485,1.718 1.235,2.619 3.168,6.72 3.408,7.229 0.016,0.034 0.025,0.052 0.025,0.052 l 0.082,0.168 3.578,7.247 0.042,0.09 c 0,0 2.407,5.139 2.996,6.396 0.509,-0.241 9.11,-4.297 9.619,-4.537 C 9.666,-5.875 5.166,-15.482 5.166,-15.482 l -0.015,-0.032 -0.028,-0.061 -3.919,-8.368 c -0.002,-0.007 -0.012,-0.031 -0.025,-0.061 0.08,-0.148 0.154,-0.299 0.222,-0.454 v 0.027 l 0.041,-0.252 v -0.293 l 0.001,0.004 0.321,0.782 2.474,5.283 1.439,3.074 0.043,0.093 0.031,0.067 4.973,10.616 z" />
        </g>
        <g
           transform="translate(338.1898,774.661)"
           id="g68296">
          <path
             id="path68298"
             style="fill:#ffffff;fill-opacity:1;fill-rule:nonzero;stroke:none"
             d="m 0,0 v 0.052 l 0.235,0.484 c 1.111,2.055 3.392,3.466 6.028,3.466 2.823,0 5.24,-1.619 6.25,-3.912 0.011,-0.031 0.011,-0.088 0.011,-0.088 V -0.304 -16.881 H 0.001 V 0 Z M 6.263,4.338 C 4.501,4.338 2.852,3.737 1.583,2.69 1.583,2.69 1.582,2.689 1.582,2.689 0.997,2.206 0.493,1.628 0.096,0.971 0.096,0.97 0.095,0.969 0.095,0.968 0.068,0.924 0.042,0.88 0.016,0.835 -0.01,0.789 -0.036,0.743 -0.061,0.697 L -0.336,0.129 V 0.126 l 0.002,-17.343 H 0.001 12.862 V -0.29 0.002 L 12.82,0.254 V 0.227 c -0.068,0.155 -0.142,0.306 -0.221,0.454 v 0 C 11.4,2.918 8.968,4.338 6.263,4.338" />
        </g>
        <g
           transform="translate(342.267,766.6768)"
           id="g68300">
          <path
             id="path68302"
             style="fill:#ffffff;fill-opacity:1;fill-rule:nonzero;stroke:none"
             d="m 0,0 c -0.067,0 -0.157,0.04 -0.28,0.135 -1.269,0.92 -0.947,2.656 -1.142,4.022 -0.103,0.557 -0.426,1.026 -0.698,1.512 l 0.016,0.059 c 0.342,-0.162 0.648,-0.307 0.947,-0.53 0.143,-0.153 0.052,-0.401 0.322,-0.426 0.358,-0.009 0.384,-0.358 0.555,-0.581 0.023,0.002 0.046,0.003 0.068,0.003 0.228,0 0.393,-0.114 0.502,-0.285 0.06,-0.127 0.052,-0.273 0.161,-0.366 0.153,0 0.274,-0.062 0.393,-0.129 0.177,-0.178 0.111,-0.573 0.457,-0.573 0.004,0 0.007,0 0.01,0 C 1.515,2.62 1.6,2.262 1.559,1.902 1.582,1.869 1.605,1.857 1.627,1.857 c 0.027,0 0.054,0.016 0.082,0.033 0.028,0.016 0.058,0.032 0.09,0.032 0.007,0 0.015,-10e-4 0.023,-0.003 1.253,0.83 1.228,2.357 1.515,3.629 L 3.398,5.592 C 3.535,5.276 3.33,4.592 3.892,4.568 4.054,4.498 3.968,4.284 4.129,4.191 4.187,4.204 4.25,4.215 4.31,4.215 4.436,4.215 4.547,4.169 4.564,4.012 4.625,3.956 4.711,3.929 4.796,3.929 c 0.046,0 0.092,0.008 0.133,0.023 0.214,0.08 0.469,0.306 0.703,0.306 0.091,0 0.179,-0.035 0.261,-0.127 L 5.706,3.849 4.642,2.902 C 3.849,2.056 3.765,0.876 3.458,-0.19 3.313,-0.455 3.73,-0.276 3.824,-0.42 3.994,-0.574 4.044,-0.781 4.072,-0.995 4.36,-1.173 4.683,-1.411 4.667,-1.814 4.888,-1.916 5.118,-2.069 5.196,-2.326 5.067,-2.77 5.562,-2.839 5.629,-3.205 c -0.17,-0.376 0.307,-0.47 0.136,-0.821 0.12,-0.067 0.171,-0.221 0.144,-0.348 -0.057,-0.08 -0.049,-0.231 0.027,-0.31 0.161,-0.333 0.086,-0.784 0.222,-1.1 -0.015,-0.023 -0.013,-0.075 -0.041,-0.075 -0.005,0 -0.012,0.002 -0.02,0.007 C 5.543,-4.374 4.044,-3.59 2.58,-3.453 1.951,-3.068 2.112,-2.274 1.881,-1.684 1.755,-1.916 1.661,-2.206 1.515,-2.445 1.295,-2.762 1.082,-3.137 0.725,-3.35 c -0.299,-0.18 -0.742,0.033 -0.99,-0.265 -0.212,-0.267 -0.33,-0.599 -0.672,-0.734 l -0.058,0.075 0.263,1.026 c -0.076,0.471 -0.298,1.025 -0.044,1.478 0.171,0.401 0.742,0.436 0.862,0.862 0.152,0.624 0.34,1.162 0.553,1.76 L 0.656,0.876 0.58,0.937 C 0.162,0.791 0.301,0 0,0 m 2.185,11.986 c -2.635,0 -4.916,-1.411 -6.027,-3.466 L -4.077,8.036 V 7.984 h 0.001 V -8.897 H 8.447 V 7.68 7.986 c 0,0 0,0.057 -0.011,0.088 -1.01,2.293 -3.427,3.912 -6.251,3.912" />
        </g>
        <g
           transform="translate(328.1907,731.0599)"
           id="g68304">
          <path
             id="path68306"
             style="fill:#ffffff;fill-opacity:1;fill-rule:nonzero;stroke:none"
             d="m 0,0 0.003,-0.043 -0.001,0.032 z m -5.978,1.403 0.263,1.095 0.263,-1.084 1.007,0.491 -0.607,-0.927 0.963,-0.442 -1.121,-0.124 0.261,-1.086 -0.766,0.776 -0.764,-0.776 0.269,1.127 -1.161,0.027 1.038,0.505 -0.714,0.91 z m 1.84,2.566 0.209,0.552 -0.404,0.355 h 0.5 l 0.172,0.515 0.175,-0.515 h 0.552 L -3.363,4.52 -3.187,3.962 -3.653,4.247 Z M -2.057,8.787 -1.793,9.88 -1.53,8.795 -0.524,9.288 -1.128,8.36 -0.166,7.916 -1.29,7.795 -1.026,6.71 -1.793,7.485 -2.557,6.71 l 0.271,1.126 -1.162,0.025 1.037,0.505 -0.713,0.909 z m -4.026,3.381 0.262,1.095 0.262,-1.085 1.008,0.492 -0.607,-0.927 0.964,-0.444 -1.123,-0.123 0.262,-1.083 -0.766,0.775 -0.765,-0.775 0.273,1.124 -1.165,0.026 1.037,0.506 -0.713,0.909 z m 6.072,4.344 H -7.192 L -7.23,16.344 C -7.51,12.983 -8.07,9.643 -8.897,6.406 L -8.947,6.225 -8.097,6.638 -8.704,5.711 -7.74,5.267 -8.863,5.145 -8.602,4.06 -9.34,4.807 -9.465,4.359 c -0.443,-1.507 -0.854,-3.131 -1.384,-4.49 -0.006,0.019 -0.056,0.13 -0.086,0.2 l 0.002,-0.008 V 0.048 c 0.379,-1.232 1.541,-2.546 2.948,-3.253 0.654,-0.307 1.355,-0.491 2.048,-0.491 2.457,0 4.66,1.273 5.748,3.312 0,0 0.163,0.339 0.19,0.39 C 0,0.032 -0.007,0.148 -0.01,0.148 c 0,0 -10e-4,-0.002 -10e-4,-0.007 v 16.371" />
        </g>
        <g
           transform="translate(346.4691,713.3358)"
           id="g68308">
          <path
             id="path68310"
             style="fill:#ffffff;fill-opacity:1;fill-rule:nonzero;stroke:none"
             d="m 0,0 c -0.395,-0.052 -3.129,-0.388 -6.118,-0.388 -1.162,0 -2.362,0.051 -3.479,0.189 -0.014,-0.203 -0.026,-0.408 -0.036,-0.614 1.147,-0.14 2.368,-0.192 3.544,-0.192 1.99,0 3.851,0.148 5.012,0.265 0.364,0.229 0.727,0.47 1.087,0.72 C 0.007,-0.014 0.004,-0.007 0,0" />
        </g>
        <g
           transform="translate(333.2861,712.2911)"
           id="g68312">
          <path
             id="path68314"
             style="fill:#ffffff;fill-opacity:1;fill-rule:nonzero;stroke:none"
             d="m 0,0 c -0.542,0 -0.981,0.44 -0.981,0.981 0,0.542 0.439,0.984 0.981,0.984 0.541,0 0.98,-0.442 0.98,-0.984 C 0.98,0.44 0.541,0 0,0 m 0,2.578 c -0.877,0 -1.591,-0.716 -1.591,-1.597 0,-0.879 0.714,-1.594 1.591,-1.594 0.876,0 1.59,0.715 1.59,1.594 0,0.881 -0.714,1.597 -1.59,1.597" />
        </g>
        <g
           transform="translate(320.2574,713.1954)"
           id="g68316">
          <path
             id="path68318"
             style="fill:#ffffff;fill-opacity:1;fill-rule:nonzero;stroke:none"
             d="M 0,0 -0.117,-0.242 -0.272,-0.563 C 0.336,-0.977 0.951,-1.359 1.571,-1.713 1.451,-1.534 1.357,-1.328 1.291,-1.1 1.263,-0.998 1.245,-0.894 1.228,-0.792 0.817,-0.54 0.408,-0.278 0,0 M 1.692,3.497 1.498,3.095 C 1.562,3.228 1.627,3.362 1.692,3.497 Z M 2.386,4.93 1.961,4.052 H 1.962 C 2.106,4.351 2.249,4.647 2.386,4.93 M 3.776,7.802 3.664,7.57 3.515,7.264 C 3.647,7.169 3.783,7.08 3.918,6.99 4.051,7.166 4.194,7.307 4.343,7.418 4.153,7.541 3.964,7.669 3.776,7.802 M 3.273,8.167 -0.782,-0.21 v 0 c 0.073,0.15 0.114,0.234 0.114,0.234 l 3.782,7.812 c 0,0 0.058,0.119 0.16,0.33 z" />
        </g>
        <g
           transform="translate(323.8094,711.1463)"
           id="g68320">
          <path
             id="path68322"
             style="fill:#ffffff;fill-opacity:1;fill-rule:nonzero;stroke:none"
             d="M 0,0 C 0.07,-0.034 0.14,-0.067 0.21,-0.1 L 0.194,-0.001 Z" />
        </g>
        <g
           transform="translate(325.8897,710.2749)"
           id="g68324">
          <path
             id="path68326"
             style="fill:#ffffff;fill-opacity:1;fill-rule:nonzero;stroke:none"
             d="m 0,0 c -0.051,-0.063 -0.096,-0.113 -0.123,-0.132 -0.204,-0.135 -0.388,-0.223 -0.556,-0.272 0.258,-0.101 0.518,-0.194 0.778,-0.284 0.036,0.022 0.071,0.04 0.107,0.065 0.078,0.052 0.212,0.201 0.375,0.421 C 0.387,-0.138 0.194,-0.071 0,0" />
        </g>
        <g
           transform="translate(321.9885,716.7722)"
           id="g68328">
          <path
             id="path68330"
             style="fill:#ffffff;fill-opacity:1;fill-rule:nonzero;stroke:none"
             d="m 0,0 -0.039,-0.08 v 0 C -0.026,-0.053 -0.013,-0.027 0,0 M 0.23,0.476 0.175,0.362 C 0.194,0.4 0.212,0.437 0.231,0.475 Z" />
        </g>
        <g
           transform="translate(324.9258,714.5892)"
           id="g68332">
          <path
             id="path68334"
             style="fill:#ffffff;fill-opacity:1;fill-rule:nonzero;stroke:none"
             d="m 0,0 c -0.321,0 -0.581,0.262 -0.581,0.579 0,0.323 0.26,0.583 0.581,0.583 0.319,0 0.579,-0.26 0.579,-0.583 C 0.579,0.262 0.319,0 0,0 M 0.38,6.283 C 0.343,6.283 0.311,6.281 0.284,6.278 0.075,6.255 -0.131,6.167 -0.326,6.024 -0.475,5.913 -0.618,5.772 -0.751,5.597 -1.298,4.884 -1.694,3.644 -1.711,2.016 L -2.707,2.658 C -2.725,2.62 -2.744,2.583 -2.762,2.545 L -2.937,2.183 C -2.95,2.156 -2.963,2.13 -2.976,2.103 l 1.255,-0.808 c -1.073,-0.743 -1.753,-1.94 -1.753,-3.068 0,-0.139 0.014,-0.277 0.034,-0.412 0.016,-0.102 0.034,-0.206 0.063,-0.308 0.066,-0.228 0.16,-0.434 0.28,-0.614 0.357,-0.529 0.943,-0.837 1.684,-0.896 0.094,-0.344 0.345,-1.001 0.926,-1.253 0.155,-0.067 0.318,-0.101 0.49,-0.101 0.324,0 0.679,0.119 1.06,0.355 -0.26,0.09 -0.52,0.183 -0.779,0.284 -0.102,-0.029 -0.198,-0.045 -0.288,-0.045 -0.089,0 -0.171,0.015 -0.246,0.047 -0.162,0.072 -0.29,0.215 -0.388,0.376 -0.143,0.239 -0.221,0.516 -0.245,0.65 l -0.024,0.147 c -0.07,0.033 -0.139,0.066 -0.209,0.1 h -0.058 c -0.729,0 -1.257,0.29 -1.521,0.821 -0.045,0.09 -0.085,0.186 -0.114,0.289 -0.267,0.951 0.192,2.415 1.569,3.26 l 0.043,0.028 0.059,-0.037 C -1.171,0.809 -1.191,0.699 -1.191,0.579 c 0,-0.655 0.533,-1.191 1.191,-1.191 0.654,0 1.189,0.536 1.189,1.191 0,0.66 -0.535,1.195 -1.189,1.195 -0.32,0 -0.607,-0.127 -0.822,-0.332 l -0.297,0.19 c -0.045,1.779 0.376,3.036 0.863,3.643 0.163,0.204 0.332,0.337 0.494,0.39 C 0.276,5.677 0.312,5.688 0.347,5.691 0.363,5.692 0.378,5.693 0.393,5.693 0.608,5.693 0.81,5.53 0.979,5.236 1.102,5.022 1.207,4.739 1.288,4.403 1.324,4.256 1.355,4.105 1.38,3.939 L 1.472,3.352 1.884,3.779 c 0.083,0.084 0.163,0.16 0.24,0.23 0.214,0.192 0.408,0.327 0.58,0.403 C 2.812,4.458 2.91,4.483 2.997,4.483 3.056,4.483 3.11,4.472 3.158,4.449 3.275,4.394 3.369,4.275 3.447,4.126 3.553,3.923 3.623,3.664 3.661,3.42 3.696,3.198 3.707,2.988 3.691,2.854 3.288,-0.764 1.505,-3.662 0.964,-4.314 1.158,-4.386 1.351,-4.452 1.545,-4.516 2.336,-3.453 3.901,-0.584 4.277,2.788 4.289,2.891 4.29,3.05 4.276,3.231 4.546,3.156 4.817,3.089 5.089,3.028 5.091,3.034 5.094,3.039 5.096,3.044 5.206,3.263 5.33,3.439 5.466,3.572 5.03,3.658 4.595,3.762 4.165,3.891 4.043,4.344 3.815,4.794 3.41,4.985 3.28,5.046 3.143,5.077 3,5.077 2.708,5.077 2.388,4.95 2.043,4.699 1.981,4.655 1.918,4.607 1.854,4.555 1.832,4.65 1.808,4.736 1.782,4.82 1.391,6.109 0.706,6.283 0.38,6.283" />
        </g>
        <g
           transform="translate(343.2007,721.3663)"
           id="g68336">
          <path
             id="path68338"
             style="fill:#ffffff;fill-opacity:1;fill-rule:nonzero;stroke:none"
             d="m 0,0 -0.294,-0.214 c -0.069,-0.05 -0.138,-0.1 -0.208,-0.149 -1.378,-0.979 -2.801,-1.732 -4.258,-2.255 l 0.343,-0.14 -0.38,-0.327 c -0.093,-0.079 -0.181,-0.171 -0.264,-0.274 1.653,0.54 3.265,1.363 4.822,2.458 0.264,-0.534 3.225,-6.557 3.507,-7.129 0.004,-0.008 0.007,-0.014 0.01,-0.02 -0.36,-0.251 -0.723,-0.491 -1.087,-0.72 -2.745,-1.726 -5.615,-2.842 -8.581,-3.334 0.006,-0.209 0.012,-0.415 0.02,-0.618 3.449,0.558 6.775,1.931 9.926,4.111 0.097,0.067 0.194,0.135 0.291,0.204 l 0.214,0.151 v 0 l -0.424,0.862 z" />
        </g>
        <g
           transform="translate(326.4706,710.0732)"
           id="g68340">
          <path
             id="path68342"
             style="fill:#ffffff;fill-opacity:1;fill-rule:nonzero;stroke:none"
             d="M 0,0 V 0 C -0.163,-0.22 -0.296,-0.369 -0.375,-0.421 -0.411,-0.446 -0.446,-0.465 -0.481,-0.486 0.625,-0.868 1.745,-1.16 2.88,-1.364 2.868,-1.157 2.858,-0.947 2.848,-0.734 1.889,-0.554 0.939,-0.31 0,0" />
        </g>
        <g
           transform="translate(332.4519,703.6535)"
           id="g68344">
          <path
             id="path68346"
             style="fill:#ffffff;fill-opacity:1;fill-rule:nonzero;stroke:none"
             d="m 0,0 c -0.303,0 -0.605,0.05 -0.894,0.143 -0.247,0.079 -0.483,0.186 -0.709,0.312 -0.286,0.308 -0.43,0.561 -0.433,0.568 -0.283,0.639 -1.142,10.425 0.203,12.781 0.14,0.242 0.288,0.374 0.441,0.39 0.059,0.011 3.055,0.598 5.239,0.598 0.511,0 0.977,-0.032 1.351,-0.111 C 4.043,13.174 3.729,9.903 3.729,6.846 3.729,4.012 3.989,1.398 4.078,0.581 3.681,0.326 3.254,0.124 2.796,0.013 2.567,-0.044 2.33,-0.075 2.093,-0.075 c -0.121,0 -0.242,0.008 -0.362,0.025 0,0 -0.647,0.628 -0.267,1.157 0.061,0.087 0.159,0.166 0.261,0.166 0.034,0 0.068,-0.008 0.101,-0.028 C 1.886,1.212 1.917,1.135 1.984,1.111 2.015,1.1 2.059,1.095 2.103,1.095 2.144,1.095 2.185,1.099 2.214,1.107 2.331,1.138 2.45,1.402 2.452,1.515 2.458,1.693 2.304,1.91 2.14,1.971 2.097,1.987 2.054,1.994 2.012,1.994 1.739,1.994 1.493,1.69 1.326,1.513 1.546,1.88 1.65,2.385 1.428,2.774 c 0,0 -0.365,0.461 -0.358,0.632 H 1.069 C 1.062,3.235 0.666,2.802 0.666,2.802 0.417,2.429 0.486,1.917 0.678,1.535 0.521,1.729 0.286,2.065 0.001,2.065 -0.032,2.065 -0.066,2.06 -0.101,2.05 -0.268,2.001 -0.437,1.795 -0.445,1.618 -0.449,1.502 -0.37,1.297 -0.274,1.227 c 0.05,-0.037 0.139,-0.043 0.203,-0.043 0.006,0 0.013,0 0.019,0 0.111,0.006 0.121,0.075 0.212,0.121 0.029,0.014 0.058,0.02 0.087,0.02 0.109,0 0.209,-0.091 0.267,-0.185 C 0.855,0.586 0.164,0.005 0.164,0.005 0.11,0.002 0.055,0 0,0 m 3.875,15.414 c -2.259,0 -5.195,-0.582 -5.36,-0.616 -0.207,-0.022 -0.401,-0.12 -0.575,-0.291 -0.136,-0.132 -0.26,-0.308 -0.37,-0.527 -0.002,-0.005 -0.005,-0.01 -0.008,-0.016 -0.743,-1.508 -0.834,-5.177 -0.695,-8.278 0.009,-0.213 0.02,-0.424 0.031,-0.63 0.091,-1.624 0.241,-3.027 0.383,-3.783 -0.261,0.21 -0.536,0.378 -0.926,0.383 -0.007,0 -0.014,0 -0.021,0 -0.291,0 -0.538,-0.088 -0.704,-0.251 -0.283,-0.202 -0.449,-0.516 -0.405,-0.845 0.057,-0.464 0.508,-0.795 1.041,-0.795 0.053,0 0.108,0.003 0.163,0.01 0.331,0.043 0.608,0.209 0.782,0.435 0.237,-0.372 1.287,-0.83 1.994,-1.106 0.201,-0.095 0.42,-0.178 0.656,-0.243 l 0.007,-0.002 c -0.18,-0.28 -0.118,-0.584 -0.118,-0.584 0.04,-0.399 0.451,-0.499 0.451,-0.499 0.365,-0.115 0.583,-0.442 0.583,-0.442 l 0.142,-0.005 c 0,0 0.239,0.313 0.612,0.398 0,0 0.416,0.071 0.489,0.47 0,0 0.079,0.295 -0.081,0.588 0,0 2.342,0.616 2.748,1.16 l 0.022,0.019 c 0.159,-0.202 0.403,-0.358 0.695,-0.421 0.09,-0.02 0.18,-0.029 0.267,-0.029 0.486,0 0.909,0.284 0.999,0.711 C 6.784,0.73 6.391,1.24 5.8,1.368 5.709,1.387 5.62,1.396 5.533,1.396 5.178,1.396 4.859,1.244 4.677,0.997 L 4.653,0.979 C 4.575,1.764 4.444,3.259 4.379,4.991 4.371,5.194 4.364,5.4 4.359,5.609 4.33,6.665 4.33,7.785 4.384,8.869 c 0.01,0.206 0.022,0.412 0.036,0.614 0.144,2.069 0.506,3.932 1.267,4.871 0.084,0.102 0.172,0.194 0.265,0.274 l 0.38,0.326 -0.343,0.141 -0.119,0.048 c -0.477,0.198 -1.194,0.271 -1.995,0.271" />
        </g>
        <g
           transform="translate(340.3772,743.6595)"
           id="g68348">
          <path
             id="path68350"
             style="fill:#ffffff;fill-opacity:1;fill-rule:nonzero;stroke:none"
             d="m 0,0 0.024,0.168 c 0,0 0.924,-0.381 1.111,-1.33 0,0 0.45,-1.542 0.45,-1.614 0,-0.047 0.119,-0.478 0.407,-0.758 l -0.004,0.023 c 0.032,-0.007 0.063,-0.011 0.094,-0.011 0.382,0 0.686,0.508 0.686,0.508 0.473,0.593 1.276,0.753 1.276,0.753 -0.204,0.028 -0.276,0.363 -0.276,0.363 -0.057,0.626 0.335,1.107 0.335,1.107 0.055,0.057 0.109,0.082 0.16,0.082 0.342,0 0.594,-1.101 0.594,-1.101 0,-0.334 -0.276,-0.482 -0.276,-0.482 0.511,-0.06 1.206,-0.602 1.395,-0.755 0.23,-0.083 0.42,-0.157 0.42,-0.157 0.298,0.5 0.683,0.632 0.683,0.632 0.121,0.05 0.234,0.071 0.337,0.071 0.617,0 0.92,-0.759 0.92,-0.759 0.034,-0.01 0.064,-0.015 0.091,-0.015 0.222,0 0.199,0.345 0.199,0.345 C 8.974,-3.229 8.514,-3.693 8.514,-3.693 8.569,-3.928 8.539,-4.249 8.486,-4.486 8.313,-5.257 7.577,-5.58 6.911,-5.838 6.626,-5.948 6.589,-6.416 6.921,-6.499 6.94,-6.504 6.958,-6.506 6.977,-6.506 c 0.132,0 0.261,0.108 0.346,0.197 C 7.308,-6.327 7.34,-6.491 7.34,-6.523 7.336,-6.582 7.326,-6.633 7.298,-6.686 7.245,-6.797 7.136,-6.903 7.018,-6.94 6.952,-6.96 6.888,-6.969 6.825,-6.969 6.498,-6.969 6.222,-6.714 6.137,-6.395 6.132,-6.369 6.103,-6.267 6.092,-6.18 5.772,-6.353 5.519,-6.43 5.519,-6.43 5.458,-6.445 5.398,-6.46 5.339,-6.476 5.113,-6.855 4.562,-8.052 5.272,-9.954 H 5.239 c 1.11,-0.146 1.906,-0.538 1.906,-1.005 H 1.49 c 0,0.467 0.797,0.859 1.907,1.005 H 3.341 c 0.671,1.808 0.206,2.98 -0.034,3.415 -0.197,0.044 -0.388,0.099 -0.573,0.172 0,0 -0.191,0.036 -0.243,0.091 l -0.013,0.031 c -0.288,0.186 -0.936,0.642 -1.294,1.237 0,0 -0.381,0.594 -0.428,1.45 0,0 0.024,2.065 -0.307,2.465 0,0 -0.383,0.93 -0.974,0.93 -0.015,0 -0.029,-0.001 -0.044,-0.002 0,0 0.049,0.194 0.347,0.194 C -0.16,0.029 -0.086,0.021 0,0 M 10.337,4.249 H -2.186 l -0.029,-16.881 c 0.052,-0.125 0.109,-0.248 0.17,-0.369 1.078,-2.145 3.415,-3.631 6.122,-3.631 2.815,0 5.224,1.609 6.239,3.895 0.016,0.036 0.021,0.107 0.021,0.107 V 3.913 Z" />
        </g>
        <g
           transform="translate(347.732,740.6769)"
           id="g68352">
          <path
             id="path68354"
             style="fill:#ffffff;fill-opacity:1;fill-rule:nonzero;stroke:none"
             d="m 0,0 c -0.318,0 -0.474,-0.314 -0.617,-0.579 -0.099,-0.182 0.056,-1.278 0.538,-1.534 0,0 0.696,0.151 0.832,0.777 C 0.868,-0.82 0.669,-0.049 0.035,-0.001 0.023,0 0.011,0 0,0" />
        </g>
        <g
           transform="translate(320.7446,766.1207)"
           id="g68356">
          <path
             id="path68358"
             style="fill:#ffffff;fill-opacity:1;fill-rule:nonzero;stroke:none"
             d="m 0,0 -0.512,1.067 c 0.179,0.436 0.726,1.825 1.65,2.583 V 0 Z M 3.126,0 V 3.65 C 4.034,2.912 4.603,1.559 4.82,1.067 L 4.336,0 Z M 1.652,6.385 V 6.789 H 1.909 V 7.221 H 2.14 2.198 2.428 V 6.789 H 2.686 V 6.385 H 2.398 V 5.969 c 2.713,-0.95 3.1,-3.457 3.1,-3.457 L 5.044,1.498 C 4.715,2.219 3.911,3.799 2.954,4.415 L 2.756,4.542 V 4.305 0 H 2.168 1.552 V 4.542 L 1.353,4.415 C 0.385,3.79 -0.391,2.174 -0.695,1.468 l -0.467,1.044 c 0,0 0.387,2.507 3.101,3.457 v 0.416 z m -0.143,5.82 c -2.228,0 -4.242,-1.052 -5.426,-2.805 L -4.013,9.873 -3.917,9.4 -3.939,9.372 -3.889,9.254 c 1.424,-3.429 2.512,-7.12 3.243,-10.965 0.221,-0.077 0.385,-0.246 0.568,-0.436 0.193,-0.204 0.361,-0.431 0.552,-0.636 0.116,-0.124 0.22,-0.26 0.338,-0.26 0.055,0 0.114,0.03 0.178,0.105 0.096,0.118 0.189,0.248 0.277,0.386 -0.419,0.071 -0.753,0.192 -0.878,0.365 l -0.002,-0.002 -0.004,0.008 -0.01,0.014 c -0.095,0.156 -0.251,1.131 -0.317,1.558 l -0.04,0.198 h 4.337 c 0,0 -0.227,-1.576 -0.347,-1.76 L 4.004,-2.178 3.993,-2.189 v 0.002 C 3.884,-2.335 3.621,-2.445 3.285,-2.518 c 0.092,-0.148 0.191,-0.293 0.298,-0.42 0.063,-0.075 0.121,-0.105 0.176,-0.105 0.117,0 0.222,0.136 0.338,0.26 0.188,0.206 0.358,0.434 0.553,0.636 0.251,0.264 0.459,0.493 0.841,0.493 0.016,0 0.033,-0.001 0.05,-0.002 0.592,-0.035 1.066,-0.426 1.68,-1.062 -0.013,-0.003 -0.032,-0.004 -0.054,-0.004 -0.093,0 -0.246,0.023 -0.305,0.028 L 6.773,-3.02 5.994,-2.307 C 5.889,-2.21 5.784,-2.17 5.68,-2.17 5.339,-2.17 5.021,-2.606 4.81,-2.859 4.552,-3.166 4.18,-3.631 3.743,-3.631 3.72,-3.631 3.696,-3.63 3.673,-3.627 3.279,-3.584 2.945,-3.078 2.79,-2.751 2.784,-2.737 2.756,-2.68 2.721,-2.601 2.548,-2.616 2.369,-2.626 2.19,-2.626 c -0.115,0 -0.232,0.004 -0.347,0.01 C 1.81,-2.685 1.786,-2.737 1.78,-2.751 1.624,-3.079 1.291,-3.584 0.898,-3.628 0.875,-3.631 0.852,-3.632 0.829,-3.632 c -0.438,0 -0.811,0.466 -1.068,0.773 -0.073,0.087 -0.158,0.194 -0.252,0.298 0.314,-1.787 0.551,-3.605 0.708,-5.443 h 7.218 c 0,0.647 0.002,16.48 0.002,16.525 -1.002,2.237 -3.319,3.684 -5.928,3.684" />
        </g>
        <g
           transform="translate(329.2455,750.4192)"
           id="g68360">
          <path
             id="path68362"
             style="fill:#ffffff;fill-opacity:1;fill-rule:nonzero;stroke:none"
             d="m 0,0 v -1.889 c 0.003,-0.028 0.103,-0.65 0.979,-0.761 v 2.214 C 0.488,-0.387 0.183,-0.201 0,0" />
        </g>
        <g
           transform="translate(329.2455,752.8159)"
           id="g68364">
          <path
             id="path68366"
             style="fill:#ffffff;fill-opacity:1;fill-rule:nonzero;stroke:none"
             d="m 0,0 v -1.848 c 0.017,-0.033 0.04,-0.078 0.044,-0.084 0.083,-0.206 0.318,-0.54 0.935,-0.61 v 2.108 C 0.488,-0.385 0.185,-0.201 0,0" />
        </g>
        <g
           transform="translate(329.2466,757.6108)"
           id="g68368">
          <path
             id="path68370"
             style="fill:#ffffff;fill-opacity:1;fill-rule:nonzero;stroke:none"
             d="m 0,0 v -1.849 c 0.017,-0.033 0.039,-0.075 0.043,-0.082 0.083,-0.207 0.318,-0.541 0.935,-0.61 v 2.109 C 0.487,-0.385 0.184,-0.2 0,0" />
        </g>
        <g
           transform="translate(329.2466,755.215)"
           id="g68372">
          <path
             id="path68374"
             style="fill:#ffffff;fill-opacity:1;fill-rule:nonzero;stroke:none"
             d="m 0,0 -0.001,-1.851 c 0.018,-0.033 0.04,-0.076 0.042,-0.083 0.085,-0.206 0.32,-0.54 0.937,-0.609 v 2.108 C 0.487,-0.388 0.184,-0.202 0,0" />
        </g>
        <g
           transform="translate(330.5393,757.6261)"
           id="g68376">
          <path
             id="path68378"
             style="fill:#ffffff;fill-opacity:1;fill-rule:nonzero;stroke:none"
             d="M 0,0 C -0.491,0.015 -0.767,0.177 -0.927,0.346 H 5.839 L 6.294,0 Z m 6.446,0.559 h -7.574 c -0.082,0 -0.12,-0.033 -0.142,-0.069 l 0.02,-0.039 c 0.091,-0.226 0.357,-0.607 1.141,-0.631 H 6.61 v 0.575 c 0,0.089 -0.075,0.164 -0.164,0.164" />
        </g>
        <g
           transform="translate(337.4748,757.1659)"
           id="g68380">
          <path
             id="path68382"
             style="fill:#ffffff;fill-opacity:1;fill-rule:nonzero;stroke:none"
             d="m 0,0 h -0.117 l -0.041,-0.002 -6.804,-0.002 v -9.41 H 0 c 0.091,0 0.162,0.074 0.162,0.165 v 9.084 C 0.162,-0.074 0.091,0 0,0" />
        </g>
        <g
           transform="translate(316.6457,776.4177)"
           id="g68384">
          <path
             id="path68386"
             style="fill:#ffffff;fill-opacity:1;fill-rule:nonzero;stroke:none"
             d="m 0,0 c -0.049,-0.061 -0.098,-0.123 -0.146,-0.186 l 0.041,-0.107 0.259,-0.616 0.006,-0.016 0.022,0.028 -0.096,0.473 z" />
        </g>
        <g
           transform="translate(311.7007,784.6824)"
           id="g68388">
          <path
             id="path68390"
             style="fill:#ffffff;fill-opacity:1;fill-rule:nonzero;stroke:none"
             d="m 0,0 c 0.002,-0.005 0.005,-0.009 0.007,-0.014 l 0.19,-0.227 c 0.032,-0.063 0.05,-0.095 0.05,-0.095 0,0 3.256,-5.809 4.267,-7.612 l 0.207,-0.363 v 0.002 c -0.65,1.157 -4.471,7.973 -4.471,7.973 0,0 -0.017,0.032 -0.048,0.095 z" />
        </g>
        <g
           transform="translate(316.9367,799.3701)"
           id="g68392">
          <path
             id="path68394"
             style="fill:#ffffff;fill-opacity:1;fill-rule:nonzero;stroke:none"
             d="m 0,0 -0.274,-0.13 -10.324,-4.91 3.686,-7.466 0.259,-0.485 1.417,-1.697 c -1.026,2.085 -3.914,8.096 -4.54,9.361 0.517,0.246 8.989,4.275 9.49,4.513 0.11,-0.226 1.496,-3.08 2.987,-6.151 1.819,-3.748 3.794,-7.818 3.794,-7.818 0,0 0.057,-0.118 0.159,-0.328 0.522,-1.074 2.213,-4.557 3.361,-6.924 -1.268,1.052 -2.922,1.664 -4.698,1.664 -2.227,0 -4.269,-0.953 -5.608,-2.581 l 0.086,-0.425 0.096,-0.473 c 1.184,1.754 3.197,2.805 5.426,2.805 2.609,0 4.926,-1.446 5.928,-3.684 0,-0.044 -0.002,-15.878 -0.002,-16.525 H 4.025 l 0.034,-0.672 h 7.856 v 17.219 l 0.001,0.059 v 0.07 l -0.002,0.004 -0.026,0.06 -0.003,0.007 v 0.017 l -4.727,9.741 -0.993,2.046 -1.224,2.522 -1.73,3.564 z" />
        </g>
        <g
           transform="translate(319.5244,750.5842)"
           id="g68396">
          <path
             id="path68398"
             style="fill:#ffffff;fill-opacity:1;fill-rule:nonzero;stroke:none"
             d="m 0,0 h -7.545 c -0.003,-0.137 -0.012,-0.272 -0.019,-0.408 h 7.55 C -0.009,-0.272 -0.005,-0.136 0,0" />
        </g>
        <g
           transform="translate(319.4627,749.115)"
           id="g68400">
          <path
             id="path68402"
             style="fill:#ffffff;fill-opacity:1;fill-rule:nonzero;stroke:none"
             d="M 0,0 H -7.557 C -7.566,-0.137 -7.58,-0.271 -7.591,-0.408 h 7.565 C -0.017,-0.272 -0.008,-0.137 0,0" />
        </g>
        <g
           transform="translate(313.4684,778.5021)"
           id="g68404">
          <path
             id="path68406"
             style="fill:#ffffff;fill-opacity:1;fill-rule:nonzero;stroke:none"
             d="m 0,0 h -9.816 c 0.115,-0.137 0.23,-0.269 0.344,-0.408 H 0.216 C 0.145,-0.271 0.071,-0.137 0,0" />
        </g>
        <g
           transform="translate(319.3643,747.647)"
           id="g68408">
          <path
             id="path68410"
             style="fill:#ffffff;fill-opacity:1;fill-rule:nonzero;stroke:none"
             d="m 0,0 h -7.581 c -0.014,-0.138 -0.03,-0.272 -0.044,-0.409 h 7.591 C -0.023,-0.272 -0.011,-0.138 0,0" />
        </g>
        <g
           transform="translate(319.5471,753.5223)"
           id="g68412">
          <path
             id="path68414"
             style="fill:#ffffff;fill-opacity:1;fill-rule:nonzero;stroke:none"
             d="m 0,0 h -7.542 c 0.002,-0.135 0.005,-0.271 0.005,-0.406 H 0.005 C 0.003,-0.271 0.003,-0.135 0,0" />
        </g>
        <g
           transform="translate(319.5525,752.0554)"
           id="g68416">
          <path
             id="path68418"
             style="fill:#ffffff;fill-opacity:1;fill-rule:nonzero;stroke:none"
             d="M 0,0 H -7.539 C -7.54,-0.139 -7.543,-0.274 -7.546,-0.408 h 7.542 C -0.002,-0.274 0,-0.137 0,0" />
        </g>
        <g
           transform="translate(310.7747,782.9095)"
           id="g68420">
          <path
             id="path68422"
             style="fill:#ffffff;fill-opacity:1;fill-rule:nonzero;stroke:none"
             d="m 0,0 h -12.048 c 0.201,-0.128 0.398,-0.269 0.597,-0.408 H 0.285 C 0.189,-0.27 0.096,-0.134 0,0" />
        </g>
        <g
           transform="translate(311.7581,781.4404)"
           id="g68424">
          <path
             id="path68426"
             style="fill:#ffffff;fill-opacity:1;fill-rule:nonzero;stroke:none"
             d="m 0,0 h -11.037 c 0.159,-0.133 0.315,-0.271 0.47,-0.409 H 0.257 C 0.173,-0.271 0.087,-0.136 0,0" />
        </g>
        <g
           transform="translate(316.7809,734.4213)"
           id="g68428">
          <path
             id="path68430"
             style="fill:#ffffff;fill-opacity:1;fill-rule:nonzero;stroke:none"
             d="m 0,0 h -2.553 c 0.055,-0.137 0.112,-0.271 0.169,-0.408 h 2.25 C -0.089,-0.271 -0.045,-0.135 0,0" />
        </g>
        <g
           transform="translate(319.2312,746.1766)"
           id="g68432">
          <path
             id="path68434"
             style="fill:#ffffff;fill-opacity:1;fill-rule:nonzero;stroke:none"
             d="M 0,0 H -7.618 C -7.635,-0.135 -7.651,-0.272 -7.67,-0.408 h 7.627 C -0.028,-0.271 -0.014,-0.135 0,0" />
        </g>
        <g
           transform="translate(319.506,754.9936)"
           id="g68436">
          <path
             id="path68438"
             style="fill:#ffffff;fill-opacity:1;fill-rule:nonzero;stroke:none"
             d="m 0,0 h -7.551 c 0.007,-0.137 0.014,-0.272 0.019,-0.409 H 0.014 C 0.011,-0.272 0.004,-0.137 0,0" />
        </g>
        <g
           transform="translate(312.6516,779.9713)"
           id="g68440">
          <path
             id="path68442"
             style="fill:#ffffff;fill-opacity:1;fill-rule:nonzero;stroke:none"
             d="m 0,0 h -10.333 c 0.133,-0.132 0.259,-0.272 0.389,-0.409 H 0.236 C 0.158,-0.271 0.079,-0.137 0,0" />
        </g>
        <g
           transform="translate(318.5128,763.8087)"
           id="g68444">
          <path
             id="path68446"
             style="fill:#ffffff;fill-opacity:1;fill-rule:nonzero;stroke:none"
             d="m 0,0 h -7.801 c 0.034,-0.135 0.061,-0.271 0.091,-0.408 H 0.078 C 0.051,-0.271 0.026,-0.136 0,0" />
        </g>
        <g
           transform="translate(316.6078,771.1564)"
           id="g68448">
          <path
             id="path68450"
             style="fill:#ffffff;fill-opacity:1;fill-rule:nonzero;stroke:none"
             d="m 0,0 h -8.396 c 0.062,-0.137 0.121,-0.273 0.183,-0.41 H 0.135 C 0.09,-0.273 0.044,-0.138 0,0" />
        </g>
        <g
           transform="translate(319.4302,756.4628)"
           id="g68452">
          <path
             id="path68454"
             style="fill:#ffffff;fill-opacity:1;fill-rule:nonzero;stroke:none"
             d="m 0,0 h -7.569 c 0.012,-0.137 0.026,-0.271 0.034,-0.409 h 7.56 C 0.015,-0.273 0.009,-0.136 0,0" />
        </g>
        <g
           transform="translate(317.5004,768.2159)"
           id="g68456">
          <path
             id="path68458"
             style="fill:#ffffff;fill-opacity:1;fill-rule:nonzero;stroke:none"
             d="m 0,0 h -8.097 c 0.046,-0.135 0.091,-0.273 0.137,-0.408 H 0.109 C 0.075,-0.271 0.038,-0.135 0,0" />
        </g>
        <g
           transform="translate(314.2149,777.0329)"
           id="g68460">
          <path
             id="path68462"
             style="fill:#ffffff;fill-opacity:1;fill-rule:nonzero;stroke:none"
             d="m 0,0 h -9.401 c 0.096,-0.134 0.193,-0.273 0.289,-0.41 H 0.196 C 0.131,-0.273 0.067,-0.137 0,0" />
        </g>
        <g
           transform="translate(316.0896,772.6245)"
           id="g68464">
          <path
             id="path68466"
             style="fill:#ffffff;fill-opacity:1;fill-rule:nonzero;stroke:none"
             d="m 0,0 h -8.585 c 0.069,-0.137 0.142,-0.268 0.21,-0.408 H 0.149 C 0.098,-0.271 0.051,-0.133 0,0" />
        </g>
        <g
           transform="translate(314.8975,775.5638)"
           id="g68468">
          <path
             id="path68470"
             style="fill:#ffffff;fill-opacity:1;fill-rule:nonzero;stroke:none"
             d="m 0,0 h -9.079 c 0.088,-0.135 0.174,-0.271 0.258,-0.408 H 0.177 C 0.119,-0.271 0.06,-0.137 0,0" />
        </g>
        <g
           transform="translate(315.5206,774.0947)"
           id="g68472">
          <path
             id="path68474"
             style="fill:#ffffff;fill-opacity:1;fill-rule:nonzero;stroke:none"
             d="m 0,0 h -8.81 c 0.078,-0.137 0.158,-0.27 0.231,-0.408 H 0.163 C 0.11,-0.271 0.055,-0.137 0,0" />
        </g>
        <g
           transform="translate(317.8778,766.7468)"
           id="g68476">
          <path
             id="path68478"
             style="fill:#ffffff;fill-opacity:1;fill-rule:nonzero;stroke:none"
             d="m 0,0 h -7.98 c 0.04,-0.135 0.08,-0.273 0.121,-0.408 H 0.099 C 0.068,-0.271 0.034,-0.135 0,0" />
        </g>
        <g
           transform="translate(318.2187,765.2776)"
           id="g68480">
          <path
             id="path68482"
             style="fill:#ffffff;fill-opacity:1;fill-rule:nonzero;stroke:none"
             d="m 0,0 h -7.888 c 0.038,-0.135 0.071,-0.271 0.109,-0.408 H 0.084 C 0.056,-0.271 0.028,-0.135 0,0" />
        </g>
        <g
           transform="translate(318.9921,760.8703)"
           id="g68484">
          <path
             id="path68486"
             style="fill:#ffffff;fill-opacity:1;fill-rule:nonzero;stroke:none"
             d="m 0,0 h -7.675 c 0.022,-0.136 0.043,-0.273 0.065,-0.41 H 0.052 C 0.036,-0.273 0.018,-0.136 0,0" />
        </g>
        <g
           transform="translate(319.3221,757.9319)"
           id="g68488">
          <path
             id="path68490"
             style="fill:#ffffff;fill-opacity:1;fill-rule:nonzero;stroke:none"
             d="m 0,0 h -7.598 c 0.016,-0.137 0.034,-0.271 0.048,-0.409 H 0.031 C 0.019,-0.272 0.012,-0.136 0,0" />
        </g>
        <g
           transform="translate(319.1728,759.4023)"
           id="g68492">
          <path
             id="path68494"
             style="fill:#ffffff;fill-opacity:1;fill-rule:nonzero;stroke:none"
             d="m 0,0 h -7.63 c 0.021,-0.137 0.039,-0.274 0.057,-0.411 H 0.048 C 0.032,-0.272 0.016,-0.138 0,0" />
        </g>
        <g
           transform="translate(318.7714,762.3395)"
           id="g68496">
          <path
             id="path68498"
             style="fill:#ffffff;fill-opacity:1;fill-rule:nonzero;stroke:none"
             d="m 0,0 h -7.732 c 0.029,-0.135 0.051,-0.274 0.078,-0.408 H 0.065 C 0.045,-0.271 0.023,-0.137 0,0" />
        </g>
        <g
           transform="translate(318.8547,743.2383)"
           id="g68500">
          <path
             id="path68502"
             style="fill:#ffffff;fill-opacity:1;fill-rule:nonzero;stroke:none"
             d="m 0,0 h -7.145 c 0.026,-0.135 0.046,-0.271 0.073,-0.408 h 7.009 C -0.041,-0.271 -0.02,-0.137 0,0" />
        </g>
        <g
           transform="translate(319.0613,744.7075)"
           id="g68504">
          <path
             id="path68506"
             style="fill:#ffffff;fill-opacity:1;fill-rule:nonzero;stroke:none"
             d="m 0,0 h -7.596 c 0.021,-0.134 0.04,-0.271 0.061,-0.408 h 7.481 C -0.036,-0.271 -0.018,-0.134 0,0" />
        </g>
        <g
           transform="translate(311.3048,745.836)"
           id="g68508">
          <path
             id="path68510"
             style="fill:#ffffff;fill-opacity:1;fill-rule:nonzero;stroke:none"
             d="M 0,0 C 0.03,-0.23 0.063,-0.46 0.095,-0.688 0.063,-0.46 0.031,-0.23 0,0" />
        </g>
        <g
           transform="translate(318.6124,741.7693)"
           id="g68512">
          <path
             id="path68514"
             style="fill:#ffffff;fill-opacity:1;fill-rule:nonzero;stroke:none"
             d="m 0,0 h -6.613 c 0.029,-0.135 0.058,-0.274 0.089,-0.408 h 6.448 C -0.052,-0.274 -0.025,-0.137 0,0" />
        </g>
        <g
           transform="translate(318.0066,738.8298)"
           id="g68516">
          <path
             id="path68518"
             style="fill:#ffffff;fill-opacity:1;fill-rule:nonzero;stroke:none"
             d="m 0,0 h -5.281 c 0.037,-0.137 0.08,-0.272 0.119,-0.409 h 5.064 C -0.066,-0.273 -0.033,-0.137 0,0" />
        </g>
        <g
           transform="translate(318.3279,740.299)"
           id="g68520">
          <path
             id="path68522"
             style="fill:#ffffff;fill-opacity:1;fill-rule:nonzero;stroke:none"
             d="m 0,0 h -5.992 c 0.035,-0.137 0.07,-0.272 0.106,-0.409 h 5.801 C -0.055,-0.273 -0.029,-0.136 0,0" />
        </g>
        <g
           transform="translate(310.4837,722.6672)"
           id="g68524">
          <path
             id="path68526"
             style="fill:#ffffff;fill-opacity:1;fill-rule:nonzero;stroke:none"
             d="m 0,0 h -10.987 c -0.198,-0.14 -0.395,-0.277 -0.597,-0.408 H 0.265 C 0.176,-0.271 0.087,-0.136 0,0" />
        </g>
        <g
           transform="translate(309.5815,724.1373)"
           id="g68528">
          <path
             id="path68530"
             style="fill:#ffffff;fill-opacity:1;fill-rule:nonzero;stroke:none"
             d="m 0,0 h -8.254 c -0.157,-0.141 -0.313,-0.273 -0.47,-0.409 H 0.238 C 0.156,-0.273 0.079,-0.136 0,0" />
        </g>
        <g
           transform="translate(308.7528,725.6065)"
           id="g68532">
          <path
             id="path68534"
             style="fill:#ffffff;fill-opacity:1;fill-rule:nonzero;stroke:none"
             d="M 0,0 H -5.936 C -6.063,-0.136 -6.187,-0.278 -6.315,-0.41 H 0.22 C 0.145,-0.273 0.074,-0.136 0,0" />
        </g>
        <g
           transform="translate(317.6399,737.3607)"
           id="g68536">
          <path
             id="path68538"
             style="fill:#ffffff;fill-opacity:1;fill-rule:nonzero;stroke:none"
             d="m 0,0 h -4.472 c 0.042,-0.138 0.087,-0.273 0.133,-0.409 h 4.232 C -0.07,-0.273 -0.036,-0.136 0,0" />
        </g>
        <g
           transform="translate(307.9945,727.0757)"
           id="g68540">
          <path
             id="path68542"
             style="fill:#ffffff;fill-opacity:1;fill-rule:nonzero;stroke:none"
             d="M 0,0 H -3.9 C -4.012,-0.141 -4.129,-0.271 -4.243,-0.409 H 0.2 C 0.132,-0.273 0.067,-0.137 0,0" />
        </g>
        <g
           transform="translate(307.2977,728.5437)"
           id="g68544">
          <path
             id="path68546"
             style="fill:#ffffff;fill-opacity:1;fill-rule:nonzero;stroke:none"
             d="m 0,0 h -2.115 c -0.093,-0.135 -0.184,-0.275 -0.281,-0.407 h 2.58 C 0.122,-0.273 0.061,-0.135 0,0" />
        </g>
        <g
           transform="translate(316.28,732.9545)"
           id="g68548">
          <path
             id="path68550"
             style="fill:#ffffff;fill-opacity:1;fill-rule:nonzero;stroke:none"
             d="m 0,0 h -1.44 c 0.06,-0.139 0.126,-0.274 0.188,-0.41 h 1.104 C -0.097,-0.274 -0.049,-0.139 0,0" />
        </g>
        <g
           transform="translate(317.2342,735.8905)"
           id="g68552">
          <path
             id="path68554"
             style="fill:#ffffff;fill-opacity:1;fill-rule:nonzero;stroke:none"
             d="m 0,0 h -3.569 c 0.049,-0.135 0.096,-0.273 0.146,-0.408 h 3.3 C -0.081,-0.271 -0.04,-0.135 0,0" />
        </g>
        <g
           transform="translate(309.1877,763.3018)"
           id="g68556">
          <path
             id="path68558"
             style="fill:#ffffff;fill-opacity:1;fill-rule:nonzero;stroke:none"
             d="M 0,0 C 0.026,-0.109 0.05,-0.22 0.076,-0.331 0.05,-0.22 0.026,-0.109 0,0" />
        </g>
        <g
           transform="translate(309.4127,762.2982)"
           id="g68560">
          <path
             id="path68562"
             style="fill:#ffffff;fill-opacity:1;fill-rule:nonzero;stroke:none"
             d="M 0,0 C 0.042,-0.206 0.084,-0.412 0.123,-0.618 0.084,-0.412 0.042,-0.206 0,0" />
        </g>
        <g
           transform="translate(309.6907,784.3797)"
           id="g68564">
          <path
             id="path68566"
             style="fill:#ffffff;fill-opacity:1;fill-rule:nonzero;stroke:none"
             d="m 0,0 h -13.796 c 0.311,-0.127 0.623,-0.262 0.929,-0.409 H 0.314 C 0.211,-0.27 0.106,-0.136 0,0" />
        </g>
        <g
           transform="translate(317.0751,769.6851)"
           id="g68568">
          <path
             id="path68570"
             style="fill:#ffffff;fill-opacity:1;fill-rule:nonzero;stroke:none"
             d="m 0,0 h -8.231 c 0.054,-0.133 0.103,-0.271 0.155,-0.408 h 8.2 C 0.083,-0.271 0.041,-0.135 0,0" />
        </g>
        <g
           transform="translate(271.4165,735.8905)"
           id="g68572">
          <path
             id="path68574"
             style="fill:#ffffff;fill-opacity:1;fill-rule:nonzero;stroke:none"
             d="m 0,0 h -8.19 c 0.04,-0.135 0.082,-0.271 0.123,-0.408 H 0.154 C 0.101,-0.273 0.052,-0.135 0,0" />
        </g>
        <g
           transform="translate(272.0169,734.4213)"
           id="g68576">
          <path
             id="path68578"
             style="fill:#ffffff;fill-opacity:1;fill-rule:nonzero;stroke:none"
             d="m 0,0 h -8.335 c 0.043,-0.135 0.086,-0.271 0.131,-0.408 h 8.38 C 0.117,-0.273 0.059,-0.135 0,0" />
        </g>
        <g
           transform="translate(270.4082,738.8298)"
           id="g68580">
          <path
             id="path68582"
             style="fill:#ffffff;fill-opacity:1;fill-rule:nonzero;stroke:none"
             d="m 0,0 h -7.953 c 0.031,-0.137 0.066,-0.273 0.099,-0.409 H 0.122 C 0.079,-0.273 0.041,-0.136 0,0" />
        </g>
        <g
           transform="translate(270.882,737.3607)"
           id="g68584">
          <path
             id="path68586"
             style="fill:#ffffff;fill-opacity:1;fill-rule:nonzero;stroke:none"
             d="m 0,0 h -8.06 c 0.034,-0.136 0.069,-0.273 0.106,-0.409 H 0.137 C 0.089,-0.274 0.047,-0.136 0,0" />
        </g>
        <g
           transform="translate(272.692,732.9545)"
           id="g68588">
          <path
             id="path68590"
             style="fill:#ffffff;fill-opacity:1;fill-rule:nonzero;stroke:none"
             d="m 0,0 h -8.512 c 0.05,-0.139 0.099,-0.274 0.149,-0.41 H 0.203 C 0.135,-0.274 0.067,-0.139 0,0" />
        </g>
        <g
           transform="translate(274.3103,730.0129)"
           id="g68592">
          <path
             id="path68594"
             style="fill:#ffffff;fill-opacity:1;fill-rule:nonzero;stroke:none"
             d="m 0,0 h -8.977 c 0.06,-0.137 0.118,-0.272 0.176,-0.407 H 0.258 C 0.17,-0.272 0.084,-0.137 0,0" />
        </g>
        <g
           transform="translate(275.2774,728.5437)"
           id="g68596">
          <path
             id="path68598"
             style="fill:#ffffff;fill-opacity:1;fill-rule:nonzero;stroke:none"
             d="m 0,0 h -9.282 c 0.063,-0.135 0.128,-0.272 0.194,-0.407 H 0.281 C 0.186,-0.275 0.093,-0.135 0,0" />
        </g>
        <g
           transform="translate(273.4503,731.4841)"
           id="g68600">
          <path
             id="path68602"
             style="fill:#ffffff;fill-opacity:1;fill-rule:nonzero;stroke:none"
             d="m 0,0 h -8.721 c 0.054,-0.138 0.109,-0.272 0.164,-0.409 H 0.234 C 0.156,-0.272 0.075,-0.139 0,0" />
        </g>
        <g
           transform="translate(268.6795,747.647)"
           id="g68604">
          <path
             id="path68606"
             style="fill:#ffffff;fill-opacity:1;fill-rule:nonzero;stroke:none"
             d="m 0,0 h -7.582 c 0.01,-0.138 0.02,-0.272 0.032,-0.409 H 0.043 C 0.028,-0.272 0.014,-0.138 0,0" />
        </g>
        <g
           transform="translate(268.8472,746.1766)"
           id="g68608">
          <path
             id="path68610"
             style="fill:#ffffff;fill-opacity:1;fill-rule:nonzero;stroke:none"
             d="m 0,0 h -7.617 c 0.014,-0.135 0.028,-0.271 0.044,-0.408 H 0.052 C 0.034,-0.272 0.016,-0.135 0,0" />
        </g>
        <g
           transform="translate(269.9918,740.299)"
           id="g68612">
          <path
             id="path68614"
             style="fill:#ffffff;fill-opacity:1;fill-rule:nonzero;stroke:none"
             d="m 0,0 h -7.858 c 0.029,-0.136 0.055,-0.273 0.083,-0.409 H 0.107 C 0.07,-0.273 0.037,-0.136 0,0" />
        </g>
        <g
           transform="translate(268.5551,749.115)"
           id="g68616">
          <path
             id="path68618"
             style="fill:#ffffff;fill-opacity:1;fill-rule:nonzero;stroke:none"
             d="m 0,0 h -7.556 c 0.007,-0.137 0.016,-0.272 0.025,-0.408 H 0.035 C 0.024,-0.271 0.01,-0.137 0,0" />
        </g>
        <g
           transform="translate(268.4816,750.5842)"
           id="g68620">
          <path
             id="path68622"
             style="fill:#ffffff;fill-opacity:1;fill-rule:nonzero;stroke:none"
             d="m 0,0 h -7.545 c 0.004,-0.136 0.007,-0.272 0.013,-0.408 H 0.02 C 0.013,-0.272 0.004,-0.137 0,0" />
        </g>
        <g
           transform="translate(269.0602,744.7075)"
           id="g68624">
          <path
             id="path68626"
             style="fill:#ffffff;fill-opacity:1;fill-rule:nonzero;stroke:none"
             d="m 0,0 h -7.66 c 0.016,-0.134 0.035,-0.271 0.054,-0.408 H 0.063 C 0.041,-0.271 0.023,-0.134 0,0" />
        </g>
        <g
           transform="translate(269.321,743.2383)"
           id="g68628">
          <path
             id="path68630"
             style="fill:#ffffff;fill-opacity:1;fill-rule:nonzero;stroke:none"
             d="m 0,0 h -7.715 c 0.021,-0.137 0.041,-0.271 0.062,-0.408 h 7.73 C 0.051,-0.273 0.026,-0.135 0,0" />
        </g>
        <g
           transform="translate(269.6315,741.7693)"
           id="g68632">
          <path
             id="path68634"
             style="fill:#ffffff;fill-opacity:1;fill-rule:nonzero;stroke:none"
             d="m 0,0 h -7.783 c 0.025,-0.137 0.051,-0.274 0.076,-0.408 H 0.091 C 0.059,-0.274 0.03,-0.135 0,0" />
        </g>
        <g
           transform="translate(304.5078,715.3204)"
           id="g68636">
          <path
             id="path68638"
             style="fill:#ffffff;fill-opacity:1;fill-rule:nonzero;stroke:none"
             d="m 0,0 h -28.556 c 0.171,-0.139 0.343,-0.273 0.514,-0.408 H -0.515 C -0.343,-0.273 -0.172,-0.139 0,0" />
        </g>
        <g
           transform="translate(308.9368,719.7277)"
           id="g68640">
          <path
             id="path68642"
             style="fill:#ffffff;fill-opacity:1;fill-rule:nonzero;stroke:none"
             d="m 0,0 h -16.374 c -0.766,-0.123 -1.545,-0.191 -2.334,-0.191 -0.787,0 -1.565,0.068 -2.331,0.191 h -16.376 c 0.115,-0.138 0.231,-0.271 0.347,-0.408 H -0.345 C -0.23,-0.271 -0.114,-0.138 0,0" />
        </g>
        <g
           transform="translate(306.1857,716.7916)"
           id="g68644">
          <path
             id="path68646"
             style="fill:#ffffff;fill-opacity:1;fill-rule:nonzero;stroke:none"
             d="m 0,0 h -31.913 c 0.148,-0.139 0.295,-0.275 0.443,-0.409 H -0.441 C -0.292,-0.275 -0.145,-0.139 0,0" />
        </g>
        <g
           transform="translate(307.644,718.2587)"
           id="g68648">
          <path
             id="path68650"
             style="fill:#ffffff;fill-opacity:1;fill-rule:nonzero;stroke:none"
             d="m 0,0 h -34.828 c 0.127,-0.137 0.255,-0.274 0.384,-0.408 h 34.06 C -0.255,-0.274 -0.127,-0.137 0,0" />
        </g>
        <g
           transform="translate(276.3668,727.0757)"
           id="g68652">
          <path
             id="path68654"
             style="fill:#ffffff;fill-opacity:1;fill-rule:nonzero;stroke:none"
             d="m 0,0 h -9.651 c 0.07,-0.139 0.143,-0.273 0.213,-0.409 H 0.343 C 0.228,-0.271 0.113,-0.141 0,0" />
        </g>
        <g
           transform="translate(294.4817,794.6648)"
           id="g68656">
          <path
             id="path68658"
             style="fill:#ffffff;fill-opacity:1;fill-rule:nonzero;stroke:none"
             d="M 0,0 H -8.505 C -9.053,-0.116 -9.594,-0.25 -10.13,-0.408 H 1.626 C 1.088,-0.25 0.547,-0.116 0,0" />
        </g>
        <g
           transform="translate(279.1329,724.1373)"
           id="g68660">
          <path
             id="path68662"
             style="fill:#ffffff;fill-opacity:1;fill-rule:nonzero;stroke:none"
             d="m 0,0 h -10.761 c 0.085,-0.137 0.169,-0.272 0.255,-0.409 H 0.471 C 0.314,-0.273 0.156,-0.141 0,0" />
        </g>
        <g
           transform="translate(280.9634,722.6672)"
           id="g68664">
          <path
             id="path68666"
             style="fill:#ffffff;fill-opacity:1;fill-rule:nonzero;stroke:none"
             d="m 0,0 h -11.642 c 0.093,-0.136 0.186,-0.272 0.279,-0.408 H 0.595 C 0.396,-0.277 0.197,-0.14 0,0" />
        </g>
        <g
           transform="translate(277.6434,725.6065)"
           id="g68668">
          <path
             id="path68670"
             style="fill:#ffffff;fill-opacity:1;fill-rule:nonzero;stroke:none"
             d="m 0,0 h -10.138 c 0.078,-0.137 0.157,-0.273 0.235,-0.41 H 0.38 C 0.25,-0.278 0.127,-0.136 0,0" />
        </g>
        <g
           transform="translate(300.0389,712.3811)"
           id="g68672">
          <path
             id="path68674"
             style="fill:#ffffff;fill-opacity:1;fill-rule:nonzero;stroke:none"
             d="m 0,0 h -19.62 c 0.276,-0.142 0.553,-0.277 0.831,-0.408 H -0.832 C -0.553,-0.277 -0.275,-0.142 0,0" />
        </g>
        <g
           transform="translate(302.5216,713.8512)"
           id="g68676">
          <path
             id="path68678"
             style="fill:#ffffff;fill-opacity:1;fill-rule:nonzero;stroke:none"
             d="m 0,0 h -24.585 c 0.208,-0.139 0.417,-0.273 0.627,-0.408 H -0.625 C -0.415,-0.273 -0.207,-0.139 0,0" />
        </g>
        <g
           transform="translate(283.4051,721.198)"
           id="g68680">
          <path
             id="path68682"
             style="fill:#ffffff;fill-opacity:1;fill-rule:nonzero;stroke:none"
             d="m 0,0 h -13.038 c 0.101,-0.138 0.207,-0.272 0.309,-0.408 H 0.883 C 0.585,-0.281 0.291,-0.145 0,0" />
        </g>
        <g
           transform="translate(296.4873,710.9131)"
           id="g68684">
          <path
             id="path68686"
             style="fill:#ffffff;fill-opacity:1;fill-rule:nonzero;stroke:none"
             d="m 0,0 h -12.517 c 0.486,-0.154 0.978,-0.291 1.475,-0.408 h 9.568 C -0.978,-0.291 -0.486,-0.154 0,0" />
        </g>
        <g
           transform="translate(310.0932,721.198)"
           id="g68688">
          <path
             id="path68690"
             style="fill:#ffffff;fill-opacity:1;fill-rule:nonzero;stroke:none"
             d="m 0,0 h -13.038 c -0.292,-0.145 -0.586,-0.281 -0.882,-0.408 H -0.309 C -0.206,-0.272 -0.103,-0.138 0,0" />
        </g>
        <g
           transform="translate(279.7388,781.4404)"
           id="g68692">
          <path
             id="path68694"
             style="fill:#ffffff;fill-opacity:1;fill-rule:nonzero;stroke:none"
             d="m 0,0 h -11.037 c -0.086,-0.136 -0.172,-0.271 -0.256,-0.409 H -0.468 C -0.313,-0.271 -0.158,-0.133 0,0" />
        </g>
        <g
           transform="translate(270.1302,765.2776)"
           id="g68696">
          <path
             id="path68698"
             style="fill:#ffffff;fill-opacity:1;fill-rule:nonzero;stroke:none"
             d="m 0,0 h -7.887 c -0.029,-0.135 -0.057,-0.271 -0.086,-0.408 h 7.867 C -0.07,-0.271 -0.037,-0.135 0,0" />
        </g>
        <g
           transform="translate(270.5651,766.7468)"
           id="g68700">
          <path
             id="path68702"
             style="fill:#ffffff;fill-opacity:1;fill-rule:nonzero;stroke:none"
             d="m 0,0 h -7.982 c -0.033,-0.135 -0.068,-0.271 -0.1,-0.408 h 7.96 C -0.08,-0.273 -0.043,-0.135 0,0" />
        </g>
        <g
           transform="translate(271.0583,768.2159)"
           id="g68704">
          <path
             id="path68706"
             style="fill:#ffffff;fill-opacity:1;fill-rule:nonzero;stroke:none"
             d="m 0,0 h -8.098 c -0.037,-0.135 -0.073,-0.271 -0.109,-0.408 h 8.071 C -0.091,-0.273 -0.048,-0.135 0,0" />
        </g>
        <g
           transform="translate(269.4205,762.3395)"
           id="g68708">
          <path
             id="path68710"
             style="fill:#ffffff;fill-opacity:1;fill-rule:nonzero;stroke:none"
             d="m 0,0 h -7.731 c -0.021,-0.137 -0.043,-0.271 -0.067,-0.408 h 7.722 C -0.05,-0.274 -0.027,-0.135 0,0" />
        </g>
        <g
           transform="translate(281.7336,782.9095)"
           id="g68712">
          <path
             id="path68714"
             style="fill:#ffffff;fill-opacity:1;fill-rule:nonzero;stroke:none"
             d="m 0,0 h -12.048 c -0.095,-0.134 -0.192,-0.27 -0.285,-0.408 H -0.596 C -0.398,-0.269 -0.202,-0.128 0,0" />
        </g>
        <g
           transform="translate(269.7484,763.8087)"
           id="g68716">
          <path
             id="path68718"
             style="fill:#ffffff;fill-opacity:1;fill-rule:nonzero;stroke:none"
             d="m 0,0 h -7.801 c -0.026,-0.136 -0.052,-0.271 -0.075,-0.408 h 7.785 C -0.059,-0.271 -0.031,-0.135 0,0" />
        </g>
        <g
           transform="translate(273.751,774.0947)"
           id="g68720">
          <path
             id="path68722"
             style="fill:#ffffff;fill-opacity:1;fill-rule:nonzero;stroke:none"
             d="m 0,0 h -8.81 c -0.055,-0.137 -0.111,-0.271 -0.166,-0.408 h 8.742 C -0.157,-0.27 -0.077,-0.137 0,0" />
        </g>
        <g
           transform="translate(284.5637,784.3797)"
           id="g68724">
          <path
             id="path68726"
             style="fill:#ffffff;fill-opacity:1;fill-rule:nonzero;stroke:none"
             d="M 0,0 H -13.795 C -13.9,-0.136 -14.006,-0.27 -14.11,-0.409 H -0.928 C -0.621,-0.262 -0.312,-0.127 0,0" />
        </g>
        <g
           transform="translate(272.2484,771.1564)"
           id="g68728">
          <path
             id="path68730"
             style="fill:#ffffff;fill-opacity:1;fill-rule:nonzero;stroke:none"
             d="m 0,0 h -8.395 c -0.046,-0.138 -0.091,-0.273 -0.134,-0.41 h 8.348 C -0.12,-0.273 -0.061,-0.137 0,0" />
        </g>
        <g
           transform="translate(272.958,772.6245)"
           id="g68732">
          <path
             id="path68734"
             style="fill:#ffffff;fill-opacity:1;fill-rule:nonzero;stroke:none"
             d="M 0,0 H -8.587 C -8.635,-0.133 -8.686,-0.271 -8.736,-0.408 H -0.21 C -0.142,-0.268 -0.07,-0.137 0,0" />
        </g>
        <g
           transform="translate(275.6474,777.0329)"
           id="g68736">
          <path
             id="path68738"
             style="fill:#ffffff;fill-opacity:1;fill-rule:nonzero;stroke:none"
             d="m 0,0 h -9.403 c -0.065,-0.137 -0.129,-0.273 -0.195,-0.41 h 9.309 C -0.193,-0.273 -0.098,-0.134 0,0" />
        </g>
        <g
           transform="translate(276.8093,778.5021)"
           id="g68740">
          <path
             id="path68742"
             style="fill:#ffffff;fill-opacity:1;fill-rule:nonzero;stroke:none"
             d="m 0,0 h -9.817 c -0.072,-0.137 -0.144,-0.271 -0.215,-0.408 h 9.688 C -0.231,-0.269 -0.116,-0.137 0,0" />
        </g>
        <g
           transform="translate(274.6414,775.5638)"
           id="g68744">
          <path
             id="path68746"
             style="fill:#ffffff;fill-opacity:1;fill-rule:nonzero;stroke:none"
             d="m 0,0 h -9.077 c -0.062,-0.137 -0.119,-0.271 -0.179,-0.408 h 9 C -0.172,-0.271 -0.087,-0.135 0,0" />
        </g>
        <g
           transform="translate(271.6187,769.6851)"
           id="g68748">
          <path
             id="path68750"
             style="fill:#ffffff;fill-opacity:1;fill-rule:nonzero;stroke:none"
             d="m 0,0 h -8.234 c -0.04,-0.135 -0.083,-0.271 -0.122,-0.408 h 8.198 C -0.105,-0.271 -0.054,-0.133 0,0" />
        </g>
        <g
           transform="translate(278.1421,779.9713)"
           id="g68752">
          <path
             id="path68754"
             style="fill:#ffffff;fill-opacity:1;fill-rule:nonzero;stroke:none"
             d="m 0,0 h -10.334 c -0.077,-0.137 -0.16,-0.271 -0.235,-0.409 h 10.18 C -0.26,-0.272 -0.132,-0.132 0,0" />
        </g>
        <g
           transform="translate(301.7081,791.7254)"
           id="g68756">
          <path
             id="path68758"
             style="fill:#ffffff;fill-opacity:1;fill-rule:nonzero;stroke:none"
             d="m 0,0 h -22.958 c -0.213,-0.132 -0.426,-0.268 -0.638,-0.408 H 0.64 C 0.428,-0.268 0.214,-0.132 0,0" />
        </g>
        <g
           transform="translate(268.7368,757.9319)"
           id="g68760">
          <path
             id="path68762"
             style="fill:#ffffff;fill-opacity:1;fill-rule:nonzero;stroke:none"
             d="m 0,0 h -7.598 c -0.011,-0.136 -0.021,-0.272 -0.031,-0.409 h 7.582 C -0.035,-0.271 -0.015,-0.137 0,0" />
        </g>
        <g
           transform="translate(268.5065,754.9936)"
           id="g68764">
          <path
             id="path68766"
             style="fill:#ffffff;fill-opacity:1;fill-rule:nonzero;stroke:none"
             d="m 0,0 h -7.55 c -0.006,-0.137 -0.013,-0.272 -0.017,-0.409 h 7.546 C -0.013,-0.272 -0.007,-0.137 0,0" />
        </g>
        <g
           transform="translate(268.5995,756.4628)"
           id="g68768">
          <path
             id="path68770"
             style="fill:#ffffff;fill-opacity:1;fill-rule:nonzero;stroke:none"
             d="m 0,0 h -7.568 c -0.008,-0.136 -0.018,-0.273 -0.025,-0.409 h 7.558 C -0.024,-0.271 -0.01,-0.137 0,0" />
        </g>
        <g
           transform="translate(298.9539,793.1957)"
           id="g68772">
          <path
             id="path68774"
             style="fill:#ffffff;fill-opacity:1;fill-rule:nonzero;stroke:none"
             d="m 0,0 h -17.45 c -0.286,-0.128 -0.57,-0.267 -0.852,-0.408 H 0.852 C 0.57,-0.267 0.288,-0.128 0,0" />
        </g>
        <g
           transform="translate(268.4481,752.0554)"
           id="g68776">
          <path
             id="path68778"
             style="fill:#ffffff;fill-opacity:1;fill-rule:nonzero;stroke:none"
             d="m 0,0 h -7.539 c 10e-4,-0.137 0.002,-0.274 0.003,-0.408 H 0.009 C 0.003,-0.274 0.002,-0.139 0,0" />
        </g>
        <g
           transform="translate(268.4566,753.5223)"
           id="g68780">
          <path
             id="path68782"
             style="fill:#ffffff;fill-opacity:1;fill-rule:nonzero;stroke:none"
             d="m 0,0 h -7.542 c -0.004,-0.135 -0.004,-0.271 -0.004,-0.406 h 7.539 C -0.005,-0.271 -0.003,-0.135 0,0" />
        </g>
        <g
           transform="translate(308.4888,785.85)"
           id="g68784">
          <path
             id="path68786"
             style="fill:#ffffff;fill-opacity:1;fill-rule:nonzero;stroke:none"
             d="m 0,0 h -36.52 c -0.114,-0.137 -0.231,-0.271 -0.347,-0.409 h 17.233 c 0.455,0.042 0.912,0.073 1.374,0.073 0.462,0 0.92,-0.031 1.374,-0.073 H 0.349 C 0.235,-0.271 0.117,-0.137 0,0" />
        </g>
        <g
           transform="translate(307.1442,787.3175)"
           id="g68788">
          <path
             id="path68790"
             style="fill:#ffffff;fill-opacity:1;fill-rule:nonzero;stroke:none"
             d="m 0,0 h -33.828 c -0.131,-0.134 -0.26,-0.27 -0.388,-0.409 H 0.388 C 0.26,-0.27 0.131,-0.134 0,0" />
        </g>
        <g
           transform="translate(303.8372,790.2574)"
           id="g68792">
          <path
             id="path68794"
             style="fill:#ffffff;fill-opacity:1;fill-rule:nonzero;stroke:none"
             d="m 0,0 h -27.215 c -0.176,-0.135 -0.352,-0.271 -0.525,-0.409 H 0.525 C 0.352,-0.271 0.176,-0.135 0,0" />
        </g>
        <g
           transform="translate(268.9175,759.4023)"
           id="g68796">
          <path
             id="path68798"
             style="fill:#ffffff;fill-opacity:1;fill-rule:nonzero;stroke:none"
             d="m 0,0 h -7.631 c -0.014,-0.138 -0.031,-0.272 -0.046,-0.411 h 7.622 C -0.038,-0.274 -0.018,-0.137 0,0" />
        </g>
        <g
           transform="translate(305.6113,788.7877)"
           id="g68800">
          <path
             id="path68802"
             style="fill:#ffffff;fill-opacity:1;fill-rule:nonzero;stroke:none"
             d="m 0,0 h -30.763 c -0.151,-0.135 -0.301,-0.27 -0.45,-0.409 H 0.451 C 0.303,-0.27 0.152,-0.135 0,0" />
        </g>
        <g
           transform="translate(269.1458,760.8703)"
           id="g68804">
          <path
             id="path68806"
             style="fill:#ffffff;fill-opacity:1;fill-rule:nonzero;stroke:none"
             d="m 0,0 h -7.675 c -0.02,-0.136 -0.037,-0.273 -0.056,-0.41 h 7.664 C -0.044,-0.273 -0.025,-0.136 0,0" />
        </g>
        <g
           transform="translate(310.9127,744.2896)"
           id="g68808">
          <path
             id="path68810"
             style="fill:#ffffff;fill-opacity:1;fill-rule:nonzero;stroke:none"
             d="M 0,0 C 0.052,-0.324 0.107,-0.647 0.164,-0.969 0.107,-0.647 0.052,-0.324 0,0 m -0.036,0.228 z" />
        </g>
        <g
           transform="translate(309.536,761.6797)"
           id="g68812">
          <path
             id="path68814"
             style="fill:#ffffff;fill-opacity:1;fill-rule:nonzero;stroke:none"
             d="M 0,0 C 0.028,-0.137 0.056,-0.271 0.08,-0.409 0.056,-0.271 0.028,-0.137 0,0" />
        </g>
        <g
           transform="translate(308.9681,764.1883)"
           id="g68816">
          <path
             id="path68818"
             style="fill:#ffffff;fill-opacity:1;fill-rule:nonzero;stroke:none"
             d="M 0,0 C 0.076,-0.295 0.149,-0.59 0.22,-0.886 0.149,-0.59 0.076,-0.295 0,0" />
        </g>
        <g
           transform="translate(311.5861,743.9377)"
           id="g68820">
          <path
             id="path68822"
             style="fill:#ffffff;fill-opacity:1;fill-rule:nonzero;stroke:none"
             d="M 0,0 C 0.039,-0.234 0.078,-0.467 0.12,-0.699 H 0.123 C 0.082,-0.466 0.039,-0.233 0,0" />
        </g>
        <g
           transform="translate(309.2635,762.9709)"
           id="g68824">
          <path
             id="path68826"
             style="fill:#ffffff;fill-opacity:1;fill-rule:nonzero;stroke:none"
             d="M 0,0 C 0.05,-0.223 0.102,-0.449 0.149,-0.673 0.102,-0.447 0.05,-0.223 0,0" />
        </g>
        <g
           transform="translate(311.4087,745.0862)"
           id="g68828">
          <path
             id="path68830"
             style="fill:#ffffff;fill-opacity:1;fill-rule:nonzero;stroke:none"
             d="M 0,0 C 0.008,-0.058 0.015,-0.115 0.023,-0.172 0.035,-0.24 0.042,-0.309 0.053,-0.379 H 0.056 C 0.038,-0.254 0.018,-0.127 0,0 M -0.004,0.031 C -0.003,0.023 -0.002,0.016 -0.001,0.008 -0.001,0.006 0,0.003 0,0 -0.001,0.01 -0.003,0.02 -0.004,0.031" />
        </g>
        <g
           transform="translate(311.5266,744.2995)"
           id="g68832">
          <path
             id="path68834"
             style="fill:#ffffff;fill-opacity:1;fill-rule:nonzero;stroke:none"
             d="M 0,0 H -0.003 C 0.002,-0.034 0.01,-0.068 0.014,-0.102 0.01,-0.068 0.005,-0.034 0,0" />
        </g>
        <g
           transform="translate(305.9487,773.4968)"
           id="g68836">
          <path
             id="path68838"
             style="fill:#ffffff;fill-opacity:1;fill-rule:nonzero;stroke:none"
             d="m 0,0 -0.008,-0.025 c 0.109,-0.194 0.223,-0.382 0.329,-0.579 0.371,-0.69 0.721,-1.401 1.05,-2.13 2.023,-4.477 3.263,-9.654 3.609,-15.12 l 0.002,-0.081 10e-4,0.046 c -0.4,6.392 -2.012,12.356 -4.657,17.285 z" />
        </g>
        <g
           transform="translate(310.9446,749.729)"
           id="g68840">
          <path
             id="path68842"
             style="fill:#ffffff;fill-opacity:1;fill-rule:nonzero;stroke:none"
             d="m 0,0 -0.002,-0.063 c 0.007,-0.13 0.019,-0.26 0.027,-0.392 0.051,-0.758 0.115,-1.512 0.196,-2.258 -0.096,0.879 -0.168,1.766 -0.22,2.661 z" />
        </g>
        <g
           transform="translate(309.787,760.3018)"
           id="g68844">
          <path
             id="path68846"
             style="fill:#ffffff;fill-opacity:1;fill-rule:nonzero;stroke:none"
             d="M 0,0 C 0.004,-0.028 0.01,-0.055 0.015,-0.085 0.01,-0.055 0.004,-0.028 0,0" />
        </g>
        <g
           transform="translate(310.3679,749.1974)"
           id="g68848">
          <path
             id="path68850"
             style="fill:#ffffff;fill-opacity:1;fill-rule:nonzero;stroke:none"
             d="M 0,0 C 0.023,-0.361 0.046,-0.721 0.078,-1.078 0.046,-0.721 0.023,-0.361 0,0" />
        </g>
        <g
           transform="translate(310.4978,747.5644)"
           id="g68852">
          <path
             id="path68854"
             style="fill:#ffffff;fill-opacity:1;fill-rule:nonzero;stroke:none"
             d="M 0,0 C 0.033,-0.345 0.068,-0.687 0.107,-1.028 0.068,-0.687 0.033,-0.345 0,0" />
        </g>
        <g
           transform="translate(308.3309,727.0757)"
           id="g68856">
          <path
             id="path68858"
             style="fill:#ffffff;fill-opacity:1;fill-rule:nonzero;stroke:none"
             d="m 0,0 h -0.336 c 0.067,-0.137 0.131,-0.273 0.2,-0.409 H 0.201 C 0.133,-0.276 0.067,-0.137 0,0" />
        </g>
        <g
           transform="translate(307.3064,728.5437)"
           id="g68860">
          <path
             id="path68862"
             style="fill:#ffffff;fill-opacity:1;fill-rule:nonzero;stroke:none"
             d="M 0,0 H -0.009 C 0.052,-0.135 0.114,-0.273 0.175,-0.407 H 0.187 C 0.125,-0.272 0.062,-0.135 0,0" />
        </g>
        <g
           transform="translate(311.1382,722.6672)"
           id="g68864">
          <path
             id="path68866"
             style="fill:#ffffff;fill-opacity:1;fill-rule:nonzero;stroke:none"
             d="m 0,0 h -0.655 c 0.087,-0.136 0.177,-0.271 0.266,-0.408 h 0.111 c 0.042,0.062 0.085,0.123 0.129,0.185 C -0.1,-0.149 -0.049,-0.074 0,0" />
        </g>
        <g
           transform="translate(308.7615,725.6065)"
           id="g68868">
          <path
             id="path68870"
             style="fill:#ffffff;fill-opacity:1;fill-rule:nonzero;stroke:none"
             d="m 0,0 h -0.009 c 0.074,-0.136 0.145,-0.273 0.22,-0.41 H 0.219 C 0.145,-0.273 0.072,-0.136 0,0" />
        </g>
        <g
           transform="translate(309.588,724.1373)"
           id="g68872">
          <path
             id="path68874"
             style="fill:#ffffff;fill-opacity:1;fill-rule:nonzero;stroke:none"
             d="M 0,0 H -0.006 C 0.073,-0.136 0.149,-0.273 0.232,-0.409 H 0.237 C 0.157,-0.273 0.079,-0.137 0,0" />
        </g>
        <g
           transform="translate(311.9615,721.5549)"
           id="g68876">
          <path
             id="path68878"
             style="fill:#ffffff;fill-opacity:1;fill-rule:nonzero;stroke:none"
             d="m 0,0 -0.624,-0.161 h -0.001 c 0.043,-0.064 0.085,-0.13 0.13,-0.193 l 0.246,-0.343 c 0.055,0.076 0.111,0.153 0.167,0.229 0.027,0.038 0.054,0.076 0.081,0.114 l 0.004,0.005 c 0.026,0.06 0.06,0.129 0.097,0.205 z" />
        </g>
        <g
           transform="translate(320.4126,748.2469)"
           id="g68880">
          <path
             id="path68882"
             style="fill:#ffffff;fill-opacity:1;fill-rule:nonzero;stroke:none"
             d="M 0,0 H -0.027 L -0.05,-0.314 c -0.335,-4.457 -1.13,-8.744 -2.373,-12.797 l 0.151,0.451 0.563,2.039 c 0.856,3.351 1.423,6.819 1.686,10.306 C -0.015,-0.21 -0.007,-0.105 0,0 m -8.243,-28.029 0.221,0.468 4.174,8.703 c 0.135,0.263 0.294,0.614 0.377,0.8 0.906,-1.786 3.052,-3.497 5.312,-3.497 1.744,0 3.372,0.587 4.634,1.611 -1.082,-2.239 -2.824,-5.84 -3.357,-6.941 -0.102,-0.212 -0.159,-0.331 -0.159,-0.331 l -3.782,-7.811 c 0,0 -0.041,-0.085 -0.114,-0.235 -0.481,-0.994 -2.353,-4.863 -2.87,-5.934 -0.502,0.245 -8.249,4.018 -8.751,4.263 0.218,0.448 3.432,7.088 4.311,8.906 z M 7.781,-17.23 7.778,-17.187 7.78,-17.198 Z M -8.851,-4.158 c -0.008,0.036 -0.015,0.072 -0.021,0.109 0.006,-0.037 0.013,-0.073 0.021,-0.109 m -0.35,2.513 c -0.016,0.139 -0.032,0.276 -0.046,0.415 0.014,-0.139 0.03,-0.276 0.046,-0.415 m -5.551,26.081 c -2.22,-6.246 -3.349,-12.989 -3.349,-20.046 0,-7.016 1.177,-13.995 3.403,-20.199 0.016,-0.045 0.031,-0.091 0.048,-0.139 0.072,-0.198 0.149,-0.391 0.223,-0.588 0.407,-1.083 0.845,-2.138 1.312,-3.167 h 0.009 c 0.061,-0.136 0.125,-0.272 0.187,-0.407 h -0.012 c 0.166,-0.358 0.338,-0.712 0.513,-1.061 h 0.336 c 0.067,-0.137 0.133,-0.276 0.202,-0.409 h -0.338 c 0.182,-0.358 0.37,-0.71 0.558,-1.06 h 0.009 c 0.072,-0.136 0.145,-0.274 0.218,-0.41 h -0.007 c 0.198,-0.357 0.402,-0.71 0.609,-1.06 h 0.006 c 0.079,-0.136 0.157,-0.273 0.237,-0.408 h -0.005 c 0.215,-0.36 0.439,-0.711 0.664,-1.062 h 0.655 c -0.049,-0.073 -0.1,-0.148 -0.15,-0.222 -0.043,-0.063 -0.086,-0.124 -0.128,-0.186 h -0.112 c 0.194,-0.292 0.39,-0.581 0.588,-0.865 h 0.001 l 0.624,0.161 0.101,-0.143 c -0.001,0 -0.001,-10e-4 -0.001,-10e-4 -0.037,-0.076 -0.071,-0.145 -0.097,-0.205 -0.002,-0.002 -0.003,-0.005 -0.004,-0.008 -0.027,-0.037 -0.054,-0.074 -0.081,-0.111 -0.056,-0.076 -0.112,-0.152 -0.167,-0.229 l 0.049,-0.069 -4.723,-9.759 9.85,-4.798 3.096,6.401 0.155,0.32 0.118,0.242 1.497,3.095 0.195,0.402 -0.146,0.096 0.146,-0.096 0.039,0.08 0.175,0.362 0.055,0.114 0.425,0.878 1.129,2.333 0.148,0.306 0.112,0.232 4.367,9.026 c 0.049,0.082 0.098,0.164 0.146,0.248 0.018,0.033 0.036,0.065 0.054,0.098 l 0.215,0.444 c 0.011,0.025 0.064,0.14 0.083,0.182 0.005,0.01 0.007,0.015 0.007,0.015 l -0.034,0.1 -0.029,0.115 0.01,-0.024 V 0 H 0.612 C 0.604,-0.12 0.595,-0.241 0.586,-0.361 0.574,-0.522 0.562,-0.682 0.548,-0.843 l 0.038,0.168 h 7.181 v -16.371 c 10e-4,0.005 10e-4,0.007 10e-4,0.007 0.003,0 0.01,-0.116 0.011,-0.141 -0.027,-0.052 -0.19,-0.391 -0.19,-0.391 -1.087,-2.039 -3.291,-3.312 -5.748,-3.312 -0.693,0 -1.394,0.184 -2.048,0.491 -1.407,0.707 -2.569,2.021 -2.948,3.253 v 0.013 l -0.002,0.008 c -0.012,0.027 -0.02,0.048 -0.022,0.055 l -0.24,0.846 -0.024,0.071 0.107,0.318 c -0.138,-0.375 -0.28,-0.749 -0.425,-1.12 l -0.068,-0.18 h 0.001 l -0.385,-0.901 c -0.412,0.755 -0.802,1.53 -1.171,2.326 -0.063,0.137 -0.129,0.272 -0.188,0.411 -0.369,0.82 -0.71,1.666 -1.029,2.528 -0.05,0.134 -0.098,0.273 -0.146,0.408 -0.126,0.351 -0.248,0.705 -0.365,1.061 -0.045,0.135 -0.091,0.271 -0.133,0.409 -0.112,0.35 -0.22,0.704 -0.323,1.06 -0.039,0.137 -0.082,0.272 -0.119,0.409 -0.1,0.352 -0.193,0.705 -0.284,1.06 -0.036,0.137 -0.071,0.272 -0.106,0.409 -0.085,0.352 -0.169,0.706 -0.248,1.063 -0.03,0.134 -0.059,0.273 -0.088,0.407 -0.076,0.352 -0.15,0.706 -0.217,1.061 -0.027,0.137 -0.047,0.273 -0.073,0.408 h -0.003 c -0.042,0.233 -0.082,0.466 -0.121,0.7 -0.008,0.05 -0.016,0.101 -0.024,0.151 -0.008,0.036 -0.015,0.072 -0.021,0.109 -0.004,0.033 -0.012,0.068 -0.017,0.102 h 0.003 c -0.022,0.136 -0.04,0.273 -0.062,0.408 h -0.003 c -0.011,0.069 -0.018,0.139 -0.03,0.206 -0.009,0.06 -0.016,0.121 -0.024,0.181 -10e-4,0.007 -0.002,0.014 -0.003,0.022 -0.001,0.008 -0.002,0.017 -0.004,0.025 l -10e-4,0.006 c -0.032,0.228 -0.065,0.458 -0.095,0.688 -0.032,0.255 -0.063,0.51 -0.093,0.766 -0.016,0.139 -0.032,0.276 -0.046,0.415 -0.081,0.745 -0.145,1.499 -0.196,2.258 -0.008,0.131 -0.02,0.261 -0.027,0.391 l 0.002,0.063 0.005,0.204 0.032,1.08 C -9.452,2.478 -9.481,2.155 -9.522,1.812 -9.512,1.71 -9.503,1.617 -9.493,1.532 -9.503,1.615 -9.512,1.71 -9.523,1.81 -9.605,1.115 -9.736,0.343 -9.946,-0.347 c 0.011,-0.113 0.021,-0.225 0.031,-0.335 0.021,-0.199 0.042,-0.394 0.063,-0.594 0.015,-0.145 0.028,-0.289 0.044,-0.434 0.02,-0.167 0.04,-0.336 0.062,-0.506 0.045,-0.364 0.094,-0.727 0.147,-1.089 0.022,-0.141 0.04,-0.282 0.063,-0.424 0.012,-0.076 0.024,-0.152 0.036,-0.228 0.033,-0.205 0.069,-0.409 0.104,-0.613 0.021,-0.12 0.039,-0.238 0.06,-0.356 0.029,-0.163 0.054,-0.328 0.085,-0.491 0.923,-4.891 2.528,-9.419 4.744,-13.341 l 0.009,-0.017 c -0.364,-0.779 -2.357,-4.938 -3.416,-7.147 -0.21,-0.44 -0.367,-0.767 -0.434,-0.908 -0.038,0.051 -0.099,0.138 -0.099,0.138 -2.258,3.205 -4.141,6.868 -5.602,10.89 -0.01,0.021 -0.019,0.043 -0.026,0.065 -0.016,0.043 -0.03,0.087 -0.046,0.13 -2.204,6.139 -3.368,13.051 -3.368,19.997 0,6.776 1.058,13.253 3.125,19.275 -0.142,0.29 -0.272,0.549 -0.388,0.771" />
        </g>
        <g
           transform="translate(285.7331,721.7102)"
           id="g68884">
          <path
             id="path68886"
             style="fill:#ffffff;fill-opacity:1;fill-rule:nonzero;stroke:none"
             d="m 0,0 h 0.003 z m 9.894,19.625 c 0,0 -3.774,3.2 -7.177,4.138 v 7.516 c 0.932,0.971 1.967,1.487 3.085,1.523 0.041,10e-4 0.083,0.002 0.124,0.002 1.973,0 3.636,-1.453 3.994,-1.788 z m 14.721,14.001 c -0.009,0.096 -0.018,0.185 -0.027,0.268 0,0 0.021,-0.101 0.027,-0.268 M 2.717,32.716 v 4.682 c 1.635,-0.937 3.049,-1.24 4.196,-1.24 1.504,0 2.547,0.523 3.021,0.822 L 9.923,32.361 c -1.405,1.092 -2.721,1.462 -3.859,1.462 -1.482,0 -2.662,-0.628 -3.347,-1.107 m -3.002,-8.92 v 23.107 l 1.917,1.061 -0.023,-0.283 0.035,0.042 V 23.98 c -0.214,0.026 -0.425,0.04 -0.631,0.04 -0.46,0 -0.897,-0.068 -1.298,-0.224 m 7.018,13.366 c -1.914,0 -3.465,1.116 -4.016,1.571 v 9.831 L 5.57,50.148 9.951,45.414 9.935,38.327 9.897,38.296 C 8.805,37.459 7.721,37.162 6.733,37.162 M 4.462,62.826 H 4.435 C 0.38,62.817 -3.545,61.019 -6.916,57.625 -12.812,51.687 -16.32,41.669 -16.297,30.825 -16.276,19.979 -12.729,9.973 -6.808,4.059 -6.239,3.492 -5.656,2.974 -5.06,2.498 -3.456,1.219 -1.757,0.269 0.001,-0.331 1.484,-0.837 3.008,-1.095 4.553,-1.095 h 0.01 c 6.066,0.013 11.748,4.063 15.689,11.096 -0.073,0.197 -0.151,0.389 -0.222,0.588 -0.018,0.048 -0.033,0.093 -0.048,0.139 C 16.141,3.616 10.528,-0.47 4.562,-0.482 H 4.552 C 3.009,-0.482 1.484,-0.208 0,0.322 -0.006,5.031 -0.027,19.616 -0.027,20.177 5.16,19.642 6.622,14.878 6.682,14.671 l 0.284,-0.97 0.302,0.964 c 1.514,4.863 7.394,6.096 7.453,6.11 l 0.246,0.048 v 27.045 l -0.174,0.083 C 10.59,49.962 9.058,53.107 9.043,53.14 L 8.9,53.439 c 0,0 -3.487,-2.04 -6.178,-3.613 -0.013,2.241 -0.41,3.736 -1.19,4.433 C 1.15,54.6 0.787,54.648 0.616,54.648 0.564,54.648 0.53,54.643 0.518,54.641 L 0.436,54.629 0.374,54.578 c -0.588,-0.465 -1.235,-1.069 -1.005,-1.602 0.166,-0.383 0.704,-0.48 1.21,-0.48 0.224,0 0.441,0.019 0.617,0.04 0.401,-0.435 0.539,-1.649 0.539,-2.77 0,-0.181 -0.004,-0.355 -0.011,-0.524 -1.078,-0.631 -1.887,-1.104 -2.04,-1.193 -1.854,4.44 -5.7,5.855 -5.869,5.913 l -0.251,0.088 -0.121,-0.238 -2.993,-5.872 0.746,0.291 c 0.403,0.156 0.772,0.234 1.11,0.234 0.391,0 0.741,-0.104 1.057,-0.312 1.608,-1.062 1.749,-4.453 1.752,-4.488 0,0 -0.115,-5.132 -0.14,-6.269 -2.578,-0.515 -4.332,-1.581 -5.177,-3.203 -0.432,-0.83 -0.577,-1.693 -0.577,-2.475 0,-1.516 0.542,-2.728 0.577,-2.803 l 0.377,-0.829 0.198,0.89 c 0.445,1.994 1.231,3.29 2.338,3.85 0.455,0.23 0.908,0.303 1.3,0.303 0.446,0 0.812,-0.094 1.015,-0.16 -0.003,-0.408 -0.079,-8.351 -0.082,-8.733 -4.205,-1.371 -4.834,-4.882 -4.834,-6.801 0,-0.763 0.096,-1.273 0.1,-1.29 l 0.173,-0.855 0.398,0.774 c 1.629,3.161 3.476,3.714 4.159,3.809 V 3.287 c -0.446,0.374 -0.886,0.776 -1.317,1.206 -5.808,5.803 -9.287,15.646 -9.31,26.332 -0.022,10.685 3.419,20.542 9.205,26.368 3.252,3.277 7.028,5.011 10.918,5.02 h 0.027 c 5.979,0 11.611,-4.085 15.474,-11.211 l -0.009,-0.029 c 0.116,-0.223 0.246,-0.481 0.387,-0.772 l 0.012,0.037 c 1.2,-2.353 2.168,-4.93 2.884,-7.667 0.009,-0.03 0.014,-0.063 0.024,-0.093 0.076,-0.295 0.149,-0.59 0.22,-0.886 0.026,-0.11 0.049,-0.221 0.075,-0.331 0.05,-0.224 0.102,-0.447 0.15,-0.673 0.042,-0.206 0.084,-0.412 0.123,-0.618 0.028,-0.137 0.056,-0.272 0.08,-0.41 0.061,-0.322 0.117,-0.643 0.171,-0.968 0.004,-0.029 0.01,-0.056 0.015,-0.085 0.247,-1.506 0.421,-3.047 0.519,-4.613 -0.014,-0.083 0.002,-0.375 -0.013,-0.461 -10e-4,-0.039 -0.002,-0.081 -0.003,-0.123 0.073,-1.433 0.081,-2.926 0.003,-4.475 l 0.027,-0.903 c 0.01,-0.148 0.022,-0.296 0.033,-0.445 0.023,-0.361 0.046,-0.721 0.078,-1.078 0.006,-0.074 0.013,-0.148 0.02,-0.219 0.21,0.69 0.341,1.462 0.423,2.156 -0.129,1.294 -0.396,3.857 -0.537,5.252 -0.003,0.025 -0.004,0.052 0.001,0.08 0.13,-1.291 0.4,-3.964 0.537,-5.329 0.041,0.343 0.071,0.666 0.091,0.954 l 0.016,0.551 c 0.014,0.482 0.026,0.899 0.03,1.018 v 0.035 l -0.027,0.855 -0.07,2.09 -0.002,0.08 c -0.022,0.34 -0.048,0.677 -0.077,1.015 -0.018,0.214 -0.039,0.428 -0.059,0.643 -0.473,4.854 -1.655,9.44 -3.472,13.462 -0.329,0.729 -0.679,1.44 -1.05,2.13 -0.106,0.198 -0.221,0.386 -0.329,0.58 -3.965,7.037 -9.671,11.064 -15.746,11.064" />
        </g>
        <g
           transform="translate(315.5072,776.7452)"
           id="g68888">
          <path
             id="path68890"
             style="fill:#ffffff;fill-opacity:1;fill-rule:nonzero;stroke:none"
             d="m 0,0 -0.003,0.005 0.002,-0.004 z m -25.278,20.173 h -0.042 c -6.391,-0.013 -12.518,-2.787 -17.717,-8.024 -8.231,-8.289 -13.129,-21.832 -13.1,-36.229 0.048,-24.345 13.929,-44.128 30.951,-44.128 h 0.043 c 8.016,0.017 15.581,4.39 21.348,12.321 l -0.246,0.343 c -0.045,0.063 -0.087,0.129 -0.13,0.193 -5.662,-7.876 -13.101,-12.228 -20.973,-12.245 h -0.04 c -16.688,0 -30.295,19.508 -30.342,43.517 -0.029,14.238 4.802,27.62 12.922,35.797 5.082,5.118 11.059,7.83 17.286,7.843 h 0.042 c 7.998,0 15.549,-4.451 21.266,-12.537 l 0.27,-0.403 0.183,-0.279 c 0,-10e-4 0.58,-1.033 1.271,-2.265 L 0.589,-1.357 C 2.887,-6.752 4.31,-12.685 4.822,-18.991 l 0.026,-0.311 h 0.027 c 0.065,-0.839 0.184,-2.368 0.19,-4.654 10e-4,-1.477 -0.052,-3.004 -0.16,-4.542 C 4.898,-28.603 4.89,-28.708 4.883,-28.813 4.62,-32.3 4.053,-35.768 3.196,-39.12 l -0.562,-2.039 -0.152,-0.45 -0.913,-2.717 -0.107,-0.319 0.025,-0.07 0.239,-0.847 c 0.002,-0.007 0.011,-0.027 0.022,-0.054 0.031,-0.07 0.081,-0.182 0.086,-0.201 0.53,1.36 0.941,2.983 1.385,4.49 l 0.124,0.449 0.394,1.418 0.05,0.181 c 0.827,3.237 1.387,6.577 1.667,9.938 0.013,0.16 0.026,0.321 0.038,0.481 0.009,0.121 0.017,0.241 0.026,0.362 0.107,1.538 0.161,3.064 0.158,4.542 v 0.001 c -0.005,1.515 -0.067,3.043 -0.188,4.653 l -0.033,0.673 c -0.158,1.838 -0.395,3.656 -0.708,5.443 -0.05,0.284 -0.102,0.568 -0.155,0.851 -0.731,3.844 -1.819,7.536 -3.244,10.965 l -0.049,0.118 -0.007,0.015 -0.259,0.616 -0.045,0.108 -0.079,0.139 0.001,0.002 c -0.05,0.089 -0.118,0.211 -0.202,0.361 -1.012,1.803 -4.268,7.612 -4.268,7.612 0,0 -0.017,0.032 -0.05,0.095 l -0.19,0.228 -1.428,1.71 -0.042,0.05 c -5.588,6.789 -12.605,10.489 -20.008,10.489" />
        </g>
      </g>
    </g>
  </g>
</svg>
