<?xml version="1.0" encoding="UTF-8" standalone="no"?>
<svg
   xmlns:dc="http://purl.org/dc/elements/1.1/"
   xmlns:cc="http://creativecommons.org/ns#"
   xmlns:rdf="http://www.w3.org/1999/02/22-rdf-syntax-ns#"
   xmlns:svg="http://www.w3.org/2000/svg"
   xmlns="http://www.w3.org/2000/svg"
   xmlns:sodipodi="http://sodipodi.sourceforge.net/DTD/sodipodi-0.dtd"
   xmlns:inkscape="http://www.inkscape.org/namespaces/inkscape"
   viewBox="0 0 557.55975 599.55103"
   fill-rule="evenodd"
   clip-rule="evenodd"
   stroke-linejoin="round"
   stroke-miterlimit="1.41421"
   version="1.1"
   id="svg40"
   sodipodi:docname="plenty-valley-christian-college.svg"
   width="557.55975"
   height="599.55103"
   inkscape:version="1.0.1 (3bc2e813f5, 2020-09-07)">
  <metadata
     id="metadata44">
    <rdf:RDF>
      <cc:Work
         rdf:about="">
        <dc:format>image/svg+xml</dc:format>
        <dc:type
           rdf:resource="http://purl.org/dc/dcmitype/StillImage" />
      </cc:Work>
    </rdf:RDF>
  </metadata>
  <sodipodi:namedview
     pagecolor="#ffffff"
     bordercolor="#666666"
     borderopacity="1"
     objecttolerance="10"
     gridtolerance="10"
     guidetolerance="10"
     inkscape:pageopacity="0"
     inkscape:pageshadow="2"
     inkscape:window-width="1920"
     inkscape:window-height="1000"
     id="namedview42"
     showgrid="false"
     inkscape:zoom="0.56323931"
     inkscape:cx="1098.9996"
     inkscape:cy="300"
     inkscape:window-x="1920"
     inkscape:window-y="0"
     inkscape:window-maximized="1"
     inkscape:current-layer="svg40" />
  <clipPath
     id="a">
    <path
       d="M -0.003,0.007 H 557.563 V 599.558 H -0.003 Z"
       id="path2" />
  </clipPath>
  <g
     clip-path="url(#a)"
     fill-rule="nonzero"
     id="g13"
     transform="translate(-3.6946752e-4)">
    <path
       d="m 277.941,0 c 0,0 -135.388,72.202 -211.35,201.498 -80.314,136.676 -65.518,290.271 -65.518,290.271 0,0 97.929,107.782 276.868,107.782 178.974,0 278.296,-108.478 278.296,-108.478 0,0 14.343,-133.229 -51.419,-261.376 C 422.38,69.034 277.941,0 277.941,0"
       fill="#1c2c5a"
       id="path5" />
    <path
       d="m 278.773,8.808 c 0,0 -137.129,71.158 -212.882,209.609 C -4.64,347.295 9.877,485.433 9.877,485.433 c 0,0 82.89,106.25 286.79,103.917 154.257,-1.775 251.141,-104.265 251.141,-104.265 0,0 12.916,-111.506 -38.781,-228.269 C 430.14,78.538 278.773,8.808 278.773,8.808"
       fill="#c1ad80"
       id="path7" />
    <path
       d="m 278.926,26.775 c 0,0 -126.371,83.133 -188.861,203.378 -69.139,133.125 -64.334,248.948 -64.334,248.948 47.554,36.971 144.439,85.919 259.67,82.472 143.326,-4.282 230.672,-66.04 246.651,-83.412 0,0 2.158,-89.783 -45.57,-207.138 C 433.287,140.196 327.978,62.702 327.978,62.702 c 0,0 -15.805,24.021 -24.683,41.95 -8.981,18.102 -20.644,48.007 -20.644,48.007 0,0 33.699,0.835 59.53,2.68 25.867,1.915 58.904,6.719 58.904,6.719 l 15.422,24.404 c 0,0 -49.434,-4.874 -76.205,-5.222 -26.319,-0.348 -68.164,-1.218 -68.164,-1.218 0,0 -24.161,79.861 -26.911,136.293 -6.58,134.1 31.297,205.989 31.297,205.989 0,0 -37.32,-35.231 -81.323,-54.413 -46.824,-20.4 -69.418,-5.222 -69.418,-5.222 0,0 -7.763,-56.397 31.437,-154.082 32.271,-80.384 65.796,-128.008 65.796,-128.008 l -88.808,5.883 22.106,-24.647 c 0,0 21.445,-3.516 38.887,-4.944 17.476,-1.392 44.7,-3.063 44.7,-3.063 0,0 21.375,-32.377 38.886,-53.543 17.476,-21.131 40.487,-43.899 40.487,-43.899 0,0 -13.994,-11.001 -20.992,-16.432 -7.311,-5.64 -19.356,-13.159 -19.356,-13.159"
       fill="#1c2c5a"
       id="path9" />
    <path
       d="m 290.383,379.323 h 5.048 c 5.57,0 8.32,-2.437 8.32,-7.276 0,-4.874 -2.75,-7.276 -8.32,-7.276 h -5.048 z m 0,31.576 h -15.178 v -58.347 h 24.16 c 6.545,0 11.558,1.706 15.039,5.083 3.481,3.411 5.222,8.216 5.222,14.412 0,6.197 -1.741,10.966 -5.222,14.378 -3.481,3.412 -8.494,5.118 -15.039,5.118 h -8.982 z m 47.663,-58.347 14.064,35.509 14.169,-35.509 h 16.501 l -24.612,58.347 h -12.08 l -24.544,-58.347 z m 90.079,19.495 c -3.517,-4.282 -7.868,-6.44 -13.021,-6.44 -2.262,0 -4.351,0.418 -6.301,1.253 -1.914,0.836 -3.585,1.95 -4.978,3.377 -1.393,1.393 -2.507,3.098 -3.272,5.048 -0.801,1.949 -1.219,4.073 -1.219,6.336 0,2.332 0.418,4.491 1.219,6.44 0.765,1.95 1.879,3.656 3.307,5.118 1.427,1.427 3.098,2.576 4.978,3.412 1.915,0.8 4.004,1.218 6.197,1.218 4.839,0 9.225,-2.054 13.09,-6.197 v 17.964 l -1.532,0.522 c -2.333,0.836 -4.526,1.462 -6.51,1.845 -2.019,0.383 -4.004,0.592 -5.953,0.592 -4.039,0 -7.903,-0.766 -11.593,-2.298 -3.69,-1.532 -6.928,-3.655 -9.748,-6.44 -2.82,-2.75 -5.082,-6.023 -6.753,-9.817 -1.706,-3.795 -2.577,-7.938 -2.577,-12.429 0,-4.456 0.836,-8.599 2.542,-12.324 1.636,-3.725 3.899,-6.962 6.719,-9.678 2.785,-2.715 6.057,-4.839 9.782,-6.37 3.725,-1.497 7.589,-2.263 11.697,-2.263 2.333,0 4.596,0.243 6.824,0.731 2.262,0.487 4.63,1.253 7.102,2.263 z m 51.624,0 c -3.516,-4.282 -7.868,-6.44 -13.02,-6.44 -2.263,0 -4.352,0.418 -6.301,1.253 -1.915,0.836 -3.586,1.95 -4.979,3.377 -1.392,1.393 -2.506,3.098 -3.272,5.048 -0.801,1.949 -1.219,4.073 -1.219,6.336 0,2.332 0.418,4.491 1.219,6.44 0.766,1.95 1.88,3.656 3.307,5.118 1.427,1.427 3.098,2.576 4.978,3.412 1.915,0.8 4.004,1.218 6.197,1.218 4.839,0 9.226,-2.054 13.09,-6.197 v 17.964 l -1.532,0.522 c -2.332,0.836 -4.526,1.462 -6.51,1.845 -2.019,0.383 -4.004,0.592 -5.953,0.592 -4.038,0 -7.903,-0.766 -11.593,-2.298 -3.69,-1.532 -6.928,-3.655 -9.747,-6.44 -2.82,-2.75 -5.083,-6.023 -6.754,-9.817 -1.706,-3.795 -2.576,-7.938 -2.576,-12.429 0,-4.456 0.835,-8.599 2.541,-12.324 1.636,-3.725 3.899,-6.962 6.719,-9.678 2.785,-2.715 6.057,-4.839 9.782,-6.37 3.725,-1.497 7.59,-2.263 11.698,-2.263 2.332,0 4.595,0.243 6.823,0.731 2.263,0.487 4.63,1.253 7.102,2.263 z"
       fill="#c1ad80"
       id="path11" />
  </g>
  <path
     d="m 277.94063,0 c 0,0 -135.388,72.202 -211.349999,201.498 -80.314,136.676 -65.5180005,290.271 -65.5180005,290.271 0,0 97.9290005,107.782 276.8679995,107.782 178.974,0 278.296,-108.478 278.296,-108.478 0,0 14.343,-133.229 -51.419,-261.376 C 422.37963,69.034 277.94063,0 277.94063,0"
     fill="none"
     id="path15" />
  <clipPath
     id="b">
    <path
       d="m 277.941,0 c 0,0 -135.388,72.202 -211.35,201.498 -80.314,136.676 -65.518,290.271 -65.518,290.271 0,0 97.929,107.782 276.868,107.782 178.974,0 278.296,-108.478 278.296,-108.478 0,0 14.343,-133.229 -51.419,-261.376 C 422.38,69.034 277.941,0 277.941,0"
       clip-rule="nonzero"
       id="path17" />
  </clipPath>
  <g
     clip-path="url(#b)"
     id="g22"
     transform="translate(-3.6946752e-4)">
    <path
       d="M 63.199,540.196 C 22.352,515.19 1.073,491.769 1.073,491.769 c 0,0 -14.796,-153.595 65.518,-290.271 C 142.553,72.202 277.941,0 277.941,0 c 0,0 -13.824,55.036 -19.84,181.418 -4.707,98.881 23.125,177.708 23.125,177.708 0,0 -56.875,21.667 -128.125,78.542 -34.367,27.434 -66.41,67.084 -89.902,102.528 z"
       fill="url(#c)"
       filter="url(#d)"
       id="path20"
       style="fill:url(#c)" />
  </g>
  <defs
     id="defs38">
    <filter
       id="d"
       filterUnits="userSpaceOnUse"
       x="-47.564301"
       y="-47.564301"
       width="376.35501"
       height="635.32501">
      <feGaussianBlur
         in="SourceGraphic"
         stdDeviation="7.92739"
         id="feGaussianBlur28" />
    </filter>
    <linearGradient
       id="c"
       x2="1"
       gradientUnits="userSpaceOnUse"
       gradientTransform="matrix(234.73364,155.20778,-155.20778,234.73364,81.207383,210.58686)">
      <stop
         offset="0"
         stop-color="#fff"
         stop-opacity=".501961"
         id="stop31" />
      <stop
         offset=".42"
         stop-color="#fff"
         stop-opacity=".345098"
         id="stop33" />
      <stop
         offset="1"
         stop-color="#fff"
         stop-opacity="0"
         id="stop35" />
    </linearGradient>
  </defs>
</svg>
