<?xml version="1.0" encoding="UTF-8" standalone="no"?>
<svg
   width="11.809209mm"
   height="8.6103783mm"
   viewBox="0 0 11.809208 8.6103778"
   version="1.1"
   id="svg811127"
   xmlns="http://www.w3.org/2000/svg"
   xmlns:svg="http://www.w3.org/2000/svg"
   xmlns:rdf="http://www.w3.org/1999/02/22-rdf-syntax-ns#"
   xmlns:cc="http://creativecommons.org/ns#"
   xmlns:dc="http://purl.org/dc/elements/1.1/">
  <defs
     id="defs811121">
    <clipPath
       id="clipPath811155"
       clipPathUnits="userSpaceOnUse">
      <path
         id="path811153"
         d="M 0,694.488 H 518.74 V 0 H 0 Z" />
    </clipPath>
    <clipPath
       id="clipPath811265"
       clipPathUnits="userSpaceOnUse">
      <path
         id="path811263"
         d="M 0,0 H 518.74 V 694.488 H 0 Z" />
    </clipPath>
    <clipPath
       id="clipPath811273"
       clipPathUnits="userSpaceOnUse">
      <path
         id="path811271"
         d="M -9,567.68 H 502.079 V 466.273 H -9 Z" />
    </clipPath>
    <clipPath
       id="clipPath811297"
       clipPathUnits="userSpaceOnUse">
      <path
         id="path811295"
         d="M 0,0 H 518.74 V 694.488 H 0 Z" />
    </clipPath>
    <clipPath
       id="clipPath811305"
       clipPathUnits="userSpaceOnUse">
      <path
         id="path811303"
         d="M 68.1181,461.504 H 541.913 V 431.536 H 68.1181 Z" />
    </clipPath>
    <clipPath
       id="clipPath811321"
       clipPathUnits="userSpaceOnUse">
      <path
         id="path811319"
         d="M -9,553.449 H 33.8189 V 480.504 H -9 Z" />
    </clipPath>
    <clipPath
       id="clipPath811397"
       clipPathUnits="userSpaceOnUse">
      <path
         id="path811395"
         d="m 47.204,579.606 h 74.001 V 658 H 47.204 Z" />
    </clipPath>
    <clipPath
       id="clipPath811421"
       clipPathUnits="userSpaceOnUse">
      <path
         id="path811419"
         d="M 291.037,546.449 H 467.502 V 451.67 H 291.037 Z" />
    </clipPath>
    <clipPath
       id="clipPath812981"
       clipPathUnits="userSpaceOnUse">
      <path
         id="path812979"
         d="M 0,779.528 H 581.102 V 0 H 0 Z" />
    </clipPath>
    <clipPath
       id="clipPath813005"
       clipPathUnits="userSpaceOnUse">
      <path
         id="path813003"
         d="M 0,779.528 H 581.102 V 0 H 0 Z" />
    </clipPath>
    <clipPath
       id="clipPath813031"
       clipPathUnits="userSpaceOnUse">
      <path
         id="path813029"
         d="m 55.283,610.984 c 0,0 -11.999,0 -11.999,-12 v 0 -89.386 c 0,0 0,-12 11.999,-12 v 0 h 129.251 c 0,0 12,0 12,12 v 0 89.386 c 0,0 0,12 -12,12 v 0 z" />
    </clipPath>
    <clipPath
       id="clipPath813045"
       clipPathUnits="userSpaceOnUse">
      <path
         id="path813043"
         d="M 0,0 H 581.102 V 779.528 H 0 Z" />
    </clipPath>
    <clipPath
       id="clipPath813057"
       clipPathUnits="userSpaceOnUse">
      <path
         id="path813055"
         d="m 55.315,483.898 c 0,0 -12.001,0 -12.001,-12 v 0 -89.386 c 0,0 0,-12 12.001,-12 v 0 h 129.219 c 0,0 12,0 12,12 v 0 89.386 c 0,0 0,12 -12,12 v 0 z" />
    </clipPath>
    <clipPath
       id="clipPath813071"
       clipPathUnits="userSpaceOnUse">
      <path
         id="path813069"
         d="M 0,0 H 581.102 V 779.528 H 0 Z" />
    </clipPath>
    <clipPath
       id="clipPath813083"
       clipPathUnits="userSpaceOnUse">
      <path
         id="path813081"
         d="m 55.283,736.417 c 0,0 -12,0 -12,-12 v 0 -89.385 c 0,0 0,-12.001 12,-12.001 v 0 h 129.959 c 0,0 12,0 12,12.001 v 0 89.385 c 0,0 0,12 -12,12 v 0 z" />
    </clipPath>
    <clipPath
       id="clipPath813097"
       clipPathUnits="userSpaceOnUse">
      <path
         id="path813095"
         d="M 0,0 H 581.102 V 779.528 H 0 Z" />
    </clipPath>
    <clipPath
       id="clipPath813501"
       clipPathUnits="userSpaceOnUse">
      <path
         id="path813499"
         d="M 0,0 H 581.102 V 779.528 H 0 Z" />
    </clipPath>
    <clipPath
       id="clipPath813521"
       clipPathUnits="userSpaceOnUse">
      <path
         id="path813519"
         d="m 140.693,204.96 c 0.127,-0.806 -0.352,-1.395 -0.379,-2.218 v 0 c -0.543,-0.072 -0.498,-0.724 -0.725,-1.105 v 0 c 0.154,-0.08 0.399,0.056 0.444,-0.225 v 0 c -0.009,-0.398 -0.299,-0.508 -0.444,-0.77 v 0 c 0.046,-0.217 0.1,-0.424 0.172,-0.616 v 0 c -0.244,-0.37 -0.407,-0.813 -0.507,-1.329 v 0 c 0.652,-0.552 -0.099,-1.665 0.444,-2.435 v 0 c -0.217,-0.688 -0.643,-1.439 -0.498,-2.317 v 0 c -0.226,-1.122 -0.968,-1.728 -1.158,-2.878 v 0 c -0.471,-0.325 -0.905,-0.687 -1.72,-0.669 v 0 c -0.516,0.299 -0.977,0.651 -1.602,0.832 v 0 c -0.28,0.236 -0.244,0.788 -0.552,0.996 v 0 c -1.24,0.18 -2.28,0.561 -2.769,1.492 v 0 c -0.642,0.064 -0.914,0.49 -1.439,0.67 v 0 c -0.109,0.01 -0.208,0 -0.299,-0.008 v 0 c -0.172,-0.028 -0.299,-0.064 -0.308,0.172 v 0 c -0.054,0.253 0.326,0.072 0.272,0.335 v 0 c -0.136,0.099 -0.344,-0.109 -0.552,-0.118 v 0 c -0.172,0.109 -0.326,0.225 -0.552,0.281 v 0 c -0.353,0.877 -1.602,0.867 -1.937,1.774 v 0 c 0.48,0.66 1.077,1.203 1.33,2.099 v 0 c -0.37,0.226 -0.335,0.578 -0.226,1.05 v 0 c 0.226,0.181 0.643,0.172 0.833,0.388 v 0 c 0.163,-0.007 0.1,-0.234 0.281,-0.216 v 0 c 0.217,0.181 0.397,0.543 0.217,0.822 v 0 c 0.226,0.417 0.633,0.662 0.778,1.169 v 0 c -0.091,0.217 -0.353,0.244 -0.616,0.163 v 0 c -0.099,0.154 -0.153,0.362 -0.216,0.552 v 0 c -0.254,-0.054 -0.598,-0.027 -0.661,-0.273 v 0 c -0.018,-0.271 0.335,-0.18 0.326,-0.442 v 0 c -0.036,-0.29 -0.462,-0.443 -0.77,-0.28 v 0 c 0.018,0.252 0.063,0.361 -0.118,0.497 v 0 c -0.099,0.08 -0.189,0.009 -0.271,-0.054 v 0 c -0.099,-0.082 -0.19,-0.173 -0.28,0 v 0 c -0.036,0.324 0.353,0.244 0.28,0.606 v 0 c -0.606,-0.108 -0.896,-0.543 -1.439,-0.715 v 0 c -0.343,0.109 -0.407,0.515 -0.778,0.607 v 0 c -0.362,-0.3 -0.697,-0.155 -1.022,0 v 0 c -0.236,0.108 -0.462,0.208 -0.689,0.162 v 0 l -0.117,0.335 c -0.86,-0.307 -1.629,0.182 -1.937,0.779 v 0 c -0.172,0.117 -0.263,-0.227 -0.497,-0.227 v 0 c -0.136,0.082 -0.227,0.217 -0.272,0.388 v 0 c 0.136,0.155 0.109,0.328 0.054,0.554 v 0 c -0.29,0 -0.118,-0.389 -0.226,-0.444 v 0 c -0.335,0.207 -1.041,0.335 -1.376,-0.054 v 0 c 0.317,-0.064 0.38,-0.391 0.66,-0.498 v 0 c 0.136,0.127 0.372,0.145 0.607,0.171 v 0 c 0.308,-0.044 0.136,-0.37 0.172,-0.505 v 0 c 0.055,-0.209 0.489,-0.355 0.272,-0.824 v 0 c -0.236,-0.1 -0.399,-0.264 -0.607,-0.391 v 0 c -0.181,0.254 -0.435,-0.035 -0.607,-0.107 v 0 c -0.198,0.117 -0.479,0.089 -0.741,0.054 v 0 c -0.371,-0.045 -0.734,-0.1 -0.87,0.272 v 0 c -0.199,-0.1 -0.199,-0.064 -0.497,-0.055 v 0 c 0.019,-0.389 -0.371,-0.361 -0.498,-0.606 v 0 c -0.081,-0.009 -0.126,0.019 -0.172,0.055 v 0 c -0.045,0.027 -0.09,0.053 -0.163,0.053 v 0 c -0.145,-0.071 -0.072,-0.37 -0.163,-0.497 v 0 c -0.072,-0.046 -0.127,-0.046 -0.181,-0.046 v 0 c -0.063,0 -0.126,0.01 -0.208,-0.064 v 0 c 0,-0.406 -0.244,-0.56 -0.552,-0.66 v 0 c -0.081,-0.407 0.218,-0.407 0.227,-0.724 v 0 c -0.199,-0.226 -0.362,-0.524 -0.779,-0.389 v 0 c -0.235,-0.47 -0.145,-1.257 -0.778,-1.33 v 0 c -0.081,-0.172 -0.181,-0.326 -0.217,-0.552 v 0 c 0.208,-0.264 0.506,-0.444 0.606,-0.823 v 0 c -0.037,-0.127 -0.208,-0.127 -0.217,-0.281 v 0 c 0.063,-0.072 0.253,-0.299 0.109,-0.389 v 0 c -0.217,0.135 -0.335,0.37 -0.607,0.443 v 0 c -0.471,-0.281 -1.004,0.209 -1.665,0.227 v 0 c -0.29,-0.173 -0.399,-0.526 -0.833,-0.562 v 0 c -0.109,0.244 0.163,0.389 0.172,0.67 v 0 c -0.859,0.388 -1.195,1.793 -2.217,1.657 v 0 c -0.172,0.162 -0.244,0.415 -0.552,0.442 v 0 c -0.326,-0.19 -0.127,-0.796 -0.607,-0.94 v 0 c -0.198,0.045 -0.162,0.326 -0.388,0.335 v 0 c -0.236,0 -0.064,-0.417 -0.335,-0.391 v 0 c -0.154,0.219 0.018,0.445 -0.272,0.554 v 0 l -0.172,-0.109 c -0.073,-0.281 0.253,-0.154 0.226,-0.389 v 0 c -0.281,-0.209 -0.172,-0.589 -0.389,-0.771 v 0 c -0.443,0.055 -0.48,0.417 -0.66,0.608 v 0 c -0.154,-0.146 0.018,-0.263 0.054,-0.39 v 0 c -0.317,-0.181 -0.788,-0.461 -1.114,-0.163 v 0 c -0.045,-0.226 0.208,-0.506 0.172,-0.886 v 0 c 0.073,-0.163 0.507,-0.2 0.326,-0.445 v 0 c -0.317,0.164 -0.661,0.318 -0.995,0.055 v 0 c 0.063,-0.425 -0.389,-0.344 -0.498,-0.606 v 0 c -0.136,0.027 -0.118,0.208 -0.326,0.163 v 0 c -0.027,-0.208 0.172,-0.19 0.217,-0.335 v 0 c -0.769,-0.244 -0.217,-0.952 -0.054,-1.43 v 0 c -0.172,0.036 -0.199,-0.063 -0.335,-0.063 v 0 c -0.073,-0.199 0,-0.543 -0.272,-0.552 v 0 c -0.452,0.189 -1.085,0.732 -1.556,0.389 v 0 c -0.064,-0.244 0.271,-0.226 0.117,-0.389 v 0 c -0.117,-0.109 -0.271,-0.172 -0.28,-0.39 v 0 c 0.289,-0.244 0.615,-0.452 0.833,-0.768 v 0 c -0.145,-0.018 -0.055,-0.281 -0.163,-0.335 v 0 c -0.082,-0.009 -0.118,0.027 -0.163,0.054 v 0 c -0.055,0.045 -0.1,0.08 -0.227,0.054 v 0 c 0.046,-0.299 0.109,-0.715 -0.117,-0.887 v 0 c -0.497,0.534 -0.715,1.348 -1.158,1.937 v 0 c 0.045,0.118 0.172,0.226 0.054,0.335 v 0 c -0.326,-0.118 -0.453,-0.426 -0.553,-0.77 v 0 c -0.922,-0.343 -1.457,-1.249 -1.103,-2.552 v 0 c 0.099,-0.136 0.389,-0.081 0.389,-0.326 v 0 c -0.389,-0.326 -0.697,-0.714 -1.222,-0.886 v 0 c -0.126,-0.172 -0.099,-0.498 -0.335,-0.554 v 0 c -0.353,-1.511 -1.574,-2.325 -3.095,-2.66 v 0 c -0.416,-0.09 -0.887,0 -1.222,-0.335 v 0 c -0.262,0.145 -0.525,0.282 -0.941,0.282 v 0 c -0.362,-0.536 -1.059,-0.998 -1.937,-0.833 v 0 c -0.506,-0.381 -0.932,-0.834 -1.711,-0.941 v 0 c -0.217,0.262 -0.479,0.226 -0.732,0.19 v 0 c -0.208,-0.027 -0.417,-0.054 -0.598,0.09 v 0 c -0.335,-0.173 -0.507,-0.498 -0.995,-0.498 v 0 c -0.199,-0.208 -0.371,-0.443 -0.724,-0.498 v 0 c -0.526,-0.914 -1.657,-1.212 -2.597,-1.719 v 0 c -0.263,-0.434 -0.462,-0.941 -0.662,-1.439 v 0 c -0.081,0.062 -0.153,0.036 -0.235,0.018 v 0 c -0.072,-0.018 -0.145,-0.045 -0.208,0.036 v 0 c -0.091,0.47 0.036,0.995 -0.117,1.439 v 0 c -0.389,-0.19 -0.353,-0.716 -0.498,-1.104 v 0 c -0.082,-0.235 -0.326,-0.416 -0.326,-0.662 v 0 c -0.009,-0.252 0.244,-0.442 0.272,-0.722 v 0 c 0.045,-0.462 -0.154,-0.87 -0.109,-1.331 v 0 c -0.507,-0.489 -0.815,-1.177 -0.779,-2.208 v 0 c 0.299,-0.335 0.534,-0.725 0.562,-1.331 v 0 c 0.235,-0.479 1.149,-1.529 1.212,-1.991 v 0 c 0.054,-0.345 -0.009,-1.049 -0.388,-1.222 v 0 c -0.218,0.163 -0.181,0.588 -0.444,0.724 v 0 c -0.208,-0.261 0.407,-1.167 -0.38,-1.167 v 0 c -0.263,0.208 -0.2,0.732 -0.444,0.941 v 0 c -0.1,0.027 -0.172,0.027 -0.236,0.019 v 0 c -0.08,-0.009 -0.144,-0.009 -0.207,0.089 v 0 c -0.005,-0.026 -0.009,-0.049 -0.009,-0.071 v 0 -0.01 c 0.004,-0.19 0.181,-0.206 0.117,-0.47 v 0 c 0.688,-0.735 1.657,-1.756 1.774,-2.986 v 0 c 0.027,-0.372 -0.091,-0.689 0.054,-0.997 v 0 c 0.29,-0.652 1.132,-0.913 0.942,-1.775 v 0 c 0.932,-0.568 0.615,-1.772 0.714,-2.822 v 0 c 0.245,-2.417 2.019,-3.439 1.602,-6.028 v 0 c -0.47,-0.417 -0.009,-1.185 -0.054,-1.827 v 0 c -0.244,-0.391 -0.361,-0.924 -0.878,-1.051 v 0 c -0.28,-0.045 -0.28,0.199 -0.498,0.217 v 0 c -0.199,-0.552 -0.135,-1.53 0.163,-1.937 v 0 c 0.181,0 0.272,0.101 0.498,0.056 v 0 c 0.625,-0.29 1.077,-0.771 1.439,-1.323 v 0 c 0.526,0.009 0.787,-0.424 1.276,-0.505 v 0 c 0.218,-0.038 0.462,-0.019 0.697,0.008 v 0 c 0.417,0.036 0.842,0.073 1.24,-0.173 v 0 c 0.154,0.192 0.335,0.165 0.553,0.056 v 0 c 0.451,0.289 1.14,0.334 1.33,0.886 v 0 c 0.596,0.1 0.814,1.096 1.547,0.553 v 0 c 0.172,0.136 0.39,0.244 0.553,0.389 v 0 c 0.099,0.959 1.031,1.167 2.044,1.049 v 0 c 0.788,0.262 2.028,0.435 2.77,0.118 v 0 c 0.136,0.046 0.217,0.144 0.389,0.163 v 0 c 0.217,-0.081 0.163,-0.425 0.444,-0.444 v 0 c 0.443,0.399 1.085,0.182 1.764,0.39 v 0 c 0.2,-0.045 0.164,-0.326 0.39,-0.335 v 0 c 0.181,0.181 0.344,0.254 0.669,0.162 v 0 c 0.353,0.255 0.498,0.716 0.878,0.942 v 0 c 0.064,0.317 0.1,0.85 0.336,1.168 v 0 c 0.297,0.388 0.868,0.28 1.384,0.497 v 0 c 0.118,0.045 0.208,0.198 0.335,0.271 v 0 c 0.488,0.335 1.204,0.644 1.656,0.943 v 0 c 0.67,0.441 0.95,0.297 1.611,0.226 v 0 c 0.669,-0.074 1.512,0.026 1.936,0.162 v 0 c 0.507,0.163 1.078,0.326 1.548,0.498 v 0 c 0.579,0.225 1.096,0.706 1.71,0.887 v 0 c 0.661,0.19 1.358,0.181 2.046,0.163 v 0 c 0.851,-0.009 1.683,-0.019 2.444,0.335 v 0 c 0.497,-0.273 0.932,-0.372 1.439,-0.715 v 0 c 0.588,-0.407 0.796,-0.915 1.548,-0.389 v 0 c 0.714,-0.137 1.303,-1.077 2.099,-0.444 v 0 c 0.199,-0.217 0.452,-0.371 0.615,-0.607 v 0 c -0.045,-0.127 -0.172,-0.279 -0.054,-0.389 v 0 c 0.072,-0.073 0.136,-0.017 0.217,0.037 v 0 c 0.064,0.036 0.127,0.073 0.218,0.073 v 0 c 0.235,-0.118 0.443,-0.264 0.389,-0.662 v 0 c -0.064,-0.064 -0.19,-0.064 -0.326,-0.064 v 0 c -0.036,-0.488 0.226,-0.686 0.326,-1.05 v 0 c 0.787,0.209 1.285,-0.324 1.167,-1.103 v 0 c 0.751,-0.461 1.041,-1.394 1.213,-2.434 v 0 c 0.018,-0.127 -0.154,-0.065 -0.163,-0.163 v 0 c 0.235,-0.218 0.389,-0.499 0.661,-0.67 v 0 c 0.289,0.18 0.362,-0.009 0.615,-0.109 v 0 c 0.181,0.435 -0.064,0.462 -0.064,0.942 v 0 c 0.372,0.407 0.77,0.788 0.942,1.384 v 0 c 0.588,0.262 0.896,0.805 1.665,0.887 v 0 c 0.497,0.543 0.425,1.675 1.267,1.882 v 0 c 0.082,0.281 -0.127,0.561 0,0.715 v 0 c 0.362,-0.189 0.254,-0.858 0.507,-1.157 v 0 c -0.099,-0.163 -0.344,-0.174 -0.443,-0.335 v 0 c 0.072,-0.272 0.217,-0.48 0.271,-0.779 v 0 c -0.154,-0.272 -0.471,-0.444 -0.607,-0.661 v 0 c -0.126,-0.217 -0.326,-0.625 -0.389,-0.887 v 0 c -0.144,-0.616 0.362,-1.475 -0.217,-1.936 v 0 c -0.126,0.072 -0.262,0.054 -0.389,0.026 v 0 c -0.117,-0.017 -0.235,-0.035 -0.335,0.028 v 0 c -0.127,-0.271 -0.308,-0.743 -0.326,-0.941 v 0 c 0.607,0.063 1.041,0.598 1.765,0.335 v 0 c 0.317,0.777 0.335,1.846 0.779,2.488 v 0 c 0.452,-0.714 1.276,-1.891 0.714,-2.986 v 0 c -0.154,-0.299 -0.651,-0.381 -0.606,-0.779 v 0 c 0.471,-0.126 0.978,0.164 1.331,0.335 v 0 c 1.194,-0.67 2.117,-1.611 2.262,-3.321 v 0 c -0.055,-0.217 -0.281,-0.272 -0.326,-0.498 v 0 c 0.154,-0.135 0.181,-0.318 0.108,-0.552 v 0 c 0.1,-0.354 0.444,-0.525 0.725,-0.832 v 0 c 0.226,-0.254 0.299,-0.608 0.498,-0.888 v 0 c 0.334,-0.47 0.642,-0.38 1.267,-0.497 v 0 c 0.66,-0.126 0.723,-0.751 1.33,-0.996 v 0 c 0.073,0.724 0.968,0.379 1.222,0.053 v 0 c 0.154,0.011 0.226,0.101 0.38,0.11 v 0 c 0.896,-0.425 1.611,-1.032 2.552,-1.267 v 0 c 0.625,0.443 1.05,1.086 1.765,1.439 v 0 c 0.271,0.064 0.67,0 0.615,0.389 v 0 c -0.09,0.072 -0.208,0.028 -0.317,-0.009 v 0 c -0.135,-0.054 -0.271,-0.099 -0.353,0.064 v 0 c 0.381,0.234 0.716,0.506 1.114,0.714 v 0 c 0.163,-0.199 0.308,-0.425 0.443,-0.66 v 0 c -0.153,-0.353 -0.379,-0.617 -0.669,-0.833 v 0 c 0.262,-0.353 0.434,-0.054 0.778,0.053 v 0 c 0.099,-0.143 -0.028,-0.161 0.054,-0.324 v 0 c 0.661,-0.154 1.268,-0.362 1.494,-0.942 v 0 c 0.162,0 0.189,0.135 0.334,0.164 v 0 c 0.371,-0.127 0.272,-0.725 0.716,-0.779 v 0 c 0.099,0.235 -0.009,0.37 0.054,0.669 v 0 c 0.127,0.381 0.551,0.381 0.832,0.554 v 0 c 0.734,0.45 1.15,1.357 1.828,1.881 v 0 c 0.426,0.018 0.797,0.316 1.331,0.39 v 0 c 0.326,0.036 0.679,0.017 1.032,0 v 0 c 0.443,-0.02 0.868,-0.037 1.231,0.053 v 0 c 0.507,0.127 0.579,0.662 1.058,0.715 v 0 c -0.027,0.335 0,0.624 0.109,0.833 v 0 c -0.462,0.769 0.217,1.928 0.217,2.824 v 0 c 0.009,0.905 0.725,1.673 0.941,2.326 v 0 c 0.063,0.045 0.154,0.073 0.281,0.053 v 0 c -0.082,0.29 0.163,0.364 0.108,0.887 v 0 c 0.317,0.29 0.209,1.005 0.39,1.441 v 0 c 0.525,0.289 0.742,0.868 0.769,1.655 v 0 c 0.624,0.598 0.543,1.901 1.665,1.991 v 0 c 0.063,0.515 0.507,0.634 0.833,0.888 v 0 c -0.199,0.632 0.19,1.311 0.607,1.665 v 0 c 0.153,0.706 0.388,1.339 0.551,2.045 v 0 c -0.285,0.804 0.12,1.574 0.384,2.395 v 0 5.728 c -0.274,0.341 -0.602,0.795 -0.167,1.171 v 0 c -0.063,0.66 -0.425,1.811 0,2.435 v 0 c -0.512,0.46 -0.07,1.114 0.167,1.681 v 0 0.81 c -0.33,-0.406 -0.376,-0.846 -0.665,-1.215 v 0 c -0.089,0.053 -0.054,0.236 -0.108,0.335 v 0 c -0.597,0.064 -0.778,0.544 -0.887,1.104 v 0 c -0.859,0.252 -0.977,1.277 -1.547,1.828 v 0 c -0.544,-0.19 -0.814,0.308 -1.104,0.552 v 0 c 0.542,0.245 -0.263,0.96 -0.661,0.499 v 0 c -0.48,0.805 0.299,2.425 -0.724,2.876 v 0 c -0.009,-0.161 0.153,-0.433 0,-0.551 v 0 c -0.688,0.026 -0.724,0.96 -1.331,0.886 v 0 c -0.136,-0.207 0.208,-0.515 0.054,-0.723 v 0 c -0.777,0.217 -0.968,1.023 -0.995,1.991 v 0 c -0.281,0.272 -0.444,0.66 -0.498,1.168 v 0 c -0.434,0.317 -1.049,0.452 -1.049,1.213 v 0 c 0.063,0.063 0.199,0.063 0.335,0.063 v 0 c -0.091,0.199 0.009,0.262 -0.055,0.434 v 0 c -0.253,0.091 -0.48,0.189 -0.615,0.39 v 0 c -0.109,0.018 -0.163,-0.018 -0.218,-0.055 v 0 c -0.045,-0.027 -0.09,-0.063 -0.172,-0.054 v 0 c -0.163,0.072 -0.18,0.299 -0.271,0.444 v 0 c -0.344,0.081 -0.769,0.071 -0.778,0.497 v 0 c -0.39,-0.363 -0.462,-0.028 -0.607,0.308 v 0 c -0.127,0.289 -0.316,0.587 -0.832,0.407 v 0 c -0.145,0.073 -0.172,0.272 -0.326,0.335 v 0 c -0.036,-0.072 -0.127,-0.099 -0.227,-0.108 v 0 c -0.434,0.415 -1.167,0.407 -1.266,1.049 v 0 c -0.064,0.37 0.307,0.797 0,1.222 v 0 c -0.136,0.108 -0.517,-0.037 -0.562,0.163 v 0 c 0.534,1.032 -0.162,1.917 -0.162,2.824 v 0 c -0.471,0.117 -0.887,0.615 -1.105,1.158 v 0 c 0.426,0.796 -0.498,1.629 -0.172,2.326 v 0 c -0.054,0.126 -0.172,0.198 -0.163,0.388 v 0 c 0.018,0.145 0.163,0.164 0.163,0.335 v 0 c -0.515,0.562 -1.439,0.725 -1.602,1.656 v 0 c -0.253,-0.153 -0.488,-0.08 -0.714,-0.216 v 0 c -0.217,-0.127 -0.236,-0.417 -0.562,-0.39 v 0 c -0.452,0.028 -0.353,0.479 -0.498,0.888 v 0 c -0.135,0.408 -0.37,0.542 -0.325,0.941 v 0 c 0.045,0.434 -0.045,1.113 -0.063,1.602 v 0 c -0.118,0.063 -0.299,0.072 -0.326,0.217 v 0 c 0.254,0.453 -0.254,0.824 -0.552,1.059 v 0 c -0.073,0.361 0.163,0.424 0.163,0.715 v 0 c -0.317,0.145 -0.498,0.009 -0.662,0.335 v 0 c -0.099,0.181 0.037,0.633 0,0.941 v 0 c -0.072,0.534 -0.216,0.851 -0.614,1.049 v 0 c 0.036,0.209 0.072,0.299 -0.163,0.335 v 0 c -0.19,-0.234 -0.39,-0.46 -0.725,-0.551 m 5.702,-70.132 c -0.117,-0.062 -0.154,-0.026 -0.199,0.009 v 0 c -0.036,0.028 -0.09,0.055 -0.181,0.045 v 0 c 0.118,-0.361 -0.027,-0.542 -0.118,-0.823 v 0 c 0.127,-1.367 0.852,-2.144 1.331,-3.159 v 0 c -0.434,-1.32 0.688,-2.379 1.159,-3.321 v 0 c 0.045,-0.054 0.081,-0.036 0.126,-0.026 v 0 c 0.043,0.017 0.086,0.025 0.143,-0.019 v 0 h 2.891 c 0.027,0.125 0.072,0.242 0.161,0.379 v 0 c -0.326,0.164 -0.181,1.051 0.172,0.608 v 0 c -0.028,0.198 0.045,0.29 0.162,0.335 v 0 c 0.399,-0.227 -0.036,-0.733 0.335,-1.05 v 0 c 0.209,-0.01 0.354,0.054 0.498,0.107 v 0 c -0.099,0.436 0.091,0.851 -0.226,1.106 v 0 c 0.353,0.57 0.082,1.475 0.616,1.99 v 0 c 0.099,-0.018 0.135,-0.118 0.27,-0.109 v 0 c -0.062,1.142 0.01,2.172 0,3.322 v 0 c -0.171,0.172 -0.442,0.498 -0.66,0.443 v 0 c -0.117,-0.108 -0.135,-0.307 -0.335,-0.335 v 0 c -0.081,-0.008 -0.126,0.028 -0.172,0.055 v 0 c -0.054,0.035 -0.108,0.072 -0.217,0.055 v 0 c -0.199,-0.065 -0.172,-0.372 -0.443,-0.381 v 0 c -0.09,-0.027 -0.108,0.009 -0.136,0.046 v 0 c -0.027,0.036 -0.054,0.072 -0.135,0.062 v 0 c -0.118,-0.171 -0.236,-0.144 -0.372,-0.117 v 0 c -0.072,0.009 -0.154,0.018 -0.235,0.009 v 0 c -0.471,-0.09 -0.823,-0.489 -1.276,-0.497 v 0 c -0.995,-0.036 -1.674,1.041 -2.715,1.05 v 0 c -0.018,0.161 -0.166,0.357 -0.295,0.357 v 0 c -0.058,0 -0.111,-0.039 -0.149,-0.141" />
    </clipPath>
    <clipPath
       id="clipPath813561"
       clipPathUnits="userSpaceOnUse">
      <path
         id="path813559"
         d="M 0,0 H 581.102 V 779.528 H 0 Z" />
    </clipPath>
    <clipPath
       id="clipPath813577"
       clipPathUnits="userSpaceOnUse">
      <path
         id="path813575"
         d="m 72.337,74.19 h 92.545 v 32.109 H 72.337 Z" />
    </clipPath>
    <clipPath
       id="clipPath814451"
       clipPathUnits="userSpaceOnUse">
      <path
         id="path814449"
         d="M 0,0 H 518.74 V 694.488 H 0 Z" />
    </clipPath>
    <clipPath
       id="clipPath814463"
       clipPathUnits="userSpaceOnUse">
      <path
         id="path814461"
         d="M 0,0 H 518.74 V 273.676 H 0 Z" />
    </clipPath>
    <clipPath
       id="clipPath814475"
       clipPathUnits="userSpaceOnUse">
      <path
         id="path814473"
         d="M 0,0 H 518.74 V 694.488 H 0 Z" />
    </clipPath>
    <clipPath
       id="clipPath815319"
       clipPathUnits="userSpaceOnUse">
      <path
         id="path815317"
         d="M 0,0 H 518.74 V 694.488 H 0 Z" />
    </clipPath>
    <clipPath
       id="clipPath817588"
       clipPathUnits="userSpaceOnUse">
      <path
         id="path817586"
         d="M 0,0 H 518.74 V 694.488 H 0 Z" />
    </clipPath>
    <clipPath
       id="clipPath817600"
       clipPathUnits="userSpaceOnUse">
      <path
         id="path817598"
         d="M 0,0 H 518.74 V 273.676 H 0 Z" />
    </clipPath>
    <clipPath
       id="clipPath817612"
       clipPathUnits="userSpaceOnUse">
      <path
         id="path817610"
         d="M 0,0 H 518.74 V 694.488 H 0 Z" />
    </clipPath>
    <clipPath
       id="clipPath818456"
       clipPathUnits="userSpaceOnUse">
      <path
         id="path818454"
         d="M 0,0 H 518.74 V 694.488 H 0 Z" />
    </clipPath>
    <clipPath
       id="clipPath820562"
       clipPathUnits="userSpaceOnUse">
      <path
         id="path820560"
         d="M 147.436,956.931 V 534.629 h 547.109 v 2.836 H 147.436" />
    </clipPath>
    <clipPath
       id="clipPath820576"
       clipPathUnits="userSpaceOnUse">
      <path
         id="path820574"
         d="M 147.436,817.015 H 352.612 V 956.931 H 147.436 Z" />
    </clipPath>
    <clipPath
       id="clipPath820590"
       clipPathUnits="userSpaceOnUse">
      <path
         id="path820588"
         d="M 352.279,817.015 H 557.993 V 956.931 H 352.279 Z" />
    </clipPath>
    <clipPath
       id="clipPath820604"
       clipPathUnits="userSpaceOnUse">
      <path
         id="path820602"
         d="M 557.66,747.109 H 694.546 V 956.931 H 557.66 Z" />
    </clipPath>
    <clipPath
       id="clipPath820618"
       clipPathUnits="userSpaceOnUse">
      <path
         id="path820616"
         d="M 147.436,677.037 H 352.612 V 817.349 H 147.436 Z" />
    </clipPath>
    <clipPath
       id="clipPath820632"
       clipPathUnits="userSpaceOnUse">
      <path
         id="path820630"
         d="M 352.279,677.037 H 557.993 V 817.349 H 352.279 Z" />
    </clipPath>
    <clipPath
       id="clipPath820646"
       clipPathUnits="userSpaceOnUse">
      <path
         id="path820644"
         d="M 557.66,537.465 H 694.546 V 747.443 H 557.66 Z" />
    </clipPath>
    <clipPath
       id="clipPath820660"
       clipPathUnits="userSpaceOnUse">
      <path
         id="path820658"
         d="M 147.436,537.465 H 352.612 V 677.37 H 147.436 Z" />
    </clipPath>
    <clipPath
       id="clipPath820674"
       clipPathUnits="userSpaceOnUse">
      <path
         id="path820672"
         d="M 352.279,537.465 H 557.993 V 677.37 H 352.279 Z" />
    </clipPath>
    <clipPath
       id="clipPath820696"
       clipPathUnits="userSpaceOnUse">
      <path
         id="path820694"
         d="M 147.436,234.065 H 694.545 V 956.931 H 147.436 Z" />
    </clipPath>
    <clipPath
       id="clipPath820710"
       clipPathUnits="userSpaceOnUse">
      <path
         id="path820708"
         d="m 496.652,276.587 h 155.37 v 95.651 h -155.37 z" />
    </clipPath>
    <clipPath
       id="clipPath820796"
       clipPathUnits="userSpaceOnUse">
      <path
         id="path820794"
         d="m 496.652,276.587 h 155.37 v 95.651 h -155.37 z" />
    </clipPath>
    <clipPath
       id="clipPath820852"
       clipPathUnits="userSpaceOnUse">
      <path
         id="path820850"
         d="m 496.652,276.587 h 155.37 v 95.651 h -155.37 z" />
    </clipPath>
    <clipPath
       id="clipPath820950"
       clipPathUnits="userSpaceOnUse">
      <path
         id="path820948"
         d="m 496.652,276.587 h 155.37 v 95.651 h -155.37 z" />
    </clipPath>
    <clipPath
       id="clipPath821010"
       clipPathUnits="userSpaceOnUse">
      <path
         id="path821008"
         d="M 132.435,219.065 H 709.546 V 971.933 H 132.435 Z" />
    </clipPath>
    <clipPath
       id="clipPath823390"
       clipPathUnits="userSpaceOnUse">
      <path
         id="path823388"
         d="M 133.263,219.892 H 708.718 V 843.905 H 133.263 Z" />
    </clipPath>
    <clipPath
       id="clipPath823510"
       clipPathUnits="userSpaceOnUse">
      <path
         id="path823508"
         d="m 190.937,853.886 h 68.097 v 73.641 h -68.097 z" />
    </clipPath>
    <clipPath
       id="clipPath824182"
       clipPathUnits="userSpaceOnUse">
      <path
         id="path824180"
         d="m 588.322,858.837 h 64.874 v 63.746 h -64.874 z" />
    </clipPath>
    <clipPath
       id="clipPath824194"
       clipPathUnits="userSpaceOnUse">
      <path
         id="path824192"
         d="M 133.263,971.105 H 708.718 V 219.893 H 133.263 Z" />
    </clipPath>
    <clipPath
       id="clipPath824284"
       clipPathUnits="userSpaceOnUse">
      <path
         id="path824282"
         d="m 114.435,201.065 h 613.11 v 788.868 h -613.11 z" />
    </clipPath>
    <clipPath
       id="clipPath828054"
       clipPathUnits="userSpaceOnUse">
      <path
         style="clip-rule:evenodd"
         id="path828052"
         d="m 208.14,883.679 h 85.74 v -52.14 h -85.74 z" />
    </clipPath>
    <clipPath
       id="clipPath828062"
       clipPathUnits="userSpaceOnUse">
      <path
         id="path828060"
         d="M 0.03,1191.03 H 842.01 V 0.03 H 0.03 Z" />
    </clipPath>
    <clipPath
       id="clipPath828226"
       clipPathUnits="userSpaceOnUse">
      <path
         id="path828224"
         d="m 260.785,869.277 c 0,0 0.717,1.092 1.291,1.357 0.742,0.343 1.068,0.785 1.282,1.038 0.681,0.697 1.539,1.8 2.432,3.103 1.665,2.428 3.017,5.186 2.343,4.944 -0.495,-0.176 -1.188,-0.736 -1.974,-1.575 0.483,1.549 0.647,2.839 0.214,2.65 -0.545,-0.236 -1.22,-1.021 -1.872,-2.164 0.247,1.506 0.27,2.682 -0.057,2.427 -0.374,-0.287 -0.798,-1 -1.196,-1.991 -0.318,1.278 -0.709,2.151 -0.944,1.824 -0.295,-0.406 -0.475,-1.22 -0.52,-2.28 -0.385,1.264 -0.808,2.122 -1.011,1.785 -0.287,-0.482 -0.399,-1.493 -0.316,-2.784 -0.329,1.264 -0.735,2.122 -0.985,1.795 -0.231,-0.295 -0.398,-0.802 -0.493,-1.461 -0.297,0.366 -0.562,0.509 -0.742,0.299 -0.224,-0.263 -0.383,-0.651 -0.487,-1.118 -0.215,0.197 -0.406,0.248 -0.545,0.088 -0.232,-0.276 -0.398,-0.686 -0.5,-1.181 -0.336,0.056 -0.597,-0.016 -0.713,-0.256 -0.177,-0.369 -0.246,-0.802 -0.217,-1.266 -0.489,0.219 -0.874,0.232 -0.994,-0.063 -0.155,-0.372 -0.177,-0.827 -0.087,-1.322 -0.148,-0.017 -0.29,-0.037 -0.416,-0.061 -0.49,-0.078 -0.804,-0.194 -0.838,-0.34 -0.036,-0.06 -0.033,-0.124 0.02,-0.191 0.068,-0.092 0.153,-0.181 0.258,-0.268 -0.758,-0.113 -1.204,-0.31 -1.013,-0.564 0.076,-0.104 0.181,-0.205 0.305,-0.305 -0.857,-0.124 -1.377,-0.352 -1.176,-0.643 0.067,-0.094 0.152,-0.189 0.248,-0.279 -0.802,-0.127 -1.28,-0.35 -1.086,-0.629 0.098,-0.142 0.237,-0.279 0.407,-0.413 -0.641,-0.126 -1.064,-0.317 -1.101,-0.552 l -0.007,0.008 c 0,0 -0.11,-0.455 -0.378,-0.345 -0.267,0.112 -2.675,1.823 -3.106,3.089 -0.334,0.983 -0.439,1.493 -0.47,1.675 l 0.002,0.148 c 0.203,2.936 1.689,4.778 0.932,4.43 -1.129,-0.516 -1.901,-1.426 -2.375,-2.665 -0.055,0.341 -0.082,0.683 -0.054,1.016 0.246,2.93 1.534,4.805 0.895,4.438 -1.083,-0.619 -1.99,-1.722 -2.226,-3.264 -0.012,0.082 -0.027,0.164 -0.031,0.245 -0.241,2.929 0.547,4.982 -0.002,4.513 -1.105,-0.947 -1.7,-3.186 -1.303,-5.231 -0.115,0.217 -0.22,0.439 -0.303,0.665 -1.008,2.761 -0.796,4.948 -1.196,4.353 -0.801,-1.193 -0.927,-3.15 -0.043,-4.982 -0.191,0.183 -0.368,0.375 -0.524,0.575 -1.593,2.068 -2.003,3.83 -2.222,3.196 -0.436,-1.266 -0.009,-3.125 1.248,-4.442 -0.081,0.056 -0.161,0.114 -0.238,0.176 -2.014,1.658 -2.752,3.501 -2.841,2.819 -0.155,-1.183 0.362,-2.457 1.492,-3.414 -1.464,0.788 -2.238,1.536 -2.113,1.102 0.164,-0.561 0.534,-1.106 1.076,-1.568 -0.401,0.15 -0.618,0.162 -0.525,-0.096 0.192,-0.535 0.564,-1.058 1.06,-1.535 -0.776,0.31 -1.271,0.458 -1.122,0.106 0.215,-0.498 0.596,-0.978 1.089,-1.413 -0.513,0.197 -0.803,0.251 -0.684,-10e-4 0.222,-0.478 0.635,-0.95 1.173,-1.385 -0.503,0.192 -0.785,0.242 -0.668,-0.008 0.164,-0.351 0.433,-0.698 0.775,-1.031 -0.314,0.081 -0.467,0.074 -0.361,-0.088 0.182,-0.281 0.459,-0.559 0.803,-0.826 -0.222,0.043 -0.318,0.018 -0.229,-0.121 0.234,-0.356 0.619,-0.71 1.101,-1.042 -0.248,0.053 -0.358,0.032 -0.262,-0.115 0.194,-0.3 0.499,-0.598 0.879,-0.883 -0.332,0.019 -0.486,-0.018 -0.348,-0.16 0.263,-0.264 0.638,-0.505 1.088,-0.713 -0.36,0.022 -0.531,-0.012 -0.386,-0.158 0.339,-0.344 0.869,-0.648 1.515,-0.894 -0.291,-0.123 -0.395,-0.24 -0.186,-0.366 0.776,-0.467 1.862,-0.619 3.008,-0.507 -1.261,-0.297 -2.224,-0.501 -1.751,-0.828 0.641,-0.445 1.469,-0.678 2.353,-0.736 l 0.116,-0.025 c -0.835,-0.265 -2.209,-0.993 -3.93,-1.263 -2.763,-0.433 -6.842,-0.237 -6.099,-0.725 0.918,-0.601 2.563,-0.903 4.394,-0.899 -0.372,-0.14 -0.523,-0.262 -0.299,-0.371 1.268,-0.619 3.483,-0.43 5.499,0.344 0.509,-0.384 1.349,-0.719 2.007,-0.92 l -0.189,-0.199 c -0.091,-0.061 -0.2,-0.091 -0.319,-0.106 -0.153,0.053 -0.303,0.129 -0.446,0.235 -0.177,0.133 -0.317,0.289 -0.418,0.453 -0.044,0.072 -0.08,0.071 -0.051,-0.005 0.085,-0.227 0.253,-0.452 0.483,-0.638 -0.176,0.05 -0.352,0.126 -0.515,0.252 -0.165,0.126 -0.293,0.274 -0.385,0.43 -0.041,0.068 -0.072,0.067 -0.048,-0.004 0.07,-0.191 0.197,-0.381 0.375,-0.547 0.075,-0.097 0.173,-0.187 0.277,-0.27 -0.104,0.03 -0.211,0.07 -0.314,0.125 -0.197,0.105 -0.358,0.239 -0.483,0.388 -0.054,0.064 -0.09,0.057 -0.05,-0.012 0.129,-0.23 0.345,-0.446 0.633,-0.599 l 0.059,-0.027 0.027,-0.024 -0.159,0.049 c -0.204,0.08 -0.382,0.193 -0.525,0.325 -0.061,0.058 -0.094,0.046 -0.047,-0.019 0.155,-0.212 0.397,-0.4 0.7,-0.517 0.173,-0.067 0.342,-0.094 0.506,-0.103 l 0.014,-0.007 c 0.483,-0.176 0.967,-0.134 1.276,0.07 v -0.011 c 0,0 0.483,0.303 0.876,0.544 0.94,-0.027 3.07,-0.05 3.879,0.087 0.995,0.168 2.492,0.351 3.755,0.788 1.138,0.394 2.201,0.937 3.009,1.099 0.828,0.165 2.527,0.022 3.95,0.602 1.346,0.601 1.149,-1.318 1.299,-0.312 0.222,1.49 -0.955,1.787 -1.297,1.842 l -0.04,0.061 c -0.061,0.195 -0.42,0.424 -0.73,0.52 -0.307,0.094 -1.835,0.304 -2.14,0.397 -0.172,0.053 -0.708,0.279 -1.148,0.469 l 0.026,0.007 2.42,5.175" />
    </clipPath>
    <linearGradient
       id="linearGradient828244"
       spreadMethod="pad"
       gradientTransform="matrix(-1e-6,24.407,24.407,1e-6,251.572,857.829)"
       gradientUnits="userSpaceOnUse"
       y2="0"
       x2="1"
       y1="0"
       x1="0">
      <stop
         id="stop828240"
         offset="0"
         style="stop-opacity:1;stop-color:#f8a30d" />
      <stop
         id="stop828242"
         offset="1"
         style="stop-opacity:1;stop-color:#df6713" />
    </linearGradient>
    <clipPath
       id="clipPath828254"
       clipPathUnits="userSpaceOnUse">
      <path
         style="clip-rule:evenodd"
         id="path828252"
         d="m 204.12,621.179 h 204.9 v -150.3 h -204.9 z" />
    </clipPath>
    <clipPath
       id="clipPath828262"
       clipPathUnits="userSpaceOnUse">
      <path
         id="path828260"
         d="M 0.03,1191.03 H 842.01 V 0.03 H 0.03 Z" />
    </clipPath>
    <clipPath
       id="clipPath828272"
       clipPathUnits="userSpaceOnUse">
      <path
         style="clip-rule:evenodd"
         id="path828270"
         d="M 189.06,611.219 H 424.08 V 468.359 H 189.06 Z" />
    </clipPath>
    <clipPath
       id="clipPath828280"
       clipPathUnits="userSpaceOnUse">
      <path
         style="clip-rule:evenodd"
         id="path828278"
         d="m 204.12,621.179 h 204.9 v -150.3 h -204.9 z" />
    </clipPath>
    <clipPath
       id="clipPath828288"
       clipPathUnits="userSpaceOnUse">
      <path
         id="path828286"
         d="M 0.03,1191.03 H 842.01 V 0.03 H 0.03 Z" />
    </clipPath>
    <clipPath
       id="clipPath828300"
       clipPathUnits="userSpaceOnUse">
      <path
         style="clip-rule:evenodd"
         id="path828298"
         d="m 438,621.179 h 204.84 v -150.3 H 438 Z" />
    </clipPath>
    <clipPath
       id="clipPath828308"
       clipPathUnits="userSpaceOnUse">
      <path
         id="path828306"
         d="M 0.03,1191.03 H 842.01 V 0.03 H 0.03 Z" />
    </clipPath>
    <clipPath
       id="clipPath828318"
       clipPathUnits="userSpaceOnUse">
      <path
         style="clip-rule:evenodd"
         id="path828316"
         d="M 436.92,611.219 H 643.98 V 454.979 H 436.92 Z" />
    </clipPath>
    <clipPath
       id="clipPath828326"
       clipPathUnits="userSpaceOnUse">
      <path
         style="clip-rule:evenodd"
         id="path828324"
         d="m 438,621.179 h 204.84 v -150.3 H 438 Z" />
    </clipPath>
    <clipPath
       id="clipPath828334"
       clipPathUnits="userSpaceOnUse">
      <path
         id="path828332"
         d="M 0.03,1191.03 H 842.01 V 0.03 H 0.03 Z" />
    </clipPath>
  </defs>
  <metadata
     id="metadata811124">
    <rdf:RDF>
      <cc:Work
         rdf:about="">
        <dc:format>image/svg+xml</dc:format>
        <dc:type
           rdf:resource="http://purl.org/dc/dcmitype/StillImage" />
        <dc:title />
      </cc:Work>
    </rdf:RDF>
  </metadata>
  <g
     id="layer1"
     transform="translate(144.23788,-138.30513)">
    <g
       id="g828208"
       transform="matrix(0.35277777,0,0,-0.35277777,-131.46489,152.84162)" />
    <g
       id="g828220"
       transform="matrix(0.35277777,0,0,-0.35277777,-227.08248,449.53831)">
      <g
         id="g828222"
         clip-path="url(#clipPath828226)">
        <g
           id="g828228">
          <g
             id="g828230">
            <g
               id="g828236">
              <g
                 id="g828238">
                <path
                   d="m 289.081,882.236 h -75.02 v -47.497 h 75.02 z"
                   style="fill:url(#linearGradient828244);stroke:none"
                   id="path828246" />
              </g>
            </g>
          </g>
        </g>
      </g>
    </g>
  </g>
</svg>
