<?xml version="1.0" encoding="UTF-8" standalone="no"?>
<svg
   viewBox="0 0 60.460313 59.855567"
   version="1.1"
   id="svg186"
   width="60.460312"
   height="59.855568"
   xmlns="http://www.w3.org/2000/svg"
   xmlns:svg="http://www.w3.org/2000/svg"
   xmlns:rdf="http://www.w3.org/1999/02/22-rdf-syntax-ns#"
   xmlns:cc="http://creativecommons.org/ns#"
   xmlns:dc="http://purl.org/dc/elements/1.1/">
  <metadata
     id="metadata190">
    <rdf:RDF>
      <cc:Work
         rdf:about="">
        <dc:format>image/svg+xml</dc:format>
        <dc:type
           rdf:resource="http://purl.org/dc/dcmitype/StillImage" />
        <dc:title>PLC-logo</dc:title>
      </cc:Work>
    </rdf:RDF>
  </metadata>
  <defs
     id="defs4">
    <style
       id="style2">.a{fill:#fff;}.b{fill:#f0ba4c;}</style>
  </defs>
  <title
     id="title6">PLC-logo</title>
  <path
     class="a"
     d="m 44.884389,41.58162 a 12.358,12.358 0 0 1 -2.1,0.82 c -4.41,1.2705 -8.9,1.92 -12.62,4.68 a 12.3577,12.3577 0 0 0 -3.58,-2.21 c -4.14,-1.84 -8.81,-1.6006 -12.55,-4.48 a 36.4079,36.4079 0 0 1 -5,-5.32 c -1.73,-2 -1.78,-4.7192 -1.05,-7.21 0.59,-2 2.4,-3.92 4.71,-3.27 a 0.7613,0.7613 0 0 1 0.5562,0.92 0.7527,0.7527 0 0 1 -0.106,0.24 c -0.6,0.73 -1.56,-0.3188 -2.13,0 -2.94,1.5 -3.19,5.6406 -1.31,8.4307 0.64,1 1.69,1.35 2.4,2.14 1,1.08 1.41,2.53 2.68,3.38 5,3.3193 10.8,3 15.9,5.6406 3.66,-2.4 8.15,-2.3105 12.11,-3.9 a 12.3377,12.3377 0 0 0 5.68,-5 c 0.66,-1 2.27,-1.7 2.88,-3 1.18,-2.54 1.05,-6.6792 -2,-7.63 -0.38,-0.12 -1.53,0.77 -1.86,0 -0.47,-1.0489 1,-1.419 1.91,-1.18 2.17,0.5713 3.12,2.4912 3.47,4.5312 0.35,2.04 0.18,4.4893 -1.32,5.919 -2.3,2.2 -3.71,5.06 -6.67,6.54"
     id="path8" />
  <path
     class="a"
     d="m 47.614289,22.51182 c -2.87,-2.45 -3.39,-6.45 -2.24,-9.85 0.74,-2.22 2.81,-3.2000001 4.51,-4.5700001 -3.15,-0.84 -4.2,-3.95 -6.4,-6 -0.38,-0.35 -1,-0.49 -1.45,-0.83 a 3.9191,3.9191 0 0 1 -4.958,2.48 3.8934,3.8934 0 0 1 -0.7818,-0.36 12.1622,12.1622 0 0 0 -12.08,0 4.9964,4.9964 0 0 1 -3.49,0.3 c -1.54,-0.35 -1.32,-2.27 -2.5,-2.29 a 2.7669,2.7669 0 0 0 -1.21,0.71 12.2826,12.2826 0 0 0 -2.64,3.44 c -0.92,1.39 -2.42,1.77 -3.74,2.57 2.1,1.36 4,2.8700001 4.74,5.3400001 a 9.0035,9.0035 0 0 1 -0.48,6.29 4.8255,4.8255 0 0 1 -2.74,3.05 1.1089,1.1089 0 0 1 -1.18,-0.3 c -0.17,-0.27 -0.29,-1.11 0.16,-1.09 1.93,0.12 2.85,-1.34 3.22,-2.93 a 8.7086,8.7086 0 0 0 0,-4.78 7.0074,7.0074 0 0 0 -2.78,-3.7600001 c -0.75,-0.5 -1.76,-0.49 -2.2,-1.34 a 0.9968,0.9968 0 0 1 0,-0.9 c 2.2,-1.28 4.41,-2.44 5.68,-4.81 0.79,-1.49 3.24,-3.92 4.34,-2.4 0.57,0.78 1.15,2.37 2.34,2.41 3.4,0.11 6.15,-2.92 9.86,-2.09 2.15,0.48 3.81,1.52 5.86,2.17 1.64,0.52 3.77,-0.76 3.27,-2.71 3.52,-0.86 4.67,3.59 6.87,5.54 1,0.92 2.61,0.91 3.45,2.11 a 1,1 0 0 1 -0.5171,1.3159 0.9136,0.9136 0 0 1 -0.2031,0.0639 6.1618,6.1618 0 0 0 -3.68,3.1900001 c -1.51,2.65 -1,5.68 0.44,8.29 0.54,1 1.41,0.32 2.22,0.61 a 0.72,0.72 0 0 1 0,1.35 1.6786,1.6786 0 0 1 -1.73,-0.18"
     id="path10" />
  <path
     class="a"
     d="m 48.524489,22.84182 a 1.4126,1.4126 0 0 1 -0.88,-0.33"
     id="path12" />
  <rect
     class="a"
     x="10.794489"
     y="29.102119"
     width="38.740299"
     height="0.62989998"
     id="rect14" />
  <polygon
     class="a"
     points="27.885,31.133 32.635,31.133 33.075,30.813 33.075,31.133 49.605,31.133 49.605,30.503 10.855,30.503 10.855,31.133 27.445,31.133 27.505,30.813 "
     id="polygon16"
     transform="translate(-2.1098986e-4,-2.8009681e-4)" />
  <polygon
     class="a"
     points="31.115,32.463 29.465,32.463 28.775,31.832 31.815,31.832 "
     id="polygon18"
     transform="translate(-2.1098986e-4,-2.8009681e-4)" />
  <polygon
     class="a"
     points="49.344,32.463 49.474,31.832 33.014,31.832 32.764,32.463 "
     id="polygon20"
     transform="translate(-2.1098986e-4,-2.8009681e-4)" />
  <polygon
     class="a"
     points="48.775,33.732 49.035,33.032 32.505,33.032 32.315,33.732 "
     id="polygon22"
     transform="translate(-2.1098986e-4,-2.8009681e-4)" />
  <polygon
     class="a"
     points="47.895,34.933 48.335,34.303 32.635,34.303 33.335,34.933 "
     id="polygon24"
     transform="translate(-2.1098986e-4,-2.8009681e-4)" />
  <polygon
     class="a"
     points="46.815,36.202 47.195,35.633 34.155,35.633 34.855,36.202 "
     id="polygon26"
     transform="translate(-2.1098986e-4,-2.8009681e-4)" />
  <polygon
     class="a"
     points="45.995,36.892 45.675,37.463 31.114,37.463 31.304,36.832 "
     id="polygon28"
     transform="translate(-2.1098986e-4,-2.8009681e-4)" />
  <polygon
     class="a"
     points="44.025,38.792 44.725,38.102 30.925,38.223 30.735,38.792 "
     id="polygon30"
     transform="translate(-2.1098986e-4,-2.8009681e-4)" />
  <polygon
     class="a"
     points="30.545,39.173 30.295,39.553 30.045,39.112 17.565,39.112 18.265,39.742 42.635,39.742 43.015,39.173 "
     id="polygon32"
     transform="translate(-2.1098986e-4,-2.8009681e-4)" />
  <polygon
     class="a"
     points="38.835,41.013 40.425,40.442 20.034,40.442 21.554,41.013 "
     id="polygon34"
     transform="translate(-2.1098986e-4,-2.8009681e-4)" />
  <polygon
     class="a"
     points="34.855,42.213 36.304,41.642 24.155,41.642 25.485,42.213 "
     id="polygon36"
     transform="translate(-2.1098986e-4,-2.8009681e-4)" />
  <polygon
     class="a"
     points="31.335,43.482 32.795,42.902 28.045,42.902 29.375,43.482 "
     id="polygon38"
     transform="translate(-2.1098986e-4,-2.8009681e-4)" />
  <polygon
     class="a"
     points="11.264,32.433 11.144,31.803 27.604,31.803 27.854,32.433 "
     id="polygon40"
     transform="translate(-2.1098986e-4,-2.8009681e-4)" />
  <polygon
     class="a"
     points="11.844,33.702 11.585,33.002 28.114,33.002 28.295,33.702 "
     id="polygon42"
     transform="translate(-2.1098986e-4,-2.8009681e-4)" />
  <polygon
     class="a"
     points="12.725,34.902 12.285,34.263 27.985,34.263 27.285,34.902 "
     id="polygon44"
     transform="translate(-2.1098986e-4,-2.8009681e-4)" />
  <polygon
     class="a"
     points="13.805,36.162 13.425,35.593 26.465,35.593 25.765,36.162 "
     id="polygon46"
     transform="translate(-2.1098986e-4,-2.8009681e-4)" />
  <polygon
     class="a"
     points="14.625,36.862 14.945,37.433 29.505,37.433 29.315,36.803 "
     id="polygon48"
     transform="translate(-2.1098986e-4,-2.8009681e-4)" />
  <polygon
     class="a"
     points="16.585,38.763 15.885,38.072 29.695,38.192 29.885,38.763 "
     id="polygon50"
     transform="translate(-2.1098986e-4,-2.8009681e-4)" />
  <polygon
     class="b"
     points="25.485,9.672 28.074,12.082 27.255,15.242 30.224,13.282 33.204,15.312 32.255,11.952 35.104,9.742 31.554,9.742 30.224,6.192 28.834,9.672 "
     id="polygon52"
     transform="translate(-2.1098986e-4,-2.8009681e-4)" />
  <rect
     class="b"
     x="30.034788"
     y="4.16222"
     width="0.43990001"
     height="1.6499"
     id="rect54" />
  <polygon
     class="b"
     points="30.414,14.042 30.414,18.222 29.974,18.222 29.974,13.982 30.224,13.792 "
     id="polygon56"
     transform="translate(-2.1098986e-4,-2.8009681e-4)" />
  <polygon
     class="b"
     points="32.824,17.712 32.255,17.902 31.054,14.422 31.744,14.802 "
     id="polygon58"
     transform="translate(-2.1098986e-4,-2.8009681e-4)" />
  <polygon
     class="b"
     points="34.345,17.022 34.665,16.642 33.525,15.562 33.205,15.882 "
     id="polygon60"
     transform="translate(-2.1098986e-4,-2.8009681e-4)" />
  <polygon
     class="b"
     points="35.804,15.692 36.114,15.182 32.885,12.842 33.145,13.662 "
     id="polygon62"
     transform="translate(-2.1098986e-4,-2.8009681e-4)" />
  <polygon
     class="b"
     points="33.145,11.822 37.005,13.222 36.815,13.722 32.885,12.272 32.824,11.952 "
     id="polygon64"
     transform="translate(-2.1098986e-4,-2.8009681e-4)" />
  <polygon
     class="b"
     points="37.195,11.002 37.195,11.512 33.644,11.512 34.155,11.002 "
     id="polygon66"
     transform="translate(-2.1098986e-4,-2.8009681e-4)" />
  <polygon
     class="b"
     points="37.005,9.292 36.745,8.722 35.295,9.422 35.545,9.862 "
     id="polygon68"
     transform="translate(-2.1098986e-4,-2.8009681e-4)" />
  <polygon
     class="b"
     points="35.675,6.892 36.114,7.272 33.334,9.422 32.695,9.352 "
     id="polygon70"
     transform="translate(-2.1098986e-4,-2.8009681e-4)" />
  <polygon
     class="b"
     points="31.555,8.912 34.025,5.432 34.475,5.752 32.005,9.292 31.685,9.232 "
     id="polygon72"
     transform="translate(-2.1098986e-4,-2.8009681e-4)" />
  <polygon
     class="b"
     points="32.255,4.362 32.764,4.612 31.434,8.092 31.114,7.462 "
     id="polygon74"
     transform="translate(-2.1098986e-4,-2.8009681e-4)" />
  <polygon
     class="b"
     points="27.635,17.622 28.205,17.812 29.405,14.332 28.715,14.703 "
     id="polygon76"
     transform="translate(-2.1098986e-4,-2.8009681e-4)" />
  <polygon
     class="b"
     points="26.114,16.922 25.795,16.542 26.934,15.462 27.255,15.782 "
     id="polygon78"
     transform="translate(-2.1098986e-4,-2.8009681e-4)" />
  <polygon
     class="b"
     points="24.655,15.592 24.344,15.092 27.574,12.742 27.315,13.572 "
     id="polygon80"
     transform="translate(-2.1098986e-4,-2.8009681e-4)" />
  <polygon
     class="b"
     points="27.315,11.732 23.454,13.122 23.645,13.632 27.574,12.172 27.635,11.862 "
     id="polygon82"
     transform="translate(-2.1098986e-4,-2.8009681e-4)" />
  <polygon
     class="b"
     points="23.265,10.913 23.265,11.413 26.815,11.413 26.305,10.913 "
     id="polygon84"
     transform="translate(-2.1098986e-4,-2.8009681e-4)" />
  <polygon
     class="b"
     points="23.454,9.202 23.704,8.632 25.164,9.322 24.914,9.772 "
     id="polygon86"
     transform="translate(-2.1098986e-4,-2.8009681e-4)" />
  <polygon
     class="b"
     points="24.784,6.792 24.344,7.172 27.124,9.322 27.754,9.262 "
     id="polygon88"
     transform="translate(-2.1098986e-4,-2.8009681e-4)" />
  <polygon
     class="b"
     points="28.894,8.823 26.434,5.343 25.985,5.652 28.454,9.203 28.775,9.132 "
     id="polygon90"
     transform="translate(-2.1098986e-4,-2.8009681e-4)" />
  <polygon
     class="b"
     points="28.205,4.262 27.695,4.512 29.025,8.002 29.345,7.362 "
     id="polygon92"
     transform="translate(-2.1098986e-4,-2.8009681e-4)" />
  <path
     class="a"
     d="m 45.674389,27.96152 a 20.408,20.408 0 0 1 -1.83,-2.66 29.8214,29.8214 0 0 0 -3.29,-3.92 c -1,-1 -1.52,-0.7 -2.66,-0.51 -1.14,0.19 -3.1,2.4 -3.1,2.4 a 5.3005,5.3005 0 0 0 -0.63,-1.14 1.36,1.36 0 0 0 -1.84,-0.44 5.6648,5.6648 0 0 1 -1.71,0.63 4.4929,4.4929 0 0 0 -1.77,0.57 17.9486,17.9486 0 0 1 -3.74,2.66 c -2.72,1.46 -2.7891,2.41 -2.7891,2.41 z m -19.94,-5.38 a 14.6492,14.6492 0 0 1 -2.6,0.44 c -0.82,0.06 -2.09,0.25 -2.09,0.25 l -0.76,0.25 a 12.347,12.347 0 0 0 -2.7193,2.72 2.21,2.21 0 0 1 -1.331,0.95 1.8243,1.8243 0 0 0 -0.95,0.7 l 6.08,0.06 c 0,0 -0.13,-1.33 2.78,-2.72 2.91,-1.39 3.61,-2.47 3.61,-2.47 a 5.3206,5.3206 0 0 0 -2,-0.19 m -6.71,6 h -6.08 c 1.19,-0.65 2.26,-1.45 3.46,-2.16 1.2,-0.71 1.78,-2 2.89,-2.87 1.68,-1.34 3.62,-0.87 5.57,-1.46 1.39,-0.42 2.86,0.35 4.24,0 0.68,-0.16 1.32,-0.28 2,-0.44 0.31,-0.07 0.48,-0.55 0.79,-0.64 a 2.2823,2.2823 0 0 1 2.9483,1.3085 c 0.019,0.05 0.0356,0.1011 0.0518,0.1519 1.48,-2.08 4.25,-3.31 6.25,-1.43 2.4,2.26 3.6,5.4 6.16,7.51 h -28.3 z"
     id="path94" />
  <path
     class="a"
     d="m 44.884389,28.39212 c -3.61,-5.57 -5.51,-6.65 -5.51,-6.65 v -0.54 c 0,0 2.15,1.39 5.76,7 z"
     id="path96" />
  <path
     class="a"
     d="m 44.074289,28.32182 c -3.07,-4.49 -4.68,-5.4 -4.68,-5.4 v -0.54 c 0,0 1.89,1.22 5.08,5.94 z"
     id="path98" />
  <path
     class="a"
     d="m 43.184189,28.29202 c -2.54,-3.49 -3.86,-4.24 -3.86,-4.24 v -0.54 c 0,0 1.56,1 4.25,4.75 z"
     id="path100" />
  <path
     class="a"
     d="m 42.204189,28.27202 a 12.6216,12.6216 0 0 0 -2.88,-2.95 v -0.54 a 16.6519,16.6519 0 0 1 3.34,3.52 z"
     id="path102" />
  <path
     class="a"
     d="m 41.324289,28.27202 a 9.2242,9.2242 0 0 0 -1.93,-1.81 v -0.54 a 13.36,13.36 0 0 1 2.45,2.43 z"
     id="path104" />
  <path
     class="a"
     d="m 40.324289,28.24172 a 5.8269,5.8269 0 0 0 -0.94,-0.77 v -0.54 a 9.885,9.885 0 0 1 1.53,1.39 z"
     id="path106" />
  <path
     class="a"
     d="m 21.554289,22.96202 a 18.7294,18.7294 0 0 0 -4.06,3.84 h 0.79 a 18.1583,18.1583 0 0 1 4.25,-3.95 z"
     id="path108" />
  <path
     class="a"
     d="m 22.934189,22.97222 a 18.73,18.73 0 0 0 -4.06,3.84 h 0.79 a 18.1648,18.1648 0 0 1 4.25,-3.95 z"
     id="path110" />
  <path
     class="a"
     d="m 24.614289,22.65192 a 22.87,22.87 0 0 0 -4.38,4.15 h 0.79 a 22.1839,22.1839 0 0 1 4.57,-4.26 z"
     id="path112" />
  <path
     class="a"
     d="m 32.434189,25.72222 c 0,-1 -0.15,-1.26 -0.39,-1.4 -0.13,0.14 -0.27,0.27 -0.4,0.39 a 1.2992,1.2992 0 0 1 0.4,1.34 l 0.4,-0.33"
     id="path114" />
  <path
     class="a"
     d="m 31.714389,26.29202 c 0.13,-1 -0.05,-1.21 -0.3,-1.37 l -0.39,0.32 a 1.5125,1.5125 0 0 1 0.16,1.38 6.1757,6.1757 0 0 0 0.54,-0.32"
     id="path116" />
  <path
     class="a"
     d="m 32.984489,22.68222 c 0.39,0.1 0.69,0.36 0.92,1.31 l 0.57,-0.4 c -1,-2 -1.46,-1.39 -1.46,-1.39 a 1.7537,1.7537 0 0 1 0,0.48"
     id="path118" />
  <path
     class="a"
     d="m 32.544489,23.70222 a 4.9116,4.9116 0 0 1 -0.3,0.39 1.4509,1.4509 0 0 1 0.49,1.34 l 0.35,-0.37 c -0.09,-1 -0.29,-1.24 -0.54,-1.36"
     id="path120" />
  <path
     class="a"
     d="m 32.914189,22.98202 a 2.7861,2.7861 0 0 1 -0.21,0.46 1.4586,1.4586 0 0 1 0.65,1.29 c 0.13,-0.16 0.23,-0.31 0.31,-0.42 -0.21,-1 -0.46,-1.26 -0.75,-1.33"
     id="path122" />
  <path
     class="a"
     d="m 30.824289,26.78182 a 1.4384,1.4384 0 0 0 -0.06,-1.36 c -0.24,0.17 -0.41,0.27 -0.41,0.27 a 1.6837,1.6837 0 0 1 -0.19,1.33 5.0432,5.0432 0 0 0 0.66,-0.24"
     id="path124" />
  <path
     class="a"
     d="m 5.764289,54.02202 0.13,-0.15 a 1.7212,1.7212 0 0 0 0.22,0.17 c 0.07,0.0508 0.15,0 0.19,-0.09 l 1.2,-1.38 c 0.21,-0.24 0.23,-0.23 0,-0.4394 l -0.07,-0.0606 0.13,-0.15 1.07,0.9209 -0.13,0.1592 -0.17,-0.1494 c -0.12,-0.11 -0.16,-0.08 -0.27,0 l -1.25,1.44 c -0.09,0.1192 -0.15,0.169 0,0.2891 a 1.2793,1.2793 0 0 0 0.17,0.16 0.8406,0.8406 0 0 0 1.187,-0.0546 l 0.0127,-0.0157 0.14,0.1211 -0.71,0.76 z"
     id="path126" />
  <path
     class="a"
     d="m 8.224189,56.00152 0.08,-0.1894 c 0.09,0 0.29,0.1689 0.38,0 a 0.4685,0.4685 0 0 0 0.06,-0.1211 l 0.76,-1.8194 a 0.16,0.16 0 0 0 0,-0.08 0.083,0.083 0 0 0 0,-0.09 1.3494,1.3494 0 0 0 -0.27,-0.13 l 0.08,-0.1894 2.2,1.01 -0.36,0.94 -0.17,-0.0694 a 0.8316,0.8316 0 0 0 -0.4781,-1.0732 c -0.0171,-0.0059 -0.0341,-0.0117 -0.0522,-0.0166 a 0.599,0.599 0 0 0 -0.25,-0.0605 0.1128,0.1128 0 0 0 -0.08,0 0.4745,0.4745 0 0 0 -0.1,0.17 l -0.28,0.67 a 0.509,0.509 0 0 0 0.6919,-0.2021 0.5,0.5 0 0 0 0.0381,-0.0879 l 0.17,0.0693 -0.5,1.2412 -0.18,-0.0713 a 0.54,0.54 0 0 0 -0.228,-0.7275 0.38,0.38 0 0 0 -0.0722,-0.0313 l -0.32,0.78 c -0.07,0.1592 -0.1,0.2285 0.05,0.3086 l 0.17,0.0908 a 0.86,0.86 0 0 0 1.1539,-0.3847 c 0.0058,-0.0118 0.0107,-0.0235 0.0161,-0.0362 l 0.16,0.08 -0.43,0.9307 z"
     id="path128" />
  <path
     class="a"
     d="m 11.364289,57.17242 v -0.2 a 0.5813,0.5813 0 0 0 0.45,-0.19 l 0.7,-0.74 -0.63,-1.25 a 0.2821,0.2821 0 0 0 -0.26,-0.1806 v -0.1992 l 1.26,0.1406 v 0.1992 a 0.5075,0.5075 0 0 0 -0.23,0 0.3111,0.3111 0 0 0 0,0.12 l 0.32,0.63 a 2.2589,2.2589 0 0 0 0.45,-0.55 c 0,-0.18 -0.21,-0.22 -0.33,-0.2393 v -0.2 l 1.1,0.12 v 0.21 a 0.66,0.66 0 0 0 -0.54,0.29 l -0.57,0.6 0.6,1.19 a 0.4018,0.4018 0 0 0 0.35,0.29 v 0.1993 l -1.29,-0.14 v -0.2012 h 0.22 a 0.0787,0.0787 0 0 0 0,-0.0791 0.262,0.262 0 0 0 0,-0.12 l -0.33,-0.6494 c -0.13,0.1494 -0.27,0.29 -0.39,0.44 a 0.3053,0.3053 0 0 0 -0.07,0.1591 0.1821,0.1821 0 0 0 0.07,0.1612 h 0.09 a 1.5,1.5 0 0 0 0.21,0 v 0.2 z"
     id="path130" />
  <path
     class="a"
     d="m 16.794489,56.69192 a 0.47,0.47 0 0 0 0.08,0.24 0.3541,0.3541 0 0 0 0.22,0 c 0.58,-0.1006 0.65,-0.45 0.62,-1 a 2.2216,2.2216 0 0 0 0,-0.28 3.0334,3.0334 0 0 0 -0.11,-0.43 0.72,0.72 0 0 0 -0.8047,-0.624 0.3968,0.3968 0 0 0 -0.0752,0.0137 0.3459,0.3459 0 0 0 -0.22,0.1005 0.2593,0.2593 0 0 0 0,0.17 z m -0.9,0.68 v -0.1992 l 0.28,-0.0713 a 0.09,0.09 0 0 0 0,-0.06 0.4193,0.4193 0 0 0 0,-0.14 l -0.36,-2 a 0.11,0.11 0 0 0 -0.09,-0.11 0.5565,0.5565 0 0 0 -0.22,0 h -0.08 v -0.1992 l 1.19,-0.2 0.33,-0.05 a 1.17,1.17 0 0 1 0.52,0 1.1951,1.1951 0 0 1 0.44,0.21 1.4524,1.4524 0 0 1 0.49,0.8994 1.8557,1.8557 0 0 1 0,0.73 1.168,1.168 0 0 1 -0.48,0.71 1.9884,1.9884 0 0 1 -0.74,0.23 z"
     id="path132" />
  <path
     class="a"
     d="m 19.074289,56.75152 -0.06,-0.1894 c 0.09,0 0.33,-0.0606 0.32,-0.21 a 0.4161,0.4161 0 0 0 0,-0.13 l -0.61,-1.87 a 0.1492,0.1492 0 0 0 0,-0.08 0.0778,0.0778 0 0 0 -0.08,0 0.9965,0.9965 0 0 0 -0.29,0.08 l -0.06,-0.2012 2.29,-0.75 0.34,0.9512 -0.17,0.06 a 0.8284,0.8284 0 0 0 -1.062,-0.4981 0.3716,0.3716 0 0 0 -0.0479,0.0186 0.5553,0.5553 0 0 0 -0.23,0.12 0.1242,0.1242 0 0 0 0,0.09 0.4618,0.4618 0 0 0 0,0.19 l 0.23,0.69 a 0.51,0.51 0 0 0 0.4009,-0.6 0.5165,0.5165 0 0 0 -0.0313,-0.1006 l 0.17,-0.06 0.43,1.27 -0.19,0.0605 a 0.5294,0.5294 0 0 0 -0.625,-0.4131 0.5485,0.5485 0 0 0 -0.105,0.0323 l 0.26,0.8007 c 0.05,0.1592 0.07,0.25 0.25,0.21 h 0.19 a 0.87,0.87 0 0 0 0.6138,-1.0664 l -0.0039,-0.0137 h 0.17 l 0.28,1 z"
     id="path134" />
  <path
     class="a"
     d="m 21.794489,55.85212 v -0.2 h 0.22 c 0.16,0 0.13,-0.14 0.1,-0.29 l -0.35,-1.84 a 0.8025,0.8025 0 0 0 0,-0.12 0.101,0.101 0 0 0 -0.08,-0.08 0.6239,0.6239 0 0 0 -0.19,0 h -0.11 v -0.2 l 1.37,-0.26 v 0.2 h -0.11 a 0.2779,0.2779 0 0 0 -0.22,0.09 0.17,0.17 0 0 0 0,0.08 0.378,0.378 0 0 0 0,0.12 l 0.37,1.8984 a 0.17,0.17 0 0 0 0.1,0.1612 h 0.3 v 0.2 z"
     id="path136" />
  <path
     class="a"
     d="m 23.964389,52.63242 1.29,-0.1407 v 0.2 a 0.4415,0.4415 0 0 0 -0.29,0.1 0.2823,0.2823 0 0 0 0,0.15 l 0.76,1.5205 0.36,-1.48 a 0.42,0.42 0 0 0 0,-0.14 0.3091,0.3091 0 0 0 -0.38,-0.21 v -0.2 l 1,-0.12 v 0.2 a 0.6991,0.6991 0 0 0 -0.45,0.58 l -0.56,2.1895 h -0.29 l -1.13,-2.2295 a 0.3614,0.3614 0 0 0 -0.26,-0.2608 h -0.15 z"
     id="path138" />
  <path
     class="a"
     d="m 27.164189,55.09232 v -0.2 h 0.22 c 0.16,0 0.15,-0.12 0.13,-0.27 l -0.12,-1.87 a 0.5228,0.5228 0 0 0 0,-0.13 0.1021,0.1021 0 0 0 -0.07,-0.0908 0.6863,0.6863 0 0 0 -0.19,0 h -0.11 v -0.1992 l 1.4,-0.0908 v 0.1513 h -0.12 a 0.2834,0.2834 0 0 0 -0.23,0.0586 0.1747,0.1747 0 0 0 0,0.0713 0.4789,0.4789 0 0 0 0,0.13 l 0.12,1.93 a 0.1805,0.1805 0 0 0 0.08,0.17 h 0.31 v 0.1992 z"
     id="path140" />
  <path
     class="a"
     d="m 28.704189,53.23202 v -1 h 2.37 l 0.07,1 h -0.18 a 0.839,0.839 0 0 0 -0.63,-0.85 0.1081,0.1081 0 0 0 -0.12,0.0791 v 2.1709 c 0,0.14 0,0.18 0.14,0.1894 h 0.27 v 0.2 h -1.45 v -0.2 h 0.32 a 0.1,0.1 0 0 0 0.07,-0.08 0.426,0.426 0 0 0 0,-0.1494 v -2.08 a 0.1092,0.1092 0 0 0 -0.12,-0.07 0.86,0.86 0 0 0 -0.6,0.87 h -0.18 z"
     id="path142" />
  <path
     class="a"
     d="m 32.904389,53.93222 -0.3,-1 -0.42,0.9394 z m -0.19,-1.77 h 0.27 l 0.79,2.3906 a 0.31,0.31 0 0 0 0.3081,0.3115 c 0.0112,0 0.021,-10e-4 0.0322,-0.0019 v 0.21 l -1.26,-0.07 v -0.1992 a 0.42,0.42 0 0 0 0.25,0 0.15,0.15 0 0 0 0,-0.17 l -0.13,-0.4405 h -0.92 a 1.2247,1.2247 0 0 0 -0.13,0.37 0.29,0.29 0 0 0 0.2861,0.2939 0.2028,0.2028 0 0 0 0.0542,-0.0049 v 0.2012 l -1,-0.0508 v -0.21 a 0.77,0.77 0 0 0 0.54,-0.5595 z"
     id="path144" />
  <path
     class="a"
     d="m 34.164189,55.09232 v -0.2 c 0.1,0 0.33,0.09 0.38,0 a 0.41,0.41 0 0 0 0,-0.13 l 0.27,-2 a 0.1717,0.1717 0 0 0 0,-0.08 0.08,0.08 0 0 0 -0.06,-0.07 1.2562,1.2562 0 0 0 -0.3,-0.06 v -0.2 l 2.4,0.32 -0.11,1 h -0.18 a 0.8292,0.8292 0 0 0 -0.7339,-0.916 c -0.0191,-0.002 -0.0371,-0.0039 -0.0557,-0.0049 a 0.6141,0.6141 0 0 0 -0.26,0 0.1446,0.1446 0 0 0 -0.07,0.0693 0.5493,0.5493 0 0 0 0,0.1914 l -0.1,0.72 a 0.51,0.51 0 0 0 0.6241,-0.3623 0.5827,0.5827 0 0 0 0.0161,-0.1075 h 0.18 l -0.17,1.33 h -0.19 a 0.5317,0.5317 0 0 0 -0.3828,-0.6455 0.5641,0.5641 0 0 0 -0.1074,-0.0146 l -0.12,0.84 c 0,0.17 0,0.25 0.13,0.29 h 0.19 a 0.8691,0.8691 0 0 0 1,-0.7 h 0.18 l -0.08,1.03 z"
     id="path146" />
  <path
     class="a"
     d="m 38.014189,55.70172 0.05,-0.2 a 1.6352,1.6352 0 0 0 0.28,0.0606 c 0.09,0 0.12,-0.09 0.14,-0.16 l 0.49,-1.77 c 0.09,-0.3106 0.11,-0.3106 -0.18,-0.4 h -0.09 l 0.05,-0.2 1.36,0.38 -0.05,0.2 -0.22,-0.06 c -0.16,0 -0.18,0 -0.22,0.16 l -0.51,1.84 c 0,0.1494 -0.07,0.22 0.09,0.2793 l 0.22,0.08 a 0.84,0.84 0 0 0 1.0459,-0.5645 l 0.0039,-0.0156 h 0.18 l -0.32,1 z"
     id="path148" />
  <path
     class="a"
     d="m 42.174389,55.82182 -0.08,-1 -0.62,0.82 z m 0.21,-1.77 0.26,0.08 0.23,2.51 a 0.3088,0.3088 0 0 0 0.24,0.3662 l 0.02,0.0039 -0.06,0.2 -1.21,-0.3505 0.06,-0.2 a 0.4539,0.4539 0 0 0 0.25,0 0.1484,0.1484 0 0 0 0,-0.16 v -0.46 l -0.88,-0.25 a 1.1689,1.1689 0 0 0 -0.21,0.33 0.29,0.29 0 0 0 0.2109,0.3516 0.2979,0.2979 0 0 0 0.0591,0.0088 l -0.06,0.19 -1,-0.28 0.05,-0.2 a 0.7711,0.7711 0 0 0 0.65,-0.43 z"
     id="path150" />
  <path
     class="a"
     d="m 43.914189,55.02202 a 0.2777,0.2777 0 0 0 0,-0.22 0.5841,0.5841 0 0 0 -0.24,-0.0606 h -0.06 v -0.2 l 1.16,0.11 0.41,1.74 0.68,-1.6416 1.15,0.1114 v 0.2 h -0.11 a 0.2494,0.2494 0 0 0 -0.24,0 1.0351,1.0351 0 0 0 0,0.28 l -0.17,1.85 v 0.07 c 0,0.0694 0.17,0.12 0.25,0.13 h 0.09 v 0.2 l -1.36,-0.12 v -0.2 h 0.29 a 0.09,0.09 0 0 0 0.06,-0.07 0.3111,0.3111 0 0 0 0,-0.12 l 0.19,-2.1 -1,2.45 h -0.18 l -0.6,-2.57 -0.15,1.73 c 0,0.31 0,0.5694 0.35,0.59 v 0.2 l -1,-0.0909 v -0.1992 c 0.33,0 0.39,-0.15 0.43,-0.45 z"
     id="path152" />
  <path
     class="a"
     d="m 48.404389,55.92242 h 0.16 a 0.5309,0.5309 0 0 0 0.51,-0.75 0.47,0.47 0 0 0 -0.4653,-0.4756 0.4947,0.4947 0 0 0 -0.2051,0.044 0.4519,0.4519 0 0 0 -0.24,0.1113 0.2473,0.2473 0 0 0 0,0.21 z m -0.67,1.59 v -0.2 l 0.22,-0.05 c 0.15,0 0.13,-0.12 0.1,-0.25 l -0.46,-2 a 1.1976,1.1976 0 0 0 -0.3,0 v -0.2 l 1.45,-0.33 h 0.15 a 1.0045,1.0045 0 0 1 0.68,0 0.7,0.7 0 0 1 0.39,0.53 0.94,0.94 0 0 1 -0.8759,1 0.8567,0.8567 0 0 1 -0.1241,0 l -0.36,0.0694 0.17,0.7607 a 0.2446,0.2446 0 0 0 0.06,0.1485 h 0.1 a 0.4831,0.4831 0 0 0 0.15,0 h 0.11 v 0.2011 z"
     id="path154" />
  <path
     class="a"
     d="m 51.144089,55.25152 -0.76,-0.6894 0.12,1 z m -1.06,-1.43 0.24,-0.12 1.9,1.66 a 0.31,0.31 0 0 0 0.4248,0.1054 0.1334,0.1334 0 0 0 0.0254,-0.0156 l 0.09,0.1807 -1.11,0.58 -0.09,-0.1806 a 0.4327,0.4327 0 0 0 0.2,-0.1494 0.1491,0.1491 0 0 0 -0.08,-0.15 l -0.34,-0.31 -0.81,0.43 a 1.22,1.22 0 0 0 0.08,0.38 0.29,0.29 0 0 0 0.398,0.1006 0.2153,0.2153 0 0 0 0.042,-0.0313 l 0.09,0.1807 -0.91,0.48 -0.09,-0.1806 a 0.7672,0.7672 0 0 0 0.18,-0.76 z"
     id="path156" />
  <path
     class="a"
     d="m 52.504489,54.39212 0.13,-0.11 a 1.1708,1.1708 0 0 0 1.33,0.08 0.4593,0.4593 0 0 0 0.1451,-0.6338 0.3871,0.3871 0 0 0 -0.0249,-0.0362 0.4,0.4 0 0 0 -0.56,-0.0595 l -0.23,0.1181 a 1.51,1.51 0 0 1 -0.73,0.2412 0.8193,0.8193 0 0 1 -0.64,-0.29 0.8594,0.8594 0 0 1 0.0713,-1.2139 0.8012,0.8012 0 0 1 0.0991,-0.0761 0.9958,0.9958 0 0 1 0.62,-0.2393 v -0.2705 l 0.12,-0.1 0.68,0.75 -0.14,0.12 a 1.0594,1.0594 0 0 0 -1.22,-0.07 0.40940309,0.40940309 0 1 0 0.3681,0.7314 0.36,0.36 0 0 0 0.1119,-0.083 l 0.2,-0.1084 a 0.9991,0.9991 0 0 1 1.38,0.09 0.9206,0.9206 0 0 1 0.21,0.72 0.9919,0.9919 0 0 1 -0.37,0.5889 1.096,1.096 0 0 1 -0.72,0.2617 v 0.33 l -0.12,0.1 z"
     id="path158" />
  <path
     class="a"
     d="m 7.614789,49.11192 c -1.72,1 -2.5,3.1005 -4.31,4.05 a 11.7186,11.7186 0 0 0 10.13,6 c 4.32,0 8.37,-1.93 12.66,-2.09 a 64.0049,64.0049 0 0 1 8.87,0 c 3.67,0.37 7,1.71 10.63,2.09 a 12.0006,12.0006 0 0 0 11.66,-5.77 48.5907,48.5907 0 0 1 -4.05,-4.31 c -2.61,2.77 -6.55,3.58 -10.39,2.8408 -1.95,-0.3809 -3.68,-0.7705 -5.57,-1.2705 a 28.0115,28.0115 0 0 0 -6.57,-0.6895 c -4.64,-0.121 -9,1.1993 -13.7,2 -3.33,0.56 -7,-0.1806 -9.34,-2.8808 m 0.54,-1.8692 c 2.55,-0.5205 4.4,1.6094 6.56,2.6094 0.23,0.11 0.49,-0.1094 0.45,-0.22 -1.5,-3.77 -6.18,-3.8506 -8.76,-6.65 a 10.6043,10.6043 0 0 1 -1.31,-2.7393 c -1.3,1.42 -3.47,2.3 -4,3.8995 -0.81999999,2.43 1.27,5.21 3.5,6.74 1.36,-1.1006 1.75,-3.2607 3.58,-3.64 m 44.72,0.2295 c 1.37,0.65 3.15,4.1905 3.82,3.28 2.06,-2.82 3.49,-4 2.78,-6.36 -0.48,-1.62 -2.55,-2.63 -4,-3.89 -0.68,1.27 -1,2.73 -2.3,3.51 -2.79,1.63 -5.83,2.52 -7.8,5.37 a 0.28,0.28 0 0 0 0.0689,0.39 0.27,0.27 0 0 0 0.1509,0.05 c 2.61,-0.55 4.77,-3.54 7.29,-2.34 m 0.69,-5.56 c 1,-0.5 1.31,-2.48 0,-2.78 -1,-0.22 -2.18,0.5605 -1.82,1.58 0.19,0.57 1,1.56 1.79,1.1905 m -46.27,-0.1006 c 0.71,-0.29 1.09,-1 1.77,-1.29 -0.78,-0.84 -2,-2.44 -2.94,-1 -0.45,0.71 0.07,1.46 0.42,2.21 0.22,0.46 0.47,0.15 0.76,0 m 1.95,-0.34 a 18.15,18.15 0 0 1 -1.7,1.33 c 2.64,2.51 7.12,2.83 8.54,6.6094 a 1,1 0 0 1 -1.43,1.19 c -1.37,-0.47 -2.6,-1.25 -3.89,-1.8095 -0.78,-0.3408 -1.64,-1.3 -2.71,-0.67 4.21,5.8292 11.95,2.0792 17.74,1.39 6,-0.72 11.67,0.44 17.74,1.75 3.21,0.69 7.06,0.19 8.67,-3 0.12,-0.24 -0.71,-0.21 -1.09,-0.11 -2.15,0.6006 -3.83,2.71 -6.08,2.3809 a 1.0009,1.0009 0 0 1 -0.4868,-1.3281 c 0.0108,-0.0244 0.024,-0.0488 0.0371,-0.0723 1.56,-3.4306 5.94,-3.58 8,-6.33 0.28,-0.37 -1.91,-1 -2,-1.83 -0.21,-1.6495 1.88,-3.38 3.51,-2.62 a 12.4812,12.4812 0 0 1 6.05,5.59 c 1.2,2.65 -1.69,5.28 -3,7.81 -0.26,0.53 1.29,1 0.7,2.12 a 11.872,11.872 0 0 1 -9.81,6.06 c -4.88,0.3 -9.36,-1.9394 -14.18,-2.22 -5.83,-0.33 -11.36,0.6 -17.25,1.86 a 12.911,12.911 0 0 1 -13.4,-4.65 c -1,-1.23 -1,-2.69 0.52,-3.3 -2.2,-2 -4.48999999,-4.95 -3.52999999,-7.7607 0.80999999,-2.35 3.37999999,-3.6191 5.39999999,-5.2891 1.7,-1.4 3.53,0.3 4.41,1.93 0.33,0.62 -0.51,0.64 -0.78,0.92"
     id="path160" />
</svg>
