<?xml version="1.0" encoding="UTF-8" standalone="no"?>
<svg
   version="1.1"
   id="Layer_1"
   x="0px"
   y="0px"
   viewBox="0 0 70.701324 70.599998"
   xml:space="preserve"
   width="70.701324"
   height="70.599998"
   xmlns="http://www.w3.org/2000/svg"
   xmlns:svg="http://www.w3.org/2000/svg"><defs
   id="defs59" />
<style
   type="text/css"
   id="style1">
	.st0{fill:#FFFFFF;}
	.st1{fill:#bbb0a6;}
	.st2{fill:#00758D;}
	.st3{fill:#FFFFFF;}
</style>









<g
   id="g59"
   transform="translate(-2.2,-2.3)"><g
     id="g35">
	<g
   id="g34">
		<g
   id="g28">
			<g
   id="g24">
				<path
   class="st1"
   d="m 8,17.4 c 0,0 -1.2,-6 2.5,-9.8 0,0 0.8,5.4 -2.5,9.8 z"
   id="path18" />
				<path
   class="st1"
   d="m 7.2,23.9 c 0,0 -3.8,-6.2 -1.5,-10 0,-0.1 1.7,1 1.5,10 z"
   id="path19" />
				<path
   class="st1"
   d="m 7.2,23.9 c 0,0 -0.6,-3.7 3.9,-8.7 -0.1,0 0.8,3.8 -3.9,8.7 z"
   id="path20" />
				<path
   class="st1"
   d="m 7.6,31.6 c 0,0 -5.1,-4.4 -4.3,-12.3 0,0 2.9,2.9 4.3,12.3 z"
   id="path21" />
				<path
   class="st1"
   d="m 7.6,31.6 c 0,0 -1.7,-5.3 2.2,-9 0,-0.1 -0.1,4.7 -2.2,9 z"
   id="path22" />
				<path
   class="st1"
   d="m 9.3,39 c 0,0 -6.1,-4.5 -7.1,-12.1 0,0 5.5,5.3 7.1,12.1 z"
   id="path23" />
				<path
   class="st1"
   d="m 9.3,39 c 0,0 -1.7,-5 0.9,-10.9 -0.1,0 2.1,4.7 -0.9,10.9 z"
   id="path24" />
			</g>
			<path
   class="st1"
   d="m 14.1,46.6 c 0,0 -9,-2.8 -11.1,-11.4 0.1,0 7.9,6 11.1,11.4 z"
   id="path25" />
			<path
   class="st1"
   d="m 14.1,46.6 c 0,0 -3.7,-3.4 -2.3,-11.4 0,0 2.5,2.1 2.3,11.4 z"
   id="path26" />
			<path
   class="st1"
   d="m 21.1,51.5 c 0,0 -9.9,1.3 -14.6,-6.9 -0.1,0.1 2.1,0.4 14.6,6.9 z"
   id="path27" />
			<path
   class="st1"
   d="m 21.1,51.5 c 0,0 -5.3,-1.7 -5.8,-9.8 0,0 1.8,0.1 5.8,9.8 z"
   id="path28" />
		</g>
		<path
   class="st1"
   d="m 26.7,52.4 c 0,0 -5.7,4.6 -12.6,0 0,0 5.8,0.8 12.5,-0.1 0,0 0,0.1 0.1,0.1 z"
   id="path29" />
		<path
   class="st1"
   d="m 26.7,52.4 c 0,0 -4.8,-0.5 -6.2,-5.1 0,0 4.4,1.4 6.2,5.1 z"
   id="path30" />
		<path
   class="st1"
   d="m 27.5,53.1 c 0,0 0.9,2.7 -0.9,5.4 0,0 -0.8,-3.2 0.9,-5.4 z"
   id="path31" />
		<path
   class="st1"
   d="m 27.5,53.1 c 0,0 -1,3.6 -5.5,4.6 0,0 1.6,-3.1 5.5,-4.6 z"
   id="path32" />
		<path
   class="st1"
   d="m 28.5,53.1 c 0,0 2.8,-0.7 5.4,1.3 0.1,0.1 -3.3,0.7 -5.4,-1.3 z"
   id="path33" />
		<path
   class="st1"
   d="m 28.5,53.1 c 0,0 2.9,0.8 3.5,5 0,0 -2.3,-1 -3.5,-5 z"
   id="path34" />
	</g>
</g><g
     id="g52">
	<g
   id="g51">
		<g
   id="g45">
			<g
   id="g41">
				<path
   class="st1"
   d="m 67.2,17.4 c 0,0 1.2,-6 -2.5,-9.8 -0.1,0 -0.9,5.4 2.5,9.8 z"
   id="path35" />
				<path
   class="st1"
   d="m 68,23.9 c 0,0 3.8,-6.2 1.5,-10 0,-0.1 -1.8,1 -1.5,10 z"
   id="path36" />
				<path
   class="st1"
   d="m 68,23.9 c 0,0 0.6,-3.7 -3.9,-8.7 0,0 -0.9,3.8 3.9,8.7 z"
   id="path37" />
				<path
   class="st1"
   d="m 67.5,31.6 c 0,0 5.1,-4.4 4.3,-12.3 0,0 -2.8,2.9 -4.3,12.3 z"
   id="path38" />
				<path
   class="st1"
   d="m 67.5,31.6 c 0,0 1.7,-5.3 -2.2,-9 0,-0.1 0.1,4.7 2.2,9 z"
   id="path39" />
				<path
   class="st1"
   d="m 65.8,39 c 0,0 6.1,-4.5 7.1,-12.1 0.1,0 -5.5,5.3 -7.1,12.1 z"
   id="path40" />
				<path
   class="st1"
   d="m 65.9,39 c 0,0 1.7,-5 -0.9,-10.9 0,0 -2.2,4.7 0.9,10.9 z"
   id="path41" />
			</g>
			<path
   class="st1"
   d="m 61,46.6 c 0,0 9,-2.8 11.1,-11.4 0,0 -7.9,6 -11.1,11.4 z"
   id="path42" />
			<path
   class="st1"
   d="m 61,46.6 c 0,0 3.7,-3.4 2.3,-11.4 0,0 -2.4,2.1 -2.3,11.4 z"
   id="path43" />
			<path
   class="st1"
   d="m 54.1,51.5 c 0,0 9.9,1.3 14.6,-6.9 0,0.1 -2.2,0.4 -14.6,6.9 z"
   id="path44" />
			<path
   class="st1"
   d="m 54.1,51.5 c 0,0 5.3,-1.7 5.8,-9.8 0,0 -1.8,0.1 -5.8,9.8 z"
   id="path45" />
		</g>
		<path
   class="st1"
   d="m 48.4,52.4 c 0,0 5.7,4.6 12.6,0 0,0 -5.8,0.8 -12.5,-0.1 0,0 0,0.1 -0.1,0.1 z"
   id="path46" />
		<path
   class="st1"
   d="m 48.4,52.4 c 0,0 4.8,-0.5 6.2,-5.1 0,0 -4.4,1.4 -6.2,5.1 z"
   id="path47" />
		<path
   class="st1"
   d="m 47.6,53.1 c 0,0 -0.9,2.7 0.9,5.4 0,0 0.9,-3.2 -0.9,-5.4 z"
   id="path48" />
		<path
   class="st1"
   d="m 47.6,53.1 c 0,0 1,3.6 5.5,4.6 0,0 -1.6,-3.1 -5.5,-4.6 z"
   id="path49" />
		<path
   class="st1"
   d="m 46.6,53.1 c 0,0 -2.8,-0.7 -5.4,1.3 -0.1,0.1 3.3,0.7 5.4,-1.3 z"
   id="path50" />
		<path
   class="st1"
   d="m 46.6,53.1 c 0,0 -2.9,0.8 -3.5,5 0,0 2.3,-1 3.5,-5 z"
   id="path51" />
	</g>
</g><g
     id="g54">
	<g
   id="g53">
		<path
   class="st0"
   d="M 37.6,47.1 C 31.8,45 19.5,38.8 19.5,30.3 V 5.3 H 55.7 V 30.2 C 55.6,38.8 43.4,45 37.6,47.1 Z"
   id="path52" />
		<path
   class="st0"
   d="m 52.6,8.3 v 21.9 c 0,6 -9.2,11.3 -15.1,13.6 C 31.6,41.5 22.4,36.1 22.4,30.2 V 8.3 h 30.2 m 6,-6 H 16.5 v 27.9 c 0,13.2 21.1,20 21.1,20 0,0 21.1,-6.8 21.1,-20 z"
   id="path53" />
	</g>
</g><path
     class="st2"
     d="m 17.5,3.4 v 26.7 c 0,12.6 20,19.1 20,19.1 0,0 20,-6.5 20,-19.1 V 3.4 Z m 36.2,30.3 c 0,0.3 -0.2,0.4 -0.3,0.5 0,0 0,0 -0.1,0 h -5.5 c 0,0 0.1,-0.4 0.2,-0.9 0.6,0 1,-0.2 1.2,-0.4 0.1,-0.2 0.3,-0.6 0.3,-1.9 0,-0.6 0,-1.9 0,-4 0,-1.2 0,-2.1 0,-2.5 -0.3,-0.1 -2.1,-0.1 -4.1,-0.1 H 45 c -2,0 -2.9,0 -3.3,0.1 0,0.5 0,1.3 0,2.5 0,2 0,3.4 0,4 0,1.3 0.2,1.8 0.3,1.9 0.2,0.2 0.4,0.3 0.9,0.4 0,0 0,0.5 -0.2,1 H 38 c 0,0 0,0 -0.1,0 -0.1,0 -0.3,-0.2 -0.3,-0.5 0,-0.3 0.2,-0.4 0.3,-0.4 0,0 0,0 0.1,0 0.8,0 1.1,-0.2 1.3,-0.4 0.1,-0.1 0.3,-0.5 0.3,-1.9 0,-1.4 0,-4 0,-6.6 0,-2.8 0,-5.3 0,-6.7 0,-1.3 -0.2,-1.8 -0.3,-1.9 -0.2,-0.2 -0.5,-0.4 -1.3,-0.4 0,0 -0.1,0 -0.1,0 -0.1,0 -0.3,-0.2 -0.3,-0.4 0,-0.2 0.2,-0.4 0.3,-0.5 0,0 0,0 0.1,0 h 5.1 c 0,0 0.1,0.4 0.2,0.9 -0.7,0 -0.9,0.2 -1.1,0.4 -0.1,0.2 -0.3,0.6 -0.3,1.9 0,1.2 0,3.3 0,5.4 0.4,0.1 2.3,0.1 3.3,0.1 h 0.5 c 0.9,0 3.6,0 4,-0.1 0,-2.1 0,-4.3 0,-5.4 0,-1.3 -0.2,-1.8 -0.3,-1.9 -0.2,-0.2 -0.5,-0.4 -1.3,-0.4 0,0 -0.1,0 -0.1,0 -0.1,-0.1 -0.3,-0.2 -0.3,-0.5 0,-0.2 0.2,-0.4 0.3,-0.4 0,0 0,0 0.1,0 h 5.4 c 0,0 0,0 0,0 0.1,0 0.3,0.2 0.3,0.5 0,0.3 -0.2,0.4 -0.3,0.5 0,0 0,0 0,0 -0.8,0 -1.1,0.2 -1.3,0.4 -0.1,0.2 -0.3,0.6 -0.3,1.9 0,1.5 0,4.1 0,6.7 0,2.6 0,5.2 0,6.6 0,1.3 0.2,1.8 0.3,1.9 0.2,0.2 0.5,0.4 1.3,0.4 0,0 0,0 0.1,0 -0.1,-0.2 0.1,-0.1 0.1,0.2 z m -25.2,-18 c 0,-2.5 1.7,-4.8 3.9,-5.9 2.1,-1 3.9,-1.1 5.4,-1.1 2.4,0 4.1,0.4 5.4,0.8 0.6,0.2 1.1,0.3 1.7,0.5 0.1,0 0.1,0.1 0.1,0.1 0.4,2.1 0.6,3.2 0.7,4.9 0,0 0,0.1 0,0.1 -0.1,0.1 -0.4,0.3 -0.9,0.2 -0.1,0 -0.1,-0.1 -0.1,-0.1 -0.1,-0.7 -0.3,-1.7 -1.2,-2.8 -0.4,-0.5 -2.2,-2.6 -6,-2.6 -1.4,0 -2.9,0.3 -4.2,1.1 -0.8,0.5 -2.5,1.5 -2.5,4.4 0,0.9 0.3,2.1 1.2,3.1 0.4,1.6 0,3 0,3 0,0 -0.1,0 -0.1,-0.1 -1.9,-1.1 -3.4,-2.5 -3.4,-5.6 z m 9.8,6.9 c 0,0 0,2.9 0,2.9 -0.8,-0.5 -1.6,-1 -2.4,-1.5 0.6,-1.4 0.7,-2.5 0.7,-2.5 0.6,0.4 1.7,1.1 1.7,1.1 z m 8.4,9.2 c 0,2.2 -0.6,3.9 -2.2,5.3 -2,1.8 -4.8,2.4 -6.9,2.4 -2.4,0 -4.5,-0.4 -6.1,-0.9 -0.5,-0.1 -1.1,-0.3 -1.7,-0.4 -0.1,0 -0.1,-0.1 -0.1,-0.1 C 29.3,36 29.1,35 29,33.4 c 0,0 0,-0.1 0,-0.1 0.1,-0.1 0.3,-0.3 0.8,-0.2 0.1,0 0.1,0.1 0.1,0.1 0.2,1.1 0.6,1.8 1.4,2.7 0.5,0.6 3,2.5 6.3,2.5 1.5,0 3.7,-0.7 5,-1.8 1,-1 1.7,-2.6 1.7,-3.9 0,-1.4 -0.5,-2.8 -1.5,-3.9 0,0 0,-3.1 0,-3.1 0.6,0.2 3.9,2.5 3.9,6.1 z m -19.1,1.9 c 0,0.3 -0.2,0.4 -0.3,0.5 0,0 0,0 -0.1,0 h -5.4 c 0,0 0,0 0,0 -0.1,0 -0.3,-0.2 -0.3,-0.5 0,-0.3 0.2,-0.4 0.3,-0.5 0,0 0,0 0,0 0.8,0 1.1,-0.2 1.3,-0.4 0.1,-0.2 0.3,-0.6 0.3,-1.9 0,-1.4 0,-4 0,-6.6 0,-2.6 0,-5.3 0,-6.7 0,-1.3 -0.2,-1.8 -0.3,-1.9 -0.2,-0.2 -0.5,-0.4 -1.3,-0.4 0,0 0,0 -0.1,0 -0.1,0 -0.3,-0.2 -0.3,-0.5 0,-0.3 0.2,-0.4 0.3,-0.5 0,0 0.8,0 0.8,0 h 4.8 c 0,0 -0.1,0.4 -0.1,0.9 -0.8,0.1 -1.1,0.2 -1.3,0.4 -0.1,0.2 -0.3,0.6 -0.3,1.9 0,1.3 0,6.3 0,8.2 0,0 0.1,0 0.2,0 1.9,-0.5 3.3,-0.7 4.3,-1 2.4,-0.7 3.1,-2.3 3.1,-5 0,-1.2 -0.4,-3 -1.2,-3.6 0,0 -0.2,-0.5 0,-1.6 2,0.3 2.8,1.7 3.1,2.4 0.3,0.7 0.4,1.4 0.4,2.9 0,1.5 -0.1,2.5 -0.4,3.2 -0.4,1.1 -1.3,1.9 -2.4,2.3 -0.8,0.3 -3.6,0.9 -6.6,1.6 H 26 c -0.3,0.1 -0.4,0.3 -0.4,0.5 v 0.2 c 0,1.5 0,2.6 0,3.3 0,1.3 0.2,1.8 0.3,1.9 0.2,0.2 0.5,0.4 1.3,0.4 0,0 0,0 0.1,0 0.1,0.1 0.3,0.2 0.3,0.5 z"
     id="path54" /><path
     class="st1"
     d="m 18.7,56.5 c 0,0 -6.7,-0.3 -6.6,1.7 0,1.5 6.3,2.5 6.3,2.5 z"
     id="path55" /><path
     class="st1"
     d="m 10.4,58.2 c 0,-0.1 0,-0.7 0.9,-1.4 0.7,-0.6 2.1,-1.2 4.9,-1.3 0,0 -3.2,-0.9 -4.4,-2.6 0,0 -3,0.2 -7.2,1.1 0,0 0.8,2.5 -1,6.3 l 6.8,-1 c 0,-0.1 0,-0.7 0,-1.1 z"
     id="path56" /><path
     class="st1"
     d="m 56.5,56.5 c 0,0 6.7,-0.3 6.6,1.7 0,1.5 -6.3,2.5 -6.3,2.5 z"
     id="path57" /><path
     class="st1"
     d="m 64.7,58.2 c 0,-0.1 0,-0.7 -0.9,-1.4 -0.7,-0.6 -2.1,-1.2 -4.9,-1.3 0,0 3.2,-0.9 4.4,-2.6 0,0 3,0.2 7.2,1.1 0,0 -0.8,2.5 1,6.3 l -6.8,-1 c 0.1,-0.1 0,-0.7 0,-1.1 z"
     id="path58" /><path
     class="st1"
     d="m 37.6,65 c 6.7,0 10.4,-1.6 15.8,-2.4 8,-1.2 11.5,-2.6 11.3,-4.4 0.3,3.7 0.9,7 0.9,7 0.4,2.3 -5.6,3.8 -12.3,5 -5.4,1 -9,2.7 -15.8,2.7 -6.8,0 -10.4,-1.8 -15.8,-2.7 C 15,69 9.1,67.6 9.4,65.2 c 0,0 0.6,-3.3 0.9,-7 -0.1,1.8 3.3,3.2 11.3,4.4 5.5,0.8 9.2,2.4 16,2.4 z m -24.5,-2.7 -0.7,-0.2 -0.5,3.5 1.9,0.6 0.1,-0.7 -1.2,-0.4 z m 3.6,1.7 0.1,-0.7 -1.9,-0.5 -0.5,3.4 2,0.6 0.1,-0.7 -1.3,-0.4 0.1,-0.7 1,0.3 0.1,-0.7 -1,-0.3 0.1,-0.7 z m 1.4,-0.3 -1.4,3.3 0.7,0.2 0.3,-0.7 0.9,0.2 0.1,0.8 0.7,0.2 -0.5,-3.8 z m -0.2,2.1 0.1,-0.3 c 0.1,-0.2 0.1,-0.3 0.2,-0.5 0.1,-0.2 0.1,-0.4 0.2,-0.5 v 0 c 0,0.2 0,0.4 0,0.6 0,0.2 0,0.4 0,0.6 V 66 Z m 4.4,-0.9 C 22.2,64.7 22,64.6 21.9,64.5 21.7,64.4 21.5,64.3 21.3,64.3 l -0.8,-0.2 -0.5,3.6 0.9,0.2 c 0.2,0 0.4,0 0.6,0 0.2,0 0.4,-0.1 0.5,-0.2 0.1,-0.1 0.3,-0.3 0.4,-0.5 0.1,-0.2 0.2,-0.5 0.2,-0.8 0,-0.3 0,-0.6 0,-0.8 -0.1,-0.3 -0.2,-0.5 -0.3,-0.7 z m -0.5,1.3 c 0,0.2 -0.1,0.4 -0.1,0.5 -0.1,0.1 -0.1,0.2 -0.2,0.3 -0.1,0.1 -0.2,0.1 -0.3,0.1 -0.1,0 -0.2,0 -0.4,0 H 20.7 L 21,64.8 h 0.1 c 0.1,0 0.2,0.1 0.3,0.1 0.1,0.1 0.2,0.1 0.2,0.2 0.1,0.1 0.1,0.2 0.1,0.4 0.2,0.3 0.2,0.5 0.1,0.7 z m 3,2.6 2,0.5 0.1,-0.7 -1.3,-0.3 0.1,-0.8 1.1,0.3 v -0.7 l -1.1,-0.3 0.1,-0.7 1.3,0.3 0.1,-0.7 -2,-0.5 z m 4.6,-2.7 -0.3,0.6 c 0,0.1 -0.1,0.2 -0.1,0.3 0,0.1 -0.1,0.2 -0.1,0.3 v 0 c 0,-0.1 -0.1,-0.2 -0.1,-0.3 0,-0.1 -0.1,-0.2 -0.1,-0.3 l -0.2,-0.8 -0.8,-0.2 0.7,2 -1,1.7 0.7,0.2 0.4,-0.7 c 0,-0.1 0.1,-0.2 0.1,-0.3 0,-0.1 0.1,-0.2 0.1,-0.3 v 0 c 0,0.1 0.1,0.2 0.1,0.3 0,0.1 0.1,0.2 0.1,0.3 l 0.2,0.8 0.8,0.2 -0.7,-2.1 1,-1.7 z m 3.3,1 C 32.6,67 32.5,66.9 32.3,66.8 32.2,66.7 32,66.7 31.8,66.6 l -1.1,-0.2 -0.2,3.7 0.7,0.1 0.1,-1.3 0.4,0.1 c 0.2,0 0.3,0 0.5,0 0.1,0 0.3,-0.1 0.4,-0.2 0.1,-0.1 0.2,-0.2 0.3,-0.3 C 33,68.4 33,68.2 33,68 c 0,-0.2 0,-0.4 -0.1,-0.6 0,-0.1 -0.1,-0.2 -0.2,-0.3 z m -1,1.3 -0.4,-0.1 0.1,-1.1 0.4,0.1 c 0.2,0 0.3,0.1 0.4,0.2 0.1,0.1 0.1,0.2 0.1,0.4 0,0.4 -0.2,0.6 -0.6,0.5 z m 2.7,-1.5 -0.7,-0.1 -0.1,3.7 1.9,0.2 V 70 h -1.2 z m 3.9,0.6 C 38.2,67.3 38,67.2 37.9,67.1 37.7,67 37.5,67 37.3,67 c -0.2,0 -0.4,0 -0.6,0.1 -0.2,0.1 -0.3,0.2 -0.4,0.4 -0.1,0.2 -0.2,0.4 -0.3,0.6 -0.1,0.2 -0.1,0.5 -0.1,0.8 0,0.3 0,0.6 0.1,0.8 0.1,0.2 0.2,0.5 0.3,0.6 0.1,0.2 0.3,0.3 0.4,0.4 0.2,0.1 0.4,0.1 0.6,0.1 0.2,0 0.4,0 0.6,-0.1 0.2,-0.1 0.3,-0.2 0.4,-0.4 0.1,-0.2 0.2,-0.4 0.3,-0.6 0.1,-0.2 0.1,-0.5 0.1,-0.8 0,-0.3 0,-0.6 -0.1,-0.8 -0.1,-0.2 -0.2,-0.4 -0.3,-0.6 z m -0.5,2.4 c -0.1,0.2 -0.3,0.3 -0.5,0.3 -0.1,0 -0.2,0 -0.3,-0.1 -0.1,-0.1 -0.2,-0.1 -0.2,-0.3 -0.1,-0.1 -0.1,-0.2 -0.1,-0.4 0,-0.2 0,-0.3 0,-0.5 0,-0.4 0.1,-0.7 0.2,-0.9 0.1,-0.2 0.3,-0.3 0.5,-0.3 0.2,0 0.4,0.1 0.5,0.3 0.1,0.2 0.2,0.5 0.2,0.9 -0.1,0.4 -0.2,0.8 -0.3,1 z m 3.6,-1.2 c 0.1,-0.2 0.1,-0.4 0.1,-0.7 0,-0.2 0,-0.4 -0.1,-0.6 C 41.3,67.3 41.2,67.1 41.1,67.1 41,67 40.9,67 40.8,66.9 c -0.1,0 -0.3,0 -0.5,0 l -1.1,0.1 0.1,3.8 0.7,-0.1 v -1.3 h 0.4 L 41,70.7 41.8,70.6 41,69.1 c 0.2,-0.1 0.3,-0.2 0.4,-0.4 z m -0.7,-0.2 c -0.1,0.1 -0.2,0.2 -0.4,0.2 H 40 v -1.1 h 0.3 c 0.2,0 0.3,0 0.4,0.1 0.1,0.1 0.1,0.2 0.2,0.4 0,0.1 -0.1,0.3 -0.2,0.4 z m 2.3,1.2 -0.1,-0.9 1,-0.2 v -0.7 l -1,0.2 v -0.8 l 1.2,-0.2 v -0.7 l -1.9,0.3 0.2,3.7 2,-0.3 v -0.7 z m 3.9,-3.9 0.1,3.7 0.7,-0.2 -0.1,-3.7 z M 50,65.1 v 1.3 c 0,0.2 0,0.4 0.1,0.7 0,0.2 0.1,0.4 0.1,0.6 v 0 L 49.9,67 49,65.4 l -0.7,0.2 0.1,3.7 0.7,-0.2 v -1.3 c 0,-0.2 0,-0.4 -0.1,-0.7 0,-0.2 -0.1,-0.4 -0.1,-0.6 v 0 l 0.3,0.7 0.9,1.6 0.7,-0.2 -0.1,-3.6 z m 3.4,1.3 C 53.3,66.3 53.1,66.2 52.9,66.1 L 52.5,66 c -0.1,0 -0.1,0 -0.2,-0.1 -0.1,0 -0.1,0 -0.2,-0.1 0,0 -0.1,-0.1 -0.1,-0.1 0,0 0,-0.1 -0.1,-0.1 0,-0.1 0,-0.2 0.1,-0.3 0.1,-0.1 0.2,-0.1 0.3,-0.1 0.1,0 0.2,0 0.3,0 0.1,0 0.2,0.1 0.3,0.2 l 0.3,-0.6 c -0.1,-0.1 -0.3,-0.2 -0.5,-0.3 -0.2,0 -0.4,-0.1 -0.5,0 -0.2,0 -0.3,0.1 -0.4,0.2 -0.1,0.1 -0.2,0.2 -0.3,0.3 -0.1,0.1 -0.1,0.2 -0.2,0.4 0,0.1 0,0.3 0,0.4 0,0.1 0,0.2 0.1,0.3 0,0.1 0.1,0.2 0.2,0.2 0.1,0.1 0.1,0.1 0.2,0.2 0.1,0 0.2,0.1 0.2,0.1 l 0.4,0.1 c 0.1,0 0.1,0 0.2,0.1 0.1,0 0.1,0 0.1,0.1 0,0 0.1,0.1 0.1,0.1 0,0 0,0.1 0,0.1 0,0.1 0,0.2 -0.1,0.3 -0.1,0.1 -0.2,0.1 -0.3,0.2 -0.1,0 -0.3,0 -0.4,0 -0.1,0 -0.3,-0.1 -0.4,-0.2 L 51.4,68 c 0.2,0.1 0.4,0.2 0.6,0.3 0.2,0 0.4,0.1 0.6,0 0.2,0 0.3,-0.1 0.5,-0.2 0.1,-0.1 0.2,-0.2 0.3,-0.3 0.1,-0.1 0.1,-0.2 0.2,-0.4 0,-0.1 0,-0.3 0,-0.4 0,-0.3 -0.1,-0.4 -0.2,-0.6 z m 2.7,-1.9 c -0.1,-0.1 -0.2,-0.2 -0.3,-0.3 -0.1,-0.1 -0.3,-0.1 -0.4,-0.1 -0.1,0 -0.3,0 -0.5,0 l -1.1,0.2 0.4,3.5 0.7,-0.1 -0.1,-1.2 0.4,-0.1 c 0.2,0 0.3,-0.1 0.4,-0.2 0.1,-0.1 0.3,-0.2 0.4,-0.3 0.1,-0.1 0.2,-0.3 0.2,-0.4 0,-0.2 0.1,-0.3 0,-0.6 0,-0.1 0,-0.3 -0.1,-0.4 z m -1,1.3 -0.4,0.1 -0.1,-1.1 0.4,-0.1 c 0.2,0 0.3,0 0.4,0 0.1,0.1 0.2,0.2 0.2,0.4 0,0.4 -0.1,0.7 -0.5,0.7 z m 1.6,-2 0.4,3.4 0.7,-0.1 -0.4,-3.4 z m 3.7,0.8 c 0.1,-0.2 0.1,-0.4 0.1,-0.7 0,-0.2 -0.1,-0.4 -0.2,-0.5 C 60.2,63.3 60.1,63.2 60,63.1 59.9,63 59.7,63 59.6,63 c -0.1,0 -0.3,0 -0.5,0.1 l -1.1,0.3 0.4,3.4 0.7,-0.2 -0.1,-1.1 0.4,-0.1 0.7,1.1 0.8,-0.2 -0.9,-1.2 c 0.2,-0.1 0.4,-0.3 0.4,-0.5 z m -0.7,0 c -0.1,0.1 -0.2,0.2 -0.4,0.2 l -0.3,0.1 -0.1,-1 0.4,-0.1 c 0.2,0 0.3,0 0.4,0 0.1,0 0.2,0.1 0.2,0.3 0,0.2 -0.1,0.4 -0.2,0.5 z m 3.6,0.2 -1.2,0.4 L 62,64.4 63,64 62.9,63.3 61.9,63.7 61.8,63 63,62.6 62.9,62 61,62.6 l 0.4,3.5 1.9,-0.7 z"
     id="path59" /></g>
</svg>
