<?xml version="1.0" encoding="UTF-8" standalone="no"?>
<svg
   width="23.415401mm"
   height="26.842155mm"
   viewBox="0 0 23.415401 26.842156"
   version="1.1"
   id="svg67976"
   xmlns="http://www.w3.org/2000/svg"
   xmlns:svg="http://www.w3.org/2000/svg"
   xmlns:rdf="http://www.w3.org/1999/02/22-rdf-syntax-ns#"
   xmlns:cc="http://creativecommons.org/ns#"
   xmlns:dc="http://purl.org/dc/elements/1.1/">
  <defs
     id="defs67970">
    <clipPath
       id="clipPath133548"
       clipPathUnits="userSpaceOnUse">
      <path
         id="path133546"
         d="M 0,0 H 518.74 V 694.488 H 0 Z" />
    </clipPath>
    <clipPath
       id="clipPath133794"
       clipPathUnits="userSpaceOnUse">
      <path
         id="path133792"
         d="m 79.405,445.217 c 0.598,-0.088 1.189,-0.187 1.773,-0.295 v 0 l 3.053,-0.668 h 0.002 l 1.232,-0.352 0.022,0.081 -1.233,0.352 c -1.393,0.352 -2.823,0.648 -4.294,0.882 v 0 z m 12.988,-3.799 0.348,-0.144 0.003,-10e-4 2.13,-1.018 0.084,0.052 -2.179,1.044 -0.353,0.146 z m -20.843,-6.101 -0.878,-0.012 v -0.086 l 0.882,0.016 c 2.152,-0.054 4.237,-0.271 6.267,-0.631 v 0 l 0.127,-0.03 0.018,0.082 -0.126,0.027 -0.003,0.002 c -2.034,0.362 -4.126,0.58 -6.282,0.632 v 0 z m 34.497,-1.921 1.652,-1.152 v -0.001 l 1.543,-1.158 h 0.14 l -1.635,1.225 -1.784,1.248 z m -20.516,-0.933 1.064,-0.387 2.32,-0.991 v 0.083 l 0.032,-0.008 -2.317,0.996 -0.006,10e-4 -1.065,0.385 z m 36.694,-11.136 1.741,-1.229 c 0.792,-0.545 1.59,-1.081 2.398,-1.603 v 0 l 1.243,-0.774 0.045,0.072 -1.242,0.774 c -0.806,0.521 -1.606,1.054 -2.395,1.601 v 0 l -1.766,1.243 z m -16.263,-0.771 3.948,-2.967 c 1.631,-1.246 3.251,-2.496 4.869,-3.727 v 0 l 3.467,-2.569 0.013,0.082 0.035,-0.016 -3.463,2.571 -4.869,3.724 -3.915,2.946 z m 32.167,-8.175 1.115,-0.437 c 2.775,-0.992 5.688,-1.758 8.785,-2.23 v 0 l 0.002,-0.002 1.433,-0.166 0.01,0.083 -1.432,0.168 c -3.092,0.471 -6,1.236 -8.771,2.227 v 0 l -1.111,0.433 z m -8.567,-8.429 2.167,-1.097 c 5.005,-2.395 10.233,-3.915 15.876,-3.957 v 0 h 0.495 c 0.058,0 0.117,10e-4 0.176,0.002 v 0 l 1.198,0.068 -0.004,0.084 -1.194,-0.069 h -0.006 l -2.139,0.045 c -4.242,0.225 -8.253,1.278 -12.125,2.898 v 0 l -1.918,0.853 -0.004,10e-4 -2.482,1.249 z" />
    </clipPath>
    <clipPath
       id="clipPath133804"
       clipPathUnits="userSpaceOnUse">
      <path
         id="path133802"
         d="m 70.671011,398.89759 v 46.31998 h 78.802559 v -46.31998 z" />
    </clipPath>
  </defs>
  <metadata
     id="metadata67973">
    <rdf:RDF>
      <cc:Work
         rdf:about="">
        <dc:format>image/svg+xml</dc:format>
        <dc:type
           rdf:resource="http://purl.org/dc/dcmitype/StillImage" />
        <dc:title />
      </cc:Work>
    </rdf:RDF>
  </metadata>
  <g
     id="layer1"
     transform="translate(535.575,6.5943887)">
    <g
       id="g171512">
      <g
         transform="matrix(0.35277777,0,0,-0.35277777,130.47731,130.73488)"
         id="g133542">
        <g
           clip-path="url(#clipPath133548)"
           id="g133544">
          <text
             id="text133554"
             style="font-variant:normal;font-weight:bold;font-stretch:normal;font-size:17px;font-family:'DDEYKP +Montserrat-Bold';-inkscape-font-specification:Montserrat-Bold;writing-mode:lr-tb;fill:#00437b;fill-opacity:1;fill-rule:nonzero;stroke:none"
             transform="matrix(1,0,0,-1,562.7269,59.67)"
             y="0"><tspan
               id="tspan133550"
               y="0"
               x="0 12.665 22.559 32.452999 42.959 51.799 60.639 65.126999 72.607002 83.470001 93.975998 98.463997 109.497 120.819 132.14101 143.174 150.161 157.64101 168.521 179.384 184.34801 191.828 201.858 206.34599 213.724 224.757 229.245 238.901 249.407 259.505 266.492 277.35501 282.40399">Access the opportunity to Learn,</tspan><tspan
               id="tspan133552"
               y="24.395"
               x="9.809 22.882 33.251999 43.214001 53.720001 58.683998 69.717003 81.039001 86.087997 90.575996 101.422 111.928 118.915 128.877 139.383 144.43201 148.92 161.67 168.521 179.384 194.718 199.20599 209.304 220.16701 231.489 235.97701 247.095 257.04001 266.93399 277.44">Develop, Serve, Grow and Excel</tspan></text>
        </g>
      </g>
      <g
         transform="matrix(0.35277777,0,0,-0.35277777,130.47731,130.73488)"
         id="g133788">
        <g
           clip-path="url(#clipPath133794)"
           id="g133790">
          <g
             id="g133796">
            <g
               id="g133798">
              <g
                 clip-path="url(#clipPath133804)"
                 id="g133800" />
            </g>
          </g>
        </g>
      </g>
      <g
         transform="matrix(0.35277777,0,0,-0.35277777,-530.50481,20.247766)"
         id="g168463">
        <path
           id="path168465"
           style="fill:#00457c;fill-opacity:1;fill-rule:nonzero;stroke:none"
           d="m 0,0 c -2.883,0 -5.67,1.795 -7.478,4.908 l 1.501,0.873 C -4.262,2.819 -1.678,1.339 0.944,1.817 4.557,2.474 6.283,2.513 7.611,2.45 7.901,2.437 8.247,2.416 8.62,2.398 L 5.992,4.457 12.542,8.852 13.505,7.417 8.938,4.35 14.125,0.279 11.301,0.481 C 11.277,0.487 8.772,0.665 7.534,0.72 6.31,0.775 4.701,0.737 1.253,0.114 0.84,0.038 0.419,0 0,0" />
      </g>
      <g
         transform="matrix(0.35277777,0,0,-0.35277777,-517.17581,20.247766)"
         id="g168467">
        <path
           id="path168469"
           style="fill:#00457c;fill-opacity:1;fill-rule:nonzero;stroke:none"
           d="M 0,0 C -0.416,0 -0.833,0.038 -1.254,0.114 -4.699,0.737 -6.309,0.775 -7.535,0.72 -8.768,0.665 -11.274,0.487 -11.3,0.481 l -2.825,-0.202 5.189,4.071 -4.57,3.067 0.965,1.435 6.551,-4.395 -2.629,-2.059 c 0.372,0.018 0.72,0.039 1.008,0.052 1.326,0.063 3.052,0.024 6.666,-0.633 C 1.681,1.339 4.264,2.823 5.98,5.781 L 7.479,4.908 C 5.672,1.795 2.89,0 0,0" />
      </g>
      <g
         transform="matrix(0.35277777,0,0,-0.35277777,-523.84048,16.934477)"
         id="g168471">
        <path
           id="path168473"
           style="fill:#00457c;fill-opacity:1;fill-rule:nonzero;stroke:none"
           d="m 0,0 c 6.365,-0.011 12.643,-1.096 18.154,-3.139 0.792,-0.29 2.901,-1.238 3.331,-1.492 0.953,-0.568 1.5,-0.686 1.785,-0.686 0.247,0 0.392,0.08 0.574,0.32 0.488,0.627 3.398,4.784 3.621,5.17 0.323,0.634 0.415,1.169 0.259,1.59 C 27.539,2.265 26.967,2.72 26.021,3.112 24.789,3.622 21.768,4.538 19.347,5.225 13.311,6.941 6.804,7.818 0.01,7.831 L 0,7.829 -0.036,7.831 c -6.765,-0.013 -13.27,-0.89 -19.308,-2.606 -2.421,-0.687 -5.442,-1.603 -6.671,-2.113 -0.944,-0.392 -1.519,-0.847 -1.707,-1.349 -0.153,-0.421 -0.063,-0.956 0.27,-1.609 0.211,-0.369 3.124,-4.524 3.609,-5.151 0.182,-0.24 0.327,-0.32 0.577,-0.32 0.287,0 0.829,0.118 1.786,0.686 0.426,0.254 2.539,1.199 3.326,1.492 C -12.637,-1.096 -6.361,-0.011 0,0 m 23.27,-7.049 c -0.74,0 -1.618,0.301 -2.668,0.93 -0.281,0.164 -2.282,1.068 -3.047,1.356 C 12.229,-2.791 6.156,-1.741 0,-1.729 c -6.158,-0.012 -12.224,-1.062 -17.556,-3.034 -0.761,-0.288 -2.764,-1.192 -3.037,-1.356 -1.058,-0.629 -1.933,-0.93 -2.673,-0.93 -0.785,0 -1.437,0.329 -1.943,0.988 -0.429,0.547 -3.575,5.009 -3.789,5.427 -0.56,1.102 -0.673,2.108 -0.348,2.994 0.364,0.99 1.235,1.758 2.669,2.353 1.633,0.677 5.662,1.84 6.858,2.18 6.18,1.757 12.836,2.658 19.774,2.669 H 0.01 C 6.964,9.551 13.631,8.654 19.822,6.893 21.017,6.553 25.05,5.39 26.685,4.713 28.117,4.118 28.987,3.35 29.349,2.36 29.677,1.474 29.563,0.468 28.998,-0.634 28.788,-1.052 25.64,-5.514 25.217,-6.061 24.705,-6.72 24.052,-7.049 23.27,-7.049" />
      </g>
      <g
         transform="matrix(0.35277777,0,0,-0.35277777,-522.66609,-4.9924248)"
         id="g168475">
        <path
           id="path168477"
           style="fill:#00457c;fill-opacity:1;fill-rule:nonzero;stroke:none"
           d="m 0,0 h -3.158 v 3.341 h -0.6 V 0 H -6.8 v -0.6 h 3.042 v -4.85 h 0.6 V -0.6 H 0 Z m 1.274,-1.519 h -3.292 v -5 h -2.867 v 5 h -3.29 v 2.455 h 3.29 v 3.605 h 2.867 V 0.936 h 3.292 v -2.455" />
      </g>
      <g
         transform="matrix(0.35277777,0,0,-0.35277777,-531.31267,17.600874)"
         id="g168479">
        <path
           id="path168481"
           style="fill:#00457c;fill-opacity:1;fill-rule:nonzero;stroke:none"
           d="M 0,0 C 0.532,0.22 0.271,0.848 -0.102,1.753 -0.474,2.652 -0.74,3.285 -1.273,3.064 -1.809,2.838 -1.545,2.208 -1.17,1.31 -0.794,0.405 -0.531,-0.225 0,0 M -1.625,3.912 C -0.258,4.481 0.661,3.443 1.146,2.27 1.634,1.1 1.719,-0.285 0.355,-0.852 c -1.367,-0.568 -2.286,0.47 -2.773,1.641 -0.49,1.171 -0.569,2.555 0.793,3.123" />
      </g>
      <g
         transform="matrix(0.35277777,0,0,-0.35277777,-530.99764,15.897311)"
         id="g168483">
        <path
           id="path168485"
           style="fill:#00457c;fill-opacity:1;fill-rule:nonzero;stroke:none"
           d="M 0,0 1.676,0.518 3.009,-1.98 3.023,-1.973 2.806,0.868 4.439,1.372 5.904,-3.366 4.706,-3.738 3.624,-0.235 3.612,-0.238 3.877,-3.992 3.152,-4.218 1.274,-0.829 1.264,-0.834 2.384,-4.454 1.468,-4.741 0,0" />
      </g>
      <g
         transform="matrix(0.35277777,0,0,-0.35277777,-529.09723,15.336041)"
         id="g168487">
        <path
           id="path168489"
           style="fill:#00457c;fill-opacity:1;fill-rule:nonzero;stroke:none"
           d="m 0,0 1.017,0.225 1.964,-2.313 0.011,0.005 -0.562,2.61 0.98,0.21 1.047,-4.852 -0.983,-0.21 -2.02,2.394 H 1.441 L 2.025,-4.638 1.045,-4.851 0,0" />
      </g>
      <g
         transform="matrix(0.35277777,0,0,-0.35277777,-527.59051,15.030536)"
         id="g168491">
        <path
           id="path168493"
           style="fill:#00457c;fill-opacity:1;fill-rule:nonzero;stroke:none"
           d="m 0,0 1.242,0.202 0.783,-4.9 -1.238,-0.2 L 0,0" />
      </g>
      <g
         transform="matrix(0.35277777,0,0,-0.35277777,-526.37484,15.950933)"
         id="g168495">
        <path
           id="path168497"
           style="fill:#00457c;fill-opacity:1;fill-rule:nonzero;stroke:none"
           d="M 0,0 0.798,0.083 0.217,2.054 0.201,2.051 Z M -0.601,3.028 1.037,3.208 2.63,-1.605 1.371,-1.744 1.066,-0.77 -0.075,-0.895 -0.181,-1.919 -1.212,-2.033 -0.601,3.028" />
      </g>
      <g
         transform="matrix(0.35277777,0,0,-0.35277777,-523.9629,15.326869)"
         id="g168499">
        <path
           id="path168501"
           style="fill:#00457c;fill-opacity:1;fill-rule:nonzero;stroke:none"
           d="m 0,0 c -0.01,0.333 -0.104,0.912 -0.554,0.905 -0.53,-0.011 -0.594,-0.756 -0.581,-1.677 0.018,-1.017 0.076,-1.65 0.664,-1.636 0.461,0.005 0.556,0.381 0.578,1.003 l 1.085,-0.08 C 1.21,-2.572 0.575,-3.315 -0.51,-3.333 -2.031,-3.358 -2.464,-2.076 -2.483,-0.786 -2.504,0.405 -2.124,1.798 -0.596,1.825 0.599,1.842 1.153,1.043 1.168,0.019 L 0,0" />
      </g>
      <g
         transform="matrix(0.35277777,0,0,-0.35277777,-522.18525,15.960458)"
         id="g168503">
        <path
           id="path168505"
           style="fill:#00457c;fill-opacity:1;fill-rule:nonzero;stroke:none"
           d="m 0,0 c -0.053,-1.116 -0.701,-1.641 -1.793,-1.594 -1.133,0.056 -1.613,0.681 -1.567,1.747 l 0.163,3.383 1.25,-0.057 -0.158,-3.441 c -0.022,-0.375 0.093,-0.702 0.508,-0.721 0.425,-0.014 0.535,0.369 0.549,0.739 L -0.89,3.43 0.154,3.379 0,0" />
      </g>
      <g
         transform="matrix(0.35277777,0,0,-0.35277777,-521.80178,14.785708)"
         id="g168507">
        <path
           id="path168509"
           style="fill:#00457c;fill-opacity:1;fill-rule:nonzero;stroke:none"
           d="M 0,0 1.74,-0.218 1.93,-3.043 1.944,-3.045 2.917,-0.365 4.61,-0.576 3.997,-5.499 2.756,-5.343 3.203,-1.706 3.192,-1.702 1.887,-5.236 1.13,-5.143 0.817,-1.28 H 0.805 L 0.338,-5.042 -0.615,-4.926 0,0" />
      </g>
      <g
         transform="matrix(0.35277777,0,0,-0.35277777,-519.06423,16.69106)"
         id="g168511">
        <path
           id="path168513"
           style="fill:#00457c;fill-opacity:1;fill-rule:nonzero;stroke:none"
           d="M 0,0 0.134,-0.03 C 0.986,-0.24 1.237,0.804 1.396,1.441 1.53,1.999 1.663,2.897 0.857,3.094 L 0.752,3.117 Z M -0.261,4.267 1.061,3.945 C 2.558,3.583 3.038,2.49 2.698,1.075 2.362,-0.301 1.518,-1.27 0.043,-0.91 l -1.472,0.353 1.168,4.824" />
      </g>
      <g
         transform="matrix(0.35277777,0,0,-0.35277777,-517.69651,15.554763)"
         id="g168515">
        <path
           id="path168517"
           style="fill:#00457c;fill-opacity:1;fill-rule:nonzero;stroke:none"
           d="M 0,0 2.977,-0.949 2.683,-1.866 0.904,-1.298 0.602,-2.254 1.797,-2.633 1.505,-3.55 0.306,-3.167 -0.005,-4.149 1.773,-4.718 1.47,-5.675 -1.504,-4.731 0,0" />
      </g>
      <g
         transform="matrix(0.35277777,0,0,-0.35277777,-516.43074,17.543019)"
         id="g168519">
        <path
           id="path168521"
           style="fill:#00457c;fill-opacity:1;fill-rule:nonzero;stroke:none"
           d="M 0,0 C 0.54,-0.216 0.792,0.416 1.162,1.323 1.527,2.228 1.782,2.861 1.245,3.081 0.708,3.293 0.451,2.661 0.087,1.755 -0.276,0.851 -0.536,0.217 0,0 M 1.589,3.928 C 2.959,3.376 2.89,1.991 2.413,0.815 1.936,-0.362 1.026,-1.403 -0.345,-0.853 c -1.37,0.555 -1.299,1.941 -0.823,3.115 0.473,1.174 1.391,2.225 2.757,1.666" />
      </g>
      <g
         transform="matrix(0.35277777,0,0,-0.35277777,-524.00347,6.1708753)"
         id="g168523">
        <path
           id="path168525"
           style="fill:#00457c;fill-opacity:1;fill-rule:nonzero;stroke:none"
           d="m 0,0 v -0.394 l 0.007,-1.59 c 1.637,0.124 3.173,0.461 5.254,1.132 L 5.377,-0.816 5.381,1.963 5.136,1.83 C 5.113,1.818 2.779,0.524 -0.006,0.154 L -0.005,0.088 0,0" />
      </g>
      <g
         transform="matrix(0.35277777,0,0,-0.35277777,-524.61942,10.200302)"
         id="g168527">
        <path
           id="path168529"
           style="fill:#00457c;fill-opacity:1;fill-rule:nonzero;stroke:none"
           d="M 0,0 C 0.648,2.118 1.062,4.848 1.062,8.373 1.062,8.417 1.057,9.114 1.056,9.399 1.055,9.873 1.04,11.963 1.04,12.208 1.036,13.72 1.02,15.576 1.011,17.569 l 0.207,-0.151 c 0.882,-0.45 2.07,-0.871 3.497,-0.956 0.322,-0.028 0.626,-0.038 0.998,-0.038 5.569,0 9.838,3.83 9.838,8.766 0,4.931 -3.594,8.365 -8.803,8.365 H -6.105 v -1.628 h 3.37 l 0.032,-1.667 v -0.798 c 0.813,0.145 1.65,0.222 2.51,0.222 0.423,0 0.901,-0.035 1.411,-0.098 v 1.941 h 4.899 c 2.963,0 5.348,-2.817 5.348,-6.337 0,-3.765 -2.785,-6.884 -6.548,-6.986 -1.935,0.042 -3,0.676 -3.699,1.144 v 6.796 c -0.408,0.05 -0.85,0.083 -1.313,0.083 -0.956,0 -1.82,-0.135 -2.594,-0.377 0.016,-4.453 0.034,-9.607 0.061,-13.152 0,-0.253 0,-0.503 0.003,-0.741 0,-0.267 0.01,-2.843 0.015,-3.04 0,-0.293 0,-0.477 0.004,-0.544 C -2.528,6.123 -2.627,4.334 -2.838,2.9 l 2.095,-4.691 C -0.438,-1.236 -0.243,-0.788 0,0" />
      </g>
      <g
         transform="matrix(0.35277777,0,0,-0.35277777,-527.08357,11.489352)"
         id="g168531">
        <path
           id="path168533"
           style="fill:#00457c;fill-opacity:1;fill-rule:nonzero;stroke:none"
           d="m 0,0 c -0.258,0.176 -0.589,0.362 -0.845,0.393 -1.191,0.146 -2.296,-0.717 -2.474,-1.929 -0.176,-1.211 0.649,-2.307 1.837,-2.455 l 0.238,-0.031 c 0.834,-0.107 1.683,0.191 2.447,0.685 0.337,0.105 0.73,0.296 1.244,0.59 0.104,0.062 0.211,0.124 0.31,0.193 0.051,0.033 0.103,0.067 0.154,0.102 L 1.308,0.954 C 0.918,0.666 0.476,0.342 0,0" />
      </g>
      <g
         transform="matrix(0.35277777,0,0,-0.35277777,-520.82106,7.2563723)"
         id="g168535">
        <path
           id="path168537"
           style="fill:#00457c;fill-opacity:1;fill-rule:nonzero;stroke:none"
           d="m 0,0 v -1.637 h 1.746 l -4.14,-10.384 c 0,0 -3.578,9.698 -3.713,10.004 -0.192,0.426 -0.864,0.689 -1.173,0.041 -0.271,-0.563 -4.2,-10.045 -4.2,-10.045 l -0.417,0.93 -4.225,9.454 h 1.365 V 0 h -7.103 v -1.637 h 1.81 l 6.761,-14.367 h 2.298 l 3.711,8.604 3.25,-8.439 2.12,-0.165 6.231,14.367 H 6.098 V 0 H 0" />
      </g>
      <g
         transform="matrix(0.35277777,0,0,-0.35277777,-526.01395,18.702952)"
         id="g168539">
        <path
           id="path168541"
           style="fill:#00457c;fill-opacity:1;fill-rule:nonzero;stroke:none"
           d="m 0,0 c 0.61,-0.722 1.411,-1.438 2.904,-1.939 0.648,0.176 1.528,0.367 2.178,0.591 C 4.098,-0.911 2.809,-0.35 1.956,0.292 1.213,0.131 0.734,0.091 0,0" />
      </g>
      <g
         transform="matrix(0.35277777,0,0,-0.35277777,-518.99085,14.507366)"
         id="g168543">
        <path
           id="path168545"
           style="fill:#00457c;fill-opacity:1;fill-rule:nonzero;stroke:none"
           d="m 0,0 c -0.075,-0.096 -0.153,-0.191 -0.229,-0.286 0.439,-0.083 0.875,-0.17 1.31,-0.26 L 0,0" />
      </g>
      <g
         transform="matrix(0.35277777,0,0,-0.35277777,-524.66986,-5.5840331)"
         id="g168547">
        <path
           id="path168549"
           style="fill:#00457c;fill-opacity:1;fill-rule:nonzero;stroke:none"
           d="M 0,0 C 0,0 -0.08,1.16 -0.505,1.805 -0.937,2.438 -1.285,2.52 -1.559,2.323 -1.816,2.136 -1.925,1.725 -1.487,1.085 -1.06,0.458 0,0 0,0" />
      </g>
      <g
         transform="matrix(0.35277777,0,0,-0.35277777,-523.13951,-5.5840331)"
         id="g168551">
        <path
           id="path168553"
           style="fill:#00457c;fill-opacity:1;fill-rule:nonzero;stroke:none"
           d="M 0,0 C 0,0 0.085,1.16 0.508,1.805 0.937,2.438 1.285,2.52 1.562,2.323 1.82,2.136 1.928,1.725 1.487,1.085 1.061,0.458 0,0 0,0" />
      </g>
      <g
         transform="matrix(0.35277777,0,0,-0.35277777,-524.66986,-4.2403026)"
         id="g168555">
        <path
           id="path168557"
           style="fill:#00457c;fill-opacity:1;fill-rule:nonzero;stroke:none"
           d="m 0,0 c 0,0 -0.08,-1.159 -0.505,-1.8 -0.432,-0.638 -0.78,-0.718 -1.054,-0.521 -0.257,0.185 -0.366,0.599 0.072,1.236 C -1.06,-0.456 0,0 0,0" />
      </g>
      <g
         transform="matrix(0.35277777,0,0,-0.35277777,-523.13951,-4.2403026)"
         id="g168559">
        <path
           id="path168561"
           style="fill:#00457c;fill-opacity:1;fill-rule:nonzero;stroke:none"
           d="M 0,0 C 0,0 0.085,-1.159 0.508,-1.8 0.937,-2.438 1.285,-2.518 1.562,-2.321 1.82,-2.136 1.928,-1.722 1.487,-1.085 1.061,-0.456 0,0 0,0" />
      </g>
      <g
         transform="matrix(0.35277777,0,0,-0.35277777,-522.29955,0.07663894)"
         id="g168563">
        <path
           id="path168565"
           style="fill:#00457c;fill-opacity:1;fill-rule:nonzero;stroke:none"
           d="m 0,0 -0.498,-1.431 c -1.315,0.858 -3.27,1.396 -4.86,1.61 V 0.18 C -5.877,0.25 -6.363,0.284 -6.769,0.284 -7.024,0.284 -7.276,0.275 -7.527,0.26 -7.608,0.256 -7.689,0.249 -7.771,0.243 -7.934,0.231 -8.096,0.217 -8.257,0.199 -8.315,0.192 -8.374,0.189 -8.431,0.183 -8.462,0.179 -8.494,0.176 -8.525,0.172 -8.62,0.16 -8.714,0.144 -8.808,0.13 -8.916,0.113 -9.023,0.099 -9.131,0.079 c -5.198,-0.917 -8.999,-4.818 -8.999,-9.638 0,-4.635 3.309,-8.224 8.242,-9.369 v 0.262 l -0.005,1.15 v 0.111 l -0.006,0.663 v 0.267 c -2.684,1.205 -4.37,3.79 -4.37,7.089 0,3.754 1.859,6.37 4.999,7.27 v -0.005 c 0.587,0.166 1.22,0.279 1.892,0.325 0.019,0.002 0.04,0.003 0.059,0.003 0.213,0.014 0.428,0.022 0.648,0.022 0.456,0 0.891,-0.03 1.313,-0.079 v 0.005 c 1.609,-0.188 2.991,-0.764 4.115,-1.943 L -2.33,-6.876 -0.276,-7.455 2.048,-0.578 0,0" />
      </g>
      <g
         transform="matrix(0.35277777,0,0,-0.35277777,-534.55681,7.7389723)"
         id="g168567">
        <path
           id="path168569"
           style="fill:#00457c;fill-opacity:1;fill-rule:nonzero;stroke:none"
           d="M 0,0 C 0.02,-0.011 0.042,-0.022 0.065,-0.033 0.042,-0.022 0.02,-0.011 0,0" />
      </g>
      <g
         transform="matrix(0.35277777,0,0,-0.35277777,-534.49825,7.7686053)"
         id="g168571">
        <path
           id="path168573"
           style="fill:#00457c;fill-opacity:1;fill-rule:nonzero;stroke:none"
           d="M 0,0 C 0.025,-0.012 0.05,-0.024 0.076,-0.037 0.05,-0.024 0.025,-0.012 0,0" />
      </g>
      <g
         transform="matrix(0.35277777,0,0,-0.35277777,-530.84348,13.464555)"
         id="g168575">
        <path
           id="path168577"
           style="fill:#00457c;fill-opacity:1;fill-rule:nonzero;stroke:none"
           d="M 0,0 C 0.055,0.003 0.114,0.005 0.174,0.009 0.114,0.005 0.056,0.003 0,0" />
      </g>
      <g
         transform="matrix(0.35277777,0,0,-0.35277777,-533.25965,8.3383413)"
         id="g168579">
        <path
           id="path168581"
           style="fill:#00457c;fill-opacity:1;fill-rule:nonzero;stroke:none"
           d="M 0,0 C -1.103,0.566 -2.302,1.056 -3.14,1.441 -2.302,1.056 -1.103,0.566 0,0" />
      </g>
      <g
         transform="matrix(0.35277777,0,0,-0.35277777,-534.43334,7.7996503)"
         id="g168583">
        <path
           id="path168585"
           style="fill:#00457c;fill-opacity:1;fill-rule:nonzero;stroke:none"
           d="M 0,0 C 0.028,-0.013 0.056,-0.026 0.086,-0.04 0.056,-0.026 0.028,-0.013 0,0" />
      </g>
      <g
         transform="matrix(0.35277777,0,0,-0.35277777,-534.60903,7.7107503)"
         id="g168587">
        <path
           id="path168589"
           style="fill:#00457c;fill-opacity:1;fill-rule:nonzero;stroke:none"
           d="M 0,0 C 0.015,-0.009 0.031,-0.018 0.047,-0.026 0.031,-0.018 0.015,-0.009 0,0" />
      </g>
      <g
         transform="matrix(0.35277777,0,0,-0.35277777,-534.31269,8.5376613)"
         id="g168591">
        <path
           id="path168593"
           style="fill:#00457c;fill-opacity:1;fill-rule:nonzero;stroke:none"
           d="M 0,0 C 0.06,-0.026 0.124,-0.055 0.19,-0.083 0.124,-0.054 0.06,-0.026 0,0" />
      </g>
      <g
         transform="matrix(0.35277777,0,0,-0.35277777,-534.20368,8.5856383)"
         id="g168595">
        <path
           id="path168597"
           style="fill:#00457c;fill-opacity:1;fill-rule:nonzero;stroke:none"
           d="M 0,0 C 0.028,-0.012 0.056,-0.025 0.085,-0.037 0.056,-0.025 0.028,-0.012 0,0" />
      </g>
      <g
         transform="matrix(0.35277777,0,0,-0.35277777,-534.11267,8.6258553)"
         id="g168599">
        <path
           id="path168601"
           style="fill:#00457c;fill-opacity:1;fill-rule:nonzero;stroke:none"
           d="M 0,0 C 0.012,-0.005 0.024,-0.011 0.036,-0.017 0.024,-0.011 0.012,-0.006 0,0" />
      </g>
      <g
         transform="matrix(0.35277777,0,0,-0.35277777,-534.47144,7.7816583)"
         id="g168603">
        <path
           id="path168605"
           style="fill:#00457c;fill-opacity:1;fill-rule:nonzero;stroke:none"
           d="M 0,0 C 0.036,-0.017 0.071,-0.034 0.108,-0.052 0.071,-0.034 0.036,-0.017 0,0" />
      </g>
      <g
         transform="matrix(0.35277777,0,0,-0.35277777,-534.65383,7.6846443)"
         id="g168607">
        <path
           id="path168609"
           style="fill:#00457c;fill-opacity:1;fill-rule:nonzero;stroke:none"
           d="M 0,0 C 0.038,-0.025 0.081,-0.049 0.127,-0.075 0.081,-0.049 0.038,-0.025 0,0" />
      </g>
      <g
         transform="matrix(0.35277777,0,0,-0.35277777,-530.84348,13.464555)"
         id="g168611">
        <path
           id="path168613"
           style="fill:#00457c;fill-opacity:1;fill-rule:nonzero;stroke:none"
           d="M 0,0 C -0.065,-0.002 -0.129,-0.004 -0.187,-0.004 -0.129,-0.004 -0.066,-0.002 0,0" />
      </g>
      <g
         transform="matrix(0.35277777,0,0,-0.35277777,-534.59209,7.7202753)"
         id="g168615">
        <path
           id="path168617"
           style="fill:#00457c;fill-opacity:1;fill-rule:nonzero;stroke:none"
           d="M 0,0 C 0.031,-0.017 0.064,-0.035 0.1,-0.053 0.064,-0.035 0.031,-0.017 0,0" />
      </g>
      <g
         transform="matrix(0.35277777,0,0,-0.35277777,-534.53388,7.7506133)"
         id="g168619">
        <path
           id="path168621"
           style="fill:#00457c;fill-opacity:1;fill-rule:nonzero;stroke:none"
           d="M 0,0 C 0.032,-0.016 0.066,-0.033 0.101,-0.05 0.066,-0.033 0.032,-0.016 0,0" />
      </g>
      <g
         transform="matrix(0.35277777,0,0,-0.35277777,-534.40336,7.8137613)"
         id="g168623">
        <path
           id="path168625"
           style="fill:#00457c;fill-opacity:1;fill-rule:nonzero;stroke:none"
           d="M 0,0 C 0.032,-0.016 0.067,-0.031 0.1,-0.047 0.067,-0.031 0.032,-0.016 0,0" />
      </g>
      <g
         transform="matrix(0.35277777,0,0,-0.35277777,-534.1737,8.5990443)"
         id="g168627">
        <path
           id="path168629"
           style="fill:#00457c;fill-opacity:1;fill-rule:nonzero;stroke:none"
           d="M 0,0 C 0.056,-0.025 0.114,-0.051 0.173,-0.077 0.114,-0.051 0.056,-0.025 0,0" />
      </g>
      <g
         transform="matrix(0.35277777,0,0,-0.35277777,-534.24531,8.5672943)"
         id="g168631">
        <path
           id="path168633"
           style="fill:#00457c;fill-opacity:1;fill-rule:nonzero;stroke:none"
           d="M 0,0 C 0.038,-0.017 0.078,-0.035 0.118,-0.052 0.078,-0.035 0.038,-0.017 0,0" />
      </g>
      <g
         transform="matrix(0.35277777,0,0,-0.35277777,-531.41215,3.9236803)"
         id="g168635">
        <path
           id="path168637"
           style="fill:#00457c;fill-opacity:1;fill-rule:nonzero;stroke:none"
           d="M 0,0 C 0.125,0.103 0.244,0.196 0.356,0.284 0.564,-0.287 0.769,-0.881 0.864,-1.228 1.153,-2.275 1.165,-3.419 0.89,-4.536 0.458,-6.27 -0.056,-7.594 -1.87,-8.619 c -0.039,0.203 -0.089,0.785 -0.132,1.529 2.061,2.182 1.725,5.017 1.725,5.017 -0.513,-0.763 -1.087,-1.32 -1.829,-1.725 0,0.955 0.038,1.734 0.144,1.963 C -1.643,-1.301 -0.579,-0.463 0,0 m -2.468,-11.303 c 2.342,0.613 4.42,4.059 4.989,6.366 0.341,1.372 0.341,2.808 -0.041,4.163 C 2.226,0.151 1.364,2.417 1.357,2.428 L 0.951,3.495 c 0,0 -0.592,-0.876 -0.838,-1.178 -0.394,-0.468 -1.809,-1.438 -2.851,-2.433 -0.232,-1.588 -0.354,-3.205 -0.354,-4.832 0,-2.163 0.213,-4.291 0.624,-6.355" />
      </g>
      <g
         transform="matrix(0.35277777,0,0,-0.35277777,-530.93731,0.56311954)"
         id="g168639">
        <path
           id="path168641"
           style="fill:#00457c;fill-opacity:1;fill-rule:nonzero;stroke:none"
           d="M 0,0 C 0.292,0.521 0.61,1.032 0.947,1.489 1.461,1.808 3.06,2.117 3.764,2.255 3.856,2.275 3.941,2.289 4.027,2.308 3.935,1.735 3.835,1.162 3.756,0.832 3.514,-0.199 2.984,-1.181 2.219,-2.005 1.281,-3.026 -0.156,-3.744 -1.705,-4.014 c -0.036,-0.006 0.051,0.308 0.233,0.806 3.4,1.123 4.191,4.479 4.191,4.479 C 1.777,0.423 1.043,0.245 0,0 M 2.955,-3.244 C 3.9,-2.229 4.58,-0.993 4.894,0.348 5.108,1.265 5.442,3.617 5.442,3.635 l 0.16,1.107 c 0,0 -0.925,-0.477 -1.285,-0.616 C 3.756,3.909 2.142,3.712 0.822,3.324 c -1.839,-2.73 -3.246,-5.875 -4.139,-9.233 2.451,0.06 4.79,1.057 6.272,2.665" />
      </g>
      <g
         transform="matrix(0.35277777,0,0,-0.35277777,-529.95236,11.914802)"
         id="g168643">
        <path
           id="path168645"
           style="fill:#00457c;fill-opacity:1;fill-rule:nonzero;stroke:none"
           d="M 0,0 C -0.352,0.421 -0.797,1.076 -1.252,1.798 -0.209,4.922 -2.065,7.476 -2.065,7.476 -2.069,6.427 -2.475,5.359 -2.881,4.55 -3.178,5.08 -3.406,5.5 -3.509,5.702 c -0.265,0.622 -0.256,0.987 -0.256,1.097 -0.1,0.547 0.39,1.704 1.503,3.497 C -1.577,9.309 -0.798,8.195 -0.488,7.771 0.189,6.862 0.887,5.467 0.971,4.326 1.078,2.932 0.87,1.501 0,0 m -1.944,13.531 c 0,0 -2.776,-3.394 -3.633,-6.026 0.739,-2.19 1.717,-4.279 2.93,-6.222 0.775,-1.179 2.024,-2.807 3.503,-4.597 1.78,1.999 2.126,4.604 2.038,6.959 -0.049,1.62 -0.675,3.464 -1.62,4.847 -0.644,0.943 -3.218,5.039 -3.218,5.039" />
      </g>
      <g
         transform="matrix(0.35277777,0,0,-0.35277777,-516.76517,10.309663)"
         id="g168647">
        <path
           id="path168649"
           style="fill:#00457c;fill-opacity:1;fill-rule:nonzero;stroke:none"
           d="m 0,0 c -0.407,0.809 -0.812,1.877 -0.816,2.926 0,0 -1.857,-2.554 -0.814,-5.678 -0.455,-0.722 -0.901,-1.377 -1.252,-1.798 -0.871,1.501 -1.078,2.932 -0.971,4.326 0.084,1.141 0.781,2.536 1.459,3.444 0.311,0.425 1.089,1.54 1.773,2.526 C 0.493,3.953 0.983,2.796 0.883,2.249 0.883,2.139 0.892,1.774 0.629,1.152 0.525,0.95 0.297,0.53 0,0 m -0.235,-3.267 c 1.214,1.943 2.19,4.032 2.929,6.222 -0.857,2.632 -3.631,6.026 -3.631,6.026 0,0 -2.574,-4.097 -3.22,-5.039 -0.944,-1.383 -1.569,-3.227 -1.619,-4.847 -0.088,-2.355 0.258,-4.96 2.037,-6.959 1.48,1.79 2.728,3.418 3.504,4.597" />
      </g>
      <g
         transform="matrix(0.35277777,0,0,-0.35277777,-515.63029,4.5710273)"
         id="g168651">
        <path
           id="path168653"
           style="fill:#00457c;fill-opacity:1;fill-rule:nonzero;stroke:none"
           d="m 0,0 c 0.105,-0.229 0.143,-1.008 0.143,-1.963 -0.74,0.405 -1.315,0.962 -1.827,1.725 0,0 -0.337,-2.834 1.725,-5.017 -0.044,-0.744 -0.093,-1.326 -0.132,-1.529 -1.814,1.026 -2.329,2.349 -2.762,4.083 -0.273,1.117 -0.262,2.26 0.028,3.308 0.095,0.347 0.3,0.941 0.507,1.512 C -2.206,2.032 -2.087,1.938 -1.962,1.835 -1.383,1.372 -0.319,0.534 0,0 m 1.129,-3.113 c 0,1.627 -0.12,3.244 -0.353,4.832 C -0.267,2.714 -1.681,3.684 -2.075,4.152 -2.32,4.454 -2.914,5.33 -2.914,5.33 L -3.318,4.263 C -3.325,4.252 -4.189,1.985 -4.442,1.061 c -0.381,-1.355 -0.381,-2.792 -0.042,-4.162 0.569,-2.308 2.648,-5.753 4.99,-6.366 0.411,2.063 0.623,4.191 0.623,6.354" />
      </g>
      <g
         transform="matrix(0.35277777,0,0,-0.35277777,-517.75577,0.11509174)"
         id="g168655">
        <path
           id="path168657"
           style="fill:#00457c;fill-opacity:1;fill-rule:nonzero;stroke:none"
           d="m 0,0 c 0,0 0.79,-3.355 4.19,-4.479 0.183,-0.498 0.268,-0.812 0.234,-0.806 -1.549,0.27 -2.986,0.989 -3.926,2.01 -0.763,0.824 -1.294,1.805 -1.537,2.837 -0.077,0.329 -0.178,0.902 -0.27,1.476 0.086,-0.019 0.17,-0.033 0.262,-0.053 C -0.342,0.847 1.256,0.537 1.772,0.218 2.108,-0.239 2.427,-0.749 2.717,-1.271 1.675,-1.026 0.942,-0.848 0,0 M 6.035,-7.18 C 5.142,-3.822 3.735,-0.676 1.897,2.054 0.576,2.441 -1.038,2.639 -1.6,2.856 -1.959,2.994 -2.884,3.471 -2.884,3.471 l 0.16,-1.106 c 0,-0.018 0.333,-2.37 0.547,-3.287 0.316,-1.342 0.994,-2.577 1.941,-3.593 1.481,-1.607 3.82,-2.605 6.271,-2.665" />
      </g>
      <g
         transform="matrix(0.35277777,0,0,-0.35277777,-513.5235,11.077308)"
         id="g168659">
        <path
           id="path168661"
           style="fill:#00457c;fill-opacity:1;fill-rule:nonzero;stroke:none"
           d="M 0,0 C -0.114,-0.188 -0.233,-0.373 -0.357,-0.552 -0.402,-0.616 -0.45,-0.677 -0.495,-0.74 -0.577,-0.852 -0.659,-0.964 -0.745,-1.073 -0.804,-1.148 -0.867,-1.22 -0.928,-1.293 -1.004,-1.384 -1.08,-1.474 -1.159,-1.562 -1.23,-1.641 -1.306,-1.717 -1.378,-1.794 -1.451,-1.869 -1.524,-1.944 -1.598,-2.018 -1.682,-2.099 -1.767,-2.177 -1.854,-2.254 -1.922,-2.317 -1.992,-2.379 -2.061,-2.439 -2.158,-2.521 -2.255,-2.602 -2.354,-2.68 -2.416,-2.729 -2.48,-2.777 -2.543,-2.825 -2.654,-2.909 -2.765,-2.991 -2.879,-3.069 -2.931,-3.105 -2.984,-3.14 -3.035,-3.174 -3.164,-3.26 -3.294,-3.345 -3.428,-3.425 -3.46,-3.443 -3.493,-3.461 -3.524,-3.48 c -1.394,-0.816 -3.01,-1.32 -4.77,-1.471 0.583,0.794 1.117,1.596 1.607,2.403 0.047,0.008 0.091,0.016 0.14,0.027 7.177,1.578 6.03,7.546 6.03,7.546 C -1.514,3.373 -3.193,2.348 -4.5,1.758 c 0.5,1.207 0.911,2.417 1.243,3.624 0.742,0.535 2.002,1.13 2.942,1.55 0.012,0.006 0.026,0.011 0.036,0.016 0.06,0.027 0.117,0.052 0.173,0.078 0.029,0.012 0.057,0.025 0.085,0.037 0.04,0.017 0.082,0.035 0.119,0.052 0.065,0.029 0.131,0.057 0.19,0.084 0.38,0.164 0.721,0.314 1.015,0.456 C 1.326,5.425 1.108,1.854 0,0 m -4.147,27.015 c -0.097,0.328 -0.214,0.65 -0.354,0.966 -0.079,0.175 -0.167,0.375 -0.261,0.585 0.034,0.1 0.065,0.205 0.101,0.318 1.419,4.693 -2.37,7.269 -2.37,7.269 0.467,-1.161 0.471,-2.772 0.418,-3.747 -0.497,0.849 -1.165,1.938 -1.427,2.37 -0.145,0.697 0.194,2.537 0.348,3.348 0.021,0.133 0.052,0.264 0.069,0.388 0.632,-0.397 1.313,-0.84 1.661,-1.102 0.997,-0.741 1.8,-1.762 2.324,-2.949 1.071,-2.421 0.879,-5.16 -0.509,-7.446 m 3.561,-3.822 c 0.212,0.249 0.404,0.482 0.577,0.695 0.438,-0.636 0.917,-1.362 1.155,-1.776 0.641,-1.11 0.975,-2.403 0.983,-3.742 0.025,-2.919 -1.481,-5.591 -4.022,-7.148 -0.087,-0.053 -0.204,-0.116 -0.338,-0.181 0.075,0.828 0.119,1.651 0.134,2.463 0.084,0.076 0.172,0.154 0.266,0.244 3.547,3.384 1.674,7.151 1.674,7.151 -0.281,-1.141 -1.481,-2.54 -2.11,-3.214 -0.104,1.056 -0.251,2.089 -0.432,3.093 0.351,0.657 1.664,1.882 2.113,2.415 m -2.638,-36.684 c 0.945,-0.392 1.517,-0.847 1.702,-1.349 0.157,-0.421 0.064,-0.956 -0.259,-1.59 -0.223,-0.386 -3.133,-4.543 -3.62,-5.17 -0.183,-0.24 -0.326,-0.32 -0.575,-0.32 -0.285,0 -0.832,0.118 -1.786,0.686 -0.428,0.254 -2.537,1.202 -3.329,1.492 -3.298,1.222 -6.871,2.098 -10.572,2.61 -0.049,0.007 -0.099,0.014 -0.148,0.021 -2.438,0.33 -4.929,0.504 -7.435,0.508 -2.068,-0.004 -4.127,-0.123 -6.155,-0.35 l -0.006,-0.001 c -0.473,-0.053 -0.945,-0.113 -1.416,-0.178 -0.044,-0.006 -0.09,-0.012 -0.135,-0.018 -3.652,-0.514 -7.18,-1.384 -10.442,-2.592 -0.787,-0.293 -2.9,-1.238 -3.326,-1.492 -0.957,-0.568 -1.499,-0.686 -1.786,-0.686 -0.249,0 -0.394,0.08 -0.577,0.32 -0.485,0.627 -3.398,4.782 -3.608,5.151 -0.334,0.653 -0.424,1.188 -0.27,1.609 0.187,0.502 0.762,0.957 1.706,1.349 1.229,0.51 4.25,1.426 6.672,2.113 1.066,0.303 2.147,0.578 3.241,0.829 0.339,0.077 0.678,0.152 1.02,0.224 0.012,0.003 0.024,0.006 0.036,0.009 0.347,0.072 0.693,0.143 1.041,0.211 4.476,0.874 9.156,1.323 13.969,1.333 l 0.036,-0.002 0.011,0.002 c 4.785,-0.01 9.425,-0.449 13.86,-1.306 -0.008,-0.009 -0.015,-0.017 -0.023,-0.026 0.707,-0.139 1.407,-0.285 2.104,-0.445 0.011,0.01 0.021,0.019 0.031,0.029 1.137,-0.257 2.259,-0.544 3.365,-0.858 2.42,-0.687 5.44,-1.603 6.674,-2.113 m -8.073,-10.686 c -3.615,0.656 -5.341,0.695 -6.667,0.632 -0.289,-0.013 -0.637,-0.033 -1.008,-0.051 l 2.629,2.058 -3.529,2.371 c 2.851,-0.511 5.604,-1.246 8.181,-2.199 0.765,-0.288 2.767,-1.192 3.047,-1.356 0.48,-0.285 0.916,-0.5 1.326,-0.655 -1.236,-0.761 -2.599,-1.053 -3.979,-0.8 m -30.847,2.639 2.627,-2.058 c -0.372,0.018 -0.718,0.038 -1.009,0.051 -1.327,0.063 -3.053,0.024 -6.667,-0.632 -1.374,-0.253 -2.74,0.039 -3.976,0.8 0.408,0.157 0.849,0.37 1.33,0.655 0.274,0.164 2.276,1.068 3.038,1.356 2.582,0.953 5.337,1.688 8.189,2.201 z M -55.118,-3.48 c -0.032,0.019 -0.064,0.037 -0.096,0.055 -0.133,0.08 -0.263,0.165 -0.393,0.251 -0.051,0.034 -0.104,0.069 -0.156,0.105 -0.114,0.078 -0.225,0.16 -0.336,0.244 -0.063,0.048 -0.127,0.096 -0.189,0.145 -0.098,0.078 -0.196,0.159 -0.292,0.241 -0.07,0.06 -0.139,0.122 -0.208,0.185 -0.086,0.077 -0.171,0.155 -0.254,0.236 -0.075,0.074 -0.149,0.149 -0.221,0.224 -0.074,0.077 -0.149,0.153 -0.219,0.232 -0.079,0.088 -0.156,0.178 -0.232,0.269 -0.061,0.073 -0.123,0.145 -0.183,0.22 -0.086,0.109 -0.168,0.221 -0.25,0.333 -0.045,0.063 -0.093,0.124 -0.137,0.188 -0.124,0.179 -0.244,0.364 -0.357,0.552 -1.108,1.854 -1.326,5.425 -1.305,7.655 0.296,-0.142 0.637,-0.292 1.016,-0.456 0.06,-0.027 0.124,-0.055 0.19,-0.084 0.038,-0.017 0.079,-0.035 0.119,-0.052 0.028,-0.012 0.056,-0.025 0.085,-0.037 0.056,-0.026 0.113,-0.051 0.173,-0.078 0.012,-0.005 0.024,-0.01 0.035,-0.016 0.941,-0.42 2.201,-1.015 2.942,-1.55 0.333,-1.207 0.745,-2.417 1.244,-3.624 -1.307,0.59 -2.986,1.615 -3.983,3.267 0,0 -1.146,-5.968 6.031,-7.546 0.049,-0.011 0.093,-0.019 0.139,-0.027 0.489,-0.807 1.025,-1.609 1.608,-2.403 -1.761,0.151 -3.376,0.655 -4.771,1.471 m -1.256,21.165 c -0.63,0.674 -1.83,2.073 -2.111,3.214 0,0 -1.872,-3.767 1.675,-7.151 0.093,-0.09 0.18,-0.168 0.266,-0.244 0.014,-0.812 0.058,-1.635 0.133,-2.463 -0.133,0.065 -0.251,0.128 -0.337,0.181 -2.542,1.557 -4.048,4.229 -4.022,7.148 0.008,1.339 0.341,2.632 0.982,3.742 0.238,0.414 0.717,1.14 1.156,1.776 0.173,-0.213 0.364,-0.446 0.577,-0.695 0.45,-0.533 1.761,-1.758 2.113,-2.415 -0.182,-1.004 -0.329,-2.037 -0.432,-3.093 m 1.37,16.776 c 0.523,1.187 1.328,2.208 2.325,2.949 0.349,0.262 1.028,0.705 1.66,1.102 0.017,-0.124 0.048,-0.255 0.07,-0.388 0.153,-0.811 0.492,-2.651 0.347,-3.348 -0.262,-0.432 -0.93,-1.521 -1.427,-2.37 -0.052,0.975 -0.049,2.586 0.418,3.747 0,0 -3.789,-2.576 -2.369,-7.269 0.034,-0.113 0.068,-0.218 0.101,-0.318 -0.094,-0.21 -0.182,-0.41 -0.26,-0.585 -0.142,-0.316 -0.258,-0.638 -0.356,-0.966 -1.387,2.286 -1.58,5.025 -0.509,7.446 M 2.912,10.828 c 0,0 -1.187,-0.917 -1.657,-1.21 C 1.217,9.593 1.174,9.568 1.127,9.542 1.113,9.534 1.096,9.525 1.081,9.517 1.049,9.499 1.015,9.482 0.981,9.463 0.96,9.452 0.939,9.441 0.916,9.43 0.884,9.414 0.85,9.397 0.814,9.379 0.79,9.367 0.764,9.355 0.739,9.342 0.704,9.326 0.668,9.308 0.631,9.291 0.603,9.278 0.574,9.264 0.547,9.251 0.512,9.236 0.478,9.22 0.444,9.204 -0.395,8.82 -1.594,8.33 -2.697,7.763 c 0,0 0,0.001 10e-4,0.001 0.081,0.419 0.151,0.837 0.216,1.254 0.572,0.254 1.146,0.518 1.492,0.726 3.257,1.997 4.874,5.377 4.854,8.633 -0.011,1.615 -0.416,3.205 -1.213,4.594 -0.546,0.947 -2.138,3.211 -2.148,3.224 l -0.744,1.069 c 0,0 -0.401,-1.142 -0.604,-1.541 -0.703,-1.378 -1.422,-1.742 -2.279,-2.921 -0.167,0.706 -0.349,1.393 -0.544,2.061 0.235,0.267 0.446,0.517 0.586,0.714 2.125,3.032 2.264,6.667 0.982,9.562 -0.631,1.43 -1.606,2.689 -2.855,3.618 -0.849,0.634 -3.144,2.037 -3.155,2.04 l -1.075,0.663 c 0,0 0.075,-1.17 0.057,-1.603 -0.024,-0.608 -0.37,-2 -0.537,-3.343 -0.394,0.455 -0.802,0.901 -1.232,1.334 0.713,1.254 0.473,3.097 -1.464,4.899 -2.235,2.08 -7.078,1.934 -9.044,1.991 l -1.352,0.024 0.651,-1.238 c 1.648,-3.108 4.401,-5.938 6.22,-6.768 0.713,-0.324 1.41,-0.47 2.053,-0.47 0.386,0 0.753,0.053 1.092,0.153 -0.234,0.249 -0.472,0.493 -0.715,0.731 -0.249,0.236 -0.572,0.539 -0.92,0.858 -0.265,0.051 -0.523,0.168 -0.81,0.26 -2.077,0.661 -3.194,2.468 -4.669,4.735 2.465,0.229 5.064,-0.032 6.436,-1.448 0.873,-0.9 1.289,-1.796 1.196,-2.485 -0.562,0.501 -1.273,1.019 -1.478,1.182 -0.07,0.058 -0.141,0.112 -0.209,0.164 -0.87,1.408 -1.739,1.471 -3.819,1.686 0,0 1.257,-2.619 3.071,-2.698 1.036,-0.784 1.655,-1.281 1.92,-1.541 5.583,-5.429 8.916,-13.86 8.916,-22.552 0,-6.132 -1.639,-11.996 -4.74,-16.96 -1.113,-1.692 -3.166,-4.278 -5.486,-6.946 -4.845,1.011 -9.934,1.526 -15.189,1.534 h -0.055 c -5.287,-0.008 -10.408,-0.535 -15.281,-1.561 -2.33,2.677 -4.395,5.275 -5.51,6.973 -3.101,4.964 -4.74,10.828 -4.74,16.96 0,8.692 3.333,17.123 8.915,22.552 0.266,0.26 0.884,0.757 1.921,1.541 1.813,0.079 3.07,2.698 3.07,2.698 -2.079,-0.215 -2.95,-0.278 -3.819,-1.686 -0.069,-0.052 -0.137,-0.106 -0.209,-0.164 -0.205,-0.163 -0.916,-0.681 -1.476,-1.182 -0.094,0.689 0.321,1.585 1.194,2.485 1.372,1.416 3.971,1.677 6.437,1.448 -1.477,-2.267 -2.593,-4.074 -4.67,-4.735 -0.288,-0.092 -0.545,-0.209 -0.809,-0.26 -0.349,-0.319 -0.673,-0.622 -0.92,-0.858 -0.244,-0.238 -0.481,-0.482 -0.715,-0.731 0.338,-0.1 0.704,-0.153 1.091,-0.153 0.643,0 1.341,0.146 2.053,0.47 1.818,0.83 4.573,3.66 6.22,6.768 l 0.651,1.238 -1.352,-0.024 c -1.965,-0.057 -6.809,0.089 -9.044,-1.991 -1.936,-1.802 -2.176,-3.645 -1.463,-4.899 -0.429,-0.433 -0.838,-0.879 -1.232,-1.334 -0.168,1.343 -0.514,2.735 -0.537,3.343 -0.018,0.433 0.057,1.603 0.057,1.603 l -1.077,-0.663 c -0.009,-0.003 -2.305,-1.406 -3.153,-2.04 -1.249,-0.929 -2.225,-2.188 -2.855,-3.618 -1.283,-2.895 -1.145,-6.53 0.982,-9.562 0.138,-0.197 0.35,-0.447 0.586,-0.714 -0.196,-0.668 -0.379,-1.355 -0.545,-2.061 -0.856,1.179 -1.576,1.543 -2.278,2.921 -0.203,0.399 -0.604,1.541 -0.604,1.541 l -0.745,-1.069 c -0.009,-0.013 -1.601,-2.277 -2.148,-3.224 -0.797,-1.389 -1.201,-2.979 -1.213,-4.594 -0.02,-3.256 1.598,-6.636 4.855,-8.633 0.345,-0.208 0.92,-0.472 1.492,-0.726 0.063,-0.417 0.134,-0.835 0.215,-1.254 V 7.763 c -1.103,0.567 -2.302,1.057 -3.14,1.441 -0.034,0.016 -0.069,0.032 -0.101,0.047 -0.03,0.013 -0.058,0.027 -0.086,0.04 -0.037,0.017 -0.072,0.035 -0.108,0.051 -0.025,0.013 -0.051,0.025 -0.075,0.037 -0.035,0.018 -0.069,0.035 -0.101,0.051 -0.023,0.011 -0.045,0.022 -0.065,0.033 -0.036,0.019 -0.069,0.036 -0.1,0.054 -0.017,0.008 -0.033,0.017 -0.048,0.025 -0.046,0.026 -0.088,0.051 -0.127,0.076 -0.469,0.293 -1.657,1.21 -1.657,1.21 l -0.105,-1.567 c -0.003,-0.017 -0.498,-6.83 1.5,-10.166 2.176,-3.636 6.065,-5.851 10.876,-5.866 0.057,0 0.121,0.002 0.186,0.004 0.057,0.002 0.114,0.005 0.175,0.008 0.333,-0.396 0.676,-0.791 1.036,-1.181 0.01,-0.013 0.021,-0.024 0.031,-0.036 0.012,-0.013 0.023,-0.026 0.035,-0.038 0.329,-0.367 0.671,-0.732 1.023,-1.096 -0.763,-0.187 -1.519,-0.387 -2.268,-0.6 -1.196,-0.34 -5.225,-1.503 -6.858,-2.18 -1.433,-0.595 -2.304,-1.363 -2.669,-2.353 -0.325,-0.886 -0.212,-1.892 0.349,-2.994 0.145,-0.276 1.574,-2.328 2.646,-3.837 l -0.017,-0.013 c 1.807,-3.113 4.594,-4.908 7.477,-4.908 0.42,0 0.841,0.039 1.254,0.114 3.448,0.624 5.057,0.661 6.28,0.606 1.238,-0.054 3.745,-0.233 3.768,-0.238 l 2.824,-0.203 -5.187,4.071 3.481,2.336 c 0.909,-0.603 1.851,-1.164 2.825,-1.678 2.12,-1.126 4.269,-1.964 6.41,-2.538 1.484,0.497 2.644,1.16 3.258,1.888 -3.11,0.388 -6.31,1.394 -9.444,3.049 -0.074,0.04 -0.147,0.081 -0.22,0.121 1.208,0.083 2.424,0.133 3.642,0.135 1.163,-0.002 2.323,-0.048 3.476,-0.124 -0.066,-0.035 -0.13,-0.072 -0.196,-0.107 -0.95,-0.504 -1.35,-0.736 -2.308,-1.119 1.538,-0.497 2.463,-1.128 3.385,-0.821 0.747,0.411 1.41,0.818 2.044,1.243 l 3.555,-2.385 -5.189,-4.071 2.826,0.203 c 0.027,0.005 2.531,0.184 3.765,0.238 1.226,0.055 2.836,0.018 6.281,-0.606 0.421,-0.075 0.838,-0.114 1.253,-0.114 2.891,0 5.673,1.795 7.48,4.908 l -0.014,0.013 c 1.072,1.509 2.502,3.561 2.64,3.837 0.566,1.102 0.679,2.108 0.351,2.994 -0.361,0.99 -1.231,1.758 -2.664,2.353 -1.635,0.677 -5.667,1.84 -6.863,2.18 -0.791,0.224 -1.587,0.435 -2.39,0.63 0.34,0.355 0.672,0.71 0.992,1.066 v 0 c 0.013,0.012 0.023,0.025 0.035,0.038 0.01,0.012 0.021,0.023 0.031,0.036 0.36,0.39 0.703,0.785 1.037,1.181 0.06,-0.003 0.118,-0.006 0.174,-0.008 0.065,-0.002 0.129,-0.004 0.187,-0.004 4.81,0.015 8.698,2.23 10.875,5.866 1.998,3.336 1.504,10.149 1.499,10.166 l -0.104,1.567" />
      </g>
    </g>
  </g>
</svg>
