<?xml version="1.0" encoding="UTF-8" standalone="no"?>
<svg
   width="142px"
   height="210px"
   viewBox="0 0 142 210"
   version="1.1"
   class="svg replaced-svg"
   id="svg1"
   xmlns="http://www.w3.org/2000/svg"
   xmlns:svg="http://www.w3.org/2000/svg">
  <defs
     id="defs1" />
  <title
     id="title1">RHS Brandmark </title>
  <desc
     id="desc1">Richmond High School. Website: https://rhs.vic.edu.au/</desc>
  <g
     id="Welcome"
     stroke="none"
     stroke-width="1"
     fill="none"
     fill-rule="evenodd">
    <g
       id="Desktop---Hero#1"
       transform="translate(-890.000000, -282.000000)"
       fill="#EF4E22">
      <g
         id="#1---HERO">
        <path
           d="M1006.30448,466.297704 C994.963872,477.641054 980.045843,484.211542 964,485 C964.786068,468.959893 971.352885,454.044632 982.691968,442.702296 C994.033082,431.359453 1008.95162,424.788458 1025,424 C1024.2119,440.040615 1017.64458,454.955368 1006.30448,466.297704 Z M915.692475,466.297704 C904.353393,454.955368 897.786576,440.040107 897,424 C913.045843,424.788458 927.963872,431.359453 939.304986,442.702296 C950.644576,454.044632 957.212409,468.959893 958,485 C941.954157,484.212049 927.034097,477.641561 915.692475,466.297704 Z M897,357 L932,357 C924.355756,360.471689 917.326624,365.311583 911.24097,371.424465 C905.226368,377.46504 900.447066,384.429295 897,392 L897,357 Z M897,289 L927.514167,289 C944.324585,289 958,302.681883 958,319.49266 L957.9322,350 L897,350 L897,289 Z M1021,289 L964.209044,345 L964.123018,319.242921 C964.123018,306.683365 957.811045,295.58546 948,289 L1021,289 Z M1025,350.589475 L1010.16741,350.589475 C1005.20498,350.589475 1000.54258,352.578468 997.037628,356.19116 C996.193248,357.06157 995.445699,358.003698 994.789962,359 C994.133222,358.003698 993.385171,357.061054 992.540289,356.190644 C989.036338,352.578468 984.373936,350.589475 979.412012,350.589475 L969,350.589475 L1025,293 L1025,350.589475 Z M1025,418 L998.025027,418 L998.011512,369.355402 C998.011512,369.272043 998.001001,369.190199 998,369.107345 C998.052056,365.901285 999.302899,362.893268 1001.55282,360.616794 C1003.85829,358.284242 1006.92559,357 1010.19109,357 L1025,357 L1025,418 Z M991.986005,369.574663 L992,418 L965,418 L965,357 L979.801744,357 C983.060976,357 986.124285,358.283737 988.42689,360.616794 C990.672516,362.891753 991.92203,365.898759 991.97551,369.110881 C991.97451,369.192725 991.964014,369.273053 991.964014,369.355908 C991.964014,369.430679 991.981507,369.500398 991.986005,369.574663 Z M897,418 C897.788106,401.959385 904.354977,387.044632 915.694662,375.702296 C927.035871,364.359453 941.954531,357.788458 958,357 C957.213925,373.040107 950.646546,387.955368 939.307877,399.297704 C927.967176,410.640547 913.048516,417.211542 897,418 Z M999,424.456411 C991.507751,427.928228 984.615672,432.733591 978.63575,438.773889 C970.434439,447.056179 964.517826,457.059305 961.185743,468 C957.85366,457.059305 951.93654,447.056179 943.734723,438.773889 C935.586592,430.545248 925.753933,424.595897 915,421.217581 C925.767101,417.840798 935.610902,411.887359 943.767644,403.650032 C949.770357,397.587253 954.540316,390.598145 957.979771,383 L957.979771,424.454367 L999,424.456411 Z M890,420.949986 C889.997964,440.016386 897.392981,457.875975 910.73924,471.25181 C924.089571,484.631212 941.928534,492 960.974037,492 C960.990328,492 961.0056,491.994904 961.0224,491.994904 C961.039709,491.994904 961.054982,492 961.071782,492 C980.111684,492 997.951665,484.631212 1011.30251,471.25181 C1024.64978,457.876484 1032,440.009761 1032,420.94336 C1032,420.820029 1031.97709,420.703323 1031.96385,420.583559 L1032,282 L890,282 L890,420.949986 L890,420.949986 Z"
           id="Fill-1" />
      </g>
    </g>
  </g>
</svg>
