<?xml version="1.0" encoding="UTF-8" standalone="no"?>
<svg
   xmlns:dc="http://purl.org/dc/elements/1.1/"
   xmlns:cc="http://creativecommons.org/ns#"
   xmlns:rdf="http://www.w3.org/1999/02/22-rdf-syntax-ns#"
   xmlns:svg="http://www.w3.org/2000/svg"
   xmlns="http://www.w3.org/2000/svg"
   xmlns:sodipodi="http://sodipodi.sourceforge.net/DTD/sodipodi-0.dtd"
   xmlns:inkscape="http://www.inkscape.org/namespaces/inkscape"
   id="svg63627"
   version="1.1"
   viewBox="0 0 32.314796 32.315079"
   height="32.315079mm"
   width="32.314796mm"
   sodipodi:docname="ringwood-secondary-college-2.svg"
   inkscape:version="0.92.4 (unknown)">
  <sodipodi:namedview
     pagecolor="#ffffff"
     bordercolor="#666666"
     borderopacity="1"
     objecttolerance="10"
     gridtolerance="10"
     guidetolerance="10"
     inkscape:pageopacity="0"
     inkscape:pageshadow="2"
     inkscape:window-width="764"
     inkscape:window-height="480"
     id="namedview155"
     showgrid="false"
     inkscape:zoom="10.930606"
     inkscape:cx="33.001656"
     inkscape:cy="116.01742"
     inkscape:window-x="0"
     inkscape:window-y="0"
     inkscape:window-maximized="0"
     inkscape:current-layer="svg63627" />
  <defs
     id="defs63621">
    <clipPath
       clipPathUnits="userSpaceOnUse"
       id="clipPath63671">
      <path
         d="M 0,841.89 H 595.276 V 0 H 0 Z"
         id="path63669" />
    </clipPath>
    <clipPath
       clipPathUnits="userSpaceOnUse"
       id="clipPath64485">
      <path
         d="m 433.375,467.192 h 91.601 v 91.602 h -91.601 z"
         id="path64483" />
    </clipPath>
  </defs>
  <metadata
     id="metadata63624">
    <rdf:RDF>
      <cc:Work
         rdf:about="">
        <dc:format>image/svg+xml</dc:format>
        <dc:type
           rdf:resource="http://purl.org/dc/dcmitype/StillImage" />
        <dc:title></dc:title>
      </cc:Work>
    </rdf:RDF>
  </metadata>
  <g
     transform="translate(-62.248093,-127.06361)"
     id="layer1">
    <g
       transform="matrix(0.35277777,0,0,-0.35277777,272.22017,353.67578)"
       id="g63663">
      <g
         id="g63665">
        <g
           clip-path="url(#clipPath63671)"
           id="g63667" />
      </g>
    </g>
    <g
       transform="matrix(0.35277777,0,0,-0.35277777,-90.636973,324.19364)"
       id="g64479">
      <g
         clip-path="url(#clipPath64485)"
         id="g64481">
        <g
           transform="translate(479.1756,477.2538)"
           id="g64487">
          <path
             id="path64489"
             style="fill:#0d6c49;fill-opacity:1;fill-rule:nonzero;stroke:none"
             d="m 0,0 c -19.738,0 -35.739,16.001 -35.739,35.739 0,19.738 16.001,35.739 35.739,35.739 19.738,0 35.739,-16.001 35.739,-35.739 C 35.739,16.001 19.738,0 0,0 M 30.219,3.028 C 22.281,-4.284 11.637,-8.797 0,-8.797 c -11.657,0 -22.258,4.486 -30.196,11.816 l -0.015,1.125 C -22.357,-3.366 -11.724,-7.989 0,-7.989 c 11.727,0 22.364,4.623 30.216,12.137 -0.018,-0.28 0.069,-1.059 0.003,-1.12 m -66.047,6.259 c -5.471,7.397 -8.709,16.545 -8.709,26.453 0,24.597 19.938,44.537 44.537,44.537 24.598,0 44.537,-19.94 44.537,-44.537 0,-9.942 -3.263,-18.931 -8.771,-26.325 h -0.857 c 5.532,7.324 8.819,16.436 8.819,26.325 0,12.077 -4.894,23.006 -12.808,30.92 C 23.005,74.574 12.077,79.467 0,79.467 c -12.077,0 -23.006,-4.893 -30.923,-12.807 -7.912,-7.914 -12.807,-18.845 -12.807,-30.92 0,-9.945 3.325,-19.108 8.915,-26.453 z M 45.801,35.739 C 45.801,61.034 25.295,81.54 0,81.54 c -25.295,0 -45.801,-20.506 -45.801,-45.801 0,-9.857 3.124,-18.979 8.422,-26.452 0.314,-0.442 0.631,-0.88 0.959,-1.309 h 3.397 c 0.877,0 1.588,-0.712 1.588,-1.589 V 2.453 c 0.343,-0.323 0.748,-0.666 1.114,-0.985 V 1.425 c 8.079,-7.144 18.69,-11.487 30.321,-11.487 12.041,0 22.998,4.647 31.173,12.247 l 0.028,1.775 c 0,0 0.049,1.081 -0.012,1.311 l -0.001,0.453 c 0,0 -0.165,2.777 1.927,2.777 h 1.054 l 0.01,0.005 h 2.647 c 5.639,7.611 8.975,17.032 8.975,27.233" />
        </g>
        <g
           transform="translate(498.7753,485.9754)"
           id="g64491">
          <path
             id="path64493"
             style="fill:#0d6c49;fill-opacity:1;fill-rule:nonzero;stroke:none"
             d="m 0,0 -1.63,0.873 c 0,0 -2.413,4.335 0.233,7.45 2.619,3.086 6.519,2.155 6.519,2.155 L 8.964,8.615 8.848,7.742 1.339,0 Z" />
        </g>
        <g
           transform="translate(468.4679,522.7699)"
           id="g64495">
          <path
             id="path64497"
             style="fill:#0d6c49;fill-opacity:1;fill-rule:nonzero;stroke:none"
             d="m 0,0 -8.804,-7.825 c 1.593,-0.872 4.152,-1.815 7.052,-1.085 6.139,1.547 7.039,4.671 7.039,4.671 0,0 -2.37,0.765 -5.287,4.239 m -1.113,1.423 -9.394,-8.111 c 0,0 0.357,-0.31 0.979,-0.708 l 9.02,8.017 c -0.2,0.256 -0.402,0.521 -0.605,0.802" />
        </g>
        <g
           transform="translate(452.1872,508.2773)"
           id="g64499">
          <path
             id="path64501"
             style="fill:#0d6c49;fill-opacity:1;fill-rule:nonzero;stroke:none"
             d="m 0,0 -3.714,-3.301 c 0.227,-0.709 1.007,-2.97 2.763,-6.01 2.066,-3.568 5.457,-8.18 10.821,-12.516 0.166,1.814 0.786,6.631 2.946,12.14 0.004,0.007 0.006,0.014 0.008,0.02 l 0.026,0.083 C 5.615,-6.881 1.831,-2.748 0,0 m 50.878,-19.21 c -6.126,-6.125 -14.582,-9.911 -23.928,-9.911 -5.536,0 -10.754,1.337 -15.366,3.692 l -0.03,0.039 c 0.047,-0.024 0.094,-0.052 0.142,-0.076 0.012,2.691 0.432,8.151 3.028,15.24 -0.391,0.121 -0.754,0.256 -1.127,0.385 l -0.025,-0.057 0.019,-0.007 c -2.726,-6.907 -2.977,-12.71 -2.977,-12.723 l -0.036,-0.778 -0.612,0.479 C -1.636,-13.835 -4.546,-3.33 -4.559,-3.28 l -0.067,0.24 4.19,3.725 c -0.271,0.447 -0.486,0.846 -0.647,1.171 l -4.995,-4.322 c 0.006,-0.03 0.016,-0.058 0.022,-0.087 l -0.038,-0.01 c -0.514,2.346 -0.793,4.779 -0.793,7.279 0,9.345 3.786,17.802 9.911,23.927 3.002,3.001 6.572,5.425 10.526,7.132 l 0.041,-0.041 c 0.362,0.155 0.728,0.299 1.097,0.442 l -0.056,0.055 c 3.819,1.494 7.969,2.322 12.318,2.322 4.253,0 8.313,-0.799 12.061,-2.231 l -0.069,-0.07 c 0.37,-0.141 0.74,-0.281 1.104,-0.435 l 0.076,0.078 C 44.17,34.182 47.815,31.704 50.878,28.643 57,22.518 60.787,14.061 60.787,4.716 60.787,-4.63 57,-13.086 50.878,-19.21 M 26.95,39.355 C 7.82,39.353 -7.688,23.846 -7.688,4.716 c 0,-19.13 15.508,-34.638 34.638,-34.638 19.131,0 34.638,15.508 34.639,34.638 -10e-4,19.13 -15.508,34.637 -34.639,34.639" />
        </g>
        <g
           transform="translate(456.5226,486.898)"
           id="g64503">
          <path
             id="path64505"
             style="fill:#ffffff;fill-opacity:1;fill-rule:nonzero;stroke:none"
             d="m 0,0 1.92,-0.175 c 0,0 1.165,-0.408 1.804,1.106 C 4.365,2.445 5.181,5.472 2.386,7.509 -0.408,9.546 -4.484,8.323 -5.472,6.228 -6.461,4.133 -7.348,1.116 -12.703,0.417 L -13.13,-0.38 c 0,0 3.004,0.194 3.526,0.03 0.522,-0.163 1.643,-0.387 1.862,-1.804 0.232,-1.505 -0.07,-4.254 -0.07,-4.254 l 0.943,-0.811 0.175,1.224 c 0,0 2.736,5.762 6.694,5.995" />
        </g>
        <g
           transform="translate(459.0051,487.5399)"
           id="g64507">
          <path
             id="path64509"
             style="fill:#0d6c49;fill-opacity:1;fill-rule:nonzero;stroke:none"
             d="m 0,0 c 0,0 2.592,4.227 -0.882,6.218 -3.155,1.809 -6.496,0.185 -7.332,-2.691 0,0 -0.788,-2.693 -3.758,-3.574 0,0 3.295,-0.279 2.599,-5.29 0,0 2.922,6.869 9.373,5.337" />
        </g>
        <g
           transform="translate(438.2505,509.4955)"
           id="g64511">
          <path
             id="path64513"
             style="fill:#ffffff;fill-opacity:1;fill-rule:nonzero;stroke:none"
             d="M 0,0 1.391,0.083 1.32,1.248 C 1.307,1.48 1.269,1.652 1.206,1.763 1.094,1.962 0.894,2.052 0.604,2.035 0.29,2.017 0.086,1.905 -0.011,1.701 -0.064,1.585 -0.084,1.417 -0.072,1.195 Z m -0.9,2.19 c 0.071,0.195 0.182,0.364 0.333,0.507 0.125,0.117 0.264,0.212 0.42,0.286 C 0.008,3.056 0.187,3.099 0.391,3.112 0.636,3.126 0.883,3.079 1.127,2.969 1.373,2.859 1.552,2.664 1.669,2.385 1.75,2.629 1.877,2.807 2.047,2.917 2.219,3.026 2.485,3.093 2.849,3.115 l 0.347,0.02 C 3.432,3.15 3.592,3.169 3.676,3.193 3.807,3.229 3.901,3.302 3.958,3.411 L 4.087,3.419 4.159,2.223 C 4.047,2.185 3.955,2.155 3.886,2.138 3.744,2.1 3.596,2.077 3.444,2.065 L 2.962,2.029 C 2.632,2.005 2.416,1.934 2.312,1.818 2.209,1.701 2.166,1.493 2.185,1.191 L 2.248,0.135 4.278,0.257 4.341,-0.8 -0.835,-1.111 -0.985,1.365 C -0.999,1.719 -0.97,1.994 -0.9,2.19" />
        </g>
        <g
           transform="translate(442.4487,514.8473)"
           id="g64515">
          <path
             id="path64517"
             style="fill:#ffffff;fill-opacity:1;fill-rule:nonzero;stroke:none"
             d="m 0,0 -0.039,-1.077 -5.184,0.193 0.041,1.075 z" />
        </g>
        <g
           transform="translate(437.3189,516.5244)"
           id="g64519">
          <path
             id="path64521"
             style="fill:#ffffff;fill-opacity:1;fill-rule:nonzero;stroke:none"
             d="m 0,0 0.151,1.126 3.855,1.562 -3.584,0.479 0.134,1 L 5.697,3.483 5.553,2.408 1.627,0.801 5.274,0.316 5.14,-0.685 Z" />
        </g>
        <g
           transform="translate(440.7438,525.3461)"
           id="g64523">
          <path
             id="path64525"
             style="fill:#ffffff;fill-opacity:1;fill-rule:nonzero;stroke:none"
             d="m 0,0 c -0.363,0.018 -0.656,-0.107 -0.88,-0.375 -0.123,-0.149 -0.214,-0.33 -0.274,-0.539 -0.115,-0.402 -0.058,-0.775 0.17,-1.12 0.23,-0.345 0.648,-0.604 1.255,-0.778 0.612,-0.174 1.087,-0.158 1.42,0.048 0.335,0.208 0.552,0.489 0.654,0.846 0.101,0.349 0.082,0.664 -0.055,0.944 -0.136,0.281 -0.36,0.494 -0.67,0.638 L 1.29,-1.488 0.457,-1.251 1.052,0.826 3.727,0.061 3.53,-0.628 2.878,-0.556 C 3.055,-0.824 3.171,-1.052 3.222,-1.239 3.311,-1.563 3.299,-1.925 3.185,-2.327 2.996,-2.987 2.612,-3.464 2.034,-3.753 1.448,-4.062 0.756,-4.103 -0.042,-3.874 c -0.806,0.23 -1.39,0.637 -1.75,1.221 -0.36,0.583 -0.435,1.24 -0.226,1.97 0.181,0.634 0.487,1.098 0.919,1.391 0.431,0.292 0.895,0.398 1.391,0.317 z" />
        </g>
        <g
           transform="translate(440.437,529.2969)"
           id="g64527">
          <path
             id="path64529"
             style="fill:#ffffff;fill-opacity:1;fill-rule:nonzero;stroke:none"
             d="M 0,0 2.973,-0.67 3.783,-0.893 3.118,-0.408 0.68,1.414 1.175,2.445 4.118,1.714 4.933,1.498 4.285,1.986 1.879,3.909 2.357,4.904 6.399,1.343 5.95,0.408 2.945,1.156 l -0.983,0.27 0.824,-0.6 2.462,-1.877 -0.435,-0.907 -5.312,0.92 z" />
        </g>
        <g
           transform="translate(448.7783,535.9069)"
           id="g64531">
          <path
             id="path64533"
             style="fill:#ffffff;fill-opacity:1;fill-rule:nonzero;stroke:none"
             d="M 0,0 C -0.112,0.388 -0.407,0.752 -0.883,1.09 -1.357,1.426 -1.797,1.584 -2.203,1.561 -2.608,1.54 -2.934,1.352 -3.183,1.003 -3.432,0.652 -3.5,0.282 -3.388,-0.11 c 0.109,-0.392 0.402,-0.756 0.88,-1.094 0.476,-0.338 0.918,-0.493 1.324,-0.469 0.406,0.025 0.733,0.214 0.981,0.564 C 0.045,-0.758 0.113,-0.389 0,0 M 1.035,0.097 C 1.138,-0.456 0.974,-1.035 0.547,-1.64 0.118,-2.245 -0.374,-2.59 -0.93,-2.677 c -0.708,-0.142 -1.441,0.057 -2.201,0.594 -0.775,0.551 -1.205,1.177 -1.289,1.88 -0.104,0.554 0.059,1.132 0.488,1.737 0.429,0.604 0.922,0.95 1.476,1.037 0.691,0.15 1.425,-0.048 2.2,-0.597 0.76,-0.539 1.19,-1.165 1.291,-1.877" />
        </g>
        <g
           transform="translate(452.6039,540.2665)"
           id="g64535">
          <path
             id="path64537"
             style="fill:#ffffff;fill-opacity:1;fill-rule:nonzero;stroke:none"
             d="M 0,0 C -0.052,0.401 -0.288,0.805 -0.709,1.211 -1.126,1.615 -1.537,1.837 -1.942,1.876 -2.345,1.916 -2.697,1.781 -2.995,1.472 -3.293,1.163 -3.417,0.807 -3.367,0.404 c 0.05,-0.404 0.285,-0.81 0.704,-1.215 0.421,-0.407 0.834,-0.627 1.239,-0.664 0.406,-0.036 0.757,0.1 1.056,0.409 C -0.07,-0.757 0.053,-0.402 0,0 m 1.038,-0.062 c 0.018,-0.561 -0.231,-1.109 -0.746,-1.642 -0.515,-0.533 -1.055,-0.8 -1.616,-0.801 -0.722,-0.034 -1.417,0.273 -2.086,0.92 -0.683,0.66 -1.013,1.344 -0.992,2.053 -0.017,0.562 0.232,1.11 0.748,1.642 0.515,0.534 1.053,0.801 1.615,0.803 0.705,0.044 1.401,-0.263 2.084,-0.924 0.669,-0.646 1,-1.331 0.993,-2.051" />
        </g>
        <g
           transform="translate(453.3761,545.014)"
           id="g64539">
          <path
             id="path64541"
             style="fill:#ffffff;fill-opacity:1;fill-rule:nonzero;stroke:none"
             d="m 0,0 2.067,-2.681 0.793,0.612 c 0.406,0.313 0.534,0.73 0.386,1.253 C 3.165,-0.529 3.006,-0.235 2.773,0.068 2.451,0.486 2.138,0.756 1.834,0.879 1.531,1.002 1.184,0.913 0.793,0.612 Z M 1.092,1.837 C 1.454,1.965 1.821,1.971 2.194,1.856 2.494,1.762 2.763,1.616 2.998,1.419 3.234,1.221 3.435,1.015 3.6,0.799 4.022,0.253 4.268,-0.294 4.342,-0.841 4.438,-1.583 4.176,-2.191 3.555,-2.671 L 1.785,-4.036 -1.384,0.07 0.387,1.435 C 0.645,1.628 0.88,1.762 1.092,1.837" />
        </g>
        <g
           transform="translate(461.0101,546.8998)"
           id="g64543">
          <path
             id="path64545"
             style="fill:#ffffff;fill-opacity:1;fill-rule:nonzero;stroke:none"
             d="m 0,0 c 0.137,-0.196 0.275,-0.324 0.416,-0.384 0.257,-0.11 0.579,-0.067 0.968,0.13 0.233,0.119 0.409,0.239 0.53,0.363 C 2.141,0.344 2.188,0.593 2.056,0.854 1.978,1.008 1.851,1.091 1.674,1.107 1.498,1.12 1.247,1.084 0.922,0.998 L 0.364,0.855 C -0.183,0.715 -0.581,0.661 -0.829,0.696 -1.25,0.751 -1.575,1.007 -1.804,1.46 c -0.21,0.416 -0.231,0.836 -0.065,1.265 0.165,0.429 0.545,0.793 1.136,1.092 0.494,0.249 0.98,0.333 1.459,0.252 C 1.206,3.986 1.578,3.704 1.844,3.22 L 0.915,2.75 C 0.757,3.019 0.533,3.154 0.242,3.154 0.048,3.154 -0.164,3.095 -0.394,2.979 -0.648,2.85 -0.827,2.696 -0.93,2.519 -1.03,2.342 -1.035,2.162 -0.945,1.983 -0.861,1.818 -0.723,1.732 -0.532,1.726 -0.408,1.721 -0.171,1.76 0.18,1.846 L 1.089,2.065 C 1.487,2.162 1.81,2.185 2.06,2.134 2.445,2.056 2.743,1.811 2.952,1.399 3.165,0.976 3.179,0.543 2.994,0.098 2.809,-0.348 2.418,-0.72 1.821,-1.022 1.212,-1.331 0.663,-1.436 0.175,-1.337 c -0.489,0.098 -0.854,0.388 -1.099,0.87 z" />
        </g>
        <g
           transform="translate(467.5696,552.5276)"
           id="g64547">
          <path
             id="path64549"
             style="fill:#ffffff;fill-opacity:1;fill-rule:nonzero;stroke:none"
             d="m 0,0 -2.589,-0.91 0.365,-1.04 2.377,0.835 0.299,-0.849 -2.378,-0.834 0.442,-1.258 2.709,0.951 0.31,-0.88 -3.709,-1.302 -1.719,4.892 3.589,1.26 z" />
        </g>
        <g
           transform="translate(469.4805,553.4158)"
           id="g64551">
          <path
             id="path64553"
             style="fill:#ffffff;fill-opacity:1;fill-rule:nonzero;stroke:none"
             d="M 0,0 C 0.324,0.501 0.802,0.817 1.434,0.946 2.28,1.118 2.956,0.964 3.461,0.484 3.742,0.213 3.922,-0.08 4.003,-0.393 L 2.941,-0.611 C 2.823,-0.381 2.7,-0.215 2.568,-0.112 2.334,0.07 2.031,0.123 1.66,0.047 1.283,-0.03 1.015,-0.247 0.861,-0.602 0.705,-0.958 0.686,-1.421 0.802,-1.991 0.918,-2.561 1.121,-2.965 1.41,-3.202 1.698,-3.439 2.019,-3.52 2.375,-3.448 c 0.365,0.074 0.616,0.253 0.759,0.535 0.078,0.153 0.125,0.367 0.141,0.643 l 1.056,0.216 C 4.353,-2.627 4.213,-3.124 3.909,-3.548 3.606,-3.97 3.162,-4.243 2.578,-4.361 1.855,-4.509 1.239,-4.391 0.73,-4.006 0.219,-3.62 -0.119,-3.017 -0.287,-2.195 -0.467,-1.309 -0.372,-0.577 0,0" />
        </g>
        <g
           transform="translate(478.2851,551.1688)"
           id="g64555">
          <path
             id="path64557"
             style="fill:#ffffff;fill-opacity:1;fill-rule:nonzero;stroke:none"
             d="M 0,0 C 0.235,0.33 0.336,0.786 0.305,1.37 0.273,1.951 0.122,2.392 -0.147,2.696 -0.416,3 -0.764,3.14 -1.192,3.118 -1.621,3.094 -1.954,2.917 -2.193,2.587 -2.431,2.257 -2.534,1.801 -2.502,1.218 c 0.031,-0.584 0.183,-1.027 0.455,-1.329 0.273,-0.303 0.624,-0.441 1.052,-0.419 0.429,0.023 0.76,0.2 0.995,0.53 m 0.719,-0.75 c -0.369,-0.425 -0.924,-0.657 -1.665,-0.697 -0.739,-0.04 -1.315,0.131 -1.73,0.513 -0.551,0.466 -0.852,1.163 -0.901,2.093 -0.051,0.949 0.172,1.675 0.671,2.179 0.369,0.424 0.924,0.656 1.664,0.696 0.74,0.04 1.316,-0.13 1.73,-0.513 C 1.035,3.074 1.335,2.377 1.387,1.427 1.436,0.499 1.215,-0.227 0.719,-0.75" />
        </g>
        <g
           transform="translate(481.0364,555.1016)"
           id="g64559">
          <path
             id="path64561"
             style="fill:#ffffff;fill-opacity:1;fill-rule:nonzero;stroke:none"
             d="M 0,0 1.133,-0.092 2.889,-3.864 3.185,-0.259 4.19,-0.344 3.768,-5.512 2.689,-5.423 0.885,-1.584 0.584,-5.251 -0.422,-5.168 Z" />
        </g>
        <g
           transform="translate(487.8308,553.3322)"
           id="g64563">
          <path
             id="path64565"
             style="fill:#ffffff;fill-opacity:1;fill-rule:nonzero;stroke:none"
             d="M 0,0 -0.774,-3.295 0.2,-3.524 c 0.499,-0.117 0.904,0.048 1.216,0.492 0.17,0.244 0.301,0.552 0.387,0.925 0.121,0.514 0.133,0.927 0.036,1.24 -0.096,0.313 -0.385,0.526 -0.865,0.639 z M 2.114,0.314 C 2.441,0.115 2.677,-0.167 2.823,-0.528 2.941,-0.821 2.998,-1.121 2.993,-1.429 2.988,-1.737 2.954,-2.022 2.893,-2.287 2.734,-2.958 2.467,-3.496 2.086,-3.897 1.575,-4.44 0.935,-4.621 0.172,-4.443 l -2.176,0.512 1.185,5.049 2.176,-0.511 C 1.67,0.528 1.922,0.431 2.114,0.314" />
        </g>
        <g
           transform="translate(492.9082,549.4471)"
           id="g64567">
          <path
             id="path64569"
             style="fill:#ffffff;fill-opacity:1;fill-rule:nonzero;stroke:none"
             d="m 0,0 1.237,-0.484 0.131,2.14 z M 1.239,2.979 2.382,2.533 2.203,-2.965 1.109,-2.538 1.179,-1.42 -0.6,-0.725 -1.315,-1.59 -2.372,-1.179 Z" />
        </g>
        <g
           transform="translate(498.748,549.3689)"
           id="g64571">
          <path
             id="path64573"
             style="fill:#ffffff;fill-opacity:1;fill-rule:nonzero;stroke:none"
             d="m 0,0 -0.685,-1.215 1.016,-0.572 c 0.201,-0.114 0.366,-0.175 0.494,-0.183 0.227,-0.015 0.412,0.104 0.556,0.358 0.154,0.273 0.171,0.506 0.052,0.697 -0.068,0.108 -0.198,0.217 -0.392,0.326 z M 2.327,-0.434 C 2.452,-0.6 2.534,-0.784 2.572,-0.988 2.602,-1.156 2.607,-1.326 2.584,-1.496 2.561,-1.667 2.5,-1.841 2.399,-2.018 2.279,-2.233 2.106,-2.414 1.881,-2.56 1.653,-2.705 1.393,-2.752 1.096,-2.697 c 0.161,-0.2 0.241,-0.403 0.24,-0.606 0,-0.204 -0.089,-0.464 -0.268,-0.78 L 0.897,-4.387 C 0.781,-4.592 0.709,-4.737 0.685,-4.82 0.644,-4.951 0.652,-5.069 0.714,-5.176 L 0.65,-5.289 -0.392,-4.701 c 0.029,0.116 0.053,0.209 0.075,0.277 0.047,0.14 0.107,0.277 0.18,0.411 l 0.231,0.424 c 0.158,0.29 0.218,0.51 0.177,0.659 -0.042,0.15 -0.194,0.3 -0.457,0.448 l -0.922,0.52 -0.999,-1.77 -0.923,0.52 2.55,4.516 2.161,-1.219 c 0.304,-0.18 0.52,-0.354 0.646,-0.519" />
        </g>
        <g
           transform="translate(505.454,546.0514)"
           id="g64575">
          <path
             id="path64577"
             style="fill:#ffffff;fill-opacity:1;fill-rule:nonzero;stroke:none"
             d="m 0,0 0.984,-0.737 -3.333,-1.553 -1.167,-1.557 -0.866,0.65 1.166,1.556 0.507,3.671 1.023,-0.767 -0.493,-2.453 z" />
        </g>
        <g
           transform="translate(508.9146,542.2469)"
           id="g64579">
          <path
             id="path64581"
             style="fill:#ffffff;fill-opacity:1;fill-rule:nonzero;stroke:none"
             d="M 0,0 C 0.596,-0.019 1.113,-0.267 1.549,-0.742 2.132,-1.378 2.348,-2.037 2.197,-2.718 2.108,-3.098 1.951,-3.403 1.723,-3.633 L 0.99,-2.835 c 0.136,0.219 0.216,0.411 0.236,0.576 0.036,0.295 -0.075,0.581 -0.332,0.861 -0.26,0.284 -0.583,0.402 -0.968,0.35 -0.384,-0.05 -0.792,-0.271 -1.221,-0.665 -0.428,-0.393 -0.67,-0.774 -0.723,-1.144 -0.056,-0.368 0.04,-0.687 0.285,-0.954 0.25,-0.274 0.535,-0.399 0.849,-0.375 0.172,0.012 0.38,0.081 0.625,0.209 L 0.469,-4.769 C -0.01,-5.084 -0.51,-5.22 -1.029,-5.178 c -0.519,0.043 -0.981,0.283 -1.383,0.722 -0.498,0.544 -0.714,1.133 -0.647,1.769 0.069,0.635 0.411,1.236 1.029,1.803 C -1.363,-0.272 -0.686,0.022 0,0" />
        </g>
        <g
           transform="translate(511.5322,533.54)"
           id="g64583">
          <path
             id="path64585"
             style="fill:#ffffff;fill-opacity:1;fill-rule:nonzero;stroke:none"
             d="M 0,0 C 0.404,-0.03 0.847,0.118 1.329,0.446 1.811,0.773 2.113,1.13 2.234,1.518 2.355,1.904 2.295,2.275 2.054,2.631 1.813,2.986 1.49,3.18 1.084,3.214 0.679,3.247 0.233,3.1 -0.251,2.772 -0.733,2.443 -1.034,2.085 -1.151,1.695 -1.27,1.306 -1.209,0.934 -0.967,0.579 -0.726,0.223 -0.405,0.03 0,0 m -0.271,-1.003 c -0.554,0.097 -1.04,0.452 -1.457,1.065 -0.416,0.614 -0.567,1.196 -0.454,1.747 0.115,0.712 0.558,1.33 1.328,1.853 0.785,0.534 1.523,0.717 2.212,0.55 C 1.913,4.115 2.397,3.76 2.813,3.146 3.23,2.533 3.381,1.952 3.268,1.4 3.168,0.701 2.724,0.083 1.939,-0.451 1.168,-0.974 0.431,-1.158 -0.271,-1.003" />
        </g>
        <g
           transform="translate(516.3297,533.1969)"
           id="g64587">
          <path
             id="path64589"
             style="fill:#ffffff;fill-opacity:1;fill-rule:nonzero;stroke:none"
             d="M 0,0 0.484,-0.97 -3.325,-2.865 -2.172,-5.184 -3.006,-5.6 -4.643,-2.311 Z" />
        </g>
        <g
           transform="translate(518.4728,528.6613)"
           id="g64591">
          <path
             id="path64593"
             style="fill:#ffffff;fill-opacity:1;fill-rule:nonzero;stroke:none"
             d="m 0,0 0.363,-1.021 -4.007,-1.429 0.87,-2.438 -0.878,-0.314 -1.234,3.461 z" />
        </g>
        <g
           transform="translate(520.006,519.924)"
           id="g64595">
          <path
             id="path64597"
             style="fill:#ffffff;fill-opacity:1;fill-rule:nonzero;stroke:none"
             d="m 0,0 -0.59,2.68 -1.075,-0.237 0.541,-2.46 -0.879,-0.194 -0.542,2.46 -1.303,-0.287 0.618,-2.804 -0.91,-0.2 -0.846,3.838 5.064,1.115 0.819,-3.714 z" />
        </g>
        <g
           transform="translate(519.8192,514.8325)"
           id="g64599">
          <path
             id="path64601"
             style="fill:#ffffff;fill-opacity:1;fill-rule:nonzero;stroke:none"
             d="M 0,0 C 0.347,0.108 0.578,0.327 0.695,0.655 0.759,0.839 0.783,1.039 0.765,1.257 0.735,1.673 0.552,2.003 0.218,2.248 -0.117,2.492 -0.598,2.59 -1.229,2.543 -1.863,2.496 -2.302,2.317 -2.544,2.007 c -0.241,-0.31 -0.348,-0.65 -0.321,-1.02 0.027,-0.362 0.152,-0.652 0.378,-0.868 0.227,-0.215 0.509,-0.337 0.851,-0.366 l -0.09,1.197 0.862,0.065 0.163,-2.155 -2.775,-0.209 -0.055,0.716 0.638,0.157 c -0.26,0.191 -0.446,0.365 -0.559,0.523 -0.196,0.272 -0.311,0.617 -0.341,1.033 -0.052,0.685 0.143,1.265 0.585,1.738 0.443,0.492 1.078,0.769 1.905,0.831 C -0.466,3.712 0.222,3.532 0.761,3.109 1.302,2.686 1.6,2.095 1.656,1.339 1.705,0.681 1.579,0.14 1.275,-0.283 0.972,-0.708 0.573,-0.968 0.08,-1.063 Z" />
        </g>
        <g
           transform="translate(520.322,508.3367)"
           id="g64603">
          <path
             id="path64605"
             style="fill:#ffffff;fill-opacity:1;fill-rule:nonzero;stroke:none"
             d="M 0,0 0.18,2.738 -0.919,2.81 -1.084,0.296 -1.983,0.355 -1.818,2.869 -3.15,2.956 -3.336,0.091 -4.267,0.152 -4.01,4.074 1.165,3.735 0.917,-0.06 Z" />
        </g>
        <g
           transform="translate(501.6854,486.9652)"
           id="g64607">
          <path
             id="path64609"
             style="fill:#ffffff;fill-opacity:1;fill-rule:nonzero;stroke:none"
             d="m 0,0 -1.92,-0.175 c 0,0 -1.165,-0.408 -1.805,1.106 -0.64,1.514 -1.456,4.541 1.339,6.578 C 0.408,9.546 4.484,8.323 5.472,6.228 6.461,4.133 7.335,1.339 12.69,0.641 l 0.642,-0.037 -0.235,-0.895 -3.453,-0.02 c 0,0 -1.727,-0.33 -1.902,-1.843 -0.174,-1.513 0,-4.249 0,-4.249 L 6.869,-7.218 6.694,-5.995 c 0,0 -2.736,5.762 -6.694,5.995" />
        </g>
        <g
           transform="translate(499.203,487.6071)"
           id="g64611">
          <path
             id="path64613"
             style="fill:#0d6c49;fill-opacity:1;fill-rule:nonzero;stroke:none"
             d="m 0,0 c 0,0 -2.592,4.227 0.881,6.218 3.156,1.809 6.497,0.185 7.333,-2.691 0,0 0.788,-2.693 3.758,-3.574 0,0 -3.295,-0.279 -2.599,-5.29 0,0 -2.922,6.869 -9.373,5.337" />
        </g>
        <g
           transform="translate(457.2099,482.1263)"
           id="g64615">
          <path
             id="path64617"
             style="fill:#ffffff;fill-opacity:1;fill-rule:nonzero;stroke:none"
             d="M 0,0 C 0.026,0.191 -0.055,0.354 -0.247,0.491 -0.352,0.566 -0.46,0.6 -0.569,0.592 -0.678,0.584 -0.797,0.531 -0.927,0.432 c -0.13,-0.099 -0.276,-0.246 -0.438,-0.44 -0.163,-0.194 -0.35,-0.44 -0.562,-0.737 -0.226,-0.316 -0.398,-0.579 -0.517,-0.791 -0.117,-0.21 -0.193,-0.385 -0.225,-0.525 -0.032,-0.14 -0.026,-0.253 0.016,-0.338 0.041,-0.086 0.107,-0.161 0.197,-0.225 0.074,-0.054 0.153,-0.091 0.236,-0.112 0.082,-0.02 0.174,-0.009 0.275,0.034 0.102,0.042 0.216,0.123 0.342,0.242 0.127,0.12 0.271,0.293 0.433,0.519 l 0.844,-0.603 c -0.162,-0.226 -0.333,-0.429 -0.513,-0.607 -0.18,-0.178 -0.373,-0.309 -0.578,-0.393 -0.204,-0.084 -0.424,-0.108 -0.66,-0.069 -0.235,0.038 -0.491,0.157 -0.769,0.355 -0.317,0.226 -0.533,0.457 -0.647,0.693 -0.115,0.236 -0.155,0.484 -0.118,0.747 0.038,0.263 0.136,0.538 0.297,0.825 0.161,0.286 0.356,0.59 0.585,0.91 0.225,0.317 0.449,0.599 0.67,0.845 0.22,0.248 0.449,0.431 0.685,0.552 0.237,0.119 0.488,0.166 0.752,0.14 C -0.357,1.427 -0.067,1.301 0.25,1.075 0.551,0.86 0.753,0.641 0.857,0.419 0.961,0.197 1.002,-0.019 0.982,-0.231 0.959,-0.444 0.897,-0.645 0.794,-0.833 0.692,-1.022 0.585,-1.194 0.477,-1.347 l -0.845,0.604 C -0.15,-0.438 -0.027,-0.19 0,0" />
        </g>
        <g
           transform="translate(457.8745,478.511)"
           id="g64619">
          <path
             id="path64621"
             style="fill:#ffffff;fill-opacity:1;fill-rule:nonzero;stroke:none"
             d="m 0,0 c -0.065,-0.112 -0.118,-0.219 -0.158,-0.32 -0.04,-0.102 -0.06,-0.199 -0.061,-0.291 0,-0.091 0.022,-0.176 0.068,-0.256 0.045,-0.079 0.12,-0.15 0.223,-0.21 0.108,-0.063 0.207,-0.094 0.296,-0.094 0.089,0.001 0.174,0.024 0.253,0.07 0.08,0.046 0.154,0.111 0.223,0.195 0.069,0.085 0.136,0.184 0.202,0.295 L 2.855,2.488 3.752,1.965 1.941,-1.134 C 1.777,-1.416 1.601,-1.626 1.415,-1.765 1.227,-1.903 1.037,-1.987 0.841,-2.018 0.645,-2.049 0.451,-2.033 0.259,-1.97 c -0.192,0.061 -0.378,0.146 -0.561,0.252 -0.182,0.107 -0.349,0.226 -0.5,0.359 -0.151,0.132 -0.263,0.289 -0.337,0.468 -0.073,0.178 -0.094,0.384 -0.064,0.617 0.03,0.233 0.133,0.498 0.307,0.797 L 0.914,3.621 1.81,3.098 Z" />
        </g>
        <g
           transform="translate(461.8307,480.3835)"
           id="g64623">
          <path
             id="path64625"
             style="fill:#ffffff;fill-opacity:1;fill-rule:nonzero;stroke:none"
             d="m 0,0 0.938,-0.445 -1.841,-3.88 1.66,-0.788 -0.364,-0.768 -2.598,1.233 z" />
        </g>
        <g
           transform="translate(466.4117,477.475)"
           id="g64627">
          <path
             id="path64629"
             style="fill:#ffffff;fill-opacity:1;fill-rule:nonzero;stroke:none"
             d="M 0,0 -1.045,0.415 -2.631,-3.576 -3.595,-3.192 -2.01,0.799 -3.054,1.215 -2.74,2.004 0.314,0.79 Z" />
        </g>
        <g
           transform="translate(466.6345,474.5492)"
           id="g64631">
          <path
             id="path64633"
             style="fill:#ffffff;fill-opacity:1;fill-rule:nonzero;stroke:none"
             d="m 0,0 c -0.038,-0.123 -0.063,-0.24 -0.078,-0.349 -0.015,-0.107 -0.012,-0.207 0.009,-0.296 0.021,-0.088 0.063,-0.167 0.126,-0.233 0.062,-0.067 0.152,-0.116 0.266,-0.151 0.121,-0.036 0.224,-0.043 0.31,-0.021 0.087,0.021 0.164,0.064 0.23,0.127 0.067,0.062 0.123,0.143 0.171,0.242 0.047,0.098 0.088,0.21 0.125,0.334 L 2.188,3.091 3.182,2.793 2.154,-0.645 C 2.06,-0.957 1.939,-1.203 1.79,-1.382 1.642,-1.56 1.476,-1.687 1.292,-1.763 1.11,-1.838 0.918,-1.869 0.717,-1.853 c -0.201,0.015 -0.403,0.052 -0.606,0.112 -0.202,0.061 -0.393,0.138 -0.57,0.231 -0.178,0.094 -0.324,0.219 -0.437,0.376 -0.114,0.156 -0.183,0.351 -0.209,0.585 -0.025,0.233 0.012,0.515 0.111,0.847 L 0.034,3.736 1.028,3.438 Z" />
        </g>
        <g
           transform="translate(470.9754,474.812)"
           id="g64635">
          <path
             id="path64637"
             style="fill:#ffffff;fill-opacity:1;fill-rule:nonzero;stroke:none"
             d="M 0,0 C 0.245,-0.05 0.445,-0.029 0.6,0.06 0.755,0.149 0.86,0.33 0.914,0.604 1.008,1.07 0.818,1.35 0.347,1.444 L -0.133,1.54 -0.424,0.084 Z M 0.879,2.117 C 1.303,2.032 1.611,1.859 1.804,1.597 1.996,1.336 2.05,0.986 1.962,0.548 1.893,0.21 1.77,-0.054 1.591,-0.241 1.411,-0.428 1.172,-0.524 0.873,-0.527 L 0.87,-0.541 C 1.117,-0.63 1.286,-0.75 1.379,-0.9 1.471,-1.051 1.503,-1.271 1.475,-1.559 1.465,-1.655 1.452,-1.758 1.434,-1.87 1.417,-1.982 1.397,-2.106 1.375,-2.244 1.33,-2.515 1.303,-2.722 1.294,-2.867 c 0,-0.147 0.041,-0.255 0.125,-0.327 l -0.008,-0.042 -1.102,0.22 c -0.038,0.081 -0.054,0.169 -0.05,0.263 0.004,0.096 0.014,0.193 0.028,0.293 l 0.165,0.973 c 0.031,0.2 0.012,0.365 -0.055,0.497 -0.066,0.13 -0.206,0.217 -0.418,0.259 l -0.544,0.109 -0.426,-2.134 -1.018,0.204 1.008,5.044 z" />
        </g>
        <g
           transform="translate(476.2405,475.4727)"
           id="g64639">
          <path
             id="path64641"
             style="fill:#ffffff;fill-opacity:1;fill-rule:nonzero;stroke:none"
             d="m 0,0 -1.827,0.199 -0.131,-1.204 1.719,-0.186 -0.092,-0.846 -1.719,0.187 -0.149,-1.375 1.898,-0.207 -0.092,-0.845 -2.93,0.319 0.556,5.114 2.858,-0.311 z" />
        </g>
        <g
           transform="translate(479.3531,474.6486)"
           id="g64643">
          <path
             id="path64645"
             style="fill:#ffffff;fill-opacity:1;fill-rule:nonzero;stroke:none"
             d="M 0,0 0.126,-0.171 0.31,-0.008 C 0.423,0.091 0.504,0.187 0.552,0.283 0.6,0.378 0.624,0.471 0.621,0.561 0.618,0.701 0.574,0.807 0.488,0.88 0.403,0.952 0.292,0.986 0.158,0.984 0.033,0.982 -0.07,0.943 -0.152,0.869 -0.235,0.795 -0.275,0.69 -0.272,0.556 -0.269,0.412 -0.179,0.227 0,0 m -0.478,-1.718 c -0.071,-0.136 -0.106,-0.284 -0.102,-0.442 0.002,-0.078 0.02,-0.157 0.053,-0.237 0.033,-0.082 0.079,-0.154 0.142,-0.217 0.061,-0.063 0.138,-0.115 0.23,-0.153 0.092,-0.039 0.196,-0.057 0.31,-0.054 0.275,0.005 0.496,0.118 0.663,0.338 l -0.891,1.205 c -0.198,-0.158 -0.333,-0.305 -0.405,-0.44 m 2.001,0.303 c 0.03,0.15 0.045,0.28 0.041,0.39 l 0.894,0.02 C 2.464,-1.284 2.42,-1.552 2.328,-1.812 2.235,-2.07 2.115,-2.313 1.966,-2.536 L 2.664,-3.472 1.562,-3.497 1.265,-3.107 C 1.138,-3.263 0.967,-3.386 0.751,-3.472 0.534,-3.558 0.295,-3.604 0.037,-3.61 c -0.322,-0.007 -0.588,0.034 -0.796,0.123 -0.209,0.089 -0.372,0.206 -0.491,0.353 -0.118,0.147 -0.202,0.305 -0.248,0.478 -0.047,0.171 -0.073,0.329 -0.076,0.473 -0.006,0.302 0.08,0.578 0.259,0.824 0.18,0.246 0.429,0.475 0.746,0.683 l -0.186,0.263 c -0.074,0.104 -0.135,0.196 -0.183,0.277 -0.047,0.081 -0.084,0.156 -0.11,0.228 -0.025,0.071 -0.043,0.141 -0.054,0.208 -0.012,0.067 -0.017,0.136 -0.019,0.208 -0.004,0.169 0.025,0.319 0.087,0.453 0.061,0.133 0.149,0.249 0.262,0.345 0.114,0.096 0.25,0.171 0.41,0.225 0.159,0.053 0.336,0.083 0.528,0.087 C 0.386,1.623 0.578,1.6 0.741,1.548 0.902,1.496 1.038,1.422 1.146,1.326 1.252,1.23 1.334,1.118 1.387,0.989 1.44,0.861 1.468,0.721 1.472,0.573 1.478,0.314 1.41,0.079 1.267,-0.13 1.126,-0.34 0.906,-0.556 0.608,-0.78 l 0.794,-1.027 c 0.05,0.112 0.09,0.243 0.121,0.392" />
        </g>
        <g
           transform="translate(484.6799,472.9722)"
           id="g64647">
          <path
             id="path64649"
             style="fill:#ffffff;fill-opacity:1;fill-rule:nonzero;stroke:none"
             d="m 0,0 c 0.018,-0.118 0.046,-0.225 0.08,-0.319 0.034,-0.095 0.082,-0.17 0.145,-0.229 0.062,-0.058 0.141,-0.1 0.235,-0.123 0.093,-0.024 0.207,-0.026 0.34,-0.005 0.156,0.025 0.29,0.098 0.399,0.22 0.11,0.122 0.148,0.29 0.114,0.504 C 1.295,0.161 1.263,0.257 1.219,0.335 1.176,0.414 1.113,0.48 1.031,0.536 0.95,0.59 0.846,0.637 0.721,0.673 0.596,0.709 0.444,0.742 0.264,0.772 c -0.24,0.04 -0.449,0.091 -0.63,0.155 -0.181,0.063 -0.336,0.147 -0.467,0.251 -0.13,0.103 -0.234,0.23 -0.312,0.381 -0.077,0.15 -0.132,0.33 -0.166,0.539 -0.079,0.502 10e-4,0.9 0.243,1.191 0.241,0.291 0.605,0.475 1.094,0.552 C 0.253,3.878 0.468,3.886 0.668,3.866 0.868,3.848 1.046,3.793 1.204,3.704 1.362,3.615 1.493,3.489 1.599,3.328 1.705,3.167 1.777,2.966 1.816,2.724 L 1.838,2.582 0.855,2.426 C 0.817,2.668 0.745,2.848 0.639,2.965 0.533,3.082 0.38,3.124 0.182,3.093 0.067,3.075 -0.025,3.043 -0.095,2.998 -0.167,2.953 -0.219,2.899 -0.256,2.837 -0.293,2.776 -0.314,2.709 -0.319,2.634 -0.324,2.56 -0.321,2.485 -0.309,2.41 -0.283,2.253 -0.23,2.126 -0.147,2.03 -0.063,1.934 0.094,1.858 0.327,1.803 L 1.171,1.586 C 1.379,1.532 1.552,1.468 1.69,1.395 1.828,1.322 1.942,1.238 2.033,1.143 2.123,1.048 2.193,0.938 2.242,0.815 2.291,0.691 2.327,0.551 2.352,0.395 2.437,-0.142 2.343,-0.556 2.071,-0.85 1.799,-1.144 1.385,-1.335 0.83,-1.422 c -0.579,-0.092 -1.013,-0.032 -1.301,0.18 -0.289,0.212 -0.471,0.553 -0.545,1.023 l -0.033,0.206 1.025,0.163 z" />
        </g>
        <g
           transform="translate(489.5165,476.8823)"
           id="g64651">
          <path
             id="path64653"
             style="fill:#ffffff;fill-opacity:1;fill-rule:nonzero;stroke:none"
             d="m 0,0 -1.784,-0.442 0.292,-1.175 1.678,0.415 0.204,-0.824 -1.678,-0.416 0.332,-1.343 1.853,0.458 0.204,-0.825 -2.861,-0.707 -1.235,4.994 2.791,0.69 z" />
        </g>
        <g
           transform="translate(491.5728,476.0942)"
           id="g64655">
          <path
             id="path64657"
             style="fill:#ffffff;fill-opacity:1;fill-rule:nonzero;stroke:none"
             d="M 0,0 C 0.236,0.082 0.399,0.199 0.487,0.355 0.576,0.51 0.576,0.719 0.484,0.983 0.33,1.432 0.025,1.579 -0.429,1.422 L -0.892,1.263 -0.409,-0.141 Z M -0.31,2.271 C 0.099,2.412 0.452,2.419 0.751,2.29 1.05,2.161 1.271,1.885 1.417,1.464 1.529,1.137 1.555,0.847 1.495,0.595 1.434,0.343 1.275,0.139 1.018,-0.015 L 1.023,-0.028 C 1.282,0.019 1.488,0.002 1.644,-0.082 1.799,-0.165 1.938,-0.339 2.058,-0.601 2.099,-0.689 2.14,-0.785 2.182,-0.89 2.223,-0.996 2.268,-1.114 2.319,-1.244 2.417,-1.5 2.498,-1.693 2.564,-1.822 2.637,-1.95 2.729,-2.022 2.837,-2.041 L 2.851,-2.082 1.788,-2.448 c -0.073,0.051 -0.132,0.119 -0.176,0.202 -0.044,0.084 -0.085,0.173 -0.123,0.267 l -0.348,0.925 c -0.075,0.187 -0.175,0.32 -0.298,0.4 -0.125,0.078 -0.288,0.083 -0.492,0.013 l -0.526,-0.18 0.709,-2.059 -0.981,-0.338 -1.675,4.866 z" />
        </g>
        <g
           transform="translate(495.7144,476.0559)"
           id="g64659">
          <path
             id="path64661"
             style="fill:#ffffff;fill-opacity:1;fill-rule:nonzero;stroke:none"
             d="M 0,0 0.02,0.01 -0.849,3.791 0.13,4.233 1.169,-0.943 -0.046,-1.491 -3.239,2.712 -2.227,3.169 Z" />
        </g>
        <g
           transform="translate(495.9215,480.3765)"
           id="g64663">
          <path
             id="path64665"
             style="fill:#ffffff;fill-opacity:1;fill-rule:nonzero;stroke:none"
             d="M 0,0 0.915,0.489 3.34,-4.049 2.424,-4.537 Z" />
        </g>
        <g
           transform="translate(499.4384,481.3491)"
           id="g64667">
          <path
             id="path64669"
             style="fill:#ffffff;fill-opacity:1;fill-rule:nonzero;stroke:none"
             d="m 0,0 c -0.165,0.098 -0.348,0.084 -0.548,-0.041 -0.109,-0.068 -0.182,-0.154 -0.217,-0.258 -0.034,-0.104 -0.03,-0.234 0.012,-0.392 0.041,-0.158 0.121,-0.349 0.238,-0.573 0.118,-0.224 0.273,-0.491 0.466,-0.801 0.206,-0.33 0.384,-0.589 0.533,-0.78 0.151,-0.189 0.284,-0.326 0.4,-0.408 0.118,-0.083 0.224,-0.122 0.319,-0.116 0.096,0.006 0.19,0.038 0.284,0.097 0.077,0.049 0.141,0.106 0.192,0.175 0.05,0.068 0.075,0.158 0.074,0.268 0,0.11 -0.031,0.245 -0.092,0.409 -0.063,0.162 -0.167,0.362 -0.314,0.598 l 0.88,0.549 C 2.374,-1.51 2.496,-1.745 2.591,-1.98 2.686,-2.215 2.734,-2.443 2.733,-2.664 2.733,-2.885 2.67,-3.097 2.545,-3.3 2.419,-3.503 2.212,-3.694 1.922,-3.875 1.592,-4.082 1.296,-4.192 1.035,-4.209 0.773,-4.224 0.528,-4.165 0.299,-4.03 c -0.228,0.134 -0.445,0.331 -0.648,0.589 -0.203,0.258 -0.409,0.554 -0.618,0.889 -0.206,0.329 -0.381,0.643 -0.525,0.941 -0.143,0.298 -0.225,0.58 -0.246,0.845 -0.02,0.264 0.032,0.514 0.157,0.748 0.126,0.234 0.354,0.454 0.684,0.66 0.313,0.196 0.593,0.3 0.838,0.311 C 0.186,0.964 0.402,0.919 0.589,0.818 0.777,0.717 0.939,0.584 1.074,0.416 1.211,0.249 1.327,0.085 1.427,-0.074 L 0.547,-0.623 C 0.348,-0.305 0.166,-0.098 0,0" />
        </g>
        <g
           transform="translate(502.9208,483.9269)"
           id="g64671">
          <path
             id="path64673"
             style="fill:#ffffff;fill-opacity:1;fill-rule:nonzero;stroke:none"
             d="m 0,0 -1.468,-1.105 0.728,-0.967 1.382,1.04 0.511,-0.68 -1.381,-1.04 0.832,-1.105 1.525,1.148 0.511,-0.678 -2.355,-1.773 -3.094,4.11 2.298,1.73 z" />
        </g>
        <g
           transform="translate(451.3483,517.4595)"
           id="g64675">
          <path
             id="path64677"
             style="fill:#6c232b;fill-opacity:1;fill-rule:nonzero;stroke:none"
             d="m 0,0 c 0.55,3.218 2.957,3.66 3.841,3.624 0.222,0 0.361,-0.02 0.378,-0.021 L 4.101,2.812 C 4.099,2.809 4.015,2.825 3.841,2.825 3.106,2.79 1.307,2.642 0.789,-0.142 0.728,-0.482 0.697,-0.837 0.699,-1.203 0.669,-4.838 3.666,-9.556 5.953,-11.012 l -0.439,-0.669 c -2.565,1.696 -5.588,6.438 -5.616,10.478 0,0.41 0.033,0.812 0.102,1.203 m 16.14,13.577 c 0,6.455 5.232,11.688 11.687,11.688 6.455,0 11.687,-5.233 11.687,-11.688 0,-5.153 -3.338,-9.518 -7.968,-11.073 -0.091,0.287 -0.171,0.578 -0.232,0.872 4.246,1.451 7.302,5.465 7.302,10.201 0,4.782 -3.117,8.82 -7.426,10.232 1.275,-2.427 4.255,-9.066 1.14,-13.132 -0.143,-0.187 -0.302,-0.361 -0.476,-0.52 h -0.901 c 0.174,0.159 0.333,0.333 0.476,0.52 3.238,4.227 -0.118,11.252 -1.289,13.416 -0.199,0.043 -0.395,0.091 -0.597,0.124 1.067,-1.928 4.719,-9.239 1.386,-13.59 -0.819,-1.068 -2.161,-1.691 -3.613,-1.691 -2.598,0 -4.704,2.106 -4.704,4.703 0,0 -0.15,2.153 3.053,3.854 3.041,1.615 3.553,4.537 3.383,6.799 -0.401,0.045 -0.807,0.073 -1.221,0.073 -5.959,0 -10.789,-4.83 -10.789,-10.788 0,-4.736 3.057,-8.749 7.301,-10.201 L 24.332,3.311 C 24.273,3.038 24.201,2.769 24.115,2.502 19.482,4.055 16.14,8.423 16.14,13.577 M 33.294,-2.112 c 1.627,-1.598 4.09,-3.178 7.551,-3.179 0.365,0.001 0.741,0.018 1.131,0.055 7.869,0.8 9.048,3.471 9.182,5.338 v 0.072 c 0.015,0.524 -0.446,1.2 -0.964,1.706 -0.509,0.508 -1.019,0.846 -1.02,0.846 l 0.442,0.668 c 0.007,-0.049 2.27,-1.391 2.342,-3.22 0,-0.027 0.001,-0.058 0,-0.105 -0.107,-2.324 -1.911,-5.373 -9.905,-6.102 -0.416,-0.04 -0.818,-0.057 -1.208,-0.057 -7.457,0.021 -10.623,6.785 -10.643,6.816 l 0.725,0.342 c 0.01,0.005 0.744,-1.584 2.367,-3.18 m -5.475,-17.744 0.004,0.005 0.004,-0.005 c 15.657,0 28.348,8.45 28.348,18.872 0,0 0.445,3.52 -2.613,5.197 -3.058,1.676 -6.067,-2.072 -6.067,-2.072 2.49,-0.16 3.791,-1.828 2.417,-3.797 -1.067,-1.531 -4.931,-2.972 -8.072,-2.972 -4.405,0 -8.31,2.623 -9.917,6.171 1.813,0.616 3.438,1.634 4.78,2.941 l 3.543,-3.614 0.777,0.764 -3.57,3.641 c 1.927,2.227 3.096,5.126 3.096,8.302 0,0.01 -0.002,0.019 -0.002,0.03 h 11.248 v 1.09 H 40.492 c -0.266,3.043 -1.611,5.769 -3.638,7.82 l 4.145,4.195 -0.077,-0.077 c -0.364,0.153 -0.734,0.293 -1.104,0.435 l -3.764,-3.81 c -2.218,1.888 -5.084,3.038 -8.227,3.038 -3.231,0 -6.174,-1.212 -8.417,-3.198 l -3.847,3.894 c -0.368,-0.143 -0.735,-0.287 -1.096,-0.443 l -0.041,0.042 4.201,-4.252 C 16.696,20.312 15.422,17.652 15.162,14.697 H 3.857 v -1.09 h 11.251 c 0,-0.011 -0.002,-0.02 -0.002,-0.03 0,-3.13 1.134,-5.992 3.011,-8.206 l -3.76,-3.835 0.776,-0.765 3.725,3.8 c 1.36,-1.352 3.022,-2.4 4.878,-3.031 -1.608,-3.547 -5.523,-6.168 -9.929,-6.168 -3.141,0 -7.16,1.561 -8.072,2.972 -0.912,1.409 -1.037,3.311 2.417,3.797 0,0 -3.01,3.748 -6.067,2.072 -3.059,-1.677 -2.613,-5.197 -2.613,-5.197 0,-10.422 12.69,-18.872 28.347,-18.872 m 8.062,-0.594 c 0,0.094 -0.015,0.188 -0.032,0.281 -2.239,-0.462 -5.032,-0.74 -8.074,-0.74 -3.04,0 -5.835,0.278 -8.073,0.74 -0.016,-0.093 -0.032,-0.187 -0.032,-0.281 0,-1.97 3.629,-3.566 8.105,-3.566 4.478,0 8.106,1.596 8.106,3.566 m -16.598,-9.179 c 2.99,1.226 5.792,4.316 5.792,4.316 l 0.648,-0.455 c 0,0 -0.887,-1.653 -4.002,-3.474 h 1.247 v -0.984 h -4.219 c -0.279,0.347 0.534,0.597 0.534,0.597 m 8.432,-1.127 0.02,0.045 0.02,-0.045 h 12.774 c -7.349,2.12 -9.863,6.165 -9.863,6.165 -0.989,-0.223 -2.615,-0.162 -2.9,-0.149 l -0.002,0.003 c 0,0 -0.022,-0.002 -0.029,-0.002 -0.007,0 -0.029,0.002 -0.029,0.002 l -0.001,-0.003 c -0.286,-0.013 -1.912,-0.074 -2.901,0.149 0,0 -2.514,-4.045 -9.864,-6.165 z" />
        </g>
        <g
           transform="translate(507.2171,494.2733)"
           id="g64679">
          <path
             id="path64681"
             style="fill:#0d6c49;fill-opacity:1;fill-rule:nonzero;stroke:none"
             d="m 0,0 c -0.251,-0.042 -1.255,0.606 -2.049,1.635 l -22.57,28.166 c -0.746,0.911 -1.175,1.888 -1.157,2.267 -0.002,0.058 0.007,0.095 0.013,0.107 l -0.002,0.001 1.159,0.925 c 0.004,10e-4 0.011,0.002 0.022,0.002 0.248,0.043 1.252,-0.603 2.047,-1.635 L 0.034,3.301 C 0.777,2.391 1.207,1.415 1.189,1.037 1.187,0.926 1.17,0.934 1.178,0.926 L 1.057,0.829 -24.37,32.102 -25.02,31.577 0.406,0.306 0.028,0.002 C 0.023,0.002 0.014,0 0,0 m 0.598,3.755 -22.569,28.167 c -0.913,1.097 -1.814,1.862 -2.613,1.905 -0.157,0 -0.335,-0.043 -0.476,-0.158 l -1.159,-0.928 c -0.223,-0.175 -0.285,-0.443 -0.283,-0.673 0.017,-0.736 0.521,-1.709 1.317,-2.719 L -2.613,1.183 C -1.705,0.085 -0.802,-0.682 0,-0.724 h 0.01 c 0.149,0 0.32,0.04 0.459,0.151 L 1.633,0.361 C 1.851,0.543 1.917,0.802 1.915,1.037 1.898,1.772 1.394,2.745 0.598,3.755" />
        </g>
        <g
           transform="translate(507.2171,494.2733)"
           id="g64683">
          <path
             id="path64685"
             style="fill:#ffffff;fill-opacity:1;fill-rule:nonzero;stroke:none"
             d="m 0,0 c -0.251,-0.042 -1.255,0.606 -2.049,1.635 l -22.57,28.166 c -0.746,0.911 -1.175,1.888 -1.157,2.267 -0.002,0.058 0.007,0.095 0.013,0.107 l -0.002,0.001 1.159,0.925 c 0.004,10e-4 0.011,0.002 0.022,0.002 0.248,0.043 1.252,-0.603 2.047,-1.635 L 0.034,3.301 C 0.777,2.391 1.207,1.415 1.189,1.037 1.187,0.926 1.17,0.934 1.178,0.926 L 1.057,0.829 -24.37,32.102 -25.02,31.577 0.406,0.306 0.028,0.002 C 0.023,0.002 0.014,0 0,0" />
        </g>
      </g>
    </g>
  </g>
</svg>
