<?xml version="1.0" encoding="UTF-8" standalone="no"?>
<svg
   xmlns:dc="http://purl.org/dc/elements/1.1/"
   xmlns:cc="http://creativecommons.org/ns#"
   xmlns:rdf="http://www.w3.org/1999/02/22-rdf-syntax-ns#"
   xmlns:svg="http://www.w3.org/2000/svg"
   xmlns="http://www.w3.org/2000/svg"
   xmlns:sodipodi="http://sodipodi.sourceforge.net/DTD/sodipodi-0.dtd"
   xmlns:inkscape="http://www.inkscape.org/namespaces/inkscape"
   version="1.1"
   id="Layer_1"
   width="131.3"
   height="123"
   x="0px"
   y="0px"
   viewBox="0 0 131.3 122.99999"
   enable-background="new 0 0 200.6 256.2"
   xml:space="preserve"
   sodipodi:docname="ruyton-girls-school.svg"
   inkscape:version="1.0.1 (3bc2e813f5, 2020-09-07)"><metadata
   id="metadata71"><rdf:RDF><cc:Work
       rdf:about=""><dc:format>image/svg+xml</dc:format><dc:type
         rdf:resource="http://purl.org/dc/dcmitype/StillImage" /><dc:title></dc:title></cc:Work></rdf:RDF></metadata><defs
   id="defs69" /><sodipodi:namedview
   pagecolor="#ffffff"
   bordercolor="#666666"
   borderopacity="1"
   objecttolerance="10"
   gridtolerance="10"
   guidetolerance="10"
   inkscape:pageopacity="0"
   inkscape:pageshadow="2"
   inkscape:window-width="1920"
   inkscape:window-height="1000"
   id="namedview67"
   showgrid="false"
   inkscape:zoom="1.8423106"
   inkscape:cx="167.24421"
   inkscape:cy="128.38535"
   inkscape:window-x="1920"
   inkscape:window-y="0"
   inkscape:window-maximized="1"
   inkscape:current-layer="Layer_1"
   inkscape:document-rotation="0"
   inkscape:pagecheckerboard="true" />


<path
   fill="#ffffff"
   d="m 22.1,99.1 1.8,-1.3 c 0.9,-0.7 1.6,-0.1 1.8,0.2 0.3,0.4 0.3,0.9 0.1,1.2 0.4,-0.1 0.6,-0.1 1.1,0.6 0.4,0.5 0.5,0.6 0.7,0.6 l 0.1,0.1 -0.8,0.6 c -0.2,-0.1 -0.3,-0.3 -0.6,-0.7 -0.4,-0.5 -0.5,-0.6 -1.1,-0.2 l -0.8,0.6 1,1.4 -0.7,0.5 z m 2.7,0.4 c 0.4,-0.3 0.5,-0.6 0.2,-0.9 -0.1,-0.2 -0.4,-0.4 -0.9,-0.1 l -0.9,0.7 0.7,0.9 z"
   id="path6" />
<polygon
   fill="#ffffff"
   points="62.2,139 64.1,138.1 64.5,138.8 62.6,139.7 63.1,140.7 65.2,139.7 65.6,140.4 62.6,141.8 60.7,137.9 63.6,136.5 63.9,137.2 61.8,138.2 "
   id="polygon8"
   transform="translate(-34.4,-41.7)" />
<path
   fill="#ffffff"
   d="m 33.6,94.9 c -0.1,-0.2 -0.4,-0.7 -1.1,-0.5 -0.4,0.1 -1,0.6 -0.6,1.8 0.2,0.8 0.7,1.4 1.4,1.1 0.5,-0.1 0.7,-0.5 0.7,-1.1 L 34.9,96 c 0.1,1 -0.3,1.8 -1.4,2.1 -1.1,0.3 -2.1,-0.2 -2.5,-1.7 -0.4,-1.5 0.2,-2.5 1.3,-2.8 1.3,-0.4 2,0.4 2.2,1 z"
   id="path10" />
<polygon
   fill="#ffffff"
   points="70.6,135.5 69.2,135.6 69.2,134.9 72.7,134.5 72.8,135.2 71.5,135.4 71.9,139 70.9,139.1 "
   id="polygon12"
   transform="translate(-34.4,-41.7)" />
<polygon
   fill="#ffffff"
   points="74.6,136.2 76.7,136.3 76.6,137.1 74.5,137 74.5,138.1 76.9,138.2 76.8,139 73.5,138.8 73.8,134.5 77,134.6 76.9,135.4 74.6,135.3 "
   id="polygon14"
   transform="translate(-34.4,-41.7)" />
<polygon
   fill="#ffffff"
   points="87.5,142.8 89.6,142.6 89.7,143.4 87.6,143.6 87.7,144.7 90.1,144.4 90.2,145.2 86.9,145.6 86.4,141.3 89.6,140.9 89.7,141.7 87.4,141.9 "
   id="polygon16"
   transform="translate(-34.4,-41.7)" />
<polygon
   fill="#ffffff"
   points="91.5,140.9 90.3,141.5 90,140.8 93.2,139.3 93.5,140 92.3,140.6 93.8,143.8 93,144.2 "
   id="polygon18"
   transform="translate(-34.4,-41.7)" />
<polygon
   fill="#ffffff"
   points="105.2,138 107.6,139.9 107.1,140.5 105.4,139.2 104.8,140 106.3,141.1 105.8,141.8 104.3,140.6 103.2,142 102.5,141.5 "
   id="polygon20"
   transform="translate(-34.4,-41.7)" />
<polygon
   fill="#ffffff"
   points="108.1,140 109,140.4 107.3,144.4 106.4,144.1 "
   id="polygon22"
   transform="translate(-34.4,-41.7)" />
<path
   fill="#ffffff"
   d="m 75.3,99.1 1.9,0.3 c 1.5,0.2 1.6,1.5 1.5,2.3 -0.1,0.9 -0.7,2.2 -2.1,2 l -1.9,-0.3 z m 0.4,3.7 0.9,0.1 c 0.7,0.1 1.1,-0.6 1.2,-1.3 0.2,-1.3 -0.4,-1.5 -0.8,-1.5 L 76.1,100 Z"
   id="path24" />
<polygon
   fill="#ffffff"
   points="114.8,142.8 116.9,142.5 117,143.3 114.9,143.5 115.1,144.7 117.5,144.4 117.6,145.1 114.3,145.5 113.7,141.2 116.9,140.8 117,141.6 114.7,141.9 "
   id="polygon26"
   transform="translate(-34.4,-41.7)" />
<polygon
   fill="#ffffff"
   points="125.6,138.9 122.6,139.4 121.9,135.1 122.8,134.9 123.3,138.4 125.5,138.1 "
   id="polygon28"
   transform="translate(-34.4,-41.7)" />
<rect
   x="-94.873528"
   y="94.362328"
   transform="rotate(-88.522564)"
   fill="#ffffff"
   width="4.4001427"
   height="0.90002918"
   id="rect30"
   style="stroke-width:1.00003" />
<polygon
   fill="#ffffff"
   points="129.3,135.6 128,135.4 128.2,134.6 131.7,135.2 131.5,135.9 130.2,135.7 129.7,139.3 128.8,139.1 "
   id="polygon32"
   transform="translate(-34.4,-41.7)" />
<polygon
   fill="#ffffff"
   points="132.8,137.3 134.8,137.9 134.6,138.7 132.5,138 132.2,139.1 134.5,139.8 134.2,140.6 131.1,139.5 132.5,135.4 135.5,136.4 135.3,137.1 133.1,136.4 "
   id="polygon34"
   transform="translate(-34.4,-41.7)" />
<path
   fill="#ffffff"
   d="m 102.4,95.2 2,1 c 1,0.5 0.8,1.4 0.7,1.7 -0.2,0.4 -0.6,0.7 -1.1,0.6 0.3,0.3 0.4,0.5 0,1.2 -0.3,0.6 -0.4,0.7 -0.2,0.9 l -0.1,0.1 -0.9,-0.5 c 0,-0.2 0.1,-0.4 0.3,-0.8 0.3,-0.5 0.3,-0.8 -0.3,-1.1 l -0.8,-0.4 -0.8,1.5 -0.8,-0.4 z m 0.9,2.6 c 0.4,0.2 0.7,0.2 0.9,-0.2 0.1,-0.2 0.2,-0.6 -0.3,-0.8 l -1,-0.5 -0.5,1 z"
   id="path36" />
<path
   fill="#ffffff"
   d="m 122.7,113.7 c -0.1,0 -0.2,0 -0.3,0.1 -0.1,0.1 -0.2,0.2 -0.2,0.3 0,0 -0.3,5.3 -0.4,7.3 -1.2,-1.9 -4,-5.9 -7.1,-8.8 -3.6,-3.3 -6.2,-3.8 -7.5,-3.9 l 7.9,-5.4 c 0.2,-0.1 1.4,-0.8 6.5,3.3 4.1,3.3 7.3,7 8.6,8.7 -1.7,-0.4 -7.5,-1.6 -7.5,-1.6 m -8.1,-11.2 -7.8,5.3 c 0,-0.1 0,-0.1 0,-0.2 0,-0.4 -0.1,-0.8 -0.3,-1.2 -0.9,-2 -3.9,-4 -8,-5.3 -3.9,-1.3 -10.4,-2.2 -11.8,0.5 l -4.1,-7.2 c -0.2,-0.6 0.1,-1 0.4,-1.3 1.6,-1.9 7.8,-4.2 17.3,-1.8 8.1,2 13.6,6.9 14.5,9.7 0.1,0.3 0.1,0.5 0.1,0.8 0,0.1 -0.1,0.5 -0.3,0.7 m -27.1,2 c -0.3,0.4 -3.9,1.6 -8.5,1.5 -3.9,-0.1 -9.1,-1.2 -12.4,-5.9 0,0 -0.3,-0.4 -0.3,-0.4 -0.1,-0.1 -0.2,-0.2 -0.3,-0.2 -0.1,0 -0.3,0.1 -0.3,0.2 0,0 -0.3,0.4 -0.3,0.4 -3.3,4.7 -8.6,5.8 -12.4,5.9 -4.6,0.1 -8.2,-1.1 -8.6,-1.6 -0.1,-0.3 0,-0.4 0.4,-0.7 0.2,-0.1 0.4,-0.3 0.5,-0.6 v 0 -0.1 c 0,0 0,0 0,0 l 4.1,-7.3 c 0.7,0.9 2.2,1.1 3.4,0.9 3.1,-0.4 3.4,-2.6 3.4,-2.7 0,0 0,0 0,0 0,-0.1 -0.1,-0.3 -0.2,-0.3 C 55.8,93.4 35.1,78.4 35.1,49.5 35.1,13 64.2,1.4 65.8,0.8 c 1.6,0.6 30.7,12.1 30.7,48.7 0,29 -20.7,44 -20.9,44.1 -0.1,0.1 -0.2,0.2 -0.2,0.3 v 0 c 0,0.1 0.2,2.3 3.4,2.7 1.4,0.2 2.7,-0.3 3.3,-1 l 4.2,7.3 c 0.2,0.3 0.4,0.5 0.6,0.7 0.7,0.5 0.7,0.7 0.6,0.9 m -54.2,-3.4 c -4.1,1.3 -7.1,3.3 -8,5.3 -0.2,0.4 -0.3,0.8 -0.3,1.3 0,0.1 0,0.1 0,0.2 l -7.8,-5.3 c -0.1,0 -0.1,-0.1 -0.2,-0.1 -0.2,-0.2 -0.2,-0.5 -0.2,-0.8 0,-0.2 0.1,-0.4 0.2,-0.7 0.9,-2.8 6.5,-7.8 14.5,-9.7 9.5,-2.3 15.7,-0.1 17.3,1.8 0.3,0.3 0.6,0.8 0.4,1.3 0,0 -4.1,7.3 -4.1,7.3 -1.4,-2.8 -7.9,-1.8 -11.8,-0.6 m -9.2,8 c -1.7,0.5 -4.8,1.5 -8.5,4.9 -3,2.7 -4.7,5.5 -5.6,7.1 C 9.9,119 9.6,114 9.6,114 c 0,-0.1 -0.1,-0.2 -0.2,-0.3 -0.1,-0.1 -0.2,-0.1 -0.3,-0.1 0,0 -5.8,1.2 -7.5,1.6 1,-1.3 3.3,-4 7.2,-7.2 4.5,-3.6 6.9,-4.4 7.9,-4.7 0.1,0 0.1,0 0.2,0 l 8.1,5.5 c -0.3,0.1 -0.6,0.2 -0.9,0.3 m -7.8,-6.6 c -1,0.3 -3.6,1.2 -8.2,4.9 -5.5,4.5 -7.9,8.1 -8,8.2 0,0.1 -0.1,0.2 -0.1,0.2 0,0.1 0,0.2 0.1,0.2 0.1,0.1 0.3,0.2 0.4,0.2 0,0 7.2,-1.5 8.1,-1.7 0,0.9 0.4,8.1 0.4,8.1 0,0.2 0.2,0.4 0.3,0.4 0.2,0 0.4,-0.1 0.5,-0.2 0,0 2,-4.4 6.2,-8.2 3.5,-3.3 6.6,-4.2 8.2,-4.7 0.5,-0.2 0.9,-0.3 1.1,-0.4 0.3,-0.1 0.4,-0.3 0.5,-0.5 0,0 0.1,-0.1 0.1,-0.3 0,-0.2 -0.1,-0.4 -0.1,-0.4 -0.2,-0.5 -0.2,-1 0.1,-1.6 0.8,-1.7 3.7,-3.6 7.5,-4.8 4.7,-1.5 10.2,-1.8 10.9,0.3 0.1,0.2 0.1,0.3 0,0.5 v 0 c -0.1,0.1 -0.2,0.2 -0.4,0.4 -0.4,0.3 -0.9,0.8 -0.7,1.7 0.2,0.9 3.1,1.5 4.7,1.8 2.9,0.5 12.5,1.4 17.7,-5.8 5.2,7.3 14.9,6.3 17.7,5.8 1.6,-0.3 4.4,-1 4.7,-1.8 0.3,-0.9 -0.3,-1.3 -0.7,-1.7 -0.4,-0.3 -0.5,-0.5 -0.4,-0.9 0.7,-2 6.2,-1.8 10.9,-0.3 3.8,1.2 6.7,3.1 7.5,4.8 0.3,0.6 0.3,1.1 0.1,1.6 0,0.1 -0.2,0.4 0,0.7 0.2,0.3 0.5,0.3 1,0.3 1.1,0.1 3.6,0.2 7.4,3.7 4.2,3.9 7.7,9.7 7.7,9.8 0.1,0.2 0.3,0.2 0.5,0.2 0.2,0 0.3,-0.2 0.3,-0.4 0,0 0.4,-7.2 0.4,-8.1 0.9,0.2 8.1,1.7 8.1,1.7 0.2,0 0.4,0 0.4,-0.2 0,-0.1 0.1,-0.1 0.1,-0.2 0,-0.1 0,-0.2 -0.1,-0.3 0,0 -4,-5.3 -9.5,-9.7 -3.7,-3 -5.6,-3.6 -6.6,-3.7 0,0 0.2,-0.1 0.2,-0.6 0,-0.3 0,-0.6 -0.2,-1 C 114,97 107.9,92.1 100,90.2 90,87.8 83.6,90.1 81.8,92.3 81.2,93 81,93.8 81.3,94.5 c 0.1,0.2 0.1,0.4 -0.1,0.6 -0.4,0.5 -1.6,0.8 -2.6,0.7 C 76.6,95.5 76.1,94.5 76,94.1 78.2,92.4 97,77.3 97,49.5 97,11.5 65.9,0.1 65.5,0 65.4,0 65.3,0 65.2,0 64.9,0.1 33.7,11.6 33.7,49.5 c 0,27.8 18.8,43 21,44.6 -0.1,0.4 -0.6,1.5 -2.6,1.7 -1.1,0.1 -2.2,-0.1 -2.6,-0.6 -0.1,-0.1 -0.2,-0.3 0,-0.7 0.3,-0.7 0.1,-1.5 -0.5,-2.2 -1.8,-2.2 -8.2,-4.5 -18.2,-2.1 -7.9,1.9 -14,6.8 -15.1,10.3 -0.1,0.4 -0.2,0.7 -0.2,1 0.5,0.5 0.6,0.8 0.8,1"
   id="path38" />
<polygon
   fill="#ffffff"
   points="97.1,111 97.1,98.2 95.2,99.3 95.2,111.8 95.5,112 "
   id="polygon40"
   transform="translate(-34.4,-41.7)" />
<polygon
   fill="#ffffff"
   points="97.1,74.1 95.2,75 95.2,97.9 97.1,96.8 "
   id="polygon42"
   transform="translate(-34.4,-41.7)" />
<polygon
   fill="#ffffff"
   points="94.5,75.3 92.3,76.4 92.3,99.3 94.5,98.2 "
   id="polygon44"
   transform="translate(-34.4,-41.7)" />
<polygon
   fill="#ffffff"
   points="94.5,99.7 92.3,100.9 92.3,109.2 94.5,111.6 "
   id="polygon46"
   transform="translate(-34.4,-41.7)" />
<path
   fill="#ffffff"
   d="m 72.7,70.2 c -1.3,-4 -2.1,-15.1 -5.7,-15.6 -0.9,-0.1 -1.9,0.5 -1.9,0.5 l -1.6,1 V 69 L 66,67.4 66.3,68 c 0,0 -7.1,4.9 -7.8,5.3 -1.3,0.8 -2.3,-0.1 -2.4,-0.2 -0.4,-0.5 -2.5,-4.3 -2.5,-4.3 -0.4,-0.7 -0.8,-0.7 -1.3,-0.5 -0.4,0.2 -0.8,0.2 -0.8,0.2 l -0.2,-0.8 c 0.7,-0.1 1.2,-0.2 1.6,-0.6 0.4,-0.4 0.3,-0.8 0.3,-0.8 V 33.5 c 0,-2.1 -2.4,-1.9 -2.4,-1.9 v -0.7 l 5.6,-3.5 1.4,2 v 4.5 l 2.1,-1.2 v -8.6 l 1.7,-0.8 v 0.6 l -0.8,0.4 v 7.9 l 8.8,-5.1 h 2.8 c 4.2,3.1 6,8.4 4.8,13.7 -1.4,6.4 -8.9,12.5 -8.9,12.5 6.9,0.6 5,11.9 7.5,14.5 0.7,0.7 1.9,0.4 3,0.1 1.5,-0.4 2,-0.8 2,-0.8 l 0.3,0.8 c 0,0 -3.7,2.8 -4.8,3.4 -1,0.7 -3.1,0.3 -3.6,-1.1 M 65.9,10.7 c 0,0 -21.3,8.6 -21.3,38.8 0,30.3 21.3,40.6 21.3,40.6 0,0 21.3,-10.4 21.3,-40.6 0,-30.2 -21.3,-38.8 -21.3,-38.8"
   id="path48" />
<path
   fill="#ffffff"
   d="m 72.1,39.7 c 0,0 0.4,-6.3 -4.1,-9.9 L 63.5,32 v 22.6 c 0,0 8.9,-4.2 8.6,-14.9"
   id="path50" />
<g
   id="g64"
   transform="translate(-34.4,-41.7)">
	
	
	
	
	
	
</g>
</svg>
