<?xml version="1.0" encoding="UTF-8" standalone="no"?>
<svg
   xmlns:dc="http://purl.org/dc/elements/1.1/"
   xmlns:cc="http://creativecommons.org/ns#"
   xmlns:rdf="http://www.w3.org/1999/02/22-rdf-syntax-ns#"
   xmlns:svg="http://www.w3.org/2000/svg"
   xmlns="http://www.w3.org/2000/svg"
   xmlns:sodipodi="http://sodipodi.sourceforge.net/DTD/sodipodi-0.dtd"
   xmlns:inkscape="http://www.inkscape.org/namespaces/inkscape"
   width="27.586163mm"
   height="28.711912mm"
   viewBox="0 0 27.586163 28.711912"
   version="1.1"
   id="svg67976"
   inkscape:version="1.0.1 (3bc2e813f5, 2020-09-07)"
   sodipodi:docname="salesian-college.svg">
  <defs
     id="defs67970">
    <clipPath
       id="clipPath195017"
       clipPathUnits="userSpaceOnUse">
      <path
         inkscape:connector-curvature="0"
         id="path195015"
         d="M 43.625,654.17 H 148.436 V 788.119 H 43.625 Z" />
    </clipPath>
  </defs>
  <sodipodi:namedview
     id="base"
     pagecolor="#ffffff"
     bordercolor="#666666"
     borderopacity="1.0"
     inkscape:pageopacity="0.0"
     inkscape:pageshadow="2"
     inkscape:zoom="1.979899"
     inkscape:cx="5.9928982"
     inkscape:cy="114.39891"
     inkscape:document-units="mm"
     inkscape:current-layer="g195013"
     showgrid="false"
     fit-margin-top="0"
     fit-margin-left="0"
     fit-margin-right="0"
     fit-margin-bottom="0"
     inkscape:pagecheckerboard="true"
     inkscape:window-width="1920"
     inkscape:window-height="1000"
     inkscape:window-x="1920"
     inkscape:window-y="0"
     inkscape:window-maximized="1"
     inkscape:document-rotation="0" />
  <metadata
     id="metadata67973">
    <rdf:RDF>
      <cc:Work
         rdf:about="">
        <dc:format>image/svg+xml</dc:format>
        <dc:type
           rdf:resource="http://purl.org/dc/dcmitype/StillImage" />
        <dc:title />
      </cc:Work>
    </rdf:RDF>
  </metadata>
  <g
     inkscape:label="Layer 1"
     inkscape:groupmode="layer"
     id="layer1"
     transform="translate(1292.659,392.71412)">
    <g
       id="g195011"
       transform="matrix(0.35277777,0,0,-0.35277777,-1312.8094,-114.68357)">
      <g
         id="g195013"
         clip-path="url(#clipPath195017)">
        <g
           id="g195145"
           transform="translate(117.9738,765.7091)">
          <path
             d="M 0,0 7.782,3.56 7.557,4.028 C 6.8,5.606 5.9,7.094 4.918,8.5 l 0.127,0.372 c 0.366,1.065 0.383,1.783 0.051,2.244 -0.102,0.134 -0.223,0.661 -0.223,0.661 l -0.009,0.219 c -0.021,0.565 -1.183,1.874 -3.45,3.843 -0.65,0.604 -2.231,2.022 -3.048,2.022 -0.861,0 -1.766,-0.792 -1.86,-0.877 L -3.638,16.86 c -5.276,3.526 -11.566,5.549 -18.118,5.549 -6.563,0 -12.844,-2.023 -18.122,-5.549 l -0.148,0.124 c -0.095,0.085 -0.991,0.877 -1.86,0.877 -0.812,0 -2.4,-1.418 -3.029,-2.007 -2.282,-1.984 -3.453,-3.293 -3.468,-3.858 l 0.023,-0.303 c 0,0 -0.156,-0.443 -0.251,-0.577 -0.329,-0.461 -0.318,-1.179 0.05,-2.244 L -48.435,8.5 C -49.42,7.097 -50.313,5.61 -51.071,4.028 l -0.229,-0.46 7.781,-3.562 0.266,-0.123 0.073,0.009 0.488,0.077 c 1.997,0.256 4.889,1.368 6.493,3.63 1.088,1.518 1.428,3.305 1.022,5.311 l -0.087,0.443 c 3.901,2.739 8.602,4.308 13.508,4.308 4.904,0 9.6,-1.569 13.506,-4.308 L -8.343,8.91 c -0.404,-2.006 -0.064,-3.793 1.024,-5.311 1.611,-2.262 4.5,-3.374 6.494,-3.63 l 0.478,-0.077 0.087,-0.009 z"
             style="fill:#878a8e;fill-opacity:1;fill-rule:nonzero;stroke:none"
             id="path195147"
             inkscape:connector-curvature="0" />
        </g>
        <g
           id="g195149"
           transform="translate(103.6583,745.7961)">
          <path
             d="M 0,0 H 10.31 C 9.812,-1.8 9.202,-3.637 8.475,-5.463 Z m -2.248,0 h 1.432 l 5.91,-3.8 -0.981,-0.908 z m -2.024,0 h 1.283 L 3.787,-5.018 2.712,-6.023 Z m -2.043,0 h 1.374 L 2.383,-6.338 0.934,-7.681 Z m 3.404,-4.249 -3.544,-3.324 v 7.084 z M -7.119,0.65 V -24.939 C 3.543,-19.223 8.699,-8.735 11.169,0.65 Z"
             style="fill:#878a8e;fill-opacity:1;fill-rule:nonzero;stroke:none"
             id="path195151"
             inkscape:connector-curvature="0" />
        </g>
        <g
           id="g195153"
           transform="translate(100.7473,741.5471)">
          <path
             d="M 0,0 -3.544,-3.324 V 3.759 Z"
             style="fill:#0a2240;fill-opacity:1;fill-rule:nonzero;stroke:none"
             id="path195155"
             inkscape:connector-curvature="0" />
        </g>
        <g
           id="g195157"
           transform="translate(97.3433,745.7961)">
          <path
             d="M 0,0 H 1.374 L 8.698,-6.338 7.249,-7.681 Z"
             style="fill:#0a2240;fill-opacity:1;fill-rule:nonzero;stroke:none"
             id="path195159"
             inkscape:connector-curvature="0" />
        </g>
        <g
           id="g195161"
           transform="translate(99.3861,745.7961)">
          <path
             d="M 0,0 H 1.283 L 8.059,-5.018 6.984,-6.023 Z"
             style="fill:#0a2240;fill-opacity:1;fill-rule:nonzero;stroke:none"
             id="path195163"
             inkscape:connector-curvature="0" />
        </g>
        <g
           id="g195165"
           transform="translate(101.4098,745.7961)">
          <path
             d="M 0,0 H 1.433 L 7.343,-3.8 6.362,-4.708 Z"
             style="fill:#0a2240;fill-opacity:1;fill-rule:nonzero;stroke:none"
             id="path195167"
             inkscape:connector-curvature="0" />
        </g>
        <g
           id="g195169"
           transform="translate(103.6583,745.7961)">
          <path
             d="M 0,0 H 10.31 C 9.812,-1.8 9.202,-3.637 8.475,-5.463 Z"
             style="fill:#0a2240;fill-opacity:1;fill-rule:nonzero;stroke:none"
             id="path195171"
             inkscape:connector-curvature="0" />
        </g>
        <g
           id="g195173"
           transform="translate(97.2032,721.9779)">
          <path
             d="m 0,0 v 15.649 l 3.845,3.599 3.518,-3.737 4.556,4.268 2.84,-1.837 C 11.951,11.048 7.391,4.32 0,0"
             style="fill:#ffffff;fill-opacity:1;fill-rule:nonzero;stroke:none"
             id="path195175"
             inkscape:connector-curvature="0" />
        </g>
        <g
           id="g195177"
           transform="translate(77.6034,746.4465)">
          <path
             d="M 0,0 C 2.471,-9.386 7.621,-19.879 18.29,-25.589 V 0 Z"
             style="fill:#878a8e;fill-opacity:1;fill-rule:nonzero;stroke:none"
             id="path195179"
             inkscape:connector-curvature="0" />
        </g>
        <g
           id="g195181"
           transform="translate(85.4571,741.9963)">
          <path
             d="M 0,0 0.058,0.07 5.94,-5.757 5.936,-5.81 C 5.829,-6.276 5.741,-6.747 5.693,-7.205 l -0.016,-0.164 -6.33,6.276 0.027,0.051 C -0.416,-0.595 -0.165,-0.239 0,0 M 0.84,-0.042 C 1.418,-0.211 2.065,-0.298 2.752,-0.314 L 2.779,-0.32 2.804,-0.346 6.479,-3.978 6.457,-4.029 C 6.307,-4.43 6.172,-4.85 6.064,-5.283 l -0.04,-0.131 -5.271,5.23 z m 2.573,-0.27 c 0.488,0.026 0.97,0.092 1.439,0.194 L 4.895,-0.1 7.196,-2.395 7.171,-2.445 C 6.989,-2.793 6.802,-3.162 6.644,-3.551 l -0.046,-0.115 -3.37,3.334 z m 1.968,0.338 c 0.527,0.171 0.844,0.329 0.852,0.329 l 0.056,0.027 1.565,-1.729 -0.04,-0.062 c 0,0 -0.167,-0.205 -0.403,-0.613 L 7.352,-2.111 5.245,-0.009 Z m 0.238,-11.508 c -0.509,0.473 -1.061,0.955 -1.605,1.412 -2.113,1.813 -4.306,3.695 -4.884,6.229 l -0.061,0.272 6.55,-6.494 v -0.027 c 0.029,-0.46 0.074,-0.888 0.141,-1.316 l 0.039,-0.229 z m -6.618,8.441 c -0.009,0.144 -0.021,0.324 -0.021,0.503 0,0.319 0.059,0.646 0.194,1.018 l 0.037,0.111 6.412,-6.357 V -7.809 C 5.585,-8.322 5.564,-8.859 5.585,-9.396 v -0.201 l -6.578,6.532 z M -0.897,0.784 -0.65,0.611 -0.807,0.355 c -0.361,-0.594 -0.951,-1.764 -0.951,-3.082 0,-3.254 3.197,-5.845 3.235,-5.877 L 1.49,-8.611 c 2.087,-1.899 3.832,-3.768 4.373,-4.356 0.193,0.185 0.552,0.514 1.022,0.966 -1.586,5.6 1.175,9.758 1.804,10.613 C 8.386,-1.034 7.558,-0.078 6.307,1.284 5.245,0.733 4.1,0.393 3.033,0.393 0.87,0.393 -0.653,1.536 -1.148,1.968 L -1.676,1.502 c 0.145,-0.172 0.4,-0.437 0.779,-0.718"
             style="fill:#0a2240;fill-opacity:1;fill-rule:nonzero;stroke:none"
             id="path195183"
             inkscape:connector-curvature="0" />
        </g>
        <g
           id="g195185"
           transform="translate(114.4826,747.7691)">
          <path
             d="m 0,0 h -17.279 v 3.63 h 3.368 v 3.483 c -0.328,0.249 -1.571,1.299 -1.571,2.164 0,1 0.519,1.262 0.519,1.262 v 0.966 c 0,0.521 0.546,0.94 0.546,0.94 0,0 0.063,0.03 0.063,1.162 0,1.141 0.679,2.984 1.135,2.984 0.745,0 0.525,-4.238 0.525,-4.238 0,0 0.318,0.033 0.289,-0.66 0,-0.899 -0.359,-0.865 -0.359,-1.384 0,-0.508 0.29,0.042 0.29,-1.32 0,-1.053 -0.55,-1.795 -0.811,-2.071 V 3.63 h 4.977 v 3.121 c -0.168,0.388 -1.208,0.666 -1.208,1.661 0,0.542 0.349,0.83 0.578,1.028 0.233,0.19 0.133,0.451 0.133,0.837 0,0.386 0.1,0.743 0.387,1.041 0.294,0.286 -0.027,0.682 -0.166,1.101 -0.121,0.422 -0.093,1.251 0.203,1.876 0.286,0.615 0.452,1.581 0.836,2.162 0.421,-0.41 0.942,-1.905 0.942,-3.142 0,-1.222 -0.358,-1.904 -0.358,-2.295 0,-0.38 0.258,-0.514 0.258,-0.938 0,-0.419 -0.192,-0.767 -0.192,-1.067 0,-0.284 0.192,-0.523 0.192,-0.811 0,-0.286 -0.158,-0.709 -0.421,-1.286 C -7.261,6.596 -7.458,6.386 -7.601,6.273 V 3.63 h 4.77 v 3.288 c -0.263,0.276 -0.816,1.018 -0.816,2.071 0,1.362 0.292,0.812 0.292,1.32 0,0.519 -0.361,0.485 -0.361,1.384 -0.027,0.693 0.295,0.66 0.295,0.66 0,0 -0.226,4.238 0.518,4.238 0.452,0 1.124,-1.843 1.124,-2.984 0,-1.132 0.073,-1.162 0.073,-1.162 0,0 0.551,-0.419 0.551,-0.94 v -0.966 c 0,0 0.518,-0.262 0.518,-1.262 0,-0.865 -1.24,-1.915 -1.569,-2.164 V 3.63 H 0.769 C 0.551,2.457 0.296,1.244 0,0 m 2.324,16.024 c -1.845,0.331 -3.702,1.144 -5.087,2.225 L -2.856,18.32 H -17.943 V -0.655 H 0.514 C 2.267,6.29 2.573,12.544 2.588,15.684 l 0.008,0.278 z"
             style="fill:#878a8e;fill-opacity:1;fill-rule:nonzero;stroke:none"
             id="path195187"
             inkscape:connector-curvature="0" />
        </g>
        <g
           id="g195189"
           transform="translate(114.4826,747.7691)">
          <path
             d="m 0,0 h -17.279 v 3.63 h 3.368 v 3.483 c -0.328,0.249 -1.571,1.299 -1.571,2.164 0,1 0.519,1.262 0.519,1.262 v 0.966 c 0,0.521 0.546,0.94 0.546,0.94 0,0 0.063,0.03 0.063,1.162 0,1.141 0.679,2.984 1.135,2.984 0.745,0 0.525,-4.238 0.525,-4.238 0,0 0.318,0.033 0.289,-0.66 0,-0.899 -0.359,-0.865 -0.359,-1.384 0,-0.508 0.29,0.042 0.29,-1.32 0,-1.053 -0.55,-1.795 -0.811,-2.071 V 3.63 h 4.977 v 3.121 c -0.168,0.388 -1.208,0.666 -1.208,1.661 0,0.542 0.349,0.83 0.578,1.028 0.233,0.19 0.133,0.451 0.133,0.837 0,0.386 0.1,0.743 0.387,1.041 0.294,0.286 -0.027,0.682 -0.166,1.101 -0.121,0.422 -0.093,1.251 0.203,1.876 0.286,0.615 0.452,1.581 0.836,2.162 0.421,-0.41 0.942,-1.905 0.942,-3.142 0,-1.222 -0.358,-1.904 -0.358,-2.295 0,-0.38 0.258,-0.514 0.258,-0.938 0,-0.419 -0.192,-0.767 -0.192,-1.067 0,-0.284 0.192,-0.523 0.192,-0.811 0,-0.286 -0.158,-0.709 -0.421,-1.286 C -7.261,6.596 -7.458,6.386 -7.601,6.273 V 3.63 h 4.77 v 3.288 c -0.263,0.276 -0.816,1.018 -0.816,2.071 0,1.362 0.292,0.812 0.292,1.32 0,0.519 -0.361,0.485 -0.361,1.384 -0.027,0.693 0.295,0.66 0.295,0.66 0,0 -0.226,4.238 0.518,4.238 0.452,0 1.124,-1.843 1.124,-2.984 0,-1.132 0.073,-1.162 0.073,-1.162 0,0 0.551,-0.419 0.551,-0.94 v -0.966 c 0,0 0.518,-0.262 0.518,-1.262 0,-0.865 -1.24,-1.915 -1.569,-2.164 V 3.63 H 0.769 C 0.551,2.457 0.296,1.244 0,0"
             style="fill:#0a2240;fill-opacity:1;fill-rule:nonzero;stroke:none"
             id="path195191"
             inkscape:connector-curvature="0" />
        </g>
        <g
           id="g195193"
           transform="translate(96.2173,706.73)">
          <path
             d="m 0,0 c -2.505,0.005 -6.452,0.72 -6.974,2.24 -0.225,0.67 -1.251,4.674 -1.678,6.362 l -0.022,0.094 h -0.008 c -1.484,0.595 -6.859,2.993 -13.847,8.909 -5.868,4.964 -8.966,9.034 -8.966,11.762 0,0.357 0,1.097 2.626,4.157 0.031,0.052 0.084,0.101 0.134,0.145 -1.107,0.926 -3.479,2.801 -5.45,3.672 l -1.75,-6.69 -0.27,-0.234 -0.297,-0.034 c -0.067,-0.007 -0.132,-0.01 -0.207,-0.01 -0.059,0 -0.128,0 -0.19,0.003 -0.885,0.097 -1.173,0.641 -1.238,0.754 l -0.022,0.07 -0.03,0.104 -0.909,9.017 v 0.047 0.351 l 0.011,0.076 c 0.077,1.36 0.78,4.529 5.599,4.529 2.35,0 5.42,-1.39 8.246,-3.72 2.152,-1.764 4.443,-4.401 4.443,-6.489 0,-0.283 -0.043,-0.524 -0.134,-0.725 l -0.024,-0.077 -0.046,-0.072 -0.188,-0.231 -0.03,-0.027 -3.151,-3.105 c 1.199,-1.497 2.765,-3.131 4.657,-4.847 5.039,-4.786 10.178,-7.932 13.573,-10.021 2.183,-1.337 3.022,-1.887 3.401,-2.313 l 0.019,-0.034 0.355,-0.488 0.06,-0.214 -0.527,-5.077 C -1.9,7.73 -0.944,7.656 0,7.652 0.945,7.656 1.893,7.73 2.84,7.884 l -0.541,5.077 0.056,0.214 0.365,0.488 0.02,0.034 c 0.377,0.426 1.217,0.976 3.399,2.313 3.395,2.089 8.525,5.235 13.553,10.004 1.912,1.723 3.479,3.367 4.675,4.864 l -3.15,3.105 -0.022,0.027 -0.19,0.231 -0.044,0.078 -0.036,0.078 c -0.087,0.198 -0.131,0.435 -0.131,0.718 0,2.088 2.293,4.725 4.449,6.489 2.816,2.33 5.896,3.72 8.235,3.72 4.834,0 5.533,-3.169 5.611,-4.529 V 40.74 L 39.099,40.368 39.09,40.321 38.182,31.304 38.158,31.2 38.132,31.13 c -0.058,-0.113 -0.362,-0.657 -1.236,-0.754 -0.065,-0.003 -0.132,-0.003 -0.194,-0.003 -0.067,0 -0.136,0.003 -0.207,0.01 l -0.293,0.034 -0.27,0.234 -1.747,6.69 c -1.977,-0.871 -4.342,-2.746 -5.446,-3.661 0.03,-0.044 0.067,-0.089 0.109,-0.127 l 0.017,-0.029 c 2.63,-3.06 2.63,-3.8 2.63,-4.157 0,-2.728 -3.105,-6.798 -8.974,-11.762 C 15.539,11.689 10.157,9.291 8.681,8.696 H 8.673 L 8.648,8.602 C 8.314,7.3 7.212,2.959 6.967,2.24 6.449,0.72 2.508,0.005 0.006,0 Z"
             style="fill:#878a8e;fill-opacity:1;fill-rule:nonzero;stroke:none"
             id="path195195"
             inkscape:connector-curvature="0" />
        </g>
        <g
           id="g195197"
           transform="translate(100.978,718.1667)">
          <path
             d="m 0,0 c -0.599,0.187 -1.197,0.372 -1.612,0.662 l 0.441,-4.221 c 2.26,0.465 3.75,1.257 4.182,1.5 C 2.605,-0.828 1.224,-0.402 0,0"
             style="fill:#0a2240;fill-opacity:1;fill-rule:nonzero;stroke:none"
             id="path195199"
             inkscape:connector-curvature="0" />
        </g>
        <g
           id="g195201"
           transform="translate(123.4278,740.8126)">
          <path
             d="m 0,0 c -0.323,-0.927 -1.665,-3.775 -6.993,-8.606 -5.09,-4.838 -10.26,-8.009 -13.686,-10.096 -1.671,-1.034 -3.256,-2.001 -3.33,-2.335 h -0.017 c 0.034,-0.441 0.599,-0.665 1.751,-1.028 1.363,-0.438 3.031,-0.971 3.463,-2.63 1.381,0.552 6.699,2.91 13.645,8.781 8.099,6.867 8.702,10.065 8.702,11.199 0,0.683 -1.364,2.41 -2.443,3.671 C 0.782,-0.708 0.399,-0.347 0,0"
             style="fill:#0a2240;fill-opacity:1;fill-rule:nonzero;stroke:none"
             id="path195203"
             inkscape:connector-curvature="0" />
        </g>
        <g
           id="g195205"
           transform="translate(122.9369,741.2343)">
          <path
             d="M 0,0 C -0.664,0.523 -1.319,0.932 -1.724,0.932 H -1.758 C -2.182,0.907 -2.676,0.551 -3.156,0.207 -3.542,-0.086 -3.995,-0.405 -4.434,-0.521 l 2.648,-2.615 C -0.352,-1.218 -0.045,-0.181 0,0"
             style="fill:#0a2240;fill-opacity:1;fill-rule:nonzero;stroke:none"
             id="path195207"
             inkscape:connector-curvature="0" />
        </g>
        <g
           id="g195209"
           transform="translate(129.7728,746.9733)">
          <path
             d="m 0,0 0.676,-0.457 c 0.019,-0.014 1.75,-1.165 2.977,-0.662 0.561,0.216 0.934,0.771 1.132,1.63 -0.067,1.124 -0.59,3.818 -4.862,3.818 -4.792,0 -11.937,-6.283 -11.937,-9.457 0,-0.181 0.026,-0.317 0.075,-0.431 0.338,-0.346 0.778,-0.104 1.6,0.49 0.549,0.402 1.116,0.825 1.71,0.849 0.017,0 0.036,0.007 0.059,0.007 0.895,0 2.225,-1.11 3.092,-1.93 1.017,0.868 3.803,3.103 6.036,4.008 z"
             style="fill:#0a2240;fill-opacity:1;fill-rule:nonzero;stroke:none"
             id="path195211"
             inkscape:connector-curvature="0" />
        </g>
        <g
           id="g195213"
           transform="translate(133.652,745.2727)">
          <path
             d="m 0,0 c -0.995,-0.401 -2.171,0.013 -2.888,0.35 l 2.031,-7.763 c 0.071,-0.013 0.148,-0.013 0.241,0 C -0.117,-7.357 0,-7.093 0,-7.093 L 0.781,0.546 C 0.559,0.302 0.302,0.115 0,0"
             style="fill:#0a2240;fill-opacity:1;fill-rule:nonzero;stroke:none"
             id="path195215"
             inkscape:connector-curvature="0" />
        </g>
        <g
           id="g195217"
           transform="translate(91.4527,718.1667)">
          <path
             d="M 0,0 C 0.599,0.187 1.195,0.372 1.62,0.662 L 1.176,-3.559 c -2.266,0.465 -3.758,1.257 -4.19,1.5 C -2.604,-0.828 -1.229,-0.402 0,0"
             style="fill:#0a2240;fill-opacity:1;fill-rule:nonzero;stroke:none"
             id="path195219"
             inkscape:connector-curvature="0" />
        </g>
        <g
           id="g195221"
           transform="translate(96.2173,713.6373)">
          <path
             d="m 0,0 c -4.16,0.007 -7.025,1.374 -7.93,1.883 0.363,-1.427 1.445,-5.639 1.664,-6.317 0.282,-0.802 3.185,-1.724 6.255,-1.736 H 0 0.006 c 3.07,0.012 5.979,0.934 6.255,1.736 0.223,0.678 1.298,4.89 1.663,6.317 C 7.014,1.374 4.155,0.007 0,0"
             style="fill:#0a2240;fill-opacity:1;fill-rule:nonzero;stroke:none"
             id="path195223"
             inkscape:connector-curvature="0" />
        </g>
        <g
           id="g195225"
           transform="translate(69.0011,740.8126)">
          <path
             d="m 0,0 c 0.321,-0.927 1.67,-3.775 6.998,-8.606 5.089,-4.838 10.26,-8.009 13.683,-10.096 1.673,-1.034 3.253,-2.001 3.324,-2.335 h 0.015 c -0.017,-0.441 -0.591,-0.665 -1.744,-1.028 -1.365,-0.438 -3.041,-0.971 -3.467,-2.63 -1.376,0.552 -6.697,2.91 -13.639,8.781 -8.1,6.867 -8.705,10.065 -8.705,11.199 0,0.683 1.369,2.41 2.443,3.671 C -0.775,-0.708 -0.399,-0.347 0,0"
             style="fill:#0a2240;fill-opacity:1;fill-rule:nonzero;stroke:none"
             id="path195227"
             inkscape:connector-curvature="0" />
        </g>
        <g
           id="g195229"
           transform="translate(69.4985,741.2343)">
          <path
             d="M 0,0 C 0.66,0.523 1.312,0.932 1.728,0.932 H 1.757 C 2.178,0.907 2.671,0.551 3.154,0.207 3.546,-0.086 3.987,-0.405 4.43,-0.521 L 1.777,-3.136 C 0.352,-1.218 0.04,-0.181 0,0"
             style="fill:#0a2240;fill-opacity:1;fill-rule:nonzero;stroke:none"
             id="path195231"
             inkscape:connector-curvature="0" />
        </g>
        <g
           id="g195233"
           transform="translate(62.6581,746.9733)">
          <path
             d="m 0,0 -0.68,-0.457 c -0.017,-0.014 -1.746,-1.165 -2.968,-0.662 -0.556,0.216 -0.933,0.771 -1.131,1.63 0.058,1.124 0.579,3.818 4.851,3.818 4.797,0 11.944,-6.283 11.944,-9.457 0,-0.181 -0.029,-0.317 -0.079,-0.431 -0.339,-0.346 -0.774,-0.104 -1.599,0.49 -0.547,0.402 -1.112,0.825 -1.706,0.849 -0.022,0 -0.044,0.007 -0.061,0.007 -0.901,0 -2.228,-1.11 -3.097,-1.93 -1.019,0.868 -3.793,3.103 -6.027,4.008 z"
             style="fill:#0a2240;fill-opacity:1;fill-rule:nonzero;stroke:none"
             id="path195235"
             inkscape:connector-curvature="0" />
        </g>
        <g
           id="g195237"
           transform="translate(58.7771,745.2727)">
          <path
             d="M 0,0 C 0.992,-0.401 2.172,0.013 2.892,0.35 L 0.856,-7.413 c -0.069,-0.013 -0.147,-0.013 -0.24,0 -0.502,0.056 -0.624,0.32 -0.624,0.32 L -0.78,0.546 C -0.554,0.302 -0.296,0.115 0,0"
             style="fill:#0a2240;fill-opacity:1;fill-rule:nonzero;stroke:none"
             id="path195239"
             inkscape:connector-curvature="0" />
        </g>
        <g
           id="g195241"
           transform="translate(68.2714,732.502)">
          <path
             d="M 0,0 C -0.405,0.524 -0.327,1.229 0.153,1.63 L 0.348,1.789 0.752,1.247 0.596,1.114 C 0.405,0.961 0.303,0.697 0.516,0.425 0.798,0.059 1.023,0.196 1.347,0.476 1.737,0.804 1.76,0.899 1.651,1.247 L 1.514,1.76 C 1.341,2.389 1.543,2.747 1.993,3.128 2.542,3.581 3.219,3.64 3.689,3.012 4.102,2.482 3.965,1.765 3.561,1.436 L 3.307,1.229 2.895,1.765 3.016,1.859 C 3.252,2.055 3.366,2.333 3.16,2.609 2.93,2.906 2.652,2.786 2.413,2.59 2.133,2.358 2.056,2.251 2.169,1.88 L 2.32,1.338 C 2.51,0.708 2.296,0.383 1.774,-0.053 1.16,-0.569 0.532,-0.707 0,0"
             style="fill:#ffffff;fill-opacity:1;fill-rule:nonzero;stroke:none"
             id="path195243"
             inkscape:connector-curvature="0" />
        </g>
        <g
           id="g195245"
           transform="translate(69.6701,730.8008)">
          <path
             d="M 0,0 0.458,-0.507 1.305,0.058 1.932,-0.614 1.348,-1.484 1.801,-1.984 4.428,2.122 4.05,2.543 Z M 2.29,-0.083 1.838,0.426 3.272,1.383 3.279,1.369 Z"
             style="fill:#ffffff;fill-opacity:1;fill-rule:nonzero;stroke:none"
             id="path195247"
             inkscape:connector-curvature="0" />
        </g>
        <g
           id="g195249"
           transform="translate(72.249,728.0354)">
          <path
             d="M 0,0 3.112,3.571 3.596,3.102 0.929,0.042 1.904,-0.882 1.461,-1.396 Z"
             style="fill:#ffffff;fill-opacity:1;fill-rule:nonzero;stroke:none"
             id="path195251"
             inkscape:connector-curvature="0" />
        </g>
        <g
           id="g195253"
           transform="translate(83.1091,720.8588)">
          <path
             d="m 0,0 -0.34,-0.979 0.577,-0.36 1.466,4.699 -0.478,0.301 -3.241,-3.595 0.575,-0.359 0.672,0.79 z m 0.22,0.639 -0.572,0.357 1.138,1.326 0.011,-0.01 z"
             style="fill:#ffffff;fill-opacity:1;fill-rule:nonzero;stroke:none"
             id="path195255"
             inkscape:connector-curvature="0" />
        </g>
        <g
           id="g195257"
           transform="translate(82.7845,725.5369)">
          <path
             d="m 0,0 -2.52,-4.042 -0.551,0.373 2.516,4.043 z"
             style="fill:#ffffff;fill-opacity:1;fill-rule:nonzero;stroke:none"
             id="path195259"
             inkscape:connector-curvature="0" />
        </g>
        <g
           id="g195261"
           transform="translate(80.8387,725.6194)">
          <path
             d="m 0,0 -0.19,-0.278 -0.532,0.401 0.078,0.127 c 0.18,0.276 0.223,0.563 -0.045,0.765 C -0.983,1.244 -1.227,1.048 -1.406,0.78 -1.614,0.477 -1.658,0.356 -1.458,0.026 l 0.295,-0.478 c 0.346,-0.544 0.219,-0.926 -0.171,-1.5 -0.455,-0.655 -1.024,-0.974 -1.72,-0.447 -0.52,0.398 -0.638,1.092 -0.276,1.622 l 0.138,0.208 0.537,-0.406 -0.117,-0.174 c -0.134,-0.208 -0.17,-0.485 0.1,-0.696 0.366,-0.27 0.552,-0.066 0.79,0.291 0.294,0.428 0.294,0.519 0.101,0.832 l -0.275,0.452 c -0.323,0.549 -0.227,0.959 0.113,1.452 0.406,0.595 1.039,0.844 1.653,0.379 C 0.249,1.152 0.301,0.433 0,0"
             style="fill:#ffffff;fill-opacity:1;fill-rule:nonzero;stroke:none"
             id="path195263"
             inkscape:connector-curvature="0" />
        </g>
        <g
           id="g195265"
           transform="translate(79.0039,728.3217)">
          <path
             d="m 0,0 -0.382,-0.508 -1.018,0.867 -0.85,-1.106 0.887,-0.755 -0.391,-0.496 -0.892,0.743 -0.847,-1.103 1.018,-0.864 -0.417,-0.529 -1.534,1.297 2.896,3.751 z"
             style="fill:#ffffff;fill-opacity:1;fill-rule:nonzero;stroke:none"
             id="path195267"
             inkscape:connector-curvature="0" />
        </g>
        <g
           id="g195269"
           transform="translate(85.6942,718.2007)">
          <path
             d="M 0,0 0.391,3.057 0.376,3.065 -0.912,0.493 -1.492,0.82 0.65,5.086 1.22,4.783 0.811,1.717 H 0.819 L 2.11,4.291 2.695,3.961 0.547,-0.304 Z"
             style="fill:#ffffff;fill-opacity:1;fill-rule:nonzero;stroke:none"
             id="path195271"
             inkscape:connector-curvature="0" />
        </g>
        <g
           id="g195273"
           transform="translate(105.6152,718.7554)">
          <path
             d="m 0,0 -1.263,2.444 c -0.301,0.576 -0.123,1.245 0.468,1.579 0.567,0.313 1.218,0.106 1.538,-0.51 L 0.876,3.261 0.263,2.913 0.148,3.134 C 0.016,3.381 -0.234,3.513 -0.468,3.381 -0.775,3.213 -0.739,2.954 -0.579,2.648 L 0.6,0.389 C 0.728,0.13 0.926,-0.018 1.207,0.134 1.377,0.237 1.541,0.453 1.362,0.805 L 1.244,1.023 1.86,1.368 1.993,1.087 C 2.286,0.543 2.111,-0.176 1.561,-0.481 1.093,-0.745 0.425,-0.815 0,0"
             style="fill:#ffffff;fill-opacity:1;fill-rule:nonzero;stroke:none"
             id="path195275"
             inkscape:connector-curvature="0" />
        </g>
        <g
           id="g195277"
           transform="translate(109.9563,725.9063)">
          <path
             d="M 0,0 0.58,0.402 2.925,-3.166 4.06,-2.354 4.456,-2.955 2.735,-4.164 Z"
             style="fill:#ffffff;fill-opacity:1;fill-rule:nonzero;stroke:none"
             id="path195279"
             inkscape:connector-curvature="0" />
        </g>
        <g
           id="g195281"
           transform="translate(112.7427,727.9288)">
          <path
             d="M 0,0 2.492,-3.474 3.596,-2.613 4.012,-3.19 2.345,-4.472 -0.56,-0.432 Z"
             style="fill:#ffffff;fill-opacity:1;fill-rule:nonzero;stroke:none"
             id="path195283"
             inkscape:connector-curvature="0" />
        </g>
        <g
           id="g195285"
           transform="translate(114.3607,729.1978)">
          <path
             d="M 0,0 1.605,1.377 2.018,0.844 0.955,-0.065 1.862,-1.205 2.794,-0.414 3.206,-0.939 2.28,-1.742 3.187,-2.873 4.251,-1.966 4.697,-2.523 3.092,-3.897 Z"
             style="fill:#ffffff;fill-opacity:1;fill-rule:nonzero;stroke:none"
             id="path195287"
             inkscape:connector-curvature="0" />
        </g>
        <g
           id="g195289"
           transform="translate(117.9021,730.7643)">
          <path
             d="m 0,0 1.76,-1.932 c 0.224,-0.256 0.489,-0.23 0.669,-0.043 0.187,0.181 0.245,0.456 0.016,0.706 l -0.624,0.691 -0.405,-0.39 -0.423,0.465 0.92,0.895 1.042,-1.161 C 3.491,-1.386 3.33,-2.106 2.916,-2.505 2.495,-2.907 1.783,-3.032 1.247,-2.435 l -1.756,1.943 c -0.54,0.605 -0.368,1.335 0.046,1.734 0.419,0.402 1.126,0.529 1.665,-0.074 L 1.371,0.98 0.859,0.487 0.689,0.675 C 0.461,0.927 0.196,0.893 0.012,0.71 -0.176,0.533 -0.228,0.259 0,0"
             style="fill:#ffffff;fill-opacity:1;fill-rule:nonzero;stroke:none"
             id="path195291"
             inkscape:connector-curvature="0" />
        </g>
        <g
           id="g195293"
           transform="translate(122.6234,730.1475)">
          <path
             d="m 0,0 -3.578,3.416 1.407,1.593 0.487,-0.469 -0.932,-1.06 1.05,-0.993 0.81,0.92 0.48,-0.468 -0.82,-0.917 1.057,-0.996 0.937,1.049 0.509,-0.484 z"
             style="fill:#ffffff;fill-opacity:1;fill-rule:nonzero;stroke:none"
             id="path195295"
             inkscape:connector-curvature="0" />
        </g>
        <g
           id="g195297"
           transform="translate(107.9991,723.2386)">
          <path
             d="m 0,0 1.339,-2.288 c 0.17,-0.291 0.445,-0.312 0.657,-0.173 0.217,0.136 0.319,0.392 0.148,0.686 L 0.811,0.503 C 0.637,0.805 0.368,0.817 0.15,0.694 -0.07,0.548 -0.168,0.288 0,0 m 1.408,0.881 1.333,-2.28 c 0.407,-0.709 0.1,-1.372 -0.383,-1.682 -0.484,-0.307 -1.207,-0.271 -1.62,0.433 l -1.33,2.273 C -1.002,0.319 -0.695,1.001 -0.21,1.3 0.28,1.611 0.996,1.587 1.408,0.881"
             style="fill:#ffffff;fill-opacity:1;fill-rule:nonzero;stroke:none"
             id="path195299"
             inkscape:connector-curvature="0" />
        </g>
        <g
           id="g195301"
           transform="translate(122.5755,774.709)">
          <path
             d="M 0,0 C 1.048,3.018 -1.403,1.796 -1.403,1.796 -1.403,1.796 -0.752,1.071 0,0"
             style="fill:#0a2240;fill-opacity:1;fill-rule:nonzero;stroke:none"
             id="path195303"
             inkscape:connector-curvature="0" />
        </g>
        <g
           id="g195305"
           transform="translate(122.3322,777.5734)">
          <path
             d="m 0,0 c 0,0 -0.726,0.291 -1.589,-0.36 -2.638,2.674 -5.905,5.077 -5.905,5.077 0,0 0.831,0.745 1.531,0.745 0.702,0 2.708,-1.885 2.708,-1.885 0,0 3.666,-3.188 3.255,-3.577"
             style="fill:#0a2240;fill-opacity:1;fill-rule:nonzero;stroke:none"
             id="path195307"
             inkscape:connector-curvature="0" />
        </g>
        <g
           id="g195309"
           transform="translate(110.1433,774.476)">
          <path
             d="M 0,0 C 0,0 4.633,-3.004 7.099,-8.362 3.971,-7.942 -1.104,-5.441 0,0"
             style="fill:#0a2240;fill-opacity:1;fill-rule:nonzero;stroke:none"
             id="path195311"
             inkscape:connector-curvature="0" />
        </g>
        <g
           id="g195313"
           transform="translate(117.9144,766.1769)">
          <path
             d="m 0,0 7.201,3.295 c -5.297,11.016 -16.634,18.118 -28.898,18.118 -12.259,0 -23.608,-7.102 -28.895,-18.114 l 7.194,-3.296 C -39.404,8.299 -30.893,13.66 -21.697,13.66 -12.505,13.66 -3.989,8.299 0,0"
             style="fill:#0a2240;fill-opacity:1;fill-rule:nonzero;stroke:none"
             id="path195315"
             inkscape:connector-curvature="0" />
        </g>
        <g
           id="g195317"
           transform="translate(69.8665,774.709)">
          <path
             d="M 0,0 C -1.055,3.018 1.39,1.796 1.39,1.796 1.39,1.796 0.739,1.071 0,0"
             style="fill:#0a2240;fill-opacity:1;fill-rule:nonzero;stroke:none"
             id="path195319"
             inkscape:connector-curvature="0" />
        </g>
        <g
           id="g195321"
           transform="translate(70.0988,777.5734)">
          <path
             d="m 0,0 c 0,0 0.732,0.291 1.597,-0.36 2.632,2.674 5.906,5.077 5.906,5.077 0,0 -0.839,0.745 -1.54,0.745 C 5.269,5.462 3.269,3.577 3.269,3.577 3.269,3.577 -0.401,0.389 0,0"
             style="fill:#0a2240;fill-opacity:1;fill-rule:nonzero;stroke:none"
             id="path195323"
             inkscape:connector-curvature="0" />
        </g>
        <g
           id="g195325"
           transform="translate(82.292,774.476)">
          <path
             d="M 0,0 C 0,0 -4.63,-3.004 -7.101,-8.362 -3.969,-7.942 1.102,-5.441 0,0"
             style="fill:#0a2240;fill-opacity:1;fill-rule:nonzero;stroke:none"
             id="path195327"
             inkscape:connector-curvature="0" />
        </g>
        <g
           id="g195329"
           transform="translate(121.7705,771.0847)">
          <path
             d="M 0,0 C -0.292,0.677 -0.943,0.799 -1.573,0.53 -2.098,0.309 -2.376,0.029 -2.368,-0.55 l 0.012,-0.498 c 0.005,-0.338 -0.041,-0.427 -0.49,-0.613 -0.373,-0.154 -0.622,-0.228 -0.798,0.166 -0.129,0.305 0.031,0.512 0.251,0.602 l 0.186,0.078 -0.261,0.582 -0.221,-0.094 c -0.55,-0.234 -0.8,-0.846 -0.55,-1.412 0.33,-0.76 0.957,-0.803 1.66,-0.502 0.608,0.264 0.898,0.502 0.867,1.094 l -0.007,0.527 c -0.015,0.358 0.077,0.434 0.406,0.566 0.273,0.121 0.566,0.156 0.703,-0.169 0.133,-0.293 -0.04,-0.509 -0.319,-0.62 l -0.136,-0.063 0.262,-0.589 0.294,0.128 C -0.056,-1.173 0.254,-0.582 0,0"
             style="fill:#ffffff;fill-opacity:1;fill-rule:nonzero;stroke:none"
             id="path195331"
             inkscape:connector-curvature="0" />
        </g>
        <g
           id="g195333"
           transform="translate(120.5107,773.4975)">
          <path
             d="m 0,0 -0.36,0.528 -2.864,-1.881 c -0.261,-0.183 -0.481,-0.121 -0.613,0.064 -0.125,0.186 -0.093,0.416 0.17,0.578 l 2.862,1.889 -0.364,0.531 -2.907,-1.916 c -0.494,-0.321 -0.616,-0.97 -0.293,-1.43 0.318,-0.477 0.964,-0.608 1.452,-0.29 z"
             style="fill:#ffffff;fill-opacity:1;fill-rule:nonzero;stroke:none"
             id="path195335"
             inkscape:connector-curvature="0" />
        </g>
        <g
           id="g195337"
           transform="translate(114.8489,779.6768)">
          <path
             d="m 0,0 -2.827,-3.47 0.51,-0.397 2.821,3.472 z"
             style="fill:#ffffff;fill-opacity:1;fill-rule:nonzero;stroke:none"
             id="path195339"
             inkscape:connector-curvature="0" />
        </g>
        <g
           id="g195341"
           transform="translate(112.8815,781.0661)">
          <path
             d="m 0,0 -1.436,-2.284 -0.014,0.006 0.6,2.779 -0.528,0.325 -2.378,-3.784 0.551,-0.339 1.429,2.28 0.018,-0.009 -0.587,-2.789 0.514,-0.315 2.378,3.786 z"
             style="fill:#ffffff;fill-opacity:1;fill-rule:nonzero;stroke:none"
             id="path195343"
             inkscape:connector-curvature="0" />
        </g>
        <g
           id="g195345"
           transform="translate(109.2765,782.9965)">
          <path
             d="m 0,0 -1.689,-1.853 -0.011,0.006 0.161,2.49 -0.572,0.235 -1.756,-4.102 0.597,-0.25 1.063,2.503 0.018,-0.008 -0.172,-2.008 0.306,-0.122 1.341,1.512 h 0.006 l -1.063,-2.494 0.597,-0.257 1.751,4.103 z"
             style="fill:#ffffff;fill-opacity:1;fill-rule:nonzero;stroke:none"
             id="path195347"
             inkscape:connector-curvature="0" />
        </g>
        <g
           id="g195349"
           transform="translate(104.5424,783.5703)">
          <path
             d="m 0,0 -0.611,-2.272 c -0.078,-0.296 -0.311,-0.389 -0.538,-0.326 -0.23,0.058 -0.387,0.248 -0.306,0.552 l 0.61,2.261 C -0.766,0.507 -0.533,0.61 -0.304,0.546 -0.079,0.482 0.077,0.301 0,0 M -0.14,1.161 C -0.65,1.298 -1.282,1.092 -1.475,0.381 L -2.08,-1.888 c -0.195,-0.71 0.259,-1.188 0.767,-1.326 0.506,-0.137 1.147,0.073 1.33,0.778 l 0.605,2.271 C 0.814,0.536 0.364,1.025 -0.14,1.161"
             style="fill:#ffffff;fill-opacity:1;fill-rule:nonzero;stroke:none"
             id="path195351"
             inkscape:connector-curvature="0" />
        </g>
        <g
           id="g195353"
           transform="translate(82.0082,780.9064)">
          <path
             d="m 0,0 1.075,-1.246 -0.567,-0.313 -0.514,1.556 z m -0.868,0.983 1.314,-4.353 0.56,0.31 -0.304,0.925 0.768,0.414 0.636,-0.735 0.565,0.309 -3.067,3.386 z"
             style="fill:#ffffff;fill-opacity:1;fill-rule:nonzero;stroke:none"
             id="path195355"
             inkscape:connector-curvature="0" />
        </g>
        <g
           id="g195357"
           transform="translate(78.542,780.246)">
          <path
             d="M 0,0 2.583,-3.61 3.111,-3.251 0.53,0.36 Z"
             style="fill:#ffffff;fill-opacity:1;fill-rule:nonzero;stroke:none"
             id="path195359"
             inkscape:connector-curvature="0" />
        </g>
        <g
           id="g195361"
           transform="translate(76.5557,778.6969)">
          <path
             d="M 0,0 1.822,-1.972 1.815,-1.983 -0.731,-0.648 -1.188,-1.062 1.83,-4.35 2.308,-3.913 0.489,-1.943 0.503,-1.934 3.048,-3.25 3.497,-2.859 0.479,0.423 Z"
             style="fill:#ffffff;fill-opacity:1;fill-rule:nonzero;stroke:none"
             id="path195363"
             inkscape:connector-curvature="0" />
        </g>
        <g
           id="g195365"
           transform="translate(73.5619,775.6619)">
          <path
             d="M 0,0 1.404,-2.063 1.394,-2.073 -1,-1.308 -1.377,-1.787 2.211,-4.461 2.596,-3.954 0.421,-2.339 0.432,-2.32 2.35,-2.974 2.546,-2.718 1.384,-1.07 1.394,-1.056 3.577,-2.679 3.965,-2.171 0.376,0.495 Z"
             style="fill:#ffffff;fill-opacity:1;fill-rule:nonzero;stroke:none"
             id="path195367"
             inkscape:connector-curvature="0" />
        </g>
        <g
           id="g195369"
           transform="translate(74.234,769.5699)">
          <path
             d="m 0,0 c -0.105,-0.204 -0.317,-0.331 -0.593,-0.192 l -2.15,0.981 c -0.282,0.135 -0.331,0.377 -0.233,0.593 0.101,0.2 0.32,0.315 0.598,0.2 L -0.223,0.581 C 0.051,0.448 0.098,0.201 0,0 m 0.048,1.154 -2.15,0.994 C -2.763,2.453 -3.33,2.117 -3.55,1.639 -3.783,1.188 -3.683,0.532 -3.008,0.216 l 2.141,-0.987 c 0.658,-0.306 1.229,0.03 1.449,0.51 0.226,0.455 0.131,1.111 -0.534,1.415"
             style="fill:#ffffff;fill-opacity:1;fill-rule:nonzero;stroke:none"
             id="path195371"
             inkscape:connector-curvature="0" />
        </g>
        <g
           id="g195373"
           transform="translate(116.7499,777.2278)">
          <path
             d="M 0,0 0.182,-0.186 C 0.475,-0.49 0.429,-0.746 0.145,-1.007 -0.156,-1.295 -0.401,-1.372 -0.694,-1.061 l -0.203,0.204 z m -1.227,-2.301 c -0.32,-0.302 -0.575,-0.494 -0.934,-0.129 l -0.189,0.208 1.042,0.986 0.196,-0.205 c 0.327,-0.339 0.211,-0.558 -0.115,-0.86 m 0.812,0.538 c 0.328,-0.084 0.56,-0.076 0.919,0.261 l 0.112,0.112 c 0.433,0.398 0.608,0.995 0.027,1.595 l -0.652,0.664 -3.262,-3.079 0.614,-0.632 c 0.578,-0.586 1.158,-0.55 1.726,-0.018 l 0.185,0.178 c 0.336,0.314 0.442,0.603 0.331,0.919"
             style="fill:#ffffff;fill-opacity:1;fill-rule:nonzero;stroke:none"
             id="path195375"
             inkscape:connector-curvature="0" />
        </g>
        <g
           id="g195377"
           transform="translate(80.8013,766.0897)">
          <path
             d="M 0,0 -0.092,-0.072 C -1.48,-1.152 -3.329,-1.969 -5.18,-2.315 l -0.271,-0.043 v -0.279 c 0.028,-3.139 0.336,-9.393 2.082,-16.338 H 15.092 V 0 Z"
             style="fill:#a1a1a4;fill-opacity:1;fill-rule:nonzero;stroke:none"
             id="path195379"
             inkscape:connector-curvature="0" />
        </g>
        <g
           id="g195381"
           transform="translate(80.8013,766.0897)">
          <path
             d="M 0,0 -0.092,-0.072 C -1.48,-1.152 -3.329,-1.969 -5.18,-2.315 l -0.271,-0.043 v -0.279 c 0.028,-3.139 0.336,-9.393 2.082,-16.338 H 15.092 V 0 Z"
             style="fill:#878a8e;fill-opacity:1;fill-rule:nonzero;stroke:none"
             id="path195383"
             inkscape:connector-curvature="0" />
        </g>
        <g
           id="g195385"
           transform="translate(88.3826,754.9837)">
          <path
             d="M 0,0 1.637,-5.059 -2.657,-1.937 -6.954,-5.059 -5.316,0 -9.6,3.113 h 5.304 l 1.639,5.04 1.634,-5.04 h 5.314 z"
             style="fill:#ffffff;fill-opacity:1;fill-rule:nonzero;stroke:none"
             id="path195387"
             inkscape:connector-curvature="0" />
        </g>
        <g
           id="g195389"
           transform="translate(76.0163,763.184)">
          <path
             d="M 0,0 C 1.815,0.38 3.619,1.191 5.011,2.249 H 19.21 v -14.207 l -5.975,3.844 4.772,3.469 H 11.662 L 9.709,1.369 7.746,-4.645 h -6.32 l 5.104,-3.727 -1.954,-6.031 5.133,3.721 5.129,-3.721 -1.619,4.96 5.638,-5.972 H 1.932 C 0.356,-8.934 0.033,-3.105 0,0"
             style="fill:#0a2240;fill-opacity:1;fill-rule:nonzero;stroke:none"
             id="path195391"
             inkscape:connector-curvature="0" />
        </g>
        <g
           id="g195393"
           transform="translate(91.3312,752.1766)">
          <path
             d="m 0,0 3.895,-3.373 v -0.77 z"
             style="fill:#0a2240;fill-opacity:1;fill-rule:nonzero;stroke:none"
             id="path195395"
             inkscape:connector-curvature="0" />
        </g>
        <g
           id="g195397"
           transform="translate(91.6228,752.5025)">
          <path
             d="M 0,0 3.603,-2.671 V -3.124 Z"
             style="fill:#0a2240;fill-opacity:1;fill-rule:nonzero;stroke:none"
             id="path195399"
             inkscape:connector-curvature="0" />
        </g>
        <g
           id="g195401"
           transform="translate(91.8033,752.9139)">
          <path
             d="M 0,0 3.423,-2.208 V -2.54 Z"
             style="fill:#0a2240;fill-opacity:1;fill-rule:nonzero;stroke:none"
             id="path195403"
             inkscape:connector-curvature="0" />
        </g>
        <g
           id="g195405"
           transform="translate(93.06,777.6973)">
          <path
             d="m 0,0 c -0.083,0.175 -0.143,0.378 -0.177,0.601 -0.074,0.409 -0.043,0.795 -0.015,1.018 0.028,0.074 0.049,0.156 0.076,0.232 L 0.772,0.44 C 0.778,0.369 0.772,0.289 0.766,0.265 0.627,0.044 0.551,-0.037 0.161,-0.047 L 0.036,-0.053 Z m 10.932,-0.531 c -0.058,0.101 -0.15,0.212 -0.435,0.513 L 10.474,0.006 9.897,0.467 9.872,0.486 C 8.69,1.217 8.107,1.5 7.138,1.978 L 7.079,2.006 7.06,2.009 C 7.012,2.032 6.878,2.102 6.522,2.298 L 5.969,2.566 C 4.416,3.314 3.348,3.633 2.772,3.768 2.779,3.771 2.787,3.771 2.794,3.775 3.138,3.969 3.325,4.211 3.421,4.377 3.427,4.39 3.435,4.401 3.437,4.414 L 3.825,4.559 3.853,4.57 c 0.291,0.151 0.493,0.319 0.594,0.5 L 4.803,5.132 4.828,5.14 c 0.254,0.078 0.917,0.281 0.999,0.817 0,0.015 0.001,0.038 0.001,0.063 L 6.833,6.493 C 7.011,6.654 7.076,6.84 7.031,7.049 6.927,7.568 6.296,7.583 5.882,7.593 c 0,0 -1.149,0.024 -1.163,0.024 L 3.995,7.63 C 4.028,7.93 3.701,8.124 3.701,8.124 3.557,8.196 3.373,8.233 3.138,8.233 2.186,8.233 0.169,7.641 -0.176,7.532 -2.836,6.706 -3.708,6.102 -3.745,6.078 -4.553,5.513 -4.94,4.931 -4.897,4.337 -4.866,3.865 -4.562,3.56 -4.433,3.451 L -4.025,3.139 C -4.291,2.752 -4.396,2.376 -4.341,2.031 c 0.019,-0.142 0.064,-0.274 0.16,-0.424 0.051,-0.08 0.168,-0.262 0.372,-0.39 0.145,-0.112 0.312,-0.178 0.492,-0.193 l 0.11,-0.01 C -3.335,0.81 -3.477,0.572 -3.589,0.367 -3.765,0.034 -3.826,-0.124 -3.851,-0.244 -3.856,-0.253 -3.861,-0.268 -3.867,-0.279 l -0.798,1.222 -0.072,0.068 c -0.144,0.132 -0.357,0.21 -0.574,0.21 -0.137,0 -0.267,-0.029 -0.39,-0.087 L -6.573,0.823 C -6.666,0.791 -6.982,0.684 -7.163,0.517 l -0.026,-0.019 -0.81,-0.95 -0.12,-0.154 v -0.187 c -0.048,-0.356 0.052,-0.644 0.298,-0.849 l 0.859,-0.907 0.047,-0.031 c 0.024,-0.014 0.061,-0.036 0.089,-0.051 l 0.034,-0.018 -0.146,-0.152 c -0.053,-0.044 -0.334,-0.295 -0.367,-0.743 l -0.064,-1.099 c -0.009,-0.314 0.122,-0.557 0.251,-0.698 0.189,-0.242 0.435,-0.373 0.688,-0.373 0.138,0 0.285,0.041 0.401,0.114 0.057,0.033 0.112,0.081 0.164,0.131 0.041,-0.005 0.082,-0.006 0.124,-0.006 0.293,0 0.605,0.182 0.681,0.569 0.183,0.042 0.339,0.145 0.423,0.295 0.045,0.069 0.262,0.434 0.115,0.842 l 2.013,-0.982 c 0.035,-0.02 0.069,-0.036 0.102,-0.054 l 0.531,-0.174 0.679,0.006 c 0.215,0.098 0.271,0.114 0.435,0.157 l 0.383,0.068 0.053,0.002 0.075,0.008 c 0.07,0.008 0.106,0.008 0.181,0.008 L 0.087,-4.731 C -0.05,-4.994 -0.116,-5.235 -0.157,-5.405 l -0.007,-0.021 c -0.153,-0.3 -0.212,-0.809 0.2,-1.186 0,0 0.086,-0.096 0.092,-0.104 C 0.371,-7.072 0.501,-7.305 0.56,-7.427 0.522,-7.552 0.451,-7.759 0.323,-7.993 l -0.42,-0.604 c -0.046,-0.003 -0.107,-0.006 -0.188,-0.006 -0.094,0 -0.217,0.006 -0.359,0.019 -0.026,0.006 -0.059,0.019 -0.093,0.026 l -0.043,0.01 -0.027,0.004 c -0.032,0.004 -0.068,0.018 -0.102,0.03 l -0.074,0.019 -0.03,0.004 c -0.06,0.008 -0.118,0.014 -0.176,0.014 -0.242,0 -0.456,-0.087 -0.615,-0.257 l -0.037,-0.032 -0.02,-0.04 c -0.218,-0.332 -0.434,-0.71 -0.311,-1.095 0.067,-0.206 0.216,-0.366 0.427,-0.445 l 0.1,-0.035 h 0.025 c 0.071,-0.014 0.131,-0.022 0.195,-0.022 0.02,-0.004 0.586,-0.042 1.052,-0.042 0.422,0 0.584,0.032 0.679,0.061 l 0.065,0.024 0.027,0.014 0.441,0.005 h 0.412 c 0.184,0.015 0.343,0.032 0.436,0.049 l 0.328,0.067 0.124,0.297 1.274,2.321 -0.093,0.229 C 3.254,-7.207 3.089,-6.85 2.947,-6.553 l -0.009,0.021 c 0,0.055 0.003,0.185 0.036,0.456 l 0.051,0.375 0.009,0.004 c 0.051,0.034 0.088,0.062 0.104,0.079 0.391,0.282 0.674,0.614 0.839,0.964 0.036,-0.053 0.075,-0.1 0.12,-0.165 0.13,-0.218 0.754,-1.159 1.764,-1.311 0.159,-0.026 0.316,-0.035 0.468,-0.035 0.694,0 1.329,0.249 2.018,0.813 0.606,0.016 1.088,0.493 1.121,0.818 0,0 0.109,0.719 -0.07,0.769 -0.186,0.049 -0.737,0.058 -0.737,0.058 -0.002,0 -0.008,10e-4 -0.016,10e-4 -0.064,0.015 -0.128,0.025 -0.196,0.025 -0.395,0 -0.722,-0.265 -0.849,-0.675 -0.545,-0.382 -0.853,-0.476 -1.277,-0.5 L 6.258,-4.847 H 6.217 c -0.463,0 -1.085,0.739 -1.305,1.121 -0.287,0.562 -0.66,0.855 -0.917,1.001 l -0.878,0.219 c 0.114,0.087 0.193,0.185 0.242,0.273 0.02,0.035 0.044,0.065 0.062,0.094 0.31,0.094 0.549,0.226 0.699,0.392 0.407,0.019 0.895,0.074 1.205,0.226 0.18,-0.014 0.452,-0.033 0.742,-0.033 0.661,0 1.122,0.081 1.418,0.255 0.299,-0.072 0.617,-0.107 0.949,-0.107 0.192,0 0.348,0.01 0.461,0.025 0.307,-0.123 0.613,-0.187 0.922,-0.187 0.519,0 0.839,0.182 0.869,0.197 l 0.037,0.028 0.095,0.065 0.049,0.057 c 0.236,0.29 0.124,0.58 0.065,0.69"
             style="fill:#878a8e;fill-opacity:1;fill-rule:nonzero;stroke:none"
             id="path195407"
             inkscape:connector-curvature="0" />
        </g>
        <g
           id="g195409"
           transform="translate(88.9656,781.5238)">
          <path
             d="m 0,0 0.393,-0.295 0.053,0.113 c 0.085,0.156 0.06,0.117 0.109,0.196 0.134,0.179 0.172,0.253 0.337,0.39 L 0.931,0.423 0.962,0.451 C 1.079,0.538 1.204,0.607 1.31,0.645 L 1.311,0.648 2.1,1.27 C 2.175,1.601 2.577,2.505 3.555,2.733 L 4.075,2.809 3.798,2.276 C 3.716,2.105 3.628,1.919 3.561,1.742 3.919,2.105 4.487,2.505 5.208,2.444 L 5.73,2.397 5.32,2.032 C 5.03,1.771 4.263,0.978 4.205,0.387 L 4.263,0.014 c 0.386,0.312 0.789,0.383 1.425,0.346 0.003,0 0.664,-0.072 0.714,-0.083 0.091,0.032 0.17,0.074 0.241,0.11 0.24,0.136 0.369,0.3 0.437,0.418 0.054,0.094 0.071,0.162 0.071,0.165 L 7.3,1.038 7.508,1.115 7.719,1.192 C 8.079,1.381 8.134,1.505 8.114,1.576 8.104,1.63 8.047,1.656 8.048,1.659 l 0.33,0.071 0.4,0.067 C 9.869,2.13 9.245,2.458 9.249,2.466 l 0.297,0.117 0.815,0.321 C 10.333,2.897 11.208,3.235 9.962,3.26 9.913,3.26 8.819,3.27 8.691,3.3 L 6.649,3.285 7.063,3.481 7.143,3.52 7.216,3.543 7.389,3.624 C 7.657,3.773 7.567,3.845 7.567,3.845 7.017,4.124 4.095,3.236 4.075,3.227 H 4.073 C 1.492,2.423 0.647,1.844 0.638,1.836 -0.17,1.273 -0.315,0.821 -0.299,0.543 -0.274,0.2 0,0.003 0,0"
             style="fill:#c00630;fill-opacity:1;fill-rule:nonzero;stroke:none"
             id="path195411"
             inkscape:connector-curvature="0" />
        </g>
        <g
           id="g195413"
           transform="translate(86.4819,775.5089)">
          <path
             d="m 0,0 0.02,-0.013 0.019,0.004 c 0.04,0.006 0.068,0.018 0.097,0.04 L 0.159,0.049 C 0.287,0.143 0.36,0.214 0.368,0.284 0.372,0.35 0.356,0.415 0.313,0.524 L 0.104,1.265 c 0.003,0.01 0.008,0.04 0.032,0.081 0.035,0.065 0.109,0.168 0.274,0.29 0.031,0.02 0.062,0.043 0.092,0.068 0.112,0.088 0.225,0.177 0.282,0.177 0.006,0 0.006,0 0.012,-0.01 C 0.817,1.846 0.842,1.743 0.868,1.605 0.904,1.413 0.943,1.154 0.97,0.904 0.983,0.871 1.012,0.814 1.041,0.763 L 1.08,0.715 1.09,0.721 C 1.105,0.705 1.121,0.689 1.138,0.683 1.258,0.615 1.406,0.649 1.506,0.761 1.511,0.767 1.514,0.776 1.519,0.785 1.612,0.911 1.654,1.105 1.625,1.352 L 2.139,0.348 2.183,0.522 C 2.242,0.749 2.359,1.183 2.432,1.377 L 2.443,1.405 2.069,1.972 1.522,2.808 1.519,2.813 C 1.488,2.849 1.394,2.906 1.268,2.906 1.2,2.906 1.138,2.886 1.084,2.856 L 0.16,2.532 C 0.02,2.484 -0.17,2.399 -0.244,2.333 L -1.031,1.405 V 1.386 c 0,-0.02 -0.003,-0.039 -0.006,-0.059 -0.014,-0.101 -0.034,-0.271 0.132,-0.402 0,0 0.002,-0.003 0.007,-0.005 L -0.053,0.03 C -0.045,0.022 -0.026,0.009 0,0"
             style="fill:#c00630;fill-opacity:1;fill-rule:nonzero;stroke:none"
             id="path195415"
             inkscape:connector-curvature="0" />
        </g>
        <g
           id="g195417"
           transform="translate(95.549,770.9312)">
          <path
             d="m 0,0 c -0.023,0.056 -0.105,0.028 -0.014,0.752 -0.24,-0.265 -0.431,-0.675 -0.47,-0.761 l 0.259,-0.602 c 0.136,-0.118 0.042,-0.332 0.005,-0.46 l -0.005,-0.016 -0.79,-1.343 -0.27,-0.066 -0.368,-0.57 c 0.1,0 0.224,0 0.38,-0.006 0.158,0.012 0.291,0.025 0.368,0.041 0.01,0.033 0.017,0.059 0.033,0.088 l 1.237,2.144 C 0.298,-0.638 0.137,-0.293 0,-0.005 V 0"
             style="fill:#c00630;fill-opacity:1;fill-rule:nonzero;stroke:none"
             id="path195419"
             inkscape:connector-curvature="0" />
        </g>
        <g
           id="g195421"
           transform="translate(90.6619,781.2033)">
          <path
             d="M 0,0 C 0,-0.003 0.153,-0.059 0.313,-0.048 0.449,-0.033 0.591,0.064 0.727,0.25 0.741,0.265 1.02,0.719 1.511,0.668 L 1.695,0.615 C 1.591,0.624 1.48,0.597 1.38,0.553 1.399,0.373 1.428,0.273 1.263,0.101 1.21,0.048 1.089,-0.005 1.025,-0.028 0.867,-0.078 0.738,-0.033 0.686,-0.019 0.605,-0.091 0.526,-0.141 0.435,-0.173 0.397,-0.185 0.358,-0.192 0.319,-0.198 0.083,-0.215 0,-0.006 0,0 m 1.837,-1.4 c 0.257,0.884 0.235,1.752 0.244,1.875 0.004,0.032 0,0.171 0.01,0.223 V 0.717 C 2.127,1.254 2.529,1.823 2.875,2.214 2.199,1.962 1.776,1.261 1.768,1.254 L 1.732,1.187 1.372,1.273 1.355,1.358 c 0,0.331 0,0.569 0.134,0.902 C 1.019,1.909 0.928,1.314 0.922,1.287 L 0.831,1.232 0.707,1.158 -0.352,0.469 C -0.536,0.359 -0.839,0.139 -0.765,-0.091 -0.77,-0.107 -0.773,-0.128 -0.777,-0.137 L -0.78,-0.141 h -0.004 l -0.009,-0.017 c -0.591,-0.588 -0.691,-0.995 -0.649,-1.242 0.011,-0.084 0.044,-0.151 0.07,-0.201 0.025,-0.036 0.109,-0.192 0.249,-0.273 0.064,-0.055 0.146,-0.095 0.245,-0.105 0,0 -0.107,0.393 0.423,0.579 0.145,0.053 0.345,0.088 0.61,0.097 C 0.148,-1.337 0.147,-1.366 0.132,-1.4 0.066,-1.69 -0.039,-2.065 -0.16,-2.298 -0.172,-2.315 -0.182,-2.338 -0.194,-2.353 -0.2,-2.363 -0.2,-2.368 -0.209,-2.378 l -0.003,-0.01 C -0.236,-2.493 -0.278,-2.545 -0.307,-2.604 V -2.612 L -0.352,-2.723 C -0.474,-2.909 -0.624,-3.158 -0.742,-3.38 -0.856,-3.586 -0.947,-3.773 -0.959,-3.872 L -0.97,-3.903 -0.981,-3.935 c -0.132,-0.295 -0.461,-1.129 -0.503,-1.666 0.134,0.01 0.208,0.08 0.208,0.08 l 0.116,0.137 c 0.05,-0.137 0.135,-0.318 0.251,-0.434 0.064,-0.066 0.147,-0.115 0.231,-0.115 0,0 0.079,0.033 0.173,0.115 0.129,0.114 0.276,0.322 0.293,0.691 v 0.013 l 0.187,-0.335 c 0.089,-0.166 0.178,-0.258 0.245,-0.253 0.099,0.008 0.209,0.184 0.253,0.278 l 0.095,0.237 0.157,-0.192 c 0.126,-0.156 0.245,-0.233 0.312,-0.216 0.086,0.025 0.158,0.21 0.183,0.327 l 0.049,0.243 0.186,-0.139 c 0.259,-0.187 0.368,-0.164 0.399,-0.142 0.07,0.043 0.102,0.2 0.102,0.269 v 0.114 c 0.862,-0.081 0.258,0.777 0.258,0.777 l -0.252,0.387 c -0.125,0.253 -0.2,0.512 -0.242,0.77 -0.084,0.507 -0.042,0.976 -0.005,1.224 0.045,0.123 0.086,0.244 0.122,0.365"
             style="fill:#c00630;fill-opacity:1;fill-rule:nonzero;stroke:none"
             id="path195423"
             inkscape:connector-curvature="0" />
        </g>
        <g
           id="g195425"
           transform="translate(103.5476,776.9247)">
          <path
             d="M 0,0 C -0.039,0.077 -0.255,0.299 -0.359,0.405 L -0.477,0.504 -0.881,0.83 c -1.149,0.709 -1.72,0.99 -2.688,1.465 -0.052,0.01 -0.39,0.197 -0.608,0.317 L -4.744,2.884 C -7.066,4.008 -8.28,4.132 -8.289,4.138 -9.273,4.347 -9.688,4.185 -9.921,4.06 -10.7,3.66 -10.266,3.045 -10.266,3.042 l 0.101,-0.164 0.922,-1.472 c 0,-0.005 0.007,-0.014 0.007,-0.023 0.047,-0.182 0.038,-0.449 -0.052,-0.602 -0.228,-0.38 -0.472,-0.542 -1.025,-0.56 0.064,-0.275 0.194,-0.358 0.122,-0.778 -0.032,-0.21 -0.234,-0.357 -0.451,-0.384 l -0.009,-0.034 c -0.028,-0.129 -0.095,-0.279 -0.239,-0.353 -0.141,-0.091 -0.328,-0.075 -0.541,0.041 -0.034,-0.084 -0.09,-0.176 -0.162,-0.252 -0.045,-0.049 -0.106,-0.092 -0.173,-0.11 -0.134,-0.04 -0.271,-0.002 -0.419,0.11 -0.021,0.014 -0.038,0.03 -0.056,0.048 -0.013,-0.013 -0.023,-0.034 -0.039,-0.048 -0.083,-0.11 -0.208,-0.219 -0.362,-0.228 -0.13,-0.01 -0.251,0.049 -0.365,0.17 -0.07,-0.132 -0.178,-0.266 -0.331,-0.31 l 0.011,-0.187 c -0.006,0 -0.038,-0.014 -0.14,0.021 l -0.026,0.018 c -0.013,0.001 -0.868,0.304 -1.499,0.516 -0.232,0.079 -0.438,0.147 -0.555,0.188 -0.016,0.005 -0.031,0.01 -0.043,0.014 l -0.024,0.009 -0.018,0.009 c -0.007,0.003 -0.037,0.021 -0.087,0.046 -0.124,0.009 -0.272,-0.018 -0.41,-0.146 -0.037,-0.036 -0.062,-0.062 -0.085,-0.08 -0.043,-0.068 -0.142,-0.196 -0.267,-0.299 l -0.622,-0.615 c -0.002,-0.004 -0.166,-0.144 -0.186,-0.388 l -0.06,-1.085 c -0.008,-0.183 0.08,-0.314 0.129,-0.351 0.08,-0.11 0.243,-0.28 0.449,-0.156 0,0 0.22,0.133 0.069,0.398 0,0 0.67,-0.498 0.67,0.06 l 0.006,0.374 c 0,0 0.362,-0.194 0.479,0 0,0 0.364,0.549 -0.42,0.674 l 0.22,0.81 2.992,-1.453 c 0.033,-0.022 0.058,-0.034 0.085,-0.05 0.279,0.016 0.268,0.519 0.268,0.519 l 0.397,0.546 0.158,0.324 c -0.008,-0.04 0.055,-0.61 -0.065,-0.881 0,0 0.123,-0.371 0.02,-0.662 0.254,0.106 0.323,0.132 0.531,0.19 l 0.442,0.071 v -0.003 c 0.021,0.006 0.052,0.003 0.069,0.006 l 0.054,0.007 c 0.09,0.012 0.139,0.012 0.246,0.012 l 0.203,-0.002 c 0.173,-0.005 0.221,-0.005 0.268,-0.002 0.051,0.043 0.259,0.149 0.323,0.184 0.351,0.16 0.614,0.179 0.702,0.24 L -9.307,-3.29 c -0.074,-0.1 -0.243,-0.239 -0.568,-0.764 -0.186,-0.302 -0.244,-0.587 -0.304,-0.785 l -0.003,-0.015 c -0.014,-0.014 -0.218,-0.363 0.087,-0.622 l 0.094,-0.105 c -0.008,0 0.048,-0.049 0.039,-0.049 0.148,-0.214 0.496,-0.733 0.56,-0.984 L -9.394,-6.627 -9.398,-6.64 C -9.405,-6.661 -9.49,-7.046 -9.735,-7.49 l -0.52,-0.743 -0.022,-0.027 -0.042,-0.017 c 0,0.003 -0.193,-0.11 -0.872,-0.034 -0.051,0.008 -0.107,0.022 -0.171,0.037 -0.065,0.01 -0.139,0.033 -0.218,0.055 -0.125,0.023 -0.248,0.013 -0.351,-0.092 -0.153,-0.238 -0.429,-0.669 -0.115,-0.792 h 0.009 c 0.04,-0.016 0.095,-0.022 0.163,-0.022 0,0 1.254,-0.093 1.541,0 0,0 0.084,0.05 0.19,0.256 l 1.295,1.818 0.006,0.005 c 0,0 0.094,0.137 0.126,0.278 0.02,0.085 -0.028,0.166 -0.115,0.248 l -0.007,0.01 -0.207,0.525 0.011,0.023 c 0.019,0.045 0.203,0.63 1.038,1.319 0.002,0 0.149,0.084 0.158,0.092 l 0.034,0.007 c 0.003,0.007 0.011,0.012 0.011,0.014 0.006,0.004 0.072,0.037 0.078,0.044 0.045,0.023 0.028,0.023 0.071,0.053 0.785,0.557 1.045,1.316 0.47,1.942 -0.003,0.01 -0.082,0.088 -0.085,0.096 l -1.392,0.856 -0.339,0.211 c 0.257,0.012 1.217,-0.367 1.443,0.163 0.052,0.042 0.073,0.107 0.069,0.19 0.002,0.013 0.004,0.025 0.014,0.042 0.006,0 0.016,0.004 0.033,0.005 0.187,0.031 0.772,0.176 0.741,0.453 0.049,0 1.4,0.04 1.361,0.246 0,0 1.921,-0.207 2.195,0.25 l 0.017,0.007 0.021,-0.007 c 0.79,-0.246 1.543,-0.114 1.557,-0.113 l 0.02,0.007 0.018,-0.011 c 0.834,-0.387 1.425,-0.075 1.431,-0.072 l 0.031,0.013 0.02,0.014 C 0.006,-0.108 0.04,-0.078 0,0"
             style="fill:#c00630;fill-opacity:1;fill-rule:nonzero;stroke:none"
             id="path195427"
             inkscape:connector-curvature="0" />
        </g>
        <g
           id="g195429"
           transform="translate(99.3599,772.3344)">
          <path
             d="m 0,0 -0.049,0.011 c -0.935,-0.035 -1.77,1.361 -1.793,1.395 -0.219,0.443 -0.5,0.671 -0.709,0.79 0.129,-0.193 0.217,-0.354 0.252,-0.724 0.153,-0.153 0.277,-0.309 0.521,-0.653 0.01,-0.004 0.538,-0.954 1.419,-1.086 0.748,-0.115 1.401,0.082 2.211,0.77 l 0.122,0.013 c 0.491,-0.032 0.732,0.516 0.732,0.516 -0.063,-0.079 -0.144,0 -0.144,0 0.107,0.019 0.113,0.2 0.113,0.2 C 2.66,1.215 2.653,1.08 2.248,1.166 1.89,1.238 1.783,0.887 1.763,0.802 L 1.718,0.689 C 1.035,0.182 0.624,0.031 0,0"
             style="fill:#c00630;fill-opacity:1;fill-rule:nonzero;stroke:none"
             id="path195431"
             inkscape:connector-curvature="0" />
        </g>
      </g>
    </g>
  </g>
</svg>
