<?xml version="1.0" encoding="UTF-8" standalone="no"?>
<svg
   xmlns:dc="http://purl.org/dc/elements/1.1/"
   xmlns:cc="http://creativecommons.org/ns#"
   xmlns:rdf="http://www.w3.org/1999/02/22-rdf-syntax-ns#"
   xmlns:svg="http://www.w3.org/2000/svg"
   xmlns="http://www.w3.org/2000/svg"
   xmlns:sodipodi="http://sodipodi.sourceforge.net/DTD/sodipodi-0.dtd"
   xmlns:inkscape="http://www.inkscape.org/namespaces/inkscape"
   width="14.5631mm"
   height="17.07942mm"
   viewBox="0 0 14.5631 17.07942"
   version="1.1"
   id="svg21032"
   inkscape:version="1.0.1 (3bc2e813f5, 2020-09-07)"
   sodipodi:docname="salesian-college-sunbury.svg">
  <defs
     id="defs21026" />
  <sodipodi:namedview
     id="base"
     pagecolor="#ffffff"
     bordercolor="#666666"
     borderopacity="1.0"
     inkscape:pageopacity="0.0"
     inkscape:pageshadow="2"
     inkscape:zoom="2.8"
     inkscape:cx="151.01779"
     inkscape:cy="-4.5420551"
     inkscape:document-units="mm"
     inkscape:current-layer="g40583"
     showgrid="false"
     fit-margin-top="0"
     fit-margin-left="0"
     fit-margin-right="0"
     fit-margin-bottom="0"
     inkscape:pagecheckerboard="true"
     inkscape:window-width="1920"
     inkscape:window-height="1000"
     inkscape:window-x="1920"
     inkscape:window-y="0"
     inkscape:window-maximized="1"
     inkscape:document-rotation="0" />
  <metadata
     id="metadata21029">
    <rdf:RDF>
      <cc:Work
         rdf:about="">
        <dc:format>image/svg+xml</dc:format>
        <dc:type
           rdf:resource="http://purl.org/dc/dcmitype/StillImage" />
        <dc:title />
      </cc:Work>
    </rdf:RDF>
  </metadata>
  <g
     inkscape:label="Layer 1"
     inkscape:groupmode="layer"
     id="layer1"
     transform="translate(208.20661,182.961)">
    <g
       id="g40647">
      <g
         id="g40583">
        <path
           inkscape:connector-curvature="0"
           style="fill:#fdc230;fill-opacity:1;fill-rule:nonzero;stroke:none;stroke-width:0.352778"
           d="m -204.2668,-177.01615 c -0.17777,-0.41892 -0.59394,-0.71382 -1.07763,-0.71382 -0.64492,0 -1.16995,0.52503 -1.16995,1.16995 0,0.6463 0.52503,1.17134 1.16995,1.17134 0.48369,0 0.89986,-0.2949 1.07763,-0.71383 h 0.90812 c -0.16674,-0.22737 -0.30592,-0.65181 -0.33486,-0.91364 z m -1.07763,0.81442 c -0.19706,0 -0.35691,-0.16123 -0.35691,-0.35829 0,-0.19705 0.15985,-0.35691 0.35691,-0.35691 0.19706,0 0.35829,0.15986 0.35829,0.35691 0,0.19706 -0.16123,0.35829 -0.35829,0.35829"
           id="path39674" />
        <path
           inkscape:connector-curvature="0"
           style="fill:#fdc230;fill-opacity:1;fill-rule:nonzero;stroke:none;stroke-width:0.352778"
           d="m -193.64351,-174.8292 c 0,-3.70279 -2.68028,-6.77995 -6.16947,-7.32703 -0.15434,-0.46578 -0.59394,-0.80477 -1.11208,-0.80477 -0.51676,0 -0.95636,0.33899 -1.1107,0.80477 -3.48919,0.54708 -6.17085,3.62424 -6.17085,7.32703 0,1.40973 0.66559,2.93384 1.24436,3.77307 l 0.0441,0.0675 0.565,-0.42443 -0.0427,-0.0717 c -0.59256,-1.00735 -0.90537,-2.16352 -0.90537,-3.3445 0,-3.22737 2.3151,-5.91454 5.33852,-6.42166 0.12678,0.24254 0.33624,0.43546 0.59118,0.54019 v 3.69452 h -0.81718 c 0.0482,0.25356 0.37483,0.70005 0.6022,0.91364 l 0.21498,0.19706 v 3.01239 c -0.26734,-0.15571 -0.6215,-0.27423 -1.08314,-0.27423 -1.27744,0 -1.96646,0.95085 -1.96646,1.8452 0,0.74965 0.4203,1.42213 1.18236,1.89067 0.66008,0.4079 1.52135,0.63114 2.42534,0.63114 1.99265,0 3.38584,-1.1548 3.38584,-2.80844 0,-1.54754 -1.4869,-2.53697 -2.57279,-3.25906 -0.0606,-0.04 -0.12403,-0.0813 -0.1888,-0.12403 v 1.09692 c 0.8599,0.58429 1.84658,1.34634 1.84658,2.28617 0,1.30913 -1.24162,1.8948 -2.47083,1.8948 -1.29535,0 -2.69406,-0.61461 -2.69406,-1.60817 0,-0.46302 0.32659,-0.93018 1.05282,-0.93018 0.95774,0 1.08314,0.52228 1.08314,0.78686 v 1.34497 c 0.16123,0.0799 0.73174,0.0799 0.89297,0 l 0.001,-5.98207 h 2.89525 c 0.17777,0.41893 0.59394,0.71383 1.07763,0.71383 0.64492,0 1.16858,-0.52504 1.16858,-1.16996 0,-0.64492 -0.52366,-1.16995 -1.16858,-1.16995 -0.48369,0 -0.89986,0.29352 -1.07763,0.71244 h -2.89525 v -0.28249 c 1.67707,-0.0152 2.02985,-0.84888 2.02985,-1.54892 0,-0.69315 -0.46991,-1.42765 -1.74184,-1.59163 v 0.92604 c 0.39549,0.0703 0.8282,0.24391 0.8282,0.66559 0,0.24943 0,0.62563 -1.11621,0.6339 v -2.49701 c 0.25356,-0.10473 0.4644,-0.29765 0.59117,-0.54019 3.02342,0.50712 5.33715,3.19429 5.33715,6.42166 0,1.18787 -0.31557,2.34956 -0.91364,3.35966 l -0.0331,0.0565 0.56499,0.42443 0.0441,-0.0675 c 0.57878,-0.83923 1.243,-2.36334 1.243,-3.77307 m -7.28156,-6.60356 c -0.19706,0 -0.35691,-0.15985 -0.35691,-0.35829 0,-0.19706 0.15985,-0.35691 0.35691,-0.35691 0.19706,0 0.35829,0.15985 0.35829,0.35691 0,0.19844 -0.16123,0.35829 -0.35829,0.35829 m 4.42075,4.51583 c 0.19568,0 0.35691,0.15986 0.35691,0.35829 0,0.19568 -0.16123,0.35691 -0.35691,0.35691 -0.19844,0 -0.35829,-0.16123 -0.35829,-0.35691 0,-0.19843 0.15985,-0.35829 0.35829,-0.35829"
           id="path39676" />
        <path
           inkscape:connector-curvature="0"
           style="fill:#fdc230;fill-opacity:1;fill-rule:nonzero;stroke:none;stroke-width:0.352778"
           d="m -201.65955,-174.67072 v -1.1672 c -0.50988,-0.45889 -0.89573,-1.01148 -0.89573,-1.7198 0,-0.67799 0.32246,-1.37252 0.89573,-1.73908 v -1.01837 c -1.14791,0.41892 -1.80937,1.60404 -1.80937,2.75745 0,1.35462 0.8971,2.2338 1.80937,2.887"
           id="path39678" />
        <path
           inkscape:connector-curvature="0"
           style="fill:#fdc230;fill-opacity:1;fill-rule:nonzero;stroke:none;stroke-width:0.352778"
           d="m -195.85801,-170.87699 c -1.21819,1.62471 -3.06476,2.55627 -5.06705,2.55627 -2.00091,0 -3.84748,-0.93156 -5.06567,-2.55627 l -0.051,-0.0675 -0.52779,0.3955 h 0.001 c 0.18604,0.50712 0.26459,1.49793 0.19155,2.04363 l 0.6587,0.19017 0.23289,-0.73036 c 1.00183,0.82269 2.19522,1.35599 3.47817,1.54891 -0.0565,0.13781 -0.0882,0.28801 -0.0882,0.44511 0,0.64492 0.52503,1.16995 1.16995,1.16995 0.6463,0 1.16996,-0.52503 1.16996,-1.16995 0,-0.1571 -0.0303,-0.3073 -0.0868,-0.44511 1.28157,-0.19154 2.47495,-0.72622 3.47541,-1.54753 l 0.23289,0.72898 0.6587,-0.19017 c -0.0717,-0.5457 0.005,-1.53651 0.19293,-2.04363 h 10e-4 l -0.52779,-0.3955 z m -5.06705,4.18235 c -0.19706,0 -0.35691,-0.15985 -0.35691,-0.35691 0,-0.19706 0.15985,-0.35829 0.35691,-0.35829 0.19844,0 0.35829,0.16123 0.35829,0.35829 0,0.19706 -0.15985,0.35691 -0.35829,0.35691"
           id="path39680" />
      </g>
    </g>
  </g>
</svg>
