<?xml version="1.0" encoding="UTF-8" standalone="no"?>
<svg
   width="22.618147mm"
   height="21.564173mm"
   viewBox="0 0 22.618148 21.564173"
   version="1.1"
   id="svg67976"
   xmlns="http://www.w3.org/2000/svg"
   xmlns:svg="http://www.w3.org/2000/svg"
   xmlns:rdf="http://www.w3.org/1999/02/22-rdf-syntax-ns#"
   xmlns:cc="http://creativecommons.org/ns#"
   xmlns:dc="http://purl.org/dc/elements/1.1/">
  <defs
     id="defs67970">
    <clipPath
       id="clipPath198515"
       clipPathUnits="userSpaceOnUse">
      <path
         id="path198513"
         d="M 0,0 H 595.276 V 841.89 H 0 Z" />
    </clipPath>
    <clipPath
       id="clipPath198759"
       clipPathUnits="userSpaceOnUse">
      <path
         id="path198757"
         d="M 0,0 H 595.276 V 841.89 H 0 Z" />
    </clipPath>
    <clipPath
       id="clipPath198775"
       clipPathUnits="userSpaceOnUse">
      <path
         id="path198773"
         d="M 0,0 H 595.276 V 841.89 H 0 Z" />
    </clipPath>
    <clipPath
       id="clipPath198799"
       clipPathUnits="userSpaceOnUse">
      <path
         id="path198797"
         d="M 0,0 H 595.276 V 841.89 H 0 Z" />
    </clipPath>
    <clipPath
       id="clipPath198827"
       clipPathUnits="userSpaceOnUse">
      <path
         id="path198825"
         d="M 0,0 H 595.276 V 841.89 H 0 Z" />
    </clipPath>
    <clipPath
       id="clipPath198847"
       clipPathUnits="userSpaceOnUse">
      <path
         id="path198845"
         d="M 0,0 H 595.276 V 841.89 H 0 Z" />
    </clipPath>
    <clipPath
       id="clipPath198867"
       clipPathUnits="userSpaceOnUse">
      <path
         id="path198865"
         d="M 0,0 H 595.276 V 841.89 H 0 Z" />
    </clipPath>
    <clipPath
       id="clipPath198891"
       clipPathUnits="userSpaceOnUse">
      <path
         id="path198889"
         d="M 0,0 H 595.276 V 841.89 H 0 Z" />
    </clipPath>
    <clipPath
       id="clipPath198917"
       clipPathUnits="userSpaceOnUse">
      <path
         id="path198915"
         d="M 0,0 H 595.276 V 841.89 H 0 Z" />
    </clipPath>
    <clipPath
       id="clipPath198949"
       clipPathUnits="userSpaceOnUse">
      <path
         id="path198947"
         d="M 0,0 H 595.276 V 841.89 H 0 Z" />
    </clipPath>
  </defs>
  <metadata
     id="metadata67973">
    <rdf:RDF>
      <cc:Work
         rdf:about="">
        <dc:format>image/svg+xml</dc:format>
        <dc:type
           rdf:resource="http://purl.org/dc/dcmitype/StillImage" />
        <dc:title />
      </cc:Work>
    </rdf:RDF>
  </metadata>
  <g
     id="layer1"
     transform="translate(1418.7633,745.01669)">
    <g
       id="g200377"
       transform="translate(-88.28673,1.9504377)">
      <g
         id="g200168">
        <g
           id="g198509"
           transform="matrix(0.35277777,0,0,-0.35277777,-1342.7462,-466.21716)">
          <g
             id="g198511"
             clip-path="url(#clipPath198515)">
            <g
               id="g198517"
               transform="translate(84.534699,770.1418)">
              <path
                 d="m 0,0 c 3.522,7.499 4.09,10.453 4.09,14.544 0,4.09 -2.386,10.794 -10.566,10.794 -8.182,0 -11.363,-7.043 -11.363,-7.043 0,0 -3.181,7.043 -11.362,7.043 -8.18,0 -10.566,-6.704 -10.566,-10.794 0,-4.091 0.568,-7.045 4.09,-14.544 3.522,-7.499 5.567,-14.316 -2.159,-15.907 l 3.181,-3.749 c 0,0 4.659,3.978 16.816,3.978 12.158,0 16.816,-3.978 16.816,-3.978 l 3.182,3.749 C -5.568,-14.316 -3.522,-7.499 0,0 m -20.452,4.431 c -0.113,-3.522 -0.009,-6.589 -0.113,-9.317 -0.114,-2.954 -2.046,-4.885 -4.091,-5.567 -2.118,-0.706 -4.886,-1.25 -4.886,-1.25 1.023,1.591 1.023,4.772 -0.454,8.635 -1.477,3.864 -3.182,7.954 -4.659,13.18 -1.477,5.227 -0.113,8.068 1.932,9.658 2.045,1.591 7.385,1.704 9.999,-1.477 2.613,-3.181 2.386,-10.339 2.272,-13.862 m 14.317,-16.134 c 0,0 -2.769,0.544 -4.887,1.25 -2.045,0.682 -3.976,2.613 -4.09,5.567 -0.104,2.728 0,5.795 -0.113,9.317 -0.114,3.523 -0.341,10.681 2.272,13.862 2.614,3.181 7.953,3.068 9.999,1.477 2.045,-1.59 3.408,-4.431 1.931,-9.658 -1.476,-5.226 -3.181,-9.316 -4.658,-13.18 -1.478,-3.863 -1.477,-7.044 -0.454,-8.635"
                 style="fill:#173a79;fill-opacity:1;fill-rule:nonzero;stroke:none"
                 id="path198519" />
            </g>
            <g
               id="g198521"
               transform="translate(66.696197,789.16769)">
              <path
                 d="m 0,0 c -0.995,1.716 -4.458,6.659 -11.362,6.659 -8.633,0 -10.914,-7.288 -10.914,-11.141 0,-4.17 0.573,-7.133 4.123,-14.692 2.119,-4.51 4.08,-9.53 2.564,-12.558 -0.729,-1.454 -2.194,-2.39 -4.478,-2.861 l -0.574,-0.118 3.785,-4.461 0.265,0.225 c 0.046,0.039 4.735,3.896 16.591,3.896 11.856,0 16.545,-3.857 16.591,-3.896 l 0.265,-0.224 0.225,0.264 3.56,4.196 -0.573,0.118 c -2.285,0.471 -3.751,1.407 -4.479,2.861 -1.516,3.028 0.445,8.047 2.564,12.558 3.55,7.56 4.123,10.522 4.123,14.692 0,3.853 -2.281,11.141 -10.914,11.141 C 4.457,6.659 0.995,1.716 0,0 m 0.316,-0.875 c 0.032,0.069 3.194,6.839 11.046,6.839 8.067,0 10.219,-6.566 10.219,-10.446 0,-4.06 -0.563,-6.958 -4.057,-14.396 -1.696,-3.611 -3.175,-7.27 -3.175,-10.259 0,-1.064 0.187,-2.043 0.619,-2.905 0.753,-1.505 2.26,-2.522 4.418,-3.075 -0.51,-0.601 -2.293,-2.702 -2.621,-3.089 -1.167,0.841 -6.087,3.849 -16.765,3.849 -10.677,0 -15.598,-3.008 -16.765,-3.849 -0.328,0.387 -2.111,2.488 -2.621,3.089 2.158,0.553 3.664,1.57 4.418,3.075 0.432,0.862 0.619,1.841 0.619,2.905 0,2.989 -1.479,6.648 -3.175,10.259 -3.494,7.438 -4.058,10.336 -4.058,14.396 0,3.88 2.153,10.446 10.22,10.446 7.851,0 11.014,-6.77 11.046,-6.839 L 0,-1.571 Z"
                 style="fill:#fbbf16;fill-opacity:1;fill-rule:nonzero;stroke:none"
                 id="path198523" />
            </g>
            <g
               id="g198525"
               transform="translate(51.598496,790.1862)">
              <path
                 d="m 0,0 c -2.658,-2.067 -3.349,-5.441 -2.052,-10.026 1.227,-4.345 2.58,-7.827 3.889,-11.195 l 0.779,-2.015 c 1.605,-4.198 1.304,-7.052 0.487,-8.323 l -0.441,-0.686 0.799,0.157 c 0.028,0.006 2.815,0.556 4.929,1.261 1.917,0.639 4.2,2.564 4.328,5.884 l 0.054,4.285 0.059,5.034 C 12.945,-12.116 13.18,-4.818 10.48,-1.531 7.801,1.731 2.222,1.729 0,0 m 4.455,-28.693 c 0,1.66 -0.4,3.638 -1.19,5.705 l -0.781,2.018 c -1.302,3.353 -2.649,6.82 -3.868,11.133 -0.404,1.428 -0.605,2.728 -0.605,3.895 0,2.336 0.807,4.142 2.415,5.394 2.012,1.564 7.076,1.549 9.517,-1.424 1.923,-2.34 2.254,-7.004 2.254,-10.613 0,-1.149 -0.033,-2.191 -0.06,-3.017 l -0.06,-5.056 -0.053,-4.259 c -0.114,-2.965 -2.147,-4.682 -3.854,-5.251 -1.441,-0.481 -3.19,-0.885 -4.141,-1.091 0.285,0.712 0.426,1.582 0.426,2.566"
                 style="fill:#fbbf16;fill-opacity:1;fill-rule:nonzero;stroke:none"
                 id="path198527" />
            </g>
            <g
               id="g198529"
               transform="translate(71.313797,788.6553)">
              <path
                 d="m 0,0 c -2.701,-3.288 -2.465,-10.586 -2.351,-14.093 l 0.059,-5.033 0.054,-4.286 c 0.128,-3.321 2.411,-5.245 4.328,-5.884 2.114,-0.705 4.901,-1.256 4.929,-1.261 l 0.8,-0.157 -0.441,0.685 c -0.818,1.272 -1.119,4.127 0.486,8.324 l 0.783,2.025 c 1.307,3.365 2.659,6.845 3.886,11.185 1.295,4.585 0.605,7.959 -2.053,10.026 C 8.258,3.26 2.679,3.261 0,0 m 2.309,-28.637 c -1.706,0.569 -3.739,2.285 -3.853,5.251 l -0.053,4.261 -0.06,5.054 c -0.027,0.827 -0.061,1.871 -0.061,3.022 0,3.608 0.333,8.269 2.254,10.608 2.442,2.973 7.506,2.988 9.517,1.424 1.609,-1.252 2.416,-3.059 2.416,-5.394 0,-1.168 -0.201,-2.467 -0.605,-3.896 -1.217,-4.308 -2.563,-7.772 -3.865,-11.122 l -0.783,-2.028 c -0.791,-2.067 -1.192,-4.045 -1.192,-5.704 0,-0.984 0.143,-1.855 0.427,-2.567 -0.951,0.206 -2.7,0.61 -4.142,1.091"
                 style="fill:#fbbf16;fill-opacity:1;fill-rule:nonzero;stroke:none"
                 id="path198531" />
            </g>
            <g
               id="g198533"
               transform="translate(70.885803,757.625)">
              <path
                 d="m 0,0 c 0,-0.486 -0.394,-0.879 -0.879,-0.879 -0.485,0 -0.879,0.393 -0.879,0.879 0,0.486 0.394,0.879 0.879,0.879 C -0.394,0.879 0,0.486 0,0"
                 style="fill:#007d61;fill-opacity:1;fill-rule:nonzero;stroke:none"
                 id="path198535" />
            </g>
            <g
               id="g198537"
               transform="translate(68.879898,757.625)">
              <path
                 d="m 0,0 c 0,-0.621 0.505,-1.127 1.127,-1.127 0.621,0 1.127,0.506 1.127,1.127 0,0.621 -0.506,1.127 -1.127,1.127 C 0.505,1.127 0,0.621 0,0 m 0.496,0 c 0,0.348 0.283,0.631 0.631,0.631 0.348,0 0.631,-0.283 0.631,-0.631 0,-0.348 -0.283,-0.631 -0.631,-0.631 -0.348,0 -0.631,0.283 -0.631,0.631"
                 style="fill:#fbbf16;fill-opacity:1;fill-rule:nonzero;stroke:none"
                 id="path198539" />
            </g>
            <g
               id="g198541"
               transform="translate(73.9814,756.98849)">
              <path
                 d="m 0,0 c 0,-0.486 -0.394,-0.879 -0.879,-0.879 -0.485,0 -0.879,0.393 -0.879,0.879 0,0.486 0.394,0.879 0.879,0.879 C -0.394,0.879 0,0.486 0,0"
                 style="fill:#007d61;fill-opacity:1;fill-rule:nonzero;stroke:none"
                 id="path198543" />
            </g>
            <g
               id="g198545"
               transform="translate(71.9758,756.98849)">
              <path
                 d="m 0,0 c 0,-0.621 0.505,-1.127 1.126,-1.127 0.622,0 1.128,0.506 1.128,1.127 0,0.621 -0.506,1.127 -1.128,1.127 C 0.505,1.127 0,0.621 0,0 m 0.496,0 c 0,0.348 0.283,0.631 0.63,0.631 0.349,0 0.632,-0.283 0.632,-0.631 0,-0.348 -0.283,-0.631 -0.632,-0.631 -0.347,0 -0.63,0.283 -0.63,0.631"
                 style="fill:#fbbf16;fill-opacity:1;fill-rule:nonzero;stroke:none"
                 id="path198547" />
            </g>
            <g
               id="g198549"
               transform="translate(77.048203,756.1489)">
              <path
                 d="m 0,0 c 0,-0.486 -0.394,-0.879 -0.879,-0.879 -0.485,0 -0.878,0.393 -0.878,0.879 0,0.486 0.393,0.879 0.878,0.879 C -0.394,0.879 0,0.486 0,0"
                 style="fill:#007d61;fill-opacity:1;fill-rule:nonzero;stroke:none"
                 id="path198551" />
            </g>
            <g
               id="g198553"
               transform="translate(75.042602,756.1489)">
              <path
                 d="m 0,0 c 0,-0.621 0.505,-1.127 1.126,-1.127 0.622,0 1.128,0.506 1.128,1.127 0,0.621 -0.506,1.127 -1.128,1.127 C 0.505,1.127 0,0.621 0,0 m 0.496,0 c 0,0.348 0.283,0.631 0.63,0.631 0.348,0 0.631,-0.283 0.631,-0.631 0,-0.348 -0.283,-0.631 -0.631,-0.631 -0.347,0 -0.63,0.283 -0.63,0.631"
                 style="fill:#fbbf16;fill-opacity:1;fill-rule:nonzero;stroke:none"
                 id="path198555" />
            </g>
            <g
               id="g198557"
               transform="translate(80.086395,755.16521)">
              <path
                 d="m 0,0 c 0,-0.486 -0.394,-0.879 -0.879,-0.879 -0.485,0 -0.878,0.393 -0.878,0.879 0,0.486 0.393,0.879 0.878,0.879 C -0.394,0.879 0,0.486 0,0"
                 style="fill:#007d61;fill-opacity:1;fill-rule:nonzero;stroke:none"
                 id="path198559" />
            </g>
            <g
               id="g198561"
               transform="translate(78.080795,755.16521)">
              <path
                 d="m 0,0 c 0,-0.621 0.505,-1.127 1.126,-1.127 0.622,0 1.128,0.506 1.128,1.127 0,0.621 -0.506,1.127 -1.128,1.127 C 0.505,1.127 0,0.621 0,0 m 0.496,0 c 0,0.348 0.283,0.631 0.63,0.631 0.349,0 0.631,-0.283 0.631,-0.631 0,-0.348 -0.282,-0.631 -0.631,-0.631 -0.347,0 -0.63,0.283 -0.63,0.631"
                 style="fill:#fbbf16;fill-opacity:1;fill-rule:nonzero;stroke:none"
                 id="path198563" />
            </g>
            <g
               id="g198565"
               transform="translate(83.143997,753.8632)">
              <path
                 d="m 0,0 c 0,-0.486 -0.394,-0.879 -0.879,-0.879 -0.485,0 -0.879,0.393 -0.879,0.879 0,0.486 0.394,0.879 0.879,0.879 C -0.394,0.879 0,0.486 0,0"
                 style="fill:#007d61;fill-opacity:1;fill-rule:nonzero;stroke:none"
                 id="path198567" />
            </g>
            <g
               id="g198569"
               transform="translate(81.138397,753.8632)">
              <path
                 d="m 0,0 c 0,-0.621 0.505,-1.127 1.126,-1.127 0.622,0 1.128,0.506 1.128,1.127 0,0.621 -0.506,1.127 -1.128,1.127 C 0.505,1.127 0,0.621 0,0 m 0.496,0 c 0,0.348 0.283,0.631 0.63,0.631 0.349,0 0.632,-0.283 0.632,-0.631 0,-0.348 -0.283,-0.631 -0.632,-0.631 -0.347,0 -0.63,0.283 -0.63,0.631"
                 style="fill:#fbbf16;fill-opacity:1;fill-rule:nonzero;stroke:none"
                 id="path198571" />
            </g>
            <g
               id="g198573"
               transform="translate(62.507004,757.625)">
              <path
                 d="m 0,0 c 0,-0.486 0.394,-0.879 0.879,-0.879 0.485,0 0.879,0.393 0.879,0.879 0,0.486 -0.394,0.879 -0.879,0.879 C 0.394,0.879 0,0.486 0,0"
                 style="fill:#007d61;fill-opacity:1;fill-rule:nonzero;stroke:none"
                 id="path198575" />
            </g>
            <g
               id="g198577"
               transform="translate(62.258896,757.625)">
              <path
                 d="m 0,0 c 0,-0.621 0.506,-1.127 1.127,-1.127 0.622,0 1.127,0.506 1.127,1.127 0,0.621 -0.505,1.127 -1.127,1.127 C 0.506,1.127 0,0.621 0,0 m 0.496,0 c 0,0.348 0.283,0.631 0.631,0.631 0.348,0 0.631,-0.283 0.631,-0.631 0,-0.348 -0.283,-0.631 -0.631,-0.631 -0.348,0 -0.631,0.283 -0.631,0.631"
                 style="fill:#fbbf16;fill-opacity:1;fill-rule:nonzero;stroke:none"
                 id="path198579" />
            </g>
            <g
               id="g198581"
               transform="translate(59.410995,756.98849)">
              <path
                 d="m 0,0 c 0,-0.486 0.394,-0.879 0.879,-0.879 0.485,0 0.879,0.393 0.879,0.879 0,0.486 -0.394,0.879 -0.879,0.879 C 0.394,0.879 0,0.486 0,0"
                 style="fill:#007d61;fill-opacity:1;fill-rule:nonzero;stroke:none"
                 id="path198583" />
            </g>
            <g
               id="g198585"
               transform="translate(59.162994,756.98849)">
              <path
                 d="m 0,0 c 0,-0.621 0.506,-1.127 1.127,-1.127 0.622,0 1.127,0.506 1.127,1.127 0,0.621 -0.505,1.127 -1.127,1.127 C 0.506,1.127 0,0.621 0,0 m 0.496,0 c 0,0.348 0.283,0.631 0.631,0.631 0.348,0 0.631,-0.283 0.631,-0.631 0,-0.348 -0.283,-0.631 -0.631,-0.631 -0.348,0 -0.631,0.283 -0.631,0.631"
                 style="fill:#fbbf16;fill-opacity:1;fill-rule:nonzero;stroke:none"
                 id="path198587" />
            </g>
            <g
               id="g198589"
               transform="translate(56.344192,756.1489)">
              <path
                 d="m 0,0 c 0,-0.486 0.394,-0.879 0.879,-0.879 0.485,0 0.879,0.393 0.879,0.879 0,0.486 -0.394,0.879 -0.879,0.879 C 0.394,0.879 0,0.486 0,0"
                 style="fill:#007d61;fill-opacity:1;fill-rule:nonzero;stroke:none"
                 id="path198591" />
            </g>
            <g
               id="g198593"
               transform="translate(56.0961,756.1489)">
              <path
                 d="m 0,0 c 0,-0.621 0.506,-1.127 1.127,-1.127 0.622,0 1.127,0.506 1.127,1.127 0,0.621 -0.505,1.127 -1.127,1.127 C 0.506,1.127 0,0.621 0,0 m 0.496,0 c 0,0.348 0.283,0.631 0.631,0.631 0.348,0 0.631,-0.283 0.631,-0.631 0,-0.348 -0.283,-0.631 -0.631,-0.631 -0.348,0 -0.631,0.283 -0.631,0.631"
                 style="fill:#fbbf16;fill-opacity:1;fill-rule:nonzero;stroke:none"
                 id="path198595" />
            </g>
            <g
               id="g198597"
               transform="translate(53.306,755.16521)">
              <path
                 d="m 0,0 c 0,-0.486 0.394,-0.879 0.879,-0.879 0.485,0 0.879,0.393 0.879,0.879 0,0.486 -0.394,0.879 -0.879,0.879 C 0.394,0.879 0,0.486 0,0"
                 style="fill:#007d61;fill-opacity:1;fill-rule:nonzero;stroke:none"
                 id="path198599" />
            </g>
            <g
               id="g198601"
               transform="translate(53.057907,755.16521)">
              <path
                 d="m 0,0 c 0,-0.621 0.506,-1.127 1.127,-1.127 0.622,0 1.127,0.506 1.127,1.127 0,0.621 -0.505,1.127 -1.127,1.127 C 0.506,1.127 0,0.621 0,0 m 0.496,0 c 0,0.348 0.283,0.631 0.631,0.631 0.348,0 0.631,-0.283 0.631,-0.631 0,-0.348 -0.283,-0.631 -0.631,-0.631 -0.348,0 -0.631,0.283 -0.631,0.631"
                 style="fill:#fbbf16;fill-opacity:1;fill-rule:nonzero;stroke:none"
                 id="path198603" />
            </g>
            <g
               id="g198605"
               transform="translate(50.248398,753.8632)">
              <path
                 d="m 0,0 c 0,-0.486 0.394,-0.879 0.879,-0.879 0.485,0 0.879,0.393 0.879,0.879 0,0.486 -0.394,0.879 -0.879,0.879 C 0.394,0.879 0,0.486 0,0"
                 style="fill:#007d61;fill-opacity:1;fill-rule:nonzero;stroke:none"
                 id="path198607" />
            </g>
            <g
               id="g198609"
               transform="translate(50.000397,753.8632)">
              <path
                 d="m 0,0 c 0,-0.621 0.506,-1.127 1.127,-1.127 0.622,0 1.127,0.506 1.127,1.127 0,0.621 -0.505,1.127 -1.127,1.127 C 0.506,1.127 0,0.621 0,0 m 0.496,0 c 0,0.348 0.283,0.631 0.631,0.631 0.348,0 0.631,-0.283 0.631,-0.631 0,-0.348 -0.283,-0.631 -0.631,-0.631 -0.348,0 -0.631,0.283 -0.631,0.631"
                 style="fill:#fbbf16;fill-opacity:1;fill-rule:nonzero;stroke:none"
                 id="path198611" />
            </g>
            <g
               id="g198613"
               transform="translate(67.575302,757.94749)">
              <path
                 d="m 0,0 c 0,-0.486 -0.394,-0.879 -0.879,-0.879 -0.485,0 -0.879,0.393 -0.879,0.879 0,0.486 0.394,0.879 0.879,0.879 C -0.394,0.879 0,0.486 0,0"
                 style="fill:#007d61;fill-opacity:1;fill-rule:nonzero;stroke:none"
                 id="path198615" />
            </g>
            <g
               id="g198617"
               transform="translate(65.569397,757.94749)">
              <path
                 d="m 0,0 c 0,-0.621 0.505,-1.127 1.127,-1.127 0.621,0 1.127,0.506 1.127,1.127 0,0.621 -0.506,1.127 -1.127,1.127 C 0.505,1.127 0,0.621 0,0 m 0.496,0 c 0,0.348 0.283,0.631 0.631,0.631 0.348,0 0.631,-0.283 0.631,-0.631 0,-0.348 -0.283,-0.631 -0.631,-0.631 -0.348,0 -0.631,0.283 -0.631,0.631"
                 style="fill:#fbbf16;fill-opacity:1;fill-rule:nonzero;stroke:none"
                 id="path198619" />
            </g>
            <g
               id="g198621"
               transform="translate(56.802902,788.0007)">
              <path
                 d="m 0,0 c 0,0 -1.102,-0.482 -1.822,-0.797 -1.423,0.764 -4.135,1.662 -7.035,1.662 -3.859,0 -9.602,-2.189 -9.602,-8.218 0,-7.042 6.438,-9.128 13.396,-10.333 4.67,-0.809 4.382,-2.677 4.287,-3.291 -0.2,-1.297 -1.634,-2.168 -3.569,-2.168 -5.758,0 -11.741,4.746 -11.801,4.794 l -4.194,3.365 2.047,-4.994 c 0.006,-0.016 0.644,-1.617 1.238,-7.015 l 0.211,-1.909 c 0,0 3.388,1.546 4.18,1.907 1.424,-0.725 4.993,-2.308 9.071,-2.308 3.284,0 9.496,1.958 9.496,9.368 0,6.811 -6.301,8.26 -11.862,9.539 l -2.081,0.491 c -2.423,0.601 -3.779,1.868 -3.455,3.228 0.162,0.683 1.158,1.373 3.016,1.373 5.128,0 9.402,-3.697 9.444,-3.734 l 4.159,-3.649 -1.94,5.179 c -1.449,3.864 -1.278,6.069 -1.276,6.091 l 0.203,2.331 z"
                 style="fill:#fbbf16;fill-opacity:1;fill-rule:nonzero;stroke:none"
                 id="path198623" />
            </g>
            <g
               id="g198625"
               transform="translate(89.980804,786.7867)">
              <path
                 d="m 0,0 c 0,0 -1.237,-0.568 -1.868,-0.858 -6.721,2.775 -12.377,1.361 -15.572,-3.971 -3.468,-5.787 -2.58,-14.316 1.981,-19.014 4.642,-4.78 12.606,-5.653 17.752,-1.946 3.396,2.447 4.375,6.811 3.361,9.617 -0.805,2.223 -2.722,3.451 -5.13,3.283 -2.629,-0.184 -4.407,-1.838 -4.531,-4.215 -0.004,-0.08 -0.006,-0.16 -0.006,-0.24 0,-1.405 0.636,-2.936 1.866,-4.046 -0.872,-0.239 -1.94,-0.427 -3.186,-0.427 -5.47,0 -7.74,5.602 -7.74,8.6 0,2.218 0.526,6.106 4.052,7.237 2.418,0.776 5.304,0.001 10.292,-2.763 l 3.971,-2.2 -2.06,4.046 C 1.6,-3.791 1.969,-1.594 1.986,-1.502 l 0.469,2.617 z"
                 style="fill:#fbbf16;fill-opacity:1;fill-rule:nonzero;stroke:none"
                 id="path198627" />
            </g>
            <g
               id="g198629"
               transform="translate(39.485199,780.6474)">
              <path
                 d="m 0,0 c 0,-5.853 4.977,-7.914 12.449,-9.208 3.831,-0.664 5.588,-2.208 5.221,-4.589 -0.289,-1.876 -2.177,-3.136 -4.697,-3.136 -6.173,0 -12.453,4.996 -12.516,5.046 l -0.792,0.638 0.41,-0.932 c 0.007,-0.016 0.694,-1.625 1.322,-7.336 l 0.038,-0.341 c 0,0 3.046,1.39 3.258,1.486 0.681,-0.378 4.591,-2.438 9.032,-2.438 3.103,0 8.355,1.733 8.355,8.227 0,5.902 -5.58,7.185 -10.977,8.427 l -2.099,0.495 c -3.09,0.766 -4.774,2.571 -4.292,4.599 0.326,1.367 1.945,2.25 4.127,2.25 5.58,0 10.152,-3.978 10.197,-4.018 l 0.746,-0.658 -0.349,0.931 C 17.867,3.62 18.087,6.018 18.09,6.042 l 0.043,0.422 c 0,0 -2.484,-1.086 -2.717,-1.188 C 14.528,5.941 11.549,7.077 8.461,7.077 5.06,7.077 0,5.192 0,0 m 18.16,-13.873 c 0.287,1.857 -0.457,4.258 -5.626,5.153 C 3.759,-7.2 0.496,-4.836 0.496,0 c 0,4.828 4.764,6.581 7.965,6.581 3.175,0 6.178,-1.242 6.761,-1.771 l 0.119,-0.108 c 0,0 1.719,0.752 2.239,0.979 0,-0.014 -10e-4,-0.02 -10e-4,-0.036 0,-0.815 0.14,-2.73 1.106,-5.567 C 17.186,1.195 13.342,3.684 8.839,3.684 6.382,3.684 4.616,2.676 4.23,1.053 3.678,-1.266 5.505,-3.305 8.884,-4.143 l 2.108,-0.497 c 5.447,-1.253 10.592,-2.436 10.592,-7.943 0,-6.103 -4.941,-7.731 -7.859,-7.731 -4.725,0 -8.853,2.41 -8.894,2.434 l -0.112,0.066 c 0,0 -2.371,-1.082 -2.87,-1.309 -0.403,3.539 -0.817,5.448 -1.072,6.373 1.755,-1.277 6.923,-4.679 12.196,-4.679 2.774,0 4.859,1.429 5.187,3.556"
                 style="fill:#007d61;fill-opacity:1;fill-rule:nonzero;stroke:none"
                 id="path198631" />
            </g>
            <g
               id="g198633"
               transform="translate(73.519699,781.37151)">
              <path
                 d="m 0,0 c -3.493,-5.828 -1.878,-13.823 1.821,-17.633 4.191,-4.316 11.64,-5.147 16.266,-1.814 2.958,2.131 3.825,5.895 2.955,8.302 -0.63,1.742 -2.08,2.665 -3.977,2.533 -2.448,-0.171 -3.398,-1.732 -3.471,-3.136 -0.003,-0.062 -0.005,-0.124 -0.005,-0.186 0,-1.674 1.163,-3.57 3.386,-4.223 -0.892,-0.479 -2.959,-1.386 -5.847,-1.386 -5.795,0 -8.881,5.658 -8.881,9.742 0,4.302 1.766,7.336 4.845,8.323 3.189,1.023 6.648,-0.333 11.193,-2.851 L 18.994,-2.722 18.626,-2 C 16.84,1.509 17.32,4.099 17.326,4.124 L 17.419,4.6 c 0,0 -2.623,-1.205 -2.792,-1.282 C 8.273,6.115 2.945,4.913 0,0 m 2.177,-17.287 c -3.571,3.678 -5.127,11.399 -1.751,17.032 2.859,4.771 7.869,5.864 14.107,3.076 l 0.103,-0.045 c 0,0 1.58,0.726 2.148,0.987 -0.012,-0.158 -0.023,-0.341 -0.023,-0.574 0,-1.006 0.188,-2.682 1.099,-4.725 -4.335,2.344 -7.723,3.556 -10.919,2.531 -3.299,-1.058 -5.19,-4.264 -5.19,-8.796 0,-4.292 3.259,-10.238 9.377,-10.238 4.068,0 6.523,1.693 6.626,1.766 l 0.489,0.344 -0.589,0.103 c -2.43,0.425 -3.65,2.405 -3.564,4.052 0.079,1.544 1.205,2.541 3.009,2.667 1.685,0.117 2.919,-0.666 3.476,-2.207 0.808,-2.234 -0.01,-5.737 -2.778,-7.731 -4.437,-3.197 -11.59,-2.392 -15.62,1.758"
                 style="fill:#007d61;fill-opacity:1;fill-rule:nonzero;stroke:none"
                 id="path198635" />
            </g>
            <g
               id="g198637"
               transform="translate(55.0522,765.56)">
              <path
                 d="m 0,0 c -0.146,0.492 -0.316,0.996 -0.514,1.514 -1.477,3.864 -3.181,7.954 -4.658,13.18 -0.243,0.861 -0.403,1.651 -0.502,2.388 -0.347,0.033 -0.698,0.052 -1.055,0.052 -1.857,0 -2.853,-0.689 -3.016,-1.373 l -0.34,-0.033 c 0.375,-2.779 1.386,-5.813 3.89,-11.146 0.841,-1.79 1.595,-3.539 2.155,-5.19 0.481,-0.061 0.964,-0.096 1.445,-0.096 1.054,0 1.957,0.259 2.595,0.704"
                 style="fill:#173a79;fill-opacity:1;fill-rule:nonzero;stroke:none"
                 id="path198639" />
            </g>
            <g
               id="g198641"
               transform="translate(44.619797,781.73891)">
              <path
                 d="m 0,0 0.001,-0.474 0.003,-0.023 c 0.395,-2.93 1.494,-6.084 3.92,-11.248 0.962,-2.05 1.642,-3.687 2.139,-5.153 0.015,-0.037 0.238,-0.509 0.238,-0.509 l 0.628,0.297 -0.223,0.472 c -0.49,1.454 -1.18,3.114 -2.154,5.188 -2.387,5.084 -3.47,8.178 -3.857,11.027 0,0.048 0,0.424 0,0.424 z"
                 style="fill:#fbbf16;fill-opacity:1;fill-rule:nonzero;stroke:none"
                 id="path198643" />
            </g>
            <g
               id="g198645"
               transform="translate(48.981293,783.20821)">
              <path
                 d="m 0,0 0.051,-0.596 c 0.11,-0.818 0.277,-1.614 0.514,-2.452 1.227,-4.344 2.58,-7.827 3.889,-11.195 l 0.779,-2.015 0.505,-1.489 c 0.011,-0.031 0.19,-0.475 0.19,-0.475 l 0.644,0.26 c 0,0 -0.179,0.444 -0.179,0.444 -10e-4,0.002 -0.511,1.508 -0.511,1.508 l -0.781,2.019 c -1.302,3.353 -2.649,6.819 -3.868,11.132 -0.228,0.805 -0.388,1.571 -0.491,2.338 0,0.005 -0.05,0.581 -0.05,0.581 z"
                 style="fill:#fbbf16;fill-opacity:1;fill-rule:nonzero;stroke:none"
                 id="path198647" />
            </g>
            <g
               id="g198649"
               transform="translate(81.486496,758.8311)">
              <path
                 d="m 0,0 c -0.45,2.77 0.829,6.453 2.616,10.378 0.142,0.31 -3.414,2.62 -3.588,2.164 C -1.541,11.051 -2.102,9.632 -2.633,8.243 -3.747,5.331 -4.02,2.806 -3.649,1.058 -3.621,0.924 0.021,-0.132 0,0"
                 style="fill:#173a79;fill-opacity:1;fill-rule:nonzero;stroke:none"
                 id="path198651" />
            </g>
            <g
               id="g198653"
               transform="translate(79.315796,769.23351)">
              <path
                 d="m 0,0 -0.786,-2.035 c -1.151,-3.009 -1.49,-5.849 -0.93,-7.793 l 0.668,0.193 c -0.52,1.802 -0.187,4.481 0.91,7.352 L 0.647,-0.252 2.049,3.41 1.398,3.652 Z"
                 style="fill:#fbbf16;fill-opacity:1;fill-rule:nonzero;stroke:none"
                 id="path198655" />
            </g>
            <g
               id="g198657"
               transform="translate(81.223999,758.3638)">
              <path
                 d="M 0,0 0.677,0.156 C -0.03,3.231 1.771,7.682 3.625,11.63 L 2.996,11.926 C 1.091,7.87 -0.754,3.281 0,0"
                 style="fill:#fbbf16;fill-opacity:1;fill-rule:nonzero;stroke:none"
                 id="path198659" />
            </g>
            <g
               id="g198661"
               transform="translate(98.643402,753.6371)">
              <path
                 d="m 0,0 c 0.682,2.473 -5.61,2.891 -5.372,0.512 l 0.298,-2.174 3.88,-0.811 z"
                 style="fill:#007d61;fill-opacity:1;fill-rule:nonzero;stroke:none"
                 id="path198663" />
            </g>
            <g
               id="g198665"
               transform="translate(35.031204,753.6371)">
              <path
                 d="M 0,0 C -0.682,2.473 5.61,2.891 5.372,0.512 L 5.074,-1.662 1.194,-2.473 Z"
                 style="fill:#007d61;fill-opacity:1;fill-rule:nonzero;stroke:none"
                 id="path198667" />
            </g>
            <g
               id="g198669"
               transform="translate(36.779404,751.6761)">
              <path
                 d="M 0,0 V 2.089 C 1.279,1.194 3.453,0.767 3.624,2.473 l -0.213,-3.71 -0.086,-1.15 -3.368,1.023 z"
                 style="fill:#007d61;fill-opacity:1;fill-rule:nonzero;stroke:none"
                 id="path198671" />
            </g>
            <g
               id="g198673"
               transform="translate(39.651993,753.2995)">
              <path
                 d="M 0,0 C -0.73,-0.335 -1.967,0.073 -2.759,0.628 L -3.071,0.847 V -1.62 c 0,-0.006 -0.047,-1.513 -0.047,-1.513 l 3.75,-1.14 0.104,1.398 c 0,0.004 0.213,3.713 0.213,3.713 L 0.554,0.869 C 0.511,0.441 0.325,0.149 0,0 m -2.674,-1.63 v 1.745 c 0.888,-0.521 2.059,-0.834 2.84,-0.476 0.107,0.05 0.22,0.131 0.33,0.23 C 0.435,-1.196 0.34,-2.849 0.34,-2.849 c 0,0.003 -0.042,-0.562 -0.067,-0.9 -0.391,0.119 -2.738,0.832 -2.985,0.907 0.007,0.24 0.038,1.212 0.038,1.212"
                 style="fill:#fbbf16;fill-opacity:1;fill-rule:nonzero;stroke:none"
                 id="path198675" />
            </g>
            <g
               id="g198677"
               transform="translate(35.407898,755.1864)">
              <path
                 d="m 0,0 c -0.542,-0.429 -0.739,-0.983 -0.568,-1.602 0.716,-2.599 5.982,-4.246 14.086,-4.409 0.995,-0.02 1.589,-0.622 1.589,-1.194 0,-0.546 -0.524,-0.909 -1.333,-0.925 C 12.553,-8.152 4.132,-8.145 4.047,-8.145 L 4.046,-8.542 c 0.085,0 8.511,-0.007 9.735,0.016 1.19,0.022 1.723,0.679 1.723,1.321 v 0.001 c 0,0.752 -0.693,1.565 -1.978,1.59 C 7.343,-5.49 3.569,-4.54 1.57,-3.37 v 1.598 c 0.888,-0.521 2.059,-0.834 2.84,-0.475 0.317,0.145 0.711,0.47 0.783,1.19 C 5.251,-0.472 4.961,0.027 4.376,0.347 3.2,0.99 1.033,0.818 0,0 m -0.185,-1.497 c -0.03,0.108 -0.045,0.212 -0.045,0.312 0,0.33 0.16,0.623 0.477,0.874 0.911,0.722 2.899,0.879 3.938,0.31 0.45,-0.245 0.656,-0.588 0.613,-1.017 C 4.755,-1.445 4.569,-1.738 4.244,-1.887 3.514,-2.222 2.277,-1.814 1.485,-1.259 L 1.173,-1.04 v -2.08 c -0.766,0.524 -1.209,1.082 -1.358,1.623"
                 style="fill:#fbbf16;fill-opacity:1;fill-rule:nonzero;stroke:none"
                 id="path198679" />
            </g>
            <g
               id="g198681"
               transform="translate(39.454498,746.8425)">
              <path
                 d="m 0,0 c 0,0 8.494,-0.007 9.731,0.016 1.013,0.019 1.495,0.518 1.526,1.067 0.038,0.675 -0.606,1.425 -1.782,1.448 -9.044,0.182 -13.309,2.128 -13.898,4.264 0,0 0.128,-1.962 0.511,-3.965 0.384,-2.004 -0.298,-4.988 -0.341,-5.798 1.833,-0.768 3.965,-1.749 3.965,-1.749 z"
                 style="fill:#173a79;fill-opacity:1;fill-rule:nonzero;stroke:none"
                 id="path198683" />
            </g>
            <g
               id="g198685"
               transform="translate(34.833099,753.6243)">
              <path
                 d="m 0,0 c 0.001,-0.02 0.133,-1.997 0.515,-3.989 0.28,-1.462 -0.03,-3.518 -0.214,-4.746 l -0.15,-1.152 0.141,-0.046 4.22,-1.861 0.02,0.284 c 0,0 0.255,4.185 0.276,4.53 1.226,-10e-4 8.423,-0.005 9.548,0.016 1.219,0.023 1.688,0.69 1.72,1.254 0.021,0.362 -0.119,0.725 -0.394,1.022 -0.367,0.397 -0.929,0.623 -1.581,0.636 -9.324,0.187 -13.196,2.25 -13.712,4.117 z m 0.693,-8.794 c 0.134,0.887 0.331,2.197 0.331,3.429 0,0.508 -0.034,1.003 -0.119,1.45 -0.212,1.105 -0.344,2.192 -0.421,2.948 1.598,-2.06 6.516,-3.34 13.609,-3.482 0.543,-0.011 1.004,-0.192 1.298,-0.509 0.188,-0.204 0.29,-0.444 0.29,-0.683 0,-0.015 0,-0.031 -10e-4,-0.047 C 15.657,-6.101 15.295,-6.549 14.349,-6.567 13.128,-6.59 4.706,-6.583 4.622,-6.583 H 4.435 c 0,0 -0.251,-4.117 -0.282,-4.619 -0.443,0.195 -3.328,1.467 -3.569,1.574 0.026,0.197 0.109,0.834 0.109,0.834"
                 style="fill:#fbbf16;fill-opacity:1;fill-rule:nonzero;stroke:none"
                 id="path198687" />
            </g>
            <g
               id="g198689"
               transform="translate(50.507507,744.4283)">
              <path
                 d="M 0,0 0.204,3.497 C 0.173,2.948 -0.309,2.449 -1.322,2.43 -2.559,2.407 -11.053,2.414 -11.053,2.414 l 1.418,-1.817 9.592,-1.237 z"
                 style="fill:#007d61;fill-opacity:1;fill-rule:nonzero;stroke:none"
                 id="path198691" />
            </g>
            <g
               id="g198693"
               transform="translate(50.513199,747.9364)">
              <path
                 d="m 0,0 c -0.023,-0.413 -0.385,-0.861 -1.331,-0.88 -1.221,-0.022 -9.643,-0.015 -9.727,-0.015 l -0.157,-0.321 1.418,-1.817 0.131,-0.075 9.592,-1.236 0.224,0.183 0.042,0.641 0.204,3.498 z m -1.324,-1.276 c 0.591,0.011 0.999,0.177 1.273,0.406 -0.057,-0.982 -0.153,-2.624 -0.153,-2.626 0,0 -0.016,-0.239 -0.028,-0.428 -0.398,0.052 -9.147,1.179 -9.303,1.199 -0.076,0.098 -0.792,1.016 -1.117,1.432 1.693,-0.001 8.258,-0.004 9.328,0.017"
                 style="fill:#fbbf16;fill-opacity:1;fill-rule:nonzero;stroke:none"
                 id="path198695" />
            </g>
            <g
               id="g198697"
               transform="translate(96.895203,751.6761)">
              <path
                 d="M 0,0 V 2.089 C -1.279,1.194 -3.453,0.767 -3.624,2.473 l 0.213,-3.71 0.086,-1.15 3.368,1.023 z"
                 style="fill:#007d61;fill-opacity:1;fill-rule:nonzero;stroke:none"
                 id="path198699" />
            </g>
            <g
               id="g198701"
               transform="translate(93.073303,754.1376)">
              <path
                 d="m 0,0 0.213,-3.709 c 0,-0.004 0.104,-1.402 0.104,-1.402 l 3.751,1.139 c 0,0 -0.048,1.507 -0.048,1.514 V 0.009 L 3.708,-0.21 C 2.916,-0.764 1.679,-1.173 0.949,-0.838 0.624,-0.689 0.438,-0.397 0.395,0.031 Z m 3.623,-0.723 v -1.745 c 0,0 0.031,-0.972 0.038,-1.212 -0.246,-0.075 -2.594,-0.788 -2.985,-0.907 -0.022,0.305 -0.067,0.904 -0.067,0.904 0,0 -0.093,1.616 -0.156,2.714 0.11,-0.099 0.223,-0.18 0.331,-0.23 0.78,-0.358 1.951,-0.045 2.839,0.476"
                 style="fill:#fbbf16;fill-opacity:1;fill-rule:nonzero;stroke:none"
                 id="path198703" />
            </g>
            <g
               id="g198705"
               transform="translate(93.891098,755.5338)">
              <path
                 d="m 0,0 c -0.586,-0.32 -0.876,-0.819 -0.817,-1.405 0.072,-0.719 0.465,-1.044 0.783,-1.19 0.781,-0.358 1.951,-0.045 2.84,0.476 v -1.599 c -2,-1.17 -5.774,-2.12 -11.956,-2.243 -1.285,-0.026 -1.978,-0.839 -1.978,-1.59 v -10e-4 c 0,-0.642 0.533,-1.299 1.722,-1.322 1.224,-0.023 9.65,-0.016 9.735,-0.016 v 0.397 c -0.086,0 -8.507,-0.007 -9.727,0.016 -0.81,0.015 -1.333,0.378 -1.333,0.925 -10e-4,0.571 0.594,1.174 1.589,1.194 8.103,0.162 13.369,1.81 14.086,4.409 0.17,0.618 -0.027,1.172 -0.568,1.602 C 3.343,0.471 1.175,0.643 0,0 m 0.131,-2.234 c -0.324,0.149 -0.51,0.441 -0.553,0.869 -0.043,0.429 0.163,0.771 0.612,1.017 1.04,0.568 3.028,0.412 3.939,-0.31 0.317,-0.251 0.476,-0.544 0.476,-0.874 0,-0.101 -0.014,-0.205 -0.044,-0.312 C 4.412,-2.386 3.969,-2.943 3.203,-3.468 v 2.08 L 2.89,-1.606 C 2.098,-2.161 0.861,-2.569 0.131,-2.234"
                 style="fill:#fbbf16;fill-opacity:1;fill-rule:nonzero;stroke:none"
                 id="path198707" />
            </g>
            <g
               id="g198709"
               transform="translate(94.219803,746.8425)">
              <path
                 d="m 0,0 c 0,0 -8.494,-0.007 -9.731,0.016 -1.013,0.019 -1.495,0.518 -1.526,1.067 -0.038,0.675 0.606,1.425 1.782,1.448 9.045,0.182 13.309,2.128 13.899,4.264 0,0 -0.128,-1.962 -0.512,-3.965 C 3.528,0.826 4.21,-2.158 4.253,-2.968 2.42,-3.736 0.288,-4.717 0.288,-4.717 Z"
                 style="fill:#173a79;fill-opacity:1;fill-rule:nonzero;stroke:none"
                 id="path198711" />
            </g>
            <g
               id="g198713"
               transform="translate(84.740906,749.57249)">
              <path
                 d="m 0,0 c -0.652,-0.013 -1.214,-0.239 -1.582,-0.637 -0.275,-0.297 -0.415,-0.66 -0.394,-1.022 0.032,-0.564 0.502,-1.23 1.72,-1.254 1.125,-0.021 8.322,-0.017 9.548,-0.015 0.021,-0.345 0.294,-4.815 0.294,-4.815 l 4.358,1.921 -0.014,0.134 -0.13,1.004 c -0.185,1.229 -0.494,3.285 -0.214,4.746 0.381,1.993 0.513,3.97 0.515,3.99 l -0.39,0.065 C 13.196,2.249 9.323,0.186 0,0 m -0.248,-2.516 c -0.946,0.019 -1.308,0.467 -1.332,0.88 0,0.016 -10e-4,0.032 -10e-4,0.047 0,0.239 0.102,0.479 0.29,0.683 0.294,0.317 0.755,0.498 1.299,0.509 7.092,0.142 12.011,1.422 13.608,3.482 -0.077,-0.756 -0.209,-1.843 -0.42,-2.948 -0.086,-0.447 -0.119,-0.942 -0.119,-1.45 0,-1.232 0.197,-2.542 0.33,-3.43 0,0 0.084,-0.636 0.109,-0.834 C 13.276,-5.683 10.39,-6.955 9.948,-7.15 9.917,-6.648 9.666,-2.531 9.666,-2.531 H 9.479 c -0.085,0 -8.507,-0.008 -9.727,0.015"
                 style="fill:#fbbf16;fill-opacity:1;fill-rule:nonzero;stroke:none"
                 id="path198715" />
            </g>
            <g
               id="g198717"
               transform="translate(83.167206,744.4283)">
              <path
                 d="M 0,0 -0.204,3.497 C -0.173,2.948 0.309,2.449 1.322,2.43 2.558,2.407 11.053,2.414 11.053,2.414 L 9.635,0.597 0.043,-0.64 Z"
                 style="fill:#007d61;fill-opacity:1;fill-rule:nonzero;stroke:none"
                 id="path198719" />
            </g>
            <g
               id="g198721"
               transform="translate(82.765305,747.91389)">
              <path
                 d="m 0,0 0.204,-3.499 0.043,-0.639 0.223,-0.184 9.592,1.236 0.132,0.075 1.417,1.817 -0.156,0.321 c -0.086,0 -8.507,-0.007 -9.727,0.016 C 0.781,-0.839 0.42,-0.391 0.396,0.022 V 0.023 Z M 0.447,-0.848 C 0.721,-1.076 1.129,-1.243 1.72,-1.254 2.79,-1.274 9.354,-1.271 11.048,-1.27 10.723,-1.687 10.007,-2.604 9.931,-2.702 9.775,-2.722 1.026,-3.85 0.629,-3.901 0.616,-3.712 0.6,-3.474 0.6,-3.473 c 0,10e-4 -0.096,1.643 -0.153,2.625"
                 style="fill:#fbbf16;fill-opacity:1;fill-rule:nonzero;stroke:none"
                 id="path198723" />
            </g>
            <g
               id="g198725"
               transform="translate(66.696197,734.8979)">
              <path
                 d="m 0,0 c 12.526,0 28.081,3.026 28.081,3.026 l -0.557,8.919 c 0,0 -12.716,-3.741 -27.524,-3.741 -14.74,0 -27.242,3.741 -27.242,3.741 L -27.799,3.026 C -27.799,3.026 -11.14,0 0,0"
                 style="fill:#173a79;fill-opacity:1;fill-rule:nonzero;stroke:none"
                 id="path198727" />
            </g>
            <g
               id="g198729"
               transform="translate(39.256393,746.8549)">
              <path
                 d="m 0,0 -0.568,-9.094 0.173,-0.032 c 0.167,-0.03 16.804,-3.029 27.835,-3.029 12.401,0 27.963,2.999 28.119,3.029 l 0.171,0.034 -0.584,9.34 -0.238,-0.07 C 54.78,0.141 42.047,-3.554 27.44,-3.554 12.9,-3.554 0.38,0.14 0.255,0.178 L 0.016,0.249 Z m 54.781,-0.27 c 0.028,-0.454 0.51,-8.172 0.531,-8.498 -1.621,-0.307 -16.155,-2.99 -27.872,-2.99 -10.448,0 -25.932,2.697 -27.59,2.992 0.02,0.329 0.502,8.039 0.531,8.495 1.744,-0.494 13.521,-3.68 27.059,-3.68 13.609,0 25.581,3.19 27.341,3.681"
                 style="fill:#fbbf16;fill-opacity:1;fill-rule:nonzero;stroke:none"
                 id="path198731" />
            </g>
            <g
               id="g198733"
               transform="translate(42.293503,740.43739)">
              <path
                 d="M 0,0 C -0.125,-0.046 -0.279,-0.046 -0.454,-0.013 -1.095,0.105 -1.292,0.609 -1.109,1.604 -0.926,2.6 -0.561,3.001 0.079,2.883 0.719,2.765 0.917,2.261 0.733,1.265 0.639,0.75 0.474,0.381 0.311,0.201 L 0.541,-0.152 0.232,-0.341 Z M -0.1,0.773 0.05,0.556 C 0.143,0.712 0.219,0.969 0.29,1.359 0.463,2.296 0.282,2.499 0.017,2.547 -0.248,2.596 -0.489,2.471 -0.662,1.534 -0.839,0.574 -0.658,0.371 -0.393,0.323 -0.334,0.312 -0.282,0.31 -0.228,0.32 L -0.4,0.566 Z"
                 style="fill:#fbbf16;fill-opacity:1;fill-rule:nonzero;stroke:none"
                 id="path198735" />
            </g>
            <g
               id="g198737"
               transform="translate(44.213303,742.933)">
              <path
                 d="m 0,0 -0.348,-2.003 c -0.061,-0.351 0.052,-0.532 0.322,-0.579 0.266,-0.046 0.434,0.086 0.495,0.438 L 0.817,-0.142 1.263,-0.22 0.921,-2.187 C 0.809,-2.832 0.447,-3.011 -0.084,-2.918 -0.62,-2.825 -0.9,-2.535 -0.788,-1.89 l 0.342,1.968 z"
                 style="fill:#fbbf16;fill-opacity:1;fill-rule:nonzero;stroke:none"
                 id="path198739" />
            </g>
          </g>
        </g>
        <g
           id="g198741"
           transform="matrix(0.35277777,0,0,-0.35277777,-1326.3234,-728.16668)">
          <path
             d="m 0,0 0.572,-0.094 0.277,-2.917 -0.466,0.076 -0.06,0.714 -0.819,0.134 -0.292,-0.656 -0.467,0.077 z M 0.307,-1.852 0.212,-0.421 0.204,-0.42 -0.355,-1.744 Z"
             style="fill:#fbbf16;fill-opacity:1;fill-rule:nonzero;stroke:none"
             id="path198743" />
        </g>
        <g
           id="g198745"
           transform="matrix(0.35277777,0,0,-0.35277777,-1325.7522,-728.07369)">
          <path
             d="M 0,0 0.545,-0.084 1.036,-2.296 1.044,-2.297 1.365,-0.21 1.789,-0.275 1.358,-3.076 0.812,-2.992 0.33,-0.725 0.322,-0.724 -0.008,-2.866 -0.431,-2.801 Z"
             style="fill:#fbbf16;fill-opacity:1;fill-rule:nonzero;stroke:none"
             id="path198747" />
        </g>
        <g
           id="g198749"
           transform="matrix(0.35277777,0,0,-0.35277777,-1324.7741,-727.79009)">
          <path
             d="M 0,0 -0.668,0.096 -0.614,0.473 1.158,0.219 1.104,-0.158 0.448,-0.064 0.1,-2.492 -0.348,-2.428 Z"
             style="fill:#fbbf16;fill-opacity:1;fill-rule:nonzero;stroke:none"
             id="path198751" />
        </g>
        <g
           id="g198753"
           transform="matrix(0.35277777,0,0,-0.35277777,-1342.7462,-466.21716)">
          <g
             id="g198755"
             clip-path="url(#clipPath198759)">
            <g
               id="g198761"
               transform="translate(52.885193,741.5802)">
              <path
                 d="m 0,0 -0.267,-2.015 c -0.047,-0.354 0.074,-0.53 0.346,-0.566 0.267,-0.035 0.43,0.103 0.477,0.457 l 0.266,2.015 0.449,-0.06 -0.262,-1.979 C 0.923,-2.797 0.569,-2.991 0.034,-2.92 c -0.539,0.072 -0.831,0.351 -0.745,1 l 0.263,1.979 z"
                 style="fill:#fbbf16;fill-opacity:1;fill-rule:nonzero;stroke:none"
                 id="path198763" />
            </g>
          </g>
        </g>
        <g
           id="g198765"
           transform="matrix(0.35277777,0,0,-0.35277777,-1323.4537,-727.7466)">
          <path
             d="M 0,0 0.702,-0.082 0.955,-2.226 0.962,-2.227 1.695,-0.198 2.381,-0.278 2.052,-3.093 1.626,-3.044 1.9,-0.702 1.892,-0.701 1.051,-2.976 0.672,-2.932 0.378,-0.524 0.37,-0.523 0.097,-2.865 l -0.426,0.05 z"
             style="fill:#fbbf16;fill-opacity:1;fill-rule:nonzero;stroke:none"
             id="path198767" />
        </g>
        <g
           id="g198769"
           transform="matrix(0.35277777,0,0,-0.35277777,-1342.7462,-466.21716)">
          <g
             id="g198771"
             clip-path="url(#clipPath198775)">
            <g
               id="g198777"
               transform="translate(58.701096,740.8987)">
              <path
                 d="M 0,0 0.893,-0.081 C 1.435,-0.13 1.641,-0.492 1.598,-0.974 1.552,-1.48 1.226,-1.781 0.696,-1.733 l -0.395,0.036 -0.106,-1.166 -0.451,0.04 z m 0.331,-1.357 0.321,-0.029 c 0.241,-0.022 0.462,0.089 0.494,0.445 0.028,0.304 -0.078,0.501 -0.438,0.534 L 0.42,-0.381 Z"
                 style="fill:#fbbf16;fill-opacity:1;fill-rule:nonzero;stroke:none"
                 id="path198779" />
            </g>
            <g
               id="g198781"
               transform="translate(60.599304,739.306)">
              <path
                 d="M 0,0 C 0.071,1.01 0.389,1.449 1.038,1.403 1.687,1.357 1.94,0.878 1.869,-0.132 1.798,-1.141 1.48,-1.58 0.831,-1.535 0.182,-1.489 -0.071,-1.009 0,0 M 1.418,-0.088 C 1.485,0.862 1.283,1.044 1.014,1.063 0.745,1.082 0.519,0.93 0.452,-0.02 0.384,-0.994 0.586,-1.175 0.855,-1.194 1.124,-1.213 1.35,-1.062 1.418,-0.088"
                 style="fill:#fbbf16;fill-opacity:1;fill-rule:nonzero;stroke:none"
                 id="path198783" />
            </g>
          </g>
        </g>
        <g
           id="g198785"
           transform="matrix(0.35277777,0,0,-0.35277777,-1320.3881,-727.33131)">
          <path
             d="M 0,0 -0.674,0.032 -0.656,0.413 1.132,0.327 1.114,-0.054 0.452,-0.022 0.334,-2.472 -0.118,-2.45 Z"
             style="fill:#fbbf16;fill-opacity:1;fill-rule:nonzero;stroke:none"
             id="path198787" />
        </g>
        <g
           id="g198789"
           transform="matrix(0.35277777,0,0,-0.35277777,-1319.8725,-727.44317)">
          <path
             d="M 0,0 1.532,-0.031 1.524,-0.412 0.445,-0.39 0.429,-1.176 1.445,-1.197 1.437,-1.578 0.421,-1.557 0.403,-2.462 1.514,-2.484 1.506,-2.865 -0.057,-2.833 Z"
             style="fill:#fbbf16;fill-opacity:1;fill-rule:nonzero;stroke:none"
             id="path198791" />
        </g>
        <g
           id="g198793"
           transform="matrix(0.35277777,0,0,-0.35277777,-1342.7462,-466.21716)">
          <g
             id="g198795"
             clip-path="url(#clipPath198799)">
            <g
               id="g198801"
               transform="translate(67.179901,738.50011)">
              <path
                 d="m 0,0 0.001,-0.072 c 0.004,-0.345 0.156,-0.518 0.47,-0.514 0.286,0.003 0.426,0.207 0.424,0.417 -0.003,0.298 -0.156,0.427 -0.41,0.5 L 0.174,0.435 c -0.415,0.154 -0.596,0.366 -0.6,0.771 -0.006,0.516 0.34,0.805 0.872,0.812 C 1.172,2.026 1.253,1.574 1.256,1.28 V 1.217 L 0.804,1.212 0.803,1.271 C 0.801,1.529 0.684,1.679 0.402,1.676 0.207,1.673 0.022,1.564 0.025,1.263 0.028,1.02 0.153,0.899 0.455,0.787 L 0.762,0.679 C 1.165,0.541 1.342,0.324 1.346,-0.064 1.353,-0.667 0.991,-0.922 0.419,-0.928 c -0.702,-0.008 -0.866,0.459 -0.871,0.855 l -0.001,0.068 z"
                 style="fill:#fbbf16;fill-opacity:1;fill-rule:nonzero;stroke:none"
                 id="path198803" />
            </g>
          </g>
        </g>
        <g
           id="g198805"
           transform="matrix(0.35277777,0,0,-0.35277777,-1317.8772,-727.32873)">
          <path
             d="M 0,0 -0.674,-0.03 -0.691,0.351 1.097,0.431 1.114,0.05 0.452,0.02 0.562,-2.43 0.109,-2.451 Z"
             style="fill:#fbbf16;fill-opacity:1;fill-rule:nonzero;stroke:none"
             id="path198807" />
        </g>
        <g
           id="g198809"
           transform="matrix(0.35277777,0,0,-0.35277777,-1317.2506,-727.49556)">
          <path
             d="M 0,0 0.579,0.036 1.498,-2.747 1.026,-2.776 0.809,-2.094 -0.019,-2.145 -0.158,-2.849 -0.63,-2.878 Z M 0.712,-1.738 0.301,-0.363 0.293,-0.364 0.042,-1.779 Z"
             style="fill:#fbbf16;fill-opacity:1;fill-rule:nonzero;stroke:none"
             id="path198811" />
        </g>
        <g
           id="g198813"
           transform="matrix(0.35277777,0,0,-0.35277777,-1316.683,-727.53204)">
          <path
             d="M 0,0 0.55,0.045 1.538,-1.994 H 1.546 L 1.377,0.111 1.804,0.145 2.032,-2.679 1.482,-2.724 0.489,-0.629 0.481,-0.63 0.655,-2.79 0.228,-2.825 Z"
             style="fill:#fbbf16;fill-opacity:1;fill-rule:nonzero;stroke:none"
             id="path198815" />
        </g>
        <g
           id="g198817"
           transform="matrix(0.35277777,0,0,-0.35277777,-1315.6711,-727.48406)">
          <path
             d="M 0,0 -0.671,-0.065 -0.708,0.314 1.074,0.486 1.11,0.107 0.45,0.043 0.687,-2.398 0.237,-2.442 Z"
             style="fill:#fbbf16;fill-opacity:1;fill-rule:nonzero;stroke:none"
             id="path198819" />
        </g>
        <g
           id="g198821"
           transform="matrix(0.35277777,0,0,-0.35277777,-1342.7462,-466.21716)">
          <g
             id="g198823"
             clip-path="url(#clipPath198827)">
            <g
               id="g198829"
               transform="translate(78.599792,741.16969)">
              <path
                 d="m 0,0 0.225,-2.02 c 0.039,-0.355 0.199,-0.497 0.471,-0.466 0.268,0.03 0.393,0.203 0.353,0.558 l -0.224,2.02 0.449,0.05 0.221,-1.984 c 0.073,-0.651 -0.224,-0.924 -0.761,-0.984 -0.541,-0.06 -0.89,0.141 -0.963,0.792 L -0.45,-0.05 Z"
                 style="fill:#fbbf16;fill-opacity:1;fill-rule:nonzero;stroke:none"
                 id="path198831" />
            </g>
          </g>
        </g>
        <g
           id="g198833"
           transform="matrix(0.35277777,0,0,-0.35277777,-1314.3819,-727.75714)">
          <path
             d="m 0,0 0.701,0.09 0.763,-2.02 0.007,0.002 0.222,2.145 0.685,0.087 0.36,-2.811 -0.425,-0.054 -0.3,2.338 L 2.006,-0.224 1.738,-2.635 1.36,-2.683 0.493,-0.417 0.486,-0.418 0.785,-2.757 0.36,-2.811 Z"
             style="fill:#fbbf16;fill-opacity:1;fill-rule:nonzero;stroke:none"
             id="path198835" />
        </g>
        <g
           id="g198837"
           transform="matrix(0.35277777,0,0,-0.35277777,-1312.7785,-727.97414)">
          <path
             d="M 0,0 0.573,0.086 1.73,-2.607 1.263,-2.677 0.988,-2.016 0.167,-2.138 0.089,-2.852 -0.378,-2.922 Z M 0.859,-1.669 0.331,-0.336 0.323,-0.337 0.196,-1.769 Z"
             style="fill:#fbbf16;fill-opacity:1;fill-rule:nonzero;stroke:none"
             id="path198839" />
        </g>
        <g
           id="g198841"
           transform="matrix(0.35277777,0,0,-0.35277777,-1342.7462,-466.21716)">
          <g
             id="g198843"
             clip-path="url(#clipPath198847)">
            <g
               id="g198849"
               transform="translate(86.978699,742.3008)">
              <path
                 d="m 0,0 0.325,-2.006 c 0.057,-0.353 0.223,-0.487 0.494,-0.443 0.266,0.043 0.382,0.223 0.325,0.575 L 0.819,0.133 1.266,0.205 1.585,-1.766 C 1.69,-2.413 1.406,-2.7 0.873,-2.786 0.336,-2.873 -0.023,-2.69 -0.128,-2.043 l -0.319,1.97 z"
                 style="fill:#fbbf16;fill-opacity:1;fill-rule:nonzero;stroke:none"
                 id="path198851" />
            </g>
            <g
               id="g198853"
               transform="translate(88.779602,742.59531)">
              <path
                 d="M 0,0 0.794,0.139 C 1.67,0.292 1.879,-0.26 2.023,-1.085 2.167,-1.91 2.157,-2.5 1.281,-2.653 L 0.488,-2.792 Z m 0.875,-2.378 0.367,0.065 C 1.61,-2.249 1.72,-1.98 1.577,-1.163 1.44,-0.377 1.259,-0.126 0.872,-0.194 L 0.505,-0.258 Z"
                 style="fill:#fbbf16;fill-opacity:1;fill-rule:nonzero;stroke:none"
                 id="path198855" />
            </g>
          </g>
        </g>
        <g
           id="g198857"
           transform="matrix(0.35277777,0,0,-0.35277777,-1310.619,-728.33104)">
          <path
             d="M 0,0 1.506,0.283 1.576,-0.092 0.515,-0.291 0.66,-1.063 1.659,-0.876 1.729,-1.251 0.73,-1.438 0.897,-2.327 1.989,-2.123 2.059,-2.497 0.522,-2.785 Z"
             style="fill:#fbbf16;fill-opacity:1;fill-rule:nonzero;stroke:none"
             id="path198859" />
        </g>
      </g>
    </g>
  </g>
</svg>
