
<svg width="43px" height="51px" viewBox="0 0 43 51" version="1.1" xmlns="http://www.w3.org/2000/svg" xmlns:xlink="http://www.w3.org/1999/xlink">
    <!-- Generator: Sketch 47.1 (45422) - http://www.bohemiancoding.com/sketch -->
    <desc>Created with Sketch.</desc>
    <defs>
        <polygon id="path-1" points="0.142837116 0.062834171 41.8401295 0.062834171 41.8401295 50.8866516 0.142837116 50.8866516 0.142837116 0.062834171"></polygon>
        <polygon id="path-3" points="0 51.2664886 41.9838461 51.2664886 41.9838461 0.442494162 0 0.442494162"></polygon>
    </defs>
    <g id="Homepage-&amp;-Menus" stroke="none" stroke-width="1" fill="none" fill-rule="evenodd">
        <g id="HOMEPAGE---Full" transform="translate(-17.000000, -9.000000)">
            <g id="Page-1-Copy" transform="translate(17.632812, 8.609375)">
                <g id="Group-3" transform="translate(0.000000, 0.379660)">
                    <mask id="mask-2" fill="white">
                        <use xlink:href="#path-1"></use>
                    </mask>
                    <g id="Clip-2"></g>
                    <path d="M23.3684707,10.2117033 L28.6637983,3.94465846 C28.6637983,3.94465846 27.4195048,0.239212344 21.4737107,0.0679671033 C15.6323453,-0.100623172 13.8406864,3.83403492 13.8406864,3.83403492 L18.8280381,10.0993098 C18.8280381,10.0993098 16.7677853,10.3192294 15.6650898,9.32671495 C15.6650898,9.32671495 7.18424672,5.71286513 5.45099708,10.5435739 C5.45099708,10.5435739 5.32400126,11.7803451 5.81959472,12.2768235 L0.989328448,16.8858427 C0.989328448,16.8858427 -0.0859323663,19.93153 3.27613828,20.3169425 C3.27613828,20.3169425 2.22521464,21.8121302 2.22521464,22.1422309 C2.22521464,22.1422309 2.42743447,24.3347894 2.02166733,25.1091542 L1.09995199,23.3759046 C1.09995199,23.3759046 0.583561301,24.48214 2.16990287,25.5715606 L2.57478503,28.9066391 C2.57478503,28.9066391 1.43182261,27.4685331 0.363641702,27.2410911 C0.363641702,27.2410911 1.31456166,28.916374 2.34778553,29.335416 C2.34778553,29.335416 2.62301689,29.1146114 2.78850971,29.8858787 C2.78850971,29.8858787 3.51552762,32.7797905 3.68102044,33.1103337 C3.68102044,33.1103337 0.638430577,30.8407811 0.47293776,30.4553687 C0.47293776,30.4553687 0.214963664,30.050044 0.142837116,30.3823572 C0.142837116,30.3823572 0.620288316,32.1518913 4.08678758,33.6634514 L4.71778426,34.9573043 C4.71778426,34.9573043 5.10009921,35.2688202 4.9346064,35.6546751 L4.60362076,36.4670944 C4.60362076,36.4670944 3.99740376,35.3648414 1.84776712,35.0887251 C1.84776712,35.0887251 2.65399149,36.2648746 4.30803466,36.8715341 C4.30803466,36.8715341 3.5469447,40.249092 2.05883684,41.8482659 L3.22082651,44.3218083 L4.43768545,43.7133788 C4.43768545,43.7133788 5.03992001,44.6554489 5.2602821,44.8209417 C5.2602821,44.8209417 5.61206496,44.9669647 5.99747737,44.7470451 C5.99747737,44.7470451 6.37094245,44.7678424 6.75679736,44.988647 C6.75679736,44.988647 6.75104493,45.5399947 6.03464688,45.5953065 C6.03464688,45.5953065 3.51154517,45.7324796 4.44874781,47.8816738 C4.44874781,47.8816738 5.06160222,48.7839194 6.21872446,48.7294926 C6.21872446,48.7294926 7.53071965,48.469306 8.24711769,47.8077773 C8.24711769,47.8077773 10.1299304,46.6820721 10.6808356,46.6276453 C10.6808356,46.6276453 11.7326442,46.3869285 11.8976945,46.1116971 L12.1189416,46.1851512 L12.1260215,47.8064498 C12.1260215,47.8064498 13.6738661,48.6365688 15.5482714,48.4715185 C15.5482714,48.4715185 13.2415493,49.2631406 12.7455133,48.9879092 C12.7455133,48.9879092 11.9884058,49.1339323 11.6025509,48.8033891 C11.6025509,48.8033891 11.1043025,48.3799222 11.0494332,48.6560386 C11.0494332,48.6560386 11.6220207,48.9144552 11.787071,49.2458833 C11.787071,49.2458833 12.2835494,50.2954794 17.133728,49.9096245 C17.133728,49.9096245 15.9531535,50.1317566 15.8429725,50.5733658 C15.8429725,50.5733658 16.4027276,50.6105353 17.1744374,50.6658471 C17.9461472,50.7211588 20.2059649,50.5552235 20.9776747,50.1698111 C20.9776747,50.1698111 21.7493846,49.6189059 22.6308329,50.1698111 C22.6308329,50.1698111 23.5127238,50.6105353 25.0003892,50.6105353 L27.5367657,50.8866516 C27.5367657,50.8866516 28.1155481,50.6260226 26.3513238,49.9096245 C26.3513238,49.9096245 30.3470461,50.3906157 31.9457775,49.3981013 C31.9457775,49.3981013 32.5696943,48.8671083 32.5143825,48.6471887 C32.5143825,48.6471887 32.0732159,48.7025005 31.7426727,48.8671083 C31.7426727,48.8671083 30.3651884,49.0879129 29.6479054,48.8671083 C29.6479054,48.8671083 28.6186639,48.4715185 28.3425476,48.4715185 C28.3425476,48.4715185 30.4023579,48.4060294 30.9537056,47.634762 L30.9607855,46.5541913 C30.9607855,46.5541913 33.2537903,46.6502125 34.906506,47.6971537 C34.906506,47.6971537 37.7331587,49.2883627 37.8986515,46.7524287 C37.8986515,46.7524287 38.0703392,45.6497332 35.7543248,45.5953065 C35.7543248,45.5953065 36.575594,44.988647 36.9618914,44.988647 C36.9618914,44.988647 37.8433397,45.2090091 38.0641443,44.38243 C38.0641443,44.38243 38.5601803,43.280177 39.111528,43.6655894 L39.4787982,43.7886028 L41.0536349,41.2243491 C39.3699446,38.6286784 39.2442762,38.6994774 38.7858523,37.6290841 C38.7858523,37.6290841 38.7252306,37.2175645 39.2212665,36.8861364 C39.2212665,36.8861364 39.8823528,36.6113475 40.213781,35.6737024 C40.213781,35.6737024 40.5996359,35.0674854 40.8195555,35.0126161 C40.8195555,35.0126161 40.7368091,34.828981 40.5850336,34.8758854 C40.5850336,34.8758854 40.1235121,35.1714715 39.8473958,35.2816525 C39.8473958,35.2816525 39.2938356,35.4851998 39.073031,35.8714972 C39.073031,35.8714972 38.4092898,36.8303821 37.8933416,35.9453938 L37.6778469,35.1772239 L38.1194561,34.3510873 C38.1194561,34.3510873 38.2898163,33.9231954 38.7305405,33.8125719 C38.7305405,33.8125719 39.4049016,33.4010523 39.9580193,33.1059087 C39.9580193,33.1059087 41.4700219,31.9629463 41.8125124,30.6058167 C41.8125124,30.6058167 41.7572006,30.5505049 41.2062954,31.266903 C41.2062954,31.266903 41.0961143,31.4881501 40.6545051,31.7085122 C40.6545051,31.7085122 38.7252306,33.1413083 38.5601803,33.3068011 L39.2761358,30.4376689 C39.2761358,30.4376689 39.3314476,30.0513715 39.6624332,30.0513715 C39.6624332,30.0513715 41.4810842,30.1066833 41.7023313,27.0202865 C41.7023313,27.0202865 41.3151489,27.4278236 41.6465771,27.2618883 C41.6465771,27.2618883 41.7010038,26.9322302 41.4257725,27.097723 C41.4257725,27.097723 41.6709142,26.9508149 41.0642547,27.9428868 C41.0642547,27.9428868 40.1058124,29.1234613 39.5894217,29.0491223 L40.1035999,26.4693813 C40.1035999,26.4693813 40.400956,25.8782091 40.6217606,25.768028 C40.6217606,25.768028 41.1014242,25.3259764 41.7576431,23.9365447 C41.7576431,23.9365447 41.8129549,23.2750159 41.4266575,24.1020375 C41.4266575,24.1020375 40.930179,24.9286166 40.6549476,25.0936669 C40.6549476,25.0936669 40.434143,25.4795218 40.1589117,25.6450147 L40.2682077,23.7135276 C40.2682077,23.7135276 40.437683,23.1528875 40.437683,22.6015398 C40.437683,22.6015398 40.1221847,20.9966135 39.6261487,20.7209396 C39.6261487,20.7209396 43.6550581,18.4991764 40.8430077,15.8535038 L36.5211672,12.3591274 C36.5211672,12.3591274 37.1557038,8.84749377 31.7019633,8.07312899 C31.7019633,8.07312899 27.4646392,8.09790866 23.3684707,10.2117033" id="Fill-1" fill="#193989" mask="url(#mask-2)"></path>
                </g>
                <polygon id="Fill-4" fill="#FFE412" points="21.4185317 17.4891393 18.5423196 24.1818635 10.024307 24.1818635 16.7170312 29.4913509 13.7301956 38.1752988 21.6397788 32.8653689 29.7152972 38.1199871 26.5072145 29.4360391 33.3105623 24.2371752 24.4053673 24.2371752"></polygon>
                <path d="M39.0631634,29.6019745 C39.0631634,29.6019745 37.956928,28.7722979 37.6803691,28.1085567 C37.6803691,28.1085567 37.6250574,27.7213743 37.1825632,27.3341919 C37.1825632,27.3341919 36.6294455,25.1221636 36.740069,23.6287458 C36.740069,23.6287458 36.8506926,23.2415634 37.0719397,24.2371752 C37.0719397,24.2371752 37.6250574,26.8916977 38.3441104,27.6107507 C38.3441104,27.6107507 38.9525398,28.2191802 38.8419163,28.7722979 L39.0631634,29.6019745 Z" id="Fill-6" fill="#FFE412"></path>
                <path d="M36.4631119,28.4404273 C36.4631119,28.4404273 37.5693473,28.993545 37.9569722,33.5291101 C37.9569722,33.5291101 37.7357251,33.6950455 37.4591663,33.4184866 C37.4591663,33.4184866 36.7401133,32.8653689 36.6294897,31.4272629 C36.6294897,31.4272629 36.574178,28.7169861 36.4631119,28.4404273" id="Fill-8" fill="#FFE412"></path>
                <path d="M39.7269046,26.1175542 C39.7269046,26.1175542 39.0631634,25.8409953 38.8967856,25.1219423 C38.8967856,25.1219423 38.8967856,24.9006952 38.5653575,24.6241364 C38.5653575,24.6241364 37.6250574,23.5732127 38.0117973,21.6373008 C38.0117973,21.6373008 38.7866045,22.5776009 38.8419163,23.8497716 C38.8419163,23.8497716 39.1180327,24.6794482 39.2844105,24.9006952 C39.2844105,24.9006952 39.7269046,25.67506 39.7269046,26.1175542" id="Fill-10" fill="#FFE412"></path>
                <path d="M31.4301391,15.2766685 L31.0429567,15.2766685 L31.0982685,14.668239 C31.0982685,14.668239 32.1491921,14.5576154 31.4301391,15.2766685 L31.4301391,15.2766685 Z M32.5363745,14.170433 C31.5465151,14.9408154 31.0982685,13.949186 31.0982685,13.949186 C31.0982685,13.230133 32.425751,13.230133 32.425751,13.230133 C33.9191688,13.0088859 33.9744805,14.0598095 33.9744805,14.0598095 C33.8081027,15.1660449 32.3704392,15.0001096 32.3704392,15.0001096 C32.2045039,14.7235508 32.7018673,14.2810566 32.7018673,14.2810566 C32.8483329,14.2434446 32.7744364,13.985028 32.5363745,14.170433 L32.5363745,14.170433 Z M12.0157077,14.5576154 C12.5135137,14.2257448 12.4582019,15.3319802 12.4582019,15.3319802 C11.8497724,15.1660449 11.5179018,14.8894861 12.0157077,14.5576154 L12.0157077,14.5576154 Z M11.1307194,14.9447978 C11.1307194,14.9447978 11.4072783,15.387292 10.7988488,15.1660449 C10.7988488,15.1660449 9.85854869,14.9447978 9.91386046,14.1151213 C9.91386046,14.1151213 10.6329135,13.0088859 11.5179018,13.0641976 C11.5179018,13.0641976 12.2922666,13.0088859 12.0157077,13.6173153 C12.0157077,13.6173153 11.5732136,14.0598095 11.2966547,14.170433 C11.2966547,14.170433 10.7988488,14.3916801 10.8541605,13.949186 C10.8541605,13.949186 10.5776017,13.6173153 10.5222899,14.1151213 C10.5222899,14.1151213 10.4116664,14.5023037 11.1307194,14.9447978 L11.1307194,14.9447978 Z M39.0799782,40.1284681 C39.0799782,40.1284681 29.7876008,36.4411642 22.8568147,40.8855756 L24.0732311,44.4808407 C24.0732311,44.4808407 20.5695624,43.8896685 18.6531202,44.5914642 L20.4230968,40.4983932 C20.4230968,40.4983932 12.900696,36.0734516 3.99550104,40.2218343 C3.99550104,40.2218343 8.25450735,33.1419278 8.03326027,25.730593 C8.03326027,25.730593 8.36513089,16.9913333 3.44238333,15.7744744 L6.59471175,12.6770153 C6.59471175,12.6770153 4.60348802,9.13706195 10.1904193,8.97112664 C10.1904193,8.97112664 13.398502,8.91581487 16.1640905,10.7411033 L15.2791022,11.5154681 C15.2791022,11.5154681 13.6197491,11.0176621 13.5091255,12.9535741 C13.5091255,12.9535741 13.1772549,14.5023037 14.836608,14.9447978 L13.4538138,15.2213567 C13.4538138,15.2213567 12.8453843,14.7788625 12.9560078,13.5620036 C12.9560078,13.5620036 12.9560078,12.2898329 11.46259,12.4557682 C11.46259,12.4557682 9.52667806,12.3451446 8.91824859,14.5023037 L11.0754076,19.0378688 C11.0754076,19.0378688 12.9560078,19.4250512 17.1043906,18.1528805 C17.1043906,18.1528805 21.3072001,16.3820189 25.3626591,18.225892 C25.3626591,18.225892 30.0088478,19.6268286 32.1491921,18.9272453 C32.1491921,18.9272453 34.471844,14.8894861 34.58291,14.4469919 C34.58291,14.4469919 34.8028296,12.546922 32.5164623,12.4734679 C32.5164623,12.4734679 30.0469023,12.2898329 30.1579684,14.5576154 C30.1579684,14.5576154 30.3792155,15.2766685 29.27298,15.2213567 C29.27298,15.2213567 27.5030034,15.0001096 27.2264445,14.668239 C27.2264445,14.668239 28.7194199,14.170433 28.6645506,12.5663917 C28.6645506,12.5663917 28.4981728,11.294221 27.2817563,11.0729739 L26.6180151,10.1879856 C26.6180151,10.1879856 28.6645506,8.97112664 31.2642038,9.02643841 C31.2642038,9.02643841 36.7953808,9.63486789 35.5780794,12.7876388 L39.4503458,15.8297862 C39.4503458,15.8297862 34.5275982,16.9360216 34.471844,26.228399 C34.471844,26.228399 34.0466071,32.1082614 39.0799782,40.1284681 L39.0799782,40.1284681 Z M37.237875,44.5361524 C37.237875,44.5361524 34.4169747,44.0383465 34.1404158,47.1358056 L32.646998,46.6379997 C32.646998,46.6379997 32.0381261,46.5273762 32.646998,45.7530114 C32.646998,45.7530114 34.8209719,43.9449802 34.8762836,42.7834331 C34.8762836,42.7834331 36.9613161,43.2086699 37.5693031,43.6511641 C37.5693031,43.6511641 37.6250574,44.3149053 37.237875,44.5361524 L37.237875,44.5361524 Z M36.518822,47.3017409 C36.1869513,47.3017409 36.1869513,46.9145586 36.1869513,46.9145586 C36.9613161,45.9189467 37.348056,47.1358056 37.348056,47.1358056 C37.0719397,48.8504705 35.3568323,47.7442351 35.3568323,47.7442351 C35.301963,47.4123645 35.6891454,47.5782998 35.6891454,47.5782998 C35.9103925,47.8548586 36.5741337,47.6889233 36.5741337,47.6889233 C36.9613161,47.522988 36.518822,47.3017409 36.518822,47.3017409 L36.518822,47.3017409 Z M35.0807159,46.7486232 C35.0807159,46.5826879 35.2466512,46.3614408 35.2466512,46.3614408 C35.6338336,46.4167526 35.5780794,46.5826879 35.4678983,46.803935 C35.3568323,47.0251821 35.0807159,46.9145586 35.0807159,46.7486232 L35.0807159,46.7486232 Z M31.2642038,43.3192935 C31.2642038,43.3192935 28.9964212,42.7661758 26.5627033,44.0936583 C26.5627033,44.0936583 24.4055443,44.4808407 25.2352208,43.8170994 C25.2352208,43.8170994 27.6131844,42.2130581 31.3195155,42.5449287 L31.2642038,43.3192935 Z M30.4345272,44.8127113 C30.4345272,44.8127113 28.9406669,45.4764525 26.7281961,44.9233348 C26.7281961,44.9233348 29.051733,43.9830347 29.9367213,43.9830347 C29.9367213,43.9830347 31.6513862,44.0936583 30.4345272,44.8127113 L30.4345272,44.8127113 Z M23.6864913,49.2376529 C23.6864913,49.2376529 23.02275,48.9057823 23.0780618,48.020794 C23.0780618,48.020794 24.5714796,48.020794 25.0692855,48.3526646 C25.0692855,48.3526646 24.0183619,49.1823411 23.6864913,49.2376529 L23.6864913,49.2376529 Z M23.02275,49.4589 C23.02275,49.4589 22.3032545,49.6248353 22.1377617,49.7907706 C22.1377617,49.7907706 21.6395133,49.9013941 21.4740204,49.6801471 C21.4740204,49.6801471 21.0315263,49.4589 20.8102792,49.4589 C20.8102792,49.4589 20.2018497,49.4589 20.6996557,48.8504705 L21.1974616,48.020794 C21.1974616,48.020794 21.2527734,47.7442351 21.9165146,47.7995469 C21.9165146,47.7995469 22.3590088,47.6889233 22.5245016,48.1314175 L22.9669957,48.8504705 C22.9669957,48.8504705 23.2439971,49.3482764 23.02275,49.4589 L23.02275,49.4589 Z M19.9252909,49.0717176 C19.9252909,49.0717176 18.8190555,48.4632881 18.6531202,48.4632881 C18.6531202,48.4632881 20.2018497,47.6889233 20.367785,48.1867293 C20.367785,48.1867293 20.4784086,49.2929647 19.9252909,49.0717176 L19.9252909,49.0717176 Z M17.3809494,43.927723 C17.3809494,43.927723 14.4494256,42.4896169 12.0710195,42.9874229 C12.0710195,42.9874229 12.181643,42.1577463 13.2878784,42.1577463 C13.2878784,42.1577463 18.3765613,42.3789934 18.2659378,43.6511641 C18.2659378,43.6511641 18.3212495,44.2595936 17.3809494,43.927723 L17.3809494,43.927723 Z M12.7900725,44.7020877 C12.7900725,44.7020877 11.8497724,43.8170994 12.9560078,43.6511641 C12.9560078,43.6511641 15.1131669,43.3192935 17.6021965,44.7020877 C17.6021965,44.7020877 15.3344139,45.6423878 12.7900725,44.7020877 L12.7900725,44.7020877 Z M10.743537,46.084882 L8.47575443,47.2464292 C8.47575443,47.2464292 8.75231328,43.9830347 5.70972342,44.5361524 L5.26722926,43.8724112 C5.26722926,43.8724112 7.36951902,42.7661758 8.86293682,42.5449287 C8.86293682,42.5449287 10.5222899,45.5870761 10.743537,46.084882 L10.743537,46.084882 Z M7.03720591,46.7486232 L6.76108955,46.4720644 C6.76108955,46.4720644 7.09296017,46.084882 7.36951902,46.1955055 C7.64607787,46.3061291 7.20358371,46.6933115 7.03720591,46.7486232 L7.03720591,46.7486232 Z M5.87610123,48.6845352 C5.87610123,48.6845352 4.71455405,48.2973528 4.76986582,47.5782998 C4.76986582,47.5782998 4.76986582,46.6933115 5.5442306,46.7486232 C5.5442306,46.7486232 6.33629515,46.61853 6.37346466,47.3570527 C6.37346466,47.3570527 5.87610123,47.7442351 5.65485414,47.7442351 C5.65485414,47.7442351 4.93580113,48.020794 6.15221758,48.2973528 C6.15221758,48.2973528 6.81595883,47.9101704 6.98233663,47.6336116 C6.98233663,47.6336116 7.36951902,47.1911174 7.42483079,47.6336116 C7.42483079,47.6336116 7.09296017,48.6845352 5.87610123,48.6845352 L5.87610123,48.6845352 Z M4.54861874,18.1528805 L4.27205989,17.8763217 C4.27205989,17.8763217 4.10612458,17.1572686 4.65924228,17.544451 L4.88048936,17.7656981 C4.88048936,17.7656981 5.04598218,18.3741276 4.54861874,18.1528805 L4.54861874,18.1528805 Z M3.44238333,19.7016101 C3.44238333,19.7016101 2.66801855,20.3653513 1.72727596,19.480363 C1.72727596,19.480363 0.676794821,18.4294394 1.67240669,17.2678922 C1.67240669,17.2678922 2.44677147,16.1616568 3.49725261,16.825398 C3.49725261,16.825398 3.16582448,17.4891393 2.16977012,17.8763217 C2.16977012,17.8763217 1.22991252,18.8719335 2.50208324,19.2591159 C2.50208324,19.2591159 3.27600553,19.3697395 2.66801855,18.9272453 C2.66801855,18.9272453 2.55739501,17.9869452 3.27600553,18.3741276 C3.27600553,18.3741276 4.32737166,19.1484924 3.44238333,19.7016101 L3.44238333,19.7016101 Z M17.1043906,11.5707798 L16.3300258,12.1238975 C16.3300258,12.1238975 15.555661,12.2898329 15.9981552,11.7367152 L16.77252,11.1835975 C16.77252,11.1835975 17.1043906,11.4048445 17.1043906,11.5707798 L17.1043906,11.5707798 Z M17.7681318,12.6770153 C17.7681318,12.6770153 17.8787554,14.3916801 15.8322199,14.5023037 C15.8322199,14.5023037 14.2281785,14.4469919 14.3388021,13.1195094 C14.3388021,13.1195094 14.4494256,12.4004564 14.9472315,12.4557682 C14.9472315,12.4557682 15.5003493,12.5110799 15.4450375,13.0088859 C15.4450375,13.0088859 15.1131669,13.8938742 15.8875316,13.5066918 C15.8875316,13.5066918 16.9384553,12.4557682 17.2703259,12.3451446 C17.2703259,12.3451446 17.8234436,12.013274 17.7681318,12.6770153 L17.7681318,12.6770153 Z M23.8519841,11.2389092 C23.8519841,11.2389092 23.4094899,12.3451446 23.5205559,12.6217035 C23.5205559,12.6217035 21.4187087,11.9026505 18.6531202,12.732327 C18.6531202,12.732327 18.8190555,11.8473387 18.3212495,11.4048445 C18.3212495,11.4048445 22.5245016,11.9579622 23.8519841,11.2389092 L23.8519841,11.2389092 Z M24.6821031,11.7920269 C24.6821031,11.7920269 24.8480384,11.3495328 25.1794666,11.8473387 C25.1794666,11.8473387 26.0095856,12.7876388 26.0095856,13.0088859 C26.0095856,13.0088859 26.4520798,13.3960683 26.506949,12.732327 C26.506949,12.732327 27.1706903,11.7920269 27.6689387,12.2898329 C27.6689387,12.2898329 28.4433035,13.7279389 26.1755209,14.2257448 C26.1755209,14.2257448 24.460856,14.0598095 24.460856,12.6217035 C24.460856,12.6217035 24.5157253,12.013274 24.6821031,11.7920269 L24.6821031,11.7920269 Z M25.8432078,10.4092327 C25.8432078,10.4092327 26.285702,11.1282857 26.5627033,11.2389092 C26.5627033,11.2389092 26.2308327,11.9026505 25.8989621,11.6260916 L25.4564679,11.1282857 C25.4564679,11.1282857 25.1245973,10.7411033 25.8432078,10.4092327 L25.8432078,10.4092327 Z M40.9990753,17.1019569 C40.9990753,17.1019569 42.1774373,18.8157368 40.3353341,19.9781689 C40.3353341,19.9781689 39.3392797,20.5865984 39.0631634,19.3144277 C39.0631634,19.3144277 39.1180327,18.3741276 39.8375282,18.2081923 C39.8375282,18.2081923 40.3353341,18.0975687 40.3353341,18.6506864 C40.3353341,18.6506864 40.7225165,19.0931806 40.6667622,18.1528805 C40.6667622,18.1528805 40.83314,17.323204 39.395034,16.9913333 C39.395034,16.9913333 40.003021,16.2722803 40.9990753,17.1019569 L40.9990753,17.1019569 Z M38.7866045,17.8763217 L38.3441104,18.4847511 L37.956928,18.042257 L38.4542914,17.4891393 C38.4542914,17.4891393 38.9525398,17.3785157 38.7866045,17.8763217 L38.7866045,17.8763217 Z M41.7729976,27.3895036 L41.8840637,26.8363859 C41.8840637,26.8363859 40.4455151,29.1594803 39.8928399,29.2701038 C39.8928399,29.2701038 39.4503458,29.4913509 40.1693988,26.8363859 C40.1693988,26.8363859 40.2242681,26.449646 40.5565812,26.3390225 C40.5565812,26.3390225 41.9393754,24.9009165 41.9393754,23.7393693 C41.9393754,23.7393693 41.1650107,24.9009165 40.8880093,25.0668518 L40.2800223,25.730593 L40.2242681,23.9053046 C40.2242681,23.9053046 40.83314,22.6884457 39.8375282,21.3056514 C39.8375282,21.3056514 39.5605268,22.6884457 39.9481517,23.6840575 C39.9481517,23.6840575 40.114087,24.1818635 40.0587753,24.5690459 C40.0587753,24.5690459 38.9525398,32.6441218 37.5693031,34.9672162 C37.5693031,34.9672162 33.1443615,26.0071519 37.2931867,18.8166218 L38.9525398,20.7525337 C38.9525398,20.7525337 39.6162811,21.0290926 40.003021,20.8631573 C40.003021,20.8631573 42.1606225,19.8122336 41.8287519,17.9869452 C41.8287519,17.9869452 41.7729976,16.7700863 40.8880093,16.106345 C40.8880093,16.106345 36.6843148,12.9535741 36.5741337,12.6770153 C36.5741337,12.6770153 37.61665,9.48087992 31.9195376,8.37464451 C31.9195376,8.37464451 28.8588055,7.82152681 23.5758677,10.4092327 L28.6645506,4.32493794 C28.6645506,4.32493794 28.553927,3.77182024 27.8901858,3.10807899 L23.5205559,9.08175018 L27.4198145,2.66558483 C27.4198145,2.66558483 27.0051975,2.19565603 26.6733268,2.08503249 L24.1842972,5.87366751 L26.2582673,1.80847364 C26.2582673,1.80847364 25.9542738,1.53191479 25.4007136,1.33810235 L23.4094899,4.93336741 L24.9033502,1.11685527 C24.9033502,1.11685527 24.0732311,0.812419282 23.9077383,0.812419282 L22.5245016,4.32493794 L23.1608082,0.646483971 C23.1608082,0.646483971 22.3864434,0.563737563 21.8058911,0.508425792 L21.3633969,4.10369086 L21.2248962,0.53586043 C21.2248962,0.53586043 20.3124733,0.508425792 20.146538,0.563737563 L20.5890321,4.04837909 L19.3996078,0.646483971 C19.3996078,0.646483971 18.6531202,0.784984644 18.3765613,0.895608184 L19.4827967,4.54618502 L17.7128201,1.08897813 C17.7128201,1.08897813 16.993767,1.33810235 16.8278317,1.50403766 L18.5978084,5.48648512 L16.274714,1.75316187 C16.274714,1.75316187 15.4450375,2.33371421 15.2791022,2.49964952 L19.0403025,8.8605031 L14.836608,2.94214368 C14.836608,2.94214368 13.8963079,3.99306732 13.8409961,4.2143144 L18.8190555,10.4092327 C18.8190555,10.4092327 17.3809494,10.6857915 15.3344139,9.52424435 C15.3344139,9.52424435 12.9560078,8.36269717 9.74792514,8.25207363 C9.74792514,8.25207363 4.32737166,8.36269717 5.59954237,12.6217035 C5.59954237,12.6217035 4.30790192,14.2062751 0.805118128,17.3409037 C0.805118128,17.3409037 0.123677118,19.0931806 1.22991252,20.0887925 C1.22991252,20.0887925 2.39101721,21.0844043 3.27600553,20.6972219 C3.27600553,20.6972219 3.8848775,20.4206631 4.4379952,19.6462983 L5.32298352,18.8166218 C5.32298352,18.8166218 5.70972342,18.4294394 5.9309705,19.0931806 C5.9309705,19.0931806 8.97356036,24.3477988 5.15704821,35.0778397 C5.15704821,35.0778397 4.62694021,34.6632227 4.57162844,34.110105 C4.57162844,34.110105 4.38224093,33.4737984 4.65924228,33.3631748 C4.65924228,33.3631748 4.9911129,33.3078631 4.9911129,32.4228747 C4.9911129,32.4228747 5.15704821,30.8188334 4.93580113,29.5466627 C4.93580113,29.5466627 4.93580113,28.1638684 5.21235998,27.555439 C5.21235998,27.555439 3.82956573,28.3851155 4.16099385,32.0910041 C4.16099385,32.0910041 4.21674812,33.1419278 3.82956573,32.4781865 C3.82956573,32.4781865 3.03130626,29.8086192 3.08661803,29.2001898 C3.08661803,29.2001898 3.99550104,27.2788801 4.38224093,26.8363859 C4.38224093,26.8363859 4.73933372,26.2062743 4.8247351,25.8965283 C4.8247351,25.8965283 5.21235998,24.4584223 5.21235998,24.0712399 C5.21235998,24.0712399 4.49330697,25.01154 4.4379952,25.2880989 C4.4379952,25.2880989 4.26055504,25.4637691 4.16099385,25.730593 C4.16099385,25.730593 3.27600553,26.6155814 3.11051271,28.1085567 C3.11051271,28.1085567 3.08307807,29.2320493 2.75120745,28.4576846 L2.44677147,25.6752813 C2.44677147,25.6752813 4.38224093,24.0712399 4.05081281,22.9650045 C4.05081281,22.9650045 3.8769126,23.2362534 3.60831865,23.5181222 C3.60831865,23.5181222 2.61226429,24.9009165 2.65297375,25.1774753 L2.54235021,23.6287458 C2.54235021,23.6287458 3.55300687,22.5778221 3.05475845,21.0290926 C3.05475845,21.0290926 2.22552439,22.3012633 2.22552439,22.5225104 C2.22552439,22.5225104 2.39101721,24.7349812 2.05958908,25.1221636 C2.05958908,25.1221636 1.94852304,25.3434106 1.72727596,24.8456047 C1.72727596,24.8456047 1.06353472,23.2968751 0.953353672,23.6287458 C0.953353672,23.6287458 0.676794821,25.0668518 2.16977012,25.9518401 C2.16977012,25.9518401 2.61226429,28.7722979 2.44677147,29.1594803 C2.44677147,29.1594803 1.11928898,27.4448154 0.289612429,27.6107507 C0.289612429,27.6107507 1.72727596,29.6019745 2.11490085,29.6572862 C2.11490085,29.6572862 2.66801855,29.3807274 2.83351137,30.0997804 L3.60831865,33.3631748 C3.60831865,33.3631748 1.17061831,31.5232841 0.51085951,30.9294569 C0.51085951,30.9294569 0.021903461,30.1276575 0.0449131575,30.9006948 C0.0449131575,30.9006948 0.715734307,32.2662318 1.39584783,32.6441218 C1.39584783,32.6441218 3.66363042,33.9716043 3.82956573,33.9716043 C3.82956573,33.9716043 4.27205989,34.1928514 4.32737166,34.4140985 C4.32737166,34.4140985 4.88048936,35.4650221 4.88048936,35.741581 C4.88048936,35.741581 4.71455405,36.5159457 4.49330697,36.6818811 C4.49330697,36.6818811 2.99988917,35.4097103 1.89365377,35.5203339 C1.89365377,35.5203339 2.83351137,36.6818811 3.77425396,37.0137517 C3.77425396,37.0137517 4.38224093,37.1243752 4.21674812,37.6221811 C4.21674812,37.6221811 3.79195372,39.3545458 3.01714644,40.4236117 C3.01714644,40.4236117 2.16932763,41.8249907 1.76134801,42.1528789 L3.22113625,44.7020877 L4.4379952,44.0936583 C4.4379952,44.0936583 4.9911129,45.1445819 5.15704821,45.1998937 C5.15704821,45.1998937 5.32298352,45.5317643 5.82078946,45.1998937 C5.82078946,45.1998937 6.59471175,45.0339584 6.70577778,45.4211408 C6.70577778,45.4211408 6.81595883,45.8636349 5.32298352,46.0295702 C5.32298352,46.0295702 4.21674812,46.2508173 4.05081281,47.5782998 C4.05081281,47.5782998 4.16055136,49.3473915 5.70928093,49.3473915 C5.70928093,49.3473915 6.07787856,49.5319115 8.75231328,47.9654822 C8.75231328,47.9654822 10.5776017,47.0251821 11.1307194,46.9145586 C11.1307194,46.9145586 12.2922666,46.7486232 11.46259,45.9189467 C11.46259,45.9189467 10.9824839,44.7012028 10.0974955,43.3737203 C10.0974955,43.3737203 9.69261337,42.4896169 9.69261337,42.2683698 C9.69261337,42.2683698 11.1307194,42.0471228 11.4072783,42.1577463 C11.4072783,42.1577463 11.2966547,43.0980464 11.2413429,43.3192935 C11.2413429,43.3192935 11.2413429,43.8724112 11.5179018,44.2042818 C11.5179018,44.2042818 11.960396,44.7573995 11.960396,45.1445819 L12.1263313,48.1867293 C12.1263313,48.1867293 13.7303726,49.2929647 17.491573,48.5185999 C17.491573,48.5185999 18.2659378,48.242041 19.0956143,49.1823411 C19.0956143,49.1823411 18.5978084,49.5142118 17.8234436,49.1823411 C17.8234436,49.1823411 15.4450375,48.8504705 12.7347607,49.2929647 C12.7347607,49.2929647 11.5179018,49.2929647 11.1860312,48.9057823 C11.1860312,48.9057823 10.7988488,48.7951587 10.6329135,48.8504705 C10.6329135,48.8504705 11.1307194,49.0717176 11.2413429,49.2929647 C11.2413429,49.2929647 12.0710195,50.4545118 14.3941138,50.4545118 C14.3941138,50.4545118 15.8875316,50.5098236 17.491573,49.8460824 C17.491573,49.8460824 20.146538,49.2376529 21.1974616,50.1226412 C21.1974616,50.1226412 19.9806026,50.6204472 19.0403025,50.6757589 C19.0403025,50.6757589 17.8234436,50.6757589 17.6575083,50.5098236 C17.6575083,50.5098236 16.1087787,50.2885765 15.6662846,50.9523178 C15.6662846,50.9523178 15.6662846,51.0629413 15.9981552,51.0076296 C15.9981552,51.0076296 18.1000025,51.0076296 18.7084319,50.897006 C18.7084319,50.897006 20.7549674,50.7310707 21.8058911,50.2332648 C21.8058911,50.2332648 23.4094899,50.7863825 23.741803,50.8416942 C23.741803,50.8416942 24.3502325,50.9523178 24.6821031,50.897006 C24.6821031,50.897006 27.5030034,51.2841884 27.7795623,51.1735649 C27.7795623,51.1735649 27.6689387,50.5651354 26.3414562,50.4545118 L24.2944782,50.6204472 C24.2944782,50.6204472 22.8015029,50.3992001 22.6908794,50.0673295 C22.6908794,50.0673295 24.239609,49.1270294 25.8989621,49.9567059 C25.8989621,49.9567059 30.4345272,51.5054355 32.7576216,49.0164058 C32.7576216,49.0164058 30.9876449,49.4035882 30.1579684,49.0164058 C30.1579684,49.0164058 26.6733268,48.8504705 25.0692855,49.4035882 C25.0692855,49.4035882 24.4055443,49.3482764 24.9033502,48.9057823 L25.8432078,48.4632881 C25.8432078,48.4632881 29.3831611,49.2929647 30.9876449,48.0761057 L31.0429567,45.3105172 C31.0429567,45.3105172 32.4266359,44.5560647 32.3160124,42.6201527 C32.3160124,42.6201527 33.1987883,42.3781084 34.1390883,42.709979 C34.1390883,42.709979 34.0851041,43.7064759 32.5363745,44.8680231 C32.5363745,44.8680231 31.2642038,46.1401938 31.208892,46.9145586 C31.208892,46.9145586 33.9744805,47.4123645 35.4125865,48.4632881 C35.4125865,48.4632881 37.5144338,49.3482764 37.956928,47.1911174 C37.956928,47.1911174 37.9016162,45.7530114 35.9103925,45.9189467 C35.9103925,45.9189467 36.2975749,45.3105172 37.2931867,45.3105172 C37.2931867,45.3105172 37.7356809,45.365829 37.956928,44.9786466 L38.4542914,44.2042818 C38.4542914,44.2042818 38.7312928,43.7064759 39.5605268,44.14897 L41.0543871,41.6046286 C41.0543871,41.6046286 38.7866045,38.4518577 38.7866045,38.0093635 C38.7866045,38.0093635 38.6755385,37.6221811 39.1180327,37.3456223 C39.1180327,37.3456223 40.3353341,36.3500104 40.2800223,36.0734516 C40.2800223,36.0734516 40.6667622,35.4650221 40.8880093,35.4097103 C40.8880093,35.4097103 41.1092564,34.8012809 40.3353341,35.3543986 L39.7269046,35.6309574 C39.7269046,35.6309574 39.395034,35.7968927 39.0631634,36.1287633 C39.0631634,36.1287633 38.6206692,37.1243752 38.0117973,36.460634 C38.0117973,36.460634 37.7356809,35.741581 37.7356809,35.5756456 C37.7356809,35.4097103 38.0675515,34.4694102 38.7312928,34.1928514 C39.395034,33.9162925 41.6075048,33.0313042 41.8840637,30.7635216 C41.8840637,30.7635216 41.5517506,31.3719511 41.1650107,31.4825746 L40.7778283,31.8144453 C40.7778283,31.8144453 39.0078516,33.086616 38.7866045,33.3078631 C38.7866045,33.3078631 39.0631634,30.9294569 39.4503458,30.431651 C39.4503458,30.431651 41.4415695,30.4869628 41.7729976,27.3895036 L41.7729976,27.3895036 Z" id="Fill-12" fill="#FFE412"></path>
                <path d="M31.4301391,15.2766685 L31.0429567,15.2766685 L31.0982685,14.668239 C31.0982685,14.668239 32.1491921,14.5576154 31.4301391,15.2766685 Z M32.5363745,14.170433 C31.5465151,14.9408154 31.0982685,13.949186 31.0982685,13.949186 C31.0982685,13.230133 32.425751,13.230133 32.425751,13.230133 C33.9191688,13.0088859 33.9744805,14.0598095 33.9744805,14.0598095 C33.8081027,15.1660449 32.3704392,15.0001096 32.3704392,15.0001096 C32.2045039,14.7235508 32.7018673,14.2810566 32.7018673,14.2810566 C32.8483329,14.2434446 32.7744364,13.985028 32.5363745,14.170433 Z M12.0157077,14.5576154 C12.5135137,14.2257448 12.4582019,15.3319802 12.4582019,15.3319802 C11.8497724,15.1660449 11.5179018,14.8894861 12.0157077,14.5576154 Z M11.1307194,14.9447978 C11.1307194,14.9447978 11.4072783,15.387292 10.7988488,15.1660449 C10.7988488,15.1660449 9.85854869,14.9447978 9.91386046,14.1151213 C9.91386046,14.1151213 10.6329135,13.0088859 11.5179018,13.0641976 C11.5179018,13.0641976 12.2922666,13.0088859 12.0157077,13.6173153 C12.0157077,13.6173153 11.5732136,14.0598095 11.2966547,14.170433 C11.2966547,14.170433 10.7988488,14.3916801 10.8541605,13.949186 C10.8541605,13.949186 10.5776017,13.6173153 10.5222899,14.1151213 C10.5222899,14.1151213 10.4116664,14.5023037 11.1307194,14.9447978 Z M39.0799782,40.1284681 C39.0799782,40.1284681 29.7876008,36.4411642 22.8568147,40.8855756 L24.0732311,44.4808407 C24.0732311,44.4808407 20.5695624,43.8896685 18.6531202,44.5914642 L20.4230968,40.4983932 C20.4230968,40.4983932 12.900696,36.0734516 3.99550104,40.2218343 C3.99550104,40.2218343 8.25450735,33.1419278 8.03326027,25.730593 C8.03326027,25.730593 8.36513089,16.9913333 3.44238333,15.7744744 L6.59471175,12.6770153 C6.59471175,12.6770153 4.60348802,9.13706195 10.1904193,8.97112664 C10.1904193,8.97112664 13.398502,8.91581487 16.1640905,10.7411033 L15.2791022,11.5154681 C15.2791022,11.5154681 13.6197491,11.0176621 13.5091255,12.9535741 C13.5091255,12.9535741 13.1772549,14.5023037 14.836608,14.9447978 L13.4538138,15.2213567 C13.4538138,15.2213567 12.8453843,14.7788625 12.9560078,13.5620036 C12.9560078,13.5620036 12.9560078,12.2898329 11.46259,12.4557682 C11.46259,12.4557682 9.52667806,12.3451446 8.91824859,14.5023037 L11.0754076,19.0378688 C11.0754076,19.0378688 12.9560078,19.4250512 17.1043906,18.1528805 C17.1043906,18.1528805 21.3072001,16.3820189 25.3626591,18.225892 C25.3626591,18.225892 30.0088478,19.6268286 32.1491921,18.9272453 C32.1491921,18.9272453 34.471844,14.8894861 34.58291,14.4469919 C34.58291,14.4469919 34.8028296,12.546922 32.5164623,12.4734679 C32.5164623,12.4734679 30.0469023,12.2898329 30.1579684,14.5576154 C30.1579684,14.5576154 30.3792155,15.2766685 29.27298,15.2213567 C29.27298,15.2213567 27.5030034,15.0001096 27.2264445,14.668239 C27.2264445,14.668239 28.7194199,14.170433 28.6645506,12.5663917 C28.6645506,12.5663917 28.4981728,11.294221 27.2817563,11.0729739 L26.6180151,10.1879856 C26.6180151,10.1879856 28.6645506,8.97112664 31.2642038,9.02643841 C31.2642038,9.02643841 36.7953808,9.63486789 35.5780794,12.7876388 L39.4503458,15.8297862 C39.4503458,15.8297862 34.5275982,16.9360216 34.471844,26.228399 C34.471844,26.228399 34.0466071,32.1082614 39.0799782,40.1284681 Z M37.237875,44.5361524 C37.237875,44.5361524 34.4169747,44.0383465 34.1404158,47.1358056 L32.646998,46.6379997 C32.646998,46.6379997 32.0381261,46.5273762 32.646998,45.7530114 C32.646998,45.7530114 34.8209719,43.9449802 34.8762836,42.7834331 C34.8762836,42.7834331 36.9613161,43.2086699 37.5693031,43.6511641 C37.5693031,43.6511641 37.6250574,44.3149053 37.237875,44.5361524 Z M36.518822,47.3017409 C36.1869513,47.3017409 36.1869513,46.9145586 36.1869513,46.9145586 C36.9613161,45.9189467 37.348056,47.1358056 37.348056,47.1358056 C37.0719397,48.8504705 35.3568323,47.7442351 35.3568323,47.7442351 C35.301963,47.4123645 35.6891454,47.5782998 35.6891454,47.5782998 C35.9103925,47.8548586 36.5741337,47.6889233 36.5741337,47.6889233 C36.9613161,47.522988 36.518822,47.3017409 36.518822,47.3017409 Z M35.0807159,46.7486232 C35.0807159,46.5826879 35.2466512,46.3614408 35.2466512,46.3614408 C35.6338336,46.4167526 35.5780794,46.5826879 35.4678983,46.803935 C35.3568323,47.0251821 35.0807159,46.9145586 35.0807159,46.7486232 Z M31.2642038,43.3192935 C31.2642038,43.3192935 28.9964212,42.7661758 26.5627033,44.0936583 C26.5627033,44.0936583 24.4055443,44.4808407 25.2352208,43.8170994 C25.2352208,43.8170994 27.6131844,42.2130581 31.3195155,42.5449287 L31.2642038,43.3192935 Z M30.4345272,44.8127113 C30.4345272,44.8127113 28.9406669,45.4764525 26.7281961,44.9233348 C26.7281961,44.9233348 29.051733,43.9830347 29.9367213,43.9830347 C29.9367213,43.9830347 31.6513862,44.0936583 30.4345272,44.8127113 Z M23.6864913,49.2376529 C23.6864913,49.2376529 23.02275,48.9057823 23.0780618,48.020794 C23.0780618,48.020794 24.5714796,48.020794 25.0692855,48.3526646 C25.0692855,48.3526646 24.0183619,49.1823411 23.6864913,49.2376529 Z M23.02275,49.4589 C23.02275,49.4589 22.3032545,49.6248353 22.1377617,49.7907706 C22.1377617,49.7907706 21.6395133,49.9013941 21.4740204,49.6801471 C21.4740204,49.6801471 21.0315263,49.4589 20.8102792,49.4589 C20.8102792,49.4589 20.2018497,49.4589 20.6996557,48.8504705 L21.1974616,48.020794 C21.1974616,48.020794 21.2527734,47.7442351 21.9165146,47.7995469 C21.9165146,47.7995469 22.3590088,47.6889233 22.5245016,48.1314175 L22.9669957,48.8504705 C22.9669957,48.8504705 23.2439971,49.3482764 23.02275,49.4589 Z M19.9252909,49.0717176 C19.9252909,49.0717176 18.8190555,48.4632881 18.6531202,48.4632881 C18.6531202,48.4632881 20.2018497,47.6889233 20.367785,48.1867293 C20.367785,48.1867293 20.4784086,49.2929647 19.9252909,49.0717176 Z M17.3809494,43.927723 C17.3809494,43.927723 14.4494256,42.4896169 12.0710195,42.9874229 C12.0710195,42.9874229 12.181643,42.1577463 13.2878784,42.1577463 C13.2878784,42.1577463 18.3765613,42.3789934 18.2659378,43.6511641 C18.2659378,43.6511641 18.3212495,44.2595936 17.3809494,43.927723 Z M12.7900725,44.7020877 C12.7900725,44.7020877 11.8497724,43.8170994 12.9560078,43.6511641 C12.9560078,43.6511641 15.1131669,43.3192935 17.6021965,44.7020877 C17.6021965,44.7020877 15.3344139,45.6423878 12.7900725,44.7020877 Z M10.743537,46.084882 L8.47575443,47.2464292 C8.47575443,47.2464292 8.75231328,43.9830347 5.70972342,44.5361524 L5.26722926,43.8724112 C5.26722926,43.8724112 7.36951902,42.7661758 8.86293682,42.5449287 C8.86293682,42.5449287 10.5222899,45.5870761 10.743537,46.084882 Z M7.03720591,46.7486232 L6.76108955,46.4720644 C6.76108955,46.4720644 7.09296017,46.084882 7.36951902,46.1955055 C7.64607787,46.3061291 7.20358371,46.6933115 7.03720591,46.7486232 Z M5.87610123,48.6845352 C5.87610123,48.6845352 4.71455405,48.2973528 4.76986582,47.5782998 C4.76986582,47.5782998 4.76986582,46.6933115 5.5442306,46.7486232 C5.5442306,46.7486232 6.33629515,46.61853 6.37346466,47.3570527 C6.37346466,47.3570527 5.87610123,47.7442351 5.65485414,47.7442351 C5.65485414,47.7442351 4.93580113,48.020794 6.15221758,48.2973528 C6.15221758,48.2973528 6.81595883,47.9101704 6.98233663,47.6336116 C6.98233663,47.6336116 7.36951902,47.1911174 7.42483079,47.6336116 C7.42483079,47.6336116 7.09296017,48.6845352 5.87610123,48.6845352 Z M4.54861874,18.1528805 L4.27205989,17.8763217 C4.27205989,17.8763217 4.10612458,17.1572686 4.65924228,17.544451 L4.88048936,17.7656981 C4.88048936,17.7656981 5.04598218,18.3741276 4.54861874,18.1528805 Z M3.44238333,19.7016101 C3.44238333,19.7016101 2.66801855,20.3653513 1.72727596,19.480363 C1.72727596,19.480363 0.676794821,18.4294394 1.67240669,17.2678922 C1.67240669,17.2678922 2.44677147,16.1616568 3.49725261,16.825398 C3.49725261,16.825398 3.16582448,17.4891393 2.16977012,17.8763217 C2.16977012,17.8763217 1.22991252,18.8719335 2.50208324,19.2591159 C2.50208324,19.2591159 3.27600553,19.3697395 2.66801855,18.9272453 C2.66801855,18.9272453 2.55739501,17.9869452 3.27600553,18.3741276 C3.27600553,18.3741276 4.32737166,19.1484924 3.44238333,19.7016101 Z M17.1043906,11.5707798 L16.3300258,12.1238975 C16.3300258,12.1238975 15.555661,12.2898329 15.9981552,11.7367152 L16.77252,11.1835975 C16.77252,11.1835975 17.1043906,11.4048445 17.1043906,11.5707798 Z M17.7681318,12.6770153 C17.7681318,12.6770153 17.8787554,14.3916801 15.8322199,14.5023037 C15.8322199,14.5023037 14.2281785,14.4469919 14.3388021,13.1195094 C14.3388021,13.1195094 14.4494256,12.4004564 14.9472315,12.4557682 C14.9472315,12.4557682 15.5003493,12.5110799 15.4450375,13.0088859 C15.4450375,13.0088859 15.1131669,13.8938742 15.8875316,13.5066918 C15.8875316,13.5066918 16.9384553,12.4557682 17.2703259,12.3451446 C17.2703259,12.3451446 17.8234436,12.013274 17.7681318,12.6770153 Z M23.8519841,11.2389092 C23.8519841,11.2389092 23.4094899,12.3451446 23.5205559,12.6217035 C23.5205559,12.6217035 21.4187087,11.9026505 18.6531202,12.732327 C18.6531202,12.732327 18.8190555,11.8473387 18.3212495,11.4048445 C18.3212495,11.4048445 22.5245016,11.9579622 23.8519841,11.2389092 Z M24.6821031,11.7920269 C24.6821031,11.7920269 24.8480384,11.3495328 25.1794666,11.8473387 C25.1794666,11.8473387 26.0095856,12.7876388 26.0095856,13.0088859 C26.0095856,13.0088859 26.4520798,13.3960683 26.506949,12.732327 C26.506949,12.732327 27.1706903,11.7920269 27.6689387,12.2898329 C27.6689387,12.2898329 28.4433035,13.7279389 26.1755209,14.2257448 C26.1755209,14.2257448 24.460856,14.0598095 24.460856,12.6217035 C24.460856,12.6217035 24.5157253,12.013274 24.6821031,11.7920269 Z M25.8432078,10.4092327 C25.8432078,10.4092327 26.285702,11.1282857 26.5627033,11.2389092 C26.5627033,11.2389092 26.2308327,11.9026505 25.8989621,11.6260916 L25.4564679,11.1282857 C25.4564679,11.1282857 25.1245973,10.7411033 25.8432078,10.4092327 Z M40.9990753,17.1019569 C40.9990753,17.1019569 42.1774373,18.8157368 40.3353341,19.9781689 C40.3353341,19.9781689 39.3392797,20.5865984 39.0631634,19.3144277 C39.0631634,19.3144277 39.1180327,18.3741276 39.8375282,18.2081923 C39.8375282,18.2081923 40.3353341,18.0975687 40.3353341,18.6506864 C40.3353341,18.6506864 40.7225165,19.0931806 40.6667622,18.1528805 C40.6667622,18.1528805 40.83314,17.323204 39.395034,16.9913333 C39.395034,16.9913333 40.003021,16.2722803 40.9990753,17.1019569 Z M38.7866045,17.8763217 L38.3441104,18.4847511 L37.956928,18.042257 L38.4542914,17.4891393 C38.4542914,17.4891393 38.9525398,17.3785157 38.7866045,17.8763217 Z M41.7729976,27.3895036 L41.8840637,26.8363859 C41.8840637,26.8363859 40.4455151,29.1594803 39.8928399,29.2701038 C39.8928399,29.2701038 39.4503458,29.4913509 40.1693988,26.8363859 C40.1693988,26.8363859 40.2242681,26.449646 40.5565812,26.3390225 C40.5565812,26.3390225 41.9393754,24.9009165 41.9393754,23.7393693 C41.9393754,23.7393693 41.1650107,24.9009165 40.8880093,25.0668518 L40.2800223,25.730593 L40.2242681,23.9053046 C40.2242681,23.9053046 40.83314,22.6884457 39.8375282,21.3056514 C39.8375282,21.3056514 39.5605268,22.6884457 39.9481517,23.6840575 C39.9481517,23.6840575 40.114087,24.1818635 40.0587753,24.5690459 C40.0587753,24.5690459 38.9525398,32.6441218 37.5693031,34.9672162 C37.5693031,34.9672162 33.1443615,26.0071519 37.2931867,18.8166218 L38.9525398,20.7525337 C38.9525398,20.7525337 39.6162811,21.0290926 40.003021,20.8631573 C40.003021,20.8631573 42.1606225,19.8122336 41.8287519,17.9869452 C41.8287519,17.9869452 41.7729976,16.7700863 40.8880093,16.106345 C40.8880093,16.106345 36.6843148,12.9535741 36.5741337,12.6770153 C36.5741337,12.6770153 37.61665,9.48087992 31.9195376,8.37464451 C31.9195376,8.37464451 28.8588055,7.82152681 23.5758677,10.4092327 L28.6645506,4.32493794 C28.6645506,4.32493794 28.553927,3.77182024 27.8901858,3.10807899 L23.5205559,9.08175018 L27.4198145,2.66558483 C27.4198145,2.66558483 27.0051975,2.19565603 26.6733268,2.08503249 L24.1842972,5.87366751 L26.2582673,1.80847364 C26.2582673,1.80847364 25.9542738,1.53191479 25.4007136,1.33810235 L23.4094899,4.93336741 L24.9033502,1.11685527 C24.9033502,1.11685527 24.0732311,0.812419282 23.9077383,0.812419282 L22.5245016,4.32493794 L23.1608082,0.646483971 C23.1608082,0.646483971 22.3864434,0.563737563 21.8058911,0.508425792 L21.3633969,4.10369086 L21.2248962,0.53586043 C21.2248962,0.53586043 20.3124733,0.508425792 20.146538,0.563737563 L20.5890321,4.04837909 L19.3996078,0.646483971 C19.3996078,0.646483971 18.6531202,0.784984644 18.3765613,0.895608184 L19.4827967,4.54618502 L17.7128201,1.08897813 C17.7128201,1.08897813 16.993767,1.33810235 16.8278317,1.50403766 L18.5978084,5.48648512 L16.274714,1.75316187 C16.274714,1.75316187 15.4450375,2.33371421 15.2791022,2.49964952 L19.0403025,8.8605031 L14.836608,2.94214368 C14.836608,2.94214368 13.8963079,3.99306732 13.8409961,4.2143144 L18.8190555,10.4092327 C18.8190555,10.4092327 17.3809494,10.6857915 15.3344139,9.52424435 C15.3344139,9.52424435 12.9560078,8.36269717 9.74792514,8.25207363 C9.74792514,8.25207363 4.32737166,8.36269717 5.59954237,12.6217035 C5.59954237,12.6217035 4.30790192,14.2062751 0.805118128,17.3409037 C0.805118128,17.3409037 0.123677118,19.0931806 1.22991252,20.0887925 C1.22991252,20.0887925 2.39101721,21.0844043 3.27600553,20.6972219 C3.27600553,20.6972219 3.8848775,20.4206631 4.4379952,19.6462983 L5.32298352,18.8166218 C5.32298352,18.8166218 5.70972342,18.4294394 5.9309705,19.0931806 C5.9309705,19.0931806 8.97356036,24.3477988 5.15704821,35.0778397 C5.15704821,35.0778397 4.62694021,34.6632227 4.57162844,34.110105 C4.57162844,34.110105 4.38224093,33.4737984 4.65924228,33.3631748 C4.65924228,33.3631748 4.9911129,33.3078631 4.9911129,32.4228747 C4.9911129,32.4228747 5.15704821,30.8188334 4.93580113,29.5466627 C4.93580113,29.5466627 4.93580113,28.1638684 5.21235998,27.555439 C5.21235998,27.555439 3.82956573,28.3851155 4.16099385,32.0910041 C4.16099385,32.0910041 4.21674812,33.1419278 3.82956573,32.4781865 C3.82956573,32.4781865 3.03130626,29.8086192 3.08661803,29.2001898 C3.08661803,29.2001898 3.99550104,27.2788801 4.38224093,26.8363859 C4.38224093,26.8363859 4.73933372,26.2062743 4.8247351,25.8965283 C4.8247351,25.8965283 5.21235998,24.4584223 5.21235998,24.0712399 C5.21235998,24.0712399 4.49330697,25.01154 4.4379952,25.2880989 C4.4379952,25.2880989 4.26055504,25.4637691 4.16099385,25.730593 C4.16099385,25.730593 3.27600553,26.6155814 3.11051271,28.1085567 C3.11051271,28.1085567 3.08307807,29.2320493 2.75120745,28.4576846 L2.44677147,25.6752813 C2.44677147,25.6752813 4.38224093,24.0712399 4.05081281,22.9650045 C4.05081281,22.9650045 3.8769126,23.2362534 3.60831865,23.5181222 C3.60831865,23.5181222 2.61226429,24.9009165 2.65297375,25.1774753 L2.54235021,23.6287458 C2.54235021,23.6287458 3.55300687,22.5778221 3.05475845,21.0290926 C3.05475845,21.0290926 2.22552439,22.3012633 2.22552439,22.5225104 C2.22552439,22.5225104 2.39101721,24.7349812 2.05958908,25.1221636 C2.05958908,25.1221636 1.94852304,25.3434106 1.72727596,24.8456047 C1.72727596,24.8456047 1.06353472,23.2968751 0.953353672,23.6287458 C0.953353672,23.6287458 0.676794821,25.0668518 2.16977012,25.9518401 C2.16977012,25.9518401 2.61226429,28.7722979 2.44677147,29.1594803 C2.44677147,29.1594803 1.11928898,27.4448154 0.289612429,27.6107507 C0.289612429,27.6107507 1.72727596,29.6019745 2.11490085,29.6572862 C2.11490085,29.6572862 2.66801855,29.3807274 2.83351137,30.0997804 L3.60831865,33.3631748 C3.60831865,33.3631748 1.17061831,31.5232841 0.51085951,30.9294569 C0.51085951,30.9294569 0.021903461,30.1276575 0.0449131575,30.9006948 C0.0449131575,30.9006948 0.715734307,32.2662318 1.39584783,32.6441218 C1.39584783,32.6441218 3.66363042,33.9716043 3.82956573,33.9716043 C3.82956573,33.9716043 4.27205989,34.1928514 4.32737166,34.4140985 C4.32737166,34.4140985 4.88048936,35.4650221 4.88048936,35.741581 C4.88048936,35.741581 4.71455405,36.5159457 4.49330697,36.6818811 C4.49330697,36.6818811 2.99988917,35.4097103 1.89365377,35.5203339 C1.89365377,35.5203339 2.83351137,36.6818811 3.77425396,37.0137517 C3.77425396,37.0137517 4.38224093,37.1243752 4.21674812,37.6221811 C4.21674812,37.6221811 3.79195372,39.3545458 3.01714644,40.4236117 C3.01714644,40.4236117 2.16932763,41.8249907 1.76134801,42.1528789 L3.22113625,44.7020877 L4.4379952,44.0936583 C4.4379952,44.0936583 4.9911129,45.1445819 5.15704821,45.1998937 C5.15704821,45.1998937 5.32298352,45.5317643 5.82078946,45.1998937 C5.82078946,45.1998937 6.59471175,45.0339584 6.70577778,45.4211408 C6.70577778,45.4211408 6.81595883,45.8636349 5.32298352,46.0295702 C5.32298352,46.0295702 4.21674812,46.2508173 4.05081281,47.5782998 C4.05081281,47.5782998 4.16055136,49.3473915 5.70928093,49.3473915 C5.70928093,49.3473915 6.07787856,49.5319115 8.75231328,47.9654822 C8.75231328,47.9654822 10.5776017,47.0251821 11.1307194,46.9145586 C11.1307194,46.9145586 12.2922666,46.7486232 11.46259,45.9189467 C11.46259,45.9189467 10.9824839,44.7012028 10.0974955,43.3737203 C10.0974955,43.3737203 9.69261337,42.4896169 9.69261337,42.2683698 C9.69261337,42.2683698 11.1307194,42.0471228 11.4072783,42.1577463 C11.4072783,42.1577463 11.2966547,43.0980464 11.2413429,43.3192935 C11.2413429,43.3192935 11.2413429,43.8724112 11.5179018,44.2042818 C11.5179018,44.2042818 11.960396,44.7573995 11.960396,45.1445819 L12.1263313,48.1867293 C12.1263313,48.1867293 13.7303726,49.2929647 17.491573,48.5185999 C17.491573,48.5185999 18.2659378,48.242041 19.0956143,49.1823411 C19.0956143,49.1823411 18.5978084,49.5142118 17.8234436,49.1823411 C17.8234436,49.1823411 15.4450375,48.8504705 12.7347607,49.2929647 C12.7347607,49.2929647 11.5179018,49.2929647 11.1860312,48.9057823 C11.1860312,48.9057823 10.7988488,48.7951587 10.6329135,48.8504705 C10.6329135,48.8504705 11.1307194,49.0717176 11.2413429,49.2929647 C11.2413429,49.2929647 12.0710195,50.4545118 14.3941138,50.4545118 C14.3941138,50.4545118 15.8875316,50.5098236 17.491573,49.8460824 C17.491573,49.8460824 20.146538,49.2376529 21.1974616,50.1226412 C21.1974616,50.1226412 19.9806026,50.6204472 19.0403025,50.6757589 C19.0403025,50.6757589 17.8234436,50.6757589 17.6575083,50.5098236 C17.6575083,50.5098236 16.1087787,50.2885765 15.6662846,50.9523178 C15.6662846,50.9523178 15.6662846,51.0629413 15.9981552,51.0076296 C15.9981552,51.0076296 18.1000025,51.0076296 18.7084319,50.897006 C18.7084319,50.897006 20.7549674,50.7310707 21.8058911,50.2332648 C21.8058911,50.2332648 23.4094899,50.7863825 23.741803,50.8416942 C23.741803,50.8416942 24.3502325,50.9523178 24.6821031,50.897006 C24.6821031,50.897006 27.5030034,51.2841884 27.7795623,51.1735649 C27.7795623,51.1735649 27.6689387,50.5651354 26.3414562,50.4545118 L24.2944782,50.6204472 C24.2944782,50.6204472 22.8015029,50.3992001 22.6908794,50.0673295 C22.6908794,50.0673295 24.239609,49.1270294 25.8989621,49.9567059 C25.8989621,49.9567059 30.4345272,51.5054355 32.7576216,49.0164058 C32.7576216,49.0164058 30.9876449,49.4035882 30.1579684,49.0164058 C30.1579684,49.0164058 26.6733268,48.8504705 25.0692855,49.4035882 C25.0692855,49.4035882 24.4055443,49.3482764 24.9033502,48.9057823 L25.8432078,48.4632881 C25.8432078,48.4632881 29.3831611,49.2929647 30.9876449,48.0761057 L31.0429567,45.3105172 C31.0429567,45.3105172 32.4266359,44.5560647 32.3160124,42.6201527 C32.3160124,42.6201527 33.1987883,42.3781084 34.1390883,42.709979 C34.1390883,42.709979 34.0851041,43.7064759 32.5363745,44.8680231 C32.5363745,44.8680231 31.2642038,46.1401938 31.208892,46.9145586 C31.208892,46.9145586 33.9744805,47.4123645 35.4125865,48.4632881 C35.4125865,48.4632881 37.5144338,49.3482764 37.956928,47.1911174 C37.956928,47.1911174 37.9016162,45.7530114 35.9103925,45.9189467 C35.9103925,45.9189467 36.2975749,45.3105172 37.2931867,45.3105172 C37.2931867,45.3105172 37.7356809,45.365829 37.956928,44.9786466 L38.4542914,44.2042818 C38.4542914,44.2042818 38.7312928,43.7064759 39.5605268,44.14897 L41.0543871,41.6046286 C41.0543871,41.6046286 38.7866045,38.4518577 38.7866045,38.0093635 C38.7866045,38.0093635 38.6755385,37.6221811 39.1180327,37.3456223 C39.1180327,37.3456223 40.3353341,36.3500104 40.2800223,36.0734516 C40.2800223,36.0734516 40.6667622,35.4650221 40.8880093,35.4097103 C40.8880093,35.4097103 41.1092564,34.8012809 40.3353341,35.3543986 L39.7269046,35.6309574 C39.7269046,35.6309574 39.395034,35.7968927 39.0631634,36.1287633 C39.0631634,36.1287633 38.6206692,37.1243752 38.0117973,36.460634 C38.0117973,36.460634 37.7356809,35.741581 37.7356809,35.5756456 C37.7356809,35.4097103 38.0675515,34.4694102 38.7312928,34.1928514 C39.395034,33.9162925 41.6075048,33.0313042 41.8840637,30.7635216 C41.8840637,30.7635216 41.5517506,31.3719511 41.1650107,31.4825746 L40.7778283,31.8144453 C40.7778283,31.8144453 39.0078516,33.086616 38.7866045,33.3078631 C38.7866045,33.3078631 39.0631634,30.9294569 39.4503458,30.431651 C39.4503458,30.431651 41.4415695,30.4869628 41.7729976,27.3895036 Z" id="Stroke-14" stroke="#193989" stroke-width="0.2"></path>
                <polygon id="Fill-16" fill="#ED3124" points="20.8377581 4.49087325 21.8059353 4.49087325 21.8059353 6.37147344 23.6865355 6.37147344 23.6865355 7.31177354 21.8059353 7.31177354 21.8059353 10.3539209 20.8103234 10.3539209 20.8103234 7.31177354 18.8190997 7.31177354 18.8190997 6.37147344 20.8377581 6.37147344"></polygon>
                <path d="M10.4116664,15.8297862 C10.4116664,15.8297862 12.4028901,16.3275921 15.6109728,15.4426038 C15.6109728,15.4426038 20.5890321,12.9535741 26.8945739,15.4426038 C26.8945739,15.4426038 30.1579684,16.5488392 33.2001157,15.7191626 L31.852721,18.3732426 C31.852721,18.3732426 29.197756,18.8896333 24.7369724,17.2678922 C24.7369724,17.2678922 21.7505793,15.9404097 17.2150141,17.2678922 C17.2150141,17.2678922 13.9321499,18.6498015 11.6090556,18.2626191 L10.4116664,15.8297862 Z" id="Fill-18" fill="#ED3124"></path>
                <polygon id="Fill-20" fill="#ED3124" points="21.4740204 19.6462983 23.7971148 25.0668518 30.6004625 25.0668518 25.1794666 28.993545 27.5583152 35.4650221 21.5293322 31.4825746 15.7769081 35.6309574 17.8234436 29.0488568 12.9560078 25.0668518 19.1509261 25.0668518"></polygon>
                <path d="M24.5157696,43.3746053 L23.7418473,41.1621344 C23.7418473,41.1621344 25.733071,39.2815343 31.4301833,39.3921578 C37.1268532,39.5027813 40.2800666,41.3833815 40.2800666,41.3833815 L39.1738312,43.429917 C39.1738312,43.429917 35.7993707,41.6599404 31.6514304,41.7705639 C31.6514304,41.7705639 27.5030476,41.4940051 24.5157696,43.3746053" id="Fill-22" fill="#ED3124"></path>
                <path d="M3.49747386,43.8724112 L2.44655022,42.0471228 C2.44655022,42.0471228 6.40997043,38.9855057 12.6048887,39.0961292 C12.6048887,39.0961292 15.611194,38.9496636 19.483018,40.7749521 L18.6533414,42.710864 C18.6533414,42.710864 16.0536882,41.3280698 12.3473571,41.4386933 C12.3473571,41.4386933 8.14366256,41.0515109 3.49747386,43.8724112" id="Fill-24" fill="#ED3124"></path>
                <path d="M12.900696,47.8548586 L12.8453843,45.6976996 C12.8453843,45.6976996 15.0578551,46.3614408 17.3809494,45.8083231 C17.3809494,45.8083231 20.9762145,44.14897 25.8432078,45.6423878 C25.8432078,45.6423878 29.161914,46.1955055 30.3239037,45.7530114 L30.2681494,47.6889233 C30.2681494,47.6889233 29.5495389,48.5185999 25.8989621,47.7995469 C25.8989621,47.7995469 21.5293322,46.3614408 17.9893789,47.7442351 C17.9893789,47.7442351 15.9428434,48.5739117 12.900696,47.8548586" id="Fill-26" fill="#ED3124"></path>
                <path d="M12.1133662,17.1144795 L12.39081,17.1047446 C12.5571878,17.0989922 12.7036534,17.0582827 12.6965735,16.8569479 C12.6894936,16.6560555 12.5403731,16.6259659 12.3744377,16.6317183 L12.0969939,16.6414532 L12.1133662,17.1144795 Z M11.7301662,16.3843641 L12.4629366,16.3586994 C12.8678187,16.3440971 13.033754,16.5887964 13.0426039,16.8450005 C13.0514538,17.1016471 12.9032183,17.3569663 12.4983361,17.3711261 L12.1226586,17.3844009 L12.1425708,17.9503509 L11.785478,17.9627408 L11.7301662,16.3843641 Z" id="Fill-28" fill="#FFE412"></path>
                <polygon id="Fill-30" fill="#FFE412" points="13.1249963 16.3178572 14.326368 16.1324522 14.3710599 16.4205159 13.5227986 16.5519366 13.5745704 16.8864622 14.3529176 16.7661038 14.3940696 17.0329278 13.6157224 17.1532862 13.6750166 17.5356012 14.5409777 17.4019679 14.5856696 17.6904741 13.3661557 17.8789766"></polygon>
                <path d="M14.9990919,16.7035351 L15.3778669,16.6048589 C15.5322973,16.564592 15.5991139,16.4787481 15.5592895,16.3247601 C15.5207925,16.1769671 15.4203463,16.1344876 15.2659158,16.1743121 L14.8871408,16.2729883 L14.9990919,16.7035351 Z M14.4734088,16.1017431 L15.3216701,15.881381 C15.6035389,15.8079269 15.8314234,15.9517375 15.8916026,16.183162 C15.938507,16.3628146 15.8986825,16.5172451 15.7424821,16.6309661 L15.7438095,16.635391 C15.9243472,16.6340635 16.014616,16.7822991 16.0659453,16.9336321 C16.0973624,17.0278833 16.1420543,17.208421 16.2256857,17.2778926 L15.8800977,17.3681614 C15.8132811,17.28276 15.7792091,17.1336395 15.7296497,17.0163785 C15.6637181,16.861948 15.5814142,16.8079638 15.4070715,16.8530982 L15.0614835,16.943367 L15.216799,17.5407341 L14.8707686,17.6305604 L14.4734088,16.1017431 Z" id="Fill-32" fill="#FFE412"></path>
                <polygon id="Fill-34" fill="#FFE412" points="17.9209251 16.6769855 17.5359551 16.7969014 16.5629105 15.4446392 16.9151358 15.3353432 17.5903819 16.2884756 17.5948069 16.2871481 17.6151616 15.1180785 17.967387 15.00834"></polygon>
                <polygon id="Fill-36" fill="#FFE412" points="18.4083324 14.9648871 18.7618852 14.9131152 18.9902122 16.4764471 18.6366594 16.5282189"></polygon>
                <path d="M19.7455497,15.7898289 L20.1659192,15.7668192 L19.9296273,15.1990992 L19.9252024,15.1995417 L19.7455497,15.7898289 Z M19.7265225,14.8203242 L20.0924652,14.800412 L20.786296,16.3442741 L20.4154859,16.3646288 L20.2734453,16.0199259 L19.6663433,16.0535555 L19.5583747,16.4115332 L19.196857,16.4314455 L19.7265225,14.8203242 Z" id="Fill-38" fill="#FFE412"></path>
                <path d="M21.2465342,15.8377953 C21.2390118,16.04798 21.4045046,16.1355939 21.5961046,16.1422313 C21.7204454,16.1470987 21.9129304,16.1183366 21.9191253,15.9572687 C21.9253202,15.7869085 21.6823909,15.7492965 21.4460991,15.6789399 C21.2071522,15.6081408 20.9668779,15.5090221 20.9774977,15.212551 C20.9890026,14.8899728 21.3084834,14.7466047 21.601857,14.7567821 C21.9408075,14.7687294 22.247456,14.9240449 22.2346237,15.28866 L21.8890357,15.2762702 C21.8837258,15.0855552 21.7469951,15.0320134 21.5761923,15.026261 C21.4624713,15.0218361 21.3292806,15.0634305 21.3244132,15.1961788 C21.3199882,15.3178647 21.3965397,15.3364494 21.8005369,15.4523829 C21.9173553,15.4855699 22.2788731,15.5714138 22.2664832,15.9298341 C22.2563059,16.2192253 22.0133766,16.42764 21.5726524,16.4117102 C21.2129046,16.3988779 20.8823615,16.2143578 20.9009463,15.8254055 L21.2465342,15.8377953 Z" id="Fill-40" fill="#FFE412"></path>
                <path d="M23.7573788,15.7252248 L24.1401363,15.8075287 C24.2967792,15.8411583 24.3950129,15.7946964 24.4282,15.6389384 C24.4609445,15.4893754 24.3901455,15.406629 24.2343875,15.3729994 L23.8516301,15.2906955 L23.7573788,15.7252248 Z M23.5586989,14.9513025 L24.4158101,15.1358226 C24.7003339,15.1973293 24.839277,15.4287537 24.7892752,15.6619481 C24.7503357,15.8438132 24.6450221,15.9637291 24.4538646,15.9951462 L24.4529796,15.9995712 C24.615375,16.0796626 24.6295348,16.2522353 24.6069676,16.4106482 C24.5932503,16.5093244 24.5516558,16.6903046 24.5950203,16.7903082 L24.2458924,16.7150842 C24.2242102,16.6088856 24.2613797,16.4606501 24.2697871,16.3332118 C24.2804069,16.165949 24.2308476,16.0805476 24.0547349,16.0424931 L23.705607,15.9672691 L23.5759562,16.5708311 L23.2259433,16.4956071 L23.5586989,14.9513025 Z" id="Fill-42" fill="#FFE412"></path>
                <polygon id="Fill-44" fill="#FFE412" points="25.3959789 15.4601265 26.5393839 15.8725311 26.4407077 16.14732 25.6327133 15.8561588 25.5176648 16.1743121 26.2592851 16.4415786 26.1676888 16.6955702 25.4260686 16.4283038 25.2946478 16.7924765 26.1203419 17.090275 26.0207807 17.3646214 24.8601185 16.9460219"></polygon>
                <path d="M27.6335392,16.7281821 C27.6525664,16.5706541 27.533978,16.4148962 27.3631752,16.3684343 C27.0529868,16.2848029 26.8671393,16.5095899 26.7950127,16.7764139 C26.7259837,17.0308481 26.773773,17.3184693 27.0830764,17.4021007 C27.2937037,17.4591824 27.4512316,17.3503288 27.5317655,17.1565164 L27.8658486,17.2467852 C27.7277904,17.6175953 27.3914949,17.7883981 27.0069674,17.6839694 C26.5211089,17.5529912 26.3312789,17.1233293 26.4494248,16.6830476 C26.5724382,16.2303761 26.9534257,15.9551448 27.4392842,16.0865655 C27.7839872,16.1799318 28.0207216,16.4547207 27.9671798,16.8184509 L27.6335392,16.7281821 Z" id="Fill-46" fill="#FFE412"></path>
                <polygon id="Fill-48" fill="#FFE412" points="28.5772907 16.6853929 28.0976271 16.603089 28.1467439 16.3154677 29.4596241 16.5398123 29.4105072 16.827876 28.9299586 16.7455721 28.7131364 18.0146453 28.3604686 17.9544661"></polygon>
                <path d="M29.7120228,17.5189634 L30.1328347,17.5379906 L29.9540671,16.9499159 L29.9496421,16.9494734 L29.7120228,17.5189634 Z M29.7899017,16.5525561 L30.1562869,16.5693709 L30.6912623,18.1747397 L30.3204522,18.1579249 L30.2142536,17.8008322 L29.6067091,17.7733975 L29.463341,18.1189855 L29.1018233,18.1026132 L29.7899017,16.5525561 Z" id="Fill-50" fill="#FFE412"></path>
                <path d="M31.0075572,17.5902492 C31.056674,17.794239 31.2398666,17.8340635 31.4257141,17.7893716 C31.5478425,17.7597244 31.7248402,17.6800755 31.6867857,17.5229901 C31.6460762,17.3574973 31.4035894,17.3871444 31.1562352,17.3831619 C30.907111,17.3800645 30.6486944,17.3495324 30.5787803,17.0614687 C30.5026713,16.7472978 30.7717078,16.5229533 31.056674,16.4534817 C31.3858897,16.3733902 31.7230702,16.4393219 31.8093566,16.7942022 L31.4735035,16.8760636 C31.4173068,16.693756 31.2712837,16.6791537 31.1053484,16.7194207 C30.9947248,16.7464128 30.8770214,16.8229643 30.907996,16.9517301 C30.9367581,17.069876 31.016407,17.0667786 31.436334,17.0694336 C31.5580199,17.0694336 31.92883,17.0543887 32.0133464,17.4026317 C32.081933,17.6845004 31.9053778,17.9504394 31.4761585,18.0544256 C31.1270306,18.1393844 30.7588754,18.0513281 30.6712616,17.6721106 L31.0075572,17.5902492 Z" id="Fill-52" fill="#FFE412"></path>
                <path d="M25.5520024,41.2468278 C25.4714685,41.1096546 25.2869484,41.0569978 25.1276505,41.1229295 C24.8391443,41.2419604 24.8320644,41.5322366 24.937378,41.7879982 C25.0382667,42.0309275 25.2480089,42.2318198 25.5360726,42.1127889 C25.73254,42.03137 25.7869668,41.8508324 25.7320975,41.6486125 L26.0431709,41.5202892 C26.1608744,41.8981792 26.0051164,42.2344748 25.6475811,42.3822678 C25.1953521,42.5690004 24.7904699,42.3415584 24.6165697,41.9198614 C24.4373596,41.4866597 24.5643554,41.0392981 25.016142,40.8525655 C25.3373927,40.7207023 25.6847506,40.7968113 25.8626333,41.1185045 L25.5520024,41.2468278 Z" id="Fill-54" fill="#FFE412"></path>
                <path d="M27.7540746,41.4330736 C28.0585106,41.367142 28.1169198,41.0826182 28.0611655,40.8255291 C28.0027563,40.5551652 27.8319536,40.3206433 27.5266326,40.3870174 C27.2221966,40.4529491 27.1637874,40.7374728 27.2221966,41.0073942 C27.2783934,41.2644833 27.4491961,41.4990052 27.7540746,41.4330736 M27.4651259,40.1011662 C27.9430196,39.9976226 28.3009974,40.2936512 28.4005586,40.7516326 C28.4974648,41.1972242 28.2939175,41.6149387 27.8160238,41.7189248 C27.3381301,41.8224685 26.9792673,41.5264399 26.8828036,41.0808483 C26.7836849,40.6228668 26.9872322,40.2051523 27.4651259,40.1011662" id="Fill-56" fill="#FFE412"></path>
                <polygon id="Fill-58" fill="#FFE412" points="29.3226721 39.8377052 29.6687026 39.8120405 29.7638388 41.0966011 30.5315662 41.0395193 30.5532484 41.3306805 29.4390481 41.4134269"></polygon>
                <polygon id="Fill-60" fill="#FFE412" points="31.4569542 39.7469496 31.8038697 39.7606669 31.7516553 41.04744 32.5207102 41.078857 32.5087629 41.3704607 31.3923501 41.3248838"></polygon>
                <polygon id="Fill-62" fill="#FFE412" points="33.5773863 39.8912912 34.7460133 40.0660764 34.7026489 40.3545826 33.8778398 40.2315692 33.8273955 40.5660948 34.5849455 40.6793733 34.545121 40.9461973 33.7880135 40.8333613 33.7309317 41.2161187 34.5734406 41.3417871 34.5300762 41.6307358 33.3441918 41.4537381"></polygon>
                <path d="M36.5421856,41.918357 C36.3851002,42.0396004 36.215625,42.0577426 36.0678319,42.0196881 C35.5943632,41.8971172 35.4076306,41.4714379 35.5217941,41.0302712 C35.6394976,40.5762722 36.0094227,40.2948459 36.4824489,40.4174168 C36.7952923,40.4983932 37.0408766,40.7674297 36.9877773,41.1240799 L36.666084,41.0413335 C36.6713939,40.8616809 36.5678503,40.7413225 36.4094374,40.7001705 C36.1076564,40.6218491 35.9271188,40.8497336 35.8580897,41.1174425 C35.792158,41.3723192 35.8390624,41.6586129 36.1412859,41.7369344 C36.3594356,41.7935736 36.5160785,41.7081722 36.5904175,41.5015275 L36.252352,41.4134711 L36.3169561,41.1630194 L36.9594576,41.3293972 L36.745733,42.1559763 L36.5315658,42.1006646 L36.5421856,41.918357 Z" id="Fill-64" fill="#FFE412"></path>
                <polygon id="Fill-66" fill="#FFE412" points="38.1583071 40.9508435 39.2698524 41.3521857 39.1707337 41.6265321 38.3861916 41.3437783 38.2711431 41.6619316 38.9910811 41.9216757 38.8994848 42.1761098 38.1795468 41.9159232 38.048126 42.2800959 38.849483 42.5690446 38.7503643 42.8438335 37.6220041 42.4367389"></polygon>
                <path d="M3.70469387,42.8357801 C3.80956499,43.0180877 3.99231508,43.0074678 4.15338295,42.9149866 C4.25869656,42.8543649 4.40250717,42.7313515 4.32197323,42.5910808 C4.23745684,42.4432878 4.01753725,42.5362116 3.78522781,42.5981607 C3.5511484,42.6609949 3.3006967,42.7003769 3.15290365,42.4432878 C2.99227827,42.163189 3.1794533,41.8768953 3.42725003,41.7348546 C3.71310126,41.5706893 4.04762685,41.5445821 4.22949195,41.8609655 L3.9378883,42.0286708 C3.83345967,41.8689304 3.69230404,41.89371 3.54805094,41.9768989 C3.4524722,42.0317682 3.36397337,42.1357543 3.43034749,42.2512453 C3.49096919,42.3565589 3.56398073,42.3322218 3.95780053,42.2233682 C4.07196403,42.1910661 4.4153395,42.0782301 4.59366465,42.388861 C4.73791774,42.6406402 4.64853392,42.9419787 4.27639633,43.1557034 C3.97284534,43.3296036 3.60336271,43.3428784 3.41309022,43.0030429 L3.70469387,42.8357801 Z" id="Fill-68" fill="#FFE412"></path>
                <polygon id="Fill-70" fill="#FFE412" points="5.135012 41.2420931 4.69959775 41.4283832 4.58499176 41.1593467 5.77485856 40.6509209 5.88990704 40.9195149 5.45449279 41.1053624 5.96070611 42.2894768 5.64122532 42.4262075"></polygon>
                <polygon id="Fill-72" fill="#FFE412" points="6.85985425 41.5877696 7.18995489 41.4802435 7.295711 41.8037067 6.96561035 41.9116753"></polygon>
                <path d="M8.98373773,41.0947426 L9.3496804,41.0296959 C9.48464112,41.0053588 9.59437967,40.9407546 9.56561755,40.7796867 C9.53729792,40.6208313 9.42623189,40.5752544 9.28020882,40.6013616 L8.90762873,40.6677357 L8.98373773,41.0947426 Z M8.86603428,40.4349838 L9.21250721,40.3730346 C9.33242313,40.3513524 9.41162958,40.2814383 9.38861989,40.15046 C9.36207024,40.0022245 9.2434818,39.9924896 9.12135341,40.0141718 L8.80098764,40.0712536 L8.86603428,40.4349838 Z M8.41203527,39.8663788 L9.14392061,39.735843 C9.43994921,39.6831862 9.65721384,39.7429229 9.70898566,40.0327566 C9.7364203,40.1849746 9.67889606,40.3057755 9.55544018,40.3951593 C9.75500505,40.415514 9.87669095,40.5447223 9.91120549,40.7380923 C9.96784474,41.0540331 9.72358797,41.2367832 9.44304667,41.2872275 L8.68903661,41.4213033 L8.41203527,39.8663788 Z" id="Fill-74" fill="#FFE412"></path>
                <polygon id="Fill-76" fill="#FFE412" points="10.5650791 39.5429598 11.7447686 39.4783557 11.7611408 39.7695168 10.9279243 39.8155362 10.9465091 40.1536017 11.711139 40.1111223 11.7261838 40.3810437 10.9615539 40.4230807 10.9827936 40.8093781 11.8337099 40.7629162 11.8496397 41.0540774 10.6522505 41.1204515"></polygon>
                <path d="M13.0886676,40.8013247 L13.3975285,40.8269894 C13.5979784,40.8433616 13.7997557,40.7358356 13.8285178,40.3867077 C13.854625,40.0698819 13.7612587,39.8574847 13.4169982,39.8296075 L13.1700865,39.8092528 L13.0886676,40.8013247 Z M12.8479507,39.489772 L13.5271793,39.5455263 C13.9351589,39.5787133 14.2205676,39.8596971 14.1776457,40.3827252 C14.1400337,40.8389367 13.8785196,41.1593025 13.3975285,41.1199205 L12.7187425,41.0641662 L12.8479507,39.489772 Z" id="Fill-78" fill="#FFE412"></path>
                <polygon id="Fill-80" fill="#FFE412" points="15.0935201 39.737436 16.2506424 39.9759403 16.1917906 40.2617916 15.3749464 40.0936438 15.3063598 40.4250719 16.0563874 40.5795024 16.0019606 40.8436714 15.251933 40.6892409 15.1740541 41.0689009 16.0081556 41.2401462 15.9493038 41.5264399 14.7749243 41.2843956"></polygon>
                <path d="M17.0318215,40.1924527 L17.3331601,40.2818366 L17.2362539,40.6066273 C17.1866945,40.7968998 17.0123518,40.9022134 16.8296017,40.8730088 L16.8711962,40.7331806 C16.9897846,40.7291982 17.0437689,40.6641515 17.0747435,40.5606079 L16.9349153,40.5190134 L17.0318215,40.1924527 Z" id="Fill-82" fill="#FFE412"></path>
                <path d="M17.7420247,41.5247142 C17.6685706,41.7216241 17.7937965,41.8552573 17.9676967,41.9203039 C18.0818602,41.9627834 18.2685927,41.994643 18.3247895,41.8428675 C18.3840837,41.6831271 18.1725715,41.573831 17.9761041,41.4348878 C17.7783092,41.2946172 17.5875942,41.1273544 17.6911378,40.8494681 C17.8039739,40.5468021 18.1438094,40.5078626 18.4115183,40.6074238 C18.7203793,40.7224722 18.9544587,40.9627466 18.8270204,41.3052371 L18.5119645,41.1875336 C18.5677188,41.0056685 18.4584227,40.9127447 18.3026648,40.854778 C18.1991211,40.816281 18.0628329,40.8149535 18.0163711,40.9397369 C17.9738916,41.0539004 18.0389383,41.0946098 18.3747913,41.3282468 C18.4725825,41.3950634 18.7787885,41.5871058 18.6540051,41.9225164 C18.5531165,42.1946503 18.2637253,42.3181062 17.8614981,42.1685432 C17.5336099,42.0468573 17.2871407,41.7711834 17.4269688,41.4074532 L17.7420247,41.5247142 Z" id="Fill-84" fill="#FFE412"></path>
                <polygon id="Fill-86" fill="#FFE412" points="13.6703261 46.1609467 14.1570697 46.2060811 14.4256637 47.3211664 14.4300886 47.3216089 14.8778927 46.2720128 15.3646363 46.3167047 15.2199407 47.8897714 14.896035 47.8601243 14.9982511 46.745039 14.9942687 46.7445965 14.5061976 47.8242823 14.2393736 47.7995026 13.9552924 46.6605227 13.9508674 46.6600802 13.8495363 47.7636606 13.5256306 47.7340135"></polygon>
                <polygon id="Fill-88" fill="#FFE412" points="16.261572 46.2845354 17.4293141 46.1057677 17.4735635 46.3942739 16.6491968 46.5203848 16.7005262 46.8553528 17.4571912 46.7389769 17.4979006 47.0058008 16.7412356 47.1221768 16.8000874 47.5049343 17.6421537 47.375726 17.6864032 47.6642322 16.5009613 47.8456548"></polygon>
                <polygon id="Fill-90" fill="#FFE412" points="18.6222341 45.5888018 18.9629546 45.5321625 19.7864362 46.4698077 19.7908611 46.4689227 19.6174034 45.4237515 19.9382117 45.3706522 20.1966283 46.9286741 19.8541378 46.9857559 19.0328686 46.0498807 19.0284437 46.0507657 19.2014589 47.0937244 18.8802082 47.1468237"></polygon>
                <polygon id="Fill-92" fill="#FFE412" points="21.6533633 45.555128 21.1798946 45.5573405 21.1785671 45.2652943 22.4728625 45.2590994 22.47419 45.5511455 22.0007212 45.553358 22.0069162 46.841016 21.6595582 46.8423435"></polygon>
                <path d="M24.1177903,46.8061032 C24.4226688,46.8715924 24.5934715,46.6370705 24.6492258,46.3799814 C24.707635,46.1096174 24.6492258,45.8250937 24.3443473,45.7596045 C24.0394688,45.6932304 23.8691086,45.9281948 23.8102569,46.1985587 C23.7545026,46.4556479 23.8133543,46.7401716 24.1177903,46.8061032 M24.405854,45.4737533 C24.8837477,45.5777394 25.0877375,45.9950114 24.9886188,46.4534354 C24.8921551,46.899027 24.5337348,47.1950556 24.0558411,47.091512 C23.5779474,46.9879683 23.3739576,46.5706963 23.4704214,46.1251047 C23.5699825,45.6666808 23.9279603,45.3706522 24.405854,45.4737533" id="Fill-94" fill="#FFE412"></path>
                <polygon id="Fill-96" fill="#FFE412" points="26.1474668 45.934965 26.4886298 45.9876218 26.9775858 47.1358941 26.9824533 47.1367791 27.1444061 46.0893954 27.4656569 46.1393973 27.2240551 47.7000742 26.8806796 47.6469749 26.3934935 46.5013575 26.3890686 46.5004725 26.2271157 47.5456437 25.9054225 47.4956419"></polygon>
                <polygon id="Fill-98" fill="#FFE412" points="28.4117979 46.215816 29.5861774 46.0861652 29.6184795 46.3759989 28.7892454 46.4675952 28.8264149 46.8043333 29.5870624 46.7207019 29.617152 46.9884108 28.856062 47.0729272 28.8985415 47.4574546 29.7450328 47.3640884 29.7768924 47.6543645 28.5852556 47.7857853"></polygon>
                <mask id="mask-4" fill="white">
                    <use xlink:href="#path-3"></use>
                </mask>
                <g id="Clip-101"></g>
                <polygon id="Fill-100" fill="#FFE412" mask="url(#mask-4)" points="20.8649272 30.3201425 21.8600966 30.3201425 21.8600966 24.6420574 20.8649272 24.6420574"></polygon>
                <polygon id="Stroke-102" stroke="#FFE412" stroke-width="0.5" mask="url(#mask-4)" points="21.564953 30.2099614 23.3349296 30.2099614 23.3349296 29.5829472 21.564953 29.5829472"></polygon>
                <path d="M21.9333736,28.6789759 L20.274463,28.6789759 L20.274463,26.7435064 L21.8599196,26.7435064 C21.8599196,26.7435064 22.4497643,26.890857 22.4130373,27.8125723 C22.3851602,28.5130406 21.9333736,28.6789759 21.9333736,28.6789759 M22.0439972,26.4483628 L19.6846183,26.4483628 L19.6846183,29.0294313 L22.0072702,29.0294313 C22.0072702,29.0294313 23.002882,29.1391698 23.002882,27.7386758 C23.002882,26.4855323 22.0439972,26.4483628 22.0439972,26.4483628" id="Fill-103" fill="#FFE412" mask="url(#mask-4)"></path>
                <path d="M24.367534,26.5226576 L24.367534,25.8589163 C24.367534,25.8589163 24.4781576,25.5637727 24.0356634,25.5637727 L18.9845925,25.5637727 C18.9845925,25.5637727 18.0257077,25.5279307 17.9889807,26.6700081 C17.9518112,27.8129706 18.910696,27.7762435 18.910696,27.7762435 L23.2245716,27.7762435 C23.2245716,27.7762435 23.6670658,27.8501401 23.6670658,28.5506083 C23.6670658,29.2510766 23.1874021,29.3617001 23.1874021,29.3617001 L19.4270867,29.3617001 C19.4270867,29.3617001 18.5053714,29.0665565 18.3575783,28.6240624 L18.1730582,28.5873353 L18.1730582,29.2878036 C18.1730582,29.2878036 18.2102278,29.7302978 18.6527219,29.7302978 L23.5931692,29.7302978 C23.5931692,29.7302978 24.6255081,29.7307403 24.6255081,28.5506083 C24.6255081,27.3704764 23.1874021,27.3704764 23.1874021,27.3704764 L19.5744373,27.3704764 C19.5744373,27.3704764 19.1319431,27.3704764 19.1319431,26.6700081 C19.1319431,26.6700081 19.0213195,25.8221893 19.6111643,25.8221893 L22.929428,25.8221893 C22.929428,25.8221893 23.8148588,25.9328129 24.2201835,26.5226576 L24.367534,26.5226576 Z" id="Fill-104" fill="#FFE412" mask="url(#mask-4)"></path>
            </g>
        </g>
    </g>
</svg>
