<?xml version="1.0" encoding="UTF-8" standalone="no"?>
<svg
   id="Layer_1"
   viewBox="0 0 94.639998 101.35"
   version="1.1"
   sodipodi:docname="st-francis-catholic-college.svg"
   width="94.639999"
   height="101.35"
   inkscape:version="1.3.2 (091e20ef0f, 2023-11-25)"
   xmlns:inkscape="http://www.inkscape.org/namespaces/inkscape"
   xmlns:sodipodi="http://sodipodi.sourceforge.net/DTD/sodipodi-0.dtd"
   xmlns="http://www.w3.org/2000/svg"
   xmlns:svg="http://www.w3.org/2000/svg">
  <sodipodi:namedview
     id="namedview86"
     pagecolor="#ffffff"
     bordercolor="#000000"
     borderopacity="0.25"
     inkscape:showpageshadow="2"
     inkscape:pageopacity="0.0"
     inkscape:pagecheckerboard="0"
     inkscape:deskcolor="#d1d1d1"
     inkscape:zoom="3.1752961"
     inkscape:cx="54.325642"
     inkscape:cy="85.661303"
     inkscape:window-width="2560"
     inkscape:window-height="1368"
     inkscape:window-x="0"
     inkscape:window-y="0"
     inkscape:window-maximized="1"
     inkscape:current-layer="Layer_1" />
  <defs
     id="defs7">
    <style
       id="style1">.cls-1{fill:#fff;}.cls-2{fill:#bc962e;}.cls-3{fill:#7fccbf;}.cls-4{fill:#009892;}.cls-5{fill:#bf9932;}.cls-6{fill:url(#radial-gradient);}.cls-7{fill:#ec1c24;}.cls-8{fill:#211b64;}.cls-9{fill:url(#linear-gradient);}.cls-10{fill:#00a2a2;}</style>
    <radialGradient
       id="radial-gradient"
       cx="82.279999"
       cy="63.470001"
       fx="82.279999"
       fy="63.470001"
       r="37.360001"
       gradientUnits="userSpaceOnUse">
      <stop
         offset="0"
         stop-color="#005b6c"
         id="stop1" />
      <stop
         offset=".31"
         stop-color="#006974"
         id="stop2" />
      <stop
         offset=".88"
         stop-color="#008e8b"
         id="stop3" />
      <stop
         offset="1"
         stop-color="#009791"
         id="stop4" />
    </radialGradient>
    <linearGradient
       id="linear-gradient"
       x1="42.18"
       y1="113.59"
       x2="122.28"
       y2="113.59"
       gradientUnits="userSpaceOnUse">
      <stop
         offset=".01"
         stop-color="#e6be71"
         id="stop5" />
      <stop
         offset=".52"
         stop-color="#bc962e"
         id="stop6" />
      <stop
         offset="1"
         stop-color="#e6be71"
         id="stop7" />
    </linearGradient>
  </defs>
  <g
     id="g86"
     transform="translate(-35.05,-14.25)">
    <path
       class="cls-1"
       d="m 116.82,68.98 c 0,2.01 -0.19,3.97 -0.56,5.88 -0.92,-1.93 -2.56,-4.06 -5.43,-5.95 l -0.34,-0.22 -0.12,0.39 c -0.02,0.06 -1.7,5.97 4.56,10.49 -1.73,4.66 -4.65,8.93 -8.69,12.71 0.13,-1.62 -0.06,-3.54 -0.8,-5.78 l -0.13,-0.4 -0.34,0.26 c 0,0 -4.12,3.25 -3.73,9.95 -0.55,0.38 -1.1,0.76 -1.68,1.13 -8.45,5.42 -16.77,7.46 -17.12,7.54 l -0.2,0.05 -0.2,-0.05 c -0.35,-0.08 -8.67,-2.09 -17.12,-7.5 -0.47,-0.3 -0.93,-0.61 -1.39,-0.93 0.5,-6.87 -3.66,-10.16 -3.71,-10.2 l -0.34,-0.26 -0.13,0.4 c -0.8,2.41 -0.96,4.45 -0.77,6.14 -4.18,-3.82 -7.2,-8.16 -8.98,-12.9 6.56,-4.55 4.84,-10.61 4.82,-10.67 l -0.12,-0.39 -0.34,0.22 c -3.11,2.05 -4.77,4.38 -5.65,6.43 -0.43,-2.06 -0.65,-4.18 -0.65,-6.36 V 34.53 l 0.59,-0.19 c 0.19,-0.06 19.29,-6.32 33.8,-9.42 14.56,-3.11 33.71,-3 33.9,-2.99 h 0.86 v 47.06 z"
       id="path31" />
    <path
       class="cls-7"
       d="m 119.63,83.17 c 0.03,-0.06 0.1,-0.08 0.16,-0.05 0.06,0.03 0.08,0.1 0.05,0.16 0,0.02 -0.03,0.02 -0.04,0.03 0,0.22 -0.04,1.24 0.06,2.28 0.02,-0.01 0.03,-0.03 0.05,-0.05 0.06,-0.04 0.14,-0.05 0.23,-0.04 v -2.68 0 c -0.06,-0.03 -0.08,-0.1 -0.05,-0.16 0.03,-0.06 0.1,-0.08 0.16,-0.05 0.06,0.03 0.08,0.1 0.05,0.16 -0.01,0.02 -0.03,0.04 -0.06,0.05 v 2.69 c 0,0 0.03,0.01 0.06,0.02 l 0.19,-2.18 c -0.05,-0.03 -0.08,-0.1 -0.05,-0.15 0.03,-0.06 0.1,-0.08 0.16,-0.05 0.06,0.03 0.08,0.1 0.05,0.16 -0.01,0.03 -0.04,0.05 -0.07,0.06 l -0.2,2.2 c 0,0 0.05,0.02 0.08,0.03 l 0.52,-2.7 v 0 c -0.06,-0.03 -0.08,-0.1 -0.05,-0.16 0.03,-0.06 0.1,-0.08 0.16,-0.05 0.06,0.03 0.08,0.1 0.05,0.16 -0.01,0.03 -0.04,0.04 -0.06,0.05 l -0.53,2.75 0.05,0.03 0.6,-2.13 c 0,0 -0.06,-0.09 -0.03,-0.13 0.03,-0.06 0.1,-0.08 0.16,-0.05 0.06,0.03 0.08,0.1 0.05,0.16 -0.02,0.03 -0.05,0.05 -0.09,0.06 l -0.61,2.15 c 0,0 0.04,0.03 0.06,0.05 l 1.06,-2.68 c 0,0 -0.03,-0.07 -0.01,-0.11 0.03,-0.06 0.1,-0.08 0.16,-0.05 0.06,0.03 0.08,0.1 0.05,0.16 -0.02,0.04 -0.07,0.06 -0.11,0.05 l -1.06,2.7 c 0,0 0.04,0.03 0.05,0.05 l 1.08,-2.1 c 0,0 -0.05,-0.08 -0.03,-0.13 0.03,-0.06 0.1,-0.08 0.16,-0.05 0.06,0.03 0.08,0.1 0.05,0.16 -0.02,0.04 -0.05,0.05 -0.09,0.06 l -1.09,2.13 c 0,0 0.04,0.04 0.06,0.06 l 1.56,-2.48 c 0,0 -0.03,-0.07 -0.01,-0.11 0.03,-0.06 0.1,-0.08 0.16,-0.05 0.06,0.03 0.08,0.1 0.05,0.16 -0.02,0.04 -0.07,0.06 -0.12,0.05 l -1.57,2.5 0.02,0.02 1.5,-1.9 c 0,0 -0.05,-0.08 -0.02,-0.12 0.03,-0.06 0.1,-0.08 0.16,-0.05 0.06,0.03 0.08,0.1 0.05,0.16 -0.02,0.04 -0.05,0.05 -0.09,0.06 l -1.52,1.93 c 0,0 0.02,0.03 0.04,0.04 l 2.08,-2.16 c 0,0 -0.01,-0.06 0,-0.09 0.03,-0.06 0.1,-0.08 0.16,-0.05 0.06,0.03 0.08,0.1 0.05,0.16 -0.03,0.05 -0.09,0.07 -0.14,0.05 l -2.09,2.17 c 0,0 0.03,0.04 0.05,0.06 l 1.85,-1.64 c 0,0 0,-0.06 0,-0.09 0.03,-0.06 0.1,-0.08 0.16,-0.05 0.06,0.03 0.08,0.1 0.05,0.16 -0.03,0.06 -0.09,0.08 -0.15,0.05 l -1.85,1.65 v 0 l 2.45,-1.77 c 0,0 0,-0.05 0,-0.08 0.03,-0.06 0.1,-0.08 0.16,-0.05 0.06,0.03 0.08,0.1 0.05,0.16 -0.03,0.06 -0.1,0.08 -0.16,0.05 v 0 l -2.46,1.77 c 0,0 0.02,0.03 0.03,0.04 l 2.16,-1.27 c 0,0 0,-0.04 0,-0.06 0.03,-0.06 0.1,-0.08 0.16,-0.05 0.06,0.03 0.08,0.1 0.05,0.16 -0.03,0.06 -0.1,0.08 -0.16,0.05 0,0 0,0 -0.01,-0.01 l -2.16,1.26 c 0,0 0.03,0.05 0.05,0.08 l 2.75,-1.33 c 0,0 0,-0.04 0,-0.05 0.03,-0.06 0.1,-0.08 0.16,-0.05 0.06,0.03 0.08,0.1 0.05,0.16 -0.03,0.06 -0.1,0.08 -0.16,0.05 0,0 -0.01,-0.01 -0.02,-0.02 l -2.74,1.33 v 0 l 2.4,-0.85 c 0,0 0,-0.01 0,-0.02 0.03,-0.06 0.1,-0.08 0.16,-0.05 0.06,0.03 0.08,0.1 0.05,0.16 -0.03,0.06 -0.1,0.08 -0.16,0.05 -0.02,0 -0.03,-0.03 -0.04,-0.05 l -2.36,0.84 c 0,0 0.02,0.04 0.03,0.06 l 2.96,-0.73 c 0,0 0,-0.03 0,-0.05 0.03,-0.06 0.1,-0.08 0.16,-0.05 0.06,0.03 0.08,0.1 0.05,0.16 -0.03,0.06 -0.1,0.08 -0.16,0.05 0,0 0,-0.01 -0.02,-0.02 l -2.96,0.72 c 0,0 0.03,0.06 0.05,0.09 l 2.42,-0.41 c 0,0 0,-0.02 0,-0.02 0.03,-0.06 0.1,-0.08 0.16,-0.05 0.06,0.03 0.08,0.1 0.05,0.16 -0.03,0.06 -0.1,0.08 -0.16,0.05 -0.02,0 -0.03,-0.03 -0.04,-0.04 l -2.39,0.4 v 0.02 l 3.01,-0.16 v 0 c 0.03,-0.06 0.1,-0.08 0.16,-0.05 0.06,0.03 0.08,0.1 0.05,0.16 -0.03,0.06 -0.1,0.08 -0.16,0.05 -0.03,-0.01 -0.04,-0.04 -0.05,-0.06 l -2.96,0.16 0.03,0.07 2.45,0.1 c 0,0 0.09,-0.07 0.15,-0.04 0.06,0.03 0.08,0.1 0.05,0.16 -0.03,0.06 -0.1,0.08 -0.16,0.05 -0.03,-0.02 -0.05,-0.04 -0.06,-0.07 l -2.39,-0.09 c 0,0 0.03,0.08 0.05,0.12 l 2.87,0.33 c 0,0 0,0 0,-0.01 0.03,-0.06 0.1,-0.08 0.16,-0.05 0.06,0.03 0.08,0.1 0.05,0.16 -0.03,0.06 -0.1,0.08 -0.16,0.05 -0.02,-0.01 -0.03,-0.03 -0.04,-0.05 L 122,87.76 v 0.04 l 2.22,0.5 v 0 c 0.03,-0.06 0.1,-0.08 0.16,-0.05 0.06,0.03 0.08,0.1 0.05,0.16 -0.03,0.06 -0.1,0.08 -0.16,0.05 -0.02,-0.01 -0.04,-0.04 -0.05,-0.06 l -2.17,-0.5 c 0,0 0.01,0.05 0.02,0.08 l 2.65,0.84 c 0,0 0.08,-0.04 0.12,-0.02 0.06,0.03 0.08,0.1 0.05,0.16 -0.03,0.06 -0.1,0.08 -0.16,0.05 -0.04,-0.02 -0.05,-0.06 -0.05,-0.1 l -2.58,-0.82 c 0,0 0.02,0.08 0.02,0.12 l 1.94,0.83 c 0,0 0.09,-0.05 0.13,-0.03 0.06,0.03 0.08,0.1 0.05,0.16 -0.03,0.06 -0.1,0.08 -0.16,0.05 -0.04,-0.02 -0.05,-0.05 -0.06,-0.09 l -1.9,-0.81 c 0,0 0,0.08 0,0.11 l 2.28,1.22 c 0,0 0.08,-0.05 0.13,-0.03 0.06,0.03 0.08,0.1 0.05,0.16 -0.03,0.06 -0.1,0.08 -0.16,0.05 -0.04,-0.02 -0.05,-0.05 -0.06,-0.09 l -2.26,-1.2 c 0,0 0,0.1 -0.01,0.14 l 1.66,1.1 c 0,0 0.08,-0.04 0.12,-0.02 0.06,0.03 0.08,0.1 0.05,0.16 -0.03,0.06 -0.1,0.08 -0.16,0.05 -0.04,-0.02 -0.05,-0.06 -0.05,-0.1 l -1.65,-1.1 c 0,0 -0.03,0.08 -0.05,0.12 l 1.98,1.52 c 0,0 0,0 0,-0.01 0.06,-0.03 0.13,0 0.16,0.05 0.03,0.05 0,0.13 -0.05,0.16 -0.06,0.03 -0.13,0 -0.16,-0.05 -0.01,-0.02 0,-0.04 0,-0.06 l -2,-1.54 c 0,0 -0.02,0.03 -0.04,0.04 -0.05,0.03 -0.11,0.04 -0.17,0.05 0.42,0.38 0.94,0.83 1.6,1.38 0.05,-0.02 0.11,0 0.14,0.05 0.03,0.06 0,0.13 -0.05,0.16 -0.05,0.03 -0.13,0 -0.16,-0.05 -0.02,-0.03 -0.01,-0.07 0,-0.1 -0.7,-0.59 -1.25,-1.07 -1.68,-1.46 -0.4,-0.1 -0.93,-0.58 -1.36,-1.28 -0.48,-0.79 -0.65,-1.57 -0.45,-1.93 -0.1,-1.05 -0.08,-2.1 -0.07,-2.36 0,0 -0.02,0 -0.02,0 -0.06,-0.03 -0.08,-0.1 -0.05,-0.16 z"
       id="path32" />
    <path
       class="cls-7"
       d="m 44.17,101.4 c 0,0 0.02,-0.02 0.03,-0.04 0.12,-0.29 -0.41,-0.78 -1.17,-1.09 -0.76,-0.31 -1.48,-0.34 -1.6,-0.05 0,0.02 0,0.03 0,0.05 l -0.16,-0.07 c 0.48,-1.16 1.69,-2.18 2.53,-1.84 0.84,0.34 0.98,1.92 0.5,3.08 l -0.12,-0.05 z"
       id="path33" />
    <path
       class="cls-6"
       d="m 82.28,25.76 c 14.64,-3.13 33.71,-2.98 33.71,-2.98 v 46.2 c 0,27.07 -33.71,35.17 -33.71,35.17 0,0 -33.71,-7.97 -33.71,-35.17 V 35.16 c 0,0 19.08,-6.27 33.71,-9.4"
       id="path34"
       style="fill:url(#radial-gradient)" />
    <g
       id="g36">
      <path
         class="cls-2"
         d="m 39.95,97.99 c 0,0 0.03,0.01 0.05,0 0.31,-0.03 0.5,-0.76 0.42,-1.65 -0.08,-0.89 -0.39,-1.58 -0.7,-1.55 -0.02,0 -0.03,0.01 -0.05,0.02 l -0.02,-0.19 c 1.25,-0.11 2.72,0.55 2.8,1.52 0.08,0.97 -1.25,1.87 -2.5,1.97 v -0.13 z"
         id="path35" />
      <path
         class="cls-2"
         d="m 42.54,96.37 c 0,0 0.57,0.02 1.32,0.16"
         id="path36" />
    </g>
    <g
       id="g38">
      <path
         class="cls-2"
         d="m 40.45,94.37 c 0,0 0.03,0.02 0.05,0.02 0.3,0.06 0.69,-0.6 0.86,-1.46 0.17,-0.86 0.07,-1.62 -0.24,-1.68 -0.02,0 -0.03,0 -0.05,0 l 0.04,-0.18 c 1.23,0.24 2.46,1.29 2.27,2.24 -0.19,0.95 -1.72,1.44 -2.95,1.2 l 0.03,-0.13 z"
         id="path37" />
      <path
         class="cls-2"
         d="m 43.39,93.54 c 0,0 0.7,0.23 1.38,0.58"
         id="path38" />
    </g>
    <path
       class="cls-7"
       d="m 43.47,88.7 c 0,0 0.02,0.03 0.04,0.04 0.27,0.16 0.83,-0.28 1.26,-0.99 0.43,-0.71 0.56,-1.41 0.3,-1.57 -0.01,0 -0.03,0 -0.05,-0.01 l 0.09,-0.15 c 1.07,0.65 1.9,2 1.43,2.78 -0.47,0.78 -2.05,0.67 -3.13,0.02 l 0.07,-0.11 z"
       id="path39" />
    <path
       class="cls-7"
       d="m 49.3,90.31 c 0,0 -1.2,-1.18 -2.77,-1.53"
       id="path40" />
    <path
       class="cls-7"
       d="m 45.18,83.17 c -0.03,-0.06 -0.1,-0.08 -0.16,-0.05 -0.06,0.03 -0.08,0.1 -0.05,0.16 0,0.02 0.03,0.02 0.04,0.03 0,0.22 0.04,1.24 -0.06,2.28 C 44.93,85.58 44.92,85.56 44.9,85.54 44.84,85.5 44.76,85.49 44.67,85.5 v -2.68 0 c 0.06,-0.03 0.08,-0.1 0.05,-0.16 -0.03,-0.06 -0.1,-0.08 -0.16,-0.05 -0.06,0.03 -0.08,0.1 -0.05,0.16 0.01,0.02 0.03,0.04 0.06,0.05 v 2.69 c 0,0 -0.03,0.01 -0.06,0.02 l -0.19,-2.18 c 0.05,-0.03 0.08,-0.1 0.05,-0.15 -0.03,-0.06 -0.1,-0.08 -0.16,-0.05 -0.06,0.03 -0.08,0.1 -0.05,0.16 0.01,0.03 0.04,0.05 0.07,0.06 l 0.2,2.2 c 0,0 -0.05,0.02 -0.08,0.03 l -0.52,-2.7 v 0 c 0.06,-0.03 0.08,-0.1 0.05,-0.16 -0.03,-0.06 -0.1,-0.08 -0.16,-0.05 -0.06,0.03 -0.08,0.1 -0.05,0.16 0.01,0.03 0.04,0.04 0.06,0.05 l 0.53,2.75 -0.05,0.03 -0.6,-2.13 c 0,0 0.06,-0.09 0.03,-0.13 -0.03,-0.06 -0.1,-0.08 -0.16,-0.05 -0.06,0.03 -0.08,0.1 -0.05,0.16 0.02,0.03 0.05,0.05 0.09,0.06 l 0.61,2.15 c 0,0 -0.04,0.03 -0.06,0.05 l -1.06,-2.68 c 0,0 0.03,-0.07 0.01,-0.11 -0.03,-0.06 -0.1,-0.08 -0.16,-0.05 -0.06,0.03 -0.08,0.1 -0.05,0.16 0.02,0.04 0.07,0.06 0.11,0.05 l 1.06,2.7 c 0,0 -0.04,0.03 -0.05,0.05 l -1.08,-2.1 c 0,0 0.05,-0.08 0.03,-0.13 -0.03,-0.06 -0.1,-0.08 -0.16,-0.05 -0.06,0.03 -0.08,0.1 -0.05,0.16 0.02,0.04 0.05,0.05 0.09,0.06 l 1.09,2.13 c 0,0 -0.04,0.04 -0.06,0.06 l -1.56,-2.48 c 0,0 0.03,-0.07 0.01,-0.11 -0.03,-0.06 -0.1,-0.08 -0.16,-0.05 -0.06,0.03 -0.08,0.1 -0.05,0.16 0.02,0.04 0.07,0.06 0.12,0.05 l 1.57,2.5 -0.02,0.02 -1.5,-1.9 c 0,0 0.05,-0.08 0.02,-0.12 -0.03,-0.06 -0.1,-0.08 -0.16,-0.05 -0.06,0.03 -0.08,0.1 -0.05,0.16 0.02,0.04 0.05,0.05 0.09,0.06 l 1.52,1.93 c 0,0 -0.02,0.03 -0.04,0.04 L 41.5,84.09 c 0,0 0.01,-0.06 0,-0.09 -0.03,-0.06 -0.1,-0.08 -0.16,-0.05 -0.06,0.03 -0.08,0.1 -0.05,0.16 0.03,0.05 0.09,0.07 0.14,0.05 l 2.09,2.17 c 0,0 -0.03,0.04 -0.05,0.06 l -1.85,-1.64 c 0,0 0,-0.06 0,-0.09 -0.03,-0.06 -0.1,-0.08 -0.16,-0.05 -0.06,0.03 -0.08,0.1 -0.05,0.16 0.03,0.06 0.09,0.08 0.15,0.05 l 1.85,1.65 v 0 L 40.96,84.7 c 0,0 0,-0.05 0,-0.08 -0.03,-0.06 -0.1,-0.08 -0.16,-0.05 -0.06,0.03 -0.08,0.1 -0.05,0.16 0.03,0.06 0.1,0.08 0.16,0.05 v 0 l 2.46,1.77 c 0,0 -0.02,0.03 -0.03,0.04 l -2.16,-1.27 c 0,0 0,-0.04 0,-0.06 -0.03,-0.06 -0.1,-0.08 -0.16,-0.05 -0.06,0.03 -0.08,0.1 -0.05,0.16 0.03,0.06 0.1,0.08 0.16,0.05 0,0 0,0 0.01,-0.01 l 2.16,1.26 c 0,0 -0.03,0.05 -0.05,0.08 L 40.5,85.42 c 0,0 0,-0.04 0,-0.05 -0.03,-0.06 -0.1,-0.08 -0.16,-0.05 -0.06,0.03 -0.08,0.1 -0.05,0.16 0.03,0.06 0.1,0.08 0.16,0.05 0,0 0.01,-0.01 0.02,-0.02 l 2.74,1.33 v 0 l -2.4,-0.85 c 0,0 0,-0.01 0,-0.02 -0.03,-0.06 -0.1,-0.08 -0.16,-0.05 -0.06,0.03 -0.08,0.1 -0.05,0.16 0.03,0.06 0.1,0.08 0.16,0.05 0.02,0 0.03,-0.03 0.04,-0.05 l 2.36,0.84 c 0,0 -0.02,0.04 -0.03,0.06 l -2.96,-0.73 c 0,0 0,-0.03 0,-0.05 -0.03,-0.06 -0.1,-0.08 -0.16,-0.05 -0.06,0.03 -0.08,0.1 -0.05,0.16 0.03,0.06 0.1,0.08 0.16,0.05 0,0 0,-0.01 0.02,-0.02 l 2.96,0.72 c 0,0 -0.03,0.06 -0.05,0.09 l -2.42,-0.41 c 0,0 0,-0.02 0,-0.02 -0.03,-0.06 -0.1,-0.08 -0.16,-0.05 -0.06,0.03 -0.08,0.1 -0.05,0.16 0.03,0.06 0.1,0.08 0.16,0.05 0.02,0 0.03,-0.03 0.04,-0.04 l 2.39,0.4 v 0.02 L 40,87.1 v 0 c -0.03,-0.06 -0.1,-0.08 -0.16,-0.05 -0.06,0.03 -0.08,0.1 -0.05,0.16 0.03,0.06 0.1,0.08 0.16,0.05 0.03,-0.01 0.04,-0.04 0.05,-0.06 l 2.96,0.16 -0.03,0.07 -2.45,0.1 c 0,0 -0.09,-0.07 -0.15,-0.04 -0.06,0.03 -0.08,0.1 -0.05,0.16 0.03,0.06 0.1,0.08 0.16,0.05 0.03,-0.02 0.05,-0.04 0.06,-0.07 l 2.39,-0.09 c 0,0 -0.03,0.08 -0.05,0.12 l -2.87,0.33 c 0,0 0,0 0,-0.01 -0.03,-0.06 -0.1,-0.08 -0.16,-0.05 -0.06,0.03 -0.08,0.1 -0.05,0.16 0.03,0.06 0.1,0.08 0.16,0.05 0.02,-0.01 0.03,-0.03 0.04,-0.05 l 2.85,-0.33 v 0.04 l -2.22,0.5 v 0 c -0.03,-0.06 -0.1,-0.08 -0.16,-0.05 -0.06,0.03 -0.08,0.1 -0.05,0.16 0.03,0.06 0.1,0.08 0.16,0.05 0.02,-0.01 0.04,-0.04 0.05,-0.06 l 2.17,-0.5 c 0,0 -0.01,0.05 -0.02,0.08 l -2.65,0.84 c 0,0 -0.08,-0.04 -0.12,-0.02 -0.06,0.03 -0.08,0.1 -0.05,0.16 0.03,0.06 0.1,0.08 0.16,0.05 0.04,-0.02 0.05,-0.06 0.05,-0.1 l 2.58,-0.82 c 0,0 -0.02,0.08 -0.02,0.12 l -1.94,0.83 c 0,0 -0.09,-0.05 -0.13,-0.03 -0.06,0.03 -0.08,0.1 -0.05,0.16 0.03,0.06 0.1,0.08 0.16,0.05 0.04,-0.02 0.05,-0.05 0.06,-0.09 l 1.9,-0.81 c 0,0 0,0.08 0,0.11 l -2.28,1.22 c 0,0 -0.08,-0.05 -0.13,-0.03 -0.06,0.03 -0.08,0.1 -0.05,0.16 0.03,0.06 0.1,0.08 0.16,0.05 0.04,-0.02 0.05,-0.05 0.06,-0.09 l 2.26,-1.2 c 0,0 0,0.1 0.01,0.14 l -1.66,1.1 c 0,0 -0.08,-0.04 -0.12,-0.02 -0.06,0.03 -0.08,0.1 -0.05,0.16 0.03,0.06 0.1,0.08 0.16,0.05 0.04,-0.02 0.05,-0.06 0.05,-0.1 l 1.65,-1.1 c 0,0 0.03,0.08 0.05,0.12 l -1.98,1.52 c 0,0 0,0 0,-0.01 -0.06,-0.03 -0.13,0 -0.16,0.05 -0.03,0.05 0,0.13 0.05,0.16 0.06,0.03 0.13,0 0.16,-0.05 0.01,-0.02 0,-0.04 0,-0.06 l 2,-1.54 c 0,0 0.02,0.03 0.04,0.04 0.05,0.03 0.11,0.04 0.17,0.05 -0.42,0.38 -0.94,0.83 -1.6,1.38 -0.05,-0.02 -0.11,0 -0.14,0.05 -0.03,0.06 0,0.13 0.05,0.16 0.05,0.03 0.13,0 0.16,-0.05 0.02,-0.03 0.01,-0.07 0,-0.1 0.7,-0.59 1.25,-1.07 1.68,-1.46 0.4,-0.1 0.93,-0.58 1.36,-1.28 0.48,-0.79 0.65,-1.57 0.45,-1.93 0.1,-1.05 0.08,-2.1 0.07,-2.36 0,0 0.02,0 0.02,0 0.06,-0.03 0.08,-0.1 0.05,-0.16 z"
       id="path41" />
    <path
       class="cls-4"
       d="m 103.52,99.21 c 0,0 4.62,-5.34 13.28,-4.33 0,0 -0.36,1.29 -1.69,2.57 -1.43,1.38 -4.56,2.72 -11.39,2.35 z"
       id="path42" />
    <g
       id="g44">
      <path
         class="cls-5"
         d="m 76.34,110.93 -28.93,-1.94 c -0.34,-0.02 -0.59,-0.31 -0.57,-0.65 0.02,-0.34 0.31,-0.58 0.65,-0.57 l 17.14,1.15 -11.54,-3.22 c -0.32,-0.09 -0.51,-0.43 -0.42,-0.75 0.09,-0.32 0.42,-0.51 0.75,-0.42 l 22.93,6.39 z"
         id="path43" />
      <path
         class="cls-5"
         d="m 88.12,110.93 22.92,-6.39 c 0.32,-0.09 0.66,0.1 0.75,0.42 0.09,0.32 -0.1,0.66 -0.42,0.75 l -11.54,3.22 17.14,-1.15 c 0.34,-0.01 0.63,0.23 0.65,0.57 0.02,0.34 -0.23,0.63 -0.57,0.65 l -28.93,1.94 z"
         id="path44" />
    </g>
    <path
       class="cls-8"
       d="m 43.39,97.99 c -0.41,0 -0.86,0.18 -1.3,0.55 -0.5,0.43 -0.91,1.04 -1.14,1.67 -0.05,0.16 0.03,0.33 0.19,0.38 l 0.16,0.06 c 0.09,0.03 0.18,0.02 0.26,-0.03 0.07,-0.04 0.12,-0.11 0.14,-0.19 0.12,-0.06 0.57,-0.09 1.21,0.14 0.66,0.23 0.99,0.54 1.04,0.64 -0.04,0.07 -0.05,0.17 -0.02,0.24 0.03,0.09 0.1,0.16 0.19,0.19 l 0.12,0.04 c 0.16,0.06 0.33,-0.03 0.38,-0.19 0.22,-0.64 0.28,-1.37 0.15,-2.02 0,-0.02 0,-0.04 -0.01,-0.05 -0.13,-0.6 -0.4,-1.02 -0.78,-1.25 m -0.41,0.45 c 0.29,0.1 0.52,0.45 0.61,0.97 0.06,0.32 0.07,0.67 0.03,1.01 -0.26,-0.23 -0.64,-0.45 -1.09,-0.61 -0.43,-0.15 -0.91,-0.24 -1.29,-0.2 0.18,-0.3 0.41,-0.58 0.67,-0.8 0.4,-0.34 0.79,-0.48 1.08,-0.37 z"
       id="path45" />
    <path
       class="cls-7"
       d="m 38.48,100.66 c -0.05,0.04 -0.06,0.11 -0.02,0.16 0.04,0.05 0.11,0.06 0.16,0.02 0.02,-0.01 0.02,-0.03 0.03,-0.05 0.22,-0.05 1.21,-0.26 2.25,-0.36 -0.01,0.02 -0.03,0.03 -0.04,0.05 -0.03,0.07 -0.02,0.15 0,0.23 l -2.63,0.49 v 0 c -0.04,-0.06 -0.11,-0.07 -0.16,-0.03 -0.05,0.04 -0.06,0.11 -0.02,0.16 0.04,0.05 0.11,0.06 0.16,0.02 0.02,-0.02 0.03,-0.04 0.04,-0.07 l 2.64,-0.49 c 0,0 0.02,0.04 0.03,0.06 l -2.11,0.58 c 0,0 -0.11,-0.06 -0.16,-0.02 -0.05,0.04 -0.06,0.11 -0.02,0.16 0.04,0.05 0.11,0.06 0.16,0.02 0.03,-0.02 0.04,-0.05 0.04,-0.08 l 2.13,-0.59 c 0,0 0.03,0.05 0.05,0.08 l -2.56,1 v 0 c -0.04,-0.05 -0.11,-0.06 -0.16,-0.02 -0.05,0.04 -0.06,0.11 -0.02,0.16 0.04,0.05 0.11,0.06 0.16,0.02 0.02,-0.02 0.03,-0.04 0.04,-0.07 l 2.61,-1.02 0.04,0.04 -1.99,0.98 c 0,0 -0.1,-0.04 -0.14,0 -0.05,0.04 -0.06,0.11 -0.02,0.16 0.04,0.05 0.11,0.06 0.16,0.02 0.03,-0.02 0.04,-0.06 0.04,-0.09 l 2.01,-0.99 c 0,0 0.04,0.03 0.06,0.05 l -2.45,1.52 c 0,0 -0.08,-0.02 -0.11,0 -0.05,0.04 -0.06,0.11 -0.02,0.16 0.04,0.05 0.11,0.06 0.16,0.02 0.04,-0.03 0.05,-0.08 0.03,-0.12 l 2.46,-1.53 c 0,0 0.04,0.03 0.05,0.04 l -1.87,1.44 c 0,0 -0.09,-0.03 -0.13,0 -0.05,0.04 -0.06,0.11 -0.02,0.16 0.04,0.05 0.11,0.06 0.16,0.02 0.03,-0.03 0.04,-0.06 0.04,-0.1 l 1.9,-1.46 c 0,0 0.05,0.03 0.07,0.05 l -2.15,1.98 c 0,0 -0.08,-0.02 -0.11,0 -0.05,0.04 -0.06,0.11 -0.02,0.16 0.04,0.05 0.11,0.06 0.16,0.02 0.04,-0.03 0.05,-0.08 0.03,-0.12 l 2.17,-1.99 0.03,0.02 -1.6,1.81 c 0,0 -0.09,-0.03 -0.13,0 -0.05,0.04 -0.06,0.11 -0.02,0.16 0.04,0.05 0.11,0.06 0.16,0.02 0.03,-0.03 0.04,-0.06 0.04,-0.1 l 1.62,-1.84 c 0,0 0.03,0.02 0.05,0.03 l -1.75,2.43 c 0,0 -0.07,0 -0.09,0.02 -0.05,0.04 -0.06,0.11 -0.02,0.16 0.04,0.05 0.11,0.06 0.16,0.02 0.05,-0.04 0.05,-0.1 0.03,-0.15 l 1.76,-2.44 c 0,0 0.05,0.03 0.07,0.04 l -1.28,2.11 c 0,0 -0.06,0 -0.09,0.02 -0.05,0.04 -0.06,0.11 -0.02,0.16 0.04,0.05 0.11,0.06 0.16,0.02 0.05,-0.04 0.06,-0.11 0.02,-0.16 l 1.29,-2.12 v 0 l -1.3,2.73 c 0,0 -0.05,0 -0.08,0.02 -0.05,0.04 -0.06,0.11 -0.02,0.16 0.04,0.05 0.11,0.06 0.16,0.02 0.05,-0.04 0.06,-0.11 0.02,-0.16 v 0 l 1.3,-2.74 c 0,0 0.03,0.01 0.05,0.02 l -0.85,2.36 c 0,0 -0.04,0 -0.06,0.02 -0.05,0.04 -0.06,0.11 -0.02,0.16 0.04,0.05 0.11,0.06 0.16,0.02 0.05,-0.04 0.06,-0.11 0.02,-0.16 0,0 -0.01,0 -0.01,0 l 0.85,-2.35 c 0,0 0.06,0.02 0.09,0.04 l -0.81,2.95 c 0,0 -0.04,0 -0.05,0.01 -0.05,0.04 -0.06,0.11 -0.02,0.16 0.04,0.05 0.11,0.06 0.16,0.02 0.05,-0.04 0.06,-0.11 0.02,-0.16 0,0 -0.02,0 -0.02,-0.01 l 0.81,-2.93 v 0 l -0.41,2.51 c 0,0 -0.01,0 -0.02,0 -0.05,0.04 -0.06,0.11 -0.02,0.16 0.04,0.05 0.11,0.06 0.16,0.02 0.05,-0.04 0.06,-0.11 0.02,-0.16 -0.01,-0.02 -0.03,-0.02 -0.05,-0.03 l 0.4,-2.48 c 0,0 0.04,0.01 0.06,0.02 l -0.18,3.05 c 0,0 -0.03,0 -0.05,0.01 -0.05,0.04 -0.06,0.11 -0.02,0.16 0.04,0.05 0.11,0.06 0.16,0.02 0.05,-0.04 0.06,-0.11 0.02,-0.16 0,0 -0.02,0 -0.02,-0.01 l 0.18,-3.04 c 0,0 0.07,0.02 0.1,0.03 l 0.04,2.45 c 0,0 -0.02,0 -0.02,0 -0.05,0.04 -0.06,0.11 -0.02,0.16 0.04,0.05 0.11,0.06 0.16,0.02 0.05,-0.04 0.06,-0.11 0.02,-0.16 -0.01,-0.02 -0.03,-0.02 -0.05,-0.03 L 42.8,102 h 0.02 l 0.38,2.98 v 0 c -0.05,0.04 -0.06,0.11 -0.02,0.16 0.04,0.05 0.11,0.06 0.16,0.02 0.05,-0.04 0.06,-0.11 0.02,-0.16 -0.02,-0.02 -0.04,-0.03 -0.07,-0.04 l -0.38,-2.94 0.07,0.02 0.54,2.39 c 0,0 -0.05,0.1 -0.02,0.15 0.04,0.05 0.11,0.06 0.16,0.02 0.05,-0.04 0.06,-0.11 0.02,-0.16 -0.02,-0.03 -0.05,-0.04 -0.08,-0.04 l -0.52,-2.34 c 0,0 0.09,0.01 0.13,0.02 l 0.85,2.76 c 0,0 -0.01,0 -0.01,0 -0.05,0.04 -0.06,0.11 -0.02,0.16 0.04,0.05 0.11,0.06 0.16,0.02 0.05,-0.04 0.06,-0.11 0.02,-0.16 -0.01,-0.02 -0.03,-0.02 -0.05,-0.03 l -0.84,-2.74 h 0.04 l 0.89,2.08 v 0 c -0.05,0.04 -0.06,0.11 -0.02,0.16 0.04,0.05 0.11,0.06 0.16,0.02 0.05,-0.04 0.06,-0.11 0.02,-0.16 -0.02,-0.02 -0.04,-0.03 -0.07,-0.04 l -0.88,-2.05 c 0,0 0.05,0 0.08,0 l 1.31,2.45 c 0,0 -0.03,0.08 0,0.12 0.04,0.05 0.11,0.06 0.16,0.02 0.05,-0.04 0.06,-0.11 0.02,-0.16 -0.03,-0.04 -0.07,-0.04 -0.11,-0.04 l -1.28,-2.39 c 0,0 0.08,0 0.12,0 l 1.17,1.76 c 0,0 -0.04,0.09 0,0.14 0.04,0.05 0.11,0.06 0.16,0.02 0.05,-0.04 0.06,-0.11 0.02,-0.16 -0.02,-0.03 -0.06,-0.04 -0.1,-0.04 l -1.14,-1.72 c 0,0 0.08,0 0.11,-0.01 l 1.61,2.02 c 0,0 -0.04,0.09 0,0.13 0.04,0.05 0.11,0.06 0.16,0.02 0.05,-0.04 0.06,-0.11 0.02,-0.16 -0.02,-0.03 -0.06,-0.04 -0.1,-0.04 l -1.59,-2 c 0,0 0.09,-0.02 0.13,-0.04 l 1.39,1.43 c 0,0 -0.03,0.09 0,0.12 0.04,0.05 0.11,0.06 0.16,0.02 0.05,-0.04 0.06,-0.11 0.02,-0.16 -0.03,-0.03 -0.07,-0.04 -0.11,-0.04 l -1.38,-1.43 c 0,0 0.08,-0.05 0.11,-0.07 l 1.86,1.68 c 0,0 0,0 0,0.01 -0.02,0.06 0.02,0.13 0.08,0.14 0.06,0.01 0.13,-0.02 0.14,-0.08 0.02,-0.06 -0.02,-0.13 -0.08,-0.14 -0.02,0 -0.04,0 -0.06,0 l -1.87,-1.69 c 0,0 0.02,-0.03 0.03,-0.04 0.02,-0.06 0.02,-0.12 0.02,-0.18 0.45,0.34 0.99,0.77 1.65,1.32 0,0.06 0.02,0.11 0.08,0.13 0.06,0.02 0.13,-0.02 0.14,-0.08 0.01,-0.06 -0.02,-0.13 -0.08,-0.14 -0.03,-0.01 -0.07,0 -0.09,0.02 -0.7,-0.59 -1.27,-1.04 -1.74,-1.39 -0.17,-0.37 -0.74,-0.81 -1.51,-1.1 -0.86,-0.33 -1.67,-0.35 -1.98,-0.1 -1.05,0.09 -2.08,0.3 -2.33,0.36 0,0 0,-0.02 0,-0.02 -0.04,-0.05 -0.11,-0.06 -0.16,-0.02 z"
       id="path46" />
    <path
       class="cls-7"
       d="m 120.64,101.4 c 0,0 -0.02,-0.02 -0.03,-0.04 -0.12,-0.29 0.41,-0.78 1.17,-1.09 0.76,-0.31 1.48,-0.34 1.6,-0.05 0,0.02 0,0.03 0,0.05 l 0.16,-0.07 c -0.48,-1.16 -1.69,-2.18 -2.53,-1.84 -0.84,0.34 -0.98,1.92 -0.5,3.08 l 0.12,-0.05 z"
       id="path47" />
    <g
       id="g49">
      <path
         class="cls-2"
         d="m 124.86,97.99 c 0,0 -0.03,0.01 -0.05,0 -0.31,-0.03 -0.5,-0.76 -0.42,-1.65 0.08,-0.89 0.39,-1.58 0.7,-1.55 0.02,0 0.03,0.01 0.05,0.02 l 0.02,-0.19 c -1.25,-0.11 -2.72,0.55 -2.8,1.52 -0.08,0.97 1.25,1.87 2.5,1.97 v -0.13 z"
         id="path48" />
      <path
         class="cls-2"
         d="m 122.27,96.37 c 0,0 -0.57,0.02 -1.32,0.16"
         id="path49" />
    </g>
    <g
       id="g51">
      <path
         class="cls-2"
         d="m 124.36,94.37 c 0,0 -0.03,0.02 -0.05,0.02 -0.3,0.06 -0.69,-0.6 -0.86,-1.46 -0.17,-0.86 -0.07,-1.62 0.24,-1.68 0.02,0 0.03,0 0.05,0 l -0.04,-0.18 c -1.23,0.24 -2.46,1.29 -2.27,2.24 0.19,0.95 1.72,1.44 2.95,1.2 l -0.03,-0.13 z"
         id="path50" />
      <path
         class="cls-2"
         d="m 121.42,93.54 c 0,0 -0.7,0.23 -1.38,0.58"
         id="path51" />
    </g>
    <path
       class="cls-7"
       d="m 121.34,88.7 c 0,0 -0.02,0.03 -0.04,0.04 -0.27,0.16 -0.83,-0.28 -1.26,-0.99 -0.43,-0.71 -0.56,-1.41 -0.3,-1.57 0.01,0 0.03,0 0.05,-0.01 l -0.09,-0.15 c -1.07,0.65 -1.9,2 -1.43,2.78 0.47,0.78 2.05,0.67 3.13,0.02 l -0.07,-0.11 z"
       id="path52" />
    <path
       class="cls-8"
       d="m 129.33,71.54 c -8.23,2.25 -9.69,8.32 -9.84,9.01 -0.06,0.08 -0.32,0.36 -1.19,1.06 0.75,-1.93 1.33,-3.93 1.72,-5.98 8.76,-10.06 3.16,-18.72 3.1,-18.81 l -0.23,-0.34 -0.26,0.31 c -0.76,0.91 -1.41,1.82 -1.98,2.71 V 14.25 c 0,0 -23.34,0.18 -39.01,3.52 -15.77,3.37 -37.83,11.16 -37.83,11.16 v 30.1 c -0.5,-0.74 -1.05,-1.48 -1.67,-2.24 l -0.26,-0.31 -0.23,0.34 c -0.06,0.09 -5.48,8.48 2.7,18.33 0.37,2.08 0.92,4.11 1.65,6.07 -0.49,-0.41 -0.67,-0.61 -0.72,-0.67 -0.14,-0.7 -1.6,-6.77 -9.84,-9.01 l -0.39,-0.11 v 0.41 c 0.01,0.07 0.29,7.36 9.77,9.1 0.27,0.33 0.96,0.91 1.62,1.42 1.08,2.59 2.49,5.07 4.21,7.42 -0.38,0.09 -0.76,0.2 -1.14,0.34 0,0 0,-0.02 -0.02,-0.03 -0.05,-0.05 -1.12,-1.08 -2.58,-1.51 0.09,-0.4 0,-0.88 -0.27,-1.38 -0.31,-0.58 -0.83,-1.11 -1.4,-1.46 -0.14,-0.08 -0.33,-0.04 -0.41,0.1 l -0.09,0.15 c -0.05,0.08 -0.06,0.17 -0.03,0.26 0.03,0.08 0.09,0.14 0.16,0.17 0.03,0.13 -0.03,0.57 -0.38,1.16 -0.36,0.6 -0.74,0.86 -0.84,0.88 -0.06,-0.06 -0.15,-0.09 -0.23,-0.07 -0.09,0.01 -0.17,0.06 -0.22,0.14 l -0.07,0.11 c -0.09,0.14 -0.04,0.33 0.1,0.41 0.58,0.35 1.28,0.55 1.94,0.57 0.02,0 0.04,0 0.06,0 0.61,0 1.09,-0.18 1.38,-0.51 1.06,0.28 1.93,0.94 2.28,1.25 -1.47,0.66 -2.88,1.75 -3.97,3.51 -0.01,0 -0.02,-0.02 -0.04,-0.03 -0.49,-0.25 -0.97,-0.43 -1.23,-0.53 0.09,-0.54 -0.15,-1.11 -0.69,-1.62 -0.49,-0.46 -1.15,-0.8 -1.81,-0.93 -0.16,-0.04 -0.32,0.07 -0.35,0.24 l -0.04,0.18 c -0.02,0.09 0,0.18 0.07,0.25 0.05,0.06 0.12,0.1 0.2,0.11 0.07,0.13 0.16,0.6 0.02,1.32 -0.15,0.75 -0.43,1.16 -0.5,1.22 -0.08,-0.03 -0.17,-0.03 -0.25,0 -0.08,0.04 -0.14,0.12 -0.16,0.21 v 0.02 c -0.18,-0.01 -0.35,0 -0.52,0 -0.08,0 -0.15,0.05 -0.2,0.11 -0.05,0.06 -0.08,0.14 -0.07,0.22 l 0.02,0.19 c 0,0.09 0.09,0.16 0.16,0.21 0.05,0.03 0.11,0.04 0.18,0.04 0.1,0.07 0.34,0.5 0.4,1.28 0.07,0.76 -0.09,1.23 -0.14,1.31 -0.09,0 -0.18,0.02 -0.24,0.08 -0.07,0.06 -0.1,0.15 -0.09,0.25 v 0.13 c 0.03,0.16 0.16,0.28 0.31,0.28 h 0.03 c 1.17,-0.1 2.39,-0.82 2.7,-1.74 0.19,0.01 0.54,0.05 0.95,0.12 -0.12,0.41 -0.24,0.83 -0.33,1.28 -0.04,0.16 0.07,0.32 0.23,0.36 0.02,0 0.04,0 0.06,0 0.14,0 0.26,-0.1 0.29,-0.24 1.15,-5.34 4.29,-7.29 7.16,-7.9 1.27,1.68 2.7,3.3 4.3,4.84 -1.9,-0.53 -4.32,-0.82 -7.39,-0.57 l -0.37,0.03 0.11,0.36 c 0.02,0.06 1.68,5.3 10.05,5.3 1.06,0 2.23,-0.09 3.51,-0.28 0.54,0.38 1.08,0.75 1.64,1.12 9.19,5.99 18.59,8.3 18.68,8.32 l 0.66,0.16 0.67,-0.16 c 0.09,-0.02 9.5,-2.38 18.67,-8.37 0.56,-0.36 1.1,-0.74 1.63,-1.11 l 0.13,0.02 c 1.36,0.21 2.59,0.3 3.7,0.3 8.37,0 10.03,-5.24 10.05,-5.3 l 0.11,-0.36 -0.37,-0.03 c -3.36,-0.27 -5.95,0.1 -7.92,0.73 1.69,-1.61 3.19,-3.3 4.52,-5.06 2.95,0.54 6.29,2.43 7.48,7.97 0.03,0.14 0.16,0.24 0.29,0.24 0.02,0 0.04,0 0.06,0 0.16,-0.04 0.27,-0.2 0.23,-0.36 -0.1,-0.45 -0.21,-0.87 -0.33,-1.28 0.42,-0.07 0.77,-0.11 0.95,-0.12 0.31,0.92 1.54,1.64 2.7,1.74 h 0.03 c 0.16,0 0.29,-0.12 0.3,-0.27 v -0.13 c 0.02,-0.09 -0.01,-0.18 -0.08,-0.25 -0.07,-0.06 -0.15,-0.09 -0.24,-0.08 -0.05,-0.08 -0.2,-0.55 -0.14,-1.31 0.07,-0.78 0.31,-1.21 0.4,-1.28 0.07,0 0.13,-0.01 0.18,-0.04 0.08,-0.05 0.15,-0.12 0.16,-0.21 l 0.02,-0.19 c 0,-0.08 -0.02,-0.16 -0.07,-0.22 -0.05,-0.06 -0.13,-0.1 -0.2,-0.11 -0.17,-0.01 -0.34,-0.02 -0.52,0 v -0.02 c -0.02,-0.09 -0.08,-0.17 -0.17,-0.21 -0.08,-0.04 -0.17,-0.04 -0.25,0 -0.07,-0.07 -0.35,-0.47 -0.5,-1.22 -0.14,-0.72 -0.06,-1.19 0.02,-1.32 0.08,0 0.15,-0.04 0.2,-0.11 0.06,-0.07 0.08,-0.16 0.07,-0.25 l -0.04,-0.18 c -0.03,-0.16 -0.19,-0.27 -0.35,-0.24 -0.66,0.13 -1.32,0.47 -1.81,0.93 -0.54,0.51 -0.78,1.08 -0.69,1.62 -0.26,0.09 -0.74,0.28 -1.23,0.53 -0.01,0 -0.02,0.02 -0.04,0.03 -1.09,-1.76 -2.51,-2.85 -3.97,-3.51 0.36,-0.3 1.23,-0.97 2.28,-1.25 0.3,0.32 0.77,0.51 1.38,0.51 0.02,0 0.04,0 0.06,0 0.66,-0.01 1.36,-0.22 1.94,-0.57 0.14,-0.09 0.19,-0.27 0.1,-0.41 l -0.07,-0.11 c -0.05,-0.08 -0.13,-0.13 -0.22,-0.14 -0.08,-0.01 -0.17,0.02 -0.23,0.07 -0.1,-0.03 -0.47,-0.28 -0.84,-0.88 -0.35,-0.58 -0.41,-1.02 -0.38,-1.16 0.07,-0.03 0.13,-0.1 0.16,-0.17 0.03,-0.09 0.02,-0.18 -0.03,-0.26 l -0.09,-0.15 c -0.09,-0.14 -0.27,-0.19 -0.41,-0.1 -0.58,0.35 -1.09,0.88 -1.4,1.46 -0.28,0.5 -0.37,0.98 -0.27,1.38 -1.46,0.43 -2.53,1.46 -2.58,1.51 0,0 -0.01,0.02 -0.02,0.03 -0.48,-0.18 -0.97,-0.31 -1.45,-0.41 1.62,-2.22 2.96,-4.54 4.01,-6.97 0.77,-0.58 1.77,-1.37 2.11,-1.79 9.48,-1.75 9.76,-9.03 9.76,-9.1 v -0.41 l -0.38,0.11 z M 46.28,88.62 c -0.16,0.26 -0.55,0.42 -1.07,0.4 -0.32,0 -0.67,-0.07 -1,-0.18 0.28,-0.2 0.57,-0.54 0.82,-0.95 0.24,-0.39 0.42,-0.84 0.46,-1.22 0.26,0.24 0.49,0.53 0.64,0.82 0.25,0.46 0.3,0.87 0.14,1.13 z m -5.04,5.54 c 0.18,-0.3 0.33,-0.72 0.42,-1.18 0.09,-0.45 0.11,-0.9 0.06,-1.25 0,-0.06 -0.02,-0.12 -0.03,-0.18 0.33,0.14 0.64,0.34 0.88,0.57 0.39,0.37 0.58,0.77 0.51,1.1 -0.11,0.56 -0.98,0.99 -1.91,1.02 0.02,-0.03 0.04,-0.06 0.06,-0.1 z m -0.62,3.52 c 0.12,-0.37 0.15,-0.87 0.11,-1.36 -0.04,-0.46 -0.14,-0.89 -0.29,-1.21 -0.03,-0.06 -0.05,-0.11 -0.08,-0.16 0.35,0.05 0.71,0.15 1.01,0.31 0.48,0.24 0.77,0.58 0.8,0.92 0.05,0.57 -0.66,1.22 -1.55,1.51 z m 3.22,-1.46 c -0.47,-0.09 -0.86,-0.13 -1.09,-0.14 -0.06,-0.5 -0.41,-0.95 -0.99,-1.28 0.71,-0.13 1.34,-0.44 1.68,-0.93 0.23,0.08 0.72,0.27 1.19,0.51 0,0 0.01,0 0.02,0 -0.3,0.55 -0.57,1.16 -0.81,1.84 z m 80.62,-1.27 c 0,0 -0.05,0.1 -0.08,0.16 -0.15,0.32 -0.25,0.75 -0.29,1.21 -0.04,0.49 -0.01,0.98 0.11,1.36 -0.88,-0.29 -1.6,-0.93 -1.55,-1.51 0.03,-0.34 0.32,-0.67 0.8,-0.92 0.3,-0.15 0.65,-0.26 1.01,-0.31 z m -2.22,-2.81 c 0.25,-0.23 0.55,-0.43 0.88,-0.57 -0.01,0.05 -0.02,0.11 -0.03,0.18 -0.05,0.35 -0.03,0.79 0.06,1.25 0.09,0.45 0.24,0.87 0.42,1.18 0.02,0.04 0.04,0.07 0.06,0.1 -0.93,-0.03 -1.79,-0.45 -1.91,-1.02 -0.07,-0.33 0.12,-0.74 0.51,-1.1 z m -2.06,2.24 c 0.47,-0.24 0.96,-0.42 1.19,-0.51 0.34,0.48 0.97,0.8 1.68,0.93 -0.58,0.33 -0.93,0.78 -0.99,1.28 -0.22,0.02 -0.62,0.06 -1.09,0.14 -0.24,-0.68 -0.51,-1.29 -0.81,-1.84 0,0 0.01,0 0.02,0 z m -1.5,-6.89 c 0.16,-0.29 0.38,-0.57 0.64,-0.82 0.04,0.38 0.23,0.83 0.46,1.22 0.25,0.41 0.54,0.74 0.82,0.95 -0.33,0.11 -0.67,0.18 -1,0.18 -0.52,0.02 -0.91,-0.14 -1.07,-0.4 -0.16,-0.26 -0.11,-0.68 0.14,-1.13 z m -1.86,-18.51 c 0,2.01 -0.19,3.97 -0.56,5.88 -0.92,-1.93 -2.56,-4.06 -5.43,-5.95 l -0.34,-0.22 -0.12,0.39 c -0.02,0.06 -1.7,5.97 4.56,10.49 -1.73,4.66 -4.65,8.93 -8.69,12.71 0.13,-1.62 -0.06,-3.54 -0.8,-5.78 l -0.13,-0.4 -0.34,0.26 c 0,0 -4.12,3.25 -3.73,9.95 -0.55,0.38 -1.1,0.76 -1.68,1.13 -8.45,5.42 -16.77,7.46 -17.12,7.54 l -0.2,0.05 -0.2,-0.05 c -0.35,-0.08 -8.67,-2.09 -17.12,-7.5 -0.47,-0.3 -0.93,-0.61 -1.39,-0.93 0.5,-6.87 -3.66,-10.16 -3.71,-10.2 l -0.34,-0.26 -0.13,0.4 c -0.8,2.41 -0.96,4.45 -0.77,6.14 -4.18,-3.82 -7.2,-8.16 -8.98,-12.9 6.56,-4.55 4.84,-10.61 4.82,-10.67 l -0.12,-0.39 -0.34,0.22 c -3.11,2.05 -4.77,4.38 -5.65,6.43 -0.43,-2.06 -0.65,-4.18 -0.65,-6.36 V 34.53 l 0.59,-0.19 c 0.19,-0.06 19.29,-6.32 33.8,-9.42 14.56,-3.11 33.71,-3 33.9,-2.99 h 0.86 v 47.06 z"
       id="path53" />
    <path
       class="cls-8"
       d="m 120.83,98.17 c -0.38,0.23 -0.65,0.65 -0.78,1.25 0,0.02 0,0.04 -0.01,0.05 -0.12,0.65 -0.07,1.38 0.15,2.02 0.06,0.16 0.23,0.24 0.38,0.19 l 0.12,-0.04 c 0.09,-0.03 0.16,-0.1 0.19,-0.19 0.03,-0.08 0.02,-0.17 -0.02,-0.24 0.05,-0.09 0.37,-0.4 1.04,-0.64 0.64,-0.23 1.09,-0.19 1.21,-0.14 0.02,0.08 0.07,0.15 0.14,0.19 0.08,0.05 0.17,0.06 0.26,0.03 l 0.16,-0.06 c 0.16,-0.06 0.24,-0.23 0.19,-0.38 -0.22,-0.64 -0.64,-1.24 -1.14,-1.67 -0.44,-0.37 -0.88,-0.56 -1.3,-0.55 m 0.9,1.01 c 0.25,0.22 0.48,0.49 0.67,0.8 -0.38,-0.04 -0.86,0.05 -1.29,0.2 -0.45,0.16 -0.84,0.37 -1.09,0.61 -0.04,-0.34 -0.03,-0.7 0.03,-1.01 0.09,-0.52 0.32,-0.87 0.61,-0.97 0.29,-0.1 0.68,0.04 1.08,0.37 z"
       id="path54" />
    <path
       class="cls-7"
       d="m 126.33,100.66 c 0.05,0.04 0.06,0.11 0.02,0.16 -0.04,0.05 -0.11,0.06 -0.16,0.02 -0.02,-0.01 -0.02,-0.03 -0.03,-0.05 -0.22,-0.05 -1.21,-0.26 -2.25,-0.36 0.01,0.02 0.03,0.03 0.04,0.05 0.03,0.07 0.02,0.15 0,0.23 l 2.63,0.49 v 0 c 0.04,-0.06 0.11,-0.07 0.16,-0.03 0.05,0.04 0.06,0.11 0.02,0.16 -0.04,0.05 -0.11,0.06 -0.16,0.02 -0.02,-0.02 -0.03,-0.04 -0.04,-0.07 l -2.64,-0.49 c 0,0 -0.02,0.04 -0.03,0.06 l 2.11,0.58 c 0,0 0.11,-0.06 0.16,-0.02 0.05,0.04 0.06,0.11 0.02,0.16 -0.04,0.05 -0.11,0.06 -0.16,0.02 -0.03,-0.02 -0.04,-0.05 -0.04,-0.08 l -2.13,-0.59 c 0,0 -0.03,0.05 -0.05,0.08 l 2.56,1 v 0 c 0.04,-0.05 0.11,-0.06 0.16,-0.02 0.05,0.04 0.06,0.11 0.02,0.16 -0.04,0.05 -0.11,0.06 -0.16,0.02 -0.02,-0.02 -0.03,-0.04 -0.04,-0.07 l -2.61,-1.02 -0.04,0.04 1.99,0.98 c 0,0 0.1,-0.04 0.14,0 0.05,0.04 0.06,0.11 0.02,0.16 -0.04,0.05 -0.11,0.06 -0.16,0.02 -0.03,-0.02 -0.04,-0.06 -0.04,-0.09 l -2.01,-0.99 c 0,0 -0.04,0.03 -0.06,0.05 l 2.45,1.52 c 0,0 0.08,-0.02 0.11,0 0.05,0.04 0.06,0.11 0.02,0.16 -0.04,0.05 -0.11,0.06 -0.16,0.02 -0.04,-0.03 -0.05,-0.08 -0.03,-0.12 l -2.46,-1.53 c 0,0 -0.04,0.03 -0.05,0.04 l 1.87,1.44 c 0,0 0.09,-0.03 0.13,0 0.05,0.04 0.06,0.11 0.02,0.16 -0.04,0.05 -0.11,0.06 -0.16,0.02 -0.03,-0.03 -0.04,-0.06 -0.04,-0.1 l -1.9,-1.46 c 0,0 -0.05,0.03 -0.07,0.05 l 2.15,1.98 c 0,0 0.08,-0.02 0.11,0 0.05,0.04 0.06,0.11 0.02,0.16 -0.04,0.05 -0.11,0.06 -0.16,0.02 -0.04,-0.03 -0.05,-0.08 -0.03,-0.12 l -2.17,-1.99 -0.03,0.02 1.6,1.81 c 0,0 0.09,-0.03 0.13,0 0.05,0.04 0.06,0.11 0.02,0.16 -0.04,0.05 -0.11,0.06 -0.16,0.02 -0.03,-0.03 -0.04,-0.06 -0.04,-0.1 l -1.62,-1.84 c 0,0 -0.03,0.02 -0.05,0.03 l 1.75,2.43 c 0,0 0.07,0 0.09,0.02 0.05,0.04 0.06,0.11 0.02,0.16 -0.04,0.05 -0.11,0.06 -0.16,0.02 -0.05,-0.04 -0.05,-0.1 -0.03,-0.15 l -1.76,-2.44 c 0,0 -0.05,0.03 -0.07,0.04 l 1.28,2.11 c 0,0 0.06,0 0.09,0.02 0.05,0.04 0.06,0.11 0.02,0.16 -0.04,0.05 -0.11,0.06 -0.16,0.02 -0.05,-0.04 -0.06,-0.11 -0.02,-0.16 l -1.29,-2.12 v 0 l 1.3,2.73 c 0,0 0.05,0 0.08,0.02 0.05,0.04 0.06,0.11 0.02,0.16 -0.04,0.05 -0.11,0.06 -0.16,0.02 -0.05,-0.04 -0.06,-0.11 -0.02,-0.16 v 0 l -1.3,-2.74 c 0,0 -0.03,0.01 -0.05,0.02 l 0.85,2.36 c 0,0 0.04,0 0.06,0.02 0.05,0.04 0.06,0.11 0.02,0.16 -0.04,0.05 -0.11,0.06 -0.16,0.02 -0.05,-0.04 -0.06,-0.11 -0.02,-0.16 0,0 0.01,0 0.01,0 l -0.85,-2.35 c 0,0 -0.06,0.02 -0.09,0.04 l 0.81,2.95 c 0,0 0.04,0 0.05,0.01 0.05,0.04 0.06,0.11 0.02,0.16 -0.04,0.05 -0.11,0.06 -0.16,0.02 -0.05,-0.04 -0.06,-0.11 -0.02,-0.16 0,0 0.02,0 0.02,-0.01 l -0.81,-2.93 v 0 l 0.41,2.51 c 0,0 0.01,0 0.02,0 0.05,0.04 0.06,0.11 0.02,0.16 -0.04,0.05 -0.11,0.06 -0.16,0.02 -0.05,-0.04 -0.06,-0.11 -0.02,-0.16 0.01,-0.02 0.03,-0.02 0.05,-0.03 l -0.4,-2.48 c 0,0 -0.04,0.01 -0.06,0.02 l 0.18,3.05 c 0,0 0.03,0 0.05,0.01 0.05,0.04 0.06,0.11 0.02,0.16 -0.04,0.05 -0.11,0.06 -0.16,0.02 -0.05,-0.04 -0.06,-0.11 -0.02,-0.16 0,0 0.02,0 0.02,-0.01 l -0.18,-3.04 c 0,0 -0.07,0.02 -0.1,0.03 l -0.04,2.45 c 0,0 0.02,0 0.02,0 0.05,0.04 0.06,0.11 0.02,0.16 -0.04,0.05 -0.11,0.06 -0.16,0.02 -0.05,-0.04 -0.06,-0.11 -0.02,-0.16 0.01,-0.02 0.03,-0.02 0.05,-0.03 l 0.04,-2.42 h -0.02 l -0.38,2.98 v 0 c 0.05,0.04 0.06,0.11 0.02,0.16 -0.04,0.05 -0.11,0.06 -0.16,0.02 -0.05,-0.04 -0.06,-0.11 -0.02,-0.16 0.02,-0.02 0.04,-0.03 0.07,-0.04 l 0.38,-2.94 -0.07,0.02 -0.54,2.39 c 0,0 0.05,0.1 0.02,0.15 -0.04,0.05 -0.11,0.06 -0.16,0.02 -0.05,-0.04 -0.06,-0.11 -0.02,-0.16 0.02,-0.03 0.05,-0.04 0.08,-0.04 l 0.52,-2.34 c 0,0 -0.09,0.01 -0.13,0.02 l -0.85,2.76 c 0,0 0.01,0 0.01,0 0.05,0.04 0.06,0.11 0.02,0.16 -0.04,0.05 -0.11,0.06 -0.16,0.02 -0.05,-0.04 -0.06,-0.11 -0.02,-0.16 0.01,-0.02 0.03,-0.02 0.05,-0.03 l 0.84,-2.74 h -0.04 l -0.89,2.08 v 0 c 0.05,0.04 0.06,0.11 0.02,0.16 -0.04,0.05 -0.11,0.06 -0.16,0.02 -0.05,-0.04 -0.06,-0.11 -0.02,-0.16 0.02,-0.02 0.04,-0.03 0.07,-0.04 l 0.88,-2.05 c 0,0 -0.05,0 -0.08,0 l -1.31,2.45 c 0,0 0.03,0.08 0,0.12 -0.04,0.05 -0.11,0.06 -0.16,0.02 -0.05,-0.04 -0.06,-0.11 -0.02,-0.16 0.03,-0.04 0.07,-0.04 0.11,-0.04 l 1.28,-2.39 c 0,0 -0.08,0 -0.12,0 l -1.17,1.76 c 0,0 0.04,0.09 0,0.14 -0.04,0.05 -0.11,0.06 -0.16,0.02 -0.05,-0.04 -0.06,-0.11 -0.02,-0.16 0.02,-0.03 0.06,-0.04 0.1,-0.04 l 1.14,-1.72 c 0,0 -0.08,0 -0.11,-0.01 l -1.61,2.02 c 0,0 0.04,0.09 0,0.13 -0.04,0.05 -0.11,0.06 -0.16,0.02 -0.05,-0.04 -0.06,-0.11 -0.02,-0.16 0.02,-0.03 0.06,-0.04 0.1,-0.04 l 1.59,-2 c 0,0 -0.09,-0.02 -0.13,-0.04 l -1.39,1.43 c 0,0 0.03,0.09 0,0.12 -0.04,0.05 -0.11,0.06 -0.16,0.02 -0.05,-0.04 -0.06,-0.11 -0.02,-0.16 0.03,-0.03 0.07,-0.04 0.11,-0.04 l 1.38,-1.43 c 0,0 -0.08,-0.05 -0.11,-0.07 l -1.86,1.68 c 0,0 0,0 0,0.01 0.02,0.06 -0.02,0.13 -0.08,0.14 -0.06,0.01 -0.13,-0.02 -0.14,-0.08 -0.02,-0.06 0.02,-0.13 0.08,-0.14 0.02,0 0.04,0 0.06,0 l 1.87,-1.69 c 0,0 -0.02,-0.03 -0.03,-0.04 -0.02,-0.06 -0.02,-0.12 -0.02,-0.18 -0.45,0.34 -0.99,0.77 -1.65,1.32 0,0.06 -0.02,0.11 -0.08,0.13 -0.06,0.02 -0.13,-0.02 -0.14,-0.08 -0.01,-0.06 0.02,-0.13 0.08,-0.14 0.03,-0.01 0.07,0 0.09,0.02 0.7,-0.59 1.27,-1.04 1.74,-1.39 0.17,-0.37 0.74,-0.81 1.51,-1.1 0.86,-0.33 1.67,-0.35 1.98,-0.1 1.05,0.09 2.08,0.3 2.33,0.36 0,0 0,-0.02 0,-0.02 0.04,-0.05 0.11,-0.06 0.16,-0.02 z"
       id="path55" />
    <g
       id="g60">
      <path
         class="cls-3"
         d="m 120.33,79.74 8.07,-7.28 c -5.49,1.87 -7.44,5.53 -8.07,7.28 z m 0.45,0.41 8.17,-7.37 c -0.38,1.85 -1.93,5.88 -8.17,7.37 z"
         id="path56" />
      <path
         class="cls-4"
         d="m 123.06,57.91 c -0.72,4.9 -2.9,14.18 -3.72,17.6 7.39,-8.23 4.87,-15.32 3.72,-17.6 z m -0.63,0.13 c -0.8,5.31 -3.22,15.41 -3.85,18.01 -0.75,-2.11 -2.65,-9.53 3.85,-18.01 z"
         id="path57" />
      <path
         class="cls-3"
         d="m 111.39,70.06 5.43,9.53 c -0.03,-1.81 -0.69,-5.99 -5.43,-9.53 z m -0.62,0.14 5.4,9.49 c -5.38,-3.35 -5.61,-7.61 -5.4,-9.49 z"
         id="path58" />
      <path
         class="cls-4"
         d="m 116.13,95.53 -11.48,3.99 c 7.86,0.84 10.63,-2.45 11.48,-3.99 z m -0.63,-0.42 -11.37,3.96 c 1.12,-1.37 4.3,-4.19 11.37,-3.96 z"
         id="path59" />
      <path
         class="cls-3"
         d="m 105.16,87.76 -2.58,10.7 c 1.44,-1.22 4.24,-4.5 2.58,-10.7 z m -0.57,-0.2 -2.55,10.56 c -0.98,-5.71 1.31,-9.17 2.55,-10.56 z"
         id="path60" />
    </g>
    <g
       id="g65">
      <path
         class="cls-3"
         d="m 44.49,79.74 -8.07,-7.28 c 5.49,1.87 7.44,5.53 8.07,7.28 z m -0.45,0.41 -8.17,-7.37 c 0.38,1.85 1.93,5.88 8.17,7.37 z"
         id="path61" />
      <path
         class="cls-4"
         d="m 41.76,57.91 c 0.72,4.9 2.9,14.18 3.72,17.6 -7.39,-8.23 -4.87,-15.32 -3.72,-17.6 z m 0.63,0.13 c 0.8,5.31 3.22,15.41 3.85,18.01 0.75,-2.11 2.65,-9.53 -3.85,-18.01 z"
         id="path62" />
      <path
         class="cls-3"
         d="M 53.43,70.06 48,79.59 c 0.03,-1.81 0.69,-5.99 5.43,-9.53 z m 0.62,0.14 -5.4,9.49 c 5.38,-3.35 5.61,-7.61 5.4,-9.49 z"
         id="path63" />
      <path
         class="cls-4"
         d="m 48.68,95.53 11.48,3.99 C 52.3,100.36 49.53,97.07 48.68,95.53 Z m 0.63,-0.42 11.37,3.96 C 59.56,97.7 56.38,94.88 49.31,95.11 Z"
         id="path64" />
      <path
         class="cls-3"
         d="m 59.66,87.76 2.58,10.7 C 60.8,97.24 58,93.96 59.66,87.76 Z m 0.57,-0.2 2.55,10.56 c 0.98,-5.71 -1.31,-9.17 -2.55,-10.56 z"
         id="path65" />
    </g>
    <path
       class="cls-3"
       d="m 112.98,52.35 c 0,0 -2.18,-5.46 -3.88,-14.91 0,0 -28.96,3.39 -53.19,-1.33 0,0 -0.97,10.18 -2.91,15.27 0,0 17.92,-3.39 22.28,0 0,0 1.18,18.66 -5.11,41.1 -1.34,4.8 -3.03,9.76 -5.14,14.76 0,0 5.62,-3.91 12.37,-6.95 4.98,-2.25 10.59,-4.03 15.01,-3.41 0,0 -5.97,-39.57 -2.94,-46.35 0,0 8.84,-2.67 23.5,1.82 z"
       id="path66" />
    <path
       class="cls-8"
       d="M 84.37,41.72 V 22.74 c 0,0 -1.17,0.23 -2.2,0.45 -1.03,0.22 -2.06,0.47 -2.06,0.47 V 41.72 H 57.74 v 4.25 h 22.37 v 60.36 c 0,0 1.92,0.44 2.13,0.44 0.21,0 2.13,-0.61 2.13,-0.61 V 45.97 h 22.44 v -4.25 z"
       id="path67" />
    <g
       id="g85">
      <path
         class="cls-2"
         d="m 83.96,41.54 -4.29,2.14 c -0.43,0.21 -0.6,0.73 -0.39,1.16 0.21,0.43 0.73,0.6 1.16,0.39 l 4.29,-2.14 c 0.43,-0.21 0.6,-0.73 0.39,-1.16 -0.21,-0.43 -0.73,-0.6 -1.16,-0.39 z"
         id="path68" />
      <path
         class="cls-5"
         d="m 84.49,43.53 0.45,-0.22 c 0.55,-0.27 0.77,-0.94 0.5,-1.49 -0.11,-0.21 -0.27,-0.38 -0.47,-0.48 0.47,-0.3 0.65,-0.91 0.4,-1.42 -0.27,-0.55 -0.94,-0.77 -1.49,-0.5 l -4.29,2.14 c -0.55,0.27 -0.77,0.94 -0.5,1.49 0.11,0.21 0.27,0.38 0.47,0.48 -0.47,0.3 -0.65,0.91 -0.4,1.42 0.19,0.39 0.58,0.61 0.99,0.61 l -0.44,8.85 -0.41,0.24 c -0.19,0.11 -0.33,0.29 -0.39,0.51 -0.06,0.22 -0.03,0.44 0.08,0.64 0.08,0.13 0.19,0.22 0.32,0.3 H 79.3 c -0.19,0.12 -0.33,0.3 -0.39,0.52 -0.06,0.22 -0.03,0.44 0.08,0.64 0.08,0.13 0.18,0.23 0.3,0.3 -0.19,0.11 -0.33,0.29 -0.39,0.51 -0.06,0.22 -0.03,0.44 0.08,0.64 0.11,0.19 0.28,0.32 0.49,0.38 l -0.24,4.84 -0.57,0.33 c -0.19,0.11 -0.33,0.29 -0.39,0.51 -0.06,0.22 -0.03,0.44 0.08,0.64 0.08,0.13 0.19,0.22 0.32,0.3 h -0.01 c -0.19,0.12 -0.33,0.3 -0.39,0.52 -0.06,0.22 -0.03,0.44 0.08,0.64 0.08,0.13 0.18,0.23 0.3,0.3 -0.19,0.11 -0.33,0.29 -0.39,0.51 -0.06,0.22 -0.03,0.44 0.08,0.64 0.11,0.19 0.29,0.33 0.51,0.39 0.04,0.01 0.09,0.01 0.13,0.02 l -0.23,4.65 -0.53,0.31 c -0.19,0.11 -0.33,0.29 -0.39,0.51 -0.06,0.22 -0.03,0.44 0.08,0.64 0.08,0.13 0.19,0.22 0.32,0.3 h -0.01 c -0.19,0.12 -0.33,0.3 -0.39,0.52 -0.06,0.22 -0.03,0.44 0.08,0.64 0.08,0.13 0.18,0.23 0.3,0.3 -0.19,0.11 -0.33,0.29 -0.39,0.51 -0.06,0.22 -0.03,0.44 0.08,0.64 0.11,0.19 0.29,0.33 0.51,0.39 0.03,0 0.06,0 0.09,0.01 l -0.18,3.73 c -0.03,0.61 0.44,1.13 1.05,1.16 0.61,0.03 1.13,-0.44 1.16,-1.05 l 0.24,-4.93 0.34,-0.2 c 0.19,-0.11 0.33,-0.29 0.39,-0.51 0.06,-0.22 0.03,-0.44 -0.08,-0.64 -0.08,-0.13 -0.18,-0.23 -0.31,-0.3 0.4,-0.23 0.54,-0.75 0.31,-1.15 -0.08,-0.13 -0.18,-0.23 -0.31,-0.3 v 0 c 0.19,-0.11 0.33,-0.29 0.39,-0.51 0.06,-0.22 0.03,-0.44 -0.08,-0.64 -0.1,-0.17 -0.25,-0.29 -0.42,-0.36 l 0.24,-4.83 0.3,-0.18 c 0.19,-0.11 0.33,-0.29 0.39,-0.51 0.06,-0.22 0.03,-0.44 -0.08,-0.64 -0.08,-0.13 -0.18,-0.23 -0.31,-0.3 0.4,-0.23 0.54,-0.75 0.31,-1.15 -0.08,-0.13 -0.18,-0.23 -0.31,-0.3 v 0 c 0.19,-0.11 0.33,-0.29 0.39,-0.51 0.06,-0.22 0.03,-0.44 -0.08,-0.64 -0.09,-0.16 -0.23,-0.28 -0.39,-0.34 l 0.24,-4.94 0.46,-0.26 c 0.19,-0.11 0.33,-0.29 0.39,-0.51 0.06,-0.22 0.03,-0.44 -0.08,-0.64 -0.08,-0.13 -0.18,-0.23 -0.31,-0.3 0.4,-0.23 0.54,-0.75 0.31,-1.15 -0.08,-0.13 -0.18,-0.23 -0.31,-0.3 v 0 c 0.19,-0.11 0.33,-0.29 0.39,-0.51 0.06,-0.22 0.03,-0.44 -0.08,-0.64 -0.12,-0.21 -0.32,-0.34 -0.53,-0.4 l 0.37,-7.53 1.05,30.33 c 0.02,0.61 0.54,1.09 1.15,1.07 0.61,-0.02 1.09,-0.54 1.07,-1.15 L 84.45,43.57 Z"
         id="path69" />
      <path
         class="cls-1"
         d="m 79.6,44.74 c -0.15,-0.31 -0.03,-0.69 0.28,-0.84 l 4.29,-2.14 c 0.31,-0.15 0.69,-0.03 0.84,0.28 0.15,0.31 0.03,0.69 -0.28,0.84 l -4.29,2.14 c -0.31,0.15 -0.69,0.03 -0.84,-0.28 z"
         id="path70" />
      <path
         class="cls-1"
         d="m 79.53,42.83 c 0.15,0.31 0.53,0.43 0.84,0.28 l 4.29,-2.14 c 0.31,-0.15 0.44,-0.53 0.28,-0.84 -0.16,-0.31 -0.53,-0.44 -0.84,-0.28 l -4.29,2.14 c -0.31,0.15 -0.44,0.53 -0.28,0.84 z"
         id="path71" />
      <path
         class="cls-1"
         d="m 81.77,53.81 c -0.07,0 -0.14,0.02 -0.2,0.05 l -2.07,1.19 c -0.1,0.05 -0.16,0.14 -0.19,0.25 -0.03,0.11 -0.01,0.22 0.04,0.31 0.05,0.1 0.14,0.16 0.25,0.19 0.11,0.03 0.22,0.01 0.31,-0.04 l 2.07,-1.19 c 0.2,-0.11 0.26,-0.36 0.15,-0.56 -0.08,-0.13 -0.21,-0.2 -0.36,-0.2 z"
         id="path72" />
      <path
         class="cls-1"
         d="m 81.77,55.25 c -0.07,0 -0.14,0.02 -0.2,0.05 l -2.07,1.19 c -0.1,0.05 -0.16,0.14 -0.19,0.25 -0.03,0.11 -0.01,0.22 0.04,0.31 0.05,0.09 0.14,0.16 0.25,0.19 0.11,0.03 0.22,0.01 0.31,-0.04 l 2.07,-1.19 c 0.2,-0.11 0.26,-0.36 0.15,-0.56 -0.08,-0.13 -0.21,-0.2 -0.36,-0.2 z"
         id="path73" />
      <path
         class="cls-1"
         d="m 81.77,56.7 c -0.07,0 -0.14,0.02 -0.2,0.05 l -2.07,1.19 c -0.1,0.05 -0.16,0.14 -0.19,0.25 -0.03,0.11 -0.01,0.22 0.04,0.31 0.05,0.09 0.14,0.16 0.25,0.19 0.11,0.03 0.22,0.01 0.31,-0.04 l 2.07,-1.19 c 0.2,-0.11 0.26,-0.36 0.15,-0.56 -0.08,-0.13 -0.21,-0.2 -0.36,-0.2 z"
         id="path74" />
      <path
         class="cls-1"
         d="m 81.19,63.38 c -0.07,0 -0.14,0.02 -0.2,0.05 l -2.07,1.19 c -0.1,0.05 -0.16,0.14 -0.19,0.25 -0.03,0.11 -0.01,0.22 0.04,0.31 0.05,0.1 0.14,0.16 0.25,0.19 0.11,0.03 0.22,0.01 0.31,-0.04 l 2.07,-1.19 c 0.2,-0.11 0.26,-0.36 0.15,-0.56 -0.08,-0.13 -0.21,-0.2 -0.36,-0.2 z"
         id="path75" />
      <path
         class="cls-1"
         d="m 81.19,64.82 c -0.07,0 -0.14,0.02 -0.2,0.05 l -2.07,1.19 c -0.1,0.05 -0.16,0.14 -0.19,0.25 -0.03,0.11 -0.01,0.22 0.04,0.31 0.05,0.09 0.14,0.16 0.25,0.19 0.11,0.03 0.22,0.01 0.31,-0.04 l 2.07,-1.19 c 0.2,-0.11 0.26,-0.36 0.15,-0.56 -0.08,-0.13 -0.21,-0.2 -0.36,-0.2 z"
         id="path76" />
      <path
         class="cls-1"
         d="m 81.19,66.27 c -0.07,0 -0.14,0.02 -0.2,0.05 l -2.07,1.19 c -0.1,0.05 -0.16,0.14 -0.19,0.25 -0.03,0.11 -0.01,0.22 0.04,0.31 0.05,0.09 0.14,0.16 0.25,0.19 0.11,0.03 0.22,0.01 0.31,-0.04 l 2.07,-1.19 c 0.2,-0.11 0.26,-0.36 0.15,-0.56 -0.08,-0.13 -0.21,-0.2 -0.36,-0.2 z"
         id="path77" />
      <path
         class="cls-1"
         d="m 80.71,72.82 c -0.07,0 -0.14,0.02 -0.2,0.05 l -2.07,1.19 c -0.1,0.05 -0.16,0.14 -0.19,0.25 -0.03,0.11 -0.01,0.22 0.04,0.31 0.05,0.1 0.14,0.16 0.25,0.19 0.11,0.03 0.22,0.01 0.31,-0.04 l 2.07,-1.19 c 0.2,-0.11 0.26,-0.36 0.15,-0.56 -0.08,-0.13 -0.21,-0.2 -0.36,-0.2 z"
         id="path78" />
      <path
         class="cls-1"
         d="m 80.71,74.26 c -0.07,0 -0.14,0.02 -0.2,0.05 l -2.07,1.19 c -0.1,0.05 -0.16,0.14 -0.19,0.25 -0.03,0.11 -0.01,0.22 0.04,0.31 0.05,0.09 0.14,0.16 0.25,0.19 0.11,0.03 0.22,0.01 0.31,-0.04 l 2.07,-1.19 c 0.2,-0.11 0.26,-0.36 0.15,-0.56 -0.08,-0.13 -0.21,-0.2 -0.36,-0.2 z"
         id="path79" />
      <path
         class="cls-1"
         d="m 80.71,75.71 c -0.07,0 -0.14,0.02 -0.2,0.05 l -2.07,1.19 c -0.1,0.05 -0.16,0.14 -0.19,0.25 -0.03,0.11 -0.01,0.22 0.04,0.31 0.05,0.09 0.14,0.16 0.25,0.19 0.11,0.03 0.22,0.01 0.31,-0.04 l 2.07,-1.19 c 0.2,-0.11 0.26,-0.36 0.15,-0.56 -0.08,-0.13 -0.21,-0.2 -0.36,-0.2 z"
         id="path80" />
      <g
         id="g84">
        <path
           class="cls-1"
           d="m 79.03,78.08 -0.19,3.8 c -0.02,0.34 0.25,0.64 0.59,0.66 0.34,0.02 0.64,-0.25 0.66,-0.59 l 0.23,-4.6 -1.23,0.71 c 0,0 -0.04,0.02 -0.06,0.03 z"
           id="path81" />
        <path
           class="cls-1"
           d="m 79.97,59.11 -0.22,4.55 1.03,-0.6 c 0.08,-0.05 0.17,-0.07 0.25,-0.09 l 0.23,-4.58 -1.11,0.64 c -0.06,0.03 -0.12,0.05 -0.18,0.07 z"
           id="path82" />
        <path
           class="cls-1"
           d="m 79.5,68.63 -0.22,4.48 1.05,-0.6 c 0.08,-0.04 0.16,-0.06 0.24,-0.08 l 0.22,-4.53 -1.24,0.71 c 0,0 -0.03,0.01 -0.05,0.02 z"
           id="path83" />
        <path
           class="cls-1"
           d="m 80.64,45.45 -0.43,8.71 1.16,-0.67 c 0,0 0.09,-0.03 0.13,-0.04 l 0.43,-8.63 -1.27,0.63 h -0.01 z"
           id="path84" />
      </g>
      <path
         class="cls-1"
         d="m 82.79,44.38 1.1,31.77 c 0.01,0.34 0.3,0.62 0.65,0.6 0.34,-0.01 0.62,-0.3 0.6,-0.65 L 84.02,43.77 Z"
         id="path85" />
    </g>
    <path
       class="cls-9"
       d="m 82.23,115.6 c -0.77,0 -1.34,-0.17 -1.79,-0.32 -0.1,-0.03 -0.2,-0.06 -0.3,-0.09 -0.26,-0.07 -4.01,-1.17 -5.11,-1.5 -0.8,-0.24 -2.2,-0.28 -2.67,-0.28 H 43.1 c -0.5,0 -0.91,-0.41 -0.91,-0.91 0,-0.5 0.41,-0.91 0.91,-0.91 h 29.25 c 0.07,0 1.98,-0.02 3.21,0.36 1.16,0.35 4.87,1.44 5.06,1.49 0.12,0.03 0.24,0.07 0.36,0.11 0.41,0.13 0.76,0.23 1.26,0.23 0.5,0 0.85,-0.11 1.25,-0.23 0.12,-0.04 0.24,-0.07 0.36,-0.11 0.2,-0.05 3.92,-1.14 5.06,-1.49 1.23,-0.38 3.15,-0.36 3.23,-0.36 h 29.24 c 0.5,0 0.91,0.41 0.91,0.91 0,0.5 -0.41,0.91 -0.91,0.91 H 92.13 c -0.49,0 -1.88,0.03 -2.68,0.28 -1.08,0.33 -4.84,1.43 -5.11,1.5 -0.1,0.03 -0.2,0.06 -0.31,0.09 -0.45,0.14 -1.02,0.31 -1.79,0.31 z"
       id="path86"
       style="fill:url(#linear-gradient)" />
  </g>
</svg>
