<?xml version="1.0" encoding="UTF-8" standalone="no"?>
<svg
   xmlns:dc="http://purl.org/dc/elements/1.1/"
   xmlns:cc="http://creativecommons.org/ns#"
   xmlns:rdf="http://www.w3.org/1999/02/22-rdf-syntax-ns#"
   xmlns:svg="http://www.w3.org/2000/svg"
   xmlns="http://www.w3.org/2000/svg"
   id="svg15831"
   version="1.1"
   viewBox="0 0 33.813362 58.300053"
   height="58.300053mm"
   width="33.813362mm">
  <defs
     id="defs15825">
    <clipPath
       clipPathUnits="userSpaceOnUse"
       id="clipPath15855">
      <path
         d="M 701.761,368.504 550.756,217.5 768.256,0 h 561.02 l 7.912,7.912 -360.593,360.592 z"
         id="path15853" />
    </clipPath>
    <clipPath
       clipPathUnits="userSpaceOnUse"
       id="clipPath16317">
      <path
         d="m 326.008,121.063 h 95.849 v 165.26 h -95.849 z"
         id="path16315" />
    </clipPath>
    <clipPath
       clipPathUnits="userSpaceOnUse"
       id="clipPath16739">
      <path
         d="m 1230.929,137.795 h 234.582 v 83.33 h -234.582 z"
         id="path16737" />
    </clipPath>
    <clipPath
       clipPathUnits="userSpaceOnUse"
       id="clipPath16843">
      <path
         d="M 0,0 H 1465.511 V 368.504 H 0 Z"
         id="path16841" />
    </clipPath>
  </defs>
  <metadata
     id="metadata15828">
    <rdf:RDF>
      <cc:Work
         rdf:about="">
        <dc:format>image/svg+xml</dc:format>
        <dc:type
           rdf:resource="http://purl.org/dc/dcmitype/StillImage" />
        <dc:title></dc:title>
      </cc:Work>
    </rdf:RDF>
  </metadata>
  <g
     transform="translate(-582.70376,252.19227)"
     id="layer1">
    <path
       id="path16309"
       style="fill:#30741f;fill-opacity:1;fill-rule:nonzero;stroke:none;stroke-width:0.35277778"
       d="m 599.09311,-236.24213 h -14.44273 v 14.71083 h 14.44273 z" />
    <g
       transform="matrix(0.35277777,0,0,-0.35277777,467.69538,-151.18388)"
       id="g16311">
      <g
         clip-path="url(#clipPath16317)"
         id="g16313">
        <g
           transform="translate(351.9972,225.4894)"
           id="g16319">
          <path
             id="path16321"
             style="fill:#ffe75e;fill-opacity:1;fill-rule:nonzero;stroke:none"
             d="M 0,0 C 0.86,0 1.556,0.685 1.556,1.53 1.556,2.375 0.86,3.059 0,3.059 -0.859,3.059 -1.556,2.375 -1.556,1.53 -1.556,0.685 -0.859,0 0,0 M 12.033,4.387 V -1.351 H 5.451 c -0.077,1.026 -0.948,1.836 -2.012,1.836 -1.115,0 -2.02,-0.889 -2.02,-1.985 0,-0.926 0.646,-1.701 1.519,-1.921 v -16.735 h -5.841 v 16.779 c 0.869,0.222 1.51,0.996 1.51,1.919 0,1.096 -0.904,1.984 -2.02,1.984 -1.079,0 -1.958,-0.831 -2.014,-1.877 h -6.58 v 5.738 h 6.583 c 0.085,-1.018 0.952,-1.82 2.011,-1.82 1.116,0 2.02,0.889 2.02,1.985 0,0.923 -0.641,1.696 -1.51,1.919 v 6.964 H 2.938 V 6.473 C 2.065,6.254 1.419,5.478 1.419,4.552 c 0,-1.096 0.905,-1.985 2.02,-1.985 1.059,0 1.927,0.802 2.012,1.82 z" />
        </g>
        <g
           transform="translate(375.3993,197.2258)"
           id="g16323">
          <path
             id="path16325"
             style="fill:#30741f;fill-opacity:1;fill-rule:nonzero;stroke:none"
             d="m 0,0 v -55.037 c 4.27,0.732 17.289,4.254 30.317,22.036 10.954,14.953 10.472,30.421 10.472,30.421 V 0 Z" />
        </g>
        <path
           id="path16327"
           style="fill:#00377a;fill-opacity:1;fill-rule:nonzero;stroke:none"
           d="m 375.421,241.11 h 40.939 v -41.7 h -40.939 z" />
        <g
           transform="translate(372.4657,197.2258)"
           id="g16329">
          <path
             id="path16331"
             style="fill:#00377a;fill-opacity:1;fill-rule:nonzero;stroke:none"
             d="m 0,0 v -55.037 c -4.27,0.732 -17.289,4.254 -30.317,22.036 C -41.272,-18.048 -40.79,-2.58 -40.79,-2.58 V 0 Z" />
        </g>
        <g
           transform="translate(407.5757,190.4849)"
           id="g16333">
          <path
             id="path16335"
             style="fill:#ffe75e;fill-opacity:1;fill-rule:nonzero;stroke:none"
             d="m 0,0 v -22.335 c 0,0 -4.689,1.399 -8.529,1.399 -2.017,0 -3.699,-0.429 -4.848,-0.835 -0.525,0.687 -1.605,1.171 -1.605,1.171 0,0 -1.124,-0.505 -1.637,-1.216 -1.209,0.419 -3.011,0.88 -5.104,0.88 -3.841,0 -8.306,-1.399 -8.306,-1.399 V 0 c 0,0 4.578,2.523 8.418,2.523 3.839,0 6.596,-2.523 6.596,-2.523 0,0 2.758,2.523 6.598,2.523 C -4.578,2.523 0,0 0,0 m -9.311,0.993 c -2.067,0 -3.771,-0.903 -4.767,-1.587 v -18.505 c 0.996,0.683 2.7,1.586 4.767,1.586 3.328,0 7.296,-1.388 7.296,-1.388 v 18.336 c 0,0 -3.968,1.558 -7.296,1.558 m -6.623,-1.617 c -0.988,0.687 -2.713,1.617 -4.812,1.617 -3.329,0 -7.295,-1.558 -7.295,-1.558 v -18.336 c 0,0 3.966,1.388 7.295,1.388 2.099,0 3.824,-0.93 4.812,-1.617 z" />
        </g>
        <g
           transform="translate(326.0079,144.1337)"
           id="g16337">
          <path
             id="path16339"
             style="fill:#ffe75e;fill-opacity:1;fill-rule:nonzero;stroke:none"
             d="m 0,0 c 0,0 2.036,0.013 3.61,0.925 1.423,0.826 2.26,1.565 2.26,1.565 0,0 -0.182,0.281 -1.978,4.165 -1.796,3.882 -0.763,6.616 -0.763,6.616 0,0 2.915,-9.49 15.911,-12.83 17.797,-4.574 19.017,-5.961 19.017,-5.961 l -1.463,-6.286 c 2.366,-0.401 7.113,-0.986 11.344,-0.986 3.494,0 8.249,0.57 11.306,1.084 l -1.452,6.188 c 0,0 1.221,1.387 19.017,5.961 12.996,3.34 15.912,12.83 15.912,12.83 0,0 1.033,-2.734 -0.765,-6.616 C 90.16,2.771 89.979,2.49 89.979,2.49 c 0,0 0.836,-0.739 2.261,-1.565 C 93.813,0.013 95.849,0 95.849,0 c 0,0 -6.606,-6.722 -12.746,-9.046 -4.189,-1.586 -12.232,-2.604 -17.738,-4.785 -1.07,-0.424 -3.192,-1.482 -3.192,-2.759 0,-0.407 0.326,-0.759 0.758,-0.76 1.712,-0.006 2.912,-1.019 2.912,-1.019 0.329,-0.271 0.538,-0.681 0.538,-1.141 0,-0.709 -0.555,-1.284 -1.218,-1.449 -2.815,-0.701 -9.481,-2.112 -17.236,-2.112 -7.755,0 -14.42,1.405 -17.236,2.108 -0.662,0.165 -1.218,0.739 -1.218,1.449 0,0.458 0.209,0.869 0.538,1.139 0,0 1.2,1.015 2.912,1.019 0.433,0.002 0.758,0.353 0.758,0.761 0,1.276 -2.122,2.335 -3.191,2.757 -5.507,2.183 -13.552,3.203 -17.741,4.789 C 6.609,-6.724 0,0 0,0" />
        </g>
        <g
           transform="translate(373.9375,265.0543)"
           id="g16341">
          <path
             id="path16343"
             style="fill:#ffe75e;fill-opacity:1;fill-rule:nonzero;stroke:none"
             d="M 0,0 C 1.717,0 3.109,1.391 3.109,3.109 3.109,4.826 1.717,6.217 0,6.217 -1.718,6.217 -3.109,4.826 -3.109,3.109 -3.109,1.391 -1.718,0 0,0 M 17.553,7.468 V -1.286 H 8.172 C 8.056,0.28 6.752,1.515 5.156,1.515 c -1.672,0 -3.027,-1.356 -3.027,-3.028 0,-1.412 0.967,-2.595 2.276,-2.93 v -10.728 h -8.753 v 10.795 c 1.301,0.339 2.263,1.519 2.263,2.927 0,1.672 -1.355,3.027 -3.027,3.027 -1.617,0 -2.935,-1.269 -3.02,-2.864 h -9.412 v 8.754 h 9.417 c 0.128,-1.554 1.427,-2.777 3.015,-2.777 1.672,0 3.027,1.356 3.027,3.028 0,1.407 -0.962,2.587 -2.263,2.926 V 21.269 H 4.405 V 10.648 C 3.096,10.314 2.129,9.131 2.129,7.719 c 0,-1.672 1.355,-3.028 3.027,-3.028 1.587,0 2.887,1.223 3.015,2.777 z" />
        </g>
        <g
           transform="translate(384.0026,180.428)"
           id="g16345">
          <path
             id="path16347"
             style="fill:#ffe75e;fill-opacity:1;fill-rule:nonzero;stroke:none"
             d="M 0,0 1.567,3.639 3.099,0 Z m -0.981,-2.862 0.69,1.926 h 3.688 l 0.671,-1.926 v -0.865 h 2.228 v 0.996 H 5.537 L 1.569,6.61 -2.361,-2.731 h -0.781 v -0.996 h 2.161 z" />
        </g>
        <g
           transform="translate(362.1713,177.7908)"
           id="g16349">
          <path
             id="path16351"
             style="fill:#ffe75e;fill-opacity:1;fill-rule:nonzero;stroke:none"
             d="M 0,0 0.816,-2.513 H 3.459 L 1.321,-4.066 2.138,-6.579 0,-5.027 l -2.137,-1.552 0.816,2.513 -2.138,1.552 2.643,10e-4 z" />
        </g>
        <g
           transform="translate(400.2234,218.499)"
           id="g16353">
          <path
             id="path16355"
             style="fill:#ffe75e;fill-opacity:1;fill-rule:nonzero;stroke:none"
             d="M 0,0 2.562,1.861 7.789,5.422 1.507,5.104 H -1.658 L -2.637,8.115 -4.342,14 -6.048,8.114 -7.026,5.104 h -3.166 l -6.224,0.318 5.171,-3.562 2.561,-1.86 -0.977,-3.011 -2.3,-5.977 5.058,3.973 2.561,1.86 2.561,-1.86 4.978,-4.08 -2.219,6.085 z M -4.347,19.987 -0.183,7.173 h 13.474 l -10.901,-7.92 4.164,-12.814 -10.901,7.919 -10.9,-7.92 4.163,12.815 -10.9,7.918 13.473,0.002 z" />
        </g>
        <g
           transform="translate(393.5075,167.8821)"
           id="g16357">
          <path
             id="path16359"
             style="fill:#ffe75e;fill-opacity:1;fill-rule:nonzero;stroke:none"
             d="M 0,0 -0.938,0.938 -1.877,0 -0.938,-0.938 Z" />
        </g>
        <g
           transform="translate(388.1194,246.7143)"
           id="g16361">
          <path
             id="path16363"
             style="fill:#ffe75e;fill-opacity:1;fill-rule:nonzero;stroke:none"
             d="M 0,0 C 0,-0.478 -0.264,-0.873 -0.627,-1.135 -0.769,-1.238 -0.938,-1.3 -1.1,-1.307 c -0.427,-0.058 -0.917,-0.091 -1.443,-0.091 -0.515,0 -0.998,0.032 -1.417,0.087 l 0.046,0.003 h -0.047 l 0.713,1.969 0.014,0.039 c 0.111,0.307 0.466,0.559 0.793,0.57 0.328,0.044 0.689,0.084 1.081,0.084 C -0.607,1.354 0,0.748 0,0" />
        </g>
        <g
           transform="translate(365.2326,245.2984)"
           id="g16365">
          <path
             id="path16367"
             style="fill:#ffe75e;fill-opacity:1;fill-rule:nonzero;stroke:none"
             d="M 0,0 H 0.046 L 0,-0.002 c 0.42,-0.056 0.903,-0.088 1.418,-0.088 0.524,0 1.017,0.033 1.442,0.091 0.326,0.014 0.675,0.264 0.786,0.569 l 0.52,1.438 C 4.167,2.01 4.168,2.012 4.168,2.014 L 4.372,2.578 H 4.335 L 4.375,2.58 C 3.955,2.636 3.471,2.668 2.957,2.668 2.434,2.668 1.944,2.635 1.519,2.577 1.191,2.567 0.838,2.315 0.727,2.008 L 0.713,1.968 V 1.97 Z" />
        </g>
        <g
           transform="translate(369.9844,245.2984)"
           id="g16369">
          <path
             id="path16371"
             style="fill:#ffe75e;fill-opacity:1;fill-rule:nonzero;stroke:none"
             d="M 0,0 H 0.046 L 0.001,-0.002 C 0.42,-0.058 0.903,-0.09 1.418,-0.09 c 0.525,0 1.017,0.033 1.443,0.091 0.325,0.014 0.675,0.264 0.785,0.569 l 0.52,1.438 C 4.168,2.01 4.168,2.012 4.169,2.014 L 4.372,2.578 H 4.336 L 4.375,2.58 C 3.955,2.636 3.471,2.668 2.957,2.668 2.434,2.668 1.944,2.635 1.52,2.577 1.192,2.567 0.839,2.315 0.727,2.008 L 0.713,1.968 V 1.97 Z" />
        </g>
        <g
           transform="translate(374.7359,245.2984)"
           id="g16373">
          <path
             id="path16375"
             style="fill:#ffe75e;fill-opacity:1;fill-rule:nonzero;stroke:none"
             d="M 0,0 H 0.046 L 0.001,-0.002 C 0.42,-0.058 0.904,-0.09 1.418,-0.09 c 0.525,0 1.017,0.033 1.443,0.091 0.326,0.014 0.675,0.264 0.786,0.569 L 4.166,2.008 C 4.168,2.01 4.168,2.012 4.169,2.014 L 4.373,2.578 H 4.336 L 4.375,2.58 C 3.955,2.636 3.471,2.668 2.957,2.668 2.435,2.668 1.944,2.635 1.52,2.577 1.192,2.567 0.839,2.315 0.727,2.008 L 0.713,1.968 V 1.97 Z" />
        </g>
        <g
           transform="translate(379.4877,245.2984)"
           id="g16377">
          <path
             id="path16379"
             style="fill:#ffe75e;fill-opacity:1;fill-rule:nonzero;stroke:none"
             d="M 0,0 H 0.046 L 0,-0.002 c 0.42,-0.056 0.904,-0.088 1.418,-0.088 0.525,0 1.017,0.033 1.443,0.091 0.326,0.014 0.675,0.264 0.786,0.569 l 0.52,1.438 C 4.168,2.01 4.168,2.012 4.169,2.014 L 4.373,2.578 H 4.336 L 4.375,2.58 C 3.955,2.636 3.473,2.668 2.957,2.668 2.435,2.668 1.944,2.635 1.52,2.577 1.192,2.567 0.839,2.315 0.727,2.008 L 0.713,1.968 V 1.97 Z" />
        </g>
        <g
           transform="translate(360.88,246.5683)"
           id="g16381">
          <path
             id="path16383"
             style="fill:#ffe75e;fill-opacity:1;fill-rule:nonzero;stroke:none"
             d="M 0,0 C 0,0.479 0.264,0.874 0.627,1.136 0.769,1.239 0.938,1.3 1.1,1.307 1.526,1.365 2.018,1.399 2.543,1.399 3.058,1.399 3.541,1.367 3.96,1.311 L 3.915,1.308 H 3.961 L 3.248,-0.661 V -0.66 L 3.234,-0.7 C 3.123,-1.007 2.769,-1.259 2.441,-1.269 2.113,-1.314 1.751,-1.354 1.36,-1.354 0.606,-1.354 0,-0.748 0,0" />
        </g>
        <g
           transform="translate(404.1708,182.0522)"
           id="g16385">
          <path
             id="path16387"
             style="fill:#ffe75e;fill-opacity:1;fill-rule:nonzero;stroke:none"
             d="M 0,0 C 0,2.783 -2.085,4.649 -4.568,4.649 -7.05,4.649 -9.135,2.783 -9.135,0 c 0,-1.981 1.299,-3.35 2.708,-4.026 v -0.502 c -0.157,0.013 -0.848,0.049 -0.94,0.055 -0.335,0.016 0.051,0.114 -0.91,0.114 V -5.354 H -5.5 v 1.993 c -1.363,0.468 -2.217,1.53 -2.217,3.29 0,2.135 1.284,3.524 3.144,3.524 1.862,0 3.145,-1.389 3.145,-3.524 0,-1.786 -0.908,-2.865 -2.306,-3.309 v -1.974 h 2.812 v 0.995 c -0.982,0 -0.591,-0.098 -0.924,-0.114 -0.096,-0.006 -0.797,-0.044 -0.962,-0.062 v 0.463 C -1.354,-3.413 0,-2.021 0,0" />
        </g>
        <g
           transform="translate(348.1798,195.6572)"
           id="g16389">
          <path
             id="path16391"
             style="fill:#ffe75e;fill-opacity:1;fill-rule:nonzero;stroke:none"
             d="m 0,0 1.373,-4.223 h 4.44 L 2.221,-6.834 3.593,-11.058 0,-8.447 l -3.593,-2.611 1.372,4.223 -3.592,2.612 h 4.44 z" />
        </g>
        <g
           transform="translate(363.7911,192.5462)"
           id="g16393">
          <path
             id="path16395"
             style="fill:#ffe75e;fill-opacity:1;fill-rule:nonzero;stroke:none"
             d="m 0,0 1.372,-4.224 h 4.441 l -3.592,-2.61 1.372,-4.223 -3.593,2.61 -3.593,-2.611 1.372,4.224 -3.592,2.61 h 4.44 z" />
        </g>
        <g
           transform="translate(344.5798,179.5335)"
           id="g16397">
          <path
             id="path16399"
             style="fill:#ffe75e;fill-opacity:1;fill-rule:nonzero;stroke:none"
             d="m 0,0 1.373,-4.223 h 4.44 L 2.221,-6.834 3.593,-11.057 0,-8.447 l -3.593,-2.611 1.372,4.224 -3.592,2.611 h 4.44 z" />
        </g>
        <g
           transform="translate(363.6729,161.9029)"
           id="g16401">
          <path
             id="path16403"
             style="fill:#ffe75e;fill-opacity:1;fill-rule:nonzero;stroke:none"
             d="M 0,0 1.372,-4.223 H 5.813 L 2.221,-6.835 3.593,-11.058 0,-8.448 l -3.593,-2.61 1.372,4.223 -3.593,2.61 h 4.441 z" />
        </g>
        <g
           transform="translate(355.8949,129.0714)"
           id="g16405">
          <path
             id="path16407"
             style="fill:#ffe75e;fill-opacity:1;fill-rule:nonzero;stroke:none"
             d="m 0,0 -0.734,-2.608 c 0.328,0.252 1.314,0.889 2.279,1.024 0.29,0.04 0.445,0.232 0.432,0.506 C 1.949,-0.463 0.85,-0.271 0,0" />
        </g>
        <g
           transform="translate(391.9756,129.0714)"
           id="g16409">
          <path
             id="path16411"
             style="fill:#ffe75e;fill-opacity:1;fill-rule:nonzero;stroke:none"
             d="m 0,0 0.735,-2.608 c -0.329,0.252 -1.314,0.889 -2.28,1.024 -0.29,0.04 -0.444,0.232 -0.432,0.506 C -1.949,-0.463 -0.849,-0.271 0,0" />
        </g>
        <g
           transform="translate(373.9375,266.5636)"
           id="g16413">
          <path
             id="path16415"
             style="fill:#ffe75e;fill-opacity:1;fill-rule:nonzero;stroke:none"
             d="M 0,0 C 0.883,0 1.598,0.716 1.598,1.599 1.598,2.483 0.883,3.198 0,3.198 -0.884,3.198 -1.6,2.483 -1.6,1.599 -1.6,0.716 -0.884,0 0,0 m -0.96,1.599 c 0,0.53 0.429,0.959 0.96,0.959 0.528,0 0.958,-0.429 0.958,-0.959 C 0.958,1.07 0.528,0.641 0,0.641 c -0.531,0 -0.96,0.429 -0.96,0.958" />
        </g>
        <g
           transform="translate(363.8335,276.8272)"
           id="g16417">
          <path
             id="path16419"
             style="fill:#ffe75e;fill-opacity:1;fill-rule:nonzero;stroke:none"
             d="m 0,0 c 0.795,0 1.439,0.645 1.439,1.439 0,0.796 -0.644,1.44 -1.439,1.44 -0.795,0 -1.439,-0.644 -1.439,-1.44 C -1.439,0.645 -0.795,0 0,0 m -0.863,1.439 c 0,0.477 0.386,0.864 0.863,0.864 0.477,0 0.863,-0.387 0.863,-0.864 C 0.863,0.963 0.477,0.576 0,0.576 c -0.477,0 -0.863,0.387 -0.863,0.863" />
        </g>
        <g
           transform="translate(366.638,279.2955)"
           id="g16421">
          <path
             id="path16423"
             style="fill:#ffe75e;fill-opacity:1;fill-rule:nonzero;stroke:none"
             d="M 0,0 C 0.764,-0.221 1.561,0.219 1.783,0.983 2.003,1.746 1.563,2.544 0.799,2.765 0.036,2.986 -0.762,2.546 -0.983,1.782 -1.203,1.019 -0.764,0.221 0,0 m -0.429,1.622 c 0.132,0.459 0.61,0.722 1.068,0.59 C 1.097,2.079 1.361,1.601 1.229,1.143 1.097,0.685 0.617,0.421 0.16,0.554 -0.298,0.686 -0.562,1.165 -0.429,1.622" />
        </g>
        <g
           transform="translate(361.8325,273.7008)"
           id="g16425">
          <path
             id="path16427"
             style="fill:#ffe75e;fill-opacity:1;fill-rule:nonzero;stroke:none"
             d="M 0,0 C 0.764,0.22 1.205,1.017 0.986,1.781 0.766,2.545 -0.032,2.986 -0.796,2.767 -1.559,2.547 -2,1.749 -1.781,0.986 -1.561,0.221 -0.764,-0.22 0,0 M -1.227,1.145 C -1.359,1.603 -1.094,2.081 -0.636,2.213 -0.178,2.344 0.3,2.08 0.432,1.622 0.563,1.163 0.299,0.685 -0.159,0.554 -0.617,0.422 -1.095,0.687 -1.227,1.145" />
        </g>
        <g
           transform="translate(368.1244,279.106)"
           id="g16429">
          <path
             id="path16431"
             style="fill:#ffe75e;fill-opacity:1;fill-rule:nonzero;stroke:none"
             d="m 0,0 c -2.227,-1.168 -3.968,-2.916 -5.135,-5.144 h 1.075 c 0.997,1.719 2.342,3.065 4.06,4.065 z" />
        </g>
        <g
           transform="translate(368.1244,284.3168)"
           id="g16433">
          <path
             id="path16435"
             style="fill:#ffe75e;fill-opacity:1;fill-rule:nonzero;stroke:none"
             d="m 0,0 c -4.748,-1.738 -8.615,-5.605 -10.348,-10.355 h 0.997 c 1.647,4.251 5.103,7.709 9.351,9.36 z" />
        </g>
        <g
           transform="translate(363.4941,277.2507)"
           id="g16437">
          <path
             id="path16439"
             style="fill:#ffe75e;fill-opacity:1;fill-rule:nonzero;stroke:none"
             d="M 0,0 C 0.146,0.193 0.106,0.468 -0.088,0.614 -0.281,0.759 -0.556,0.719 -0.701,0.526 l -1.282,-1.71 c -0.145,-0.194 -0.105,-0.468 0.088,-0.614 0.194,-0.145 0.468,-0.105 0.614,0.088 z" />
        </g>
        <g
           transform="translate(366.4614,279.8144)"
           id="g16441">
          <path
             id="path16443"
             style="fill:#ffe75e;fill-opacity:1;fill-rule:nonzero;stroke:none"
             d="m 0,0 c 0.193,0.145 0.233,0.42 0.088,0.614 -0.146,0.193 -0.42,0.233 -0.614,0.087 l -1.71,-1.282 C -2.429,-0.725 -2.469,-1 -2.324,-1.194 c 0.146,-0.194 0.421,-0.233 0.615,-0.088 z" />
        </g>
        <g
           transform="translate(382.6011,278.2666)"
           id="g16445">
          <path
             id="path16447"
             style="fill:#ffe75e;fill-opacity:1;fill-rule:nonzero;stroke:none"
             d="m 0,0 c 0,-0.795 0.645,-1.439 1.439,-1.439 0.796,0 1.44,0.644 1.44,1.439 0,0.795 -0.644,1.439 -1.44,1.439 C 0.645,1.439 0,0.795 0,0 m 1.439,0.863 c 0.477,0 0.863,-0.386 0.863,-0.863 0,-0.477 -0.386,-0.863 -0.863,-0.863 -0.476,0 -0.863,0.386 -0.863,0.863 0,0.477 0.387,0.863 0.863,0.863" />
        </g>
        <g
           transform="translate(385.0688,275.4619)"
           id="g16449">
          <path
             id="path16451"
             style="fill:#ffe75e;fill-opacity:1;fill-rule:nonzero;stroke:none"
             d="m 0,0 c -0.22,-0.764 0.219,-1.562 0.983,-1.782 0.763,-0.221 1.562,0.219 1.784,0.983 0.22,0.763 -0.22,1.561 -0.984,1.782 C 1.02,1.204 0.221,0.764 0,0 m 1.623,0.429 c 0.458,-0.132 0.721,-0.61 0.589,-1.068 -0.133,-0.458 -0.61,-0.722 -1.069,-0.59 -0.458,0.132 -0.721,0.611 -0.59,1.069 0.133,0.458 0.612,0.722 1.07,0.589" />
        </g>
        <g
           transform="translate(379.4747,280.2673)"
           id="g16453">
          <path
             id="path16455"
             style="fill:#ffe75e;fill-opacity:1;fill-rule:nonzero;stroke:none"
             d="M 0,0 C 0.219,-0.764 1.017,-1.205 1.781,-0.986 2.545,-0.766 2.986,0.032 2.767,0.795 2.547,1.559 1.75,2 0.986,1.781 0.221,1.561 -0.22,0.764 0,0 M 1.145,1.227 C 1.603,1.359 2.081,1.094 2.213,0.636 2.344,0.178 2.081,-0.3 1.622,-0.432 1.163,-0.564 0.685,-0.299 0.553,0.159 0.422,0.617 0.686,1.095 1.145,1.227" />
        </g>
        <g
           transform="translate(384.8793,273.9756)"
           id="g16457">
          <path
             id="path16459"
             style="fill:#ffe75e;fill-opacity:1;fill-rule:nonzero;stroke:none"
             d="M 0,0 C -1.167,2.227 -2.916,3.968 -5.144,5.134 V 4.059 C -3.424,3.063 -2.078,1.717 -1.079,0 Z" />
        </g>
        <g
           transform="translate(390.0907,273.9756)"
           id="g16461">
          <path
             id="path16463"
             style="fill:#ffe75e;fill-opacity:1;fill-rule:nonzero;stroke:none"
             d="M 0,0 C -1.738,4.747 -5.605,8.615 -10.355,10.348 V 9.351 C -6.104,7.704 -2.646,4.248 -0.995,0 Z" />
        </g>
        <g
           transform="translate(383.024,278.6055)"
           id="g16465">
          <path
             id="path16467"
             style="fill:#ffe75e;fill-opacity:1;fill-rule:nonzero;stroke:none"
             d="M 0,0 C 0.194,-0.145 0.469,-0.106 0.614,0.089 0.759,0.281 0.721,0.556 0.526,0.702 L -1.183,1.983 C -1.378,2.128 -1.652,2.089 -1.797,1.896 -1.942,1.702 -1.903,1.427 -1.709,1.282 Z" />
        </g>
        <g
           transform="translate(385.5877,275.6384)"
           id="g16469">
          <path
             id="path16471"
             style="fill:#ffe75e;fill-opacity:1;fill-rule:nonzero;stroke:none"
             d="M 0,0 C 0.146,-0.193 0.42,-0.233 0.614,-0.087 0.808,0.058 0.847,0.332 0.701,0.526 L -0.58,2.236 C -0.725,2.429 -1,2.469 -1.194,2.323 -1.387,2.178 -1.427,1.903 -1.282,1.709 Z" />
        </g>
        <g
           transform="translate(384.0405,259.4987)"
           id="g16473">
          <path
             id="path16475"
             style="fill:#ffe75e;fill-opacity:1;fill-rule:nonzero;stroke:none"
             d="m 0,0 c -0.795,0 -1.439,-0.645 -1.439,-1.439 0,-0.796 0.644,-1.44 1.439,-1.44 0.795,0 1.439,0.644 1.439,1.44 C 1.439,-0.645 0.795,0 0,0 m 0.863,-1.439 c 0,-0.477 -0.387,-0.864 -0.863,-0.864 -0.476,0 -0.864,0.387 -0.864,0.864 0,0.476 0.388,0.863 0.864,0.863 0.476,0 0.863,-0.387 0.863,-0.863" />
        </g>
        <g
           transform="translate(381.2363,257.0304)"
           id="g16477">
          <path
             id="path16479"
             style="fill:#ffe75e;fill-opacity:1;fill-rule:nonzero;stroke:none"
             d="m 0,0 c -0.764,0.221 -1.561,-0.219 -1.783,-0.983 -0.22,-0.763 0.219,-1.562 0.984,-1.782 0.762,-0.221 1.561,0.219 1.781,0.983 C 1.202,-1.018 0.763,-0.221 0,0 m 0.429,-1.622 c -0.133,-0.458 -0.612,-0.722 -1.069,-0.59 -0.458,0.133 -0.722,0.611 -0.589,1.069 0.132,0.458 0.61,0.722 1.068,0.589 0.458,-0.132 0.723,-0.611 0.59,-1.068" />
        </g>
        <g
           transform="translate(386.0403,262.6251)"
           id="g16481">
          <path
             id="path16483"
             style="fill:#ffe75e;fill-opacity:1;fill-rule:nonzero;stroke:none"
             d="m 0,0 c -0.763,-0.219 -1.205,-1.017 -0.984,-1.781 0.219,-0.764 1.016,-1.205 1.78,-0.986 0.764,0.22 1.205,1.018 0.986,1.781 C 1.563,-0.221 0.764,0.22 0,0 M 1.227,-1.145 C 1.359,-1.603 1.095,-2.081 0.638,-2.213 0.179,-2.344 -0.3,-2.08 -0.431,-1.621 c -0.132,0.458 0.134,0.936 0.591,1.067 0.459,0.132 0.936,-0.133 1.067,-0.591" />
        </g>
        <g
           transform="translate(379.7496,257.22)"
           id="g16485">
          <path
             id="path16487"
             style="fill:#ffe75e;fill-opacity:1;fill-rule:nonzero;stroke:none"
             d="M 0,0 C 2.227,1.168 3.968,2.916 5.135,5.144 H 4.06 C 3.063,3.425 1.717,2.079 0,1.079 Z" />
        </g>
        <g
           transform="translate(379.7496,252.009)"
           id="g16489">
          <path
             id="path16491"
             style="fill:#ffe75e;fill-opacity:1;fill-rule:nonzero;stroke:none"
             d="M 0,0 C 4.747,1.738 8.615,5.605 10.349,10.355 H 9.351 C 7.704,6.105 4.248,2.646 0,0.995 Z" />
        </g>
        <g
           transform="translate(384.3793,259.0752)"
           id="g16493">
          <path
             id="path16495"
             style="fill:#ffe75e;fill-opacity:1;fill-rule:nonzero;stroke:none"
             d="m 0,0 c -0.146,-0.193 -0.106,-0.468 0.088,-0.614 0.194,-0.145 0.469,-0.105 0.613,0.088 l 1.282,1.71 C 2.128,1.378 2.088,1.653 1.896,1.797 1.703,1.943 1.427,1.903 1.282,1.71 Z" />
        </g>
        <g
           transform="translate(381.4129,256.5118)"
           id="g16497">
          <path
             id="path16499"
             style="fill:#ffe75e;fill-opacity:1;fill-rule:nonzero;stroke:none"
             d="m 0,0 c -0.194,-0.146 -0.234,-0.42 -0.088,-0.614 0.145,-0.194 0.42,-0.233 0.614,-0.088 L 2.235,0.58 C 2.429,0.726 2.467,1 2.323,1.194 2.178,1.388 1.903,1.427 1.708,1.282 Z" />
        </g>
        <g
           transform="translate(365.2726,258.0593)"
           id="g16501">
          <path
             id="path16503"
             style="fill:#ffe75e;fill-opacity:1;fill-rule:nonzero;stroke:none"
             d="m 0,0 c 0,0.795 -0.645,1.439 -1.439,1.439 -0.796,0 -1.44,-0.644 -1.44,-1.439 0,-0.795 0.644,-1.439 1.44,-1.439 C -0.645,-1.439 0,-0.795 0,0 m -1.439,-0.863 c -0.477,0 -0.864,0.386 -0.864,0.863 0,0.477 0.387,0.863 0.864,0.863 0.476,0 0.863,-0.386 0.863,-0.863 0,-0.477 -0.387,-0.863 -0.863,-0.863" />
        </g>
        <g
           transform="translate(362.8046,260.8641)"
           id="g16505">
          <path
             id="path16507"
             style="fill:#ffe75e;fill-opacity:1;fill-rule:nonzero;stroke:none"
             d="M 0,0 C 0.221,0.764 -0.219,1.562 -0.983,1.782 -1.746,2.003 -2.545,1.563 -2.765,0.799 -2.986,0.036 -2.546,-0.762 -1.783,-0.983 -1.019,-1.203 -0.221,-0.764 0,0 m -1.623,-0.429 c -0.458,0.132 -0.721,0.611 -0.589,1.069 0.133,0.457 0.611,0.721 1.069,0.589 0.458,-0.132 0.722,-0.611 0.589,-1.069 -0.132,-0.458 -0.611,-0.722 -1.069,-0.589" />
        </g>
        <g
           transform="translate(368.3993,256.0589)"
           id="g16509">
          <path
             id="path16511"
             style="fill:#ffe75e;fill-opacity:1;fill-rule:nonzero;stroke:none"
             d="M 0,0 C -0.22,0.764 -1.017,1.205 -1.781,0.986 -2.545,0.766 -2.986,-0.032 -2.767,-0.796 -2.547,-1.559 -1.749,-2 -0.986,-1.781 -0.221,-1.561 0.219,-0.764 0,0 m -1.145,-1.227 c -0.458,-0.132 -0.936,0.133 -1.068,0.591 -0.131,0.458 0.133,0.936 0.591,1.067 0.458,0.133 0.936,-0.132 1.068,-0.591 0.132,-0.457 -0.133,-0.935 -0.591,-1.067" />
        </g>
        <g
           transform="translate(362.9938,262.3506)"
           id="g16513">
          <path
             id="path16515"
             style="fill:#ffe75e;fill-opacity:1;fill-rule:nonzero;stroke:none"
             d="M 0,0 C 1.168,-2.227 2.915,-3.968 5.144,-5.135 V -4.06 C 3.425,-3.063 2.079,-1.718 1.08,0 Z" />
        </g>
        <g
           transform="translate(357.7829,262.3506)"
           id="g16517">
          <path
             id="path16519"
             style="fill:#ffe75e;fill-opacity:1;fill-rule:nonzero;stroke:none"
             d="m 0,0 c 1.738,-4.748 5.605,-8.616 10.355,-10.348 v 0.997 C 6.104,-7.704 2.646,-4.248 0.995,0 Z" />
        </g>
        <g
           transform="translate(364.8491,257.7205)"
           id="g16521">
          <path
             id="path16523"
             style="fill:#ffe75e;fill-opacity:1;fill-rule:nonzero;stroke:none"
             d="m 0,0 c -0.194,0.145 -0.468,0.106 -0.614,-0.089 -0.145,-0.192 -0.105,-0.467 0.088,-0.613 l 1.71,-1.281 c 0.194,-0.145 0.469,-0.106 0.614,0.087 0.145,0.195 0.105,0.469 -0.088,0.614 z" />
        </g>
        <g
           transform="translate(362.2854,260.6875)"
           id="g16525">
          <path
             id="path16527"
             style="fill:#ffe75e;fill-opacity:1;fill-rule:nonzero;stroke:none"
             d="m 0,0 c -0.145,0.193 -0.42,0.233 -0.613,0.088 -0.194,-0.146 -0.234,-0.42 -0.088,-0.614 l 1.282,-1.71 c 0.145,-0.193 0.42,-0.232 0.613,-0.087 0.194,0.145 0.233,0.42 0.088,0.614 z" />
        </g>
        <g
           transform="translate(359.7258,268.8276)"
           id="g16529">
          <path
             id="path16531"
             style="fill:#00377a;fill-opacity:1;fill-rule:nonzero;stroke:none"
             d="M 0,0 C -0.377,0.855 -0.451,1.592 -0.14,1.772 0.172,1.953 0.774,1.522 1.328,0.769 1.1,0.674 0.868,0.562 0.638,0.429 0.408,0.296 0.195,0.151 0,0 M 2.582,0.055 C 3.51,-0.057 4.181,-0.369 4.177,-0.729 4.173,-1.089 3.496,-1.387 2.565,-1.479 2.6,-1.234 2.622,-0.978 2.625,-0.713 2.628,-0.446 2.612,-0.19 2.582,0.055 M 1.251,-2.196 C 0.709,-2.958 0.115,-3.399 -0.2,-3.223 c -0.314,0.175 -0.253,0.913 0.11,1.774 0.199,-0.147 0.413,-0.289 0.646,-0.418 0.231,-0.13 0.465,-0.238 0.695,-0.329 m -0.783,1.474 0.572,0.394 0.631,0.299 0.093,-0.689 -0.095,-0.7 -0.649,0.292 z M 3.004,1.011 C 2.713,1.06 2.472,1.066 2.272,1.04 2.19,1.255 2.037,1.494 1.785,1.76 0.96,2.637 -0.948,2.836 -0.948,2.836 c 0,0 -0.549,-1.838 -0.058,-2.937 0.1,-0.224 0.206,-0.402 0.315,-0.544 -0.152,-0.173 -0.29,-0.42 -0.407,-0.766 -0.386,-1.141 0.334,-2.919 0.334,-2.919 0,0 1.88,0.378 2.62,1.327 0.183,0.235 0.303,0.445 0.374,0.636 0.208,-0.034 0.462,-0.03 0.774,0.023 1.187,0.201 2.411,1.677 2.411,1.677 0,0 -1.224,1.476 -2.411,1.678" />
        </g>
        <g
           transform="translate(374.5653,282.3479)"
           id="g16533">
          <path
             id="path16535"
             style="fill:#00377a;fill-opacity:1;fill-rule:nonzero;stroke:none"
             d="M 0,0 C 0.855,0.377 1.591,0.451 1.771,0.139 1.953,-0.172 1.521,-0.773 0.769,-1.328 0.674,-1.1 0.563,-0.868 0.429,-0.638 0.295,-0.408 0.15,-0.195 0,0 m 0.055,-2.582 c -0.112,-0.928 -0.424,-1.599 -0.785,-1.595 -0.36,0.004 -0.657,0.682 -0.75,1.612 0.246,-0.035 0.502,-0.057 0.767,-0.06 0.265,-0.003 0.523,0.013 0.768,0.043 m -2.251,1.331 c -0.762,0.542 -1.203,1.136 -1.028,1.451 0.175,0.315 0.913,0.253 1.775,-0.11 -0.147,-0.198 -0.29,-0.413 -0.419,-0.645 -0.129,-0.232 -0.237,-0.466 -0.328,-0.696 m 1.474,0.783 0.395,-0.572 0.297,-0.631 -0.689,-0.093 -0.699,0.095 0.292,0.649 z m 3.557,1.416 c 0,0 -1.837,0.55 -2.937,0.058 -0.224,-0.1 -0.401,-0.206 -0.543,-0.315 -0.173,0.151 -0.42,0.29 -0.767,0.407 -1.14,0.386 -2.918,-0.333 -2.918,-0.333 0,0 0.378,-1.88 1.327,-2.621 0.235,-0.183 0.445,-0.302 0.635,-0.374 -0.033,-0.208 -0.03,-0.462 0.023,-0.774 0.201,-1.186 1.678,-2.411 1.678,-2.411 0,0 1.476,1.225 1.678,2.411 0.049,0.291 0.054,0.532 0.028,0.732 0.215,0.082 0.455,0.236 0.721,0.487 0.876,0.825 1.075,2.733 1.075,2.733" />
        </g>
        <g
           transform="translate(388.0851,267.509)"
           id="g16537">
          <path
             id="path16539"
             style="fill:#00377a;fill-opacity:1;fill-rule:nonzero;stroke:none"
             d="m 0,0 c 0.378,-0.855 0.451,-1.592 0.14,-1.772 -0.312,-0.181 -0.913,0.25 -1.468,1.003 0.228,0.095 0.459,0.207 0.69,0.34 C -0.408,-0.296 -0.195,-0.151 0,0 M -2.582,-0.055 C -3.51,0.057 -4.181,0.369 -4.177,0.73 -4.173,1.089 -3.495,1.387 -2.565,1.479 -2.6,1.234 -2.622,0.978 -2.625,0.713 -2.628,0.446 -2.611,0.19 -2.582,-0.055 M -1.25,2.196 C -0.708,2.958 -0.115,3.399 0.2,3.223 0.514,3.048 0.452,2.31 0.09,1.449 -0.108,1.597 -0.323,1.738 -0.556,1.868 -0.788,1.997 -1.02,2.105 -1.25,2.196 M -0.468,0.722 -1.04,0.327 -1.672,0.029 -1.764,0.718 -1.669,1.418 -1.02,1.126 Z M 0.691,0.645 c 0.152,0.173 0.29,0.42 0.407,0.766 0.386,1.141 -0.334,2.919 -0.334,2.919 0,0 -1.88,-0.378 -2.619,-1.327 C -2.039,2.768 -2.159,2.557 -2.23,2.368 -2.438,2.401 -2.692,2.398 -3.003,2.344 -4.19,2.144 -5.415,0.667 -5.415,0.667 c 0,0 1.225,-1.476 2.412,-1.678 0.291,-0.049 0.532,-0.055 0.732,-0.029 0.081,-0.215 0.235,-0.454 0.486,-0.72 0.825,-0.877 2.733,-1.076 2.733,-1.076 0,0 0.55,1.838 0.058,2.937 -0.1,0.224 -0.207,0.402 -0.315,0.544" />
        </g>
        <g
           transform="translate(373.2456,253.9886)"
           id="g16541">
          <path
             id="path16543"
             style="fill:#00377a;fill-opacity:1;fill-rule:nonzero;stroke:none"
             d="m 0,0 c -0.855,-0.377 -1.591,-0.451 -1.771,-0.139 -0.181,0.311 0.25,0.912 1.003,1.467 C -0.674,1.1 -0.562,0.868 -0.429,0.638 -0.295,0.408 -0.15,0.195 0,0 M -0.055,2.582 C 0.058,3.51 0.369,4.181 0.73,4.177 1.09,4.173 1.387,3.496 1.479,2.565 1.236,2.6 0.978,2.622 0.713,2.625 0.446,2.628 0.19,2.612 -0.055,2.582 M 2.196,1.251 C 2.958,0.709 3.399,0.115 3.223,-0.2 3.048,-0.515 2.312,-0.453 1.45,-0.09 1.597,0.109 1.739,0.323 1.868,0.555 1.997,0.787 2.105,1.021 2.196,1.251 M 0.722,0.468 0.328,1.04 0.03,1.671 0.719,1.764 1.418,1.669 1.126,1.02 Z M 3.003,1.856 C 2.768,2.039 2.558,2.159 2.368,2.23 2.401,2.438 2.398,2.692 2.344,3.004 2.144,4.191 0.668,5.415 0.668,5.415 c 0,0 -1.477,-1.224 -1.679,-2.411 C -1.06,2.713 -1.065,2.472 -1.038,2.272 -1.254,2.19 -1.493,2.036 -1.76,1.785 -2.635,0.96 -2.835,-0.948 -2.835,-0.948 c 0,0 1.838,-0.549 2.937,-0.058 0.224,0.1 0.403,0.206 0.543,0.315 0.174,-0.151 0.421,-0.29 0.767,-0.407 1.14,-0.386 2.919,0.333 2.919,0.333 0,0 -0.379,1.881 -1.328,2.621" />
        </g>
        <g
           transform="translate(333.6853,144.2628)"
           id="g16545">
          <path
             id="path16547"
             style="fill:#00377a;fill-opacity:1;fill-rule:nonzero;stroke:none"
             d="M 0,0 C -0.526,-0.792 -0.53,-2.241 0.338,-2.818 1.205,-3.396 2.542,-2.833 3.068,-2.041 3.632,-1.194 3.561,0.084 2.666,0.68 1.77,1.276 0.564,0.847 0,0 M -1.083,0.661 C -0.109,2.125 1.808,2.702 3.336,1.687 4.862,0.67 5.07,-1.32 4.096,-2.785 3.098,-4.284 1.196,-4.84 -0.332,-3.826 c -1.527,1.017 -1.749,2.987 -0.751,4.487" />
        </g>
        <g
           transform="translate(343.5977,140.2905)"
           id="g16549">
          <path
             id="path16551"
             style="fill:#00377a;fill-opacity:1;fill-rule:nonzero;stroke:none"
             d="m 0,0 -0.015,0.006 -2.789,-3.189 -0.395,0.156 0.178,4.215 -0.015,0.006 -1.95,-3.43 -1.149,0.453 3.35,5.623 0.808,-0.318 -0.074,-4.427 2.9,3.315 0.823,-0.324 -1.486,-6.356 -1.149,0.453 z" />
        </g>
        <g
           transform="translate(347.1557,141.7987)"
           id="g16553">
          <path
             id="path16555"
             style="fill:#00377a;fill-opacity:1;fill-rule:nonzero;stroke:none"
             d="M 0,0 0.861,-0.201 3.087,-5.236 3.104,-5.24 4.066,-1.121 5.26,-1.399 3.801,-7.648 2.94,-7.447 0.714,-2.412 0.698,-2.407 -0.274,-6.568 -1.468,-6.289 Z" />
        </g>
        <g
           transform="translate(353.7739,133.3802)"
           id="g16557">
          <path
             id="path16559"
             style="fill:#00377a;fill-opacity:1;fill-rule:nonzero;stroke:none"
             d="M 0,0 -1.171,0.364 0.692,6.373 1.863,6.009 Z" />
        </g>
        <g
           transform="translate(359.0337,136.4521)"
           id="g16561">
          <path
             id="path16563"
             style="fill:#00377a;fill-opacity:1;fill-rule:nonzero;stroke:none"
             d="m 0,0 -0.016,0.005 -1.438,-1.907 1.401,-0.515 z m -2.128,-2.72 -0.944,-1.066 -1.213,0.445 4.529,5.215 0.893,-0.328 0.012,-6.884 -1.23,0.452 0.004,1.411 z" />
        </g>
        <g
           transform="translate(396.3377,134.9878)"
           id="g16565">
          <path
             id="path16567"
             style="fill:#00377a;fill-opacity:1;fill-rule:nonzero;stroke:none"
             d="M 0,0 0.192,0.055 C 1.644,0.466 1.98,1.427 1.642,2.622 1.27,3.938 0.403,4.43 -0.937,4.051 L -1.13,3.996 Z m -2.599,4.69 1.684,0.477 C 0.835,5.66 2.376,4.684 2.864,2.958 3.345,1.257 2.513,-0.399 0.787,-0.886 L -0.89,-1.36 Z" />
        </g>
        <g
           transform="translate(401.4402,140.6661)"
           id="g16569">
          <path
             id="path16571"
             style="fill:#00377a;fill-opacity:1;fill-rule:nonzero;stroke:none"
             d="M 0,0 0.332,-1.345 2.227,-0.876 2.483,-1.913 0.588,-2.381 0.997,-4.034 2.964,-3.547 3.22,-4.584 0.062,-5.364 -1.447,0.743 1.712,1.522 1.968,0.486 Z" />
        </g>
        <g
           transform="translate(406.5758,140.1744)"
           id="g16573">
          <path
             id="path16575"
             style="fill:#00377a;fill-opacity:1;fill-rule:nonzero;stroke:none"
             d="M 0,0 C 0.382,-0.871 1.601,-1.656 2.555,-1.237 3.509,-0.819 3.756,0.61 3.374,1.481 2.967,2.414 1.852,3.044 0.866,2.611 -0.118,2.179 -0.409,0.931 0,0 M -1.141,-0.554 C -1.848,1.057 -1.3,2.982 0.38,3.719 2.06,4.456 3.849,3.555 4.555,1.944 5.279,0.295 4.721,-1.607 3.041,-2.344 c -1.68,-0.737 -3.458,0.139 -4.182,1.79" />
        </g>
        <g
           transform="translate(367.6606,126.9686)"
           id="g16577">
          <path
             id="path16579"
             style="fill:#00377a;fill-opacity:1;fill-rule:nonzero;stroke:none"
             d="M 0,0 0.249,-0.029 C 0.969,-0.113 1.377,0 1.471,0.812 1.564,1.615 1.114,1.785 0.435,1.863 L 0.219,1.889 Z m -0.389,-3.347 -1.217,0.143 0.725,6.245 1.657,-0.192 C 2.085,2.696 2.878,2.076 2.713,0.659 2.559,-0.666 1.763,-1.228 0.487,-1.08 l -0.604,0.069 z" />
        </g>
        <g
           transform="translate(373.1982,126.4841)"
           id="g16581">
          <path
             id="path16583"
             style="fill:#00377a;fill-opacity:1;fill-rule:nonzero;stroke:none"
             d="M 0,0 0.159,-0.006 C 0.834,-0.026 1.315,0.159 1.34,0.926 1.364,1.701 0.876,1.867 0.226,1.887 L 0.059,1.892 Z M 2.921,-3.489 1.437,-3.443 -0.01,-0.86 -0.026,-0.859 -0.105,-3.394 -1.331,-3.356 -1.136,2.931 0.523,2.88 C 1.766,2.841 2.608,2.264 2.566,0.922 2.541,0.121 2.074,-0.666 1.227,-0.782 Z" />
        </g>
        <g
           transform="translate(378.598,126.4628)"
           id="g16585">
          <path
             id="path16587"
             style="fill:#00377a;fill-opacity:1;fill-rule:nonzero;stroke:none"
             d="m 0,0 c 0.104,-0.946 1.033,-2.059 2.07,-1.945 1.036,0.114 1.7,1.405 1.595,2.35 C 3.553,1.417 2.677,2.353 1.607,2.235 0.538,2.116 -0.112,1.012 0,0 M -1.256,-0.189 C -1.449,1.561 -0.349,3.235 1.475,3.437 3.299,3.638 4.738,2.245 4.931,0.495 5.129,-1.296 4.027,-2.946 2.202,-3.147 0.378,-3.349 -1.057,-1.98 -1.256,-0.189" />
        </g>
        <g
           transform="translate(352.5084,236.7007)"
           id="g16589">
          <path
             id="path16591"
             style="fill:#30741f;fill-opacity:1;fill-rule:nonzero;stroke:none"
             d="M 0,0 C 0.57,0.252 1.061,0.301 1.181,0.093 1.301,-0.115 1.014,-0.516 0.513,-0.884 0.449,-0.733 0.375,-0.579 0.286,-0.425 0.197,-0.272 0.101,-0.13 0,0 m 0.037,-1.72 c -0.075,-0.619 -0.283,-1.066 -0.523,-1.064 -0.24,0.004 -0.438,0.455 -0.5,1.075 0.163,-0.023 0.334,-0.038 0.511,-0.04 0.177,-0.002 0.348,0.009 0.512,0.029 m -1.5,0.887 c -0.508,0.36 -0.802,0.757 -0.685,0.966 0.117,0.21 0.608,0.169 1.182,-0.073 -0.098,-0.132 -0.193,-0.275 -0.279,-0.43 -0.086,-0.155 -0.158,-0.31 -0.218,-0.463 m 0.982,0.521 0.263,-0.381 0.199,-0.421 -0.46,-0.062 -0.466,0.064 0.195,0.432 z M 1.89,0.632 c 0,0 -1.225,0.366 -1.957,0.038 C -0.217,0.604 -0.335,0.533 -0.43,0.46 -0.545,0.562 -0.71,0.654 -0.941,0.732 -1.701,0.989 -2.885,0.51 -2.885,0.51 c 0,0 0.251,-1.254 0.884,-1.747 0.156,-0.122 0.297,-0.201 0.423,-0.249 -0.022,-0.138 -0.02,-0.308 0.016,-0.516 0.134,-0.791 1.117,-1.606 1.117,-1.606 0,0 0.984,0.815 1.118,1.606 0.034,0.194 0.037,0.355 0.02,0.488 0.143,0.055 0.302,0.157 0.48,0.325 0.584,0.55 0.717,1.821 0.717,1.821" />
        </g>
        <g
           transform="translate(342.0842,227.5699)"
           id="g16593">
          <path
             id="path16595"
             style="fill:#30741f;fill-opacity:1;fill-rule:nonzero;stroke:none"
             d="M 0,0 C -0.252,0.57 -0.301,1.061 -0.093,1.181 0.114,1.302 0.516,1.014 0.884,0.513 0.733,0.449 0.578,0.375 0.425,0.286 0.272,0.197 0.13,0.101 0,0 m 1.72,0.037 c 0.619,-0.075 1.066,-0.283 1.064,-0.523 -0.004,-0.24 -0.455,-0.438 -1.075,-0.5 0.024,0.163 0.038,0.334 0.04,0.511 0.002,0.177 -0.009,0.348 -0.029,0.512 m -0.887,-1.5 c -0.36,-0.508 -0.757,-0.801 -0.966,-0.685 -0.21,0.117 -0.169,0.608 0.073,1.182 0.132,-0.098 0.275,-0.192 0.429,-0.279 0.156,-0.086 0.311,-0.158 0.464,-0.218 m -0.521,0.982 0.381,0.263 0.421,0.199 0.062,-0.46 L 1.112,-0.944 0.68,-0.75 Z M -0.632,1.89 c 0,0 -0.366,-1.225 -0.038,-1.957 0.066,-0.15 0.137,-0.268 0.21,-0.362 -0.102,-0.116 -0.194,-0.281 -0.272,-0.511 -0.257,-0.761 0.222,-1.945 0.222,-1.945 0,0 1.254,0.251 1.747,0.885 0.122,0.155 0.201,0.296 0.249,0.422 0.138,-0.022 0.308,-0.02 0.516,0.016 0.791,0.134 1.606,1.118 1.606,1.118 0,0 -0.815,0.984 -1.606,1.117 C 1.808,0.707 1.647,0.71 1.513,0.693 1.459,0.836 1.357,0.996 1.189,1.173 0.639,1.757 -0.632,1.89 -0.632,1.89" />
        </g>
        <g
           transform="translate(351.5127,217.3371)"
           id="g16597">
          <path
             id="path16599"
             style="fill:#30741f;fill-opacity:1;fill-rule:nonzero;stroke:none"
             d="m 0,0 c -0.57,-0.252 -1.061,-0.301 -1.181,-0.093 -0.12,0.208 0.167,0.609 0.668,0.978 0.064,-0.152 0.138,-0.306 0.227,-0.46 C -0.197,0.272 -0.101,0.13 0,0 M -0.037,1.72 C 0.038,2.339 0.246,2.786 0.486,2.783 0.726,2.78 0.924,2.329 0.986,1.709 0.822,1.732 0.652,1.748 0.475,1.749 0.298,1.751 0.127,1.74 -0.037,1.72 m 1.5,-0.887 C 1.971,0.473 2.265,0.076 2.148,-0.133 2.031,-0.343 1.54,-0.302 0.966,-0.06 1.064,0.072 1.159,0.215 1.245,0.37 1.331,0.525 1.403,0.68 1.463,0.833 M 0.481,0.312 0.218,0.693 0.019,1.114 0.479,1.176 0.945,1.112 0.75,0.68 Z M -1.89,-0.632 c 0,0 1.225,-0.366 1.957,-0.038 0.15,0.066 0.268,0.137 0.362,0.21 0.116,-0.102 0.281,-0.194 0.512,-0.272 0.76,-0.257 1.944,0.222 1.944,0.222 0,0 -0.251,1.254 -0.884,1.747 C 1.845,1.359 1.704,1.438 1.578,1.486 1.6,1.624 1.598,1.794 1.562,2.002 1.428,2.793 0.444,3.608 0.444,3.608 c 0,0 -0.983,-0.815 -1.117,-1.606 C -0.707,1.808 -0.71,1.647 -0.693,1.514 -0.836,1.459 -0.995,1.357 -1.173,1.189 -1.757,0.639 -1.89,-0.632 -1.89,-0.632" />
        </g>
        <g
           transform="translate(351.5127,212.447)"
           id="g16601">
          <path
             id="path16603"
             style="fill:#30741f;fill-opacity:1;fill-rule:nonzero;stroke:none"
             d="m 0,0 c -0.57,-0.252 -1.061,-0.301 -1.181,-0.093 -0.12,0.208 0.167,0.609 0.668,0.978 0.064,-0.152 0.138,-0.306 0.227,-0.46 C -0.197,0.272 -0.101,0.13 0,0 M -0.037,1.72 C 0.432,2.19 0.246,2.786 0.486,2.784 0.726,2.781 0.924,2.329 0.986,1.709 0.822,1.733 0.652,1.747 0.475,1.749 0.298,1.751 0.127,1.741 -0.037,1.72 m 1.5,-0.887 C 1.971,0.473 2.265,0.076 2.148,-0.133 2.031,-0.343 1.54,-0.301 0.966,-0.06 1.064,0.072 1.159,0.215 1.245,0.37 1.331,0.525 1.403,0.681 1.463,0.833 M 0.481,0.312 0.218,0.694 0.019,1.114 0.479,1.176 0.945,1.112 0.75,0.68 Z M -1.89,-0.632 c 0,0 1.225,-0.366 1.957,-0.038 0.15,0.066 0.268,0.137 0.362,0.21 0.116,-0.101 0.281,-0.194 0.512,-0.272 0.76,-0.257 1.944,0.223 1.944,0.223 0,0 -0.251,1.253 -0.884,1.746 C 1.845,1.359 1.704,1.439 1.578,1.486 1.6,1.625 1.598,1.794 1.562,2.002 1.428,2.793 0.444,3.608 0.444,3.608 c 0,0 -0.983,-0.815 -1.117,-1.606 C -0.707,1.808 -0.71,1.647 -0.693,1.514 -0.836,1.46 -0.995,1.357 -1.173,1.19 -1.757,0.64 -1.89,-0.632 -1.89,-0.632" />
        </g>
        <g
           transform="translate(351.5127,207.5572)"
           id="g16605">
          <path
             id="path16607"
             style="fill:#30741f;fill-opacity:1;fill-rule:nonzero;stroke:none"
             d="m 0,0 c -0.57,-0.252 -1.061,-0.301 -1.181,-0.093 -0.12,0.208 0.167,0.609 0.668,0.978 0.064,-0.152 0.138,-0.306 0.227,-0.46 C -0.197,0.272 -0.101,0.13 0,0 M -0.037,1.72 C 0.038,2.339 0.246,2.786 0.486,2.784 0.726,2.78 0.924,2.329 0.986,1.709 0.822,1.733 0.652,1.748 0.475,1.749 0.298,1.751 0.127,1.74 -0.037,1.72 m 1.5,-0.887 C 1.971,0.473 2.265,0.076 2.148,-0.133 2.031,-0.343 1.54,-0.301 0.966,-0.06 1.064,0.072 1.159,0.215 1.245,0.37 1.331,0.525 1.403,0.681 1.463,0.833 M 0.481,0.312 0.218,0.694 0.019,1.114 0.479,1.176 0.945,1.112 0.75,0.68 Z M -1.89,-0.632 c 0,0 1.225,-0.366 1.957,-0.038 0.15,0.066 0.268,0.137 0.362,0.21 0.116,-0.101 0.281,-0.194 0.512,-0.272 0.76,-0.257 1.944,0.223 1.944,0.223 0,0 -0.251,1.253 -0.884,1.746 C 1.845,1.359 1.704,1.439 1.578,1.486 1.6,1.625 1.598,1.794 1.562,2.002 1.428,2.793 0.444,3.608 0.444,3.608 c 0,0 -0.983,-0.815 -1.117,-1.606 C -0.707,1.808 -0.71,1.647 -0.693,1.514 -0.836,1.46 -0.995,1.357 -1.173,1.189 -1.757,0.639 -1.89,-0.632 -1.89,-0.632" />
        </g>
        <g
           transform="translate(361.6699,226.5745)"
           id="g16609">
          <path
             id="path16611"
             style="fill:#30741f;fill-opacity:1;fill-rule:nonzero;stroke:none"
             d="m 0,0 c 0.251,-0.57 0.301,-1.061 0.093,-1.181 -0.208,-0.121 -0.609,0.167 -0.978,0.668 0.152,0.064 0.306,0.138 0.46,0.227 C -0.272,-0.197 -0.13,-0.101 0,0 m -1.72,-0.037 c -0.619,0.075 -1.066,0.283 -1.064,0.523 0.003,0.24 0.455,0.438 1.075,0.5 C -1.733,0.823 -1.747,0.652 -1.749,0.475 -1.751,0.297 -1.741,0.126 -1.72,-0.037 m 0.887,1.5 c 0.36,0.508 0.757,0.802 0.966,0.685 C 0.343,2.031 0.301,1.54 0.06,0.966 -0.072,1.064 -0.215,1.159 -0.37,1.244 -0.525,1.331 -0.681,1.403 -0.833,1.463 M -0.312,0.481 -0.693,0.218 -1.114,0.019 -1.176,0.479 -1.112,0.944 -0.68,0.75 Z M 0.632,-1.89 c 0,0 0.366,1.225 0.038,1.957 C 0.604,0.217 0.533,0.335 0.46,0.429 0.561,0.545 0.654,0.71 0.732,0.941 0.989,1.7 0.51,2.885 0.51,2.885 c 0,0 -1.254,-0.251 -1.747,-0.884 C -1.359,1.845 -1.439,1.704 -1.486,1.578 -1.625,1.6 -1.794,1.598 -2.002,1.562 -2.793,1.428 -3.608,0.445 -3.608,0.445 c 0,0 0.815,-0.984 1.606,-1.118 0.194,-0.034 0.355,-0.037 0.488,-0.02 0.055,-0.143 0.157,-0.303 0.325,-0.48 0.55,-0.584 1.821,-0.717 1.821,-0.717" />
        </g>
        <path
           id="path16613"
           style="fill:#ffe75e;fill-opacity:1;fill-rule:nonzero;stroke:none"
           d="m 356.404,203.812 h -8.787 v -2.195 h 8.787 z" />
        <g
           transform="translate(345.0961,232.9396)"
           id="g16615">
          <path
             id="path16617"
             style="fill:#ffe75e;fill-opacity:1;fill-rule:nonzero;stroke:none"
             d="M 0,0 C 0.543,0 0.983,0.44 0.983,0.983 0.983,1.526 0.543,1.966 0,1.966 -0.543,1.966 -0.983,1.526 -0.983,0.983 -0.983,0.44 -0.543,0 0,0 m -0.59,0.983 c 0,0.326 0.264,0.59 0.59,0.59 0.326,0 0.59,-0.264 0.59,-0.59 C 0.59,0.658 0.326,0.394 0,0.394 c -0.326,0 -0.59,0.264 -0.59,0.589" />
        </g>
        <g
           transform="translate(347.0117,234.6257)"
           id="g16619">
          <path
             id="path16621"
             style="fill:#ffe75e;fill-opacity:1;fill-rule:nonzero;stroke:none"
             d="M 0,0 C 0.522,-0.151 1.066,0.15 1.217,0.671 1.368,1.193 1.068,1.738 0.546,1.889 0.025,2.039 -0.52,1.739 -0.671,1.217 -0.822,0.696 -0.522,0.15 0,0 M -0.293,1.108 C -0.203,1.421 0.124,1.601 0.437,1.51 0.749,1.42 0.93,1.093 0.839,0.781 0.749,0.468 0.422,0.288 0.109,0.378 c -0.312,0.09 -0.493,0.417 -0.402,0.73" />
        </g>
        <g
           transform="translate(343.7295,230.8042)"
           id="g16623">
          <path
             id="path16625"
             style="fill:#ffe75e;fill-opacity:1;fill-rule:nonzero;stroke:none"
             d="M 0,0 C 0.522,0.15 0.823,0.695 0.673,1.216 0.523,1.738 -0.021,2.039 -0.543,1.889 -1.065,1.74 -1.367,1.195 -1.216,0.673 -1.066,0.152 -0.522,-0.15 0,0 m -0.838,0.782 c -0.09,0.313 0.091,0.639 0.404,0.73 0.312,0.089 0.639,-0.091 0.729,-0.404 0.09,-0.313 -0.091,-0.64 -0.404,-0.73 -0.313,-0.09 -0.639,0.091 -0.729,0.404" />
        </g>
        <g
           transform="translate(348.027,234.496)"
           id="g16627">
          <path
             id="path16629"
             style="fill:#ffe75e;fill-opacity:1;fill-rule:nonzero;stroke:none"
             d="m 0,0 c -1.521,-0.798 -2.71,-1.991 -3.507,-3.513 h 0.734 c 0.681,1.174 1.6,2.094 2.773,2.776 z" />
        </g>
        <g
           transform="translate(348.027,238.0554)"
           id="g16631">
          <path
             id="path16633"
             style="fill:#ffe75e;fill-opacity:1;fill-rule:nonzero;stroke:none"
             d="m 0,0 c -3.243,-1.188 -5.884,-3.829 -7.068,-7.073 h 0.681 C -5.262,-4.17 -2.902,-1.808 0,-0.68 Z" />
        </g>
        <g
           transform="translate(344.8644,233.2289)"
           id="g16635">
          <path
             id="path16637"
             style="fill:#ffe75e;fill-opacity:1;fill-rule:nonzero;stroke:none"
             d="m 0,0 c 0.099,0.132 0.072,0.32 -0.06,0.419 -0.132,0.099 -0.32,0.073 -0.419,-0.06 l -0.875,-1.168 c -0.099,-0.132 -0.073,-0.32 0.06,-0.419 0.132,-0.099 0.32,-0.072 0.419,0.06 z" />
        </g>
        <g
           transform="translate(346.8908,234.9799)"
           id="g16639">
          <path
             id="path16641"
             style="fill:#ffe75e;fill-opacity:1;fill-rule:nonzero;stroke:none"
             d="m 0,0 c 0.132,0.099 0.16,0.287 0.06,0.419 -0.099,0.132 -0.287,0.16 -0.419,0.06 l -1.168,-0.875 c -0.132,-0.1 -0.159,-0.287 -0.06,-0.42 0.1,-0.132 0.287,-0.159 0.419,-0.059 z" />
        </g>
        <g
           transform="translate(357.915,233.9229)"
           id="g16643">
          <path
             id="path16645"
             style="fill:#ffe75e;fill-opacity:1;fill-rule:nonzero;stroke:none"
             d="m 0,0 c 0,-0.543 0.44,-0.983 0.983,-0.983 0.543,0 0.983,0.44 0.983,0.983 0,0.543 -0.44,0.983 -0.983,0.983 C 0.44,0.983 0,0.543 0,0 m 0.983,0.59 c 0.326,0 0.59,-0.264 0.59,-0.59 0,-0.326 -0.264,-0.59 -0.59,-0.59 -0.325,0 -0.589,0.264 -0.589,0.59 0,0.326 0.264,0.59 0.589,0.59" />
        </g>
        <g
           transform="translate(359.6008,232.0072)"
           id="g16647">
          <path
             id="path16649"
             style="fill:#ffe75e;fill-opacity:1;fill-rule:nonzero;stroke:none"
             d="M 0,0 C -0.151,-0.522 0.15,-1.067 0.671,-1.217 1.193,-1.368 1.738,-1.068 1.889,-0.546 2.04,-0.025 1.739,0.52 1.217,0.671 0.696,0.822 0.151,0.522 0,0 M 1.108,0.293 C 1.421,0.203 1.601,-0.124 1.511,-0.437 1.42,-0.75 1.093,-0.93 0.781,-0.839 c -0.313,0.09 -0.493,0.417 -0.403,0.729 0.09,0.313 0.418,0.493 0.73,0.403" />
        </g>
        <g
           transform="translate(355.7796,235.2891)"
           id="g16651">
          <path
             id="path16653"
             style="fill:#ffe75e;fill-opacity:1;fill-rule:nonzero;stroke:none"
             d="M 0,0 C 0.15,-0.522 0.695,-0.823 1.216,-0.673 1.738,-0.523 2.039,0.022 1.889,0.543 1.74,1.065 1.195,1.367 0.673,1.217 0.152,1.066 -0.15,0.522 0,0 m 0.782,0.838 c 0.313,0.09 0.639,-0.091 0.73,-0.403 0.089,-0.313 -0.091,-0.639 -0.404,-0.73 -0.313,-0.09 -0.64,0.091 -0.73,0.404 -0.09,0.313 0.091,0.64 0.404,0.729" />
        </g>
        <g
           transform="translate(359.4715,230.9919)"
           id="g16655">
          <path
             id="path16657"
             style="fill:#ffe75e;fill-opacity:1;fill-rule:nonzero;stroke:none"
             d="M 0,0 C -0.798,1.521 -1.991,2.71 -3.513,3.507 V 2.773 C -2.339,2.092 -1.419,1.173 -0.737,0 Z" />
        </g>
        <g
           transform="translate(363.0308,230.9919)"
           id="g16659">
          <path
             id="path16661"
             style="fill:#ffe75e;fill-opacity:1;fill-rule:nonzero;stroke:none"
             d="M 0,0 C -1.188,3.243 -3.829,5.884 -7.073,7.068 V 6.387 C -4.17,5.262 -1.808,2.901 -0.68,0 Z" />
        </g>
        <g
           transform="translate(358.2041,234.1545)"
           id="g16663">
          <path
             id="path16665"
             style="fill:#ffe75e;fill-opacity:1;fill-rule:nonzero;stroke:none"
             d="m 0,0 c 0.133,-0.099 0.32,-0.073 0.419,0.06 0.1,0.132 0.073,0.32 -0.06,0.419 L -0.809,1.354 C -0.941,1.453 -1.128,1.427 -1.228,1.294 -1.327,1.162 -1.3,0.974 -1.168,0.875 Z" />
        </g>
        <g
           transform="translate(359.9554,232.1278)"
           id="g16667">
          <path
             id="path16669"
             style="fill:#ffe75e;fill-opacity:1;fill-rule:nonzero;stroke:none"
             d="m 0,0 c 0.099,-0.132 0.287,-0.159 0.419,-0.06 0.132,0.099 0.159,0.287 0.06,0.419 l -0.875,1.168 c -0.1,0.132 -0.288,0.159 -0.42,0.06 C -0.948,1.488 -0.975,1.3 -0.876,1.168 Z" />
        </g>
        <g
           transform="translate(358.898,221.1036)"
           id="g16671">
          <path
             id="path16673"
             style="fill:#ffe75e;fill-opacity:1;fill-rule:nonzero;stroke:none"
             d="m 0,0 c -0.543,0 -0.983,-0.44 -0.983,-0.983 0,-0.543 0.44,-0.983 0.983,-0.983 0.543,0 0.983,0.44 0.983,0.983 C 0.983,-0.44 0.543,0 0,0 m 0.59,-0.983 c 0,-0.325 -0.264,-0.589 -0.59,-0.589 -0.326,0 -0.59,0.264 -0.59,0.589 0,0.326 0.264,0.59 0.59,0.59 0.326,0 0.59,-0.264 0.59,-0.59" />
        </g>
        <g
           transform="translate(356.9823,219.4181)"
           id="g16675">
          <path
             id="path16677"
             style="fill:#ffe75e;fill-opacity:1;fill-rule:nonzero;stroke:none"
             d="m 0,0 c -0.521,0.151 -1.066,-0.15 -1.217,-0.671 -0.151,-0.522 0.149,-1.067 0.671,-1.218 0.521,-0.151 1.066,0.15 1.217,0.672 C 0.822,-0.696 0.522,-0.151 0,0 m 0.293,-1.108 c -0.09,-0.313 -0.417,-0.493 -0.73,-0.403 -0.313,0.09 -0.493,0.417 -0.402,0.73 0.091,0.313 0.417,0.493 0.73,0.403 0.312,-0.09 0.493,-0.418 0.402,-0.73" />
        </g>
        <g
           transform="translate(360.2646,223.2393)"
           id="g16679">
          <path
             id="path16681"
             style="fill:#ffe75e;fill-opacity:1;fill-rule:nonzero;stroke:none"
             d="m 0,0 c -0.522,-0.15 -0.823,-0.695 -0.673,-1.216 0.15,-0.522 0.695,-0.823 1.216,-0.673 0.522,0.149 0.824,0.694 0.673,1.216 C 1.066,-0.152 0.522,0.15 0,0 m 0.838,-0.782 c 0.09,-0.313 -0.091,-0.639 -0.404,-0.73 -0.313,-0.089 -0.639,0.091 -0.729,0.404 -0.09,0.313 0.091,0.64 0.404,0.73 0.313,0.089 0.639,-0.091 0.729,-0.404" />
        </g>
        <g
           transform="translate(355.9674,219.5475)"
           id="g16683">
          <path
             id="path16685"
             style="fill:#ffe75e;fill-opacity:1;fill-rule:nonzero;stroke:none"
             d="M 0,0 C 1.521,0.798 2.71,1.991 3.507,3.513 H 2.773 C 2.092,2.339 1.173,1.419 0,0.737 Z" />
        </g>
        <g
           transform="translate(355.9674,215.9881)"
           id="g16687">
          <path
             id="path16689"
             style="fill:#ffe75e;fill-opacity:1;fill-rule:nonzero;stroke:none"
             d="M 0,0 C 3.242,1.188 5.884,3.829 7.068,7.073 H 6.387 C 5.262,4.17 2.901,1.808 0,0.68 Z" />
        </g>
        <g
           transform="translate(359.1297,220.8145)"
           id="g16691">
          <path
             id="path16693"
             style="fill:#ffe75e;fill-opacity:1;fill-rule:nonzero;stroke:none"
             d="m 0,0 c -0.099,-0.132 -0.072,-0.32 0.06,-0.419 0.132,-0.099 0.32,-0.072 0.419,0.06 L 1.354,0.809 C 1.453,0.941 1.427,1.129 1.294,1.228 1.162,1.327 0.974,1.3 0.875,1.168 Z" />
        </g>
        <g
           transform="translate(357.103,219.0636)"
           id="g16695">
          <path
             id="path16697"
             style="fill:#ffe75e;fill-opacity:1;fill-rule:nonzero;stroke:none"
             d="m 0,0 c -0.132,-0.099 -0.159,-0.287 -0.06,-0.419 0.099,-0.132 0.287,-0.16 0.419,-0.06 L 1.527,0.397 C 1.66,0.496 1.686,0.684 1.587,0.816 1.488,0.948 1.3,0.975 1.168,0.875 Z" />
        </g>
        <g
           transform="translate(346.0791,220.1206)"
           id="g16699">
          <path
             id="path16701"
             style="fill:#ffe75e;fill-opacity:1;fill-rule:nonzero;stroke:none"
             d="m 0,0 c 0,0.543 -0.44,0.983 -0.983,0.983 -0.543,0 -0.983,-0.44 -0.983,-0.983 0,-0.543 0.44,-0.983 0.983,-0.983 C -0.44,-0.983 0,-0.543 0,0 m -0.983,-0.59 c -0.325,0 -0.59,0.264 -0.59,0.59 0,0.326 0.265,0.59 0.59,0.59 0.326,0 0.59,-0.264 0.59,-0.59 0,-0.326 -0.264,-0.59 -0.59,-0.59" />
        </g>
        <g
           transform="translate(344.3935,222.0363)"
           id="g16703">
          <path
             id="path16705"
             style="fill:#ffe75e;fill-opacity:1;fill-rule:nonzero;stroke:none"
             d="M 0,0 C 0.15,0.522 -0.15,1.067 -0.671,1.217 -1.193,1.368 -1.738,1.068 -1.889,0.546 -2.04,0.025 -1.739,-0.52 -1.217,-0.671 -0.696,-0.822 -0.151,-0.522 0,0 m -1.108,-0.293 c -0.313,0.09 -0.493,0.417 -0.403,0.73 0.09,0.313 0.417,0.493 0.73,0.402 0.313,-0.09 0.493,-0.417 0.403,-0.73 -0.09,-0.312 -0.418,-0.492 -0.73,-0.402" />
        </g>
        <g
           transform="translate(348.2148,218.7543)"
           id="g16707">
          <path
             id="path16709"
             style="fill:#ffe75e;fill-opacity:1;fill-rule:nonzero;stroke:none"
             d="M 0,0 C -0.15,0.522 -0.695,0.823 -1.216,0.673 -1.738,0.523 -2.04,-0.022 -1.889,-0.544 -1.74,-1.065 -1.195,-1.367 -0.673,-1.217 -0.152,-1.066 0.15,-0.522 0,0 m -0.782,-0.838 c -0.313,-0.09 -0.639,0.091 -0.73,0.404 -0.089,0.312 0.091,0.638 0.404,0.729 0.313,0.09 0.64,-0.091 0.73,-0.404 0.089,-0.313 -0.091,-0.639 -0.404,-0.729" />
        </g>
        <g
           transform="translate(344.5226,223.0515)"
           id="g16711">
          <path
             id="path16713"
             style="fill:#ffe75e;fill-opacity:1;fill-rule:nonzero;stroke:none"
             d="m 0,0 c 0.798,-1.521 1.991,-2.71 3.513,-3.507 v 0.734 C 2.34,-2.092 1.419,-1.173 0.737,0 Z" />
        </g>
        <g
           transform="translate(340.9635,223.0515)"
           id="g16715">
          <path
             id="path16717"
             style="fill:#ffe75e;fill-opacity:1;fill-rule:nonzero;stroke:none"
             d="m 0,0 c 1.188,-3.243 3.829,-5.884 7.073,-7.068 v 0.681 C 4.17,-5.262 1.808,-2.901 0.68,0 Z" />
        </g>
        <g
           transform="translate(345.7897,219.889)"
           id="g16719">
          <path
             id="path16721"
             style="fill:#ffe75e;fill-opacity:1;fill-rule:nonzero;stroke:none"
             d="m 0,0 c -0.132,0.099 -0.32,0.073 -0.419,-0.06 -0.099,-0.132 -0.072,-0.32 0.06,-0.419 l 1.168,-0.875 c 0.132,-0.099 0.32,-0.073 0.419,0.06 0.099,0.132 0.072,0.32 -0.06,0.419 z" />
        </g>
        <g
           transform="translate(344.039,221.9157)"
           id="g16723">
          <path
             id="path16725"
             style="fill:#ffe75e;fill-opacity:1;fill-rule:nonzero;stroke:none"
             d="m 0,0 c -0.099,0.132 -0.287,0.159 -0.419,0.06 -0.132,-0.099 -0.159,-0.287 -0.06,-0.419 l 0.876,-1.168 c 0.099,-0.132 0.286,-0.159 0.419,-0.06 0.132,0.1 0.159,0.287 0.059,0.419 z" />
        </g>
        <g
           transform="translate(372.4657,197.2258)"
           id="g16727">
          <path
             id="path16729"
             style="fill:#ffe75e;fill-opacity:1;fill-rule:nonzero;stroke:none"
             d="m 0,0 h -40.769 v -2.58 c 0,0 -0.482,-15.468 10.472,-30.421 C -17.29,-50.755 -4.291,-54.294 0,-55.034 Z M 43.723,0 H 2.933 v -55.037 c 4.27,0.732 17.29,4.254 30.318,22.036 10.954,14.953 10.472,30.421 10.472,30.421 z M 2.933,2.185 h 40.961 v 41.7 H 2.933 Z M 0,43.884 H -40.94 V 2.184 H 0 Z m 46.819,2.191 v -48.75 c 0,0 -0.035,-16.11 -11.65,-31.684 C 18.321,-56.952 1.48,-57.617 1.48,-57.617 c 0,0 -16.839,0.665 -33.689,23.258 -11.615,15.574 -11.659,31.684 -11.659,31.684 v 48.75 z" />
        </g>
      </g>
    </g>
  </g>
</svg>
