<?xml version="1.0" encoding="UTF-8" standalone="no"?>
<svg
   xmlns:dc="http://purl.org/dc/elements/1.1/"
   xmlns:cc="http://creativecommons.org/ns#"
   xmlns:rdf="http://www.w3.org/1999/02/22-rdf-syntax-ns#"
   xmlns:svg="http://www.w3.org/2000/svg"
   xmlns="http://www.w3.org/2000/svg"
   xmlns:sodipodi="http://sodipodi.sourceforge.net/DTD/sodipodi-0.dtd"
   xmlns:inkscape="http://www.inkscape.org/namespaces/inkscape"
   id="Layer_1"
   data-name="Layer 1"
   viewBox="0 0 221.5 251.70212"
   version="1.1"
   sodipodi:docname="st-marys-college.svg"
   width="221.5"
   height="251.70212"
   inkscape:version="1.0.1 (3bc2e813f5, 2020-09-07)">
  <metadata
     id="metadata187">
    <rdf:RDF>
      <cc:Work
         rdf:about="">
        <dc:format>image/svg+xml</dc:format>
        <dc:type
           rdf:resource="http://purl.org/dc/dcmitype/StillImage" />
        <dc:title></dc:title>
      </cc:Work>
    </rdf:RDF>
  </metadata>
  <sodipodi:namedview
     pagecolor="#ffffff"
     bordercolor="#666666"
     borderopacity="1"
     objecttolerance="10"
     gridtolerance="10"
     guidetolerance="10"
     inkscape:pageopacity="0"
     inkscape:pageshadow="2"
     inkscape:window-width="1920"
     inkscape:window-height="1000"
     id="namedview185"
     showgrid="false"
     inkscape:pagecheckerboard="true"
     fit-margin-top="0"
     fit-margin-left="0"
     fit-margin-right="0"
     fit-margin-bottom="0"
     inkscape:zoom="1.2833005"
     inkscape:cx="482.35001"
     inkscape:cy="125.85"
     inkscape:window-x="1920"
     inkscape:window-y="0"
     inkscape:window-maximized="1"
     inkscape:current-layer="Layer_1" />
  <defs
     id="defs4">
    <style
       id="style2">.cls-1{fill:#00a669;}.cls-2{fill:#fff;}.cls-3{fill:#5fb3e4;}.cls-4{fill:#1c1e4d;}.cls-5{fill:#fbdc00;}</style>
  </defs>
  <polygon
     class="cls-1"
     points="110.8,0 116.1,15.1 131.5,15.1 119.1,24.7 123.8,39.6 110.9,30.8 97.6,39.7 102.5,24.7 89.9,15.1 105.9,15.1 "
     id="polygon6" />
  <path
     class="cls-1"
     d="m 4.8,188.4 c 9.6,7.7 25.9,9.5 32.4,3.7 -6.4,-7.5 -26.7,-13.9 -32.4,-3.7 z"
     id="path8" />
  <path
     class="cls-1"
     d="m 3.8,160.8 c 5.1,9.8 18.7,23.8 26.5,19.9 C 26.8,167.2 10.9,155.3 3.8,160.8 Z"
     id="path10" />
  <path
     class="cls-1"
     d="M 21.4,161 C 20,147.7 10.9,135.6 0,134.5 1.7,147.1 11.7,159.6 21.4,161 Z"
     id="path12" />
  <path
     class="cls-1"
     d="m 27.1,142.4 c -2.4,14.6 -0.6,27.3 7.2,37.6 4.9,-10.1 2,-30.6 -7.2,-37.6 z"
     id="path14" />
  <path
     class="cls-1"
     d="m 24.6,108.6 c -6.5,13.3 -8.2,26.3 -4.2,39.7 6.3,-7.5 10.7,-28.2 4.2,-39.7 z"
     id="path16" />
  <path
     class="cls-1"
     d="m 17.5,112.9 c 6.7,-9.7 14.8,-18.3 14.5,-32.2 -8.4,5 -19.2,24.2 -14.5,32.2 z"
     id="path18" />
  <path
     class="cls-1"
     d="m 11.3,118.5 c 3.5,-10.7 2.2,-26.4 -3,-34.3 -5.7,9.5 -4,29.1 3,34.3 z"
     id="path20" />
  <path
     class="cls-1"
     d="M 14.5,140.9 C 17.1,130.8 11,120.4 0.6,112.6 -2,123 4.9,132.8 14.5,140.9 Z"
     id="path22" />
  <path
     class="cls-1"
     d="M 15.1,64.6 C 11.1,73.7 11.4,89 15.7,94.3 21.1,85.6 20.8,69 15.1,64.6 Z"
     id="path24" />
  <path
     class="cls-1"
     d="m 29.4,47.8 c -4,8.7 -9.2,16.6 -7,26.5 7.2,-4.5 12.8,-20.8 7,-26.5 z"
     id="path26" />
  <path
     class="cls-1"
     d="m 216.8,188.4 c -9.6,7.7 -25.9,9.5 -32.5,3.7 6.4,-7.5 26.8,-13.9 32.5,-3.7 z"
     id="path28" />
  <path
     class="cls-1"
     d="m 217.8,160.8 c -5.1,9.8 -18.7,23.8 -26.5,19.9 3.5,-13.5 19.3,-25.4 26.5,-19.9 z"
     id="path30" />
  <path
     class="cls-1"
     d="m 200.1,161 c 1.5,-13.3 10.5,-25.4 21.4,-26.5 -1.6,12.6 -11.6,25.1 -21.4,26.5 z"
     id="path32" />
  <path
     class="cls-1"
     d="m 194.4,142.4 c 2.5,14.6 0.7,27.3 -7.1,37.6 -5,-10.1 -2,-30.6 7.1,-37.6 z"
     id="path34" />
  <path
     class="cls-1"
     d="m 196.9,108.6 c 6.6,13.3 8.3,26.3 4.2,39.7 -6.2,-7.5 -10.6,-28.2 -4.2,-39.7 z"
     id="path36" />
  <path
     class="cls-1"
     d="m 204.1,112.9 c -6.7,-9.7 -14.9,-18.3 -14.5,-32.2 8.3,5 19.2,24.2 14.5,32.2 z"
     id="path38" />
  <path
     class="cls-1"
     d="m 210.3,118.5 c -3.6,-10.7 -2.2,-26.4 3,-34.3 5.6,9.5 3.9,29.1 -3,34.3 z"
     id="path40" />
  <path
     class="cls-1"
     d="m 207,140.9 c -2.5,-10.1 3.5,-20.5 13.9,-28.3 2.7,10.4 -4.2,20.2 -13.9,28.3 z"
     id="path42" />
  <path
     class="cls-1"
     d="m 206.5,64.6 c 3.9,9.1 3.6,24.4 -0.6,29.7 -5.5,-8.7 -5.1,-25.3 0.6,-29.7 z"
     id="path44" />
  <path
     class="cls-1"
     d="m 192.2,47.8 c 4,8.7 9.1,16.6 6.9,26.5 -7.2,-4.5 -12.7,-20.8 -6.9,-26.5 z"
     id="path46" />
  <path
     class="cls-2"
     d="m 40.6,56.5 h 140.7 v 101.2 c 0,31.9 -64.5,69.5 -70.3,72.8 A 285.1,285.1 0 0 1 75.5,206.4 C 52.7,188.1 40.6,171.2 40.6,157.7 Z"
     id="path48" />
  <polygon
     class="cls-3"
     points="111.5,127.1 48.9,61.6 174.1,61.6 "
     id="polygon50" />
  <path
     class="cls-4"
     d="m 59.2,182 c -8.5,-9.7 -13,-18.8 -13,-26.3 V 67 l 61.4,64.3 z"
     id="path52" />
  <path
     class="cls-4"
     d="m 115.5,131.3 60.2,-63 v 87.4 c 0,7.5 -4.1,16.2 -12.4,25.7 z"
     id="path54" />
  <path
     class="cls-3"
     d="M 111,222.4 A 263.7,263.7 0 0 1 78.6,200.3 171.5,171.5 0 0 1 63,186.3 l 48.5,-50.8 48,50.2 c -17,17.9 -42.3,33.1 -48.5,36.7 z"
     id="path56" />
  <path
     class="cls-5"
     d="m 111.6,157.5 h 5.9 c 1.8,0 2.5,0.8 2.2,2.5 -0.3,1.7 -0.3,2.7 -0.4,4.1 a 0.8,0.8 0 0 0 0.4,0.6 19.6,19.6 0 0 1 9.2,9.2 0.8,0.8 0 0 0 0.6,0.4 l 4.5,-0.5 a 1.8,1.8 0 0 1 2.1,1.6 17.6,17.6 0 0 1 0,2.3 c 0,3.5 0.1,6.9 0.1,10.3 0,1.7 -0.8,2.4 -2.4,2.3 l -3.8,-0.4 a 1,1 0 0 0 -1.3,0.6 18.4,18.4 0 0 1 -8.8,8.8 0.9,0.9 0 0 0 -0.6,1 c 0.2,1.3 0.3,2.5 0.5,3.8 0.2,1.3 -0.5,2.6 -2.2,2.6 h -12.2 a 1.9,1.9 0 0 1 -2.1,-2.4 c 0.2,-1.4 0.3,-2.7 0.4,-4.1 a 0.7,0.7 0 0 0 -0.4,-0.8 19.4,19.4 0 0 1 -9.1,-9.2 c -0.2,-0.5 -0.6,-0.4 -1,-0.3 l -4.1,0.4 a 1.8,1.8 0 0 1 -2.2,-2.1 V 176 a 1.9,1.9 0 0 1 2.4,-2.1 l 4.3,0.4 c 0.2,0 0.5,-0.3 0.7,-0.5 a 19.3,19.3 0 0 1 8.1,-8.6 c 1.4,-0.8 1.4,-0.8 1.2,-2.3 l -0.3,-3.2 a 1.8,1.8 0 0 1 2,-2.2 z M 88.1,182 c 0,2.1 0.1,4.2 0,6.3 -0.1,2.1 0.3,0.9 0.9,0.8 l 11.7,-1.2 a 3.3,3.3 0 0 0 1.8,-0.8 2.9,2.9 0 0 1 4.1,3.9 5.3,5.3 0 0 0 -1,2.9 2.8,2.8 0 0 1 -0.1,0.9 c -0.3,3.2 -0.6,6.4 -1,9.6 -0.1,1 0.1,1.1 1,1.1 h 12.1 c 0.9,0 1.1,-0.1 1,-1.1 -0.4,-3.8 -0.9,-7.6 -1.2,-11.4 a 3.6,3.6 0 0 0 -0.8,-1.9 2.9,2.9 0 0 1 0.3,-3.8 2.8,2.8 0 0 1 3.9,0 l 1.1,0.5 11.8,1.3 c 1.1,0.1 1.2,0 1.2,-1.1 v -11.7 c 0,-1.3 -0.1,-1.4 -1.4,-1.3 l -9.9,1.1 a 6.7,6.7 0 0 0 -3.3,1 2.5,2.5 0 0 1 -3.5,-0.4 2.6,2.6 0 0 1 -0.3,-3.5 4.6,4.6 0 0 0 0.9,-3 2.8,2.8 0 0 0 0.1,-0.9 c 0.4,-3.2 0.7,-6.4 1.1,-9.6 0.1,-0.9 -0.1,-1 -1,-1 h -12.1 c -0.9,0.1 -1.1,0.2 -1,1.1 l 1.2,11.4 a 3.6,3.6 0 0 0 0.8,1.9 2.7,2.7 0 0 1 -0.2,3.6 2.6,2.6 0 0 1 -3.5,0.6 5,5 0 0 0 -2.8,-1 l -1.5,-0.2 -9.3,-1 c -0.9,-0.1 -1,0.1 -1.1,1 z m 16.2,13.4 a 18.3,18.3 0 0 0 0.2,-2.1 3.9,3.9 0 0 1 1.1,-2.9 1.7,1.7 0 0 0 -2.5,-2.2 3,3 0 0 1 -2.2,0.8 l -2.7,0.3 a 15.6,15.6 0 0 0 6.1,6.1 z m -6.1,-20.6 2.2,0.2 c 0.8,0.2 1.8,0.1 2.5,0.8 a 1.7,1.7 0 0 0 2.5,0.1 1.8,1.8 0 0 0 -0.1,-2.5 3.5,3.5 0 0 1 -0.6,-1.4 31.1,31.1 0 0 1 -0.4,-3.2 15.3,15.3 0 0 0 -6.1,6 z m 20.6,-6 a 27.9,27.9 0 0 1 -0.4,3.2 3.5,3.5 0 0 1 -0.6,1.4 1.7,1.7 0 0 0 -0.1,2.5 1.8,1.8 0 0 0 2.5,-0.1 3.4,3.4 0 0 1 1.5,-0.6 l 3.1,-0.4 a 14.5,14.5 0 0 0 -6,-6 z m 0,26.6 a 14.7,14.7 0 0 0 6,-6.1 l -2.9,-0.3 a 3.6,3.6 0 0 1 -1.7,-0.7 1.8,1.8 0 0 0 -2.5,-0.1 1.7,1.7 0 0 0 0.1,2.5 3.5,3.5 0 0 1 0.6,1.4 29.8,29.8 0 0 1 0.4,3.3 z"
     id="path58" />
  <path
     class="cls-5"
     d="m 105.5,204.4 c 0.2,-1.6 0.3,-3.2 0.5,-4.9 0.2,-1.7 0.5,-4.3 0.7,-6.5 a 3.7,3.7 0 0 1 0.5,-1.1 3.9,3.9 0 0 0 -0.2,-5.1 3.7,3.7 0 0 0 -5,-0.5 4.4,4.4 0 0 1 -1.9,0.7 l -9.8,1.1 c -1.1,0.1 -1.2,0 -1.2,-1.1 v -10 c 0,-1 0,-1 1,-0.9 l 9.5,1 a 5.2,5.2 0 0 1 2.7,1 3.8,3.8 0 0 0 5.1,-5.4 4.5,4.5 0 0 1 -0.8,-2.2 c -0.3,-3.4 -0.7,-6.8 -1.1,-10.2 0,-0.5 0.1,-0.7 0.6,-0.7 h 11 c 0.5,0 0.5,0.3 0.5,0.7 -0.3,2.4 -0.6,4.8 -0.8,7.2 l -0.3,2.4 a 4.9,4.9 0 0 1 -0.9,2.8 3.8,3.8 0 0 0 0.5,4.7 3.6,3.6 0 0 0 4.6,0.7 5.5,5.5 0 0 1 3.2,-1 l 8.6,-0.9 h 0.7 c 0.6,-0.1 0.8,0.1 0.8,0.8 v 8.6 a 9.6,9.6 0 0 0 0,1.7 c 0,0.7 -0.2,1 -1,0.9 l -10.7,-1.3 a 1.2,1.2 0 0 1 -0.9,-0.3 3.9,3.9 0 0 0 -5.2,0.1 3.9,3.9 0 0 0 -0.3,5.3 1.8,1.8 0 0 1 0.4,0.9 l 1.2,11 c 0.1,0.5 0,0.7 -0.6,0.7 h -11.4 z m 6,-26.6 a 4.2,4.2 0 0 0 -4.2,4.3 4.3,4.3 0 1 0 8.5,0 4.3,4.3 0 0 0 -4.3,-4.3 z m -18.4,3.1 c 0.1,0.2 0.1,0.3 0.2,0.4 l 0.5,0.4 a 6.4,6.4 0 0 1 7.2,0.5 9,9 0 0 1 -2.1,0.8 1.4,1.4 0 0 0 -1.2,1.3 9,9 0 0 0 5.3,-2.2 c -3.1,-2.6 -7,-3 -9.9,-1.2 z m 38.5,0.7 a 4.6,4.6 0 0 0 0,-4.8 29.5,29.5 0 0 0 -4.1,1.7 4.1,4.1 0 0 0 -2.1,3 c -0.2,1.3 0.1,1.6 1.3,1.2 a 4.2,4.2 0 0 1 4.2,-4.3 3.8,3.8 0 0 1 -0.1,1.5 1.3,1.3 0 0 0 0.8,1.7 z m -20.1,-8 c 2.7,-3.3 3,-7.5 1.1,-9.9 -0.8,0.5 -0.8,0.5 -0.4,1.3 1,2.3 0.6,4.4 -0.7,6.7 a 9.8,9.8 0 0 1 -0.9,-2.3 c -0.2,-0.8 -0.6,-1 -1.3,-1.2 a 10.2,10.2 0 0 0 2.2,5.4 z m 0.1,17 c -2.6,2.9 -3.1,7.4 -1.2,9.9 0.6,-0.3 0.9,-0.6 0.5,-1.4 -0.4,-0.8 -0.7,-4.4 0.7,-6.6 a 12.8,12.8 0 0 1 0.9,2.2 1.4,1.4 0 0 0 1.3,1.2 10.4,10.4 0 0 0 -2.2,-5.3 z m 0.6,-23.7 a 4.4,4.4 0 0 1 -4.4,-4.2 4.7,4.7 0 0 1 1.7,0.1 c 0.9,0.3 1.2,-0.3 1.6,-0.8 a 4.9,4.9 0 0 0 -4.7,-0.2 9.4,9.4 0 0 0 2.5,5.4 3.8,3.8 0 0 0 3.3,1 z m -20.9,20.3 c 2.1,-0.4 4.2,-1 5.6,-2.7 a 3.5,3.5 0 0 0 0.7,-3.1 h -1.2 c -0.2,2.5 -1.4,3.9 -4.2,4.5 a 4.7,4.7 0 0 1 0.1,-1.7 c 0.2,-0.9 -0.2,-1.3 -0.9,-1.7 -0.9,1.5 -0.7,3 -0.1,4.7 z m 30.6,-5.2 a 8.9,8.9 0 0 1 2.4,-0.9 c 0.7,-0.2 0.9,-0.6 1.1,-1.3 a 9.7,9.7 0 0 0 -5.4,2.3 c 3.6,2.9 8,2.7 9.9,1.1 -0.3,-0.6 -0.6,-0.9 -1.3,-0.5 -0.7,0.4 -4.4,0.7 -6.7,-0.7 z m 4.8,2.9 0.2,0.3 a 9.5,9.5 0 0 0 4.5,1.9 0.8,0.8 0 0 0 0.6,-0.4 c 0.9,-2.9 -0.2,-5.2 -3.1,-6.3 -0.8,-0.4 -1,-0.3 -1.3,0.6 2.9,1.3 3.7,2.5 3.2,4.8 -1.5,0 -2.5,-1.7 -4.1,-0.9 z m -15.8,12.4 c 2.6,-0.4 4.1,2.1 4.4,4.1 -0.6,0 -1.2,0.2 -1.6,0 -0.4,-0.2 -1.3,0.2 -1.7,0.8 a 5,5 0 0 0 4.6,0.1 9.2,9.2 0 0 0 -2,-5 3.7,3.7 0 0 0 -3.7,-1.3 z M 91.3,176.9 a 4.8,4.8 0 0 0 2.8,6.9 c 0.9,0.4 1.1,0.3 1.4,-0.6 -2.8,-1.1 -3.8,-2.6 -3.1,-5 a 17.6,17.6 0 0 1 2,0.9 2,2 0 0 0 2.1,0.1 10.2,10.2 0 0 0 -5.2,-2.3 z m 21.4,21.2 c -1.4,2.9 -2.9,3.9 -5,3.1 a 9.8,9.8 0 0 1 0.8,-1.8 2.3,2.3 0 0 0 0.2,-2.3 10.6,10.6 0 0 0 -2.3,5.2 c 2.9,1.4 5.6,0.2 6.9,-2.8 0.3,-0.8 0.1,-1.2 -0.6,-1.4 z m 4,-36.2 c -2.8,-1.5 -5.7,-0.3 -6.9,2.8 -0.3,0.8 -0.1,1.1 0.6,1.3 1.4,-2.9 2.6,-3.7 5,-3.1 a 9.8,9.8 0 0 1 -0.8,1.8 2.4,2.4 0 0 0 -0.2,2.3 10.3,10.3 0 0 0 2.3,-5.1 z"
     id="path60" />
  <path
     class="cls-5"
     d="m 108.3,182.1 a 3.3,3.3 0 1 1 6.5,0 3.3,3.3 0 0 1 -6.5,0 z m 3.2,2 a 2,2 0 0 0 2.1,-2 2.2,2.2 0 0 0 -2,-2.1 2.1,2.1 0 0 0 -2.1,2.1 2,2 0 0 0 2,2 z"
     id="path62" />
  <path
     class="cls-5"
     d="m 87.7,128.1 a 5.8,5.8 0 0 0 -2.5,-1.2 l -4.7,-1.3 -7.5,-1.1 6.8,0.5 a 10.2,10.2 0 0 0 1,-3.4 7.7,7.7 0 0 1 1.2,-3.6 1.4,1.4 0 0 0 0.4,-1.2 1.6,1.6 0 0 1 0.7,-1.6 1.9,1.9 0 0 0 0.5,-1.4 2.8,2.8 0 0 1 -0.1,-0.9 c 0.2,-0.5 0,-0.8 -0.3,-1.2 l -0.4,-0.3 C 82.6,111.2 82.3,111 82,111.3 l -0.5,0.2 a 7.8,7.8 0 0 0 -1.5,1 4.3,4.3 0 0 0 -0.5,1.6 l -0.3,1.7 a 8.5,8.5 0 0 0 -0.6,1.7 5.2,5.2 0 0 1 -0.7,2.1 l -0.8,1 -0.6,-0.7 a 40.2,40.2 0 0 0 -4.6,-1 c 0.6,-0.4 3.9,0.3 3.9,0.3 l 1,0.4 a 4,4 0 0 0 -1.7,-1.5 L 73,117.2 72.4,117 72.8,116.4 H 73 a 1.3,1.3 0 0 0 1.3,0.5 l 1.4,-0.3 c 0,-0.1 0.1,-0.2 0.1,-0.3 v -1 a 1.2,1.2 0 0 0 -1.1,-1.2 C 74.5,114 74.4,114 74.5,113.7 a 0.3,0.3 0 0 1 -0.1,-0.2 l -0.3,0.2 a 2,2 0 0 1 -1.7,0 c -0.2,-0.1 -0.3,-0.2 -0.3,-0.4 0,-0.2 0.3,-1 0.5,-1.6 0.2,-0.6 0.2,-0.3 0.5,-0.1 a 0.9,0.9 0 0 0 0.7,0.3 0.7,0.7 0 0 1 0.7,0.7 v 0.5 l 0.3,-0.4 0.9,-1.1 a 4.6,4.6 0 0 0 0.9,-2.3 c 0.1,0 0,-0.2 -0.1,-0.2 a 3.3,3.3 0 0 0 -1,-0.6 24.3,24.3 0 0 1 -3.8,-1.3 2.1,2.1 0 0 1 -1.3,-1 2.3,2.3 0 0 0 -1.1,-1.1 4.8,4.8 0 0 0 -1.7,-0.5 h -0.2 l 0.6,0.9 v 0 a 5.7,5.7 0 0 0 -4.6,0 l 1.3,0.4 v 0 l -1,0.3 a 5,5 0 0 0 -2.5,1.3 5.3,5.3 0 0 0 -1.3,2.3 c -0.3,0.9 -0.5,1.8 -0.9,2.7 a 12,12 0 0 0 -1,3.7 c 0,0.2 -0.1,0.3 -0.1,0.5 H 58 l 0.6,-1.2 0.2,0.2 a 4.1,4.1 0 0 0 0.1,1.1 3.2,3.2 0 0 0 0.2,1.4 14,14 0 0 0 0.9,1.7 l 0.2,0.2 v -1 c 0.1,0.2 0.2,0.2 0.2,0.3 l 2.1,3.1 0.2,0.4 a 8.2,8.2 0 0 0 0.4,-1.1 l 0.3,1.4 1.9,-1.8 -1.8,2.4 h -0.2 a 21.4,21.4 0 0 1 1,2.2 9.8,9.8 0 0 1 0.2,5.1 33.2,33.2 0 0 1 -2,4.7 11.2,11.2 0 0 0 -1,3.1 1.9,1.9 0 0 1 -0.1,0.8 1.3,1.3 0 0 1 -1.6,0.1 4.2,4.2 0 0 1 -0.9,-1.9 15.5,15.5 0 0 1 -0.7,-4.3 c -0.1,-1.7 -0.1,-3.4 -0.2,-5.1 L 57.7,127 a 10.1,10.1 0 0 0 -1.8,-3.2 11.4,11.4 0 0 0 -2.8,-3 l -0.8,-0.6 h -0.1 l 0.4,0.8 v 0 c -1.4,-0.6 -2.4,0.1 -3.4,1 a 13.6,13.6 0 0 0 2,-0.2 l -0.4,0.2 -1.1,0.6 a 1.7,1.7 0 0 0 -0.7,1.3 8.5,8.5 0 0 0 0.9,3.2 v 0.3 c 0.1,-0.5 0.1,-1 0.2,-1.5 a 2.7,2.7 0 0 1 1,-1.8 6.4,6.4 0 0 1 1.9,-0.8 2.2,2.2 0 0 1 2.3,0.6 5.7,5.7 0 0 1 1.1,2.5 20.7,20.7 0 0 1 0.4,5 v 4.3 a 12.3,12.3 0 0 0 0.2,1.9 9.6,9.6 0 0 0 1.3,3.7 2.2,2.2 0 0 0 2.2,1.1 h 0.9 l 0.4,-1.3 -0.4,3.3 h -0.1 a 3.4,3.4 0 0 1 -0.5,1.7 2.4,2.4 0 0 0 0.2,2.7 3.9,3.9 0 0 1 0.7,1.6 7.8,7.8 0 0 0 0.2,1.4 3,3 0 0 0 0.6,2 5.4,5.4 0 0 0 2.6,1.6 5,5 0 0 0 2.7,-0.1 c 0.6,-0.1 0.6,-0.1 0.5,-0.7 h -0.1 a 1,1 0 0 0 -0.6,-0.9 l -1,-0.6 a 8.6,8.6 0 0 1 -1.4,-1.3 3.3,3.3 0 0 1 -0.5,-3 l 1.2,-3.4 a 0.8,0.8 0 0 0 0.1,-0.4 3.5,3.5 0 0 1 -2.1,-3.8 13.8,13.8 0 0 0 3.9,4.1 l 1,0.5 a 1.3,1.3 0 0 1 0.7,1.8 l -0.3,0.6 c -0.1,0.3 -0.1,0.4 0.1,0.5 l 1.1,1 a 10.3,10.3 0 0 1 2.5,2.6 l 1.7,1.8 a 2.4,2.4 0 0 0 1.5,0.9 5.1,5.1 0 0 0 3.4,-0.7 c 0.1,0 0.1,-0.2 0.1,-0.2 a 3.1,3.1 0 0 0 -1.4,-1.6 l -2.4,-1.4 a 3.7,3.7 0 0 1 -1.6,-4.2 11,11 0 0 0 0.6,-2.6 8.2,8.2 0 0 0 -0.8,-4.6 c -0.3,-0.6 -0.5,-1.2 -0.8,-1.9 a 2,2 0 0 1 0.4,-2.1 c 0.5,-0.7 1.1,-1.3 1.7,-2 a 30,30 0 0 0 2.5,-3.7 1.7,1.7 0 0 1 0.6,-0.6 6,6 0 0 0 -3.6,1.8 c -0.3,-1.8 4.3,-2.5 5.9,-2.3 v 0 a 2.4,2.4 0 0 1 1.3,0.5 l 1.1,1.1 a 2.3,2.3 0 0 0 1.4,0.8 4.5,4.5 0 0 0 3,-0.4 1.5,1.5 0 0 0 0.9,-1.3 1.4,1.4 0 0 0 -0.7,-1.5 z M 70.3,108.9 c 0.5,-0.3 0.8,-0.2 1.2,0.3 0.4,0.5 -0.8,0.2 -1.2,-0.3 z"
     id="path64" />
  <path
     class="cls-5"
     d="m 154.4,137.7 h -4.7 c -1.2,7.5 -5.3,9.4 -5.3,9.4 0,0 3.4,-0.3 3.4,-0.3 0,2.8 4.2,5.4 4.2,5.4 0,0 4.3,-2.6 4.3,-5.4 0,0 2.2,1.1 3.3,0.3 1.1,-0.8 -4,-1.9 -5.2,-9.4 z m -2.3,12.4 a 1.8,1.8 0 0 0 -0.1,-0.5 83.8,83.8 0 0 1 0,-10.4 4.3,4.3 0 0 0 0.1,-0.5 77,77 0 0 1 0,11.4 z"
     id="path66" />
  <path
     class="cls-5"
     d="m 163,139.3 c 0,0 1.9,3.7 -1.2,3.7 -3.1,0 -3.2,-2.9 -3.7,-5.3 h -2.3 c 0.2,2.3 1.1,5.8 4.2,7.4 5,2.7 7.3,-4.8 3,-5.8 z m -2.4,4.7 c 0,0 3.7,1.4 3.9,-2.3 0,0 0.3,4.4 -3.9,2.3 z"
     id="path68" />
  <path
     class="cls-5"
     d="m 170.1,124.4 c 0,0 -5.3,-4.9 -10.2,-0.1 a 13.2,13.2 0 0 0 -3.9,7.3 h 2.3 c 0.5,-1.8 1.4,-3.5 3.3,-3.5 3.4,0 4.8,6.6 1.3,6.6 0,0 0.8,3.3 4,0.8 3.2,-2.5 2.3,-9 0.6,-10.2 a 2.2,2.2 0 0 1 2.6,-0.9 z m -8.9,1.8 c 0,0 5.7,-3.5 5.6,5.4 0,0 -0.1,-7.5 -5.6,-5.4 z"
     id="path70" />
  <path
     class="cls-5"
     d="m 152,132.3 h -6.5 a 1.3,1.3 0 0 0 -1.1,1.4 v 1.9 a 1.2,1.2 0 0 0 1.1,1.3 h 13.2 a 1.2,1.2 0 0 0 1.1,-1.3 v -1.9 a 1.3,1.3 0 0 0 -1.1,-1.4 z"
     id="path72" />
  <path
     class="cls-5"
     d="M 148.3,137.7 H 146 c -0.5,2.4 -1.7,5.2 -3.8,5.3 -2.1,0.1 -1.2,-3.7 -1.2,-3.7 -4.3,1 -2,8.5 3,5.8 3.1,-1.6 4.1,-5.1 4.3,-7.4 z m -8.7,4 c 0.2,3.7 3.9,2.3 3.9,2.3 -4.2,2.1 -3.9,-2.3 -3.9,-2.3 z"
     id="path74" />
  <path
     class="cls-5"
     d="m 141.2,134.7 c -3.5,0 -2.1,-6.6 1.2,-6.6 3.3,0 2.9,1.7 3.4,3.5 h 2.3 a 13.9,13.9 0 0 0 -3.9,-7.3 c -4.9,-4.8 -10.2,0.1 -10.2,0.1 a 2.2,2.2 0 0 1 2.6,0.9 c -1.7,1.2 -2.7,7.8 0.5,10.2 3.2,2.4 4.1,-0.8 4.1,-0.8 z m -3.8,-3.1 c -0.2,-8.9 5.5,-5.4 5.5,-5.4 -5.4,-2.1 -5.5,5.4 -5.5,5.4 z"
     id="path76" />
  <path
     class="cls-5"
     d="m 149.7,131.6 h 4.6 c 0.8,-3.7 3.3,-11.9 10.7,-11.3 0,0 -1.7,-5.5 -6.2,-3.9 0,0 2.5,-3.4 -6.8,-12.4 -9.2,9 -6.7,12.4 -6.7,12.4 -4.5,-1.6 -6.3,3.9 -6.3,3.9 7.5,-0.6 10,7.6 10.7,11.3 z m 11.5,-13 c -5.8,0 -7.6,9.9 -7.6,9.9 1,-11.7 7.6,-9.9 7.6,-9.9 z M 152,107.9 a 191.4,191.4 0 0 1 0,22 c 0,0 -0.6,-12.1 0,-22 z m -1.4,20.6 c 0,0 -1.9,-9.9 -7.7,-9.9 0,0 6.6,-1.8 7.7,9.9 z"
     id="path78" />
  <path
     class="cls-5"
     d="m 140.1,72.7 a 92.5,92.5 0 0 0 -15,7.1 22,22 0 0 1 -8.8,3.2 3,3 0 0 1 -0.4,1.7 1.2,1.2 0 0 1 -1.5,0.5 c -0.3,0.7 -1.8,1.2 -1.8,1.2 l -1,1.5 -1,-1.5 c 0,0 -1.5,-0.5 -1.9,-1.2 A 1.2,1.2 0 0 1 107.2,84.7 3,3 0 0 1 106.8,83 22.5,22.5 0 0 1 98,79.8 91.6,91.6 0 0 0 83.1,72.7 79.7,79.7 0 0 1 72.7,67 c 0,0 1.3,4.2 4.9,5.8 a 11.8,11.8 0 0 0 3.3,0.9 8.6,8.6 0 0 1 -3.2,-0.3 7.1,7.1 0 0 0 2.5,4.8 7.3,7.3 0 0 0 4.5,1.3 5.8,5.8 0 0 1 -3.8,-0.1 6,6 0 0 0 3.5,4.2 l 1,0.5 v 0 a 14.4,14.4 0 0 0 4.2,0.3 c 0,0 -2.6,0.8 -4.2,0.2 0.1,1 0.6,3.4 4.2,3.4 v 0 l 3.6,-0.3 a 19.5,19.5 0 0 1 -3.5,0.6 c 0,0.8 0.5,2.7 3.5,3.4 h 0.2 a 14.6,14.6 0 0 0 5.1,-0.1 13.1,13.1 0 0 1 -3.6,0.6 5.9,5.9 0 0 0 4.7,0.7 h 0.8 a 5.6,5.6 0 0 0 1.9,-0.9 6.7,6.7 0 0 1 -1.6,1.1 c 0.4,0.4 1.5,0.9 3.6,-0.1 a 11.9,11.9 0 0 1 1.2,-5.2 c -1,3 -0.5,7 -0.5,7.3 a 19.1,19.1 0 0 0 1,3.8 10,10 0 0 0 1.8,3.6 l -1,-1.1 c 0.1,0.8 0.1,1.9 -0.6,2.4 v 0 c -2.7,2.2 -6.4,5.4 -5.3,6.4 1.1,1 1.8,-0.3 3,-1.7 -1.1,2.3 -1.7,4.3 -0.6,4.8 1.1,0.5 1.7,-0.6 2.6,-2.3 -0.4,2.3 -0.2,4 1.1,4.2 1.3,0.2 1.9,-0.9 2.4,-2.5 0.3,1.9 1,3.2 2.2,3.2 1.2,0 1.9,-1.1 2.2,-2.8 0.5,1.4 1.2,2.2 2.2,2.1 1,-0.1 1.5,-1.9 1.2,-4.2 0.8,1.7 1.8,2.7 2.6,2.3 0.8,-0.4 0.5,-2.5 -0.7,-4.8 1.3,1.4 2.4,2.3 3,1.7 0.6,-0.6 -2.5,-4.2 -5.2,-6.4 v 0 l -0.5,-0.4 c -0.2,-0.3 -0.3,-0.8 0,-1.8 l -0.9,0.9 a 9,9 0 0 0 1.6,-2.8 25.1,25.1 0 0 0 1.2,-4.9 18.7,18.7 0 0 0 -0.6,-7 11,11 0 0 1 1.2,5.3 c 2.3,1 3.4,0.2 3.7,-0.1 a 6.8,6.8 0 0 1 -1.4,-1 7.1,7.1 0 0 0 3.7,1.2 5.4,5.4 0 0 0 3.3,-0.9 9.7,9.7 0 0 1 -3.2,-0.6 18.6,18.6 0 0 0 3.7,0.3 c 4.1,-0.4 4.7,-2.7 4.8,-3.6 a 15.6,15.6 0 0 1 -3.2,-0.6 l 3.2,0.3 v 0 c 3.7,0 4.2,-2.4 4.2,-3.4 a 8.5,8.5 0 0 1 -3.8,-0.3 13.3,13.3 0 0 0 3.8,-0.2 v 0 c 3.4,-1.3 4.3,-3.5 4.5,-4.7 a 5.8,5.8 0 0 1 -3.4,0 8,8 0 0 0 3.6,-0.8 7.3,7.3 0 0 0 3.1,-5.3 8.1,8.1 0 0 1 -2.9,0.2 8.9,8.9 0 0 0 3.3,-0.9 v 0 a 9.8,9.8 0 0 0 4.5,-5.6 75.7,75.7 0 0 1 -10.3,5.6 z"
     id="path80" />
  <path
     class="cls-5"
     d="m 112.9,85.6 h 0.6 l 0.4,-0.3 h 0.1 l 0.3,-0.4 h 0.3 a 1.1,1.1 0 0 0 0.9,-0.5 1.7,1.7 0 0 0 0.2,-0.5 v -0.5 0 a 1.3,1.3 0 0 0 -0.1,-0.6 l -0.3,-0.2 a 4.5,4.5 0 0 0 0.3,-1.6 c 0,-2.7 -1.8,-4.9 -4,-4.9 -2.2,0 -4,2.2 -4,4.9 a 8.8,8.8 0 0 0 0.2,1.6 c -0.1,0 -0.1,0.1 -0.2,0.2 a 1.4,1.4 0 0 0 -0.2,0.6 v 0 0.2 a 1.7,1.7 0 0 0 0.2,0.5 1.1,1.1 0 0 0 0.9,0.5 h 0.3 l 0.4,0.4 h 0.1 l 0.3,0.3 h 0.6 l 0.5,0.2 0.9,1.5 0.8,-1.5 z"
     id="path82" />
  <path
     class="cls-4"
     d="m 111,238.8 -3,-1.9 c -4.2,-2.3 -74.4,-42 -74.4,-79.2 V 49.5 h 154.8 v 108.2 c 0,37.2 -70.2,76.9 -74.4,79.2 z M 39.9,55.8 v 101.9 c 0,13.7 12.2,30.8 35.2,49.2 a 277.1,277.1 0 0 0 35.9,24.4 c 3.9,-2.2 71,-40.6 71,-73.6 V 55.8 Z"
     id="path84" />
  <path
     class="cls-2"
     d="m 188.4,49.5 v 108.2 c 0,37.2 -70.2,76.9 -74.4,79.2 l -3,1.9 -3,-1.9 c -4.2,-2.3 -74.4,-42 -74.4,-79.2 V 49.5 H 188.4 M 111,231.3 c 3.9,-2.2 71,-40.6 71,-73.6 V 55.8 H 39.9 v 101.9 c 0,13.7 12.2,30.8 35.2,49.2 A 277.1,277.1 0 0 0 111,231.3 M 189,48.8 H 32.9 v 108.9 c 0,37.8 71.7,78.1 74.7,79.8 l 3,1.9 0.4,0.3 0.3,-0.3 3,-1.9 c 3,-1.7 74.7,-42 74.7,-79.8 z M 40.6,56.5 h 140.7 v 101.2 c 0,31.9 -64.5,69.5 -70.3,72.8 A 285.1,285.1 0 0 1 75.5,206.4 C 52.7,188.1 40.6,171.2 40.6,157.7 Z"
     id="path86" />
  <polygon
     class="cls-2"
     points="100.6,227.2 82.8,223.7 100.6,216.6 "
     id="polygon88" />
  <polygon
     class="cls-4"
     points="90.5,223 97.5,224.4 97.5,220 "
     id="polygon90" />
  <path
     class="cls-2"
     d="m 41.8,199.8 a 59.2,59.2 0 0 1 -10.1,-5.1 l -2,-4.4 13.9,-6.6 1.8,2.5 c 0,5 -0.2,10.5 -0.5,14.8 z"
     id="path92" />
  <path
     class="cls-4"
     d="m 42.6,187.4 -10.5,4.7 a 85.9,85.9 0 0 0 10.5,5.6 z"
     id="path94" />
  <path
     class="cls-2"
     d="m 178,184.9 1.2,-1.7 13.8,8.1 -1.6,2.9 a 54.7,54.7 0 0 1 -10.2,5.2 l -3,1.2 c 0,-6.2 -0.2,-11 -0.2,-15.7 z"
     id="path96" />
  <path
     class="cls-4"
     d="m 180.4,187 v 10.3 a 58,58 0 0 0 9.7,-4.9 z"
     id="path98" />
  <path
     class="cls-2"
     d="m 110.9,251.7 a 81,81 0 0 1 -22.2,-3 l -1.6,-0.5 v -26.1 l 2.9,0.8 a 91.8,91.8 0 0 0 21.9,2.6 82.3,82.3 0 0 0 20.8,-2.6 l 2.9,-0.8 v 26 l -1.6,0.6 a 85.8,85.8 0 0 1 -23.1,3 z"
     id="path100" />
  <path
     class="cls-4"
     d="m 89.4,225.1 v 21.4 c 22.9,6.7 43.9,0 43.9,0 v -21.4 c -22.6,6 -43.9,0 -43.9,0 z"
     id="path102" />
  <path
     class="cls-2"
     d="m 86.5,242.6 c -0.3,0 -31.2,-7.5 -55.7,-21.9 l -1.1,-0.6 v -29.8 l 3.6,2.6 c 0.2,0.2 23,16.6 63.5,23.7 l 7.7,2.3 -15.1,5.4 v 19 z"
     id="path104" />
  <path
     class="cls-4"
     d="m 32,194.8 v 23.9 c 24.4,14.4 55.1,21.7 55.1,21.7 v -17.6 l 9.3,-3.9 C 54.8,211.6 32,194.8 32,194.8 Z"
     id="path106" />
  <path
     class="cls-2"
     d="m 133.3,224.3 -15.1,-5.5 7.7,-1.4 c 40.5,-7.9 63.2,-24.3 63.5,-24.5 l 3.6,-1.6 v 28.8 l -1.1,0.6 c -24.5,14.4 -55.5,21.9 -55.8,21.9 l -2.8,0.7 z"
     id="path108" />
  <polygon
     class="cls-2"
     points="121.2,226.7 121.2,217.5 139.8,224 "
     id="polygon110" />
  <polygon
     class="cls-4"
     points="132,223.3 125.1,220.4 125.1,224.7 "
     id="polygon112" />
  <path
     class="cls-4"
     d="m 126.3,218.9 9.3,3.9 v 17.6 c 0,0 30.6,-7.3 55.1,-21.7 v -23.9 c 0,0 -22.8,16.8 -64.4,24.1 z"
     id="path114" />
  <path
     class="cls-2"
     d="m 100.7,234.7 c 0,-1 0.5,-1.7 1.2,-1.7 a 1.9,1.9 0 0 1 1.4,0.8 l 0.5,-1.4 a 2.5,2.5 0 0 0 -1.9,-0.9 c -1.6,0 -2.6,1.4 -2.6,3.3 a 5,5 0 0 0 1.8,3.9 3.7,3.7 0 0 1 1.5,2.8 c 0,1.1 -0.6,1.9 -1.3,1.9 a 1.9,1.9 0 0 1 -1.6,-1.1 l -0.7,1.4 a 2.9,2.9 0 0 0 2.4,1.2 c 1.6,0 2.6,-1.5 2.6,-3.5 a 5.7,5.7 0 0 0 -1.9,-4.2 3.5,3.5 0 0 1 -1.4,-2.5 z"
     id="path116" />
  <path
     class="cls-2"
     d="m 108,231.5 c -2.1,0 -2.9,3 -2.9,6.7 0,3.7 0.8,6.7 2.9,6.7 2.1,0 2.9,-3 2.9,-6.7 0,-3.7 -0.9,-6.7 -2.9,-6.7 z m 0,11.9 c -1.1,0 -1.5,-2.4 -1.5,-5.2 0,-2.8 0.4,-5.2 1.5,-5.2 1.1,0 1.4,2.4 1.4,5.2 0,2.8 -0.4,5.2 -1.4,5.2 z"
     id="path118" />
  <path
     class="cls-2"
     d="M 120.6,231.7 H 119 l -2.1,13 h 1.4 l 0.4,-2.8 h 2.2 l 0.4,2.8 h 1.4 z m -1.8,8.6 1,-6.9 1,6.9 z"
     id="path120" />
  <polygon
     class="cls-2"
     points="112.4,244.6 116.4,244.6 116.4,243.1 113.8,243.1 113.8,231.6 112.4,231.6 "
     id="polygon122" />
  <path
     class="cls-2"
     d="m 48.9,209.7 -4.5,8 c 0.6,-3 1.2,-6.1 1.7,-9.2 l -1.3,-0.5 -1.8,11.2 1.5,0.7 q 2.8,-4.7 5.7,-9.6 z"
     id="path124" />
  <path
     class="cls-2"
     d="m 51.2,210.7 c -1.3,3.5 -2.5,7.1 -3.8,10.6 l 1.3,0.6 c 1.3,-3.5 2.5,-7.1 3.8,-10.7 z"
     id="path126" />
  <path
     class="cls-2"
     d="m 56.5,213 -2.3,-1 c -1.2,3.6 -2.5,7.2 -3.7,10.7 l 1.3,0.6 1.5,-4.2 0.8,0.4 -0.3,4.7 1.4,0.7 c 0.1,-1.8 0.1,-3.5 0.2,-5.2 0.7,0 1.7,-0.5 2.4,-2.4 0.7,-1.9 0.1,-3.7 -1.3,-4.3 z m -0.1,3.7 c -0.4,1.2 -1.1,1.8 -1.9,1.5 l -0.8,-0.4 1.4,-3.9 0.8,0.3 c 0.8,0.3 0.9,1.3 0.5,2.5 z"
     id="path128" />
  <path
     class="cls-2"
     d="m 64.1,216.2 -4.4,-1.9 c -0.2,0.5 -0.3,0.9 -0.5,1.3 l 1.6,0.7 -3.3,9.6 1.3,0.6 3.3,-9.7 1.5,0.7 c 0.2,-0.5 0.3,-0.9 0.5,-1.3 z"
     id="path130" />
  <path
     class="cls-2"
     d="m 68.7,218 -2.7,8.1 c -0.5,1.3 -1.1,1.6 -1.7,1.3 -0.6,-0.3 -1,-0.9 -0.5,-2.2 l 2.7,-8 -1.3,-0.6 -2.7,8.1 c -0.8,2.1 0,3.5 1.3,4 1.3,0.5 2.7,0 3.5,-2.2 l 2.7,-8 z"
     id="path132" />
  <path
     class="cls-2"
     d="m 73.9,219.7 c -1.5,-0.5 -2.8,0.4 -3.4,2 -0.6,1.6 0.1,2.8 0.6,3.9 a 3.2,3.2 0 0 1 0.6,2.7 c -0.4,1 -1.1,1.4 -1.7,1.2 a 2,2 0 0 1 -1.3,-1.4 l -1,0.9 a 2.9,2.9 0 0 0 1.9,1.8 c 1.5,0.5 2.8,-0.4 3.4,-2.1 a 4.6,4.6 0 0 0 -0.6,-4.1 3.4,3.4 0 0 1 -0.5,-2.5 c 0.3,-0.9 1,-1.3 1.6,-1.1 a 1.6,1.6 0 0 1 1,1.1 l 0.9,-1 a 2.6,2.6 0 0 0 -1.5,-1.4 z"
     id="path134" />
  <path
     class="cls-2"
     d="m 142.5,221.7 2.4,7.3 -4.6,-6.6 -1.3,0.4 c 1.2,3.6 2.3,7.3 3.5,10.9 l 1.4,-0.3 c -0.9,-2.6 -1.7,-5.2 -2.5,-7.7 l 4.7,7 1.3,-0.4 -3.6,-11 z"
     id="path136" />
  <path
     class="cls-2"
     d="m 147.9,219.6 c -1.9,0.7 -1.9,3.5 -0.9,6.7 1,3.2 2.6,5.5 4.6,4.8 2,-0.7 1.9,-3.5 0.9,-6.7 -1,-3.2 -2.6,-5.5 -4.6,-4.8 z m 3.3,10.1 c -1,0.4 -2,-1.5 -2.8,-3.9 -0.8,-2.4 -1.1,-4.5 -0.1,-4.8 1,-0.3 2,1.4 2.8,3.9 0.8,2.5 1.1,4.5 0.1,4.8 z"
     id="path138" />
  <path
     class="cls-2"
     d="m 157.1,222.4 c 0.7,-0.6 0.9,-1.7 0.5,-3.1 -0.4,-1.4 -1.6,-2.5 -3.1,-1.9 l -2.4,0.9 3.6,11.1 2.5,-1 c 1.5,-0.6 1.8,-2.1 1.2,-3.8 -0.6,-1.7 -1.4,-2.4 -2.3,-2.2 z m -3.2,-3.3 0.7,-0.3 c 0.9,-0.3 1.4,0.3 1.7,1.3 0.3,1 0.3,1.8 -0.6,2.2 l -0.7,0.2 c -0.4,-1.1 -0.7,-2.3 -1.1,-3.4 z m 3.5,8.1 -0.8,0.3 -1.2,-3.7 0.8,-0.3 c 0.9,-0.3 1.5,0.4 1.8,1.4 0.3,1 0.2,2 -0.6,2.3 z"
     id="path140" />
  <path
     class="cls-2"
     d="m 158.3,215.9 3.6,11.1 1.3,-0.6 -3.6,-11.1 z"
     id="path142" />
  <path
     class="cls-2"
     d="m 165.9,223.8 c -1.1,-3.2 -2.1,-6.5 -3.2,-9.7 l -1.3,0.5 3.6,11.1 3.8,-1.6 c -0.1,-0.5 -0.3,-0.9 -0.4,-1.4 z"
     id="path144" />
  <path
     class="cls-2"
     d="m 166.4,212.6 3.6,10.9 1.3,-0.5 -3.6,-11 z"
     id="path146" />
  <path
     class="cls-2"
     d="m 173.7,211 -0.4,-1.3 -4.4,1.8 c 0.1,0.5 0.3,0.9 0.4,1.3 l 1.6,-0.6 c 1,3.2 2.1,6.4 3.1,9.6 l 1.3,-0.6 c -1,-3.1 -2.1,-6.3 -3.1,-9.5 z"
     id="path148" />
  <path
     class="cls-2"
     d="m 176.7,208.3 -1.5,0.6 c 0.5,3.9 1.1,7.8 1.6,11.7 l 1.3,-0.6 c -0.1,-0.8 -0.3,-1.7 -0.4,-2.5 l 2.1,-0.9 1.2,2.1 1.3,-0.6 c -1.9,-3.2 -3.7,-6.5 -5.6,-9.8 z m 0.7,7.9 c -0.3,-2.1 -0.6,-4.1 -1,-6.1 1,1.7 1.9,3.5 2.8,5.3 z"
     id="path150" />
  <path
     class="cls-2"
     d="m 180.6,206.4 a 2.7,2.7 0 0 0 -0.8,3.8 c 0.8,1.5 2,1.7 3.2,1.9 1.2,0.2 1.8,0.3 2.3,1.3 a 1.4,1.4 0 0 1 -0.3,2 1.7,1.7 0 0 1 -1.8,0.1 v 1.4 a 2.8,2.8 0 0 0 2.5,-0.3 3,3 0 0 0 0.8,-4.1 4,4 0 0 0 -3.4,-2 c -0.9,-0.2 -1.7,-0.3 -2.1,-1.1 a 1.3,1.3 0 0 1 0.3,-1.9 1.7,1.7 0 0 1 1.4,-0.2 V 206 a 3.2,3.2 0 0 0 -2.1,0.4 z"
     id="path152" />
</svg>
