<?xml version="1.0" encoding="UTF-8" standalone="no"?>
<svg
   xmlns:dc="http://purl.org/dc/elements/1.1/"
   xmlns:cc="http://creativecommons.org/ns#"
   xmlns:rdf="http://www.w3.org/1999/02/22-rdf-syntax-ns#"
   xmlns:svg="http://www.w3.org/2000/svg"
   xmlns="http://www.w3.org/2000/svg"
   xmlns:sodipodi="http://sodipodi.sourceforge.net/DTD/sodipodi-0.dtd"
   xmlns:inkscape="http://www.inkscape.org/namespaces/inkscape"
   width="39.21241mm"
   height="19.125738mm"
   viewBox="0 0 39.212409 19.125737"
   version="1.1"
   id="svg67976"
   inkscape:version="1.0.1 (3bc2e813f5, 2020-09-07)"
   sodipodi:docname="st-margarets-school.svg">
  <defs
     id="defs67970">
    <clipPath
       id="clipPath184898"
       clipPathUnits="userSpaceOnUse">
      <path
         inkscape:connector-curvature="0"
         id="path184896"
         d="M 0,0 H 532.913 V 773.858 H 0 Z" />
    </clipPath>
    <clipPath
       id="clipPath184968"
       clipPathUnits="userSpaceOnUse">
      <path
         inkscape:connector-curvature="0"
         id="path184966"
         d="M 0,0 H 532.913 V 773.858 H 0 Z" />
    </clipPath>
    <clipPath
       id="clipPath184982"
       clipPathUnits="userSpaceOnUse">
      <path
         inkscape:connector-curvature="0"
         id="path184980"
         d="M 0,0 H 532.913 V 773.858 H 0 Z" />
    </clipPath>
    <clipPath
       id="clipPath185006"
       clipPathUnits="userSpaceOnUse">
      <path
         inkscape:connector-curvature="0"
         id="path185004"
         d="M 0,0 H 532.913 V 773.858 H 0 Z" />
    </clipPath>
  </defs>
  <sodipodi:namedview
     id="base"
     pagecolor="#ffffff"
     bordercolor="#666666"
     borderopacity="1.0"
     inkscape:pageopacity="0.0"
     inkscape:pageshadow="2"
     inkscape:zoom="2.8"
     inkscape:cx="2.085326"
     inkscape:cy="49.719862"
     inkscape:document-units="mm"
     inkscape:current-layer="g185002"
     showgrid="false"
     fit-margin-top="0"
     fit-margin-left="0"
     fit-margin-right="0"
     fit-margin-bottom="0"
     inkscape:pagecheckerboard="true"
     inkscape:window-width="1920"
     inkscape:window-height="1000"
     inkscape:window-x="1920"
     inkscape:window-y="0"
     inkscape:window-maximized="1"
     inkscape:document-rotation="0" />
  <metadata
     id="metadata67973">
    <rdf:RDF>
      <cc:Work
         rdf:about="">
        <dc:format>image/svg+xml</dc:format>
        <dc:type
           rdf:resource="http://purl.org/dc/dcmitype/StillImage" />
        <dc:title />
      </cc:Work>
    </rdf:RDF>
  </metadata>
  <g
     inkscape:label="Layer 1"
     inkscape:groupmode="layer"
     id="layer1"
     transform="translate(1018.4423,400.39573)">
    <g
       id="g184962"
       transform="matrix(0.35277777,0,0,-0.35277777,-1154.2188,-143.89641)">
      <g
         id="g184964"
         clip-path="url(#clipPath184968)">
        <g
           id="g184970"
           transform="translate(476.6542,697.5323)" />
      </g>
    </g>
    <g
       id="g186109">
      <g
         transform="matrix(0.35277777,0,0,-0.35277777,-1154.2188,-143.89641)"
         id="g184892">
        <g
           clip-path="url(#clipPath184898)"
           id="g184894">
          <g
             transform="translate(403.8684,681.6566)"
             id="g184900">
            <path
               inkscape:connector-curvature="0"
               id="path184902"
               style="fill:#ffffff;fill-opacity:1;fill-rule:nonzero;stroke:none"
               d="M 0,0 C -0.387,-0.049 -0.487,-0.116 -0.716,-0.685 -0.898,-1.131 -1.461,-2.58 -1.913,-3.839 h -0.252 c -0.399,1.119 -0.928,2.537 -1.203,3.264 -0.176,0.465 -0.27,0.538 -0.628,0.575 v 0.202 h 1.637 V 0 c -0.429,-0.061 -0.434,-0.122 -0.34,-0.385 0.164,-0.471 0.61,-1.687 0.891,-2.439 h 0.012 c 0.317,0.85 0.634,1.73 0.804,2.292 0.129,0.397 0.112,0.471 -0.364,0.532 V 0.202 H 0 Z" />
          </g>
          <g
             transform="translate(405.6213,677.885)"
             id="g184904">
            <path
               inkscape:connector-curvature="0"
               id="path184906"
               style="fill:#ffffff;fill-opacity:1;fill-rule:nonzero;stroke:none"
               d="m 0,0 v 0.196 c 0.452,0.042 0.505,0.079 0.505,0.599 v 2.377 c 0,0.52 -0.053,0.563 -0.505,0.6 V 3.973 H 1.684 V 3.772 C 1.232,3.735 1.186,3.692 1.186,3.172 V 0.795 c 0,-0.514 0.046,-0.557 0.498,-0.599 V 0 Z" />
          </g>
          <g
             transform="translate(412.7799,677.83)"
             id="g184908">
            <path
               inkscape:connector-curvature="0"
               id="path184910"
               style="fill:#ffffff;fill-opacity:1;fill-rule:nonzero;stroke:none"
               d="m 0,0 c -0.047,0 -0.117,0.006 -0.182,0.006 -0.634,0.031 -0.869,0.19 -1.115,0.581 -0.17,0.269 -0.352,0.617 -0.522,0.929 -0.094,0.183 -0.2,0.257 -0.429,0.257 H -2.383 V 0.85 c 0,-0.501 0.053,-0.557 0.505,-0.599 V 0.055 h -1.69 v 0.196 c 0.452,0.042 0.516,0.091 0.516,0.599 v 2.39 c 0,0.501 -0.053,0.55 -0.493,0.587 v 0.201 h 1.579 c 0.481,0 0.775,-0.061 1.009,-0.22 0.235,-0.165 0.393,-0.434 0.393,-0.813 0,-0.532 -0.334,-0.831 -0.739,-1.008 0.094,-0.19 0.317,-0.599 0.493,-0.874 0.211,-0.337 0.334,-0.52 0.464,-0.655 C -0.211,0.3 -0.1,0.226 0.035,0.183 Z m -2.189,1.999 c 0.27,0 0.464,0.049 0.598,0.165 0.206,0.177 0.294,0.422 0.294,0.74 0,0.654 -0.376,0.898 -0.751,0.898 -0.153,0 -0.241,-0.03 -0.282,-0.061 C -2.371,3.704 -2.383,3.637 -2.383,3.496 V 1.999 Z" />
          </g>
          <g
             transform="translate(417.4377,680.8497)"
             id="g184912">
            <path
               inkscape:connector-curvature="0"
               id="path184914"
               style="fill:#ffffff;fill-opacity:1;fill-rule:nonzero;stroke:none"
               d="M 0,0 C -0.07,0.306 -0.141,0.495 -0.229,0.599 -0.335,0.721 -0.463,0.758 -0.845,0.758 H -1.162 V -2.17 c 0,-0.507 0.053,-0.556 0.587,-0.599 v -0.196 h -1.831 v 0.196 c 0.505,0.043 0.563,0.092 0.563,0.599 v 2.928 h -0.264 c -0.481,0 -0.592,-0.055 -0.674,-0.171 -0.089,-0.104 -0.153,-0.3 -0.224,-0.593 h -0.199 c 0.023,0.416 0.059,0.85 0.07,1.167 h 0.135 c 0.088,-0.14 0.165,-0.152 0.329,-0.152 h 2.347 C -0.17,1.009 -0.1,1.045 0,1.161 h 0.135 c 0,-0.263 0.029,-0.77 0.059,-1.149 z" />
          </g>
          <g
             transform="translate(423.4749,681.6566)"
             id="g184916">
            <path
               inkscape:connector-curvature="0"
               id="path184918"
               style="fill:#ffffff;fill-opacity:1;fill-rule:nonzero;stroke:none"
               d="m 0,0 c -0.335,-0.018 -0.475,-0.128 -0.505,-0.361 -0.023,-0.177 -0.041,-0.415 -0.041,-0.898 v -0.605 c 0,-0.673 -0.1,-1.192 -0.434,-1.559 -0.27,-0.293 -0.669,-0.434 -1.074,-0.434 -0.37,0 -0.728,0.079 -1.004,0.306 -0.334,0.268 -0.498,0.727 -0.498,1.442 v 1.467 c 0,0.569 -0.053,0.599 -0.499,0.642 v 0.202 h 1.678 V 0 C -2.817,-0.037 -2.87,-0.073 -2.87,-0.642 v -1.351 c 0,-0.935 0.335,-1.479 1.004,-1.479 0.751,0 1.044,0.611 1.044,1.632 v 0.581 c 0,0.477 -0.029,0.721 -0.053,0.911 C -0.91,-0.128 -1.039,-0.024 -1.444,0 V 0.202 H 0 Z" />
          </g>
          <g
             transform="translate(428.4261,680.8497)"
             id="g184920">
            <path
               inkscape:connector-curvature="0"
               id="path184922"
               style="fill:#ffffff;fill-opacity:1;fill-rule:nonzero;stroke:none"
               d="M 0,0 C -0.071,0.306 -0.141,0.495 -0.229,0.599 -0.335,0.721 -0.464,0.758 -0.845,0.758 H -1.162 V -2.17 c 0,-0.507 0.053,-0.556 0.587,-0.599 v -0.196 h -1.831 v 0.196 c 0.504,0.043 0.563,0.092 0.563,0.599 V 0.758 H -2.107 C -2.588,0.758 -2.7,0.703 -2.782,0.587 -2.87,0.483 -2.934,0.287 -3.005,-0.006 h -0.199 c 0.023,0.416 0.058,0.85 0.07,1.167 h 0.135 c 0.088,-0.14 0.164,-0.152 0.329,-0.152 h 2.347 c 0.152,0 0.223,0.036 0.323,0.152 h 0.135 c 0,-0.263 0.029,-0.77 0.059,-1.149 z" />
          </g>
          <g
             transform="translate(433.53,678.8813)"
             id="g184924">
            <path
               inkscape:connector-curvature="0"
               id="path184926"
               style="fill:#ffffff;fill-opacity:1;fill-rule:nonzero;stroke:none"
               d="M 0,0 C -0.035,-0.244 -0.153,-0.813 -0.205,-0.996 H -3.14 v 0.195 c 0.511,0.043 0.564,0.086 0.564,0.599 v 2.378 c 0,0.538 -0.053,0.563 -0.482,0.599 v 0.202 h 2.706 c 0.006,-0.122 0.035,-0.55 0.059,-0.905 l -0.2,-0.03 C -0.546,2.274 -0.616,2.451 -0.71,2.567 -0.804,2.683 -0.962,2.726 -1.326,2.726 H -1.667 C -1.872,2.726 -1.89,2.714 -1.89,2.519 V 1.192 h 0.452 c 0.505,0 0.564,0.037 0.64,0.458 h 0.199 V 0.44 h -0.199 c -0.076,0.44 -0.135,0.465 -0.64,0.465 H -1.89 v -1.088 c 0,-0.294 0.03,-0.434 0.141,-0.502 0.106,-0.061 0.311,-0.067 0.552,-0.067 0.358,0 0.551,0.043 0.686,0.202 0.112,0.128 0.218,0.33 0.317,0.587 z" />
          </g>
          <g
             transform="translate(441.1389,678.8813)"
             id="g184928">
            <path
               inkscape:connector-curvature="0"
               id="path184930"
               style="fill:#ffffff;fill-opacity:1;fill-rule:nonzero;stroke:none"
               d="m 0,0 c -0.035,-0.244 -0.153,-0.813 -0.205,-0.996 h -2.934 v 0.195 c 0.51,0.043 0.563,0.086 0.563,0.599 v 2.378 c 0,0.538 -0.053,0.563 -0.481,0.599 v 0.202 h 2.705 c 0.006,-0.122 0.035,-0.55 0.059,-0.905 l -0.2,-0.03 C -0.546,2.274 -0.616,2.451 -0.71,2.567 -0.804,2.683 -0.962,2.726 -1.326,2.726 H -1.667 C -1.872,2.726 -1.89,2.714 -1.89,2.519 V 1.192 h 0.452 c 0.505,0 0.564,0.037 0.64,0.458 h 0.199 V 0.44 h -0.199 c -0.076,0.44 -0.135,0.465 -0.64,0.465 H -1.89 v -1.088 c 0,-0.294 0.03,-0.434 0.141,-0.502 0.106,-0.061 0.311,-0.067 0.552,-0.067 0.358,0 0.551,0.043 0.687,0.202 0.111,0.128 0.217,0.33 0.316,0.587 z" />
          </g>
          <g
             transform="translate(446.026,680.8497)"
             id="g184932">
            <path
               inkscape:connector-curvature="0"
               id="path184934"
               style="fill:#ffffff;fill-opacity:1;fill-rule:nonzero;stroke:none"
               d="M 0,0 C -0.071,0.306 -0.141,0.495 -0.229,0.599 -0.335,0.721 -0.464,0.758 -0.845,0.758 H -1.162 V -2.17 c 0,-0.507 0.053,-0.556 0.587,-0.599 v -0.196 h -1.831 v 0.196 c 0.504,0.043 0.563,0.092 0.563,0.599 V 0.758 H -2.107 C -2.588,0.758 -2.7,0.703 -2.782,0.587 -2.87,0.483 -2.934,0.287 -3.005,-0.006 h -0.199 c 0.023,0.416 0.058,0.85 0.07,1.167 h 0.135 c 0.088,-0.14 0.164,-0.152 0.329,-0.152 h 2.347 C -0.17,1.009 -0.1,1.045 0,1.161 h 0.135 c 0,-0.263 0.029,-0.77 0.059,-1.149 z" />
          </g>
          <g
             transform="translate(453.7639,678.8936)"
             id="g184936">
            <path
               inkscape:connector-curvature="0"
               id="path184938"
               style="fill:#ffffff;fill-opacity:1;fill-rule:nonzero;stroke:none"
               d="m 0,0 c -0.047,-0.238 -0.164,-0.837 -0.217,-1.009 h -2.782 v 0.196 c 0.499,0.043 0.558,0.086 0.558,0.605 V 2.17 c 0,0.52 -0.053,0.556 -0.511,0.593 v 0.202 h 1.696 V 2.763 C -1.708,2.726 -1.761,2.69 -1.761,2.17 v -2.402 c 0,-0.3 0.024,-0.416 0.141,-0.471 0.106,-0.049 0.276,-0.061 0.481,-0.061 0.282,0 0.488,0.037 0.623,0.202 0.111,0.122 0.217,0.318 0.317,0.611 z" />
          </g>
          <g
             transform="translate(457.7821,677.885)"
             id="g184940">
            <path
               inkscape:connector-curvature="0"
               id="path184942"
               style="fill:#ffffff;fill-opacity:1;fill-rule:nonzero;stroke:none"
               d="M 0,0 V 0.196 C 0.352,0.251 0.387,0.318 0.305,0.575 0.241,0.776 0.141,1.064 0.035,1.357 H -1.132 C -1.209,1.131 -1.291,0.899 -1.361,0.654 -1.461,0.324 -1.432,0.251 -1.003,0.196 V 0 h -1.298 v 0.196 c 0.382,0.055 0.458,0.11 0.658,0.635 l 1.203,3.161 0.258,0.073 C 0.194,3.001 0.564,1.901 0.945,0.85 1.139,0.312 1.215,0.245 1.59,0.196 V 0 Z M -0.528,3.062 H -0.546 C -0.716,2.592 -0.874,2.115 -1.039,1.657 h 0.974 z" />
          </g>
          <g
             transform="translate(463.2323,680.0184)"
             id="g184944">
            <path
               inkscape:connector-curvature="0"
               id="path184946"
               style="fill:#ffffff;fill-opacity:1;fill-rule:nonzero;stroke:none"
               d="m 0,0 c 0.646,-0.086 1.097,-0.367 1.097,-0.96 0,-0.409 -0.211,-0.727 -0.551,-0.917 -0.3,-0.177 -0.728,-0.256 -1.209,-0.256 h -1.42 v 0.201 c 0.469,0.037 0.516,0.08 0.516,0.593 v 2.384 c 0,0.514 -0.041,0.556 -0.475,0.593 V 1.84 h 1.637 C 0.041,1.84 0.323,1.773 0.534,1.626 0.745,1.485 0.875,1.229 0.875,0.935 0.875,0.348 0.393,0.11 0,0.024 Z m -0.704,0.086 c 0.592,0 0.851,0.244 0.851,0.751 0,0.502 -0.282,0.771 -0.687,0.771 -0.135,0 -0.246,-0.037 -0.287,-0.074 C -0.874,1.498 -0.892,1.412 -0.892,1.259 V 0.086 Z m -0.188,-1.413 c 0,-0.446 0.118,-0.574 0.452,-0.568 0.381,0.006 0.775,0.257 0.775,0.874 0,0.587 -0.37,0.874 -1.051,0.874 h -0.176 z" />
          </g>
          <g
             transform="translate(468.3892,681.9438)"
             id="g184948">
            <path
               inkscape:connector-curvature="0"
               id="path184950"
               style="fill:#ffffff;fill-opacity:1;fill-rule:nonzero;stroke:none"
               d="m 0,0 c 1.039,0 1.925,-0.813 1.925,-2.029 0,-1.315 -0.904,-2.122 -2.001,-2.122 -1.133,0 -1.955,0.887 -1.955,2.061 0,1.063 0.728,2.09 2.025,2.09 z m -0.123,-0.238 c -0.605,0 -1.115,-0.63 -1.115,-1.718 0,-1.082 0.498,-1.95 1.279,-1.95 0.593,0 1.091,0.569 1.091,1.712 0,1.24 -0.533,1.956 -1.25,1.956 z" />
          </g>
          <g
             transform="translate(475.7406,677.83)"
             id="g184952">
            <path
               inkscape:connector-curvature="0"
               id="path184954"
               style="fill:#ffffff;fill-opacity:1;fill-rule:nonzero;stroke:none"
               d="m 0,0 c -0.047,0 -0.118,0.006 -0.182,0.006 -0.634,0.031 -0.869,0.19 -1.115,0.581 -0.17,0.269 -0.352,0.617 -0.523,0.929 -0.093,0.183 -0.199,0.257 -0.428,0.257 H -2.383 V 0.85 c 0,-0.501 0.053,-0.557 0.505,-0.599 V 0.055 h -1.69 v 0.196 c 0.452,0.042 0.516,0.091 0.516,0.599 v 2.39 c 0,0.501 -0.053,0.55 -0.493,0.587 v 0.201 h 1.579 c 0.481,0 0.775,-0.061 1.009,-0.22 0.235,-0.165 0.393,-0.434 0.393,-0.813 0,-0.532 -0.334,-0.831 -0.739,-1.008 0.094,-0.19 0.317,-0.599 0.493,-0.874 0.211,-0.337 0.334,-0.52 0.464,-0.655 C -0.211,0.3 -0.1,0.226 0.035,0.183 Z m -2.189,1.999 c 0.27,0 0.464,0.049 0.598,0.165 0.206,0.177 0.294,0.422 0.294,0.74 0,0.654 -0.376,0.898 -0.751,0.898 -0.153,0 -0.241,-0.03 -0.282,-0.061 C -2.371,3.704 -2.383,3.637 -2.383,3.496 V 1.999 Z" />
          </g>
          <g
             transform="translate(480.5156,678.8813)"
             id="g184956">
            <path
               inkscape:connector-curvature="0"
               id="path184958"
               style="fill:#ffffff;fill-opacity:1;fill-rule:nonzero;stroke:none"
               d="m 0,0 c -0.035,-0.244 -0.152,-0.813 -0.205,-0.996 h -2.934 v 0.195 c 0.51,0.043 0.563,0.086 0.563,0.599 v 2.378 c 0,0.538 -0.053,0.563 -0.481,0.599 v 0.202 h 2.705 c 0.006,-0.122 0.035,-0.55 0.059,-0.905 l -0.2,-0.03 C -0.546,2.274 -0.616,2.451 -0.71,2.567 -0.804,2.683 -0.962,2.726 -1.326,2.726 h -0.341 c -0.205,0 -0.222,-0.012 -0.222,-0.207 V 1.192 h 0.451 c 0.505,0 0.564,0.037 0.64,0.458 h 0.199 V 0.44 h -0.199 c -0.076,0.44 -0.135,0.465 -0.64,0.465 h -0.451 v -1.088 c 0,-0.294 0.029,-0.434 0.14,-0.502 0.106,-0.061 0.311,-0.067 0.552,-0.067 0.358,0 0.552,0.043 0.687,0.202 0.111,0.128 0.217,0.33 0.316,0.587 z" />
          </g>
        </g>
      </g>
      <path
         inkscape:connector-curvature="0"
         id="path184960"
         style="fill:#ffffff;fill-opacity:1;fill-rule:nonzero;stroke:none;stroke-width:0.352778"
         d="m -1013.8365,-381.26999 h 29.81181 v -0.0744 h -29.81181 z" />
      <g
         transform="matrix(0.35277777,0,0,-0.35277777,-986.06579,-389.9703)"
         id="g184972">
        <path
           inkscape:connector-curvature="0"
           id="path184974"
           style="fill:none;stroke:#8b6f4c;stroke-width:0.89;stroke-linecap:butt;stroke-linejoin:miter;stroke-miterlimit:4;stroke-dasharray:none;stroke-opacity:1"
           d="M 0,0 Z" />
      </g>
      <g
         transform="matrix(0.35277777,0,0,-0.35277777,-1154.2188,-143.89641)"
         id="g184976">
        <g
           clip-path="url(#clipPath184982)"
           id="g184978">
          <g
             transform="translate(474.3338,714.02)"
             id="g184984">
            <path
               inkscape:connector-curvature="0"
               id="path184986"
               style="fill:#ffffff;fill-opacity:1;fill-rule:nonzero;stroke:none"
               d="m 0,0 c 0.231,-0.963 -0.073,1.372 -0.439,1.755 -0.366,0.381 -0.512,0 -1.098,0.685 -0.586,0.686 -0.586,1.069 -0.806,1.069 -0.218,0 0.075,-1.526 0.513,-2.214 C -1.391,0.61 -1.318,0.382 -0.878,0.458 -0.516,0.52 -0.073,0.306 0,0" />
          </g>
          <g
             transform="translate(474.1913,713.6942)"
             id="g184988">
            <path
               inkscape:connector-curvature="0"
               id="path184990"
               style="fill:#ffffff;fill-opacity:1;fill-rule:nonzero;stroke:none"
               d="M 0,0 C -0.013,0.029 -0.02,0.049 -0.027,0.074 -0.043,0.121 -0.06,0.183 -0.08,0.267 -0.084,0.37 -0.357,0.566 -0.606,0.555 -0.636,0.555 -0.668,0.554 -0.701,0.547 -0.76,0.538 -0.819,0.53 -0.881,0.53 -1.102,0.522 -1.305,0.647 -1.433,0.814 -1.568,0.98 -1.688,1.193 -1.878,1.49 c -0.373,0.598 -0.62,1.603 -0.626,2.125 0,0.084 0.005,0.158 0.029,0.239 0.016,0.068 0.107,0.219 0.276,0.22 0.282,-0.016 0.372,-0.24 0.463,-0.396 0.1,-0.181 0.233,-0.425 0.513,-0.751 C -0.944,2.606 -0.83,2.576 -0.71,2.54 -0.594,2.516 -0.351,2.487 -0.135,2.25 0.083,2 0.182,1.584 0.29,1.144 0.387,0.706 0.45,0.308 0.452,0.131 0.452,0.114 0.453,0.096 0.447,0.063 0.429,0.059 0.476,-0.086 0.216,-0.145 -0.019,-0.092 0.033,-0.013 0,0 M -0.134,0.932 C -0.14,0.965 -0.148,1 -0.157,1.035 -0.24,1.438 -0.4,1.868 -0.46,1.91 -0.608,2.055 -0.621,2.027 -0.816,2.075 -1.008,2.119 -1.261,2.243 -1.567,2.609 -1.76,2.835 -1.9,3.041 -2.001,3.205 c 0.086,-0.467 0.284,-1.117 0.504,-1.45 0.196,-0.306 0.32,-0.52 0.412,-0.629 0.101,-0.108 0.107,-0.11 0.204,-0.117 0.026,0 0.064,0.003 0.107,0.011 0.056,0.01 0.111,0.015 0.168,0.015 0.16,-0.005 0.325,-0.038 0.472,-0.103" />
          </g>
        </g>
      </g>
      <g
         transform="matrix(0.35277777,0,0,-0.35277777,-979.27966,-399.56702)"
         id="g184992">
        <path
           inkscape:connector-curvature="0"
           id="path184994"
           style="fill:#ffffff;fill-opacity:1;fill-rule:nonzero;stroke:none"
           d="m 0,0 -0.087,0.289 -20.989,-4.982 0.093,-0.398 1.978,-2.34 0.212,-0.3 z" />
      </g>
      <g
         transform="matrix(0.35277777,0,0,-0.35277777,-985.94215,-396.81468)"
         id="g184996">
        <path
           inkscape:connector-curvature="0"
           id="path184998"
           style="fill:#ffffff;fill-opacity:1;fill-rule:nonzero;stroke:none"
           d="m 0,0 -0.206,0.29 -1.997,2.365 -0.165,0.319 21.245,5.259 0.032,-0.106 0.087,-0.29 -0.11,-0.035 0.11,0.035 L 19.027,7.731 0.053,-0.073 Z M -2.052,3.019 -1.992,2.767 -0.028,0.442 0.133,0.216 18.744,7.87 18.721,7.951 Z" />
      </g>
      <g
         transform="matrix(0.35277777,0,0,-0.35277777,-1154.2188,-143.89641)"
         id="g185000">
        <g
           clip-path="url(#clipPath185006)"
           id="g185002">
          <g
             transform="translate(472.1912,705.2046)"
             id="g185008">
            <path
               inkscape:connector-curvature="0"
               id="path185010"
               style="fill:#ffffff;fill-opacity:1;fill-rule:nonzero;stroke:none"
               d="m 0,0 c -0.233,0.552 -0.296,1.558 -1.282,1.819 l -0.266,0.048 c -1.804,0.4 -5.116,0.486 -5.638,6.281 H -7.259 C -7.528,2.326 -3.711,1.597 -1.914,1.234 l 0.536,-0.027 c 0.878,-0.251 0.989,-0.651 1.246,-1.22 v -0.001 z" />
          </g>
          <g
             transform="translate(471.9432,705.165)"
             id="g185012">
            <path
               inkscape:connector-curvature="0"
               id="path185014"
               style="fill:#ffffff;fill-opacity:1;fill-rule:nonzero;stroke:none"
               d="m 0,0 c -0.261,0.566 -0.325,0.883 -1.135,1.128 l -0.554,0.028 c -1.731,0.337 -5.459,1.085 -5.451,6.459 0,0.188 0.005,0.38 0.014,0.579 l 0.005,0.113 h 0.11 0.176 l 0.01,-0.108 C -6.289,2.467 -3.104,2.445 -1.28,2.026 L -1.007,1.973 C 0.063,1.689 0.133,0.592 0.353,0.089 L 0.248,0.04 0.353,0.089 0.417,-0.062 0.259,-0.078 0,-0.106 Z M -1.661,1.394 -1.099,1.363 C -0.56,1.214 -0.282,0.986 -0.094,0.708 -0.251,1.157 -0.479,1.59 -1.056,1.74 L -1.325,1.791 C -2.969,2.14 -6.033,2.294 -6.89,6.945 -6.592,2.338 -3.31,1.74 -1.661,1.394" />
          </g>
          <g
             transform="translate(465.0296,714.4965)"
             id="g185016">
            <path
               inkscape:connector-curvature="0"
               id="path185018"
               style="fill:#ffffff;fill-opacity:1;fill-rule:nonzero;stroke:none"
               d="M 0,0 C -0.001,1.422 0.098,2.324 0.385,3.022 L 0.249,3.082 C -0.049,2.352 -0.146,1.428 -0.147,0 Z" />
          </g>
          <g
             transform="translate(465.0296,714.3776)"
             id="g185020">
            <path
               inkscape:connector-curvature="0"
               id="path185022"
               style="fill:#ffffff;fill-opacity:1;fill-rule:nonzero;stroke:none"
               d="m 0,0 h -0.262 v 0.119 c 0.001,1.432 0.097,2.372 0.405,3.128 L 0.19,3.356 0.295,3.31 0.535,3.203 0.49,3.093 C 0.213,2.427 0.113,1.541 0.115,0.13 V 0.128 L 0,0.119 v 0.12 -0.12 L 0.115,0.128 0.122,0 Z" />
          </g>
          <g
             transform="translate(479.0345,723.8988)"
             id="g185024">
            <path
               inkscape:connector-curvature="0"
               id="path185026"
               style="fill:#ffffff;fill-opacity:1;fill-rule:nonzero;stroke:none"
               d="M 0,0 -0.012,0.011 V 0.012 L -0.095,0.047 C -0.174,0.035 -0.64,-0.139 -1.27,-0.234 c -0.522,-0.079 -1.643,-0.464 -2.196,-0.659 0.018,0.168 0.079,0.409 0.265,0.721 0.337,0.564 0.411,0.853 0.412,1.038 0,0.078 -0.015,0.138 -0.034,0.179 L -2.869,1.136 -2.901,1.205 -3.073,1.195 C -3.088,1.193 -3.094,1.193 -3.094,1.193 -3.275,1.177 -4.671,1.055 -6.168,0.415 -7.79,-0.282 -8.376,-1.38 -8.398,-1.421 L -8.435,-1.5 -8.044,-1.893 h 0.047 c 0.113,0.026 0.073,0.042 0.09,0.045 0.023,0.035 0.028,0.054 0.102,0.162 0.065,0.093 0.281,0.361 0.433,0.52 -0.01,-0.008 1.074,0.864 1.645,1.098 0.525,0.216 1.781,0.682 2.354,0.711 C -3.421,0.521 -3.503,0.35 -3.644,0.117 -3.92,-0.344 -3.994,-0.729 -3.992,-0.995 h -0.002 c 0,-0.006 0.001,-0.011 0.002,-0.015 0.002,-0.203 0.044,-0.327 0.052,-0.354 l 0.082,-0.179 0.049,-0.111 0.233,0.122 c 0.323,0.088 1.997,0.596 2.19,0.639 0.102,0.024 0.265,0.056 0.424,0.087 -0.323,-0.308 -0.691,-0.679 -0.955,-1.18 -0.524,-0.986 -1.063,-1.207 -1.513,-1.401 -0.5,-0.208 -0.965,-0.606 -0.967,-0.604 l -0.117,-0.077 0.204,-0.218 0.034,-0.036 h 0.113 l 0.086,-0.027 0.015,-0.007 h 0.02 c 0.08,0.013 0.048,0.018 0.062,0.019 0.028,0.019 0.34,0.278 0.746,0.445 0.467,0.19 1.202,0.534 1.776,1.644 0.252,0.485 0.647,0.944 0.978,1.276 0.166,0.167 0.314,0.302 0.421,0.395 0.051,0.047 0.096,0.081 0.125,0.105 0.004,0.006 0.01,0.009 0.014,0.014 z" />
          </g>
          <g
             transform="translate(475.7711,719.0668)"
             id="g185028">
            <path
               inkscape:connector-curvature="0"
               id="path185030"
               style="fill:#ffffff;fill-opacity:1;fill-rule:nonzero;stroke:none"
               d="m 0,0 1.126,-2.122 3.364,1.738 c 0,0 -0.391,-0.261 -2.158,-0.486 C 0.715,-1.077 0,0 0,0" />
          </g>
          <g
             transform="translate(475.5683,718.9503)"
             id="g185032">
            <path
               inkscape:connector-curvature="0"
               id="path185034"
               style="fill:#ffffff;fill-opacity:1;fill-rule:nonzero;stroke:none"
               d="M 0,0 0.391,0.253 C 0.393,0.254 0.415,0.214 0.483,0.141 0.551,0.067 0.655,-0.032 0.797,-0.133 c 0.285,-0.202 0.717,-0.408 1.335,-0.408 0.119,0 0.243,0.008 0.376,0.024 1.31,0.167 1.846,0.354 2.007,0.426 0.004,0.001 0.006,0.002 0.008,0.003 L 4.591,-0.054 4.817,-0.47 C 4.806,-0.477 4.778,-0.494 4.727,-0.517 L 1.234,-2.322 Z m 1.424,-1.691 1.427,0.739 C 2.758,-0.966 2.663,-0.979 2.564,-0.991 2.413,-1.011 2.269,-1.018 2.132,-1.018 c -0.49,0 -0.888,0.111 -1.202,0.26 z m -1.41,1.672 0.189,0.135 z" />
          </g>
          <g
             transform="translate(440.5967,692.9249)"
             id="g185036" />
          <g
             transform="translate(407.5265,713.5381)"
             id="g185038">
            <path
               inkscape:connector-curvature="0"
               id="path185040"
               style="fill:#ffffff;fill-opacity:1;fill-rule:nonzero;stroke:none"
               d="m 0,0 c -0.243,-1.007 0.076,1.431 0.457,1.832 0.382,0.396 0.536,0 1.147,0.715 C 2.217,3.264 2.217,3.662 2.445,3.662 2.674,3.662 2.369,2.07 1.91,1.353 1.452,0.636 1.374,0.397 0.917,0.475 0.541,0.541 0.076,0.316 0,0" />
          </g>
          <g
             transform="translate(408.911,697.8019)"
             id="g185042">
            <path
               inkscape:connector-curvature="0"
               id="path185044"
               style="fill:#ffffff;fill-opacity:1;fill-rule:nonzero;stroke:none"
               d="m 0,0 -0.048,0.063 0.019,0.076 c -0.005,0 0,0.01 0,0.059 0,0.079 -0.01,0.222 -0.097,0.424 -0.171,0.436 -0.261,1.633 -0.316,2.333 -0.006,0.062 -0.007,0.121 -0.007,0.183 -0.001,0.683 0.289,1.36 0.918,2.012 0.646,0.675 1.23,1.594 1.23,1.595 L 2.065,6.757 C 1.827,5.948 1.653,6.227 1.495,3.818 1.487,3.7 1.482,3.589 1.482,3.49 1.482,3.158 1.457,2.416 1.52,2.29 1.584,2.168 1.63,2.144 1.723,2.139 1.895,2.129 2.157,2.305 2.561,2.711 3.112,3.258 3.665,3.518 4.175,3.518 4.592,3.518 4.974,3.339 5.272,3.027 5.507,2.783 5.606,2.475 5.604,2.195 5.604,1.789 5.357,1.32 4.96,1.307 4.832,1.307 4.7,1.359 4.579,1.455 4.304,1.646 4.313,1.957 4.324,2.058 4.307,2.139 4.371,2.122 4.091,2.296 4.061,2.311 4.038,2.316 4.009,2.316 3.854,2.341 3.522,2.011 3.207,1.541 2.879,1.074 2.532,0.505 2.166,0.099 1.773,-0.339 1.369,-0.543 0.992,-0.543 0.593,-0.543 0.252,-0.323 0,0 m 0.992,-0.224 c 0.27,0 0.592,0.145 0.952,0.54 0.335,0.371 0.681,0.936 1.014,1.41 0.344,0.473 0.637,0.887 1.051,0.908 0.074,0 0.152,-0.018 0.223,-0.056 C 4.547,2.432 4.642,2.207 4.63,2.063 4.578,1.737 5.226,1.438 5.297,2.195 5.297,2.399 5.228,2.624 5.057,2.803 4.803,3.063 4.511,3.199 4.175,3.199 3.771,3.199 3.288,2.988 2.772,2.482 2.34,2.062 1.983,1.799 1.638,1.79 1.437,1.783 1.253,1.915 1.161,2.116 1.065,2.32 1.101,2.588 1.099,2.945 c 0,0 0.006,0.228 0.012,0.354 0,0 0.066,1.907 0.192,2.33 L 1.242,5.572 C 1.074,5.358 0.882,5.13 0.685,4.925 0.097,4.31 -0.142,3.724 -0.144,3.138 -0.144,3.086 -0.142,3.033 -0.137,2.98 -0.09,2.3 0.029,1.065 0.139,0.721 c 0,0 0.044,-0.178 0.201,-0.466 0,0 0.385,-0.479 0.652,-0.479" />
          </g>
          <g
             transform="translate(409.8999,697.1432)"
             id="g185046">
            <path
               inkscape:connector-curvature="0"
               id="path185048"
               style="fill:#ffffff;fill-opacity:1;fill-rule:nonzero;stroke:none"
               d="m 0,0 c -0.44,0 -0.81,0.246 -1.076,0.583 l 0.087,0.076 -0.087,-0.075 -0.087,0.111 0.015,0.054 0.016,0.065 c 10e-4,0.03 10e-4,0.008 0.002,0.043 0,0.064 -0.01,0.189 -0.09,0.379 -0.184,0.477 -0.267,1.665 -0.324,2.368 -0.005,0.066 -0.008,0.13 -0.005,0.163 -0.006,0.02 -0.003,0.034 -0.003,0.035 -0.003,0.718 0.31,1.427 0.951,2.091 0.583,0.605 1.125,1.433 1.201,1.556 L 0.611,7.522 0.706,7.523 1.231,7.537 1.186,7.382 C 0.932,6.534 0.781,6.883 0.617,4.468 0.611,4.354 0.607,4.247 0.607,4.148 0.605,3.999 0.601,3.772 0.601,3.559 0.596,3.293 0.62,3.007 0.628,3.008 0.702,2.897 0.667,2.933 0.735,2.914 H 0.746 C 0.842,2.906 1.107,3.062 1.493,3.455 2.058,4.014 2.637,4.294 3.186,4.296 3.637,4.297 4.046,4.102 4.363,3.771 4.609,3.513 4.72,3.191 4.729,2.892 H 4.73 V 2.854 C 4.725,2.408 4.465,1.876 3.971,1.848 3.814,1.848 3.658,1.912 3.527,2.013 3.262,2.2 3.215,2.484 3.217,2.64 c 0,0.027 0,0.052 0.004,0.075 C 3.218,2.722 3.217,2.731 3.217,2.736 3.197,2.753 3.145,2.791 3.048,2.852 3.029,2.858 3.034,2.857 3,2.86 V 2.862 C 2.943,2.876 2.589,2.571 2.307,2.129 1.981,1.668 1.637,1.096 1.26,0.675 0.852,0.224 0.421,-0.002 0.003,-0.002 Z M 0,0.236 0.003,0.234 c 0.339,0 0.711,0.183 1.091,0.602 0.354,0.397 0.702,0.963 1.029,1.433 0.328,0.462 0.607,0.8 0.881,0.827 0.009,0 0.017,-0.002 0.017,-0.002 0.045,0 0.095,-0.012 0.138,-0.039 C 3.3,2.963 3.355,2.933 3.404,2.876 3.459,2.794 3.438,2.741 3.446,2.741 L 3.449,2.721 3.448,2.699 C 3.446,2.69 3.444,2.667 3.444,2.64 3.444,2.521 3.472,2.336 3.657,2.209 3.763,2.125 3.872,2.083 3.968,2.083 4.264,2.085 4.497,2.475 4.503,2.837 4.502,2.842 4.5,2.852 4.5,2.857 L 4.502,2.858 C 4.5,3.11 4.413,3.387 4.203,3.604 3.921,3.893 3.573,4.061 3.186,4.061 2.716,4.059 2.186,3.817 1.65,3.286 1.244,2.888 0.989,2.69 0.746,2.68 H 0.729 C 0.617,2.676 0.492,2.757 0.43,2.896 0.37,3.036 0.378,3.272 0.376,3.559 c 0,0.218 0.003,0.445 0.003,0.589 0,0.104 0.005,0.217 0.012,0.336 0.143,2.226 0.321,2.215 0.526,2.808 L 0.772,7.288 C 0.754,7.263 0.729,7.227 0.702,7.182 0.636,7.085 0.542,6.946 0.428,6.789 0.198,6.471 -0.11,6.069 -0.441,5.726 -1.051,5.092 -1.324,4.45 -1.325,3.807 V 3.802 H -1.421 L -1.325,3.796 C -1.324,3.739 -1.324,3.684 -1.318,3.623 -1.266,2.93 -1.169,1.72 -1.01,1.329 -0.937,1.151 -0.911,1.012 -0.906,0.916 h 0.029 L -0.91,0.769 -0.915,0.749 -0.9,0.733 C -0.665,0.433 -0.353,0.236 0,0.236 M 0.607,7.461 0.605,7.455 C 0.607,7.459 0.607,7.461 0.61,7.461 Z M 0.003,0.319 v 0.116 0.118 c 0.229,0 0.522,0.121 0.868,0.503 0.325,0.358 0.669,0.922 1.007,1.402 0.343,0.461 0.642,0.918 1.141,0.955 0.094,0 0.188,-0.022 0.269,-0.068 0.326,-0.151 0.464,-0.397 0.464,-0.598 0,-0.016 0,-0.021 -10e-4,-0.048 C 3.751,2.692 3.75,2.686 3.75,2.684 3.751,2.608 3.855,2.5 3.963,2.498 4.05,2.503 4.155,2.546 4.196,2.854 4.196,3.03 4.136,3.222 3.985,3.377 3.751,3.619 3.49,3.739 3.186,3.739 H 3.169 L 3.168,3.74 C 2.802,3.735 2.351,3.541 1.86,3.054 1.421,2.632 1.054,2.346 0.649,2.332 H 0.638 C 0.391,2.333 0.173,2.493 0.07,2.724 0.003,2.87 -0.009,3.03 -0.009,3.199 c 0,0.123 0.005,0.255 0.005,0.4 0,0.01 0,0.018 0.001,0.024 0,0.057 0.006,0.23 0.013,0.338 C 0.011,3.967 0.048,5.177 0.133,5.902 0.02,5.765 -0.102,5.631 -0.225,5.502 -0.799,4.9 -1.018,4.346 -1.02,3.796 c 0.002,-0.047 0.002,-0.095 0.006,-0.147 0.046,-0.674 0.172,-1.924 0.276,-2.241 0.001,0 0.035,-0.158 0.177,-0.42 0,0.001 0.097,-0.109 0.213,-0.219 C -0.225,0.657 -0.08,0.541 0.003,0.553 V 0.435 0.319 c -0.375,0.022 -0.721,0.516 -0.749,0.535 -0.164,0.299 -0.21,0.487 -0.21,0.487 v 0.002 c -0.119,0.378 -0.235,1.599 -0.283,2.283 -0.006,0.061 -0.008,0.116 -0.008,0.17 0,0.623 0.26,1.243 0.861,1.87 0.194,0.205 0.383,0.426 0.562,0.653 L 0.545,6.668 0.421,6.253 C 0.306,5.877 0.235,3.955 0.237,3.948 0.228,3.831 0.224,3.604 0.224,3.604 L 0.223,3.567 0.22,3.565 C 0.22,3.427 0.217,3.307 0.217,3.199 0.217,3.038 0.229,2.919 0.273,2.826 0.347,2.665 0.49,2.567 0.638,2.567 h 0.007 c 0.29,0.004 0.633,0.241 1.059,0.659 0.527,0.522 1.034,0.75 1.48,0.75 H 3.201 C 3.56,3.975 3.88,3.82 4.147,3.545 4.342,3.341 4.424,3.086 4.424,2.842 4.394,2.462 4.185,2.258 3.963,2.263 3.741,2.269 3.529,2.439 3.523,2.684 c 0,0.021 0.004,0.04 0.004,0.031 v 0.032 c 0,0.087 -0.065,0.26 -0.338,0.385 C 3.136,3.163 3.076,3.177 3.025,3.177 2.691,3.168 2.404,2.793 2.059,2.318 1.731,1.846 1.383,1.28 1.037,0.894 0.667,0.485 0.316,0.319 0.004,0.319 Z" />
          </g>
          <g
             transform="translate(410.4578,698.5483)"
             id="g185050">
            <path
               inkscape:connector-curvature="0"
               id="path185052"
               style="fill:#ffffff;fill-opacity:1;fill-rule:nonzero;stroke:none"
               d="m 0,0 c 0.63,-0.05 -0.766,0.415 -0.869,1.106 -0.1,0.69 0.358,1.379 0,1.805 C -1.225,3.336 -1.514,2.861 -1.429,1.954 -1.312,0.691 -0.75,0.059 0,0" />
          </g>
          <g
             transform="translate(406.0062,698.5343)"
             id="g185054">
            <path
               inkscape:connector-curvature="0"
               id="path185056"
               style="fill:#ffffff;fill-opacity:1;fill-rule:nonzero;stroke:none"
               d="m 0,0 c 1.024,0.791 1.361,2.076 1.361,3.245 0,0.343 -0.04,0.686 -0.118,1.023 L 1.331,4.302 C 1.557,3.935 1.609,3.428 1.609,3.06 1.609,1.8 1.161,0.73 0.056,-0.122 Z m 1.243,4.268 z" />
          </g>
          <g
             transform="translate(405.9591,698.3605)"
             id="g185058">
            <path
               inkscape:connector-curvature="0"
               id="path185060"
               style="fill:#ffffff;fill-opacity:1;fill-rule:nonzero;stroke:none"
               d="m 0,0 -0.055,0.124 0.102,0.05 0.008,-0.012 -0.008,0.012 -0.102,-0.05 -0.04,0.087 0.074,0.059 c 0.984,0.759 1.317,2.001 1.317,3.149 0,0.334 -0.04,0.67 -0.115,0.995 L 1.157,4.515 1.249,4.553 1.421,4.62 1.473,4.541 C 1.72,4.135 1.767,3.613 1.769,3.234 L 1.767,3.224 C 1.77,1.941 1.3,0.825 0.171,-0.044 L 0.06,-0.129 Z M 1.522,3.419 C 1.521,2.792 1.426,2.128 1.181,1.52 c 0.248,0.518 0.36,1.084 0.36,1.704 l 0.001,0.01 C 1.542,3.367 1.535,3.523 1.515,3.68 1.519,3.594 1.522,3.509 1.522,3.419" />
          </g>
          <g
             transform="translate(409.3476,704.7635)"
             id="g185062">
            <path
               inkscape:connector-curvature="0"
               id="path185064"
               style="fill:#ffffff;fill-opacity:1;fill-rule:nonzero;stroke:none"
               d="M 0,0 C 0.244,0.576 0.31,1.628 1.341,1.9 L 1.617,1.951 C 3.502,2.368 6.958,2.458 7.504,8.506 H 7.582 C 7.862,2.43 3.876,1.669 2,1.289 L 1.441,1.262 C 0.523,1 0.409,0.58 0.141,-0.013 v -0.001 z" />
          </g>
          <g
             transform="translate(409.4757,704.6328)"
             id="g185066">
            <path
               inkscape:connector-curvature="0"
               id="path185068"
               style="fill:#ffffff;fill-opacity:1;fill-rule:nonzero;stroke:none"
               d="m 0,0 -0.138,0.015 0.01,0.116 0.025,-0.012 -0.025,0.012 -0.01,-0.116 -0.156,0.017 0.063,0.147 C 0,0.709 0.071,1.847 1.192,2.146 l 0.275,0.053 c 1.909,0.436 5.24,0.461 5.797,6.45 L 7.273,8.756 H 7.376 7.561 L 7.567,8.644 C 7.574,8.437 7.579,8.236 7.579,8.043 7.588,2.436 3.697,1.658 1.878,1.303 L 1.341,1.28 C 0.469,1.02 0.396,0.685 0.124,0.093 V -0.013 Z M -0.024,0.083 -0.096,0.117 Z M 1.512,1.967 1.24,1.915 C 0.606,1.751 0.366,1.267 0.205,0.78 0.401,1.089 0.697,1.345 1.306,1.51 l 0.545,0.026 c 1.747,0.368 5.216,1 5.486,5.907 C 6.47,2.494 3.244,2.336 1.512,1.967" />
          </g>
          <g
             transform="translate(416.8276,714.4664)"
             id="g185070">
            <path
               inkscape:connector-curvature="0"
               id="path185072"
               style="fill:#ffffff;fill-opacity:1;fill-rule:nonzero;stroke:none"
               d="m 0,0 c 0,1.485 -0.104,2.428 -0.402,3.153 l 0.141,0.063 C 0.051,2.456 0.153,1.492 0.153,0 Z" />
          </g>
          <g
             transform="translate(416.9805,714.3475)"
             id="g185074">
            <path
               inkscape:connector-curvature="0"
               id="path185076"
               style="fill:#ffffff;fill-opacity:1;fill-rule:nonzero;stroke:none"
               d="m 0,0 h -0.153 v 0.119 h 0.112 -0.112 V 0 h -0.113 v 0.119 l -0.001,0.012 c 0,1.473 -0.106,2.399 -0.394,3.096 l -0.042,0.108 0.104,0.047 0.243,0.11 0.045,-0.109 C 0.011,2.595 0.111,1.614 0.111,0.119 L 0.114,0 Z" />
          </g>
          <g
             transform="translate(404.8479,716.7534)"
             id="g185078">
            <path
               inkscape:connector-curvature="0"
               id="path185080"
               style="fill:#ffffff;fill-opacity:1;fill-rule:nonzero;stroke:none"
               d="M 0,0 -0.017,0.027 -0.188,0.138 -0.305,0.215 -0.353,0.083 c -0.281,-0.824 -0.57,-1.667 -1.435,-1.806 -0.066,-0.006 -0.137,-0.011 -0.207,-0.011 v -0.003 c -0.007,0 -0.009,0 -0.009,0.003 -0.531,0 -1.187,0.304 -1.534,0.603 -0.128,0.11 -0.287,0.361 -0.287,0.361 0.026,-0.004 0.496,-0.172 0.709,-0.142 0.3,0.03 0.626,0.17 0.95,0.427 0.288,0.214 0.572,0.503 0.816,0.885 L -1.27,0.528 -1.7,0.651 -1.749,0.574 c -0.544,-0.839 -1.068,-1.055 -1.495,-1.059 0,-0.001 -0.007,-0.004 -0.007,0 -0.331,0 -0.623,0.15 -0.8,0.317 -0.042,0.029 -0.113,0.121 -0.259,0.134 -0.007,0.001 -0.021,0.001 -0.021,0.001 -0.074,-0.001 -0.15,-0.03 -0.214,-0.111 -0.052,-0.068 -0.06,-0.15 -0.058,-0.182 0.02,-0.211 0.113,-0.322 0.232,-0.5 0.385,-0.528 1.238,-1.423 2.34,-1.436 h 0.001 0.013 0.016 c 0.085,0 0.171,0.006 0.258,0.019 1.156,0.176 1.594,1.072 1.889,1.873 l 0.019,0.051 z" />
          </g>
          <g
             transform="translate(403.8477,701.375)"
             id="g185082">
            <path
               inkscape:connector-curvature="0"
               id="path185084"
               style="fill:#ffffff;fill-opacity:1;fill-rule:nonzero;stroke:none"
               d="M 0,0 C 0.311,-0.136 0.966,-0.973 0.679,-1.372 0.504,-1.611 0.198,-1.578 0,-1.246 c 0,0 -0.004,-0.592 0.271,-0.702 C 0.673,-2.112 1.246,-1.874 1.18,-1.11 1.115,-0.339 0,0 0,0" />
          </g>
          <g
             transform="translate(404.0771,699.3167)"
             id="g185086">
            <path
               inkscape:connector-curvature="0"
               id="path185088"
               style="fill:#ffffff;fill-opacity:1;fill-rule:nonzero;stroke:none"
               d="m 0,0 c -0.377,0.191 -0.33,0.77 -0.343,0.812 0.009,0.075 0.029,0.073 0.032,0.084 l 0.1,0.105 0.077,-0.128 C -0.037,0.71 0.08,0.65 0.168,0.651 c 0.07,0 0.134,0.033 0.188,0.106 0.033,0.048 0.05,0.103 0.05,0.171 0.017,0.34 -0.478,0.95 -0.678,1.019 l 0.075,0.225 c 0,-0.002 0.003,-0.003 0.011,-0.005 V 2.169 C -0.184,2.167 -0.183,2.164 -0.179,2.164 -0.031,2.112 0.972,1.785 1.064,0.959 1.067,0.913 1.067,0.872 1.067,0.834 1.067,0.244 0.672,-0.053 0.292,-0.056 0.192,-0.056 0.095,-0.038 0,0 M 0.083,0.22 C 0.147,0.193 0.219,0.18 0.292,0.18 c 0.274,0.01 0.541,0.179 0.549,0.654 0,0.036 0,0.073 -0.003,0.105 C 0.824,1.226 0.61,1.457 0.375,1.623 0.518,1.409 0.622,1.163 0.631,0.928 0.631,0.818 0.604,0.71 0.537,0.616 0.447,0.489 0.309,0.414 0.168,0.414 0.083,0.414 0.002,0.437 -0.074,0.484 -0.043,0.357 0.01,0.234 0.083,0.22 m -0.345,1.725 0.033,0.113 z" />
          </g>
          <g
             transform="translate(406.5254,697.351)"
             id="g185090">
            <path
               inkscape:connector-curvature="0"
               id="path185092"
               style="fill:#ffffff;fill-opacity:1;fill-rule:nonzero;stroke:none"
               d="M 0,0 C 0.001,0.687 0.477,1.562 0.07,1.574 L 0.582,2.612 0.548,2.602 0.86,2.834 C 0.835,2.396 0.264,0.618 0.177,0.166 0.1,-0.215 0.177,-0.44 0.211,-0.598 H 0.088 C 0.046,-0.412 0,-0.215 0,0" />
          </g>
          <g
             transform="translate(406.7366,696.6358)"
             id="g185094">
            <path
               inkscape:connector-curvature="0"
               id="path185096"
               style="fill:#ffffff;fill-opacity:1;fill-rule:nonzero;stroke:none"
               d="m 0,0 h -0.211 l -0.023,0.091 c -0.041,0.185 -0.091,0.392 -0.091,0.624 0.002,0.516 0.24,1.104 0.235,1.362 -0.02,0.114 0.002,0.081 -0.054,0.095 L -0.325,2.175 0.269,3.383 0.293,3.37 0.27,3.412 0.776,3.792 0.76,3.544 C 0.73,3.064 0.16,1.3 0.074,0.859 0.052,0.746 0.043,0.651 0.043,0.57 0.043,0.386 0.082,0.263 0.109,0.147 L 0.145,0 Z M 0.077,2.299 C 0.127,2.231 0.135,2.154 0.135,2.077 0.135,2.017 0.128,1.953 0.115,1.883 0.258,2.382 0.417,2.938 0.491,3.287 L 0.468,3.269 0.02,2.358 C 0.043,2.343 0.06,2.324 0.077,2.299" />
          </g>
          <g
             transform="translate(408.5003,720.7226)"
             id="g185098">
            <path
               inkscape:connector-curvature="0"
               id="path185100"
               style="fill:#ffffff;fill-opacity:1;fill-rule:nonzero;stroke:none"
               d="M 0,0 C -0.546,0.594 -0.968,0.829 -1.464,1.609 L -1.542,1.747 -1.72,1.374 c 0.424,-0.835 0.777,-1.254 1.301,-1.817 l 0.102,-0.122 0.394,0.483 z" />
          </g>
          <g
             transform="translate(411.3794,722.3628)"
             id="g185102">
            <path
               inkscape:connector-curvature="0"
               id="path185104"
               style="fill:#ffffff;fill-opacity:1;fill-rule:nonzero;stroke:none"
               d="m 0,0 c -0.021,0.046 -0.633,1.188 -2.324,1.913 -1.661,0.716 -3.218,0.814 -3.22,0.815 L -5.651,2.735 -5.728,2.742 -5.808,2.577 C -5.828,2.533 -5.844,2.476 -5.844,2.394 -5.84,2.203 -5.765,1.904 -5.416,1.312 -5.218,0.98 -5.154,0.724 -5.136,0.545 -5.26,0.589 -5.415,0.643 -5.583,0.701 c 0.037,0.044 0.071,0.086 0.099,0.122 0.021,0.031 0.039,0.055 0.054,0.074 0.005,0.008 0.012,0.019 0.016,0.024 0.002,0.003 0.004,0.004 0.006,0.009 l 0.003,0.003 c 0.001,0.016 0.003,-0.012 0.016,0.062 0,0.032 -0.013,0.061 -0.031,0.085 0,0 -0.003,0 -0.003,10e-4 -0.014,0.017 -0.03,0.023 -0.04,0.025 -0.013,0.006 -0.024,0.009 -0.038,0.009 -0.014,0 -0.027,-0.003 -0.039,-0.009 -0.064,-0.016 -0.313,-0.078 -0.602,-0.219 -0.486,0.156 -0.99,0.304 -1.294,0.351 -0.32,0.049 -0.619,0.12 -0.838,0.18 -0.19,0.053 -0.281,0.085 -0.345,0.103 -0.02,0.009 -0.037,0.012 -0.047,0.01 -0.029,0 -0.058,-0.013 -0.079,-0.035 C -8.758,1.484 -8.767,1.468 -8.773,1.453 L -8.904,1.189 c 0,0 0.372,-0.431 0.648,-0.711 0.345,-0.346 0.759,-0.829 1.023,-1.333 0.006,-0.012 0.012,-0.022 0.018,-0.034 0.022,-0.13 0.057,-0.262 0.11,-0.398 0.077,-0.192 0.174,-0.374 0.287,-0.544 l -19.53,4.635 -0.122,-0.407 -0.031,-0.103 0.097,-0.043 19.705,-8.105 0.273,0.387 2.014,2.383 c 0.481,0.08 0.941,0.385 1.238,0.913 l 0.022,0.15 -0.354,0.358 -0.076,-0.133 c -0.173,-0.302 -0.747,-0.873 -1.208,-0.856 -0.406,0.015 -0.843,0.192 -1.216,0.501 -0.311,0.257 -0.576,0.593 -0.721,0.973 -0.054,0.136 -0.08,0.257 -0.089,0.369 -0.002,0.03 -0.004,0.06 -0.004,0.089 v 0.035 0 c -0.012,0.461 0.495,1.206 0.8,1.292 -0.223,-0.388 -0.146,-0.896 0.215,-1.24 0.19,-0.181 0.737,-0.352 1.219,-0.352 0.126,0 0.254,0.01 0.381,0.033 l 0.169,0.032 -0.282,0.419 -0.056,0.003 c -0.544,0.031 -0.951,0.088 -1.185,0.185 -0.244,0.117 -0.284,0.167 -0.322,0.385 -0.002,0.016 -0.002,0.035 -0.003,0.051 v 0.004 c 0,0.006 0.002,0.013 0.003,0.019 0.383,-0.113 0.727,-0.215 0.854,-0.251 l 0.134,-0.071 0.106,-0.055 0.13,0.295 c 0.014,0.035 0.055,0.162 0.058,0.378 v 0.016 0.02 c -0.006,0.274 -0.086,0.666 -0.365,1.129 -0.149,0.247 -0.235,0.431 -0.285,0.559 0.596,-0.025 1.916,-0.514 2.467,-0.742 0.6,-0.243 1.731,-1.158 1.731,-1.158 0.147,-0.156 0.374,-0.435 0.444,-0.533 0.035,-0.053 0.06,-0.09 0.075,-0.118 0.009,-0.011 0.012,-0.021 0.016,-0.029 0.004,-0.003 0.004,-0.004 0.008,-0.008 l 0.001,-0.005 c 0.002,-0.002 0.004,-0.002 0.006,-0.007 0.02,-0.005 -0.028,-0.017 0.09,-0.046 h 0.046 l 0.402,0.404 z M -7.114,-0.061 C -7.329,0.217 -7.562,0.454 -7.778,0.658 -7.607,0.624 -7.425,0.59 -7.312,0.562 -7.253,0.548 -7.055,0.492 -6.799,0.417 -6.926,0.283 -7.036,0.125 -7.114,-0.061" />
          </g>
          <g
             transform="translate(408.9462,720.7051)"
             id="g185106">
            <path
               inkscape:connector-curvature="0"
               id="path185108"
               style="fill:#ffffff;fill-opacity:1;fill-rule:nonzero;stroke:none"
               d="M 0,0 0.831,0.698 0.797,0.78 C -0.311,3.04 -2.512,3.682 -2.512,3.682 L -2.516,3.635 -2.523,3.558 -2.458,3.52 C -1.47,2.983 0.159,1.03 0.13,0.446 0.13,0.417 0.127,0.395 0.121,0.382 Z" />
          </g>
          <g
             transform="translate(406.0253,718.8069)"
             id="g185110">
            <path
               inkscape:connector-curvature="0"
               id="path185112"
               style="fill:#ffffff;fill-opacity:1;fill-rule:nonzero;stroke:none"
               d="m 0,0 -1.175,-2.217 -3.515,1.813 c 0,0 0.408,-0.272 2.256,-0.507 C -0.748,-1.125 0,0 0,0" />
          </g>
          <g
             transform="translate(404.8815,696.4039)"
             id="g185114">
            <path
               inkscape:connector-curvature="0"
               id="path185116"
               style="fill:#ffffff;fill-opacity:1;fill-rule:nonzero;stroke:none"
               d="M 0,0 C 0.601,0.349 0.739,0.675 0.801,0.886 L 0.906,0.845 C 0.82,0.349 0.801,0.362 0.51,0.009 L 0.432,-0.02 0.221,0.104 Z" />
          </g>
          <g
             transform="translate(421.2943,722.1876)"
             id="g185118">
            <path
               inkscape:connector-curvature="0"
               id="path185120"
               style="fill:#ffffff;fill-opacity:1;fill-rule:nonzero;stroke:none"
               d="M 0,0 C -0.393,0.636 1.776,1.382 2.011,1.406 L 2.067,1.411 1.605,1.524 C 1.342,1.496 0.493,1.35 -0.562,0.842 -0.888,0.684 -1.167,0.565 -1.517,0.542" />
          </g>
          <g
             transform="translate(423.5534,721.0869)"
             id="g185122">
            <path
               inkscape:connector-curvature="0"
               id="path185124"
               style="fill:#ffffff;fill-opacity:1;fill-rule:nonzero;stroke:none"
               d="m 0,0 c 0.115,0.532 1.956,0.881 2.623,0.83 0,0 0.249,-0.009 0.317,-0.015 C 2.981,0.812 3.15,0.791 3.15,0.791 L 2.968,1.063 C 2.859,1.094 2.783,1.102 2.652,1.112 1.915,1.169 1.408,1.282 0.086,1.065 -0.429,0.982 -0.736,0.912 -1.187,1.055" />
          </g>
          <g
             transform="translate(412.5669,723.0306)"
             id="g185126">
            <path
               inkscape:connector-curvature="0"
               id="path185128"
               style="fill:#ffffff;fill-opacity:1;fill-rule:nonzero;stroke:none"
               d="m 0,0 c 0.069,0.45 0.147,0.629 0.215,0.775 l 0.157,0.293 -0.422,0.12 c 0,0 -0.479,-0.612 -0.553,-1.283 z" />
          </g>
          <g
             transform="translate(419.093,722.8237)"
             id="g185130">
            <path
               inkscape:connector-curvature="0"
               id="path185132"
               style="fill:#ffffff;fill-opacity:1;fill-rule:nonzero;stroke:none"
               d="M 0,0 C 0.722,0.799 1.043,1.657 1.45,1.679 L 1.2,1.845 C 0.672,1.713 -0.014,0.976 -1.314,0.492 Z" />
          </g>
          <g
             transform="translate(426.3653,718.8087)"
             id="g185134">
            <path
               inkscape:connector-curvature="0"
               id="path185136"
               style="fill:#ffffff;fill-opacity:1;fill-rule:nonzero;stroke:none"
               d="M 0,0 C 0.044,0.233 0.359,0.56 0.749,0.627 L 0.82,0.64 h 0.004 c 0.599,0.104 0.99,0 1.352,-0.096 0.363,-0.096 0.943,-0.34 1.013,-0.42 L 3.239,0.094 3.356,0.22 3.321,0.257 C 3.291,0.289 3.027,0.709 2.37,0.967 1.942,1.135 1.213,1.424 0.556,1.391 -0.113,1.358 -0.516,1.261 -0.829,1.135 Z" />
          </g>
          <g
             transform="translate(430.1523,713.925)"
             id="g185138">
            <path
               inkscape:connector-curvature="0"
               id="path185140"
               style="fill:#ffffff;fill-opacity:1;fill-rule:nonzero;stroke:none"
               d="M 0,0 C 0.155,0.455 0.232,0.618 0.518,0.594 1.976,0.477 2.874,-0.19 3.263,-0.633 l 0.112,-0.126 0.049,0.243 -0.032,0.035 C 2.938,0.036 1.886,1.318 0.485,1.483 0.148,1.522 -0.373,1.811 -0.803,2.193" />
          </g>
          <g
             transform="translate(435.3596,709.8488)"
             id="g185142">
            <path
               inkscape:connector-curvature="0"
               id="path185144"
               style="fill:#ffffff;fill-opacity:1;fill-rule:nonzero;stroke:none"
               d="M 0,0 C -0.228,0.151 -0.245,0.19 -0.352,0.348 -0.457,0.504 -0.615,0.749 -1.037,1.192 -1.898,2.097 -2.989,2.635 -4.27,2.789 L -4.371,2.802 -4.262,2.438 -4.278,2.287 -4.227,2.33 -4.081,1.879 -4.002,1.524 c -0.001,0.006 0.003,0.213 0.004,0.222 0.034,0.222 0.165,0.453 0.366,0.44 C -3.604,2.182 -3.574,2.177 -3.543,2.168 -2.846,2 -1.822,1.558 -1.258,0.963 -0.844,0.528 -0.705,0.376 -0.607,0.228 V 0.226 c 0.004,-0.003 0.177,-0.248 0.493,-0.439 l 0.058,-0.036 0.08,0.159 0.03,0.056 z" />
          </g>
          <g
             transform="translate(436.0949,706.0795)"
             id="g185146">
            <path
               inkscape:connector-curvature="0"
               id="path185148"
               style="fill:#ffffff;fill-opacity:1;fill-rule:nonzero;stroke:none"
               d="M 0,0 0.036,-0.063 0.178,0 0.269,0.041 0.215,0.127 C -0.314,0.979 -2.15,2.217 -3.527,2.574 -3.682,2.633 -3.703,2.566 -3.882,2.805 l -0.19,0.268 0.14,-1.213 0.057,-0.015 0.03,-0.207 0.148,-0.172 0.033,0.395 c 0.05,0.103 0.142,0.151 0.206,0.162 0.042,0 0.107,-0.017 0.171,-0.027 C -2.182,1.683 -0.361,0.623 0,0" />
          </g>
          <g
             transform="translate(437.2366,703.2244)"
             id="g185150">
            <path
               inkscape:connector-curvature="0"
               id="path185152"
               style="fill:#ffffff;fill-opacity:1;fill-rule:nonzero;stroke:none"
               d="m 0,0 c -0.305,0.552 -3.224,2.856 -4.251,2.83 -0.051,0 -0.096,-0.006 -0.134,-0.016 L -4.402,2.81 -4.42,2.811 c -0.097,0.031 -0.069,0.049 -0.093,0.064 -0.011,0.016 -0.02,0.029 -0.021,0.03 l -0.011,0.018 -0.003,0.02 -0.017,0.098 v 0 l -0.109,0.471 0.008,0.026 0.009,0.031 0.017,0.065 0.065,0.008 c 0.038,0.005 0.077,0.007 0.117,0.007 C -3.727,3.643 -2.612,2.961 -1.624,2.202 -0.639,1.431 0.188,0.621 0.313,0.216 L 0.33,0.156 0.064,-0.109 Z" />
          </g>
          <g
             transform="translate(435.4388,703.0055)"
             id="g185154">
            <path
               inkscape:connector-curvature="0"
               id="path185156"
               style="fill:#ffffff;fill-opacity:1;fill-rule:nonzero;stroke:none"
               d="M 0,0 C -0.39,0.553 -1.233,1.158 -1.854,1.532 L -2.126,1.676 -2.029,1.152 -2.04,1.057 -1.948,1.042 c 0.462,-0.061 1.524,-0.873 1.755,-1.196 l 0.058,-0.081 0.118,0.095 0.072,0.063 z" />
          </g>
          <g
             transform="translate(438.8325,699.9988)"
             id="g185158">
            <path
               inkscape:connector-curvature="0"
               id="path185160"
               style="fill:#ffffff;fill-opacity:1;fill-rule:nonzero;stroke:none"
               d="m 0,0 c -0.253,0.241 -0.466,0.435 -0.532,0.502 -0.43,0.436 -1.002,0.928 -1.145,1.466 l 0.157,0.077 c 0,0 0.533,-0.449 0.977,-0.471 C -0.37,1.565 -0.142,1.728 -0.105,1.82 0.043,2.177 0,0 0,0" />
          </g>
          <g
             transform="translate(436.2463,694.6429)"
             id="g185162">
            <path
               inkscape:connector-curvature="0"
               id="path185164"
               style="fill:#ffffff;fill-opacity:1;fill-rule:nonzero;stroke:none"
               d="m 0,0 c -1.33,2.223 -2.4,2.878 -2.584,2.978 -0.027,0.014 -0.03,0.015 -0.03,0.015 L -2.751,4.67 c 0.192,-0.696 1.604,-1.795 3.164,-4.402 0.468,-0.775 1.085,-1.134 1.815,-1.138 0.225,0 0.461,0.035 0.707,0.108 V -0.763 L 2.961,-0.932 C 2.779,-1.153 2.627,-1.217 2.232,-1.248 H 2.221 C 1.328,-1.248 0.528,-0.891 0,0" />
          </g>
          <g
             transform="translate(437.8083,696.3777)"
             id="g185166">
            <path
               inkscape:connector-curvature="0"
               id="path185168"
               style="fill:#ffffff;fill-opacity:1;fill-rule:nonzero;stroke:none"
               d="m 0,0 c -0.47,0.195 -1.112,0.437 -1.404,1.572 -0.232,0.92 -0.655,1.464 -1.209,1.998 -0.561,0.529 -0.61,0.532 -0.961,0.814 -0.351,0.278 -0.836,0.715 -0.89,0.948 L -4.46,5.267 c -0.001,0.004 -0.004,0.008 -0.005,0.011 l 0.01,-0.111 0.079,-1.527 0.047,0.027 c 0.01,0.002 0.023,0.003 0.036,0.003 0.015,0.002 0.016,10e-4 0.016,10e-4 0.206,0.005 0.773,-0.291 1.244,-0.76 l 0.046,0.05 -0.045,-0.051 c 0.002,0 0.929,-0.712 1.159,-1.323 0.524,-1.384 1.284,-1.714 1.791,-1.902 l 0.072,-0.026 0.051,0.263 0.01,0.057 z" />
          </g>
          <g
             transform="translate(437.0476,698.7775)"
             id="g185170">
            <path
               inkscape:connector-curvature="0"
               id="path185172"
               style="fill:#ffffff;fill-opacity:1;fill-rule:nonzero;stroke:none"
               d="m 0,0 c -0.163,0.259 -0.58,0.866 -0.858,1.536 -0.345,0.696 -0.83,1.021 -1.407,1.4 -0.571,0.383 -1.407,0.438 -1.499,0.802 l -0.077,0.551 c 0.015,0.001 0.078,0.031 0.097,0.031 l 0.009,0.776 C -3.654,4.743 -3.569,4.353 -3.404,4.151 -3.005,3.842 -2.447,3.653 -2.005,3.365 -1.375,2.946 -0.762,2.362 -0.458,1.636 -0.185,0.977 0.07,0.43 0.345,0.056 0.625,-0.32 0.898,-0.513 1.258,-0.555 L 1.243,-0.735 C 0.713,-0.758 0.183,-0.29 0,0" />
          </g>
          <g
             transform="translate(437.0558,706.8682)"
             id="g185174">
            <path
               inkscape:connector-curvature="0"
               id="path185176"
               style="fill:#ffffff;fill-opacity:1;fill-rule:nonzero;stroke:none"
               d="m 0,0 c -0.074,0.152 0.065,0.538 -0.097,0.667 -0.41,0.327 -1.224,0.364 -1.409,0.587 l -0.034,0.039 -0.209,-0.064 0.091,-0.1 c 0.345,-0.371 1.341,-1.214 1.407,-1.754 l 0.027,0.414 0.163,0.134 0.141,-0.111 z" />
          </g>
          <g
             transform="translate(430.0767,717.5988)"
             id="g185178">
            <path
               inkscape:connector-curvature="0"
               id="path185180"
               style="fill:#ffffff;fill-opacity:1;fill-rule:nonzero;stroke:none"
               d="m 0,0 v 0 c -0.158,0.017 -0.193,0.017 -0.193,0.016 v 0.276 c 0.015,0 2.067,0.103 2.874,-0.819 H 2.682 L 3.874,-2.779 C 2.617,-0.679 0.159,-0.017 0,0" />
          </g>
          <g
             transform="translate(415.2739,724.2015)"
             id="g185182">
            <path
               inkscape:connector-curvature="0"
               id="path185184"
               style="fill:#ffffff;fill-opacity:1;fill-rule:nonzero;stroke:none"
               d="m 0,0 c 0.327,0.258 0.711,0.443 0.897,0.521 0.186,0.077 0.917,0.332 1.06,0.474 H 1.958 L 2.222,0.846 C 2.068,0.571 1.727,0.362 1.212,0.037 0.773,-0.241 0.758,-0.343 0.789,-0.509 L 0.321,-0.596 0.26,-0.6 -0.616,-0.668 C -0.619,-0.646 -1.184,-0.551 -0.963,-0.53 -0.612,-0.495 -0.296,-0.234 0,0" />
          </g>
          <g
             transform="translate(436.0167,707.9142)"
             id="g185186">
            <path
               inkscape:connector-curvature="0"
               id="path185188"
               style="fill:#ffffff;fill-opacity:1;fill-rule:nonzero;stroke:none"
               d="M 0,0 C 0.389,-0.176 1.008,-0.108 1.219,0.435 1.373,0.831 1.427,-0.224 1.185,-0.637 0.943,-1.05 0.788,-1.188 0.788,-1.188 l -0.352,0.597 z" />
          </g>
          <g
             transform="translate(473.3435,720.8141)"
             id="g185190">
            <path
               inkscape:connector-curvature="0"
               id="path185192"
               style="fill:#ffffff;fill-opacity:1;fill-rule:nonzero;stroke:none"
               d="M 0,0 C 0.546,0.594 0.968,0.829 1.464,1.609 L 1.542,1.747 1.72,1.374 C 1.296,0.539 0.943,0.12 0.419,-0.443 l -0.102,-0.122 -0.394,0.483 z" />
          </g>
          <g
             transform="translate(472.9945,720.8533)"
             id="g185194">
            <path
               inkscape:connector-curvature="0"
               id="path185196"
               style="fill:#ffffff;fill-opacity:1;fill-rule:nonzero;stroke:none"
               d="m 0,0 -0.777,0.68 0.032,0.079 c 1.036,2.2 3.092,2.824 3.092,2.824 L 2.351,3.538 2.358,3.463 2.297,3.426 C 1.374,2.903 -0.149,1.003 -0.122,0.434 c 0,-0.029 0.003,-0.05 0.008,-0.063 z" />
          </g>
          <g
             transform="translate(474.3651,700.2812)"
             id="g185350">
            <path
               inkscape:connector-curvature="0"
               id="path185352"
               style="fill:#ffffff;fill-opacity:1;fill-rule:nonzero;stroke:none"
               d="m 0,0 c 0.054,-0.526 0.599,-2.215 0.682,-2.646 0.022,-0.113 0.031,-0.208 0.031,-0.288 0,-0.185 -0.039,-0.308 -0.066,-0.424 L 0.611,-3.505 h 0.145 0.212 l 0.022,0.091 c 0.041,0.185 0.092,0.392 0.092,0.624 -0.003,0.516 -0.241,1.104 -0.236,1.362 0.005,0.027 0.007,0.046 0.009,0.059 0.152,-0.158 0.32,-0.31 0.508,-0.455 l 0.111,-0.085 0.06,0.129 0.055,0.123 0.039,0.088 -0.074,0.058 c -0.983,0.76 -1.316,2.002 -1.316,3.15 0,0.334 0.039,0.669 0.115,0.995 L 0.377,2.735 0.284,2.773 0.113,2.839 0.061,2.761 C -0.186,2.355 -0.233,1.833 -0.235,1.454 l 0.002,-0.01 C -0.235,0.934 -0.16,0.452 0,0" />
          </g>
          <g
             transform="translate(477.9594,701.6215)"
             id="g185354">
            <path
               inkscape:connector-curvature="0"
               id="path185356"
               style="fill:#ffffff;fill-opacity:1;fill-rule:nonzero;stroke:none"
               d="m 0,0 c -0.148,-0.052 -1.151,-0.379 -1.242,-1.205 -0.004,-0.046 -0.004,-0.088 -0.004,-0.125 0,-0.59 0.395,-0.888 0.776,-0.891 0.1,0 0.197,0.019 0.291,0.057 0.378,0.191 0.33,0.77 0.343,0.812 -0.009,0.075 -0.029,0.072 -0.032,0.084 l -0.099,0.105 -0.078,-0.128 c -0.097,-0.163 -0.213,-0.223 -0.301,-0.222 -0.07,0 -0.134,0.033 -0.189,0.105 -0.033,0.049 -0.049,0.104 -0.049,0.172 -0.018,0.34 0.477,0.95 0.678,1.019 L 0.018,0.008 C 0.018,0.006 0.016,0.005 0.007,0.003 V 0.004 C 0.006,0.003 0.004,0 0,0" />
          </g>
          <g
             transform="translate(472.9586,701.1084)"
             id="g185358">
            <path
               inkscape:connector-curvature="0"
               id="path185360"
               style="fill:#ffffff;fill-opacity:1;fill-rule:nonzero;stroke:none"
               d="M 0,0 C 0,0 -0.005,0.01 -0.009,0.018 L -0.008,-0.01 C -0.005,-0.006 -0.002,-0.004 0,0" />
          </g>
          <g
             transform="translate(471.2874,702.6996)"
             id="g185362">
            <path
               inkscape:connector-curvature="0"
               id="path185364"
               style="fill:#ffffff;fill-opacity:1;fill-rule:nonzero;stroke:none"
               d="m 0,0 -0.109,0.202 c -0.002,0 -0.38,-0.115 -0.837,-0.176 -0.237,-0.033 -0.564,-0.041 -0.913,-0.148 -0.686,-0.211 -1.086,-0.607 -1.094,-0.613 l 0.116,-0.201 c 0.001,0.001 0.558,0.201 1.071,0.3 C -1.257,-0.537 -0.546,-0.52 0,0" />
          </g>
          <g
             transform="translate(411.0142,721.8825)"
             id="g185366">
            <path
               inkscape:connector-curvature="0"
               id="path185368"
               style="fill:#ffffff;fill-opacity:1;fill-rule:nonzero;stroke:none"
               d="M 0,0 0.156,0.055 C 0.237,0.086 0.342,0.274 0.493,0.328 0.794,0.435 1.22,0.577 1.721,0.721 2.724,1.007 4.033,1.294 5.246,1.294 h 0.008 c 0.039,0 0.071,0 0.108,-0.004 2.471,-0.032 5.184,-1.066 8.063,-2.814 l 0.155,-0.132 c 5.207,-3.752 7.407,-9.634 8.697,-17.831 l 0.252,-0.112 0.132,0.103 c -0.298,1.791 -0.718,13.658 -8.644,18.681 L 13.91,-0.737 C 10.962,1.046 8.012,1.943 5.379,1.982 5.331,1.983 5.289,1.982 5.254,1.983 3.066,1.98 0.723,1.154 -0.004,0.88 L -0.12,0.135 C -0.084,0.143 -0.077,-0.025 0,0" />
          </g>
          <g
             transform="translate(437.6383,701.5317)"
             id="g185370">
            <path
               inkscape:connector-curvature="0"
               id="path185372"
               style="fill:#ffffff;fill-opacity:1;fill-rule:nonzero;stroke:none"
               d="M 0,0 C 0,0.004 -0.002,0.007 -0.002,0.011 -0.002,0.011 -0.007,0.004 0,0" />
          </g>
          <g
             transform="translate(481.3856,688.6287)"
             id="g185374">
            <path
               inkscape:connector-curvature="0"
               id="path185376"
               style="fill:#ffffff;fill-opacity:1;fill-rule:nonzero;stroke:none"
               d="m 0,0 c -0.017,0.025 -0.905,1.361 -2.678,1.367 -0.094,0 -0.19,-0.005 -0.288,-0.013 -0.217,-0.017 -0.418,-0.057 -0.611,-0.105 -0.046,0.083 -0.09,0.168 -0.139,0.249 0.011,-0.026 0.022,-0.053 0.033,-0.079 -0.03,0.065 -0.045,0.099 -0.033,0.079 -1.073,2.42 -2.708,3.356 -5.103,4.99 -1.568,1.065 -2.876,2.02 -3.972,2.88 0.029,0.291 0.111,0.579 0.234,0.812 0.291,0.585 1.09,0.815 1.984,1.011 0.143,0.034 0.279,0.071 0.411,0.11 0.702,0.195 1.308,0.471 1.729,1.124 l -0.002,0.045 -10e-4,0.028 -0.004,0.12 c 0.042,-0.228 0.063,-0.443 0.066,-0.663 h -0.004 c 0.002,-0.696 -0.203,-1.337 -0.315,-2.241 -0.012,-0.097 -0.019,-0.195 -0.019,-0.29 0.008,-1.295 1.07,-1.934 1.898,-2.161 0.117,-0.032 0.229,-0.048 0.341,-0.047 0.398,0 0.714,0.192 0.952,0.353 0.188,0.139 0.379,0.247 0.424,0.26 h 0.012 c 0.143,-0.058 0.286,-0.113 0.456,-0.113 0.3,0.007 0.541,0.175 0.885,0.48 0.598,0.541 0.911,1.3 1.369,2.411 0.148,0.356 0.203,0.811 0.203,1.36 -0.002,1.494 -0.434,3.71 -1.107,6.229 -0.492,1.837 -0.605,3.464 -0.606,4.76 0,1.082 0.079,1.926 0.079,2.491 l 0.002,0.01 c -0.002,0.885 0.251,0.833 0.292,1.401 0,0.129 -0.027,0.27 -0.077,0.43 -0.264,0.801 -1.107,1.978 -1.871,3.098 l -0.034,0.05 H -5.553 -5.59 l -0.028,-0.021 -1.084,0.637 0.81,-0.987 c 0.753,-1.097 1.543,-2.738 1.707,-3.162 0.015,-0.035 0.017,-0.049 0.017,-0.064 0.013,-0.069 -0.132,-0.265 -0.175,-1.015 0,-0.003 -0.172,-1.787 -0.172,-2.898 0,-1.325 0.086,-2.989 0.595,-4.89 0.667,-2.483 1.213,-4.666 1.215,-6.048 l -0.002,-0.019 0.002,-0.021 c 0,-0.497 -0.057,-0.885 -0.159,-1.122 C -3.322,9.708 -3.622,9.034 -4.092,8.617 -4.411,8.329 -4.556,8.269 -4.621,8.272 h -0.014 c -0.041,-10e-4 -0.126,0.02 -0.254,0.073 -0.03,0.012 -0.059,0.021 -0.09,0.028 -0.139,0.167 -0.198,0.315 -0.232,0.429 L -5.315,8.761 c 0.033,-0.194 0.057,-0.309 0.09,-0.4 C -5.456,8.303 -5.627,8.145 -5.809,8.031 -6.029,7.887 -6.247,7.77 -6.473,7.77 v 0.001 c -0.005,0 -0.009,0 -0.014,-0.001 -0.062,0.001 -0.124,0.008 -0.188,0.026 -0.755,0.233 -1.25,0.448 -1.258,1.368 -0.002,10e-4 10e-4,0.005 0,0.028 l -0.029,0.317 c 0,0.059 0.115,1.655 0.115,2.45 0.003,0.015 0.003,0.03 0.003,0.046 0,0.735 -0.034,0.713 -0.095,1.318 -0.186,0.68 -0.222,0.929 -0.551,1.286 l -0.265,0.277 c -0.302,0.337 -0.568,0.596 -1.188,1.474 l -0.101,0.105 c -1.239,1.795 -2.087,1.921 -4.101,2.631 -0.243,0.116 -0.536,0.26 -1.305,0.338 -0.095,0.011 -0.192,0.015 -0.291,0.015 -1.028,0 -2.306,-0.527 -2.756,-1.778 -0.147,-0.4 -0.241,-1.05 -0.241,-1.583 0,-0.061 0,-0.117 0.003,-0.174 0.051,-0.893 0.685,-2.036 1.654,-3.245 -0.001,-0.045 -0.005,-0.09 -0.006,-0.134 0,-0.209 0.02,-0.409 0.061,-0.597 0.009,-0.038 0.022,-0.078 0.039,-0.118 0.126,-0.477 0.35,-0.883 0.638,-1.253 0.024,-0.028 0.048,-0.061 0.066,-0.095 0.072,-0.151 0.136,-0.298 0.183,-0.446 0.005,-0.017 0.008,-0.028 0.009,-0.029 0.001,-0.006 0.004,-0.012 0.005,-0.018 l 0.443,0.129 c -0.004,0.012 -0.058,0.261 -0.2,0.528 -0.01,0.02 -0.017,0.04 -0.028,0.06 -0.174,0.381 -0.353,0.723 -0.41,1.043 0.285,-0.311 0.587,-0.623 0.904,-0.934 -0.036,-0.229 -0.065,-0.475 -0.081,-0.743 -0.002,-0.045 -0.003,-0.093 -0.003,-0.145 0,-0.488 0.12,-0.919 0.361,-1.262 0.305,-0.5 0.78,-0.898 1.338,-1.137 l 0.171,0.318 h 10e-4 c 0.21,-0.27 0.331,-0.363 0.534,-0.485 0.067,-0.041 0.143,-0.07 0.223,-0.091 0.028,-0.013 0.055,-0.028 0.084,-0.04 0.165,-0.069 0.327,-0.101 0.475,-0.101 0.406,0.01 0.689,0.214 0.867,0.397 0.553,-0.386 1.103,-0.742 1.636,-1.057 0.653,-0.379 3.231,-2.284 4.653,-4.294 0.235,-0.398 0.446,-0.824 0.63,-1.277 -0.016,-0.009 -0.033,-0.016 -0.049,-0.025 -0.431,0.27 -1.01,0.501 -1.743,0.503 -0.094,0 -0.189,-0.004 -0.287,-0.011 -0.618,-0.05 -1.132,-0.235 -1.571,-0.492 -0.432,0.27 -1.011,0.501 -1.744,0.503 -0.094,0 -0.19,-0.004 -0.287,-0.011 -0.618,-0.05 -1.132,-0.234 -1.572,-0.492 -0.295,0.185 -0.661,0.35 -1.097,0.437 -0.041,0.458 -0.24,1.271 -0.403,1.927 -0.915,3.682 -6.45,7.249 -6.657,13.01 -0.003,0.085 -0.006,0.166 -0.006,0.245 0,0.692 0.123,1.235 0.357,1.987 l -0.211,0.096 c -0.006,-0.012 -0.562,-1.047 -0.562,-2.678 0,-0.422 0.036,-0.882 0.129,-1.375 0.565,-2.99 1.523,-4.173 2.699,-6.027 0.503,-0.79 1.991,-2.549 2.607,-4.134 0.184,-0.475 0.346,-0.943 0.477,-1.336 0.111,-0.328 0.177,-1.18 0.261,-1.712 -0.454,-0.083 -0.849,-0.237 -1.196,-0.44 -0.431,0.27 -1.01,0.501 -1.742,0.503 -0.094,0 -0.19,-0.004 -0.289,-0.012 -0.617,-0.05 -1.131,-0.234 -1.57,-0.491 -0.432,0.271 -1.011,0.501 -1.744,0.504 -0.094,0 -0.189,-0.005 -0.287,-0.013 -0.618,-0.05 -1.132,-0.234 -1.572,-0.491 -0.431,0.27 -1.01,0.501 -1.743,0.503 -0.094,0 -0.19,-0.003 -0.287,-0.011 -0.536,-0.043 -0.989,-0.191 -1.388,-0.397 0.1,0.684 0.176,1.432 0.201,1.647 0.067,0.568 0.088,1.159 -0.007,1.957 -0.172,1.424 -1.172,3.695 -2.215,6.917 -0.514,1.591 -0.736,3.156 -0.736,4.668 -0.01,7.471 5.441,13.677 7.503,14.98 0.02,0.011 0.039,0.023 0.056,0.035 l -0.057,0.102 -0.058,0.103 h -0.002 c -1.052,-0.641 -3.662,-2.219 -6.417,-7.478 -1.584,-3.01 -2.045,-6.035 -2.045,-8.762 0,-1.772 0.202,-3.294 0.472,-4.71 0.444,-2.318 0.915,-2.968 1.061,-4.813 0,0 0.253,-2.594 -0.137,-4.004 -0.03,-0.108 -0.059,-0.198 -0.086,-0.281 -0.505,-0.074 -0.941,-0.235 -1.319,-0.456 -0.431,0.27 -1.01,0.501 -1.743,0.503 -0.093,0 -0.19,-0.003 -0.287,-0.011 -0.147,-0.012 -0.288,-0.033 -0.423,-0.059 l -0.129,6.315 -0.005,0.534 c 0,0.003 -0.004,0.214 -0.004,0.577 0,1.207 0.024,4.053 0.219,5.767 0.685,6.22 3.269,14.577 8.031,17.434 2.879,1.748 5.729,2.782 8.2,2.814 0.036,0.004 0.069,0.004 0.107,0.004 h 0.009 c 1.213,0 2.522,-0.287 3.525,-0.573 0.501,-0.144 0.927,-0.286 1.228,-0.393 0.151,-0.054 0.272,-0.099 0.353,-0.131 0.077,-0.024 0.085,-0.037 0.121,-0.045 0.002,-10e-4 0.005,-0.002 0.008,-0.003 l 0.145,-0.06 0.078,-0.031 0.36,0.455 2.291,1.67 -0.426,0.277 c -1.229,0.79 -4.109,1.584 -7.612,1.591 -2.304,-10e-4 -4.865,-0.353 -7.357,-1.325 -6.453,-2.51 -10.462,-7.959 -13.381,-17.717 -1.045,-3.491 -1.803,-6.192 -2.175,-7.852 -0.481,-2.15 -0.541,-2.453 -1.279,-6.878 -0.122,0.591 -0.32,0.997 -0.336,1.045 l -0.033,0.207 c -0.016,0.064 -0.032,0.176 -0.034,0.336 -0.036,1.569 -0.495,4.886 -2.141,6.68 0.09,0.198 0.2,0.529 0.201,0.961 -0.006,0.698 -0.338,2.365 -1.312,3.682 -0.498,0.669 -0.66,1.485 -0.66,1.485 -10e-4,0.302 0.204,0.463 0.403,0.848 0.203,0.392 0.258,0.875 0.258,1.23 -10e-4,0.584 -0.158,1.028 -0.163,1.046 l -0.249,0.709 -0.274,-0.552 c -10e-4,0.001 -0.039,-0.057 -0.057,-0.097 -0.018,-0.04 -0.193,-0.339 -0.283,-0.342 -0.015,0 -0.071,0.005 -0.183,0.126 -0.109,0.118 -0.253,0.344 -0.413,0.709 -0.562,1.25 -0.781,2.03 -1.204,2.452 0.027,0.149 0.039,0.297 0.038,0.444 -0.006,1.136 -0.708,2.173 -1.529,3.07 -0.451,0.48 -0.672,0.768 -0.729,0.867 0.184,0.289 0.245,0.614 0.245,0.913 -0.005,0.752 -0.361,1.397 -0.368,1.418 l -0.336,0.628 c 0,0 -0.087,-0.558 -0.176,-0.768 -0.021,-0.049 -0.055,-0.117 -0.107,-0.182 -0.107,-0.129 -0.26,-0.258 -0.595,-0.262 -0.056,0 -0.116,0.004 -0.181,0.013 -0.169,0.028 -0.224,0.066 -0.308,0.171 -0.082,0.108 -0.166,0.314 -0.262,0.617 -0.211,0.689 -0.739,1.354 -1.775,1.604 -0.976,0.252 -1.012,0.558 -1.193,0.829 -0.216,0.323 -1.079,1.451 -2.191,1.851 -0.699,0.243 -1.179,0.335 -1.513,0.375 -0.331,0.036 -0.529,0.036 -0.552,0.053 h -10e-4 c -0.001,0.002 -0.006,0.007 -0.016,0.026 -0.016,0.029 -0.039,0.086 -0.067,0.168 -0.492,1.434 -1.804,1.624 -1.833,1.629 0,0 -0.011,-0.667 -0.015,-0.723 -0.004,-0.043 -0.008,-0.107 -0.168,-0.234 -0.009,-0.008 -0.043,-0.025 -0.123,-0.025 -0.34,-0.013 -1.145,0.359 -2.063,0.538 -0.721,0.133 -1.33,0.051 -1.542,0.118 -0.064,0.019 -0.061,0.025 -0.061,0.025 -0.435,0.794 -0.9,0.902 -1.231,0.96 -0.331,0.057 -0.707,0.082 -0.707,0.082 0,0 0.223,-0.44 0.297,-0.662 0.061,-0.183 0.046,-0.344 0.017,-0.355 -0.128,-0.052 -0.408,-0.103 -0.871,-0.101 -0.037,0 -0.075,0 -0.105,0 -0.029,10e-4 -0.051,10e-4 -0.068,10e-4 -0.956,0.003 -1.553,-0.34 -1.904,-0.673 -0.006,0.012 -0.011,0.023 -0.017,0.034 -0.095,0.186 -0.296,0.353 -0.555,0.393 -0.095,0.017 -0.187,0.026 -0.273,0.026 -0.507,0.008 -0.838,-0.314 -0.989,-0.611 -0.081,-0.154 -0.144,-0.315 -0.189,-0.432 -0.039,0.069 -0.05,0.127 -0.051,0.191 -0.01,0.199 0.189,0.488 0.329,0.678 0.041,0.082 0.097,0.091 0.121,0.295 0.006,0.075 -0.05,0.204 -0.131,0.251 -0.078,0.049 -0.134,0.049 -0.175,0.051 -0.085,-0.002 -0.14,-0.02 -0.219,-0.043 -0.76,-0.255 -1.912,-1.202 -1.941,-2.503 l 0.353,0.059 c 0.316,1.425 1.565,2.324 1.742,2.182 -0.074,-0.159 -0.392,-0.499 -0.421,-0.917 -0.004,-0.149 0.065,-0.316 0.128,-0.422 0.033,-0.056 0.159,-0.186 0.359,-0.198 0.133,-0.001 0.163,0.069 0.186,0.168 0.054,0.224 0.391,0.881 0.802,0.921 0.219,0.022 0.383,-0.085 0.456,-0.226 0.037,-0.072 0.066,-0.216 0.049,-0.336 0,-0.049 -0.005,-0.093 -0.009,-0.123 -0.004,-0.031 -0.007,-0.041 -0.007,-0.041 l 0.557,-0.155 c 0,0 0,0.002 0.01,0.024 0.011,0.021 0.029,0.056 0.055,0.098 0.054,0.084 0.142,0.202 0.276,0.32 0.27,0.235 0.581,0.464 1.364,0.465 0.021,0 0.859,-10e-4 1.016,0.023 0,0 0.158,0.037 0.244,0.086 0.407,0.236 0.189,0.972 0.176,1.019 0.22,-0.064 0.74,-0.194 1.019,-0.79 0.214,-0.334 0.537,-0.313 0.841,-0.331 0.32,-0.007 1.125,-0.077 1.125,-0.077 0.857,-0.157 1.583,-0.534 2.157,-0.547 0.147,0 0.301,0.029 0.435,0.129 0.248,0.183 0.261,0.311 0.258,0.557 -10e-4,0.014 -0.002,0.027 -0.003,0.04 0.45,-0.069 0.919,-0.927 0.919,-0.927 0.066,-0.186 0.237,-0.542 0.237,-0.542 0.156,-0.114 0.444,-0.125 0.444,-0.125 0.294,-0.022 0.763,-0.035 1.767,-0.381 0,0 1.446,-0.6 1.778,-1.446 0.198,-0.505 0.992,-1.24 1.653,-1.4 0.661,-0.161 1.011,-0.696 1.191,-1.217 0.179,-0.521 0.191,-0.568 0.343,-0.778 0.15,-0.213 0.389,-0.352 0.66,-0.383 0.087,-0.012 0.17,-0.018 0.25,-0.017 0.609,-0.004 1.038,0.477 1.038,0.477 0.062,-0.2 0.079,-0.415 -0.033,-0.654 -0.111,-0.239 -0.385,-0.493 -0.716,-0.448 l -0.452,-0.011 c -0.043,-0.06 -0.363,-0.212 -0.363,-0.212 0.248,-0.224 1.521,-0.913 2.121,-1.642 0.257,-0.311 1.598,-1.957 1.405,-2.567 -0.194,-0.609 -0.157,-0.579 -0.157,-0.579 0,0 0.978,-0.929 1.481,-2.688 0.12,-0.423 0.733,-1.149 1.077,-1.158 0.248,-0.007 0.509,0.397 0.597,0.603 0,0 0.047,-0.342 -0.019,-0.726 -0.036,-0.207 -0.141,-0.652 -0.29,-0.938 l -0.297,-0.207 c -0.213,-0.412 -0.084,-0.836 -0.084,-0.836 l -0.247,0.371 c 10e-4,-0.554 1.004,-2.187 1.004,-2.187 0.705,-1.331 1.46,-2.961 0.666,-3.271 -0.338,-0.132 -0.414,-0.14 -0.428,-0.132 0.015,-0.396 0.847,-0.644 0.789,-0.753 l -0.146,0.058 c -0.003,-0.005 0.003,-0.012 0.006,-0.018 l -0.579,0.443 0.308,-0.425 c 1.411,-1.515 2.161,-5.071 2.008,-6.647 l -0.104,-0.589 0.188,-0.441 c 0.115,-0.303 0.44,-0.778 0.504,-1.695 0.045,-0.646 -0.178,-1.212 -0.5,-1.636 -0.167,0.056 -0.347,0.1 -0.54,0.129 -0.569,0.872 -1.115,1.397 -1.305,1.559 l -0.465,0.177 0.046,-0.038 c 0.126,-0.107 0.809,-0.987 1.063,-1.668 -0.038,-0.002 -0.074,-10e-4 -0.113,-0.004 -0.35,-0.029 -0.663,-0.103 -0.952,-0.207 -0.143,0.9 -0.616,1.495 -1.089,1.976 -0.574,0.589 -1.161,1.056 -1.347,1.858 L -46.19,4.913 c 0.239,-1.007 0.653,-1.622 1.191,-2.18 0.505,-0.529 0.833,-0.944 0.882,-1.848 -0.013,-0.008 -0.028,-0.014 -0.041,-0.022 -0.432,0.271 -1.011,0.501 -1.744,0.504 -0.094,0 -0.189,-0.005 -0.288,-0.012 -0.337,-0.028 -0.641,-0.098 -0.922,-0.196 0.194,0.82 0.521,3.712 -0.003,5.849 l -0.586,0.444 c 0.147,-2.99 -0.19,-4.584 -1.249,-6.134 -0.174,0.03 -0.358,0.048 -0.554,0.048 -0.094,0 -0.19,-0.003 -0.287,-0.011 -0.618,-0.05 -1.132,-0.235 -1.572,-0.492 -0.431,0.27 -1.01,0.501 -1.743,0.503 -0.093,0 -0.19,-0.004 -0.287,-0.012 -0.618,-0.05 -1.132,-0.234 -1.571,-0.491 -0.432,0.27 -1.011,0.501 -1.744,0.503 -0.094,0 -0.19,-0.003 -0.288,-0.011 -0.617,-0.05 -1.131,-0.235 -1.571,-0.492 -0.431,0.27 -1.01,0.501 -1.743,0.503 -0.093,0 -0.189,-0.004 -0.288,-0.012 -0.617,-0.05 -1.131,-0.234 -1.571,-0.491 -0.431,0.27 -1.01,0.501 -1.743,0.503 -0.094,0 -0.19,-0.003 -0.287,-0.011 -0.39,-0.032 -0.735,-0.122 -1.049,-0.244 0.815,1.486 2.533,2.832 4.457,4.317 -0.371,-0.258 -0.731,-0.505 -1.074,-0.74 0.373,0.268 0.763,0.536 1.163,0.809 -0.029,-0.023 -0.059,-0.046 -0.089,-0.069 0.135,0.095 0.271,0.191 0.409,0.288 2.579,1.761 5.497,3.794 7.056,7.294 0.507,1.001 0.879,2.083 1.059,3.254 0.136,0.885 0.201,1.744 0.201,2.575 0.002,6.083 -3.513,10.559 -8.437,11.892 l -0.08,-0.221 c 0,0 1.34,-0.703 1.6,-0.857 2.24,-1.336 6.108,-4.405 6.106,-10.127 0,-1.328 -0.208,-2.8 -0.693,-4.429 -0.864,-2.917 -3.273,-5.283 -5.828,-7.353 -2.419,-1.762 -4.955,-3.214 -6.48,-4.98 -0.664,-0.768 -0.879,-1.29 -0.915,-1.335 l -0.088,-0.126 c -0.197,0.038 -0.407,0.063 -0.633,0.063 -0.094,0 -0.189,-0.004 -0.287,-0.012 -0.618,-0.049 -1.132,-0.234 -1.572,-0.491 -0.431,0.27 -1.01,0.501 -1.743,0.503 -0.094,0 -0.19,-0.004 -0.287,-0.012 -0.027,-0.002 -0.051,-0.008 -0.078,-0.01 0.65,1.096 1.722,2.263 2.866,3.248 l 0.487,0.453 c 2.308,2.003 4.305,3.555 5.692,5.186 1.467,1.729 1.918,3.628 1.918,5.224 0,2.483 -1.403,4.315 -3.209,4.607 l -0.082,0.012 -0.109,-0.235 -0.067,-0.145 0.133,-0.02 0.148,-0.026 c 1.42,-0.301 2.654,-1.988 2.652,-4.19 0.002,0 0.002,-0.003 0.002,-0.003 -0.002,-1.459 -0.539,-3.14 -1.927,-4.777 -1.294,-1.531 -3.92,-3.444 -6.287,-5.498 -1.4,-1.219 -2.921,-2.671 -3.749,-4.294 -0.428,0.26 -0.993,0.478 -1.705,0.481 -0.094,0 -0.19,-0.004 -0.287,-0.013 -0.504,-0.04 -0.935,-0.173 -1.317,-0.359 0.159,0.361 0.335,0.705 0.526,1.03 1.423,2.009 4,3.914 4.654,4.293 3.956,2.336 8.818,6.911 8.964,9.455 0.002,0.057 0.002,0.114 0.002,0.175 0,0.532 -0.094,1.182 -0.241,1.582 -0.449,1.251 -1.728,1.779 -2.755,1.779 -0.099,0 -0.197,-0.005 -0.291,-0.015 -0.769,-0.078 -1.062,-0.223 -1.306,-0.339 -2.013,-0.71 -2.862,-0.835 -4.1,-2.631 L -70.97,16.22 c -0.62,-0.879 -0.886,-1.138 -1.189,-1.475 l -0.265,-0.277 c -0.328,-0.356 -0.365,-0.606 -0.551,-1.285 -0.06,-0.605 -0.095,-0.583 -0.095,-1.318 0,-0.016 0,-0.031 0.004,-0.046 0,-0.795 0.114,-2.391 0.114,-2.45 L -72.98,9.052 c -10e-4,-0.023 0.001,-0.028 0,-0.029 C -72.989,8.104 -73.483,7.888 -74.238,7.656 -74.302,7.638 -74.365,7.63 -74.427,7.629 -74.431,7.63 -74.436,7.63 -74.44,7.63 V 7.629 c -0.226,0 -0.445,0.118 -0.664,0.261 -0.217,0.136 -0.417,0.336 -0.724,0.353 -0.071,0 -0.134,-0.013 -0.196,-0.039 -0.128,-0.053 -0.213,-0.074 -0.255,-0.073 h -0.013 c -0.065,-0.002 -0.21,0.057 -0.529,0.345 -0.47,0.417 -0.771,1.091 -1.228,2.21 -0.103,0.236 -0.159,0.624 -0.159,1.121 l 0.002,0.021 -0.002,0.02 c 0.002,1.381 0.548,3.565 1.215,6.047 0.509,1.902 0.594,3.565 0.594,4.89 0,1.112 -0.171,2.896 -0.171,2.898 -0.043,0.75 -0.188,0.947 -0.176,1.015 0,0.015 0.002,0.03 0.017,0.065 0.165,0.423 0.954,2.064 1.708,3.161 l 0.066,0.095 -0.341,0.255 -0.028,0.021 h -0.036 -0.06 l -0.033,-0.05 c -0.764,-1.12 -1.548,-2.413 -1.871,-3.098 -0.071,-0.151 -0.077,-0.3 -0.077,-0.43 0.04,-0.567 0.294,-0.516 0.291,-1.4 l 0.003,-0.01 c 0,-0.565 0.079,-1.41 0.079,-2.492 -0.002,-1.295 -0.114,-2.922 -0.606,-4.76 -0.674,-2.519 -1.106,-4.735 -1.107,-6.228 0,-0.549 0.054,-1.004 0.202,-1.361 0.459,-1.111 0.771,-1.87 1.37,-2.411 0.344,-0.305 0.585,-0.473 0.884,-0.479 0.17,0 0.314,0.054 0.457,0.113 h 0.012 c 0.044,-0.013 0.236,-0.122 0.423,-0.261 0.238,-0.16 0.555,-0.353 0.953,-0.353 0.112,0 0.224,0.015 0.34,0.047 0.828,0.228 1.89,0.867 1.899,2.162 0,0.095 -0.007,0.192 -0.019,0.29 -0.112,0.904 -0.317,1.544 -0.315,2.241 h -0.004 c 0.004,0.345 0.047,0.677 0.159,1.071 0.189,0.654 0.334,0.854 0.617,1.171 0.283,0.318 0.707,0.721 1.33,1.611 1.216,1.721 1.807,2.024 3.847,2.766 0.398,0.144 0.799,0.218 1.179,0.218 1.018,-0.009 1.867,-0.491 2.282,-1.617 0.142,-0.401 0.248,-0.801 0.248,-1.245 -0.003,-0.01 0.002,-0.023 0,-0.023 0.011,-1.615 -1.547,-4.206 -9.217,-9.42 -2.395,-1.633 -4.03,-2.57 -5.103,-4.99 -0.031,-0.052 -0.059,-0.106 -0.089,-0.159 -0.303,0.101 -0.646,0.167 -1.033,0.168 -0.094,0 -0.19,-0.004 -0.288,-0.012 -1.797,-0.145 -2.727,-1.409 -3.449,-2.381 l -0.211,-0.285 0.327,-0.114 c 0.672,-0.233 1.562,-0.706 2.858,-0.706 0.111,0 0.226,0.003 0.343,0.011 0.497,0.034 0.939,0.167 1.324,0.347 0.526,-0.187 1.156,-0.358 1.935,-0.358 0.11,0 0.225,0.004 0.343,0.011 0.497,0.034 0.939,0.167 1.324,0.347 0.526,-0.187 1.156,-0.358 1.935,-0.358 0.11,0 0.225,0.004 0.343,0.011 0.497,0.034 0.94,0.167 1.324,0.347 0.526,-0.187 1.156,-0.358 1.935,-0.358 0.111,0 0.225,0.004 0.343,0.011 0.497,0.034 0.939,0.167 1.324,0.347 0.526,-0.187 1.156,-0.358 1.935,-0.358 0.11,0 0.225,0.003 0.343,0.011 0.497,0.034 0.939,0.167 1.324,0.347 0.526,-0.187 1.155,-0.358 1.934,-0.358 0.111,0 0.226,0.003 0.344,0.01 0.497,0.034 0.94,0.168 1.324,0.348 0.526,-0.187 1.156,-0.358 1.935,-0.358 0.111,0 0.225,0.003 0.343,0.011 0.497,0.033 0.94,0.167 1.324,0.347 0.526,-0.187 1.156,-0.358 1.935,-0.358 0.111,0 0.225,0.004 0.343,0.011 0.497,0.034 0.94,0.167 1.324,0.347 0.526,-0.187 1.156,-0.358 1.934,-0.358 0.111,0 0.226,0.003 0.344,0.011 0.497,0.034 0.939,0.167 1.323,0.347 0.527,-0.187 1.157,-0.358 1.935,-0.358 0.112,0 0.226,0.004 0.344,0.011 0.497,0.034 0.939,0.167 1.324,0.347 0.526,-0.187 1.156,-0.358 1.934,-0.358 0.111,0 0.226,0.003 0.344,0.011 0.497,0.034 0.94,0.167 1.324,0.347 0.526,-0.187 1.156,-0.358 1.935,-0.358 0.111,0 0.225,0.004 0.343,0.011 0.497,0.034 0.94,0.167 1.324,0.347 0.526,-0.187 1.156,-0.358 1.935,-0.358 0.11,0 0.225,0.004 0.343,0.011 0.497,0.033 0.94,0.167 1.324,0.347 0.526,-0.187 1.156,-0.358 1.934,-0.358 0.112,0 0.226,0.004 0.344,0.011 0.497,0.034 0.939,0.167 1.324,0.347 0.526,-0.187 1.156,-0.358 1.935,-0.358 0.111,0 0.225,0.003 0.343,0.011 0.497,0.034 0.94,0.167 1.324,0.347 0.526,-0.187 1.156,-0.358 1.934,-0.358 0.111,0 0.226,0.003 0.344,0.011 0.497,0.034 0.939,0.167 1.324,0.347 0.526,-0.187 1.156,-0.358 1.935,-0.358 0.11,0 0.225,0.003 0.343,0.011 0.497,0.034 0.939,0.167 1.324,0.347 0.526,-0.187 1.156,-0.358 1.935,-0.358 0.11,0 0.225,0.003 0.343,0.011 0.497,0.034 0.94,0.167 1.324,0.347 0.526,-0.187 1.156,-0.358 1.935,-0.358 0.111,0 0.225,0.003 0.343,0.011 0.497,0.034 0.94,0.167 1.324,0.347 0.526,-0.187 1.156,-0.358 1.934,-0.358 0.112,0 0.226,0.004 0.344,0.011 0.497,0.034 0.939,0.167 1.324,0.347 0.526,-0.187 1.156,-0.358 1.935,-0.358 0.111,0 0.225,0.004 0.343,0.011 0.497,0.034 0.94,0.167 1.324,0.347 0.526,-0.187 1.156,-0.358 1.935,-0.358 0.111,0 0.225,0.004 0.343,0.011 1.961,0.133 3.077,1.809 3.096,1.828 l 0.099,0.146 z m -8.533,13.025 c 0.003,-0.009 0.004,-0.018 0.007,-0.027 l -0.009,0.02 z m -9.503,2.883 c -0.003,0 0.003,0.012 0,0.023 0,0.444 0.105,0.844 0.247,1.244 0.416,1.127 1.264,1.609 2.282,1.618 0.381,0 0.782,-0.074 1.179,-0.219 2.041,-0.741 2.632,-1.044 3.848,-2.765 0.02,-0.028 0.037,-0.052 0.057,-0.079 -0.412,-0.463 -0.984,-0.588 -1.691,-0.59 -0.697,-0.001 -1.486,0.13 -2.246,0.131 -0.671,0 -1.337,-0.105 -1.878,-0.547 -0.383,-0.324 -0.623,-0.825 -0.747,-1.355 -0.804,1.076 -1.056,1.887 -1.051,2.539 m 2.794,-4.448 c -0.358,0.339 -0.674,0.66 -0.951,0.962 0.008,0.017 0.013,0.032 0.021,0.049 0.226,0.453 0.789,0.748 1.342,0.746 0.157,0 0.309,-0.022 0.453,-0.069 -0.265,-0.279 -0.63,-0.802 -0.865,-1.688 m 0.833,-1.909 c -10e-4,0.107 0.012,0.214 0.03,0.32 0.125,-0.112 0.251,-0.223 0.379,-0.333 -0.006,-0.085 -0.014,-0.171 -0.014,-0.256 0,-0.213 0.019,-0.428 0.064,-0.634 0.008,-0.039 0.022,-0.087 0.04,-0.139 0.038,-0.136 0.083,-0.267 0.143,-0.384 -0.451,0.428 -0.641,0.93 -0.642,1.426 m 0.677,1.144 c -0.059,-0.141 -0.106,-0.291 -0.148,-0.445 -0.098,0.082 -0.192,0.163 -0.286,0.243 0.172,0.322 0.429,0.613 0.766,0.839 0.006,0.003 0.012,0.007 0.018,0.01 -0.129,-0.198 -0.25,-0.409 -0.35,-0.647 m 0.765,-0.113 c -0.144,-0.263 -0.245,-0.549 -0.307,-0.83 -0.06,-0.272 -0.08,-0.537 -0.063,-0.772 0.016,-0.22 0.061,-0.416 0.145,-0.558 0.019,-0.034 0.045,-0.073 0.073,-0.113 0.033,-0.08 0.072,-0.156 0.116,-0.231 -0.087,0.034 -0.233,0.111 -0.353,0.265 -0.059,0.12 -0.107,0.254 -0.144,0.412 -0.028,0.125 -0.041,0.26 -0.047,0.397 -0.002,0.043 -0.006,0.085 -0.006,0.129 -10e-4,0.212 0.023,0.431 0.067,0.643 0.042,0.204 0.102,0.401 0.177,0.576 0.207,0.501 0.552,0.898 0.895,1.421 l -0.328,0.326 -0.204,-0.16 c -0.145,-0.05 -0.283,-0.11 -0.414,-0.178 -0.588,-0.179 -0.978,-0.584 -1.215,-1.06 -0.096,-0.192 -0.168,-0.396 -0.216,-0.603 -0.055,-0.234 -0.081,-0.471 -0.081,-0.695 0,-0.127 0.009,-0.254 0.03,-0.381 -0.098,0.234 -0.153,0.487 -0.153,0.747 0,0.039 0.002,0.08 0.002,0.119 0.009,0.128 0.02,0.25 0.033,0.368 0.028,0.253 0.067,0.481 0.112,0.69 0.236,1.079 0.665,1.589 0.881,1.793 0.093,0.087 0.137,0.109 0.137,0.109 l 0.346,0.199 -0.333,0.266 c -0.307,0.2 -0.621,0.363 -0.971,0.365 h -0.078 c -0.665,-0.004 -1.306,-0.43 -1.658,-1.032 -0.026,0.03 -0.05,0.06 -0.075,0.089 0.068,0.584 0.309,1.19 0.649,1.459 0.414,0.343 0.96,0.443 1.59,0.443 0.709,0.003 1.496,-0.13 2.246,-0.13 0.721,-0.003 1.444,0.13 1.977,0.68 h 0.003 c 0.193,-0.358 0.525,-0.983 0.829,-1.588 -0.141,-0.254 -0.758,-0.543 -1.326,-0.739 -0.474,-0.166 -0.66,-0.321 -0.773,-0.445 -0.016,-0.033 -0.031,0.003 -0.055,-0.114 0,-0.093 0.1,-0.123 0.119,-0.123 0.114,0.02 0.166,0.075 0.38,0.154 0.197,0.077 0.476,0.167 0.828,0.217 0.51,0.071 0.852,0.119 1.187,0.324 0.036,-0.075 0.071,-0.145 0.102,-0.21 L -8.968,12.44 c -0.364,-0.461 -0.871,-0.592 -1.703,-0.776 -0.882,-0.206 -1.882,-0.322 -2.296,-1.082 m 1.062,-2.732 c -0.222,-0.009 -0.545,0.203 -0.695,0.451 -0.03,0.048 -0.056,0.1 -0.079,0.154 0.265,-0.207 0.533,-0.407 0.801,-0.602 -0.01,-10e-4 -0.018,-0.003 -0.027,-0.003 m -27.547,-6.144 0.344,1.995 c 0.145,-0.09 0.325,-0.134 0.534,-0.134 h 0.006 c 0.372,0 0.851,0.118 1.471,0.34 l 0.477,0.175 -0.494,0.111 c -0.784,0.187 -1.162,0.278 -1.774,0.786 l 0.584,3.388 c 0.154,-0.121 0.357,-0.176 0.598,-0.176 h 0.006 c 0.372,0 0.85,0.117 1.471,0.34 l 0.478,0.173 -0.495,0.113 c -0.796,0.189 -1.176,0.282 -1.807,0.814 0.247,1.063 0.5,2.144 0.745,3.176 0.1,-0.041 0.214,-0.061 0.342,-0.061 h 0.006 c 0.298,0 0.681,0.095 1.179,0.274 l 0.384,0.139 -0.397,0.09 c -0.567,0.134 -0.871,0.209 -1.284,0.52 0.018,0.074 0.036,0.15 0.054,0.223 0.246,0.898 0.524,1.889 0.81,2.881 0.122,-0.05 0.266,-0.066 0.428,-0.069 0.422,0 0.952,0.121 1.317,0.276 l 0.264,0.114 -0.269,0.107 c -0.591,0.243 -0.924,0.369 -1.393,0.751 0.02,0.066 0.039,0.132 0.059,0.197 0.354,1.178 0.723,2.288 1.107,3.336 0.345,-0.104 0.643,-0.168 0.951,-0.168 0.304,0 0.614,0.058 0.988,0.183 l 0.39,0.131 -0.398,0.099 c -0.513,0.123 -1.26,0.34 -1.52,0.832 0.655,1.656 1.358,3.142 2.119,4.473 0.419,-0.383 1.067,-0.669 1.65,-0.673 0.028,0 0.058,0 0.088,0.003 l 0.035,0.23 c -0.531,0.213 -1.07,0.863 -1.156,1.463 0.935,1.471 1.955,2.733 3.081,3.806 0.282,-0.513 0.82,-1.068 1.347,-1.203 l 0.3,-0.072 -0.184,0.257 c -0.373,0.537 -0.659,1.052 -0.659,1.729 0,0.002 0.001,0.004 0.001,0.006 1.205,1.011 2.527,1.83 3.983,2.483 0.26,-0.412 0.658,-0.716 0.963,-0.89 l 0.294,-0.168 -0.134,0.32 c -0.154,0.362 -0.374,0.751 -0.369,1.049 0,0.003 0.001,0.006 0.001,0.009 0.034,0.013 0.067,0.028 0.101,0.041 1.543,0.603 3.122,0.958 4.648,1.137 0.1,-0.413 0.238,-0.807 0.567,-1.137 l 0.187,0.128 c -0.039,0.11 -0.054,0.218 -0.054,0.331 -10e-4,0.238 0.076,0.493 0.153,0.761 0.552,0.042 1.094,0.063 1.623,0.063 0.009,0 0.013,0 0.024,0 0.824,10e-4 1.614,-0.049 2.355,-0.132 -10e-4,-0.021 -0.004,-0.043 -0.004,-0.065 -0.002,-0.359 0.109,-0.72 0.384,-1.145 l 0.197,-0.305 0.013,0.368 c 0.014,0.369 0.096,0.703 0.228,1.04 1.553,-0.237 2.824,-0.619 3.607,-0.995 l -1.625,-1.247 c -0.727,0.274 -3.07,1.1 -5.259,1.103 -0.034,-10e-4 -0.076,0 -0.124,-10e-4 -2.633,-0.039 -5.571,-1.124 -8.519,-2.908 -7.391,-5.057 -8.57,-16.959 -8.765,-18.631 -0.18,-1.591 -0.363,-3.783 -0.481,-5.319 -0.09,-1.181 -0.179,-5.391 -0.215,-7.275 l -0.197,-0.089 c -0.297,0.096 -0.633,0.158 -1.01,0.16 -0.094,0 -0.189,-0.005 -0.287,-0.013 -0.469,-0.038 -0.877,-0.153 -1.239,-0.319 -0.115,-0.053 -0.226,-0.11 -0.332,-0.172 -0.432,0.27 -1.011,0.501 -1.744,0.503 -0.093,0 -0.189,-0.004 -0.287,-0.012 -0.197,-0.016 -0.381,-0.049 -0.558,-0.091 z m -39.316,-3.317 c -0.107,-0.006 -0.212,-0.009 -0.314,-0.009 -1.009,0 -1.734,0.308 -2.377,0.557 0.681,0.9 1.47,1.791 2.89,1.908 0.086,0.007 0.169,0.01 0.25,0.01 0.293,0 0.554,-0.047 0.79,-0.117 0.024,-0.007 0.047,-0.015 0.07,-0.023 0.015,-0.005 0.031,-0.009 0.046,-0.014 0.132,-0.046 0.258,-0.097 0.372,-0.156 -0.26,-0.205 -0.488,-0.437 -0.697,-0.673 -0.267,-0.301 -0.502,-0.612 -0.715,-0.899 l -0.212,-0.284 0.327,-0.115 c 0.066,-0.023 0.135,-0.049 0.205,-0.076 -0.2,-0.056 -0.412,-0.095 -0.635,-0.109 m 3.602,0 c -0.108,-0.006 -0.212,-0.009 -0.314,-0.009 -0.511,0 -0.948,0.079 -1.339,0.189 -0.222,0.063 -0.429,0.135 -0.626,0.21 -0.142,0.053 -0.279,0.107 -0.412,0.158 0.151,0.2 0.31,0.397 0.478,0.587 0.018,0.021 0.036,0.042 0.054,0.062 0.012,0.014 0.023,0.028 0.035,0.041 0.203,0.221 0.424,0.425 0.67,0.604 0.011,0.008 0.021,0.018 0.032,0.026 0.144,0.102 0.295,0.195 0.458,0.274 0.337,0.165 0.719,0.277 1.163,0.313 0.086,0.008 0.168,0.011 0.249,0.011 0.514,0 0.938,-0.134 1.279,-0.31 -0.593,-0.468 -1.032,-1.06 -1.413,-1.572 l -0.211,-0.284 0.327,-0.115 c 0.066,-0.023 0.135,-0.049 0.205,-0.076 -0.2,-0.056 -0.412,-0.095 -0.635,-0.109 m 3.602,0 c -0.107,-0.007 -0.212,-0.009 -0.314,-0.009 -0.511,0 -0.948,0.079 -1.339,0.189 -0.222,0.063 -0.429,0.135 -0.626,0.21 -0.142,0.053 -0.279,0.107 -0.412,0.159 0.253,0.333 0.523,0.662 0.833,0.954 0.137,0.13 0.28,0.254 0.436,0.365 0.144,0.102 0.295,0.195 0.458,0.275 0.227,0.11 0.477,0.195 0.75,0.251 0.132,0.027 0.268,0.05 0.413,0.062 0.085,0.007 0.168,0.01 0.249,0.01 0.514,0 0.938,-0.134 1.279,-0.31 -0.593,-0.468 -1.033,-1.06 -1.413,-1.572 l -0.21,-0.284 0.326,-0.115 c 0.065,-0.023 0.135,-0.049 0.205,-0.076 -0.2,-0.056 -0.412,-0.096 -0.635,-0.109 m 3.602,0 c -0.108,-0.006 -0.213,-0.009 -0.314,-0.009 -0.51,0 -0.948,0.079 -1.339,0.189 -0.222,0.063 -0.429,0.135 -0.626,0.21 -0.142,0.053 -0.279,0.107 -0.412,0.158 0.365,0.482 0.762,0.961 1.269,1.32 0.143,0.102 0.295,0.195 0.458,0.275 0.337,0.164 0.719,0.276 1.163,0.313 0.085,0.007 0.168,0.01 0.249,0.01 0.106,0 0.207,-0.009 0.306,-0.02 0.378,-0.04 0.703,-0.15 0.973,-0.29 -0.089,-0.07 -0.168,-0.147 -0.25,-0.222 -0.467,-0.426 -0.839,-0.915 -1.162,-1.35 l -0.212,-0.284 0.327,-0.115 c 0.066,-0.023 0.135,-0.049 0.205,-0.076 -0.2,-0.056 -0.412,-0.095 -0.635,-0.109 m 3.602,0 c -0.108,-0.006 -0.212,-0.009 -0.314,-0.009 -0.511,0 -0.948,0.079 -1.339,0.189 -0.222,0.063 -0.429,0.135 -0.626,0.21 -0.142,0.053 -0.279,0.107 -0.412,0.158 0.222,0.293 0.458,0.58 0.721,0.844 0.014,0.015 0.029,0.029 0.043,0.043 0.125,0.123 0.257,0.239 0.397,0.346 0.037,0.028 0.07,0.06 0.108,0.087 0.135,0.095 0.277,0.182 0.429,0.259 0.01,0.005 0.019,0.011 0.029,0.016 0.337,0.164 0.719,0.276 1.163,0.313 0.086,0.007 0.168,0.01 0.249,0.01 0.515,0 0.938,-0.134 1.279,-0.31 -0.593,-0.468 -1.033,-1.06 -1.412,-1.572 l -0.212,-0.284 0.327,-0.115 c 0.066,-0.023 0.135,-0.049 0.204,-0.076 -0.2,-0.056 -0.411,-0.095 -0.634,-0.109 m 3.602,0 c -0.108,-0.007 -0.213,-0.009 -0.315,-0.009 -0.51,0 -0.947,0.079 -1.338,0.189 -0.223,0.063 -0.429,0.135 -0.627,0.21 -0.141,0.053 -0.279,0.107 -0.411,0.159 0.365,0.481 0.762,0.96 1.269,1.319 0.144,0.102 0.295,0.195 0.458,0.275 0.337,0.164 0.719,0.276 1.163,0.313 0.086,0.007 0.169,0.01 0.249,0.01 0.515,0 0.938,-0.134 1.279,-0.31 -0.593,-0.468 -1.032,-1.06 -1.412,-1.572 l -0.212,-0.284 0.327,-0.115 c 0.066,-0.023 0.136,-0.049 0.206,-0.076 -0.201,-0.056 -0.413,-0.096 -0.636,-0.109 m 3.602,0 c -0.108,-0.007 -0.213,-0.009 -0.314,-0.009 -0.51,0 -0.948,0.079 -1.339,0.189 -0.222,0.063 -0.429,0.135 -0.626,0.21 -0.142,0.053 -0.279,0.107 -0.412,0.158 0.365,0.482 0.762,0.961 1.269,1.32 0.143,0.102 0.295,0.195 0.458,0.275 0.336,0.164 0.719,0.276 1.163,0.313 0.086,0.007 0.169,0.01 0.249,0.01 0.515,0 0.938,-0.134 1.279,-0.31 -0.593,-0.468 -1.032,-1.06 -1.412,-1.572 l -0.212,-0.284 0.327,-0.115 c 0.065,-0.023 0.135,-0.049 0.205,-0.076 -0.2,-0.056 -0.412,-0.095 -0.635,-0.109 m 3.602,0 c -0.108,-0.007 -0.213,-0.01 -0.314,-0.01 -0.511,10e-4 -0.948,0.08 -1.339,0.19 -0.222,0.063 -0.429,0.135 -0.626,0.21 -0.142,0.053 -0.279,0.107 -0.412,0.159 0.365,0.481 0.762,0.96 1.269,1.319 0.144,0.102 0.295,0.195 0.458,0.275 0.337,0.164 0.719,0.276 1.163,0.313 0.086,0.007 0.169,0.01 0.249,0.01 0.515,0 0.938,-0.134 1.279,-0.31 -0.593,-0.468 -1.033,-1.06 -1.413,-1.572 l -0.211,-0.284 0.327,-0.115 c 0.066,-0.023 0.135,-0.049 0.205,-0.076 -0.2,-0.056 -0.412,-0.095 -0.635,-0.109 m 3.602,0 c -0.108,-0.007 -0.213,-0.01 -0.315,-0.01 -0.51,10e-4 -0.947,0.08 -1.338,0.19 -0.223,0.063 -0.429,0.135 -0.626,0.21 -0.142,0.053 -0.28,0.107 -0.412,0.159 0.365,0.481 0.762,0.96 1.269,1.319 0.144,0.102 0.295,0.195 0.458,0.275 0.337,0.164 0.719,0.276 1.163,0.313 0.086,0.007 0.169,0.01 0.249,0.01 0.071,0 0.136,-0.008 0.203,-0.013 0.34,-0.025 0.638,-0.104 0.894,-0.214 0.061,-0.027 0.124,-0.053 0.182,-0.083 -0.593,-0.468 -1.033,-1.06 -1.413,-1.572 l -0.211,-0.284 0.327,-0.115 c 0.066,-0.023 0.135,-0.049 0.205,-0.076 -0.201,-0.056 -0.412,-0.095 -0.635,-0.109 m 3.602,0 c -0.107,-0.007 -0.212,-0.009 -0.315,-0.009 -0.51,0 -0.947,0.079 -1.338,0.189 -0.223,0.063 -0.429,0.135 -0.626,0.21 -0.142,0.053 -0.279,0.107 -0.412,0.159 0.365,0.481 0.762,0.96 1.269,1.319 0.143,0.101 0.295,0.195 0.458,0.275 0.336,0.164 0.719,0.276 1.163,0.313 0.086,0.007 0.169,0.01 0.249,0.01 0.514,0 0.938,-0.134 1.279,-0.31 -0.592,-0.468 -1.032,-1.06 -1.412,-1.572 l -0.212,-0.284 0.327,-0.115 c 0.065,-0.023 0.135,-0.049 0.204,-0.076 -0.2,-0.056 -0.411,-0.095 -0.634,-0.109 m 3.602,0 c -0.108,-0.006 -0.213,-0.009 -0.315,-0.009 -0.51,0 -0.947,0.079 -1.338,0.189 -0.222,0.063 -0.429,0.135 -0.626,0.21 -0.142,0.053 -0.279,0.107 -0.412,0.159 0.365,0.481 0.762,0.96 1.27,1.319 0.02,0.014 0.041,0.027 0.062,0.041 0.125,0.085 0.255,0.165 0.395,0.234 0.07,0.034 0.144,0.065 0.219,0.094 0.281,0.112 0.593,0.19 0.944,0.219 0.056,0.004 0.11,0.005 0.164,0.007 0.028,0 0.058,0.003 0.085,0.003 0.227,0 0.433,-0.029 0.625,-0.073 0.086,-0.02 0.169,-0.044 0.249,-0.071 0.074,-0.112 0.153,-0.215 0.24,-0.312 -0.049,-0.043 -0.099,-0.086 -0.147,-0.131 -0.023,-0.022 -0.049,-0.041 -0.071,-0.064 -0.406,-0.396 -0.737,-0.837 -1.03,-1.231 l -0.211,-0.284 0.327,-0.115 c 0.066,-0.023 0.135,-0.049 0.205,-0.076 -0.2,-0.056 -0.412,-0.095 -0.635,-0.109 m 3.602,0 c -0.108,-0.006 -0.212,-0.01 -0.314,-0.01 -0.511,10e-4 -0.948,0.08 -1.339,0.19 -0.223,0.063 -0.429,0.135 -0.626,0.21 -0.142,0.053 -0.28,0.107 -0.412,0.158 0.365,0.482 0.762,0.96 1.269,1.32 0.138,0.098 0.284,0.187 0.44,0.265 l 0.026,0.003 c -0.003,0.002 -0.005,0.004 -0.008,0.007 0.142,0.069 0.294,0.127 0.454,0.176 0.219,0.067 0.453,0.116 0.709,0.137 0.086,0.007 0.169,0.01 0.249,0.01 0.392,0 0.731,-0.079 1.021,-0.193 0.091,-0.036 0.177,-0.075 0.258,-0.117 -0.048,-0.037 -0.089,-0.08 -0.134,-0.119 -0.523,-0.447 -0.929,-0.982 -1.278,-1.453 l -0.212,-0.284 0.327,-0.115 c 0.066,-0.023 0.135,-0.049 0.205,-0.076 -0.2,-0.056 -0.412,-0.095 -0.635,-0.109 m 3.602,0 c -0.108,-0.006 -0.213,-0.009 -0.314,-0.009 -0.51,0 -0.948,0.079 -1.339,0.189 -0.223,0.063 -0.429,0.135 -0.626,0.21 -0.142,0.053 -0.28,0.107 -0.412,0.159 0.365,0.481 0.762,0.96 1.269,1.319 0.091,0.065 0.188,0.124 0.286,0.181 0.057,0.032 0.113,0.065 0.173,0.094 0.336,0.164 0.718,0.276 1.162,0.313 0.086,0.007 0.168,0.01 0.249,0.01 0.514,0 0.938,-0.134 1.279,-0.31 -0.066,-0.051 -0.122,-0.109 -0.184,-0.163 -0.498,-0.439 -0.89,-0.953 -1.229,-1.409 l -0.211,-0.284 0.327,-0.115 c 0.066,-0.023 0.135,-0.049 0.205,-0.076 -0.2,-0.056 -0.412,-0.096 -0.635,-0.109 m 3.601,0 c -0.107,-0.006 -0.212,-0.01 -0.314,-0.01 -0.51,10e-4 -0.947,0.08 -1.338,0.19 -0.222,0.063 -0.429,0.135 -0.626,0.21 -0.142,0.053 -0.279,0.107 -0.412,0.158 0.365,0.482 0.762,0.961 1.269,1.32 0.021,0.015 0.044,0.029 0.066,0.043 0.124,0.085 0.253,0.164 0.392,0.232 0.174,0.085 0.362,0.155 0.563,0.209 0.187,0.05 0.386,0.086 0.6,0.104 0.085,0.007 0.168,0.01 0.249,0.01 0.514,0 0.938,-0.134 1.279,-0.31 -0.593,-0.468 -1.033,-1.06 -1.413,-1.572 l -0.211,-0.285 0.327,-0.114 c 0.066,-0.023 0.135,-0.049 0.205,-0.076 -0.2,-0.056 -0.412,-0.095 -0.636,-0.109 m 3.603,0 c -0.108,-0.007 -0.213,-0.01 -0.314,-0.01 -0.511,10e-4 -0.948,0.08 -1.339,0.19 -0.223,0.063 -0.43,0.135 -0.627,0.21 -0.141,0.053 -0.279,0.107 -0.412,0.158 0.366,0.482 0.763,0.961 1.27,1.32 0.144,0.102 0.295,0.195 0.458,0.275 0.243,0.118 0.511,0.209 0.808,0.264 10e-4,0 0.002,0 0.003,0.001 0.005,0 0.01,0.002 0.016,0.003 0.108,0.02 0.22,0.035 0.336,0.045 0.085,0.007 0.168,0.01 0.249,0.01 0.514,0 0.938,-0.134 1.278,-0.31 -0.165,-0.13 -0.315,-0.271 -0.459,-0.416 -0.371,-0.376 -0.678,-0.786 -0.953,-1.156 l -0.21,-0.284 0.326,-0.115 c 0.066,-0.023 0.135,-0.049 0.205,-0.076 -0.2,-0.056 -0.412,-0.095 -0.635,-0.109 m 3.601,0 c -0.107,-0.007 -0.212,-0.009 -0.314,-0.009 -0.51,0 -0.947,0.079 -1.338,0.189 -0.223,0.063 -0.429,0.135 -0.627,0.21 -0.141,0.053 -0.279,0.107 -0.412,0.158 0.249,0.328 0.515,0.651 0.816,0.939 0.143,0.136 0.291,0.266 0.454,0.381 0.028,0.02 0.059,0.039 0.088,0.058 0.118,0.079 0.239,0.153 0.37,0.217 0.337,0.164 0.719,0.276 1.163,0.313 0.085,0.007 0.169,0.01 0.249,0.01 0.514,0 0.938,-0.134 1.279,-0.31 -0.592,-0.468 -1.032,-1.06 -1.412,-1.572 l -0.212,-0.284 0.327,-0.115 c 0.066,-0.023 0.135,-0.049 0.205,-0.076 -0.2,-0.056 -0.412,-0.095 -0.636,-0.109 m 3.603,0 c -0.108,-0.006 -0.213,-0.009 -0.314,-0.009 -0.511,0 -0.948,0.079 -1.339,0.189 -0.223,0.063 -0.429,0.135 -0.626,0.21 -0.142,0.053 -0.279,0.107 -0.412,0.158 0.365,0.482 0.762,0.961 1.269,1.32 0.144,0.102 0.295,0.195 0.458,0.274 0.337,0.165 0.719,0.277 1.163,0.314 0.085,0.007 0.169,0.01 0.249,0.01 0.514,0 0.938,-0.134 1.279,-0.31 -0.593,-0.468 -1.032,-1.06 -1.412,-1.572 l -0.211,-0.284 0.326,-0.115 c 0.066,-0.023 0.135,-0.049 0.205,-0.076 -0.2,-0.056 -0.412,-0.096 -0.635,-0.109 m 3.602,0 c -0.108,-0.007 -0.213,-0.01 -0.314,-0.01 -0.511,10e-4 -0.948,0.08 -1.339,0.19 -0.222,0.063 -0.429,0.135 -0.626,0.21 -0.142,0.053 -0.279,0.107 -0.412,0.159 0.365,0.481 0.762,0.959 1.269,1.319 0.144,0.101 0.295,0.195 0.458,0.274 0.337,0.165 0.719,0.277 1.163,0.313 0.086,0.007 0.169,0.011 0.25,0.011 0.514,0 0.937,-0.134 1.278,-0.31 -0.593,-0.468 -1.033,-1.06 -1.412,-1.572 l -0.212,-0.284 0.328,-0.115 c 0.065,-0.023 0.135,-0.049 0.205,-0.076 -0.201,-0.057 -0.413,-0.096 -0.636,-0.109 m 3.602,0 c -0.107,-0.006 -0.212,-0.009 -0.314,-0.009 -0.511,0 -0.948,0.079 -1.339,0.189 -0.223,0.063 -0.429,0.135 -0.626,0.21 -0.142,0.053 -0.28,0.107 -0.412,0.158 0.365,0.482 0.762,0.961 1.269,1.32 0.144,0.101 0.295,0.195 0.458,0.274 0.286,0.14 0.607,0.239 0.969,0.289 0.064,0.009 0.127,0.019 0.194,0.025 0.086,0.007 0.169,0.01 0.249,0.01 0.229,0 0.437,-0.03 0.63,-0.075 0.242,-0.056 0.459,-0.137 0.649,-0.235 -0.593,-0.468 -1.032,-1.06 -1.412,-1.572 l -0.212,-0.284 0.327,-0.115 c 0.065,-0.023 0.135,-0.049 0.205,-0.076 -0.2,-0.056 -0.412,-0.096 -0.635,-0.109 m 3.602,0 c -0.108,-0.006 -0.213,-0.009 -0.315,-0.009 -0.51,0 -0.947,0.079 -1.338,0.189 -0.222,0.063 -0.429,0.135 -0.626,0.21 -0.142,0.053 -0.279,0.107 -0.412,0.158 0.365,0.482 0.762,0.961 1.269,1.32 0.143,0.102 0.295,0.195 0.458,0.275 0.337,0.164 0.719,0.276 1.163,0.313 0.086,0.007 0.168,0.01 0.249,0.01 0.515,0 0.938,-0.134 1.279,-0.31 -0.593,-0.468 -1.032,-1.06 -1.413,-1.572 l -0.21,-0.284 0.326,-0.115 c 0.066,-0.023 0.135,-0.049 0.205,-0.076 -0.2,-0.056 -0.412,-0.096 -0.635,-0.109 m 3.602,0 c -0.108,-0.007 -0.212,-0.01 -0.314,-0.01 -0.511,10e-4 -0.948,0.08 -1.339,0.19 -0.223,0.063 -0.429,0.135 -0.626,0.21 -0.142,0.053 -0.279,0.107 -0.412,0.158 0.365,0.482 0.762,0.96 1.269,1.32 0.144,0.101 0.295,0.195 0.458,0.275 0.337,0.164 0.719,0.276 1.163,0.313 0.086,0.007 0.169,0.01 0.249,0.01 0.515,0 0.938,-0.134 1.279,-0.31 -0.593,-0.468 -1.033,-1.06 -1.413,-1.572 l -0.211,-0.284 0.327,-0.115 c 0.066,-0.023 0.135,-0.049 0.205,-0.076 -0.2,-0.056 -0.412,-0.095 -0.635,-0.109 m 6.145,1.383 c -0.371,-0.435 -1.281,-1.307 -2.543,-1.382 -0.107,-0.008 -0.212,-0.011 -0.314,-0.011 -0.511,10e-4 -0.948,0.08 -1.339,0.19 -0.222,0.063 -0.429,0.135 -0.626,0.21 -0.142,0.053 -0.279,0.107 -0.412,0.158 0.365,0.482 0.762,0.961 1.269,1.32 0.078,0.055 0.159,0.107 0.242,0.156 0.07,0.042 0.141,0.082 0.216,0.119 0.19,0.092 0.397,0.166 0.619,0.221 0.02,0.005 0.04,0.009 0.06,0.014 0.012,0.003 0.024,0.005 0.036,0.008 0.012,0.003 0.023,0.006 0.035,0.008 0.133,0.027 0.268,0.05 0.413,0.062 0.085,0.007 0.169,0.01 0.249,0.01 0.759,0 1.324,-0.289 1.709,-0.579 0.192,-0.145 0.336,-0.291 0.43,-0.399 0.008,-0.008 0.015,-0.017 0.022,-0.025 -0.019,-0.024 -0.041,-0.051 -0.066,-0.08" />
          </g>
        </g>
      </g>
    </g>
  </g>
</svg>
