<?xml version="1.0" encoding="UTF-8" standalone="no"?>
<svg
   xmlns:dc="http://purl.org/dc/elements/1.1/"
   xmlns:cc="http://creativecommons.org/ns#"
   xmlns:rdf="http://www.w3.org/1999/02/22-rdf-syntax-ns#"
   xmlns:svg="http://www.w3.org/2000/svg"
   xmlns="http://www.w3.org/2000/svg"
   xmlns:sodipodi="http://sodipodi.sourceforge.net/DTD/sodipodi-0.dtd"
   xmlns:inkscape="http://www.inkscape.org/namespaces/inkscape"
   width="4.2676935mm"
   height="7.0537877mm"
   viewBox="0 0 4.2676936 7.0537878"
   version="1.1"
   id="svg52138"
   inkscape:version="1.0.1 (3bc2e813f5, 2020-09-07)"
   sodipodi:docname="st-pauls-anglican-grammar-school.svg">
  <defs
     id="defs52132">
    <clipPath
       id="clipPath214123"
       clipPathUnits="userSpaceOnUse">
      <path
         inkscape:connector-curvature="0"
         id="path214121"
         d="m 448.586,763.675 h 106.229 v 20.366 H 448.586 Z" />
    </clipPath>
  </defs>
  <sodipodi:namedview
     id="base"
     pagecolor="#ffffff"
     bordercolor="#666666"
     borderopacity="1.0"
     inkscape:pageopacity="0.0"
     inkscape:pageshadow="2"
     inkscape:zoom="7.919596"
     inkscape:cx="-64.80799"
     inkscape:cy="9.5052392"
     inkscape:document-units="mm"
     inkscape:current-layer="g214551"
     showgrid="false"
     inkscape:pagecheckerboard="true"
     fit-margin-top="0"
     fit-margin-left="0"
     fit-margin-right="0"
     fit-margin-bottom="0"
     inkscape:window-width="1920"
     inkscape:window-height="1000"
     inkscape:window-x="1920"
     inkscape:window-y="0"
     inkscape:window-maximized="1"
     inkscape:document-rotation="0" />
  <metadata
     id="metadata52135">
    <rdf:RDF>
      <cc:Work
         rdf:about="">
        <dc:format>image/svg+xml</dc:format>
        <dc:type
           rdf:resource="http://purl.org/dc/dcmitype/StillImage" />
        <dc:title />
      </cc:Work>
    </rdf:RDF>
  </metadata>
  <g
     inkscape:label="Layer 1"
     inkscape:groupmode="layer"
     id="layer1"
     transform="translate(-238.28061,-277.3158)">
    <g
       id="g214551">
      <g
         transform="matrix(0.35277777,0,0,-0.35277777,238.30086,277.3158)"
         id="g214113">
        <path
           inkscape:connector-curvature="0"
           id="path214115"
           style="fill:#89183d;fill-opacity:1;fill-rule:nonzero;stroke:none"
           d="M 0,0 -0.026,-16.327 H 12.04 V 0 Z" />
      </g>
      <g
         transform="matrix(0.35277777,0,0,-0.35277777,46.822012,553.83289)"
         id="g214117">
        <g
           clip-path="url(#clipPath214123)"
           id="g214119">
          <g
             transform="translate(548.5084,779.0226)"
             id="g214125">
            <path
               inkscape:connector-curvature="0"
               id="path214127"
               style="fill:#ffffff;fill-opacity:1;fill-rule:nonzero;stroke:none"
               d="M 0,0 H 0.543 V -0.622 H 1.289 V -1.109 H 0.555 c 0,0 0.018,-1.184 0.08,-1.283 -0.08,-0.006 -0.752,0 -0.752,0 0,0 0.13,0.124 0.11,1.276 h -0.745 v 0.5 H 0 Z" />
          </g>
          <g
             transform="translate(548.9089,780.565)"
             id="g214129">
            <path
               inkscape:connector-curvature="0"
               id="path214131"
               style="fill:#ffffff;fill-opacity:1;fill-rule:nonzero;stroke:none"
               d="M 0,0 C 1.744,-0.023 3.192,-1.713 2.626,-3.638 H 1.359 c 0.278,0.225 0.598,2.435 -1.474,2.499 0,0 -1.504,-0.091 -1.515,-1.644 -0.009,-1.111 1.099,-1.513 1.494,-2.189 0,0 0.892,1.236 2.237,1.115 3.105,-0.279 3.224,-3.742 1.724,-4.966 -1.221,-0.996 -2.948,-0.551 -3.12,-0.379 -0.022,0.362 -0.018,1.069 -0.018,1.069 0,0 0.862,-0.431 1.672,-0.241 0.811,0.189 1.394,0.814 1.311,1.741 -0.173,1.931 -2.302,1.856 -2.879,1.035 0,0 -0.621,-0.501 -0.38,-2.707 0,0 0.035,-3.104 0.294,-3.673 l -1.742,-0.017 c 0,0 0.397,1.241 0.328,3.086 -0.328,-0.224 -1.857,-1.038 -3.277,0.104 -1.529,1.229 -1.65,3.936 1.122,5 l 0.533,-0.932 c -2.771,-1.149 -1.425,-3.442 -0.154,-3.603 1.035,-0.131 1.623,0.512 1.758,1.414 0.264,1.747 -1.875,1.902 -2,4.121 C -2.817,-1.215 -1.449,0.019 0,0" />
          </g>
          <g
             transform="translate(542.7303,766.762)"
             id="g214133">
            <path
               inkscape:connector-curvature="0"
               id="path214135"
               style="fill:#89183d;fill-opacity:1;fill-rule:nonzero;stroke:none"
               d="M 0,0 H 12.052 V -2.929 H -0.013 Z" />
          </g>
        </g>
      </g>
    </g>
  </g>
</svg>
