<?xml version="1.0" encoding="UTF-8" standalone="no"?>
<!-- Created with Inkscape (http://www.inkscape.org/) -->

<svg
   xmlns:dc="http://purl.org/dc/elements/1.1/"
   xmlns:cc="http://creativecommons.org/ns#"
   xmlns:rdf="http://www.w3.org/1999/02/22-rdf-syntax-ns#"
   xmlns:svg="http://www.w3.org/2000/svg"
   xmlns="http://www.w3.org/2000/svg"
   xmlns:sodipodi="http://sodipodi.sourceforge.net/DTD/sodipodi-0.dtd"
   xmlns:inkscape="http://www.inkscape.org/namespaces/inkscape"
   width="17.990255mm"
   height="17.655823mm"
   viewBox="0 0 17.990255 17.655823"
   version="1.1"
   id="svg52138"
   inkscape:version="0.92.4 (unknown)"
   sodipodi:docname="star-of-the-sea-college.svg">
  <defs
     id="defs52132">
    <clipPath
       id="clipPath52158"
       clipPathUnits="userSpaceOnUse">
      <path
         inkscape:connector-curvature="0"
         id="path52156"
         d="M 0,841.89 V 0 h 159.691 l 30.67,41.639 -79.756,85.971 -6.272,-1.695 0.014,0.158 -0.19,-0.106 0.34,0.962 c 0.129,0.553 0.361,1.305 0.78,2.188 v 0 l 7.504,21.115 c -0.205,-0.34 -0.384,-0.667 -0.538,-0.98 v 0 c 0,0 5.743,16.59 6.937,19.817 v 0 c 0.199,0.571 0.399,1.143 0.597,1.708 v 0 c 0.086,0.269 0.188,0.569 0.313,0.898 v 0 c 1.345,3.844 2.512,7.146 2.672,7.498 v 0 c 0.279,0.607 0.595,2.398 1.949,4.624 v 0 l 44.04,123.909 -32.343,28.236 43.981,4.507 4.93,13.871 -57.855,49.959 96.581,7.555 -17.05,33.315 41.421,72.703 -0.102,-0.014 0.904,1.422 0.678,1.19 -4.436,-0.596 0.232,-0.465 -1.062,-0.531 -0.976,1.95 0.57,0.078 24.002,35.907 17.726,51.567 -40.287,29.008 -3.358,8.225 18.603,64.995 0.782,0.069 0.99,4.495 -31.413,-39.972 -4.891,11.182 -17.871,-22.655 -9.679,21.909 -0.624,-0.798 6.656,-15.195 c 0,0 -0.326,0.248 -0.918,0.61 v 0 c -1.389,0.841 -4.28,2.306 -8.139,2.74 v 0 h -0.001 l -6.099,0.964 -4.974,-6.366 -32.753,73.925 -2.357,0.211 0.021,0.055 -0.078,-0.013 0.225,0.293 c 0.108,0.177 0.274,0.409 0.517,0.662 v 0 l 55.339,70.883 c 1.04,1.205 1.667,2.914 6.132,2.914 v 0 c 0.538,0 1.133,-0.025 1.79,-0.079 v 0 l 9.401,-1.65 c 1.186,-0.084 2.199,-0.282 3.062,-0.551 v 0 l 3.529,4.487 c 0.029,0.099 1.12,2.09 5.079,2.09 v 0 c 0.372,0 0.771,-0.018 1.195,-0.056 v 0 c -0.144,-0.102 7.85,-1.256 7.688,-1.256 v 0 h -0.001 c 3.957,-0.356 5.541,-4.054 5.541,-4.054 v 0 l -0.019,0.002 33.704,-74.666 134.82,3.318 -0.074,0.443 1.752,1.341 0.667,0.018 1.44,-1.71 2.392,0.059 1.687,3.004 3.658,0.594 0.627,1.582 3.448,-0.593 0.524,-1.386 -0.446,-1.048 0.743,0.704 2.225,-0.297 0.63,-2.151 -0.045,-0.088 0.094,0.003 1.329,1.296 1.803,-0.782 0.149,-0.434 4.784,0.118 31.836,40.779 c 1.043,1.204 1.665,2.913 6.129,2.913 v 0 c 0.54,0 1.136,-0.025 1.795,-0.079 v 0 l 9.401,-1.65 c 1.186,-0.083 2.198,-0.281 3.061,-0.55 v 0 l 3.531,4.489 c 0.027,0.098 1.118,2.09 5.081,2.09 v 0 c 0.371,0 0.767,-0.018 1.19,-0.056 v 0 c -0.142,-0.104 7.838,-1.256 7.69,-1.256 v 0 h -0.003 c 3.959,-0.355 5.543,-4.052 5.543,-4.052 v 0 l -0.022,0.001 33.728,-74.728 -51.498,-65.525 -4.89,11.181 -17.869,-22.652 0.025,-0.059 -2.693,0.45 -2.941,6.712 c -1.576,0.817 -4.03,1.813 -7.096,2.157 v 0 l -6.1,0.965 -4.977,-6.369 -0.028,0.064 -2.849,0.419 -24.124,55.063 -17.373,-64.725 -55.446,-35.175 -21.215,-58.249 -2.205,-32.251 -0.342,-5.354 0.368,-0.2 -2.788,-0.424 0.166,-2.298 5.133,-70.569 5.236,-4.886 0.761,0.059 25.814,93.918 41.072,-37.989 0.644,2.356 -30.989,28.849 c 0,0 0.114,-0.026 0.33,-0.067 v 0 l -0.073,0.067 c 0,0 3.277,-0.741 8.286,-0.766 v 0 c 4.471,0 10.269,0.576 16.332,2.731 v 0 c 0.001,-0.003 0.024,-0.025 0.068,-0.069 v 0 c 0.064,0.022 0.127,0.046 0.19,0.068 v 0 c 6.833,2.434 2.479,0.882 11.731,4.174 v 0 c 1.648,0.587 3.059,1.306 4.264,2.094 v 0 l 5.089,18.614 150.661,-139.027 5.834,2.074 -0.003,-0.15 0.174,0.115 -0.252,-0.941 c -0.082,-0.535 -0.247,-1.266 -0.58,-2.133 v 0 l -7.359,-27.247 c -1.417,-5.375 -3.108,-11.742 -3.289,-12.231 v 0 c -0.152,-0.416 -0.279,-1.369 -0.715,-2.648 v 0 c -1.187,-4.489 -2.337,-8.791 -2.485,-9.192 v 0 c -0.159,-0.431 -0.291,-1.449 -0.775,-2.814 v 0 l -46.141,-170.806 -0.136,-0.086 c 0.007,-0.311 0.157,-9.776 -16.648,-15.748 v 0 c -17.083,-6.072 -11.563,-4.11 -25.018,-8.895 v 0 c -3.6,-1.28 -6.896,-1.749 -9.797,-1.749 v 0 c -7.942,0 -12.902,3.517 -12.902,3.517 v 0 l 0.19,0.067 -0.101,-0.008 0.069,0.25 -58.728,54.663 -24.077,-67.094 124.04,-14.557 -11.879,-16.229 c 0.135,-1.86 0.553,-3.919 1.404,-6.136 v 0 c 3.834,-9.963 2.032,-5.271 4.86,-12.63 v 0 c 5.406,-14.054 15.975,-21.92 15.975,-21.92 v 0 L 458.201,68.844 456.426,66.42 519.844,59.021 476.674,0 h 118.601 v 841.89 z m 436.058,-107.166 -0.545,-2.055 1.625,2.082 z m -152.278,-3.745 -2.031,-5.824 -4.702,-3.929 -1.278,-7.778 0.206,-0.112 -0.004,-0.019 0.136,-0.079 -0.676,-3.818 2.464,-1.15 -0.048,-0.242 0.048,-0.023 -11.816,-60.162 39.985,-20.025 -0.019,0.132 1.462,1.291 10.639,-1.232 0.035,0.04 0.029,-0.047 0.023,-0.004 2.158,-3.629 2.96,3.259 17.526,-3.151 1.746,-2.017 -0.569,-0.446 0.14,0.052 47.154,23.046 25.455,73.344 0.821,0.055 1.108,3.357 0.464,0.028 1.563,5.757 -3.551,2.944 -0.398,3.605 z m -20.611,-15.209 0.844,0.04 0.258,1.361 z m 53.347,-91.371 0.132,-10e-4 0.066,-0.033 3.972,-0.138 -0.02,0.011 1.029,-0.045 2.275,-0.08 -0.828,1.598 -1.483,-1.487 h -0.003 l -1.308,0.098 0.033,0.036 h -1.192 l -1.209,1.66 z m -29.052,-81.996 2.16,-0.357 0.046,0.117 -2.159,0.364 z m -55.623,-99.271 6.444,-7.788 6.095,-21.92 70.059,5.48 -25.533,89.277 -9.652,2.935 z" />
    </clipPath>
    <clipPath
       id="clipPath52242"
       clipPathUnits="userSpaceOnUse">
      <path
         inkscape:connector-curvature="0"
         id="path52240"
         d="M 0,0 H 595.275 V 841.89 H 0 Z" />
    </clipPath>
    <clipPath
       id="clipPath52298"
       clipPathUnits="userSpaceOnUse">
      <path
         inkscape:connector-curvature="0"
         id="path52296"
         d="m 112.243,149.252 c 0.154,0.313 0.333,0.64 0.538,0.98 v 0 l 3.442,9.686 c -0.228,-0.374 -0.425,-0.732 -0.595,-1.075 v 0 c 0,0 1.771,5.12 3.552,10.226 v 0 c -1.194,-3.227 -6.937,-19.817 -6.937,-19.817" />
    </clipPath>
    <clipPath
       id="clipPath52312"
       clipPathUnits="userSpaceOnUse">
      <path
         inkscape:connector-curvature="0"
         id="path52310"
         d="M 0,0 H 595.275 V 841.89 H 0 Z" />
    </clipPath>
    <clipPath
       id="clipPath52324"
       clipPathUnits="userSpaceOnUse">
      <path
         inkscape:connector-curvature="0"
         id="path52322"
         d="m 119.777,170.777 c 0.104,0.302 0.21,0.601 0.313,0.898 v 0 c -0.125,-0.329 -0.227,-0.629 -0.313,-0.898" />
    </clipPath>
    <clipPath
       id="clipPath52334"
       clipPathUnits="userSpaceOnUse">
      <path
         inkscape:connector-curvature="0"
         id="path52332"
         d="M 0,0 H 595.275 V 841.89 H 0 Z" />
    </clipPath>
    <clipPath
       id="clipPath52350"
       clipPathUnits="userSpaceOnUse">
      <path
         inkscape:connector-curvature="0"
         id="path52348"
         d="m 122.762,179.173 c -0.16,-0.352 -1.327,-3.654 -2.672,-7.498 v 0 c 0.267,0.706 0.639,1.535 1.179,2.44 v 0 l 3.442,9.682 c -1.354,-2.226 -1.67,-4.017 -1.949,-4.624 m -3.582,-10.104 c 0.098,0.266 0.165,0.441 0.197,0.508 v 0 c 0.108,0.237 0.221,0.651 0.4,1.2 v 0 c -0.198,-0.565 -0.398,-1.137 -0.597,-1.708" />
    </clipPath>
    <clipPath
       id="clipPath52362"
       clipPathUnits="userSpaceOnUse">
      <path
         inkscape:connector-curvature="0"
         id="path52360"
         d="M 0,0 H 595.275 V 841.89 H 0 Z" />
    </clipPath>
    <clipPath
       id="clipPath52378"
       clipPathUnits="userSpaceOnUse">
      <path
         inkscape:connector-curvature="0"
         id="path52376"
         d="m 120.09,171.675 c -0.103,-0.297 -0.209,-0.596 -0.313,-0.898 v 0 c -0.179,-0.549 -0.292,-0.963 -0.4,-1.2 v 0 c -0.032,-0.067 -0.099,-0.242 -0.197,-0.508 v 0 c -1.781,-5.106 -3.552,-10.226 -3.552,-10.226 v 0 c 0.17,0.343 0.367,0.701 0.595,1.075 v 0 l 5.046,14.197 c -0.54,-0.905 -0.912,-1.734 -1.179,-2.44" />
    </clipPath>
    <clipPath
       id="clipPath52390"
       clipPathUnits="userSpaceOnUse">
      <path
         inkscape:connector-curvature="0"
         id="path52388"
         d="M 0,0 H 595.275 V 841.89 H 0 Z" />
    </clipPath>
    <clipPath
       id="clipPath52414"
       clipPathUnits="userSpaceOnUse">
      <path
         inkscape:connector-curvature="0"
         id="path52412"
         d="m 386.25,507.362 h 0.261 c 4.424,0 10.148,0.565 16.139,2.662 v 0 c -0.044,0.044 -0.067,0.066 -0.068,0.069 v 0 c -6.063,-2.155 -11.861,-2.731 -16.332,-2.731 m 22.446,-28.083 0.053,0.191 -30.712,28.591 c -0.216,0.041 -0.33,0.067 -0.33,0.067 v 0 z" />
    </clipPath>
    <clipPath
       id="clipPath52424"
       clipPathUnits="userSpaceOnUse">
      <path
         inkscape:connector-curvature="0"
         id="path52422"
         d="M 0,0 H 595.275 V 841.89 H 0 Z" />
    </clipPath>
    <clipPath
       id="clipPath52460"
       clipPathUnits="userSpaceOnUse">
      <path
         inkscape:connector-curvature="0"
         id="path52458"
         d="m 569.105,355.472 c -0.233,-0.883 -0.473,-1.789 -0.71,-2.686 v 0 c 0.436,1.279 0.563,2.232 0.715,2.648 v 0 c 0.181,0.489 1.872,6.856 3.289,12.231 v 0 z" />
    </clipPath>
    <clipPath
       id="clipPath52474"
       clipPathUnits="userSpaceOnUse">
      <path
         inkscape:connector-curvature="0"
         id="path52472"
         d="M 0,0 H 595.275 V 841.89 H 0 Z" />
    </clipPath>
    <clipPath
       id="clipPath52490"
       clipPathUnits="userSpaceOnUse">
      <path
         inkscape:connector-curvature="0"
         id="path52488"
         d="m 568.324,352.581 -3.189,-11.801 c 0.484,1.365 0.616,2.383 0.775,2.814 v 0 c 0.148,0.401 1.298,4.703 2.485,9.192 v 0 c -0.023,-0.068 -0.047,-0.137 -0.071,-0.205" />
    </clipPath>
    <clipPath
       id="clipPath52504"
       clipPathUnits="userSpaceOnUse">
      <path
         inkscape:connector-curvature="0"
         id="path52502"
         d="M 0,0 H 595.275 V 841.89 H 0 Z" />
    </clipPath>
    <clipPath
       id="clipPath52528"
       clipPathUnits="userSpaceOnUse">
      <path
         inkscape:connector-curvature="0"
         id="path52526"
         d="m 568.324,352.581 c 0.024,0.068 0.048,0.137 0.071,0.205 v 0 c 0.237,0.897 0.477,1.803 0.71,2.686 v 0 z" />
    </clipPath>
    <clipPath
       id="clipPath52540"
       clipPathUnits="userSpaceOnUse">
      <path
         inkscape:connector-curvature="0"
         id="path52538"
         d="M 0,0 H 595.275 V 841.89 H 0 Z" />
    </clipPath>
    <clipPath
       id="clipPath52644"
       clipPathUnits="userSpaceOnUse">
      <path
         inkscape:connector-curvature="0"
         id="path52642"
         d="m 231.705,443.265 6.446,-8.058 6.127,-21.791 0.102,0.008 -6.095,21.92 -6.444,7.788 47.413,67.984 9.652,-2.935 25.533,-89.277 h 0.002 l -25.463,89.411 -9.74,2.817 z" />
    </clipPath>
    <clipPath
       id="clipPath52666"
       clipPathUnits="userSpaceOnUse">
      <path
         inkscape:connector-curvature="0"
         id="path52664"
         d="M 0,0 H 595.275 V 841.89 H 0 Z" />
    </clipPath>
    <clipPath
       id="clipPath52690"
       clipPathUnits="userSpaceOnUse">
      <path
         inkscape:connector-curvature="0"
         id="path52688"
         d="m 335.18,425.675 5.09,-4.751 0.135,0.011 -5.236,4.886 z" />
    </clipPath>
    <clipPath
       id="clipPath52702"
       clipPathUnits="userSpaceOnUse">
      <path
         inkscape:connector-curvature="0"
         id="path52700"
         d="M 0,0 H 595.275 V 841.89 H 0 Z" />
    </clipPath>
    <clipPath
       id="clipPath52718"
       clipPathUnits="userSpaceOnUse">
      <path
         inkscape:connector-curvature="0"
         id="path52716"
         d="m 329.869,498.688 0.167,-2.298 -0.166,2.298 z" />
    </clipPath>
    <clipPath
       id="clipPath52728"
       clipPathUnits="userSpaceOnUse">
      <path
         inkscape:connector-curvature="0"
         id="path52726"
         d="M 0,0 H 595.275 V 841.89 H 0 Z" />
    </clipPath>
    <clipPath
       id="clipPath53044"
       clipPathUnits="userSpaceOnUse">
      <path
         inkscape:connector-curvature="0"
         id="path53042"
         d="m 283.651,730.975 -1.902,-5.82 -4.735,-3.893 -1.256,-7.808 0.011,-0.006 1.278,7.778 4.702,3.929 2.031,5.824 z" />
    </clipPath>
    <clipPath
       id="clipPath53054"
       clipPathUnits="userSpaceOnUse">
      <path
         inkscape:connector-curvature="0"
         id="path53052"
         d="M 0,0 H 595.275 V 841.89 H 0 Z" />
    </clipPath>
    <clipPath
       id="clipPath53094"
       clipPathUnits="userSpaceOnUse">
      <path
         inkscape:connector-curvature="0"
         id="path53092"
         d="m 286.11,542.626 1.354,-0.223 0.047,0.124 -1.352,0.227 z m -37.796,-24.788 0.102,0.014 0.802,1.408 z" />
    </clipPath>
    <clipPath
       id="clipPath53104"
       clipPathUnits="userSpaceOnUse">
      <path
         inkscape:connector-curvature="0"
         id="path53102"
         d="M 0,0 H 595.275 V 841.89 H 0 Z" />
    </clipPath>
    <clipPath
       id="clipPath53228"
       clipPathUnits="userSpaceOnUse">
      <path
         inkscape:connector-curvature="0"
         id="path53226"
         d="m 411.434,630.472 -55.382,-35.272 -21.353,-58.149 -2.067,-32.385 2.205,32.251 21.215,58.249 55.446,35.175 17.373,64.725 -0.035,0.081 z" />
    </clipPath>
    <clipPath
       id="clipPath53238"
       clipPathUnits="userSpaceOnUse">
      <path
         inkscape:connector-curvature="0"
         id="path53236"
         d="M 0,0 H 595.275 V 841.89 H 0 Z" />
    </clipPath>
    <clipPath
       id="clipPath53258"
       clipPathUnits="userSpaceOnUse">
      <path
         inkscape:connector-curvature="0"
         id="path53256"
         d="m 275.403,709.263 2.444,-1.235 0.048,0.242 -2.464,1.15 z" />
    </clipPath>
    <clipPath
       id="clipPath53268"
       clipPathUnits="userSpaceOnUse">
      <path
         inkscape:connector-curvature="0"
         id="path53266"
         d="M 0,0 H 595.275 V 841.89 H 0 Z" />
    </clipPath>
    <clipPath
       id="clipPath53296"
       clipPathUnits="userSpaceOnUse">
      <path
         inkscape:connector-curvature="0"
         id="path53294"
         d="m 318.146,628.009 0.064,-0.007 -0.029,0.047 z" />
    </clipPath>
    <clipPath
       id="clipPath53306"
       clipPathUnits="userSpaceOnUse">
      <path
         inkscape:connector-curvature="0"
         id="path53304"
         d="M 0,0 H 595.275 V 841.89 H 0 Z" />
    </clipPath>
    <clipPath
       id="clipPath53326"
       clipPathUnits="userSpaceOnUse">
      <path
         inkscape:connector-curvature="0"
         id="path53324"
         d="m 321.656,624.224 h 0.003 l 1.483,1.487 z" />
    </clipPath>
    <clipPath
       id="clipPath53336"
       clipPathUnits="userSpaceOnUse">
      <path
         inkscape:connector-curvature="0"
         id="path53334"
         d="M 0,0 H 595.275 V 841.89 H 0 Z" />
    </clipPath>
    <clipPath
       id="clipPath53468"
       clipPathUnits="userSpaceOnUse">
      <path
         inkscape:connector-curvature="0"
         id="path53466"
         d="m 436.792,744.558 v 0 l 0.045,0.088 z" />
    </clipPath>
    <clipPath
       id="clipPath53478"
       clipPathUnits="userSpaceOnUse">
      <path
         inkscape:connector-curvature="0"
         id="path53476"
         d="M 0,0 H 595.275 V 841.89 H 0 Z" />
    </clipPath>
    <clipPath
       id="clipPath53502"
       clipPathUnits="userSpaceOnUse">
      <path
         inkscape:connector-curvature="0"
         id="path53500"
         d="m 440.157,744.641 h 0.01 l -0.149,0.434 z" />
    </clipPath>
    <clipPath
       id="clipPath53512"
       clipPathUnits="userSpaceOnUse">
      <path
         inkscape:connector-curvature="0"
         id="path53510"
         d="M 0,0 H 595.275 V 841.89 H 0 Z" />
    </clipPath>
    <clipPath
       id="clipPath53528"
       clipPathUnits="userSpaceOnUse">
      <path
         inkscape:connector-curvature="0"
         id="path53526"
         d="M 0,0 H 595.276 V 841.89 H 0 Z" />
    </clipPath>
    <clipPath
       id="clipPath53552"
       clipPathUnits="userSpaceOnUse">
      <path
         inkscape:connector-curvature="0"
         id="path53550"
         d="m 62.362,120.888 h 122.441 v 47.019 H 62.362 Z" />
    </clipPath>
    <clipPath
       id="clipPath53612"
       clipPathUnits="userSpaceOnUse">
      <path
         inkscape:connector-curvature="0"
         id="path53610"
         d="m 62.362,120.888 h 122.441 v 47.018 H 62.362 Z" />
    </clipPath>
    <clipPath
       id="clipPath53628"
       clipPathUnits="userSpaceOnUse">
      <path
         inkscape:connector-curvature="0"
         id="path53626"
         d="m 62.362,120.888 h 122.441 v 47.019 H 62.362 Z" />
    </clipPath>
    <clipPath
       id="clipPath53668"
       clipPathUnits="userSpaceOnUse">
      <path
         inkscape:connector-curvature="0"
         id="path53666"
         d="m 62.362,120.888 h 122.441 v 47.018 H 62.362 Z" />
    </clipPath>
    <clipPath
       id="clipPath53684"
       clipPathUnits="userSpaceOnUse">
      <path
         inkscape:connector-curvature="0"
         id="path53682"
         d="m 62.362,120.888 h 122.441 v 47.019 H 62.362 Z" />
    </clipPath>
    <clipPath
       id="clipPath53836"
       clipPathUnits="userSpaceOnUse">
      <path
         inkscape:connector-curvature="0"
         id="path53834"
         d="m 62.362,120.888 h 122.441 v 47.018 H 62.362 Z" />
    </clipPath>
    <clipPath
       id="clipPath53852"
       clipPathUnits="userSpaceOnUse">
      <path
         inkscape:connector-curvature="0"
         id="path53850"
         d="m 62.362,120.888 h 122.441 v 47.019 H 62.362 Z" />
    </clipPath>
    <clipPath
       id="clipPath53904"
       clipPathUnits="userSpaceOnUse">
      <path
         inkscape:connector-curvature="0"
         id="path53902"
         d="m 62.362,120.888 h 122.441 v 47.018 H 62.362 Z" />
    </clipPath>
    <clipPath
       id="clipPath53920"
       clipPathUnits="userSpaceOnUse">
      <path
         inkscape:connector-curvature="0"
         id="path53918"
         d="m 62.362,120.888 h 122.441 v 47.019 H 62.362 Z" />
    </clipPath>
    <clipPath
       id="clipPath55907"
       clipPathUnits="userSpaceOnUse">
      <path
         inkscape:connector-curvature="0"
         id="path55905"
         d="m 255.831,750.776 h 50.996 v 50.048 h -50.996 z" />
    </clipPath>
    <clipPath
       id="clipPath56167"
       clipPathUnits="userSpaceOnUse">
      <path
         inkscape:connector-curvature="0"
         id="path56165"
         d="M 0,0 H 595.276 V 841.89 H 0 Z" />
    </clipPath>
    <clipPath
       id="clipPath56183"
       clipPathUnits="userSpaceOnUse">
      <path
         inkscape:connector-curvature="0"
         id="path56181"
         d="M 0,119.055 H 595.275 V 667.087 H 0 Z" />
    </clipPath>
  </defs>
  <sodipodi:namedview
     id="base"
     pagecolor="#ffffff"
     bordercolor="#666666"
     borderopacity="1.0"
     inkscape:pageopacity="0.0"
     inkscape:pageshadow="2"
     inkscape:zoom="11.2"
     inkscape:cx="21.004963"
     inkscape:cy="36.409382"
     inkscape:document-units="mm"
     inkscape:current-layer="layer1"
     showgrid="false"
     inkscape:pagecheckerboard="true"
     fit-margin-top="0"
     fit-margin-left="0"
     fit-margin-right="0"
     fit-margin-bottom="0"
     inkscape:window-width="1920"
     inkscape:window-height="1009"
     inkscape:window-x="1920"
     inkscape:window-y="24"
     inkscape:window-maximized="1" />
  <metadata
     id="metadata52135">
    <rdf:RDF>
      <cc:Work
         rdf:about="">
        <dc:format>image/svg+xml</dc:format>
        <dc:type
           rdf:resource="http://purl.org/dc/dcmitype/StillImage" />
        <dc:title></dc:title>
      </cc:Work>
    </rdf:RDF>
  </metadata>
  <g
     inkscape:label="Layer 1"
     inkscape:groupmode="layer"
     id="layer1"
     transform="translate(-318.62486,-156.11064)">
    <g
       id="g55901"
       transform="matrix(0.35277777,0,0,-0.35277777,228.37337,438.62354)">
      <g
         id="g55903"
         clip-path="url(#clipPath55907)">
        <g
           id="g55909"
           transform="translate(291.5821,767.4943)">
          <path
             d="m 0,0 c -0.39,0.384 -1.181,0.57 -2.368,-0.006 -0.284,-0.138 -0.542,-0.26 -0.779,-0.368 l 0.546,-2.265 c -0.085,-0.043 -0.174,-0.086 -0.264,-0.129 2.023,0.956 2.787,1.969 2.801,1.988 0.148,0.205 0.204,0.397 0.162,0.572 C 0.081,-0.13 0.044,-0.062 0,0"
             style="fill:#ac1e2d;fill-opacity:1;fill-rule:nonzero;stroke:none"
             id="path55911"
             inkscape:connector-curvature="0" />
        </g>
        <g
           id="g55913"
           transform="translate(273.2314,767.4902)">
          <path
             d="M 0,0 C -0.941,0.494 -1.618,0.432 -2.016,0.175 -2.099,0.104 -2.186,0.003 -2.22,-0.13 c -0.041,-0.167 0.01,-0.358 0.152,-0.568 0.012,-0.017 0.666,-0.942 2.439,-1.855 l 0.556,2.088 C 0.654,-0.336 0.348,-0.182 0,0"
             style="fill:#ac1e2d;fill-opacity:1;fill-rule:nonzero;stroke:none"
             id="path55915"
             inkscape:connector-curvature="0" />
        </g>
        <g
           id="g55917"
           transform="translate(296.9397,780.9291)">
          <path
             d="M 0,0 C -0.189,0.3 -0.956,0.911 -2.532,1.339 L -3.7,-0.189 c 0.225,-0.064 0.462,-0.134 0.713,-0.21 1.955,-0.595 2.805,-0.446 3.048,0.024 C 0.09,-0.274 0.093,-0.149 0,0"
             style="fill:#ac1e2d;fill-opacity:1;fill-rule:nonzero;stroke:none"
             id="path55919"
             inkscape:connector-curvature="0" />
        </g>
        <g
           id="g55921"
           transform="translate(265.7054,780.9871)">
          <path
             d="m 0,0 c -0.116,-0.201 -0.069,-0.357 -0.014,-0.467 0.305,-0.41 1.205,-0.569 2.983,0.04 0.234,0.081 0.453,0.155 0.659,0.225 L 2.425,1.403 C 0.889,0.933 0.176,0.306 0,0"
             style="fill:#ac1e2d;fill-opacity:1;fill-rule:nonzero;stroke:none"
             id="path55923"
             inkscape:connector-curvature="0" />
        </g>
        <g
           id="g55925"
           transform="translate(281.3285,800.2886)">
          <path
             d="m 0,0 3.706,-17.925 16.324,8.279 -11.704,-14.072 16.651,-7.601 -18.302,0.376 4.439,-18.08 -11.116,14.862 -11.113,-14.539 4.439,17.757 -18.299,-0.376 16.65,7.601 -11.704,14.072 16.325,-8.279 z"
             style="fill:#00152a;fill-opacity:1;fill-rule:nonzero;stroke:none"
             id="path55927"
             inkscape:connector-curvature="0" />
        </g>
        <g
           id="g55929"
           transform="translate(281.3285,800.2886)">
          <path
             d="m 0,0 3.706,-17.925 16.324,8.279 -11.704,-14.072 16.651,-7.601 -18.302,0.376 4.439,-18.08 -11.116,14.862 -11.113,-14.539 4.439,17.757 -18.299,-0.376 16.65,7.601 -11.704,14.072 16.325,-8.279 z"
             style="fill:none;stroke:#ffffff;stroke-width:0.21699999;stroke-linecap:butt;stroke-linejoin:miter;stroke-miterlimit:10;stroke-dasharray:none;stroke-opacity:1"
             id="path55931"
             inkscape:connector-curvature="0" />
        </g>
        <g
           id="g55933"
           transform="translate(281.2928,774.6219)">
          <path
             d="M 0,0 19.247,15.376 3.699,7.48 Z"
             style="fill:#ffffff;fill-opacity:1;fill-rule:nonzero;stroke:none"
             id="path55935"
             inkscape:connector-curvature="0" />
        </g>
        <g
           id="g55937"
           transform="translate(281.2928,774.6219)">
          <path
             d="M 0,0 19.247,15.376 3.699,7.48 Z"
             style="fill:none;stroke:#ffffff;stroke-width:0.054;stroke-linecap:butt;stroke-linejoin:miter;stroke-miterlimit:10;stroke-dasharray:none;stroke-opacity:1"
             id="path55939"
             inkscape:connector-curvature="0" />
        </g>
        <g
           id="g55941"
           transform="translate(305.3388,769.1682)">
          <path
             d="m 0,0 -24.01,5.446 8.082,1.785 z"
             style="fill:#ffffff;fill-opacity:1;fill-rule:nonzero;stroke:none"
             id="path55943"
             inkscape:connector-curvature="0" />
        </g>
        <g
           id="g55945"
           transform="translate(305.3388,769.1682)">
          <path
             d="m 0,0 -24.01,5.446 8.082,1.785 z"
             style="fill:none;stroke:#ffffff;stroke-width:0.054;stroke-linecap:butt;stroke-linejoin:miter;stroke-miterlimit:10;stroke-dasharray:none;stroke-opacity:1"
             id="path55947"
             inkscape:connector-curvature="0" />
        </g>
        <g
           id="g55949"
           transform="translate(292.0031,752.3552)">
          <path
             d="m 0,0 -10.674,22.259 6.407,-5.223 z"
             style="fill:#ffffff;fill-opacity:1;fill-rule:nonzero;stroke:none"
             id="path55951"
             inkscape:connector-curvature="0" />
        </g>
        <g
           id="g55953"
           transform="translate(292.0031,752.3552)">
          <path
             d="m 0,0 -10.674,22.259 6.407,-5.223 z"
             style="fill:none;stroke:#ffffff;stroke-width:0.054;stroke-linecap:butt;stroke-linejoin:miter;stroke-miterlimit:10;stroke-dasharray:none;stroke-opacity:1"
             id="path55955"
             inkscape:connector-curvature="0" />
        </g>
        <g
           id="g55957"
           transform="translate(281.3292,774.6145)">
          <path
             d="M 0,0 -10.609,-22.053 -0.036,-8.209 Z"
             style="fill:#ffffff;fill-opacity:1;fill-rule:nonzero;stroke:none"
             id="path55959"
             inkscape:connector-curvature="0" />
        </g>
        <g
           id="g55961"
           transform="translate(281.3292,774.6145)">
          <path
             d="M 0,0 -10.609,-22.053 -0.036,-8.209 Z"
             style="fill:none;stroke:#ffffff;stroke-width:0.054;stroke-linecap:butt;stroke-linejoin:miter;stroke-miterlimit:10;stroke-dasharray:none;stroke-opacity:1"
             id="path55963"
             inkscape:connector-curvature="0" />
        </g>
        <g
           id="g55965"
           transform="translate(257.6507,769.2083)">
          <path
             d="M 0,0 23.642,5.422 17.076,0.363 Z"
             style="fill:#ffffff;fill-opacity:1;fill-rule:nonzero;stroke:none"
             id="path55967"
             inkscape:connector-curvature="0" />
        </g>
        <g
           id="g55969"
           transform="translate(257.6507,769.2083)">
          <path
             d="M 0,0 23.642,5.422 17.076,0.363 Z"
             style="fill:none;stroke:#ffffff;stroke-width:0.054;stroke-linecap:butt;stroke-linejoin:miter;stroke-miterlimit:10;stroke-dasharray:none;stroke-opacity:1"
             id="path55971"
             inkscape:connector-curvature="0" />
        </g>
        <g
           id="g55973"
           transform="translate(262.1775,789.9129)">
          <path
             d="m 0,0 19.07,-15.291 -7.959,1.954 z"
             style="fill:#ffffff;fill-opacity:1;fill-rule:nonzero;stroke:none"
             id="path55975"
             inkscape:connector-curvature="0" />
        </g>
        <g
           id="g55977"
           transform="translate(262.1775,789.9129)">
          <path
             d="m 0,0 19.07,-15.291 -7.959,1.954 z"
             style="fill:none;stroke:#ffffff;stroke-width:0.054;stroke-linecap:butt;stroke-linejoin:miter;stroke-miterlimit:10;stroke-dasharray:none;stroke-opacity:1"
             id="path55979"
             inkscape:connector-curvature="0" />
        </g>
        <g
           id="g55981"
           transform="translate(277.7843,782.1464)">
          <path
             d="M 0,0 3.508,-7.516 3.496,17.085 Z"
             style="fill:#ffffff;fill-opacity:1;fill-rule:nonzero;stroke:none"
             id="path55983"
             inkscape:connector-curvature="0" />
        </g>
        <g
           id="g55985"
           transform="translate(277.7843,782.1464)">
          <path
             d="M 0,0 3.508,-7.516 3.496,17.085 Z"
             style="fill:none;stroke:#ffffff;stroke-width:0.054;stroke-linecap:butt;stroke-linejoin:miter;stroke-miterlimit:10;stroke-dasharray:none;stroke-opacity:1"
             id="path55987"
             inkscape:connector-curvature="0" />
        </g>
        <g
           id="g55989"
           transform="translate(271.5629,786.713)">
          <path
             d="m 0,0 c 0.286,0.347 1.27,0.72 2.869,1.085 2.099,0.479 4.225,0.693 6.892,0.693 h 0.088 c 2.532,0 4.722,-0.231 6.892,-0.727 1.551,-0.353 2.522,-0.709 2.839,-1.037 0.201,0.609 0.399,1.219 0.589,1.829 0.028,0.092 0.083,0.242 0.039,0.421 C 19.971,2.641 18.753,3.387 16.287,3.917 13.615,4.491 9.836,4.464 9.799,4.464 9.747,4.464 5.968,4.491 3.297,3.917 0.608,3.339 -0.583,2.492 -0.629,2.163 -0.645,2.029 -0.608,1.919 -0.586,1.844 -0.397,1.229 -0.2,0.614 0,0"
             style="fill:#c31f3d;fill-opacity:1;fill-rule:nonzero;stroke:none"
             id="path55991"
             inkscape:connector-curvature="0" />
        </g>
        <g
           id="g55993"
           transform="translate(271.5629,786.713)">
          <path
             d="m 0,0 c 0.286,0.347 1.27,0.72 2.869,1.085 2.099,0.479 4.225,0.693 6.892,0.693 h 0.088 c 2.532,0 4.722,-0.231 6.892,-0.727 1.551,-0.353 2.522,-0.709 2.839,-1.037 0.201,0.609 0.399,1.219 0.589,1.829 0.028,0.092 0.083,0.242 0.039,0.421 C 19.971,2.641 18.753,3.387 16.287,3.917 13.615,4.491 9.836,4.464 9.799,4.464 9.747,4.464 5.968,4.491 3.297,3.917 0.608,3.339 -0.583,2.492 -0.629,2.163 -0.645,2.029 -0.608,1.919 -0.586,1.844 -0.397,1.229 -0.2,0.614 0,0 Z"
             style="fill:none;stroke:#ffffff;stroke-width:0.162;stroke-linecap:butt;stroke-linejoin:miter;stroke-miterlimit:10;stroke-dasharray:none;stroke-opacity:1"
             id="path55995"
             inkscape:connector-curvature="0" />
        </g>
        <g
           id="g55997"
           transform="translate(296.7142,786.0789)">
          <path
             d="m 0,0 c -0.467,0.165 -3.536,1.207 -8.111,1.846 -0.961,0.134 -1.991,0.25 -3.074,0.336 -1.282,0.103 -2.64,0.165 -4.063,0.165 -1.542,0 -2.975,-0.054 -4.301,-0.147 -1.657,-0.116 -3.146,-0.292 -4.464,-0.498 -3.416,-0.534 -5.687,-1.271 -6.782,-1.684 -1.241,-0.469 -1.913,-0.904 -2.267,-1.276 -0.417,-0.523 -0.222,-0.931 -0.136,-1.148 l 2.112,-2.978 c 0.012,0.056 0.031,0.114 0.064,0.176 0.378,0.703 2.099,1.41 5.114,2.098 4.663,1.065 8.556,1.132 8.595,1.133 1.518,0.028 2.637,0.037 3.868,0 0.036,-10e-4 3.931,-0.068 8.593,-1.133 3.014,-0.688 4.735,-1.395 5.114,-2.098 0.031,-0.058 0.049,-0.112 0.062,-0.164 l 2.118,2.967 c 0.047,0.121 0.137,0.304 0.14,0.531 C 2.532,-1.402 2.056,-0.725 0,0"
             style="fill:#c31f3d;fill-opacity:1;fill-rule:nonzero;stroke:none"
             id="path55999"
             inkscape:connector-curvature="0" />
        </g>
        <g
           id="g56001"
           transform="translate(296.7142,786.0789)">
          <path
             d="m 0,0 c -0.467,0.165 -3.536,1.207 -8.111,1.846 -0.961,0.134 -1.991,0.25 -3.074,0.336 -1.282,0.103 -2.64,0.165 -4.063,0.165 -1.542,0 -2.975,-0.054 -4.301,-0.147 -1.657,-0.116 -3.146,-0.292 -4.464,-0.498 -3.416,-0.534 -5.687,-1.271 -6.782,-1.684 -1.241,-0.469 -1.913,-0.904 -2.267,-1.276 -0.417,-0.523 -0.222,-0.931 -0.136,-1.148 l 2.112,-2.978 c 0.012,0.056 0.031,0.114 0.064,0.176 0.378,0.703 2.099,1.41 5.114,2.098 4.663,1.065 8.556,1.132 8.595,1.133 1.518,0.028 2.637,0.037 3.868,0 0.036,-10e-4 3.931,-0.068 8.593,-1.133 3.014,-0.688 4.735,-1.395 5.114,-2.098 0.031,-0.058 0.049,-0.112 0.062,-0.164 l 2.118,2.967 c 0.047,0.121 0.137,0.304 0.14,0.531 C 2.532,-1.402 2.056,-0.725 0,0 Z"
             style="fill:none;stroke:#ffffff;stroke-width:0.162;stroke-linecap:butt;stroke-linejoin:miter;stroke-miterlimit:10;stroke-dasharray:none;stroke-opacity:1"
             id="path56003"
             inkscape:connector-curvature="0" />
        </g>
        <g
           id="g56005"
           transform="translate(291.682,766.9539)">
          <path
             d="M 0,0 C -0.033,-0.103 -0.092,-0.207 -0.177,-0.311 -0.201,-0.34 -2.642,-3.194 -10.272,-3.194 h -0.082 c -7.648,0 -10.072,2.832 -10.095,2.86 -0.118,0.142 -0.189,0.282 -0.214,0.418 -0.067,-0.284 -0.369,-1.564 -0.603,-2.685 -0.11,-0.524 -0.254,-0.95 -0.118,-1.373 0.244,-0.524 1.044,-1.109 3.259,-1.954 3.685,-1.404 7.658,-1.299 7.826,-1.293 0.172,-0.006 4.146,-0.111 7.83,1.293 1.413,0.539 2.26,0.965 2.75,1.346 0.701,0.648 0.465,1.208 0.303,1.981 C 0.368,-1.568 0.094,-0.4 0,0"
             style="fill:#c31f3d;fill-opacity:1;fill-rule:nonzero;stroke:none"
             id="path56007"
             inkscape:connector-curvature="0" />
        </g>
        <g
           id="g56009"
           transform="translate(291.682,766.9539)">
          <path
             d="M 0,0 C -0.033,-0.103 -0.092,-0.207 -0.177,-0.311 -0.201,-0.34 -2.642,-3.194 -10.272,-3.194 h -0.082 c -7.648,0 -10.072,2.832 -10.095,2.86 -0.118,0.142 -0.189,0.282 -0.214,0.418 -0.067,-0.284 -0.369,-1.564 -0.603,-2.685 -0.11,-0.524 -0.254,-0.95 -0.118,-1.373 0.244,-0.524 1.044,-1.109 3.259,-1.954 3.685,-1.404 7.658,-1.299 7.826,-1.293 0.172,-0.006 4.146,-0.111 7.83,1.293 1.413,0.539 2.26,0.965 2.75,1.346 0.701,0.648 0.465,1.208 0.303,1.981 C 0.368,-1.568 0.094,-0.4 0,0 Z"
             style="fill:none;stroke:#ffffff;stroke-width:0.162;stroke-linecap:butt;stroke-linejoin:miter;stroke-miterlimit:10;stroke-dasharray:none;stroke-opacity:1"
             id="path56011"
             inkscape:connector-curvature="0" />
        </g>
        <g
           id="g56013"
           transform="translate(271.2161,763.3395)">
          <path
             d="M 0,0 C 0.248,0.528 0.372,0.792 0.62,1.319 0.962,1.158 1.135,1.082 1.482,0.936 1.444,0.845 1.424,0.8 1.386,0.709 1.138,0.813 1.015,0.866 0.77,0.978 0.713,0.852 0.685,0.79 0.628,0.664 0.842,0.566 0.95,0.518 1.166,0.426 1.128,0.336 1.109,0.291 1.07,0.2 0.851,0.293 0.742,0.342 0.525,0.44 0.423,0.215 0.371,0.101 0.269,-0.124 0.161,-0.075 0.107,-0.05 0,0"
             style="fill:#ffffff;fill-opacity:1;fill-rule:nonzero;stroke:none"
             id="path56015"
             inkscape:connector-curvature="0" />
        </g>
        <g
           id="g56017"
           transform="translate(273.3141,763.0855)">
          <path
             d="M 0,0 C 0.002,0.23 0.003,0.345 0.008,0.574 -0.139,0.398 -0.213,0.311 -0.362,0.137 -0.218,0.081 -0.145,0.054 0,0 m 0.309,-0.723 c -0.121,0.041 -0.181,0.062 -0.301,0.106 -0.003,0.141 -0.004,0.212 -0.006,0.354 -0.215,0.078 -0.323,0.119 -0.537,0.203 -0.092,-0.106 -0.139,-0.158 -0.233,-0.263 -0.116,0.046 -0.173,0.069 -0.289,0.117 0.433,0.452 0.644,0.682 1.053,1.149 C 0.105,0.901 0.159,0.88 0.268,0.839 0.271,0.217 0.279,-0.096 0.309,-0.723"
             style="fill:#ffffff;fill-opacity:1;fill-rule:nonzero;stroke:none"
             id="path56019"
             inkscape:connector-curvature="0" />
        </g>
        <g
           id="g56021"
           transform="translate(274.9473,762.5057)">
          <path
             d="M 0,0 C 0.096,-0.065 0.145,-0.098 0.242,-0.162 0.159,-0.304 0.059,-0.399 -0.059,-0.445 -0.177,-0.492 -0.311,-0.493 -0.46,-0.448 c -0.184,0.055 -0.315,0.166 -0.392,0.33 -0.076,0.164 -0.076,0.354 -0.004,0.572 0.076,0.23 0.193,0.39 0.346,0.481 0.154,0.091 0.32,0.109 0.502,0.054 C 0.151,0.941 0.265,0.854 0.337,0.724 0.38,0.647 0.401,0.548 0.401,0.427 0.287,0.43 0.23,0.432 0.115,0.436 0.121,0.513 0.105,0.58 0.068,0.636 0.03,0.693 -0.024,0.731 -0.094,0.752 -0.192,0.782 -0.282,0.769 -0.366,0.714 -0.45,0.659 -0.519,0.549 -0.571,0.384 -0.627,0.209 -0.636,0.074 -0.598,-0.02 -0.56,-0.114 -0.49,-0.177 -0.39,-0.207 -0.316,-0.229 -0.246,-0.224 -0.179,-0.192 -0.112,-0.16 -0.052,-0.096 0,0"
             style="fill:#ffffff;fill-opacity:1;fill-rule:nonzero;stroke:none"
             id="path56023"
             inkscape:connector-curvature="0" />
        </g>
        <g
           id="g56025"
           transform="translate(275.7743,761.7326)">
          <path
             d="m 0,0 c 0.114,0.471 0.172,0.706 0.286,1.176 -0.158,0.039 -0.237,0.059 -0.394,0.1 0.025,0.096 0.037,0.143 0.062,0.239 C 0.371,1.406 0.581,1.355 1.001,1.266 0.981,1.17 0.971,1.122 0.95,1.026 0.792,1.059 0.713,1.077 0.555,1.113 0.447,0.641 0.392,0.405 0.284,-0.067 0.17,-0.041 0.113,-0.028 0,0"
             style="fill:#ffffff;fill-opacity:1;fill-rule:nonzero;stroke:none"
             id="path56027"
             inkscape:connector-curvature="0" />
        </g>
        <g
           id="g56029"
           transform="translate(277.5056,761.9639)">
          <path
             d="M 0,0 C -0.04,0.226 -0.059,0.339 -0.096,0.565 -0.206,0.366 -0.263,0.266 -0.377,0.067 -0.226,0.039 -0.151,0.026 0,0 m 0.431,-0.652 c -0.125,0.018 -0.188,0.028 -0.312,0.048 -0.029,0.139 -0.043,0.208 -0.07,0.346 -0.223,0.038 -0.335,0.058 -0.558,0.101 -0.07,-0.122 -0.106,-0.183 -0.178,-0.303 -0.121,0.023 -0.182,0.036 -0.303,0.061 0.339,0.525 0.503,0.79 0.816,1.324 0.113,-0.02 0.17,-0.031 0.284,-0.05 0.114,-0.611 0.178,-0.917 0.321,-1.527"
             style="fill:#ffffff;fill-opacity:1;fill-rule:nonzero;stroke:none"
             id="path56031"
             inkscape:connector-curvature="0" />
        </g>
        <g
           id="g56033"
           transform="translate(278.868,761.1931)">
          <path
             d="M 0,0 C 0.062,0.58 0.094,0.87 0.156,1.449 0.262,1.437 0.314,1.432 0.42,1.422 0.602,1.013 0.698,0.81 0.899,0.406 0.927,0.794 0.941,0.988 0.968,1.376 1.069,1.369 1.12,1.366 1.22,1.36 1.186,0.778 1.168,0.487 1.133,-0.095 1.017,-0.088 0.959,-0.084 0.843,-0.076 0.64,0.32 0.543,0.519 0.359,0.919 0.322,0.54 0.304,0.351 0.268,-0.027 0.16,-0.017 0.107,-0.011 0,0"
             style="fill:#ffffff;fill-opacity:1;fill-rule:nonzero;stroke:none"
             id="path56035"
             inkscape:connector-curvature="0" />
        </g>
        <g
           id="g56037"
           transform="translate(280.7182,761.7958)">
          <path
             d="m 0,0 c -0.005,-0.165 0.027,-0.291 0.099,-0.378 0.071,-0.087 0.165,-0.132 0.279,-0.134 0.114,-0.001 0.209,0.041 0.282,0.125 0.073,0.084 0.108,0.211 0.108,0.38 C 0.767,0.16 0.733,0.285 0.664,0.367 0.596,0.449 0.506,0.491 0.393,0.493 0.28,0.494 0.188,0.455 0.116,0.373 0.044,0.292 0.005,0.168 0,0 m -0.289,0.001 c 0.006,0.148 0.033,0.272 0.078,0.371 0.034,0.073 0.08,0.137 0.135,0.195 0.055,0.056 0.114,0.099 0.178,0.125 C 0.187,0.728 0.284,0.745 0.394,0.744 0.591,0.741 0.75,0.675 0.87,0.543 0.991,0.41 1.054,0.226 1.058,-0.011 1.061,-0.247 1.003,-0.432 0.879,-0.565 0.755,-0.699 0.586,-0.766 0.376,-0.763 c -0.214,0.003 -0.381,0.074 -0.501,0.211 -0.121,0.136 -0.174,0.321 -0.164,0.553"
             style="fill:#ffffff;fill-opacity:1;fill-rule:nonzero;stroke:none"
             id="path56039"
             inkscape:connector-curvature="0" />
        </g>
        <g
           id="g56041"
           transform="translate(282.1653,761.0662)">
          <path
             d="M 0,0 C -0.018,0.583 -0.026,0.874 -0.044,1.456 0.062,1.46 0.114,1.462 0.22,1.466 0.457,1.087 0.579,0.899 0.834,0.525 0.808,0.914 0.796,1.108 0.77,1.496 0.871,1.503 0.921,1.506 1.022,1.514 1.067,0.933 1.089,0.643 1.134,0.061 1.019,0.052 0.961,0.048 0.845,0.041 0.59,0.405 0.466,0.589 0.229,0.959 0.245,0.58 0.253,0.39 0.268,0.01 0.161,0.005 0.107,0.003 0,0"
             style="fill:#ffffff;fill-opacity:1;fill-rule:nonzero;stroke:none"
             id="path56043"
             inkscape:connector-curvature="0" />
        </g>
        <g
           id="g56045"
           transform="translate(284.8192,761.2947)">
          <path
             d="M 0,0 C -0.285,0.548 -0.421,0.824 -0.683,1.38 -0.565,1.394 -0.507,1.401 -0.39,1.417 -0.197,1.008 -0.098,0.804 0.107,0.398 0.181,0.845 0.214,1.069 0.275,1.516 0.389,1.535 0.445,1.545 0.559,1.565 0.471,0.957 0.42,0.653 0.306,0.045 0.184,0.026 0.122,0.017 0,0"
             style="fill:#ffffff;fill-opacity:1;fill-rule:nonzero;stroke:none"
             id="path56047"
             inkscape:connector-curvature="0" />
        </g>
        <g
           id="g56049"
           transform="translate(285.927,761.4783)">
          <path
             d="M 0,0 C -0.109,0.573 -0.163,0.86 -0.272,1.432 0.121,1.507 0.318,1.548 0.708,1.641 0.731,1.545 0.742,1.497 0.765,1.401 0.477,1.333 0.333,1.302 0.044,1.243 0.07,1.117 0.083,1.053 0.109,0.926 0.382,0.982 0.517,1.012 0.789,1.075 0.811,0.98 0.823,0.931 0.845,0.836 0.571,0.771 0.433,0.742 0.157,0.686 0.189,0.53 0.204,0.452 0.236,0.297 0.548,0.36 0.703,0.395 1.014,0.469 1.036,0.373 1.048,0.326 1.07,0.23 0.644,0.128 0.43,0.082 0,0"
             style="fill:#ffffff;fill-opacity:1;fill-rule:nonzero;stroke:none"
             id="path56051"
             inkscape:connector-curvature="0" />
        </g>
        <g
           id="g56053"
           transform="translate(287.4486,762.6896)">
          <path
             d="M 0,0 C 0.08,0.022 0.121,0.033 0.201,0.055 0.332,0.091 0.411,0.12 0.44,0.141 0.468,0.162 0.488,0.189 0.498,0.222 0.508,0.256 0.507,0.293 0.494,0.335 0.48,0.383 0.458,0.417 0.425,0.439 0.393,0.461 0.353,0.47 0.309,0.465 0.287,0.462 0.221,0.445 0.113,0.414 0.03,0.391 -0.012,0.38 -0.096,0.358 -0.057,0.215 -0.038,0.143 0,0 m -0.064,-0.886 c -0.144,0.565 -0.216,0.847 -0.36,1.412 0.223,0.057 0.335,0.087 0.557,0.15 C 0.272,0.715 0.377,0.733 0.447,0.727 0.518,0.721 0.583,0.691 0.64,0.639 0.698,0.586 0.739,0.519 0.765,0.437 0.797,0.333 0.794,0.237 0.756,0.151 0.718,0.065 0.529,-0.057 0.529,-0.057 0.529,-0.062 0.658,-0.1 0.709,-0.131 0.76,-0.163 0.835,-0.222 0.934,-0.31 1.034,-0.398 1.085,-0.443 1.186,-0.53 1.053,-0.572 0.986,-0.593 0.852,-0.633 0.735,-0.535 0.677,-0.486 0.562,-0.387 0.459,-0.299 0.392,-0.244 0.358,-0.223 0.324,-0.202 0.291,-0.19 0.259,-0.188 0.227,-0.185 0.179,-0.192 0.116,-0.209 0.094,-0.216 0.083,-0.219 0.061,-0.225 0.124,-0.46 0.155,-0.577 0.219,-0.812 0.106,-0.842 0.049,-0.857 -0.064,-0.886"
             style="fill:#ffffff;fill-opacity:1;fill-rule:nonzero;stroke:none"
             id="path56055"
             inkscape:connector-curvature="0" />
        </g>
        <g
           id="g56057"
           transform="translate(289.0032,762.9493)">
          <path
             d="m 0,0 c 0.05,-0.147 0.076,-0.222 0.126,-0.369 0.102,0.035 0.153,0.053 0.254,0.089 0.098,0.035 0.16,0.06 0.184,0.075 0.037,0.022 0.064,0.053 0.079,0.091 0.015,0.038 0.013,0.082 -0.005,0.131 C 0.623,0.058 0.601,0.089 0.571,0.11 0.541,0.131 0.505,0.142 0.464,0.141 0.422,0.141 0.34,0.118 0.217,0.075 0.131,0.044 0.087,0.03 0,0 M -0.188,0.548 C -0.144,0.42 -0.122,0.357 -0.079,0.229 -0.009,0.253 0.027,0.265 0.096,0.29 0.2,0.326 0.264,0.351 0.288,0.363 0.331,0.385 0.361,0.415 0.377,0.451 0.393,0.488 0.393,0.528 0.377,0.572 0.361,0.615 0.338,0.645 0.306,0.664 0.274,0.682 0.235,0.687 0.19,0.676 0.163,0.67 0.087,0.643 -0.036,0.6 -0.097,0.579 -0.128,0.568 -0.188,0.548 M -0.527,0.69 c 0.207,0.068 0.31,0.104 0.516,0.177 C 0.091,0.903 0.167,0.926 0.221,0.935 0.274,0.944 0.326,0.942 0.376,0.928 0.426,0.914 0.473,0.889 0.517,0.852 0.561,0.814 0.596,0.766 0.618,0.708 0.643,0.644 0.648,0.579 0.636,0.513 0.623,0.447 0.546,0.342 0.546,0.342 0.548,0.337 0.713,0.33 0.778,0.288 0.844,0.247 0.892,0.188 0.922,0.109 0.946,0.047 0.955,-0.019 0.949,-0.088 0.943,-0.157 0.922,-0.219 0.886,-0.273 0.849,-0.327 0.796,-0.371 0.726,-0.406 0.681,-0.428 0.572,-0.473 0.395,-0.536 0.209,-0.601 0.116,-0.633 -0.072,-0.695 -0.254,-0.141 -0.344,0.136 -0.527,0.69"
             style="fill:#ffffff;fill-opacity:1;fill-rule:nonzero;stroke:none"
             id="path56059"
             inkscape:connector-curvature="0" />
        </g>
        <g
           id="g56061"
           transform="translate(290.9296,763.641)">
          <path
             d="M 0,0 C -0.16,0.166 -0.238,0.249 -0.395,0.417 -0.378,0.189 -0.37,0.074 -0.357,-0.155 -0.214,-0.094 -0.143,-0.063 0,0 M 0.729,-0.301 C 0.613,-0.356 0.554,-0.383 0.437,-0.437 c -0.102,0.1 -0.152,0.15 -0.252,0.25 -0.211,-0.094 -0.317,-0.14 -0.529,-0.229 0.007,-0.14 0.01,-0.211 0.017,-0.352 -0.116,-0.048 -0.174,-0.071 -0.29,-0.117 -0.005,0.626 -0.013,0.938 -0.044,1.558 0.107,0.046 0.161,0.069 0.268,0.116 0.437,-0.444 0.661,-0.663 1.122,-1.09"
             style="fill:#ffffff;fill-opacity:1;fill-rule:nonzero;stroke:none"
             id="path56063"
             inkscape:connector-curvature="0" />
        </g>
        <g
           id="g56065"
           transform="translate(266.4771,783.7094)">
          <path
             d="M 0,0 C 0.16,0.066 0.24,0.099 0.4,0.164 0.463,0.006 0.541,-0.102 0.634,-0.159 0.727,-0.216 0.837,-0.227 0.965,-0.192 1.1,-0.156 1.195,-0.094 1.249,-0.007 1.303,0.08 1.32,0.17 1.3,0.263 1.287,0.322 1.262,0.369 1.224,0.403 1.185,0.438 1.126,0.461 1.047,0.472 0.993,0.48 0.871,0.486 0.682,0.491 0.439,0.496 0.26,0.534 0.145,0.606 c -0.161,0.101 -0.266,0.25 -0.313,0.449 -0.03,0.127 -0.027,0.255 0.009,0.383 0.035,0.129 0.105,0.239 0.208,0.33 0.104,0.09 0.239,0.158 0.404,0.203 C 0.724,2.044 0.943,2.027 1.109,1.924 1.275,1.821 1.385,1.653 1.44,1.424 1.27,1.371 1.185,1.345 1.014,1.291 0.968,1.415 0.908,1.498 0.835,1.538 0.762,1.579 0.664,1.583 0.542,1.55 0.417,1.516 0.325,1.459 0.268,1.379 0.231,1.327 0.221,1.269 0.236,1.204 0.249,1.145 0.282,1.1 0.334,1.07 0.4,1.031 0.544,1.011 0.766,1.009 0.987,1.007 1.154,0.986 1.267,0.95 1.38,0.913 1.477,0.847 1.555,0.753 1.634,0.659 1.69,0.533 1.723,0.373 1.754,0.229 1.748,0.085 1.708,-0.058 1.668,-0.201 1.594,-0.318 1.487,-0.411 1.379,-0.503 1.236,-0.574 1.056,-0.622 0.794,-0.692 0.577,-0.675 0.403,-0.568 0.228,-0.461 0.094,-0.272 0,0"
             style="fill:#ffffff;fill-opacity:1;fill-rule:nonzero;stroke:none"
             id="path56067"
             inkscape:connector-curvature="0" />
        </g>
        <g
           id="g56069"
           transform="translate(269.3926,783.5993)">
          <path
             d="M 0,0 C -0.161,0.841 -0.241,1.262 -0.402,2.103 -0.657,2.044 -0.785,2.014 -1.04,1.951 -1.074,2.122 -1.091,2.208 -1.125,2.379 -0.438,2.546 -0.094,2.624 0.597,2.77 0.627,2.598 0.642,2.512 0.672,2.34 0.416,2.286 0.288,2.258 0.033,2.201 0.188,1.359 0.266,0.938 0.421,0.096 0.252,0.058 0.168,0.039 0,0"
             style="fill:#ffffff;fill-opacity:1;fill-rule:nonzero;stroke:none"
             id="path56071"
             inkscape:connector-curvature="0" />
        </g>
        <g
           id="g56073"
           transform="translate(271.6617,785.1102)">
          <path
             d="M 0,0 C -0.175,0.357 -0.263,0.535 -0.441,0.891 -0.498,0.491 -0.526,0.291 -0.58,-0.11 -0.348,-0.065 -0.232,-0.042 0,0 M 0.932,-0.872 C 0.748,-0.903 0.656,-0.919 0.471,-0.952 0.364,-0.733 0.31,-0.623 0.202,-0.405 -0.136,-0.466 -0.305,-0.498 -0.643,-0.564 -0.675,-0.809 -0.69,-0.932 -0.721,-1.177 -0.9,-1.212 -0.99,-1.231 -1.169,-1.268 c 0.15,1.084 0.232,1.626 0.408,2.71 0.186,0.036 0.279,0.054 0.465,0.088 0.504,-0.955 0.75,-1.436 1.228,-2.402"
             style="fill:#ffffff;fill-opacity:1;fill-rule:nonzero;stroke:none"
             id="path56075"
             inkscape:connector-curvature="0" />
        </g>
        <g
           id="g56077"
           transform="translate(273.2797,785.8549)">
          <path
             d="M 0,0 C 0.128,0.019 0.193,0.029 0.321,0.048 0.53,0.078 0.659,0.107 0.708,0.135 0.758,0.163 0.794,0.204 0.818,0.26 0.842,0.315 0.849,0.381 0.841,0.458 0.831,0.544 0.804,0.612 0.759,0.659 0.714,0.707 0.654,0.734 0.582,0.737 0.547,0.739 0.439,0.726 0.261,0.701 0.124,0.681 0.056,0.671 -0.081,0.65 -0.049,0.39 -0.032,0.26 0,0 m -0.24,-1.544 c -0.134,1.024 -0.202,1.536 -0.337,2.559 0.372,0.06 0.558,0.087 0.929,0.14 C 0.586,1.188 0.759,1.188 0.87,1.156 0.981,1.123 1.074,1.053 1.15,0.943 1.226,0.833 1.272,0.702 1.288,0.55 1.308,0.357 1.277,0.192 1.195,0.054 1.114,-0.083 0.797,-0.239 0.797,-0.239 0.796,-0.248 0.983,-0.353 1.052,-0.424 1.121,-0.494 1.218,-0.622 1.342,-0.809 1.467,-0.996 1.529,-1.09 1.652,-1.278 1.448,-1.302 1.347,-1.315 1.143,-1.342 0.996,-1.135 0.921,-1.032 0.772,-0.826 0.639,-0.641 0.549,-0.527 0.502,-0.481 0.455,-0.435 0.407,-0.405 0.359,-0.393 0.311,-0.38 0.238,-0.381 0.139,-0.396 0.104,-0.401 0.086,-0.404 0.051,-0.409 0.104,-0.837 0.131,-1.05 0.185,-1.478 0.015,-1.504 -0.07,-1.517 -0.24,-1.544"
             style="fill:#ffffff;fill-opacity:1;fill-rule:nonzero;stroke:none"
             id="path56079"
             inkscape:connector-curvature="0" />
        </g>
        <g
           id="g56081"
           transform="translate(276.6812,786.062)">
          <path
             d="m 0,0 c 0.021,-0.292 0.094,-0.508 0.216,-0.649 0.122,-0.142 0.268,-0.206 0.439,-0.192 0.171,0.013 0.306,0.097 0.408,0.255 0.101,0.157 0.145,0.385 0.129,0.685 C 1.176,0.394 1.109,0.611 0.991,0.749 0.874,0.887 0.723,0.95 0.542,0.936 0.36,0.922 0.218,0.836 0.118,0.68 0.017,0.523 -0.022,0.297 0,0 m -0.446,-0.059 c -0.021,0.263 -0.007,0.486 0.046,0.67 0.039,0.136 0.098,0.261 0.176,0.373 0.078,0.112 0.168,0.197 0.267,0.256 C 0.174,1.32 0.33,1.367 0.509,1.381 0.833,1.406 1.099,1.305 1.305,1.081 1.511,0.857 1.622,0.534 1.642,0.114 1.662,-0.303 1.583,-0.634 1.409,-0.881 1.235,-1.129 0.995,-1.263 0.685,-1.286 0.371,-1.31 0.114,-1.215 -0.09,-0.998 c -0.204,0.217 -0.324,0.529 -0.356,0.939"
             style="fill:#ffffff;fill-opacity:1;fill-rule:nonzero;stroke:none"
             id="path56083"
             inkscape:connector-curvature="0" />
        </g>
        <g
           id="g56085"
           transform="translate(278.9427,784.9168)">
          <path
             d="M 0,0 C -0.04,1.034 -0.06,1.55 -0.101,2.584 0.502,2.612 0.804,2.622 1.408,2.634 1.411,2.459 1.412,2.371 1.415,2.196 0.992,2.188 0.78,2.182 0.357,2.165 0.365,1.921 0.369,1.798 0.377,1.554 0.739,1.568 0.92,1.573 1.282,1.581 1.285,1.406 1.286,1.318 1.29,1.143 0.93,1.136 0.751,1.13 0.392,1.116 0.406,0.677 0.413,0.458 0.427,0.018 0.256,0.012 0.171,0.008 0,0"
             style="fill:#ffffff;fill-opacity:1;fill-rule:nonzero;stroke:none"
             id="path56087"
             inkscape:connector-curvature="0" />
        </g>
        <g
           id="g56089"
           transform="translate(282.4874,784.9641)">
          <path
             d="m 0,0 c 0.013,0.859 0.02,1.289 0.034,2.148 -0.26,0.005 -0.39,0.007 -0.649,0.009 0.001,0.175 0.001,0.262 0.002,0.437 C 0.087,2.589 0.437,2.581 1.136,2.553 1.131,2.378 1.128,2.29 1.122,2.115 0.863,2.126 0.734,2.13 0.475,2.137 0.456,1.278 0.446,0.849 0.427,-0.01 0.256,-0.006 0.171,-0.003 0,0"
             style="fill:#ffffff;fill-opacity:1;fill-rule:nonzero;stroke:none"
             id="path56091"
             inkscape:connector-curvature="0" />
        </g>
        <g
           id="g56093"
           transform="translate(284.0393,784.9102)">
          <path
             d="M 0,0 C 0.041,1.034 0.062,1.55 0.103,2.584 0.281,2.575 0.369,2.57 0.547,2.56 0.528,2.153 0.519,1.95 0.5,1.543 0.843,1.524 1.014,1.513 1.357,1.488 1.381,1.894 1.393,2.097 1.417,2.503 1.595,2.49 1.683,2.483 1.861,2.469 1.792,1.437 1.757,0.921 1.689,-0.11 1.519,-0.097 1.434,-0.09 1.263,-0.077 1.289,0.374 1.303,0.6 1.33,1.051 0.99,1.076 0.82,1.087 0.479,1.106 0.458,0.655 0.448,0.429 0.427,-0.023 0.256,-0.013 0.171,-0.008 0,0"
             style="fill:#ffffff;fill-opacity:1;fill-rule:nonzero;stroke:none"
             id="path56095"
             inkscape:connector-curvature="0" />
        </g>
        <g
           id="g56097"
           transform="translate(286.3909,784.7421)">
          <path
             d="M 0,0 C 0.078,1.031 0.118,1.546 0.198,2.577 0.849,2.516 1.174,2.48 1.824,2.4 1.807,2.226 1.798,2.139 1.78,1.965 1.31,2.023 1.075,2.05 0.605,2.098 0.586,1.87 0.576,1.755 0.557,1.527 0.991,1.483 1.208,1.458 1.642,1.405 1.624,1.232 1.616,1.146 1.599,0.972 1.168,1.025 0.952,1.049 0.521,1.093 0.497,0.813 0.486,0.673 0.463,0.392 0.938,0.344 1.175,0.317 1.649,0.258 1.631,0.085 1.622,-0.002 1.605,-0.175 0.964,-0.095 0.642,-0.06 0,0"
             style="fill:#ffffff;fill-opacity:1;fill-rule:nonzero;stroke:none"
             id="path56099"
             inkscape:connector-curvature="0" />
        </g>
        <g
           id="g56101"
           transform="translate(289.6115,785.1909)">
          <path
             d="m 0,0 c 0.17,-0.006 0.254,-0.009 0.424,-0.017 0.003,-0.173 0.038,-0.305 0.104,-0.396 0.066,-0.092 0.163,-0.149 0.293,-0.171 0.137,-0.023 0.245,-0.006 0.325,0.052 0.08,0.058 0.127,0.134 0.141,0.228 0.009,0.06 0.001,0.114 -0.022,0.162 -0.024,0.047 -0.07,0.094 -0.139,0.138 C 1.079,0.025 0.969,0.083 0.797,0.166 0.575,0.274 0.423,0.384 0.343,0.499 0.229,0.661 0.185,0.842 0.211,1.045 0.227,1.175 0.274,1.292 0.352,1.396 0.429,1.5 0.531,1.572 0.657,1.612 0.784,1.652 0.931,1.658 1.099,1.63 1.373,1.583 1.57,1.476 1.687,1.311 1.804,1.145 1.847,0.945 1.818,0.709 1.643,0.732 1.556,0.744 1.38,0.765 1.381,0.9 1.354,1.001 1.301,1.069 1.247,1.138 1.159,1.183 1.036,1.204 0.908,1.225 0.804,1.211 0.724,1.161 0.672,1.129 0.642,1.08 0.633,1.013 0.625,0.953 0.64,0.898 0.677,0.848 0.725,0.784 0.85,0.705 1.053,0.61 1.256,0.514 1.403,0.425 1.495,0.344 1.586,0.262 1.652,0.161 1.692,0.041 1.732,-0.079 1.74,-0.22 1.715,-0.381 1.693,-0.527 1.638,-0.657 1.552,-0.773 1.465,-0.888 1.357,-0.965 1.226,-1.005 1.094,-1.046 0.938,-1.05 0.755,-1.019 0.49,-0.974 0.296,-0.866 0.173,-0.694 0.05,-0.522 -0.008,-0.291 0,0"
             style="fill:#ffffff;fill-opacity:1;fill-rule:nonzero;stroke:none"
             id="path56103"
             inkscape:connector-curvature="0" />
        </g>
        <g
           id="g56105"
           transform="translate(291.7877,783.957)">
          <path
             d="M 0,0 C 0.165,1.018 0.249,1.527 0.414,2.545 1.06,2.417 1.382,2.348 2.025,2.201 1.992,2.03 1.976,1.944 1.944,1.773 1.479,1.879 1.246,1.93 0.78,2.026 0.742,1.801 0.723,1.688 0.685,1.463 1.115,1.374 1.33,1.328 1.759,1.23 1.727,1.06 1.711,0.974 1.679,0.803 1.253,0.9 1.04,0.947 0.612,1.035 0.565,0.758 0.542,0.62 0.496,0.343 0.966,0.246 1.2,0.195 1.669,0.087 1.637,-0.084 1.621,-0.169 1.589,-0.339 0.955,-0.194 0.637,-0.126 0,0"
             style="fill:#ffffff;fill-opacity:1;fill-rule:nonzero;stroke:none"
             id="path56107"
             inkscape:connector-curvature="0" />
        </g>
        <g
           id="g56109"
           transform="translate(295.2678,784.1995)">
          <path
             d="M 0,0 C -0.035,0.404 -0.054,0.606 -0.093,1.01 -0.287,0.666 -0.384,0.494 -0.575,0.148 -0.345,0.09 -0.23,0.061 0,0 M 0.555,-1.204 C 0.373,-1.153 0.282,-1.129 0.1,-1.079 0.078,-0.832 0.067,-0.707 0.044,-0.46 c -0.335,0.089 -0.502,0.132 -0.837,0.216 -0.116,-0.212 -0.175,-0.318 -0.29,-0.53 -0.178,0.043 -0.267,0.065 -0.445,0.107 0.52,0.935 0.788,1.399 1.334,2.322 C -0.01,1.608 0.083,1.585 0.267,1.536 0.396,0.44 0.453,-0.109 0.555,-1.204"
             style="fill:#ffffff;fill-opacity:1;fill-rule:nonzero;stroke:none"
             id="path56111"
             inkscape:connector-curvature="0" />
        </g>
        <g
           id="g56113"
           transform="translate(274.3088,789.7765)">
          <path
             d="m 0,0 c 0.023,-0.151 0.035,-0.227 0.058,-0.378 0.052,0.008 0.079,0.012 0.131,0.02 0.095,0.014 0.157,0.03 0.187,0.049 0.03,0.019 0.051,0.044 0.065,0.076 0.014,0.033 0.018,0.069 0.012,0.108 C 0.446,-0.077 0.428,-0.038 0.398,-0.011 0.368,0.017 0.332,0.032 0.292,0.034 0.263,0.036 0.204,0.031 0.117,0.018 0.07,0.011 0.047,0.007 0,0 m -0.067,-1.143 c -0.084,0.532 -0.127,0.798 -0.211,1.33 0.156,0.025 0.234,0.037 0.39,0.06 C 0.26,0.27 0.358,0.276 0.404,0.27 0.476,0.259 0.54,0.224 0.596,0.164 0.652,0.103 0.687,0.02 0.702,-0.086 0.713,-0.168 0.709,-0.239 0.69,-0.299 0.671,-0.358 0.644,-0.406 0.608,-0.444 0.572,-0.482 0.533,-0.509 0.493,-0.525 0.438,-0.546 0.356,-0.564 0.248,-0.58 0.186,-0.59 0.154,-0.594 0.092,-0.604 0.123,-0.805 0.138,-0.905 0.169,-1.106 0.074,-1.12 0.027,-1.128 -0.067,-1.143"
             style="fill:#ffffff;fill-opacity:1;fill-rule:nonzero;stroke:none"
             id="path56115"
             inkscape:connector-curvature="0" />
        </g>
        <g
           id="g56117"
           transform="translate(275.6368,789.6157)">
          <path
             d="M 0,0 C 0.071,0.009 0.107,0.013 0.178,0.022 0.294,0.036 0.365,0.049 0.393,0.064 0.42,0.078 0.441,0.1 0.454,0.128 0.467,0.157 0.472,0.191 0.467,0.231 0.462,0.276 0.447,0.311 0.423,0.337 0.398,0.362 0.365,0.376 0.325,0.378 0.305,0.379 0.246,0.374 0.147,0.362 0.072,0.353 0.034,0.349 -0.042,0.339 -0.025,0.203 -0.017,0.136 0,0 M -0.141,-0.801 C -0.21,-0.267 -0.245,0 -0.314,0.534 -0.109,0.561 -0.006,0.573 0.199,0.598 0.328,0.613 0.424,0.612 0.485,0.595 0.546,0.577 0.597,0.539 0.639,0.481 0.681,0.424 0.706,0.355 0.714,0.276 0.725,0.176 0.708,0.09 0.662,0.019 0.617,-0.052 0.441,-0.131 0.441,-0.131 c 0,-0.005 0.103,-0.061 0.141,-0.098 0.039,-0.037 0.092,-0.104 0.16,-0.202 C 0.811,-0.529 0.846,-0.578 0.914,-0.677 0.801,-0.689 0.744,-0.695 0.631,-0.708 0.549,-0.599 0.508,-0.545 0.425,-0.436 0.352,-0.339 0.302,-0.279 0.276,-0.254 0.25,-0.23 0.224,-0.214 0.198,-0.208 0.171,-0.201 0.13,-0.201 0.075,-0.207 0.056,-0.21 0.046,-0.211 0.027,-0.213 0.055,-0.436 0.068,-0.548 0.096,-0.771 0.001,-0.783 -0.046,-0.789 -0.141,-0.801"
             style="fill:#ffffff;fill-opacity:1;fill-rule:nonzero;stroke:none"
             id="path56119"
             inkscape:connector-curvature="0" />
        </g>
        <g
           id="g56121"
           transform="translate(276.8429,788.969)">
          <path
             d="M 0,0 C -0.053,0.536 -0.08,0.804 -0.133,1.34 0.226,1.375 0.405,1.391 0.764,1.42 0.772,1.329 0.775,1.284 0.783,1.193 0.523,1.173 0.392,1.161 0.132,1.137 0.144,1.018 0.149,0.958 0.161,0.839 0.401,0.862 0.521,0.872 0.761,0.892 0.769,0.801 0.772,0.756 0.78,0.666 0.541,0.647 0.421,0.636 0.182,0.614 0.196,0.468 0.202,0.395 0.216,0.249 0.48,0.274 0.612,0.285 0.876,0.306 0.884,0.216 0.887,0.17 0.894,0.08 0.536,0.052 0.357,0.036 0,0"
             style="fill:#ffffff;fill-opacity:1;fill-rule:nonzero;stroke:none"
             id="path56123"
             inkscape:connector-curvature="0" />
        </g>
        <g
           id="g56125"
           transform="translate(278.0108,789.5093)">
          <path
             d="m 0,0 c 0.092,0.017 0.139,0.025 0.232,0.042 0.02,-0.087 0.053,-0.151 0.098,-0.19 0.046,-0.038 0.105,-0.055 0.177,-0.05 0.077,0.004 0.134,0.026 0.171,0.065 C 0.715,-0.094 0.732,-0.049 0.729,0 0.727,0.032 0.717,0.059 0.7,0.08 0.682,0.102 0.652,0.119 0.61,0.133 0.581,0.142 0.516,0.158 0.413,0.18 0.282,0.208 0.189,0.246 0.133,0.295 0.054,0.364 0.011,0.451 0.003,0.557 -0.002,0.625 0.011,0.691 0.042,0.753 0.073,0.815 0.12,0.864 0.183,0.899 0.247,0.935 0.326,0.956 0.419,0.961 0.571,0.971 0.688,0.94 0.769,0.87 0.849,0.801 0.895,0.704 0.905,0.581 0.808,0.571 0.76,0.566 0.663,0.556 0.648,0.624 0.624,0.672 0.588,0.701 0.552,0.729 0.499,0.741 0.43,0.737 0.359,0.732 0.305,0.713 0.267,0.678 0.243,0.655 0.232,0.627 0.234,0.592 0.236,0.56 0.25,0.534 0.276,0.513 0.308,0.486 0.384,0.461 0.504,0.437 0.624,0.413 0.713,0.385 0.771,0.355 0.829,0.325 0.875,0.282 0.91,0.226 0.945,0.17 0.965,0.099 0.969,0.014 0.973,-0.063 0.957,-0.136 0.923,-0.205 0.889,-0.275 0.839,-0.327 0.773,-0.364 0.706,-0.4 0.621,-0.422 0.519,-0.428 0.37,-0.437 0.253,-0.406 0.168,-0.333 0.083,-0.26 0.026,-0.149 0,0"
             style="fill:#ffffff;fill-opacity:1;fill-rule:nonzero;stroke:none"
             id="path56127"
             inkscape:connector-curvature="0" />
        </g>
        <g
           id="g56129"
           transform="translate(279.3642,789.1492)">
          <path
             d="m 0,0 c -0.023,0.538 -0.035,0.807 -0.058,1.345 0.36,0.016 0.54,0.022 0.9,0.03 C 0.844,1.284 0.845,1.239 0.847,1.148 0.586,1.141 0.456,1.137 0.195,1.127 0.2,1.008 0.202,0.948 0.207,0.829 0.448,0.838 0.568,0.842 0.809,0.848 0.811,0.757 0.813,0.712 0.815,0.621 0.575,0.615 0.455,0.612 0.216,0.603 0.221,0.456 0.224,0.383 0.229,0.236 0.494,0.246 0.626,0.25 0.891,0.257 0.893,0.166 0.894,0.121 0.896,0.03 0.538,0.022 0.358,0.016 0,0"
             style="fill:#ffffff;fill-opacity:1;fill-rule:nonzero;stroke:none"
             id="path56131"
             inkscape:connector-curvature="0" />
        </g>
        <g
           id="g56133"
           transform="translate(280.6292,789.1864)">
          <path
             d="M 0,0 C -0.008,0.538 -0.012,0.808 -0.021,1.346 0.075,1.347 0.123,1.348 0.218,1.349 0.42,0.992 0.52,0.812 0.714,0.453 c 0.001,0.359 0,0.539 0,0.898 0.092,0 0.138,0 0.229,0 C 0.94,0.812 0.938,0.543 0.935,0.005 c -0.095,0 -0.143,0 -0.239,0 C 0.506,0.357 0.409,0.532 0.212,0.881 0.215,0.53 0.218,0.354 0.221,0.003 0.133,0.002 0.089,0.001 0,0"
             style="fill:#ffffff;fill-opacity:1;fill-rule:nonzero;stroke:none"
             id="path56135"
             inkscape:connector-curvature="0" />
        </g>
        <g
           id="g56137"
           transform="translate(282.2463,789.1826)">
          <path
             d="m 0,0 c 0.009,0.447 0.014,0.671 0.023,1.118 -0.144,0.003 -0.216,0.004 -0.359,0.006 0.001,0.091 0.002,0.137 0.003,0.228 C 0.052,1.347 0.246,1.342 0.631,1.329 0.628,1.238 0.627,1.193 0.624,1.102 0.481,1.107 0.409,1.109 0.266,1.112 0.255,0.665 0.249,0.442 0.238,-0.005 0.143,-0.003 0.095,-0.002 0,0"
             style="fill:#ffffff;fill-opacity:1;fill-rule:nonzero;stroke:none"
             id="path56139"
             inkscape:connector-curvature="0" />
        </g>
        <g
           id="g56141"
           transform="translate(283.6805,789.6642)">
          <path
             d="M 0,0 C -0.055,0.203 -0.084,0.304 -0.141,0.507 -0.215,0.31 -0.252,0.212 -0.325,0.015 -0.195,0.01 -0.13,0.007 0,0 M 0.41,-0.557 C 0.307,-0.55 0.255,-0.547 0.152,-0.542 0.118,-0.417 0.1,-0.355 0.065,-0.23 c -0.19,0.01 -0.284,0.014 -0.474,0.022 -0.044,-0.12 -0.066,-0.181 -0.11,-0.302 -0.101,0.005 -0.152,0.007 -0.252,0.01 0.202,0.532 0.306,0.797 0.519,1.326 C -0.148,0.822 -0.096,0.819 0.007,0.814 0.175,0.267 0.255,-0.008 0.41,-0.557"
             style="fill:#ffffff;fill-opacity:1;fill-rule:nonzero;stroke:none"
             id="path56143"
             inkscape:connector-curvature="0" />
        </g>
        <g
           id="g56145"
           transform="translate(284.5245,789.0787)">
          <path
             d="M 0,0 C 0.032,0.446 0.047,0.67 0.078,1.116 -0.065,1.126 -0.136,1.131 -0.28,1.14 -0.274,1.231 -0.271,1.276 -0.265,1.367 0.12,1.343 0.313,1.329 0.698,1.296 0.69,1.206 0.686,1.16 0.679,1.07 0.536,1.082 0.465,1.087 0.322,1.098 0.288,0.652 0.272,0.429 0.238,-0.017 0.143,-0.01 0.095,-0.007 0,0"
             style="fill:#ffffff;fill-opacity:1;fill-rule:nonzero;stroke:none"
             id="path56147"
             inkscape:connector-curvature="0" />
        </g>
        <g
           id="g56149"
           transform="translate(285.42,789.0065)">
          <path
             d="M 0,0 C 0.049,0.536 0.073,0.804 0.122,1.341 0.22,1.332 0.269,1.328 0.366,1.318 0.315,0.782 0.289,0.514 0.238,-0.022 0.143,-0.013 0.095,-0.009 0,0"
             style="fill:#ffffff;fill-opacity:1;fill-rule:nonzero;stroke:none"
             id="path56151"
             inkscape:connector-curvature="0" />
        </g>
        <g
           id="g56153"
           transform="translate(286.3166,789.5943)">
          <path
             d="M 0,0 C -0.016,-0.152 0.002,-0.27 0.056,-0.355 0.109,-0.44 0.182,-0.488 0.277,-0.499 0.372,-0.51 0.455,-0.481 0.525,-0.41 0.596,-0.34 0.64,-0.228 0.659,-0.073 0.679,0.08 0.663,0.198 0.611,0.281 0.56,0.363 0.485,0.411 0.385,0.422 0.285,0.434 0.199,0.405 0.13,0.336 0.06,0.266 0.017,0.154 0,0 m -0.249,0.017 c 0.015,0.137 0.044,0.249 0.09,0.338 0.035,0.065 0.08,0.123 0.133,0.172 C 0.027,0.576 0.083,0.61 0.143,0.63 0.221,0.657 0.311,0.665 0.409,0.654 0.587,0.633 0.722,0.554 0.813,0.418 0.904,0.283 0.935,0.107 0.907,-0.111 0.879,-0.326 0.805,-0.488 0.687,-0.597 0.568,-0.706 0.423,-0.75 0.251,-0.729 c -0.174,0.02 -0.306,0.096 -0.397,0.228 -0.09,0.133 -0.124,0.305 -0.103,0.518"
             style="fill:#ffffff;fill-opacity:1;fill-rule:nonzero;stroke:none"
             id="path56155"
             inkscape:connector-curvature="0" />
        </g>
        <g
           id="g56157"
           transform="translate(287.488,788.7711)">
          <path
             d="M 0,0 C 0.073,0.533 0.109,0.8 0.183,1.334 0.277,1.321 0.325,1.314 0.42,1.301 0.566,0.917 0.638,0.724 0.776,0.339 0.831,0.694 0.858,0.872 0.912,1.228 1.003,1.214 1.048,1.207 1.138,1.193 1.054,0.661 1.012,0.394 0.928,-0.137 0.833,-0.122 0.786,-0.115 0.691,-0.1 0.556,0.275 0.486,0.463 0.343,0.838 0.294,0.491 0.269,0.317 0.22,-0.031 0.132,-0.018 0.088,-0.012 0,0"
             style="fill:#ffffff;fill-opacity:1;fill-rule:nonzero;stroke:none"
             id="path56159"
             inkscape:connector-curvature="0" />
        </g>
      </g>
    </g>
  </g>
</svg>
