<?xml version="1.0" encoding="UTF-8" standalone="no"?>
<svg
   xmlns:dc="http://purl.org/dc/elements/1.1/"
   xmlns:cc="http://creativecommons.org/ns#"
   xmlns:rdf="http://www.w3.org/1999/02/22-rdf-syntax-ns#"
   xmlns:svg="http://www.w3.org/2000/svg"
   xmlns="http://www.w3.org/2000/svg"
   xmlns:sodipodi="http://sodipodi.sourceforge.net/DTD/sodipodi-0.dtd"
   xmlns:inkscape="http://www.inkscape.org/namespaces/inkscape"
   width="46.111919mm"
   height="32.758732mm"
   viewBox="0 0 46.111919 32.758732"
   version="1.1"
   id="svg215448"
   sodipodi:docname="sunbury-college.svg"
   inkscape:version="1.0.1 (3bc2e813f5, 2020-09-07)">
  <defs
     id="defs215442">
    <clipPath
       id="clip16-6">
      <path
         inkscape:connector-curvature="0"
         id="path214432"
         d="m 453,742 h 37 v 49.49609 h -37 z m 0,0" />
    </clipPath>
    <clipPath
       id="clip17-4">
      <path
         inkscape:connector-curvature="0"
         id="path214435"
         d="m 489,742 h 37 v 49.49609 h -37 z m 0,0" />
    </clipPath>
    <clipPath
       id="clip18-8">
      <path
         inkscape:connector-curvature="0"
         id="path214438"
         d="m 506,741 h 48.75781 v 49 H 506 Z m 0,0" />
    </clipPath>
    <clipPath
       id="clip19-5">
      <path
         inkscape:connector-curvature="0"
         id="path214441"
         d="M 424.04687,741 H 473 v 49 h -48.95313 z m 0,0" />
    </clipPath>
    <clipPath
       id="clip20-6">
      <path
         inkscape:connector-curvature="0"
         id="path214444"
         d="m 434,663.27734 h 12 V 680 h -12 z m 0,0" />
    </clipPath>
    <clipPath
       id="clip21-2">
      <path
         inkscape:connector-curvature="0"
         id="path214447"
         d="m 449,663.27734 h 15 V 680 h -15 z m 0,0" />
    </clipPath>
    <clipPath
       id="clip22-5">
      <path
         inkscape:connector-curvature="0"
         id="path214450"
         d="m 467,663.27734 h 16 V 680 h -16 z m 0,0" />
    </clipPath>
    <clipPath
       id="clip23">
      <path
         inkscape:connector-curvature="0"
         id="path214453"
         d="m 485,663.27734 h 13 V 679 h -13 z m 0,0" />
    </clipPath>
    <clipPath
       id="clip24">
      <path
         inkscape:connector-curvature="0"
         id="path214456"
         d="m 500,663.27734 h 16 V 680 h -16 z m 0,0" />
    </clipPath>
    <clipPath
       id="clip25">
      <path
         inkscape:connector-curvature="0"
         id="path214459"
         d="m 518,663.27734 h 15 V 679 h -15 z m 0,0" />
    </clipPath>
    <clipPath
       id="clip26">
      <path
         inkscape:connector-curvature="0"
         id="path214462"
         d="m 532,663.27734 h 15 V 679 h -15 z m 0,0" />
    </clipPath>
  </defs>
  <sodipodi:namedview
     id="base"
     pagecolor="#ffffff"
     bordercolor="#666666"
     borderopacity="1.0"
     inkscape:pageopacity="0.0"
     inkscape:pageshadow="2"
     inkscape:zoom="2.8"
     inkscape:cx="123.88876"
     inkscape:cy="15.415238"
     inkscape:document-units="mm"
     inkscape:current-layer="g215716"
     showgrid="false"
     inkscape:pagecheckerboard="true"
     inkscape:window-width="1920"
     inkscape:window-height="1000"
     inkscape:window-x="1920"
     inkscape:window-y="0"
     inkscape:window-maximized="1"
     fit-margin-top="0"
     fit-margin-left="0"
     fit-margin-right="0"
     fit-margin-bottom="0"
     inkscape:document-rotation="0" />
  <metadata
     id="metadata215445">
    <rdf:RDF>
      <cc:Work
         rdf:about="">
        <dc:format>image/svg+xml</dc:format>
        <dc:type
           rdf:resource="http://purl.org/dc/dcmitype/StillImage" />
        <dc:title />
      </cc:Work>
    </rdf:RDF>
  </metadata>
  <g
     inkscape:label="Layer 1"
     inkscape:groupmode="layer"
     id="layer1"
     transform="translate(52.538098,-88.797419)">
    <g
       id="g215716" />
    <g
       id="g215736">
      <path
         id="path214634"
         d="m -40.31353,88.797419 h 21.814347 v 15.181841 c -4.551661,1.99816 -8.359182,5.37986 -10.889259,9.61182 -2.536969,-4.23058 -6.358269,-7.61779 -10.925088,-9.61457 z m 0,0"
         style="fill:#781e47;fill-opacity:1;fill-rule:nonzero;stroke:none;stroke-width:0.352778"
         inkscape:connector-curvature="0" />
      <path
         id="path214528"
         d="m -25.551982,118.72841 v -0.0124 c 0,0.003 -0.0013,0.004 -0.0013,0.007 0,0.001 0.0013,0.004 0.0013,0.005"
         style="fill:#ffffff;fill-opacity:1;fill-rule:nonzero;stroke:none;stroke-width:0.352778"
         inkscape:connector-curvature="0" />
      <path
         id="path214532"
         d="m -42.605209,101.6242 c 0.02342,0.008 0.04548,0.0165 0.06753,0.0262 v -0.0165 c -0.02205,-0.004 -0.0441,-0.007 -0.06753,-0.01"
         style="fill:#ffffff;fill-opacity:1;fill-rule:nonzero;stroke:none;stroke-width:0.352778"
         inkscape:connector-curvature="0" />
      <path
         id="path214542"
         d="m -25.554739,118.72841 c 0,-10e-4 0,-0.004 0.0013,-0.006 -0.0013,-0.003 -0.0013,-0.004 -0.0013,-0.006 z m 0,0"
         style="fill:#ffffff;fill-opacity:1;fill-rule:nonzero;stroke:none;stroke-width:0.352778"
         inkscape:connector-curvature="0" />
      <path
         id="path214568"
         d="m -37.765538,110.66689 v 7.94025 c 0.0014,-0.005 0.0014,-0.008 0.0028,-0.0124 v -7.92372 c -0.0014,-0.001 -0.0014,-0.003 -0.0028,-0.004"
         style="fill:#ffffff;fill-opacity:1;fill-rule:nonzero;stroke:none;stroke-width:0.352778"
         inkscape:connector-curvature="0" />
      <g
         transform="matrix(0.3527778,0,0,0.3527778,-202.13242,-157.6661)"
         id="g214638"
         clip-path="url(#clip16-6)"
         style="clip-rule:nonzero">
        <path
           id="path214636"
           d="m 453.63672,742.28125 c 15.3125,2.75 28.35547,12.62891 36.02734,26.33203 v 22.88281 c -4.12109,-21.78515 -17.73047,-39.89843 -36.02734,-49.21484"
           style="fill:#005735;fill-opacity:1;fill-rule:nonzero;stroke:none"
           inkscape:connector-curvature="0" />
      </g>
      <g
         transform="matrix(0.3527778,0,0,0.3527778,-202.13242,-157.6661)"
         id="g214642"
         clip-path="url(#clip17-4)"
         style="clip-rule:nonzero">
        <path
           id="path214640"
           d="m 525.69141,742.08203 c -15.3086,2.74609 -28.35157,12.62891 -36.02735,26.33203 v 22.87891 c 4.1211,-21.78516 17.73047,-39.89844 36.02735,-49.21094"
           style="fill:#f3cc1c;fill-opacity:1;fill-rule:nonzero;stroke:none"
           inkscape:connector-curvature="0" />
      </g>
      <path
         id="path214644"
         d="m -40.38243,103.92277 c 7.215407,0.95222 13.362835,4.37113 16.978806,9.11296 v 7.91821 c -1.941653,-7.53925 -8.355043,-13.80794 -16.978806,-17.03117"
         style="fill:#781e47;fill-opacity:1;fill-rule:nonzero;stroke:none;stroke-width:0.352778"
         inkscape:connector-curvature="0" />
      <g
         transform="matrix(0.3527778,0,0,0.3527778,-202.13242,-157.6661)"
         id="g214648"
         clip-path="url(#clip18-8)"
         style="clip-rule:nonzero">
        <path
           id="path214646"
           d="m 554.75781,741.51172 c -20.45703,2.69531 -37.88281,12.39062 -48.13281,25.83203 v 22.44531 c 5.50391,-21.37109 23.6875,-39.14062 48.13281,-48.27734"
           style="fill:#005735;fill-opacity:1;fill-rule:nonzero;stroke:none"
           inkscape:connector-curvature="0" />
      </g>
      <g
         transform="matrix(0.3527778,0,0,0.3527778,-202.13242,-157.6661)"
         id="g214652"
         clip-path="url(#clip19-5)"
         style="clip-rule:nonzero">
        <path
           id="path214650"
           d="m 424.04687,741.21484 c 20.44922,2.69922 37.875,12.39063 48.125,25.83203 v 22.44532 c -5.5039,-21.3711 -23.68359,-39.14063 -48.125,-48.27735"
           style="fill:#f3cc1c;fill-opacity:1;fill-rule:nonzero;stroke:none"
           inkscape:connector-curvature="0" />
      </g>
      <path
         id="path214654"
         d="m -18.583246,103.8015 c -7.216786,0.95084 -13.362835,4.37113 -16.980186,9.11296 v 7.91684 c 1.941657,-7.53925 8.356424,-13.80657 16.980186,-17.0298"
         style="fill:#005735;fill-opacity:1;fill-rule:nonzero;stroke:none;stroke-width:0.352778"
         inkscape:connector-curvature="0" />
      <path
         id="path214698"
         d="m -39.059514,95.785449 c 4.186478,0.75379 7.754219,3.46163 9.852972,7.218161 v 6.27283 c -1.127235,-5.97241 -4.849316,-10.93749 -9.852972,-13.490991"
         style="fill:#ffffff;fill-opacity:1;fill-rule:nonzero;stroke:none;stroke-width:0.352778"
         inkscape:connector-curvature="0" />
      <path
         id="path214700"
         d="m -19.353568,95.777179 c -4.187856,0.75379 -7.754222,3.46163 -9.852974,7.218161 v 6.27283 c 1.125858,-5.97241 4.849317,-10.937481 9.852974,-13.490991"
         style="fill:#f3cc1c;fill-opacity:1;fill-rule:nonzero;stroke:none;stroke-width:0.352778"
         inkscape:connector-curvature="0" />
      <path
         id="path214702"
         d="m -27.062313,88.798789 8.01467,2.48599 -8.297168,-1.48553 8.10562,8.98068 -8.893859,-8.16488 4.766634,19.022441 -5.855285,-18.709631 -4.355977,14.454251 3.256305,-14.729851 -9.438185,8.86767 8.622386,-9.65453 -13.503399,3.48092 13.150621,-4.54753 z m 0,0"
         style="fill:#ffffff;fill-opacity:1;fill-rule:nonzero;stroke:none;stroke-width:0.352778"
         inkscape:connector-curvature="0" />
    </g>
    <g
       style="fill:#f3cc1c;fill-opacity:1"
       id="g214718"
       transform="matrix(0.3527778,0,0,0.3527778,-202.13242,-157.6661)">
      <g
         id="use214716"
         transform="matrix(0.26458333,0,0,0.26458333,49.3708,738.19708)">
        <path
           inkscape:connector-curvature="0"
           style="stroke:none"
           d=""
           id="path215656" />
      </g>
    </g>
    <g
       style="fill:#ffffff;fill-opacity:1"
       id="g214764"
       transform="matrix(0.3527778,0,0,0.3527778,-202.13242,-157.6661)">
      <g
         id="use214762"
         transform="matrix(0.26458333,0,0,0.26458333,230.35719,738.19708)">
        <path
           inkscape:connector-curvature="0"
           style="stroke:none"
           d=""
           id="path215660" />
      </g>
    </g>
    <g
       style="fill:#ffffff;fill-opacity:1"
       id="g214768"
       transform="matrix(0.3527778,0,0,0.3527778,-202.13242,-157.6661)">
      <g
         id="use214766"
         transform="matrix(0.26458333,0,0,0.26458333,230.3308,738.19708)">
        <path
           inkscape:connector-curvature="0"
           style="stroke:none"
           d=""
           id="path215664" />
      </g>
    </g>
    <g
       style="fill:#ffffff;fill-opacity:1"
       id="g214812"
       transform="matrix(0.3527778,0,0,0.3527778,-202.13242,-157.6661)">
      <g
         id="use214810"
         transform="matrix(0.26458333,0,0,0.26458333,230.3428,763.20508)">
        <path
           inkscape:connector-curvature="0"
           style="stroke:none"
           d=""
           id="path215668" />
      </g>
    </g>
    <g
       style="fill:#ffffff;fill-opacity:1"
       id="g214816"
       transform="matrix(0.3527778,0,0,0.3527778,-202.13242,-157.6661)">
      <g
         id="use214814"
         transform="matrix(0.26458333,0,0,0.26458333,230.3308,763.20508)">
        <path
           inkscape:connector-curvature="0"
           style="stroke:none"
           d=""
           id="path215672" />
      </g>
    </g>
  </g>
</svg>
