<?xml version="1.0" encoding="UTF-8" standalone="no"?>
<svg
   xmlns:dc="http://purl.org/dc/elements/1.1/"
   xmlns:cc="http://creativecommons.org/ns#"
   xmlns:rdf="http://www.w3.org/1999/02/22-rdf-syntax-ns#"
   xmlns:svg="http://www.w3.org/2000/svg"
   xmlns="http://www.w3.org/2000/svg"
   xmlns:sodipodi="http://sodipodi.sourceforge.net/DTD/sodipodi-0.dtd"
   xmlns:inkscape="http://www.inkscape.org/namespaces/inkscape"
   viewBox="0 0 531.84005 280.01001"
   version="1.1"
   id="svg104"
   sodipodi:docname="suzanne-cory-high-school.svg"
   inkscape:version="1.0.1 (3bc2e813f5, 2020-09-07)"
   width="531.84003"
   height="280.01001">
  <metadata
     id="metadata108">
    <rdf:RDF>
      <cc:Work
         rdf:about="">
        <dc:format>image/svg+xml</dc:format>
        <dc:type
           rdf:resource="http://purl.org/dc/dcmitype/StillImage" />
        <dc:title>suzanne-cory-logo</dc:title>
      </cc:Work>
    </rdf:RDF>
  </metadata>
  <sodipodi:namedview
     pagecolor="#ffffff"
     bordercolor="#666666"
     borderopacity="1"
     objecttolerance="10"
     gridtolerance="10"
     guidetolerance="10"
     inkscape:pageopacity="0"
     inkscape:pageshadow="2"
     inkscape:window-width="1920"
     inkscape:window-height="1000"
     id="namedview106"
     showgrid="false"
     inkscape:zoom="1.4185244"
     inkscape:cx="364.88334"
     inkscape:cy="205.24696"
     inkscape:window-x="1920"
     inkscape:window-y="0"
     inkscape:window-maximized="1"
     inkscape:current-layer="g32"
     inkscape:document-rotation="0" />
  <defs
     id="defs4">
    <style
       id="style2">
      .a {
        fill: #8a8d09;
      }

      .b {
        fill: #b32317;
      }

      .c {
        fill: #571c1f;
      }

      .d {
        fill: #8b8d09;
      }

      .e {
        fill: #566c11;
      }
    </style>
  </defs>
  <title
     id="title6">suzanne-cory-logo</title>
  <g
     id="g32"
     transform="translate(-67.04,0.01)" />
  <g
     id="g102"
     transform="translate(-67.04,0.01)">
    <g
       id="g38">
      <path
         class="b"
         d="m 392.49,55.3 a 79.9,79.9 0 0 1 -7,13.71 c 10.39,18.76 27,37.85 52.35,49.91 a 320.2,320.2 0 0 1 45.14,26 c 15.16,-6 27.94,-14.17 36,-26 a 59.64,59.64 0 0 0 5.72,-10.68 C 506.45,94 485.3,81.45 461.35,69.94 442.93,61 433.87,46.68 428.14,32 A 101,101 0 0 1 422,0 h -23.1 c 0,3.64 0,7.27 0,10.93 0.02,13.98 -0.36,28.84 -6.41,44.37 z"
         id="path34" />
      <path
         class="b"
         d="m 598.63,248.51 c 0.16,-38.71 -12.9,-74.75 -36.91,-104.6 -2.32,-2.9 -4.81,-5.69 -7.31,-8.47 a 97.26,97.26 0 0 1 -23.2,26.5 121.37,121.37 0 0 1 -16.33,10.81 c 1.49,1.68 3,3.35 4.36,5.05 17,21.49 24.9,43.63 25,70.71 0,7.16 0.21,24 0.3,31.49 h 54.34 c -0.04,-7.11 -0.25,-24.8 -0.25,-31.49 z"
         id="path36" />
    </g>
    <g
       id="g44">
      <path
         class="c"
         d="M 554.41,135.44 A 223.68,223.68 0 0 0 524.74,108.18 59.64,59.64 0 0 1 519,118.86 c -8.09,11.85 -20.87,20 -36,26 a 177.79,177.79 0 0 1 31.89,27.87 121.37,121.37 0 0 0 16.33,-10.81 97.26,97.26 0 0 0 23.19,-26.48 z"
         id="path40" />
      <path
         class="c"
         d="m 385.5,69 a 79.9,79.9 0 0 0 7,-13.71 c 6.05,-15.53 6.43,-30.39 6.45,-44.37 0,-3.66 0,-7.29 0,-10.93 h -31 c 0,2.16 0,4.25 0,6.3 a 153,153 0 0 0 9.45,44.91 130.06,130.06 0 0 0 8.1,17.8 z"
         id="path42" />
    </g>
    <path
       class="d"
       d="m 367.63,0 c 0,1.71 0.11,3.9 0.24,6.3 0,-2 0,-4.14 0,-6.3 z"
       id="path46" />
    <path
       class="d"
       d="m 218.75,0 h -0.24 v 0 c 0,2 0.07,4.69 0.26,7.92 0,-2.16 0,-4.36 0,-6.64 z"
       id="path48" />
    <g
       id="g84">
      <path
         class="a"
         d="m 206.71,101.38 c 13.38,-10.06 23,-20.4 29.71,-31 A 125.11,125.11 0 0 1 228.21,52.62 153.47,153.47 0 0 1 218.77,8 c 0,1.47 0,2.94 0,4.36 0,13.39 -0.62,23.67 -4.31,33 -3.69,9.33 -10.57,19.16 -26.46,31.25 -4.53,3.41 -8.84,6.85 -13,10.29 a 180.84,180.84 0 0 0 19,24.61 c 4.05,-3.39 8.27,-6.77 12.71,-10.13 z"
         id="path50" />
      <path
         class="a"
         d="m 483,144.88 c -3.31,1.3 -6.69,2.54 -10.21,3.64 -16.69,5.29 -34.24,8 -49.5,11.6 A 164.69,164.69 0 0 1 440.71,196 c 6.24,-1.3 13.34,-2.72 20.88,-4.41 16.55,-3.82 35.49,-9 53.29,-18.86 A 177.79,177.79 0 0 0 483,144.88 Z"
         id="path52" />
      <path
         class="a"
         d="m 554.41,135.44 c 1.51,-2.54 3,-5.16 4.25,-7.92 6.68,-14.11 10.35,-30.8 10.44,-49.88 v -1.18 c 0,-10.51 0,-19.77 0,-27.89 0,-27.81 0,-42.3 0.08,-48.57 h -38.83 c 0,6.49 -0.08,21.09 -0.08,48.57 0,8.12 0,17.36 0,27.85 v 0.41 c 0,13.17 -2.16,23.2 -5.54,31.35 a 223.68,223.68 0 0 1 29.68,27.26 z"
         id="path54" />
      <path
         class="a"
         d="m 343.67,210.94 a 132.07,132.07 0 0 0 -16.36,28.55 108.88,108.88 0 0 1 8.74,40.51 h 21 c 0.68,-14.36 6.54,-31.13 17.58,-45.65 a 97.35,97.35 0 0 1 16,-16.55 111.07,111.07 0 0 0 -17.88,-35.1 135,135 0 0 0 -29.08,28.24 z"
         id="path56" />
      <path
         class="a"
         d="m 249.83,12.31 c 0,14 -0.39,28.83 -6.45,44.36 a 80.74,80.74 0 0 1 -7,13.66 117.5,117.5 0 0 0 51.67,49 361,361 0 0 1 42.65,-39.16 c -6,-3.24 -12.11,-6.43 -18.49,-9.49 -18.43,-9 -27.49,-22.62 -33.21,-37.3 A 99.94,99.94 0 0 1 272.85,0 V 0 H 249.8 c 0,0.43 0,0.87 0,1.31 -0.01,3.69 0.03,7.32 0.03,11 z"
         id="path58" />
      <path
         class="a"
         d="m 390.6,217.8 a 114.37,114.37 0 0 1 4.58,32.08 c 0,6.75 0.19,22.08 0.28,30.12 h 54.36 c -0.11,-7.82 -0.3,-23.84 -0.3,-30.12 A 163.44,163.44 0 0 0 440.71,196 c -5.75,1.2 -10.76,2.29 -14.6,3.39 A 98.13,98.13 0 0 0 390.6,217.8 Z"
         id="path60" />
      <path
         class="a"
         d="m 359.2,97.33 c -1.13,0.89 -2.2,1.79 -3.39,2.69 a 348,348 0 0 0 -39.31,34.52 c 23.35,14 41.2,29 53.64,44.63 0.92,1.17 1.71,2.35 2.58,3.53 a 136.86,136.86 0 0 1 42.86,-20.64 c 2.48,-0.69 5.07,-1.32 7.7,-1.94 A 171,171 0 0 0 412.61,145.28 C 398.29,127.37 380.33,111.54 359.2,97.33 Z"
         id="path62" />
      <path
         class="a"
         d="m 322.07,228.72 c -8.48,-15.23 -21.73,-31.33 -42,-48.15 a 226,226 0 0 0 -11.49,20.79 c 16.43,14.19 26.71,27.18 33.12,38.69 a 84.27,84.27 0 0 1 11,39.95 h 5.43 a 115.06,115.06 0 0 1 9.14,-40.51 108.2,108.2 0 0 0 -5.2,-10.77 z"
         id="path64" />
      <path
         class="a"
         d="M 168.79,76.33 C 156,51.83 154.23,31 154.2,13.1 c 0,-4.57 0.12,-8.9 0.22,-13.1 h -23.29 c -0.1,4 -0.22,8.33 -0.22,13.1 0,19.53 2.19,45.37 17.27,74 a 167.35,167.35 0 0 0 9,15.22 Q 165.59,94.59 175,86.9 c -2.33,-3.6 -4.4,-7.13 -6.21,-10.57 z"
         id="path66" />
      <path
         class="a"
         d="m 252.39,160.07 c -25.66,-17 -44.51,-33.29 -58.43,-48.56 -6.19,5.12 -12,10.26 -17.47,15.4 15.46,17 35.95,34.61 63,52.57 1.37,0.92 2.69,1.82 4,2.74 q 5.16,-10 11.62,-20.26 c -0.87,-0.62 -1.77,-1.25 -2.72,-1.89 z"
         id="path68" />
      <path
         class="a"
         d="m 288.74,119.65 c -0.23,-0.11 -0.43,-0.23 -0.65,-0.33 A 296.76,296.76 0 0 0 255.17,162 c 9.31,6.3 17.58,12.5 24.94,18.61 a 269.2,269.2 0 0 1 36.39,-46 c -8.5,-5.18 -17.74,-10.16 -27.76,-14.96 z"
         id="path70" />
      <path
         class="a"
         d="m 217.66,280 h 31.08 c 0.45,-19.91 4.82,-47.59 19.88,-78.64 A 277.27,277.27 0 0 0 243.55,182.22 C 224,220.05 218,254.77 217.66,280 Z"
         id="path72" />
      <path
         class="a"
         d="M 385.5,69 A 130.06,130.06 0 0 1 377.32,51.2 153,153 0 0 1 367.87,6.3 c 0,1.57 0,3.12 0,4.63 0,13.4 -0.62,23.68 -4.31,33.06 -3.69,9.38 -10.56,19.16 -26.46,31.25 -2.17,1.64 -4.26,3.28 -6.36,4.92 q 15.08,8.18 28.46,17.17 C 370.79,88.13 379.41,78.7 385.5,69 Z"
         id="path74" />
      <path
         class="a"
         d="m 122.25,99.66 c -7.29,-27.26 -8.64,-54 -8.63,-77.81 0,-7.61 0.14,-14.87 0.24,-21.85 H 67.27 c -0.09,6.66 -0.22,14 -0.23,21.85 0,25.5 1.36,56.63 10.2,89.81 a 242.83,242.83 0 0 0 24.3,59.09 288.74,288.74 0 0 1 30.66,-42.47 205.41,205.41 0 0 1 -9.95,-28.62 z"
         id="path76" />
      <path
         class="a"
         d="M 132.14,212.76 A 114.68,114.68 0 0 1 157.43,259.83 113.47,113.47 0 0 1 161,280 h 46.7 a 155.2,155.2 0 0 0 -5.3,-32.3 161.16,161.16 0 0 0 -35.68,-66.14 204.44,204.44 0 0 1 -18.56,-23.92 242.74,242.74 0 0 0 -27.1,42 c 3.48,4.36 7.15,8.78 11.08,13.12 z"
         id="path78" />
      <path
         class="a"
         d="m 68.57,280 h 31.09 c 0.64,-20.48 5.45,-48.78 21.4,-80.39 A 241.82,241.82 0 0 1 101.54,170.75 C 76.77,212.82 69.13,252 68.57,280 Z"
         id="path80" />
      <path
         class="a"
         d="m 132.2,128.28 a 190,190 0 0 0 16,29.36 298.84,298.84 0 0 1 28.33,-30.73 205.76,205.76 0 0 1 -19.26,-24.55 336.54,336.54 0 0 0 -25.07,25.92 z"
         id="path82" />
    </g>
    <g
       id="g100">
      <path
         class="e"
         d="m 415.58,162.06 a 136.86,136.86 0 0 0 -42.86,20.64 111.07,111.07 0 0 1 17.88,35.1 98.13,98.13 0 0 1 35.51,-18.39 c 3.84,-1.1 8.85,-2.19 14.6,-3.39 a 164.69,164.69 0 0 0 -17.43,-35.9 c -2.63,0.62 -5.22,1.25 -7.7,1.94 z"
         id="path86" />
      <path
         class="e"
         d="m 318.17,280 h 17.88 a 108.88,108.88 0 0 0 -8.74,-40.51 115.06,115.06 0 0 0 -9.14,40.51 z"
         id="path88" />
      <path
         class="e"
         d="m 288.09,119.32 c 0.22,0.1 0.42,0.22 0.65,0.33 10,4.8 19.23,9.78 27.76,14.89 A 348,348 0 0 1 355.81,100 c 1.19,-0.9 2.26,-1.8 3.39,-2.69 q -13.38,-9 -28.46,-17.17 a 361,361 0 0 0 -42.65,39.18 z"
         id="path90" />
      <path
         class="e"
         d="m 255.17,162 q -6.48,10.24 -11.62,20.26 a 277.27,277.27 0 0 1 25.07,19.14 226,226 0 0 1 11.49,-20.79 C 272.75,174.46 264.48,168.26 255.17,162 Z"
         id="path92" />
      <path
         class="e"
         d="m 236.42,70.33 a 80.74,80.74 0 0 0 7,-13.66 c 6.06,-15.53 6.43,-30.39 6.45,-44.36 0,-3.68 0,-7.34 0,-11 0,-0.44 0,-0.88 0,-1.31 h -31.12 v 1.31 c 0,2.28 0,4.48 0,6.64 a 153.47,153.47 0 0 0 9.44,44.62 125.11,125.11 0 0 0 8.23,17.76 z"
         id="path94" />
      <path
         class="e"
         d="m 175,86.9 q -9.36,7.68 -17.72,15.46 a 205.76,205.76 0 0 0 19.26,24.55 c 5.43,-5.14 11.28,-10.28 17.47,-15.4 A 180.84,180.84 0 0 1 175,86.9 Z"
         id="path96" />
      <path
         class="e"
         d="m 101.54,170.75 a 241.82,241.82 0 0 0 19.52,28.86 242.74,242.74 0 0 1 27.1,-42 190,190 0 0 1 -16,-29.36 288.74,288.74 0 0 0 -30.62,42.5 z"
         id="path98" />
    </g>
  </g>
</svg>
