<?xml version="1.0" encoding="UTF-8" standalone="no"?>
<svg
   width="12.079817mm"
   height="17.467968mm"
   viewBox="0 0 12.079817 17.467969"
   version="1.1"
   id="svg52138"
   xmlns="http://www.w3.org/2000/svg"
   xmlns:svg="http://www.w3.org/2000/svg"
   xmlns:rdf="http://www.w3.org/1999/02/22-rdf-syntax-ns#"
   xmlns:cc="http://creativecommons.org/ns#"
   xmlns:dc="http://purl.org/dc/elements/1.1/">
  <defs
     id="defs52132">
    <clipPath
       id="clipPath64092"
       clipPathUnits="userSpaceOnUse">
      <path
         id="path64090"
         d="m 360.299,166.581 h 191.04 v 22.32 h -191.04 z" />
    </clipPath>
    <clipPath
       id="clipPath65602"
       clipPathUnits="userSpaceOnUse">
      <path
         id="path65600"
         d="m 360.539,119.301 h 190.8 v 22.32 h -190.8 z" />
    </clipPath>
    <clipPath
       id="clipPath65786"
       clipPathUnits="userSpaceOnUse">
      <path
         id="path65784"
         d="m 360.299,96.98103 h 191.04 v 22.32 h -191.04 z" />
    </clipPath>
    <clipPath
       id="clipPath66642"
       clipPathUnits="userSpaceOnUse">
      <path
         id="path66640"
         d="m 533.579,621.861 h 14.4 v 6.24 h -14.4 z" />
    </clipPath>
    <clipPath
       id="clipPath66716"
       clipPathUnits="userSpaceOnUse">
      <path
         id="path66714"
         d="m 511.259,673.221 h 56.88 v 16.8 h -56.88 z" />
    </clipPath>
    <clipPath
       id="clipPath80500"
       clipPathUnits="userSpaceOnUse">
      <path
         id="path80498"
         d="m 360.299,166.581 h 191.04 v 22.32 h -191.04 z" />
    </clipPath>
    <clipPath
       id="clipPath82010"
       clipPathUnits="userSpaceOnUse">
      <path
         id="path82008"
         d="m 360.539,119.301 h 190.8 v 22.32 h -190.8 z" />
    </clipPath>
    <clipPath
       id="clipPath82194"
       clipPathUnits="userSpaceOnUse">
      <path
         id="path82192"
         d="m 360.299,96.98103 h 191.04 v 22.32 h -191.04 z" />
    </clipPath>
    <clipPath
       id="clipPath83050"
       clipPathUnits="userSpaceOnUse">
      <path
         id="path83048"
         d="m 533.579,621.861 h 14.4 v 6.24 h -14.4 z" />
    </clipPath>
    <clipPath
       id="clipPath83124"
       clipPathUnits="userSpaceOnUse">
      <path
         id="path83122"
         d="m 511.259,673.221 h 56.88 v 16.8 h -56.88 z" />
    </clipPath>
    <clipPath
       id="clipPath93511"
       clipPathUnits="userSpaceOnUse">
      <path
         id="path93509"
         d="M 211.84,38.237 H 388.87 V 198.455 H 211.84 Z" />
    </clipPath>
  </defs>
  <metadata
     id="metadata52135">
    <rdf:RDF>
      <cc:Work
         rdf:about="">
        <dc:format>image/svg+xml</dc:format>
        <dc:type
           rdf:resource="http://purl.org/dc/dcmitype/StillImage" />
        <dc:title />
      </cc:Work>
    </rdf:RDF>
  </metadata>
  <g
     id="layer1"
     transform="translate(-168.95026,-477.82547)">
    <g
       id="g60254"
       transform="matrix(0.35277777,0,0,-0.35277777,120.4022,517.96592)" />
    <g
       id="g60270"
       transform="matrix(0.08466666,0,0,-0.08466666,140.6654,231.27718)" />
    <g
       id="g60272"
       transform="matrix(0.08466666,0,0,-0.08466666,140.48901,498.31583)">
      <text
         transform="scale(1,-1)"
         style="font-variant:normal;font-weight:bold;font-size:33px;font-family:Tahoma;-inkscape-font-specification:Tahoma-Bold;writing-mode:lr-tb;fill:#000000;fill-opacity:1;fill-rule:nonzero;stroke:none"
         id="text60276"><tspan
           x="0"
           y="0"
           id="tspan60274" /></text>
    </g>
    <g
       id="g60284"
       transform="matrix(0.08466666,0,0,-0.08466666,296.79694,498.31583)">
      <text
         transform="scale(1,-1)"
         style="font-variant:normal;font-weight:bold;font-size:33px;font-family:Tahoma;-inkscape-font-specification:Tahoma-Bold;writing-mode:lr-tb;fill:#000000;fill-opacity:1;fill-rule:nonzero;stroke:none"
         id="text60288"><tspan
           x="0"
           y="0"
           id="tspan60286" /></text>
    </g>
    <g
       id="g60296"
       transform="matrix(0.08466666,0,0,-0.08466666,310.47502,498.31583)">
      <text
         transform="scale(1,-1)"
         style="font-variant:normal;font-weight:bold;font-size:29px;font-family:Tahoma;-inkscape-font-specification:Tahoma-Bold;writing-mode:lr-tb;fill:#000000;fill-opacity:1;fill-rule:nonzero;stroke:none"
         id="text60300"><tspan
           x="0"
           y="0"
           id="tspan60298" /></text>
    </g>
    <g
       id="g60302"
       transform="matrix(0.08466666,0,0,-0.08466666,140.48901,501.27917)">
      <text
         transform="scale(1,-1)"
         style="font-variant:normal;font-weight:normal;font-size:29px;font-family:Tahoma;-inkscape-font-specification:Tahoma;writing-mode:lr-tb;fill:#000000;fill-opacity:1;fill-rule:nonzero;stroke:none"
         id="text60306"><tspan
           x="0"
           y="0"
           id="tspan60304" /></text>
    </g>
    <g
       id="g60314"
       transform="matrix(0.08466666,0,0,-0.08466666,310.47502,501.27917)">
      <text
         transform="scale(1,-1)"
         style="font-variant:normal;font-weight:normal;font-size:29px;font-family:Tahoma;-inkscape-font-specification:Tahoma;writing-mode:lr-tb;fill:#000000;fill-opacity:1;fill-rule:nonzero;stroke:none"
         id="text60318"><tspan
           x="0"
           y="0"
           id="tspan60316" /></text>
    </g>
    <g
       id="g60326"
       transform="matrix(0.08466666,0,0,-0.08466666,142.5106,504.91983)">
      <text
         transform="scale(1,-1)"
         style="font-variant:normal;font-weight:normal;font-size:29px;font-family:Tahoma;-inkscape-font-specification:Tahoma;writing-mode:lr-tb;fill:#000000;fill-opacity:1;fill-rule:nonzero;stroke:none"
         id="text60330"><tspan
           x="0"
           y="0"
           id="tspan60328" /></text>
    </g>
    <g
       id="g60362"
       transform="matrix(0.08466666,0,0,-0.08466666,310.47502,504.91983)">
      <text
         transform="scale(1,-1)"
         style="font-variant:normal;font-weight:bold;font-size:29px;font-family:Tahoma;-inkscape-font-specification:Tahoma-Bold;writing-mode:lr-tb;fill:#000000;fill-opacity:1;fill-rule:nonzero;stroke:none"
         id="text60366"><tspan
           x="0"
           y="0"
           id="tspan60364" /></text>
    </g>
    <g
       id="g60378"
       transform="matrix(0.08466666,0,0,-0.08466666,225.42905,262.51918)" />
    <g
       id="g60380"
       transform="matrix(0.08466666,0,0,-0.08466666,225.42905,264.46652)" />
    <g
       id="g60388"
       transform="matrix(0.08466666,0,0,-0.08466666,247.68541,268.53052)" />
    <g
       id="g60420"
       transform="matrix(0.08466666,0,0,-0.08466666,237.58894,273.10252)" />
    <g
       id="g60422"
       transform="matrix(0.08466666,0,0,-0.08466666,140.48901,276.15052)" />
    <g
       id="g60430"
       transform="matrix(0.08466666,0,0,-0.08466666,199.72855,281.06118)" />
    <g
       id="g60432"
       transform="matrix(0.08466666,0,0,-0.08466666,140.48901,284.61718)" />
    <g
       id="g60440"
       transform="matrix(0.08466666,0,0,-0.08466666,143.50123,288.25785)">
      <text
         transform="scale(1,-1)"
         style="font-variant:normal;font-weight:normal;font-size:37px;font-family:Arial;-inkscape-font-specification:ArialMT;writing-mode:lr-tb;fill:#000000;fill-opacity:1;fill-rule:nonzero;stroke:none"
         id="text60444"><tspan
           x="0"
           y="0"
           id="tspan60442" /></text>
    </g>
    <g
       id="g60464"
       transform="matrix(0.08466666,0,0,-0.08466666,214.53728,288.25785)" />
    <g
       id="g60496"
       transform="matrix(0.08466666,0,0,-0.08466666,241.34701,288.25785)" />
    <g
       id="g60510"
       transform="matrix(0.08466666,0,0,-0.08466666,152.0778,291.98318)" />
    <g
       id="g60518"
       transform="matrix(0.08466666,0,0,-0.08466666,214.37165,291.98318)" />
    <g
       id="g60550"
       transform="matrix(0.08466666,0,0,-0.08466666,297.03485,291.98318)" />
    <g
       id="g60552"
       transform="matrix(0.08466666,0,0,-0.08466666,140.48901,295.70852)" />
    <g
       id="g60560"
       transform="matrix(0.08466666,0,0,-0.08466666,143.50123,299.43385)">
      <text
         transform="scale(1,-1)"
         style="font-variant:normal;font-weight:normal;font-size:37px;font-family:Arial;-inkscape-font-specification:ArialMT;writing-mode:lr-tb;fill:#000000;fill-opacity:1;fill-rule:nonzero;stroke:none"
         id="text60564"><tspan
           x="0"
           y="0"
           id="tspan60562" /></text>
    </g>
    <g
       id="g60578"
       transform="matrix(0.08466666,0,0,-0.08466666,226.44533,299.43385)" />
    <g
       id="g60586"
       transform="matrix(0.08466666,0,0,-0.08466666,265.00267,299.43385)" />
    <g
       id="g60588"
       transform="matrix(0.08466666,0,0,-0.08466666,140.48901,303.15918)" />
    <g
       id="g60596"
       transform="matrix(0.08466666,0,0,-0.08466666,143.50123,306.88452)">
      <text
         transform="scale(1,-1)"
         style="font-variant:normal;font-weight:normal;font-size:37px;font-family:Arial;-inkscape-font-specification:ArialMT;writing-mode:lr-tb;fill:#000000;fill-opacity:1;fill-rule:nonzero;stroke:none"
         id="text60600"><tspan
           x="0"
           y="0"
           id="tspan60598" /></text>
    </g>
    <g
       id="g60614"
       transform="matrix(0.08466666,0,0,-0.08466666,234.66036,306.88452)" />
    <g
       id="g60622"
       transform="matrix(0.08466666,0,0,-0.08466666,238.20122,306.88452)" />
    <g
       id="g60630"
       transform="matrix(0.08466666,0,0,-0.08466666,273.2177,306.88452)" />
    <g
       id="g60632"
       transform="matrix(0.08466666,0,0,-0.08466666,140.48901,310.69452)" />
    <g
       id="g60640"
       transform="matrix(0.08466666,0,0,-0.08466666,143.50123,314.41985)">
      <text
         transform="scale(1,-1)"
         style="font-variant:normal;font-weight:normal;font-size:37px;font-family:Arial;-inkscape-font-specification:ArialMT;writing-mode:lr-tb;fill:#000000;fill-opacity:1;fill-rule:nonzero;stroke:none"
         id="text60644"><tspan
           x="0"
           y="0"
           id="tspan60642" /></text>
    </g>
    <g
       id="g60676"
       transform="matrix(0.08466666,0,0,-0.08466666,196.62548,318.14518)" />
    <g
       id="g60678"
       transform="matrix(0.08466666,0,0,-0.08466666,140.48901,321.87052)" />
    <g
       id="g60686"
       transform="matrix(0.08466666,0,0,-0.08466666,143.50123,325.59585)">
      <text
         transform="scale(1,-1)"
         style="font-variant:normal;font-weight:normal;font-size:37px;font-family:Arial;-inkscape-font-specification:ArialMT;writing-mode:lr-tb;fill:#000000;fill-opacity:1;fill-rule:nonzero;stroke:none"
         id="text60690"><tspan
           x="0"
           y="0"
           id="tspan60688" /></text>
    </g>
    <g
       id="g60758"
       transform="matrix(0.08466666,0,0,-0.08466666,198.24861,329.32118)" />
    <g
       id="g60760"
       transform="matrix(0.08466666,0,0,-0.08466666,140.48901,333.46985)" />
    <g
       id="g60768"
       transform="matrix(0.08466666,0,0,-0.08466666,158.39333,336.94118)" />
    <g
       id="g60776"
       transform="matrix(0.08466666,0,0,-0.08466666,182.49825,336.94118)" />
    <g
       id="g60784"
       transform="matrix(0.08466666,0,0,-0.08466666,228.51783,336.94118)" />
    <g
       id="g60792"
       transform="matrix(0.08466666,0,0,-0.08466666,252.23878,336.94118)" />
    <g
       id="g60800"
       transform="matrix(0.08466666,0,0,-0.08466666,285.46191,336.94118)" />
    <g
       id="g60802"
       transform="matrix(0.08466666,0,0,-0.08466666,150.4903,339.56585)" />
    <g
       id="g60810"
       transform="matrix(0.08466666,0,0,-0.08466666,177.08367,342.69852)" />
    <g
       id="g60818"
       transform="matrix(0.08466666,0,0,-0.08466666,219.29159,342.69852)" />
    <g
       id="g60826"
       transform="matrix(0.08466666,0,0,-0.08466666,265.79903,342.69852)" />
    <g
       id="g60834"
       transform="matrix(0.08466666,0,0,-0.08466666,296.63315,342.69852)" />
    <g
       id="g60836"
       transform="matrix(0.08466666,0,0,-0.08466666,150.4903,346.08518)" />
    <g
       id="g60844"
       transform="matrix(0.08466666,0,0,-0.08466666,170.59038,349.72585)" />
    <g
       id="g60858"
       transform="matrix(0.08466666,0,0,-0.08466666,193.99771,349.72585)" />
    <g
       id="g60866"
       transform="matrix(0.08466666,0,0,-0.08466666,217.18184,349.72585)" />
    <g
       id="g60874"
       transform="matrix(0.08466666,0,0,-0.08466666,240.36594,349.72585)" />
    <g
       id="g60882"
       transform="matrix(0.08466666,0,0,-0.08466666,261.76413,349.72585)" />
    <g
       id="g60890"
       transform="matrix(0.08466666,0,0,-0.08466666,299.05659,349.72585)" />
    <g
       id="g60892"
       transform="matrix(0.08466666,0,0,-0.08466666,301.06576,349.72585)" />
    <g
       id="g60900"
       transform="matrix(0.08466666,0,0,-0.08466666,309.42494,349.72585)" />
    <g
       id="g60902"
       transform="matrix(0.08466666,0,0,-0.08466666,150.4903,354.63652)" />
    <g
       id="g60910"
       transform="matrix(0.08466666,0,0,-0.08466666,165.94913,358.61585)" />
    <g
       id="g60918"
       transform="matrix(0.08466666,0,0,-0.08466666,229.70958,358.61585)" />
    <g
       id="g60920"
       transform="matrix(0.08466666,0,0,-0.08466666,140.48901,362.42585)" />
    <g
       id="g60922"
       transform="matrix(0.08466666,0,0,-0.08466666,140.48901,366.15118)" />
    <g
       id="g60924"
       transform="matrix(0.08466666,0,0,-0.08466666,140.48901,369.87651)" />
    <g
       id="g64086"
       transform="matrix(0.35277777,0,0,-0.35277777,120.4022,517.96592)">
      <g
         id="g64088"
         clip-path="url(#clipPath64092)">
        <g
           id="g64094"
           transform="matrix(0.24,0,0,0.24,365.819,173.781)" />
      </g>
    </g>
    <g
       id="g65596"
       transform="matrix(0.35277777,0,0,-0.35277777,120.4022,517.96592)">
      <g
         id="g65598"
         clip-path="url(#clipPath65602)">
        <g
           id="g65604"
           transform="matrix(0.24,0,0,0.24,365.819,126.501)" />
      </g>
    </g>
    <g
       id="g65780"
       transform="matrix(0.35277777,0,0,-0.35277777,120.4022,517.96592)">
      <g
         id="g65782"
         clip-path="url(#clipPath65786)">
        <g
           id="g65788"
           transform="matrix(0.24,0,0,0.24,365.819,104.181)" />
      </g>
    </g>
    <g
       id="g66636"
       transform="matrix(0.35277777,0,0,-0.35277777,120.4022,517.96592)">
      <g
         id="g66638"
         clip-path="url(#clipPath66642)">
        <g
           id="g66644"
           transform="matrix(0.24,0,0,0.24,540.779,617.061)" />
      </g>
    </g>
    <g
       id="g66710"
       transform="matrix(0.35277777,0,0,-0.35277777,120.4022,517.96592)">
      <g
         id="g66712"
         clip-path="url(#clipPath66716)">
        <g
           id="g66718"
           transform="matrix(0.24,0,0,0.24,547.499,674.661)" />
      </g>
    </g>
    <g
       transform="matrix(0.31727831,0,0,-0.31765761,135.66301,494.79016)"
       id="g67782" />
    <g
       transform="matrix(0.31727831,0,0,-0.31765761,135.66301,494.79016)"
       id="g67796" />
    <g
       transform="matrix(0.31727831,0,0,-0.31765761,135.66301,494.79016)"
       id="g67810" />
    <g
       transform="matrix(0.31727831,0,0,-0.31765761,135.66301,494.79016)"
       id="g67824" />
    <g
       id="g76662"
       transform="matrix(0.35277777,0,0,-0.35277777,166.59619,535.12553)" />
    <g
       id="g80494"
       transform="matrix(0.35277777,0,0,-0.35277777,166.59619,535.12553)">
      <g
         id="g80496"
         clip-path="url(#clipPath80500)">
        <g
           id="g80502"
           transform="matrix(0.24,0,0,0.24,365.819,173.781)" />
      </g>
    </g>
    <g
       id="g82004"
       transform="matrix(0.35277777,0,0,-0.35277777,166.59619,535.12553)">
      <g
         id="g82006"
         clip-path="url(#clipPath82010)">
        <g
           id="g82012"
           transform="matrix(0.24,0,0,0.24,365.819,126.501)" />
      </g>
    </g>
    <g
       id="g82188"
       transform="matrix(0.35277777,0,0,-0.35277777,166.59619,535.12553)">
      <g
         id="g82190"
         clip-path="url(#clipPath82194)">
        <g
           id="g82196"
           transform="matrix(0.24,0,0,0.24,365.819,104.181)" />
      </g>
    </g>
    <g
       id="g83044"
       transform="matrix(0.35277777,0,0,-0.35277777,166.59619,535.12553)">
      <g
         id="g83046"
         clip-path="url(#clipPath83050)">
        <g
           id="g83052"
           transform="matrix(0.24,0,0,0.24,540.779,617.061)" />
      </g>
    </g>
    <g
       id="g83118"
       transform="matrix(0.35277777,0,0,-0.35277777,166.59619,535.12553)">
      <g
         id="g83120"
         clip-path="url(#clipPath83124)">
        <g
           id="g83126"
           transform="matrix(0.24,0,0,0.24,547.499,674.661)" />
      </g>
    </g>
    <g
       transform="matrix(0.31727831,0,0,-0.31765761,181.857,511.94977)"
       id="g84190" />
    <g
       transform="matrix(0.31727831,0,0,-0.31765761,181.857,511.94977)"
       id="g84204" />
    <g
       transform="matrix(0.31727831,0,0,-0.31765761,181.857,511.94977)"
       id="g84218" />
    <g
       transform="matrix(0.31727831,0,0,-0.31765761,181.857,511.94977)"
       id="g84232" />
    <g
       id="g93505"
       transform="matrix(0.35277777,0,0,-0.35277777,69.02444,547.83612)">
      <g
         id="g93507"
         clip-path="url(#clipPath93511)">
        <g
           id="g93645"
           transform="translate(317.4963,154.2149)">
          <path
             d="M 0,0 -0.148,0.059 C -18.235,7.21 -33.929,0.115 -34.085,0.042 l -0.138,-0.062 -0.019,-4.421 5.086,-0.829 v 0.01 l 0.059,-0.015 v 2.207 c 0,0 5.422,1.705 12.011,1.679 6.626,0 11.971,-1.674 11.971,-1.674 v -2.212 l 0.053,0.014 V -5.27 l 5.061,0.829 z m -4.612,-3.239 c 0,0 2.395,-0.657 2.9,-0.985 l -2.9,-0.53 z m -27.94,-0.985 c 0.505,0.328 2.902,0.985 2.902,0.985 v -1.515 z m 32.081,0.44 c -16.502,6.582 -30.939,1.003 -33.277,0.004 v 3.451 c 1.519,0.656 16.307,6.64 33.277,0 v -0.153 z"
             style="fill:#ffffff;fill-opacity:1;fill-rule:nonzero;stroke:none"
             id="path93647" />
        </g>
        <g
           id="g93649"
           transform="translate(286.3183,152.2326)">
          <path
             d="M 0,0 C 0.195,0.06 0.237,0.114 0.237,0.335 V 1.559 C 0.237,1.781 0.195,1.812 0,1.751 V 1.822 C 0.428,1.953 0.856,2.078 1.285,2.198 1.291,2.062 1.296,1.927 1.303,1.79 1.275,1.783 1.249,1.775 1.221,1.768 1.209,1.918 1.177,2.037 0.888,1.956 0.828,1.938 0.768,1.921 0.707,1.902 0.572,1.863 0.543,1.81 0.543,1.65 V 1.146 C 0.665,1.182 0.786,1.218 0.909,1.253 1.091,1.305 1.118,1.354 1.118,1.54 1.143,1.546 1.168,1.554 1.193,1.561 V 0.973 C 1.168,0.967 1.143,0.959 1.118,0.951 1.118,1.12 1.091,1.175 0.909,1.123 0.786,1.087 0.665,1.052 0.543,1.015 V 0.427 c 0,-0.221 0.042,-0.25 0.237,-0.195 V 0.161 C 0.52,0.086 0.26,0.009 0,-0.071 Z"
             style="fill:#ffffff;fill-opacity:1;fill-rule:nonzero;stroke:none"
             id="path93651" />
        </g>
        <g
           id="g93653"
           transform="translate(287.73,152.6432)">
          <path
             d="M 0,0 C 0.194,0.053 0.263,0.134 0.351,0.391 0.539,0.95 0.726,1.506 0.914,2.061 0.991,2.082 1.067,2.1 1.144,2.119 1.335,1.646 1.527,1.172 1.72,0.698 1.798,0.505 1.863,0.47 2.06,0.515 V 0.443 C 1.791,0.384 1.523,0.321 1.257,0.255 V 0.326 C 1.366,0.353 1.468,0.387 1.468,0.477 1.468,0.511 1.459,0.544 1.445,0.576 1.408,0.669 1.37,0.763 1.333,0.856 1.091,0.797 0.848,0.737 0.606,0.672 0.571,0.568 0.534,0.462 0.499,0.356 0.486,0.317 0.473,0.28 0.473,0.242 0.473,0.153 0.536,0.144 0.684,0.182 V 0.112 C 0.456,0.052 0.228,-0.009 0,-0.071 Z M 0.654,0.816 C 0.863,0.872 1.074,0.924 1.285,0.976 1.181,1.235 1.077,1.495 0.974,1.755 0.867,1.443 0.76,1.13 0.654,0.816"
             style="fill:#ffffff;fill-opacity:1;fill-rule:nonzero;stroke:none"
             id="path93655" />
        </g>
        <g
           id="g93657"
           transform="translate(291.3058,153.4832)">
          <path
             d="m 0,0 c -0.097,-0.06 -0.253,-0.157 -0.544,-0.216 -0.614,-0.126 -0.833,0.193 -0.833,0.833 0,0.518 0.157,0.978 0.787,1.109 0.253,0.052 0.436,0.044 0.567,0.026 C -0.017,1.595 -0.011,1.439 -0.004,1.283 -0.032,1.276 -0.06,1.272 -0.087,1.265 -0.1,1.408 -0.254,1.657 -0.561,1.594 -0.978,1.508 -1.045,1.046 -1.046,0.692 c 0,-0.45 0.157,-0.817 0.55,-0.737 0.27,0.054 0.409,0.164 0.496,0.242 z"
             style="fill:#ffffff;fill-opacity:1;fill-rule:nonzero;stroke:none"
             id="path93659" />
        </g>
        <g
           id="g93661"
           transform="translate(291.896,153.5851)">
          <path
             d="M 0,0 C 0.199,0.035 0.241,0.084 0.241,0.305 V 1.733 C 0.205,1.727 0.168,1.721 0.132,1.714 -0.168,1.661 -0.227,1.546 -0.258,1.334 -0.285,1.328 -0.313,1.324 -0.342,1.317 -0.335,1.467 -0.33,1.615 -0.324,1.762 0.158,1.852 0.64,1.933 1.124,2.008 1.128,1.862 1.134,1.717 1.139,1.57 1.111,1.565 1.084,1.561 1.055,1.556 1.028,1.763 0.961,1.853 0.664,1.805 0.627,1.799 0.591,1.792 0.554,1.786 V 0.358 c 0,-0.221 0.042,-0.255 0.242,-0.223 V 0.064 C 0.53,0.021 0.265,-0.024 0,-0.071 Z"
             style="fill:#ffffff;fill-opacity:1;fill-rule:nonzero;stroke:none"
             id="path93663" />
        </g>
        <g
           id="g93665"
           transform="translate(293.2255,153.8035)">
          <path
             d="m 0,0 c 0.202,0.029 0.242,0.077 0.242,0.298 v 1.223 c 0,0.222 -0.04,0.26 -0.242,0.23 V 1.822 C 0.267,1.86 0.533,1.898 0.8,1.933 V 1.863 C 0.599,1.837 0.556,1.786 0.556,1.566 V 0.343 C 0.556,0.122 0.599,0.086 0.8,0.113 V 0.04 C 0.533,0.005 0.267,-0.032 0,-0.072 Z"
             style="fill:#ffffff;fill-opacity:1;fill-rule:nonzero;stroke:none"
             id="path93667" />
        </g>
        <g
           id="g93669"
           transform="translate(295.4797,155.4438)">
          <path
             d="m 0,0 c -0.021,0.15 -0.097,0.346 -0.399,0.312 -0.233,-0.024 -0.36,-0.156 -0.36,-0.304 0,-0.279 0.485,-0.354 0.698,-0.498 0.143,-0.093 0.242,-0.209 0.242,-0.402 0,-0.402 -0.313,-0.578 -0.747,-0.627 -0.226,-0.025 -0.412,0.003 -0.51,0.017 -0.005,0.155 -0.011,0.312 -0.017,0.467 0.028,0.003 0.055,0.007 0.083,0.011 0.034,-0.143 0.1,-0.398 0.476,-0.355 0.249,0.027 0.389,0.174 0.389,0.349 0,0.279 -0.335,0.346 -0.598,0.482 -0.172,0.091 -0.312,0.211 -0.312,0.437 0,0.307 0.236,0.515 0.656,0.56 0.191,0.022 0.38,0.003 0.465,-0.002 C 0.072,0.301 0.079,0.155 0.084,0.008 0.055,0.005 0.028,0.003 0,0"
             style="fill:#ffffff;fill-opacity:1;fill-rule:nonzero;stroke:none"
             id="path93671" />
        </g>
        <g
           id="g93673"
           transform="translate(297.0283,154.2161)">
          <path
             d="M 0,0 C 0.201,0.012 0.243,0.057 0.243,0.279 V 1.502 C 0.243,1.723 0.201,1.764 0,1.751 v 0.071 c 0.187,0.012 0.374,0.024 0.562,0.034 0.3,-0.492 0.599,-0.988 0.899,-1.484 0.002,0 0.005,0.001 0.007,0.001 v 1.19 c 0,0.222 -0.043,0.264 -0.245,0.255 v 0.069 c 0.224,0.01 0.446,0.018 0.67,0.024 V 1.84 C 1.685,1.835 1.648,1.79 1.648,1.568 V 0.011 C 1.557,0.009 1.466,0.005 1.374,0.002 1.059,0.524 0.744,1.043 0.429,1.561 0.428,1.561 0.426,1.56 0.425,1.56 V 0.289 c 0,-0.221 0.038,-0.26 0.242,-0.249 V -0.032 C 0.445,-0.043 0.222,-0.056 0,-0.071 Z"
             style="fill:#ffffff;fill-opacity:1;fill-rule:nonzero;stroke:none"
             id="path93675" />
        </g>
        <g
           id="g93677"
           transform="translate(299.2034,155.1877)">
          <path
             d="M 0,0 C 0,0.605 0.187,0.981 0.783,0.986 1.386,0.988 1.57,0.613 1.57,0.009 1.57,-0.598 1.386,-0.962 0.783,-0.965 0.187,-0.969 0,-0.606 0,0 m 0.783,-0.828 c 0.385,0.001 0.446,0.393 0.446,0.839 0,0.445 -0.061,0.84 -0.446,0.837 C 0.399,0.846 0.338,0.451 0.338,0.007 c 0,-0.446 0.061,-0.838 0.445,-0.835"
             style="fill:#ffffff;fill-opacity:1;fill-rule:nonzero;stroke:none"
             id="path93679" />
        </g>
        <g
           id="g93681"
           transform="translate(301.0969,154.3156)">
          <path
             d="M 0,0 C 0.202,-0.004 0.244,0.036 0.244,0.258 V 1.481 C 0.244,1.702 0.202,1.748 0,1.751 v 0.07 C 0.188,1.818 0.375,1.814 0.564,1.807 0.863,1.29 1.163,0.769 1.462,0.247 h 0.007 v 1.19 c 0,0.22 -0.044,0.266 -0.246,0.276 v 0.07 C 1.448,1.773 1.67,1.762 1.894,1.749 V 1.679 C 1.687,1.69 1.649,1.649 1.649,1.427 V -0.132 C 1.559,-0.125 1.468,-0.121 1.376,-0.116 1.061,0.432 0.745,0.98 0.43,1.524 H 0.426 V 0.253 c 0,-0.221 0.041,-0.264 0.244,-0.271 V -0.087 C 0.447,-0.081 0.223,-0.075 0,-0.071 Z"
             style="fill:#ffffff;fill-opacity:1;fill-rule:nonzero;stroke:none"
             id="path93683" />
        </g>
        <g
           id="g93685"
           transform="translate(304.4603,155.6085)">
          <path
             d="m 0,0 c -0.084,0.237 -0.119,0.288 -0.333,0.305 v 0.07 C -0.062,0.352 0.21,0.327 0.479,0.301 V 0.23 C 0.342,0.244 0.277,0.227 0.277,0.145 0.277,0.113 0.285,0.075 0.312,-0.001 0.455,-0.423 0.6,-0.845 0.743,-1.268 H 0.75 c 0.153,0.392 0.304,0.785 0.457,1.176 0.025,0.067 0.037,0.102 0.037,0.134 0,0.075 -0.06,0.113 -0.235,0.133 V 0.244 C 1.247,0.218 1.484,0.19 1.721,0.159 V 0.09 C 1.525,0.115 1.474,0.073 1.405,-0.105 1.206,-0.611 1.007,-1.117 0.806,-1.625 0.725,-1.617 0.639,-1.608 0.556,-1.599 0.372,-1.066 0.186,-0.532 0,0"
             style="fill:#ffffff;fill-opacity:1;fill-rule:nonzero;stroke:none"
             id="path93687" />
        </g>
        <g
           id="g93689"
           transform="translate(306.3252,153.9276)">
          <path
             d="M 0,0 C 0.199,-0.025 0.241,0.011 0.241,0.231 V 1.454 C 0.241,1.677 0.199,1.726 0,1.752 v 0.07 C 0.449,1.763 0.897,1.699 1.344,1.627 1.349,1.489 1.355,1.352 1.361,1.214 1.334,1.219 1.306,1.222 1.279,1.227 1.268,1.382 1.229,1.518 0.91,1.564 0.848,1.574 0.788,1.583 0.726,1.592 0.588,1.613 0.556,1.571 0.556,1.411 V 0.908 C 0.681,0.89 0.805,0.873 0.929,0.854 1.116,0.825 1.145,0.862 1.145,1.049 1.17,1.045 1.195,1.041 1.221,1.036 V 0.449 C 1.195,0.452 1.17,0.457 1.145,0.46 1.145,0.629 1.116,0.695 0.929,0.723 0.805,0.741 0.681,0.76 0.556,0.776 V 0.187 c 0,-0.188 0.021,-0.205 0.17,-0.226 C 0.814,-0.051 0.903,-0.064 0.99,-0.077 1.236,-0.114 1.314,-0.028 1.324,0.15 1.351,0.146 1.378,0.143 1.405,0.137 1.4,0.001 1.395,-0.136 1.389,-0.272 0.928,-0.198 0.463,-0.131 0,-0.071 Z"
             style="fill:#ffffff;fill-opacity:1;fill-rule:nonzero;stroke:none"
             id="path93691" />
        </g>
        <g
           id="g93693"
           transform="translate(308.029,153.6746)">
          <path
             d="M 0,0 C 0.201,-0.034 0.242,0.001 0.242,0.223 V 1.446 C 0.242,1.667 0.201,1.718 0,1.752 v 0.07 C 0.246,1.781 0.489,1.738 0.733,1.693 1.071,1.631 1.46,1.454 1.46,1.078 1.46,0.716 1.26,0.674 1.032,0.668 1.144,0.447 1.255,0.227 1.369,0.004 1.471,-0.196 1.513,-0.279 1.662,-0.309 V -0.378 C 1.516,-0.351 1.37,-0.322 1.227,-0.292 1.061,0.033 0.894,0.358 0.728,0.681 0.67,0.692 0.613,0.703 0.554,0.713 V 0.168 c 0,-0.221 0.042,-0.271 0.241,-0.309 V -0.21 C 0.531,-0.162 0.265,-0.116 0,-0.071 Z M 0.554,0.847 C 0.612,0.836 0.67,0.824 0.728,0.814 0.983,0.768 1.138,0.845 1.138,1.104 1.138,1.408 0.962,1.521 0.733,1.563 0.573,1.593 0.554,1.553 0.554,1.39 Z"
             style="fill:#ffffff;fill-opacity:1;fill-rule:nonzero;stroke:none"
             id="path93695" />
        </g>
        <g
           id="g93697"
           transform="translate(309.8689,153.3298)">
          <path
             d="M 0,0 C 0.2,-0.042 0.239,-0.009 0.239,0.212 V 1.436 C 0.239,1.657 0.2,1.71 0,1.751 V 1.822 C 0.264,1.766 0.528,1.709 0.791,1.649 1.104,1.579 1.448,1.415 1.448,1.042 1.448,0.765 1.243,0.706 1.104,0.695 V 0.689 C 1.3,0.603 1.537,0.445 1.537,0.085 1.537,-0.393 1.059,-0.302 0.791,-0.243 0.528,-0.184 0.264,-0.126 0,-0.071 Z M 0.551,0.877 C 0.609,0.863 0.668,0.851 0.726,0.836 c 0.271,-0.061 0.4,0.006 0.4,0.262 0,0.245 -0.114,0.372 -0.335,0.422 -0.2,0.044 -0.24,0.041 -0.24,-0.152 z m 0,-0.732 c 0,-0.175 0.011,-0.205 0.24,-0.257 0.297,-0.067 0.426,0.042 0.426,0.333 0,0.335 -0.26,0.434 -0.491,0.486 C 0.668,0.72 0.609,0.732 0.551,0.745 Z"
             style="fill:#ffffff;fill-opacity:1;fill-rule:nonzero;stroke:none"
             id="path93699" />
        </g>
        <g
           id="g93701"
           transform="translate(311.7484,152.897)">
          <path
             d="M 0,0 C 0.2,-0.049 0.24,-0.019 0.24,0.203 V 1.426 C 0.24,1.648 0.2,1.701 0,1.752 v 0.07 C 0.263,1.756 0.524,1.688 0.785,1.618 V 1.547 C 0.59,1.599 0.549,1.567 0.549,1.346 V 0.123 c 0,-0.222 0.041,-0.274 0.236,-0.327 V -0.275 C 0.524,-0.204 0.263,-0.136 0,-0.071 Z"
             style="fill:#ffffff;fill-opacity:1;fill-rule:nonzero;stroke:none"
             id="path93703" />
        </g>
        <g
           id="g93705"
           transform="translate(313.9545,153.6445)">
          <path
             d="M 0,0 C -0.023,0.159 -0.093,0.384 -0.39,0.471 -0.616,0.539 -0.741,0.458 -0.741,0.31 c 0,-0.279 0.474,-0.548 0.681,-0.775 0.14,-0.15 0.235,-0.305 0.235,-0.497 0,-0.401 -0.302,-0.455 -0.726,-0.332 -0.22,0.063 -0.401,0.166 -0.499,0.218 -0.004,0.158 -0.01,0.316 -0.015,0.474 0.027,-0.007 0.054,-0.015 0.081,-0.022 0.034,-0.156 0.097,-0.436 0.462,-0.542 0.244,-0.072 0.379,0.02 0.379,0.195 0,0.277 -0.325,0.479 -0.582,0.72 -0.168,0.157 -0.303,0.332 -0.303,0.558 0,0.307 0.23,0.421 0.638,0.301 C -0.202,0.554 -0.019,0.461 0.064,0.422 0.07,0.273 0.076,0.125 0.082,-0.024 0.054,-0.017 0.027,-0.009 0,0"
             style="fill:#ffffff;fill-opacity:1;fill-rule:nonzero;stroke:none"
             id="path93707" />
        </g>
        <g
           id="g93709"
           transform="translate(287.5356,173.9878)">
          <path
             d="m 0,0 c -0.329,0 -0.594,-0.267 -0.594,-0.593 0,-0.328 0.265,-0.594 0.594,-0.594 0.327,0 0.593,0.266 0.593,0.594 C 0.593,-0.267 0.327,0 0,0"
             style="fill:#ffffff;fill-opacity:1;fill-rule:nonzero;stroke:none"
             id="path93711" />
        </g>
        <g
           id="g93713"
           transform="translate(288.5318,176.0354)">
          <path
             d="m 0,0 c -0.342,0 -0.621,-0.277 -0.621,-0.62 0,-0.341 0.279,-0.618 0.621,-0.618 0.342,0 0.618,0.277 0.618,0.618 C 0.618,-0.277 0.342,0 0,0"
             style="fill:#ffffff;fill-opacity:1;fill-rule:nonzero;stroke:none"
             id="path93715" />
        </g>
        <g
           id="g93717"
           transform="translate(289.6111,177.8589)">
          <path
             d="m 0,0 c -0.341,0 -0.618,-0.278 -0.618,-0.62 0,-0.34 0.277,-0.619 0.618,-0.619 0.342,0 0.619,0.279 0.619,0.619 C 0.619,-0.278 0.342,0 0,0"
             style="fill:#ffffff;fill-opacity:1;fill-rule:nonzero;stroke:none"
             id="path93719" />
        </g>
        <g
           id="g93721"
           transform="translate(300.3662,190.4648)">
          <path
             d="m 0,0 c -0.431,0 -0.782,-0.353 -0.782,-0.783 0,-0.431 0.351,-0.782 0.782,-0.782 0.431,0 0.782,0.351 0.782,0.782 C 0.782,-0.353 0.431,0 0,0"
             style="fill:#ffffff;fill-opacity:1;fill-rule:nonzero;stroke:none"
             id="path93723" />
        </g>
        <g
           id="g93725"
           transform="translate(290.9425,179.9507)">
          <path
             d="M 0,0 C -0.356,0 -0.645,-0.29 -0.645,-0.644 -0.645,-1 -0.356,-1.29 0,-1.29 0.354,-1.29 0.644,-1 0.644,-0.644 0.644,-0.29 0.354,0 0,0"
             style="fill:#ffffff;fill-opacity:1;fill-rule:nonzero;stroke:none"
             id="path93727" />
        </g>
        <g
           id="g93729"
           transform="translate(296.94,187.2542)">
          <path
             d="m 0,0 c -0.402,0 -0.728,-0.326 -0.728,-0.727 0,-0.399 0.326,-0.724 0.728,-0.724 0.4,0 0.727,0.325 0.727,0.724 C 0.727,-0.326 0.4,0 0,0"
             style="fill:#ffffff;fill-opacity:1;fill-rule:nonzero;stroke:none"
             id="path93731" />
        </g>
        <g
           id="g93733"
           transform="translate(298.5565,188.9001)">
          <path
             d="m 0,0 c -0.416,0 -0.754,-0.339 -0.754,-0.755 0,-0.415 0.338,-0.753 0.754,-0.753 0.416,0 0.753,0.338 0.753,0.753 C 0.753,-0.339 0.416,0 0,0"
             style="fill:#ffffff;fill-opacity:1;fill-rule:nonzero;stroke:none"
             id="path93735" />
        </g>
        <g
           id="g93737"
           transform="translate(295.377,185.5806)">
          <path
             d="m 0,0 c -0.4,0 -0.727,-0.324 -0.727,-0.725 0,-0.4 0.327,-0.726 0.727,-0.726 0.4,0 0.727,0.326 0.727,0.726 C 0.727,-0.324 0.4,0 0,0"
             style="fill:#ffffff;fill-opacity:1;fill-rule:nonzero;stroke:none"
             id="path93739" />
        </g>
        <g
           id="g93741"
           transform="translate(292.3469,181.8516)">
          <path
             d="m 0,0 c -0.369,0 -0.67,-0.302 -0.67,-0.67 0,-0.37 0.301,-0.67 0.67,-0.67 0.369,0 0.669,0.3 0.669,0.67 C 0.669,-0.302 0.369,0 0,0"
             style="fill:#ffffff;fill-opacity:1;fill-rule:nonzero;stroke:none"
             id="path93743" />
        </g>
        <g
           id="g93745"
           transform="translate(293.8136,183.77)">
          <path
             d="m 0,0 c -0.368,0 -0.669,-0.3 -0.669,-0.669 0,-0.369 0.301,-0.671 0.669,-0.671 0.371,0 0.67,0.302 0.67,0.671 C 0.67,-0.3 0.371,0 0,0"
             style="fill:#ffffff;fill-opacity:1;fill-rule:nonzero;stroke:none"
             id="path93747" />
        </g>
        <g
           id="g93749"
           transform="translate(309.8943,179.9507)">
          <path
             d="M 0,0 C -0.354,0 -0.645,-0.29 -0.645,-0.644 -0.645,-1 -0.354,-1.29 0,-1.29 0.356,-1.29 0.645,-1 0.645,-0.644 0.645,-0.29 0.356,0 0,0"
             style="fill:#ffffff;fill-opacity:1;fill-rule:nonzero;stroke:none"
             id="path93751" />
        </g>
        <g
           id="g93753"
           transform="translate(308.49,181.8516)">
          <path
             d="m 0,0 c -0.369,0 -0.669,-0.302 -0.669,-0.67 0,-0.37 0.3,-0.67 0.669,-0.67 0.369,0 0.67,0.3 0.67,0.67 C 0.67,-0.302 0.369,0 0,0"
             style="fill:#ffffff;fill-opacity:1;fill-rule:nonzero;stroke:none"
             id="path93755" />
        </g>
        <g
           id="g93757"
           transform="translate(307.0238,183.77)">
          <path
             d="m 0,0 c -0.371,0 -0.67,-0.3 -0.67,-0.669 0,-0.369 0.299,-0.671 0.67,-0.671 0.368,0 0.669,0.302 0.669,0.671 C 0.669,-0.3 0.368,0 0,0"
             style="fill:#ffffff;fill-opacity:1;fill-rule:nonzero;stroke:none"
             id="path93759" />
        </g>
        <g
           id="g93761"
           transform="translate(311.2246,177.8589)">
          <path
             d="m 0,0 c -0.34,0 -0.618,-0.278 -0.618,-0.62 0,-0.34 0.278,-0.619 0.618,-0.619 0.344,0 0.621,0.279 0.621,0.619 C 0.621,-0.278 0.344,0 0,0"
             style="fill:#ffffff;fill-opacity:1;fill-rule:nonzero;stroke:none"
             id="path93763" />
        </g>
        <g
           id="g93765"
           transform="translate(305.461,185.5806)">
          <path
             d="m 0,0 c -0.399,0 -0.726,-0.324 -0.726,-0.725 0,-0.4 0.327,-0.726 0.726,-0.726 0.399,0 0.724,0.326 0.724,0.726 C 0.724,-0.324 0.399,0 0,0"
             style="fill:#ffffff;fill-opacity:1;fill-rule:nonzero;stroke:none"
             id="path93767" />
        </g>
        <g
           id="g93769"
           transform="translate(312.7083,173.3946)">
          <path
             d="m 0,0 c 0,-0.329 0.267,-0.594 0.594,-0.594 0.327,0 0.593,0.265 0.593,0.594 0,0.326 -0.266,0.593 -0.593,0.593 C 0.267,0.593 0,0.326 0,0"
             style="fill:#ffffff;fill-opacity:1;fill-rule:nonzero;stroke:none"
             id="path93771" />
        </g>
        <g
           id="g93773"
           transform="translate(312.9268,175.4163)">
          <path
             d="M 0,0 C 0,0.343 -0.279,0.619 -0.622,0.619 -0.961,0.619 -1.24,0.343 -1.24,0 c 0,-0.342 0.279,-0.62 0.618,-0.62 C -0.279,-0.62 0,-0.342 0,0"
             style="fill:#ffffff;fill-opacity:1;fill-rule:nonzero;stroke:none"
             id="path93775" />
        </g>
        <g
           id="g93777"
           transform="translate(302.2808,188.9001)">
          <path
             d="m 0,0 c -0.416,0 -0.753,-0.339 -0.753,-0.755 0,-0.415 0.337,-0.753 0.753,-0.753 0.416,0 0.754,0.338 0.754,0.753 C 0.754,-0.339 0.416,0 0,0"
             style="fill:#ffffff;fill-opacity:1;fill-rule:nonzero;stroke:none"
             id="path93779" />
        </g>
        <g
           id="g93781"
           transform="translate(303.8974,187.2542)">
          <path
             d="m 0,0 c -0.4,0 -0.727,-0.326 -0.727,-0.727 0,-0.399 0.327,-0.724 0.727,-0.724 0.4,0 0.727,0.325 0.727,0.724 C 0.727,-0.326 0.4,0 0,0"
             style="fill:#ffffff;fill-opacity:1;fill-rule:nonzero;stroke:none"
             id="path93783" />
        </g>
        <g
           id="g93785"
           transform="translate(306.6387,166.4927)">
          <path
             d="m 0,0 1.446,-0.351 c 0,0 0.987,2.594 1.089,2.863 0.235,-0.08 1.26,-0.436 1.26,-0.436 l 0.59,1.457 c 0,0 -1.115,0.379 -1.371,0.466 0.11,0.267 0.714,1.758 0.714,1.758 L 2.29,6.213 2.233,6.074 c 0,0 -0.531,-1.293 -0.628,-1.531 C 1.375,4.621 0.277,4.985 0.277,4.985 L -0.206,3.472 c 0,0 1.071,-0.403 1.309,-0.491 C 1.003,2.706 0,0 0,0"
             style="fill:#ffffff;fill-opacity:1;fill-rule:nonzero;stroke:none"
             id="path93787" />
        </g>
        <g
           id="g93789"
           transform="translate(293.7794,171.4777)">
          <path
             d="m 0,0 c 0,0 -1.099,-0.364 -1.328,-0.443 -0.099,0.239 -0.685,1.671 -0.685,1.671 L -2.158,1.182 -3.452,0.772 c 0,0 0.606,-1.491 0.714,-1.759 -0.254,-0.086 -1.371,-0.464 -1.371,-0.464 l 0.592,-1.458 c 0,0 1.024,0.356 1.257,0.436 0.102,-0.269 1.092,-2.863 1.092,-2.863 l 1.445,0.351 c 0,0 -1.003,2.705 -1.104,2.981 0.239,0.088 1.309,0.491 1.309,0.491 z"
             style="fill:#ffffff;fill-opacity:1;fill-rule:nonzero;stroke:none"
             id="path93791" />
        </g>
        <g
           id="g93793"
           transform="translate(300.3973,182.9782)">
          <path
             d="M 0,0 C 0.551,0 0.998,0.449 0.998,0.999 0.998,1.55 0.551,1.995 0,1.995 -0.551,1.995 -0.999,1.55 -0.999,0.999 -0.999,0.449 -0.551,0 0,0"
             style="fill:#ffffff;fill-opacity:1;fill-rule:nonzero;stroke:none"
             id="path93795" />
        </g>
        <g
           id="g93797"
           transform="translate(300.3973,178.147)">
          <path
             d="M 0,0 C 0.551,0 0.998,0.448 0.998,0.999 0.998,1.55 0.551,1.997 0,1.997 -0.551,1.997 -0.999,1.55 -0.999,0.999 -0.999,0.448 -0.551,0 0,0"
             style="fill:#ffffff;fill-opacity:1;fill-rule:nonzero;stroke:none"
             id="path93799" />
        </g>
        <g
           id="g93801"
           transform="translate(300.3973,180.5632)">
          <path
             d="M 0,0 C 0.551,0 0.998,0.447 0.998,0.998 0.998,1.547 0.551,1.997 0,1.997 -0.551,1.997 -0.999,1.547 -0.999,0.998 -0.999,0.447 -0.551,0 0,0"
             style="fill:#ffffff;fill-opacity:1;fill-rule:nonzero;stroke:none"
             id="path93803" />
        </g>
        <g
           id="g93805"
           transform="translate(301.3948,167.066)">
          <path
             d="M 0,0 C 0,0.55 -0.447,0.998 -0.998,0.998 -1.549,0.998 -1.995,0.55 -1.995,0 c 0,-0.55 0.446,-0.998 0.997,-0.998 C -0.447,-0.998 0,-0.55 0,0"
             style="fill:#ffffff;fill-opacity:1;fill-rule:nonzero;stroke:none"
             id="path93807" />
        </g>
        <g
           id="g93809"
           transform="translate(300.3973,170.9006)">
          <path
             d="M 0,0 C 0.551,0 0.998,0.447 0.998,0.998 0.998,1.548 0.551,1.997 0,1.997 -0.551,1.997 -0.999,1.548 -0.999,0.998 -0.999,0.447 -0.551,0 0,0"
             style="fill:#ffffff;fill-opacity:1;fill-rule:nonzero;stroke:none"
             id="path93811" />
        </g>
        <g
           id="g93813"
           transform="translate(300.3973,168.4835)">
          <path
             d="M 0,0 C 0.551,0 0.998,0.449 0.998,0.999 0.998,1.547 0.551,1.997 0,1.997 -0.551,1.997 -0.999,1.547 -0.999,0.999 -0.999,0.449 -0.551,0 0,0"
             style="fill:#ffffff;fill-opacity:1;fill-rule:nonzero;stroke:none"
             id="path93815" />
        </g>
        <g
           id="g93817"
           transform="translate(300.3973,173.3148)">
          <path
             d="M 0,0 C 0.551,0 0.998,0.447 0.998,0.999 0.998,1.55 0.551,1.997 0,1.997 -0.551,1.997 -0.999,1.55 -0.999,0.999 -0.999,0.447 -0.551,0 0,0"
             style="fill:#ffffff;fill-opacity:1;fill-rule:nonzero;stroke:none"
             id="path93819" />
        </g>
        <g
           id="g93821"
           transform="translate(300.3973,175.7307)">
          <path
             d="M 0,0 C 0.551,0 0.998,0.449 0.998,0.999 0.998,1.55 0.551,1.998 0,1.998 -0.551,1.998 -0.999,1.55 -0.999,0.999 -0.999,0.449 -0.551,0 0,0"
             style="fill:#ffffff;fill-opacity:1;fill-rule:nonzero;stroke:none"
             id="path93823" />
        </g>
        <g
           id="g93825"
           transform="translate(316.1711,173.4794)">
          <path
             d="m 0,0 -0.058,0.155 c -3.274,8.874 -12.065,16.855 -14.716,19.12 0.146,0.101 0.281,0.216 0.39,0.355 l 2.906,-2.906 v 7.923 l -2.906,-2.907 c -0.098,0.125 -0.216,0.231 -0.342,0.327 l 2.911,2.909 h -7.922 l 2.937,-2.938 c -0.114,-0.09 -0.219,-0.189 -0.306,-0.304 l -2.912,2.913 v -7.923 l 2.912,2.914 c 0.108,-0.14 0.244,-0.257 0.389,-0.357 C -19.361,17.022 -28.165,9.037 -31.439,0.155 L -31.496,0 l 1.241,-1.895 0.761,0.004 0.526,-0.742 c -0.082,-0.222 -0.164,-0.444 -0.24,-0.669 l -0.053,-0.16 1.42,-1.955 0.672,-0.011 c 0.517,-1.013 1.152,-2.489 1.435,-4.074 -0.202,-0.111 -0.386,-0.233 -0.544,-0.361 l -0.127,-0.101 0.064,-2.235 0.642,-0.243 -10e-4,-0.992 c -0.215,-0.116 -0.411,-0.242 -0.578,-0.376 l -0.127,-0.102 0.064,-2.227 c -0.003,-0.009 -0.021,-0.017 -0.021,-0.026 0,-0.26 1.694,-0.492 4.297,-0.637 l 2.157,0.377 3.111,0.195 4.042,-0.116 3.637,-0.437 c 2.423,0.146 3.977,0.368 3.977,0.618 0,0.006 -0.013,0.011 -0.016,0.017 l 0.064,2.233 -0.126,0.105 c -0.164,0.134 -0.361,0.259 -0.577,0.376 v 0.953 l 0.639,0.252 0.064,2.263 -0.126,0.103 c -0.158,0.13 -0.344,0.251 -0.55,0.365 0.268,1.523 0.876,2.96 1.389,3.973 l 0.667,0.002 1.478,1.975 -0.056,0.163 c -0.081,0.243 -0.169,0.484 -0.259,0.723 0.183,0.255 0.369,0.518 0.541,0.763 l 0.768,0.004 z m -17.47,20.685 c 0,-0.145 0.026,-0.285 0.059,-0.421 -0.262,-0.264 -1.351,-1.35 -1.95,-1.95 v 4.745 c 0.627,-0.627 1.764,-1.764 1.95,-1.951 -0.033,-0.135 -0.059,-0.275 -0.059,-0.423 m 3.457,0 c 0,0.152 -0.026,0.294 -0.063,0.434 0.226,0.227 1.329,1.328 1.94,1.94 v -4.745 c -0.595,0.594 -1.664,1.664 -1.94,1.94 0.037,0.138 0.063,0.282 0.063,0.431 m 7.922,-30.017 c -0.993,0.415 -2.57,0.837 -3.873,1.046 V 5.402 c 3.477,-4.535 5.115,-7.611 5.743,-9.297 -0.411,-0.654 -1.381,-2.934 -1.87,-5.437 m -16.897,-5.262 c 1.59,0.449 3.922,0.868 7.165,0.939 h 0.151 c 3.134,-0.074 5.387,-0.449 6.951,-0.862 -6.408,-2.288 -11.532,-1.13 -14.267,-0.077 m 7.205,2.213 h 0.076 c 0.071,0 7.638,-0.18 9.946,-1.857 -0.003,-0.148 -0.01,-0.354 -0.018,-0.681 -1.062,0.592 -3.909,1.781 -9.88,1.923 h -0.173 c -5.882,-0.127 -8.81,-1.356 -9.886,-1.938 -0.009,0.331 -0.016,0.543 -0.02,0.696 2.342,1.696 9.877,1.857 9.955,1.857 m 0.059,0.564 h -0.09 c -0.29,-0.005 -6.398,-0.151 -9.514,-1.424 v 1.719 c 1.168,0.568 4.227,1.7 9.505,1.815 h 0.151 c 5.237,-0.124 8.313,-1.203 9.529,-1.781 0,-0.643 0,-1.314 -0.003,-1.755 -3.101,1.259 -9.293,1.421 -9.578,1.426 m -0.059,3.385 h 0.076 c 0.071,-0.003 7.638,-0.181 9.946,-1.857 -0.003,-0.151 -0.01,-0.355 -0.018,-0.682 -1.062,0.59 -3.909,1.78 -9.88,1.923 h -0.173 c -5.882,-0.131 -8.81,-1.356 -9.886,-1.938 -0.009,0.332 -0.016,0.544 -0.02,0.697 2.342,1.696 9.877,1.857 9.955,1.857 m 3.954,0.388 V 8.275 c 0.518,-0.608 1.111,-1.304 1.207,-1.418 V -8.184 c -0.382,0.044 -0.889,0.104 -1.207,0.14 m -3.872,0.272 h -0.09 c -0.135,-0.003 -1.494,-0.031 -3.221,-0.194 V 9.026 c 0.991,1.108 1.944,2.008 3.292,3.106 1.31,-1.098 2.259,-1.944 3.233,-3.033 V -7.968 c -1.722,0.161 -3.078,0.193 -3.214,0.196 m -5.175,-0.412 V 6.852 c 0.103,0.118 0.692,0.783 1.206,1.366 V -8.044 c -0.317,-0.036 -0.824,-0.096 -1.206,-0.14 m -6.447,4.366 c 0.632,1.641 2.287,4.633 5.788,9.16 v -13.62 c -1.302,-0.211 -2.854,-0.611 -3.848,-1.03 -0.524,2.644 -1.602,4.96 -1.94,5.49 m -1.202,0.461 c 3.038,8.795 11.417,16.354 12.802,17.56 1.377,-1.215 9.708,-8.843 12.749,-17.64 -0.095,-0.127 -0.253,-0.337 -0.482,-0.644 -0.724,2.091 -3.672,9.34 -11.933,17.108 0.005,-0.007 -0.101,0.099 -0.101,0.099 l -0.233,0.232 -0.337,-0.339 C -24.354,5.142 -27.339,-1.914 -28.08,-3.97 c -0.215,0.295 -0.355,0.489 -0.445,0.613 m -1.076,2.749 c 1.365,3.212 3.095,6.083 4.873,8.548 1.897,2.557 4.405,5.473 7.667,8.507 0.618,0.547 1.084,0.93 1.328,1.123 0.767,-0.664 1.49,-1.317 2.179,-1.96 6.318,-6.095 9.624,-11.658 11.098,-14.623 0.341,-0.798 0.511,-1.337 0.579,-1.57 -0.073,-0.102 -0.501,-0.701 -0.959,-1.346 -3.723,9.158 -12.58,16.741 -12.673,16.82 l -0.21,0.18 -0.213,-0.178 c -0.094,-0.078 -9.034,-7.616 -12.749,-16.791 -0.383,0.535 -0.746,1.044 -0.92,1.29 m 14.232,23.011 c -0.136,0.033 -0.275,0.059 -0.423,0.059 -0.146,0 -0.286,-0.026 -0.421,-0.059 -0.265,0.262 -1.351,1.35 -1.95,1.95 h 4.744 c -0.626,-0.627 -1.765,-1.764 -1.95,-1.95 m -0.373,-2.786 c -0.59,0 -1.07,0.48 -1.07,1.068 0,0.591 0.48,1.07 1.07,1.07 0.589,0 1.069,-0.479 1.069,-1.07 0,-0.588 -0.48,-1.068 -1.069,-1.068 M -0.738,0.075 c -0.071,-0.109 -0.171,-0.261 -0.338,-0.515 -0.907,2.184 -4.672,10.155 -14.332,18.659 0.005,-0.006 -0.118,0.108 -0.118,0.108 l -0.223,0.205 -0.345,-0.319 C -25.749,9.715 -29.514,1.744 -30.421,-0.44 c -0.167,0.254 -0.266,0.406 -0.338,0.515 3.566,9.483 13.507,17.921 15.01,19.158 1.506,-1.237 11.445,-9.675 15.011,-19.158"
             style="fill:#ffffff;fill-opacity:1;fill-rule:nonzero;stroke:none"
             id="path93827" />
        </g>
      </g>
    </g>
  </g>
</svg>
