<?xml version="1.0" encoding="UTF-8" standalone="no"?>
<svg
   id="svg8"
   version="1.1"
   viewBox="0 0 111.36827 111.36732"
   height="111.36732mm"
   width="111.36827mm"
   xmlns="http://www.w3.org/2000/svg"
   xmlns:svg="http://www.w3.org/2000/svg"
   xmlns:rdf="http://www.w3.org/1999/02/22-rdf-syntax-ns#"
   xmlns:cc="http://creativecommons.org/ns#"
   xmlns:dc="http://purl.org/dc/elements/1.1/">
  <defs
     id="defs2">
    <clipPath
       clipPathUnits="userSpaceOnUse"
       id="clipPath3747">
      <path
         d="M -31.086,958.39 -151.79,666.985 139.8,546.205 260.504,837.61 Z"
         id="path3745" />
    </clipPath>
    <clipPath
       clipPathUnits="userSpaceOnUse"
       id="clipPath3751">
      <path
         d="M -151.79,666.985 139.799,546.206 260.503,837.61 -31.086,958.39 Z"
         id="path3749" />
    </clipPath>
    <clipPath
       clipPathUnits="userSpaceOnUse"
       id="clipPath3755">
      <path
         d="M -31.086,958.39 -151.79,666.985 139.8,546.205 260.504,837.61 Z"
         id="path3753" />
    </clipPath>
  </defs>
  <metadata
     id="metadata5">
    <rdf:RDF>
      <cc:Work
         rdf:about="">
        <dc:format>image/svg+xml</dc:format>
        <dc:type
           rdf:resource="http://purl.org/dc/dcmitype/StillImage" />
        <dc:title />
      </cc:Work>
    </rdf:RDF>
  </metadata>
  <g
     transform="translate(-41.41201,-51.664351)"
     id="layer1">
    <g
       id="g3721"
       transform="matrix(0.35277777,0,0,-0.35277777,31.442157,372.14287)">
      <g
         transform="translate(208.92858,-46.607144)"
         id="g3723">
        <g
           id="g3725">
          <g
             transform="rotate(22.5,-97.366493,580.7951)"
             id="g3737">
            <g
               id="g3739" />
            <g
               id="g3931">
              <g
                 id="g3775">
                <g
                   clip-path="url(#clipPath3747)"
                   id="g3773">
                  <g
                     transform="translate(-43.309,816.574)"
                     id="g3759">
                    <path
                       d="m 0,0 c -1.233,-1.876 -2.411,-3.8 -3.545,-5.763 l -36.465,1.734 c 0.858,1.959 1.743,3.899 2.673,5.803 z"
                       style="fill:none;stroke:#231f20;stroke-width:2.03299999;stroke-linecap:butt;stroke-linejoin:miter;stroke-miterlimit:4;stroke-dasharray:none;stroke-opacity:1"
                       id="path3757" />
                  </g>
                  <g
                     transform="translate(-22.3304,622.9106)"
                     id="g3763">
                    <path
                       d="M 0,0 -4.666,18.142 6.935,35.394 c -42.084,31.197 -59.286,88.057 -38.328,138.653 1.146,2.766 2.416,5.443 3.744,8.072 l -35.744,1.701 C -90.387,114.555 -62.488,36.942 0,0"
                       style="fill:#231f20;fill-opacity:1;fill-rule:nonzero;stroke:none"
                       id="path3761" />
                  </g>
                  <g
                     transform="translate(-22.3304,622.9106)"
                     id="g3767">
                    <path
                       d="M 0,0 -4.666,18.142 6.935,35.394 c -42.084,31.197 -59.286,88.057 -38.328,138.653 1.146,2.766 2.416,5.443 3.744,8.072 l -35.744,1.701 C -90.387,114.555 -62.488,36.942 0,0 Z"
                       style="fill:none;stroke:#231f20;stroke-width:2.03299999;stroke-linecap:butt;stroke-linejoin:miter;stroke-miterlimit:4;stroke-dasharray:none;stroke-opacity:1"
                       id="path3765" />
                  </g>
                  <g
                     transform="translate(44.9177,642.6661)"
                     id="g3771">
                    <path
                       d="m 0,0 2.827,14.437 -0.45,0.183 c -30.22,5.643 -49.118,20.345 -49.118,20.345 l -0.448,0.189 -9.206,-13.689 c -39.368,29.369 -55.421,82.688 -35.765,130.142 23.232,56.087 87.538,82.723 143.628,59.49 C 107.56,187.863 134.192,123.558 110.96,67.471 92.16,22.083 46.468,-3.999 0,0"
                       style="fill:#55b948;fill-opacity:1;fill-rule:nonzero;stroke:none"
                       id="path3769" />
                  </g>
                </g>
              </g>
              <g
                 id="g3783">
                <g
                   clip-path="url(#clipPath3751)"
                   id="g3781">
                  <g
                     transform="translate(44.9177,642.6661)"
                     id="g3779">
                    <path
                       d="m 0,0 2.827,14.437 -0.45,0.183 c -30.22,5.643 -49.118,20.345 -49.118,20.345 l -0.448,0.189 -9.206,-13.689 c -39.368,29.369 -55.421,82.688 -35.765,130.142 23.232,56.087 87.538,82.723 143.628,59.49 C 107.56,187.863 134.192,123.558 110.96,67.471 92.16,22.083 46.468,-3.999 0,0 Z m -34.802,-40.899 20.794,14.413 c -30.823,5.752 -50.097,20.75 -50.097,20.75 l 4.632,-25.557 c -73.881,36.049 -107.868,123.852 -75.982,200.83 33.137,80 124.856,117.996 204.856,84.859 C 149.413,221.254 187.394,129.534 154.257,49.534 123.283,-25.242 41.135,-63.31 -34.802,-40.899 Z"
                       style="fill:none;stroke:#231f20;stroke-width:2.03299999;stroke-linecap:butt;stroke-linejoin:miter;stroke-miterlimit:4;stroke-dasharray:none;stroke-opacity:1"
                       id="path3777" />
                  </g>
                </g>
              </g>
              <g
                 id="g3927">
                <g
                   clip-path="url(#clipPath3755)"
                   id="g3925">
                  <g
                     transform="translate(-13.2857,609.6308)"
                     id="g3787">
                    <path
                       d="M 0,0 -1.321,2.022 5.87,19.383 7.749,18.605 0.107,0.154 Z"
                       style="fill:#231f20;fill-opacity:1;fill-rule:nonzero;stroke:none"
                       id="path3785" />
                  </g>
                  <g
                     transform="translate(32.2907,623.2122)"
                     id="g3791">
                    <path
                       d="m 0,0 c -26.547,5.14 -44.152,17.152 -47.624,19.674 l 15.278,23.42 c 6.779,-4.239 20.102,-11.416 38.117,-15.663 z"
                       style="fill:#231f20;fill-opacity:1;fill-rule:nonzero;stroke:none"
                       id="path3789" />
                  </g>
                  <g
                     transform="translate(32.2907,623.2122)"
                     id="g3795">
                    <path
                       d="m 0,0 c -26.547,5.14 -44.152,17.152 -47.624,19.674 l 15.278,23.42 c 6.779,-4.239 20.102,-11.416 38.117,-15.663 z m 137.346,109.466 c -0.377,-2.214 -0.826,-4.425 -1.335,-6.632 l 27.844,-23.599 c 0.713,2.017 1.39,4.038 2.009,6.064 z"
                       style="fill:none;stroke:#231f20;stroke-width:2.03299999;stroke-linecap:butt;stroke-linejoin:miter;stroke-miterlimit:4;stroke-dasharray:none;stroke-opacity:1"
                       id="path3793" />
                  </g>
                  <g
                     transform="translate(22.2168,605.3484)"
                     id="g3799">
                    <path
                       d="m 0,0 15.784,10.085 3.284,20.53 c 52.052,-5.886 103.413,23.965 122.592,75.264 1.046,2.807 1.946,5.63 2.767,8.459 L 171.73,91.204 C 144.231,22.136 70.899,-15.599 0,0"
                       style="fill:#231f20;fill-opacity:1;fill-rule:nonzero;stroke:none"
                       id="path3797" />
                  </g>
                  <g
                     transform="translate(22.2168,605.3484)"
                     id="g3803">
                    <path
                       d="m 0,0 15.784,10.085 3.284,20.53 c 52.052,-5.886 103.413,23.965 122.592,75.264 1.046,2.807 1.946,5.63 2.767,8.459 L 171.73,91.204 C 144.231,22.136 70.899,-15.599 0,0 Z"
                       style="fill:none;stroke:#231f20;stroke-width:2.03299999;stroke-linecap:butt;stroke-linejoin:miter;stroke-miterlimit:4;stroke-dasharray:none;stroke-opacity:1"
                       id="path3801" />
                  </g>
                  <g
                     transform="translate(199.8939,714.8044)"
                     id="g3807">
                    <path
                       d="m 0,0 c 18.433,71.38 -17.98,147.264 -88.047,176.287 -71.728,29.71 -153.269,-0.224 -189.53,-66.953 l 38.377,-1.825 c 31.258,41.804 87.938,58.825 138.377,37.932 49.121,-20.346 77.004,-70.303 71.536,-120.621 z"
                       style="fill:#cb7327;fill-opacity:1;fill-rule:nonzero;stroke:none"
                       id="path3805" />
                  </g>
                  <g
                     transform="translate(199.8939,714.8044)"
                     id="g3811">
                    <path
                       d="m 0,0 c 18.433,71.38 -17.98,147.264 -88.047,176.287 -71.728,29.71 -153.269,-0.224 -189.53,-66.953 l 38.377,-1.825 c 31.258,41.804 87.938,58.825 138.377,37.932 49.121,-20.346 77.004,-70.303 71.536,-120.621 z"
                       style="fill:none;stroke:#231f20;stroke-width:2.03299999;stroke-linecap:butt;stroke-linejoin:miter;stroke-miterlimit:4;stroke-dasharray:none;stroke-opacity:1"
                       id="path3809" />
                  </g>
                  <g
                     transform="translate(34.9409,756.2644)"
                     id="g3815">
                    <path
                       d="m 0,0 -11.404,-27.533 c -3.251,-7.846 -10.808,-8.775 -10.808,-8.775 L 5.893,-47.95 c 0,0 -4.686,6.001 -1.436,13.847 l 30.281,73.106 c 3.252,7.851 10.808,8.778 10.808,8.778 L 17.441,59.422 c 0,0 4.688,-5.998 1.436,-13.849 L 6.822,16.471 l -35.319,14.63 12.055,29.102 c 3.252,7.851 10.8,8.78 10.8,8.78 l -28.097,11.639 c 0,0 4.685,-5.997 1.433,-13.848 L -62.588,-6.332 c -3.25,-7.847 -10.804,-8.777 -10.804,-8.777 l 28.097,-11.638 c 0,0 -4.679,5.997 -1.429,13.844 l 11.405,27.533 z"
                       style="fill:#ffffff;fill-opacity:1;fill-rule:nonzero;stroke:none"
                       id="path3813" />
                  </g>
                  <g
                     transform="translate(77.1312,708.7675)"
                     id="g3819">
                    <path
                       d="m 0,0 c -4.472,2.866 -7.684,5.461 -7.684,5.461 -7.945,7.513 -8.932,24.81 -8.932,24.81 L -28.676,-9.37 c 0,0 6.543,4.53 14.272,-3.498 1.564,-1.622 3.965,-3.445 6.917,-5.208 z"
                       style="fill:#ffffff;fill-opacity:1;fill-rule:nonzero;stroke:none"
                       id="path3817" />
                  </g>
                  <g
                     transform="translate(126.2673,760.5055)"
                     id="g3823">
                    <path
                       d="m 0,0 c 0.251,-0.254 0.525,-0.52 0.747,-0.761 6.599,-7.256 9.076,-16.733 9.076,-16.733 l 6.975,33 C 11.224,13.294 9.313,14.989 9.313,14.989 8.646,15.84 7.917,16.616 7.211,17.409 Z"
                       style="fill:#ffffff;fill-opacity:1;fill-rule:nonzero;stroke:none"
                       id="path3821" />
                  </g>
                  <g
                     transform="translate(103.735,706.3519)"
                     id="g3827">
                    <path
                       d="m 0,0 c 6.187,14.936 -38.925,36.029 -26.663,65.632 6.855,16.549 20.691,21.977 34.19,19.182 L -0.287,65.95 C -3.654,65.909 -6.462,64.512 -7.958,60.9 -13.502,47.515 30.968,26.981 17.855,-4.678 11.96,-18.91 1.282,-23.382 -9.495,-23.168 Z"
                       style="fill:#ffffff;fill-opacity:1;fill-rule:nonzero;stroke:none"
                       id="path3825" />
                  </g>
                  <g
                     transform="translate(66.4533,838.2023)"
                     id="g3831">
                    <path
                       d="m 0,0 -31.328,12.976 c 0,0 5.222,-6.683 1.596,-15.438 -1.551,-3.744 -10.335,-24.949 -19.871,-47.971 l 17.687,-7.326 c 9.498,22.93 18.306,44.195 19.871,47.971 C -8.419,-1.033 0,0 0,0"
                       style="fill:#ffffff;fill-opacity:1;fill-rule:nonzero;stroke:none"
                       id="path3829" />
                  </g>
                  <g
                     transform="translate(88.2509,727.1848)"
                     id="g3835">
                    <path
                       d="m 0,0 c -8.403,-20.286 -15.222,-36.75 -15.222,-36.75 -8.753,-13.272 -38.633,-1.798 -38.633,-1.798 0,0 -29.243,13.016 -26.044,28.588 0,0 7.259,17.526 16.03,38.7 l -17.687,7.326 c -9.076,-21.91 -16.673,-40.251 -16.673,-40.251 0,0 -6.047,-13.177 -16.889,-12.908 l 11.115,-4.604 c 0,0 5.803,-2.207 8.505,-8.049 3.285,-7.084 19.046,-19.045 34.713,-25.534 15.667,-6.49 35.268,-9.177 42.605,-6.492 6.041,2.22 11.706,-0.323 11.706,-0.323 l 11.112,-4.603 c -7.858,7.477 -2.812,21.068 -2.812,21.068 0,0 4.858,11.729 11.438,27.614 C 11.304,-12.687 5.73,-6.715 0,0"
                       style="fill:#ffffff;fill-opacity:1;fill-rule:nonzero;stroke:none"
                       id="path3833" />
                  </g>
                  <g
                     transform="translate(115.3184,742.4936)"
                     id="g3839">
                    <path
                       d="M 0,0 C -4.808,6.229 -10.2,11.721 -13.86,16.576 -5.255,37.351 2.325,55.652 3.767,59.131 7.393,67.886 2.161,74.573 2.161,74.573 L 33.502,61.591 c 0,0 -8.418,-1.033 -12.044,-9.788 C 19.822,47.853 10.131,24.458 0,0"
                       style="fill:#ffffff;fill-opacity:1;fill-rule:nonzero;stroke:none"
                       id="path3837" />
                  </g>
                  <g
                     transform="translate(-15.229,619.4283)"
                     id="g3843">
                    <path
                       d="m 0,0 -1.654,1.323 c 3.045,7.354 4.23,10.215 4.967,11.501 0.556,0.968 1.74,-0.629 1.74,-0.629 C 4.964,11.983 0.101,0.244 0.101,0.244 Z"
                       style="fill:#231f20;fill-opacity:1;fill-rule:nonzero;stroke:none"
                       id="path3841" />
                  </g>
                  <g
                     transform="translate(7.8726,601.4076)"
                     id="g3847">
                    <path
                       d="M 0,0 2.364,0.495 9.555,17.857 7.676,18.635 0.033,0.184 Z"
                       style="fill:#231f20;fill-opacity:1;fill-rule:nonzero;stroke:none"
                       id="path3845" />
                  </g>
                  <g
                     transform="translate(16.0342,606.6265)"
                     id="g3851">
                    <path
                       d="M 0,0 2.472,0.646 C 5.518,7.999 6.338,9.98 6.728,11.409 7.018,12.487 5.05,12.192 5.05,12.192 4.962,11.98 0.101,0.244 0.101,0.244 Z"
                       style="fill:#231f20;fill-opacity:1;fill-rule:nonzero;stroke:none"
                       id="path3849" />
                  </g>
                  <g
                     transform="translate(-77.0865,794.3096)"
                     id="g3855">
                    <path
                       d="m 0,0 c -3.399,0.889 -5.384,-1.264 -6.194,-4.356 -0.89,-3.398 0.446,-5.103 2.115,-5.54 1.699,-0.446 2.623,0.305 3.197,1.111 0.993,1.391 1.921,3.294 3.549,6.105 2.007,3.501 4.585,4.015 6.872,3.414 4.418,-1.157 5.419,-5.778 4.376,-9.765 -1.207,-4.603 -4.661,-7.828 -9.266,-6.62 l 1.014,3.863 c 2.891,-0.559 4.444,1.08 5.14,3.739 0.47,1.792 0.412,4.217 -1.813,4.801 -1.546,0.404 -2.685,-0.42 -3.53,-1.881 -0.184,-0.317 -2.73,-4.867 -3.37,-5.922 -1.626,-2.676 -4.462,-3.421 -6.749,-2.82 -4.944,1.295 -5.772,6.201 -4.623,10.589 1.321,5.038 4.8,8.485 10.293,7.143 z"
                       style="fill:#ffffff;fill-opacity:1;fill-rule:nonzero;stroke:none"
                       id="path3853" />
                  </g>
                  <g
                     transform="translate(-66.3369,774.894)"
                     id="g3859">
                    <path
                       d="m 0,0 -1.841,-18.37 -3.433,0.344 0.722,7.215 -19.26,1.931 0.397,3.972 19.262,-1.93 0.72,7.182 z"
                       style="fill:#ffffff;fill-opacity:1;fill-rule:nonzero;stroke:none"
                       id="path3857" />
                  </g>
                  <g
                     transform="translate(-78.2817,749.1331)"
                     id="g3863">
                    <path
                       d="m 0,0 0.419,-6.539 c 0.162,-2.517 1.494,-3.809 3.886,-3.654 2.902,0.185 3.356,2.104 3.222,4.176 L 7.11,0.457 Z m 10.106,4.651 0.699,-10.874 c 0.32,-4.974 -1.811,-7.672 -5.671,-7.922 -4.368,-0.278 -5.68,2.678 -5.982,3.396 l -0.063,-0.005 c -0.104,-1.384 -0.995,-3.459 -4.599,-3.689 -2.646,-0.169 -5.044,-0.708 -5.915,-1.627 l -0.275,4.27 c 0.95,0.67 2.193,0.75 3.31,0.822 4.178,0.268 5.972,1.248 5.736,4.916 l -0.376,5.867 -9.376,-0.602 -0.256,3.987 z"
                       style="fill:#ffffff;fill-opacity:1;fill-rule:nonzero;stroke:none"
                       id="path3861" />
                  </g>
                  <g
                     transform="translate(-66.2187,731.3906)"
                     id="g3867">
                    <path
                       d="m 0,0 3.761,-15.983 -3.359,-0.793 -2.846,12.099 -5.816,-1.368 2.635,-11.197 -3.173,-0.746 -2.633,11.196 -6.5,-1.53 2.898,-12.316 -3.359,-0.788 -3.812,16.201 z"
                       style="fill:#ffffff;fill-opacity:1;fill-rule:nonzero;stroke:none"
                       id="path3865" />
                  </g>
                  <g
                     transform="translate(-61.3503,711.9944)"
                     id="g3871">
                    <path
                       d="m 0,0 1.645,-3.887 -11.422,-16.155 0.026,-0.056 15.484,6.556 1.484,-3.505 -21.02,-8.899 -1.646,3.887 11.405,16.11 -0.038,0.09 -15.455,-6.544 -1.484,3.504 z"
                       style="fill:#ffffff;fill-opacity:1;fill-rule:nonzero;stroke:none"
                       id="path3869" />
                  </g>
                  <g
                     transform="translate(-52.0621,691.0225)"
                     id="g3875">
                    <path
                       d="M 0,0 2.19,-3.342 -8.932,-10.63 c -2.567,-1.682 -5.429,-3.788 -2.591,-8.12 2.838,-4.329 5.91,-2.547 8.477,-0.865 l 11.122,7.289 2.191,-3.343 -12.219,-8.007 c -4.892,-3.206 -9.375,-1.671 -12.458,3.035 -3.084,4.705 -2.701,9.428 2.192,12.634 z"
                       style="fill:#ffffff;fill-opacity:1;fill-rule:nonzero;stroke:none"
                       id="path3873" />
                  </g>
                  <g
                     transform="translate(-38.841,671.8209)"
                     id="g3879">
                    <path
                       d="m 0,0 11.193,-12.033 -2.53,-2.352 -8.47,9.107 -4.377,-4.07 7.839,-8.43 -2.389,-2.22 -7.84,8.428 -4.892,-4.551 8.623,-9.272 -2.529,-2.351 -11.345,12.198 z"
                       style="fill:#ffffff;fill-opacity:1;fill-rule:nonzero;stroke:none"
                       id="path3877" />
                  </g>
                  <g
                     transform="translate(46.9336,628.9777)"
                     id="g3883">
                    <path
                       d="M 0,0 15.749,0.333 15.825,-3.116 4.07,-3.369 4.194,-9.34 l 10.321,0.217 0.069,-3.259 -10.321,-0.217 0.221,-10.127 -3.997,-0.087 z"
                       style="fill:#ffffff;fill-opacity:1;fill-rule:nonzero;stroke:none"
                       id="path3881" />
                  </g>
                  <g
                     transform="translate(65.4477,629.8789)"
                     id="g3887">
                    <path
                       d="M 0,0 3.964,0.511 6.888,-22.112 2.929,-22.625 Z"
                       style="fill:#ffffff;fill-opacity:1;fill-rule:nonzero;stroke:none"
                       id="path3885" />
                  </g>
                  <g
                     transform="translate(82.4291,612.8167)"
                     id="g3891">
                    <path
                       d="m 0,0 3.806,0.975 c 6.07,1.548 6.483,5.347 5.35,9.774 -1.127,4.425 -3.315,7.564 -9.379,6.013 L -4.035,15.79 Z m -8.707,17.958 9.162,2.34 C 7.267,22.036 11.472,17.836 13.029,11.737 14.587,5.638 12.906,-0.065 6.1,-1.805 l -9.167,-2.338 z"
                       style="fill:#ffffff;fill-opacity:1;fill-rule:nonzero;stroke:none"
                       id="path3889" />
                  </g>
                  <g
                     transform="translate(95.1047,636.6874)"
                     id="g3895">
                    <path
                       d="m 0,0 15.066,6.558 1.377,-3.169 -11.402,-4.962 2.384,-5.482 10.555,4.591 1.304,-2.991 -10.556,-4.593 2.664,-6.127 11.611,5.053 1.378,-3.168 -15.275,-6.646 z"
                       style="fill:#ffffff;fill-opacity:1;fill-rule:nonzero;stroke:none"
                       id="path3893" />
                  </g>
                  <g
                     transform="translate(112.7675,644.7549)"
                     id="g3899">
                    <path
                       d="m 0,0 3.395,2.103 10.193,-16.461 9.86,6.104 1.813,-2.934 -13.255,-8.205 z"
                       style="fill:#ffffff;fill-opacity:1;fill-rule:nonzero;stroke:none"
                       id="path3897" />
                  </g>
                  <g
                     transform="translate(127.7259,654.5962)"
                     id="g3903">
                    <path
                       d="m 0,0 3.162,2.446 13.964,-18.048 -3.158,-2.447 z"
                       style="fill:#ffffff;fill-opacity:1;fill-rule:nonzero;stroke:none"
                       id="path3901" />
                  </g>
                  <g
                     transform="translate(132.9157,658.2747)"
                     id="g3907">
                    <path
                       d="M 0,0 13.337,12.776 15.726,10.285 10.485,5.268 23.883,-8.714 21.002,-11.478 7.602,2.504 2.388,-2.494 Z"
                       style="fill:#ffffff;fill-opacity:1;fill-rule:nonzero;stroke:none"
                       id="path3905" />
                  </g>
                  <g
                     transform="translate(147.3716,672.5063)"
                     id="g3911">
                    <path
                       d="M 0,0 10.047,13.003 12.778,10.892 5.176,1.05 9.907,-2.605 16.941,6.503 19.523,4.509 12.484,-4.597 17.775,-8.683 25.514,1.333 28.246,-0.778 18.059,-13.956 Z"
                       style="fill:#ffffff;fill-opacity:1;fill-rule:nonzero;stroke:none"
                       id="path3909" />
                  </g>
                  <g
                     transform="translate(170.006,686.4088)"
                     id="g3915">
                    <path
                       d="m 0,0 3.123,5.756 c 1.199,2.221 0.762,4.024 -1.344,5.166 -2.558,1.385 -3.961,10e-4 -4.95,-1.825 L -6.264,3.396 Z m -11.035,1.439 5.195,9.578 c 2.375,4.384 5.62,5.532 9.015,3.69 C 7.026,12.621 6.56,9.418 6.437,8.649 l 0.057,-0.03 c 0.824,1.117 2.682,2.399 5.856,0.679 2.33,-1.266 4.645,-2.084 5.875,-1.771 L 16.183,3.764 C 15.019,3.703 13.926,4.297 12.945,4.829 9.263,6.827 7.221,6.952 5.471,3.721 L 2.666,-1.448 10.927,-5.926 9.022,-9.439 Z"
                       style="fill:#ffffff;fill-opacity:1;fill-rule:nonzero;stroke:none"
                       id="path3913" />
                  </g>
                  <g
                     transform="translate(-1.3852,647.6351)"
                     id="g3919">
                    <path
                       d="m 0,0 5.884,-3.088 1.459,9.804 -0.08,0.043 z m 7.275,10.985 3.592,-1.881 -2.685,-23.173 -3.617,1.898 0.867,6.052 -7.695,4.035 -4.485,-4.155 -3.484,1.827 z"
                       style="fill:#ffffff;fill-opacity:1;fill-rule:nonzero;stroke:none"
                       id="path3917" />
                  </g>
                  <g
                     transform="translate(29.8228,641.7614)"
                     id="g3923">
                    <path
                       d="m 0,0 c 0.122,2.578 -0.887,4.804 -3.919,5.735 -4.459,1.371 -7.534,-1.992 -8.762,-5.985 -1.228,-3.996 -0.572,-8.505 3.891,-9.874 3.235,-0.997 5.756,0.879 6.98,3.82 l 3.558,-1.092 c -1.825,-4.894 -6.409,-7.251 -11.454,-5.702 -6.237,1.917 -8.448,8.019 -6.619,13.968 1.827,5.946 7.081,9.757 13.321,7.839 C 1.681,7.238 4.587,3.504 3.645,-1.12 Z"
                       style="fill:#ffffff;fill-opacity:1;fill-rule:nonzero;stroke:none"
                       id="path3921" />
                  </g>
                </g>
              </g>
            </g>
          </g>
        </g>
      </g>
    </g>
  </g>
</svg>
