<?xml version="1.0" encoding="UTF-8" standalone="no"?>
<!-- Created with Inkscape (http://www.inkscape.org/) -->

<svg
   width="27.878969mm"
   height="38.854237mm"
   viewBox="0 0 27.87897 38.854239"
   version="1.1"
   id="svg52138"
   xmlns="http://www.w3.org/2000/svg"
   xmlns:svg="http://www.w3.org/2000/svg"
   xmlns:rdf="http://www.w3.org/1999/02/22-rdf-syntax-ns#"
   xmlns:cc="http://creativecommons.org/ns#"
   xmlns:dc="http://purl.org/dc/elements/1.1/">
  <defs
     id="defs52132">
    <clipPath
       id="clipPath64092"
       clipPathUnits="userSpaceOnUse">
      <path
         id="path64090"
         d="m 360.299,166.581 h 191.04 v 22.32 h -191.04 z" />
    </clipPath>
    <clipPath
       id="clipPath65602"
       clipPathUnits="userSpaceOnUse">
      <path
         id="path65600"
         d="m 360.539,119.301 h 190.8 v 22.32 h -190.8 z" />
    </clipPath>
    <clipPath
       id="clipPath65786"
       clipPathUnits="userSpaceOnUse">
      <path
         id="path65784"
         d="m 360.299,96.98103 h 191.04 v 22.32 h -191.04 z" />
    </clipPath>
    <clipPath
       id="clipPath66642"
       clipPathUnits="userSpaceOnUse">
      <path
         id="path66640"
         d="m 533.579,621.861 h 14.4 v 6.24 h -14.4 z" />
    </clipPath>
    <clipPath
       id="clipPath66716"
       clipPathUnits="userSpaceOnUse">
      <path
         id="path66714"
         d="m 511.259,673.221 h 56.88 v 16.8 h -56.88 z" />
    </clipPath>
    <clipPath
       id="clipPath76186"
       clipPathUnits="userSpaceOnUse">
      <path
         id="path76184"
         d="m 257.545,42.52 h 80.186 v 111.22 h -80.186 z" />
    </clipPath>
    <clipPath
       id="clipPath76202"
       clipPathUnits="userSpaceOnUse">
      <path
         id="path76200"
         d="m 261.583,150.028 c -0.126,-62.796 -0.126,-61.813 -0.126,-70.397 v 0 c 0,-7.716 6.128,-11.32 14.774,-14.225 v 0 c 14.672,-4.934 17.623,-6.664 21.636,-12.684 v 0 c 4.155,6.204 6.962,7.75 21.635,12.684 v 0 c 8.646,2.905 14.771,6.509 14.771,14.225 v 0 c 0,7.716 -0.125,70.397 -0.125,70.397 v 0 z" />
    </clipPath>
    <clipPath
       id="clipPath76238"
       clipPathUnits="userSpaceOnUse">
      <path
         id="path76236"
         d="m 257.545,42.52 h 80.186 v 111.22 h -80.186 z" />
    </clipPath>
  </defs>
  <metadata
     id="metadata52135">
    <rdf:RDF>
      <cc:Work
         rdf:about="">
        <dc:format>image/svg+xml</dc:format>
        <dc:type
           rdf:resource="http://purl.org/dc/dcmitype/StillImage" />
        <dc:title />
      </cc:Work>
    </rdf:RDF>
  </metadata>
  <g
     id="layer1"
     transform="translate(-217.5697,-364.33311)">
    <g
       id="g60254"
       transform="matrix(0.35277777,0,0,-0.35277777,120.4022,517.96592)" />
    <g
       id="g60270"
       transform="matrix(0.08466666,0,0,-0.08466666,140.6654,231.27718)" />
    <g
       id="g60272"
       transform="matrix(0.08466666,0,0,-0.08466666,140.48901,498.31583)">
      <text
         transform="scale(1,-1)"
         style="font-variant:normal;font-weight:bold;font-size:33px;font-family:Tahoma;-inkscape-font-specification:Tahoma-Bold;writing-mode:lr-tb;fill:#000000;fill-opacity:1;fill-rule:nonzero;stroke:none"
         id="text60276"><tspan
           x="0"
           y="0"
           id="tspan60274" /></text>
    </g>
    <g
       id="g60284"
       transform="matrix(0.08466666,0,0,-0.08466666,296.79694,498.31583)">
      <text
         transform="scale(1,-1)"
         style="font-variant:normal;font-weight:bold;font-size:33px;font-family:Tahoma;-inkscape-font-specification:Tahoma-Bold;writing-mode:lr-tb;fill:#000000;fill-opacity:1;fill-rule:nonzero;stroke:none"
         id="text60288"><tspan
           x="0"
           y="0"
           id="tspan60286" /></text>
    </g>
    <g
       id="g60296"
       transform="matrix(0.08466666,0,0,-0.08466666,310.47502,498.31583)">
      <text
         transform="scale(1,-1)"
         style="font-variant:normal;font-weight:bold;font-size:29px;font-family:Tahoma;-inkscape-font-specification:Tahoma-Bold;writing-mode:lr-tb;fill:#000000;fill-opacity:1;fill-rule:nonzero;stroke:none"
         id="text60300"><tspan
           x="0"
           y="0"
           id="tspan60298" /></text>
    </g>
    <g
       id="g60302"
       transform="matrix(0.08466666,0,0,-0.08466666,140.48901,501.27917)">
      <text
         transform="scale(1,-1)"
         style="font-variant:normal;font-weight:normal;font-size:29px;font-family:Tahoma;-inkscape-font-specification:Tahoma;writing-mode:lr-tb;fill:#000000;fill-opacity:1;fill-rule:nonzero;stroke:none"
         id="text60306"><tspan
           x="0"
           y="0"
           id="tspan60304" /></text>
    </g>
    <g
       id="g60314"
       transform="matrix(0.08466666,0,0,-0.08466666,310.47502,501.27917)">
      <text
         transform="scale(1,-1)"
         style="font-variant:normal;font-weight:normal;font-size:29px;font-family:Tahoma;-inkscape-font-specification:Tahoma;writing-mode:lr-tb;fill:#000000;fill-opacity:1;fill-rule:nonzero;stroke:none"
         id="text60318"><tspan
           x="0"
           y="0"
           id="tspan60316" /></text>
    </g>
    <g
       id="g60326"
       transform="matrix(0.08466666,0,0,-0.08466666,142.5106,504.91983)">
      <text
         transform="scale(1,-1)"
         style="font-variant:normal;font-weight:normal;font-size:29px;font-family:Tahoma;-inkscape-font-specification:Tahoma;writing-mode:lr-tb;fill:#000000;fill-opacity:1;fill-rule:nonzero;stroke:none"
         id="text60330"><tspan
           x="0"
           y="0"
           id="tspan60328" /></text>
    </g>
    <g
       id="g60362"
       transform="matrix(0.08466666,0,0,-0.08466666,310.47502,504.91983)">
      <text
         transform="scale(1,-1)"
         style="font-variant:normal;font-weight:bold;font-size:29px;font-family:Tahoma;-inkscape-font-specification:Tahoma-Bold;writing-mode:lr-tb;fill:#000000;fill-opacity:1;fill-rule:nonzero;stroke:none"
         id="text60366"><tspan
           x="0"
           y="0"
           id="tspan60364" /></text>
    </g>
    <g
       id="g60378"
       transform="matrix(0.08466666,0,0,-0.08466666,225.42905,262.51918)" />
    <g
       id="g60380"
       transform="matrix(0.08466666,0,0,-0.08466666,225.42905,264.46652)" />
    <g
       id="g60388"
       transform="matrix(0.08466666,0,0,-0.08466666,247.68541,268.53052)" />
    <g
       id="g60420"
       transform="matrix(0.08466666,0,0,-0.08466666,237.58894,273.10252)" />
    <g
       id="g60422"
       transform="matrix(0.08466666,0,0,-0.08466666,140.48901,276.15052)" />
    <g
       id="g60430"
       transform="matrix(0.08466666,0,0,-0.08466666,199.72855,281.06118)" />
    <g
       id="g60432"
       transform="matrix(0.08466666,0,0,-0.08466666,140.48901,284.61718)" />
    <g
       id="g60440"
       transform="matrix(0.08466666,0,0,-0.08466666,143.50123,288.25785)">
      <text
         transform="scale(1,-1)"
         style="font-variant:normal;font-weight:normal;font-size:37px;font-family:Arial;-inkscape-font-specification:ArialMT;writing-mode:lr-tb;fill:#000000;fill-opacity:1;fill-rule:nonzero;stroke:none"
         id="text60444"><tspan
           x="0"
           y="0"
           id="tspan60442" /></text>
    </g>
    <g
       id="g60464"
       transform="matrix(0.08466666,0,0,-0.08466666,214.53728,288.25785)" />
    <g
       id="g60496"
       transform="matrix(0.08466666,0,0,-0.08466666,241.34701,288.25785)" />
    <g
       id="g60510"
       transform="matrix(0.08466666,0,0,-0.08466666,152.0778,291.98318)" />
    <g
       id="g60518"
       transform="matrix(0.08466666,0,0,-0.08466666,214.37165,291.98318)" />
    <g
       id="g60550"
       transform="matrix(0.08466666,0,0,-0.08466666,297.03485,291.98318)" />
    <g
       id="g60552"
       transform="matrix(0.08466666,0,0,-0.08466666,140.48901,295.70852)" />
    <g
       id="g60560"
       transform="matrix(0.08466666,0,0,-0.08466666,143.50123,299.43385)">
      <text
         transform="scale(1,-1)"
         style="font-variant:normal;font-weight:normal;font-size:37px;font-family:Arial;-inkscape-font-specification:ArialMT;writing-mode:lr-tb;fill:#000000;fill-opacity:1;fill-rule:nonzero;stroke:none"
         id="text60564"><tspan
           x="0"
           y="0"
           id="tspan60562" /></text>
    </g>
    <g
       id="g60578"
       transform="matrix(0.08466666,0,0,-0.08466666,226.44533,299.43385)" />
    <g
       id="g60586"
       transform="matrix(0.08466666,0,0,-0.08466666,265.00267,299.43385)" />
    <g
       id="g60588"
       transform="matrix(0.08466666,0,0,-0.08466666,140.48901,303.15918)" />
    <g
       id="g60596"
       transform="matrix(0.08466666,0,0,-0.08466666,143.50123,306.88452)">
      <text
         transform="scale(1,-1)"
         style="font-variant:normal;font-weight:normal;font-size:37px;font-family:Arial;-inkscape-font-specification:ArialMT;writing-mode:lr-tb;fill:#000000;fill-opacity:1;fill-rule:nonzero;stroke:none"
         id="text60600"><tspan
           x="0"
           y="0"
           id="tspan60598" /></text>
    </g>
    <g
       id="g60614"
       transform="matrix(0.08466666,0,0,-0.08466666,234.66036,306.88452)" />
    <g
       id="g60622"
       transform="matrix(0.08466666,0,0,-0.08466666,238.20122,306.88452)" />
    <g
       id="g60630"
       transform="matrix(0.08466666,0,0,-0.08466666,273.2177,306.88452)" />
    <g
       id="g60632"
       transform="matrix(0.08466666,0,0,-0.08466666,140.48901,310.69452)" />
    <g
       id="g60640"
       transform="matrix(0.08466666,0,0,-0.08466666,143.50123,314.41985)">
      <text
         transform="scale(1,-1)"
         style="font-variant:normal;font-weight:normal;font-size:37px;font-family:Arial;-inkscape-font-specification:ArialMT;writing-mode:lr-tb;fill:#000000;fill-opacity:1;fill-rule:nonzero;stroke:none"
         id="text60644"><tspan
           x="0"
           y="0"
           id="tspan60642" /></text>
    </g>
    <g
       id="g60676"
       transform="matrix(0.08466666,0,0,-0.08466666,196.62548,318.14518)" />
    <g
       id="g60678"
       transform="matrix(0.08466666,0,0,-0.08466666,140.48901,321.87052)" />
    <g
       id="g60686"
       transform="matrix(0.08466666,0,0,-0.08466666,143.50123,325.59585)">
      <text
         transform="scale(1,-1)"
         style="font-variant:normal;font-weight:normal;font-size:37px;font-family:Arial;-inkscape-font-specification:ArialMT;writing-mode:lr-tb;fill:#000000;fill-opacity:1;fill-rule:nonzero;stroke:none"
         id="text60690"><tspan
           x="0"
           y="0"
           id="tspan60688" /></text>
    </g>
    <g
       id="g60758"
       transform="matrix(0.08466666,0,0,-0.08466666,198.24861,329.32118)" />
    <g
       id="g60760"
       transform="matrix(0.08466666,0,0,-0.08466666,140.48901,333.46985)" />
    <g
       id="g60768"
       transform="matrix(0.08466666,0,0,-0.08466666,158.39333,336.94118)" />
    <g
       id="g60776"
       transform="matrix(0.08466666,0,0,-0.08466666,182.49825,336.94118)" />
    <g
       id="g60784"
       transform="matrix(0.08466666,0,0,-0.08466666,228.51783,336.94118)" />
    <g
       id="g60792"
       transform="matrix(0.08466666,0,0,-0.08466666,252.23878,336.94118)" />
    <g
       id="g60800"
       transform="matrix(0.08466666,0,0,-0.08466666,285.46191,336.94118)" />
    <g
       id="g60802"
       transform="matrix(0.08466666,0,0,-0.08466666,150.4903,339.56585)" />
    <g
       id="g60810"
       transform="matrix(0.08466666,0,0,-0.08466666,177.08367,342.69852)" />
    <g
       id="g60818"
       transform="matrix(0.08466666,0,0,-0.08466666,219.29159,342.69852)" />
    <g
       id="g60826"
       transform="matrix(0.08466666,0,0,-0.08466666,265.79903,342.69852)" />
    <g
       id="g60834"
       transform="matrix(0.08466666,0,0,-0.08466666,296.63315,342.69852)" />
    <g
       id="g60836"
       transform="matrix(0.08466666,0,0,-0.08466666,150.4903,346.08518)" />
    <g
       id="g60844"
       transform="matrix(0.08466666,0,0,-0.08466666,170.59038,349.72585)" />
    <g
       id="g60858"
       transform="matrix(0.08466666,0,0,-0.08466666,193.99771,349.72585)" />
    <g
       id="g60866"
       transform="matrix(0.08466666,0,0,-0.08466666,217.18184,349.72585)" />
    <g
       id="g60874"
       transform="matrix(0.08466666,0,0,-0.08466666,240.36594,349.72585)" />
    <g
       id="g60882"
       transform="matrix(0.08466666,0,0,-0.08466666,261.76413,349.72585)" />
    <g
       id="g60890"
       transform="matrix(0.08466666,0,0,-0.08466666,299.05659,349.72585)" />
    <g
       id="g60892"
       transform="matrix(0.08466666,0,0,-0.08466666,301.06576,349.72585)" />
    <g
       id="g60900"
       transform="matrix(0.08466666,0,0,-0.08466666,309.42494,349.72585)" />
    <g
       id="g60902"
       transform="matrix(0.08466666,0,0,-0.08466666,150.4903,354.63652)" />
    <g
       id="g60910"
       transform="matrix(0.08466666,0,0,-0.08466666,165.94913,358.61585)" />
    <g
       id="g60918"
       transform="matrix(0.08466666,0,0,-0.08466666,229.70958,358.61585)" />
    <g
       id="g60920"
       transform="matrix(0.08466666,0,0,-0.08466666,140.48901,362.42585)" />
    <g
       id="g60922"
       transform="matrix(0.08466666,0,0,-0.08466666,140.48901,366.15118)" />
    <g
       id="g60924"
       transform="matrix(0.08466666,0,0,-0.08466666,140.48901,369.87651)" />
    <g
       id="g64086"
       transform="matrix(0.35277777,0,0,-0.35277777,120.4022,517.96592)">
      <g
         id="g64088"
         clip-path="url(#clipPath64092)">
        <g
           id="g64094"
           transform="matrix(0.24,0,0,0.24,365.819,173.781)" />
      </g>
    </g>
    <g
       id="g65596"
       transform="matrix(0.35277777,0,0,-0.35277777,120.4022,517.96592)">
      <g
         id="g65598"
         clip-path="url(#clipPath65602)">
        <g
           id="g65604"
           transform="matrix(0.24,0,0,0.24,365.819,126.501)" />
      </g>
    </g>
    <g
       id="g65780"
       transform="matrix(0.35277777,0,0,-0.35277777,120.4022,517.96592)">
      <g
         id="g65782"
         clip-path="url(#clipPath65786)">
        <g
           id="g65788"
           transform="matrix(0.24,0,0,0.24,365.819,104.181)" />
      </g>
    </g>
    <g
       id="g66636"
       transform="matrix(0.35277777,0,0,-0.35277777,120.4022,517.96592)">
      <g
         id="g66638"
         clip-path="url(#clipPath66642)">
        <g
           id="g66644"
           transform="matrix(0.24,0,0,0.24,540.779,617.061)" />
      </g>
    </g>
    <g
       id="g66710"
       transform="matrix(0.35277777,0,0,-0.35277777,120.4022,517.96592)">
      <g
         id="g66712"
         clip-path="url(#clipPath66716)">
        <g
           id="g66718"
           transform="matrix(0.24,0,0,0.24,547.499,674.661)" />
      </g>
    </g>
    <g
       transform="matrix(0.31727831,0,0,-0.31765761,135.66301,494.79016)"
       id="g67782" />
    <g
       transform="matrix(0.31727831,0,0,-0.31765761,135.66301,494.79016)"
       id="g67796" />
    <g
       transform="matrix(0.31727831,0,0,-0.31765761,135.66301,494.79016)"
       id="g67810" />
    <g
       transform="matrix(0.31727831,0,0,-0.31765761,135.66301,494.79016)"
       id="g67824" />
    <g
       id="g76180"
       transform="matrix(0.35277777,0,0,-0.35277777,126.52771,418.40286)">
      <g
         id="g76182"
         clip-path="url(#clipPath76186)">
        <g
           id="g76188"
           transform="translate(296.5788,48.0186)">
          <path
             d="m 0,0 c -1.837,6.711 -8.678,9.412 -15.92,12.27 l -0.441,0.176 c -5.086,2.009 -10.343,4.087 -14.542,7.169 -5.001,3.671 -7.488,8.092 -7.603,13.515 l -10e-4,0.066 V 105.25 H 40.52 V 33.151 C 40.442,27.718 37.973,23.289 32.967,19.611 28.767,16.525 23.496,14.447 18.399,12.437 10.509,9.327 4.771,6.61 2.788,-0.032 l -1.45,-4.856 z"
             style="fill:#ffffff;fill-opacity:1;fill-rule:nonzero;stroke:none"
             id="path76190" />
        </g>
        <g
           id="g76192"
           transform="translate(297.9773,48.401)">
          <path
             d="m 0,0 c -2.068,7.557 -9.544,10.375 -17.227,13.411 -9.84,3.889 -20.992,8.295 -21.228,19.367 v 0.036 70.604 H 37.671 V 32.789 C 37.514,21.702 26.333,17.294 16.468,13.404 8.772,10.369 2.218,7.429 0,0"
             style="fill:#ffffff;fill-opacity:1;fill-rule:nonzero;stroke:none"
             id="path76194" />
        </g>
      </g>
    </g>
    <g
       id="g76196"
       transform="matrix(0.35277777,0,0,-0.35277777,126.52771,418.40286)">
      <g
         id="g76198"
         clip-path="url(#clipPath76202)">
        <g
           id="g76204"
           transform="translate(282.1853,134.5896)">
          <path
             d="M 0,0 -0.087,1.418 -0.186,7.4 1.197,7.612 0.955,-0.639 -0.746,-0.9 -3.496,6.892 -2.141,7.1 -0.324,1.382 Z"
             style="fill:#003768;fill-opacity:1;fill-rule:nonzero;stroke:none"
             id="path76206" />
        </g>
        <g
           id="g76208"
           transform="translate(284.3759,142.3158)">
          <path
             d="M 0,0 3.614,0.387 3.741,-0.804 1.418,-1.053 1.636,-3.093 3.768,-2.865 3.893,-4.034 1.762,-4.263 2.03,-6.765 4.353,-6.516 4.479,-7.687 0.865,-8.073 Z"
             style="fill:#003768;fill-opacity:1;fill-rule:nonzero;stroke:none"
             id="path76210" />
        </g>
        <g
           id="g76212"
           transform="translate(291.3829,141.7392)">
          <path
             d="m 0,0 -0.937,-0.057 0.135,-2.231 0.9,0.055 c 0.282,0.017 0.488,0.134 0.619,0.351 0.132,0.217 0.188,0.487 0.168,0.81 -0.024,0.396 -0.101,0.677 -0.23,0.846 C 0.524,-0.057 0.306,0.018 0,0 M -2.304,1.061 0.195,1.212 C 1.419,1.286 2.09,0.699 2.209,-0.548 2.262,-1.129 2.205,-1.608 2.037,-1.986 1.87,-2.364 1.604,-2.586 1.239,-2.651 1.504,-2.671 1.715,-2.745 1.87,-2.873 2.025,-3 2.133,-3.151 2.196,-3.324 2.259,-3.496 2.3,-3.674 2.321,-3.857 2.341,-4.039 2.359,-4.249 2.373,-4.486 2.418,-5.04 2.476,-5.533 2.545,-5.968 2.614,-6.404 2.708,-6.619 2.824,-6.611 L 2.833,-6.762 1.345,-6.853 c -0.037,0.2 -0.072,0.486 -0.107,0.859 -0.035,0.373 -0.078,0.673 -0.128,0.901 l -0.033,0.55 c -0.024,0.388 -0.107,0.674 -0.25,0.855 -0.143,0.183 -0.435,0.261 -0.876,0.234 l -0.68,-0.041 0.21,-3.47 -1.295,-0.078 z"
             style="fill:#003768;fill-opacity:1;fill-rule:nonzero;stroke:none"
             id="path76214" />
        </g>
        <g
           id="g76216"
           transform="translate(294.8114,143.0899)">
          <path
             d="m 0,0 2.07,0.034 0.842,-4.252 0.189,-1.423 0.096,1.427 0.704,4.277 2.051,0.034 0.132,-8.119 -1.297,-0.02 -0.074,4.598 0.065,2.787 H 4.76 L 3.499,-8.063 2.726,-8.076 1.218,-0.715 H 1.199 l 0.16,-3.042 0.07,-4.34 -1.297,-0.021 z"
             style="fill:#003768;fill-opacity:1;fill-rule:nonzero;stroke:none"
             id="path76218" />
        </g>
        <g
           id="g76220"
           transform="translate(303.3928,140.4272)">
          <path
             d="m 0,0 -0.164,-2.932 c -0.058,-1.035 0.231,-1.571 0.868,-1.606 0.607,-0.034 0.939,0.466 0.996,1.501 l 0.157,2.803 C 1.877,0.125 1.839,0.497 1.741,0.881 1.642,1.265 1.409,1.471 1.043,1.499 0.73,1.523 0.486,1.405 0.309,1.145 0.131,0.885 0.028,0.503 0,0 M 3.073,-2.389 C 3.017,-3.171 2.932,-3.794 2.817,-4.256 2.702,-4.719 2.473,-5.098 2.131,-5.396 1.788,-5.694 1.29,-5.825 0.635,-5.789 c -0.993,0.056 -1.598,0.38 -1.817,0.973 -0.218,0.592 -0.31,1.435 -0.273,2.528 l 0.01,0.173 0.057,1.025 c 10e-4,0.014 0.002,0.028 0.002,0.042 10e-4,0.015 -0.003,0.059 -0.011,0.131 0.014,0.136 0.032,0.316 0.053,0.538 0.023,0.222 0.062,0.506 0.122,0.853 0.059,0.346 0.132,0.65 0.217,0.912 0.085,0.262 0.175,0.466 0.269,0.612 0.297,0.38 0.585,0.615 0.864,0.703 C 0.406,2.79 0.735,2.824 1.115,2.803 1.783,2.766 2.271,2.546 2.58,2.143 2.889,1.74 3.071,1.273 3.124,0.744 3.177,0.215 3.185,-0.395 3.146,-1.084 Z"
             style="fill:#003768;fill-opacity:1;fill-rule:nonzero;stroke:none"
             id="path76222" />
        </g>
        <g
           id="g76224"
           transform="translate(308.0124,142.7285)">
          <path
             d="m 0,0 1.345,-0.144 0.878,-4.058 0.379,-2.419 c 0.053,1.298 0.094,2.225 0.123,2.783 0.029,0.558 0.075,1.127 0.138,1.707 L 3.056,-0.328 4.346,-0.466 3.479,-8.539 2.153,-8.396 1.206,-4.288 0.87,-2.07 C 0.835,-2.855 0.798,-3.62 0.757,-4.365 0.718,-5.109 0.674,-5.708 0.625,-6.159 l -0.22,-2.05 -1.271,0.137 z"
             style="fill:#003768;fill-opacity:1;fill-rule:nonzero;stroke:none"
             id="path76226" />
        </g>
        <g
           id="g76228"
           transform="translate(317.4341,140.2818)">
          <path
             d="m 0,0 -1.473,0.23 -1.067,-6.839 -1.272,0.199 1.066,6.838 -1.49,0.233 0.184,1.184 4.236,-0.661 z"
             style="fill:#003768;fill-opacity:1;fill-rule:nonzero;stroke:none"
             id="path76230" />
        </g>
      </g>
    </g>
    <g
       id="g76232"
       transform="matrix(0.35277777,0,0,-0.35277777,126.52771,418.40286)">
      <g
         id="g76234"
         clip-path="url(#clipPath76238)">
        <g
           id="g76240"
           transform="translate(276.4578,142.4285)">
          <path
             d="m 0,0 4.425,-10.141 c 5.66,0.975 11.455,1.47 17.237,1.47 5.693,0 11.401,-0.48 16.975,-1.425 l 4.512,10.32 C 36.284,1.527 29.223,2.187 22.144,2.188 14.675,2.187 7.23,1.451 0,0 m 3.425,-12.007 -5.767,13.218 0.999,0.21 C 6.312,3.033 14.214,3.85 22.144,3.851 29.682,3.85 37.199,3.112 44.488,1.656 l 1.013,-0.202 -5.864,-13.412 -0.644,0.114 c -5.683,1.001 -11.515,1.509 -17.331,1.51 C 15.758,-10.335 9.84,-10.858 4.071,-11.89 Z"
             style="fill:#e41d38;fill-opacity:1;fill-rule:nonzero;stroke:none"
             id="path76242" />
        </g>
        <g
           id="g76244"
           transform="translate(261.6822,92.095)">
          <path
             d="m 0,0 -0.983,1.939 c 1.932,0.981 3.925,2.018 5.852,3.02 10.518,5.475 20.455,10.645 27.13,10.422 3.54,-0.119 8.442,-2.35 11.932,-4.2 4.525,-2.399 8.635,-5.169 10.973,-6.962 L 53.582,2.494 C 47.87,6.872 37.167,13.031 31.926,13.208 25.816,13.41 15.679,8.135 5.872,3.031 3.94,2.026 1.943,0.986 0,0"
             style="fill:#006838;fill-opacity:1;fill-rule:nonzero;stroke:none"
             id="path76246" />
        </g>
        <g
           id="g76248"
           transform="translate(333.9848,93.2524)">
          <path
             d="m 0,0 c -3.744,3.12 -8.646,6.495 -13.115,9.027 -5.167,2.929 -9.482,4.593 -12.149,4.685 -4.389,0.151 -8.145,-2.558 -8.182,-2.585 l -1.284,1.755 c 0.178,0.129 4.408,3.178 9.541,3.002 C -18.335,15.648 -5.519,7.43 1.393,1.67 Z"
             style="fill:#006838;fill-opacity:1;fill-rule:nonzero;stroke:none"
             id="path76250" />
        </g>
        <g
           id="g76252"
           transform="translate(301.5523,57.5626)">
          <path
             d="m 0,0 33.61,80.352 -0.9,11.481 h -6.566 l -29.83,-68.18 -29.832,68.18 h -6.883 L -41.026,80.82 -7.371,0 -3.639,-4.386 Z"
             style="fill:#003768;fill-opacity:1;fill-rule:nonzero;stroke:none"
             id="path76254" />
        </g>
        <g
           id="g76256"
           transform="translate(298.1195,83.8529)">
          <path
             d="M 0,0 C -12.763,0.003 -25.096,2.821 -36.29,8.159 V -5.457 c 11.379,-4.593 23.649,-7 36.29,-7.001 12.621,10e-4 24.872,2.4 36.235,6.979 V 8.133 C 25.055,2.812 12.742,0.003 0,0"
             style="fill:#ffffff;fill-opacity:1;fill-rule:nonzero;stroke:none"
             id="path76258" />
        </g>
        <g
           id="g76260"
           transform="translate(334.3544,90.6436)">
          <path
             d="m 0,0 v 2.692 c -11.158,-5.408 -23.478,-8.265 -36.235,-8.268 -12.778,0.003 -25.118,2.869 -36.289,8.294 V 0.024 c 11.216,-5.254 23.541,-8.027 36.289,-8.03 C -23.507,-8.003 -11.201,-5.239 0,0"
             style="fill:#e41d38;fill-opacity:1;fill-rule:nonzero;stroke:none"
             id="path76262" />
        </g>
        <g
           id="g76264"
           transform="translate(298.1197,72.6094)">
          <path
             d="M 0,0 C -12.651,0.001 -24.926,2.443 -36.29,7.1 V 4.477 C -24.897,-0.055 -12.631,-2.429 0,-2.43 v 0 c 12.611,0.001 24.857,2.367 36.235,6.885 V 7.077 C 24.886,2.435 12.631,0.001 0,0"
             style="fill:#e41d38;fill-opacity:1;fill-rule:nonzero;stroke:none"
             id="path76266" />
        </g>
        <g
           id="g76268"
           transform="translate(261.8299,121.8754)">
          <path
             d="m 0,0 v -13.616 c 11.194,5.338 23.527,8.157 36.29,8.159 12.742,-0.002 25.055,-2.812 36.234,-8.134 V 0.022 C 61.161,4.6 48.91,6.999 36.29,7 23.649,6.999 11.378,4.592 0,0"
             style="fill:#ffffff;fill-opacity:1;fill-rule:nonzero;stroke:none"
             id="path76270" />
        </g>
        <g
           id="g76272"
           transform="translate(261.8299,123.1849)">
          <path
             d="M 0,0 V -2.623 C 11.363,2.033 23.639,4.475 36.289,4.476 48.92,4.475 61.176,2.041 72.524,-2.6 V 0.022 C 61.147,4.54 48.9,6.904 36.289,6.906 23.659,6.904 11.393,4.532 0,0"
             style="fill:#e31837;fill-opacity:1;fill-rule:nonzero;stroke:none"
             id="path76274" />
        </g>
        <g
           id="g76276"
           transform="translate(298.1193,117.6334)">
          <path
             d="m 0,0 c -12.749,-0.003 -25.074,-2.775 -36.289,-8.03 v -2.692 c 11.17,5.424 23.511,8.29 36.289,8.292 12.757,-0.002 25.077,-2.861 36.235,-8.267 v 2.691 C 25.034,-2.766 12.728,-0.003 0.001,0 Z"
             style="fill:#e31837;fill-opacity:1;fill-rule:nonzero;stroke:none"
             id="path76278" />
        </g>
        <g
           id="g76280"
           transform="translate(268.2464,85.9937)">
          <path
             d="M 0,0 0.999,-0.34 -0.846,-5.761 1.036,-6.402 0.723,-7.321 -2.158,-6.34 Z"
             style="fill:#003768;fill-opacity:1;fill-rule:nonzero;stroke:none"
             id="path76282" />
        </g>
        <g
           id="g76284"
           transform="translate(271.8808,84.7916)">
          <path
             d="m 0,0 1.024,-0.311 -1.942,-6.411 -1.024,0.311 z"
             style="fill:#003768;fill-opacity:1;fill-rule:nonzero;stroke:none"
             id="path76286" />
        </g>
        <g
           id="g76288"
           transform="translate(273.9033,84.1637)">
          <path
             d="M 0,0 2.912,-0.776 2.661,-1.715 0.769,-1.21 0.328,-2.862 l 1.774,-0.474 -0.25,-0.938 -1.775,0.475 -0.781,-2.926 -1.02,0.271 z"
             style="fill:#003768;fill-opacity:1;fill-rule:nonzero;stroke:none"
             id="path76290" />
        </g>
        <g
           id="g76292"
           transform="translate(280.5447,81.56)">
          <path
             d="m 0,0 -1.201,0.265 -1.224,-5.577 -1.038,0.227 1.224,5.577 -1.216,0.268 0.213,0.965 3.454,-0.758 z"
             style="fill:#003768;fill-opacity:1;fill-rule:nonzero;stroke:none"
             id="path76294" />
        </g>
        <g
           id="g76296"
           transform="translate(283.2095,82.0741)">
          <path
             d="M 0,0 1.043,-0.155 0.352,-4.816 C 0.285,-5.262 0.311,-5.573 0.428,-5.75 c 0.117,-0.176 0.29,-0.282 0.521,-0.316 0.14,-0.021 0.266,-0.01 0.377,0.034 0.111,0.043 0.212,0.144 0.302,0.303 0.09,0.157 0.158,0.395 0.205,0.712 L 2.522,-0.375 3.581,-0.531 2.876,-5.28 C 2.771,-5.991 2.555,-6.49 2.228,-6.778 1.902,-7.066 1.42,-7.163 0.785,-7.068 c -0.606,0.091 -1.034,0.311 -1.283,0.664 -0.25,0.351 -0.319,0.904 -0.207,1.656 z"
             style="fill:#003768;fill-opacity:1;fill-rule:nonzero;stroke:none"
             id="path76298" />
        </g>
        <g
           id="g76300"
           transform="translate(288.6034,80.354)">
          <path
             d="m 0,0 -0.192,-1.923 0.635,-0.064 c 0.473,-0.046 0.748,0.31 0.824,1.073 C 1.292,-0.66 1.27,-0.462 1.2,-0.321 1.13,-0.18 0.962,-0.096 0.695,-0.069 Z M -0.952,1.088 1.208,0.873 C 1.656,0.829 1.973,0.614 2.158,0.228 2.344,-0.157 2.405,-0.61 2.345,-1.128 2.211,-2.471 1.595,-3.086 0.497,-2.977 l -0.785,0.078 -0.277,-2.783 -1.05,0.105 z"
             style="fill:#003768;fill-opacity:1;fill-rule:nonzero;stroke:none"
             id="path76302" />
        </g>
        <g
           id="g76304"
           transform="translate(296.8764,79.8476)">
          <path
             d="m 0,0 -1.229,0.041 -0.189,-5.708 -1.062,0.036 0.189,5.706 -1.244,0.041 0.032,0.989 3.536,-0.118 z"
             style="fill:#003768;fill-opacity:1;fill-rule:nonzero;stroke:none"
             id="path76306" />
        </g>
        <g
           id="g76308"
           transform="translate(297.4993,80.8221)">
          <path
             d="M 0,0 1.071,0.018 1.113,-2.645 2.593,-2.62 2.55,0.042 3.62,0.06 3.729,-6.638 2.659,-6.655 2.609,-3.591 1.129,-3.615 1.18,-6.679 0.109,-6.697 Z"
             style="fill:#003768;fill-opacity:1;fill-rule:nonzero;stroke:none"
             id="path76310" />
        </g>
        <g
           id="g76312"
           transform="translate(302.1266,80.9321)">
          <path
             d="M 0,0 1.069,0.054 1.406,-6.636 0.337,-6.69 Z"
             style="fill:#003768;fill-opacity:1;fill-rule:nonzero;stroke:none"
             id="path76314" />
        </g>
        <g
           id="g76316"
           transform="translate(304.179,81.0305)">
          <path
             d="M 0,0 1.112,0.097 2.47,-3.046 3.162,-4.945 c -0.164,1.06 -0.279,1.817 -0.344,2.272 -0.066,0.457 -0.119,0.925 -0.161,1.404 L 2.526,0.221 3.592,0.316 4.178,-6.357 3.081,-6.454 1.66,-3.279 1.034,-1.537 c 0.097,-0.641 0.189,-1.266 0.275,-1.876 0.087,-0.609 0.147,-1.1 0.18,-1.473 L 1.637,-6.581 0.586,-6.673 Z"
             style="fill:#003768;fill-opacity:1;fill-rule:nonzero;stroke:none"
             id="path76318" />
        </g>
        <g
           id="g76320"
           transform="translate(308.6581,81.4538)">
          <path
             d="m 0,0 2.971,0.399 0.132,-0.98 -1.91,-0.257 0.225,-1.676 1.753,0.235 0.13,-0.963 -1.753,-0.235 0.277,-2.057 1.911,0.256 0.129,-0.961 -2.971,-0.399 z"
             style="fill:#003768;fill-opacity:1;fill-rule:nonzero;stroke:none"
             id="path76322" />
        </g>
        <g
           id="g76324"
           transform="translate(314.2907,82.3055)">
          <path
             d="M 0,0 2.94,0.59 3.136,-0.38 1.244,-0.758 1.578,-2.418 3.312,-2.07 3.504,-3.022 1.77,-3.37 2.178,-5.404 4.068,-5.025 4.26,-5.977 1.32,-6.568 Z"
             style="fill:#003768;fill-opacity:1;fill-rule:nonzero;stroke:none"
             id="path76326" />
        </g>
        <g
           id="g76328"
           transform="translate(320.3562,80.7709)">
          <path
             d="m 0,0 c -0.027,0.275 -0.026,0.565 0.001,0.872 l 0.161,2.051 1.119,0.281 -0.514,-4.115 0.687,-2.748 -1.038,-0.259 -0.687,2.749 -2.374,3.392 1.121,0.28 1.12,-1.732 c 0.128,-0.201 0.258,-0.458 0.39,-0.775 z"
             style="fill:#003768;fill-opacity:1;fill-rule:nonzero;stroke:none"
             id="path76330" />
        </g>
        <g
           id="g76332"
           transform="translate(322.2093,84.1445)">
          <path
             d="M 0,0 2.872,0.861 3.155,-0.087 1.308,-0.639 1.793,-2.261 3.487,-1.753 3.766,-2.684 2.072,-3.191 2.666,-5.179 4.514,-4.627 4.792,-5.557 1.919,-6.416 Z"
             style="fill:#003768;fill-opacity:1;fill-rule:nonzero;stroke:none"
             id="path76334" />
        </g>
        <g
           id="g76336"
           transform="translate(328.5382,84.032)">
          <path
             d="M 0,0 C -0.26,0.746 -0.591,1.049 -0.991,0.909 -1.139,0.858 -1.249,0.757 -1.321,0.61 -1.393,0.463 -1.399,0.295 -1.339,0.109 c 0.123,-0.291 0.329,-0.49 0.618,-0.596 0.344,-0.113 0.698,-0.23 1.059,-0.353 0.362,-0.122 0.681,-0.273 0.957,-0.453 0.278,-0.18 0.484,-0.417 0.618,-0.708 0.314,-0.685 0.389,-1.251 0.228,-1.7 -0.163,-0.45 -0.463,-0.767 -0.903,-0.951 -0.56,-0.222 -1.056,-0.251 -1.487,-0.091 -0.433,0.161 -0.783,0.623 -1.054,1.384 -0.047,0.196 -0.088,0.343 -0.122,0.438 l 1.004,0.351 c 0.021,-0.057 0.034,-0.099 0.041,-0.128 0.008,-0.03 0.018,-0.068 0.032,-0.117 0.014,-0.048 0.027,-0.096 0.039,-0.142 0.239,-0.689 0.581,-0.97 1.024,-0.84 0.114,0.058 0.203,0.114 0.27,0.169 0.071,0.056 0.115,0.161 0.131,0.315 0.017,0.153 -0.002,0.309 -0.057,0.465 -0.125,0.359 -0.397,0.614 -0.813,0.765 -0.302,0.096 -0.595,0.194 -0.879,0.296 -0.285,0.103 -0.531,0.208 -0.734,0.315 -0.203,0.107 -0.396,0.262 -0.579,0.463 -0.183,0.201 -0.32,0.454 -0.411,0.762 -0.299,0.996 -0.004,1.678 0.886,2.045 1.122,0.443 1.906,0.021 2.355,-1.262 l 0.07,-0.203 z"
             style="fill:#003768;fill-opacity:1;fill-rule:nonzero;stroke:none"
             id="path76338" />
        </g>
        <g
           id="g76340"
           transform="translate(266.9632,118.5759)">
          <path
             d="M 0,0 C -0.266,0.743 -0.599,1.044 -1,0.9 -1.147,0.848 -1.257,0.747 -1.327,0.599 -1.398,0.45 -1.402,0.283 -1.341,0.097 c 0.125,-0.29 0.333,-0.486 0.623,-0.591 0.345,-0.11 0.699,-0.223 1.062,-0.344 C 0.706,-0.957 1.027,-1.106 1.306,-1.283 1.584,-1.46 1.792,-1.696 1.928,-1.987 2.247,-2.668 2.327,-3.234 2.169,-3.684 2.01,-4.136 1.712,-4.455 1.275,-4.643 0.715,-4.869 0.22,-4.903 -0.213,-4.746 -0.645,-4.588 -1,-4.129 -1.277,-3.371 c -0.049,0.197 -0.09,0.343 -0.124,0.439 l 1,0.356 c 0.02,-0.055 0.034,-0.098 0.042,-0.126 0.007,-0.03 0.018,-0.068 0.033,-0.117 0.014,-0.047 0.028,-0.094 0.039,-0.142 0.246,-0.688 0.59,-0.965 1.031,-0.832 0.113,0.06 0.203,0.118 0.269,0.173 0.071,0.056 0.114,0.161 0.129,0.315 0.015,0.154 -0.005,0.309 -0.061,0.466 -0.129,0.357 -0.402,0.609 -0.82,0.756 -0.302,0.094 -0.596,0.19 -0.881,0.29 -0.286,0.1 -0.531,0.203 -0.736,0.31 -0.205,0.106 -0.399,0.259 -0.583,0.457 -0.184,0.2 -0.323,0.453 -0.417,0.76 -0.307,0.994 -0.017,1.678 0.87,2.053 1.118,0.45 1.906,0.034 2.364,-1.246 L 0.95,0.34 Z"
             style="fill:#003768;fill-opacity:1;fill-rule:nonzero;stroke:none"
             id="path76342" />
        </g>
        <g
           id="g76344"
           transform="translate(268.1377,121.1375)">
          <path
             d="M 0,0 2.863,0.891 3.157,-0.052 1.316,-0.625 1.82,-2.242 3.509,-1.716 3.797,-2.642 2.108,-3.169 2.726,-5.15 4.566,-4.577 4.855,-5.504 1.993,-6.395 Z"
             style="fill:#003768;fill-opacity:1;fill-rule:nonzero;stroke:none"
             id="path76346" />
        </g>
        <g
           id="g76348"
           transform="translate(274.4919,120.8203)">
          <path
             d="M 0,0 C -0.216,0.753 -0.493,1.104 -0.83,1.05 -1.333,0.972 -1.471,0.51 -1.247,-0.332 l 0.592,-2.222 c 0.13,-0.487 0.281,-0.83 0.451,-1.027 0.17,-0.198 0.365,-0.267 0.586,-0.208 0.239,0.064 0.369,0.221 0.389,0.472 0.019,0.252 -0.042,0.64 -0.183,1.169 l 1.034,0.276 C 1.724,-2.312 1.794,-2.697 1.831,-3.024 1.869,-3.353 1.814,-3.691 1.666,-4.037 1.517,-4.384 1.205,-4.62 0.731,-4.747 0.283,-4.872 -0.097,-4.881 -0.408,-4.774 c -0.312,0.108 -0.577,0.344 -0.794,0.71 -0.219,0.366 -0.417,0.882 -0.594,1.547 l -0.291,1.094 c -0.198,0.74 -0.299,1.333 -0.306,1.78 -0.006,0.447 0.087,0.799 0.28,1.056 0.194,0.257 0.506,0.45 0.938,0.578 C -0.578,2.169 -0.109,2.1 0.232,1.785 0.572,1.469 0.835,0.966 1.02,0.271 Z"
             style="fill:#003768;fill-opacity:1;fill-rule:nonzero;stroke:none"
             id="path76350" />
        </g>
        <g
           id="g76352"
           transform="translate(277.3067,121.4469)">
          <path
             d="m 0,0 0.515,-2.367 c 0.181,-0.835 0.529,-1.197 1.044,-1.086 0.489,0.106 0.643,0.577 0.462,1.413 L 1.528,0.224 C 1.465,0.514 1.353,0.801 1.19,1.084 1.027,1.368 0.797,1.481 0.499,1.421 0.246,1.372 0.077,1.225 -0.007,0.978 -0.091,0.733 -0.088,0.407 0,0 M 2.969,-1.223 C 3.097,-1.858 3.166,-2.371 3.176,-2.764 3.187,-3.156 3.088,-3.509 2.882,-3.821 2.675,-4.133 2.307,-4.348 1.778,-4.463 0.977,-4.637 0.424,-4.513 0.12,-4.09 c -0.304,0.424 -0.562,1.074 -0.774,1.952 l -0.03,0.139 -0.18,0.828 c -0.002,0.011 -0.005,0.023 -0.007,0.034 -0.003,0.012 -0.015,0.045 -0.038,0.101 -0.019,0.111 -0.044,0.257 -0.076,0.439 -0.031,0.181 -0.062,0.417 -0.091,0.706 -0.029,0.287 -0.038,0.546 -0.028,0.772 0.01,0.228 0.036,0.409 0.079,0.546 0.154,0.368 0.331,0.618 0.533,0.75 0.201,0.131 0.455,0.231 0.762,0.298 C 0.809,2.592 1.246,2.524 1.58,2.271 1.915,2.019 2.162,1.688 2.32,1.28 2.479,0.871 2.619,0.387 2.741,-0.17 Z"
             style="fill:#003768;fill-opacity:1;fill-rule:nonzero;stroke:none"
             id="path76354" />
        </g>
        <g
           id="g76356"
           transform="translate(280.377,124.277)">
          <path
             d="m 0,0 1.101,0.183 1.598,-3.028 0.839,-1.838 c -0.247,1.042 -0.42,1.788 -0.521,2.238 -0.101,0.45 -0.19,0.912 -0.27,1.386 L 2.501,0.417 3.556,0.593 4.66,-6.013 3.574,-6.195 1.91,-3.14 1.15,-1.451 C 1.297,-2.083 1.437,-2.7 1.571,-3.301 1.705,-3.902 1.802,-4.386 1.864,-4.756 l 0.28,-1.678 -1.04,-0.174 z"
             style="fill:#003768;fill-opacity:1;fill-rule:nonzero;stroke:none"
             id="path76358" />
        </g>
        <g
           id="g76360"
           transform="translate(286.1463,124.1619)">
          <path
             d="m 0,0 0.556,-4.707 0.557,0.066 c 0.282,0.033 0.477,0.151 0.585,0.352 0.109,0.201 0.16,0.467 0.155,0.798 C 1.847,-3.16 1.803,-2.695 1.722,-2.093 1.614,-1.264 1.494,-0.684 1.36,-0.356 1.227,-0.028 1.02,0.12 0.738,0.087 Z m -1.179,0.856 2.036,0.24 C 1.439,1.165 1.889,0.957 2.207,0.471 2.524,-0.015 2.732,-0.875 2.832,-2.106 2.874,-2.64 2.899,-3.076 2.906,-3.416 2.913,-3.756 2.888,-4.083 2.831,-4.398 2.774,-4.713 2.652,-4.973 2.465,-5.181 2.278,-5.389 2.008,-5.513 1.657,-5.554 l -2.051,-0.243 z"
             style="fill:#003768;fill-opacity:1;fill-rule:nonzero;stroke:none"
             id="path76362" />
        </g>
        <g
           id="g76364"
           transform="translate(291.811,121.6644)">
          <path
             d="M 0,0 -0.503,2.214 -0.668,3.229 -0.683,3.228 -0.692,2.201 -0.916,-0.067 Z M -1.426,3.925 0.02,4.03 1.776,-2.559 0.633,-2.642 l -0.387,1.66 -1.241,-0.091 -0.173,-1.7 -1.121,-0.081 z"
             style="fill:#003768;fill-opacity:1;fill-rule:nonzero;stroke:none"
             id="path76366" />
        </g>
        <g
           id="g76368"
           transform="translate(295.6815,124.8742)">
          <path
             d="m 0,0 -0.774,-0.019 0.047,-1.844 0.744,0.019 c 0.232,0.006 0.406,0.097 0.52,0.272 0.115,0.176 0.169,0.395 0.162,0.663 C 0.69,-0.582 0.635,-0.348 0.533,-0.205 0.431,-0.061 0.253,0.006 0,0 M -1.869,0.941 0.195,0.994 C 1.207,1.021 1.743,0.517 1.805,-0.515 1.833,-0.995 1.771,-1.389 1.623,-1.696 1.473,-2.003 1.248,-2.178 0.945,-2.221 c 0.219,-0.025 0.39,-0.091 0.514,-0.201 0.124,-0.11 0.21,-0.237 0.256,-0.381 0.047,-0.145 0.077,-0.292 0.088,-0.443 0.011,-0.152 0.019,-0.324 0.024,-0.52 0.022,-0.458 0.055,-0.867 0.1,-1.228 0.045,-0.362 0.115,-0.541 0.211,-0.538 L 2.142,-5.656 0.912,-5.688 C 0.888,-5.522 0.867,-5.285 0.849,-4.977 0.831,-4.669 0.804,-4.42 0.769,-4.23 l -0.012,0.454 c -0.008,0.321 -0.068,0.558 -0.181,0.712 -0.113,0.155 -0.351,0.228 -0.716,0.219 l -0.561,-0.016 0.073,-2.867 -1.07,-0.027 z"
             style="fill:#003768;fill-opacity:1;fill-rule:nonzero;stroke:none"
             id="path76370" />
        </g>
        <g
           id="g76372"
           transform="translate(299.9325,123.08)">
          <path
             d="m 0,0 c 0.046,0.271 0.122,0.552 0.229,0.841 l 0.69,1.938 1.154,-0.022 -1.57,-3.836 -0.054,-2.833 -1.07,0.022 0.054,2.831 -1.406,3.894 1.154,-0.023 0.631,-1.963 C -0.117,0.623 -0.059,0.339 -0.015,0 Z"
             style="fill:#003768;fill-opacity:1;fill-rule:nonzero;stroke:none"
             id="path76374" />
        </g>
        <g
           id="g76376"
           transform="translate(306.3755,123.4534)">
          <path
             d="m 0,0 c 0.047,0.783 -0.097,1.206 -0.432,1.267 -0.5,0.095 -0.785,-0.294 -0.855,-1.163 l -0.182,-2.292 c -0.04,-0.503 -0.013,-0.876 0.082,-1.119 0.095,-0.243 0.256,-0.373 0.483,-0.391 0.247,-0.02 0.422,0.085 0.524,0.315 0.102,0.231 0.175,0.618 0.218,1.162 L 0.905,-2.306 C 0.854,-2.755 0.792,-3.14 0.718,-3.462 0.644,-3.783 0.479,-4.083 0.224,-4.361 c -0.256,-0.277 -0.629,-0.396 -1.118,-0.357 -0.464,0.031 -0.826,0.149 -1.083,0.355 -0.258,0.204 -0.428,0.516 -0.512,0.933 -0.084,0.418 -0.098,0.971 -0.044,1.658 l 0.09,1.126 c 0.061,0.765 0.163,1.358 0.306,1.782 0.143,0.423 0.348,0.723 0.616,0.902 0.268,0.178 0.627,0.255 1.077,0.232 C 0.178,2.238 0.597,2.017 0.813,1.606 1.029,1.196 1.109,0.633 1.052,-0.083 Z"
             style="fill:#003768;fill-opacity:1;fill-rule:nonzero;stroke:none"
             id="path76378" />
        </g>
        <g
           id="g76380"
           transform="translate(309.2409,123.1082)">
          <path
             d="m 0,0 -0.303,-2.404 c -0.107,-0.848 0.1,-1.306 0.623,-1.371 0.497,-0.064 0.799,0.33 0.906,1.178 l 0.289,2.298 C 1.553,-0.005 1.541,0.303 1.483,0.625 1.424,0.946 1.244,1.129 0.943,1.174 0.688,1.211 0.48,1.129 0.319,0.925 0.158,0.72 0.052,0.412 0,0 M 2.392,-2.143 C 2.301,-2.784 2.195,-3.292 2.074,-3.665 1.953,-4.039 1.743,-4.338 1.444,-4.564 1.145,-4.789 0.728,-4.869 0.191,-4.801 c -0.814,0.103 -1.294,0.403 -1.44,0.904 -0.146,0.5 -0.172,1.2 -0.08,2.098 l 0.018,0.142 0.106,0.839 c 0.001,0.011 0.003,0.023 0.004,0.035 0.002,0.012 0.001,0.048 -10e-4,0.108 0.019,0.111 0.044,0.258 0.074,0.44 0.03,0.181 0.08,0.413 0.149,0.694 0.069,0.281 0.146,0.528 0.231,0.739 0.085,0.211 0.17,0.374 0.257,0.489 C -0.225,1.982 0.026,2.159 0.26,2.215 0.494,2.273 0.767,2.281 1.078,2.243 1.626,2.174 2.015,1.964 2.247,1.615 2.478,1.266 2.6,0.871 2.614,0.434 2.627,-0.005 2.598,-0.508 2.527,-1.074 Z"
             style="fill:#003768;fill-opacity:1;fill-rule:nonzero;stroke:none"
             id="path76382" />
        </g>
        <g
           id="g76384"
           transform="translate(313.0386,124.7527)">
          <path
             d="m 0,0 1.04,-0.178 -0.963,-5.646 1.96,-0.334 -0.163,-0.957 -3,0.511 z"
             style="fill:#003768;fill-opacity:1;fill-rule:nonzero;stroke:none"
             id="path76386" />
        </g>
        <g
           id="g76388"
           transform="translate(316.7691,124.0954)">
          <path
             d="m 0,0 1.032,-0.217 -1.185,-5.604 1.945,-0.412 -0.201,-0.95 -2.979,0.63 z"
             style="fill:#003768;fill-opacity:1;fill-rule:nonzero;stroke:none"
             id="path76390" />
        </g>
        <g
           id="g76392"
           transform="translate(320.4547,123.2961)">
          <path
             d="M 0,0 2.907,-0.737 2.664,-1.696 0.795,-1.221 0.379,-2.862 2.093,-3.297 1.854,-4.238 0.141,-3.803 -0.37,-5.815 1.499,-6.289 1.261,-7.231 -1.646,-6.494 Z"
             style="fill:#003768;fill-opacity:1;fill-rule:nonzero;stroke:none"
             id="path76394" />
        </g>
        <g
           id="g76396"
           transform="translate(326.9576,119.3062)">
          <path
             d="m 0,0 -1.026,0.308 c 0.133,0.438 0.173,0.76 0.121,0.964 C -0.958,1.477 -1.119,1.62 -1.391,1.701 -1.587,1.767 -1.76,1.757 -1.907,1.67 -2.055,1.584 -2.179,1.437 -2.281,1.23 -2.384,1.022 -2.482,0.758 -2.578,0.44 l -0.505,-1.68 c -0.103,-0.342 -0.173,-0.631 -0.21,-0.868 -0.037,-0.236 -0.023,-0.438 0.045,-0.603 0.065,-0.166 0.208,-0.281 0.426,-0.348 0.5,-0.15 0.909,0.307 1.229,1.371 l 0.025,0.086 -0.704,0.211 0.278,0.929 1.687,-0.506 -1.031,-3.43 -0.749,0.225 0.226,0.751 C -2.234,-3.978 -2.707,-4.172 -3.279,-4 c -0.073,0.022 -0.184,0.068 -0.331,0.137 -0.303,0.171 -0.517,0.378 -0.642,0.621 -0.125,0.242 -0.171,0.579 -0.136,1.013 0.035,0.432 0.154,0.978 0.357,1.636 l 0.206,0.683 c 0.226,0.718 0.434,1.273 0.619,1.665 0.187,0.39 0.445,0.685 0.777,0.886 0.333,0.201 0.764,0.222 1.292,0.062 C -0.371,2.473 0.056,2.119 0.145,1.639 0.233,1.161 0.184,0.614 0,0"
             style="fill:#003768;fill-opacity:1;fill-rule:nonzero;stroke:none"
             id="path76398" />
        </g>
        <g
           id="g76400"
           transform="translate(328.4832,121.0109)">
          <path
             d="m 0,0 2.83,-0.989 -0.326,-0.932 -1.82,0.635 -0.557,-1.598 1.67,-0.583 -0.321,-0.917 -1.669,0.583 -0.684,-1.959 1.82,-0.635 -0.32,-0.917 -2.832,0.988 z"
             style="fill:#003768;fill-opacity:1;fill-rule:nonzero;stroke:none"
             id="path76402" />
        </g>
        <g
           id="g76404"
           transform="translate(262.8469,81.2326)">
          <path
             d="m 0,0 c 0.201,-8.85 9.821,-12.652 19.125,-16.328 4.251,-1.679 8.267,-3.266 11.399,-5.321 1.844,-1.209 3.245,-2.508 4.216,-3.918 0.974,1.408 2.377,2.706 4.223,3.915 3.138,2.054 7.159,3.638 11.416,5.317 9.324,3.677 18.965,7.478 19.098,16.329 V 67.261 H 0 Z m 35.13,-32.832 c -2.068,7.557 -9.543,10.376 -17.227,13.412 -9.839,3.889 -20.992,8.294 -21.228,19.366 v 0.036 70.604 H 72.802 V -0.042 C 72.644,-11.13 61.464,-15.538 51.599,-19.428 43.902,-22.463 37.348,-25.403 35.13,-32.832"
             style="fill:#003768;fill-opacity:1;fill-rule:nonzero;stroke:none"
             id="path76406" />
        </g>
      </g>
    </g>
  </g>
</svg>
