<?xml version="1.0" encoding="UTF-8" standalone="no"?>
<svg
   width="23.400597mm"
   height="24.764999mm"
   viewBox="0 0 23.400596 24.764998"
   version="1.1"
   id="svg67976"
   xmlns="http://www.w3.org/2000/svg"
   xmlns:svg="http://www.w3.org/2000/svg"
   xmlns:rdf="http://www.w3.org/1999/02/22-rdf-syntax-ns#"
   xmlns:cc="http://creativecommons.org/ns#"
   xmlns:dc="http://purl.org/dc/elements/1.1/">
  <defs
     id="defs67970" />
  <metadata
     id="metadata67973">
    <rdf:RDF>
      <cc:Work
         rdf:about="">
        <dc:format>image/svg+xml</dc:format>
        <dc:type
           rdf:resource="http://purl.org/dc/dcmitype/StillImage" />
        <dc:title />
      </cc:Work>
    </rdf:RDF>
  </metadata>
  <g
     id="layer1"
     transform="translate(1131.1676,274.79403)">
    <g
       id="g184847">
      <g
         transform="matrix(0.35277777,0,0,-0.35277777,-1233.5405,-226.48182)"
         id="g184716">
        <g
           transform="matrix(0,-0.58,0.65643,0,0,0)"
           id="g184718">
          <text
             id="text184722"
             style="font-variant:normal;font-weight:normal;font-size:17.4151px;font-family:'Times New Roman';-inkscape-font-specification:TimesNewRomanPSMT;writing-mode:lr-tb;fill:#002469;fill-opacity:1;fill-rule:nonzero;stroke:#002469;stroke-width:0.3716;stroke-linecap:butt;stroke-linejoin:miter;stroke-miterlimit:22.9256;stroke-dasharray:none;stroke-opacity:1"
             transform="matrix(0,0.58001276,1,0,-202.771,466.2194)"
             y="0"><tspan
               id="tspan184720"
               y="0"
               x="0 14.50675 24.839798 37.413525 48.054173 59.670067 70.310715 80.951363">WAVERLEY</tspan></text>
        </g>
        <g
           transform="scale(1.77645,1.78687)"
           id="g184724">
          <path
             id="path184726"
             style="fill:none;stroke:#002469;stroke-width:0.5939;stroke-linecap:butt;stroke-linejoin:miter;stroke-miterlimit:22.9256;stroke-dasharray:none;stroke-opacity:1"
             d="m 194.1951,63.4958 c 0,-3.2355 0,-6.4707 0,-9.7064 -0.5157,-3.2533 -2.2145,-6.5024 -4.6996,-9.1128 m -2.7615,-2.3947 c -1.4604,-1.0378 -3.0793,-1.8695 -4.8081,-2.42 -1.6912,0.6299 -3.2497,1.4267 -4.6574,2.4126 m -2.6719,2.2958 c -2.2068,2.3207 -3.858,5.3399 -4.8416,9.1947 v 10.597 m 0,0.7447 v 5.7322 h 24.4401 c 0,-1.7759 0,-3.5518 0,-5.3283" />
        </g>
        <path
           id="path184728"
           style="fill:#002469;fill-opacity:1;fill-rule:evenodd;stroke:none"
           d="m 312.7708,128.7638 h 21.1839 l 3.7848,7.9078 h -3.6442 c 0.629,-0.4204 0.9133,-0.9139 0.8413,-1.6013 l -2.8627,1.7473 0.009,-4.5244 2.5486,1.1648 c -1.5993,-3.8084 -8.0484,-3.6891 -10.093,0.098 l 2.9112,-1.1667 v 4.449 l -3.2945,-2.0055 0.4598,1.0573 0.4598,1.0579 c -1.0009,0 -2.4231,0 -3.4243,0 l 0.919,-2.1152 -3.2941,2.0055 v -4.449 l 2.9115,1.1667 c -2.0444,-3.7871 -8.4935,-3.9064 -10.0928,-0.098 l 2.5481,-1.1648 0.009,4.5244 -2.8624,-1.7473 c -0.072,0.6874 0.212,1.1809 0.8411,1.6013 h -3.644 l 3.7848,-7.9078 z" />
        <path
           id="path184730"
           style="fill:#002469;fill-opacity:1;fill-rule:evenodd;stroke:none"
           d="m 290.1909,70.9401 10.4482,8.1318 2.6436,-4.0377 0.002,-1.9888 -7.8877,-6.2974 1.3901,5.3413 z m 7.541,5.1259 2.5118,1.9392 2.4812,-3.1346 v -1.5338 l -1.8088,-1.3958 z" />
        <path
           id="path184732"
           style="fill:#002469;fill-opacity:1;fill-rule:evenodd;stroke:none"
           d="m 295.0251,118.1412 c 0.9244,0 1.6739,-1.2523 1.6739,-2.7963 0,-1.5455 -0.7495,-2.7978 -1.6739,-2.7978 -0.9241,0 -1.6739,1.2523 -1.6739,2.7978 0,1.544 0.7498,2.7963 1.6739,2.7963 z m -0.2205,-0.7157 c 0.4819,0 0.8719,-0.6058 0.8719,-1.3519 0,-0.7469 -0.39,-1.3527 -0.8719,-1.3527 -0.4819,0 -0.8728,0.6058 -0.8728,1.3527 0,0.7461 0.3909,1.3519 0.8728,1.3519" />
        <path
           id="path184734"
           style="fill:#002469;fill-opacity:1;fill-rule:evenodd;stroke:none"
           d="m 320.4108,105.2289 -0.009,7.2754 h 6.321 l -0.005,-7.255 8.4044,0.005 V 99.331 l -8.4463,-0.0363 0.003,-17.248 h -6.2768 l -0.0178,17.2026 -8.6905,-0.007 v 5.9677 l 8.7177,0.0188 z m 11.2904,-0.4468 0.6057,-1.4488 1.4837,0.4181 -0.7277,-1.3889 1.2436,-0.927 -1.5137,-0.2832 0.068,-1.5746 -1.1596,1.0358 -1.1597,-1.0358 0.068,1.5746 -1.5137,0.2832 1.2439,0.927 -0.7282,1.3889 1.4839,-0.4181 z m -7.5855,-5.883 0.3262,-0.752 0.7985,-0.0851 -0.5967,-0.5502 0.1673,-0.8047 -0.6953,0.4118 -0.6951,-0.4118 0.1672,0.8047 -0.5972,0.5502 0.7991,0.0851 z m -0.7424,-11.0421 0.6057,-1.4482 1.484,0.4172 -0.728,-1.3881 1.2436,-0.9278 -1.5132,-0.2829 0.0675,-1.574 -1.1596,1.0357 -1.1597,-1.0357 0.0675,1.574 -1.5132,0.2829 1.2439,0.9278 -0.7277,1.3881 1.4834,-0.4172 z m 0,24.1166 0.6057,-1.4488 1.484,0.4178 -0.728,-1.3884 1.2436,-0.9275 -1.5132,-0.2829 0.0675,-1.5746 -1.1596,1.0358 -1.1597,-1.0358 0.0675,1.5746 -1.5132,0.2829 1.2439,0.9275 -0.7277,1.3884 1.4834,-0.4178 z m -7.8602,-7.1915 0.606,-1.4488 1.4828,0.4181 -0.7276,-1.3889 1.2438,-0.927 -1.5131,-0.2832 0.0674,-1.5746 -1.1593,1.0358 -1.1602,-1.0358 0.068,1.5746 -1.5137,0.2832 1.2444,0.927 -0.7282,1.3889 1.4839,-0.4181 z" />
        <path
           id="path184736"
           style="fill:#002469;fill-opacity:1;fill-rule:evenodd;stroke:none"
           d="m 297.0748,116.8931 c 0.5709,0 1.0333,-0.7168 1.0333,-1.6018 0,-0.8847 -0.4624,-1.6022 -1.0333,-1.6022 -0.5706,0 -1.0332,0.7175 -1.0332,1.6022 0,0.885 0.4626,1.6018 1.0332,1.6018 z m -0.1879,-0.4549 c 0.271,0 0.4915,-0.3416 0.4915,-0.7614 0,-0.4215 -0.2205,-0.762 -0.4915,-0.762 -0.2713,0 -0.4912,0.3405 -0.4912,0.762 0,0.4198 0.2199,0.7614 0.4912,0.7614" />
        <path
           id="path184738"
           style="fill:#002469;fill-opacity:1;fill-rule:evenodd;stroke:none"
           d="m 356.523,70.9401 -10.4482,8.1318 -2.6436,-4.0377 -0.002,-1.9888 7.888,-6.2974 -1.3904,5.3413 6.5965,-1.1492 z m -7.541,5.1259 -2.512,1.9392 -2.4812,-3.1346 v -1.5338 l 1.8091,-1.3958 z" />
        <g
           transform="scale(0.24017)"
           id="g184740">
          <path
             id="path184742"
             style="fill:none;stroke:#002469;stroke-width:4.4031;stroke-linecap:butt;stroke-linejoin:miter;stroke-miterlimit:22.9256;stroke-dasharray:none;stroke-opacity:1"
             d="m 1444.0431,469.1645 v -70.2638 c -3.7075,-23.4011 -15.0449,-46.7694 -31.7152,-66.4458 m -18.364,-18.3095 c -14.1052,-11.871 -30.4897,-21.2933 -48.3437,-26.9762 -17.5011,6.5151 -33.2235,15.262 -46.8686,26.6139 m -18.4689,18.5397 c -14.4498,17.5093 -25.4145,39.3914 -32.305,66.3809 v 79.6269 m 0,2.7536 v 2.2518 52.3403 h 196.0654 V 483.336" />
        </g>
        <path
           id="path184744"
           style="fill:#002469;fill-opacity:1;fill-rule:evenodd;stroke:none"
           d="m 300.3165,80.3137 h 46.0421 v -5.3994 h -46.0421 z m 6.4001,-3.9773 v -0.0717 h -1.7147 v 0.0717 h 0.1089 c 0.0949,0 0.1718,0.0139 0.2296,0.0411 0.0419,0.0182 0.0742,0.0494 0.0964,0.0939 0.0184,0.0306 0.0275,0.1125 0.0275,0.2455 v 1.7373 c 0,0.1352 -0.009,0.2194 -0.0275,0.2534 -0.0173,0.034 -0.0528,0.0632 -0.1072,0.0885 -0.0536,0.0252 -0.1273,0.0379 -0.2188,0.0379 h -0.1089 v 0.0723 h 1.7147 V 78.834 h -0.1091 c -0.095,0 -0.1715,-0.0133 -0.2294,-0.0405 -0.0422,-0.0187 -0.0751,-0.0493 -0.0992,-0.0938 -0.0173,-0.0312 -0.0263,-0.1131 -0.0263,-0.2455 v -1.7373 c 0,-0.135 0.009,-0.2195 0.0272,-0.2535 0.019,-0.034 0.0553,-0.0632 0.1091,-0.0884 0.0544,-0.0258 0.127,-0.0386 0.2186,-0.0386 z m 1.3473,2.5699 1.618,-1.6381 v 1.1355 c 0,0.1582 -0.0278,0.2654 -0.0842,0.3212 -0.0776,0.0751 -0.2072,0.1117 -0.3897,0.1091 v 0.0723 h 1.0834 V 78.834 c -0.1389,-0.0141 -0.2313,-0.0326 -0.279,-0.0552 -0.0481,-0.0227 -0.085,-0.0598 -0.1116,-0.1111 -0.0264,-0.0511 -0.0397,-0.1395 -0.0397,-0.264 v -2.1996 h -0.0825 l -2.2176,2.1996 v -1.6795 c 0,-0.1516 0.0431,-0.254 0.1296,-0.3073 0.0859,-0.0538 0.1851,-0.0805 0.2956,-0.0805 h 0.0777 v -0.0717 h -1.1633 v 0.0717 c 0.1808,0.0015 0.3064,0.0312 0.3773,0.0899 0.0711,0.0584 0.1065,0.1576 0.1065,0.2979 v 1.8644 l -0.07,0.0705 c -0.0694,0.0698 -0.1307,0.1157 -0.1842,0.1384 -0.053,0.0218 -0.1296,0.0337 -0.2296,0.0365 v 0.0723 z m 4.9371,-1.3717 v -0.8177 c 0,-0.135 0.009,-0.2195 0.0272,-0.2535 0.019,-0.034 0.0553,-0.0632 0.1089,-0.0884 0.0544,-0.0258 0.1272,-0.0386 0.2188,-0.0386 h 0.1089 v -0.0717 h -1.7147 v 0.0717 h 0.1091 c 0.0947,0 0.1715,0.0139 0.2293,0.0411 0.0423,0.0182 0.0743,0.0494 0.0967,0.0939 0.0181,0.0306 0.0272,0.1125 0.0272,0.2455 v 1.7373 c 0,0.1352 -0.009,0.2194 -0.0272,0.2534 -0.0173,0.034 -0.0536,0.0632 -0.1074,0.0885 -0.0536,0.0252 -0.127,0.0379 -0.2186,0.0379 h -0.1091 v 0.0723 h 1.7147 V 78.834 h -0.1089 c -0.095,0 -0.1718,-0.0133 -0.2296,-0.0405 -0.042,-0.0187 -0.0751,-0.0493 -0.0989,-0.0938 -0.0182,-0.0312 -0.0264,-0.1131 -0.0264,-0.2455 v -0.7481 h 1.1582 v 0.7481 c 0,0.1352 -0.009,0.2194 -0.0263,0.2534 -0.0182,0.034 -0.0547,0.0632 -0.1092,0.0885 -0.0552,0.0252 -0.1278,0.0379 -0.2202,0.0379 h -0.1066 v 0.0723 h 1.713 V 78.834 h -0.1063 c -0.0967,0 -0.1735,-0.0133 -0.2305,-0.0405 -0.0414,-0.0187 -0.0742,-0.0493 -0.0992,-0.0938 -0.0173,-0.0312 -0.0263,-0.1131 -0.0263,-0.2455 v -1.7373 c 0,-0.135 0.009,-0.2195 0.0263,-0.2535 0.0182,-0.034 0.0547,-0.0632 0.1092,-0.0884 0.0552,-0.0258 0.1278,-0.0386 0.2205,-0.0386 h 0.1063 v -0.0717 h -1.713 v 0.0717 h 0.1066 c 0.0964,0 0.1732,0.0139 0.2302,0.0411 0.0414,0.0182 0.0742,0.0494 0.0992,0.0939 0.0173,0.0306 0.0263,0.1125 0.0263,0.2455 v 0.8177 z m 4.411,1.4083 c 0.5227,0.0162 0.9468,-0.1069 1.2739,-0.3677 0.326,-0.2613 0.4895,-0.5876 0.4895,-0.9799 0,-0.3353 -0.1213,-0.6299 -0.3648,-0.8844 -0.3229,-0.3379 -0.7787,-0.5068 -1.3671,-0.5068 -0.5896,0 -1.046,0.161 -1.3689,0.4836 -0.2545,0.2545 -0.3824,0.5564 -0.3824,0.9056 0,0.3921 0.1661,0.7195 0.4969,0.9805 0.332,0.2622 0.739,0.3853 1.2229,0.3691 z m 0.0298,-0.1242 c -0.3005,0 -0.5284,-0.1236 -0.6855,-0.3704 -0.1269,-0.2022 -0.1907,-0.4933 -0.1907,-0.8723 0,-0.451 0.0983,-0.784 0.2948,-0.9995 0.1372,-0.1511 0.3294,-0.2262 0.5763,-0.2262 0.1661,0 0.3047,0.0326 0.4161,0.0973 0.1412,0.083 0.2517,0.216 0.3311,0.3988 0.0793,0.1823 0.1187,0.4204 0.1187,0.7135 0,0.3498 -0.0402,0.6111 -0.1213,0.784 -0.0808,0.1735 -0.1831,0.296 -0.3087,0.3677 -0.1247,0.0711 -0.2684,0.1071 -0.4308,0.1071 z m 5.2168,0.1477 v -0.915 h -0.0943 c -0.0709,0.2387 -0.203,0.4215 -0.3969,0.5491 -0.1933,0.1272 -0.413,0.191 -0.6579,0.191 -0.205,0 -0.3923,-0.0473 -0.5633,-0.1423 -0.1709,-0.0952 -0.2965,-0.2188 -0.3747,-0.3724 -0.1015,-0.1962 -0.1528,-0.4142 -0.1528,-0.6543 0,-0.2361 0.0371,-0.4515 0.1114,-0.6457 0.0743,-0.1942 0.1899,-0.341 0.3484,-0.4402 0.1579,-0.0998 0.3625,-0.1489 0.6143,-0.1489 0.2063,0 0.3954,0.0358 0.5672,0.1089 0.1717,0.0726 0.3526,0.1976 0.5431,0.3759 v -0.2282 c -0.184,-0.1542 -0.3756,-0.2668 -0.5746,-0.3356 -0.1998,-0.0701 -0.4317,-0.1046 -0.6985,-0.1046 -0.3489,0 -0.6604,0.0567 -0.932,0.1695 -0.2715,0.1131 -0.4813,0.2752 -0.629,0.4867 -0.1468,0.2123 -0.2214,0.4377 -0.2214,0.6763 0,0.252 0.0819,0.4907 0.2461,0.7169 0.1635,0.2259 0.3841,0.4017 0.6621,0.5258 0.2784,0.1253 0.5738,0.1871 0.8867,0.1871 0.2305,0 0.474,-0.0399 0.7308,-0.1204 0.1485,-0.0465 0.2426,-0.0706 0.2832,-0.0706 0.051,0 0.0955,0.0153 0.1335,0.0459 0.038,0.0306 0.0629,0.0791 0.0743,0.1451 z m 4.9459,-0.0601 V 78.834 c -0.1187,-0.0153 -0.2253,-0.0666 -0.3186,-0.1536 -0.0677,-0.0652 -0.1684,-0.2174 -0.3022,-0.4581 l -1.1301,-2.0182 h -0.0794 l -1.1253,2.0999 c -0.1353,0.2534 -0.226,0.4022 -0.2716,0.4461 -0.0462,0.0445 -0.133,0.0726 -0.2599,0.0839 v 0.0723 h 1.5718 V 78.834 h -0.0528 c -0.142,0 -0.2386,-0.0141 -0.2905,-0.0425 -0.0371,-0.0192 -0.0553,-0.0479 -0.0553,-0.0859 0,-0.0232 0.007,-0.0513 0.019,-0.083 0.013,-0.0315 0.057,-0.1171 0.1304,-0.256 l 0.6993,-1.3147 0.648,1.1704 c 0.0777,0.1415 0.1256,0.2367 0.1429,0.2846 0.0181,0.0479 0.0263,0.089 0.0263,0.1231 0,0.0385 -0.0124,0.0731 -0.0388,0.1029 -0.0255,0.03 -0.0635,0.0524 -0.1131,0.0677 -0.0695,0.0227 -0.1619,0.0334 -0.2758,0.0334 v 0.0723 z m 1.8649,-2.5699 v -0.0717 h -1.7146 v 0.0717 h 0.1091 c 0.095,0 0.1718,0.0139 0.2296,0.0411 0.042,0.0182 0.0743,0.0494 0.0964,0.0939 0.0181,0.0306 0.0272,0.1125 0.0272,0.2455 v 1.7373 c 0,0.1352 -0.009,0.2194 -0.0272,0.2534 -0.0173,0.034 -0.0527,0.0632 -0.1072,0.0885 -0.0538,0.0252 -0.1272,0.0379 -0.2188,0.0379 h -0.1091 v 0.0723 h 1.7146 V 78.834 h -0.1088 c -0.095,0 -0.1718,-0.0133 -0.2296,-0.0405 -0.042,-0.0187 -0.0751,-0.0493 -0.0989,-0.0938 -0.0173,-0.0312 -0.0264,-0.1131 -0.0264,-0.2455 v -1.7373 c 0,-0.135 0.009,-0.2195 0.0272,-0.2535 0.019,-0.034 0.0553,-0.0632 0.1089,-0.0884 0.0547,-0.0258 0.1272,-0.0386 0.2188,-0.0386 z m 1.3476,2.5699 1.6181,-1.6381 v 1.1355 c 0,0.1582 -0.0281,0.2654 -0.0842,0.3212 -0.0777,0.0751 -0.2072,0.1117 -0.3898,0.1091 v 0.0723 h 1.0831 V 78.834 c -0.1386,-0.0141 -0.231,-0.0326 -0.2789,-0.0552 -0.0479,-0.0227 -0.085,-0.0598 -0.1114,-0.1111 -0.0264,-0.0511 -0.0397,-0.1395 -0.0397,-0.264 v -2.1996 h -0.0825 l -2.2175,2.1996 v -1.6795 c 0,-0.1516 0.0428,-0.254 0.1295,-0.3073 0.0859,-0.0538 0.1848,-0.0805 0.2957,-0.0805 h 0.0776 v -0.0717 h -1.1633 v 0.0717 c 0.1809,0.0015 0.3064,0.0312 0.3773,0.0899 0.0711,0.0584 0.1066,0.1576 0.1066,0.2979 v 1.8644 l -0.0703,0.0705 c -0.0695,0.0698 -0.1304,0.1157 -0.1843,0.1384 -0.0527,0.0218 -0.1295,0.0337 -0.2293,0.0365 v 0.0723 z m 5.6503,0.0601 v -0.915 h -0.0944 c -0.0708,0.2387 -0.2029,0.4215 -0.3968,0.5491 -0.1933,0.1272 -0.413,0.191 -0.6579,0.191 -0.205,0 -0.3923,-0.0473 -0.5633,-0.1423 -0.1709,-0.0952 -0.2965,-0.2188 -0.3747,-0.3724 -0.1015,-0.1962 -0.1528,-0.4142 -0.1528,-0.6543 0,-0.2361 0.0371,-0.4515 0.1114,-0.6457 0.0743,-0.1942 0.1899,-0.341 0.3484,-0.4402 0.1579,-0.0998 0.3625,-0.1489 0.6142,-0.1489 0.2064,0 0.3955,0.0358 0.5673,0.1089 0.1717,0.0726 0.3526,0.1976 0.5431,0.3759 v -0.2282 c -0.184,-0.1542 -0.3756,-0.2668 -0.5746,-0.3356 -0.1998,-0.0701 -0.4317,-0.1046 -0.6985,-0.1046 -0.3489,0 -0.6604,0.0567 -0.932,0.1695 -0.2716,0.1131 -0.4813,0.2752 -0.629,0.4867 -0.1468,0.2123 -0.2214,0.4377 -0.2214,0.6763 0,0.252 0.0819,0.4907 0.2461,0.7169 0.1635,0.2259 0.3841,0.4017 0.6621,0.5258 0.2784,0.1253 0.5738,0.1871 0.8867,0.1871 0.2305,0 0.474,-0.0399 0.7308,-0.1204 0.1485,-0.0465 0.2426,-0.0706 0.2832,-0.0706 0.051,0 0.0955,0.0153 0.1335,0.0459 0.038,0.0306 0.0629,0.0791 0.0742,0.1451 z m 1.6206,-0.2123 v -1.0752 h 0.0652 c 0.2081,0 0.3583,0.0525 0.4524,0.1576 0.0933,0.1052 0.1528,0.2608 0.1792,0.4655 h 0.0915 v -1.383 h -0.0915 c -0.0199,0.1508 -0.0604,0.2738 -0.1222,0.3702 -0.0629,0.0966 -0.1347,0.161 -0.2171,0.1941 -0.0817,0.0326 -0.2016,0.0494 -0.3575,0.0494 v -0.7441 c 0,-0.1455 0.007,-0.2342 0.023,-0.2665 0.015,-0.0329 0.0436,-0.0592 0.0859,-0.0799 0.0413,-0.0213 0.1091,-0.0312 0.2032,-0.0312 h 0.1956 c 0.3064,0 0.5516,0.0573 0.7364,0.1715 0.1849,0.1137 0.3169,0.288 0.3977,0.5218 h 0.0893 l -0.1468,-0.8396 h -2.8352 v 0.0717 h 0.1091 c 0.095,0 0.1718,0.0139 0.2296,0.0411 0.042,0.0182 0.0743,0.0494 0.0964,0.0939 0.0181,0.0306 0.0272,0.1125 0.0272,0.2455 v 1.7373 c 0,0.1196 -0.004,0.193 -0.0125,0.2203 -0.0153,0.045 -0.0462,0.0805 -0.089,0.1048 -0.0618,0.0369 -0.1454,0.0547 -0.2517,0.0547 h -0.1091 v 0.0723 h 2.745 v -0.7812 h -0.0915 c -0.0471,0.1908 -0.1123,0.328 -0.1973,0.411 -0.0842,0.0831 -0.2041,0.1443 -0.3592,0.1829 -0.0898,0.0238 -0.259,0.0351 -0.5076,0.0351 z m 4.2806,0.2123 0.0272,-0.8804 h -0.1 c -0.0463,0.2208 -0.1608,0.3983 -0.3442,0.5332 -0.1834,0.1343 -0.3807,0.2015 -0.5935,0.2015 -0.1645,0 -0.2949,-0.0354 -0.3904,-0.1066 -0.0969,-0.0703 -0.1445,-0.1522 -0.1445,-0.2446 0,-0.0578 0.0172,-0.1103 0.051,-0.1556 0.0462,-0.061 0.1213,-0.1216 0.2248,-0.1809 0.0759,-0.043 0.2508,-0.119 0.5249,-0.2279 0.3839,-0.1522 0.6424,-0.2959 0.7762,-0.4308 0.1329,-0.135 0.1987,-0.2894 0.1987,-0.4635 0,-0.2208 -0.1072,-0.411 -0.3203,-0.57 -0.2138,-0.1588 -0.4853,-0.2387 -0.8139,-0.2387 -0.1031,0 -0.2015,0.0088 -0.2931,0.0252 -0.0918,0.0173 -0.2072,0.0493 -0.3458,0.0958 -0.0777,0.0261 -0.1414,0.0386 -0.1908,0.0386 -0.0422,0 -0.0867,-0.0125 -0.1329,-0.0386 -0.0471,-0.0258 -0.085,-0.0657 -0.114,-0.119 h -0.0893 v 0.9975 h 0.0893 c 0.0709,-0.2807 0.2072,-0.4941 0.4102,-0.6418 0.2024,-0.1477 0.4204,-0.2214 0.654,-0.2214 0.1808,0 0.3245,0.04 0.4317,0.1191 0.1074,0.0791 0.161,0.1715 0.161,0.2766 0,0.0624 -0.0207,0.1231 -0.0618,0.1815 -0.0414,0.0578 -0.1032,0.1136 -0.1877,0.1664 -0.0839,0.0524 -0.2318,0.1207 -0.4447,0.2055 -0.2982,0.1182 -0.5128,0.2185 -0.6432,0.3016 -0.1312,0.0833 -0.231,0.1763 -0.3013,0.2786 -0.0703,0.1026 -0.1058,0.2154 -0.1058,0.3393 0,0.2101 0.0967,0.3895 0.2883,0.538 0.1922,0.1474 0.4343,0.2214 0.7257,0.2214 0.1063,0 0.2095,-0.0102 0.3095,-0.0306 0.076,-0.0161 0.1684,-0.0448 0.2767,-0.0873 0.1089,-0.0417 0.1857,-0.0632 0.2285,-0.0632 0.0422,0 0.0751,0.0108 0.0992,0.0315 0.0247,0.0204 0.047,0.0703 0.0675,0.1496 z" />
        <g
           transform="scale(0.24017)"
           id="g184746">
          <path
             id="path184748"
             style="fill:#002469;fill-opacity:1;fill-rule:evenodd;stroke:#002469;stroke-width:2.2141;stroke-linecap:round;stroke-linejoin:round;stroke-miterlimit:22.9256;stroke-dasharray:none;stroke-opacity:1"
             d="m 1239.9177,483.7728 v -6.1245 c 123.6699,-1.6985 171.9901,2.6569 203.8657,-10.2424 7.0662,-3.1961 12.2216,-7.1181 18.843,-13.3039 4.4447,13.3557 4.2877,41.8144 0.038,51.8457 -6.0596,-4.5547 -13.0221,-11.0166 -18.9493,-13.1012 -23.7305,-14.8087 -136.254,-8.4611 -203.7971,-9.0737 z m 0.7353,-3.1113 -0.6174,0.008 0.6174,-0.008 c 0.026,-0.9289 -0.3081,-1.631 -0.3152,-1.5296 48.7204,-0.6516 91.3906,-0.917 140.1134,-1.5698 24.3927,-0.3268 68.2574,-4.5607 78.0809,-13.3724 0.9961,2.5092 3.124,13.1187 2.2447,17.4089 -17.6981,-1.6758 -195.9165,0.3649 -220.4733,0.4652 0.2454,-0.4782 0.3364,-0.9643 0.3495,-1.4023 z" />
        </g>
      </g>
    </g>
  </g>
</svg>
