<?xml version="1.0" encoding="UTF-8" standalone="no"?>
<svg
   width="20.044188mm"
   height="14.974871mm"
   viewBox="0 0 20.044188 14.97487"
   version="1.1"
   id="svg811127"
   xmlns="http://www.w3.org/2000/svg"
   xmlns:svg="http://www.w3.org/2000/svg"
   xmlns:rdf="http://www.w3.org/1999/02/22-rdf-syntax-ns#"
   xmlns:cc="http://creativecommons.org/ns#"
   xmlns:dc="http://purl.org/dc/elements/1.1/">
  <defs
     id="defs811121">
    <clipPath
       id="clipPath811155"
       clipPathUnits="userSpaceOnUse">
      <path
         id="path811153"
         d="M 0,694.488 H 518.74 V 0 H 0 Z" />
    </clipPath>
    <clipPath
       id="clipPath811265"
       clipPathUnits="userSpaceOnUse">
      <path
         id="path811263"
         d="M 0,0 H 518.74 V 694.488 H 0 Z" />
    </clipPath>
    <clipPath
       id="clipPath811273"
       clipPathUnits="userSpaceOnUse">
      <path
         id="path811271"
         d="M -9,567.68 H 502.079 V 466.273 H -9 Z" />
    </clipPath>
    <clipPath
       id="clipPath811297"
       clipPathUnits="userSpaceOnUse">
      <path
         id="path811295"
         d="M 0,0 H 518.74 V 694.488 H 0 Z" />
    </clipPath>
    <clipPath
       id="clipPath811305"
       clipPathUnits="userSpaceOnUse">
      <path
         id="path811303"
         d="M 68.1181,461.504 H 541.913 V 431.536 H 68.1181 Z" />
    </clipPath>
    <clipPath
       id="clipPath811321"
       clipPathUnits="userSpaceOnUse">
      <path
         id="path811319"
         d="M -9,553.449 H 33.8189 V 480.504 H -9 Z" />
    </clipPath>
    <clipPath
       id="clipPath811397"
       clipPathUnits="userSpaceOnUse">
      <path
         id="path811395"
         d="m 47.204,579.606 h 74.001 V 658 H 47.204 Z" />
    </clipPath>
    <clipPath
       id="clipPath811421"
       clipPathUnits="userSpaceOnUse">
      <path
         id="path811419"
         d="M 291.037,546.449 H 467.502 V 451.67 H 291.037 Z" />
    </clipPath>
    <clipPath
       id="clipPath812981"
       clipPathUnits="userSpaceOnUse">
      <path
         id="path812979"
         d="M 0,779.528 H 581.102 V 0 H 0 Z" />
    </clipPath>
    <clipPath
       id="clipPath813005"
       clipPathUnits="userSpaceOnUse">
      <path
         id="path813003"
         d="M 0,779.528 H 581.102 V 0 H 0 Z" />
    </clipPath>
    <clipPath
       id="clipPath813031"
       clipPathUnits="userSpaceOnUse">
      <path
         id="path813029"
         d="m 55.283,610.984 c 0,0 -11.999,0 -11.999,-12 v 0 -89.386 c 0,0 0,-12 11.999,-12 v 0 h 129.251 c 0,0 12,0 12,12 v 0 89.386 c 0,0 0,12 -12,12 v 0 z" />
    </clipPath>
    <clipPath
       id="clipPath813045"
       clipPathUnits="userSpaceOnUse">
      <path
         id="path813043"
         d="M 0,0 H 581.102 V 779.528 H 0 Z" />
    </clipPath>
    <clipPath
       id="clipPath813057"
       clipPathUnits="userSpaceOnUse">
      <path
         id="path813055"
         d="m 55.315,483.898 c 0,0 -12.001,0 -12.001,-12 v 0 -89.386 c 0,0 0,-12 12.001,-12 v 0 h 129.219 c 0,0 12,0 12,12 v 0 89.386 c 0,0 0,12 -12,12 v 0 z" />
    </clipPath>
    <clipPath
       id="clipPath813071"
       clipPathUnits="userSpaceOnUse">
      <path
         id="path813069"
         d="M 0,0 H 581.102 V 779.528 H 0 Z" />
    </clipPath>
    <clipPath
       id="clipPath813083"
       clipPathUnits="userSpaceOnUse">
      <path
         id="path813081"
         d="m 55.283,736.417 c 0,0 -12,0 -12,-12 v 0 -89.385 c 0,0 0,-12.001 12,-12.001 v 0 h 129.959 c 0,0 12,0 12,12.001 v 0 89.385 c 0,0 0,12 -12,12 v 0 z" />
    </clipPath>
    <clipPath
       id="clipPath813097"
       clipPathUnits="userSpaceOnUse">
      <path
         id="path813095"
         d="M 0,0 H 581.102 V 779.528 H 0 Z" />
    </clipPath>
    <clipPath
       id="clipPath813501"
       clipPathUnits="userSpaceOnUse">
      <path
         id="path813499"
         d="M 0,0 H 581.102 V 779.528 H 0 Z" />
    </clipPath>
    <clipPath
       id="clipPath813521"
       clipPathUnits="userSpaceOnUse">
      <path
         id="path813519"
         d="m 140.693,204.96 c 0.127,-0.806 -0.352,-1.395 -0.379,-2.218 v 0 c -0.543,-0.072 -0.498,-0.724 -0.725,-1.105 v 0 c 0.154,-0.08 0.399,0.056 0.444,-0.225 v 0 c -0.009,-0.398 -0.299,-0.508 -0.444,-0.77 v 0 c 0.046,-0.217 0.1,-0.424 0.172,-0.616 v 0 c -0.244,-0.37 -0.407,-0.813 -0.507,-1.329 v 0 c 0.652,-0.552 -0.099,-1.665 0.444,-2.435 v 0 c -0.217,-0.688 -0.643,-1.439 -0.498,-2.317 v 0 c -0.226,-1.122 -0.968,-1.728 -1.158,-2.878 v 0 c -0.471,-0.325 -0.905,-0.687 -1.72,-0.669 v 0 c -0.516,0.299 -0.977,0.651 -1.602,0.832 v 0 c -0.28,0.236 -0.244,0.788 -0.552,0.996 v 0 c -1.24,0.18 -2.28,0.561 -2.769,1.492 v 0 c -0.642,0.064 -0.914,0.49 -1.439,0.67 v 0 c -0.109,0.01 -0.208,0 -0.299,-0.008 v 0 c -0.172,-0.028 -0.299,-0.064 -0.308,0.172 v 0 c -0.054,0.253 0.326,0.072 0.272,0.335 v 0 c -0.136,0.099 -0.344,-0.109 -0.552,-0.118 v 0 c -0.172,0.109 -0.326,0.225 -0.552,0.281 v 0 c -0.353,0.877 -1.602,0.867 -1.937,1.774 v 0 c 0.48,0.66 1.077,1.203 1.33,2.099 v 0 c -0.37,0.226 -0.335,0.578 -0.226,1.05 v 0 c 0.226,0.181 0.643,0.172 0.833,0.388 v 0 c 0.163,-0.007 0.1,-0.234 0.281,-0.216 v 0 c 0.217,0.181 0.397,0.543 0.217,0.822 v 0 c 0.226,0.417 0.633,0.662 0.778,1.169 v 0 c -0.091,0.217 -0.353,0.244 -0.616,0.163 v 0 c -0.099,0.154 -0.153,0.362 -0.216,0.552 v 0 c -0.254,-0.054 -0.598,-0.027 -0.661,-0.273 v 0 c -0.018,-0.271 0.335,-0.18 0.326,-0.442 v 0 c -0.036,-0.29 -0.462,-0.443 -0.77,-0.28 v 0 c 0.018,0.252 0.063,0.361 -0.118,0.497 v 0 c -0.099,0.08 -0.189,0.009 -0.271,-0.054 v 0 c -0.099,-0.082 -0.19,-0.173 -0.28,0 v 0 c -0.036,0.324 0.353,0.244 0.28,0.606 v 0 c -0.606,-0.108 -0.896,-0.543 -1.439,-0.715 v 0 c -0.343,0.109 -0.407,0.515 -0.778,0.607 v 0 c -0.362,-0.3 -0.697,-0.155 -1.022,0 v 0 c -0.236,0.108 -0.462,0.208 -0.689,0.162 v 0 l -0.117,0.335 c -0.86,-0.307 -1.629,0.182 -1.937,0.779 v 0 c -0.172,0.117 -0.263,-0.227 -0.497,-0.227 v 0 c -0.136,0.082 -0.227,0.217 -0.272,0.388 v 0 c 0.136,0.155 0.109,0.328 0.054,0.554 v 0 c -0.29,0 -0.118,-0.389 -0.226,-0.444 v 0 c -0.335,0.207 -1.041,0.335 -1.376,-0.054 v 0 c 0.317,-0.064 0.38,-0.391 0.66,-0.498 v 0 c 0.136,0.127 0.372,0.145 0.607,0.171 v 0 c 0.308,-0.044 0.136,-0.37 0.172,-0.505 v 0 c 0.055,-0.209 0.489,-0.355 0.272,-0.824 v 0 c -0.236,-0.1 -0.399,-0.264 -0.607,-0.391 v 0 c -0.181,0.254 -0.435,-0.035 -0.607,-0.107 v 0 c -0.198,0.117 -0.479,0.089 -0.741,0.054 v 0 c -0.371,-0.045 -0.734,-0.1 -0.87,0.272 v 0 c -0.199,-0.1 -0.199,-0.064 -0.497,-0.055 v 0 c 0.019,-0.389 -0.371,-0.361 -0.498,-0.606 v 0 c -0.081,-0.009 -0.126,0.019 -0.172,0.055 v 0 c -0.045,0.027 -0.09,0.053 -0.163,0.053 v 0 c -0.145,-0.071 -0.072,-0.37 -0.163,-0.497 v 0 c -0.072,-0.046 -0.127,-0.046 -0.181,-0.046 v 0 c -0.063,0 -0.126,0.01 -0.208,-0.064 v 0 c 0,-0.406 -0.244,-0.56 -0.552,-0.66 v 0 c -0.081,-0.407 0.218,-0.407 0.227,-0.724 v 0 c -0.199,-0.226 -0.362,-0.524 -0.779,-0.389 v 0 c -0.235,-0.47 -0.145,-1.257 -0.778,-1.33 v 0 c -0.081,-0.172 -0.181,-0.326 -0.217,-0.552 v 0 c 0.208,-0.264 0.506,-0.444 0.606,-0.823 v 0 c -0.037,-0.127 -0.208,-0.127 -0.217,-0.281 v 0 c 0.063,-0.072 0.253,-0.299 0.109,-0.389 v 0 c -0.217,0.135 -0.335,0.37 -0.607,0.443 v 0 c -0.471,-0.281 -1.004,0.209 -1.665,0.227 v 0 c -0.29,-0.173 -0.399,-0.526 -0.833,-0.562 v 0 c -0.109,0.244 0.163,0.389 0.172,0.67 v 0 c -0.859,0.388 -1.195,1.793 -2.217,1.657 v 0 c -0.172,0.162 -0.244,0.415 -0.552,0.442 v 0 c -0.326,-0.19 -0.127,-0.796 -0.607,-0.94 v 0 c -0.198,0.045 -0.162,0.326 -0.388,0.335 v 0 c -0.236,0 -0.064,-0.417 -0.335,-0.391 v 0 c -0.154,0.219 0.018,0.445 -0.272,0.554 v 0 l -0.172,-0.109 c -0.073,-0.281 0.253,-0.154 0.226,-0.389 v 0 c -0.281,-0.209 -0.172,-0.589 -0.389,-0.771 v 0 c -0.443,0.055 -0.48,0.417 -0.66,0.608 v 0 c -0.154,-0.146 0.018,-0.263 0.054,-0.39 v 0 c -0.317,-0.181 -0.788,-0.461 -1.114,-0.163 v 0 c -0.045,-0.226 0.208,-0.506 0.172,-0.886 v 0 c 0.073,-0.163 0.507,-0.2 0.326,-0.445 v 0 c -0.317,0.164 -0.661,0.318 -0.995,0.055 v 0 c 0.063,-0.425 -0.389,-0.344 -0.498,-0.606 v 0 c -0.136,0.027 -0.118,0.208 -0.326,0.163 v 0 c -0.027,-0.208 0.172,-0.19 0.217,-0.335 v 0 c -0.769,-0.244 -0.217,-0.952 -0.054,-1.43 v 0 c -0.172,0.036 -0.199,-0.063 -0.335,-0.063 v 0 c -0.073,-0.199 0,-0.543 -0.272,-0.552 v 0 c -0.452,0.189 -1.085,0.732 -1.556,0.389 v 0 c -0.064,-0.244 0.271,-0.226 0.117,-0.389 v 0 c -0.117,-0.109 -0.271,-0.172 -0.28,-0.39 v 0 c 0.289,-0.244 0.615,-0.452 0.833,-0.768 v 0 c -0.145,-0.018 -0.055,-0.281 -0.163,-0.335 v 0 c -0.082,-0.009 -0.118,0.027 -0.163,0.054 v 0 c -0.055,0.045 -0.1,0.08 -0.227,0.054 v 0 c 0.046,-0.299 0.109,-0.715 -0.117,-0.887 v 0 c -0.497,0.534 -0.715,1.348 -1.158,1.937 v 0 c 0.045,0.118 0.172,0.226 0.054,0.335 v 0 c -0.326,-0.118 -0.453,-0.426 -0.553,-0.77 v 0 c -0.922,-0.343 -1.457,-1.249 -1.103,-2.552 v 0 c 0.099,-0.136 0.389,-0.081 0.389,-0.326 v 0 c -0.389,-0.326 -0.697,-0.714 -1.222,-0.886 v 0 c -0.126,-0.172 -0.099,-0.498 -0.335,-0.554 v 0 c -0.353,-1.511 -1.574,-2.325 -3.095,-2.66 v 0 c -0.416,-0.09 -0.887,0 -1.222,-0.335 v 0 c -0.262,0.145 -0.525,0.282 -0.941,0.282 v 0 c -0.362,-0.536 -1.059,-0.998 -1.937,-0.833 v 0 c -0.506,-0.381 -0.932,-0.834 -1.711,-0.941 v 0 c -0.217,0.262 -0.479,0.226 -0.732,0.19 v 0 c -0.208,-0.027 -0.417,-0.054 -0.598,0.09 v 0 c -0.335,-0.173 -0.507,-0.498 -0.995,-0.498 v 0 c -0.199,-0.208 -0.371,-0.443 -0.724,-0.498 v 0 c -0.526,-0.914 -1.657,-1.212 -2.597,-1.719 v 0 c -0.263,-0.434 -0.462,-0.941 -0.662,-1.439 v 0 c -0.081,0.062 -0.153,0.036 -0.235,0.018 v 0 c -0.072,-0.018 -0.145,-0.045 -0.208,0.036 v 0 c -0.091,0.47 0.036,0.995 -0.117,1.439 v 0 c -0.389,-0.19 -0.353,-0.716 -0.498,-1.104 v 0 c -0.082,-0.235 -0.326,-0.416 -0.326,-0.662 v 0 c -0.009,-0.252 0.244,-0.442 0.272,-0.722 v 0 c 0.045,-0.462 -0.154,-0.87 -0.109,-1.331 v 0 c -0.507,-0.489 -0.815,-1.177 -0.779,-2.208 v 0 c 0.299,-0.335 0.534,-0.725 0.562,-1.331 v 0 c 0.235,-0.479 1.149,-1.529 1.212,-1.991 v 0 c 0.054,-0.345 -0.009,-1.049 -0.388,-1.222 v 0 c -0.218,0.163 -0.181,0.588 -0.444,0.724 v 0 c -0.208,-0.261 0.407,-1.167 -0.38,-1.167 v 0 c -0.263,0.208 -0.2,0.732 -0.444,0.941 v 0 c -0.1,0.027 -0.172,0.027 -0.236,0.019 v 0 c -0.08,-0.009 -0.144,-0.009 -0.207,0.089 v 0 c -0.005,-0.026 -0.009,-0.049 -0.009,-0.071 v 0 -0.01 c 0.004,-0.19 0.181,-0.206 0.117,-0.47 v 0 c 0.688,-0.735 1.657,-1.756 1.774,-2.986 v 0 c 0.027,-0.372 -0.091,-0.689 0.054,-0.997 v 0 c 0.29,-0.652 1.132,-0.913 0.942,-1.775 v 0 c 0.932,-0.568 0.615,-1.772 0.714,-2.822 v 0 c 0.245,-2.417 2.019,-3.439 1.602,-6.028 v 0 c -0.47,-0.417 -0.009,-1.185 -0.054,-1.827 v 0 c -0.244,-0.391 -0.361,-0.924 -0.878,-1.051 v 0 c -0.28,-0.045 -0.28,0.199 -0.498,0.217 v 0 c -0.199,-0.552 -0.135,-1.53 0.163,-1.937 v 0 c 0.181,0 0.272,0.101 0.498,0.056 v 0 c 0.625,-0.29 1.077,-0.771 1.439,-1.323 v 0 c 0.526,0.009 0.787,-0.424 1.276,-0.505 v 0 c 0.218,-0.038 0.462,-0.019 0.697,0.008 v 0 c 0.417,0.036 0.842,0.073 1.24,-0.173 v 0 c 0.154,0.192 0.335,0.165 0.553,0.056 v 0 c 0.451,0.289 1.14,0.334 1.33,0.886 v 0 c 0.596,0.1 0.814,1.096 1.547,0.553 v 0 c 0.172,0.136 0.39,0.244 0.553,0.389 v 0 c 0.099,0.959 1.031,1.167 2.044,1.049 v 0 c 0.788,0.262 2.028,0.435 2.77,0.118 v 0 c 0.136,0.046 0.217,0.144 0.389,0.163 v 0 c 0.217,-0.081 0.163,-0.425 0.444,-0.444 v 0 c 0.443,0.399 1.085,0.182 1.764,0.39 v 0 c 0.2,-0.045 0.164,-0.326 0.39,-0.335 v 0 c 0.181,0.181 0.344,0.254 0.669,0.162 v 0 c 0.353,0.255 0.498,0.716 0.878,0.942 v 0 c 0.064,0.317 0.1,0.85 0.336,1.168 v 0 c 0.297,0.388 0.868,0.28 1.384,0.497 v 0 c 0.118,0.045 0.208,0.198 0.335,0.271 v 0 c 0.488,0.335 1.204,0.644 1.656,0.943 v 0 c 0.67,0.441 0.95,0.297 1.611,0.226 v 0 c 0.669,-0.074 1.512,0.026 1.936,0.162 v 0 c 0.507,0.163 1.078,0.326 1.548,0.498 v 0 c 0.579,0.225 1.096,0.706 1.71,0.887 v 0 c 0.661,0.19 1.358,0.181 2.046,0.163 v 0 c 0.851,-0.009 1.683,-0.019 2.444,0.335 v 0 c 0.497,-0.273 0.932,-0.372 1.439,-0.715 v 0 c 0.588,-0.407 0.796,-0.915 1.548,-0.389 v 0 c 0.714,-0.137 1.303,-1.077 2.099,-0.444 v 0 c 0.199,-0.217 0.452,-0.371 0.615,-0.607 v 0 c -0.045,-0.127 -0.172,-0.279 -0.054,-0.389 v 0 c 0.072,-0.073 0.136,-0.017 0.217,0.037 v 0 c 0.064,0.036 0.127,0.073 0.218,0.073 v 0 c 0.235,-0.118 0.443,-0.264 0.389,-0.662 v 0 c -0.064,-0.064 -0.19,-0.064 -0.326,-0.064 v 0 c -0.036,-0.488 0.226,-0.686 0.326,-1.05 v 0 c 0.787,0.209 1.285,-0.324 1.167,-1.103 v 0 c 0.751,-0.461 1.041,-1.394 1.213,-2.434 v 0 c 0.018,-0.127 -0.154,-0.065 -0.163,-0.163 v 0 c 0.235,-0.218 0.389,-0.499 0.661,-0.67 v 0 c 0.289,0.18 0.362,-0.009 0.615,-0.109 v 0 c 0.181,0.435 -0.064,0.462 -0.064,0.942 v 0 c 0.372,0.407 0.77,0.788 0.942,1.384 v 0 c 0.588,0.262 0.896,0.805 1.665,0.887 v 0 c 0.497,0.543 0.425,1.675 1.267,1.882 v 0 c 0.082,0.281 -0.127,0.561 0,0.715 v 0 c 0.362,-0.189 0.254,-0.858 0.507,-1.157 v 0 c -0.099,-0.163 -0.344,-0.174 -0.443,-0.335 v 0 c 0.072,-0.272 0.217,-0.48 0.271,-0.779 v 0 c -0.154,-0.272 -0.471,-0.444 -0.607,-0.661 v 0 c -0.126,-0.217 -0.326,-0.625 -0.389,-0.887 v 0 c -0.144,-0.616 0.362,-1.475 -0.217,-1.936 v 0 c -0.126,0.072 -0.262,0.054 -0.389,0.026 v 0 c -0.117,-0.017 -0.235,-0.035 -0.335,0.028 v 0 c -0.127,-0.271 -0.308,-0.743 -0.326,-0.941 v 0 c 0.607,0.063 1.041,0.598 1.765,0.335 v 0 c 0.317,0.777 0.335,1.846 0.779,2.488 v 0 c 0.452,-0.714 1.276,-1.891 0.714,-2.986 v 0 c -0.154,-0.299 -0.651,-0.381 -0.606,-0.779 v 0 c 0.471,-0.126 0.978,0.164 1.331,0.335 v 0 c 1.194,-0.67 2.117,-1.611 2.262,-3.321 v 0 c -0.055,-0.217 -0.281,-0.272 -0.326,-0.498 v 0 c 0.154,-0.135 0.181,-0.318 0.108,-0.552 v 0 c 0.1,-0.354 0.444,-0.525 0.725,-0.832 v 0 c 0.226,-0.254 0.299,-0.608 0.498,-0.888 v 0 c 0.334,-0.47 0.642,-0.38 1.267,-0.497 v 0 c 0.66,-0.126 0.723,-0.751 1.33,-0.996 v 0 c 0.073,0.724 0.968,0.379 1.222,0.053 v 0 c 0.154,0.011 0.226,0.101 0.38,0.11 v 0 c 0.896,-0.425 1.611,-1.032 2.552,-1.267 v 0 c 0.625,0.443 1.05,1.086 1.765,1.439 v 0 c 0.271,0.064 0.67,0 0.615,0.389 v 0 c -0.09,0.072 -0.208,0.028 -0.317,-0.009 v 0 c -0.135,-0.054 -0.271,-0.099 -0.353,0.064 v 0 c 0.381,0.234 0.716,0.506 1.114,0.714 v 0 c 0.163,-0.199 0.308,-0.425 0.443,-0.66 v 0 c -0.153,-0.353 -0.379,-0.617 -0.669,-0.833 v 0 c 0.262,-0.353 0.434,-0.054 0.778,0.053 v 0 c 0.099,-0.143 -0.028,-0.161 0.054,-0.324 v 0 c 0.661,-0.154 1.268,-0.362 1.494,-0.942 v 0 c 0.162,0 0.189,0.135 0.334,0.164 v 0 c 0.371,-0.127 0.272,-0.725 0.716,-0.779 v 0 c 0.099,0.235 -0.009,0.37 0.054,0.669 v 0 c 0.127,0.381 0.551,0.381 0.832,0.554 v 0 c 0.734,0.45 1.15,1.357 1.828,1.881 v 0 c 0.426,0.018 0.797,0.316 1.331,0.39 v 0 c 0.326,0.036 0.679,0.017 1.032,0 v 0 c 0.443,-0.02 0.868,-0.037 1.231,0.053 v 0 c 0.507,0.127 0.579,0.662 1.058,0.715 v 0 c -0.027,0.335 0,0.624 0.109,0.833 v 0 c -0.462,0.769 0.217,1.928 0.217,2.824 v 0 c 0.009,0.905 0.725,1.673 0.941,2.326 v 0 c 0.063,0.045 0.154,0.073 0.281,0.053 v 0 c -0.082,0.29 0.163,0.364 0.108,0.887 v 0 c 0.317,0.29 0.209,1.005 0.39,1.441 v 0 c 0.525,0.289 0.742,0.868 0.769,1.655 v 0 c 0.624,0.598 0.543,1.901 1.665,1.991 v 0 c 0.063,0.515 0.507,0.634 0.833,0.888 v 0 c -0.199,0.632 0.19,1.311 0.607,1.665 v 0 c 0.153,0.706 0.388,1.339 0.551,2.045 v 0 c -0.285,0.804 0.12,1.574 0.384,2.395 v 0 5.728 c -0.274,0.341 -0.602,0.795 -0.167,1.171 v 0 c -0.063,0.66 -0.425,1.811 0,2.435 v 0 c -0.512,0.46 -0.07,1.114 0.167,1.681 v 0 0.81 c -0.33,-0.406 -0.376,-0.846 -0.665,-1.215 v 0 c -0.089,0.053 -0.054,0.236 -0.108,0.335 v 0 c -0.597,0.064 -0.778,0.544 -0.887,1.104 v 0 c -0.859,0.252 -0.977,1.277 -1.547,1.828 v 0 c -0.544,-0.19 -0.814,0.308 -1.104,0.552 v 0 c 0.542,0.245 -0.263,0.96 -0.661,0.499 v 0 c -0.48,0.805 0.299,2.425 -0.724,2.876 v 0 c -0.009,-0.161 0.153,-0.433 0,-0.551 v 0 c -0.688,0.026 -0.724,0.96 -1.331,0.886 v 0 c -0.136,-0.207 0.208,-0.515 0.054,-0.723 v 0 c -0.777,0.217 -0.968,1.023 -0.995,1.991 v 0 c -0.281,0.272 -0.444,0.66 -0.498,1.168 v 0 c -0.434,0.317 -1.049,0.452 -1.049,1.213 v 0 c 0.063,0.063 0.199,0.063 0.335,0.063 v 0 c -0.091,0.199 0.009,0.262 -0.055,0.434 v 0 c -0.253,0.091 -0.48,0.189 -0.615,0.39 v 0 c -0.109,0.018 -0.163,-0.018 -0.218,-0.055 v 0 c -0.045,-0.027 -0.09,-0.063 -0.172,-0.054 v 0 c -0.163,0.072 -0.18,0.299 -0.271,0.444 v 0 c -0.344,0.081 -0.769,0.071 -0.778,0.497 v 0 c -0.39,-0.363 -0.462,-0.028 -0.607,0.308 v 0 c -0.127,0.289 -0.316,0.587 -0.832,0.407 v 0 c -0.145,0.073 -0.172,0.272 -0.326,0.335 v 0 c -0.036,-0.072 -0.127,-0.099 -0.227,-0.108 v 0 c -0.434,0.415 -1.167,0.407 -1.266,1.049 v 0 c -0.064,0.37 0.307,0.797 0,1.222 v 0 c -0.136,0.108 -0.517,-0.037 -0.562,0.163 v 0 c 0.534,1.032 -0.162,1.917 -0.162,2.824 v 0 c -0.471,0.117 -0.887,0.615 -1.105,1.158 v 0 c 0.426,0.796 -0.498,1.629 -0.172,2.326 v 0 c -0.054,0.126 -0.172,0.198 -0.163,0.388 v 0 c 0.018,0.145 0.163,0.164 0.163,0.335 v 0 c -0.515,0.562 -1.439,0.725 -1.602,1.656 v 0 c -0.253,-0.153 -0.488,-0.08 -0.714,-0.216 v 0 c -0.217,-0.127 -0.236,-0.417 -0.562,-0.39 v 0 c -0.452,0.028 -0.353,0.479 -0.498,0.888 v 0 c -0.135,0.408 -0.37,0.542 -0.325,0.941 v 0 c 0.045,0.434 -0.045,1.113 -0.063,1.602 v 0 c -0.118,0.063 -0.299,0.072 -0.326,0.217 v 0 c 0.254,0.453 -0.254,0.824 -0.552,1.059 v 0 c -0.073,0.361 0.163,0.424 0.163,0.715 v 0 c -0.317,0.145 -0.498,0.009 -0.662,0.335 v 0 c -0.099,0.181 0.037,0.633 0,0.941 v 0 c -0.072,0.534 -0.216,0.851 -0.614,1.049 v 0 c 0.036,0.209 0.072,0.299 -0.163,0.335 v 0 c -0.19,-0.234 -0.39,-0.46 -0.725,-0.551 m 5.702,-70.132 c -0.117,-0.062 -0.154,-0.026 -0.199,0.009 v 0 c -0.036,0.028 -0.09,0.055 -0.181,0.045 v 0 c 0.118,-0.361 -0.027,-0.542 -0.118,-0.823 v 0 c 0.127,-1.367 0.852,-2.144 1.331,-3.159 v 0 c -0.434,-1.32 0.688,-2.379 1.159,-3.321 v 0 c 0.045,-0.054 0.081,-0.036 0.126,-0.026 v 0 c 0.043,0.017 0.086,0.025 0.143,-0.019 v 0 h 2.891 c 0.027,0.125 0.072,0.242 0.161,0.379 v 0 c -0.326,0.164 -0.181,1.051 0.172,0.608 v 0 c -0.028,0.198 0.045,0.29 0.162,0.335 v 0 c 0.399,-0.227 -0.036,-0.733 0.335,-1.05 v 0 c 0.209,-0.01 0.354,0.054 0.498,0.107 v 0 c -0.099,0.436 0.091,0.851 -0.226,1.106 v 0 c 0.353,0.57 0.082,1.475 0.616,1.99 v 0 c 0.099,-0.018 0.135,-0.118 0.27,-0.109 v 0 c -0.062,1.142 0.01,2.172 0,3.322 v 0 c -0.171,0.172 -0.442,0.498 -0.66,0.443 v 0 c -0.117,-0.108 -0.135,-0.307 -0.335,-0.335 v 0 c -0.081,-0.008 -0.126,0.028 -0.172,0.055 v 0 c -0.054,0.035 -0.108,0.072 -0.217,0.055 v 0 c -0.199,-0.065 -0.172,-0.372 -0.443,-0.381 v 0 c -0.09,-0.027 -0.108,0.009 -0.136,0.046 v 0 c -0.027,0.036 -0.054,0.072 -0.135,0.062 v 0 c -0.118,-0.171 -0.236,-0.144 -0.372,-0.117 v 0 c -0.072,0.009 -0.154,0.018 -0.235,0.009 v 0 c -0.471,-0.09 -0.823,-0.489 -1.276,-0.497 v 0 c -0.995,-0.036 -1.674,1.041 -2.715,1.05 v 0 c -0.018,0.161 -0.166,0.357 -0.295,0.357 v 0 c -0.058,0 -0.111,-0.039 -0.149,-0.141" />
    </clipPath>
    <clipPath
       id="clipPath813561"
       clipPathUnits="userSpaceOnUse">
      <path
         id="path813559"
         d="M 0,0 H 581.102 V 779.528 H 0 Z" />
    </clipPath>
    <clipPath
       id="clipPath813577"
       clipPathUnits="userSpaceOnUse">
      <path
         id="path813575"
         d="m 72.337,74.19 h 92.545 v 32.109 H 72.337 Z" />
    </clipPath>
    <clipPath
       id="clipPath814451"
       clipPathUnits="userSpaceOnUse">
      <path
         id="path814449"
         d="M 0,0 H 518.74 V 694.488 H 0 Z" />
    </clipPath>
    <clipPath
       id="clipPath814463"
       clipPathUnits="userSpaceOnUse">
      <path
         id="path814461"
         d="M 0,0 H 518.74 V 273.676 H 0 Z" />
    </clipPath>
    <clipPath
       id="clipPath814475"
       clipPathUnits="userSpaceOnUse">
      <path
         id="path814473"
         d="M 0,0 H 518.74 V 694.488 H 0 Z" />
    </clipPath>
    <clipPath
       id="clipPath815319"
       clipPathUnits="userSpaceOnUse">
      <path
         id="path815317"
         d="M 0,0 H 518.74 V 694.488 H 0 Z" />
    </clipPath>
    <clipPath
       id="clipPath817588"
       clipPathUnits="userSpaceOnUse">
      <path
         id="path817586"
         d="M 0,0 H 518.74 V 694.488 H 0 Z" />
    </clipPath>
    <clipPath
       id="clipPath817600"
       clipPathUnits="userSpaceOnUse">
      <path
         id="path817598"
         d="M 0,0 H 518.74 V 273.676 H 0 Z" />
    </clipPath>
    <clipPath
       id="clipPath817612"
       clipPathUnits="userSpaceOnUse">
      <path
         id="path817610"
         d="M 0,0 H 518.74 V 694.488 H 0 Z" />
    </clipPath>
    <clipPath
       id="clipPath818456"
       clipPathUnits="userSpaceOnUse">
      <path
         id="path818454"
         d="M 0,0 H 518.74 V 694.488 H 0 Z" />
    </clipPath>
    <clipPath
       id="clipPath820562"
       clipPathUnits="userSpaceOnUse">
      <path
         id="path820560"
         d="M 147.436,956.931 V 534.629 h 547.109 v 2.836 H 147.436" />
    </clipPath>
    <clipPath
       id="clipPath820576"
       clipPathUnits="userSpaceOnUse">
      <path
         id="path820574"
         d="M 147.436,817.015 H 352.612 V 956.931 H 147.436 Z" />
    </clipPath>
    <clipPath
       id="clipPath820590"
       clipPathUnits="userSpaceOnUse">
      <path
         id="path820588"
         d="M 352.279,817.015 H 557.993 V 956.931 H 352.279 Z" />
    </clipPath>
    <clipPath
       id="clipPath820604"
       clipPathUnits="userSpaceOnUse">
      <path
         id="path820602"
         d="M 557.66,747.109 H 694.546 V 956.931 H 557.66 Z" />
    </clipPath>
    <clipPath
       id="clipPath820618"
       clipPathUnits="userSpaceOnUse">
      <path
         id="path820616"
         d="M 147.436,677.037 H 352.612 V 817.349 H 147.436 Z" />
    </clipPath>
    <clipPath
       id="clipPath820632"
       clipPathUnits="userSpaceOnUse">
      <path
         id="path820630"
         d="M 352.279,677.037 H 557.993 V 817.349 H 352.279 Z" />
    </clipPath>
    <clipPath
       id="clipPath820646"
       clipPathUnits="userSpaceOnUse">
      <path
         id="path820644"
         d="M 557.66,537.465 H 694.546 V 747.443 H 557.66 Z" />
    </clipPath>
    <clipPath
       id="clipPath820660"
       clipPathUnits="userSpaceOnUse">
      <path
         id="path820658"
         d="M 147.436,537.465 H 352.612 V 677.37 H 147.436 Z" />
    </clipPath>
    <clipPath
       id="clipPath820674"
       clipPathUnits="userSpaceOnUse">
      <path
         id="path820672"
         d="M 352.279,537.465 H 557.993 V 677.37 H 352.279 Z" />
    </clipPath>
    <clipPath
       id="clipPath820696"
       clipPathUnits="userSpaceOnUse">
      <path
         id="path820694"
         d="M 147.436,234.065 H 694.545 V 956.931 H 147.436 Z" />
    </clipPath>
    <clipPath
       id="clipPath820710"
       clipPathUnits="userSpaceOnUse">
      <path
         id="path820708"
         d="m 496.652,276.587 h 155.37 v 95.651 h -155.37 z" />
    </clipPath>
    <clipPath
       id="clipPath820796"
       clipPathUnits="userSpaceOnUse">
      <path
         id="path820794"
         d="m 496.652,276.587 h 155.37 v 95.651 h -155.37 z" />
    </clipPath>
    <clipPath
       id="clipPath820852"
       clipPathUnits="userSpaceOnUse">
      <path
         id="path820850"
         d="m 496.652,276.587 h 155.37 v 95.651 h -155.37 z" />
    </clipPath>
    <clipPath
       id="clipPath820950"
       clipPathUnits="userSpaceOnUse">
      <path
         id="path820948"
         d="m 496.652,276.587 h 155.37 v 95.651 h -155.37 z" />
    </clipPath>
    <clipPath
       id="clipPath821010"
       clipPathUnits="userSpaceOnUse">
      <path
         id="path821008"
         d="M 132.435,219.065 H 709.546 V 971.933 H 132.435 Z" />
    </clipPath>
  </defs>
  <metadata
     id="metadata811124">
    <rdf:RDF>
      <cc:Work
         rdf:about="">
        <dc:format>image/svg+xml</dc:format>
        <dc:type
           rdf:resource="http://purl.org/dc/dcmitype/StillImage" />
        <dc:title />
      </cc:Work>
    </rdf:RDF>
  </metadata>
  <g
     id="layer1"
     transform="translate(218.8858,-208.3851)">
    <g
       id="g820700"
       transform="matrix(0.35277777,0,0,-0.35277777,-218.8766,213.04717)">
      <path
         d="m 0,0 c -0.057,-0.251 0.296,-0.64 0.904,-0.593 0.607,0.048 1.245,0.078 1.964,0.653 0.714,0.578 1.224,0.601 1.698,0.687 0.7,0.125 0.7,1.231 -0.203,1.199 C 2.974,1.899 2.119,0.668 1.759,0.514 1.401,0.357 0.92,0.184 0.607,0.202 0.296,0.217 0.048,0.202 0,0"
         style="fill:#4c2b63;fill-opacity:1;fill-rule:nonzero;stroke:none"
         id="path820702" />
    </g>
    <g
       id="g820704"
       transform="matrix(0.35277777,0,0,-0.35277777,-410.54464,339.70215)">
      <g
         id="g820706"
         clip-path="url(#clipPath820710)">
        <g
           id="g820712"
           transform="translate(544.478,361.515)">
          <path
             d="m 0,0 c 0.364,-0.819 1.339,-0.531 1.917,-0.252 0.76,0.37 1.097,0.391 1.697,0 0.531,-0.342 1.107,0.61 1.418,0.065 C 5.261,-0.586 4.677,-0.774 4.473,-1.185 4.285,-1.561 4.162,-1.792 4.051,-2.199 3.943,-2.603 3.443,-2.9 3.21,-2.978 2.976,-3.056 2.524,-3.117 2.23,-3.071 1.932,-3.022 1.869,-3.475 2.027,-3.757 2.181,-4.038 2.213,-5.173 2.29,-5.672 2.369,-6.17 2.882,-6.669 3.77,-6.045 c 0.89,0.622 0.842,1.558 1.028,2.149 0.189,0.593 0.453,0.529 0.669,0.391 C 5.686,-3.646 5.641,-4.162 5.39,-4.738 5.142,-5.314 4.752,-5.906 4.486,-6.265 4.225,-6.623 3.893,-7.167 4.285,-7.494 c 0.39,-0.329 0.966,-0.015 1.261,0.063 0.296,0.078 0.733,-0.111 1.029,0.186 0.297,0.296 1.013,1.105 1.339,2.056 0.328,0.95 0.5,1.669 0.702,1.636 C 8.818,-3.584 8.833,-4.023 8.585,-4.738 8.334,-5.454 8.024,-6.11 7.914,-6.404 7.806,-6.703 7.899,-6.872 8.226,-6.872 c 0.328,0 1.231,0.049 1.575,1.091 0.341,1.043 0.512,1.98 0.778,1.885 0.265,-0.093 0.045,-0.903 -0.031,-1.139 -0.079,-0.232 -0.42,-1.15 -0.157,-1.309 0.266,-0.155 0.859,0.063 1.608,0.921 0.748,0.858 0.605,1.76 1.026,1.76 0.421,0 -0.123,-1.57 -0.468,-1.995 -0.341,-0.419 -0.903,-1.339 -2.088,-1.339 0,0 -0.405,0.111 -0.513,0.048 C 9.847,-7.012 9.379,-7.527 8.554,-7.556 8,-7.577 7.773,-7.386 7.773,-7.386 c 0,0 -0.059,0.096 -0.217,-0.045 C 7.401,-7.574 6.887,-8.133 6.295,-8.087 5.704,-8.04 4.987,-7.931 4.94,-8.32 4.892,-8.709 4.737,-9.488 4.565,-9.925 c -0.17,-0.437 -0.436,-1.606 -0.451,-2.618 -0.016,-0.98 -0.779,-2.685 -1.745,-3.239 -1.246,-0.718 -1.93,-1.093 -2.617,-1.34 -0.686,-0.249 -0.918,-0.484 -0.935,-0.779 -0.064,-1.03 0.198,-1.016 0.186,-1.856 -0.016,-1.012 0.035,-2.027 0.67,-2.477 0.375,-0.265 0.642,-0.444 0.968,-0.466 0.251,-0.016 0.301,-0.609 0.501,-0.766 0.183,-0.139 0.401,-0.263 0.54,-0.42 0.141,-0.156 0.437,-0.498 0.794,-0.356 0.36,0.138 0.221,0.31 0.406,-0.016 0.063,-0.111 0.53,-0.096 0.702,-0.063 0.171,0.03 0.561,0.045 0.716,-0.142 0.158,-0.187 0.467,0.064 0.545,0.281 0.078,0.22 0.17,0.234 0.343,0.126 0.172,-0.109 0.624,-0.328 1.262,-0.313 0.641,0.015 0.467,0.265 0.171,0.921 -0.296,0.654 -0.706,1.784 -0.996,2.004 -0.53,0.394 -0.53,0.082 -0.812,0.612 -0.28,0.53 -0.684,-0.062 -0.994,0.017 -0.314,0.076 -0.407,0.141 -0.843,0.558 -0.437,0.424 -0.359,0.143 -0.389,0.266 -0.031,0.126 0.421,0.422 0.918,0.469 0.499,0.046 0.873,-0.047 1.187,-0.205 0.31,-0.153 1.713,-0.045 2.085,0.187 0.374,0.235 1.247,0.221 1.839,-0.202 0.592,-0.42 0.654,-0.497 0.873,-1.01 0.218,-0.516 0.684,-0.705 0.98,-1.218 0.297,-0.515 1.372,-2.739 1.482,-2.93 0.109,-0.185 0.294,-0.668 0.561,-0.933 0.263,-0.265 0.39,-0.904 0.419,-1.402 0.032,-0.498 0.219,-0.608 -0.202,-0.763 -0.422,-0.155 -2.01,-0.655 -2.323,-1.588 -0.226,-0.683 -0.342,-0.751 -0.324,-1.466 0.012,-0.717 1.121,-0.311 1.48,-0.203 0.357,0.109 1.244,0.235 2.071,0.047 0.825,-0.186 1.761,-0.093 2.524,0.171 0.763,0.267 2.104,0.546 2.134,0.905 0.031,0.359 -0.296,0.062 -0.326,0.717 -0.031,0.653 -0.095,0.996 0.079,1.447 0.17,0.454 0.466,0.985 0.37,2.121 -0.092,1.138 0,1.651 -0.731,2.493 -0.336,0.384 -0.595,1.776 -0.327,2.195 0.561,0.872 1.122,0.716 1.621,0.655 0.497,-0.062 1.045,-0.248 1.869,0.061 0.827,0.311 4.939,1.841 5.794,2.243 0.857,0.407 3.243,1.404 4.535,2.213 1.295,0.81 3.832,1.854 4.41,1.808 0.576,-0.049 0.982,-0.123 1.794,-1.278 0.81,-1.152 2.974,-3.429 3.333,-3.66 0.36,-0.235 1.53,-1.114 3.741,-1.497 1.524,-0.263 1.598,-0.611 1.913,-0.81 0.98,-0.62 2.102,-1.075 2.243,-1.229 0.141,-0.159 0.687,-1.339 0.967,-1.623 0.279,-0.279 0.758,-2.058 0.639,-2.318 -0.189,-0.407 -1.248,-0.081 -2.29,-0.548 -1.522,-0.681 -1.083,-1.134 -1.277,-1.464 -0.297,-0.497 -0.439,-0.629 -1.123,-1.167 -0.435,-0.343 -0.537,-1.735 0.343,-1.824 0.92,-0.094 2.165,-0.264 4.05,0.061 1.884,0.328 0.508,0.31 2.026,0.951 0.997,0.42 1.214,-0.204 2.073,-0.155 0.857,0.046 1.138,0.361 0.98,1.637 -0.187,1.509 -1.223,2.324 -0.98,2.71 0.264,0.422 1.15,0.203 1.104,0.621 -0.046,0.421 -0.531,0.999 -0.95,1.435 -0.42,0.435 -0.996,0.842 -0.062,0.997 0.936,0.157 1.4,0.203 -0.017,1.166 -1.277,0.878 -2.433,0.518 -1.557,1.859 0.561,0.855 -0.435,1.259 -1.029,1.352 -0.591,0.095 -1.151,0.095 -1.977,1.09 -0.826,0.998 -1.575,2.044 -2.274,3.772 -0.7,1.728 -1.215,3.054 -2.306,4.502 0,0 -0.368,0.359 0.02,0.342 0.274,-0.013 2.473,-0.076 3.844,0.407 1.369,0.485 2.619,0.962 2.522,1.276 -0.045,0.159 -0.731,0.266 -0.263,0.437 0.467,0.173 3.032,1.135 3.129,1.512 0.093,0.358 -0.697,0.623 -0.357,0.779 0.344,0.158 1.713,0.746 1.775,1.326 0.064,0.574 -0.389,0.231 -0.778,0.279 -0.388,0.047 -0.61,-0.218 -0.279,1.105 0.216,0.874 0.279,1.745 -0.126,1.776 -0.404,0.032 -0.718,-1.172 -1.121,-1.06 -0.39,0.113 -0.654,0.796 -1.138,1.497 -0.483,0.7 -1.744,1.59 -3.614,1.59 -1.028,0 -1.044,-0.227 -1.73,-0.183 -0.389,0.027 -0.622,0.043 -0.902,0.152 0,0 -0.454,-0.53 -1.73,-0.763 -1.278,-0.236 -2.385,-0.5 -5.36,-0.5 -2.977,0 -6.341,0.483 -8.071,0.762 -1.728,0.281 -4.067,0.874 -6.466,0.874 -2.399,0 -4.408,-0.639 -5.5,-1.745 -1.089,-1.107 -2.163,-3.893 0.907,-5.562 1.386,-0.753 3.317,-0.237 3.862,-0.219 0.544,0.015 2.352,-0.077 2.915,-0.28 0.559,-0.2 1.555,-0.328 2.521,0.079 0.967,0.404 2.964,1.296 4.177,1.183 0.824,-0.078 1.371,-0.216 1.371,-0.216 0,0 -0.828,1.136 -1.916,1.869 -1.093,0.732 -2.135,1.604 -3.91,1.604 -1.776,0 -3.273,-1.045 -4.067,-1.559 -0.795,-0.516 -2.12,-0.981 -3.148,-0.981 -1.028,0 -2.055,0.343 -2.055,1.402 0,1.06 0.902,2.584 4.828,2.584 3.507,0 5.22,-0.903 7.852,-1.292 2.635,-0.389 3.927,-0.558 6.155,-0.558 4.145,0 7.058,0.87 9.239,0.87 1.557,0 2.213,-0.325 2.213,-1.279 0,-1.351 -2.804,-3.393 -3.647,-3.844 -1.211,-0.652 -3.954,-1.373 -3.954,-1.373 0,0 -0.811,0.422 -1.809,0.84 -0.997,0.423 -2.602,0.579 -3.444,0.579 -0.842,0 -2.634,-0.108 -4.72,-0.702 -2.09,-0.591 -4.986,-1.325 -6.061,-1.465 -1.077,-0.139 -3.395,-0.499 -4.923,0.016 -1.527,0.513 -2.696,1.541 -3.801,2.914 -1.107,1.369 -1.887,2.226 -2.712,2.399 -0.826,0.172 -1.902,0.234 -1.871,1.214 0.035,1.016 1.99,-0.523 3.134,-0.887 0.98,-0.312 0.731,0.03 0.559,0.683 -0.17,0.656 -0.873,2.027 -1.261,2.011 -0.39,-0.017 -1.061,-0.14 -1.559,0.142 -0.498,0.279 -1.024,0.105 -0.853,0.618 0.125,0.37 1.416,-0.191 2.163,-0.215 0.513,-0.014 0.607,-0.014 0.452,0.561 -0.156,0.578 -1.027,1.028 -1.574,1.108 -0.546,0.078 -0.762,0.373 -0.313,0.53 0.452,0.153 0.577,0.124 0.422,0.545 -0.156,0.421 -0.813,1.822 -1.464,1.571 -0.205,-0.078 -0.417,-0.383 -0.89,-0.513 -0.45,-0.124 -0.965,-0.342 -0.903,0.188 0.062,0.53 1.902,0.716 1.73,1.914 -0.171,1.201 -0.841,1.56 -1.433,1.404 C 10.657,8.051 10.75,7.104 10.391,7.244 10.034,7.381 10.848,8.698 10.64,9.22 10.377,9.89 10.657,10.64 10.485,10.716 10.313,10.797 10.018,10.078 9.877,9.719 9.738,9.361 9.502,8.71 9.147,8.256 8.788,7.805 8.864,7.602 8.57,7.368 8.272,7.132 7.992,6.868 7.011,6.573 6.029,6.277 5.749,5.889 5.546,5.497 5.345,5.11 4.473,4.486 4.066,3.97 4.066,3.97 2.882,3.535 1.917,2.819 0.952,2.101 -0.499,1.12 0,0"
             style="fill:#4c2b63;fill-opacity:1;fill-rule:nonzero;stroke:none"
             id="path820714" />
        </g>
      </g>
    </g>
    <g
       id="g820716"
       transform="matrix(0.35277777,0,0,-0.35277777,-205.72045,217.55955)">
      <path
         d="m 0,0 c 0,0 -0.395,-0.688 -1.727,-1 -1.326,-0.308 -2.305,-1.017 -2.595,-1.411 -0.29,-0.394 -0.934,-0.745 -0.456,-2.035 0.478,-1.289 2.223,-1.538 3.013,-2.68 0.789,-1.144 0.934,-1.705 0.622,-2.534 -0.312,-0.832 -1.477,-2.581 -2.846,-3.18 -0.333,-0.145 -0.766,0.375 -1.328,0.396 -0.584,0.021 -3.813,-1.457 -4.009,-2.7 -0.065,-0.396 0.538,-0.956 0.87,-0.894 0.299,0.053 1.018,0.351 1.704,0.312 0.686,-0.043 2.959,-0.137 3.657,-0.149 1.266,-0.02 2.95,0.022 3.137,0.212 0.186,0.184 0.497,0.519 0.476,1.267 -0.018,0.744 0.437,0.331 0.666,0.269 0.227,-0.064 0.456,-0.208 0.602,0.332 0.145,0.539 0.311,1.042 0.354,2.121 0.041,1.078 0.622,1.682 1.163,2.014 0.538,0.331 1.183,0.686 0.808,1.537 -0.251,0.578 -0.872,0.524 -1.288,0.437 -0.394,-0.083 -0.642,0.459 -0.31,0.933 0.331,0.477 1.37,1.165 1.911,1.473 0.54,0.316 -0.187,0.75 -0.395,0.895 C 3.82,-4.239 3.072,-3.492 2.014,-2.308 0.955,-1.125 0,0 0,0"
         style="fill:#4c2b63;fill-opacity:1;fill-rule:nonzero;stroke:none"
         id="path820718" />
    </g>
    <g
       id="g820818"
       transform="matrix(0.35277777,0,0,-0.35277777,-211.9872,225.13228)" />
  </g>
</svg>
