<?xml version="1.0" encoding="UTF-8" standalone="no"?>
<!-- Created with Inkscape (http://www.inkscape.org/) -->

<svg
   width="26.105745mm"
   height="27.65559mm"
   viewBox="0 0 26.105745 27.65559"
   version="1.1"
   id="svg811127"
   xmlns="http://www.w3.org/2000/svg"
   xmlns:svg="http://www.w3.org/2000/svg"
   xmlns:rdf="http://www.w3.org/1999/02/22-rdf-syntax-ns#"
   xmlns:cc="http://creativecommons.org/ns#"
   xmlns:dc="http://purl.org/dc/elements/1.1/">
  <defs
     id="defs811121">
    <clipPath
       id="clipPath811155"
       clipPathUnits="userSpaceOnUse">
      <path
         id="path811153"
         d="M 0,694.488 H 518.74 V 0 H 0 Z" />
    </clipPath>
    <clipPath
       id="clipPath811265"
       clipPathUnits="userSpaceOnUse">
      <path
         id="path811263"
         d="M 0,0 H 518.74 V 694.488 H 0 Z" />
    </clipPath>
    <clipPath
       id="clipPath811273"
       clipPathUnits="userSpaceOnUse">
      <path
         id="path811271"
         d="M -9,567.68 H 502.079 V 466.273 H -9 Z" />
    </clipPath>
    <clipPath
       id="clipPath811297"
       clipPathUnits="userSpaceOnUse">
      <path
         id="path811295"
         d="M 0,0 H 518.74 V 694.488 H 0 Z" />
    </clipPath>
    <clipPath
       id="clipPath811305"
       clipPathUnits="userSpaceOnUse">
      <path
         id="path811303"
         d="M 68.1181,461.504 H 541.913 V 431.536 H 68.1181 Z" />
    </clipPath>
    <clipPath
       id="clipPath811321"
       clipPathUnits="userSpaceOnUse">
      <path
         id="path811319"
         d="M -9,553.449 H 33.8189 V 480.504 H -9 Z" />
    </clipPath>
    <clipPath
       id="clipPath811397"
       clipPathUnits="userSpaceOnUse">
      <path
         id="path811395"
         d="m 47.204,579.606 h 74.001 V 658 H 47.204 Z" />
    </clipPath>
    <clipPath
       id="clipPath811421"
       clipPathUnits="userSpaceOnUse">
      <path
         id="path811419"
         d="M 291.037,546.449 H 467.502 V 451.67 H 291.037 Z" />
    </clipPath>
  </defs>
  <metadata
     id="metadata811124">
    <rdf:RDF>
      <cc:Work
         rdf:about="">
        <dc:format>image/svg+xml</dc:format>
        <dc:type
           rdf:resource="http://purl.org/dc/dcmitype/StillImage" />
        <dc:title />
      </cc:Work>
    </rdf:RDF>
  </metadata>
  <g
     id="layer1"
     transform="translate(-168.56938,-51.380147)">
    <g
       id="g811391"
       transform="matrix(0.35277777,0,0,-0.35277777,151.9167,283.50792)">
      <g
         id="g811393"
         clip-path="url(#clipPath811397)">
        <g
           id="g811399"
           transform="translate(91.1423,648.8082)">
          <path
             d="m 0,0 -1.043,0.32 1.203,2.1 z m -34.256,-29.185 -1.2,0.203 0.092,0.543 c 0.092,0.542 0.197,0.932 0.764,0.833 0.487,-0.082 0.543,-0.417 0.47,-0.835 z m 54.243,13.001 c 0.164,-0.365 0.085,-0.723 -0.343,-0.915 -0.415,-0.187 -0.684,0.005 -0.901,0.492 l -0.28,0.622 1.194,0.536 z m -56.622,-12.596 -1.085,0.184 0.103,0.599 c 0.061,0.361 0.127,0.692 0.632,0.605 0.379,-0.064 0.526,-0.34 0.468,-0.68 z m 50.978,17.107 2.275,0.819 -1.689,-1.737 z m 7,-36.507 c 0.809,-0.198 1.714,-0.659 1.532,-1.421 -0.155,-0.744 -1.148,-0.806 -2.018,-0.595 -1.061,0.258 -1.774,0.73 -1.598,1.456 0.195,0.804 1.267,0.753 2.084,0.56 m 2.663,5.014 c -0.059,-0.759 -1.036,-0.945 -1.928,-0.843 -1.082,0.126 -1.849,0.504 -1.765,1.248 0.096,0.821 1.162,0.907 1.998,0.811 0.826,-0.093 1.783,-0.438 1.695,-1.216 m -60.279,21.324 c 0.194,0.737 1.19,0.74 2.046,0.48 1.043,-0.314 1.729,-0.828 1.511,-1.544 -0.239,-0.791 -1.305,-0.68 -2.111,-0.437 -0.797,0.241 -1.675,0.753 -1.446,1.501 m 64.9,-38.61 c -1.459,-0.275 -2.831,-0.422 -4.164,-0.422 h -0.004 c -0.061,0 -0.115,0.007 -0.175,0.007 0.383,0.797 0.755,1.602 1.102,2.428 1.355,-0.333 3.544,-0.896 3.661,-1.442 0.018,-0.089 -0.091,-0.292 -0.42,-0.571 m -3.741,-7.379 c -1.267,-0.241 -2.452,-0.359 -3.615,-0.359 -4.05,0 -7.02,1.44 -10.46,3.106 -4.318,2.09 -9.213,4.462 -17.467,4.462 l -0.353,-0.002 -0.36,0.002 c -8.258,0 -13.117,-2.373 -17.405,-4.467 -3.408,-1.663 -6.35,-3.101 -10.385,-3.101 -1.161,0 -2.345,0.118 -3.612,0.359 l -3.266,6.18 c 1.256,-0.202 2.448,-0.301 3.621,-0.301 4.722,0 8.254,1.667 11.994,3.431 4.683,2.209 9.99,4.712 18.994,4.712 l 0.419,-0.001 0.415,0.001 c 8.993,0 14.324,-2.484 19.025,-4.673 3.759,-1.753 7.308,-3.405 12.03,-3.405 h 0.002 c 1.185,0 2.391,0.101 3.657,0.304 z m -67.814,7.95 c 0.117,0.541 2.271,1.099 3.629,1.434 0.355,-0.845 0.733,-1.669 1.127,-2.481 -0.082,-0.002 -0.159,-0.011 -0.244,-0.011 -1.284,0 -2.609,0.143 -4.011,0.399 l 0.006,0.01 c -0.408,0.322 -0.529,0.552 -0.507,0.649 m 59.904,8.181 6.172,-2.304 -0.604,-1.617 -4.733,1.765 -0.827,-2.219 -1.442,0.535 z m -2.74,36.027 -0.926,1.449 0.622,0.641 -0.923,1.448 -0.839,-0.299 -0.912,1.423 6.569,1.953 0.946,-1.481 z m 6.379,-2.737 c -0.691,-0.312 -1.387,-0.329 -1.83,0.146 -0.004,-0.612 -0.015,-0.986 -1.227,-1.529 -0.784,-0.355 -1.062,-0.455 -0.978,-0.641 l -0.181,-0.083 -0.719,1.596 c 0.116,0.1 0.484,0.313 1.017,0.553 0.783,0.352 0.993,0.574 0.665,1.309 l -0.216,0.481 -2.097,-0.943 -0.706,1.578 6.005,2.699 1.024,-2.269 c 0.719,-1.601 0.41,-2.372 -0.757,-2.897 m 2.371,-8.504 -0.38,1.594 c 0.217,0.081 0.327,0.205 0.38,0.347 0.05,0.141 0.05,0.298 0.011,0.462 -0.087,0.371 -0.26,0.5 -0.492,0.446 -0.961,-0.227 0.336,-3.034 -1.994,-3.587 -1.488,-0.354 -2.443,0.467 -2.778,1.875 -0.323,1.353 0.456,2.47 1.606,2.78 l 0.381,-1.608 c -0.223,-0.092 -0.368,-0.233 -0.442,-0.4 -0.075,-0.16 -0.085,-0.35 -0.047,-0.514 0.1,-0.419 0.337,-0.658 0.639,-0.587 0.969,0.232 -0.398,3.02 2.049,3.602 1.364,0.324 2.27,-0.454 2.574,-1.735 0.34,-1.424 -0.414,-2.289 -1.507,-2.675 m 0.212,-6.187 -0.197,1.627 c 0.674,0.132 1.023,0.523 0.959,1.059 -0.074,0.603 -0.762,0.89 -2.023,0.735 -0.918,-0.11 -1.762,-0.374 -1.656,-1.244 0.067,-0.554 0.581,-0.757 1.215,-0.746 l 0.199,-1.649 c -1.708,-0.053 -2.842,0.791 -3.01,2.171 -0.208,1.729 0.992,2.935 3.116,3.191 2.116,0.258 3.572,-0.732 3.748,-2.192 0.195,-1.598 -0.687,-2.612 -2.351,-2.952 m 1.237,-16.892 c -0.443,-1.827 -2.296,-2.291 -3.984,-1.881 -2.18,0.526 -3.123,1.999 -2.755,3.513 0.388,1.607 1.891,2.379 4.072,1.852 2.008,-0.485 3.052,-1.89 2.667,-3.484 m -2.552,4.27 c -2.226,0.252 -3.343,1.595 -3.17,3.144 0.188,1.643 1.583,2.597 3.812,2.342 2.052,-0.232 3.264,-1.497 3.079,-3.125 -0.212,-1.868 -1.992,-2.558 -3.721,-2.361 m 1.687,8.221 2.221,0.011 0.009,-1.726 -6.583,-0.036 -0.011,1.728 2.552,0.013 -0.01,1.632 -2.551,-0.014 -0.009,1.728 6.585,0.034 0.01,-1.727 -2.225,-0.009 z m -9.051,32.727 1.429,-1.518 -4.797,-4.514 -1.062,1.129 1.465,1.379 0.762,0.687 0.925,0.751 -0.009,0.011 -3.735,-2.198 -0.823,0.873 2.421,3.595 -0.01,0.01 -0.656,-0.717 -0.721,-0.729 -1.625,-1.528 -1.064,1.127 4.797,4.514 1.429,-1.519 -2.352,-3.489 z m -6.072,5.37 1.756,-1.121 -3.546,-5.552 -1.307,0.834 1.084,1.696 0.57,0.853 0.713,0.955 -0.013,0.006 -3.082,-3.045 -1.011,0.646 1.468,4.08 L 5.066,-0.047 4.605,-0.904 4.086,-1.787 2.884,-3.667 1.577,-2.832 5.122,2.719 6.881,1.598 5.451,-2.365 Z M -3.873,0.159 C -3.9,-0.702 -3.932,-0.992 -3.726,-0.999 l -10e-4,-0.025 3.648,5.594 1.676,-0.515 -0.13,-6.85 -1.645,0.504 0.06,0.891 -1.644,0.506 -0.443,-0.772 -1.529,0.468 v -0.003 l -1.747,0.055 c -0.039,0.147 -0.069,0.571 -0.051,1.156 0.026,0.858 -0.082,1.146 -0.886,1.171 l -0.528,0.017 -0.071,-2.295 -1.727,0.054 0.207,6.583 2.488,-0.078 C -4.294,5.407 -3.734,4.793 -3.774,3.513 -3.799,2.755 -4.091,2.123 -4.712,1.932 -4.163,1.659 -3.833,1.482 -3.873,0.159 m -9.635,1.018 c 0.226,-0.905 0.659,-1.676 1.503,-1.464 0.34,0.085 0.701,0.486 0.675,0.953 l -0.739,-0.187 -0.346,1.385 2.295,0.574 0.881,-3.533 -1.078,-0.268 -0.223,0.611 c -0.174,-0.476 -0.543,-0.965 -1.344,-1.166 -1.306,-0.324 -2.742,0.44 -3.3,2.666 -0.508,2.042 0.163,3.7 1.817,4.112 1.23,0.306 2.415,-0.244 3.014,-1.765 l -1.591,-0.397 c -0.252,0.495 -0.628,0.702 -1.061,0.594 -0.659,-0.165 -0.786,-0.989 -0.503,-2.115 m -17.75,-38.139 c 0,18.659 10.352,34.185 24.299,34.185 13.936,0 24.3,-15.526 24.3,-34.185 0,-7.653 -1.625,-14.794 -4.538,-20.576 -4.785,2.229 -10.216,4.742 -19.397,4.742 l -0.415,-0.003 -0.419,0.003 c -9.144,0 -14.545,-2.508 -19.29,-4.745 -2.916,5.782 -4.54,12.925 -4.54,20.579 m -6.836,-5.949 0.387,-2.538 0.932,0.144 -0.327,2.147 1.518,0.233 0.329,-2.148 1.021,0.155 -0.403,2.639 1.521,0.233 0.663,-4.349 -6.512,-0.994 -0.647,4.248 z m 0.051,5.7 0.076,-1.64 c -0.226,-0.037 -0.358,-0.139 -0.435,-0.269 -0.078,-0.126 -0.107,-0.282 -0.1,-0.451 0.019,-0.379 0.163,-0.54 0.401,-0.529 0.986,0.044 0.237,3.043 2.63,3.152 1.526,0.068 2.312,-0.911 2.379,-2.361 0.062,-1.387 -0.91,-2.34 -2.097,-2.431 l -0.075,1.652 c 0.236,0.048 0.407,0.156 0.509,0.308 0.103,0.145 0.149,0.328 0.142,0.497 -0.02,0.432 -0.206,0.708 -0.518,0.694 -0.996,-0.046 -0.172,-3.039 -2.685,-3.155 -1.398,-0.064 -2.145,0.868 -2.206,2.186 -0.067,1.461 0.834,2.17 1.979,2.347 m 0.094,5.769 -0.089,-1.549 4.85,-0.281 -0.101,-1.725 -4.85,0.282 -0.087,-1.55 -1.728,0.1 0.277,4.821 z m 0.837,5.705 c 0.669,-0.112 1.096,-0.543 1.299,-0.917 0.279,0.53 0.934,0.731 1.637,0.61 1.452,-0.245 1.805,-1.22 1.576,-2.569 l -0.431,-2.531 -6.492,1.103 0.422,2.483 c 0.199,1.168 0.7,2.042 1.989,1.821 m 3.387,6.029 c 2.146,-0.651 3.003,-2.174 2.551,-3.663 -0.481,-1.585 -2.027,-2.271 -4.171,-1.62 -1.979,0.6 -2.941,2.063 -2.466,3.631 0.547,1.801 2.422,2.156 4.086,1.652 m 4.649,11.42 c 0.631,-0.422 1.014,-1.003 0.846,-1.632 0.523,0.322 0.846,0.511 1.95,-0.224 0.716,-0.478 0.948,-0.658 1.062,-0.486 l 0.167,-0.113 -0.971,-1.457 c -0.145,0.046 -0.519,0.243 -1.007,0.568 -0.714,0.475 -1.017,0.535 -1.462,-0.132 l -0.293,-0.44 1.911,-1.272 -0.958,-1.438 -5.481,3.651 1.38,2.071 c 0.975,1.462 1.789,1.613 2.856,0.904 m 7.471,6.404 1.783,1.243 0.878,-1.259 -1.782,-1.245 0.592,-0.846 2.19,1.527 0.88,-1.258 -3.606,-2.518 -3.77,5.4 3.523,2.46 0.878,-1.262 -2.106,-1.469 z m -4.035,-2.906 -1.514,1.447 1.142,1.195 4.761,-4.55 -1.117,-1.169 -3.892,1.119 1.128,-0.992 1.51,-1.44 -1.145,-1.196 -4.759,4.552 1.118,1.169 3.897,-1.125 z m -5.669,-11.202 -3.574,1.665 0.728,1.565 3.375,-1.572 c 1.917,-0.89 2.422,-1.991 1.685,-3.576 -0.688,-1.479 -1.776,-1.976 -3.833,-1.018 l -3.366,1.568 0.728,1.566 3.574,-1.663 c 0.588,-0.275 1.137,-0.418 1.438,0.227 0.262,0.564 -0.109,0.939 -0.755,1.238 m -2.193,-36.264 -4.084,-0.535 -0.398,1.372 3.732,1.741 -0.006,0.014 -4.073,-0.57 -0.468,1.604 6.69,0.585 0.477,-1.631 -3.504,-1.654 0.006,-0.015 3.839,0.494 0.475,-1.628 -5.956,-3.099 -0.467,1.6 3.741,1.708 z m -9.144,15.293 c 0,24.961 16.008,45.266 35.687,45.266 19.678,0 35.687,-20.305 35.687,-45.266 0,-8.759 -1.992,-16.927 -5.402,-23.862 -0.344,0.02 -0.683,0.049 -1.014,0.088 3.461,6.897 5.488,15.056 5.488,23.774 0,24.285 -15.563,44.375 -34.759,44.375 -19.197,0 -34.758,-20.09 -34.758,-44.375 0,-8.742 2.038,-16.92 5.516,-23.83 -0.332,-0.04 -0.669,-0.073 -1.013,-0.095 -3.429,6.949 -5.432,15.14 -5.432,23.925 m 72.683,-22.702 c -0.245,1.128 -2.165,1.656 -4.281,2.178 2.456,6.188 3.862,13.146 3.862,20.524 0,25.449 -16.409,46.155 -36.577,46.155 -20.167,0 -36.576,-20.706 -36.576,-46.155 0,-7.381 1.407,-14.343 3.863,-20.533 -2.101,-0.517 -4.001,-1.046 -4.246,-2.169 -0.043,-0.202 -0.012,-0.405 0.053,-0.607 l -0.052,0.011 4.476,-8.47 0.235,-0.049 c 1.425,-0.284 2.749,-0.422 4.047,-0.422 4.269,0 7.456,1.556 10.83,3.204 4.188,2.045 8.936,4.363 16.96,4.363 l 0.36,-0.002 0.353,0.002 c 8.021,0 12.805,-2.317 17.025,-4.36 3.406,-1.649 6.621,-3.207 10.902,-3.207 1.302,0 2.627,0.138 4.051,0.422 l 0.239,0.049 4.042,7.808 c 0.377,0.419 0.524,0.84 0.434,1.258 m -59.711,49.856 c 0.382,-0.255 0.36,-0.583 0.065,-1.028 l -0.378,-0.566 -1.088,0.726 0.446,0.669 c 0.224,0.336 0.57,0.456 0.955,0.199 M -5.381,3.217 C -5.398,2.759 -5.685,2.604 -6.22,2.621 l -0.679,0.021 0.04,1.306 0.805,-0.023 C -5.65,3.912 -5.366,3.682 -5.381,3.217 m 6.189,-49.834 c 0,-0.042 -0.047,-0.089 -0.059,-0.123 -0.106,-0.22 -0.142,-0.313 -0.218,-0.515 -0.461,-1.226 -0.496,-2.276 -0.519,-3.144 h -0.567 c 0.018,0.442 0.054,1.486 0.484,2.738 0.047,0.135 0.307,0.808 0.365,0.961 h -1.297 v 0.467 h 1.811 z m -2.458,-1.888 c -0.006,0.089 -0.036,0.396 -0.407,0.396 -0.407,0 -0.407,-0.344 -0.407,-0.98 0,-0.177 0,-0.448 0.017,-0.579 0.018,-0.077 0.06,-0.33 0.408,-0.33 0.401,0 0.401,0.307 0.401,0.915 0,0.105 -0.006,0.495 -0.012,0.578 m -1.298,0.943 c 0,0.515 0,0.573 0.036,0.733 0.041,0.212 0.176,0.648 0.849,0.648 0.265,0 0.531,-0.07 0.702,-0.277 0.177,-0.206 0.177,-0.442 0.177,-0.767 h -0.483 c 0,0.342 0,0.584 -0.384,0.584 -0.313,0 -0.372,-0.218 -0.39,-0.289 -0.029,-0.123 -0.029,-0.295 -0.029,-0.731 v -0.313 c 0.095,0.111 0.253,0.295 0.584,0.295 0.183,0 0.383,-0.059 0.537,-0.224 0.189,-0.194 0.219,-0.408 0.219,-1.075 0,-0.353 0,-0.878 -0.131,-1.102 -0.165,-0.273 -0.489,-0.372 -0.808,-0.372 -0.142,0 -0.737,0 -0.85,0.648 -0.029,0.178 -0.029,0.431 -0.029,0.738 z m -1.331,0.969 c -0.371,0 -0.407,-0.295 -0.407,-0.678 0,-0.396 0,-0.691 0.413,-0.691 0.361,0 0.366,0.271 0.378,0.719 0.006,0.283 0.018,0.65 -0.384,0.65 m -0.017,-1.872 c -0.065,0 -0.171,-0.01 -0.259,-0.076 -0.148,-0.118 -0.148,-0.277 -0.148,-0.713 0,-0.431 0,-0.732 0.407,-0.732 0.413,0 0.413,0.342 0.413,0.756 0,0.412 0,0.765 -0.413,0.765 m 0.554,0.307 c -0.035,-0.012 -0.088,-0.016 -0.112,-0.022 0.019,-0.006 0.083,-0.024 0.131,-0.042 0.347,-0.154 0.347,-0.537 0.347,-0.927 0,-0.33 0,-0.596 -0.094,-0.832 -0.189,-0.465 -0.791,-0.471 -0.844,-0.471 -0.366,0 -0.608,0.153 -0.72,0.295 -0.141,0.176 -0.183,0.436 -0.183,0.666 0,0.873 0,1.169 0.484,1.311 -0.378,0.064 -0.43,0.311 -0.43,0.99 0,0.29 0.006,1.009 0.878,1.009 0.378,0 0.614,-0.153 0.726,-0.295 0.154,-0.206 0.154,-0.501 0.154,-0.678 0,-0.608 -0.036,-0.897 -0.337,-1.004 m -1.985,-2.241 h -0.525 v 3.269 h -0.69 v 0.394 c 0.342,0 0.773,0 0.773,0.503 h 0.442 z m -2.351,0 h -0.501 v 0.697 h 0.501 z m -1.141,0 h -0.514 v 3.699 h -0.79 v 0.467 h 2.095 V -46.7 h -0.791 z m -3.425,1.439 h 0.496 c 0,-0.436 0,-0.484 0.005,-0.561 0.006,-0.105 0.042,-0.495 0.502,-0.495 0.166,0 0.525,0.065 0.525,0.519 0,0.331 -0.147,0.495 -0.384,0.738 l -0.566,0.579 c -0.395,0.406 -0.478,0.66 -0.478,1.038 0,0.23 0,0.973 0.968,0.973 0.213,0 0.572,-0.036 0.761,-0.341 0.118,-0.196 0.118,-0.337 0.118,-0.951 h -0.454 c -0.012,0.396 -0.012,0.436 -0.024,0.513 -0.012,0.077 -0.064,0.337 -0.431,0.337 -0.436,0 -0.436,-0.378 -0.436,-0.496 0,-0.312 0.112,-0.437 0.407,-0.75 l 0.525,-0.547 c 0.342,-0.368 0.496,-0.58 0.496,-1.057 0,-0.886 -0.697,-0.997 -1.009,-0.997 -0.402,0 -0.614,0.135 -0.697,0.206 -0.265,0.206 -0.324,0.519 -0.324,0.832 z m -0.332,-1.439 h -1.877 v 4.166 h 1.829 V -46.7 h -1.31 v -1.24 h 1.151 v -0.47 h -1.151 v -1.523 h 1.358 z m 12.7,19.598 -0.117,-0.314 -0.326,0.081 c -1.242,0.313 -2.567,0.62 -3.847,0.763 l -0.335,0.038 v 16.384 l 0.539,-0.259 c 3.452,-1.654 6.246,-10.897 4.086,-16.693 m -8.856,0.568 -0.333,-0.038 c -1.278,-0.142 -2.606,-0.45 -3.849,-0.763 l -0.326,-0.081 -0.117,0.314 c -2.158,5.797 0.635,15.039 4.087,16.693 l 0.538,0.259 z m 12.529,13.335 c -2.31,5.487 -7.009,9.043 -10.448,10.058 -3.46,-1.021 -8.185,-4.592 -10.505,-10.103 -1.509,-3.586 -2.482,-9.224 0.628,-16.503 2.895,0.935 6.745,2.156 9.909,2.094 3.085,0.051 6.782,-1.115 9.781,-2.083 3.118,7.297 2.146,12.945 0.635,16.537 m -4.842,-12.439 -0.053,0.014 c -0.558,0.145 -1.132,0.292 -1.709,0.386 v 11.263 c 1.576,-2.576 2.614,-7.918 1.762,-11.663 m -1.9,13.281 -0.756,0.72 v -14.392 l 0.398,-0.043 c 0.647,-0.072 1.295,-0.24 1.982,-0.417 l 0.913,-0.231 0.116,0.419 c 1.19,4.305 -0.199,11.602 -2.653,13.944 m -7.488,-12.882 c -0.578,-0.093 -1.153,-0.241 -1.713,-0.385 l -0.048,-0.013 c -0.851,3.742 0.184,9.084 1.761,11.662 z m -2.514,-1.061 0.115,-0.419 0.909,0.229 c 0.689,0.178 1.338,0.346 1.985,0.418 l 0.398,0.043 v 14.393 l -0.755,-0.72 c -2.455,-2.343 -3.843,-9.641 -2.652,-13.944 M 7.531,-44.191 c -0.336,0.149 -0.803,0.279 -1.326,0.418 -0.711,0.294 -1.517,0.463 -2.365,0.623 -2.973,0.557 -6.34,1.192 -7.474,7.802 -1.094,0.215 -2.187,0.356 -3.201,0.356 l -0.207,-0.002 -0.222,0.002 c -0.935,0 -2.005,-0.122 -3.209,-0.355 -1.132,-6.616 -4.501,-7.251 -7.474,-7.807 -0.851,-0.16 -1.661,-0.329 -2.375,-0.627 -0.501,-0.133 -0.957,-0.26 -1.317,-0.415 l -0.015,0.019 c 0.32,0.388 1.224,1.07 3.333,1.714 0.08,0.015 0.156,0.031 0.235,0.048 2.819,0.527 5.726,1.088 6.815,6.903 -1.345,-0.302 -2.846,-0.731 -4.531,-1.303 l -0.321,-0.109 -0.161,0.297 c -4.864,8.924 -3.778,15.799 -2.012,19.995 2.448,5.814 7.488,9.569 11.135,10.597 l 0.11,0.03 0.108,-0.03 c 3.749,-1.057 8.629,-4.73 11.08,-10.552 1.769,-4.202 2.854,-11.09 -2.025,-20.04 l -0.161,-0.297 -0.321,0.109 c -1.257,0.426 -2.838,0.925 -4.464,1.295 1.092,-5.805 3.997,-6.365 6.812,-6.893 0.086,-0.016 0.167,-0.033 0.251,-0.048 2.1,-0.643 3,-1.323 3.318,-1.711 z m -3.216,3.375 c -1.874,0.291 -3.361,0.531 -4.345,3.662 0.756,-0.231 1.514,-0.479 2.264,-0.733 l 0.386,-0.131 0.2,0.356 c 5.397,9.555 4.262,16.96 2.359,21.489 -2.641,6.284 -7.927,10.194 -11.995,11.282 l -0.124,0.032 -0.126,-0.032 c -3.917,-1.009 -9.349,-4.955 -12.018,-11.23 -1.941,-4.564 -3.115,-12.017 2.308,-21.609 l 0.2,-0.355 0.386,0.132 c 0.592,0.2 1.312,0.438 2.074,0.678 -0.985,-3.018 -2.457,-3.257 -4.307,-3.545 -2.384,-0.371 -5.35,-0.833 -7.696,-7.648 l 0.7,-0.338 c 1.746,2.714 4.459,3.14 7.333,3.589 4.156,0.652 8.455,1.325 9.726,9.063 l 0.03,0.18 c 0.402,0.041 0.806,0.08 1.185,0.08 h 0.214 0.206 c 0.308,0 0.624,-0.015 0.943,-0.039 l 0.035,-0.215 c 1.271,-7.738 5.569,-8.412 9.727,-9.063 2.873,-0.451 5.586,-0.875 7.332,-3.591 l 0.699,0.34 c -2.344,6.814 -5.312,7.275 -7.696,7.646 m -11.579,6.627 c -2.157,0 -4.933,-0.575 -8.474,-1.756 -0.314,0.59 -0.597,1.168 -0.858,1.737 2.831,0.914 6.565,2.083 9.577,2.029 2.942,0.05 6.523,-1.073 9.448,-2.019 -0.263,-0.574 -0.545,-1.154 -0.862,-1.747 -2.344,0.785 -5.635,1.756 -8.402,1.756 l -0.207,-0.002 z m 28.171,-29.203 c -0.524,0.06 -0.925,-0.042 -0.998,-0.383 -0.06,-0.283 0.056,-0.356 0.284,-0.456 0.113,-0.116 1.092,-0.345 1.289,-0.396 0.283,-0.07 0.89,-0.24 1.189,-0.547 0.552,-0.568 0.166,-1.532 -0.525,-1.801 -0.468,-0.185 -1.085,-0.175 -1.667,-0.121 -0.267,0.023 -0.89,0.166 -1.255,0.429 -0.439,0.321 -0.624,0.759 -0.617,1.159 l 1.047,-0.111 c -0.009,-0.109 0.014,-0.286 0.177,-0.453 0.216,-0.225 0.598,-0.326 0.957,-0.354 0.361,-0.032 0.707,0.019 0.855,0.107 0.247,0.149 0.334,0.47 0.097,0.703 -0.314,0.325 -1.349,0.437 -2.004,0.693 -0.551,0.213 -0.983,0.592 -0.826,1.259 0.159,0.658 0.814,1.086 2.09,0.95 0.281,-0.028 1.256,-0.148 1.71,-0.72 0.245,-0.311 0.275,-0.707 0.217,-0.843 l -1.013,0.109 c 0.049,0.337 -0.268,0.685 -1.007,0.776 m -5.549,-0.557 1.227,1.26 0.02,-1.778 z m 1.035,2.435 -3.31,-3.185 1.02,-0.424 0.664,0.636 1.8,-0.747 0.01,-0.917 1.019,-0.425 -0.05,4.582 z m -3.172,-0.84 -1.004,-2.043 -0.584,0.287 0.117,0.528 c -0.34,-0.116 -0.926,-0.311 -1.84,0.187 -0.838,0.456 -0.998,0.884 -1.136,1.157 -0.677,1.395 0.42,3.255 2.283,3.031 0.225,-0.028 0.56,-0.106 0.968,-0.308 0.445,-0.22 1.05,-0.562 1.344,-1.175 0.326,-0.694 0.142,-1.023 0.12,-1.114 l -0.888,0.435 c 0.053,0.533 -0.341,0.94 -0.848,1.191 -0.323,0.159 -0.591,0.204 -0.936,0.194 -0.791,-0.108 -1.297,-1.058 -1.249,-1.615 0.034,-0.402 0.227,-0.895 0.75,-1.209 0.319,-0.19 0.831,-0.324 1.246,-0.183 0.38,0.119 0.465,0.295 0.523,0.396 l -1.075,0.526 0.315,0.644 z m -7.91,2.776 1.174,1.31 0.095,-1.776 z m 0.933,2.477 -3.174,-3.321 1.037,-0.38 0.638,0.664 1.831,-0.674 0.047,-0.915 1.036,-0.382 -0.241,4.576 z M -0.284,-57.5 c -0.037,-0.343 -0.153,-0.68 -0.3,-0.864 -0.29,-0.383 -0.702,-0.481 -1.197,-0.417 l -0.859,0.11 0.356,2.747 0.966,-0.125 c 0.387,-0.052 0.658,-0.151 0.888,-0.506 0.159,-0.237 0.192,-0.596 0.146,-0.945 m -0.555,2.118 -2.427,0.315 -0.543,-4.179 2.355,-0.305 c 0.545,-0.072 1.17,0.139 1.586,0.542 0.284,0.264 0.586,0.749 0.681,1.476 0.055,0.432 -0.025,0.773 -0.11,0.957 -0.358,0.829 -1.005,1.123 -1.542,1.194 m -5.159,-2.91 c -0.273,-0.204 -0.619,-0.286 -0.967,-0.289 -0.345,-0.002 -0.691,0.076 -0.968,0.277 -0.35,0.253 -0.524,0.708 -0.535,1.165 0.006,0.454 0.176,0.912 0.52,1.17 0.271,0.203 0.62,0.286 0.965,0.288 0.348,0.004 0.694,-0.076 0.97,-0.277 0.349,-0.252 0.525,-0.706 0.536,-1.164 -0.006,-0.456 -0.176,-0.914 -0.521,-1.17 m -0.988,3.369 c -0.671,-0.005 -1.313,-0.171 -1.751,-0.538 -0.49,-0.412 -0.774,-1.049 -0.77,-1.685 0.003,-0.637 0.297,-1.27 0.793,-1.676 0.44,-0.362 1.083,-0.517 1.755,-0.515 0.671,0.005 1.313,0.17 1.752,0.536 0.489,0.414 0.773,1.051 0.769,1.686 -0.004,0.636 -0.295,1.269 -0.79,1.678 -0.441,0.361 -1.088,0.518 -1.758,0.514 m -3.263,-3.01 c 0.046,-0.364 0,-0.93 -0.825,-1.377 -0.308,-0.154 -0.68,-0.259 -1.044,-0.306 -0.367,-0.046 -0.733,-0.04 -1.03,0.012 -0.915,0.274 -1.191,0.739 -1.244,1.153 l -0.362,2.885 1.074,0.133 0.364,-2.895 c 0.047,-0.262 0.2,-0.655 1.072,-0.546 0.854,0.106 0.953,0.534 0.921,0.798 l -0.362,2.893 1.074,0.135 z m -6.12,-1.137 -0.694,0.269 -0.401,-0.612 0.634,-0.243 c -0.159,-0.124 -0.351,-0.21 -0.552,-0.269 -0.333,-0.096 -0.688,-0.117 -1.008,10e-4 -0.404,0.147 -0.698,0.536 -0.835,0.972 -0.118,0.441 -0.082,0.927 0.18,1.268 0.206,0.271 0.515,0.446 0.848,0.543 0.334,0.098 0.691,0.118 1.01,0 0.404,-0.146 0.698,-0.536 0.832,-0.972 0.086,-0.319 0.096,-0.658 -0.014,-0.957 m 1.012,1.248 c -0.178,0.61 -0.632,1.141 -1.22,1.396 -0.525,0.224 -1.188,0.2 -1.831,0.011 -0.645,-0.187 -1.217,-0.524 -1.537,-0.998 -0.358,-0.532 -0.457,-1.22 -0.277,-1.831 0.178,-0.61 0.635,-1.138 1.22,-1.394 0.525,-0.226 1.187,-0.202 1.833,-0.012 0.47,0.137 0.904,0.354 1.237,0.655 l 0.712,-0.273 0.402,0.606 -0.668,0.255 c 0.232,0.483 0.283,1.064 0.129,1.585 m -7.155,-3.903 0.319,-0.649 -3.528,-1.743 -1.865,3.776 3.418,1.688 0.32,-0.648 -2.447,-1.208 0.425,-0.859 2.259,1.115 0.319,-0.648 -2.259,-1.115 0.482,-0.974 z m -5.09,-0.891 0.9,-2.091 -0.598,-0.258 -0.326,0.431 c -0.132,-0.332 -0.366,-0.906 -1.338,-1.275 -0.893,-0.34 -1.321,-0.183 -1.619,-0.111 -1.497,0.393 -2.199,2.439 -0.819,3.705 0.17,0.156 0.446,0.354 0.864,0.535 0.457,0.196 1.11,0.436 1.767,0.259 0.74,-0.202 0.869,-0.557 0.925,-0.632 l -0.908,-0.392 c -0.372,0.387 -0.937,0.35 -1.454,0.128 -0.333,-0.143 -0.541,-0.315 -0.755,-0.585 -0.436,-0.67 -0.043,-1.673 0.412,-1.997 0.329,-0.236 0.829,-0.411 1.408,-0.22 0.349,0.121 0.785,0.422 0.946,0.833 0.159,0.363 0.08,0.543 0.042,0.652 l -1.1,-0.476 -0.285,0.658 z m -7.676,-2.785 0.492,1.69 0.851,-1.56 z m -0.23,2.637 -1.426,-4.367 1.1,0.103 0.287,0.877 1.941,0.185 0.44,-0.805 1.099,0.103 -2.197,4.022 z"
             style="fill:#1a326c;fill-opacity:1;fill-rule:nonzero;stroke:none"
             id="path811401" />
        </g>
      </g>
    </g>
  </g>
</svg>
