<?xml version="1.0" encoding="UTF-8" standalone="no"?>
<svg
   width="57.088264mm"
   height="57.086853mm"
   viewBox="0 0 57.088263 57.08685"
   version="1.1"
   id="svg67976"
   xmlns="http://www.w3.org/2000/svg"
   xmlns:svg="http://www.w3.org/2000/svg"
   xmlns:rdf="http://www.w3.org/1999/02/22-rdf-syntax-ns#"
   xmlns:cc="http://creativecommons.org/ns#"
   xmlns:dc="http://purl.org/dc/elements/1.1/">
  <defs
     id="defs67970">
    <clipPath
       id="clipPath184968"
       clipPathUnits="userSpaceOnUse">
      <path
         id="path184966"
         d="M 0,0 H 532.913 V 773.858 H 0 Z" />
    </clipPath>
    <clipPath
       id="clipPath187998"
       clipPathUnits="userSpaceOnUse">
      <path
         id="path187996"
         d="M 0,0 H 1190.551 V 841.89 H 0 Z" />
    </clipPath>
  </defs>
  <metadata
     id="metadata67973">
    <rdf:RDF>
      <cc:Work
         rdf:about="">
        <dc:format>image/svg+xml</dc:format>
        <dc:type
           rdf:resource="http://purl.org/dc/dcmitype/StillImage" />
        <dc:title />
      </cc:Work>
    </rdf:RDF>
  </metadata>
  <g
     id="layer1"
     transform="translate(1090.9688,695.68695)">
    <g
       id="g192230">
      <g
         transform="matrix(0.35277777,0,0,-0.35277777,-1154.2188,-143.89641)"
         id="g184962">
        <g
           clip-path="url(#clipPath184968)"
           id="g184964">
          <g
             transform="translate(476.6542,697.5323)"
             id="g184970" />
        </g>
      </g>
      <g
         transform="matrix(0.35277777,0,0,-0.35277777,-1218.9889,-259.9523)"
         id="g187992">
        <g
           clip-path="url(#clipPath187998)"
           id="g187994" />
      </g>
      <g
         transform="matrix(0.35277777,0,0,-0.35277777,-1063.4338,-685.33268)"
         id="g189132">
        <path
           id="path189134"
           style="fill:#ffd200;fill-opacity:1;fill-rule:nonzero;stroke:none"
           d="M 0,0 C 1.168,0.319 2.422,0.383 2.915,-1.04 3.436,-2.527 2.463,-3.436 1.619,-3.737 0.193,-4.244 0,0 0,0" />
      </g>
      <g
         transform="matrix(0.35277777,0,0,-0.35277777,-1062.4261,-638.88144)"
         id="g189136">
        <path
           id="path189138"
           style="fill:#ffd200;fill-opacity:1;fill-rule:nonzero;stroke:none"
           d="m 0,0 c 44.245,0 80.119,35.871 80.119,80.112 0,44.246 -35.874,80.114 -80.119,80.114 -44.243,0 -80.111,-35.868 -80.111,-80.114 C -80.111,35.871 -44.243,0 0,0" />
      </g>
      <g
         transform="matrix(0.35277777,0,0,-0.35277777,-1062.4261,-638.88144)"
         id="g189140">
        <path
           id="path189142"
           style="fill:none;stroke:#ffd200;stroke-width:1.595;stroke-linecap:butt;stroke-linejoin:miter;stroke-miterlimit:4;stroke-dasharray:none;stroke-opacity:1"
           d="m 0,0 c 44.245,0 80.119,35.871 80.119,80.112 0,44.246 -35.874,80.114 -80.119,80.114 -44.243,0 -80.111,-35.868 -80.111,-80.114 C -80.111,35.871 -44.243,0 0,0 Z" />
      </g>
      <g
         transform="matrix(0.35277777,0,0,-0.35277777,-1062.4261,-639.80004)"
         id="g189144">
        <path
           id="path189146"
           style="fill:#000000;fill-opacity:1;fill-rule:nonzero;stroke:none"
           d="m 0,0 c 42.805,0 77.511,34.705 77.511,77.508 0,42.806 -34.706,77.507 -77.511,77.507 -42.803,0 -77.506,-34.701 -77.506,-77.507 C -77.506,34.705 -42.803,0 0,0" />
      </g>
      <g
         transform="matrix(0.35277777,0,0,-0.35277777,-1062.4261,-639.80004)"
         id="g189148">
        <path
           id="path189150"
           style="fill:none;stroke:#000000;stroke-width:0.516;stroke-linecap:butt;stroke-linejoin:miter;stroke-miterlimit:4;stroke-dasharray:none;stroke-opacity:1"
           d="m 0,0 c 42.805,0 77.511,34.705 77.511,77.508 0,42.806 -34.706,77.507 -77.511,77.507 -42.803,0 -77.506,-34.701 -77.506,-77.507 C -77.506,34.705 -42.803,0 0,0 Z" />
      </g>
      <g
         transform="matrix(0.35277777,0,0,-0.35277777,-1062.4113,-682.302)"
         id="g189152">
        <path
           id="path189154"
           style="fill:#000000;fill-opacity:1;fill-rule:nonzero;stroke:none"
           d="m 0,0 c 3.937,0 7.127,3.199 7.127,7.133 0,3.94 -3.19,7.134 -7.127,7.134 -3.938,0 -7.133,-3.194 -7.133,-7.134 C -7.133,3.199 -3.938,0 0,0" />
      </g>
      <g
         transform="matrix(0.35277777,0,0,-0.35277777,-1062.4113,-682.302)"
         id="g189156">
        <path
           id="path189158"
           style="fill:none;stroke:#ffd200;stroke-width:4.653;stroke-linecap:butt;stroke-linejoin:miter;stroke-miterlimit:4;stroke-dasharray:none;stroke-opacity:1"
           d="m 0,0 c 3.937,0 7.127,3.199 7.127,7.133 0,3.94 -3.19,7.134 -7.127,7.134 -3.938,0 -7.133,-3.194 -7.133,-7.134 C -7.133,3.199 -3.938,0 0,0 Z" />
      </g>
      <g
         transform="matrix(0.35277777,0,0,-0.35277777,-1037.2405,-667.19641)"
         id="g189160">
        <path
           id="path189162"
           style="fill:none;stroke:#0054a4;stroke-width:13.401;stroke-linecap:butt;stroke-linejoin:miter;stroke-miterlimit:4;stroke-dasharray:none;stroke-opacity:1"
           d="m 0,0 c 0,-39.453 -31.984,-71.44 -71.428,-71.44 -39.454,0 -71.438,31.987 -71.438,71.44 0,39.448 31.984,71.429 71.438,71.429 C -31.984,71.429 0,39.448 0,0 Z" />
      </g>
      <g
         transform="matrix(0.35277777,0,0,-0.35277777,-1044.3005,-658.77094)"
         id="g189164">
        <path
           id="path189166"
           style="fill:#ffd200;fill-opacity:1;fill-rule:nonzero;stroke:none"
           d="m 0,0 c -12.331,-19.186 -26.997,-32.023 -51.838,-32.023 -24.878,0 -39.663,12.786 -51.979,32.023 l 4.227,0.022 c 15.756,-19.85 23.973,-23.274 47.954,-23.274 h 0.089 c 23.985,0 31.937,3.396 47.693,23.252 z" />
      </g>
      <g
         transform="matrix(0.35277777,0,0,-0.35277777,-1044.3005,-658.77094)"
         id="g189168">
        <path
           id="path189170"
           style="fill:none;stroke:#000000;stroke-width:0.311;stroke-linecap:butt;stroke-linejoin:miter;stroke-miterlimit:4;stroke-dasharray:none;stroke-opacity:1"
           d="m 0,0 c -12.331,-19.186 -26.997,-32.023 -51.838,-32.023 -24.878,0 -39.663,12.786 -51.979,32.023 l 4.227,0.022 c 15.756,-19.85 23.973,-23.274 47.954,-23.274 h 0.089 c 23.985,0 31.937,3.396 47.693,23.252 z" />
      </g>
      <g
         transform="matrix(0.35277777,0,0,-0.35277777,-1063.0021,-684.65333)"
         id="g189172">
        <path
           id="path189174"
           style="fill:none;stroke:#000000;stroke-width:7.755;stroke-linecap:butt;stroke-linejoin:miter;stroke-miterlimit:4;stroke-dasharray:none;stroke-opacity:1"
           d="m 0,0 c -10.368,-2.73 -23.482,-11.797 -20.754,-27.957 2.769,-16.423 21.092,-18.382 29.879,-19.477 17.286,-2.156 24.455,-6.904 29.994,-17.885 4.824,-9.56 3.36,-31.799 -20.423,-41.883" />
      </g>
      <g
         transform="matrix(0.35277777,0,0,-0.35277777,-1071.0425,-674.65878)"
         id="g189176">
        <path
           id="path189178"
           style="fill:#ffd200;fill-opacity:1;fill-rule:nonzero;stroke:none"
           d="m 0,0 c 2.971,-17.622 21.998,-19.986 31.146,-21.115 l 0.519,-0.064 c 16.109,-2.008 23.014,-6.085 28.404,-16.767 1.981,-3.934 3.222,-11.47 0.179,-19.772 -2.167,-5.93 -7.325,-14.083 -19.566,-19.272 l 1.614,-3.805 c 13.602,5.761 19.381,14.956 21.839,21.651 3.496,9.542 1.986,18.387 -0.374,23.062 -6.062,12.019 -14.037,16.818 -31.588,19.009 l -0.521,0.06 C 22.878,-15.921 6.539,-13.898 4.08,0.687 1.452,16.225 14.938,24.098 23.319,26.303 L 22.266,30.3 C 9.217,26.871 -2.733,16.171 0,0" />
      </g>
      <g
         transform="matrix(0.35277777,0,0,-0.35277777,-1066.4039,-647.88867)"
         id="g189180">
        <path
           id="path189182"
           style="fill:#ffd200;fill-opacity:1;fill-rule:nonzero;stroke:none"
           d="m 0,0 c 9.615,-2.014 10.702,-3.608 11.401,-4.733 v -0.012 c 0.697,1.126 1.784,2.722 11.398,4.731 L 0,0" />
      </g>
      <g
         transform="matrix(0.35277777,0,0,-0.35277777,-1062.417,-679.08399)"
         id="g189184">
        <path
           id="path189186"
           style="fill:#ffffff;fill-opacity:1;fill-rule:nonzero;stroke:#ffd200;stroke-width:6.205;stroke-linecap:butt;stroke-linejoin:miter;stroke-miterlimit:4;stroke-dasharray:none;stroke-opacity:1"
           d="M 0,0 V 9.122" />
      </g>
      <g
         transform="matrix(0.35277777,0,0,-0.35277777,-1062.417,-678.67438)"
         id="g189188">
        <path
           id="path189190"
           style="fill:#ffffff;fill-opacity:1;fill-rule:nonzero;stroke:#000000;stroke-width:7.755;stroke-linecap:butt;stroke-linejoin:miter;stroke-miterlimit:4;stroke-dasharray:none;stroke-opacity:1"
           d="M 0,0 V -85.037" />
      </g>
      <g
         transform="matrix(0.35277777,0,0,-0.35277777,-1062.4261,-674.09575)"
         id="g189192">
        <path
           id="path189194"
           style="fill:#ffffff;fill-opacity:1;fill-rule:nonzero;stroke:#000000;stroke-width:11.632;stroke-linecap:butt;stroke-linejoin:miter;stroke-miterlimit:4;stroke-dasharray:none;stroke-opacity:1"
           d="M 0,0 V -45.754" />
      </g>
      <g
         transform="matrix(0.35277777,0,0,-0.35277777,-1062.417,-678.67438)"
         id="g189196">
        <path
           id="path189198"
           style="fill:#ffffff;fill-opacity:1;fill-rule:nonzero;stroke:#ffd200;stroke-width:7.755;stroke-linecap:butt;stroke-linejoin:miter;stroke-miterlimit:4;stroke-dasharray:none;stroke-opacity:1"
           d="M 0,0 V -85.037" />
      </g>
      <g
         transform="matrix(0.35277777,0,0,-0.35277777,-1050.789,-678.5531)"
         id="g189200">
        <path
           id="path189202"
           style="fill:#ffd200;fill-opacity:1;fill-rule:nonzero;stroke:none"
           d="M 0,0 C 1.285,0 2.326,1.043 2.326,2.327 2.326,3.612 1.285,4.653 0,4.653 h -65.92 c -1.287,0 -2.33,-1.041 -2.33,-2.326 C -68.25,1.043 -67.207,0 -65.92,0 H 0" />
      </g>
      <g
         transform="matrix(0.35277777,0,0,-0.35277777,-1056.9758,-648.03514)"
         id="g189204">
        <path
           id="path189206"
           style="fill:#000000;fill-opacity:1;fill-rule:nonzero;stroke:none"
           d="M 0,0 C 2.717,0.519 14.609,5.239 25.397,16.161 28.42,19.223 28.564,11.875 21.649,4.781 16.141,-0.858 1.613,-6.588 1.613,-6.588 L 0,0" />
      </g>
      <g
         transform="matrix(0.35277777,0,0,-0.35277777,-1045.7369,-650.81965)"
         id="g189208">
        <path
           id="path189210"
           style="fill:none;stroke:#e31837;stroke-width:2.394;stroke-linecap:butt;stroke-linejoin:miter;stroke-miterlimit:4;stroke-dasharray:none;stroke-opacity:1"
           d="m 0,0 c 11.671,11.934 18.864,28.261 18.864,46.272 0,36.545 -29.625,66.174 -66.172,66.174 -36.548,0 -66.174,-29.629 -66.174,-66.174 0,-18.186 7.339,-34.661 19.218,-46.622" />
      </g>
      <g
         transform="matrix(0.35277777,0,0,-0.35277777,-1077.2829,-649.67298)"
         id="g189212">
        <path
           id="path189214"
           style="fill:#ffd200;fill-opacity:1;fill-rule:nonzero;stroke:none"
           d="m 0,0 2.004,-1.508 -1.969,-2.622 2.377,-1.785 1.968,2.621 2.009,-1.51 -5.147,-6.849 -2.008,1.506 2.209,2.941 -2.377,1.786 -2.209,-2.942 -2.009,1.511 z" />
      </g>
      <g
         transform="matrix(0.35277777,0,0,-0.35277777,-1073.8024,-645.53578)"
         id="g189216">
        <path
           id="path189218"
           style="fill:#ffd200;fill-opacity:1;fill-rule:nonzero;stroke:none"
           d="M 0,0 C 0.353,0.723 0.8,1.239 1.337,1.541 1.872,1.842 2.463,1.835 3.115,1.519 3.764,1.203 4.134,0.738 4.226,0.127 4.318,-0.483 4.187,-1.152 3.833,-1.875 3.613,-2.321 3.349,-2.701 3.034,-3.001 2.719,-3.307 2.362,-3.497 1.964,-3.584 1.566,-3.668 1.145,-3.602 0.715,-3.391 0.279,-3.18 -0.028,-2.89 -0.206,-2.528 -0.385,-2.157 -0.449,-1.759 -0.402,-1.325 -0.353,-0.89 -0.221,-0.449 0,0 m -2.33,1.139 c -0.395,-0.814 -0.582,-1.602 -0.551,-2.362 0.033,-0.752 0.289,-1.45 0.771,-2.083 0.483,-0.628 1.176,-1.167 2.079,-1.612 0.683,-0.33 1.335,-0.536 1.956,-0.613 0.621,-0.077 1.198,-0.031 1.722,0.139 0.529,0.17 1.006,0.457 1.427,0.858 0.425,0.402 0.785,0.908 1.083,1.521 0.407,0.825 0.588,1.614 0.56,2.37 C 6.693,0.108 6.436,0.8 5.954,1.428 5.472,2.059 4.773,2.593 3.859,3.045 2.944,3.488 2.093,3.708 1.301,3.703 0.509,3.697 -0.196,3.471 -0.808,3.034 -1.419,2.593 -1.928,1.959 -2.33,1.139" />
      </g>
      <g
         transform="matrix(0.35277777,0,0,-0.35277777,-1069.7498,-645.42342)"
         id="g189220">
        <path
           id="path189222"
           style="fill:#ffd200;fill-opacity:1;fill-rule:nonzero;stroke:none"
           d="M 0,0 2.409,-0.693 0.508,-7.3 l 3.741,-1.075 -0.471,-1.63 -6.152,1.772 z" />
      </g>
      <g
         transform="matrix(0.35277777,0,0,-0.35277777,-1065.6069,-643.85867)"
         id="g189224">
        <path
           id="path189226"
           style="fill:#ffd200;fill-opacity:1;fill-rule:nonzero;stroke:none"
           d="M 0,0 0.968,-0.103 C 1.572,-0.169 2.084,-0.323 2.5,-0.563 2.917,-0.801 3.219,-1.128 3.408,-1.541 3.598,-1.953 3.664,-2.438 3.603,-2.99 3.541,-3.555 3.38,-4.014 3.115,-4.374 2.848,-4.734 2.488,-4.986 2.029,-5.135 1.569,-5.28 1.034,-5.322 0.418,-5.257 l -0.97,0.106 z m -3.227,-6.573 3.411,-0.362 c 1.719,-0.184 3.109,0.012 4.169,0.58 1.059,0.573 1.668,1.613 1.83,3.121 C 6.295,-2.175 6.157,-1.312 5.77,-0.637 5.378,0.032 4.793,0.543 4.01,0.889 3.221,1.228 2.251,1.46 1.095,1.585 l -3.411,0.369 -0.911,-8.527" />
      </g>
      <g
         transform="matrix(0.35277777,0,0,-0.35277777,-1059.8675,-644.36978)"
         id="g189228">
        <path
           id="path189230"
           style="fill:#ffd200;fill-opacity:1;fill-rule:nonzero;stroke:none"
           d="M 0,0 6.225,0.978 6.475,-0.618 2.73,-1.206 3.022,-3.067 6.609,-2.508 6.86,-4.104 3.271,-4.666 3.81,-8.077 1.33,-8.467 Z" />
      </g>
      <g
         transform="matrix(0.35277777,0,0,-0.35277777,-1054.0496,-643.89977)"
         id="g189232">
        <path
           id="path189234"
           style="fill:#ffd200;fill-opacity:1;fill-rule:nonzero;stroke:none"
           d="m 0,0 -2.238,-0.765 0.068,3.56 0.028,0.006 z m -4.787,-5.284 2.419,0.824 0.106,1.98 3.348,1.146 1.261,-1.51 2.607,0.89 L -1.262,4.98 -4.18,3.982 Z" />
      </g>
      <g
         transform="matrix(0.35277777,0,0,-0.35277777,-1051.1627,-644.59905)"
         id="g189236">
        <path
           id="path189238"
           style="fill:#ffd200;fill-opacity:1;fill-rule:nonzero;stroke:none"
           d="M 0,0 C 0.858,0.05 1.702,0.309 2.544,0.78 3.448,1.287 3.764,1.776 3.494,2.267 3.324,2.566 3.105,2.702 2.827,2.672 2.552,2.644 1.987,2.536 1.14,2.346 0.293,2.156 -0.395,2.123 -0.914,2.234 c -0.52,0.117 -0.952,0.48 -1.293,1.086 -0.315,0.563 -0.389,1.116 -0.232,1.65 0.155,0.538 0.464,1.029 0.926,1.472 0.463,0.439 0.997,0.836 1.608,1.176 0.814,0.456 1.574,0.757 2.276,0.908 L 3.093,6.899 C 2.422,6.826 1.747,6.596 1.076,6.225 0.092,5.673 -0.27,5.169 -0.015,4.705 0.133,4.446 0.474,4.374 1.017,4.479 1.56,4.588 2.11,4.709 2.675,4.843 3.24,4.976 3.786,4.982 4.313,4.87 4.835,4.758 5.272,4.396 5.612,3.783 6.111,2.893 6.124,2.069 5.656,1.314 5.185,0.562 4.424,-0.112 3.37,-0.703 2.959,-0.929 2.524,-1.137 2.06,-1.327 1.594,-1.514 1.153,-1.656 0.739,-1.747 L 0,0" />
      </g>
      <g
         transform="matrix(0.35277777,0,0,-0.35277777,-1048.2815,-648.38404)"
         id="g189240">
        <path
           id="path189242"
           style="fill:#ffd200;fill-opacity:1;fill-rule:nonzero;stroke:none"
           d="M 0,0 -1.826,-1.441 -2.872,-0.105 2.755,4.313 3.801,2.981 1.975,1.549 6.218,-3.859 4.246,-5.408 Z" />
      </g>
      <g
         transform="matrix(0.35277777,0,0,-0.35277777,-1062.649,-647.89861)"
         id="g189244">
        <path
           id="path189246"
           style="fill:#ffd200;fill-opacity:1;fill-rule:nonzero;stroke:none"
           d="m 0,0 c 2.418,0 10.353,3.859 10.353,5.221 0,1.368 -3.042,6.527 -5.232,7.566 C -2.251,16.274 -9.131,8.936 -9.226,5.416 -9.267,4.054 -2.427,0 0,0" />
      </g>
      <g
         transform="matrix(0.35277777,0,0,-0.35277777,-1063.2821,-656.8294)"
         id="g189248">
        <path
           id="path189250"
           style="fill:none;stroke:#ffd200;stroke-width:2.794;stroke-linecap:butt;stroke-linejoin:miter;stroke-miterlimit:4;stroke-dasharray:none;stroke-opacity:1"
           d="M 0,0 C -0.156,-4.884 2.153,-21.345 -18.484,-17.573" />
      </g>
      <g
         transform="matrix(0.35277777,0,0,-0.35277777,-1063.3737,-685.29147)"
         id="g189252">
        <path
           id="path189254"
           style="fill:#ffd200;fill-opacity:1;fill-rule:nonzero;stroke:none"
           d="M 0,0 C 1.159,0.395 2.636,0.35 3.115,-1.124 3.547,-2.452 2.72,-3.548 1.263,-3.913 -0.256,-4.292 0,0 0,0" />
      </g>
      <g
         transform="matrix(0.35277777,0,0,-0.35277777,-1061.5525,-655.69208)"
         id="g189256">
        <path
           id="path189258"
           style="fill:none;stroke:#ffd200;stroke-width:2.794;stroke-linecap:butt;stroke-linejoin:miter;stroke-miterlimit:4;stroke-dasharray:none;stroke-opacity:1"
           d="M 0,0 C 0,-5.009 2.979,-17.841 19.073,-14.156" />
      </g>
    </g>
  </g>
</svg>
