<?xml version="1.0" encoding="UTF-8" standalone="no"?>
<svg
   id="svg24048"
   version="1.1"
   viewBox="0 0 19.119743 20.457018"
   height="20.457018mm"
   width="19.119743mm"
   xmlns="http://www.w3.org/2000/svg"
   xmlns:svg="http://www.w3.org/2000/svg"
   xmlns:rdf="http://www.w3.org/1999/02/22-rdf-syntax-ns#"
   xmlns:cc="http://creativecommons.org/ns#"
   xmlns:dc="http://purl.org/dc/elements/1.1/">
  <defs
     id="defs24042">
    <clipPath
       clipPathUnits="userSpaceOnUse"
       id="clipPath24080">
      <path
         d="m 507.062,749.519 h 54.198 v 57.989 h -54.198 z"
         id="path24078" />
    </clipPath>
  </defs>
  <metadata
     id="metadata24045">
    <rdf:RDF>
      <cc:Work
         rdf:about="">
        <dc:format>image/svg+xml</dc:format>
        <dc:type
           rdf:resource="http://purl.org/dc/dcmitype/StillImage" />
        <dc:title />
      </cc:Work>
    </rdf:RDF>
  </metadata>
  <g
     transform="translate(-132.74803,-42.277629)"
     id="layer1">
    <g
       transform="matrix(0.35277777,0,0,-0.35277777,-46.132176,327.1485)"
       id="g24074">
      <g
         clip-path="url(#clipPath24080)"
         id="g24076">
        <g
           transform="translate(561.2587,760.4396)"
           id="g24082">
          <path
             id="path24084"
             style="fill:#000000;fill-opacity:1;fill-rule:nonzero;stroke:none"
             d="M 0,0 0.001,0.007 -0.004,0.004 -6.807,6.885 -6.828,6.868 -6.844,6.885 -7.325,6.502 c -0.003,0 -0.538,-0.431 -1.545,-1.096 -1.006,-0.665 -2.466,-1.556 -4.265,-2.446 -2.687,-1.328 -6.13,-2.649 -9.954,-3.235 -0.087,-0.013 -0.175,-0.025 -0.261,-0.037 -0.413,-0.059 -0.83,-0.108 -1.25,-0.149 -0.227,-0.022 -0.455,-0.044 -0.684,-0.06 -0.182,-0.013 -0.365,-0.023 -0.549,-0.032 -0.385,-0.019 -0.769,-0.033 -1.159,-0.034 -0.035,0 -0.071,-0.002 -0.106,-0.002 -0.035,0 -0.07,0.002 -0.106,0.002 -0.389,0.001 -0.775,0.015 -1.159,0.034 -0.184,0.009 -0.366,0.02 -0.549,0.032 -0.229,0.016 -0.456,0.038 -0.683,0.06 -0.421,0.041 -0.839,0.09 -1.252,0.15 -0.087,0.011 -0.173,0.023 -0.259,0.036 -3.824,0.586 -7.268,1.907 -9.954,3.235 -1.8,0.89 -3.26,1.781 -4.266,2.446 -1.007,0.665 -1.543,1.096 -1.545,1.096 l -0.481,0.383 -0.016,-0.017 -0.021,0.017 -6.803,-6.881 -0.005,0.003 0.001,-0.007 -0.001,-0.001 0.002,-0.002 1.869,-10.33 3.443,2.563 4.934,-3.15 -0.953,4.549 c 8.115,-3.929 15.718,-4.157 17.442,-4.162 0.116,0 0.196,0.002 0.257,0.003 0.049,10e-4 0.081,10e-4 0.105,0.002 0.024,-10e-4 0.056,-10e-4 0.105,-0.002 0.061,-0.001 0.141,-0.003 0.257,-0.003 1.723,0.005 9.326,0.233 17.441,4.161 l -0.952,-4.548 4.934,3.15 3.443,-2.563 1.869,10.33 0.002,0.002 z" />
        </g>
        <g
           transform="translate(513.7301,807.5083)"
           id="g24086">
          <path
             id="path24088"
             style="fill:#000000;fill-opacity:1;fill-rule:nonzero;stroke:none"
             d="m 0,0 2.627,-5.418 v -27.918 c -0.02,-3.336 1.678,-5.587 3.957,-6.86 2.275,-1.293 5.102,-1.751 7.644,-1.872 2.024,-0.095 3.43,-0.818 4.347,-1.511 0.459,-0.346 0.791,-0.688 1.005,-0.935 0.107,-0.125 0.185,-0.226 0.233,-0.292 0.024,-0.035 0.041,-0.059 0.052,-0.074 0.009,-0.014 0.008,-0.014 0.009,-0.014 l 0.576,-0.922 0.578,0.922 0.008,0.014 c 0.165,0.237 1.86,2.639 5.638,2.812 2.543,0.121 5.369,0.579 7.644,1.872 2.135,1.194 3.761,3.247 3.94,6.247 0.012,0.2 0.017,0.405 0.016,0.613 V -5.417 L 40.9,0 Z" />
        </g>
        <g
           transform="translate(536.3455,776.316)"
           id="g24090">
          <path
             id="path24092"
             style="fill:#da291c;fill-opacity:1;fill-rule:nonzero;stroke:none"
             d="m 0,0 v -10.211 c 1.036,0.534 2.349,0.96 3.977,1.034 0.095,0.005 0.184,0.014 0.278,0.02 v 4.902 z m -7.662,-9.229 c 1.579,-0.167 3.005,-0.68 4.256,-1.525 v 14.16 l -4.256,4.256 z m -7.661,1.783 c 0.044,-0.025 0.088,-0.053 0.132,-0.077 1.108,-0.63 2.492,-1.082 4.123,-1.36 v 19.951 l -4.255,4.256 z" />
        </g>
        <g
           transform="translate(545.4672,793.4719)"
           id="g24094">
          <path
             id="path24096"
             style="fill:#da291c;fill-opacity:1;fill-rule:nonzero;stroke:none"
             d="m 0,0 0.607,-0.096 -1.414,-3.158 1.728,2.79 0.081,0.189 0.172,0.31 -0.95,0.503 z m -2.219,0.24 -0.096,0.349 -0.957,-0.486 0.217,-0.542 0.352,0.402 1.292,-3.217 -0.831,3.236 z m 1.64,-0.173 0.054,0.247 0.038,0.362 H -1.534 V 0.082 l 0.527,0.174 -0.041,-3.51 z M 1.068,5.263 1.067,5.258 v 1.749 c 0,0 -0.24,0.142 -0.606,0.242 V 5.395 c -0.517,0.066 -0.957,0.02 -0.957,0.02 V 4.896 C -0.11,4.934 0.203,4.93 0.461,4.897 V 3.111 c 0.399,0.1 0.606,0.256 0.606,0.256 V 4.732 C 1.703,4.428 1.628,3.864 1.628,3.864 1.61,3.127 0.277,2.821 -0.496,2.705 V 2.17 C 2.054,2.511 2.108,3.665 2.108,3.665 2.164,3.808 2.141,4.012 2.11,4.187 2.01,4.784 1.565,5.1 1.068,5.263 M -3.12,5.066 V 3.325 C -2.837,3.176 -2.515,3.076 -2.515,3.076 V 4.927 C -1.983,4.855 -1.526,4.903 -1.526,4.903 V 5.421 C -1.927,5.382 -2.252,5.387 -2.515,5.424 v 1.761 c 0,0 -0.196,-0.022 -0.605,-0.249 V 5.602 c -0.598,0.308 -0.523,0.85 -0.523,0.85 0.017,0.735 1.344,1.042 2.117,1.159 V 8.144 C -4.059,7.801 -4.124,6.652 -4.124,6.652 -4.18,6.51 -4.155,6.305 -4.126,6.13 -4.028,5.546 -3.6,5.233 -3.12,5.066 m 0,2.844 c 0.309,0.191 0.605,0.242 0.605,0.242 v 0.561 l 0.139,0.214 c -0.359,-0.015 -0.883,0.22 -0.883,0.22 L -3.12,8.869 Z m 0.801,-6.619 -0.196,0.27 v 0.554 c 0,0 -0.348,0.086 -0.605,0.229 V 1.561 l -0.195,-0.27 c 0.22,0.121 0.496,0.121 0.496,0.121 0,0 0.279,0 0.5,-0.121 m 3.386,1.095 c 0,0 -0.201,-0.121 -0.606,-0.22 V 1.561 L 0.266,1.291 c 0.221,0.121 0.498,0.121 0.498,0.121 0,0 0.278,0 0.498,-0.121 L 1.067,1.561 Z M 0.461,8.222 C 0.928,8.101 1.067,8.003 1.067,8.003 v 0.866 l 0.139,0.278 c 0,0 -0.524,-0.235 -0.883,-0.22 L 0.461,8.713 Z m -1.824,-6.661 -0.23,-0.27 c 0.255,0.121 0.575,0.121 0.575,0.121 0,0 0.322,0 0.578,-0.121 l -0.221,0.27 v 8.588 L 0.289,9.95 v 0.697 h -0.95 V 11.4 H -1.363 V 10.647 H -2.308 V 9.95 l 0.945,0.199 z M -0.496,7.65 C 1.333,7.467 2.208,6.367 2.208,6.367 L 1.956,7.206 C 1.216,7.926 0.133,8.127 -0.496,8.181 Z M -1.526,2.669 C -3.349,2.853 -4.223,3.95 -4.223,3.95 l 0.251,-0.839 c 0.739,-0.718 1.817,-0.92 2.446,-0.975 z" />
        </g>
        <g
           transform="translate(508.7087,759.0178)"
           id="g24098">
          <path
             id="path24100"
             style="fill:#da291c;fill-opacity:1;fill-rule:nonzero;stroke:none"
             d="m 0,0 1.176,-6.5 2.431,1.809 2.99,-1.907 -0.518,2.469 C 4.035,-3.018 1.98,-1.66 0,0" />
        </g>
        <g
           transform="translate(559.6129,759.0178)"
           id="g24102">
          <path
             id="path24104"
             style="fill:#da291c;fill-opacity:1;fill-rule:nonzero;stroke:none"
             d="m 0,0 -1.176,-6.5 -2.431,1.809 -2.99,-1.907 0.518,2.469 C -4.035,-3.018 -1.98,-1.66 0,0" />
        </g>
        <g
           transform="translate(553.1357,761.39)"
           id="g24106">
          <path
             id="path24108"
             style="fill:#da291c;fill-opacity:1;fill-rule:nonzero;stroke:none"
             d="m 0,0 c 0.089,-0.248 0.147,-0.464 0.279,-0.956 l 0.067,-0.255 0.551,0.326 -0.191,0.181 C 0.334,-0.347 0.175,-0.198 0,0 M 1.553,-1.483 0.556,-2.074 0.722,-2.764 -0.264,-3.349 -1.028,0.685 -0.099,1.236 3.075,-1.369 2.079,-1.96 Z m -3.847,-2.855 -1.124,-0.548 -1.692,3.467 1.214,0.592 c 1.089,0.532 1.983,0.459 2.619,-0.843 0.636,-1.303 0.212,-2.068 -1.017,-2.668 m -2.869,-1.269 -1.059,0.984 -0.4,-0.156 0.473,-1.212 -0.982,-0.383 -1.403,3.596 1.609,0.627 c 0.842,0.329 1.527,0.229 1.859,-0.624 0.21,-0.539 0.089,-0.972 -0.236,-1.306 l 1.254,-1.091 z m -4.316,-1.554 c -1.006,-0.29 -1.904,0.18 -2.259,1.413 -0.356,1.234 0.162,2.123 1.168,2.413 1.006,0.289 1.904,-0.18 2.259,-1.414 0.355,-1.233 -0.162,-2.122 -1.168,-2.412 m -3.739,-0.885 c -1.127,-0.202 -1.878,0.525 -2.081,1.647 -0.219,1.22 0.365,2.086 1.384,2.27 0.932,0.167 1.374,-0.168 1.762,-0.837 l -0.887,-0.546 c -0.199,0.329 -0.369,0.528 -0.715,0.465 -0.441,-0.079 -0.551,-0.552 -0.443,-1.154 0.104,-0.58 0.372,-1.008 0.827,-0.926 0.331,0.059 0.44,0.264 0.581,0.658 l 0.975,-0.312 c -0.166,-0.544 -0.502,-1.102 -1.403,-1.265 m -4.514,-0.521 -1.002,0.023 0.021,0.921 c 0.009,0.381 0.023,0.728 0.046,1.025 -0.122,-0.284 -0.33,-0.725 -0.469,-0.998 l -0.532,-1.059 -0.481,1.082 c -0.126,0.279 -0.314,0.73 -0.422,1.02 0.009,-0.298 0.007,-0.646 -0.003,-1.026 l -0.021,-0.921 -1.002,0.023 0.09,3.86 0.98,-0.023 0.449,-1.042 c 0.22,-0.502 0.402,-0.958 0.458,-1.175 0.071,0.219 0.257,0.634 0.511,1.152 l 0.497,1.021 0.97,-0.023 z m -4.526,1.826 c -0.201,-1.206 -1.004,-1.562 -1.96,-1.402 -0.956,0.16 -1.576,0.755 -1.375,1.961 l 0.366,2.178 1.075,-0.18 -0.365,-2.178 c -0.078,-0.467 0.058,-0.786 0.471,-0.855 0.413,-0.069 0.635,0.19 0.713,0.657 l 0.365,2.178 1.075,-0.181 z m -4.981,1.821 c 0.873,-0.484 1.208,-0.886 1.014,-1.582 -0.237,-0.85 -0.977,-1.021 -1.87,-0.772 -0.6,0.166 -1.124,0.524 -1.441,0.887 l 0.724,0.669 c 0.219,-0.262 0.64,-0.579 0.986,-0.675 0.366,-0.102 0.501,-0.071 0.55,0.104 0.038,0.138 -0.071,0.26 -0.538,0.516 -0.84,0.457 -1.202,0.821 -0.995,1.565 0.196,0.701 0.896,1.016 1.793,0.766 0.632,-0.176 1.046,-0.457 1.362,-0.843 l -0.724,-0.669 c -0.267,0.315 -0.561,0.534 -0.938,0.639 -0.308,0.086 -0.409,0.011 -0.446,-0.121 -0.039,-0.138 0.076,-0.239 0.523,-0.484 m -2.927,-1.689 -1.119,0.425 -0.126,1.44 -0.402,0.153 -0.462,-1.217 -0.985,0.374 1.37,3.609 1.614,-0.613 c 0.846,-0.321 1.287,-0.854 0.962,-1.71 -0.206,-0.541 -0.586,-0.781 -1.051,-0.81 z m -5.498,2.225 c -0.873,0.424 -1.302,1.171 -0.767,2.273 l 0.966,1.99 0.982,-0.477 -0.965,-1.99 c -0.207,-0.427 -0.166,-0.772 0.211,-0.954 0.377,-0.184 0.664,0.003 0.871,0.429 l 0.965,1.991 0.983,-0.477 -0.966,-1.991 c -0.534,-1.101 -1.406,-1.218 -2.28,-0.794 m -2.076,3.937 c 0.715,-0.694 0.932,-1.169 0.564,-1.789 -0.45,-0.757 -1.209,-0.729 -2.004,-0.257 -0.535,0.318 -0.946,0.8 -1.157,1.232 l 0.872,0.455 c 0.143,-0.309 0.466,-0.725 0.774,-0.907 0.326,-0.194 0.464,-0.2 0.557,-0.043 0.073,0.123 0,0.269 -0.383,0.637 -0.69,0.66 -0.944,1.105 -0.551,1.768 0.372,0.625 1.128,0.745 1.928,0.27 0.563,-0.335 0.889,-0.714 1.093,-1.168 l -0.873,-0.455 c -0.175,0.373 -0.401,0.661 -0.737,0.861 -0.274,0.163 -0.391,0.117 -0.462,-0.002 -0.073,-0.122 0.012,-0.249 0.379,-0.602 M 1.195,4.114 c -2.05,-1.493 -10.245,-7.004 -20.15,-7.02 -9.905,0.016 -18.101,5.527 -20.151,7.02 l -4.951,-5.009 c 10.075,-8.806 22.603,-9.226 24.758,-9.22 0.217,0 0.323,0.003 0.323,0.003 l 0.025,10e-4 0.017,-10e-4 c 0.001,0 0.105,-0.004 0.321,-0.004 2.155,-0.006 14.682,0.417 24.759,9.22 z m -31.806,-7.357 -0.603,0.23 -0.299,-0.789 0.587,-0.224 c 0.325,-0.123 0.509,-0.028 0.607,0.23 0.086,0.227 0.023,0.434 -0.292,0.553 m 27.11,1.591 -0.237,-0.116 0.889,-1.823 0.208,0.102 c 0.6,0.293 0.721,0.634 0.386,1.322 -0.313,0.64 -0.646,0.808 -1.246,0.515 m -6.822,-2.581 c -0.413,-0.119 -0.547,-0.53 -0.355,-1.197 0.193,-0.667 0.539,-0.952 0.952,-0.833 0.413,0.119 0.546,0.53 0.354,1.198 -0.192,0.667 -0.538,0.951 -0.951,0.832 m 3.688,1.261 -0.601,-0.235 0.307,-0.786 0.586,0.229 c 0.324,0.126 0.396,0.319 0.295,0.576 -0.088,0.227 -0.273,0.338 -0.587,0.216" />
        </g>
        <g
           transform="translate(547.9449,776.3837)"
           id="g24110">
          <path
             id="path24112"
             style="fill:#ffffff;fill-opacity:1;fill-rule:nonzero;stroke:none"
             d="m 0,0 c -0.719,-0.719 -1.5,-0.829 -2.267,-0.541 l -0.87,-2.788 -1.487,1.487 0.836,2.397 -0.533,0.534 -1.617,-1.617 -1.309,1.309 4.795,4.795 2.144,-2.145 C 0.815,2.308 1.137,1.137 0,0 M -11.885,5.419 -7.089,10.213 -3.418,6.541 -4.534,5.425 -6.89,7.781 -7.528,7.144 -6.11,5.727 -7.213,4.624 -8.63,6.042 -9.453,5.22 -7.048,2.816 -8.165,1.699 Z m -2.465,2.465 4.795,4.795 1.356,-1.356 -4.795,-4.795 z m -3.678,3.678 3.144,6.446 1.493,-1.494 -0.938,-1.636 c -0.432,-0.76 -1.172,-1.966 -1.542,-2.514 0.548,0.37 1.747,1.103 2.514,1.541 l 1.637,0.938 1.479,-1.479 -6.445,-3.144 z m -2.768,2.768 0.582,1.103 -1.438,1.439 -1.103,-0.583 -1.425,1.425 6.535,3.054 1.342,-1.342 -3.055,-6.534 z m -5.048,5.049 0.233,0.877 c 0.13,0.472 0.28,0.965 0.424,1.342 -0.363,-0.144 -0.87,-0.295 -1.349,-0.418 l -0.877,-0.233 -1.507,1.507 3.993,0.856 0.856,3.884 1.542,-1.541 -0.199,-0.733 c -0.13,-0.472 -0.267,-0.979 -0.418,-1.335 0.363,0.143 0.871,0.28 1.343,0.411 l 0.733,0.198 1.507,-1.507 -3.857,-0.829 -0.883,-4.021 z m 2.363,10.043 h -7.885 l 1.48,-3.184 V 20.625 L -1.353,-7.907 c 0.216,0.101 0.425,0.208 0.624,0.321 1.418,0.793 3.102,2.367 3.087,5.375 v 5.794 z m 3.206,-11.818 0.794,-0.794 0.226,0.404 c 0.445,0.788 0.63,1.124 0.891,1.507 -0.384,-0.26 -0.726,-0.452 -1.508,-0.89 z M -2.226,3.185 -3.274,2.137 l 0.78,-0.78 c 0.432,-0.432 0.796,-0.412 1.139,-0.07 0.3,0.302 0.348,0.679 -0.069,1.097 z" />
        </g>
      </g>
    </g>
  </g>
</svg>
